M48
; DRILL file {KiCad (5.1.4)-1} date 12/20/2019 10:18:18 PM
; FORMAT={-:-/ absolute / inch / decimal}
; #@! TF.CreationDate,2019-12-20T22:18:18-06:00
; #@! TF.GenerationSoftware,Kicad,Pcbnew,(5.1.4)-1
; #@! TF.FileFunction,Plated,1,2,PTH
FMAT,2
INCH
T1C0.0157
T2C0.0300
T3C0.0350
T4C0.0354
T5C0.0394
T6C0.1598
%
G90
G05
T1
X4.45Y-6.95
X4.45Y-7.3
X4.475Y-6.575
X4.525Y-8.25
X4.575Y-7.95
X4.65Y-6.95
X4.65Y-7.2
X4.75Y-6.95
X4.75Y-7.4
X4.775Y-6.3
X4.8Y-7.2
X4.85Y-6.55
X4.9Y-5.375
X4.9Y-6.1
X4.9Y-6.5
X4.95Y-6.95
X4.95Y-7.8
X5.0Y-5.6
X5.0Y-5.7
X5.0Y-6.5
X5.0Y-8.05
X5.05Y-6.5
X5.05Y-6.95
X5.05Y-7.85
X5.1Y-5.8
X5.1Y-5.9
X5.1Y-8.25
X5.15Y-6.05
X5.15Y-8.2
X5.2Y-5.95
X5.2Y-8.15
X5.2225Y-8.2275
X5.2225Y-8.2275
X5.25Y-6.0
X5.25Y-6.5
X5.25Y-6.95
X5.25Y-8.15
X5.3Y-6.45
X5.3Y-7.65
X5.35Y-6.05
X5.35Y-6.15
X5.35Y-6.95
X5.35Y-8.15
X5.375Y-5.55
X5.4Y-7.65
X5.4Y-8.3
X5.4074Y-7.3926
X5.45Y-6.0
X5.45Y-6.425
X5.475Y-5.75
X5.55Y-7.45
X5.65Y-6.0
X5.65Y-7.725
X5.675Y-8.15
X5.7Y-6.05
X5.75Y-5.95
X5.75Y-6.425
X5.775Y-5.8
X5.8Y-8.45
X5.848Y-6.352
X5.85Y-6.25
X5.85Y-7.125
X5.85Y-7.2284
X5.85Y-8.05
X5.85Y-8.2
X5.9Y-7.85
X5.925Y-6.7
X5.95Y-6.55
X6.0Y-5.95
X6.0Y-6.5
X6.075Y-5.55
X6.125Y-6.65
X6.15Y-5.75
X6.2Y-6.25
X6.25Y-6.35
X6.25Y-7.225
X6.25Y-7.725
X6.25Y-8.175
X6.3Y-7.3
X6.3Y-8.25
X6.35Y-7.8
X6.45Y-6.05
X6.55Y-5.95
X6.55Y-6.875
X6.6Y-6.0
X6.6Y-6.825
X6.65Y-6.05
X6.675Y-6.675
X6.675Y-8.175
X6.7Y-6.15
X6.7Y-7.25
X6.7Y-7.4
X6.7Y-7.725
X6.75Y-6.0
X6.75Y-6.875
X6.75Y-8.4
X6.775Y-5.55
X6.8Y-6.375
X6.8Y-6.825
X6.8Y-8.5
X6.825Y-6.0
X6.85Y-5.75
X6.85Y-5.9
X6.85Y-6.6
X6.85Y-8.5
X6.85Y-8.55
X6.925Y-7.45
X6.925Y-8.175
X7.0Y-5.95
X7.05Y-5.9
X7.1Y-5.95
X7.1Y-6.975
X7.1Y-7.35
X7.15Y-5.775
X7.15Y-6.375
X7.1874Y-6.2874
X7.2Y-6.1
X7.2Y-6.15
X7.2Y-6.2
X7.25Y-6.55
X7.25Y-8.15
X7.35Y-6.5
X7.35Y-8.15
X7.4Y-5.95
X7.4Y-6.1
X7.4Y-8.15
X7.475Y-5.55
X7.5Y-6.15
X7.5Y-8.15
X7.525Y-5.75
X7.55Y-6.2
X7.6Y-6.95
X7.6126Y-6.2874
X7.75Y-7.55
X7.75Y-7.95
X7.8Y-7.7
X7.8Y-8.15
X7.85Y-5.8
X7.85Y-7.95
X7.85Y-8.2565
X7.9Y-6.55
X7.9061Y-6.0689
X7.95Y-6.0
X7.95Y-7.7
X8.0016Y-7.55
X8.0311Y-6.075
X8.1Y-5.95
X8.15Y-6.375
X8.175Y-5.55
X8.175Y-8.525
X8.2Y-6.55
X8.225Y-5.725
X8.3Y-6.0
X8.4Y-5.95
X8.45Y-6.0
X8.475Y-6.375
X8.475Y-7.175
X8.5Y-5.9
X8.5Y-5.9
X8.5Y-6.15
X8.55Y-5.8
X8.55Y-6.05
X8.6Y-5.95
X8.65Y-6.0
X8.65Y-6.7
X8.7Y-7.3
X8.775Y-7.4
X8.8Y-6.0
X8.8Y-6.95
X8.875Y-5.525
X8.9Y-6.05
X8.925Y-5.75
X8.925Y-7.45
X9.025Y-7.175
X9.05Y-5.95
T2
X4.9Y-6.2
T3
X8.365Y-7.25
X8.465Y-7.25
X8.565Y-7.25
X8.925Y-7.25
X9.025Y-7.25
X9.125Y-7.25
T4
X4.9Y-5.5
X4.9Y-5.6
X4.9Y-5.7
X4.9Y-5.8
X4.9Y-5.9
X6.58Y-5.64
X6.68Y-5.64
X6.78Y-5.64
X6.88Y-5.64
X6.98Y-5.64
X5.88Y-5.64
X5.98Y-5.64
X6.08Y-5.64
X6.18Y-5.64
X6.28Y-5.64
X7.98Y-5.64
X8.08Y-5.64
X8.18Y-5.64
X8.28Y-5.64
X8.38Y-5.64
X8.74Y-6.15
X8.74Y-6.25
X8.74Y-6.35
X8.74Y-6.45
X4.5201Y-7.45
X4.5201Y-7.5484
X4.5201Y-7.6469
X4.65Y-7.45
X4.65Y-7.5484
X4.65Y-7.6469
X5.18Y-5.64
X5.28Y-5.64
X5.38Y-5.64
X5.48Y-5.64
X5.58Y-5.64
X8.68Y-5.64
X8.78Y-5.64
X8.88Y-5.64
X8.98Y-5.64
X9.08Y-5.64
X7.28Y-5.64
X7.38Y-5.64
X7.48Y-5.64
X7.58Y-5.64
X7.68Y-5.64
X4.9Y-6.3
X4.9Y-6.4
T5
X7.1Y-7.0803
X7.1Y-7.1803
X7.1Y-8.0703
X7.1Y-8.1703
X7.7Y-7.0803
X7.7Y-7.1803
X7.7Y-7.3803
X7.7Y-8.0703
X7.7Y-8.1703
T6
X8.16Y-7.755
X8.16Y-8.065
X8.16Y-8.375
T0
M30
