%TF.GenerationSoftware,KiCad,Pcbnew,(5.1.10)-1*%
%TF.CreationDate,2022-02-22T15:52:28-06:00*%
%TF.ProjectId,Driveboard_2022,44726976-6562-46f6-9172-645f32303232,rev?*%
%TF.SameCoordinates,Original*%
%TF.FileFunction,Soldermask,Bot*%
%TF.FilePolarity,Negative*%
%FSLAX46Y46*%
G04 Gerber Fmt 4.6, Leading zero omitted, Abs format (unit mm)*
G04 Created by KiCad (PCBNEW (5.1.10)-1) date 2022-02-22 15:52:28*
%MOMM*%
%LPD*%
G01*
G04 APERTURE LIST*
%ADD10C,1.308000*%
%ADD11C,1.258000*%
%ADD12C,1.208000*%
%ADD13C,1.100000*%
%ADD14C,4.000000*%
%ADD15C,1.400000*%
%ADD16C,2.000000*%
%ADD17O,1.350000X1.350000*%
%ADD18R,1.350000X1.350000*%
%ADD19C,1.524000*%
%ADD20O,3.500000X2.200000*%
%ADD21O,2.500000X1.500000*%
%ADD22R,2.500000X1.500000*%
%ADD23C,5.080000*%
%ADD24C,3.073400*%
G04 APERTURE END LIST*
D10*
%TO.C,U2*%
X35814000Y-41148000D03*
X76454000Y-41148000D03*
X81534000Y-56388000D03*
X61214000Y-41148000D03*
X63754000Y-56388000D03*
X71374000Y-56388000D03*
X53594000Y-41148000D03*
X35814000Y-56388000D03*
X68834000Y-56388000D03*
X38354000Y-41148000D03*
X48514000Y-56388000D03*
X43434000Y-56388000D03*
X51054000Y-41148000D03*
X58674000Y-41148000D03*
D11*
X44704000Y-53338000D03*
D10*
X86614000Y-41148000D03*
X73914000Y-56388000D03*
X84074000Y-41148000D03*
X61214000Y-56388000D03*
X56134000Y-56388000D03*
X45974000Y-56388000D03*
D11*
X42164000Y-53338000D03*
D10*
X40894000Y-56388000D03*
X68834000Y-41148000D03*
X78994000Y-41148000D03*
D12*
X41164000Y-47598000D03*
D10*
X51054000Y-56388000D03*
X48514000Y-41148000D03*
X73914000Y-41148000D03*
X78994000Y-56388000D03*
X86614000Y-56388000D03*
X66294000Y-56388000D03*
X76454000Y-56388000D03*
X43434000Y-41148000D03*
X45974000Y-41148000D03*
D11*
X39624000Y-53338000D03*
D10*
X58674000Y-56388000D03*
X66294000Y-41148000D03*
D12*
X41164000Y-45598000D03*
D10*
X81534000Y-41148000D03*
X30734000Y-41148000D03*
X56134000Y-41148000D03*
D11*
X37084000Y-53338000D03*
D10*
X33274000Y-56388000D03*
D11*
X34544000Y-53338000D03*
D10*
X33274000Y-41148000D03*
X40894000Y-41148000D03*
X38354000Y-56388000D03*
X71374000Y-41148000D03*
X84074000Y-56388000D03*
X53594000Y-56388000D03*
X28194000Y-41148000D03*
X73914000Y-48768000D03*
D12*
X43164000Y-45598000D03*
D10*
X73914000Y-46228000D03*
X30734000Y-43688000D03*
X73914000Y-51308000D03*
X30734000Y-56388000D03*
D12*
X41164000Y-43598000D03*
D10*
X73914000Y-43688000D03*
D12*
X43164000Y-47598000D03*
X43164000Y-43598000D03*
D10*
X63754000Y-41148000D03*
X73914000Y-53848000D03*
X28194000Y-56388000D03*
%TD*%
D13*
%TO.C,J2*%
X107650000Y-58875200D03*
X107650000Y-61415200D03*
X107650000Y-63955200D03*
X107650000Y-66495200D03*
X110190000Y-60145200D03*
X110190000Y-62685200D03*
X110190000Y-65225200D03*
X110190000Y-67765200D03*
D14*
X116540000Y-57605200D03*
X116540000Y-69035200D03*
D15*
X121620000Y-59535200D03*
X119830000Y-67105200D03*
X119830000Y-56995200D03*
X121620000Y-69645200D03*
D16*
X113490000Y-71195200D03*
X113490000Y-55445200D03*
%TD*%
D17*
%TO.C,J1*%
X104457500Y-69151000D03*
X102457500Y-69151000D03*
X104457500Y-67151000D03*
X102457500Y-67151000D03*
X104457500Y-65151000D03*
D18*
X102457500Y-65151000D03*
%TD*%
D19*
%TO.C,U1*%
X112014000Y-34925000D03*
X112014000Y-32385000D03*
X112014000Y-29845000D03*
%TD*%
D20*
%TO.C,SW4*%
X92202000Y-62480000D03*
X92202000Y-70680000D03*
D21*
X92202000Y-64580000D03*
X92202000Y-66580000D03*
D22*
X92202000Y-68580000D03*
%TD*%
D23*
%TO.C,Conn13*%
X109448600Y-49911000D03*
X109448600Y-42037000D03*
%TD*%
D19*
%TO.C,Conn6*%
X103378000Y-29464000D03*
D24*
X100330000Y-25146000D03*
D19*
X100330000Y-29464000D03*
X97282000Y-29464000D03*
%TD*%
%TO.C,Conn5*%
X90043000Y-29464000D03*
D24*
X86995000Y-25146000D03*
D19*
X86995000Y-29464000D03*
X83947000Y-29464000D03*
%TD*%
%TO.C,Conn4*%
X76835000Y-29464000D03*
D24*
X73787000Y-25146000D03*
D19*
X73787000Y-29464000D03*
X70739000Y-29464000D03*
%TD*%
%TO.C,Conn3*%
X63627000Y-29464000D03*
D24*
X60579000Y-25146000D03*
D19*
X60579000Y-29464000D03*
X57531000Y-29464000D03*
%TD*%
%TO.C,Conn2*%
X50419000Y-29464000D03*
D24*
X47371000Y-25146000D03*
D19*
X47371000Y-29464000D03*
X44323000Y-29464000D03*
%TD*%
%TO.C,Conn1*%
X37211000Y-29464000D03*
D24*
X34163000Y-25146000D03*
D19*
X34163000Y-29464000D03*
X31115000Y-29464000D03*
%TD*%
M02*
