M48
; DRILL file {KiCad (5.1.10)-1} date 03/09/22 20:01:13
; FORMAT={-:-/ absolute / inch / decimal}
; #@! TF.CreationDate,2022-03-09T20:01:13-06:00
; #@! TF.GenerationSoftware,Kicad,Pcbnew,(5.1.10)-1
; #@! TF.FileFunction,Plated,1,2,PTH
FMAT,2
INCH
T1C0.0157
T2C0.0276
T3C0.0295
T4C0.0315
T5C0.0335
T6C0.0354
T7C0.0400
T8C0.0402
T9C0.0591
T10C0.0630
T11C0.1210
T12C0.1280
T13C0.1598
%
G90
G05
T1
X1.1Y-2.4
X1.1Y-2.55
X1.1Y-2.7
X1.15Y-1.5
X1.2Y-1.85
X1.2Y-2.0
X1.2Y-2.15
X1.2Y-2.8
X1.25Y-2.4
X1.3Y-1.25
X1.3Y-1.4
X1.3Y-1.75
X1.3Y-1.9
X1.3Y-2.05
X1.35Y-2.8
X1.4Y-1.25
X1.4Y-1.5
X1.4Y-1.85
X1.4Y-2.0
X1.4Y-2.4
X1.45Y-1.7
X1.5Y-2.8
X1.55Y-1.5
X1.55Y-1.8
X1.55Y-2.0
X1.55Y-2.4
X1.6Y-2.5
X1.65Y-2.8
X1.7Y-1.5
X1.7Y-1.95
X1.7Y-2.4
X1.8Y-1.3
X1.8Y-1.5
X1.8Y-2.8
X1.85Y-2.4
X1.9Y-1.4
X1.9Y-1.825
X1.9Y-1.95
X1.95Y-2.8
X2.05Y-1.5
X2.1Y-1.825
X2.1Y-1.95
X2.1Y-2.1
X2.1Y-2.4
X2.1Y-2.8
X2.2Y-1.5
X2.2Y-2.3
X2.25Y-1.825
X2.25Y-1.95
X2.25Y-2.1
X2.25Y-2.8
X2.35Y-2.3
X2.35Y-2.45
X2.4Y-1.825
X2.4Y-1.95
X2.4Y-2.1
X2.4Y-2.8
X2.45Y-1.5
X2.55Y-1.825
X2.55Y-1.95
X2.55Y-2.1
X2.55Y-2.8
X2.6Y-1.5
X2.7Y-1.825
X2.7Y-1.95
X2.7Y-2.1
X2.7Y-2.8
X2.75Y-2.325
X2.825Y-2.125
X2.85Y-1.5
X2.85Y-2.8
X2.9Y-2.325
X2.9Y-2.45
X3.0Y-1.35
X3.0Y-1.5
X3.0Y-1.825
X3.0Y-1.95
X3.0Y-2.8
X3.05Y-2.325
X3.1Y-2.125
X3.15Y-1.825
X3.15Y-1.95
X3.15Y-2.35
X3.15Y-2.8
X3.2Y-2.5
X3.25Y-2.3
X3.3Y-1.825
X3.3Y-1.95
X3.3Y-2.8
X3.31Y-1.36
X3.4Y-1.3
X3.4Y-2.15
X3.4Y-2.3
X3.45Y-2.8
X3.5Y-1.5
X3.5Y-1.65
X3.5Y-1.95
X3.54Y-1.36
X3.55Y-2.15
X3.55Y-2.3
X3.6Y-1.85
X3.65Y-1.5
X3.68Y-1.77
X3.7Y-2.0
X3.7Y-2.15
X3.7Y-2.3
X3.75Y-1.7
X3.85Y-1.85
X3.85Y-2.0
X3.85Y-2.15
X3.85Y-2.3
X3.85Y-2.45
X3.85Y-2.6
X3.85Y-2.75
X3.9Y-1.55
X4.0Y-1.7
X4.0Y-1.85
X4.0Y-2.0
X4.0Y-2.15
X4.05Y-1.4
X4.06Y-2.32
X4.1Y-2.36
X4.1Y-2.45
X4.15Y-1.55
X4.15Y-1.7
X4.15Y-1.85
X4.15Y-2.0
X4.15Y-2.15
X4.25Y-0.95
X4.25Y-1.1
X4.25Y-1.25
X4.4Y-0.95
X4.55Y-0.95
X4.55Y-2.55
X4.7Y-0.95
X4.7Y-1.1
X4.7Y-2.55
X4.85Y-0.95
X4.85Y-1.1
X4.85Y-1.25
X4.85Y-1.4
T2
X1.6206Y-1.7165
X1.6206Y-1.7952
X1.6206Y-1.8739
X1.6994Y-1.7165
X1.6994Y-1.7952
X1.6994Y-1.8739
T3
X1.36Y-2.0999
X1.46Y-2.0999
X1.56Y-2.0999
X1.66Y-2.0999
X1.76Y-2.0999
T4
X1.11Y-1.62
X1.11Y-2.22
X1.21Y-1.62
X1.21Y-1.72
X1.21Y-2.22
X1.31Y-1.62
X1.31Y-2.22
X1.41Y-1.62
X1.41Y-2.22
X1.51Y-1.62
X1.51Y-2.22
X1.61Y-1.62
X1.61Y-2.22
X1.71Y-1.62
X1.71Y-2.22
X1.81Y-1.62
X1.81Y-2.22
X1.91Y-1.62
X1.91Y-2.22
X2.01Y-1.62
X2.01Y-2.22
X2.11Y-1.62
X2.11Y-2.22
X2.21Y-1.62
X2.21Y-2.22
X2.31Y-1.62
X2.31Y-2.22
X2.41Y-1.62
X2.41Y-2.22
X2.51Y-1.62
X2.51Y-2.22
X2.61Y-1.62
X2.61Y-2.22
X2.71Y-1.62
X2.71Y-2.22
X2.81Y-1.62
X2.81Y-2.22
X2.91Y-1.62
X2.91Y-1.72
X2.91Y-1.82
X2.91Y-1.92
X2.91Y-2.02
X2.91Y-2.12
X2.91Y-2.22
X3.01Y-1.62
X3.01Y-2.22
X3.11Y-1.62
X3.11Y-2.22
X3.21Y-1.62
X3.21Y-2.22
X3.31Y-1.62
X3.31Y-2.22
X3.41Y-1.62
X3.41Y-2.22
X3.63Y-2.5425
X3.63Y-2.6213
X3.63Y-2.7
X4.0338Y-2.565
X4.0338Y-2.6437
X4.0338Y-2.7225
X4.1125Y-2.565
X4.1125Y-2.6437
X4.1125Y-2.7225
T5
X4.41Y-1.175
X4.41Y-1.275
X4.41Y-1.375
T6
X4.2382Y-2.3179
X4.2382Y-2.4179
X4.2382Y-2.5179
X4.2382Y-2.6179
X4.3382Y-2.3679
X4.3382Y-2.4679
X4.3382Y-2.5679
X4.3382Y-2.6679
T7
X1.225Y-1.16
X1.345Y-1.16
X1.465Y-1.16
X1.745Y-1.16
X1.865Y-1.16
X1.985Y-1.16
X2.265Y-1.16
X2.385Y-1.16
X2.505Y-1.16
X2.785Y-1.16
X2.905Y-1.16
X3.025Y-1.16
X3.305Y-1.16
X3.425Y-1.16
X3.545Y-1.16
X3.83Y-1.16
X3.95Y-1.16
X4.07Y-1.16
T8
X4.7177Y-2.2439
X4.7177Y-2.6419
X4.7882Y-2.3439
X4.7882Y-2.7419
T9
X3.63Y-2.4598
X3.63Y-2.7827
T10
X4.4681Y-2.1829
X4.4681Y-2.803
T11
X1.345Y-0.99
X1.865Y-0.99
X2.385Y-0.99
X2.905Y-0.99
X3.425Y-0.99
X3.95Y-0.99
T12
X4.5882Y-2.2679
X4.5882Y-2.7179
T13
X4.309Y-1.655
X4.309Y-1.965
T0
M30
