%TF.GenerationSoftware,KiCad,Pcbnew,(5.1.10)-1*%
%TF.CreationDate,2022-03-09T20:01:01-06:00*%
%TF.ProjectId,Driveboard_2022,44726976-6562-46f6-9172-645f32303232,rev?*%
%TF.SameCoordinates,Original*%
%TF.FileFunction,Legend,Bot*%
%TF.FilePolarity,Positive*%
%FSLAX46Y46*%
G04 Gerber Fmt 4.6, Leading zero omitted, Abs format (unit mm)*
G04 Created by KiCad (PCBNEW (5.1.10)-1) date 2022-03-09 20:01:01*
%MOMM*%
%LPD*%
G01*
G04 APERTURE LIST*
%ADD10C,0.381000*%
%ADD11C,0.200000*%
%ADD12C,0.127000*%
%ADD13C,0.150000*%
G04 APERTURE END LIST*
D10*
X102216857Y-35795857D02*
X101672571Y-35977285D01*
X101491142Y-36158714D01*
X101309714Y-36521571D01*
X101309714Y-37065857D01*
X101491142Y-37428714D01*
X101672571Y-37610142D01*
X102035428Y-37791571D01*
X103486857Y-37791571D01*
X103486857Y-33981571D01*
X102216857Y-33981571D01*
X101854000Y-34163000D01*
X101672571Y-34344428D01*
X101491142Y-34707285D01*
X101491142Y-35070142D01*
X101672571Y-35433000D01*
X101854000Y-35614428D01*
X102216857Y-35795857D01*
X103486857Y-35795857D01*
X97499714Y-37791571D02*
X98769714Y-35977285D01*
X99676857Y-37791571D02*
X99676857Y-33981571D01*
X98225428Y-33981571D01*
X97862571Y-34163000D01*
X97681142Y-34344428D01*
X97499714Y-34707285D01*
X97499714Y-35251571D01*
X97681142Y-35614428D01*
X97862571Y-35795857D01*
X98225428Y-35977285D01*
X99676857Y-35977285D01*
X88646000Y-35795857D02*
X88101714Y-35977285D01*
X87920285Y-36158714D01*
X87738857Y-36521571D01*
X87738857Y-37065857D01*
X87920285Y-37428714D01*
X88101714Y-37610142D01*
X88464571Y-37791571D01*
X89916000Y-37791571D01*
X89916000Y-33981571D01*
X88646000Y-33981571D01*
X88283142Y-34163000D01*
X88101714Y-34344428D01*
X87920285Y-34707285D01*
X87920285Y-35070142D01*
X88101714Y-35433000D01*
X88283142Y-35614428D01*
X88646000Y-35795857D01*
X89916000Y-35795857D01*
X84291714Y-37791571D02*
X86106000Y-37791571D01*
X86106000Y-33981571D01*
X77089000Y-37791571D02*
X77089000Y-33981571D01*
X75819000Y-36703000D01*
X74549000Y-33981571D01*
X74549000Y-37791571D01*
X70557571Y-37791571D02*
X71827571Y-35977285D01*
X72734714Y-37791571D02*
X72734714Y-33981571D01*
X71283285Y-33981571D01*
X70920428Y-34163000D01*
X70739000Y-34344428D01*
X70557571Y-34707285D01*
X70557571Y-35251571D01*
X70739000Y-35614428D01*
X70920428Y-35795857D01*
X71283285Y-35977285D01*
X72734714Y-35977285D01*
X63772142Y-37791571D02*
X63772142Y-33981571D01*
X62502142Y-36703000D01*
X61232142Y-33981571D01*
X61232142Y-37791571D01*
X57603571Y-37791571D02*
X59417857Y-37791571D01*
X59417857Y-33981571D01*
X48858714Y-35795857D02*
X50128714Y-35795857D01*
X50128714Y-37791571D02*
X50128714Y-33981571D01*
X48314428Y-33981571D01*
X44685857Y-37791571D02*
X45955857Y-35977285D01*
X46863000Y-37791571D02*
X46863000Y-33981571D01*
X45411571Y-33981571D01*
X45048714Y-34163000D01*
X44867285Y-34344428D01*
X44685857Y-34707285D01*
X44685857Y-35251571D01*
X44867285Y-35614428D01*
X45048714Y-35795857D01*
X45411571Y-35977285D01*
X46863000Y-35977285D01*
X35287857Y-35795857D02*
X36557857Y-35795857D01*
X36557857Y-37791571D02*
X36557857Y-33981571D01*
X34743571Y-33981571D01*
X31477857Y-37791571D02*
X33292142Y-37791571D01*
X33292142Y-33981571D01*
D11*
%TO.C,U1*%
X112114000Y-38935000D02*
G75*
G03*
X112114000Y-38935000I-100000J0D01*
G01*
D12*
X110014000Y-38235000D02*
X110014000Y-26535000D01*
X117514000Y-38235000D02*
X117514000Y-26535000D01*
X117514000Y-26535000D02*
X110014000Y-26535000D01*
X110014000Y-38235000D02*
X117514000Y-38235000D01*
D13*
X118131380Y-34048095D02*
X118940904Y-34048095D01*
X119036142Y-34095714D01*
X119083761Y-34143333D01*
X119131380Y-34238571D01*
X119131380Y-34429047D01*
X119083761Y-34524285D01*
X119036142Y-34571904D01*
X118940904Y-34619523D01*
X118131380Y-34619523D01*
X119131380Y-35619523D02*
X119131380Y-35048095D01*
X119131380Y-35333809D02*
X118131380Y-35333809D01*
X118274238Y-35238571D01*
X118369476Y-35143333D01*
X118417095Y-35048095D01*
%TD*%
M02*
