%TF.GenerationSoftware,KiCad,Pcbnew,(5.1.10)-1*%
%TF.CreationDate,2022-02-22T15:52:28-06:00*%
%TF.ProjectId,Driveboard_2022,44726976-6562-46f6-9172-645f32303232,rev?*%
%TF.SameCoordinates,Original*%
%TF.FileFunction,Copper,L2,Bot*%
%TF.FilePolarity,Positive*%
%FSLAX46Y46*%
G04 Gerber Fmt 4.6, Leading zero omitted, Abs format (unit mm)*
G04 Created by KiCad (PCBNEW (5.1.10)-1) date 2022-02-22 15:52:28*
%MOMM*%
%LPD*%
G01*
G04 APERTURE LIST*
%TA.AperFunction,ComponentPad*%
%ADD10C,1.308000*%
%TD*%
%TA.AperFunction,ComponentPad*%
%ADD11C,1.258000*%
%TD*%
%TA.AperFunction,ComponentPad*%
%ADD12C,1.208000*%
%TD*%
%TA.AperFunction,ComponentPad*%
%ADD13C,1.100000*%
%TD*%
%TA.AperFunction,ComponentPad*%
%ADD14C,4.000000*%
%TD*%
%TA.AperFunction,ComponentPad*%
%ADD15C,1.400000*%
%TD*%
%TA.AperFunction,ComponentPad*%
%ADD16C,2.000000*%
%TD*%
%TA.AperFunction,ComponentPad*%
%ADD17O,1.350000X1.350000*%
%TD*%
%TA.AperFunction,ComponentPad*%
%ADD18R,1.350000X1.350000*%
%TD*%
%TA.AperFunction,ComponentPad*%
%ADD19C,1.524000*%
%TD*%
%TA.AperFunction,ComponentPad*%
%ADD20O,3.500000X2.200000*%
%TD*%
%TA.AperFunction,ComponentPad*%
%ADD21O,2.500000X1.500000*%
%TD*%
%TA.AperFunction,ComponentPad*%
%ADD22R,2.500000X1.500000*%
%TD*%
%TA.AperFunction,ComponentPad*%
%ADD23C,5.080000*%
%TD*%
%TA.AperFunction,ComponentPad*%
%ADD24C,3.073400*%
%TD*%
%TA.AperFunction,ViaPad*%
%ADD25C,0.800000*%
%TD*%
%TA.AperFunction,Conductor*%
%ADD26C,0.762000*%
%TD*%
%TA.AperFunction,Conductor*%
%ADD27C,0.381000*%
%TD*%
%TA.AperFunction,Conductor*%
%ADD28C,0.254000*%
%TD*%
%TA.AperFunction,Conductor*%
%ADD29C,0.100000*%
%TD*%
G04 APERTURE END LIST*
D10*
%TO.P,U2,23*%
%TO.N,Net-(U2-Pad23)*%
X35814000Y-41148000D03*
%TO.P,U2,37*%
%TO.N,Net-(U2-Pad37)*%
X76454000Y-41148000D03*
%TO.P,U2,30*%
%TO.N,Net-(U2-Pad30)*%
X81534000Y-56388000D03*
%TO.P,U2,13*%
%TO.N,Net-(U2-Pad13)*%
X61214000Y-41148000D03*
%TO.P,U2,3.3V_1*%
%TO.N,+3V3*%
X63754000Y-56388000D03*
%TO.P,U2,26*%
%TO.N,Net-(U2-Pad26)*%
X71374000Y-56388000D03*
%TO.P,U2,16*%
%TO.N,MRRX*%
X53594000Y-41148000D03*
%TO.P,U2,2*%
%TO.N,Net-(U2-Pad2)*%
X35814000Y-56388000D03*
%TO.P,U2,25*%
%TO.N,BRRX*%
X68834000Y-56388000D03*
%TO.P,U2,22*%
%TO.N,Net-(U2-Pad22)*%
X38354000Y-41148000D03*
%TO.P,U2,7*%
%TO.N,FRRX*%
X48514000Y-56388000D03*
%TO.P,U2,5*%
%TO.N,Net-(U2-Pad5)*%
X43434000Y-56388000D03*
%TO.P,U2,17*%
%TO.N,MRTX*%
X51054000Y-41148000D03*
%TO.P,U2,14*%
%TO.N,MLTX*%
X58674000Y-41148000D03*
D11*
%TO.P,U2,USB_GND2*%
%TO.N,GND*%
X44704000Y-53338000D03*
D10*
%TO.P,U2,33*%
%TO.N,DIR_SWITCH*%
X86614000Y-41148000D03*
%TO.P,U2,27*%
%TO.N,Net-(U2-Pad27)*%
X73914000Y-56388000D03*
%TO.P,U2,34*%
%TO.N,Net-(U2-Pad34)*%
X84074000Y-41148000D03*
%TO.P,U2,12*%
%TO.N,MR_DRIVE*%
X61214000Y-56388000D03*
%TO.P,U2,10*%
%TO.N,FR_DRIVE*%
X56134000Y-56388000D03*
%TO.P,U2,6*%
%TO.N,Net-(U2-Pad6)*%
X45974000Y-56388000D03*
D11*
%TO.P,U2,USB_GND1*%
%TO.N,GND*%
X42164000Y-53338000D03*
D10*
%TO.P,U2,4*%
%TO.N,Net-(U2-Pad4)*%
X40894000Y-56388000D03*
%TO.P,U2,40*%
%TO.N,Net-(U2-Pad40)*%
X68834000Y-41148000D03*
%TO.P,U2,36*%
%TO.N,Net-(U2-Pad36)*%
X78994000Y-41148000D03*
D12*
%TO.P,U2,T-*%
%TO.N,N/C*%
X41164000Y-47598000D03*
D10*
%TO.P,U2,8*%
%TO.N,FRTX*%
X51054000Y-56388000D03*
%TO.P,U2,18*%
%TO.N,Net-(U2-Pad18)*%
X48514000Y-41148000D03*
%TO.P,U2,38*%
%TO.N,Net-(U2-Pad38)*%
X73914000Y-41148000D03*
%TO.P,U2,29*%
%TO.N,BR_DRIVE*%
X78994000Y-56388000D03*
%TO.P,U2,32*%
%TO.N,Net-(U2-Pad32)*%
X86614000Y-56388000D03*
%TO.P,U2,24*%
%TO.N,BRTX*%
X66294000Y-56388000D03*
%TO.P,U2,28*%
%TO.N,BL_DRIVE*%
X76454000Y-56388000D03*
%TO.P,U2,20*%
%TO.N,BLTX*%
X43434000Y-41148000D03*
%TO.P,U2,19*%
%TO.N,Net-(U2-Pad19)*%
X45974000Y-41148000D03*
D11*
%TO.P,U2,D+*%
%TO.N,Net-(U2-PadD+)*%
X39624000Y-53338000D03*
D10*
%TO.P,U2,11*%
%TO.N,ML_DRIVE*%
X58674000Y-56388000D03*
%TO.P,U2,41*%
%TO.N,Net-(U2-Pad41)*%
X66294000Y-41148000D03*
D12*
%TO.P,U2,LED*%
%TO.N,Net-(U2-PadLED)*%
X41164000Y-45598000D03*
D10*
%TO.P,U2,35*%
%TO.N,Net-(U2-Pad35)*%
X81534000Y-41148000D03*
%TO.P,U2,GND3*%
%TO.N,GND*%
X30734000Y-41148000D03*
%TO.P,U2,15*%
%TO.N,MLRX*%
X56134000Y-41148000D03*
D11*
%TO.P,U2,D-*%
%TO.N,N/C*%
X37084000Y-53338000D03*
D10*
%TO.P,U2,1*%
%TO.N,FLTX*%
X33274000Y-56388000D03*
D11*
%TO.P,U2,5V*%
%TO.N,Net-(U2-Pad5V)*%
X34544000Y-53338000D03*
D10*
%TO.P,U2,3.3V_2*%
%TO.N,+3V3*%
X33274000Y-41148000D03*
%TO.P,U2,21*%
%TO.N,BLRX*%
X40894000Y-41148000D03*
%TO.P,U2,3*%
%TO.N,Net-(U2-Pad3)*%
X38354000Y-56388000D03*
%TO.P,U2,39*%
%TO.N,Net-(U2-Pad39)*%
X71374000Y-41148000D03*
%TO.P,U2,31*%
%TO.N,Net-(U2-Pad31)*%
X84074000Y-56388000D03*
%TO.P,U2,9*%
%TO.N,FL_DRIVE*%
X53594000Y-56388000D03*
%TO.P,U2,VIN*%
%TO.N,Net-(U2-PadVIN)*%
X28194000Y-41148000D03*
%TO.P,U2,GND4*%
%TO.N,GND*%
X73914000Y-48768000D03*
D12*
%TO.P,U2,GND5*%
X43164000Y-45598000D03*
D10*
%TO.P,U2,PROGRAM*%
%TO.N,Net-(U2-PadPROGRAM)*%
X73914000Y-46228000D03*
%TO.P,U2,VUSB*%
%TO.N,Net-(U2-PadVUSB)*%
X30734000Y-43688000D03*
%TO.P,U2,3.3V_3*%
%TO.N,+3V3*%
X73914000Y-51308000D03*
%TO.P,U2,0*%
%TO.N,FLRX*%
X30734000Y-56388000D03*
D12*
%TO.P,U2,R+*%
%TO.N,Net-(U2-PadR+)*%
X41164000Y-43598000D03*
D10*
%TO.P,U2,ON/OFF*%
%TO.N,Net-(U2-PadON/OFF)*%
X73914000Y-43688000D03*
D12*
%TO.P,U2,T+*%
%TO.N,Net-(U2-PadT+)*%
X43164000Y-47598000D03*
%TO.P,U2,R-*%
%TO.N,N/C*%
X43164000Y-43598000D03*
D10*
%TO.P,U2,GND2*%
%TO.N,GND*%
X63754000Y-41148000D03*
%TO.P,U2,VBAT*%
%TO.N,Net-(U2-PadVBAT)*%
X73914000Y-53848000D03*
%TO.P,U2,GND1*%
%TO.N,GND*%
X28194000Y-56388000D03*
%TD*%
D13*
%TO.P,J2,8*%
%TO.N,Net-(C2-Pad2)*%
X107650000Y-58875200D03*
%TO.P,J2,6*%
%TO.N,Net-(J1-Pad5)*%
X107650000Y-61415200D03*
%TO.P,J2,4*%
%TO.N,Net-(J1-Pad6)*%
X107650000Y-63955200D03*
%TO.P,J2,2*%
%TO.N,Net-(C2-Pad1)*%
X107650000Y-66495200D03*
%TO.P,J2,7*%
%TO.N,Net-(J2-Pad7)*%
X110190000Y-60145200D03*
%TO.P,J2,5*%
%TO.N,Net-(C2-Pad1)*%
X110190000Y-62685200D03*
%TO.P,J2,3*%
%TO.N,Net-(J1-Pad2)*%
X110190000Y-65225200D03*
%TO.P,J2,1*%
%TO.N,Net-(J1-Pad1)*%
X110190000Y-67765200D03*
D14*
%TO.P,J2,14*%
%TO.N,N/C*%
X116540000Y-57605200D03*
%TO.P,J2,13*%
X116540000Y-69035200D03*
D15*
%TO.P,J2,11*%
%TO.N,Net-(J2-Pad11)*%
X121620000Y-59535200D03*
%TO.P,J2,10*%
%TO.N,Net-(J1-Pad4)*%
X119830000Y-67105200D03*
%TO.P,J2,12*%
%TO.N,Net-(J2-Pad12)*%
X119830000Y-56995200D03*
%TO.P,J2,9*%
%TO.N,Net-(C2-Pad2)*%
X121620000Y-69645200D03*
D16*
%TO.P,J2,15*%
%TO.N,GND*%
X113490000Y-71195200D03*
%TO.P,J2,16*%
X113490000Y-55445200D03*
%TD*%
D17*
%TO.P,J1,6*%
%TO.N,Net-(J1-Pad6)*%
X104457500Y-69151000D03*
%TO.P,J1,5*%
%TO.N,Net-(J1-Pad5)*%
X102457500Y-69151000D03*
%TO.P,J1,4*%
%TO.N,Net-(J1-Pad4)*%
X104457500Y-67151000D03*
%TO.P,J1,3*%
%TO.N,Net-(C2-Pad2)*%
X102457500Y-67151000D03*
%TO.P,J1,2*%
%TO.N,Net-(J1-Pad2)*%
X104457500Y-65151000D03*
D18*
%TO.P,J1,1*%
%TO.N,Net-(J1-Pad1)*%
X102457500Y-65151000D03*
%TD*%
D19*
%TO.P,U1,3*%
%TO.N,+12V*%
X112014000Y-34925000D03*
%TO.P,U1,2*%
%TO.N,GND*%
X112014000Y-32385000D03*
%TO.P,U1,1*%
%TO.N,+3V3*%
X112014000Y-29845000D03*
%TD*%
D20*
%TO.P,SW4,*%
%TO.N,*%
X92202000Y-62480000D03*
X92202000Y-70680000D03*
D21*
%TO.P,SW4,3*%
%TO.N,N/C*%
X92202000Y-64580000D03*
%TO.P,SW4,2*%
%TO.N,DIR_SWITCH*%
X92202000Y-66580000D03*
D22*
%TO.P,SW4,1*%
%TO.N,+3V3*%
X92202000Y-68580000D03*
%TD*%
D23*
%TO.P,Conn13,1*%
%TO.N,GND*%
X109448600Y-49911000D03*
%TO.P,Conn13,2*%
%TO.N,+12V*%
X109448600Y-42037000D03*
%TD*%
D19*
%TO.P,Conn6,3*%
%TO.N,BRRX*%
X103378000Y-29464000D03*
D24*
%TO.P,Conn6,*%
%TO.N,*%
X100330000Y-25146000D03*
D19*
%TO.P,Conn6,2*%
%TO.N,GND*%
X100330000Y-29464000D03*
%TO.P,Conn6,1*%
%TO.N,BRTX*%
X97282000Y-29464000D03*
%TD*%
%TO.P,Conn5,3*%
%TO.N,BLRX*%
X90043000Y-29464000D03*
D24*
%TO.P,Conn5,*%
%TO.N,*%
X86995000Y-25146000D03*
D19*
%TO.P,Conn5,2*%
%TO.N,GND*%
X86995000Y-29464000D03*
%TO.P,Conn5,1*%
%TO.N,BLTX*%
X83947000Y-29464000D03*
%TD*%
%TO.P,Conn4,3*%
%TO.N,MRRX*%
X76835000Y-29464000D03*
D24*
%TO.P,Conn4,*%
%TO.N,*%
X73787000Y-25146000D03*
D19*
%TO.P,Conn4,2*%
%TO.N,GND*%
X73787000Y-29464000D03*
%TO.P,Conn4,1*%
%TO.N,MRTX*%
X70739000Y-29464000D03*
%TD*%
%TO.P,Conn3,3*%
%TO.N,MLRX*%
X63627000Y-29464000D03*
D24*
%TO.P,Conn3,*%
%TO.N,*%
X60579000Y-25146000D03*
D19*
%TO.P,Conn3,2*%
%TO.N,GND*%
X60579000Y-29464000D03*
%TO.P,Conn3,1*%
%TO.N,MLTX*%
X57531000Y-29464000D03*
%TD*%
%TO.P,Conn2,3*%
%TO.N,FRRX*%
X50419000Y-29464000D03*
D24*
%TO.P,Conn2,*%
%TO.N,*%
X47371000Y-25146000D03*
D19*
%TO.P,Conn2,2*%
%TO.N,GND*%
X47371000Y-29464000D03*
%TO.P,Conn2,1*%
%TO.N,FRTX*%
X44323000Y-29464000D03*
%TD*%
%TO.P,Conn1,3*%
%TO.N,FLRX*%
X37211000Y-29464000D03*
D24*
%TO.P,Conn1,*%
%TO.N,*%
X34163000Y-25146000D03*
D19*
%TO.P,Conn1,2*%
%TO.N,GND*%
X34163000Y-29464000D03*
%TO.P,Conn1,1*%
%TO.N,FLTX*%
X31115000Y-29464000D03*
%TD*%
D25*
%TO.N,GND*%
X48260000Y-46355000D03*
X29210000Y-38100000D03*
X43180000Y-38100000D03*
X39370000Y-38100000D03*
X35560000Y-38100000D03*
X45720000Y-38100000D03*
X48260000Y-35560000D03*
X45720000Y-33020000D03*
X52070000Y-38100000D03*
X55880000Y-38100000D03*
X66040000Y-38100000D03*
X62230000Y-38100000D03*
X72390000Y-38100000D03*
X76200000Y-38100000D03*
X76200000Y-34290000D03*
X86360000Y-33020000D03*
X88900000Y-38100000D03*
X92710000Y-38100000D03*
X97790000Y-46990000D03*
X101600000Y-46990000D03*
X105410000Y-46990000D03*
X105410000Y-43180000D03*
X105410000Y-39370000D03*
X101600000Y-43180000D03*
X97790000Y-50800000D03*
X101600000Y-50800000D03*
X105410000Y-50800000D03*
X105410000Y-54610000D03*
X101600000Y-54610000D03*
X97790000Y-54610000D03*
X97790000Y-58420000D03*
X97790000Y-62230000D03*
X97790000Y-66040000D03*
X97790000Y-69850000D03*
X107950000Y-31750000D03*
X107950000Y-27940000D03*
X107950000Y-24130000D03*
X111760000Y-24130000D03*
X115570000Y-24130000D03*
X119380000Y-24130000D03*
X123190000Y-24130000D03*
X93980000Y-50800000D03*
X93980000Y-54610000D03*
X93980000Y-58420000D03*
X90170000Y-58420000D03*
X90170000Y-54610000D03*
X86360000Y-58420000D03*
X82550000Y-58420000D03*
X77470000Y-59055000D03*
X73660000Y-59055000D03*
X69850000Y-59055000D03*
X81280000Y-63500000D03*
X80010000Y-59690000D03*
X73660000Y-62230000D03*
X59690000Y-58420000D03*
X55880000Y-58420000D03*
X40640000Y-63500000D03*
X53340000Y-60960000D03*
X87630000Y-71120000D03*
X83820000Y-71120000D03*
X80010000Y-71120000D03*
X76200000Y-71120000D03*
X72390000Y-71120000D03*
X68580000Y-71120000D03*
X64770000Y-71120000D03*
X60960000Y-71120000D03*
X57150000Y-71120000D03*
X53340000Y-71120000D03*
X49530000Y-71120000D03*
X45720000Y-71120000D03*
X41910000Y-71120000D03*
X38100000Y-71120000D03*
X34290000Y-71120000D03*
X30480000Y-71120000D03*
X68580000Y-46355000D03*
X68580000Y-49530000D03*
X64770000Y-49530000D03*
X64770000Y-46355000D03*
X60960000Y-46355000D03*
X60960000Y-49530000D03*
X57150000Y-49530000D03*
X57150000Y-46355000D03*
X53340000Y-46355000D03*
X53340000Y-49530000D03*
X60960000Y-53340000D03*
X57150000Y-53340000D03*
X53340000Y-53340000D03*
X64770000Y-53340000D03*
X48260000Y-49530000D03*
X43180000Y-49530000D03*
X35560000Y-50800000D03*
X39370000Y-50800000D03*
X30480000Y-50800000D03*
X30480000Y-54610000D03*
X30480000Y-46990000D03*
X33020000Y-44450000D03*
X33020000Y-48260000D03*
X33020000Y-52070000D03*
X33020000Y-35560000D03*
X33020000Y-31750000D03*
X35560000Y-31750000D03*
X46990000Y-60960000D03*
X43180000Y-60960000D03*
X39370000Y-60960000D03*
X35560000Y-60960000D03*
X31750000Y-60960000D03*
X27940000Y-60960000D03*
X27940000Y-64770000D03*
X27940000Y-68580000D03*
X39370000Y-45720000D03*
X36830000Y-43180000D03*
X76200000Y-46355000D03*
X80010000Y-46355000D03*
X83820000Y-46355000D03*
X86360000Y-54610000D03*
X78740000Y-53975000D03*
X83820000Y-49530000D03*
X80010000Y-49530000D03*
X76200000Y-49530000D03*
X88900000Y-49530000D03*
X91440000Y-46990000D03*
X95250000Y-43180000D03*
X99060000Y-39370000D03*
X102870000Y-35560000D03*
X59690000Y-62230000D03*
X68580000Y-53340000D03*
X71755000Y-53975000D03*
X35560000Y-46990000D03*
X88900000Y-41910000D03*
X104140000Y-62230000D03*
X119380000Y-64770000D03*
X115570000Y-64770000D03*
%TO.N,BLRX*%
X89916000Y-34544000D03*
%TO.N,BLTX*%
X84074000Y-34544000D03*
%TO.N,DIR_SWITCH*%
X93472000Y-44958000D03*
%TO.N,Net-(C2-Pad2)*%
X104140000Y-59944000D03*
%TO.N,Net-(C2-Pad1)*%
X103124000Y-58928000D03*
%TD*%
D26*
%TO.N,+3V3*%
X90551000Y-51308000D02*
X73914000Y-51308000D01*
X112014000Y-29845000D02*
X90551000Y-51308000D01*
X68834000Y-51308000D02*
X63754000Y-56388000D01*
X73914000Y-51308000D02*
X68834000Y-51308000D01*
X33274000Y-42072895D02*
X33274000Y-41148000D01*
X73914000Y-51308000D02*
X42509105Y-51308000D01*
X42509105Y-51308000D02*
X33274000Y-42072895D01*
D27*
%TO.N,BLRX*%
X41938501Y-42192501D02*
X40894000Y-41148000D01*
X48260000Y-39624000D02*
X45952138Y-39624000D01*
X48260000Y-39624000D02*
X48006000Y-39624000D01*
X84836000Y-39624000D02*
X89916000Y-34544000D01*
X48260000Y-39624000D02*
X84836000Y-39624000D01*
X45952138Y-39624000D02*
X44704000Y-40872138D01*
X44704000Y-40872138D02*
X44704000Y-41910000D01*
X44704000Y-41910000D02*
X44196000Y-42418000D01*
X42164000Y-42418000D02*
X41938501Y-42192501D01*
X44196000Y-42418000D02*
X42164000Y-42418000D01*
%TO.N,BLTX*%
X79575010Y-39042990D02*
X84074000Y-34544000D01*
X45539010Y-39042990D02*
X79575010Y-39042990D01*
X43434000Y-41148000D02*
X45539010Y-39042990D01*
%TO.N,DIR_SWITCH*%
X90424000Y-44958000D02*
X86614000Y-41148000D01*
X93472000Y-44958000D02*
X90424000Y-44958000D01*
D28*
%TO.N,Net-(C2-Pad2)*%
X99314000Y-63246000D02*
X102616000Y-59944000D01*
X102463600Y-67125600D02*
X100399600Y-67125600D01*
X100399600Y-67125600D02*
X99314000Y-66040000D01*
X99314000Y-66040000D02*
X99314000Y-63246000D01*
X102616000Y-59944000D02*
X104140000Y-59944000D01*
%TO.N,Net-(C2-Pad1)*%
X111199200Y-62685200D02*
X110190000Y-62685200D01*
X113030000Y-65786000D02*
X113030000Y-64516000D01*
X107902810Y-66748010D02*
X112067990Y-66748010D01*
X113030000Y-64516000D02*
X111199200Y-62685200D01*
X107650000Y-66495200D02*
X107902810Y-66748010D01*
X112067990Y-66748010D02*
X113030000Y-65786000D01*
X103124000Y-58928000D02*
X105410000Y-58928000D01*
X105410000Y-58928000D02*
X106680000Y-60198000D01*
X106680000Y-60198000D02*
X108204000Y-60198000D01*
X110190000Y-62184000D02*
X110190000Y-62685200D01*
X108204000Y-60198000D02*
X110190000Y-62184000D01*
%TO.N,Net-(J1-Pad5)*%
X107448800Y-61214000D02*
X107650000Y-61415200D01*
%TO.N,Net-(J1-Pad4)*%
X119018800Y-66294000D02*
X119830000Y-67105200D01*
X113030000Y-69215000D02*
X113030000Y-67056000D01*
X113030000Y-67056000D02*
X113792000Y-66294000D01*
X112649000Y-69596000D02*
X113030000Y-69215000D01*
X108204000Y-69596000D02*
X112649000Y-69596000D01*
X105733600Y-67125600D02*
X108204000Y-69596000D01*
X113792000Y-66294000D02*
X119018800Y-66294000D01*
X104463600Y-67125600D02*
X105733600Y-67125600D01*
%TO.N,Net-(J1-Pad2)*%
X108305600Y-65125600D02*
X104463600Y-65125600D01*
X111580200Y-65225200D02*
X111887000Y-65532000D01*
X109474000Y-66294000D02*
X108305600Y-65125600D01*
X111887000Y-66167000D02*
X111760000Y-66294000D01*
X111887000Y-65532000D02*
X111887000Y-66167000D01*
X110090400Y-65125600D02*
X110190000Y-65225200D01*
X109474000Y-66294000D02*
X111760000Y-66294000D01*
X111580200Y-65225200D02*
X110190000Y-65225200D01*
%TD*%
%TO.N,GND*%
X125805375Y-22215734D02*
X126061122Y-22292948D01*
X126297004Y-22418369D01*
X126504030Y-22587216D01*
X126674313Y-22793054D01*
X126801379Y-23028056D01*
X126880376Y-23283256D01*
X126911501Y-23579391D01*
X126911500Y-82421839D01*
X126571446Y-82529711D01*
X126516474Y-82553272D01*
X126461159Y-82576071D01*
X126453053Y-82580454D01*
X126105530Y-82771506D01*
X126056174Y-82805301D01*
X126006347Y-82838406D01*
X125999247Y-82844280D01*
X125695451Y-83099195D01*
X125653605Y-83141928D01*
X125611153Y-83184084D01*
X125605329Y-83191225D01*
X125356832Y-83500294D01*
X125324106Y-83550305D01*
X125290627Y-83599939D01*
X125286301Y-83608076D01*
X125102568Y-83959522D01*
X125080156Y-84014994D01*
X125056978Y-84070132D01*
X125054315Y-84078954D01*
X124942345Y-84459396D01*
X124931145Y-84518112D01*
X124919107Y-84576754D01*
X124918208Y-84585925D01*
X124882266Y-84980870D01*
X124882684Y-85040686D01*
X124882266Y-85100503D01*
X124883165Y-85109674D01*
X124924618Y-85504077D01*
X124936648Y-85562683D01*
X124947855Y-85621435D01*
X124950519Y-85630257D01*
X125067790Y-86009099D01*
X125090974Y-86064250D01*
X125113380Y-86119708D01*
X125117706Y-86127845D01*
X125306328Y-86476693D01*
X125339783Y-86526292D01*
X125372532Y-86576338D01*
X125378355Y-86583477D01*
X125378358Y-86583481D01*
X125378362Y-86583485D01*
X125631144Y-86889047D01*
X125673561Y-86931169D01*
X125715443Y-86973938D01*
X125722544Y-86979811D01*
X126029869Y-87230460D01*
X126079678Y-87263552D01*
X126129050Y-87297359D01*
X126137156Y-87301741D01*
X126487313Y-87487923D01*
X126542605Y-87510712D01*
X126597601Y-87534284D01*
X126606405Y-87537009D01*
X126911500Y-87629122D01*
X126911501Y-95725711D01*
X126882266Y-96023876D01*
X126805051Y-96279624D01*
X126679631Y-96515504D01*
X126510789Y-96722525D01*
X126304946Y-96892813D01*
X126069944Y-97019879D01*
X125814740Y-97098877D01*
X125518618Y-97130000D01*
X28035779Y-97130000D01*
X27737624Y-97100766D01*
X27481876Y-97023551D01*
X27245996Y-96898131D01*
X27038975Y-96729289D01*
X26868687Y-96523446D01*
X26741621Y-96288444D01*
X26662623Y-96033240D01*
X26631658Y-95738623D01*
X26690968Y-87613330D01*
X26971942Y-87524200D01*
X27026914Y-87500639D01*
X27082229Y-87477840D01*
X27090335Y-87473457D01*
X27438029Y-87282312D01*
X27487392Y-87248512D01*
X27537211Y-87215413D01*
X27544312Y-87209539D01*
X27848256Y-86954499D01*
X27890100Y-86911769D01*
X27932555Y-86869610D01*
X27938379Y-86862469D01*
X28186997Y-86553251D01*
X28219767Y-86503173D01*
X28253202Y-86453604D01*
X28257525Y-86445472D01*
X28257528Y-86445468D01*
X28257530Y-86445464D01*
X28441350Y-86093848D01*
X28463747Y-86038413D01*
X28486940Y-85983241D01*
X28489603Y-85974419D01*
X28601628Y-85593792D01*
X28612834Y-85535044D01*
X28624866Y-85476434D01*
X28625765Y-85467263D01*
X28661725Y-85072125D01*
X28661307Y-85012308D01*
X28661725Y-84952491D01*
X28660826Y-84943320D01*
X28619353Y-84548724D01*
X28607323Y-84490118D01*
X28596116Y-84431366D01*
X28593452Y-84422544D01*
X28476124Y-84043518D01*
X28452946Y-83988380D01*
X28430534Y-83932908D01*
X28426208Y-83924772D01*
X28237494Y-83575754D01*
X28204039Y-83526155D01*
X28171290Y-83476109D01*
X28165466Y-83468968D01*
X27912556Y-83163251D01*
X27870120Y-83121111D01*
X27828257Y-83078361D01*
X27821156Y-83072487D01*
X27513681Y-82821716D01*
X27463888Y-82788634D01*
X27414499Y-82754816D01*
X27406392Y-82750434D01*
X27056065Y-82564161D01*
X27000762Y-82541367D01*
X26945780Y-82517801D01*
X26936977Y-82515077D01*
X26631501Y-82422847D01*
X26631501Y-62480000D01*
X89808606Y-62480000D01*
X89842105Y-62820119D01*
X89941314Y-63147168D01*
X90102421Y-63448578D01*
X90319234Y-63712766D01*
X90510994Y-63870139D01*
X90416236Y-64047419D01*
X90337040Y-64308493D01*
X90310299Y-64580000D01*
X90337040Y-64851507D01*
X90416236Y-65112581D01*
X90544843Y-65353188D01*
X90717919Y-65564081D01*
X90737316Y-65580000D01*
X90717919Y-65595919D01*
X90544843Y-65806812D01*
X90416236Y-66047419D01*
X90337040Y-66308493D01*
X90310299Y-66580000D01*
X90337040Y-66851507D01*
X90416236Y-67112581D01*
X90540940Y-67345886D01*
X90500815Y-67378815D01*
X90421463Y-67475506D01*
X90362498Y-67585820D01*
X90326188Y-67705518D01*
X90313928Y-67830000D01*
X90313928Y-69330000D01*
X90325008Y-69442496D01*
X90319234Y-69447234D01*
X90102421Y-69711422D01*
X89941314Y-70012832D01*
X89842105Y-70339881D01*
X89808606Y-70680000D01*
X89842105Y-71020119D01*
X89941314Y-71347168D01*
X90102421Y-71648578D01*
X90319234Y-71912766D01*
X90583422Y-72129579D01*
X90884832Y-72290686D01*
X91211881Y-72389895D01*
X91466775Y-72415000D01*
X92937225Y-72415000D01*
X93192119Y-72389895D01*
X93519168Y-72290686D01*
X93820578Y-72129579D01*
X94084766Y-71912766D01*
X94301579Y-71648578D01*
X94462686Y-71347168D01*
X94561895Y-71020119D01*
X94595394Y-70680000D01*
X94561895Y-70339881D01*
X94462686Y-70012832D01*
X94301579Y-69711422D01*
X94084766Y-69447234D01*
X94078992Y-69442496D01*
X94090072Y-69330000D01*
X94090072Y-67830000D01*
X94077812Y-67705518D01*
X94041502Y-67585820D01*
X93982537Y-67475506D01*
X93903185Y-67378815D01*
X93863060Y-67345886D01*
X93987764Y-67112581D01*
X94066960Y-66851507D01*
X94093701Y-66580000D01*
X94066960Y-66308493D01*
X93987764Y-66047419D01*
X93859157Y-65806812D01*
X93686081Y-65595919D01*
X93666684Y-65580000D01*
X93686081Y-65564081D01*
X93859157Y-65353188D01*
X93987764Y-65112581D01*
X94066960Y-64851507D01*
X94093701Y-64580000D01*
X94066960Y-64308493D01*
X93987764Y-64047419D01*
X93893006Y-63870139D01*
X94084766Y-63712766D01*
X94301579Y-63448578D01*
X94409859Y-63246000D01*
X98548314Y-63246000D01*
X98552001Y-63283433D01*
X98552000Y-66002577D01*
X98548314Y-66040000D01*
X98552000Y-66077423D01*
X98552000Y-66077425D01*
X98563026Y-66189377D01*
X98606598Y-66333014D01*
X98622947Y-66363600D01*
X98677355Y-66465392D01*
X98716983Y-66513678D01*
X98772578Y-66581422D01*
X98801654Y-66605284D01*
X99834320Y-67637951D01*
X99858178Y-67667022D01*
X99974208Y-67762245D01*
X100106585Y-67833002D01*
X100250222Y-67876574D01*
X100362174Y-67887600D01*
X100362176Y-67887600D01*
X100399599Y-67891286D01*
X100437022Y-67887600D01*
X101374156Y-67887600D01*
X101439956Y-67986077D01*
X101604879Y-68151000D01*
X101439956Y-68315923D01*
X101296593Y-68530482D01*
X101197842Y-68768887D01*
X101147500Y-69021976D01*
X101147500Y-69280024D01*
X101197842Y-69533113D01*
X101296593Y-69771518D01*
X101439956Y-69986077D01*
X101622423Y-70168544D01*
X101836982Y-70311907D01*
X102075387Y-70410658D01*
X102328476Y-70461000D01*
X102586524Y-70461000D01*
X102839613Y-70410658D01*
X103078018Y-70311907D01*
X103292577Y-70168544D01*
X103457500Y-70003621D01*
X103622423Y-70168544D01*
X103836982Y-70311907D01*
X104075387Y-70410658D01*
X104328476Y-70461000D01*
X104586524Y-70461000D01*
X104839613Y-70410658D01*
X105078018Y-70311907D01*
X105292577Y-70168544D01*
X105475044Y-69986077D01*
X105618407Y-69771518D01*
X105717158Y-69533113D01*
X105767500Y-69280024D01*
X105767500Y-69021976D01*
X105717158Y-68768887D01*
X105618407Y-68530482D01*
X105475044Y-68315923D01*
X105310121Y-68151000D01*
X105475044Y-67986077D01*
X105491628Y-67961258D01*
X107638721Y-70108352D01*
X107662578Y-70137422D01*
X107778608Y-70232645D01*
X107910985Y-70303402D01*
X108054622Y-70346974D01*
X108166574Y-70358000D01*
X108166576Y-70358000D01*
X108203999Y-70361686D01*
X108241422Y-70358000D01*
X112611577Y-70358000D01*
X112649000Y-70361686D01*
X112686423Y-70358000D01*
X112686426Y-70358000D01*
X112798378Y-70346974D01*
X112942015Y-70303402D01*
X113074392Y-70232645D01*
X113190422Y-70137422D01*
X113214284Y-70108346D01*
X113542347Y-69780283D01*
X113571422Y-69756422D01*
X113666645Y-69640392D01*
X113737402Y-69508015D01*
X113780974Y-69364378D01*
X113792000Y-69252426D01*
X113792000Y-69252424D01*
X113795686Y-69215001D01*
X113792000Y-69177578D01*
X113792000Y-67371630D01*
X114107631Y-67056000D01*
X114792747Y-67056000D01*
X114493262Y-67355485D01*
X114204893Y-67787059D01*
X114006261Y-68266599D01*
X113905000Y-68775675D01*
X113905000Y-69294725D01*
X114006261Y-69803801D01*
X114204893Y-70283341D01*
X114493262Y-70714915D01*
X114860285Y-71081938D01*
X115291859Y-71370307D01*
X115771399Y-71568939D01*
X116280475Y-71670200D01*
X116799525Y-71670200D01*
X117308601Y-71568939D01*
X117788141Y-71370307D01*
X118219715Y-71081938D01*
X118586738Y-70714915D01*
X118875107Y-70283341D01*
X119073739Y-69803801D01*
X119131440Y-69513714D01*
X120285000Y-69513714D01*
X120285000Y-69776686D01*
X120336304Y-70034605D01*
X120436939Y-70277559D01*
X120583038Y-70496213D01*
X120768987Y-70682162D01*
X120987641Y-70828261D01*
X121230595Y-70928896D01*
X121488514Y-70980200D01*
X121751486Y-70980200D01*
X122009405Y-70928896D01*
X122252359Y-70828261D01*
X122471013Y-70682162D01*
X122656962Y-70496213D01*
X122803061Y-70277559D01*
X122903696Y-70034605D01*
X122955000Y-69776686D01*
X122955000Y-69513714D01*
X122903696Y-69255795D01*
X122803061Y-69012841D01*
X122656962Y-68794187D01*
X122471013Y-68608238D01*
X122252359Y-68462139D01*
X122009405Y-68361504D01*
X121751486Y-68310200D01*
X121488514Y-68310200D01*
X121230595Y-68361504D01*
X120987641Y-68462139D01*
X120768987Y-68608238D01*
X120583038Y-68794187D01*
X120436939Y-69012841D01*
X120336304Y-69255795D01*
X120285000Y-69513714D01*
X119131440Y-69513714D01*
X119175000Y-69294725D01*
X119175000Y-68775675D01*
X119073739Y-68266599D01*
X119038731Y-68182081D01*
X119197641Y-68288261D01*
X119440595Y-68388896D01*
X119698514Y-68440200D01*
X119961486Y-68440200D01*
X120219405Y-68388896D01*
X120462359Y-68288261D01*
X120681013Y-68142162D01*
X120866962Y-67956213D01*
X121013061Y-67737559D01*
X121113696Y-67494605D01*
X121165000Y-67236686D01*
X121165000Y-66973714D01*
X121113696Y-66715795D01*
X121013061Y-66472841D01*
X120866962Y-66254187D01*
X120681013Y-66068238D01*
X120462359Y-65922139D01*
X120219405Y-65821504D01*
X119961486Y-65770200D01*
X119698514Y-65770200D01*
X119593516Y-65791086D01*
X119584084Y-65781653D01*
X119560222Y-65752578D01*
X119444192Y-65657355D01*
X119311815Y-65586598D01*
X119168178Y-65543026D01*
X119056226Y-65532000D01*
X119056223Y-65532000D01*
X119018800Y-65528314D01*
X118981377Y-65532000D01*
X113829423Y-65532000D01*
X113792000Y-65528314D01*
X113792000Y-64553422D01*
X113795686Y-64515999D01*
X113790123Y-64459514D01*
X113780974Y-64366622D01*
X113737402Y-64222985D01*
X113666645Y-64090608D01*
X113571422Y-63974578D01*
X113542352Y-63950721D01*
X111764484Y-62172854D01*
X111740622Y-62143778D01*
X111624592Y-62048555D01*
X111492215Y-61977798D01*
X111348578Y-61934226D01*
X111236626Y-61923200D01*
X111236623Y-61923200D01*
X111199200Y-61919514D01*
X111161777Y-61923200D01*
X111103844Y-61923200D01*
X110945394Y-61764750D01*
X110751308Y-61635066D01*
X110695638Y-61612007D01*
X110396059Y-61312428D01*
X110535652Y-61284661D01*
X110751308Y-61195334D01*
X110945394Y-61065650D01*
X111110450Y-60900594D01*
X111240134Y-60706508D01*
X111329461Y-60490852D01*
X111375000Y-60261912D01*
X111375000Y-60028488D01*
X111329461Y-59799548D01*
X111240134Y-59583892D01*
X111110450Y-59389806D01*
X110945394Y-59224750D01*
X110751308Y-59095066D01*
X110535652Y-59005739D01*
X110306712Y-58960200D01*
X110073288Y-58960200D01*
X109844348Y-59005739D01*
X109628692Y-59095066D01*
X109434606Y-59224750D01*
X109269550Y-59389806D01*
X109139866Y-59583892D01*
X109050539Y-59799548D01*
X109022772Y-59939142D01*
X108769284Y-59685654D01*
X108745422Y-59656578D01*
X108629392Y-59561355D01*
X108620050Y-59556362D01*
X108700134Y-59436508D01*
X108789461Y-59220852D01*
X108835000Y-58991912D01*
X108835000Y-58758488D01*
X108789461Y-58529548D01*
X108700134Y-58313892D01*
X108570450Y-58119806D01*
X108405394Y-57954750D01*
X108211308Y-57825066D01*
X107995652Y-57735739D01*
X107766712Y-57690200D01*
X107533288Y-57690200D01*
X107304348Y-57735739D01*
X107088692Y-57825066D01*
X106894606Y-57954750D01*
X106729550Y-58119806D01*
X106599866Y-58313892D01*
X106510539Y-58529548D01*
X106465000Y-58758488D01*
X106465000Y-58905370D01*
X105975284Y-58415654D01*
X105951422Y-58386578D01*
X105835392Y-58291355D01*
X105703015Y-58220598D01*
X105559378Y-58177026D01*
X105447426Y-58166000D01*
X105447423Y-58166000D01*
X105410000Y-58162314D01*
X105372577Y-58166000D01*
X103825711Y-58166000D01*
X103783774Y-58124063D01*
X103614256Y-58010795D01*
X103425898Y-57932774D01*
X103225939Y-57893000D01*
X103022061Y-57893000D01*
X102822102Y-57932774D01*
X102633744Y-58010795D01*
X102464226Y-58124063D01*
X102320063Y-58268226D01*
X102206795Y-58437744D01*
X102128774Y-58626102D01*
X102089000Y-58826061D01*
X102089000Y-59029939D01*
X102128774Y-59229898D01*
X102168405Y-59325576D01*
X102074578Y-59402578D01*
X102050721Y-59431648D01*
X98801649Y-62680721D01*
X98772579Y-62704578D01*
X98748722Y-62733648D01*
X98748721Y-62733649D01*
X98677355Y-62820608D01*
X98606599Y-62952985D01*
X98563027Y-63096622D01*
X98548314Y-63246000D01*
X94409859Y-63246000D01*
X94462686Y-63147168D01*
X94561895Y-62820119D01*
X94595394Y-62480000D01*
X94561895Y-62139881D01*
X94462686Y-61812832D01*
X94301579Y-61511422D01*
X94084766Y-61247234D01*
X93820578Y-61030421D01*
X93519168Y-60869314D01*
X93192119Y-60770105D01*
X92937225Y-60745000D01*
X91466775Y-60745000D01*
X91211881Y-60770105D01*
X90884832Y-60869314D01*
X90583422Y-61030421D01*
X90319234Y-61247234D01*
X90102421Y-61511422D01*
X89941314Y-61812832D01*
X89842105Y-62139881D01*
X89808606Y-62480000D01*
X26631501Y-62480000D01*
X26631501Y-56261045D01*
X29445000Y-56261045D01*
X29445000Y-56514955D01*
X29494535Y-56763987D01*
X29591703Y-56998570D01*
X29732768Y-57209690D01*
X29912310Y-57389232D01*
X30123430Y-57530297D01*
X30358013Y-57627465D01*
X30607045Y-57677000D01*
X30860955Y-57677000D01*
X31109987Y-57627465D01*
X31344570Y-57530297D01*
X31555690Y-57389232D01*
X31735232Y-57209690D01*
X31876297Y-56998570D01*
X31973465Y-56763987D01*
X32004000Y-56610476D01*
X32034535Y-56763987D01*
X32131703Y-56998570D01*
X32272768Y-57209690D01*
X32452310Y-57389232D01*
X32663430Y-57530297D01*
X32898013Y-57627465D01*
X33147045Y-57677000D01*
X33400955Y-57677000D01*
X33649987Y-57627465D01*
X33884570Y-57530297D01*
X34095690Y-57389232D01*
X34275232Y-57209690D01*
X34416297Y-56998570D01*
X34513465Y-56763987D01*
X34544000Y-56610476D01*
X34574535Y-56763987D01*
X34671703Y-56998570D01*
X34812768Y-57209690D01*
X34992310Y-57389232D01*
X35203430Y-57530297D01*
X35438013Y-57627465D01*
X35687045Y-57677000D01*
X35940955Y-57677000D01*
X36189987Y-57627465D01*
X36424570Y-57530297D01*
X36635690Y-57389232D01*
X36815232Y-57209690D01*
X36956297Y-56998570D01*
X37053465Y-56763987D01*
X37084000Y-56610476D01*
X37114535Y-56763987D01*
X37211703Y-56998570D01*
X37352768Y-57209690D01*
X37532310Y-57389232D01*
X37743430Y-57530297D01*
X37978013Y-57627465D01*
X38227045Y-57677000D01*
X38480955Y-57677000D01*
X38729987Y-57627465D01*
X38964570Y-57530297D01*
X39175690Y-57389232D01*
X39355232Y-57209690D01*
X39496297Y-56998570D01*
X39593465Y-56763987D01*
X39624000Y-56610476D01*
X39654535Y-56763987D01*
X39751703Y-56998570D01*
X39892768Y-57209690D01*
X40072310Y-57389232D01*
X40283430Y-57530297D01*
X40518013Y-57627465D01*
X40767045Y-57677000D01*
X41020955Y-57677000D01*
X41269987Y-57627465D01*
X41504570Y-57530297D01*
X41715690Y-57389232D01*
X41895232Y-57209690D01*
X42036297Y-56998570D01*
X42133465Y-56763987D01*
X42164000Y-56610476D01*
X42194535Y-56763987D01*
X42291703Y-56998570D01*
X42432768Y-57209690D01*
X42612310Y-57389232D01*
X42823430Y-57530297D01*
X43058013Y-57627465D01*
X43307045Y-57677000D01*
X43560955Y-57677000D01*
X43809987Y-57627465D01*
X44044570Y-57530297D01*
X44255690Y-57389232D01*
X44435232Y-57209690D01*
X44576297Y-56998570D01*
X44673465Y-56763987D01*
X44704000Y-56610476D01*
X44734535Y-56763987D01*
X44831703Y-56998570D01*
X44972768Y-57209690D01*
X45152310Y-57389232D01*
X45363430Y-57530297D01*
X45598013Y-57627465D01*
X45847045Y-57677000D01*
X46100955Y-57677000D01*
X46349987Y-57627465D01*
X46584570Y-57530297D01*
X46795690Y-57389232D01*
X46975232Y-57209690D01*
X47116297Y-56998570D01*
X47213465Y-56763987D01*
X47244000Y-56610476D01*
X47274535Y-56763987D01*
X47371703Y-56998570D01*
X47512768Y-57209690D01*
X47692310Y-57389232D01*
X47903430Y-57530297D01*
X48138013Y-57627465D01*
X48387045Y-57677000D01*
X48640955Y-57677000D01*
X48889987Y-57627465D01*
X49124570Y-57530297D01*
X49335690Y-57389232D01*
X49515232Y-57209690D01*
X49656297Y-56998570D01*
X49753465Y-56763987D01*
X49784000Y-56610476D01*
X49814535Y-56763987D01*
X49911703Y-56998570D01*
X50052768Y-57209690D01*
X50232310Y-57389232D01*
X50443430Y-57530297D01*
X50678013Y-57627465D01*
X50927045Y-57677000D01*
X51180955Y-57677000D01*
X51429987Y-57627465D01*
X51664570Y-57530297D01*
X51875690Y-57389232D01*
X52055232Y-57209690D01*
X52196297Y-56998570D01*
X52293465Y-56763987D01*
X52324000Y-56610476D01*
X52354535Y-56763987D01*
X52451703Y-56998570D01*
X52592768Y-57209690D01*
X52772310Y-57389232D01*
X52983430Y-57530297D01*
X53218013Y-57627465D01*
X53467045Y-57677000D01*
X53720955Y-57677000D01*
X53969987Y-57627465D01*
X54204570Y-57530297D01*
X54415690Y-57389232D01*
X54595232Y-57209690D01*
X54736297Y-56998570D01*
X54833465Y-56763987D01*
X54864000Y-56610476D01*
X54894535Y-56763987D01*
X54991703Y-56998570D01*
X55132768Y-57209690D01*
X55312310Y-57389232D01*
X55523430Y-57530297D01*
X55758013Y-57627465D01*
X56007045Y-57677000D01*
X56260955Y-57677000D01*
X56509987Y-57627465D01*
X56744570Y-57530297D01*
X56955690Y-57389232D01*
X57135232Y-57209690D01*
X57276297Y-56998570D01*
X57373465Y-56763987D01*
X57404000Y-56610476D01*
X57434535Y-56763987D01*
X57531703Y-56998570D01*
X57672768Y-57209690D01*
X57852310Y-57389232D01*
X58063430Y-57530297D01*
X58298013Y-57627465D01*
X58547045Y-57677000D01*
X58800955Y-57677000D01*
X59049987Y-57627465D01*
X59284570Y-57530297D01*
X59495690Y-57389232D01*
X59675232Y-57209690D01*
X59816297Y-56998570D01*
X59913465Y-56763987D01*
X59944000Y-56610476D01*
X59974535Y-56763987D01*
X60071703Y-56998570D01*
X60212768Y-57209690D01*
X60392310Y-57389232D01*
X60603430Y-57530297D01*
X60838013Y-57627465D01*
X61087045Y-57677000D01*
X61340955Y-57677000D01*
X61589987Y-57627465D01*
X61824570Y-57530297D01*
X62035690Y-57389232D01*
X62215232Y-57209690D01*
X62356297Y-56998570D01*
X62453465Y-56763987D01*
X62484000Y-56610476D01*
X62514535Y-56763987D01*
X62611703Y-56998570D01*
X62752768Y-57209690D01*
X62932310Y-57389232D01*
X63143430Y-57530297D01*
X63378013Y-57627465D01*
X63627045Y-57677000D01*
X63880955Y-57677000D01*
X64129987Y-57627465D01*
X64364570Y-57530297D01*
X64575690Y-57389232D01*
X64755232Y-57209690D01*
X64896297Y-56998570D01*
X64993465Y-56763987D01*
X65024000Y-56610476D01*
X65054535Y-56763987D01*
X65151703Y-56998570D01*
X65292768Y-57209690D01*
X65472310Y-57389232D01*
X65683430Y-57530297D01*
X65918013Y-57627465D01*
X66167045Y-57677000D01*
X66420955Y-57677000D01*
X66669987Y-57627465D01*
X66904570Y-57530297D01*
X67115690Y-57389232D01*
X67295232Y-57209690D01*
X67436297Y-56998570D01*
X67533465Y-56763987D01*
X67564000Y-56610476D01*
X67594535Y-56763987D01*
X67691703Y-56998570D01*
X67832768Y-57209690D01*
X68012310Y-57389232D01*
X68223430Y-57530297D01*
X68458013Y-57627465D01*
X68707045Y-57677000D01*
X68960955Y-57677000D01*
X69209987Y-57627465D01*
X69444570Y-57530297D01*
X69655690Y-57389232D01*
X69835232Y-57209690D01*
X69976297Y-56998570D01*
X70073465Y-56763987D01*
X70104000Y-56610476D01*
X70134535Y-56763987D01*
X70231703Y-56998570D01*
X70372768Y-57209690D01*
X70552310Y-57389232D01*
X70763430Y-57530297D01*
X70998013Y-57627465D01*
X71247045Y-57677000D01*
X71500955Y-57677000D01*
X71749987Y-57627465D01*
X71984570Y-57530297D01*
X72195690Y-57389232D01*
X72375232Y-57209690D01*
X72516297Y-56998570D01*
X72613465Y-56763987D01*
X72644000Y-56610476D01*
X72674535Y-56763987D01*
X72771703Y-56998570D01*
X72912768Y-57209690D01*
X73092310Y-57389232D01*
X73303430Y-57530297D01*
X73538013Y-57627465D01*
X73787045Y-57677000D01*
X74040955Y-57677000D01*
X74289987Y-57627465D01*
X74524570Y-57530297D01*
X74735690Y-57389232D01*
X74915232Y-57209690D01*
X75056297Y-56998570D01*
X75153465Y-56763987D01*
X75184000Y-56610476D01*
X75214535Y-56763987D01*
X75311703Y-56998570D01*
X75452768Y-57209690D01*
X75632310Y-57389232D01*
X75843430Y-57530297D01*
X76078013Y-57627465D01*
X76327045Y-57677000D01*
X76580955Y-57677000D01*
X76829987Y-57627465D01*
X77064570Y-57530297D01*
X77275690Y-57389232D01*
X77455232Y-57209690D01*
X77596297Y-56998570D01*
X77693465Y-56763987D01*
X77724000Y-56610476D01*
X77754535Y-56763987D01*
X77851703Y-56998570D01*
X77992768Y-57209690D01*
X78172310Y-57389232D01*
X78383430Y-57530297D01*
X78618013Y-57627465D01*
X78867045Y-57677000D01*
X79120955Y-57677000D01*
X79369987Y-57627465D01*
X79604570Y-57530297D01*
X79815690Y-57389232D01*
X79995232Y-57209690D01*
X80136297Y-56998570D01*
X80233465Y-56763987D01*
X80264000Y-56610476D01*
X80294535Y-56763987D01*
X80391703Y-56998570D01*
X80532768Y-57209690D01*
X80712310Y-57389232D01*
X80923430Y-57530297D01*
X81158013Y-57627465D01*
X81407045Y-57677000D01*
X81660955Y-57677000D01*
X81909987Y-57627465D01*
X82144570Y-57530297D01*
X82355690Y-57389232D01*
X82535232Y-57209690D01*
X82676297Y-56998570D01*
X82773465Y-56763987D01*
X82804000Y-56610476D01*
X82834535Y-56763987D01*
X82931703Y-56998570D01*
X83072768Y-57209690D01*
X83252310Y-57389232D01*
X83463430Y-57530297D01*
X83698013Y-57627465D01*
X83947045Y-57677000D01*
X84200955Y-57677000D01*
X84449987Y-57627465D01*
X84684570Y-57530297D01*
X84895690Y-57389232D01*
X85075232Y-57209690D01*
X85216297Y-56998570D01*
X85313465Y-56763987D01*
X85344000Y-56610476D01*
X85374535Y-56763987D01*
X85471703Y-56998570D01*
X85612768Y-57209690D01*
X85792310Y-57389232D01*
X86003430Y-57530297D01*
X86238013Y-57627465D01*
X86487045Y-57677000D01*
X86740955Y-57677000D01*
X86989987Y-57627465D01*
X87224570Y-57530297D01*
X87435690Y-57389232D01*
X87479247Y-57345675D01*
X113905000Y-57345675D01*
X113905000Y-57864725D01*
X114006261Y-58373801D01*
X114204893Y-58853341D01*
X114493262Y-59284915D01*
X114860285Y-59651938D01*
X115291859Y-59940307D01*
X115771399Y-60138939D01*
X116280475Y-60240200D01*
X116799525Y-60240200D01*
X117308601Y-60138939D01*
X117788141Y-59940307D01*
X118219715Y-59651938D01*
X118467939Y-59403714D01*
X120285000Y-59403714D01*
X120285000Y-59666686D01*
X120336304Y-59924605D01*
X120436939Y-60167559D01*
X120583038Y-60386213D01*
X120768987Y-60572162D01*
X120987641Y-60718261D01*
X121230595Y-60818896D01*
X121488514Y-60870200D01*
X121751486Y-60870200D01*
X122009405Y-60818896D01*
X122252359Y-60718261D01*
X122471013Y-60572162D01*
X122656962Y-60386213D01*
X122803061Y-60167559D01*
X122903696Y-59924605D01*
X122955000Y-59666686D01*
X122955000Y-59403714D01*
X122903696Y-59145795D01*
X122803061Y-58902841D01*
X122656962Y-58684187D01*
X122471013Y-58498238D01*
X122252359Y-58352139D01*
X122009405Y-58251504D01*
X121751486Y-58200200D01*
X121488514Y-58200200D01*
X121230595Y-58251504D01*
X120987641Y-58352139D01*
X120768987Y-58498238D01*
X120583038Y-58684187D01*
X120436939Y-58902841D01*
X120336304Y-59145795D01*
X120285000Y-59403714D01*
X118467939Y-59403714D01*
X118586738Y-59284915D01*
X118875107Y-58853341D01*
X119073739Y-58373801D01*
X119122607Y-58128125D01*
X119197641Y-58178261D01*
X119440595Y-58278896D01*
X119698514Y-58330200D01*
X119961486Y-58330200D01*
X120219405Y-58278896D01*
X120462359Y-58178261D01*
X120681013Y-58032162D01*
X120866962Y-57846213D01*
X121013061Y-57627559D01*
X121113696Y-57384605D01*
X121165000Y-57126686D01*
X121165000Y-56863714D01*
X121113696Y-56605795D01*
X121013061Y-56362841D01*
X120866962Y-56144187D01*
X120681013Y-55958238D01*
X120462359Y-55812139D01*
X120219405Y-55711504D01*
X119961486Y-55660200D01*
X119698514Y-55660200D01*
X119440595Y-55711504D01*
X119197641Y-55812139D01*
X118978987Y-55958238D01*
X118793038Y-56144187D01*
X118762954Y-56189211D01*
X118586738Y-55925485D01*
X118219715Y-55558462D01*
X117788141Y-55270093D01*
X117308601Y-55071461D01*
X116799525Y-54970200D01*
X116280475Y-54970200D01*
X115771399Y-55071461D01*
X115291859Y-55270093D01*
X114860285Y-55558462D01*
X114493262Y-55925485D01*
X114204893Y-56357059D01*
X114006261Y-56836599D01*
X113905000Y-57345675D01*
X87479247Y-57345675D01*
X87615232Y-57209690D01*
X87756297Y-56998570D01*
X87853465Y-56763987D01*
X87903000Y-56514955D01*
X87903000Y-56261045D01*
X87853465Y-56012013D01*
X87756297Y-55777430D01*
X87615232Y-55566310D01*
X87435690Y-55386768D01*
X87224570Y-55245703D01*
X86989987Y-55148535D01*
X86740955Y-55099000D01*
X86487045Y-55099000D01*
X86238013Y-55148535D01*
X86003430Y-55245703D01*
X85792310Y-55386768D01*
X85612768Y-55566310D01*
X85471703Y-55777430D01*
X85374535Y-56012013D01*
X85344000Y-56165524D01*
X85313465Y-56012013D01*
X85216297Y-55777430D01*
X85075232Y-55566310D01*
X84895690Y-55386768D01*
X84684570Y-55245703D01*
X84449987Y-55148535D01*
X84200955Y-55099000D01*
X83947045Y-55099000D01*
X83698013Y-55148535D01*
X83463430Y-55245703D01*
X83252310Y-55386768D01*
X83072768Y-55566310D01*
X82931703Y-55777430D01*
X82834535Y-56012013D01*
X82804000Y-56165524D01*
X82773465Y-56012013D01*
X82676297Y-55777430D01*
X82535232Y-55566310D01*
X82355690Y-55386768D01*
X82144570Y-55245703D01*
X81909987Y-55148535D01*
X81660955Y-55099000D01*
X81407045Y-55099000D01*
X81158013Y-55148535D01*
X80923430Y-55245703D01*
X80712310Y-55386768D01*
X80532768Y-55566310D01*
X80391703Y-55777430D01*
X80294535Y-56012013D01*
X80264000Y-56165524D01*
X80233465Y-56012013D01*
X80136297Y-55777430D01*
X79995232Y-55566310D01*
X79815690Y-55386768D01*
X79604570Y-55245703D01*
X79369987Y-55148535D01*
X79120955Y-55099000D01*
X78867045Y-55099000D01*
X78618013Y-55148535D01*
X78383430Y-55245703D01*
X78172310Y-55386768D01*
X77992768Y-55566310D01*
X77851703Y-55777430D01*
X77754535Y-56012013D01*
X77724000Y-56165524D01*
X77693465Y-56012013D01*
X77596297Y-55777430D01*
X77455232Y-55566310D01*
X77275690Y-55386768D01*
X77064570Y-55245703D01*
X76829987Y-55148535D01*
X76580955Y-55099000D01*
X76327045Y-55099000D01*
X76078013Y-55148535D01*
X75843430Y-55245703D01*
X75632310Y-55386768D01*
X75452768Y-55566310D01*
X75311703Y-55777430D01*
X75214535Y-56012013D01*
X75184000Y-56165524D01*
X75153465Y-56012013D01*
X75056297Y-55777430D01*
X74915232Y-55566310D01*
X74735690Y-55386768D01*
X74524570Y-55245703D01*
X74289987Y-55148535D01*
X74136476Y-55118000D01*
X74289987Y-55087465D01*
X74524570Y-54990297D01*
X74735690Y-54849232D01*
X74915232Y-54669690D01*
X75056297Y-54458570D01*
X75153465Y-54223987D01*
X75203000Y-53974955D01*
X75203000Y-53721045D01*
X75153465Y-53472013D01*
X75056297Y-53237430D01*
X74915232Y-53026310D01*
X74735690Y-52846768D01*
X74524570Y-52705703D01*
X74289987Y-52608535D01*
X74136476Y-52578000D01*
X74289987Y-52547465D01*
X74524570Y-52450297D01*
X74713588Y-52324000D01*
X90501098Y-52324000D01*
X90551000Y-52328915D01*
X90600902Y-52324000D01*
X90750171Y-52309298D01*
X90941687Y-52251202D01*
X91118190Y-52156860D01*
X91272896Y-52029896D01*
X91304712Y-51991128D01*
X101571550Y-41724290D01*
X106273600Y-41724290D01*
X106273600Y-42349710D01*
X106395614Y-42963113D01*
X106634952Y-43540926D01*
X106982417Y-44060944D01*
X107424656Y-44503183D01*
X107944674Y-44850648D01*
X108522487Y-45089986D01*
X109135890Y-45212000D01*
X109761310Y-45212000D01*
X110374713Y-45089986D01*
X110952526Y-44850648D01*
X111472544Y-44503183D01*
X111914783Y-44060944D01*
X112262248Y-43540926D01*
X112501586Y-42963113D01*
X112623600Y-42349710D01*
X112623600Y-41724290D01*
X112501586Y-41110887D01*
X112262248Y-40533074D01*
X111914783Y-40013056D01*
X111472544Y-39570817D01*
X110952526Y-39223352D01*
X110374713Y-38984014D01*
X109761310Y-38862000D01*
X109135890Y-38862000D01*
X108522487Y-38984014D01*
X107944674Y-39223352D01*
X107424656Y-39570817D01*
X106982417Y-40013056D01*
X106634952Y-40533074D01*
X106395614Y-41110887D01*
X106273600Y-41724290D01*
X101571550Y-41724290D01*
X108508432Y-34787408D01*
X110617000Y-34787408D01*
X110617000Y-35062592D01*
X110670686Y-35332490D01*
X110775995Y-35586727D01*
X110928880Y-35815535D01*
X111123465Y-36010120D01*
X111352273Y-36163005D01*
X111606510Y-36268314D01*
X111876408Y-36322000D01*
X112151592Y-36322000D01*
X112421490Y-36268314D01*
X112675727Y-36163005D01*
X112904535Y-36010120D01*
X113099120Y-35815535D01*
X113252005Y-35586727D01*
X113357314Y-35332490D01*
X113411000Y-35062592D01*
X113411000Y-34787408D01*
X113357314Y-34517510D01*
X113252005Y-34263273D01*
X113099120Y-34034465D01*
X112904535Y-33839880D01*
X112675727Y-33686995D01*
X112421490Y-33581686D01*
X112151592Y-33528000D01*
X111876408Y-33528000D01*
X111606510Y-33581686D01*
X111352273Y-33686995D01*
X111123465Y-33839880D01*
X110928880Y-34034465D01*
X110775995Y-34263273D01*
X110670686Y-34517510D01*
X110617000Y-34787408D01*
X108508432Y-34787408D01*
X112053841Y-31242000D01*
X112151592Y-31242000D01*
X112421490Y-31188314D01*
X112675727Y-31083005D01*
X112904535Y-30930120D01*
X113099120Y-30735535D01*
X113252005Y-30506727D01*
X113357314Y-30252490D01*
X113411000Y-29982592D01*
X113411000Y-29707408D01*
X113357314Y-29437510D01*
X113252005Y-29183273D01*
X113099120Y-28954465D01*
X112904535Y-28759880D01*
X112675727Y-28606995D01*
X112421490Y-28501686D01*
X112151592Y-28448000D01*
X111876408Y-28448000D01*
X111606510Y-28501686D01*
X111352273Y-28606995D01*
X111123465Y-28759880D01*
X110928880Y-28954465D01*
X110775995Y-29183273D01*
X110670686Y-29437510D01*
X110617000Y-29707408D01*
X110617000Y-29805159D01*
X90130160Y-50292000D01*
X74713588Y-50292000D01*
X74524570Y-50165703D01*
X74289987Y-50068535D01*
X74040955Y-50019000D01*
X73787045Y-50019000D01*
X73538013Y-50068535D01*
X73303430Y-50165703D01*
X73114412Y-50292000D01*
X68883902Y-50292000D01*
X68834000Y-50287085D01*
X68784098Y-50292000D01*
X42929946Y-50292000D01*
X41443603Y-48805657D01*
X41525403Y-48789386D01*
X41750887Y-48695988D01*
X41953816Y-48560394D01*
X42126394Y-48387816D01*
X42164000Y-48331535D01*
X42201606Y-48387816D01*
X42374184Y-48560394D01*
X42577113Y-48695988D01*
X42802597Y-48789386D01*
X43041969Y-48837000D01*
X43286031Y-48837000D01*
X43525403Y-48789386D01*
X43750887Y-48695988D01*
X43953816Y-48560394D01*
X44126394Y-48387816D01*
X44261988Y-48184887D01*
X44355386Y-47959403D01*
X44403000Y-47720031D01*
X44403000Y-47475969D01*
X44355386Y-47236597D01*
X44261988Y-47011113D01*
X44126394Y-46808184D01*
X43953816Y-46635606D01*
X43750887Y-46500012D01*
X43525403Y-46406614D01*
X43286031Y-46359000D01*
X43041969Y-46359000D01*
X42802597Y-46406614D01*
X42577113Y-46500012D01*
X42374184Y-46635606D01*
X42201606Y-46808184D01*
X42164000Y-46864465D01*
X42126394Y-46808184D01*
X41953816Y-46635606D01*
X41897535Y-46598000D01*
X41953816Y-46560394D01*
X42126394Y-46387816D01*
X42261988Y-46184887D01*
X42355386Y-45959403D01*
X42403000Y-45720031D01*
X42403000Y-45475969D01*
X42355386Y-45236597D01*
X42261988Y-45011113D01*
X42126394Y-44808184D01*
X41953816Y-44635606D01*
X41897535Y-44598000D01*
X41953816Y-44560394D01*
X42126394Y-44387816D01*
X42164000Y-44331535D01*
X42201606Y-44387816D01*
X42374184Y-44560394D01*
X42577113Y-44695988D01*
X42802597Y-44789386D01*
X43041969Y-44837000D01*
X43286031Y-44837000D01*
X43525403Y-44789386D01*
X43750887Y-44695988D01*
X43953816Y-44560394D01*
X44126394Y-44387816D01*
X44261988Y-44184887D01*
X44355386Y-43959403D01*
X44403000Y-43720031D01*
X44403000Y-43475969D01*
X44355386Y-43236597D01*
X44353475Y-43231984D01*
X44357826Y-43231556D01*
X44513434Y-43184353D01*
X44656842Y-43107699D01*
X44782541Y-43004541D01*
X44808398Y-42973034D01*
X45259034Y-42522398D01*
X45290541Y-42496541D01*
X45367563Y-42402689D01*
X45393698Y-42370844D01*
X45404994Y-42349710D01*
X45423461Y-42315163D01*
X45598013Y-42387465D01*
X45847045Y-42437000D01*
X46100955Y-42437000D01*
X46349987Y-42387465D01*
X46584570Y-42290297D01*
X46795690Y-42149232D01*
X46975232Y-41969690D01*
X47116297Y-41758570D01*
X47213465Y-41523987D01*
X47244000Y-41370476D01*
X47274535Y-41523987D01*
X47371703Y-41758570D01*
X47512768Y-41969690D01*
X47692310Y-42149232D01*
X47903430Y-42290297D01*
X48138013Y-42387465D01*
X48387045Y-42437000D01*
X48640955Y-42437000D01*
X48889987Y-42387465D01*
X49124570Y-42290297D01*
X49335690Y-42149232D01*
X49515232Y-41969690D01*
X49656297Y-41758570D01*
X49753465Y-41523987D01*
X49784000Y-41370476D01*
X49814535Y-41523987D01*
X49911703Y-41758570D01*
X50052768Y-41969690D01*
X50232310Y-42149232D01*
X50443430Y-42290297D01*
X50678013Y-42387465D01*
X50927045Y-42437000D01*
X51180955Y-42437000D01*
X51429987Y-42387465D01*
X51664570Y-42290297D01*
X51875690Y-42149232D01*
X52055232Y-41969690D01*
X52196297Y-41758570D01*
X52293465Y-41523987D01*
X52324000Y-41370476D01*
X52354535Y-41523987D01*
X52451703Y-41758570D01*
X52592768Y-41969690D01*
X52772310Y-42149232D01*
X52983430Y-42290297D01*
X53218013Y-42387465D01*
X53467045Y-42437000D01*
X53720955Y-42437000D01*
X53969987Y-42387465D01*
X54204570Y-42290297D01*
X54415690Y-42149232D01*
X54595232Y-41969690D01*
X54736297Y-41758570D01*
X54833465Y-41523987D01*
X54864000Y-41370476D01*
X54894535Y-41523987D01*
X54991703Y-41758570D01*
X55132768Y-41969690D01*
X55312310Y-42149232D01*
X55523430Y-42290297D01*
X55758013Y-42387465D01*
X56007045Y-42437000D01*
X56260955Y-42437000D01*
X56509987Y-42387465D01*
X56744570Y-42290297D01*
X56955690Y-42149232D01*
X57135232Y-41969690D01*
X57276297Y-41758570D01*
X57373465Y-41523987D01*
X57404000Y-41370476D01*
X57434535Y-41523987D01*
X57531703Y-41758570D01*
X57672768Y-41969690D01*
X57852310Y-42149232D01*
X58063430Y-42290297D01*
X58298013Y-42387465D01*
X58547045Y-42437000D01*
X58800955Y-42437000D01*
X59049987Y-42387465D01*
X59284570Y-42290297D01*
X59495690Y-42149232D01*
X59675232Y-41969690D01*
X59816297Y-41758570D01*
X59913465Y-41523987D01*
X59944000Y-41370476D01*
X59974535Y-41523987D01*
X60071703Y-41758570D01*
X60212768Y-41969690D01*
X60392310Y-42149232D01*
X60603430Y-42290297D01*
X60838013Y-42387465D01*
X61087045Y-42437000D01*
X61340955Y-42437000D01*
X61589987Y-42387465D01*
X61824570Y-42290297D01*
X62035690Y-42149232D01*
X62215232Y-41969690D01*
X62356297Y-41758570D01*
X62453465Y-41523987D01*
X62503000Y-41274955D01*
X62503000Y-41021045D01*
X62453465Y-40772013D01*
X62356297Y-40537430D01*
X62297544Y-40449500D01*
X65210456Y-40449500D01*
X65151703Y-40537430D01*
X65054535Y-40772013D01*
X65005000Y-41021045D01*
X65005000Y-41274955D01*
X65054535Y-41523987D01*
X65151703Y-41758570D01*
X65292768Y-41969690D01*
X65472310Y-42149232D01*
X65683430Y-42290297D01*
X65918013Y-42387465D01*
X66167045Y-42437000D01*
X66420955Y-42437000D01*
X66669987Y-42387465D01*
X66904570Y-42290297D01*
X67115690Y-42149232D01*
X67295232Y-41969690D01*
X67436297Y-41758570D01*
X67533465Y-41523987D01*
X67564000Y-41370476D01*
X67594535Y-41523987D01*
X67691703Y-41758570D01*
X67832768Y-41969690D01*
X68012310Y-42149232D01*
X68223430Y-42290297D01*
X68458013Y-42387465D01*
X68707045Y-42437000D01*
X68960955Y-42437000D01*
X69209987Y-42387465D01*
X69444570Y-42290297D01*
X69655690Y-42149232D01*
X69835232Y-41969690D01*
X69976297Y-41758570D01*
X70073465Y-41523987D01*
X70104000Y-41370476D01*
X70134535Y-41523987D01*
X70231703Y-41758570D01*
X70372768Y-41969690D01*
X70552310Y-42149232D01*
X70763430Y-42290297D01*
X70998013Y-42387465D01*
X71247045Y-42437000D01*
X71500955Y-42437000D01*
X71749987Y-42387465D01*
X71984570Y-42290297D01*
X72195690Y-42149232D01*
X72375232Y-41969690D01*
X72516297Y-41758570D01*
X72613465Y-41523987D01*
X72644000Y-41370476D01*
X72674535Y-41523987D01*
X72771703Y-41758570D01*
X72912768Y-41969690D01*
X73092310Y-42149232D01*
X73303430Y-42290297D01*
X73538013Y-42387465D01*
X73691524Y-42418000D01*
X73538013Y-42448535D01*
X73303430Y-42545703D01*
X73092310Y-42686768D01*
X72912768Y-42866310D01*
X72771703Y-43077430D01*
X72674535Y-43312013D01*
X72625000Y-43561045D01*
X72625000Y-43814955D01*
X72674535Y-44063987D01*
X72771703Y-44298570D01*
X72912768Y-44509690D01*
X73092310Y-44689232D01*
X73303430Y-44830297D01*
X73538013Y-44927465D01*
X73691524Y-44958000D01*
X73538013Y-44988535D01*
X73303430Y-45085703D01*
X73092310Y-45226768D01*
X72912768Y-45406310D01*
X72771703Y-45617430D01*
X72674535Y-45852013D01*
X72625000Y-46101045D01*
X72625000Y-46354955D01*
X72674535Y-46603987D01*
X72771703Y-46838570D01*
X72912768Y-47049690D01*
X73092310Y-47229232D01*
X73303430Y-47370297D01*
X73538013Y-47467465D01*
X73787045Y-47517000D01*
X74040955Y-47517000D01*
X74289987Y-47467465D01*
X74524570Y-47370297D01*
X74735690Y-47229232D01*
X74915232Y-47049690D01*
X75056297Y-46838570D01*
X75153465Y-46603987D01*
X75203000Y-46354955D01*
X75203000Y-46101045D01*
X75153465Y-45852013D01*
X75056297Y-45617430D01*
X74915232Y-45406310D01*
X74735690Y-45226768D01*
X74524570Y-45085703D01*
X74289987Y-44988535D01*
X74136476Y-44958000D01*
X74289987Y-44927465D01*
X74524570Y-44830297D01*
X74735690Y-44689232D01*
X74915232Y-44509690D01*
X75056297Y-44298570D01*
X75153465Y-44063987D01*
X75203000Y-43814955D01*
X75203000Y-43561045D01*
X75153465Y-43312013D01*
X75056297Y-43077430D01*
X74915232Y-42866310D01*
X74735690Y-42686768D01*
X74524570Y-42545703D01*
X74289987Y-42448535D01*
X74136476Y-42418000D01*
X74289987Y-42387465D01*
X74524570Y-42290297D01*
X74735690Y-42149232D01*
X74915232Y-41969690D01*
X75056297Y-41758570D01*
X75153465Y-41523987D01*
X75184000Y-41370476D01*
X75214535Y-41523987D01*
X75311703Y-41758570D01*
X75452768Y-41969690D01*
X75632310Y-42149232D01*
X75843430Y-42290297D01*
X76078013Y-42387465D01*
X76327045Y-42437000D01*
X76580955Y-42437000D01*
X76829987Y-42387465D01*
X77064570Y-42290297D01*
X77275690Y-42149232D01*
X77455232Y-41969690D01*
X77596297Y-41758570D01*
X77693465Y-41523987D01*
X77724000Y-41370476D01*
X77754535Y-41523987D01*
X77851703Y-41758570D01*
X77992768Y-41969690D01*
X78172310Y-42149232D01*
X78383430Y-42290297D01*
X78618013Y-42387465D01*
X78867045Y-42437000D01*
X79120955Y-42437000D01*
X79369987Y-42387465D01*
X79604570Y-42290297D01*
X79815690Y-42149232D01*
X79995232Y-41969690D01*
X80136297Y-41758570D01*
X80233465Y-41523987D01*
X80264000Y-41370476D01*
X80294535Y-41523987D01*
X80391703Y-41758570D01*
X80532768Y-41969690D01*
X80712310Y-42149232D01*
X80923430Y-42290297D01*
X81158013Y-42387465D01*
X81407045Y-42437000D01*
X81660955Y-42437000D01*
X81909987Y-42387465D01*
X82144570Y-42290297D01*
X82355690Y-42149232D01*
X82535232Y-41969690D01*
X82676297Y-41758570D01*
X82773465Y-41523987D01*
X82804000Y-41370476D01*
X82834535Y-41523987D01*
X82931703Y-41758570D01*
X83072768Y-41969690D01*
X83252310Y-42149232D01*
X83463430Y-42290297D01*
X83698013Y-42387465D01*
X83947045Y-42437000D01*
X84200955Y-42437000D01*
X84449987Y-42387465D01*
X84684570Y-42290297D01*
X84895690Y-42149232D01*
X85075232Y-41969690D01*
X85216297Y-41758570D01*
X85313465Y-41523987D01*
X85344000Y-41370476D01*
X85374535Y-41523987D01*
X85471703Y-41758570D01*
X85612768Y-41969690D01*
X85792310Y-42149232D01*
X86003430Y-42290297D01*
X86238013Y-42387465D01*
X86487045Y-42437000D01*
X86735568Y-42437000D01*
X89811611Y-45513045D01*
X89837459Y-45544541D01*
X89868955Y-45570389D01*
X89868958Y-45570392D01*
X89963157Y-45647699D01*
X90098480Y-45720031D01*
X90106566Y-45724353D01*
X90262174Y-45771556D01*
X90383447Y-45783500D01*
X90383449Y-45783500D01*
X90424000Y-45787494D01*
X90464550Y-45783500D01*
X92844497Y-45783500D01*
X92981744Y-45875205D01*
X93170102Y-45953226D01*
X93370061Y-45993000D01*
X93573939Y-45993000D01*
X93773898Y-45953226D01*
X93962256Y-45875205D01*
X94131774Y-45761937D01*
X94275937Y-45617774D01*
X94389205Y-45448256D01*
X94467226Y-45259898D01*
X94507000Y-45059939D01*
X94507000Y-44856061D01*
X94467226Y-44656102D01*
X94389205Y-44467744D01*
X94275937Y-44298226D01*
X94131774Y-44154063D01*
X93962256Y-44040795D01*
X93773898Y-43962774D01*
X93573939Y-43923000D01*
X93370061Y-43923000D01*
X93170102Y-43962774D01*
X92981744Y-44040795D01*
X92844497Y-44132500D01*
X90765934Y-44132500D01*
X87903000Y-41269568D01*
X87903000Y-41021045D01*
X87853465Y-40772013D01*
X87756297Y-40537430D01*
X87615232Y-40326310D01*
X87435690Y-40146768D01*
X87224570Y-40005703D01*
X86989987Y-39908535D01*
X86740955Y-39859000D01*
X86487045Y-39859000D01*
X86238013Y-39908535D01*
X86003430Y-40005703D01*
X85792310Y-40146768D01*
X85612768Y-40326310D01*
X85471703Y-40537430D01*
X85374535Y-40772013D01*
X85344000Y-40925524D01*
X85313465Y-40772013D01*
X85216297Y-40537430D01*
X85123992Y-40399284D01*
X85153434Y-40390353D01*
X85296842Y-40313699D01*
X85422541Y-40210541D01*
X85448398Y-40179034D01*
X90056006Y-35571428D01*
X90217898Y-35539226D01*
X90406256Y-35461205D01*
X90575774Y-35347937D01*
X90719937Y-35203774D01*
X90833205Y-35034256D01*
X90911226Y-34845898D01*
X90951000Y-34645939D01*
X90951000Y-34442061D01*
X90911226Y-34242102D01*
X90833205Y-34053744D01*
X90719937Y-33884226D01*
X90575774Y-33740063D01*
X90406256Y-33626795D01*
X90217898Y-33548774D01*
X90017939Y-33509000D01*
X89814061Y-33509000D01*
X89614102Y-33548774D01*
X89425744Y-33626795D01*
X89256226Y-33740063D01*
X89112063Y-33884226D01*
X88998795Y-34053744D01*
X88920774Y-34242102D01*
X88888572Y-34403994D01*
X84494068Y-38798500D01*
X80986932Y-38798500D01*
X84214006Y-35571428D01*
X84375898Y-35539226D01*
X84564256Y-35461205D01*
X84733774Y-35347937D01*
X84877937Y-35203774D01*
X84991205Y-35034256D01*
X85069226Y-34845898D01*
X85109000Y-34645939D01*
X85109000Y-34442061D01*
X85069226Y-34242102D01*
X84991205Y-34053744D01*
X84877937Y-33884226D01*
X84733774Y-33740063D01*
X84564256Y-33626795D01*
X84375898Y-33548774D01*
X84175939Y-33509000D01*
X83972061Y-33509000D01*
X83772102Y-33548774D01*
X83583744Y-33626795D01*
X83414226Y-33740063D01*
X83270063Y-33884226D01*
X83156795Y-34053744D01*
X83078774Y-34242102D01*
X83046572Y-34403994D01*
X79233078Y-38217490D01*
X45579560Y-38217490D01*
X45539010Y-38213496D01*
X45498459Y-38217490D01*
X45498457Y-38217490D01*
X45377184Y-38229434D01*
X45221576Y-38276637D01*
X45078167Y-38353291D01*
X44983968Y-38430598D01*
X44983965Y-38430601D01*
X44952469Y-38456449D01*
X44926621Y-38487945D01*
X43555567Y-39859000D01*
X43307045Y-39859000D01*
X43058013Y-39908535D01*
X42823430Y-40005703D01*
X42612310Y-40146768D01*
X42432768Y-40326310D01*
X42291703Y-40537430D01*
X42194535Y-40772013D01*
X42164000Y-40925524D01*
X42133465Y-40772013D01*
X42036297Y-40537430D01*
X41895232Y-40326310D01*
X41715690Y-40146768D01*
X41504570Y-40005703D01*
X41269987Y-39908535D01*
X41020955Y-39859000D01*
X40767045Y-39859000D01*
X40518013Y-39908535D01*
X40283430Y-40005703D01*
X40072310Y-40146768D01*
X39892768Y-40326310D01*
X39751703Y-40537430D01*
X39654535Y-40772013D01*
X39624000Y-40925524D01*
X39593465Y-40772013D01*
X39496297Y-40537430D01*
X39355232Y-40326310D01*
X39175690Y-40146768D01*
X38964570Y-40005703D01*
X38729987Y-39908535D01*
X38480955Y-39859000D01*
X38227045Y-39859000D01*
X37978013Y-39908535D01*
X37743430Y-40005703D01*
X37532310Y-40146768D01*
X37352768Y-40326310D01*
X37211703Y-40537430D01*
X37114535Y-40772013D01*
X37084000Y-40925524D01*
X37053465Y-40772013D01*
X36956297Y-40537430D01*
X36815232Y-40326310D01*
X36635690Y-40146768D01*
X36424570Y-40005703D01*
X36189987Y-39908535D01*
X35940955Y-39859000D01*
X35687045Y-39859000D01*
X35438013Y-39908535D01*
X35203430Y-40005703D01*
X34992310Y-40146768D01*
X34812768Y-40326310D01*
X34671703Y-40537430D01*
X34574535Y-40772013D01*
X34544000Y-40925524D01*
X34513465Y-40772013D01*
X34416297Y-40537430D01*
X34275232Y-40326310D01*
X34095690Y-40146768D01*
X33884570Y-40005703D01*
X33649987Y-39908535D01*
X33400955Y-39859000D01*
X33147045Y-39859000D01*
X32898013Y-39908535D01*
X32663430Y-40005703D01*
X32452310Y-40146768D01*
X32272768Y-40326310D01*
X32131703Y-40537430D01*
X32034535Y-40772013D01*
X31985000Y-41021045D01*
X31985000Y-41274955D01*
X32034535Y-41523987D01*
X32131703Y-41758570D01*
X32258000Y-41947588D01*
X32258000Y-42022992D01*
X32253085Y-42072895D01*
X32258000Y-42122796D01*
X32272702Y-42272065D01*
X32330798Y-42463581D01*
X32425140Y-42640085D01*
X32552104Y-42794791D01*
X32590872Y-42826607D01*
X41755397Y-51991133D01*
X41787209Y-52029896D01*
X41941915Y-52156860D01*
X42118416Y-52251201D01*
X42118418Y-52251202D01*
X42309934Y-52309298D01*
X42509105Y-52328915D01*
X42559007Y-52324000D01*
X66381159Y-52324000D01*
X63600974Y-55104186D01*
X63378013Y-55148535D01*
X63143430Y-55245703D01*
X62932310Y-55386768D01*
X62752768Y-55566310D01*
X62611703Y-55777430D01*
X62514535Y-56012013D01*
X62484000Y-56165524D01*
X62453465Y-56012013D01*
X62356297Y-55777430D01*
X62215232Y-55566310D01*
X62035690Y-55386768D01*
X61824570Y-55245703D01*
X61589987Y-55148535D01*
X61340955Y-55099000D01*
X61087045Y-55099000D01*
X60838013Y-55148535D01*
X60603430Y-55245703D01*
X60392310Y-55386768D01*
X60212768Y-55566310D01*
X60071703Y-55777430D01*
X59974535Y-56012013D01*
X59944000Y-56165524D01*
X59913465Y-56012013D01*
X59816297Y-55777430D01*
X59675232Y-55566310D01*
X59495690Y-55386768D01*
X59284570Y-55245703D01*
X59049987Y-55148535D01*
X58800955Y-55099000D01*
X58547045Y-55099000D01*
X58298013Y-55148535D01*
X58063430Y-55245703D01*
X57852310Y-55386768D01*
X57672768Y-55566310D01*
X57531703Y-55777430D01*
X57434535Y-56012013D01*
X57404000Y-56165524D01*
X57373465Y-56012013D01*
X57276297Y-55777430D01*
X57135232Y-55566310D01*
X56955690Y-55386768D01*
X56744570Y-55245703D01*
X56509987Y-55148535D01*
X56260955Y-55099000D01*
X56007045Y-55099000D01*
X55758013Y-55148535D01*
X55523430Y-55245703D01*
X55312310Y-55386768D01*
X55132768Y-55566310D01*
X54991703Y-55777430D01*
X54894535Y-56012013D01*
X54864000Y-56165524D01*
X54833465Y-56012013D01*
X54736297Y-55777430D01*
X54595232Y-55566310D01*
X54415690Y-55386768D01*
X54204570Y-55245703D01*
X53969987Y-55148535D01*
X53720955Y-55099000D01*
X53467045Y-55099000D01*
X53218013Y-55148535D01*
X52983430Y-55245703D01*
X52772310Y-55386768D01*
X52592768Y-55566310D01*
X52451703Y-55777430D01*
X52354535Y-56012013D01*
X52324000Y-56165524D01*
X52293465Y-56012013D01*
X52196297Y-55777430D01*
X52055232Y-55566310D01*
X51875690Y-55386768D01*
X51664570Y-55245703D01*
X51429987Y-55148535D01*
X51180955Y-55099000D01*
X50927045Y-55099000D01*
X50678013Y-55148535D01*
X50443430Y-55245703D01*
X50232310Y-55386768D01*
X50052768Y-55566310D01*
X49911703Y-55777430D01*
X49814535Y-56012013D01*
X49784000Y-56165524D01*
X49753465Y-56012013D01*
X49656297Y-55777430D01*
X49515232Y-55566310D01*
X49335690Y-55386768D01*
X49124570Y-55245703D01*
X48889987Y-55148535D01*
X48640955Y-55099000D01*
X48387045Y-55099000D01*
X48138013Y-55148535D01*
X47903430Y-55245703D01*
X47692310Y-55386768D01*
X47512768Y-55566310D01*
X47371703Y-55777430D01*
X47274535Y-56012013D01*
X47244000Y-56165524D01*
X47213465Y-56012013D01*
X47116297Y-55777430D01*
X46975232Y-55566310D01*
X46795690Y-55386768D01*
X46584570Y-55245703D01*
X46349987Y-55148535D01*
X46100955Y-55099000D01*
X45847045Y-55099000D01*
X45598013Y-55148535D01*
X45363430Y-55245703D01*
X45152310Y-55386768D01*
X44972768Y-55566310D01*
X44831703Y-55777430D01*
X44734535Y-56012013D01*
X44704000Y-56165524D01*
X44673465Y-56012013D01*
X44576297Y-55777430D01*
X44435232Y-55566310D01*
X44255690Y-55386768D01*
X44044570Y-55245703D01*
X43809987Y-55148535D01*
X43560955Y-55099000D01*
X43307045Y-55099000D01*
X43058013Y-55148535D01*
X42823430Y-55245703D01*
X42612310Y-55386768D01*
X42432768Y-55566310D01*
X42291703Y-55777430D01*
X42194535Y-56012013D01*
X42164000Y-56165524D01*
X42133465Y-56012013D01*
X42036297Y-55777430D01*
X41895232Y-55566310D01*
X41715690Y-55386768D01*
X41504570Y-55245703D01*
X41269987Y-55148535D01*
X41020955Y-55099000D01*
X40767045Y-55099000D01*
X40518013Y-55148535D01*
X40283430Y-55245703D01*
X40072310Y-55386768D01*
X39892768Y-55566310D01*
X39751703Y-55777430D01*
X39654535Y-56012013D01*
X39624000Y-56165524D01*
X39593465Y-56012013D01*
X39496297Y-55777430D01*
X39355232Y-55566310D01*
X39175690Y-55386768D01*
X38964570Y-55245703D01*
X38729987Y-55148535D01*
X38480955Y-55099000D01*
X38227045Y-55099000D01*
X37978013Y-55148535D01*
X37743430Y-55245703D01*
X37532310Y-55386768D01*
X37352768Y-55566310D01*
X37211703Y-55777430D01*
X37114535Y-56012013D01*
X37084000Y-56165524D01*
X37053465Y-56012013D01*
X36956297Y-55777430D01*
X36815232Y-55566310D01*
X36635690Y-55386768D01*
X36424570Y-55245703D01*
X36189987Y-55148535D01*
X35940955Y-55099000D01*
X35687045Y-55099000D01*
X35438013Y-55148535D01*
X35203430Y-55245703D01*
X34992310Y-55386768D01*
X34812768Y-55566310D01*
X34671703Y-55777430D01*
X34574535Y-56012013D01*
X34544000Y-56165524D01*
X34513465Y-56012013D01*
X34416297Y-55777430D01*
X34275232Y-55566310D01*
X34095690Y-55386768D01*
X33884570Y-55245703D01*
X33649987Y-55148535D01*
X33400955Y-55099000D01*
X33147045Y-55099000D01*
X32898013Y-55148535D01*
X32663430Y-55245703D01*
X32452310Y-55386768D01*
X32272768Y-55566310D01*
X32131703Y-55777430D01*
X32034535Y-56012013D01*
X32004000Y-56165524D01*
X31973465Y-56012013D01*
X31876297Y-55777430D01*
X31735232Y-55566310D01*
X31555690Y-55386768D01*
X31344570Y-55245703D01*
X31109987Y-55148535D01*
X30860955Y-55099000D01*
X30607045Y-55099000D01*
X30358013Y-55148535D01*
X30123430Y-55245703D01*
X29912310Y-55386768D01*
X29732768Y-55566310D01*
X29591703Y-55777430D01*
X29494535Y-56012013D01*
X29445000Y-56261045D01*
X26631501Y-56261045D01*
X26631501Y-53213507D01*
X33280000Y-53213507D01*
X33280000Y-53462493D01*
X33328575Y-53706695D01*
X33423858Y-53936729D01*
X33562187Y-54143753D01*
X33738247Y-54319813D01*
X33945271Y-54458142D01*
X34175305Y-54553425D01*
X34419507Y-54602000D01*
X34668493Y-54602000D01*
X34912695Y-54553425D01*
X35142729Y-54458142D01*
X35349753Y-54319813D01*
X35525813Y-54143753D01*
X35664142Y-53936729D01*
X35759425Y-53706695D01*
X35808000Y-53462493D01*
X35808000Y-53213507D01*
X35820000Y-53213507D01*
X35820000Y-53462493D01*
X35868575Y-53706695D01*
X35963858Y-53936729D01*
X36102187Y-54143753D01*
X36278247Y-54319813D01*
X36485271Y-54458142D01*
X36715305Y-54553425D01*
X36959507Y-54602000D01*
X37208493Y-54602000D01*
X37452695Y-54553425D01*
X37682729Y-54458142D01*
X37889753Y-54319813D01*
X38065813Y-54143753D01*
X38204142Y-53936729D01*
X38299425Y-53706695D01*
X38348000Y-53462493D01*
X38348000Y-53213507D01*
X38360000Y-53213507D01*
X38360000Y-53462493D01*
X38408575Y-53706695D01*
X38503858Y-53936729D01*
X38642187Y-54143753D01*
X38818247Y-54319813D01*
X39025271Y-54458142D01*
X39255305Y-54553425D01*
X39499507Y-54602000D01*
X39748493Y-54602000D01*
X39992695Y-54553425D01*
X40222729Y-54458142D01*
X40429753Y-54319813D01*
X40605813Y-54143753D01*
X40744142Y-53936729D01*
X40839425Y-53706695D01*
X40888000Y-53462493D01*
X40888000Y-53213507D01*
X40839425Y-52969305D01*
X40744142Y-52739271D01*
X40605813Y-52532247D01*
X40429753Y-52356187D01*
X40222729Y-52217858D01*
X39992695Y-52122575D01*
X39748493Y-52074000D01*
X39499507Y-52074000D01*
X39255305Y-52122575D01*
X39025271Y-52217858D01*
X38818247Y-52356187D01*
X38642187Y-52532247D01*
X38503858Y-52739271D01*
X38408575Y-52969305D01*
X38360000Y-53213507D01*
X38348000Y-53213507D01*
X38299425Y-52969305D01*
X38204142Y-52739271D01*
X38065813Y-52532247D01*
X37889753Y-52356187D01*
X37682729Y-52217858D01*
X37452695Y-52122575D01*
X37208493Y-52074000D01*
X36959507Y-52074000D01*
X36715305Y-52122575D01*
X36485271Y-52217858D01*
X36278247Y-52356187D01*
X36102187Y-52532247D01*
X35963858Y-52739271D01*
X35868575Y-52969305D01*
X35820000Y-53213507D01*
X35808000Y-53213507D01*
X35759425Y-52969305D01*
X35664142Y-52739271D01*
X35525813Y-52532247D01*
X35349753Y-52356187D01*
X35142729Y-52217858D01*
X34912695Y-52122575D01*
X34668493Y-52074000D01*
X34419507Y-52074000D01*
X34175305Y-52122575D01*
X33945271Y-52217858D01*
X33738247Y-52356187D01*
X33562187Y-52532247D01*
X33423858Y-52739271D01*
X33328575Y-52969305D01*
X33280000Y-53213507D01*
X26631501Y-53213507D01*
X26631501Y-43561045D01*
X29445000Y-43561045D01*
X29445000Y-43814955D01*
X29494535Y-44063987D01*
X29591703Y-44298570D01*
X29732768Y-44509690D01*
X29912310Y-44689232D01*
X30123430Y-44830297D01*
X30358013Y-44927465D01*
X30607045Y-44977000D01*
X30860955Y-44977000D01*
X31109987Y-44927465D01*
X31344570Y-44830297D01*
X31555690Y-44689232D01*
X31735232Y-44509690D01*
X31876297Y-44298570D01*
X31973465Y-44063987D01*
X32023000Y-43814955D01*
X32023000Y-43561045D01*
X31973465Y-43312013D01*
X31876297Y-43077430D01*
X31735232Y-42866310D01*
X31555690Y-42686768D01*
X31344570Y-42545703D01*
X31109987Y-42448535D01*
X30860955Y-42399000D01*
X30607045Y-42399000D01*
X30358013Y-42448535D01*
X30123430Y-42545703D01*
X29912310Y-42686768D01*
X29732768Y-42866310D01*
X29591703Y-43077430D01*
X29494535Y-43312013D01*
X29445000Y-43561045D01*
X26631501Y-43561045D01*
X26631500Y-41021045D01*
X26905000Y-41021045D01*
X26905000Y-41274955D01*
X26954535Y-41523987D01*
X27051703Y-41758570D01*
X27192768Y-41969690D01*
X27372310Y-42149232D01*
X27583430Y-42290297D01*
X27818013Y-42387465D01*
X28067045Y-42437000D01*
X28320955Y-42437000D01*
X28569987Y-42387465D01*
X28804570Y-42290297D01*
X29015690Y-42149232D01*
X29195232Y-41969690D01*
X29336297Y-41758570D01*
X29433465Y-41523987D01*
X29483000Y-41274955D01*
X29483000Y-41021045D01*
X29433465Y-40772013D01*
X29336297Y-40537430D01*
X29195232Y-40326310D01*
X29015690Y-40146768D01*
X28804570Y-40005703D01*
X28569987Y-39908535D01*
X28320955Y-39859000D01*
X28067045Y-39859000D01*
X27818013Y-39908535D01*
X27583430Y-40005703D01*
X27372310Y-40146768D01*
X27192768Y-40326310D01*
X27051703Y-40537430D01*
X26954535Y-40772013D01*
X26905000Y-41021045D01*
X26631500Y-41021045D01*
X26631500Y-29326408D01*
X29718000Y-29326408D01*
X29718000Y-29601592D01*
X29771686Y-29871490D01*
X29876995Y-30125727D01*
X30029880Y-30354535D01*
X30224465Y-30549120D01*
X30453273Y-30702005D01*
X30707510Y-30807314D01*
X30977408Y-30861000D01*
X31252592Y-30861000D01*
X31522490Y-30807314D01*
X31776727Y-30702005D01*
X32005535Y-30549120D01*
X32200120Y-30354535D01*
X32353005Y-30125727D01*
X32458314Y-29871490D01*
X32512000Y-29601592D01*
X32512000Y-29326408D01*
X35814000Y-29326408D01*
X35814000Y-29601592D01*
X35867686Y-29871490D01*
X35972995Y-30125727D01*
X36125880Y-30354535D01*
X36320465Y-30549120D01*
X36549273Y-30702005D01*
X36803510Y-30807314D01*
X37073408Y-30861000D01*
X37348592Y-30861000D01*
X37618490Y-30807314D01*
X37872727Y-30702005D01*
X38101535Y-30549120D01*
X38296120Y-30354535D01*
X38449005Y-30125727D01*
X38554314Y-29871490D01*
X38608000Y-29601592D01*
X38608000Y-29326408D01*
X42926000Y-29326408D01*
X42926000Y-29601592D01*
X42979686Y-29871490D01*
X43084995Y-30125727D01*
X43237880Y-30354535D01*
X43432465Y-30549120D01*
X43661273Y-30702005D01*
X43915510Y-30807314D01*
X44185408Y-30861000D01*
X44460592Y-30861000D01*
X44730490Y-30807314D01*
X44984727Y-30702005D01*
X45213535Y-30549120D01*
X45408120Y-30354535D01*
X45561005Y-30125727D01*
X45666314Y-29871490D01*
X45720000Y-29601592D01*
X45720000Y-29326408D01*
X49022000Y-29326408D01*
X49022000Y-29601592D01*
X49075686Y-29871490D01*
X49180995Y-30125727D01*
X49333880Y-30354535D01*
X49528465Y-30549120D01*
X49757273Y-30702005D01*
X50011510Y-30807314D01*
X50281408Y-30861000D01*
X50556592Y-30861000D01*
X50826490Y-30807314D01*
X51080727Y-30702005D01*
X51309535Y-30549120D01*
X51504120Y-30354535D01*
X51657005Y-30125727D01*
X51762314Y-29871490D01*
X51816000Y-29601592D01*
X51816000Y-29326408D01*
X56134000Y-29326408D01*
X56134000Y-29601592D01*
X56187686Y-29871490D01*
X56292995Y-30125727D01*
X56445880Y-30354535D01*
X56640465Y-30549120D01*
X56869273Y-30702005D01*
X57123510Y-30807314D01*
X57393408Y-30861000D01*
X57668592Y-30861000D01*
X57938490Y-30807314D01*
X58192727Y-30702005D01*
X58421535Y-30549120D01*
X58616120Y-30354535D01*
X58769005Y-30125727D01*
X58874314Y-29871490D01*
X58928000Y-29601592D01*
X58928000Y-29326408D01*
X62230000Y-29326408D01*
X62230000Y-29601592D01*
X62283686Y-29871490D01*
X62388995Y-30125727D01*
X62541880Y-30354535D01*
X62736465Y-30549120D01*
X62965273Y-30702005D01*
X63219510Y-30807314D01*
X63489408Y-30861000D01*
X63764592Y-30861000D01*
X64034490Y-30807314D01*
X64288727Y-30702005D01*
X64517535Y-30549120D01*
X64712120Y-30354535D01*
X64865005Y-30125727D01*
X64970314Y-29871490D01*
X65024000Y-29601592D01*
X65024000Y-29326408D01*
X69342000Y-29326408D01*
X69342000Y-29601592D01*
X69395686Y-29871490D01*
X69500995Y-30125727D01*
X69653880Y-30354535D01*
X69848465Y-30549120D01*
X70077273Y-30702005D01*
X70331510Y-30807314D01*
X70601408Y-30861000D01*
X70876592Y-30861000D01*
X71146490Y-30807314D01*
X71400727Y-30702005D01*
X71629535Y-30549120D01*
X71824120Y-30354535D01*
X71977005Y-30125727D01*
X72082314Y-29871490D01*
X72136000Y-29601592D01*
X72136000Y-29326408D01*
X75438000Y-29326408D01*
X75438000Y-29601592D01*
X75491686Y-29871490D01*
X75596995Y-30125727D01*
X75749880Y-30354535D01*
X75944465Y-30549120D01*
X76173273Y-30702005D01*
X76427510Y-30807314D01*
X76697408Y-30861000D01*
X76972592Y-30861000D01*
X77242490Y-30807314D01*
X77496727Y-30702005D01*
X77725535Y-30549120D01*
X77920120Y-30354535D01*
X78073005Y-30125727D01*
X78178314Y-29871490D01*
X78232000Y-29601592D01*
X78232000Y-29326408D01*
X82550000Y-29326408D01*
X82550000Y-29601592D01*
X82603686Y-29871490D01*
X82708995Y-30125727D01*
X82861880Y-30354535D01*
X83056465Y-30549120D01*
X83285273Y-30702005D01*
X83539510Y-30807314D01*
X83809408Y-30861000D01*
X84084592Y-30861000D01*
X84354490Y-30807314D01*
X84608727Y-30702005D01*
X84837535Y-30549120D01*
X85032120Y-30354535D01*
X85185005Y-30125727D01*
X85290314Y-29871490D01*
X85344000Y-29601592D01*
X85344000Y-29326408D01*
X88646000Y-29326408D01*
X88646000Y-29601592D01*
X88699686Y-29871490D01*
X88804995Y-30125727D01*
X88957880Y-30354535D01*
X89152465Y-30549120D01*
X89381273Y-30702005D01*
X89635510Y-30807314D01*
X89905408Y-30861000D01*
X90180592Y-30861000D01*
X90450490Y-30807314D01*
X90704727Y-30702005D01*
X90933535Y-30549120D01*
X91128120Y-30354535D01*
X91281005Y-30125727D01*
X91386314Y-29871490D01*
X91440000Y-29601592D01*
X91440000Y-29326408D01*
X95885000Y-29326408D01*
X95885000Y-29601592D01*
X95938686Y-29871490D01*
X96043995Y-30125727D01*
X96196880Y-30354535D01*
X96391465Y-30549120D01*
X96620273Y-30702005D01*
X96874510Y-30807314D01*
X97144408Y-30861000D01*
X97419592Y-30861000D01*
X97689490Y-30807314D01*
X97943727Y-30702005D01*
X98172535Y-30549120D01*
X98367120Y-30354535D01*
X98520005Y-30125727D01*
X98625314Y-29871490D01*
X98679000Y-29601592D01*
X98679000Y-29326408D01*
X101981000Y-29326408D01*
X101981000Y-29601592D01*
X102034686Y-29871490D01*
X102139995Y-30125727D01*
X102292880Y-30354535D01*
X102487465Y-30549120D01*
X102716273Y-30702005D01*
X102970510Y-30807314D01*
X103240408Y-30861000D01*
X103515592Y-30861000D01*
X103785490Y-30807314D01*
X104039727Y-30702005D01*
X104268535Y-30549120D01*
X104463120Y-30354535D01*
X104616005Y-30125727D01*
X104721314Y-29871490D01*
X104775000Y-29601592D01*
X104775000Y-29326408D01*
X104721314Y-29056510D01*
X104616005Y-28802273D01*
X104463120Y-28573465D01*
X104268535Y-28378880D01*
X104039727Y-28225995D01*
X103785490Y-28120686D01*
X103515592Y-28067000D01*
X103240408Y-28067000D01*
X102970510Y-28120686D01*
X102716273Y-28225995D01*
X102487465Y-28378880D01*
X102292880Y-28573465D01*
X102139995Y-28802273D01*
X102034686Y-29056510D01*
X101981000Y-29326408D01*
X98679000Y-29326408D01*
X98625314Y-29056510D01*
X98520005Y-28802273D01*
X98367120Y-28573465D01*
X98172535Y-28378880D01*
X97943727Y-28225995D01*
X97689490Y-28120686D01*
X97419592Y-28067000D01*
X97144408Y-28067000D01*
X96874510Y-28120686D01*
X96620273Y-28225995D01*
X96391465Y-28378880D01*
X96196880Y-28573465D01*
X96043995Y-28802273D01*
X95938686Y-29056510D01*
X95885000Y-29326408D01*
X91440000Y-29326408D01*
X91386314Y-29056510D01*
X91281005Y-28802273D01*
X91128120Y-28573465D01*
X90933535Y-28378880D01*
X90704727Y-28225995D01*
X90450490Y-28120686D01*
X90180592Y-28067000D01*
X89905408Y-28067000D01*
X89635510Y-28120686D01*
X89381273Y-28225995D01*
X89152465Y-28378880D01*
X88957880Y-28573465D01*
X88804995Y-28802273D01*
X88699686Y-29056510D01*
X88646000Y-29326408D01*
X85344000Y-29326408D01*
X85290314Y-29056510D01*
X85185005Y-28802273D01*
X85032120Y-28573465D01*
X84837535Y-28378880D01*
X84608727Y-28225995D01*
X84354490Y-28120686D01*
X84084592Y-28067000D01*
X83809408Y-28067000D01*
X83539510Y-28120686D01*
X83285273Y-28225995D01*
X83056465Y-28378880D01*
X82861880Y-28573465D01*
X82708995Y-28802273D01*
X82603686Y-29056510D01*
X82550000Y-29326408D01*
X78232000Y-29326408D01*
X78178314Y-29056510D01*
X78073005Y-28802273D01*
X77920120Y-28573465D01*
X77725535Y-28378880D01*
X77496727Y-28225995D01*
X77242490Y-28120686D01*
X76972592Y-28067000D01*
X76697408Y-28067000D01*
X76427510Y-28120686D01*
X76173273Y-28225995D01*
X75944465Y-28378880D01*
X75749880Y-28573465D01*
X75596995Y-28802273D01*
X75491686Y-29056510D01*
X75438000Y-29326408D01*
X72136000Y-29326408D01*
X72082314Y-29056510D01*
X71977005Y-28802273D01*
X71824120Y-28573465D01*
X71629535Y-28378880D01*
X71400727Y-28225995D01*
X71146490Y-28120686D01*
X70876592Y-28067000D01*
X70601408Y-28067000D01*
X70331510Y-28120686D01*
X70077273Y-28225995D01*
X69848465Y-28378880D01*
X69653880Y-28573465D01*
X69500995Y-28802273D01*
X69395686Y-29056510D01*
X69342000Y-29326408D01*
X65024000Y-29326408D01*
X64970314Y-29056510D01*
X64865005Y-28802273D01*
X64712120Y-28573465D01*
X64517535Y-28378880D01*
X64288727Y-28225995D01*
X64034490Y-28120686D01*
X63764592Y-28067000D01*
X63489408Y-28067000D01*
X63219510Y-28120686D01*
X62965273Y-28225995D01*
X62736465Y-28378880D01*
X62541880Y-28573465D01*
X62388995Y-28802273D01*
X62283686Y-29056510D01*
X62230000Y-29326408D01*
X58928000Y-29326408D01*
X58874314Y-29056510D01*
X58769005Y-28802273D01*
X58616120Y-28573465D01*
X58421535Y-28378880D01*
X58192727Y-28225995D01*
X57938490Y-28120686D01*
X57668592Y-28067000D01*
X57393408Y-28067000D01*
X57123510Y-28120686D01*
X56869273Y-28225995D01*
X56640465Y-28378880D01*
X56445880Y-28573465D01*
X56292995Y-28802273D01*
X56187686Y-29056510D01*
X56134000Y-29326408D01*
X51816000Y-29326408D01*
X51762314Y-29056510D01*
X51657005Y-28802273D01*
X51504120Y-28573465D01*
X51309535Y-28378880D01*
X51080727Y-28225995D01*
X50826490Y-28120686D01*
X50556592Y-28067000D01*
X50281408Y-28067000D01*
X50011510Y-28120686D01*
X49757273Y-28225995D01*
X49528465Y-28378880D01*
X49333880Y-28573465D01*
X49180995Y-28802273D01*
X49075686Y-29056510D01*
X49022000Y-29326408D01*
X45720000Y-29326408D01*
X45666314Y-29056510D01*
X45561005Y-28802273D01*
X45408120Y-28573465D01*
X45213535Y-28378880D01*
X44984727Y-28225995D01*
X44730490Y-28120686D01*
X44460592Y-28067000D01*
X44185408Y-28067000D01*
X43915510Y-28120686D01*
X43661273Y-28225995D01*
X43432465Y-28378880D01*
X43237880Y-28573465D01*
X43084995Y-28802273D01*
X42979686Y-29056510D01*
X42926000Y-29326408D01*
X38608000Y-29326408D01*
X38554314Y-29056510D01*
X38449005Y-28802273D01*
X38296120Y-28573465D01*
X38101535Y-28378880D01*
X37872727Y-28225995D01*
X37618490Y-28120686D01*
X37348592Y-28067000D01*
X37073408Y-28067000D01*
X36803510Y-28120686D01*
X36549273Y-28225995D01*
X36320465Y-28378880D01*
X36125880Y-28573465D01*
X35972995Y-28802273D01*
X35867686Y-29056510D01*
X35814000Y-29326408D01*
X32512000Y-29326408D01*
X32458314Y-29056510D01*
X32353005Y-28802273D01*
X32200120Y-28573465D01*
X32005535Y-28378880D01*
X31776727Y-28225995D01*
X31522490Y-28120686D01*
X31252592Y-28067000D01*
X30977408Y-28067000D01*
X30707510Y-28120686D01*
X30453273Y-28225995D01*
X30224465Y-28378880D01*
X30029880Y-28573465D01*
X29876995Y-28802273D01*
X29771686Y-29056510D01*
X29718000Y-29326408D01*
X26631500Y-29326408D01*
X26631500Y-24932106D01*
X31991300Y-24932106D01*
X31991300Y-25359894D01*
X32074757Y-25779462D01*
X32238464Y-26174686D01*
X32476130Y-26530378D01*
X32778622Y-26832870D01*
X33134314Y-27070536D01*
X33529538Y-27234243D01*
X33949106Y-27317700D01*
X34376894Y-27317700D01*
X34796462Y-27234243D01*
X35191686Y-27070536D01*
X35547378Y-26832870D01*
X35849870Y-26530378D01*
X36087536Y-26174686D01*
X36251243Y-25779462D01*
X36334700Y-25359894D01*
X36334700Y-24932106D01*
X45199300Y-24932106D01*
X45199300Y-25359894D01*
X45282757Y-25779462D01*
X45446464Y-26174686D01*
X45684130Y-26530378D01*
X45986622Y-26832870D01*
X46342314Y-27070536D01*
X46737538Y-27234243D01*
X47157106Y-27317700D01*
X47584894Y-27317700D01*
X48004462Y-27234243D01*
X48399686Y-27070536D01*
X48755378Y-26832870D01*
X49057870Y-26530378D01*
X49295536Y-26174686D01*
X49459243Y-25779462D01*
X49542700Y-25359894D01*
X49542700Y-24932106D01*
X58407300Y-24932106D01*
X58407300Y-25359894D01*
X58490757Y-25779462D01*
X58654464Y-26174686D01*
X58892130Y-26530378D01*
X59194622Y-26832870D01*
X59550314Y-27070536D01*
X59945538Y-27234243D01*
X60365106Y-27317700D01*
X60792894Y-27317700D01*
X61212462Y-27234243D01*
X61607686Y-27070536D01*
X61963378Y-26832870D01*
X62265870Y-26530378D01*
X62503536Y-26174686D01*
X62667243Y-25779462D01*
X62750700Y-25359894D01*
X62750700Y-24932106D01*
X71615300Y-24932106D01*
X71615300Y-25359894D01*
X71698757Y-25779462D01*
X71862464Y-26174686D01*
X72100130Y-26530378D01*
X72402622Y-26832870D01*
X72758314Y-27070536D01*
X73153538Y-27234243D01*
X73573106Y-27317700D01*
X74000894Y-27317700D01*
X74420462Y-27234243D01*
X74815686Y-27070536D01*
X75171378Y-26832870D01*
X75473870Y-26530378D01*
X75711536Y-26174686D01*
X75875243Y-25779462D01*
X75958700Y-25359894D01*
X75958700Y-24932106D01*
X84823300Y-24932106D01*
X84823300Y-25359894D01*
X84906757Y-25779462D01*
X85070464Y-26174686D01*
X85308130Y-26530378D01*
X85610622Y-26832870D01*
X85966314Y-27070536D01*
X86361538Y-27234243D01*
X86781106Y-27317700D01*
X87208894Y-27317700D01*
X87628462Y-27234243D01*
X88023686Y-27070536D01*
X88379378Y-26832870D01*
X88681870Y-26530378D01*
X88919536Y-26174686D01*
X89083243Y-25779462D01*
X89166700Y-25359894D01*
X89166700Y-24932106D01*
X98158300Y-24932106D01*
X98158300Y-25359894D01*
X98241757Y-25779462D01*
X98405464Y-26174686D01*
X98643130Y-26530378D01*
X98945622Y-26832870D01*
X99301314Y-27070536D01*
X99696538Y-27234243D01*
X100116106Y-27317700D01*
X100543894Y-27317700D01*
X100963462Y-27234243D01*
X101358686Y-27070536D01*
X101714378Y-26832870D01*
X102016870Y-26530378D01*
X102254536Y-26174686D01*
X102418243Y-25779462D01*
X102501700Y-25359894D01*
X102501700Y-24932106D01*
X102418243Y-24512538D01*
X102254536Y-24117314D01*
X102016870Y-23761622D01*
X101714378Y-23459130D01*
X101358686Y-23221464D01*
X100963462Y-23057757D01*
X100543894Y-22974300D01*
X100116106Y-22974300D01*
X99696538Y-23057757D01*
X99301314Y-23221464D01*
X98945622Y-23459130D01*
X98643130Y-23761622D01*
X98405464Y-24117314D01*
X98241757Y-24512538D01*
X98158300Y-24932106D01*
X89166700Y-24932106D01*
X89083243Y-24512538D01*
X88919536Y-24117314D01*
X88681870Y-23761622D01*
X88379378Y-23459130D01*
X88023686Y-23221464D01*
X87628462Y-23057757D01*
X87208894Y-22974300D01*
X86781106Y-22974300D01*
X86361538Y-23057757D01*
X85966314Y-23221464D01*
X85610622Y-23459130D01*
X85308130Y-23761622D01*
X85070464Y-24117314D01*
X84906757Y-24512538D01*
X84823300Y-24932106D01*
X75958700Y-24932106D01*
X75875243Y-24512538D01*
X75711536Y-24117314D01*
X75473870Y-23761622D01*
X75171378Y-23459130D01*
X74815686Y-23221464D01*
X74420462Y-23057757D01*
X74000894Y-22974300D01*
X73573106Y-22974300D01*
X73153538Y-23057757D01*
X72758314Y-23221464D01*
X72402622Y-23459130D01*
X72100130Y-23761622D01*
X71862464Y-24117314D01*
X71698757Y-24512538D01*
X71615300Y-24932106D01*
X62750700Y-24932106D01*
X62667243Y-24512538D01*
X62503536Y-24117314D01*
X62265870Y-23761622D01*
X61963378Y-23459130D01*
X61607686Y-23221464D01*
X61212462Y-23057757D01*
X60792894Y-22974300D01*
X60365106Y-22974300D01*
X59945538Y-23057757D01*
X59550314Y-23221464D01*
X59194622Y-23459130D01*
X58892130Y-23761622D01*
X58654464Y-24117314D01*
X58490757Y-24512538D01*
X58407300Y-24932106D01*
X49542700Y-24932106D01*
X49459243Y-24512538D01*
X49295536Y-24117314D01*
X49057870Y-23761622D01*
X48755378Y-23459130D01*
X48399686Y-23221464D01*
X48004462Y-23057757D01*
X47584894Y-22974300D01*
X47157106Y-22974300D01*
X46737538Y-23057757D01*
X46342314Y-23221464D01*
X45986622Y-23459130D01*
X45684130Y-23761622D01*
X45446464Y-24117314D01*
X45282757Y-24512538D01*
X45199300Y-24932106D01*
X36334700Y-24932106D01*
X36251243Y-24512538D01*
X36087536Y-24117314D01*
X35849870Y-23761622D01*
X35547378Y-23459130D01*
X35191686Y-23221464D01*
X34796462Y-23057757D01*
X34376894Y-22974300D01*
X33949106Y-22974300D01*
X33529538Y-23057757D01*
X33134314Y-23221464D01*
X32778622Y-23459130D01*
X32476130Y-23761622D01*
X32238464Y-24117314D01*
X32074757Y-24512538D01*
X31991300Y-24932106D01*
X26631500Y-24932106D01*
X26631499Y-23590789D01*
X26660734Y-23292625D01*
X26737948Y-23036878D01*
X26863369Y-22800996D01*
X27032216Y-22593970D01*
X27238054Y-22423687D01*
X27473056Y-22296621D01*
X27728256Y-22217624D01*
X28024382Y-22186500D01*
X125507221Y-22186500D01*
X125805375Y-22215734D01*
%TA.AperFunction,Conductor*%
D29*
G36*
X125805375Y-22215734D02*
G01*
X126061122Y-22292948D01*
X126297004Y-22418369D01*
X126504030Y-22587216D01*
X126674313Y-22793054D01*
X126801379Y-23028056D01*
X126880376Y-23283256D01*
X126911501Y-23579391D01*
X126911500Y-82421839D01*
X126571446Y-82529711D01*
X126516474Y-82553272D01*
X126461159Y-82576071D01*
X126453053Y-82580454D01*
X126105530Y-82771506D01*
X126056174Y-82805301D01*
X126006347Y-82838406D01*
X125999247Y-82844280D01*
X125695451Y-83099195D01*
X125653605Y-83141928D01*
X125611153Y-83184084D01*
X125605329Y-83191225D01*
X125356832Y-83500294D01*
X125324106Y-83550305D01*
X125290627Y-83599939D01*
X125286301Y-83608076D01*
X125102568Y-83959522D01*
X125080156Y-84014994D01*
X125056978Y-84070132D01*
X125054315Y-84078954D01*
X124942345Y-84459396D01*
X124931145Y-84518112D01*
X124919107Y-84576754D01*
X124918208Y-84585925D01*
X124882266Y-84980870D01*
X124882684Y-85040686D01*
X124882266Y-85100503D01*
X124883165Y-85109674D01*
X124924618Y-85504077D01*
X124936648Y-85562683D01*
X124947855Y-85621435D01*
X124950519Y-85630257D01*
X125067790Y-86009099D01*
X125090974Y-86064250D01*
X125113380Y-86119708D01*
X125117706Y-86127845D01*
X125306328Y-86476693D01*
X125339783Y-86526292D01*
X125372532Y-86576338D01*
X125378355Y-86583477D01*
X125378358Y-86583481D01*
X125378362Y-86583485D01*
X125631144Y-86889047D01*
X125673561Y-86931169D01*
X125715443Y-86973938D01*
X125722544Y-86979811D01*
X126029869Y-87230460D01*
X126079678Y-87263552D01*
X126129050Y-87297359D01*
X126137156Y-87301741D01*
X126487313Y-87487923D01*
X126542605Y-87510712D01*
X126597601Y-87534284D01*
X126606405Y-87537009D01*
X126911500Y-87629122D01*
X126911501Y-95725711D01*
X126882266Y-96023876D01*
X126805051Y-96279624D01*
X126679631Y-96515504D01*
X126510789Y-96722525D01*
X126304946Y-96892813D01*
X126069944Y-97019879D01*
X125814740Y-97098877D01*
X125518618Y-97130000D01*
X28035779Y-97130000D01*
X27737624Y-97100766D01*
X27481876Y-97023551D01*
X27245996Y-96898131D01*
X27038975Y-96729289D01*
X26868687Y-96523446D01*
X26741621Y-96288444D01*
X26662623Y-96033240D01*
X26631658Y-95738623D01*
X26690968Y-87613330D01*
X26971942Y-87524200D01*
X27026914Y-87500639D01*
X27082229Y-87477840D01*
X27090335Y-87473457D01*
X27438029Y-87282312D01*
X27487392Y-87248512D01*
X27537211Y-87215413D01*
X27544312Y-87209539D01*
X27848256Y-86954499D01*
X27890100Y-86911769D01*
X27932555Y-86869610D01*
X27938379Y-86862469D01*
X28186997Y-86553251D01*
X28219767Y-86503173D01*
X28253202Y-86453604D01*
X28257525Y-86445472D01*
X28257528Y-86445468D01*
X28257530Y-86445464D01*
X28441350Y-86093848D01*
X28463747Y-86038413D01*
X28486940Y-85983241D01*
X28489603Y-85974419D01*
X28601628Y-85593792D01*
X28612834Y-85535044D01*
X28624866Y-85476434D01*
X28625765Y-85467263D01*
X28661725Y-85072125D01*
X28661307Y-85012308D01*
X28661725Y-84952491D01*
X28660826Y-84943320D01*
X28619353Y-84548724D01*
X28607323Y-84490118D01*
X28596116Y-84431366D01*
X28593452Y-84422544D01*
X28476124Y-84043518D01*
X28452946Y-83988380D01*
X28430534Y-83932908D01*
X28426208Y-83924772D01*
X28237494Y-83575754D01*
X28204039Y-83526155D01*
X28171290Y-83476109D01*
X28165466Y-83468968D01*
X27912556Y-83163251D01*
X27870120Y-83121111D01*
X27828257Y-83078361D01*
X27821156Y-83072487D01*
X27513681Y-82821716D01*
X27463888Y-82788634D01*
X27414499Y-82754816D01*
X27406392Y-82750434D01*
X27056065Y-82564161D01*
X27000762Y-82541367D01*
X26945780Y-82517801D01*
X26936977Y-82515077D01*
X26631501Y-82422847D01*
X26631501Y-62480000D01*
X89808606Y-62480000D01*
X89842105Y-62820119D01*
X89941314Y-63147168D01*
X90102421Y-63448578D01*
X90319234Y-63712766D01*
X90510994Y-63870139D01*
X90416236Y-64047419D01*
X90337040Y-64308493D01*
X90310299Y-64580000D01*
X90337040Y-64851507D01*
X90416236Y-65112581D01*
X90544843Y-65353188D01*
X90717919Y-65564081D01*
X90737316Y-65580000D01*
X90717919Y-65595919D01*
X90544843Y-65806812D01*
X90416236Y-66047419D01*
X90337040Y-66308493D01*
X90310299Y-66580000D01*
X90337040Y-66851507D01*
X90416236Y-67112581D01*
X90540940Y-67345886D01*
X90500815Y-67378815D01*
X90421463Y-67475506D01*
X90362498Y-67585820D01*
X90326188Y-67705518D01*
X90313928Y-67830000D01*
X90313928Y-69330000D01*
X90325008Y-69442496D01*
X90319234Y-69447234D01*
X90102421Y-69711422D01*
X89941314Y-70012832D01*
X89842105Y-70339881D01*
X89808606Y-70680000D01*
X89842105Y-71020119D01*
X89941314Y-71347168D01*
X90102421Y-71648578D01*
X90319234Y-71912766D01*
X90583422Y-72129579D01*
X90884832Y-72290686D01*
X91211881Y-72389895D01*
X91466775Y-72415000D01*
X92937225Y-72415000D01*
X93192119Y-72389895D01*
X93519168Y-72290686D01*
X93820578Y-72129579D01*
X94084766Y-71912766D01*
X94301579Y-71648578D01*
X94462686Y-71347168D01*
X94561895Y-71020119D01*
X94595394Y-70680000D01*
X94561895Y-70339881D01*
X94462686Y-70012832D01*
X94301579Y-69711422D01*
X94084766Y-69447234D01*
X94078992Y-69442496D01*
X94090072Y-69330000D01*
X94090072Y-67830000D01*
X94077812Y-67705518D01*
X94041502Y-67585820D01*
X93982537Y-67475506D01*
X93903185Y-67378815D01*
X93863060Y-67345886D01*
X93987764Y-67112581D01*
X94066960Y-66851507D01*
X94093701Y-66580000D01*
X94066960Y-66308493D01*
X93987764Y-66047419D01*
X93859157Y-65806812D01*
X93686081Y-65595919D01*
X93666684Y-65580000D01*
X93686081Y-65564081D01*
X93859157Y-65353188D01*
X93987764Y-65112581D01*
X94066960Y-64851507D01*
X94093701Y-64580000D01*
X94066960Y-64308493D01*
X93987764Y-64047419D01*
X93893006Y-63870139D01*
X94084766Y-63712766D01*
X94301579Y-63448578D01*
X94409859Y-63246000D01*
X98548314Y-63246000D01*
X98552001Y-63283433D01*
X98552000Y-66002577D01*
X98548314Y-66040000D01*
X98552000Y-66077423D01*
X98552000Y-66077425D01*
X98563026Y-66189377D01*
X98606598Y-66333014D01*
X98622947Y-66363600D01*
X98677355Y-66465392D01*
X98716983Y-66513678D01*
X98772578Y-66581422D01*
X98801654Y-66605284D01*
X99834320Y-67637951D01*
X99858178Y-67667022D01*
X99974208Y-67762245D01*
X100106585Y-67833002D01*
X100250222Y-67876574D01*
X100362174Y-67887600D01*
X100362176Y-67887600D01*
X100399599Y-67891286D01*
X100437022Y-67887600D01*
X101374156Y-67887600D01*
X101439956Y-67986077D01*
X101604879Y-68151000D01*
X101439956Y-68315923D01*
X101296593Y-68530482D01*
X101197842Y-68768887D01*
X101147500Y-69021976D01*
X101147500Y-69280024D01*
X101197842Y-69533113D01*
X101296593Y-69771518D01*
X101439956Y-69986077D01*
X101622423Y-70168544D01*
X101836982Y-70311907D01*
X102075387Y-70410658D01*
X102328476Y-70461000D01*
X102586524Y-70461000D01*
X102839613Y-70410658D01*
X103078018Y-70311907D01*
X103292577Y-70168544D01*
X103457500Y-70003621D01*
X103622423Y-70168544D01*
X103836982Y-70311907D01*
X104075387Y-70410658D01*
X104328476Y-70461000D01*
X104586524Y-70461000D01*
X104839613Y-70410658D01*
X105078018Y-70311907D01*
X105292577Y-70168544D01*
X105475044Y-69986077D01*
X105618407Y-69771518D01*
X105717158Y-69533113D01*
X105767500Y-69280024D01*
X105767500Y-69021976D01*
X105717158Y-68768887D01*
X105618407Y-68530482D01*
X105475044Y-68315923D01*
X105310121Y-68151000D01*
X105475044Y-67986077D01*
X105491628Y-67961258D01*
X107638721Y-70108352D01*
X107662578Y-70137422D01*
X107778608Y-70232645D01*
X107910985Y-70303402D01*
X108054622Y-70346974D01*
X108166574Y-70358000D01*
X108166576Y-70358000D01*
X108203999Y-70361686D01*
X108241422Y-70358000D01*
X112611577Y-70358000D01*
X112649000Y-70361686D01*
X112686423Y-70358000D01*
X112686426Y-70358000D01*
X112798378Y-70346974D01*
X112942015Y-70303402D01*
X113074392Y-70232645D01*
X113190422Y-70137422D01*
X113214284Y-70108346D01*
X113542347Y-69780283D01*
X113571422Y-69756422D01*
X113666645Y-69640392D01*
X113737402Y-69508015D01*
X113780974Y-69364378D01*
X113792000Y-69252426D01*
X113792000Y-69252424D01*
X113795686Y-69215001D01*
X113792000Y-69177578D01*
X113792000Y-67371630D01*
X114107631Y-67056000D01*
X114792747Y-67056000D01*
X114493262Y-67355485D01*
X114204893Y-67787059D01*
X114006261Y-68266599D01*
X113905000Y-68775675D01*
X113905000Y-69294725D01*
X114006261Y-69803801D01*
X114204893Y-70283341D01*
X114493262Y-70714915D01*
X114860285Y-71081938D01*
X115291859Y-71370307D01*
X115771399Y-71568939D01*
X116280475Y-71670200D01*
X116799525Y-71670200D01*
X117308601Y-71568939D01*
X117788141Y-71370307D01*
X118219715Y-71081938D01*
X118586738Y-70714915D01*
X118875107Y-70283341D01*
X119073739Y-69803801D01*
X119131440Y-69513714D01*
X120285000Y-69513714D01*
X120285000Y-69776686D01*
X120336304Y-70034605D01*
X120436939Y-70277559D01*
X120583038Y-70496213D01*
X120768987Y-70682162D01*
X120987641Y-70828261D01*
X121230595Y-70928896D01*
X121488514Y-70980200D01*
X121751486Y-70980200D01*
X122009405Y-70928896D01*
X122252359Y-70828261D01*
X122471013Y-70682162D01*
X122656962Y-70496213D01*
X122803061Y-70277559D01*
X122903696Y-70034605D01*
X122955000Y-69776686D01*
X122955000Y-69513714D01*
X122903696Y-69255795D01*
X122803061Y-69012841D01*
X122656962Y-68794187D01*
X122471013Y-68608238D01*
X122252359Y-68462139D01*
X122009405Y-68361504D01*
X121751486Y-68310200D01*
X121488514Y-68310200D01*
X121230595Y-68361504D01*
X120987641Y-68462139D01*
X120768987Y-68608238D01*
X120583038Y-68794187D01*
X120436939Y-69012841D01*
X120336304Y-69255795D01*
X120285000Y-69513714D01*
X119131440Y-69513714D01*
X119175000Y-69294725D01*
X119175000Y-68775675D01*
X119073739Y-68266599D01*
X119038731Y-68182081D01*
X119197641Y-68288261D01*
X119440595Y-68388896D01*
X119698514Y-68440200D01*
X119961486Y-68440200D01*
X120219405Y-68388896D01*
X120462359Y-68288261D01*
X120681013Y-68142162D01*
X120866962Y-67956213D01*
X121013061Y-67737559D01*
X121113696Y-67494605D01*
X121165000Y-67236686D01*
X121165000Y-66973714D01*
X121113696Y-66715795D01*
X121013061Y-66472841D01*
X120866962Y-66254187D01*
X120681013Y-66068238D01*
X120462359Y-65922139D01*
X120219405Y-65821504D01*
X119961486Y-65770200D01*
X119698514Y-65770200D01*
X119593516Y-65791086D01*
X119584084Y-65781653D01*
X119560222Y-65752578D01*
X119444192Y-65657355D01*
X119311815Y-65586598D01*
X119168178Y-65543026D01*
X119056226Y-65532000D01*
X119056223Y-65532000D01*
X119018800Y-65528314D01*
X118981377Y-65532000D01*
X113829423Y-65532000D01*
X113792000Y-65528314D01*
X113792000Y-64553422D01*
X113795686Y-64515999D01*
X113790123Y-64459514D01*
X113780974Y-64366622D01*
X113737402Y-64222985D01*
X113666645Y-64090608D01*
X113571422Y-63974578D01*
X113542352Y-63950721D01*
X111764484Y-62172854D01*
X111740622Y-62143778D01*
X111624592Y-62048555D01*
X111492215Y-61977798D01*
X111348578Y-61934226D01*
X111236626Y-61923200D01*
X111236623Y-61923200D01*
X111199200Y-61919514D01*
X111161777Y-61923200D01*
X111103844Y-61923200D01*
X110945394Y-61764750D01*
X110751308Y-61635066D01*
X110695638Y-61612007D01*
X110396059Y-61312428D01*
X110535652Y-61284661D01*
X110751308Y-61195334D01*
X110945394Y-61065650D01*
X111110450Y-60900594D01*
X111240134Y-60706508D01*
X111329461Y-60490852D01*
X111375000Y-60261912D01*
X111375000Y-60028488D01*
X111329461Y-59799548D01*
X111240134Y-59583892D01*
X111110450Y-59389806D01*
X110945394Y-59224750D01*
X110751308Y-59095066D01*
X110535652Y-59005739D01*
X110306712Y-58960200D01*
X110073288Y-58960200D01*
X109844348Y-59005739D01*
X109628692Y-59095066D01*
X109434606Y-59224750D01*
X109269550Y-59389806D01*
X109139866Y-59583892D01*
X109050539Y-59799548D01*
X109022772Y-59939142D01*
X108769284Y-59685654D01*
X108745422Y-59656578D01*
X108629392Y-59561355D01*
X108620050Y-59556362D01*
X108700134Y-59436508D01*
X108789461Y-59220852D01*
X108835000Y-58991912D01*
X108835000Y-58758488D01*
X108789461Y-58529548D01*
X108700134Y-58313892D01*
X108570450Y-58119806D01*
X108405394Y-57954750D01*
X108211308Y-57825066D01*
X107995652Y-57735739D01*
X107766712Y-57690200D01*
X107533288Y-57690200D01*
X107304348Y-57735739D01*
X107088692Y-57825066D01*
X106894606Y-57954750D01*
X106729550Y-58119806D01*
X106599866Y-58313892D01*
X106510539Y-58529548D01*
X106465000Y-58758488D01*
X106465000Y-58905370D01*
X105975284Y-58415654D01*
X105951422Y-58386578D01*
X105835392Y-58291355D01*
X105703015Y-58220598D01*
X105559378Y-58177026D01*
X105447426Y-58166000D01*
X105447423Y-58166000D01*
X105410000Y-58162314D01*
X105372577Y-58166000D01*
X103825711Y-58166000D01*
X103783774Y-58124063D01*
X103614256Y-58010795D01*
X103425898Y-57932774D01*
X103225939Y-57893000D01*
X103022061Y-57893000D01*
X102822102Y-57932774D01*
X102633744Y-58010795D01*
X102464226Y-58124063D01*
X102320063Y-58268226D01*
X102206795Y-58437744D01*
X102128774Y-58626102D01*
X102089000Y-58826061D01*
X102089000Y-59029939D01*
X102128774Y-59229898D01*
X102168405Y-59325576D01*
X102074578Y-59402578D01*
X102050721Y-59431648D01*
X98801649Y-62680721D01*
X98772579Y-62704578D01*
X98748722Y-62733648D01*
X98748721Y-62733649D01*
X98677355Y-62820608D01*
X98606599Y-62952985D01*
X98563027Y-63096622D01*
X98548314Y-63246000D01*
X94409859Y-63246000D01*
X94462686Y-63147168D01*
X94561895Y-62820119D01*
X94595394Y-62480000D01*
X94561895Y-62139881D01*
X94462686Y-61812832D01*
X94301579Y-61511422D01*
X94084766Y-61247234D01*
X93820578Y-61030421D01*
X93519168Y-60869314D01*
X93192119Y-60770105D01*
X92937225Y-60745000D01*
X91466775Y-60745000D01*
X91211881Y-60770105D01*
X90884832Y-60869314D01*
X90583422Y-61030421D01*
X90319234Y-61247234D01*
X90102421Y-61511422D01*
X89941314Y-61812832D01*
X89842105Y-62139881D01*
X89808606Y-62480000D01*
X26631501Y-62480000D01*
X26631501Y-56261045D01*
X29445000Y-56261045D01*
X29445000Y-56514955D01*
X29494535Y-56763987D01*
X29591703Y-56998570D01*
X29732768Y-57209690D01*
X29912310Y-57389232D01*
X30123430Y-57530297D01*
X30358013Y-57627465D01*
X30607045Y-57677000D01*
X30860955Y-57677000D01*
X31109987Y-57627465D01*
X31344570Y-57530297D01*
X31555690Y-57389232D01*
X31735232Y-57209690D01*
X31876297Y-56998570D01*
X31973465Y-56763987D01*
X32004000Y-56610476D01*
X32034535Y-56763987D01*
X32131703Y-56998570D01*
X32272768Y-57209690D01*
X32452310Y-57389232D01*
X32663430Y-57530297D01*
X32898013Y-57627465D01*
X33147045Y-57677000D01*
X33400955Y-57677000D01*
X33649987Y-57627465D01*
X33884570Y-57530297D01*
X34095690Y-57389232D01*
X34275232Y-57209690D01*
X34416297Y-56998570D01*
X34513465Y-56763987D01*
X34544000Y-56610476D01*
X34574535Y-56763987D01*
X34671703Y-56998570D01*
X34812768Y-57209690D01*
X34992310Y-57389232D01*
X35203430Y-57530297D01*
X35438013Y-57627465D01*
X35687045Y-57677000D01*
X35940955Y-57677000D01*
X36189987Y-57627465D01*
X36424570Y-57530297D01*
X36635690Y-57389232D01*
X36815232Y-57209690D01*
X36956297Y-56998570D01*
X37053465Y-56763987D01*
X37084000Y-56610476D01*
X37114535Y-56763987D01*
X37211703Y-56998570D01*
X37352768Y-57209690D01*
X37532310Y-57389232D01*
X37743430Y-57530297D01*
X37978013Y-57627465D01*
X38227045Y-57677000D01*
X38480955Y-57677000D01*
X38729987Y-57627465D01*
X38964570Y-57530297D01*
X39175690Y-57389232D01*
X39355232Y-57209690D01*
X39496297Y-56998570D01*
X39593465Y-56763987D01*
X39624000Y-56610476D01*
X39654535Y-56763987D01*
X39751703Y-56998570D01*
X39892768Y-57209690D01*
X40072310Y-57389232D01*
X40283430Y-57530297D01*
X40518013Y-57627465D01*
X40767045Y-57677000D01*
X41020955Y-57677000D01*
X41269987Y-57627465D01*
X41504570Y-57530297D01*
X41715690Y-57389232D01*
X41895232Y-57209690D01*
X42036297Y-56998570D01*
X42133465Y-56763987D01*
X42164000Y-56610476D01*
X42194535Y-56763987D01*
X42291703Y-56998570D01*
X42432768Y-57209690D01*
X42612310Y-57389232D01*
X42823430Y-57530297D01*
X43058013Y-57627465D01*
X43307045Y-57677000D01*
X43560955Y-57677000D01*
X43809987Y-57627465D01*
X44044570Y-57530297D01*
X44255690Y-57389232D01*
X44435232Y-57209690D01*
X44576297Y-56998570D01*
X44673465Y-56763987D01*
X44704000Y-56610476D01*
X44734535Y-56763987D01*
X44831703Y-56998570D01*
X44972768Y-57209690D01*
X45152310Y-57389232D01*
X45363430Y-57530297D01*
X45598013Y-57627465D01*
X45847045Y-57677000D01*
X46100955Y-57677000D01*
X46349987Y-57627465D01*
X46584570Y-57530297D01*
X46795690Y-57389232D01*
X46975232Y-57209690D01*
X47116297Y-56998570D01*
X47213465Y-56763987D01*
X47244000Y-56610476D01*
X47274535Y-56763987D01*
X47371703Y-56998570D01*
X47512768Y-57209690D01*
X47692310Y-57389232D01*
X47903430Y-57530297D01*
X48138013Y-57627465D01*
X48387045Y-57677000D01*
X48640955Y-57677000D01*
X48889987Y-57627465D01*
X49124570Y-57530297D01*
X49335690Y-57389232D01*
X49515232Y-57209690D01*
X49656297Y-56998570D01*
X49753465Y-56763987D01*
X49784000Y-56610476D01*
X49814535Y-56763987D01*
X49911703Y-56998570D01*
X50052768Y-57209690D01*
X50232310Y-57389232D01*
X50443430Y-57530297D01*
X50678013Y-57627465D01*
X50927045Y-57677000D01*
X51180955Y-57677000D01*
X51429987Y-57627465D01*
X51664570Y-57530297D01*
X51875690Y-57389232D01*
X52055232Y-57209690D01*
X52196297Y-56998570D01*
X52293465Y-56763987D01*
X52324000Y-56610476D01*
X52354535Y-56763987D01*
X52451703Y-56998570D01*
X52592768Y-57209690D01*
X52772310Y-57389232D01*
X52983430Y-57530297D01*
X53218013Y-57627465D01*
X53467045Y-57677000D01*
X53720955Y-57677000D01*
X53969987Y-57627465D01*
X54204570Y-57530297D01*
X54415690Y-57389232D01*
X54595232Y-57209690D01*
X54736297Y-56998570D01*
X54833465Y-56763987D01*
X54864000Y-56610476D01*
X54894535Y-56763987D01*
X54991703Y-56998570D01*
X55132768Y-57209690D01*
X55312310Y-57389232D01*
X55523430Y-57530297D01*
X55758013Y-57627465D01*
X56007045Y-57677000D01*
X56260955Y-57677000D01*
X56509987Y-57627465D01*
X56744570Y-57530297D01*
X56955690Y-57389232D01*
X57135232Y-57209690D01*
X57276297Y-56998570D01*
X57373465Y-56763987D01*
X57404000Y-56610476D01*
X57434535Y-56763987D01*
X57531703Y-56998570D01*
X57672768Y-57209690D01*
X57852310Y-57389232D01*
X58063430Y-57530297D01*
X58298013Y-57627465D01*
X58547045Y-57677000D01*
X58800955Y-57677000D01*
X59049987Y-57627465D01*
X59284570Y-57530297D01*
X59495690Y-57389232D01*
X59675232Y-57209690D01*
X59816297Y-56998570D01*
X59913465Y-56763987D01*
X59944000Y-56610476D01*
X59974535Y-56763987D01*
X60071703Y-56998570D01*
X60212768Y-57209690D01*
X60392310Y-57389232D01*
X60603430Y-57530297D01*
X60838013Y-57627465D01*
X61087045Y-57677000D01*
X61340955Y-57677000D01*
X61589987Y-57627465D01*
X61824570Y-57530297D01*
X62035690Y-57389232D01*
X62215232Y-57209690D01*
X62356297Y-56998570D01*
X62453465Y-56763987D01*
X62484000Y-56610476D01*
X62514535Y-56763987D01*
X62611703Y-56998570D01*
X62752768Y-57209690D01*
X62932310Y-57389232D01*
X63143430Y-57530297D01*
X63378013Y-57627465D01*
X63627045Y-57677000D01*
X63880955Y-57677000D01*
X64129987Y-57627465D01*
X64364570Y-57530297D01*
X64575690Y-57389232D01*
X64755232Y-57209690D01*
X64896297Y-56998570D01*
X64993465Y-56763987D01*
X65024000Y-56610476D01*
X65054535Y-56763987D01*
X65151703Y-56998570D01*
X65292768Y-57209690D01*
X65472310Y-57389232D01*
X65683430Y-57530297D01*
X65918013Y-57627465D01*
X66167045Y-57677000D01*
X66420955Y-57677000D01*
X66669987Y-57627465D01*
X66904570Y-57530297D01*
X67115690Y-57389232D01*
X67295232Y-57209690D01*
X67436297Y-56998570D01*
X67533465Y-56763987D01*
X67564000Y-56610476D01*
X67594535Y-56763987D01*
X67691703Y-56998570D01*
X67832768Y-57209690D01*
X68012310Y-57389232D01*
X68223430Y-57530297D01*
X68458013Y-57627465D01*
X68707045Y-57677000D01*
X68960955Y-57677000D01*
X69209987Y-57627465D01*
X69444570Y-57530297D01*
X69655690Y-57389232D01*
X69835232Y-57209690D01*
X69976297Y-56998570D01*
X70073465Y-56763987D01*
X70104000Y-56610476D01*
X70134535Y-56763987D01*
X70231703Y-56998570D01*
X70372768Y-57209690D01*
X70552310Y-57389232D01*
X70763430Y-57530297D01*
X70998013Y-57627465D01*
X71247045Y-57677000D01*
X71500955Y-57677000D01*
X71749987Y-57627465D01*
X71984570Y-57530297D01*
X72195690Y-57389232D01*
X72375232Y-57209690D01*
X72516297Y-56998570D01*
X72613465Y-56763987D01*
X72644000Y-56610476D01*
X72674535Y-56763987D01*
X72771703Y-56998570D01*
X72912768Y-57209690D01*
X73092310Y-57389232D01*
X73303430Y-57530297D01*
X73538013Y-57627465D01*
X73787045Y-57677000D01*
X74040955Y-57677000D01*
X74289987Y-57627465D01*
X74524570Y-57530297D01*
X74735690Y-57389232D01*
X74915232Y-57209690D01*
X75056297Y-56998570D01*
X75153465Y-56763987D01*
X75184000Y-56610476D01*
X75214535Y-56763987D01*
X75311703Y-56998570D01*
X75452768Y-57209690D01*
X75632310Y-57389232D01*
X75843430Y-57530297D01*
X76078013Y-57627465D01*
X76327045Y-57677000D01*
X76580955Y-57677000D01*
X76829987Y-57627465D01*
X77064570Y-57530297D01*
X77275690Y-57389232D01*
X77455232Y-57209690D01*
X77596297Y-56998570D01*
X77693465Y-56763987D01*
X77724000Y-56610476D01*
X77754535Y-56763987D01*
X77851703Y-56998570D01*
X77992768Y-57209690D01*
X78172310Y-57389232D01*
X78383430Y-57530297D01*
X78618013Y-57627465D01*
X78867045Y-57677000D01*
X79120955Y-57677000D01*
X79369987Y-57627465D01*
X79604570Y-57530297D01*
X79815690Y-57389232D01*
X79995232Y-57209690D01*
X80136297Y-56998570D01*
X80233465Y-56763987D01*
X80264000Y-56610476D01*
X80294535Y-56763987D01*
X80391703Y-56998570D01*
X80532768Y-57209690D01*
X80712310Y-57389232D01*
X80923430Y-57530297D01*
X81158013Y-57627465D01*
X81407045Y-57677000D01*
X81660955Y-57677000D01*
X81909987Y-57627465D01*
X82144570Y-57530297D01*
X82355690Y-57389232D01*
X82535232Y-57209690D01*
X82676297Y-56998570D01*
X82773465Y-56763987D01*
X82804000Y-56610476D01*
X82834535Y-56763987D01*
X82931703Y-56998570D01*
X83072768Y-57209690D01*
X83252310Y-57389232D01*
X83463430Y-57530297D01*
X83698013Y-57627465D01*
X83947045Y-57677000D01*
X84200955Y-57677000D01*
X84449987Y-57627465D01*
X84684570Y-57530297D01*
X84895690Y-57389232D01*
X85075232Y-57209690D01*
X85216297Y-56998570D01*
X85313465Y-56763987D01*
X85344000Y-56610476D01*
X85374535Y-56763987D01*
X85471703Y-56998570D01*
X85612768Y-57209690D01*
X85792310Y-57389232D01*
X86003430Y-57530297D01*
X86238013Y-57627465D01*
X86487045Y-57677000D01*
X86740955Y-57677000D01*
X86989987Y-57627465D01*
X87224570Y-57530297D01*
X87435690Y-57389232D01*
X87479247Y-57345675D01*
X113905000Y-57345675D01*
X113905000Y-57864725D01*
X114006261Y-58373801D01*
X114204893Y-58853341D01*
X114493262Y-59284915D01*
X114860285Y-59651938D01*
X115291859Y-59940307D01*
X115771399Y-60138939D01*
X116280475Y-60240200D01*
X116799525Y-60240200D01*
X117308601Y-60138939D01*
X117788141Y-59940307D01*
X118219715Y-59651938D01*
X118467939Y-59403714D01*
X120285000Y-59403714D01*
X120285000Y-59666686D01*
X120336304Y-59924605D01*
X120436939Y-60167559D01*
X120583038Y-60386213D01*
X120768987Y-60572162D01*
X120987641Y-60718261D01*
X121230595Y-60818896D01*
X121488514Y-60870200D01*
X121751486Y-60870200D01*
X122009405Y-60818896D01*
X122252359Y-60718261D01*
X122471013Y-60572162D01*
X122656962Y-60386213D01*
X122803061Y-60167559D01*
X122903696Y-59924605D01*
X122955000Y-59666686D01*
X122955000Y-59403714D01*
X122903696Y-59145795D01*
X122803061Y-58902841D01*
X122656962Y-58684187D01*
X122471013Y-58498238D01*
X122252359Y-58352139D01*
X122009405Y-58251504D01*
X121751486Y-58200200D01*
X121488514Y-58200200D01*
X121230595Y-58251504D01*
X120987641Y-58352139D01*
X120768987Y-58498238D01*
X120583038Y-58684187D01*
X120436939Y-58902841D01*
X120336304Y-59145795D01*
X120285000Y-59403714D01*
X118467939Y-59403714D01*
X118586738Y-59284915D01*
X118875107Y-58853341D01*
X119073739Y-58373801D01*
X119122607Y-58128125D01*
X119197641Y-58178261D01*
X119440595Y-58278896D01*
X119698514Y-58330200D01*
X119961486Y-58330200D01*
X120219405Y-58278896D01*
X120462359Y-58178261D01*
X120681013Y-58032162D01*
X120866962Y-57846213D01*
X121013061Y-57627559D01*
X121113696Y-57384605D01*
X121165000Y-57126686D01*
X121165000Y-56863714D01*
X121113696Y-56605795D01*
X121013061Y-56362841D01*
X120866962Y-56144187D01*
X120681013Y-55958238D01*
X120462359Y-55812139D01*
X120219405Y-55711504D01*
X119961486Y-55660200D01*
X119698514Y-55660200D01*
X119440595Y-55711504D01*
X119197641Y-55812139D01*
X118978987Y-55958238D01*
X118793038Y-56144187D01*
X118762954Y-56189211D01*
X118586738Y-55925485D01*
X118219715Y-55558462D01*
X117788141Y-55270093D01*
X117308601Y-55071461D01*
X116799525Y-54970200D01*
X116280475Y-54970200D01*
X115771399Y-55071461D01*
X115291859Y-55270093D01*
X114860285Y-55558462D01*
X114493262Y-55925485D01*
X114204893Y-56357059D01*
X114006261Y-56836599D01*
X113905000Y-57345675D01*
X87479247Y-57345675D01*
X87615232Y-57209690D01*
X87756297Y-56998570D01*
X87853465Y-56763987D01*
X87903000Y-56514955D01*
X87903000Y-56261045D01*
X87853465Y-56012013D01*
X87756297Y-55777430D01*
X87615232Y-55566310D01*
X87435690Y-55386768D01*
X87224570Y-55245703D01*
X86989987Y-55148535D01*
X86740955Y-55099000D01*
X86487045Y-55099000D01*
X86238013Y-55148535D01*
X86003430Y-55245703D01*
X85792310Y-55386768D01*
X85612768Y-55566310D01*
X85471703Y-55777430D01*
X85374535Y-56012013D01*
X85344000Y-56165524D01*
X85313465Y-56012013D01*
X85216297Y-55777430D01*
X85075232Y-55566310D01*
X84895690Y-55386768D01*
X84684570Y-55245703D01*
X84449987Y-55148535D01*
X84200955Y-55099000D01*
X83947045Y-55099000D01*
X83698013Y-55148535D01*
X83463430Y-55245703D01*
X83252310Y-55386768D01*
X83072768Y-55566310D01*
X82931703Y-55777430D01*
X82834535Y-56012013D01*
X82804000Y-56165524D01*
X82773465Y-56012013D01*
X82676297Y-55777430D01*
X82535232Y-55566310D01*
X82355690Y-55386768D01*
X82144570Y-55245703D01*
X81909987Y-55148535D01*
X81660955Y-55099000D01*
X81407045Y-55099000D01*
X81158013Y-55148535D01*
X80923430Y-55245703D01*
X80712310Y-55386768D01*
X80532768Y-55566310D01*
X80391703Y-55777430D01*
X80294535Y-56012013D01*
X80264000Y-56165524D01*
X80233465Y-56012013D01*
X80136297Y-55777430D01*
X79995232Y-55566310D01*
X79815690Y-55386768D01*
X79604570Y-55245703D01*
X79369987Y-55148535D01*
X79120955Y-55099000D01*
X78867045Y-55099000D01*
X78618013Y-55148535D01*
X78383430Y-55245703D01*
X78172310Y-55386768D01*
X77992768Y-55566310D01*
X77851703Y-55777430D01*
X77754535Y-56012013D01*
X77724000Y-56165524D01*
X77693465Y-56012013D01*
X77596297Y-55777430D01*
X77455232Y-55566310D01*
X77275690Y-55386768D01*
X77064570Y-55245703D01*
X76829987Y-55148535D01*
X76580955Y-55099000D01*
X76327045Y-55099000D01*
X76078013Y-55148535D01*
X75843430Y-55245703D01*
X75632310Y-55386768D01*
X75452768Y-55566310D01*
X75311703Y-55777430D01*
X75214535Y-56012013D01*
X75184000Y-56165524D01*
X75153465Y-56012013D01*
X75056297Y-55777430D01*
X74915232Y-55566310D01*
X74735690Y-55386768D01*
X74524570Y-55245703D01*
X74289987Y-55148535D01*
X74136476Y-55118000D01*
X74289987Y-55087465D01*
X74524570Y-54990297D01*
X74735690Y-54849232D01*
X74915232Y-54669690D01*
X75056297Y-54458570D01*
X75153465Y-54223987D01*
X75203000Y-53974955D01*
X75203000Y-53721045D01*
X75153465Y-53472013D01*
X75056297Y-53237430D01*
X74915232Y-53026310D01*
X74735690Y-52846768D01*
X74524570Y-52705703D01*
X74289987Y-52608535D01*
X74136476Y-52578000D01*
X74289987Y-52547465D01*
X74524570Y-52450297D01*
X74713588Y-52324000D01*
X90501098Y-52324000D01*
X90551000Y-52328915D01*
X90600902Y-52324000D01*
X90750171Y-52309298D01*
X90941687Y-52251202D01*
X91118190Y-52156860D01*
X91272896Y-52029896D01*
X91304712Y-51991128D01*
X101571550Y-41724290D01*
X106273600Y-41724290D01*
X106273600Y-42349710D01*
X106395614Y-42963113D01*
X106634952Y-43540926D01*
X106982417Y-44060944D01*
X107424656Y-44503183D01*
X107944674Y-44850648D01*
X108522487Y-45089986D01*
X109135890Y-45212000D01*
X109761310Y-45212000D01*
X110374713Y-45089986D01*
X110952526Y-44850648D01*
X111472544Y-44503183D01*
X111914783Y-44060944D01*
X112262248Y-43540926D01*
X112501586Y-42963113D01*
X112623600Y-42349710D01*
X112623600Y-41724290D01*
X112501586Y-41110887D01*
X112262248Y-40533074D01*
X111914783Y-40013056D01*
X111472544Y-39570817D01*
X110952526Y-39223352D01*
X110374713Y-38984014D01*
X109761310Y-38862000D01*
X109135890Y-38862000D01*
X108522487Y-38984014D01*
X107944674Y-39223352D01*
X107424656Y-39570817D01*
X106982417Y-40013056D01*
X106634952Y-40533074D01*
X106395614Y-41110887D01*
X106273600Y-41724290D01*
X101571550Y-41724290D01*
X108508432Y-34787408D01*
X110617000Y-34787408D01*
X110617000Y-35062592D01*
X110670686Y-35332490D01*
X110775995Y-35586727D01*
X110928880Y-35815535D01*
X111123465Y-36010120D01*
X111352273Y-36163005D01*
X111606510Y-36268314D01*
X111876408Y-36322000D01*
X112151592Y-36322000D01*
X112421490Y-36268314D01*
X112675727Y-36163005D01*
X112904535Y-36010120D01*
X113099120Y-35815535D01*
X113252005Y-35586727D01*
X113357314Y-35332490D01*
X113411000Y-35062592D01*
X113411000Y-34787408D01*
X113357314Y-34517510D01*
X113252005Y-34263273D01*
X113099120Y-34034465D01*
X112904535Y-33839880D01*
X112675727Y-33686995D01*
X112421490Y-33581686D01*
X112151592Y-33528000D01*
X111876408Y-33528000D01*
X111606510Y-33581686D01*
X111352273Y-33686995D01*
X111123465Y-33839880D01*
X110928880Y-34034465D01*
X110775995Y-34263273D01*
X110670686Y-34517510D01*
X110617000Y-34787408D01*
X108508432Y-34787408D01*
X112053841Y-31242000D01*
X112151592Y-31242000D01*
X112421490Y-31188314D01*
X112675727Y-31083005D01*
X112904535Y-30930120D01*
X113099120Y-30735535D01*
X113252005Y-30506727D01*
X113357314Y-30252490D01*
X113411000Y-29982592D01*
X113411000Y-29707408D01*
X113357314Y-29437510D01*
X113252005Y-29183273D01*
X113099120Y-28954465D01*
X112904535Y-28759880D01*
X112675727Y-28606995D01*
X112421490Y-28501686D01*
X112151592Y-28448000D01*
X111876408Y-28448000D01*
X111606510Y-28501686D01*
X111352273Y-28606995D01*
X111123465Y-28759880D01*
X110928880Y-28954465D01*
X110775995Y-29183273D01*
X110670686Y-29437510D01*
X110617000Y-29707408D01*
X110617000Y-29805159D01*
X90130160Y-50292000D01*
X74713588Y-50292000D01*
X74524570Y-50165703D01*
X74289987Y-50068535D01*
X74040955Y-50019000D01*
X73787045Y-50019000D01*
X73538013Y-50068535D01*
X73303430Y-50165703D01*
X73114412Y-50292000D01*
X68883902Y-50292000D01*
X68834000Y-50287085D01*
X68784098Y-50292000D01*
X42929946Y-50292000D01*
X41443603Y-48805657D01*
X41525403Y-48789386D01*
X41750887Y-48695988D01*
X41953816Y-48560394D01*
X42126394Y-48387816D01*
X42164000Y-48331535D01*
X42201606Y-48387816D01*
X42374184Y-48560394D01*
X42577113Y-48695988D01*
X42802597Y-48789386D01*
X43041969Y-48837000D01*
X43286031Y-48837000D01*
X43525403Y-48789386D01*
X43750887Y-48695988D01*
X43953816Y-48560394D01*
X44126394Y-48387816D01*
X44261988Y-48184887D01*
X44355386Y-47959403D01*
X44403000Y-47720031D01*
X44403000Y-47475969D01*
X44355386Y-47236597D01*
X44261988Y-47011113D01*
X44126394Y-46808184D01*
X43953816Y-46635606D01*
X43750887Y-46500012D01*
X43525403Y-46406614D01*
X43286031Y-46359000D01*
X43041969Y-46359000D01*
X42802597Y-46406614D01*
X42577113Y-46500012D01*
X42374184Y-46635606D01*
X42201606Y-46808184D01*
X42164000Y-46864465D01*
X42126394Y-46808184D01*
X41953816Y-46635606D01*
X41897535Y-46598000D01*
X41953816Y-46560394D01*
X42126394Y-46387816D01*
X42261988Y-46184887D01*
X42355386Y-45959403D01*
X42403000Y-45720031D01*
X42403000Y-45475969D01*
X42355386Y-45236597D01*
X42261988Y-45011113D01*
X42126394Y-44808184D01*
X41953816Y-44635606D01*
X41897535Y-44598000D01*
X41953816Y-44560394D01*
X42126394Y-44387816D01*
X42164000Y-44331535D01*
X42201606Y-44387816D01*
X42374184Y-44560394D01*
X42577113Y-44695988D01*
X42802597Y-44789386D01*
X43041969Y-44837000D01*
X43286031Y-44837000D01*
X43525403Y-44789386D01*
X43750887Y-44695988D01*
X43953816Y-44560394D01*
X44126394Y-44387816D01*
X44261988Y-44184887D01*
X44355386Y-43959403D01*
X44403000Y-43720031D01*
X44403000Y-43475969D01*
X44355386Y-43236597D01*
X44353475Y-43231984D01*
X44357826Y-43231556D01*
X44513434Y-43184353D01*
X44656842Y-43107699D01*
X44782541Y-43004541D01*
X44808398Y-42973034D01*
X45259034Y-42522398D01*
X45290541Y-42496541D01*
X45367563Y-42402689D01*
X45393698Y-42370844D01*
X45404994Y-42349710D01*
X45423461Y-42315163D01*
X45598013Y-42387465D01*
X45847045Y-42437000D01*
X46100955Y-42437000D01*
X46349987Y-42387465D01*
X46584570Y-42290297D01*
X46795690Y-42149232D01*
X46975232Y-41969690D01*
X47116297Y-41758570D01*
X47213465Y-41523987D01*
X47244000Y-41370476D01*
X47274535Y-41523987D01*
X47371703Y-41758570D01*
X47512768Y-41969690D01*
X47692310Y-42149232D01*
X47903430Y-42290297D01*
X48138013Y-42387465D01*
X48387045Y-42437000D01*
X48640955Y-42437000D01*
X48889987Y-42387465D01*
X49124570Y-42290297D01*
X49335690Y-42149232D01*
X49515232Y-41969690D01*
X49656297Y-41758570D01*
X49753465Y-41523987D01*
X49784000Y-41370476D01*
X49814535Y-41523987D01*
X49911703Y-41758570D01*
X50052768Y-41969690D01*
X50232310Y-42149232D01*
X50443430Y-42290297D01*
X50678013Y-42387465D01*
X50927045Y-42437000D01*
X51180955Y-42437000D01*
X51429987Y-42387465D01*
X51664570Y-42290297D01*
X51875690Y-42149232D01*
X52055232Y-41969690D01*
X52196297Y-41758570D01*
X52293465Y-41523987D01*
X52324000Y-41370476D01*
X52354535Y-41523987D01*
X52451703Y-41758570D01*
X52592768Y-41969690D01*
X52772310Y-42149232D01*
X52983430Y-42290297D01*
X53218013Y-42387465D01*
X53467045Y-42437000D01*
X53720955Y-42437000D01*
X53969987Y-42387465D01*
X54204570Y-42290297D01*
X54415690Y-42149232D01*
X54595232Y-41969690D01*
X54736297Y-41758570D01*
X54833465Y-41523987D01*
X54864000Y-41370476D01*
X54894535Y-41523987D01*
X54991703Y-41758570D01*
X55132768Y-41969690D01*
X55312310Y-42149232D01*
X55523430Y-42290297D01*
X55758013Y-42387465D01*
X56007045Y-42437000D01*
X56260955Y-42437000D01*
X56509987Y-42387465D01*
X56744570Y-42290297D01*
X56955690Y-42149232D01*
X57135232Y-41969690D01*
X57276297Y-41758570D01*
X57373465Y-41523987D01*
X57404000Y-41370476D01*
X57434535Y-41523987D01*
X57531703Y-41758570D01*
X57672768Y-41969690D01*
X57852310Y-42149232D01*
X58063430Y-42290297D01*
X58298013Y-42387465D01*
X58547045Y-42437000D01*
X58800955Y-42437000D01*
X59049987Y-42387465D01*
X59284570Y-42290297D01*
X59495690Y-42149232D01*
X59675232Y-41969690D01*
X59816297Y-41758570D01*
X59913465Y-41523987D01*
X59944000Y-41370476D01*
X59974535Y-41523987D01*
X60071703Y-41758570D01*
X60212768Y-41969690D01*
X60392310Y-42149232D01*
X60603430Y-42290297D01*
X60838013Y-42387465D01*
X61087045Y-42437000D01*
X61340955Y-42437000D01*
X61589987Y-42387465D01*
X61824570Y-42290297D01*
X62035690Y-42149232D01*
X62215232Y-41969690D01*
X62356297Y-41758570D01*
X62453465Y-41523987D01*
X62503000Y-41274955D01*
X62503000Y-41021045D01*
X62453465Y-40772013D01*
X62356297Y-40537430D01*
X62297544Y-40449500D01*
X65210456Y-40449500D01*
X65151703Y-40537430D01*
X65054535Y-40772013D01*
X65005000Y-41021045D01*
X65005000Y-41274955D01*
X65054535Y-41523987D01*
X65151703Y-41758570D01*
X65292768Y-41969690D01*
X65472310Y-42149232D01*
X65683430Y-42290297D01*
X65918013Y-42387465D01*
X66167045Y-42437000D01*
X66420955Y-42437000D01*
X66669987Y-42387465D01*
X66904570Y-42290297D01*
X67115690Y-42149232D01*
X67295232Y-41969690D01*
X67436297Y-41758570D01*
X67533465Y-41523987D01*
X67564000Y-41370476D01*
X67594535Y-41523987D01*
X67691703Y-41758570D01*
X67832768Y-41969690D01*
X68012310Y-42149232D01*
X68223430Y-42290297D01*
X68458013Y-42387465D01*
X68707045Y-42437000D01*
X68960955Y-42437000D01*
X69209987Y-42387465D01*
X69444570Y-42290297D01*
X69655690Y-42149232D01*
X69835232Y-41969690D01*
X69976297Y-41758570D01*
X70073465Y-41523987D01*
X70104000Y-41370476D01*
X70134535Y-41523987D01*
X70231703Y-41758570D01*
X70372768Y-41969690D01*
X70552310Y-42149232D01*
X70763430Y-42290297D01*
X70998013Y-42387465D01*
X71247045Y-42437000D01*
X71500955Y-42437000D01*
X71749987Y-42387465D01*
X71984570Y-42290297D01*
X72195690Y-42149232D01*
X72375232Y-41969690D01*
X72516297Y-41758570D01*
X72613465Y-41523987D01*
X72644000Y-41370476D01*
X72674535Y-41523987D01*
X72771703Y-41758570D01*
X72912768Y-41969690D01*
X73092310Y-42149232D01*
X73303430Y-42290297D01*
X73538013Y-42387465D01*
X73691524Y-42418000D01*
X73538013Y-42448535D01*
X73303430Y-42545703D01*
X73092310Y-42686768D01*
X72912768Y-42866310D01*
X72771703Y-43077430D01*
X72674535Y-43312013D01*
X72625000Y-43561045D01*
X72625000Y-43814955D01*
X72674535Y-44063987D01*
X72771703Y-44298570D01*
X72912768Y-44509690D01*
X73092310Y-44689232D01*
X73303430Y-44830297D01*
X73538013Y-44927465D01*
X73691524Y-44958000D01*
X73538013Y-44988535D01*
X73303430Y-45085703D01*
X73092310Y-45226768D01*
X72912768Y-45406310D01*
X72771703Y-45617430D01*
X72674535Y-45852013D01*
X72625000Y-46101045D01*
X72625000Y-46354955D01*
X72674535Y-46603987D01*
X72771703Y-46838570D01*
X72912768Y-47049690D01*
X73092310Y-47229232D01*
X73303430Y-47370297D01*
X73538013Y-47467465D01*
X73787045Y-47517000D01*
X74040955Y-47517000D01*
X74289987Y-47467465D01*
X74524570Y-47370297D01*
X74735690Y-47229232D01*
X74915232Y-47049690D01*
X75056297Y-46838570D01*
X75153465Y-46603987D01*
X75203000Y-46354955D01*
X75203000Y-46101045D01*
X75153465Y-45852013D01*
X75056297Y-45617430D01*
X74915232Y-45406310D01*
X74735690Y-45226768D01*
X74524570Y-45085703D01*
X74289987Y-44988535D01*
X74136476Y-44958000D01*
X74289987Y-44927465D01*
X74524570Y-44830297D01*
X74735690Y-44689232D01*
X74915232Y-44509690D01*
X75056297Y-44298570D01*
X75153465Y-44063987D01*
X75203000Y-43814955D01*
X75203000Y-43561045D01*
X75153465Y-43312013D01*
X75056297Y-43077430D01*
X74915232Y-42866310D01*
X74735690Y-42686768D01*
X74524570Y-42545703D01*
X74289987Y-42448535D01*
X74136476Y-42418000D01*
X74289987Y-42387465D01*
X74524570Y-42290297D01*
X74735690Y-42149232D01*
X74915232Y-41969690D01*
X75056297Y-41758570D01*
X75153465Y-41523987D01*
X75184000Y-41370476D01*
X75214535Y-41523987D01*
X75311703Y-41758570D01*
X75452768Y-41969690D01*
X75632310Y-42149232D01*
X75843430Y-42290297D01*
X76078013Y-42387465D01*
X76327045Y-42437000D01*
X76580955Y-42437000D01*
X76829987Y-42387465D01*
X77064570Y-42290297D01*
X77275690Y-42149232D01*
X77455232Y-41969690D01*
X77596297Y-41758570D01*
X77693465Y-41523987D01*
X77724000Y-41370476D01*
X77754535Y-41523987D01*
X77851703Y-41758570D01*
X77992768Y-41969690D01*
X78172310Y-42149232D01*
X78383430Y-42290297D01*
X78618013Y-42387465D01*
X78867045Y-42437000D01*
X79120955Y-42437000D01*
X79369987Y-42387465D01*
X79604570Y-42290297D01*
X79815690Y-42149232D01*
X79995232Y-41969690D01*
X80136297Y-41758570D01*
X80233465Y-41523987D01*
X80264000Y-41370476D01*
X80294535Y-41523987D01*
X80391703Y-41758570D01*
X80532768Y-41969690D01*
X80712310Y-42149232D01*
X80923430Y-42290297D01*
X81158013Y-42387465D01*
X81407045Y-42437000D01*
X81660955Y-42437000D01*
X81909987Y-42387465D01*
X82144570Y-42290297D01*
X82355690Y-42149232D01*
X82535232Y-41969690D01*
X82676297Y-41758570D01*
X82773465Y-41523987D01*
X82804000Y-41370476D01*
X82834535Y-41523987D01*
X82931703Y-41758570D01*
X83072768Y-41969690D01*
X83252310Y-42149232D01*
X83463430Y-42290297D01*
X83698013Y-42387465D01*
X83947045Y-42437000D01*
X84200955Y-42437000D01*
X84449987Y-42387465D01*
X84684570Y-42290297D01*
X84895690Y-42149232D01*
X85075232Y-41969690D01*
X85216297Y-41758570D01*
X85313465Y-41523987D01*
X85344000Y-41370476D01*
X85374535Y-41523987D01*
X85471703Y-41758570D01*
X85612768Y-41969690D01*
X85792310Y-42149232D01*
X86003430Y-42290297D01*
X86238013Y-42387465D01*
X86487045Y-42437000D01*
X86735568Y-42437000D01*
X89811611Y-45513045D01*
X89837459Y-45544541D01*
X89868955Y-45570389D01*
X89868958Y-45570392D01*
X89963157Y-45647699D01*
X90098480Y-45720031D01*
X90106566Y-45724353D01*
X90262174Y-45771556D01*
X90383447Y-45783500D01*
X90383449Y-45783500D01*
X90424000Y-45787494D01*
X90464550Y-45783500D01*
X92844497Y-45783500D01*
X92981744Y-45875205D01*
X93170102Y-45953226D01*
X93370061Y-45993000D01*
X93573939Y-45993000D01*
X93773898Y-45953226D01*
X93962256Y-45875205D01*
X94131774Y-45761937D01*
X94275937Y-45617774D01*
X94389205Y-45448256D01*
X94467226Y-45259898D01*
X94507000Y-45059939D01*
X94507000Y-44856061D01*
X94467226Y-44656102D01*
X94389205Y-44467744D01*
X94275937Y-44298226D01*
X94131774Y-44154063D01*
X93962256Y-44040795D01*
X93773898Y-43962774D01*
X93573939Y-43923000D01*
X93370061Y-43923000D01*
X93170102Y-43962774D01*
X92981744Y-44040795D01*
X92844497Y-44132500D01*
X90765934Y-44132500D01*
X87903000Y-41269568D01*
X87903000Y-41021045D01*
X87853465Y-40772013D01*
X87756297Y-40537430D01*
X87615232Y-40326310D01*
X87435690Y-40146768D01*
X87224570Y-40005703D01*
X86989987Y-39908535D01*
X86740955Y-39859000D01*
X86487045Y-39859000D01*
X86238013Y-39908535D01*
X86003430Y-40005703D01*
X85792310Y-40146768D01*
X85612768Y-40326310D01*
X85471703Y-40537430D01*
X85374535Y-40772013D01*
X85344000Y-40925524D01*
X85313465Y-40772013D01*
X85216297Y-40537430D01*
X85123992Y-40399284D01*
X85153434Y-40390353D01*
X85296842Y-40313699D01*
X85422541Y-40210541D01*
X85448398Y-40179034D01*
X90056006Y-35571428D01*
X90217898Y-35539226D01*
X90406256Y-35461205D01*
X90575774Y-35347937D01*
X90719937Y-35203774D01*
X90833205Y-35034256D01*
X90911226Y-34845898D01*
X90951000Y-34645939D01*
X90951000Y-34442061D01*
X90911226Y-34242102D01*
X90833205Y-34053744D01*
X90719937Y-33884226D01*
X90575774Y-33740063D01*
X90406256Y-33626795D01*
X90217898Y-33548774D01*
X90017939Y-33509000D01*
X89814061Y-33509000D01*
X89614102Y-33548774D01*
X89425744Y-33626795D01*
X89256226Y-33740063D01*
X89112063Y-33884226D01*
X88998795Y-34053744D01*
X88920774Y-34242102D01*
X88888572Y-34403994D01*
X84494068Y-38798500D01*
X80986932Y-38798500D01*
X84214006Y-35571428D01*
X84375898Y-35539226D01*
X84564256Y-35461205D01*
X84733774Y-35347937D01*
X84877937Y-35203774D01*
X84991205Y-35034256D01*
X85069226Y-34845898D01*
X85109000Y-34645939D01*
X85109000Y-34442061D01*
X85069226Y-34242102D01*
X84991205Y-34053744D01*
X84877937Y-33884226D01*
X84733774Y-33740063D01*
X84564256Y-33626795D01*
X84375898Y-33548774D01*
X84175939Y-33509000D01*
X83972061Y-33509000D01*
X83772102Y-33548774D01*
X83583744Y-33626795D01*
X83414226Y-33740063D01*
X83270063Y-33884226D01*
X83156795Y-34053744D01*
X83078774Y-34242102D01*
X83046572Y-34403994D01*
X79233078Y-38217490D01*
X45579560Y-38217490D01*
X45539010Y-38213496D01*
X45498459Y-38217490D01*
X45498457Y-38217490D01*
X45377184Y-38229434D01*
X45221576Y-38276637D01*
X45078167Y-38353291D01*
X44983968Y-38430598D01*
X44983965Y-38430601D01*
X44952469Y-38456449D01*
X44926621Y-38487945D01*
X43555567Y-39859000D01*
X43307045Y-39859000D01*
X43058013Y-39908535D01*
X42823430Y-40005703D01*
X42612310Y-40146768D01*
X42432768Y-40326310D01*
X42291703Y-40537430D01*
X42194535Y-40772013D01*
X42164000Y-40925524D01*
X42133465Y-40772013D01*
X42036297Y-40537430D01*
X41895232Y-40326310D01*
X41715690Y-40146768D01*
X41504570Y-40005703D01*
X41269987Y-39908535D01*
X41020955Y-39859000D01*
X40767045Y-39859000D01*
X40518013Y-39908535D01*
X40283430Y-40005703D01*
X40072310Y-40146768D01*
X39892768Y-40326310D01*
X39751703Y-40537430D01*
X39654535Y-40772013D01*
X39624000Y-40925524D01*
X39593465Y-40772013D01*
X39496297Y-40537430D01*
X39355232Y-40326310D01*
X39175690Y-40146768D01*
X38964570Y-40005703D01*
X38729987Y-39908535D01*
X38480955Y-39859000D01*
X38227045Y-39859000D01*
X37978013Y-39908535D01*
X37743430Y-40005703D01*
X37532310Y-40146768D01*
X37352768Y-40326310D01*
X37211703Y-40537430D01*
X37114535Y-40772013D01*
X37084000Y-40925524D01*
X37053465Y-40772013D01*
X36956297Y-40537430D01*
X36815232Y-40326310D01*
X36635690Y-40146768D01*
X36424570Y-40005703D01*
X36189987Y-39908535D01*
X35940955Y-39859000D01*
X35687045Y-39859000D01*
X35438013Y-39908535D01*
X35203430Y-40005703D01*
X34992310Y-40146768D01*
X34812768Y-40326310D01*
X34671703Y-40537430D01*
X34574535Y-40772013D01*
X34544000Y-40925524D01*
X34513465Y-40772013D01*
X34416297Y-40537430D01*
X34275232Y-40326310D01*
X34095690Y-40146768D01*
X33884570Y-40005703D01*
X33649987Y-39908535D01*
X33400955Y-39859000D01*
X33147045Y-39859000D01*
X32898013Y-39908535D01*
X32663430Y-40005703D01*
X32452310Y-40146768D01*
X32272768Y-40326310D01*
X32131703Y-40537430D01*
X32034535Y-40772013D01*
X31985000Y-41021045D01*
X31985000Y-41274955D01*
X32034535Y-41523987D01*
X32131703Y-41758570D01*
X32258000Y-41947588D01*
X32258000Y-42022992D01*
X32253085Y-42072895D01*
X32258000Y-42122796D01*
X32272702Y-42272065D01*
X32330798Y-42463581D01*
X32425140Y-42640085D01*
X32552104Y-42794791D01*
X32590872Y-42826607D01*
X41755397Y-51991133D01*
X41787209Y-52029896D01*
X41941915Y-52156860D01*
X42118416Y-52251201D01*
X42118418Y-52251202D01*
X42309934Y-52309298D01*
X42509105Y-52328915D01*
X42559007Y-52324000D01*
X66381159Y-52324000D01*
X63600974Y-55104186D01*
X63378013Y-55148535D01*
X63143430Y-55245703D01*
X62932310Y-55386768D01*
X62752768Y-55566310D01*
X62611703Y-55777430D01*
X62514535Y-56012013D01*
X62484000Y-56165524D01*
X62453465Y-56012013D01*
X62356297Y-55777430D01*
X62215232Y-55566310D01*
X62035690Y-55386768D01*
X61824570Y-55245703D01*
X61589987Y-55148535D01*
X61340955Y-55099000D01*
X61087045Y-55099000D01*
X60838013Y-55148535D01*
X60603430Y-55245703D01*
X60392310Y-55386768D01*
X60212768Y-55566310D01*
X60071703Y-55777430D01*
X59974535Y-56012013D01*
X59944000Y-56165524D01*
X59913465Y-56012013D01*
X59816297Y-55777430D01*
X59675232Y-55566310D01*
X59495690Y-55386768D01*
X59284570Y-55245703D01*
X59049987Y-55148535D01*
X58800955Y-55099000D01*
X58547045Y-55099000D01*
X58298013Y-55148535D01*
X58063430Y-55245703D01*
X57852310Y-55386768D01*
X57672768Y-55566310D01*
X57531703Y-55777430D01*
X57434535Y-56012013D01*
X57404000Y-56165524D01*
X57373465Y-56012013D01*
X57276297Y-55777430D01*
X57135232Y-55566310D01*
X56955690Y-55386768D01*
X56744570Y-55245703D01*
X56509987Y-55148535D01*
X56260955Y-55099000D01*
X56007045Y-55099000D01*
X55758013Y-55148535D01*
X55523430Y-55245703D01*
X55312310Y-55386768D01*
X55132768Y-55566310D01*
X54991703Y-55777430D01*
X54894535Y-56012013D01*
X54864000Y-56165524D01*
X54833465Y-56012013D01*
X54736297Y-55777430D01*
X54595232Y-55566310D01*
X54415690Y-55386768D01*
X54204570Y-55245703D01*
X53969987Y-55148535D01*
X53720955Y-55099000D01*
X53467045Y-55099000D01*
X53218013Y-55148535D01*
X52983430Y-55245703D01*
X52772310Y-55386768D01*
X52592768Y-55566310D01*
X52451703Y-55777430D01*
X52354535Y-56012013D01*
X52324000Y-56165524D01*
X52293465Y-56012013D01*
X52196297Y-55777430D01*
X52055232Y-55566310D01*
X51875690Y-55386768D01*
X51664570Y-55245703D01*
X51429987Y-55148535D01*
X51180955Y-55099000D01*
X50927045Y-55099000D01*
X50678013Y-55148535D01*
X50443430Y-55245703D01*
X50232310Y-55386768D01*
X50052768Y-55566310D01*
X49911703Y-55777430D01*
X49814535Y-56012013D01*
X49784000Y-56165524D01*
X49753465Y-56012013D01*
X49656297Y-55777430D01*
X49515232Y-55566310D01*
X49335690Y-55386768D01*
X49124570Y-55245703D01*
X48889987Y-55148535D01*
X48640955Y-55099000D01*
X48387045Y-55099000D01*
X48138013Y-55148535D01*
X47903430Y-55245703D01*
X47692310Y-55386768D01*
X47512768Y-55566310D01*
X47371703Y-55777430D01*
X47274535Y-56012013D01*
X47244000Y-56165524D01*
X47213465Y-56012013D01*
X47116297Y-55777430D01*
X46975232Y-55566310D01*
X46795690Y-55386768D01*
X46584570Y-55245703D01*
X46349987Y-55148535D01*
X46100955Y-55099000D01*
X45847045Y-55099000D01*
X45598013Y-55148535D01*
X45363430Y-55245703D01*
X45152310Y-55386768D01*
X44972768Y-55566310D01*
X44831703Y-55777430D01*
X44734535Y-56012013D01*
X44704000Y-56165524D01*
X44673465Y-56012013D01*
X44576297Y-55777430D01*
X44435232Y-55566310D01*
X44255690Y-55386768D01*
X44044570Y-55245703D01*
X43809987Y-55148535D01*
X43560955Y-55099000D01*
X43307045Y-55099000D01*
X43058013Y-55148535D01*
X42823430Y-55245703D01*
X42612310Y-55386768D01*
X42432768Y-55566310D01*
X42291703Y-55777430D01*
X42194535Y-56012013D01*
X42164000Y-56165524D01*
X42133465Y-56012013D01*
X42036297Y-55777430D01*
X41895232Y-55566310D01*
X41715690Y-55386768D01*
X41504570Y-55245703D01*
X41269987Y-55148535D01*
X41020955Y-55099000D01*
X40767045Y-55099000D01*
X40518013Y-55148535D01*
X40283430Y-55245703D01*
X40072310Y-55386768D01*
X39892768Y-55566310D01*
X39751703Y-55777430D01*
X39654535Y-56012013D01*
X39624000Y-56165524D01*
X39593465Y-56012013D01*
X39496297Y-55777430D01*
X39355232Y-55566310D01*
X39175690Y-55386768D01*
X38964570Y-55245703D01*
X38729987Y-55148535D01*
X38480955Y-55099000D01*
X38227045Y-55099000D01*
X37978013Y-55148535D01*
X37743430Y-55245703D01*
X37532310Y-55386768D01*
X37352768Y-55566310D01*
X37211703Y-55777430D01*
X37114535Y-56012013D01*
X37084000Y-56165524D01*
X37053465Y-56012013D01*
X36956297Y-55777430D01*
X36815232Y-55566310D01*
X36635690Y-55386768D01*
X36424570Y-55245703D01*
X36189987Y-55148535D01*
X35940955Y-55099000D01*
X35687045Y-55099000D01*
X35438013Y-55148535D01*
X35203430Y-55245703D01*
X34992310Y-55386768D01*
X34812768Y-55566310D01*
X34671703Y-55777430D01*
X34574535Y-56012013D01*
X34544000Y-56165524D01*
X34513465Y-56012013D01*
X34416297Y-55777430D01*
X34275232Y-55566310D01*
X34095690Y-55386768D01*
X33884570Y-55245703D01*
X33649987Y-55148535D01*
X33400955Y-55099000D01*
X33147045Y-55099000D01*
X32898013Y-55148535D01*
X32663430Y-55245703D01*
X32452310Y-55386768D01*
X32272768Y-55566310D01*
X32131703Y-55777430D01*
X32034535Y-56012013D01*
X32004000Y-56165524D01*
X31973465Y-56012013D01*
X31876297Y-55777430D01*
X31735232Y-55566310D01*
X31555690Y-55386768D01*
X31344570Y-55245703D01*
X31109987Y-55148535D01*
X30860955Y-55099000D01*
X30607045Y-55099000D01*
X30358013Y-55148535D01*
X30123430Y-55245703D01*
X29912310Y-55386768D01*
X29732768Y-55566310D01*
X29591703Y-55777430D01*
X29494535Y-56012013D01*
X29445000Y-56261045D01*
X26631501Y-56261045D01*
X26631501Y-53213507D01*
X33280000Y-53213507D01*
X33280000Y-53462493D01*
X33328575Y-53706695D01*
X33423858Y-53936729D01*
X33562187Y-54143753D01*
X33738247Y-54319813D01*
X33945271Y-54458142D01*
X34175305Y-54553425D01*
X34419507Y-54602000D01*
X34668493Y-54602000D01*
X34912695Y-54553425D01*
X35142729Y-54458142D01*
X35349753Y-54319813D01*
X35525813Y-54143753D01*
X35664142Y-53936729D01*
X35759425Y-53706695D01*
X35808000Y-53462493D01*
X35808000Y-53213507D01*
X35820000Y-53213507D01*
X35820000Y-53462493D01*
X35868575Y-53706695D01*
X35963858Y-53936729D01*
X36102187Y-54143753D01*
X36278247Y-54319813D01*
X36485271Y-54458142D01*
X36715305Y-54553425D01*
X36959507Y-54602000D01*
X37208493Y-54602000D01*
X37452695Y-54553425D01*
X37682729Y-54458142D01*
X37889753Y-54319813D01*
X38065813Y-54143753D01*
X38204142Y-53936729D01*
X38299425Y-53706695D01*
X38348000Y-53462493D01*
X38348000Y-53213507D01*
X38360000Y-53213507D01*
X38360000Y-53462493D01*
X38408575Y-53706695D01*
X38503858Y-53936729D01*
X38642187Y-54143753D01*
X38818247Y-54319813D01*
X39025271Y-54458142D01*
X39255305Y-54553425D01*
X39499507Y-54602000D01*
X39748493Y-54602000D01*
X39992695Y-54553425D01*
X40222729Y-54458142D01*
X40429753Y-54319813D01*
X40605813Y-54143753D01*
X40744142Y-53936729D01*
X40839425Y-53706695D01*
X40888000Y-53462493D01*
X40888000Y-53213507D01*
X40839425Y-52969305D01*
X40744142Y-52739271D01*
X40605813Y-52532247D01*
X40429753Y-52356187D01*
X40222729Y-52217858D01*
X39992695Y-52122575D01*
X39748493Y-52074000D01*
X39499507Y-52074000D01*
X39255305Y-52122575D01*
X39025271Y-52217858D01*
X38818247Y-52356187D01*
X38642187Y-52532247D01*
X38503858Y-52739271D01*
X38408575Y-52969305D01*
X38360000Y-53213507D01*
X38348000Y-53213507D01*
X38299425Y-52969305D01*
X38204142Y-52739271D01*
X38065813Y-52532247D01*
X37889753Y-52356187D01*
X37682729Y-52217858D01*
X37452695Y-52122575D01*
X37208493Y-52074000D01*
X36959507Y-52074000D01*
X36715305Y-52122575D01*
X36485271Y-52217858D01*
X36278247Y-52356187D01*
X36102187Y-52532247D01*
X35963858Y-52739271D01*
X35868575Y-52969305D01*
X35820000Y-53213507D01*
X35808000Y-53213507D01*
X35759425Y-52969305D01*
X35664142Y-52739271D01*
X35525813Y-52532247D01*
X35349753Y-52356187D01*
X35142729Y-52217858D01*
X34912695Y-52122575D01*
X34668493Y-52074000D01*
X34419507Y-52074000D01*
X34175305Y-52122575D01*
X33945271Y-52217858D01*
X33738247Y-52356187D01*
X33562187Y-52532247D01*
X33423858Y-52739271D01*
X33328575Y-52969305D01*
X33280000Y-53213507D01*
X26631501Y-53213507D01*
X26631501Y-43561045D01*
X29445000Y-43561045D01*
X29445000Y-43814955D01*
X29494535Y-44063987D01*
X29591703Y-44298570D01*
X29732768Y-44509690D01*
X29912310Y-44689232D01*
X30123430Y-44830297D01*
X30358013Y-44927465D01*
X30607045Y-44977000D01*
X30860955Y-44977000D01*
X31109987Y-44927465D01*
X31344570Y-44830297D01*
X31555690Y-44689232D01*
X31735232Y-44509690D01*
X31876297Y-44298570D01*
X31973465Y-44063987D01*
X32023000Y-43814955D01*
X32023000Y-43561045D01*
X31973465Y-43312013D01*
X31876297Y-43077430D01*
X31735232Y-42866310D01*
X31555690Y-42686768D01*
X31344570Y-42545703D01*
X31109987Y-42448535D01*
X30860955Y-42399000D01*
X30607045Y-42399000D01*
X30358013Y-42448535D01*
X30123430Y-42545703D01*
X29912310Y-42686768D01*
X29732768Y-42866310D01*
X29591703Y-43077430D01*
X29494535Y-43312013D01*
X29445000Y-43561045D01*
X26631501Y-43561045D01*
X26631500Y-41021045D01*
X26905000Y-41021045D01*
X26905000Y-41274955D01*
X26954535Y-41523987D01*
X27051703Y-41758570D01*
X27192768Y-41969690D01*
X27372310Y-42149232D01*
X27583430Y-42290297D01*
X27818013Y-42387465D01*
X28067045Y-42437000D01*
X28320955Y-42437000D01*
X28569987Y-42387465D01*
X28804570Y-42290297D01*
X29015690Y-42149232D01*
X29195232Y-41969690D01*
X29336297Y-41758570D01*
X29433465Y-41523987D01*
X29483000Y-41274955D01*
X29483000Y-41021045D01*
X29433465Y-40772013D01*
X29336297Y-40537430D01*
X29195232Y-40326310D01*
X29015690Y-40146768D01*
X28804570Y-40005703D01*
X28569987Y-39908535D01*
X28320955Y-39859000D01*
X28067045Y-39859000D01*
X27818013Y-39908535D01*
X27583430Y-40005703D01*
X27372310Y-40146768D01*
X27192768Y-40326310D01*
X27051703Y-40537430D01*
X26954535Y-40772013D01*
X26905000Y-41021045D01*
X26631500Y-41021045D01*
X26631500Y-29326408D01*
X29718000Y-29326408D01*
X29718000Y-29601592D01*
X29771686Y-29871490D01*
X29876995Y-30125727D01*
X30029880Y-30354535D01*
X30224465Y-30549120D01*
X30453273Y-30702005D01*
X30707510Y-30807314D01*
X30977408Y-30861000D01*
X31252592Y-30861000D01*
X31522490Y-30807314D01*
X31776727Y-30702005D01*
X32005535Y-30549120D01*
X32200120Y-30354535D01*
X32353005Y-30125727D01*
X32458314Y-29871490D01*
X32512000Y-29601592D01*
X32512000Y-29326408D01*
X35814000Y-29326408D01*
X35814000Y-29601592D01*
X35867686Y-29871490D01*
X35972995Y-30125727D01*
X36125880Y-30354535D01*
X36320465Y-30549120D01*
X36549273Y-30702005D01*
X36803510Y-30807314D01*
X37073408Y-30861000D01*
X37348592Y-30861000D01*
X37618490Y-30807314D01*
X37872727Y-30702005D01*
X38101535Y-30549120D01*
X38296120Y-30354535D01*
X38449005Y-30125727D01*
X38554314Y-29871490D01*
X38608000Y-29601592D01*
X38608000Y-29326408D01*
X42926000Y-29326408D01*
X42926000Y-29601592D01*
X42979686Y-29871490D01*
X43084995Y-30125727D01*
X43237880Y-30354535D01*
X43432465Y-30549120D01*
X43661273Y-30702005D01*
X43915510Y-30807314D01*
X44185408Y-30861000D01*
X44460592Y-30861000D01*
X44730490Y-30807314D01*
X44984727Y-30702005D01*
X45213535Y-30549120D01*
X45408120Y-30354535D01*
X45561005Y-30125727D01*
X45666314Y-29871490D01*
X45720000Y-29601592D01*
X45720000Y-29326408D01*
X49022000Y-29326408D01*
X49022000Y-29601592D01*
X49075686Y-29871490D01*
X49180995Y-30125727D01*
X49333880Y-30354535D01*
X49528465Y-30549120D01*
X49757273Y-30702005D01*
X50011510Y-30807314D01*
X50281408Y-30861000D01*
X50556592Y-30861000D01*
X50826490Y-30807314D01*
X51080727Y-30702005D01*
X51309535Y-30549120D01*
X51504120Y-30354535D01*
X51657005Y-30125727D01*
X51762314Y-29871490D01*
X51816000Y-29601592D01*
X51816000Y-29326408D01*
X56134000Y-29326408D01*
X56134000Y-29601592D01*
X56187686Y-29871490D01*
X56292995Y-30125727D01*
X56445880Y-30354535D01*
X56640465Y-30549120D01*
X56869273Y-30702005D01*
X57123510Y-30807314D01*
X57393408Y-30861000D01*
X57668592Y-30861000D01*
X57938490Y-30807314D01*
X58192727Y-30702005D01*
X58421535Y-30549120D01*
X58616120Y-30354535D01*
X58769005Y-30125727D01*
X58874314Y-29871490D01*
X58928000Y-29601592D01*
X58928000Y-29326408D01*
X62230000Y-29326408D01*
X62230000Y-29601592D01*
X62283686Y-29871490D01*
X62388995Y-30125727D01*
X62541880Y-30354535D01*
X62736465Y-30549120D01*
X62965273Y-30702005D01*
X63219510Y-30807314D01*
X63489408Y-30861000D01*
X63764592Y-30861000D01*
X64034490Y-30807314D01*
X64288727Y-30702005D01*
X64517535Y-30549120D01*
X64712120Y-30354535D01*
X64865005Y-30125727D01*
X64970314Y-29871490D01*
X65024000Y-29601592D01*
X65024000Y-29326408D01*
X69342000Y-29326408D01*
X69342000Y-29601592D01*
X69395686Y-29871490D01*
X69500995Y-30125727D01*
X69653880Y-30354535D01*
X69848465Y-30549120D01*
X70077273Y-30702005D01*
X70331510Y-30807314D01*
X70601408Y-30861000D01*
X70876592Y-30861000D01*
X71146490Y-30807314D01*
X71400727Y-30702005D01*
X71629535Y-30549120D01*
X71824120Y-30354535D01*
X71977005Y-30125727D01*
X72082314Y-29871490D01*
X72136000Y-29601592D01*
X72136000Y-29326408D01*
X75438000Y-29326408D01*
X75438000Y-29601592D01*
X75491686Y-29871490D01*
X75596995Y-30125727D01*
X75749880Y-30354535D01*
X75944465Y-30549120D01*
X76173273Y-30702005D01*
X76427510Y-30807314D01*
X76697408Y-30861000D01*
X76972592Y-30861000D01*
X77242490Y-30807314D01*
X77496727Y-30702005D01*
X77725535Y-30549120D01*
X77920120Y-30354535D01*
X78073005Y-30125727D01*
X78178314Y-29871490D01*
X78232000Y-29601592D01*
X78232000Y-29326408D01*
X82550000Y-29326408D01*
X82550000Y-29601592D01*
X82603686Y-29871490D01*
X82708995Y-30125727D01*
X82861880Y-30354535D01*
X83056465Y-30549120D01*
X83285273Y-30702005D01*
X83539510Y-30807314D01*
X83809408Y-30861000D01*
X84084592Y-30861000D01*
X84354490Y-30807314D01*
X84608727Y-30702005D01*
X84837535Y-30549120D01*
X85032120Y-30354535D01*
X85185005Y-30125727D01*
X85290314Y-29871490D01*
X85344000Y-29601592D01*
X85344000Y-29326408D01*
X88646000Y-29326408D01*
X88646000Y-29601592D01*
X88699686Y-29871490D01*
X88804995Y-30125727D01*
X88957880Y-30354535D01*
X89152465Y-30549120D01*
X89381273Y-30702005D01*
X89635510Y-30807314D01*
X89905408Y-30861000D01*
X90180592Y-30861000D01*
X90450490Y-30807314D01*
X90704727Y-30702005D01*
X90933535Y-30549120D01*
X91128120Y-30354535D01*
X91281005Y-30125727D01*
X91386314Y-29871490D01*
X91440000Y-29601592D01*
X91440000Y-29326408D01*
X95885000Y-29326408D01*
X95885000Y-29601592D01*
X95938686Y-29871490D01*
X96043995Y-30125727D01*
X96196880Y-30354535D01*
X96391465Y-30549120D01*
X96620273Y-30702005D01*
X96874510Y-30807314D01*
X97144408Y-30861000D01*
X97419592Y-30861000D01*
X97689490Y-30807314D01*
X97943727Y-30702005D01*
X98172535Y-30549120D01*
X98367120Y-30354535D01*
X98520005Y-30125727D01*
X98625314Y-29871490D01*
X98679000Y-29601592D01*
X98679000Y-29326408D01*
X101981000Y-29326408D01*
X101981000Y-29601592D01*
X102034686Y-29871490D01*
X102139995Y-30125727D01*
X102292880Y-30354535D01*
X102487465Y-30549120D01*
X102716273Y-30702005D01*
X102970510Y-30807314D01*
X103240408Y-30861000D01*
X103515592Y-30861000D01*
X103785490Y-30807314D01*
X104039727Y-30702005D01*
X104268535Y-30549120D01*
X104463120Y-30354535D01*
X104616005Y-30125727D01*
X104721314Y-29871490D01*
X104775000Y-29601592D01*
X104775000Y-29326408D01*
X104721314Y-29056510D01*
X104616005Y-28802273D01*
X104463120Y-28573465D01*
X104268535Y-28378880D01*
X104039727Y-28225995D01*
X103785490Y-28120686D01*
X103515592Y-28067000D01*
X103240408Y-28067000D01*
X102970510Y-28120686D01*
X102716273Y-28225995D01*
X102487465Y-28378880D01*
X102292880Y-28573465D01*
X102139995Y-28802273D01*
X102034686Y-29056510D01*
X101981000Y-29326408D01*
X98679000Y-29326408D01*
X98625314Y-29056510D01*
X98520005Y-28802273D01*
X98367120Y-28573465D01*
X98172535Y-28378880D01*
X97943727Y-28225995D01*
X97689490Y-28120686D01*
X97419592Y-28067000D01*
X97144408Y-28067000D01*
X96874510Y-28120686D01*
X96620273Y-28225995D01*
X96391465Y-28378880D01*
X96196880Y-28573465D01*
X96043995Y-28802273D01*
X95938686Y-29056510D01*
X95885000Y-29326408D01*
X91440000Y-29326408D01*
X91386314Y-29056510D01*
X91281005Y-28802273D01*
X91128120Y-28573465D01*
X90933535Y-28378880D01*
X90704727Y-28225995D01*
X90450490Y-28120686D01*
X90180592Y-28067000D01*
X89905408Y-28067000D01*
X89635510Y-28120686D01*
X89381273Y-28225995D01*
X89152465Y-28378880D01*
X88957880Y-28573465D01*
X88804995Y-28802273D01*
X88699686Y-29056510D01*
X88646000Y-29326408D01*
X85344000Y-29326408D01*
X85290314Y-29056510D01*
X85185005Y-28802273D01*
X85032120Y-28573465D01*
X84837535Y-28378880D01*
X84608727Y-28225995D01*
X84354490Y-28120686D01*
X84084592Y-28067000D01*
X83809408Y-28067000D01*
X83539510Y-28120686D01*
X83285273Y-28225995D01*
X83056465Y-28378880D01*
X82861880Y-28573465D01*
X82708995Y-28802273D01*
X82603686Y-29056510D01*
X82550000Y-29326408D01*
X78232000Y-29326408D01*
X78178314Y-29056510D01*
X78073005Y-28802273D01*
X77920120Y-28573465D01*
X77725535Y-28378880D01*
X77496727Y-28225995D01*
X77242490Y-28120686D01*
X76972592Y-28067000D01*
X76697408Y-28067000D01*
X76427510Y-28120686D01*
X76173273Y-28225995D01*
X75944465Y-28378880D01*
X75749880Y-28573465D01*
X75596995Y-28802273D01*
X75491686Y-29056510D01*
X75438000Y-29326408D01*
X72136000Y-29326408D01*
X72082314Y-29056510D01*
X71977005Y-28802273D01*
X71824120Y-28573465D01*
X71629535Y-28378880D01*
X71400727Y-28225995D01*
X71146490Y-28120686D01*
X70876592Y-28067000D01*
X70601408Y-28067000D01*
X70331510Y-28120686D01*
X70077273Y-28225995D01*
X69848465Y-28378880D01*
X69653880Y-28573465D01*
X69500995Y-28802273D01*
X69395686Y-29056510D01*
X69342000Y-29326408D01*
X65024000Y-29326408D01*
X64970314Y-29056510D01*
X64865005Y-28802273D01*
X64712120Y-28573465D01*
X64517535Y-28378880D01*
X64288727Y-28225995D01*
X64034490Y-28120686D01*
X63764592Y-28067000D01*
X63489408Y-28067000D01*
X63219510Y-28120686D01*
X62965273Y-28225995D01*
X62736465Y-28378880D01*
X62541880Y-28573465D01*
X62388995Y-28802273D01*
X62283686Y-29056510D01*
X62230000Y-29326408D01*
X58928000Y-29326408D01*
X58874314Y-29056510D01*
X58769005Y-28802273D01*
X58616120Y-28573465D01*
X58421535Y-28378880D01*
X58192727Y-28225995D01*
X57938490Y-28120686D01*
X57668592Y-28067000D01*
X57393408Y-28067000D01*
X57123510Y-28120686D01*
X56869273Y-28225995D01*
X56640465Y-28378880D01*
X56445880Y-28573465D01*
X56292995Y-28802273D01*
X56187686Y-29056510D01*
X56134000Y-29326408D01*
X51816000Y-29326408D01*
X51762314Y-29056510D01*
X51657005Y-28802273D01*
X51504120Y-28573465D01*
X51309535Y-28378880D01*
X51080727Y-28225995D01*
X50826490Y-28120686D01*
X50556592Y-28067000D01*
X50281408Y-28067000D01*
X50011510Y-28120686D01*
X49757273Y-28225995D01*
X49528465Y-28378880D01*
X49333880Y-28573465D01*
X49180995Y-28802273D01*
X49075686Y-29056510D01*
X49022000Y-29326408D01*
X45720000Y-29326408D01*
X45666314Y-29056510D01*
X45561005Y-28802273D01*
X45408120Y-28573465D01*
X45213535Y-28378880D01*
X44984727Y-28225995D01*
X44730490Y-28120686D01*
X44460592Y-28067000D01*
X44185408Y-28067000D01*
X43915510Y-28120686D01*
X43661273Y-28225995D01*
X43432465Y-28378880D01*
X43237880Y-28573465D01*
X43084995Y-28802273D01*
X42979686Y-29056510D01*
X42926000Y-29326408D01*
X38608000Y-29326408D01*
X38554314Y-29056510D01*
X38449005Y-28802273D01*
X38296120Y-28573465D01*
X38101535Y-28378880D01*
X37872727Y-28225995D01*
X37618490Y-28120686D01*
X37348592Y-28067000D01*
X37073408Y-28067000D01*
X36803510Y-28120686D01*
X36549273Y-28225995D01*
X36320465Y-28378880D01*
X36125880Y-28573465D01*
X35972995Y-28802273D01*
X35867686Y-29056510D01*
X35814000Y-29326408D01*
X32512000Y-29326408D01*
X32458314Y-29056510D01*
X32353005Y-28802273D01*
X32200120Y-28573465D01*
X32005535Y-28378880D01*
X31776727Y-28225995D01*
X31522490Y-28120686D01*
X31252592Y-28067000D01*
X30977408Y-28067000D01*
X30707510Y-28120686D01*
X30453273Y-28225995D01*
X30224465Y-28378880D01*
X30029880Y-28573465D01*
X29876995Y-28802273D01*
X29771686Y-29056510D01*
X29718000Y-29326408D01*
X26631500Y-29326408D01*
X26631500Y-24932106D01*
X31991300Y-24932106D01*
X31991300Y-25359894D01*
X32074757Y-25779462D01*
X32238464Y-26174686D01*
X32476130Y-26530378D01*
X32778622Y-26832870D01*
X33134314Y-27070536D01*
X33529538Y-27234243D01*
X33949106Y-27317700D01*
X34376894Y-27317700D01*
X34796462Y-27234243D01*
X35191686Y-27070536D01*
X35547378Y-26832870D01*
X35849870Y-26530378D01*
X36087536Y-26174686D01*
X36251243Y-25779462D01*
X36334700Y-25359894D01*
X36334700Y-24932106D01*
X45199300Y-24932106D01*
X45199300Y-25359894D01*
X45282757Y-25779462D01*
X45446464Y-26174686D01*
X45684130Y-26530378D01*
X45986622Y-26832870D01*
X46342314Y-27070536D01*
X46737538Y-27234243D01*
X47157106Y-27317700D01*
X47584894Y-27317700D01*
X48004462Y-27234243D01*
X48399686Y-27070536D01*
X48755378Y-26832870D01*
X49057870Y-26530378D01*
X49295536Y-26174686D01*
X49459243Y-25779462D01*
X49542700Y-25359894D01*
X49542700Y-24932106D01*
X58407300Y-24932106D01*
X58407300Y-25359894D01*
X58490757Y-25779462D01*
X58654464Y-26174686D01*
X58892130Y-26530378D01*
X59194622Y-26832870D01*
X59550314Y-27070536D01*
X59945538Y-27234243D01*
X60365106Y-27317700D01*
X60792894Y-27317700D01*
X61212462Y-27234243D01*
X61607686Y-27070536D01*
X61963378Y-26832870D01*
X62265870Y-26530378D01*
X62503536Y-26174686D01*
X62667243Y-25779462D01*
X62750700Y-25359894D01*
X62750700Y-24932106D01*
X71615300Y-24932106D01*
X71615300Y-25359894D01*
X71698757Y-25779462D01*
X71862464Y-26174686D01*
X72100130Y-26530378D01*
X72402622Y-26832870D01*
X72758314Y-27070536D01*
X73153538Y-27234243D01*
X73573106Y-27317700D01*
X74000894Y-27317700D01*
X74420462Y-27234243D01*
X74815686Y-27070536D01*
X75171378Y-26832870D01*
X75473870Y-26530378D01*
X75711536Y-26174686D01*
X75875243Y-25779462D01*
X75958700Y-25359894D01*
X75958700Y-24932106D01*
X84823300Y-24932106D01*
X84823300Y-25359894D01*
X84906757Y-25779462D01*
X85070464Y-26174686D01*
X85308130Y-26530378D01*
X85610622Y-26832870D01*
X85966314Y-27070536D01*
X86361538Y-27234243D01*
X86781106Y-27317700D01*
X87208894Y-27317700D01*
X87628462Y-27234243D01*
X88023686Y-27070536D01*
X88379378Y-26832870D01*
X88681870Y-26530378D01*
X88919536Y-26174686D01*
X89083243Y-25779462D01*
X89166700Y-25359894D01*
X89166700Y-24932106D01*
X98158300Y-24932106D01*
X98158300Y-25359894D01*
X98241757Y-25779462D01*
X98405464Y-26174686D01*
X98643130Y-26530378D01*
X98945622Y-26832870D01*
X99301314Y-27070536D01*
X99696538Y-27234243D01*
X100116106Y-27317700D01*
X100543894Y-27317700D01*
X100963462Y-27234243D01*
X101358686Y-27070536D01*
X101714378Y-26832870D01*
X102016870Y-26530378D01*
X102254536Y-26174686D01*
X102418243Y-25779462D01*
X102501700Y-25359894D01*
X102501700Y-24932106D01*
X102418243Y-24512538D01*
X102254536Y-24117314D01*
X102016870Y-23761622D01*
X101714378Y-23459130D01*
X101358686Y-23221464D01*
X100963462Y-23057757D01*
X100543894Y-22974300D01*
X100116106Y-22974300D01*
X99696538Y-23057757D01*
X99301314Y-23221464D01*
X98945622Y-23459130D01*
X98643130Y-23761622D01*
X98405464Y-24117314D01*
X98241757Y-24512538D01*
X98158300Y-24932106D01*
X89166700Y-24932106D01*
X89083243Y-24512538D01*
X88919536Y-24117314D01*
X88681870Y-23761622D01*
X88379378Y-23459130D01*
X88023686Y-23221464D01*
X87628462Y-23057757D01*
X87208894Y-22974300D01*
X86781106Y-22974300D01*
X86361538Y-23057757D01*
X85966314Y-23221464D01*
X85610622Y-23459130D01*
X85308130Y-23761622D01*
X85070464Y-24117314D01*
X84906757Y-24512538D01*
X84823300Y-24932106D01*
X75958700Y-24932106D01*
X75875243Y-24512538D01*
X75711536Y-24117314D01*
X75473870Y-23761622D01*
X75171378Y-23459130D01*
X74815686Y-23221464D01*
X74420462Y-23057757D01*
X74000894Y-22974300D01*
X73573106Y-22974300D01*
X73153538Y-23057757D01*
X72758314Y-23221464D01*
X72402622Y-23459130D01*
X72100130Y-23761622D01*
X71862464Y-24117314D01*
X71698757Y-24512538D01*
X71615300Y-24932106D01*
X62750700Y-24932106D01*
X62667243Y-24512538D01*
X62503536Y-24117314D01*
X62265870Y-23761622D01*
X61963378Y-23459130D01*
X61607686Y-23221464D01*
X61212462Y-23057757D01*
X60792894Y-22974300D01*
X60365106Y-22974300D01*
X59945538Y-23057757D01*
X59550314Y-23221464D01*
X59194622Y-23459130D01*
X58892130Y-23761622D01*
X58654464Y-24117314D01*
X58490757Y-24512538D01*
X58407300Y-24932106D01*
X49542700Y-24932106D01*
X49459243Y-24512538D01*
X49295536Y-24117314D01*
X49057870Y-23761622D01*
X48755378Y-23459130D01*
X48399686Y-23221464D01*
X48004462Y-23057757D01*
X47584894Y-22974300D01*
X47157106Y-22974300D01*
X46737538Y-23057757D01*
X46342314Y-23221464D01*
X45986622Y-23459130D01*
X45684130Y-23761622D01*
X45446464Y-24117314D01*
X45282757Y-24512538D01*
X45199300Y-24932106D01*
X36334700Y-24932106D01*
X36251243Y-24512538D01*
X36087536Y-24117314D01*
X35849870Y-23761622D01*
X35547378Y-23459130D01*
X35191686Y-23221464D01*
X34796462Y-23057757D01*
X34376894Y-22974300D01*
X33949106Y-22974300D01*
X33529538Y-23057757D01*
X33134314Y-23221464D01*
X32778622Y-23459130D01*
X32476130Y-23761622D01*
X32238464Y-24117314D01*
X32074757Y-24512538D01*
X31991300Y-24932106D01*
X26631500Y-24932106D01*
X26631499Y-23590789D01*
X26660734Y-23292625D01*
X26737948Y-23036878D01*
X26863369Y-22800996D01*
X27032216Y-22593970D01*
X27238054Y-22423687D01*
X27473056Y-22296621D01*
X27728256Y-22217624D01*
X28024382Y-22186500D01*
X125507221Y-22186500D01*
X125805375Y-22215734D01*
G37*
%TD.AperFunction*%
D28*
X106114720Y-60710351D02*
X106138578Y-60739422D01*
X106254608Y-60834645D01*
X106386985Y-60905402D01*
X106530622Y-60948974D01*
X106559312Y-60951800D01*
X106510539Y-61069548D01*
X106465000Y-61298488D01*
X106465000Y-61531912D01*
X106510539Y-61760852D01*
X106599866Y-61976508D01*
X106729550Y-62170594D01*
X106894606Y-62335650D01*
X107088692Y-62465334D01*
X107304348Y-62554661D01*
X107533288Y-62600200D01*
X107766712Y-62600200D01*
X107995652Y-62554661D01*
X108211308Y-62465334D01*
X108405394Y-62335650D01*
X108570450Y-62170594D01*
X108700134Y-61976508D01*
X108760102Y-61831732D01*
X109114207Y-62185838D01*
X109050539Y-62339548D01*
X109005000Y-62568488D01*
X109005000Y-62801912D01*
X109050539Y-63030852D01*
X109139866Y-63246508D01*
X109269550Y-63440594D01*
X109434606Y-63605650D01*
X109628692Y-63735334D01*
X109844348Y-63824661D01*
X110073288Y-63870200D01*
X110306712Y-63870200D01*
X110535652Y-63824661D01*
X110751308Y-63735334D01*
X110945394Y-63605650D01*
X110993707Y-63557337D01*
X112113398Y-64677029D01*
X112005592Y-64588555D01*
X111873215Y-64517798D01*
X111729578Y-64474226D01*
X111617626Y-64463200D01*
X111617623Y-64463200D01*
X111580200Y-64459514D01*
X111542777Y-64463200D01*
X111103844Y-64463200D01*
X110945394Y-64304750D01*
X110751308Y-64175066D01*
X110535652Y-64085739D01*
X110306712Y-64040200D01*
X110073288Y-64040200D01*
X109844348Y-64085739D01*
X109628692Y-64175066D01*
X109434606Y-64304750D01*
X109269550Y-64469806D01*
X109139866Y-64663892D01*
X109075915Y-64818285D01*
X108870884Y-64613254D01*
X108847022Y-64584178D01*
X108730992Y-64488955D01*
X108715072Y-64480445D01*
X108789461Y-64300852D01*
X108835000Y-64071912D01*
X108835000Y-63838488D01*
X108789461Y-63609548D01*
X108700134Y-63393892D01*
X108570450Y-63199806D01*
X108405394Y-63034750D01*
X108211308Y-62905066D01*
X107995652Y-62815739D01*
X107766712Y-62770200D01*
X107533288Y-62770200D01*
X107304348Y-62815739D01*
X107088692Y-62905066D01*
X106894606Y-63034750D01*
X106729550Y-63199806D01*
X106599866Y-63393892D01*
X106510539Y-63609548D01*
X106465000Y-63838488D01*
X106465000Y-64071912D01*
X106510539Y-64300852D01*
X106536530Y-64363600D01*
X105506901Y-64363600D01*
X105475044Y-64315923D01*
X105292577Y-64133456D01*
X105078018Y-63990093D01*
X104839613Y-63891342D01*
X104586524Y-63841000D01*
X104328476Y-63841000D01*
X104075387Y-63891342D01*
X103836982Y-63990093D01*
X103654987Y-64111697D01*
X103583685Y-64024815D01*
X103486994Y-63945463D01*
X103376680Y-63886498D01*
X103256982Y-63850188D01*
X103132500Y-63837928D01*
X101782500Y-63837928D01*
X101658018Y-63850188D01*
X101538320Y-63886498D01*
X101428006Y-63945463D01*
X101331315Y-64024815D01*
X101251963Y-64121506D01*
X101192998Y-64231820D01*
X101156688Y-64351518D01*
X101144428Y-64476000D01*
X101144428Y-65826000D01*
X101156688Y-65950482D01*
X101192998Y-66070180D01*
X101251963Y-66180494D01*
X101331315Y-66277185D01*
X101418197Y-66348487D01*
X101408099Y-66363600D01*
X100715231Y-66363600D01*
X100076000Y-65724370D01*
X100076000Y-63561630D01*
X102931631Y-60706000D01*
X103438289Y-60706000D01*
X103480226Y-60747937D01*
X103649744Y-60861205D01*
X103838102Y-60939226D01*
X104038061Y-60979000D01*
X104241939Y-60979000D01*
X104441898Y-60939226D01*
X104630256Y-60861205D01*
X104799774Y-60747937D01*
X104943937Y-60603774D01*
X105057205Y-60434256D01*
X105135226Y-60245898D01*
X105175000Y-60045939D01*
X105175000Y-59842061D01*
X105157264Y-59752894D01*
X106114720Y-60710351D01*
%TA.AperFunction,Conductor*%
D29*
G36*
X106114720Y-60710351D02*
G01*
X106138578Y-60739422D01*
X106254608Y-60834645D01*
X106386985Y-60905402D01*
X106530622Y-60948974D01*
X106559312Y-60951800D01*
X106510539Y-61069548D01*
X106465000Y-61298488D01*
X106465000Y-61531912D01*
X106510539Y-61760852D01*
X106599866Y-61976508D01*
X106729550Y-62170594D01*
X106894606Y-62335650D01*
X107088692Y-62465334D01*
X107304348Y-62554661D01*
X107533288Y-62600200D01*
X107766712Y-62600200D01*
X107995652Y-62554661D01*
X108211308Y-62465334D01*
X108405394Y-62335650D01*
X108570450Y-62170594D01*
X108700134Y-61976508D01*
X108760102Y-61831732D01*
X109114207Y-62185838D01*
X109050539Y-62339548D01*
X109005000Y-62568488D01*
X109005000Y-62801912D01*
X109050539Y-63030852D01*
X109139866Y-63246508D01*
X109269550Y-63440594D01*
X109434606Y-63605650D01*
X109628692Y-63735334D01*
X109844348Y-63824661D01*
X110073288Y-63870200D01*
X110306712Y-63870200D01*
X110535652Y-63824661D01*
X110751308Y-63735334D01*
X110945394Y-63605650D01*
X110993707Y-63557337D01*
X112113398Y-64677029D01*
X112005592Y-64588555D01*
X111873215Y-64517798D01*
X111729578Y-64474226D01*
X111617626Y-64463200D01*
X111617623Y-64463200D01*
X111580200Y-64459514D01*
X111542777Y-64463200D01*
X111103844Y-64463200D01*
X110945394Y-64304750D01*
X110751308Y-64175066D01*
X110535652Y-64085739D01*
X110306712Y-64040200D01*
X110073288Y-64040200D01*
X109844348Y-64085739D01*
X109628692Y-64175066D01*
X109434606Y-64304750D01*
X109269550Y-64469806D01*
X109139866Y-64663892D01*
X109075915Y-64818285D01*
X108870884Y-64613254D01*
X108847022Y-64584178D01*
X108730992Y-64488955D01*
X108715072Y-64480445D01*
X108789461Y-64300852D01*
X108835000Y-64071912D01*
X108835000Y-63838488D01*
X108789461Y-63609548D01*
X108700134Y-63393892D01*
X108570450Y-63199806D01*
X108405394Y-63034750D01*
X108211308Y-62905066D01*
X107995652Y-62815739D01*
X107766712Y-62770200D01*
X107533288Y-62770200D01*
X107304348Y-62815739D01*
X107088692Y-62905066D01*
X106894606Y-63034750D01*
X106729550Y-63199806D01*
X106599866Y-63393892D01*
X106510539Y-63609548D01*
X106465000Y-63838488D01*
X106465000Y-64071912D01*
X106510539Y-64300852D01*
X106536530Y-64363600D01*
X105506901Y-64363600D01*
X105475044Y-64315923D01*
X105292577Y-64133456D01*
X105078018Y-63990093D01*
X104839613Y-63891342D01*
X104586524Y-63841000D01*
X104328476Y-63841000D01*
X104075387Y-63891342D01*
X103836982Y-63990093D01*
X103654987Y-64111697D01*
X103583685Y-64024815D01*
X103486994Y-63945463D01*
X103376680Y-63886498D01*
X103256982Y-63850188D01*
X103132500Y-63837928D01*
X101782500Y-63837928D01*
X101658018Y-63850188D01*
X101538320Y-63886498D01*
X101428006Y-63945463D01*
X101331315Y-64024815D01*
X101251963Y-64121506D01*
X101192998Y-64231820D01*
X101156688Y-64351518D01*
X101144428Y-64476000D01*
X101144428Y-65826000D01*
X101156688Y-65950482D01*
X101192998Y-66070180D01*
X101251963Y-66180494D01*
X101331315Y-66277185D01*
X101418197Y-66348487D01*
X101408099Y-66363600D01*
X100715231Y-66363600D01*
X100076000Y-65724370D01*
X100076000Y-63561630D01*
X102931631Y-60706000D01*
X103438289Y-60706000D01*
X103480226Y-60747937D01*
X103649744Y-60861205D01*
X103838102Y-60939226D01*
X104038061Y-60979000D01*
X104241939Y-60979000D01*
X104441898Y-60939226D01*
X104630256Y-60861205D01*
X104799774Y-60747937D01*
X104943937Y-60603774D01*
X105057205Y-60434256D01*
X105135226Y-60245898D01*
X105175000Y-60045939D01*
X105175000Y-59842061D01*
X105157264Y-59752894D01*
X106114720Y-60710351D01*
G37*
%TD.AperFunction*%
D28*
X73303430Y-52450297D02*
X73538013Y-52547465D01*
X73691524Y-52578000D01*
X73538013Y-52608535D01*
X73303430Y-52705703D01*
X73092310Y-52846768D01*
X72912768Y-53026310D01*
X72771703Y-53237430D01*
X72674535Y-53472013D01*
X72625000Y-53721045D01*
X72625000Y-53974955D01*
X72674535Y-54223987D01*
X72771703Y-54458570D01*
X72912768Y-54669690D01*
X73092310Y-54849232D01*
X73303430Y-54990297D01*
X73538013Y-55087465D01*
X73691524Y-55118000D01*
X73538013Y-55148535D01*
X73303430Y-55245703D01*
X73092310Y-55386768D01*
X72912768Y-55566310D01*
X72771703Y-55777430D01*
X72674535Y-56012013D01*
X72644000Y-56165524D01*
X72613465Y-56012013D01*
X72516297Y-55777430D01*
X72375232Y-55566310D01*
X72195690Y-55386768D01*
X71984570Y-55245703D01*
X71749987Y-55148535D01*
X71500955Y-55099000D01*
X71247045Y-55099000D01*
X70998013Y-55148535D01*
X70763430Y-55245703D01*
X70552310Y-55386768D01*
X70372768Y-55566310D01*
X70231703Y-55777430D01*
X70134535Y-56012013D01*
X70104000Y-56165524D01*
X70073465Y-56012013D01*
X69976297Y-55777430D01*
X69835232Y-55566310D01*
X69655690Y-55386768D01*
X69444570Y-55245703D01*
X69209987Y-55148535D01*
X68960955Y-55099000D01*
X68707045Y-55099000D01*
X68458013Y-55148535D01*
X68223430Y-55245703D01*
X68012310Y-55386768D01*
X67832768Y-55566310D01*
X67691703Y-55777430D01*
X67594535Y-56012013D01*
X67564000Y-56165524D01*
X67533465Y-56012013D01*
X67436297Y-55777430D01*
X67295232Y-55566310D01*
X67115690Y-55386768D01*
X66904570Y-55245703D01*
X66669987Y-55148535D01*
X66470071Y-55108770D01*
X69254841Y-52324000D01*
X73114412Y-52324000D01*
X73303430Y-52450297D01*
%TA.AperFunction,Conductor*%
D29*
G36*
X73303430Y-52450297D02*
G01*
X73538013Y-52547465D01*
X73691524Y-52578000D01*
X73538013Y-52608535D01*
X73303430Y-52705703D01*
X73092310Y-52846768D01*
X72912768Y-53026310D01*
X72771703Y-53237430D01*
X72674535Y-53472013D01*
X72625000Y-53721045D01*
X72625000Y-53974955D01*
X72674535Y-54223987D01*
X72771703Y-54458570D01*
X72912768Y-54669690D01*
X73092310Y-54849232D01*
X73303430Y-54990297D01*
X73538013Y-55087465D01*
X73691524Y-55118000D01*
X73538013Y-55148535D01*
X73303430Y-55245703D01*
X73092310Y-55386768D01*
X72912768Y-55566310D01*
X72771703Y-55777430D01*
X72674535Y-56012013D01*
X72644000Y-56165524D01*
X72613465Y-56012013D01*
X72516297Y-55777430D01*
X72375232Y-55566310D01*
X72195690Y-55386768D01*
X71984570Y-55245703D01*
X71749987Y-55148535D01*
X71500955Y-55099000D01*
X71247045Y-55099000D01*
X70998013Y-55148535D01*
X70763430Y-55245703D01*
X70552310Y-55386768D01*
X70372768Y-55566310D01*
X70231703Y-55777430D01*
X70134535Y-56012013D01*
X70104000Y-56165524D01*
X70073465Y-56012013D01*
X69976297Y-55777430D01*
X69835232Y-55566310D01*
X69655690Y-55386768D01*
X69444570Y-55245703D01*
X69209987Y-55148535D01*
X68960955Y-55099000D01*
X68707045Y-55099000D01*
X68458013Y-55148535D01*
X68223430Y-55245703D01*
X68012310Y-55386768D01*
X67832768Y-55566310D01*
X67691703Y-55777430D01*
X67594535Y-56012013D01*
X67564000Y-56165524D01*
X67533465Y-56012013D01*
X67436297Y-55777430D01*
X67295232Y-55566310D01*
X67115690Y-55386768D01*
X66904570Y-55245703D01*
X66669987Y-55148535D01*
X66470071Y-55108770D01*
X69254841Y-52324000D01*
X73114412Y-52324000D01*
X73303430Y-52450297D01*
G37*
%TD.AperFunction*%
D28*
X39654535Y-41523987D02*
X39751703Y-41758570D01*
X39892768Y-41969690D01*
X40072310Y-42149232D01*
X40283430Y-42290297D01*
X40518013Y-42387465D01*
X40741504Y-42431920D01*
X40577113Y-42500012D01*
X40374184Y-42635606D01*
X40201606Y-42808184D01*
X40066012Y-43011113D01*
X39972614Y-43236597D01*
X39925000Y-43475969D01*
X39925000Y-43720031D01*
X39972614Y-43959403D01*
X40066012Y-44184887D01*
X40201606Y-44387816D01*
X40374184Y-44560394D01*
X40430465Y-44598000D01*
X40374184Y-44635606D01*
X40201606Y-44808184D01*
X40066012Y-45011113D01*
X39972614Y-45236597D01*
X39925000Y-45475969D01*
X39925000Y-45720031D01*
X39972614Y-45959403D01*
X40066012Y-46184887D01*
X40201606Y-46387816D01*
X40374184Y-46560394D01*
X40430465Y-46598000D01*
X40374184Y-46635606D01*
X40201606Y-46808184D01*
X40066012Y-47011113D01*
X39972614Y-47236597D01*
X39956343Y-47318397D01*
X34408373Y-41770428D01*
X34416297Y-41758570D01*
X34513465Y-41523987D01*
X34544000Y-41370476D01*
X34574535Y-41523987D01*
X34671703Y-41758570D01*
X34812768Y-41969690D01*
X34992310Y-42149232D01*
X35203430Y-42290297D01*
X35438013Y-42387465D01*
X35687045Y-42437000D01*
X35940955Y-42437000D01*
X36189987Y-42387465D01*
X36424570Y-42290297D01*
X36635690Y-42149232D01*
X36815232Y-41969690D01*
X36956297Y-41758570D01*
X37053465Y-41523987D01*
X37084000Y-41370476D01*
X37114535Y-41523987D01*
X37211703Y-41758570D01*
X37352768Y-41969690D01*
X37532310Y-42149232D01*
X37743430Y-42290297D01*
X37978013Y-42387465D01*
X38227045Y-42437000D01*
X38480955Y-42437000D01*
X38729987Y-42387465D01*
X38964570Y-42290297D01*
X39175690Y-42149232D01*
X39355232Y-41969690D01*
X39496297Y-41758570D01*
X39593465Y-41523987D01*
X39624000Y-41370476D01*
X39654535Y-41523987D01*
%TA.AperFunction,Conductor*%
D29*
G36*
X39654535Y-41523987D02*
G01*
X39751703Y-41758570D01*
X39892768Y-41969690D01*
X40072310Y-42149232D01*
X40283430Y-42290297D01*
X40518013Y-42387465D01*
X40741504Y-42431920D01*
X40577113Y-42500012D01*
X40374184Y-42635606D01*
X40201606Y-42808184D01*
X40066012Y-43011113D01*
X39972614Y-43236597D01*
X39925000Y-43475969D01*
X39925000Y-43720031D01*
X39972614Y-43959403D01*
X40066012Y-44184887D01*
X40201606Y-44387816D01*
X40374184Y-44560394D01*
X40430465Y-44598000D01*
X40374184Y-44635606D01*
X40201606Y-44808184D01*
X40066012Y-45011113D01*
X39972614Y-45236597D01*
X39925000Y-45475969D01*
X39925000Y-45720031D01*
X39972614Y-45959403D01*
X40066012Y-46184887D01*
X40201606Y-46387816D01*
X40374184Y-46560394D01*
X40430465Y-46598000D01*
X40374184Y-46635606D01*
X40201606Y-46808184D01*
X40066012Y-47011113D01*
X39972614Y-47236597D01*
X39956343Y-47318397D01*
X34408373Y-41770428D01*
X34416297Y-41758570D01*
X34513465Y-41523987D01*
X34544000Y-41370476D01*
X34574535Y-41523987D01*
X34671703Y-41758570D01*
X34812768Y-41969690D01*
X34992310Y-42149232D01*
X35203430Y-42290297D01*
X35438013Y-42387465D01*
X35687045Y-42437000D01*
X35940955Y-42437000D01*
X36189987Y-42387465D01*
X36424570Y-42290297D01*
X36635690Y-42149232D01*
X36815232Y-41969690D01*
X36956297Y-41758570D01*
X37053465Y-41523987D01*
X37084000Y-41370476D01*
X37114535Y-41523987D01*
X37211703Y-41758570D01*
X37352768Y-41969690D01*
X37532310Y-42149232D01*
X37743430Y-42290297D01*
X37978013Y-42387465D01*
X38227045Y-42437000D01*
X38480955Y-42437000D01*
X38729987Y-42387465D01*
X38964570Y-42290297D01*
X39175690Y-42149232D01*
X39355232Y-41969690D01*
X39496297Y-41758570D01*
X39593465Y-41523987D01*
X39624000Y-41370476D01*
X39654535Y-41523987D01*
G37*
%TD.AperFunction*%
%TD*%
M02*
