G04 #@! TF.GenerationSoftware,KiCad,Pcbnew,(5.1.4)-1*
G04 #@! TF.CreationDate,2020-11-15T18:48:45-06:00*
G04 #@! TF.ProjectId,DriveBoard_2021,44726976-6542-46f6-9172-645f32303231,rev?*
G04 #@! TF.SameCoordinates,Original*
G04 #@! TF.FileFunction,Soldermask,Bot*
G04 #@! TF.FilePolarity,Negative*
%FSLAX46Y46*%
G04 Gerber Fmt 4.6, Leading zero omitted, Abs format (unit mm)*
G04 Created by KiCad (PCBNEW (5.1.4)-1) date 2020-11-15 18:48:45*
%MOMM*%
%LPD*%
G04 APERTURE LIST*
%ADD10C,0.100000*%
G04 APERTURE END LIST*
D10*
G36*
X166704908Y-123586380D02*
G01*
X166871767Y-123619570D01*
X167343299Y-123814885D01*
X167586029Y-123977073D01*
X167767666Y-124098438D01*
X168128562Y-124459334D01*
X168249927Y-124640971D01*
X168412115Y-124883701D01*
X168607430Y-125355233D01*
X168707000Y-125855809D01*
X168707000Y-126366191D01*
X168607430Y-126866767D01*
X168412115Y-127338299D01*
X168249927Y-127581029D01*
X168128562Y-127762666D01*
X167767666Y-128123562D01*
X167586029Y-128244927D01*
X167343299Y-128407115D01*
X166871767Y-128602430D01*
X166704908Y-128635620D01*
X166371193Y-128702000D01*
X165860807Y-128702000D01*
X165527092Y-128635620D01*
X165360233Y-128602430D01*
X164888701Y-128407115D01*
X164645971Y-128244927D01*
X164464334Y-128123562D01*
X164103438Y-127762666D01*
X163982073Y-127581029D01*
X163819885Y-127338299D01*
X163624570Y-126866767D01*
X163525000Y-126366191D01*
X163525000Y-125855809D01*
X163624570Y-125355233D01*
X163819885Y-124883701D01*
X163982073Y-124640971D01*
X164103438Y-124459334D01*
X164464334Y-124098438D01*
X164645971Y-123977073D01*
X164888701Y-123814885D01*
X165360233Y-123619570D01*
X165527092Y-123586380D01*
X165860807Y-123520000D01*
X166371193Y-123520000D01*
X166704908Y-123586380D01*
X166704908Y-123586380D01*
G37*
G36*
X158063300Y-128644400D02*
G01*
X156970700Y-128644400D01*
X156970700Y-126764400D01*
X158063300Y-126764400D01*
X158063300Y-128644400D01*
X158063300Y-128644400D01*
G37*
G36*
X76783300Y-128644400D02*
G01*
X75690700Y-128644400D01*
X75690700Y-126764400D01*
X76783300Y-126764400D01*
X76783300Y-128644400D01*
X76783300Y-128644400D01*
G37*
G36*
X79323300Y-128644400D02*
G01*
X78230700Y-128644400D01*
X78230700Y-126764400D01*
X79323300Y-126764400D01*
X79323300Y-128644400D01*
X79323300Y-128644400D01*
G37*
G36*
X81863300Y-128644400D02*
G01*
X80770700Y-128644400D01*
X80770700Y-126764400D01*
X81863300Y-126764400D01*
X81863300Y-128644400D01*
X81863300Y-128644400D01*
G37*
G36*
X84403300Y-128644400D02*
G01*
X83310700Y-128644400D01*
X83310700Y-126764400D01*
X84403300Y-126764400D01*
X84403300Y-128644400D01*
X84403300Y-128644400D01*
G37*
G36*
X86943300Y-128644400D02*
G01*
X85850700Y-128644400D01*
X85850700Y-126764400D01*
X86943300Y-126764400D01*
X86943300Y-128644400D01*
X86943300Y-128644400D01*
G37*
G36*
X89483300Y-128644400D02*
G01*
X88390700Y-128644400D01*
X88390700Y-126764400D01*
X89483300Y-126764400D01*
X89483300Y-128644400D01*
X89483300Y-128644400D01*
G37*
G36*
X92023300Y-128644400D02*
G01*
X90930700Y-128644400D01*
X90930700Y-126764400D01*
X92023300Y-126764400D01*
X92023300Y-128644400D01*
X92023300Y-128644400D01*
G37*
G36*
X94563300Y-128644400D02*
G01*
X93470700Y-128644400D01*
X93470700Y-126764400D01*
X94563300Y-126764400D01*
X94563300Y-128644400D01*
X94563300Y-128644400D01*
G37*
G36*
X74243300Y-128644400D02*
G01*
X73150700Y-128644400D01*
X73150700Y-126764400D01*
X74243300Y-126764400D01*
X74243300Y-128644400D01*
X74243300Y-128644400D01*
G37*
G36*
X147903300Y-128644400D02*
G01*
X146810700Y-128644400D01*
X146810700Y-126764400D01*
X147903300Y-126764400D01*
X147903300Y-128644400D01*
X147903300Y-128644400D01*
G37*
G36*
X145363300Y-128644400D02*
G01*
X144270700Y-128644400D01*
X144270700Y-126764400D01*
X145363300Y-126764400D01*
X145363300Y-128644400D01*
X145363300Y-128644400D01*
G37*
G36*
X142823300Y-128644400D02*
G01*
X141730700Y-128644400D01*
X141730700Y-126764400D01*
X142823300Y-126764400D01*
X142823300Y-128644400D01*
X142823300Y-128644400D01*
G37*
G36*
X140283300Y-128644400D02*
G01*
X139190700Y-128644400D01*
X139190700Y-126764400D01*
X140283300Y-126764400D01*
X140283300Y-128644400D01*
X140283300Y-128644400D01*
G37*
G36*
X137743300Y-128644400D02*
G01*
X136650700Y-128644400D01*
X136650700Y-126764400D01*
X137743300Y-126764400D01*
X137743300Y-128644400D01*
X137743300Y-128644400D01*
G37*
G36*
X155523300Y-128644400D02*
G01*
X154430700Y-128644400D01*
X154430700Y-126764400D01*
X155523300Y-126764400D01*
X155523300Y-128644400D01*
X155523300Y-128644400D01*
G37*
G36*
X150443300Y-128644400D02*
G01*
X149350700Y-128644400D01*
X149350700Y-126764400D01*
X150443300Y-126764400D01*
X150443300Y-128644400D01*
X150443300Y-128644400D01*
G37*
G36*
X135203300Y-128644400D02*
G01*
X134110700Y-128644400D01*
X134110700Y-126764400D01*
X135203300Y-126764400D01*
X135203300Y-128644400D01*
X135203300Y-128644400D01*
G37*
G36*
X71703300Y-128644400D02*
G01*
X70610700Y-128644400D01*
X70610700Y-126764400D01*
X71703300Y-126764400D01*
X71703300Y-128644400D01*
X71703300Y-128644400D01*
G37*
G36*
X152983300Y-128644400D02*
G01*
X151890700Y-128644400D01*
X151890700Y-126764400D01*
X152983300Y-126764400D01*
X152983300Y-128644400D01*
X152983300Y-128644400D01*
G37*
G36*
X137743300Y-122751600D02*
G01*
X136650700Y-122751600D01*
X136650700Y-120871600D01*
X137743300Y-120871600D01*
X137743300Y-122751600D01*
X137743300Y-122751600D01*
G37*
G36*
X135203300Y-122751600D02*
G01*
X134110700Y-122751600D01*
X134110700Y-120871600D01*
X135203300Y-120871600D01*
X135203300Y-122751600D01*
X135203300Y-122751600D01*
G37*
G36*
X147903300Y-122751600D02*
G01*
X146810700Y-122751600D01*
X146810700Y-120871600D01*
X147903300Y-120871600D01*
X147903300Y-122751600D01*
X147903300Y-122751600D01*
G37*
G36*
X155523300Y-122751600D02*
G01*
X154430700Y-122751600D01*
X154430700Y-120871600D01*
X155523300Y-120871600D01*
X155523300Y-122751600D01*
X155523300Y-122751600D01*
G37*
G36*
X145363300Y-122751600D02*
G01*
X144270700Y-122751600D01*
X144270700Y-120871600D01*
X145363300Y-120871600D01*
X145363300Y-122751600D01*
X145363300Y-122751600D01*
G37*
G36*
X86943300Y-122751600D02*
G01*
X85850700Y-122751600D01*
X85850700Y-120871600D01*
X86943300Y-120871600D01*
X86943300Y-122751600D01*
X86943300Y-122751600D01*
G37*
G36*
X94563300Y-122751600D02*
G01*
X93470700Y-122751600D01*
X93470700Y-120871600D01*
X94563300Y-120871600D01*
X94563300Y-122751600D01*
X94563300Y-122751600D01*
G37*
G36*
X89483300Y-122751600D02*
G01*
X88390700Y-122751600D01*
X88390700Y-120871600D01*
X89483300Y-120871600D01*
X89483300Y-122751600D01*
X89483300Y-122751600D01*
G37*
G36*
X84403300Y-122751600D02*
G01*
X83310700Y-122751600D01*
X83310700Y-120871600D01*
X84403300Y-120871600D01*
X84403300Y-122751600D01*
X84403300Y-122751600D01*
G37*
G36*
X92023300Y-122751600D02*
G01*
X90930700Y-122751600D01*
X90930700Y-120871600D01*
X92023300Y-120871600D01*
X92023300Y-122751600D01*
X92023300Y-122751600D01*
G37*
G36*
X142823300Y-122751600D02*
G01*
X141730700Y-122751600D01*
X141730700Y-120871600D01*
X142823300Y-120871600D01*
X142823300Y-122751600D01*
X142823300Y-122751600D01*
G37*
G36*
X140283300Y-122751600D02*
G01*
X139190700Y-122751600D01*
X139190700Y-120871600D01*
X140283300Y-120871600D01*
X140283300Y-122751600D01*
X140283300Y-122751600D01*
G37*
G36*
X74243300Y-122751600D02*
G01*
X73150700Y-122751600D01*
X73150700Y-120871600D01*
X74243300Y-120871600D01*
X74243300Y-122751600D01*
X74243300Y-122751600D01*
G37*
G36*
X76783300Y-122751600D02*
G01*
X75690700Y-122751600D01*
X75690700Y-120871600D01*
X76783300Y-120871600D01*
X76783300Y-122751600D01*
X76783300Y-122751600D01*
G37*
G36*
X81863300Y-122751600D02*
G01*
X80770700Y-122751600D01*
X80770700Y-120871600D01*
X81863300Y-120871600D01*
X81863300Y-122751600D01*
X81863300Y-122751600D01*
G37*
G36*
X79323300Y-122751600D02*
G01*
X78230700Y-122751600D01*
X78230700Y-120871600D01*
X79323300Y-120871600D01*
X79323300Y-122751600D01*
X79323300Y-122751600D01*
G37*
G36*
X71703300Y-122751600D02*
G01*
X70610700Y-122751600D01*
X70610700Y-120871600D01*
X71703300Y-120871600D01*
X71703300Y-122751600D01*
X71703300Y-122751600D01*
G37*
G36*
X158063300Y-122751600D02*
G01*
X156970700Y-122751600D01*
X156970700Y-120871600D01*
X158063300Y-120871600D01*
X158063300Y-122751600D01*
X158063300Y-122751600D01*
G37*
G36*
X152983300Y-122751600D02*
G01*
X151890700Y-122751600D01*
X151890700Y-120871600D01*
X152983300Y-120871600D01*
X152983300Y-122751600D01*
X152983300Y-122751600D01*
G37*
G36*
X150443300Y-122751600D02*
G01*
X149350700Y-122751600D01*
X149350700Y-120871600D01*
X150443300Y-120871600D01*
X150443300Y-122751600D01*
X150443300Y-122751600D01*
G37*
G36*
X166704908Y-115712380D02*
G01*
X166871767Y-115745570D01*
X167343299Y-115940885D01*
X167586029Y-116103073D01*
X167767666Y-116224438D01*
X168128562Y-116585334D01*
X168249927Y-116766971D01*
X168412115Y-117009701D01*
X168607430Y-117481233D01*
X168707000Y-117981809D01*
X168707000Y-118492191D01*
X168607430Y-118992767D01*
X168412115Y-119464299D01*
X168249927Y-119707029D01*
X168128562Y-119888666D01*
X167767666Y-120249562D01*
X167586029Y-120370927D01*
X167343299Y-120533115D01*
X166871767Y-120728430D01*
X166704908Y-120761620D01*
X166371193Y-120828000D01*
X165860807Y-120828000D01*
X165527092Y-120761620D01*
X165360233Y-120728430D01*
X164888701Y-120533115D01*
X164645971Y-120370927D01*
X164464334Y-120249562D01*
X164103438Y-119888666D01*
X163982073Y-119707029D01*
X163819885Y-119464299D01*
X163624570Y-118992767D01*
X163525000Y-118492191D01*
X163525000Y-117981809D01*
X163624570Y-117481233D01*
X163819885Y-117009701D01*
X163982073Y-116766971D01*
X164103438Y-116585334D01*
X164464334Y-116224438D01*
X164645971Y-116103073D01*
X164888701Y-115940885D01*
X165360233Y-115745570D01*
X165527092Y-115712380D01*
X165860807Y-115646000D01*
X166371193Y-115646000D01*
X166704908Y-115712380D01*
X166704908Y-115712380D01*
G37*
G36*
X75702039Y-111322250D02*
G01*
X75891372Y-111400675D01*
X76025251Y-111456129D01*
X76316134Y-111650491D01*
X76563509Y-111897866D01*
X76757871Y-112188749D01*
X76757871Y-112188750D01*
X76891750Y-112511961D01*
X76960000Y-112855078D01*
X76960000Y-113204922D01*
X76891750Y-113548039D01*
X76813325Y-113737372D01*
X76757871Y-113871251D01*
X76563509Y-114162134D01*
X76316134Y-114409509D01*
X76025251Y-114603871D01*
X75891372Y-114659325D01*
X75702039Y-114737750D01*
X75358922Y-114806000D01*
X75009078Y-114806000D01*
X74665961Y-114737750D01*
X74476628Y-114659325D01*
X74342749Y-114603871D01*
X74051866Y-114409509D01*
X73804491Y-114162134D01*
X73610129Y-113871251D01*
X73554675Y-113737372D01*
X73476250Y-113548039D01*
X73408000Y-113204922D01*
X73408000Y-112855078D01*
X73476250Y-112511961D01*
X73610129Y-112188750D01*
X73610129Y-112188749D01*
X73804491Y-111897866D01*
X74051866Y-111650491D01*
X74342749Y-111456129D01*
X74476628Y-111400675D01*
X74665961Y-111322250D01*
X75009078Y-111254000D01*
X75358922Y-111254000D01*
X75702039Y-111322250D01*
X75702039Y-111322250D01*
G37*
G36*
X166704908Y-107838380D02*
G01*
X166871767Y-107871570D01*
X167343299Y-108066885D01*
X167586029Y-108229073D01*
X167767666Y-108350438D01*
X168128562Y-108711334D01*
X168249927Y-108892971D01*
X168412115Y-109135701D01*
X168607430Y-109607233D01*
X168607430Y-109607234D01*
X168685906Y-110001758D01*
X168707000Y-110107809D01*
X168707000Y-110618191D01*
X168607430Y-111118767D01*
X168412115Y-111590299D01*
X168249927Y-111833029D01*
X168128562Y-112014666D01*
X167767666Y-112375562D01*
X167610658Y-112480471D01*
X167343299Y-112659115D01*
X166871767Y-112854430D01*
X166704908Y-112887620D01*
X166371193Y-112954000D01*
X165860807Y-112954000D01*
X165527092Y-112887620D01*
X165360233Y-112854430D01*
X164888701Y-112659115D01*
X164621342Y-112480471D01*
X164464334Y-112375562D01*
X164103438Y-112014666D01*
X163982073Y-111833029D01*
X163819885Y-111590299D01*
X163624570Y-111118767D01*
X163525000Y-110618191D01*
X163525000Y-110107809D01*
X163546095Y-110001758D01*
X163624570Y-109607234D01*
X163624570Y-109607233D01*
X163819885Y-109135701D01*
X163982073Y-108892971D01*
X164103438Y-108711334D01*
X164464334Y-108350438D01*
X164645971Y-108229073D01*
X164888701Y-108066885D01*
X165360233Y-107871570D01*
X165527092Y-107838380D01*
X165860807Y-107772000D01*
X166371193Y-107772000D01*
X166704908Y-107838380D01*
X166704908Y-107838380D01*
G37*
G36*
X84057142Y-110978242D02*
G01*
X84205101Y-111039529D01*
X84338255Y-111128499D01*
X84451501Y-111241745D01*
X84540471Y-111374899D01*
X84601758Y-111522858D01*
X84633000Y-111679925D01*
X84633000Y-111840075D01*
X84601758Y-111997142D01*
X84540471Y-112145101D01*
X84451501Y-112278255D01*
X84338255Y-112391501D01*
X84205101Y-112480471D01*
X84057142Y-112541758D01*
X83900075Y-112573000D01*
X83739925Y-112573000D01*
X83582858Y-112541758D01*
X83434899Y-112480471D01*
X83301745Y-112391501D01*
X83188499Y-112278255D01*
X83099529Y-112145101D01*
X83038242Y-111997142D01*
X83007000Y-111840075D01*
X83007000Y-111679925D01*
X83038242Y-111522858D01*
X83099529Y-111374899D01*
X83188499Y-111241745D01*
X83301745Y-111128499D01*
X83434899Y-111039529D01*
X83582858Y-110978242D01*
X83739925Y-110947000D01*
X83900075Y-110947000D01*
X84057142Y-110978242D01*
X84057142Y-110978242D01*
G37*
G36*
X84057142Y-108438242D02*
G01*
X84205101Y-108499529D01*
X84338255Y-108588499D01*
X84451501Y-108701745D01*
X84540471Y-108834899D01*
X84601758Y-108982858D01*
X84633000Y-109139925D01*
X84633000Y-109300075D01*
X84601758Y-109457142D01*
X84540471Y-109605101D01*
X84451501Y-109738255D01*
X84338255Y-109851501D01*
X84205101Y-109940471D01*
X84057142Y-110001758D01*
X83900075Y-110033000D01*
X83739925Y-110033000D01*
X83582858Y-110001758D01*
X83434899Y-109940471D01*
X83301745Y-109851501D01*
X83188499Y-109738255D01*
X83099529Y-109605101D01*
X83038242Y-109457142D01*
X83007000Y-109300075D01*
X83007000Y-109139925D01*
X83038242Y-108982858D01*
X83099529Y-108834899D01*
X83188499Y-108701745D01*
X83301745Y-108588499D01*
X83434899Y-108499529D01*
X83582858Y-108438242D01*
X83739925Y-108407000D01*
X83900075Y-108407000D01*
X84057142Y-108438242D01*
X84057142Y-108438242D01*
G37*
G36*
X145669000Y-109855000D02*
G01*
X142367000Y-109855000D01*
X142367000Y-106553000D01*
X145669000Y-106553000D01*
X145669000Y-109855000D01*
X145669000Y-109855000D01*
G37*
G36*
X84057142Y-105898242D02*
G01*
X84205101Y-105959529D01*
X84338255Y-106048499D01*
X84451501Y-106161745D01*
X84540471Y-106294899D01*
X84601758Y-106442858D01*
X84633000Y-106599925D01*
X84633000Y-106760075D01*
X84601758Y-106917142D01*
X84540471Y-107065101D01*
X84451501Y-107198255D01*
X84338255Y-107311501D01*
X84205101Y-107400471D01*
X84057142Y-107461758D01*
X83900075Y-107493000D01*
X83739925Y-107493000D01*
X83582858Y-107461758D01*
X83434899Y-107400471D01*
X83301745Y-107311501D01*
X83188499Y-107198255D01*
X83099529Y-107065101D01*
X83038242Y-106917142D01*
X83007000Y-106760075D01*
X83007000Y-106599925D01*
X83038242Y-106442858D01*
X83099529Y-106294899D01*
X83188499Y-106161745D01*
X83301745Y-106048499D01*
X83434899Y-105959529D01*
X83582858Y-105898242D01*
X83739925Y-105867000D01*
X83900075Y-105867000D01*
X84057142Y-105898242D01*
X84057142Y-105898242D01*
G37*
G36*
X75702039Y-103702250D02*
G01*
X75891372Y-103780675D01*
X76025251Y-103836129D01*
X76316134Y-104030491D01*
X76563509Y-104277866D01*
X76757871Y-104568749D01*
X76757871Y-104568750D01*
X76891750Y-104891961D01*
X76960000Y-105235078D01*
X76960000Y-105584922D01*
X76891750Y-105928039D01*
X76841853Y-106048501D01*
X76757871Y-106251251D01*
X76563509Y-106542134D01*
X76316134Y-106789509D01*
X76025251Y-106983871D01*
X75891372Y-107039325D01*
X75702039Y-107117750D01*
X75358922Y-107186000D01*
X75009078Y-107186000D01*
X74665961Y-107117750D01*
X74476628Y-107039325D01*
X74342749Y-106983871D01*
X74051866Y-106789509D01*
X73804491Y-106542134D01*
X73610129Y-106251251D01*
X73526147Y-106048501D01*
X73476250Y-105928039D01*
X73408000Y-105584922D01*
X73408000Y-105235078D01*
X73476250Y-104891961D01*
X73610129Y-104568750D01*
X73610129Y-104568749D01*
X73804491Y-104277866D01*
X74051866Y-104030491D01*
X74342749Y-103836129D01*
X74476628Y-103780675D01*
X74665961Y-103702250D01*
X75009078Y-103634000D01*
X75358922Y-103634000D01*
X75702039Y-103702250D01*
X75702039Y-103702250D01*
G37*
G36*
X152953070Y-101338433D02*
G01*
X153218899Y-101448543D01*
X153218901Y-101448544D01*
X153458142Y-101608400D01*
X153661600Y-101811858D01*
X153812536Y-102037750D01*
X153821457Y-102051101D01*
X153931567Y-102316930D01*
X153987700Y-102599132D01*
X153987700Y-102886868D01*
X153931567Y-103169070D01*
X153821457Y-103434899D01*
X153821456Y-103434901D01*
X153661600Y-103674142D01*
X153458142Y-103877600D01*
X153218901Y-104037456D01*
X153218900Y-104037457D01*
X153218899Y-104037457D01*
X152953070Y-104147567D01*
X152670868Y-104203700D01*
X152383132Y-104203700D01*
X152100930Y-104147567D01*
X151835101Y-104037457D01*
X151835100Y-104037457D01*
X151835099Y-104037456D01*
X151595858Y-103877600D01*
X151392400Y-103674142D01*
X151232544Y-103434901D01*
X151232543Y-103434899D01*
X151122433Y-103169070D01*
X151066300Y-102886868D01*
X151066300Y-102599132D01*
X151122433Y-102316930D01*
X151232543Y-102051101D01*
X151241464Y-102037750D01*
X151392400Y-101811858D01*
X151595858Y-101608400D01*
X151835099Y-101448544D01*
X151835101Y-101448543D01*
X152100930Y-101338433D01*
X152383132Y-101282300D01*
X152670868Y-101282300D01*
X152953070Y-101338433D01*
X152953070Y-101338433D01*
G37*
G36*
X161716070Y-101338433D02*
G01*
X161981899Y-101448543D01*
X161981901Y-101448544D01*
X162221142Y-101608400D01*
X162424600Y-101811858D01*
X162575536Y-102037750D01*
X162584457Y-102051101D01*
X162694567Y-102316930D01*
X162750700Y-102599132D01*
X162750700Y-102886868D01*
X162694567Y-103169070D01*
X162584457Y-103434899D01*
X162584456Y-103434901D01*
X162424600Y-103674142D01*
X162221142Y-103877600D01*
X161981901Y-104037456D01*
X161981900Y-104037457D01*
X161981899Y-104037457D01*
X161716070Y-104147567D01*
X161433868Y-104203700D01*
X161146132Y-104203700D01*
X160863930Y-104147567D01*
X160598101Y-104037457D01*
X160598100Y-104037457D01*
X160598099Y-104037456D01*
X160358858Y-103877600D01*
X160155400Y-103674142D01*
X159995544Y-103434901D01*
X159995543Y-103434899D01*
X159885433Y-103169070D01*
X159829300Y-102886868D01*
X159829300Y-102599132D01*
X159885433Y-102316930D01*
X159995543Y-102051101D01*
X160004464Y-102037750D01*
X160155400Y-101811858D01*
X160358858Y-101608400D01*
X160598099Y-101448544D01*
X160598101Y-101448543D01*
X160863930Y-101338433D01*
X161146132Y-101282300D01*
X161433868Y-101282300D01*
X161716070Y-101338433D01*
X161716070Y-101338433D01*
G37*
G36*
X158287070Y-101338433D02*
G01*
X158552899Y-101448543D01*
X158552901Y-101448544D01*
X158792142Y-101608400D01*
X158995600Y-101811858D01*
X159146536Y-102037750D01*
X159155457Y-102051101D01*
X159265567Y-102316930D01*
X159321700Y-102599132D01*
X159321700Y-102886868D01*
X159265567Y-103169070D01*
X159155457Y-103434899D01*
X159155456Y-103434901D01*
X158995600Y-103674142D01*
X158792142Y-103877600D01*
X158552901Y-104037456D01*
X158552900Y-104037457D01*
X158552899Y-104037457D01*
X158287070Y-104147567D01*
X158004868Y-104203700D01*
X157717132Y-104203700D01*
X157434930Y-104147567D01*
X157169101Y-104037457D01*
X157169100Y-104037457D01*
X157169099Y-104037456D01*
X156929858Y-103877600D01*
X156726400Y-103674142D01*
X156566544Y-103434901D01*
X156566543Y-103434899D01*
X156456433Y-103169070D01*
X156400300Y-102886868D01*
X156400300Y-102599132D01*
X156456433Y-102316930D01*
X156566543Y-102051101D01*
X156575464Y-102037750D01*
X156726400Y-101811858D01*
X156929858Y-101608400D01*
X157169099Y-101448544D01*
X157169101Y-101448543D01*
X157434930Y-101338433D01*
X157717132Y-101282300D01*
X158004868Y-101282300D01*
X158287070Y-101338433D01*
X158287070Y-101338433D01*
G37*
G36*
X149524070Y-101338433D02*
G01*
X149789899Y-101448543D01*
X149789901Y-101448544D01*
X150029142Y-101608400D01*
X150232600Y-101811858D01*
X150383536Y-102037750D01*
X150392457Y-102051101D01*
X150502567Y-102316930D01*
X150558700Y-102599132D01*
X150558700Y-102886868D01*
X150502567Y-103169070D01*
X150392457Y-103434899D01*
X150392456Y-103434901D01*
X150232600Y-103674142D01*
X150029142Y-103877600D01*
X149789901Y-104037456D01*
X149789900Y-104037457D01*
X149789899Y-104037457D01*
X149524070Y-104147567D01*
X149241868Y-104203700D01*
X148954132Y-104203700D01*
X148671930Y-104147567D01*
X148406101Y-104037457D01*
X148406100Y-104037457D01*
X148406099Y-104037456D01*
X148166858Y-103877600D01*
X147963400Y-103674142D01*
X147803544Y-103434901D01*
X147803543Y-103434899D01*
X147693433Y-103169070D01*
X147637300Y-102886868D01*
X147637300Y-102599132D01*
X147693433Y-102316930D01*
X147803543Y-102051101D01*
X147812464Y-102037750D01*
X147963400Y-101811858D01*
X148166858Y-101608400D01*
X148406099Y-101448544D01*
X148406101Y-101448543D01*
X148671930Y-101338433D01*
X148954132Y-101282300D01*
X149241868Y-101282300D01*
X149524070Y-101338433D01*
X149524070Y-101338433D01*
G37*
G36*
X167381778Y-98428499D02*
G01*
X167608367Y-98473570D01*
X168079899Y-98668885D01*
X168310335Y-98822858D01*
X168504266Y-98952438D01*
X168865162Y-99313334D01*
X168953205Y-99445100D01*
X169148715Y-99737701D01*
X169344030Y-100209233D01*
X169344030Y-100209234D01*
X169443600Y-100709807D01*
X169443600Y-101220193D01*
X169420080Y-101338434D01*
X169344030Y-101720767D01*
X169148715Y-102192299D01*
X168986527Y-102435029D01*
X168865162Y-102616666D01*
X168504266Y-102977562D01*
X168322629Y-103098927D01*
X168079899Y-103261115D01*
X167608367Y-103456430D01*
X167441508Y-103489620D01*
X167107793Y-103556000D01*
X166597407Y-103556000D01*
X166263692Y-103489620D01*
X166096833Y-103456430D01*
X165625301Y-103261115D01*
X165382571Y-103098927D01*
X165200934Y-102977562D01*
X164840038Y-102616666D01*
X164718673Y-102435029D01*
X164556485Y-102192299D01*
X164361170Y-101720767D01*
X164285120Y-101338434D01*
X164261600Y-101220193D01*
X164261600Y-100709807D01*
X164361170Y-100209234D01*
X164361170Y-100209233D01*
X164556485Y-99737701D01*
X164751995Y-99445100D01*
X164840038Y-99313334D01*
X165200934Y-98952438D01*
X165394865Y-98822858D01*
X165625301Y-98668885D01*
X166096833Y-98473570D01*
X166323422Y-98428499D01*
X166597407Y-98374000D01*
X167107793Y-98374000D01*
X167381778Y-98428499D01*
X167381778Y-98428499D01*
G37*
G36*
X75702039Y-98622250D02*
G01*
X75891372Y-98700675D01*
X76025251Y-98756129D01*
X76316134Y-98950491D01*
X76563509Y-99197866D01*
X76757871Y-99488749D01*
X76757871Y-99488750D01*
X76891750Y-99811961D01*
X76960000Y-100155078D01*
X76960000Y-100504922D01*
X76891750Y-100848039D01*
X76813325Y-101037372D01*
X76757871Y-101171251D01*
X76563509Y-101462134D01*
X76316134Y-101709509D01*
X76025251Y-101903871D01*
X75891372Y-101959325D01*
X75702039Y-102037750D01*
X75358922Y-102106000D01*
X75009078Y-102106000D01*
X74665961Y-102037750D01*
X74476628Y-101959325D01*
X74342749Y-101903871D01*
X74051866Y-101709509D01*
X73804491Y-101462134D01*
X73610129Y-101171251D01*
X73554675Y-101037372D01*
X73476250Y-100848039D01*
X73408000Y-100504922D01*
X73408000Y-100155078D01*
X73476250Y-99811961D01*
X73610129Y-99488750D01*
X73610129Y-99488749D01*
X73804491Y-99197866D01*
X74051866Y-98950491D01*
X74342749Y-98756129D01*
X74476628Y-98700675D01*
X74665961Y-98622250D01*
X75009078Y-98554000D01*
X75358922Y-98554000D01*
X75702039Y-98622250D01*
X75702039Y-98622250D01*
G37*
G36*
X84057142Y-98278242D02*
G01*
X84205101Y-98339529D01*
X84338255Y-98428499D01*
X84451501Y-98541745D01*
X84540471Y-98674899D01*
X84601758Y-98822858D01*
X84633000Y-98979925D01*
X84633000Y-99140075D01*
X84601758Y-99297142D01*
X84540471Y-99445101D01*
X84451501Y-99578255D01*
X84338255Y-99691501D01*
X84205101Y-99780471D01*
X84057142Y-99841758D01*
X83900075Y-99873000D01*
X83739925Y-99873000D01*
X83582858Y-99841758D01*
X83434899Y-99780471D01*
X83301745Y-99691501D01*
X83188499Y-99578255D01*
X83099529Y-99445101D01*
X83038242Y-99297142D01*
X83007000Y-99140075D01*
X83007000Y-98979925D01*
X83038242Y-98822858D01*
X83099529Y-98674899D01*
X83188499Y-98541745D01*
X83301745Y-98428499D01*
X83434899Y-98339529D01*
X83582858Y-98278242D01*
X83739925Y-98247000D01*
X83900075Y-98247000D01*
X84057142Y-98278242D01*
X84057142Y-98278242D01*
G37*
G36*
X84057142Y-95738242D02*
G01*
X84205101Y-95799529D01*
X84338255Y-95888499D01*
X84451501Y-96001745D01*
X84540471Y-96134899D01*
X84601758Y-96282858D01*
X84633000Y-96439925D01*
X84633000Y-96600075D01*
X84601758Y-96757142D01*
X84540471Y-96905101D01*
X84451501Y-97038255D01*
X84338255Y-97151501D01*
X84205101Y-97240471D01*
X84057142Y-97301758D01*
X83900075Y-97333000D01*
X83739925Y-97333000D01*
X83582858Y-97301758D01*
X83434899Y-97240471D01*
X83301745Y-97151501D01*
X83188499Y-97038255D01*
X83099529Y-96905101D01*
X83038242Y-96757142D01*
X83007000Y-96600075D01*
X83007000Y-96439925D01*
X83038242Y-96282858D01*
X83099529Y-96134899D01*
X83188499Y-96001745D01*
X83301745Y-95888499D01*
X83434899Y-95799529D01*
X83582858Y-95738242D01*
X83739925Y-95707000D01*
X83900075Y-95707000D01*
X84057142Y-95738242D01*
X84057142Y-95738242D01*
G37*
G36*
X167441508Y-90566380D02*
G01*
X167608367Y-90599570D01*
X168079899Y-90794885D01*
X168322629Y-90957073D01*
X168504266Y-91078438D01*
X168865162Y-91439334D01*
X168986527Y-91620971D01*
X169148715Y-91863701D01*
X169341502Y-92329130D01*
X169344030Y-92335234D01*
X169443600Y-92835807D01*
X169443600Y-93346193D01*
X169377220Y-93679908D01*
X169344030Y-93846767D01*
X169148715Y-94318299D01*
X169028470Y-94498257D01*
X168865162Y-94742666D01*
X168504266Y-95103562D01*
X168322629Y-95224927D01*
X168079899Y-95387115D01*
X167608367Y-95582430D01*
X167441508Y-95615620D01*
X167107793Y-95682000D01*
X166597407Y-95682000D01*
X166263692Y-95615620D01*
X166096833Y-95582430D01*
X165625301Y-95387115D01*
X165382571Y-95224927D01*
X165200934Y-95103562D01*
X164840038Y-94742666D01*
X164676730Y-94498257D01*
X164556485Y-94318299D01*
X164361170Y-93846767D01*
X164327980Y-93679908D01*
X164261600Y-93346193D01*
X164261600Y-92835807D01*
X164361170Y-92335234D01*
X164363698Y-92329130D01*
X164556485Y-91863701D01*
X164718673Y-91620971D01*
X164840038Y-91439334D01*
X165200934Y-91078438D01*
X165382571Y-90957073D01*
X165625301Y-90794885D01*
X166096833Y-90599570D01*
X166263692Y-90566380D01*
X166597407Y-90500000D01*
X167107793Y-90500000D01*
X167441508Y-90566380D01*
X167441508Y-90566380D01*
G37*
G36*
X84057142Y-93198242D02*
G01*
X84205101Y-93259529D01*
X84338255Y-93348499D01*
X84451501Y-93461745D01*
X84540471Y-93594899D01*
X84601758Y-93742858D01*
X84633000Y-93899925D01*
X84633000Y-94060075D01*
X84601758Y-94217142D01*
X84540471Y-94365101D01*
X84451501Y-94498255D01*
X84338255Y-94611501D01*
X84205101Y-94700471D01*
X84057142Y-94761758D01*
X83900075Y-94793000D01*
X83739925Y-94793000D01*
X83582858Y-94761758D01*
X83434899Y-94700471D01*
X83301745Y-94611501D01*
X83188499Y-94498255D01*
X83099529Y-94365101D01*
X83038242Y-94217142D01*
X83007000Y-94060075D01*
X83007000Y-93899925D01*
X83038242Y-93742858D01*
X83099529Y-93594899D01*
X83188499Y-93461745D01*
X83301745Y-93348499D01*
X83434899Y-93259529D01*
X83582858Y-93198242D01*
X83739925Y-93167000D01*
X83900075Y-93167000D01*
X84057142Y-93198242D01*
X84057142Y-93198242D01*
G37*
G36*
X144341651Y-91336888D02*
G01*
X144652870Y-91431296D01*
X144939680Y-91584599D01*
X144939683Y-91584601D01*
X144939684Y-91584602D01*
X145191082Y-91790918D01*
X145397398Y-92042316D01*
X145397401Y-92042320D01*
X145550704Y-92329130D01*
X145645112Y-92640349D01*
X145676988Y-92964000D01*
X145645112Y-93287651D01*
X145550704Y-93598870D01*
X145397401Y-93885680D01*
X145397399Y-93885683D01*
X145397398Y-93885684D01*
X145191082Y-94137082D01*
X144970267Y-94318299D01*
X144939680Y-94343401D01*
X144652870Y-94496704D01*
X144652867Y-94496705D01*
X144594938Y-94514278D01*
X144341651Y-94591112D01*
X144099107Y-94615000D01*
X143936893Y-94615000D01*
X143694349Y-94591112D01*
X143441062Y-94514278D01*
X143383133Y-94496705D01*
X143383130Y-94496704D01*
X143096320Y-94343401D01*
X143065733Y-94318299D01*
X142844918Y-94137082D01*
X142638602Y-93885684D01*
X142638601Y-93885683D01*
X142638599Y-93885680D01*
X142485296Y-93598870D01*
X142390888Y-93287651D01*
X142359012Y-92964000D01*
X142390888Y-92640349D01*
X142485296Y-92329130D01*
X142638599Y-92042320D01*
X142638602Y-92042316D01*
X142844918Y-91790918D01*
X143096316Y-91584602D01*
X143096317Y-91584601D01*
X143096320Y-91584599D01*
X143383130Y-91431296D01*
X143694349Y-91336888D01*
X143936893Y-91313000D01*
X144099107Y-91313000D01*
X144341651Y-91336888D01*
X144341651Y-91336888D01*
G37*
G36*
X75702039Y-91002250D02*
G01*
X75885972Y-91078438D01*
X76025251Y-91136129D01*
X76316134Y-91330491D01*
X76563509Y-91577866D01*
X76757871Y-91868749D01*
X76757871Y-91868750D01*
X76891750Y-92191961D01*
X76960000Y-92535078D01*
X76960000Y-92884922D01*
X76891750Y-93228039D01*
X76841853Y-93348501D01*
X76757871Y-93551251D01*
X76563509Y-93842134D01*
X76316134Y-94089509D01*
X76025251Y-94283871D01*
X75942139Y-94318297D01*
X75702039Y-94417750D01*
X75358922Y-94486000D01*
X75009078Y-94486000D01*
X74665961Y-94417750D01*
X74425861Y-94318297D01*
X74342749Y-94283871D01*
X74051866Y-94089509D01*
X73804491Y-93842134D01*
X73610129Y-93551251D01*
X73526147Y-93348501D01*
X73476250Y-93228039D01*
X73408000Y-92884922D01*
X73408000Y-92535078D01*
X73476250Y-92191961D01*
X73610129Y-91868750D01*
X73610129Y-91868749D01*
X73804491Y-91577866D01*
X74051866Y-91330491D01*
X74342749Y-91136129D01*
X74482028Y-91078438D01*
X74665961Y-91002250D01*
X75009078Y-90934000D01*
X75358922Y-90934000D01*
X75702039Y-91002250D01*
X75702039Y-91002250D01*
G37*
G36*
X161716070Y-87876433D02*
G01*
X161981899Y-87986543D01*
X161981901Y-87986544D01*
X162221142Y-88146400D01*
X162424600Y-88349858D01*
X162424601Y-88349860D01*
X162584457Y-88589101D01*
X162694567Y-88854930D01*
X162750700Y-89137132D01*
X162750700Y-89424868D01*
X162694567Y-89707070D01*
X162584457Y-89972899D01*
X162584456Y-89972901D01*
X162424600Y-90212142D01*
X162221142Y-90415600D01*
X161981901Y-90575456D01*
X161981900Y-90575457D01*
X161981899Y-90575457D01*
X161716070Y-90685567D01*
X161433868Y-90741700D01*
X161146132Y-90741700D01*
X160863930Y-90685567D01*
X160598101Y-90575457D01*
X160598100Y-90575457D01*
X160598099Y-90575456D01*
X160358858Y-90415600D01*
X160155400Y-90212142D01*
X159995544Y-89972901D01*
X159995543Y-89972899D01*
X159885433Y-89707070D01*
X159829300Y-89424868D01*
X159829300Y-89137132D01*
X159885433Y-88854930D01*
X159995543Y-88589101D01*
X160155399Y-88349860D01*
X160155400Y-88349858D01*
X160358858Y-88146400D01*
X160598099Y-87986544D01*
X160598101Y-87986543D01*
X160863930Y-87876433D01*
X161146132Y-87820300D01*
X161433868Y-87820300D01*
X161716070Y-87876433D01*
X161716070Y-87876433D01*
G37*
G36*
X158287070Y-87876433D02*
G01*
X158552899Y-87986543D01*
X158552901Y-87986544D01*
X158792142Y-88146400D01*
X158995600Y-88349858D01*
X158995601Y-88349860D01*
X159155457Y-88589101D01*
X159265567Y-88854930D01*
X159321700Y-89137132D01*
X159321700Y-89424868D01*
X159265567Y-89707070D01*
X159155457Y-89972899D01*
X159155456Y-89972901D01*
X158995600Y-90212142D01*
X158792142Y-90415600D01*
X158552901Y-90575456D01*
X158552900Y-90575457D01*
X158552899Y-90575457D01*
X158287070Y-90685567D01*
X158004868Y-90741700D01*
X157717132Y-90741700D01*
X157434930Y-90685567D01*
X157169101Y-90575457D01*
X157169100Y-90575457D01*
X157169099Y-90575456D01*
X156929858Y-90415600D01*
X156726400Y-90212142D01*
X156566544Y-89972901D01*
X156566543Y-89972899D01*
X156456433Y-89707070D01*
X156400300Y-89424868D01*
X156400300Y-89137132D01*
X156456433Y-88854930D01*
X156566543Y-88589101D01*
X156726399Y-88349860D01*
X156726400Y-88349858D01*
X156929858Y-88146400D01*
X157169099Y-87986544D01*
X157169101Y-87986543D01*
X157434930Y-87876433D01*
X157717132Y-87820300D01*
X158004868Y-87820300D01*
X158287070Y-87876433D01*
X158287070Y-87876433D01*
G37*
G36*
X152953070Y-87876433D02*
G01*
X153218899Y-87986543D01*
X153218901Y-87986544D01*
X153458142Y-88146400D01*
X153661600Y-88349858D01*
X153661601Y-88349860D01*
X153821457Y-88589101D01*
X153931567Y-88854930D01*
X153987700Y-89137132D01*
X153987700Y-89424868D01*
X153931567Y-89707070D01*
X153821457Y-89972899D01*
X153821456Y-89972901D01*
X153661600Y-90212142D01*
X153458142Y-90415600D01*
X153218901Y-90575456D01*
X153218900Y-90575457D01*
X153218899Y-90575457D01*
X152953070Y-90685567D01*
X152670868Y-90741700D01*
X152383132Y-90741700D01*
X152100930Y-90685567D01*
X151835101Y-90575457D01*
X151835100Y-90575457D01*
X151835099Y-90575456D01*
X151595858Y-90415600D01*
X151392400Y-90212142D01*
X151232544Y-89972901D01*
X151232543Y-89972899D01*
X151122433Y-89707070D01*
X151066300Y-89424868D01*
X151066300Y-89137132D01*
X151122433Y-88854930D01*
X151232543Y-88589101D01*
X151392399Y-88349860D01*
X151392400Y-88349858D01*
X151595858Y-88146400D01*
X151835099Y-87986544D01*
X151835101Y-87986543D01*
X152100930Y-87876433D01*
X152383132Y-87820300D01*
X152670868Y-87820300D01*
X152953070Y-87876433D01*
X152953070Y-87876433D01*
G37*
G36*
X149524070Y-87876433D02*
G01*
X149789899Y-87986543D01*
X149789901Y-87986544D01*
X150029142Y-88146400D01*
X150232600Y-88349858D01*
X150232601Y-88349860D01*
X150392457Y-88589101D01*
X150502567Y-88854930D01*
X150558700Y-89137132D01*
X150558700Y-89424868D01*
X150502567Y-89707070D01*
X150392457Y-89972899D01*
X150392456Y-89972901D01*
X150232600Y-90212142D01*
X150029142Y-90415600D01*
X149789901Y-90575456D01*
X149789900Y-90575457D01*
X149789899Y-90575457D01*
X149524070Y-90685567D01*
X149241868Y-90741700D01*
X148954132Y-90741700D01*
X148671930Y-90685567D01*
X148406101Y-90575457D01*
X148406100Y-90575457D01*
X148406099Y-90575456D01*
X148166858Y-90415600D01*
X147963400Y-90212142D01*
X147803544Y-89972901D01*
X147803543Y-89972899D01*
X147693433Y-89707070D01*
X147637300Y-89424868D01*
X147637300Y-89137132D01*
X147693433Y-88854930D01*
X147803543Y-88589101D01*
X147963399Y-88349860D01*
X147963400Y-88349858D01*
X148166858Y-88146400D01*
X148406099Y-87986544D01*
X148406101Y-87986543D01*
X148671930Y-87876433D01*
X148954132Y-87820300D01*
X149241868Y-87820300D01*
X149524070Y-87876433D01*
X149524070Y-87876433D01*
G37*
G36*
X127323651Y-84224888D02*
G01*
X127634870Y-84319296D01*
X127921680Y-84472599D01*
X127921683Y-84472601D01*
X127921684Y-84472602D01*
X128173082Y-84678918D01*
X128379398Y-84930316D01*
X128379401Y-84930320D01*
X128532704Y-85217130D01*
X128627112Y-85528349D01*
X128658988Y-85852000D01*
X128627112Y-86175651D01*
X128532704Y-86486870D01*
X128379401Y-86773680D01*
X128379399Y-86773683D01*
X128379398Y-86773684D01*
X128173082Y-87025082D01*
X127921684Y-87231398D01*
X127921680Y-87231401D01*
X127634870Y-87384704D01*
X127323651Y-87479112D01*
X127081107Y-87503000D01*
X126918893Y-87503000D01*
X126676349Y-87479112D01*
X126365130Y-87384704D01*
X126078320Y-87231401D01*
X126078316Y-87231398D01*
X125826918Y-87025082D01*
X125620602Y-86773684D01*
X125620601Y-86773683D01*
X125620599Y-86773680D01*
X125467296Y-86486870D01*
X125372888Y-86175651D01*
X125341012Y-85852000D01*
X125372888Y-85528349D01*
X125467296Y-85217130D01*
X125620599Y-84930320D01*
X125620602Y-84930316D01*
X125826918Y-84678918D01*
X126078316Y-84472602D01*
X126078317Y-84472601D01*
X126078320Y-84472599D01*
X126365130Y-84319296D01*
X126676349Y-84224888D01*
X126918893Y-84201000D01*
X127081107Y-84201000D01*
X127323651Y-84224888D01*
X127323651Y-84224888D01*
G37*
G36*
X113411000Y-87503000D02*
G01*
X110109000Y-87503000D01*
X110109000Y-84201000D01*
X113411000Y-84201000D01*
X113411000Y-87503000D01*
X113411000Y-87503000D01*
G37*
G36*
X147903300Y-85464400D02*
G01*
X146810700Y-85464400D01*
X146810700Y-83584400D01*
X147903300Y-83584400D01*
X147903300Y-85464400D01*
X147903300Y-85464400D01*
G37*
G36*
X142823300Y-85464400D02*
G01*
X141730700Y-85464400D01*
X141730700Y-83584400D01*
X142823300Y-83584400D01*
X142823300Y-85464400D01*
X142823300Y-85464400D01*
G37*
G36*
X140283300Y-85464400D02*
G01*
X139190700Y-85464400D01*
X139190700Y-83584400D01*
X140283300Y-83584400D01*
X140283300Y-85464400D01*
X140283300Y-85464400D01*
G37*
G36*
X137743300Y-85464400D02*
G01*
X136650700Y-85464400D01*
X136650700Y-83584400D01*
X137743300Y-83584400D01*
X137743300Y-85464400D01*
X137743300Y-85464400D01*
G37*
G36*
X135203300Y-85464400D02*
G01*
X134110700Y-85464400D01*
X134110700Y-83584400D01*
X135203300Y-83584400D01*
X135203300Y-85464400D01*
X135203300Y-85464400D01*
G37*
G36*
X145363300Y-85464400D02*
G01*
X144270700Y-85464400D01*
X144270700Y-83584400D01*
X145363300Y-83584400D01*
X145363300Y-85464400D01*
X145363300Y-85464400D01*
G37*
G36*
X86943300Y-85464400D02*
G01*
X85850700Y-85464400D01*
X85850700Y-83584400D01*
X86943300Y-83584400D01*
X86943300Y-85464400D01*
X86943300Y-85464400D01*
G37*
G36*
X89483300Y-85464400D02*
G01*
X88390700Y-85464400D01*
X88390700Y-83584400D01*
X89483300Y-83584400D01*
X89483300Y-85464400D01*
X89483300Y-85464400D01*
G37*
G36*
X92023300Y-85464400D02*
G01*
X90930700Y-85464400D01*
X90930700Y-83584400D01*
X92023300Y-83584400D01*
X92023300Y-85464400D01*
X92023300Y-85464400D01*
G37*
G36*
X94563300Y-85464400D02*
G01*
X93470700Y-85464400D01*
X93470700Y-83584400D01*
X94563300Y-83584400D01*
X94563300Y-85464400D01*
X94563300Y-85464400D01*
G37*
G36*
X79323300Y-85464400D02*
G01*
X78230700Y-85464400D01*
X78230700Y-83584400D01*
X79323300Y-83584400D01*
X79323300Y-85464400D01*
X79323300Y-85464400D01*
G37*
G36*
X76783300Y-85464400D02*
G01*
X75690700Y-85464400D01*
X75690700Y-83584400D01*
X76783300Y-83584400D01*
X76783300Y-85464400D01*
X76783300Y-85464400D01*
G37*
G36*
X74243300Y-85464400D02*
G01*
X73150700Y-85464400D01*
X73150700Y-83584400D01*
X74243300Y-83584400D01*
X74243300Y-85464400D01*
X74243300Y-85464400D01*
G37*
G36*
X71703300Y-85464400D02*
G01*
X70610700Y-85464400D01*
X70610700Y-83584400D01*
X71703300Y-83584400D01*
X71703300Y-85464400D01*
X71703300Y-85464400D01*
G37*
G36*
X158063300Y-85464400D02*
G01*
X156970700Y-85464400D01*
X156970700Y-83584400D01*
X158063300Y-83584400D01*
X158063300Y-85464400D01*
X158063300Y-85464400D01*
G37*
G36*
X155523300Y-85464400D02*
G01*
X154430700Y-85464400D01*
X154430700Y-83584400D01*
X155523300Y-83584400D01*
X155523300Y-85464400D01*
X155523300Y-85464400D01*
G37*
G36*
X152983300Y-85464400D02*
G01*
X151890700Y-85464400D01*
X151890700Y-83584400D01*
X152983300Y-83584400D01*
X152983300Y-85464400D01*
X152983300Y-85464400D01*
G37*
G36*
X84403300Y-85464400D02*
G01*
X83310700Y-85464400D01*
X83310700Y-83584400D01*
X84403300Y-83584400D01*
X84403300Y-85464400D01*
X84403300Y-85464400D01*
G37*
G36*
X150443300Y-85464400D02*
G01*
X149350700Y-85464400D01*
X149350700Y-83584400D01*
X150443300Y-83584400D01*
X150443300Y-85464400D01*
X150443300Y-85464400D01*
G37*
G36*
X81863300Y-85464400D02*
G01*
X80770700Y-85464400D01*
X80770700Y-83584400D01*
X81863300Y-83584400D01*
X81863300Y-85464400D01*
X81863300Y-85464400D01*
G37*
G36*
X167441508Y-79644380D02*
G01*
X167608367Y-79677570D01*
X168079899Y-79872885D01*
X168322629Y-80035073D01*
X168504266Y-80156438D01*
X168865162Y-80517334D01*
X168986527Y-80698971D01*
X169148715Y-80941701D01*
X169344030Y-81413233D01*
X169443600Y-81913809D01*
X169443600Y-82424191D01*
X169344030Y-82924767D01*
X169148715Y-83396299D01*
X169023029Y-83584400D01*
X168865162Y-83820666D01*
X168504266Y-84181562D01*
X168322629Y-84302927D01*
X168079899Y-84465115D01*
X167608367Y-84660430D01*
X167441508Y-84693620D01*
X167107793Y-84760000D01*
X166597407Y-84760000D01*
X166263692Y-84693620D01*
X166096833Y-84660430D01*
X165625301Y-84465115D01*
X165382571Y-84302927D01*
X165200934Y-84181562D01*
X164840038Y-83820666D01*
X164682171Y-83584400D01*
X164556485Y-83396299D01*
X164361170Y-82924767D01*
X164261600Y-82424191D01*
X164261600Y-81913809D01*
X164361170Y-81413233D01*
X164556485Y-80941701D01*
X164718673Y-80698971D01*
X164840038Y-80517334D01*
X165200934Y-80156438D01*
X165382571Y-80035073D01*
X165625301Y-79872885D01*
X166096833Y-79677570D01*
X166263692Y-79644380D01*
X166597407Y-79578000D01*
X167107793Y-79578000D01*
X167441508Y-79644380D01*
X167441508Y-79644380D01*
G37*
G36*
X92023300Y-79571600D02*
G01*
X90930700Y-79571600D01*
X90930700Y-77691600D01*
X92023300Y-77691600D01*
X92023300Y-79571600D01*
X92023300Y-79571600D01*
G37*
G36*
X71703300Y-79571600D02*
G01*
X70610700Y-79571600D01*
X70610700Y-77691600D01*
X71703300Y-77691600D01*
X71703300Y-79571600D01*
X71703300Y-79571600D01*
G37*
G36*
X76783300Y-79571600D02*
G01*
X75690700Y-79571600D01*
X75690700Y-77691600D01*
X76783300Y-77691600D01*
X76783300Y-79571600D01*
X76783300Y-79571600D01*
G37*
G36*
X79323300Y-79571600D02*
G01*
X78230700Y-79571600D01*
X78230700Y-77691600D01*
X79323300Y-77691600D01*
X79323300Y-79571600D01*
X79323300Y-79571600D01*
G37*
G36*
X81863300Y-79571600D02*
G01*
X80770700Y-79571600D01*
X80770700Y-77691600D01*
X81863300Y-77691600D01*
X81863300Y-79571600D01*
X81863300Y-79571600D01*
G37*
G36*
X84403300Y-79571600D02*
G01*
X83310700Y-79571600D01*
X83310700Y-77691600D01*
X84403300Y-77691600D01*
X84403300Y-79571600D01*
X84403300Y-79571600D01*
G37*
G36*
X86943300Y-79571600D02*
G01*
X85850700Y-79571600D01*
X85850700Y-77691600D01*
X86943300Y-77691600D01*
X86943300Y-79571600D01*
X86943300Y-79571600D01*
G37*
G36*
X89483300Y-79571600D02*
G01*
X88390700Y-79571600D01*
X88390700Y-77691600D01*
X89483300Y-77691600D01*
X89483300Y-79571600D01*
X89483300Y-79571600D01*
G37*
G36*
X74243300Y-79571600D02*
G01*
X73150700Y-79571600D01*
X73150700Y-77691600D01*
X74243300Y-77691600D01*
X74243300Y-79571600D01*
X74243300Y-79571600D01*
G37*
G36*
X140283300Y-79571600D02*
G01*
X139190700Y-79571600D01*
X139190700Y-77691600D01*
X140283300Y-77691600D01*
X140283300Y-79571600D01*
X140283300Y-79571600D01*
G37*
G36*
X142823300Y-79571600D02*
G01*
X141730700Y-79571600D01*
X141730700Y-77691600D01*
X142823300Y-77691600D01*
X142823300Y-79571600D01*
X142823300Y-79571600D01*
G37*
G36*
X94563300Y-79571600D02*
G01*
X93470700Y-79571600D01*
X93470700Y-77691600D01*
X94563300Y-77691600D01*
X94563300Y-79571600D01*
X94563300Y-79571600D01*
G37*
G36*
X158063300Y-79571600D02*
G01*
X156970700Y-79571600D01*
X156970700Y-77691600D01*
X158063300Y-77691600D01*
X158063300Y-79571600D01*
X158063300Y-79571600D01*
G37*
G36*
X155523300Y-79571600D02*
G01*
X154430700Y-79571600D01*
X154430700Y-77691600D01*
X155523300Y-77691600D01*
X155523300Y-79571600D01*
X155523300Y-79571600D01*
G37*
G36*
X147903300Y-79571600D02*
G01*
X146810700Y-79571600D01*
X146810700Y-77691600D01*
X147903300Y-77691600D01*
X147903300Y-79571600D01*
X147903300Y-79571600D01*
G37*
G36*
X150443300Y-79571600D02*
G01*
X149350700Y-79571600D01*
X149350700Y-77691600D01*
X150443300Y-77691600D01*
X150443300Y-79571600D01*
X150443300Y-79571600D01*
G37*
G36*
X152983300Y-79571600D02*
G01*
X151890700Y-79571600D01*
X151890700Y-77691600D01*
X152983300Y-77691600D01*
X152983300Y-79571600D01*
X152983300Y-79571600D01*
G37*
G36*
X135203300Y-79571600D02*
G01*
X134110700Y-79571600D01*
X134110700Y-77691600D01*
X135203300Y-77691600D01*
X135203300Y-79571600D01*
X135203300Y-79571600D01*
G37*
G36*
X145363300Y-79571600D02*
G01*
X144270700Y-79571600D01*
X144270700Y-77691600D01*
X145363300Y-77691600D01*
X145363300Y-79571600D01*
X145363300Y-79571600D01*
G37*
G36*
X137743300Y-79571600D02*
G01*
X136650700Y-79571600D01*
X136650700Y-77691600D01*
X137743300Y-77691600D01*
X137743300Y-79571600D01*
X137743300Y-79571600D01*
G37*
G36*
X167441508Y-71770380D02*
G01*
X167608367Y-71803570D01*
X168079899Y-71998885D01*
X168322629Y-72161073D01*
X168504266Y-72282438D01*
X168865162Y-72643334D01*
X168986527Y-72824971D01*
X169148715Y-73067701D01*
X169344030Y-73539233D01*
X169443600Y-74039809D01*
X169443600Y-74550191D01*
X169344030Y-75050767D01*
X169148715Y-75522299D01*
X168986527Y-75765029D01*
X168865162Y-75946666D01*
X168504266Y-76307562D01*
X168322629Y-76428927D01*
X168079899Y-76591115D01*
X167608367Y-76786430D01*
X167441508Y-76819620D01*
X167107793Y-76886000D01*
X166597407Y-76886000D01*
X166263692Y-76819620D01*
X166096833Y-76786430D01*
X165625301Y-76591115D01*
X165382571Y-76428927D01*
X165200934Y-76307562D01*
X164840038Y-75946666D01*
X164718673Y-75765029D01*
X164556485Y-75522299D01*
X164361170Y-75050767D01*
X164261600Y-74550191D01*
X164261600Y-74039809D01*
X164361170Y-73539233D01*
X164556485Y-73067701D01*
X164718673Y-72824971D01*
X164840038Y-72643334D01*
X165200934Y-72282438D01*
X165382571Y-72161073D01*
X165625301Y-71998885D01*
X166096833Y-71803570D01*
X166263692Y-71770380D01*
X166597407Y-71704000D01*
X167107793Y-71704000D01*
X167441508Y-71770380D01*
X167441508Y-71770380D01*
G37*
G36*
X186927142Y-64750242D02*
G01*
X187075101Y-64811529D01*
X187208255Y-64900499D01*
X187321501Y-65013745D01*
X187410471Y-65146899D01*
X187471758Y-65294858D01*
X187503000Y-65451925D01*
X187503000Y-65612075D01*
X187471758Y-65769142D01*
X187410471Y-65917101D01*
X187321501Y-66050255D01*
X187208255Y-66163501D01*
X187075101Y-66252471D01*
X186927142Y-66313758D01*
X186770075Y-66345000D01*
X186609925Y-66345000D01*
X186452858Y-66313758D01*
X186304899Y-66252471D01*
X186171745Y-66163501D01*
X186058499Y-66050255D01*
X185969529Y-65917101D01*
X185908242Y-65769142D01*
X185877000Y-65612075D01*
X185877000Y-65451925D01*
X185908242Y-65294858D01*
X185969529Y-65146899D01*
X186058499Y-65013745D01*
X186171745Y-64900499D01*
X186304899Y-64811529D01*
X186452858Y-64750242D01*
X186609925Y-64719000D01*
X186770075Y-64719000D01*
X186927142Y-64750242D01*
X186927142Y-64750242D01*
G37*
G36*
X189467142Y-64750242D02*
G01*
X189615101Y-64811529D01*
X189748255Y-64900499D01*
X189861501Y-65013745D01*
X189950471Y-65146899D01*
X190011758Y-65294858D01*
X190043000Y-65451925D01*
X190043000Y-65612075D01*
X190011758Y-65769142D01*
X189950471Y-65917101D01*
X189861501Y-66050255D01*
X189748255Y-66163501D01*
X189615101Y-66252471D01*
X189467142Y-66313758D01*
X189310075Y-66345000D01*
X189149925Y-66345000D01*
X188992858Y-66313758D01*
X188844899Y-66252471D01*
X188711745Y-66163501D01*
X188598499Y-66050255D01*
X188509529Y-65917101D01*
X188448242Y-65769142D01*
X188417000Y-65612075D01*
X188417000Y-65451925D01*
X188448242Y-65294858D01*
X188509529Y-65146899D01*
X188598499Y-65013745D01*
X188711745Y-64900499D01*
X188844899Y-64811529D01*
X188992858Y-64750242D01*
X189149925Y-64719000D01*
X189310075Y-64719000D01*
X189467142Y-64750242D01*
X189467142Y-64750242D01*
G37*
G36*
X176767142Y-64750242D02*
G01*
X176915101Y-64811529D01*
X177048255Y-64900499D01*
X177161501Y-65013745D01*
X177250471Y-65146899D01*
X177311758Y-65294858D01*
X177343000Y-65451925D01*
X177343000Y-65612075D01*
X177311758Y-65769142D01*
X177250471Y-65917101D01*
X177161501Y-66050255D01*
X177048255Y-66163501D01*
X176915101Y-66252471D01*
X176767142Y-66313758D01*
X176610075Y-66345000D01*
X176449925Y-66345000D01*
X176292858Y-66313758D01*
X176144899Y-66252471D01*
X176011745Y-66163501D01*
X175898499Y-66050255D01*
X175809529Y-65917101D01*
X175748242Y-65769142D01*
X175717000Y-65612075D01*
X175717000Y-65451925D01*
X175748242Y-65294858D01*
X175809529Y-65146899D01*
X175898499Y-65013745D01*
X176011745Y-64900499D01*
X176144899Y-64811529D01*
X176292858Y-64750242D01*
X176449925Y-64719000D01*
X176610075Y-64719000D01*
X176767142Y-64750242D01*
X176767142Y-64750242D01*
G37*
G36*
X75167142Y-64750242D02*
G01*
X75315101Y-64811529D01*
X75448255Y-64900499D01*
X75561501Y-65013745D01*
X75650471Y-65146899D01*
X75711758Y-65294858D01*
X75743000Y-65451925D01*
X75743000Y-65612075D01*
X75711758Y-65769142D01*
X75650471Y-65917101D01*
X75561501Y-66050255D01*
X75448255Y-66163501D01*
X75315101Y-66252471D01*
X75167142Y-66313758D01*
X75010075Y-66345000D01*
X74849925Y-66345000D01*
X74692858Y-66313758D01*
X74544899Y-66252471D01*
X74411745Y-66163501D01*
X74298499Y-66050255D01*
X74209529Y-65917101D01*
X74148242Y-65769142D01*
X74117000Y-65612075D01*
X74117000Y-65451925D01*
X74148242Y-65294858D01*
X74209529Y-65146899D01*
X74298499Y-65013745D01*
X74411745Y-64900499D01*
X74544899Y-64811529D01*
X74692858Y-64750242D01*
X74849925Y-64719000D01*
X75010075Y-64719000D01*
X75167142Y-64750242D01*
X75167142Y-64750242D01*
G37*
G36*
X92947142Y-64750242D02*
G01*
X93095101Y-64811529D01*
X93228255Y-64900499D01*
X93341501Y-65013745D01*
X93430471Y-65146899D01*
X93491758Y-65294858D01*
X93523000Y-65451925D01*
X93523000Y-65612075D01*
X93491758Y-65769142D01*
X93430471Y-65917101D01*
X93341501Y-66050255D01*
X93228255Y-66163501D01*
X93095101Y-66252471D01*
X92947142Y-66313758D01*
X92790075Y-66345000D01*
X92629925Y-66345000D01*
X92472858Y-66313758D01*
X92324899Y-66252471D01*
X92191745Y-66163501D01*
X92078499Y-66050255D01*
X91989529Y-65917101D01*
X91928242Y-65769142D01*
X91897000Y-65612075D01*
X91897000Y-65451925D01*
X91928242Y-65294858D01*
X91989529Y-65146899D01*
X92078499Y-65013745D01*
X92191745Y-64900499D01*
X92324899Y-64811529D01*
X92472858Y-64750242D01*
X92629925Y-64719000D01*
X92790075Y-64719000D01*
X92947142Y-64750242D01*
X92947142Y-64750242D01*
G37*
G36*
X169147142Y-64750242D02*
G01*
X169295101Y-64811529D01*
X169428255Y-64900499D01*
X169541501Y-65013745D01*
X169630471Y-65146899D01*
X169691758Y-65294858D01*
X169723000Y-65451925D01*
X169723000Y-65612075D01*
X169691758Y-65769142D01*
X169630471Y-65917101D01*
X169541501Y-66050255D01*
X169428255Y-66163501D01*
X169295101Y-66252471D01*
X169147142Y-66313758D01*
X168990075Y-66345000D01*
X168829925Y-66345000D01*
X168672858Y-66313758D01*
X168524899Y-66252471D01*
X168391745Y-66163501D01*
X168278499Y-66050255D01*
X168189529Y-65917101D01*
X168128242Y-65769142D01*
X168097000Y-65612075D01*
X168097000Y-65451925D01*
X168128242Y-65294858D01*
X168189529Y-65146899D01*
X168278499Y-65013745D01*
X168391745Y-64900499D01*
X168524899Y-64811529D01*
X168672858Y-64750242D01*
X168829925Y-64719000D01*
X168990075Y-64719000D01*
X169147142Y-64750242D01*
X169147142Y-64750242D01*
G37*
G36*
X166607142Y-64750242D02*
G01*
X166755101Y-64811529D01*
X166888255Y-64900499D01*
X167001501Y-65013745D01*
X167090471Y-65146899D01*
X167151758Y-65294858D01*
X167183000Y-65451925D01*
X167183000Y-65612075D01*
X167151758Y-65769142D01*
X167090471Y-65917101D01*
X167001501Y-66050255D01*
X166888255Y-66163501D01*
X166755101Y-66252471D01*
X166607142Y-66313758D01*
X166450075Y-66345000D01*
X166289925Y-66345000D01*
X166132858Y-66313758D01*
X165984899Y-66252471D01*
X165851745Y-66163501D01*
X165738499Y-66050255D01*
X165649529Y-65917101D01*
X165588242Y-65769142D01*
X165557000Y-65612075D01*
X165557000Y-65451925D01*
X165588242Y-65294858D01*
X165649529Y-65146899D01*
X165738499Y-65013745D01*
X165851745Y-64900499D01*
X165984899Y-64811529D01*
X166132858Y-64750242D01*
X166289925Y-64719000D01*
X166450075Y-64719000D01*
X166607142Y-64750242D01*
X166607142Y-64750242D01*
G37*
G36*
X164067142Y-64750242D02*
G01*
X164215101Y-64811529D01*
X164348255Y-64900499D01*
X164461501Y-65013745D01*
X164550471Y-65146899D01*
X164611758Y-65294858D01*
X164643000Y-65451925D01*
X164643000Y-65612075D01*
X164611758Y-65769142D01*
X164550471Y-65917101D01*
X164461501Y-66050255D01*
X164348255Y-66163501D01*
X164215101Y-66252471D01*
X164067142Y-66313758D01*
X163910075Y-66345000D01*
X163749925Y-66345000D01*
X163592858Y-66313758D01*
X163444899Y-66252471D01*
X163311745Y-66163501D01*
X163198499Y-66050255D01*
X163109529Y-65917101D01*
X163048242Y-65769142D01*
X163017000Y-65612075D01*
X163017000Y-65451925D01*
X163048242Y-65294858D01*
X163109529Y-65146899D01*
X163198499Y-65013745D01*
X163311745Y-64900499D01*
X163444899Y-64811529D01*
X163592858Y-64750242D01*
X163749925Y-64719000D01*
X163910075Y-64719000D01*
X164067142Y-64750242D01*
X164067142Y-64750242D01*
G37*
G36*
X156447142Y-64750242D02*
G01*
X156595101Y-64811529D01*
X156728255Y-64900499D01*
X156841501Y-65013745D01*
X156930471Y-65146899D01*
X156991758Y-65294858D01*
X157023000Y-65451925D01*
X157023000Y-65612075D01*
X156991758Y-65769142D01*
X156930471Y-65917101D01*
X156841501Y-66050255D01*
X156728255Y-66163501D01*
X156595101Y-66252471D01*
X156447142Y-66313758D01*
X156290075Y-66345000D01*
X156129925Y-66345000D01*
X155972858Y-66313758D01*
X155824899Y-66252471D01*
X155691745Y-66163501D01*
X155578499Y-66050255D01*
X155489529Y-65917101D01*
X155428242Y-65769142D01*
X155397000Y-65612075D01*
X155397000Y-65451925D01*
X155428242Y-65294858D01*
X155489529Y-65146899D01*
X155578499Y-65013745D01*
X155691745Y-64900499D01*
X155824899Y-64811529D01*
X155972858Y-64750242D01*
X156129925Y-64719000D01*
X156290075Y-64719000D01*
X156447142Y-64750242D01*
X156447142Y-64750242D01*
G37*
G36*
X153907142Y-64750242D02*
G01*
X154055101Y-64811529D01*
X154188255Y-64900499D01*
X154301501Y-65013745D01*
X154390471Y-65146899D01*
X154451758Y-65294858D01*
X154483000Y-65451925D01*
X154483000Y-65612075D01*
X154451758Y-65769142D01*
X154390471Y-65917101D01*
X154301501Y-66050255D01*
X154188255Y-66163501D01*
X154055101Y-66252471D01*
X153907142Y-66313758D01*
X153750075Y-66345000D01*
X153589925Y-66345000D01*
X153432858Y-66313758D01*
X153284899Y-66252471D01*
X153151745Y-66163501D01*
X153038499Y-66050255D01*
X152949529Y-65917101D01*
X152888242Y-65769142D01*
X152857000Y-65612075D01*
X152857000Y-65451925D01*
X152888242Y-65294858D01*
X152949529Y-65146899D01*
X153038499Y-65013745D01*
X153151745Y-64900499D01*
X153284899Y-64811529D01*
X153432858Y-64750242D01*
X153589925Y-64719000D01*
X153750075Y-64719000D01*
X153907142Y-64750242D01*
X153907142Y-64750242D01*
G37*
G36*
X151367142Y-64750242D02*
G01*
X151515101Y-64811529D01*
X151648255Y-64900499D01*
X151761501Y-65013745D01*
X151850471Y-65146899D01*
X151911758Y-65294858D01*
X151943000Y-65451925D01*
X151943000Y-65612075D01*
X151911758Y-65769142D01*
X151850471Y-65917101D01*
X151761501Y-66050255D01*
X151648255Y-66163501D01*
X151515101Y-66252471D01*
X151367142Y-66313758D01*
X151210075Y-66345000D01*
X151049925Y-66345000D01*
X150892858Y-66313758D01*
X150744899Y-66252471D01*
X150611745Y-66163501D01*
X150498499Y-66050255D01*
X150409529Y-65917101D01*
X150348242Y-65769142D01*
X150317000Y-65612075D01*
X150317000Y-65451925D01*
X150348242Y-65294858D01*
X150409529Y-65146899D01*
X150498499Y-65013745D01*
X150611745Y-64900499D01*
X150744899Y-64811529D01*
X150892858Y-64750242D01*
X151049925Y-64719000D01*
X151210075Y-64719000D01*
X151367142Y-64750242D01*
X151367142Y-64750242D01*
G37*
G36*
X143747142Y-64750242D02*
G01*
X143895101Y-64811529D01*
X144028255Y-64900499D01*
X144141501Y-65013745D01*
X144230471Y-65146899D01*
X144291758Y-65294858D01*
X144323000Y-65451925D01*
X144323000Y-65612075D01*
X144291758Y-65769142D01*
X144230471Y-65917101D01*
X144141501Y-66050255D01*
X144028255Y-66163501D01*
X143895101Y-66252471D01*
X143747142Y-66313758D01*
X143590075Y-66345000D01*
X143429925Y-66345000D01*
X143272858Y-66313758D01*
X143124899Y-66252471D01*
X142991745Y-66163501D01*
X142878499Y-66050255D01*
X142789529Y-65917101D01*
X142728242Y-65769142D01*
X142697000Y-65612075D01*
X142697000Y-65451925D01*
X142728242Y-65294858D01*
X142789529Y-65146899D01*
X142878499Y-65013745D01*
X142991745Y-64900499D01*
X143124899Y-64811529D01*
X143272858Y-64750242D01*
X143429925Y-64719000D01*
X143590075Y-64719000D01*
X143747142Y-64750242D01*
X143747142Y-64750242D01*
G37*
G36*
X141207142Y-64750242D02*
G01*
X141355101Y-64811529D01*
X141488255Y-64900499D01*
X141601501Y-65013745D01*
X141690471Y-65146899D01*
X141751758Y-65294858D01*
X141783000Y-65451925D01*
X141783000Y-65612075D01*
X141751758Y-65769142D01*
X141690471Y-65917101D01*
X141601501Y-66050255D01*
X141488255Y-66163501D01*
X141355101Y-66252471D01*
X141207142Y-66313758D01*
X141050075Y-66345000D01*
X140889925Y-66345000D01*
X140732858Y-66313758D01*
X140584899Y-66252471D01*
X140451745Y-66163501D01*
X140338499Y-66050255D01*
X140249529Y-65917101D01*
X140188242Y-65769142D01*
X140157000Y-65612075D01*
X140157000Y-65451925D01*
X140188242Y-65294858D01*
X140249529Y-65146899D01*
X140338499Y-65013745D01*
X140451745Y-64900499D01*
X140584899Y-64811529D01*
X140732858Y-64750242D01*
X140889925Y-64719000D01*
X141050075Y-64719000D01*
X141207142Y-64750242D01*
X141207142Y-64750242D01*
G37*
G36*
X118347142Y-64750242D02*
G01*
X118495101Y-64811529D01*
X118628255Y-64900499D01*
X118741501Y-65013745D01*
X118830471Y-65146899D01*
X118891758Y-65294858D01*
X118923000Y-65451925D01*
X118923000Y-65612075D01*
X118891758Y-65769142D01*
X118830471Y-65917101D01*
X118741501Y-66050255D01*
X118628255Y-66163501D01*
X118495101Y-66252471D01*
X118347142Y-66313758D01*
X118190075Y-66345000D01*
X118029925Y-66345000D01*
X117872858Y-66313758D01*
X117724899Y-66252471D01*
X117591745Y-66163501D01*
X117478499Y-66050255D01*
X117389529Y-65917101D01*
X117328242Y-65769142D01*
X117297000Y-65612075D01*
X117297000Y-65451925D01*
X117328242Y-65294858D01*
X117389529Y-65146899D01*
X117478499Y-65013745D01*
X117591745Y-64900499D01*
X117724899Y-64811529D01*
X117872858Y-64750242D01*
X118029925Y-64719000D01*
X118190075Y-64719000D01*
X118347142Y-64750242D01*
X118347142Y-64750242D01*
G37*
G36*
X87867142Y-64750242D02*
G01*
X88015101Y-64811529D01*
X88148255Y-64900499D01*
X88261501Y-65013745D01*
X88350471Y-65146899D01*
X88411758Y-65294858D01*
X88443000Y-65451925D01*
X88443000Y-65612075D01*
X88411758Y-65769142D01*
X88350471Y-65917101D01*
X88261501Y-66050255D01*
X88148255Y-66163501D01*
X88015101Y-66252471D01*
X87867142Y-66313758D01*
X87710075Y-66345000D01*
X87549925Y-66345000D01*
X87392858Y-66313758D01*
X87244899Y-66252471D01*
X87111745Y-66163501D01*
X86998499Y-66050255D01*
X86909529Y-65917101D01*
X86848242Y-65769142D01*
X86817000Y-65612075D01*
X86817000Y-65451925D01*
X86848242Y-65294858D01*
X86909529Y-65146899D01*
X86998499Y-65013745D01*
X87111745Y-64900499D01*
X87244899Y-64811529D01*
X87392858Y-64750242D01*
X87549925Y-64719000D01*
X87710075Y-64719000D01*
X87867142Y-64750242D01*
X87867142Y-64750242D01*
G37*
G36*
X90407142Y-64750242D02*
G01*
X90555101Y-64811529D01*
X90688255Y-64900499D01*
X90801501Y-65013745D01*
X90890471Y-65146899D01*
X90951758Y-65294858D01*
X90983000Y-65451925D01*
X90983000Y-65612075D01*
X90951758Y-65769142D01*
X90890471Y-65917101D01*
X90801501Y-66050255D01*
X90688255Y-66163501D01*
X90555101Y-66252471D01*
X90407142Y-66313758D01*
X90250075Y-66345000D01*
X90089925Y-66345000D01*
X89932858Y-66313758D01*
X89784899Y-66252471D01*
X89651745Y-66163501D01*
X89538499Y-66050255D01*
X89449529Y-65917101D01*
X89388242Y-65769142D01*
X89357000Y-65612075D01*
X89357000Y-65451925D01*
X89388242Y-65294858D01*
X89449529Y-65146899D01*
X89538499Y-65013745D01*
X89651745Y-64900499D01*
X89784899Y-64811529D01*
X89932858Y-64750242D01*
X90089925Y-64719000D01*
X90250075Y-64719000D01*
X90407142Y-64750242D01*
X90407142Y-64750242D01*
G37*
G36*
X131047142Y-64750242D02*
G01*
X131195101Y-64811529D01*
X131328255Y-64900499D01*
X131441501Y-65013745D01*
X131530471Y-65146899D01*
X131591758Y-65294858D01*
X131623000Y-65451925D01*
X131623000Y-65612075D01*
X131591758Y-65769142D01*
X131530471Y-65917101D01*
X131441501Y-66050255D01*
X131328255Y-66163501D01*
X131195101Y-66252471D01*
X131047142Y-66313758D01*
X130890075Y-66345000D01*
X130729925Y-66345000D01*
X130572858Y-66313758D01*
X130424899Y-66252471D01*
X130291745Y-66163501D01*
X130178499Y-66050255D01*
X130089529Y-65917101D01*
X130028242Y-65769142D01*
X129997000Y-65612075D01*
X129997000Y-65451925D01*
X130028242Y-65294858D01*
X130089529Y-65146899D01*
X130178499Y-65013745D01*
X130291745Y-64900499D01*
X130424899Y-64811529D01*
X130572858Y-64750242D01*
X130729925Y-64719000D01*
X130890075Y-64719000D01*
X131047142Y-64750242D01*
X131047142Y-64750242D01*
G37*
G36*
X138667142Y-64750242D02*
G01*
X138815101Y-64811529D01*
X138948255Y-64900499D01*
X139061501Y-65013745D01*
X139150471Y-65146899D01*
X139211758Y-65294858D01*
X139243000Y-65451925D01*
X139243000Y-65612075D01*
X139211758Y-65769142D01*
X139150471Y-65917101D01*
X139061501Y-66050255D01*
X138948255Y-66163501D01*
X138815101Y-66252471D01*
X138667142Y-66313758D01*
X138510075Y-66345000D01*
X138349925Y-66345000D01*
X138192858Y-66313758D01*
X138044899Y-66252471D01*
X137911745Y-66163501D01*
X137798499Y-66050255D01*
X137709529Y-65917101D01*
X137648242Y-65769142D01*
X137617000Y-65612075D01*
X137617000Y-65451925D01*
X137648242Y-65294858D01*
X137709529Y-65146899D01*
X137798499Y-65013745D01*
X137911745Y-64900499D01*
X138044899Y-64811529D01*
X138192858Y-64750242D01*
X138349925Y-64719000D01*
X138510075Y-64719000D01*
X138667142Y-64750242D01*
X138667142Y-64750242D01*
G37*
G36*
X128507142Y-64750242D02*
G01*
X128655101Y-64811529D01*
X128788255Y-64900499D01*
X128901501Y-65013745D01*
X128990471Y-65146899D01*
X129051758Y-65294858D01*
X129083000Y-65451925D01*
X129083000Y-65612075D01*
X129051758Y-65769142D01*
X128990471Y-65917101D01*
X128901501Y-66050255D01*
X128788255Y-66163501D01*
X128655101Y-66252471D01*
X128507142Y-66313758D01*
X128350075Y-66345000D01*
X128189925Y-66345000D01*
X128032858Y-66313758D01*
X127884899Y-66252471D01*
X127751745Y-66163501D01*
X127638499Y-66050255D01*
X127549529Y-65917101D01*
X127488242Y-65769142D01*
X127457000Y-65612075D01*
X127457000Y-65451925D01*
X127488242Y-65294858D01*
X127549529Y-65146899D01*
X127638499Y-65013745D01*
X127751745Y-64900499D01*
X127884899Y-64811529D01*
X128032858Y-64750242D01*
X128189925Y-64719000D01*
X128350075Y-64719000D01*
X128507142Y-64750242D01*
X128507142Y-64750242D01*
G37*
G36*
X100567142Y-64750242D02*
G01*
X100715101Y-64811529D01*
X100848255Y-64900499D01*
X100961501Y-65013745D01*
X101050471Y-65146899D01*
X101111758Y-65294858D01*
X101143000Y-65451925D01*
X101143000Y-65612075D01*
X101111758Y-65769142D01*
X101050471Y-65917101D01*
X100961501Y-66050255D01*
X100848255Y-66163501D01*
X100715101Y-66252471D01*
X100567142Y-66313758D01*
X100410075Y-66345000D01*
X100249925Y-66345000D01*
X100092858Y-66313758D01*
X99944899Y-66252471D01*
X99811745Y-66163501D01*
X99698499Y-66050255D01*
X99609529Y-65917101D01*
X99548242Y-65769142D01*
X99517000Y-65612075D01*
X99517000Y-65451925D01*
X99548242Y-65294858D01*
X99609529Y-65146899D01*
X99698499Y-65013745D01*
X99811745Y-64900499D01*
X99944899Y-64811529D01*
X100092858Y-64750242D01*
X100249925Y-64719000D01*
X100410075Y-64719000D01*
X100567142Y-64750242D01*
X100567142Y-64750242D01*
G37*
G36*
X103107142Y-64750242D02*
G01*
X103255101Y-64811529D01*
X103388255Y-64900499D01*
X103501501Y-65013745D01*
X103590471Y-65146899D01*
X103651758Y-65294858D01*
X103683000Y-65451925D01*
X103683000Y-65612075D01*
X103651758Y-65769142D01*
X103590471Y-65917101D01*
X103501501Y-66050255D01*
X103388255Y-66163501D01*
X103255101Y-66252471D01*
X103107142Y-66313758D01*
X102950075Y-66345000D01*
X102789925Y-66345000D01*
X102632858Y-66313758D01*
X102484899Y-66252471D01*
X102351745Y-66163501D01*
X102238499Y-66050255D01*
X102149529Y-65917101D01*
X102088242Y-65769142D01*
X102057000Y-65612075D01*
X102057000Y-65451925D01*
X102088242Y-65294858D01*
X102149529Y-65146899D01*
X102238499Y-65013745D01*
X102351745Y-64900499D01*
X102484899Y-64811529D01*
X102632858Y-64750242D01*
X102789925Y-64719000D01*
X102950075Y-64719000D01*
X103107142Y-64750242D01*
X103107142Y-64750242D01*
G37*
G36*
X105647142Y-64750242D02*
G01*
X105795101Y-64811529D01*
X105928255Y-64900499D01*
X106041501Y-65013745D01*
X106130471Y-65146899D01*
X106191758Y-65294858D01*
X106223000Y-65451925D01*
X106223000Y-65612075D01*
X106191758Y-65769142D01*
X106130471Y-65917101D01*
X106041501Y-66050255D01*
X105928255Y-66163501D01*
X105795101Y-66252471D01*
X105647142Y-66313758D01*
X105490075Y-66345000D01*
X105329925Y-66345000D01*
X105172858Y-66313758D01*
X105024899Y-66252471D01*
X104891745Y-66163501D01*
X104778499Y-66050255D01*
X104689529Y-65917101D01*
X104628242Y-65769142D01*
X104597000Y-65612075D01*
X104597000Y-65451925D01*
X104628242Y-65294858D01*
X104689529Y-65146899D01*
X104778499Y-65013745D01*
X104891745Y-64900499D01*
X105024899Y-64811529D01*
X105172858Y-64750242D01*
X105329925Y-64719000D01*
X105490075Y-64719000D01*
X105647142Y-64750242D01*
X105647142Y-64750242D01*
G37*
G36*
X113267142Y-64750242D02*
G01*
X113415101Y-64811529D01*
X113548255Y-64900499D01*
X113661501Y-65013745D01*
X113750471Y-65146899D01*
X113811758Y-65294858D01*
X113843000Y-65451925D01*
X113843000Y-65612075D01*
X113811758Y-65769142D01*
X113750471Y-65917101D01*
X113661501Y-66050255D01*
X113548255Y-66163501D01*
X113415101Y-66252471D01*
X113267142Y-66313758D01*
X113110075Y-66345000D01*
X112949925Y-66345000D01*
X112792858Y-66313758D01*
X112644899Y-66252471D01*
X112511745Y-66163501D01*
X112398499Y-66050255D01*
X112309529Y-65917101D01*
X112248242Y-65769142D01*
X112217000Y-65612075D01*
X112217000Y-65451925D01*
X112248242Y-65294858D01*
X112309529Y-65146899D01*
X112398499Y-65013745D01*
X112511745Y-64900499D01*
X112644899Y-64811529D01*
X112792858Y-64750242D01*
X112949925Y-64719000D01*
X113110075Y-64719000D01*
X113267142Y-64750242D01*
X113267142Y-64750242D01*
G37*
G36*
X115807142Y-64750242D02*
G01*
X115955101Y-64811529D01*
X116088255Y-64900499D01*
X116201501Y-65013745D01*
X116290471Y-65146899D01*
X116351758Y-65294858D01*
X116383000Y-65451925D01*
X116383000Y-65612075D01*
X116351758Y-65769142D01*
X116290471Y-65917101D01*
X116201501Y-66050255D01*
X116088255Y-66163501D01*
X115955101Y-66252471D01*
X115807142Y-66313758D01*
X115650075Y-66345000D01*
X115489925Y-66345000D01*
X115332858Y-66313758D01*
X115184899Y-66252471D01*
X115051745Y-66163501D01*
X114938499Y-66050255D01*
X114849529Y-65917101D01*
X114788242Y-65769142D01*
X114757000Y-65612075D01*
X114757000Y-65451925D01*
X114788242Y-65294858D01*
X114849529Y-65146899D01*
X114938499Y-65013745D01*
X115051745Y-64900499D01*
X115184899Y-64811529D01*
X115332858Y-64750242D01*
X115489925Y-64719000D01*
X115650075Y-64719000D01*
X115807142Y-64750242D01*
X115807142Y-64750242D01*
G37*
G36*
X125967142Y-64750242D02*
G01*
X126115101Y-64811529D01*
X126248255Y-64900499D01*
X126361501Y-65013745D01*
X126450471Y-65146899D01*
X126511758Y-65294858D01*
X126543000Y-65451925D01*
X126543000Y-65612075D01*
X126511758Y-65769142D01*
X126450471Y-65917101D01*
X126361501Y-66050255D01*
X126248255Y-66163501D01*
X126115101Y-66252471D01*
X125967142Y-66313758D01*
X125810075Y-66345000D01*
X125649925Y-66345000D01*
X125492858Y-66313758D01*
X125344899Y-66252471D01*
X125211745Y-66163501D01*
X125098499Y-66050255D01*
X125009529Y-65917101D01*
X124948242Y-65769142D01*
X124917000Y-65612075D01*
X124917000Y-65451925D01*
X124948242Y-65294858D01*
X125009529Y-65146899D01*
X125098499Y-65013745D01*
X125211745Y-64900499D01*
X125344899Y-64811529D01*
X125492858Y-64750242D01*
X125649925Y-64719000D01*
X125810075Y-64719000D01*
X125967142Y-64750242D01*
X125967142Y-64750242D01*
G37*
G36*
X179307142Y-64750242D02*
G01*
X179455101Y-64811529D01*
X179588255Y-64900499D01*
X179701501Y-65013745D01*
X179790471Y-65146899D01*
X179851758Y-65294858D01*
X179883000Y-65451925D01*
X179883000Y-65612075D01*
X179851758Y-65769142D01*
X179790471Y-65917101D01*
X179701501Y-66050255D01*
X179588255Y-66163501D01*
X179455101Y-66252471D01*
X179307142Y-66313758D01*
X179150075Y-66345000D01*
X178989925Y-66345000D01*
X178832858Y-66313758D01*
X178684899Y-66252471D01*
X178551745Y-66163501D01*
X178438499Y-66050255D01*
X178349529Y-65917101D01*
X178288242Y-65769142D01*
X178257000Y-65612075D01*
X178257000Y-65451925D01*
X178288242Y-65294858D01*
X178349529Y-65146899D01*
X178438499Y-65013745D01*
X178551745Y-64900499D01*
X178684899Y-64811529D01*
X178832858Y-64750242D01*
X178989925Y-64719000D01*
X179150075Y-64719000D01*
X179307142Y-64750242D01*
X179307142Y-64750242D01*
G37*
G36*
X77707142Y-64750242D02*
G01*
X77855101Y-64811529D01*
X77988255Y-64900499D01*
X78101501Y-65013745D01*
X78190471Y-65146899D01*
X78251758Y-65294858D01*
X78283000Y-65451925D01*
X78283000Y-65612075D01*
X78251758Y-65769142D01*
X78190471Y-65917101D01*
X78101501Y-66050255D01*
X77988255Y-66163501D01*
X77855101Y-66252471D01*
X77707142Y-66313758D01*
X77550075Y-66345000D01*
X77389925Y-66345000D01*
X77232858Y-66313758D01*
X77084899Y-66252471D01*
X76951745Y-66163501D01*
X76838499Y-66050255D01*
X76749529Y-65917101D01*
X76688242Y-65769142D01*
X76657000Y-65612075D01*
X76657000Y-65451925D01*
X76688242Y-65294858D01*
X76749529Y-65146899D01*
X76838499Y-65013745D01*
X76951745Y-64900499D01*
X77084899Y-64811529D01*
X77232858Y-64750242D01*
X77389925Y-64719000D01*
X77550075Y-64719000D01*
X77707142Y-64750242D01*
X77707142Y-64750242D01*
G37*
G36*
X80247142Y-64750242D02*
G01*
X80395101Y-64811529D01*
X80528255Y-64900499D01*
X80641501Y-65013745D01*
X80730471Y-65146899D01*
X80791758Y-65294858D01*
X80823000Y-65451925D01*
X80823000Y-65612075D01*
X80791758Y-65769142D01*
X80730471Y-65917101D01*
X80641501Y-66050255D01*
X80528255Y-66163501D01*
X80395101Y-66252471D01*
X80247142Y-66313758D01*
X80090075Y-66345000D01*
X79929925Y-66345000D01*
X79772858Y-66313758D01*
X79624899Y-66252471D01*
X79491745Y-66163501D01*
X79378499Y-66050255D01*
X79289529Y-65917101D01*
X79228242Y-65769142D01*
X79197000Y-65612075D01*
X79197000Y-65451925D01*
X79228242Y-65294858D01*
X79289529Y-65146899D01*
X79378499Y-65013745D01*
X79491745Y-64900499D01*
X79624899Y-64811529D01*
X79772858Y-64750242D01*
X79929925Y-64719000D01*
X80090075Y-64719000D01*
X80247142Y-64750242D01*
X80247142Y-64750242D01*
G37*
G36*
X180731039Y-55188250D02*
G01*
X180920372Y-55266675D01*
X181054251Y-55322129D01*
X181345134Y-55516491D01*
X181592509Y-55763866D01*
X181786871Y-56054749D01*
X181786871Y-56054750D01*
X181920750Y-56377961D01*
X181989000Y-56721078D01*
X181989000Y-57070922D01*
X181920750Y-57414039D01*
X181842325Y-57603372D01*
X181786871Y-57737251D01*
X181592509Y-58028134D01*
X181345134Y-58275509D01*
X181054251Y-58469871D01*
X180920372Y-58525325D01*
X180731039Y-58603750D01*
X180387922Y-58672000D01*
X180038078Y-58672000D01*
X179694961Y-58603750D01*
X179505628Y-58525325D01*
X179371749Y-58469871D01*
X179080866Y-58275509D01*
X178833491Y-58028134D01*
X178639129Y-57737251D01*
X178583675Y-57603372D01*
X178505250Y-57414039D01*
X178437000Y-57070922D01*
X178437000Y-56721078D01*
X178505250Y-56377961D01*
X178639129Y-56054750D01*
X178639129Y-56054749D01*
X178833491Y-55763866D01*
X179080866Y-55516491D01*
X179371749Y-55322129D01*
X179505628Y-55266675D01*
X179694961Y-55188250D01*
X180038078Y-55120000D01*
X180387922Y-55120000D01*
X180731039Y-55188250D01*
X180731039Y-55188250D01*
G37*
G36*
X74178039Y-55188250D02*
G01*
X74367372Y-55266675D01*
X74501251Y-55322129D01*
X74792134Y-55516491D01*
X75039509Y-55763866D01*
X75233871Y-56054749D01*
X75233871Y-56054750D01*
X75367750Y-56377961D01*
X75436000Y-56721078D01*
X75436000Y-57070922D01*
X75367750Y-57414039D01*
X75289325Y-57603372D01*
X75233871Y-57737251D01*
X75039509Y-58028134D01*
X74792134Y-58275509D01*
X74501251Y-58469871D01*
X74367372Y-58525325D01*
X74178039Y-58603750D01*
X73834922Y-58672000D01*
X73485078Y-58672000D01*
X73141961Y-58603750D01*
X72952628Y-58525325D01*
X72818749Y-58469871D01*
X72527866Y-58275509D01*
X72280491Y-58028134D01*
X72086129Y-57737251D01*
X72030675Y-57603372D01*
X71952250Y-57414039D01*
X71884000Y-57070922D01*
X71884000Y-56721078D01*
X71952250Y-56377961D01*
X72086129Y-56054750D01*
X72086129Y-56054749D01*
X72280491Y-55763866D01*
X72527866Y-55516491D01*
X72818749Y-55322129D01*
X72952628Y-55266675D01*
X73141961Y-55188250D01*
X73485078Y-55120000D01*
X73834922Y-55120000D01*
X74178039Y-55188250D01*
X74178039Y-55188250D01*
G37*
G36*
X86878039Y-55188250D02*
G01*
X87067372Y-55266675D01*
X87201251Y-55322129D01*
X87492134Y-55516491D01*
X87739509Y-55763866D01*
X87933871Y-56054749D01*
X87933871Y-56054750D01*
X88067750Y-56377961D01*
X88136000Y-56721078D01*
X88136000Y-57070922D01*
X88067750Y-57414039D01*
X87989325Y-57603372D01*
X87933871Y-57737251D01*
X87739509Y-58028134D01*
X87492134Y-58275509D01*
X87201251Y-58469871D01*
X87067372Y-58525325D01*
X86878039Y-58603750D01*
X86534922Y-58672000D01*
X86185078Y-58672000D01*
X85841961Y-58603750D01*
X85652628Y-58525325D01*
X85518749Y-58469871D01*
X85227866Y-58275509D01*
X84980491Y-58028134D01*
X84786129Y-57737251D01*
X84730675Y-57603372D01*
X84652250Y-57414039D01*
X84584000Y-57070922D01*
X84584000Y-56721078D01*
X84652250Y-56377961D01*
X84786129Y-56054750D01*
X84786129Y-56054749D01*
X84980491Y-55763866D01*
X85227866Y-55516491D01*
X85518749Y-55322129D01*
X85652628Y-55266675D01*
X85841961Y-55188250D01*
X86185078Y-55120000D01*
X86534922Y-55120000D01*
X86878039Y-55188250D01*
X86878039Y-55188250D01*
G37*
G36*
X132598039Y-55188250D02*
G01*
X132787372Y-55266675D01*
X132921251Y-55322129D01*
X133212134Y-55516491D01*
X133459509Y-55763866D01*
X133653871Y-56054749D01*
X133653871Y-56054750D01*
X133787750Y-56377961D01*
X133856000Y-56721078D01*
X133856000Y-57070922D01*
X133787750Y-57414039D01*
X133709325Y-57603372D01*
X133653871Y-57737251D01*
X133459509Y-58028134D01*
X133212134Y-58275509D01*
X132921251Y-58469871D01*
X132787372Y-58525325D01*
X132598039Y-58603750D01*
X132254922Y-58672000D01*
X131905078Y-58672000D01*
X131561961Y-58603750D01*
X131372628Y-58525325D01*
X131238749Y-58469871D01*
X130947866Y-58275509D01*
X130700491Y-58028134D01*
X130506129Y-57737251D01*
X130450675Y-57603372D01*
X130372250Y-57414039D01*
X130304000Y-57070922D01*
X130304000Y-56721078D01*
X130372250Y-56377961D01*
X130506129Y-56054750D01*
X130506129Y-56054749D01*
X130700491Y-55763866D01*
X130947866Y-55516491D01*
X131238749Y-55322129D01*
X131372628Y-55266675D01*
X131561961Y-55188250D01*
X131905078Y-55120000D01*
X132254922Y-55120000D01*
X132598039Y-55188250D01*
X132598039Y-55188250D01*
G37*
G36*
X94498039Y-55188250D02*
G01*
X94687372Y-55266675D01*
X94821251Y-55322129D01*
X95112134Y-55516491D01*
X95359509Y-55763866D01*
X95553871Y-56054749D01*
X95553871Y-56054750D01*
X95687750Y-56377961D01*
X95756000Y-56721078D01*
X95756000Y-57070922D01*
X95687750Y-57414039D01*
X95609325Y-57603372D01*
X95553871Y-57737251D01*
X95359509Y-58028134D01*
X95112134Y-58275509D01*
X94821251Y-58469871D01*
X94687372Y-58525325D01*
X94498039Y-58603750D01*
X94154922Y-58672000D01*
X93805078Y-58672000D01*
X93461961Y-58603750D01*
X93272628Y-58525325D01*
X93138749Y-58469871D01*
X92847866Y-58275509D01*
X92600491Y-58028134D01*
X92406129Y-57737251D01*
X92350675Y-57603372D01*
X92272250Y-57414039D01*
X92204000Y-57070922D01*
X92204000Y-56721078D01*
X92272250Y-56377961D01*
X92406129Y-56054750D01*
X92406129Y-56054749D01*
X92600491Y-55763866D01*
X92847866Y-55516491D01*
X93138749Y-55322129D01*
X93272628Y-55266675D01*
X93461961Y-55188250D01*
X93805078Y-55120000D01*
X94154922Y-55120000D01*
X94498039Y-55188250D01*
X94498039Y-55188250D01*
G37*
G36*
X190891039Y-55188250D02*
G01*
X191080372Y-55266675D01*
X191214251Y-55322129D01*
X191505134Y-55516491D01*
X191752509Y-55763866D01*
X191946871Y-56054749D01*
X191946871Y-56054750D01*
X192080750Y-56377961D01*
X192149000Y-56721078D01*
X192149000Y-57070922D01*
X192080750Y-57414039D01*
X192002325Y-57603372D01*
X191946871Y-57737251D01*
X191752509Y-58028134D01*
X191505134Y-58275509D01*
X191214251Y-58469871D01*
X191080372Y-58525325D01*
X190891039Y-58603750D01*
X190547922Y-58672000D01*
X190198078Y-58672000D01*
X189854961Y-58603750D01*
X189665628Y-58525325D01*
X189531749Y-58469871D01*
X189240866Y-58275509D01*
X188993491Y-58028134D01*
X188799129Y-57737251D01*
X188743675Y-57603372D01*
X188665250Y-57414039D01*
X188597000Y-57070922D01*
X188597000Y-56721078D01*
X188665250Y-56377961D01*
X188799129Y-56054750D01*
X188799129Y-56054749D01*
X188993491Y-55763866D01*
X189240866Y-55516491D01*
X189531749Y-55322129D01*
X189665628Y-55266675D01*
X189854961Y-55188250D01*
X190198078Y-55120000D01*
X190547922Y-55120000D01*
X190891039Y-55188250D01*
X190891039Y-55188250D01*
G37*
G36*
X81798039Y-55188250D02*
G01*
X81987372Y-55266675D01*
X82121251Y-55322129D01*
X82412134Y-55516491D01*
X82659509Y-55763866D01*
X82853871Y-56054749D01*
X82853871Y-56054750D01*
X82987750Y-56377961D01*
X83056000Y-56721078D01*
X83056000Y-57070922D01*
X82987750Y-57414039D01*
X82909325Y-57603372D01*
X82853871Y-57737251D01*
X82659509Y-58028134D01*
X82412134Y-58275509D01*
X82121251Y-58469871D01*
X81987372Y-58525325D01*
X81798039Y-58603750D01*
X81454922Y-58672000D01*
X81105078Y-58672000D01*
X80761961Y-58603750D01*
X80572628Y-58525325D01*
X80438749Y-58469871D01*
X80147866Y-58275509D01*
X79900491Y-58028134D01*
X79706129Y-57737251D01*
X79650675Y-57603372D01*
X79572250Y-57414039D01*
X79504000Y-57070922D01*
X79504000Y-56721078D01*
X79572250Y-56377961D01*
X79706129Y-56054750D01*
X79706129Y-56054749D01*
X79900491Y-55763866D01*
X80147866Y-55516491D01*
X80438749Y-55322129D01*
X80572628Y-55266675D01*
X80761961Y-55188250D01*
X81105078Y-55120000D01*
X81454922Y-55120000D01*
X81798039Y-55188250D01*
X81798039Y-55188250D01*
G37*
G36*
X145298039Y-55188250D02*
G01*
X145487372Y-55266675D01*
X145621251Y-55322129D01*
X145912134Y-55516491D01*
X146159509Y-55763866D01*
X146353871Y-56054749D01*
X146353871Y-56054750D01*
X146487750Y-56377961D01*
X146556000Y-56721078D01*
X146556000Y-57070922D01*
X146487750Y-57414039D01*
X146409325Y-57603372D01*
X146353871Y-57737251D01*
X146159509Y-58028134D01*
X145912134Y-58275509D01*
X145621251Y-58469871D01*
X145487372Y-58525325D01*
X145298039Y-58603750D01*
X144954922Y-58672000D01*
X144605078Y-58672000D01*
X144261961Y-58603750D01*
X144072628Y-58525325D01*
X143938749Y-58469871D01*
X143647866Y-58275509D01*
X143400491Y-58028134D01*
X143206129Y-57737251D01*
X143150675Y-57603372D01*
X143072250Y-57414039D01*
X143004000Y-57070922D01*
X143004000Y-56721078D01*
X143072250Y-56377961D01*
X143206129Y-56054750D01*
X143206129Y-56054749D01*
X143400491Y-55763866D01*
X143647866Y-55516491D01*
X143938749Y-55322129D01*
X144072628Y-55266675D01*
X144261961Y-55188250D01*
X144605078Y-55120000D01*
X144954922Y-55120000D01*
X145298039Y-55188250D01*
X145298039Y-55188250D01*
G37*
G36*
X99578039Y-55188250D02*
G01*
X99767372Y-55266675D01*
X99901251Y-55322129D01*
X100192134Y-55516491D01*
X100439509Y-55763866D01*
X100633871Y-56054749D01*
X100633871Y-56054750D01*
X100767750Y-56377961D01*
X100836000Y-56721078D01*
X100836000Y-57070922D01*
X100767750Y-57414039D01*
X100689325Y-57603372D01*
X100633871Y-57737251D01*
X100439509Y-58028134D01*
X100192134Y-58275509D01*
X99901251Y-58469871D01*
X99767372Y-58525325D01*
X99578039Y-58603750D01*
X99234922Y-58672000D01*
X98885078Y-58672000D01*
X98541961Y-58603750D01*
X98352628Y-58525325D01*
X98218749Y-58469871D01*
X97927866Y-58275509D01*
X97680491Y-58028134D01*
X97486129Y-57737251D01*
X97430675Y-57603372D01*
X97352250Y-57414039D01*
X97284000Y-57070922D01*
X97284000Y-56721078D01*
X97352250Y-56377961D01*
X97486129Y-56054750D01*
X97486129Y-56054749D01*
X97680491Y-55763866D01*
X97927866Y-55516491D01*
X98218749Y-55322129D01*
X98352628Y-55266675D01*
X98541961Y-55188250D01*
X98885078Y-55120000D01*
X99234922Y-55120000D01*
X99578039Y-55188250D01*
X99578039Y-55188250D01*
G37*
G36*
X107198039Y-55188250D02*
G01*
X107387372Y-55266675D01*
X107521251Y-55322129D01*
X107812134Y-55516491D01*
X108059509Y-55763866D01*
X108253871Y-56054749D01*
X108253871Y-56054750D01*
X108387750Y-56377961D01*
X108456000Y-56721078D01*
X108456000Y-57070922D01*
X108387750Y-57414039D01*
X108309325Y-57603372D01*
X108253871Y-57737251D01*
X108059509Y-58028134D01*
X107812134Y-58275509D01*
X107521251Y-58469871D01*
X107387372Y-58525325D01*
X107198039Y-58603750D01*
X106854922Y-58672000D01*
X106505078Y-58672000D01*
X106161961Y-58603750D01*
X105972628Y-58525325D01*
X105838749Y-58469871D01*
X105547866Y-58275509D01*
X105300491Y-58028134D01*
X105106129Y-57737251D01*
X105050675Y-57603372D01*
X104972250Y-57414039D01*
X104904000Y-57070922D01*
X104904000Y-56721078D01*
X104972250Y-56377961D01*
X105106129Y-56054750D01*
X105106129Y-56054749D01*
X105300491Y-55763866D01*
X105547866Y-55516491D01*
X105838749Y-55322129D01*
X105972628Y-55266675D01*
X106161961Y-55188250D01*
X106505078Y-55120000D01*
X106854922Y-55120000D01*
X107198039Y-55188250D01*
X107198039Y-55188250D01*
G37*
G36*
X112278039Y-55188250D02*
G01*
X112467372Y-55266675D01*
X112601251Y-55322129D01*
X112892134Y-55516491D01*
X113139509Y-55763866D01*
X113333871Y-56054749D01*
X113333871Y-56054750D01*
X113467750Y-56377961D01*
X113536000Y-56721078D01*
X113536000Y-57070922D01*
X113467750Y-57414039D01*
X113389325Y-57603372D01*
X113333871Y-57737251D01*
X113139509Y-58028134D01*
X112892134Y-58275509D01*
X112601251Y-58469871D01*
X112467372Y-58525325D01*
X112278039Y-58603750D01*
X111934922Y-58672000D01*
X111585078Y-58672000D01*
X111241961Y-58603750D01*
X111052628Y-58525325D01*
X110918749Y-58469871D01*
X110627866Y-58275509D01*
X110380491Y-58028134D01*
X110186129Y-57737251D01*
X110130675Y-57603372D01*
X110052250Y-57414039D01*
X109984000Y-57070922D01*
X109984000Y-56721078D01*
X110052250Y-56377961D01*
X110186129Y-56054750D01*
X110186129Y-56054749D01*
X110380491Y-55763866D01*
X110627866Y-55516491D01*
X110918749Y-55322129D01*
X111052628Y-55266675D01*
X111241961Y-55188250D01*
X111585078Y-55120000D01*
X111934922Y-55120000D01*
X112278039Y-55188250D01*
X112278039Y-55188250D01*
G37*
G36*
X150378039Y-55188250D02*
G01*
X150567372Y-55266675D01*
X150701251Y-55322129D01*
X150992134Y-55516491D01*
X151239509Y-55763866D01*
X151433871Y-56054749D01*
X151433871Y-56054750D01*
X151567750Y-56377961D01*
X151636000Y-56721078D01*
X151636000Y-57070922D01*
X151567750Y-57414039D01*
X151489325Y-57603372D01*
X151433871Y-57737251D01*
X151239509Y-58028134D01*
X150992134Y-58275509D01*
X150701251Y-58469871D01*
X150567372Y-58525325D01*
X150378039Y-58603750D01*
X150034922Y-58672000D01*
X149685078Y-58672000D01*
X149341961Y-58603750D01*
X149152628Y-58525325D01*
X149018749Y-58469871D01*
X148727866Y-58275509D01*
X148480491Y-58028134D01*
X148286129Y-57737251D01*
X148230675Y-57603372D01*
X148152250Y-57414039D01*
X148084000Y-57070922D01*
X148084000Y-56721078D01*
X148152250Y-56377961D01*
X148286129Y-56054750D01*
X148286129Y-56054749D01*
X148480491Y-55763866D01*
X148727866Y-55516491D01*
X149018749Y-55322129D01*
X149152628Y-55266675D01*
X149341961Y-55188250D01*
X149685078Y-55120000D01*
X150034922Y-55120000D01*
X150378039Y-55188250D01*
X150378039Y-55188250D01*
G37*
G36*
X157998039Y-55188250D02*
G01*
X158187372Y-55266675D01*
X158321251Y-55322129D01*
X158612134Y-55516491D01*
X158859509Y-55763866D01*
X159053871Y-56054749D01*
X159053871Y-56054750D01*
X159187750Y-56377961D01*
X159256000Y-56721078D01*
X159256000Y-57070922D01*
X159187750Y-57414039D01*
X159109325Y-57603372D01*
X159053871Y-57737251D01*
X158859509Y-58028134D01*
X158612134Y-58275509D01*
X158321251Y-58469871D01*
X158187372Y-58525325D01*
X157998039Y-58603750D01*
X157654922Y-58672000D01*
X157305078Y-58672000D01*
X156961961Y-58603750D01*
X156772628Y-58525325D01*
X156638749Y-58469871D01*
X156347866Y-58275509D01*
X156100491Y-58028134D01*
X155906129Y-57737251D01*
X155850675Y-57603372D01*
X155772250Y-57414039D01*
X155704000Y-57070922D01*
X155704000Y-56721078D01*
X155772250Y-56377961D01*
X155906129Y-56054750D01*
X155906129Y-56054749D01*
X156100491Y-55763866D01*
X156347866Y-55516491D01*
X156638749Y-55322129D01*
X156772628Y-55266675D01*
X156961961Y-55188250D01*
X157305078Y-55120000D01*
X157654922Y-55120000D01*
X157998039Y-55188250D01*
X157998039Y-55188250D01*
G37*
G36*
X119898039Y-55188250D02*
G01*
X120087372Y-55266675D01*
X120221251Y-55322129D01*
X120512134Y-55516491D01*
X120759509Y-55763866D01*
X120953871Y-56054749D01*
X120953871Y-56054750D01*
X121087750Y-56377961D01*
X121156000Y-56721078D01*
X121156000Y-57070922D01*
X121087750Y-57414039D01*
X121009325Y-57603372D01*
X120953871Y-57737251D01*
X120759509Y-58028134D01*
X120512134Y-58275509D01*
X120221251Y-58469871D01*
X120087372Y-58525325D01*
X119898039Y-58603750D01*
X119554922Y-58672000D01*
X119205078Y-58672000D01*
X118861961Y-58603750D01*
X118672628Y-58525325D01*
X118538749Y-58469871D01*
X118247866Y-58275509D01*
X118000491Y-58028134D01*
X117806129Y-57737251D01*
X117750675Y-57603372D01*
X117672250Y-57414039D01*
X117604000Y-57070922D01*
X117604000Y-56721078D01*
X117672250Y-56377961D01*
X117806129Y-56054750D01*
X117806129Y-56054749D01*
X118000491Y-55763866D01*
X118247866Y-55516491D01*
X118538749Y-55322129D01*
X118672628Y-55266675D01*
X118861961Y-55188250D01*
X119205078Y-55120000D01*
X119554922Y-55120000D01*
X119898039Y-55188250D01*
X119898039Y-55188250D01*
G37*
G36*
X124978039Y-55188250D02*
G01*
X125167372Y-55266675D01*
X125301251Y-55322129D01*
X125592134Y-55516491D01*
X125839509Y-55763866D01*
X126033871Y-56054749D01*
X126033871Y-56054750D01*
X126167750Y-56377961D01*
X126236000Y-56721078D01*
X126236000Y-57070922D01*
X126167750Y-57414039D01*
X126089325Y-57603372D01*
X126033871Y-57737251D01*
X125839509Y-58028134D01*
X125592134Y-58275509D01*
X125301251Y-58469871D01*
X125167372Y-58525325D01*
X124978039Y-58603750D01*
X124634922Y-58672000D01*
X124285078Y-58672000D01*
X123941961Y-58603750D01*
X123752628Y-58525325D01*
X123618749Y-58469871D01*
X123327866Y-58275509D01*
X123080491Y-58028134D01*
X122886129Y-57737251D01*
X122830675Y-57603372D01*
X122752250Y-57414039D01*
X122684000Y-57070922D01*
X122684000Y-56721078D01*
X122752250Y-56377961D01*
X122886129Y-56054750D01*
X122886129Y-56054749D01*
X123080491Y-55763866D01*
X123327866Y-55516491D01*
X123618749Y-55322129D01*
X123752628Y-55266675D01*
X123941961Y-55188250D01*
X124285078Y-55120000D01*
X124634922Y-55120000D01*
X124978039Y-55188250D01*
X124978039Y-55188250D01*
G37*
G36*
X163078039Y-55188250D02*
G01*
X163267372Y-55266675D01*
X163401251Y-55322129D01*
X163692134Y-55516491D01*
X163939509Y-55763866D01*
X164133871Y-56054749D01*
X164133871Y-56054750D01*
X164267750Y-56377961D01*
X164336000Y-56721078D01*
X164336000Y-57070922D01*
X164267750Y-57414039D01*
X164189325Y-57603372D01*
X164133871Y-57737251D01*
X163939509Y-58028134D01*
X163692134Y-58275509D01*
X163401251Y-58469871D01*
X163267372Y-58525325D01*
X163078039Y-58603750D01*
X162734922Y-58672000D01*
X162385078Y-58672000D01*
X162041961Y-58603750D01*
X161852628Y-58525325D01*
X161718749Y-58469871D01*
X161427866Y-58275509D01*
X161180491Y-58028134D01*
X160986129Y-57737251D01*
X160930675Y-57603372D01*
X160852250Y-57414039D01*
X160784000Y-57070922D01*
X160784000Y-56721078D01*
X160852250Y-56377961D01*
X160986129Y-56054750D01*
X160986129Y-56054749D01*
X161180491Y-55763866D01*
X161427866Y-55516491D01*
X161718749Y-55322129D01*
X161852628Y-55266675D01*
X162041961Y-55188250D01*
X162385078Y-55120000D01*
X162734922Y-55120000D01*
X163078039Y-55188250D01*
X163078039Y-55188250D01*
G37*
G36*
X170698039Y-55188250D02*
G01*
X170887372Y-55266675D01*
X171021251Y-55322129D01*
X171312134Y-55516491D01*
X171559509Y-55763866D01*
X171753871Y-56054749D01*
X171753871Y-56054750D01*
X171887750Y-56377961D01*
X171956000Y-56721078D01*
X171956000Y-57070922D01*
X171887750Y-57414039D01*
X171809325Y-57603372D01*
X171753871Y-57737251D01*
X171559509Y-58028134D01*
X171312134Y-58275509D01*
X171021251Y-58469871D01*
X170887372Y-58525325D01*
X170698039Y-58603750D01*
X170354922Y-58672000D01*
X170005078Y-58672000D01*
X169661961Y-58603750D01*
X169472628Y-58525325D01*
X169338749Y-58469871D01*
X169047866Y-58275509D01*
X168800491Y-58028134D01*
X168606129Y-57737251D01*
X168550675Y-57603372D01*
X168472250Y-57414039D01*
X168404000Y-57070922D01*
X168404000Y-56721078D01*
X168472250Y-56377961D01*
X168606129Y-56054750D01*
X168606129Y-56054749D01*
X168800491Y-55763866D01*
X169047866Y-55516491D01*
X169338749Y-55322129D01*
X169472628Y-55266675D01*
X169661961Y-55188250D01*
X170005078Y-55120000D01*
X170354922Y-55120000D01*
X170698039Y-55188250D01*
X170698039Y-55188250D01*
G37*
G36*
X137678039Y-55188250D02*
G01*
X137867372Y-55266675D01*
X138001251Y-55322129D01*
X138292134Y-55516491D01*
X138539509Y-55763866D01*
X138733871Y-56054749D01*
X138733871Y-56054750D01*
X138867750Y-56377961D01*
X138936000Y-56721078D01*
X138936000Y-57070922D01*
X138867750Y-57414039D01*
X138789325Y-57603372D01*
X138733871Y-57737251D01*
X138539509Y-58028134D01*
X138292134Y-58275509D01*
X138001251Y-58469871D01*
X137867372Y-58525325D01*
X137678039Y-58603750D01*
X137334922Y-58672000D01*
X136985078Y-58672000D01*
X136641961Y-58603750D01*
X136452628Y-58525325D01*
X136318749Y-58469871D01*
X136027866Y-58275509D01*
X135780491Y-58028134D01*
X135586129Y-57737251D01*
X135530675Y-57603372D01*
X135452250Y-57414039D01*
X135384000Y-57070922D01*
X135384000Y-56721078D01*
X135452250Y-56377961D01*
X135586129Y-56054750D01*
X135586129Y-56054749D01*
X135780491Y-55763866D01*
X136027866Y-55516491D01*
X136318749Y-55322129D01*
X136452628Y-55266675D01*
X136641961Y-55188250D01*
X136985078Y-55120000D01*
X137334922Y-55120000D01*
X137678039Y-55188250D01*
X137678039Y-55188250D01*
G37*
G36*
X175903039Y-55184250D02*
G01*
X176092372Y-55262675D01*
X176226251Y-55318129D01*
X176517134Y-55512491D01*
X176764509Y-55759866D01*
X176958871Y-56050749D01*
X176960528Y-56054750D01*
X177092750Y-56373961D01*
X177161000Y-56717078D01*
X177161000Y-57066922D01*
X177092750Y-57410039D01*
X177014325Y-57599372D01*
X176958871Y-57733251D01*
X176764509Y-58024134D01*
X176517134Y-58271509D01*
X176226251Y-58465871D01*
X176092372Y-58521325D01*
X175903039Y-58599750D01*
X175559922Y-58668000D01*
X175210078Y-58668000D01*
X174866961Y-58599750D01*
X174677628Y-58521325D01*
X174543749Y-58465871D01*
X174252866Y-58271509D01*
X174005491Y-58024134D01*
X173811129Y-57733251D01*
X173755675Y-57599372D01*
X173677250Y-57410039D01*
X173609000Y-57066922D01*
X173609000Y-56717078D01*
X173677250Y-56373961D01*
X173809472Y-56054750D01*
X173811129Y-56050749D01*
X174005491Y-55759866D01*
X174252866Y-55512491D01*
X174543749Y-55318129D01*
X174677628Y-55262675D01*
X174866961Y-55184250D01*
X175210078Y-55116000D01*
X175559922Y-55116000D01*
X175903039Y-55184250D01*
X175903039Y-55184250D01*
G37*
G36*
X186063039Y-55184250D02*
G01*
X186252372Y-55262675D01*
X186386251Y-55318129D01*
X186677134Y-55512491D01*
X186924509Y-55759866D01*
X187118871Y-56050749D01*
X187120528Y-56054750D01*
X187252750Y-56373961D01*
X187321000Y-56717078D01*
X187321000Y-57066922D01*
X187252750Y-57410039D01*
X187174325Y-57599372D01*
X187118871Y-57733251D01*
X186924509Y-58024134D01*
X186677134Y-58271509D01*
X186386251Y-58465871D01*
X186252372Y-58521325D01*
X186063039Y-58599750D01*
X185719922Y-58668000D01*
X185370078Y-58668000D01*
X185026961Y-58599750D01*
X184837628Y-58521325D01*
X184703749Y-58465871D01*
X184412866Y-58271509D01*
X184165491Y-58024134D01*
X183971129Y-57733251D01*
X183915675Y-57599372D01*
X183837250Y-57410039D01*
X183769000Y-57066922D01*
X183769000Y-56717078D01*
X183837250Y-56373961D01*
X183969472Y-56054750D01*
X183971129Y-56050749D01*
X184165491Y-55759866D01*
X184412866Y-55512491D01*
X184703749Y-55318129D01*
X184837628Y-55262675D01*
X185026961Y-55184250D01*
X185370078Y-55116000D01*
X185719922Y-55116000D01*
X186063039Y-55184250D01*
X186063039Y-55184250D01*
G37*
M02*
