M48
; DRILL file {KiCad (5.1.4)-1} date 12/4/2020 3:56:56 PM
; FORMAT={-:-/ absolute / inch / decimal}
; #@! TF.CreationDate,2020-12-04T15:56:56-06:00
; #@! TF.GenerationSoftware,Kicad,Pcbnew,(5.1.4)-1
; #@! TF.FileFunction,Plated,1,2,PTH
FMAT,2
INCH
T1C0.0157
T2C0.0300
T3C0.0350
T4C0.0354
T5C0.0394
T6C0.1598
%
G90
G05
T1
X2.98Y-2.32
X2.98Y-2.38
X3.265Y-4.445
X3.45Y-4.01
X3.46Y-3.665
X3.61Y-4.08
X3.805Y-3.385
X3.805Y-3.425
X3.845Y-4.035
X3.865Y-3.77
X3.875Y-3.33
X3.8856Y-2.9144
X4.085Y-4.325
X4.12Y-3.83
X4.15Y-3.895
X4.1861Y-4.5639
X4.31Y-3.5
X4.385Y-3.355
X4.385Y-3.47
X4.45Y-3.48
X4.605Y-3.905
X4.81Y-2.73
X4.87Y-3.96
X4.87Y-5.11
X4.975Y-2.76
X5.01Y-2.785
X5.055Y-2.815
X5.09Y-2.84
X5.11Y-2.99
X5.12Y-4.8
X5.15Y-2.96
X5.4Y-4.065
X5.4156Y-2.9044
X5.49Y-4.54
X5.52Y-4.065
X5.5806Y-4.3994
X5.6389Y-4.6989
X5.82Y-2.94
X5.845Y-3.045
X5.845Y-4.135
X5.89Y-2.73
X5.95Y-3.08
X6.1193Y-4.1193
X6.21Y-2.93
X6.21Y-3.94
T2
X6.12Y-2.53
X3.14Y-2.53
X5.64Y-2.53
X6.6Y-2.53
X4.64Y-2.53
X5.14Y-2.53
X3.64Y-2.53
X4.14Y-2.53
X3.27Y-4.06
X7.46Y-2.53
T3
X5.52Y-3.39
X5.62Y-3.39
X5.72Y-3.39
X5.95Y-3.39
X6.05Y-3.39
X6.15Y-3.39
T4
X5.92Y-2.53
X6.02Y-2.53
X2.94Y-2.53
X3.04Y-2.53
X5.44Y-2.53
X5.54Y-2.53
X6.88Y-2.53
X6.98Y-2.53
X6.4Y-2.53
X6.5Y-2.53
X4.44Y-2.53
X4.54Y-2.53
X4.94Y-2.53
X5.04Y-2.53
X4.07Y-4.11
X4.07Y-4.2399
X4.1684Y-4.11
X4.1684Y-4.2399
X4.2669Y-4.11
X4.2669Y-4.2399
X3.44Y-2.53
X3.54Y-2.53
X3.27Y-3.65
X3.27Y-3.75
X3.94Y-2.53
X4.04Y-2.53
X3.27Y-4.16
X3.27Y-4.26
X7.26Y-2.53
X7.36Y-2.53
T5
X2.8015Y-3.1617
X2.8015Y-3.2617
X2.8015Y-4.8617
X2.8015Y-4.9617
X2.9015Y-3.1617
X2.9015Y-3.2617
X2.9015Y-4.8617
X2.9015Y-4.9617
X3.0015Y-3.1617
X3.0015Y-3.2617
X3.0015Y-4.8617
X3.0015Y-4.9617
X3.1015Y-3.1617
X3.1015Y-3.2617
X3.1015Y-4.8617
X3.1015Y-4.9617
X3.2015Y-3.1617
X3.2015Y-3.2617
X3.2015Y-4.8617
X3.2015Y-4.9617
X3.3015Y-3.1617
X3.3015Y-3.2617
X3.3015Y-4.8617
X3.3015Y-4.9617
X3.4015Y-3.1617
X3.4015Y-3.2617
X3.4015Y-4.8617
X3.4015Y-4.9617
X3.5015Y-3.1617
X3.5015Y-3.2617
X3.5015Y-4.8617
X3.5015Y-4.9617
X3.6015Y-3.1617
X3.6015Y-3.2617
X3.6015Y-4.8617
X3.6015Y-4.9617
X3.7015Y-3.1617
X3.7015Y-3.2617
X3.7015Y-4.8617
X3.7015Y-4.9617
X5.3015Y-3.1617
X5.3015Y-3.2617
X5.3015Y-4.8617
X5.3015Y-4.9617
X5.4015Y-3.1617
X5.4015Y-3.2617
X5.4015Y-4.8617
X5.4015Y-4.9617
X5.5015Y-3.1617
X5.5015Y-3.2617
X5.5015Y-4.8617
X5.5015Y-4.9617
X5.6015Y-3.1617
X5.6015Y-3.2617
X5.6015Y-4.8617
X5.6015Y-4.9617
X5.7015Y-3.1617
X5.7015Y-3.2617
X5.7015Y-4.8617
X5.7015Y-4.9617
X5.8015Y-3.1617
X5.8015Y-3.2617
X5.8015Y-4.8617
X5.8015Y-4.9617
X5.9015Y-3.1617
X5.9015Y-3.2617
X5.9015Y-4.8617
X5.9015Y-4.9617
X6.0015Y-3.1617
X6.0015Y-3.2617
X6.0015Y-4.8617
X6.0015Y-4.9617
X6.1015Y-3.1617
X6.1015Y-3.2617
X6.1015Y-4.8617
X6.1015Y-4.9617
X6.2015Y-3.1617
X6.2015Y-3.2617
X6.2015Y-4.8617
X6.2015Y-4.9617
T6
X6.939Y-3.635
X6.939Y-3.945
X6.54Y-4.345
X6.54Y-4.655
X6.54Y-4.965
X6.939Y-2.905
X6.939Y-3.215
T0
M30
