M48
; DRILL file {KiCad (5.1.4)-1} date 12/4/2020 3:56:56 PM
; FORMAT={-:-/ absolute / inch / decimal}
; #@! TF.CreationDate,2020-12-04T15:56:56-06:00
; #@! TF.GenerationSoftware,Kicad,Pcbnew,(5.1.4)-1
; #@! TF.FileFunction,NonPlated,1,2,NPTH
FMAT,2
INCH
T1C0.1358
%
G90
G05
T1
X3.39Y-2.19
X5.87Y-2.19
X6.17Y-2.19
X2.89Y-2.19
X3.19Y-2.19
X5.39Y-2.19
X5.69Y-2.19
X6.8349Y-2.1898
X7.025Y-2.19
X6.35Y-2.19
X6.65Y-2.19
X4.39Y-2.19
X4.69Y-2.19
X4.89Y-2.19
X5.19Y-2.19
X3.69Y-2.19
X2.9298Y-3.7951
X2.93Y-3.605
X3.89Y-2.19
X4.19Y-2.19
X2.93Y-4.01
X2.93Y-4.31
X7.21Y-2.19
X7.51Y-2.19
T0
M30
