G04 #@! TF.GenerationSoftware,KiCad,Pcbnew,(5.1.4)-1*
G04 #@! TF.CreationDate,2020-11-15T18:48:45-06:00*
G04 #@! TF.ProjectId,DriveBoard_2021,44726976-6542-46f6-9172-645f32303231,rev?*
G04 #@! TF.SameCoordinates,Original*
G04 #@! TF.FileFunction,Paste,Bot*
G04 #@! TF.FilePolarity,Positive*
%FSLAX46Y46*%
G04 Gerber Fmt 4.6, Leading zero omitted, Abs format (unit mm)*
G04 Created by KiCad (PCBNEW (5.1.4)-1) date 2020-11-15 18:48:45*
%MOMM*%
%LPD*%
G04 APERTURE LIST*
%ADD10R,0.990600X1.778000*%
G04 APERTURE END LIST*
D10*
X94017000Y-78631600D03*
X91477000Y-78631600D03*
X88937000Y-78631600D03*
X86397000Y-78631600D03*
X83857000Y-78631600D03*
X81317000Y-78631600D03*
X78777000Y-78631600D03*
X76237000Y-78631600D03*
X73697000Y-78631600D03*
X71157000Y-78631600D03*
X94017000Y-84524400D03*
X91477000Y-84524400D03*
X88937000Y-84524400D03*
X86397000Y-84524400D03*
X83857000Y-84524400D03*
X81317000Y-84524400D03*
X78777000Y-84524400D03*
X76237000Y-84524400D03*
X73697000Y-84524400D03*
X71157000Y-84524400D03*
X94017000Y-127704400D03*
X91477000Y-127704400D03*
X88937000Y-127704400D03*
X86397000Y-127704400D03*
X83857000Y-127704400D03*
X81317000Y-127704400D03*
X78777000Y-127704400D03*
X76237000Y-127704400D03*
X73697000Y-127704400D03*
X71157000Y-127704400D03*
X94017000Y-121811600D03*
X91477000Y-121811600D03*
X88937000Y-121811600D03*
X86397000Y-121811600D03*
X83857000Y-121811600D03*
X81317000Y-121811600D03*
X78777000Y-121811600D03*
X76237000Y-121811600D03*
X73697000Y-121811600D03*
X71157000Y-121811600D03*
X139737000Y-78631600D03*
X137197000Y-78631600D03*
X134657000Y-78631600D03*
X157517000Y-84524400D03*
X154977000Y-84524400D03*
X152437000Y-84524400D03*
X149897000Y-84524400D03*
X147357000Y-84524400D03*
X144817000Y-84524400D03*
X142277000Y-84524400D03*
X139737000Y-84524400D03*
X137197000Y-84524400D03*
X134657000Y-84524400D03*
X157517000Y-127704400D03*
X152437000Y-127704400D03*
X147357000Y-127704400D03*
X144817000Y-127704400D03*
X142277000Y-127704400D03*
X139737000Y-127704400D03*
X137197000Y-127704400D03*
X157517000Y-121811600D03*
X152437000Y-121811600D03*
X142277000Y-121811600D03*
X139737000Y-121811600D03*
X137197000Y-121811600D03*
X134657000Y-121811600D03*
X147357000Y-121811600D03*
X149897000Y-121811600D03*
X154977000Y-127704400D03*
X142277000Y-78631600D03*
X144817000Y-78631600D03*
X154977000Y-121811600D03*
X149897000Y-127704400D03*
X152437000Y-78631600D03*
X149897000Y-78631600D03*
X144817000Y-121811600D03*
X147357000Y-78631600D03*
X154977000Y-78631600D03*
X157517000Y-78631600D03*
X134657000Y-127704400D03*
M02*
