G04 #@! TF.GenerationSoftware,KiCad,Pcbnew,(5.1.4)-1*
G04 #@! TF.CreationDate,2020-11-30T13:33:46-06:00*
G04 #@! TF.ProjectId,DriveBoard_2021,44726976-6542-46f6-9172-645f32303231,rev?*
G04 #@! TF.SameCoordinates,Original*
G04 #@! TF.FileFunction,Profile,NP*
%FSLAX46Y46*%
G04 Gerber Fmt 4.6, Leading zero omitted, Abs format (unit mm)*
G04 Created by KiCad (PCBNEW (5.1.4)-1) date 2020-11-30 13:33:46*
%MOMM*%
%LPD*%
G04 APERTURE LIST*
%ADD10C,0.249936*%
G04 APERTURE END LIST*
D10*
X69850000Y-52832000D02*
X69850000Y-52578000D01*
X69850000Y-52578000D02*
G75*
G02X71374000Y-51054000I1524000J0D01*
G01*
X69850000Y-52832000D02*
X69850000Y-71374000D01*
X192532000Y-51054000D02*
X191516000Y-51054000D01*
X192532000Y-51054000D02*
G75*
G02X194310000Y-52832000I0J-1778000D01*
G01*
X171958000Y-51054000D02*
X191516000Y-51054000D01*
X194310000Y-71374000D02*
X194310000Y-52832000D01*
X71374000Y-51054000D02*
X171958000Y-51054000D01*
X194310000Y-104902000D02*
G75*
G02X192278000Y-106934000I-2032000J0D01*
G01*
X176530000Y-106934000D02*
X192278000Y-106934000D01*
X176530000Y-127762000D02*
X176530000Y-106934000D01*
X192278000Y-127762000D02*
X176530000Y-127762000D01*
X192278000Y-127762000D02*
G75*
G02X194310000Y-129794000I0J-2032000D01*
G01*
X194310000Y-137922000D02*
X194310000Y-129794000D01*
X194310000Y-141986000D02*
G75*
G02X194310000Y-137922000I0J2032000D01*
G01*
X194310000Y-150622000D02*
X194310000Y-141986000D01*
X194310000Y-150622000D02*
G75*
G02X192278000Y-152654000I-2032000J0D01*
G01*
X71882001Y-152653999D02*
G75*
G02X69850001Y-150622001I-254001J1777999D01*
G01*
X71882000Y-152654000D02*
X192278000Y-152654000D01*
X69850000Y-138049000D02*
X69850000Y-137922000D01*
X69850000Y-138049000D02*
G75*
G02X69850000Y-142113000I0J-2032000D01*
G01*
X69850000Y-142113000D02*
X69850000Y-150622000D01*
X194310000Y-104902000D02*
X194310000Y-71374000D01*
X69850000Y-137922000D02*
X69850000Y-71374000D01*
M02*
