G04 #@! TF.GenerationSoftware,KiCad,Pcbnew,(6.0.8)*
G04 #@! TF.CreationDate,2022-11-19T16:10:13-06:00*
G04 #@! TF.ProjectId,Driveboard_2023,44726976-6562-46f6-9172-645f32303233,rev?*
G04 #@! TF.SameCoordinates,Original*
G04 #@! TF.FileFunction,Legend,Bot*
G04 #@! TF.FilePolarity,Positive*
%FSLAX46Y46*%
G04 Gerber Fmt 4.6, Leading zero omitted, Abs format (unit mm)*
G04 Created by KiCad (PCBNEW (6.0.8)) date 2022-11-19 16:10:13*
%MOMM*%
%LPD*%
G01*
G04 APERTURE LIST*
%ADD10C,0.010000*%
%ADD11C,0.150000*%
%ADD12C,1.100000*%
%ADD13C,1.400000*%
%ADD14C,4.000000*%
%ADD15C,2.000000*%
%ADD16C,1.308000*%
%ADD17C,1.258000*%
%ADD18C,1.208000*%
%ADD19O,3.500000X2.200000*%
%ADD20R,2.500000X1.500000*%
%ADD21O,2.500000X1.500000*%
%ADD22C,1.524000*%
%ADD23O,3.000000X5.100000*%
%ADD24R,1.350000X1.350000*%
%ADD25O,1.350000X1.350000*%
%ADD26C,3.450000*%
G04 APERTURE END LIST*
G36*
X216716943Y-83272175D02*
G01*
X216710255Y-83277302D01*
X216619966Y-83333029D01*
X216440089Y-83437469D01*
X216183530Y-83583443D01*
X215863192Y-83763774D01*
X215491979Y-83971282D01*
X215082795Y-84198789D01*
X214648544Y-84439115D01*
X214202131Y-84685083D01*
X213756458Y-84929514D01*
X213324431Y-85165228D01*
X212918953Y-85385048D01*
X212669712Y-85521185D01*
X212403771Y-85670349D01*
X212192647Y-85793232D01*
X212053435Y-85879842D01*
X212003232Y-85920189D01*
X212010282Y-85936813D01*
X212098486Y-86013333D01*
X212275836Y-86128744D01*
X212527372Y-86275420D01*
X212838131Y-86445737D01*
X213193154Y-86632068D01*
X213577479Y-86826786D01*
X213976146Y-87022266D01*
X214374195Y-87210882D01*
X214756663Y-87385008D01*
X215108591Y-87537018D01*
X215415017Y-87659285D01*
X216034604Y-87892400D01*
X215775301Y-88043451D01*
X215771020Y-88045941D01*
X215632757Y-88125032D01*
X215411914Y-88249883D01*
X215129831Y-88408496D01*
X214807850Y-88588868D01*
X214467310Y-88779000D01*
X214454658Y-88786054D01*
X214062574Y-89006515D01*
X213605609Y-89266327D01*
X213120774Y-89544275D01*
X212645080Y-89819145D01*
X212215537Y-90069722D01*
X211785026Y-90321301D01*
X211291059Y-90608028D01*
X210780941Y-90902520D01*
X210294497Y-91181788D01*
X209871553Y-91422840D01*
X209403429Y-91689571D01*
X207584233Y-92749399D01*
X205718653Y-93871828D01*
X203836802Y-95038814D01*
X203025115Y-95550561D01*
X202063882Y-96159516D01*
X201190762Y-96716677D01*
X200397456Y-97227789D01*
X199675658Y-97698595D01*
X199017069Y-98134839D01*
X198413385Y-98542263D01*
X197856303Y-98926611D01*
X197337522Y-99293627D01*
X196848738Y-99649054D01*
X196381651Y-99998635D01*
X195927956Y-100348114D01*
X195479352Y-100703233D01*
X195027537Y-101069738D01*
X194564208Y-101453370D01*
X194075708Y-101867460D01*
X193142762Y-102698461D01*
X192319848Y-103490985D01*
X191605210Y-104247187D01*
X190997090Y-104969226D01*
X190493734Y-105659260D01*
X190093385Y-106319445D01*
X189794287Y-106951939D01*
X189594683Y-107558900D01*
X189589345Y-107580407D01*
X189509956Y-108101266D01*
X189505275Y-108688514D01*
X189575589Y-109315475D01*
X189606062Y-109495617D01*
X189515283Y-109299721D01*
X189494147Y-109250909D01*
X189401112Y-108930895D01*
X189344424Y-108537851D01*
X189327648Y-108107746D01*
X189354351Y-107676547D01*
X189362138Y-107613126D01*
X189421786Y-107243973D01*
X189508344Y-106892906D01*
X189631647Y-106530361D01*
X189801533Y-106126777D01*
X190027839Y-105652591D01*
X190029919Y-105648404D01*
X190378983Y-105012269D01*
X190807423Y-104350266D01*
X191317600Y-103660129D01*
X191911879Y-102939592D01*
X192592623Y-102186388D01*
X193362196Y-101398250D01*
X194222960Y-100572912D01*
X195177278Y-99708108D01*
X196227515Y-98801570D01*
X197376034Y-97851033D01*
X198625197Y-96854230D01*
X199977368Y-95808895D01*
X201434910Y-94712760D01*
X201520679Y-94649388D01*
X201829146Y-94424755D01*
X202220742Y-94143215D01*
X202683711Y-93812998D01*
X203206291Y-93442336D01*
X203776725Y-93039457D01*
X204383253Y-92612594D01*
X205014117Y-92169976D01*
X205657557Y-91719834D01*
X206301815Y-91270398D01*
X206935132Y-90829898D01*
X207545749Y-90406566D01*
X208121906Y-90008631D01*
X208651845Y-89644325D01*
X209123807Y-89321877D01*
X209526034Y-89049518D01*
X209767964Y-88886136D01*
X210076773Y-88675736D01*
X210339171Y-88494776D01*
X210541791Y-88352570D01*
X210671268Y-88258430D01*
X210714235Y-88221668D01*
X210701522Y-88223942D01*
X210598279Y-88262743D01*
X210399828Y-88344702D01*
X210116051Y-88465423D01*
X209756831Y-88620511D01*
X209332050Y-88805571D01*
X208851591Y-89016206D01*
X208325335Y-89248022D01*
X207763167Y-89496622D01*
X207174967Y-89757611D01*
X206570618Y-90026594D01*
X205960003Y-90299175D01*
X205353004Y-90570959D01*
X204759504Y-90837549D01*
X204189384Y-91094551D01*
X203652528Y-91337569D01*
X203158817Y-91562207D01*
X202718135Y-91764070D01*
X202340362Y-91938763D01*
X202035383Y-92081889D01*
X201730345Y-92227219D01*
X200889979Y-92634447D01*
X200133861Y-93011523D01*
X199465360Y-93356550D01*
X198887847Y-93667628D01*
X198404690Y-93942858D01*
X198019261Y-94180341D01*
X197734927Y-94378179D01*
X197555061Y-94534471D01*
X197483030Y-94647320D01*
X197482775Y-94648746D01*
X197522110Y-94756401D01*
X197662850Y-94872273D01*
X197687208Y-94887621D01*
X197771934Y-94960358D01*
X197759342Y-94994189D01*
X197665040Y-94983958D01*
X197504639Y-94924513D01*
X197409977Y-94860382D01*
X197352587Y-94722371D01*
X197400007Y-94540408D01*
X197549859Y-94318752D01*
X197799764Y-94061665D01*
X198147343Y-93773407D01*
X198431066Y-93567618D01*
X198835286Y-93295167D01*
X199329725Y-92977833D01*
X199905698Y-92620792D01*
X200554521Y-92229222D01*
X201267508Y-91808300D01*
X202035973Y-91363202D01*
X202851233Y-90899106D01*
X203704601Y-90421188D01*
X204587393Y-89934626D01*
X204778774Y-89829935D01*
X205326968Y-89529638D01*
X205908578Y-89210511D01*
X206495833Y-88887820D01*
X207060965Y-88576831D01*
X207576202Y-88292810D01*
X208013775Y-88051024D01*
X208315435Y-87884458D01*
X208814905Y-87610048D01*
X209334191Y-87326165D01*
X209842115Y-87049799D01*
X210307502Y-86797941D01*
X210699174Y-86587579D01*
X210865735Y-86498253D01*
X211190661Y-86321703D01*
X211469808Y-86166967D01*
X211688060Y-86042590D01*
X211830302Y-85957119D01*
X211881420Y-85919100D01*
X211878895Y-85912854D01*
X211812736Y-85852202D01*
X211674943Y-85750117D01*
X211489829Y-85624868D01*
X211439002Y-85591109D01*
X211273151Y-85469957D01*
X211168038Y-85374963D01*
X211144557Y-85324315D01*
X211148706Y-85321739D01*
X211233445Y-85285326D01*
X211415581Y-85213124D01*
X211682385Y-85109913D01*
X212021127Y-84980473D01*
X212419076Y-84829583D01*
X212863503Y-84662023D01*
X213341678Y-84482571D01*
X213840870Y-84296009D01*
X214348350Y-84107114D01*
X214851387Y-83920666D01*
X215337251Y-83741446D01*
X215793213Y-83574232D01*
X216206542Y-83423803D01*
X216382203Y-83361862D01*
X216572196Y-83299928D01*
X216690584Y-83268010D01*
X216716943Y-83272175D01*
G37*
D10*
X216716943Y-83272175D02*
X216710255Y-83277302D01*
X216619966Y-83333029D01*
X216440089Y-83437469D01*
X216183530Y-83583443D01*
X215863192Y-83763774D01*
X215491979Y-83971282D01*
X215082795Y-84198789D01*
X214648544Y-84439115D01*
X214202131Y-84685083D01*
X213756458Y-84929514D01*
X213324431Y-85165228D01*
X212918953Y-85385048D01*
X212669712Y-85521185D01*
X212403771Y-85670349D01*
X212192647Y-85793232D01*
X212053435Y-85879842D01*
X212003232Y-85920189D01*
X212010282Y-85936813D01*
X212098486Y-86013333D01*
X212275836Y-86128744D01*
X212527372Y-86275420D01*
X212838131Y-86445737D01*
X213193154Y-86632068D01*
X213577479Y-86826786D01*
X213976146Y-87022266D01*
X214374195Y-87210882D01*
X214756663Y-87385008D01*
X215108591Y-87537018D01*
X215415017Y-87659285D01*
X216034604Y-87892400D01*
X215775301Y-88043451D01*
X215771020Y-88045941D01*
X215632757Y-88125032D01*
X215411914Y-88249883D01*
X215129831Y-88408496D01*
X214807850Y-88588868D01*
X214467310Y-88779000D01*
X214454658Y-88786054D01*
X214062574Y-89006515D01*
X213605609Y-89266327D01*
X213120774Y-89544275D01*
X212645080Y-89819145D01*
X212215537Y-90069722D01*
X211785026Y-90321301D01*
X211291059Y-90608028D01*
X210780941Y-90902520D01*
X210294497Y-91181788D01*
X209871553Y-91422840D01*
X209403429Y-91689571D01*
X207584233Y-92749399D01*
X205718653Y-93871828D01*
X203836802Y-95038814D01*
X203025115Y-95550561D01*
X202063882Y-96159516D01*
X201190762Y-96716677D01*
X200397456Y-97227789D01*
X199675658Y-97698595D01*
X199017069Y-98134839D01*
X198413385Y-98542263D01*
X197856303Y-98926611D01*
X197337522Y-99293627D01*
X196848738Y-99649054D01*
X196381651Y-99998635D01*
X195927956Y-100348114D01*
X195479352Y-100703233D01*
X195027537Y-101069738D01*
X194564208Y-101453370D01*
X194075708Y-101867460D01*
X193142762Y-102698461D01*
X192319848Y-103490985D01*
X191605210Y-104247187D01*
X190997090Y-104969226D01*
X190493734Y-105659260D01*
X190093385Y-106319445D01*
X189794287Y-106951939D01*
X189594683Y-107558900D01*
X189589345Y-107580407D01*
X189509956Y-108101266D01*
X189505275Y-108688514D01*
X189575589Y-109315475D01*
X189606062Y-109495617D01*
X189515283Y-109299721D01*
X189494147Y-109250909D01*
X189401112Y-108930895D01*
X189344424Y-108537851D01*
X189327648Y-108107746D01*
X189354351Y-107676547D01*
X189362138Y-107613126D01*
X189421786Y-107243973D01*
X189508344Y-106892906D01*
X189631647Y-106530361D01*
X189801533Y-106126777D01*
X190027839Y-105652591D01*
X190029919Y-105648404D01*
X190378983Y-105012269D01*
X190807423Y-104350266D01*
X191317600Y-103660129D01*
X191911879Y-102939592D01*
X192592623Y-102186388D01*
X193362196Y-101398250D01*
X194222960Y-100572912D01*
X195177278Y-99708108D01*
X196227515Y-98801570D01*
X197376034Y-97851033D01*
X198625197Y-96854230D01*
X199977368Y-95808895D01*
X201434910Y-94712760D01*
X201520679Y-94649388D01*
X201829146Y-94424755D01*
X202220742Y-94143215D01*
X202683711Y-93812998D01*
X203206291Y-93442336D01*
X203776725Y-93039457D01*
X204383253Y-92612594D01*
X205014117Y-92169976D01*
X205657557Y-91719834D01*
X206301815Y-91270398D01*
X206935132Y-90829898D01*
X207545749Y-90406566D01*
X208121906Y-90008631D01*
X208651845Y-89644325D01*
X209123807Y-89321877D01*
X209526034Y-89049518D01*
X209767964Y-88886136D01*
X210076773Y-88675736D01*
X210339171Y-88494776D01*
X210541791Y-88352570D01*
X210671268Y-88258430D01*
X210714235Y-88221668D01*
X210701522Y-88223942D01*
X210598279Y-88262743D01*
X210399828Y-88344702D01*
X210116051Y-88465423D01*
X209756831Y-88620511D01*
X209332050Y-88805571D01*
X208851591Y-89016206D01*
X208325335Y-89248022D01*
X207763167Y-89496622D01*
X207174967Y-89757611D01*
X206570618Y-90026594D01*
X205960003Y-90299175D01*
X205353004Y-90570959D01*
X204759504Y-90837549D01*
X204189384Y-91094551D01*
X203652528Y-91337569D01*
X203158817Y-91562207D01*
X202718135Y-91764070D01*
X202340362Y-91938763D01*
X202035383Y-92081889D01*
X201730345Y-92227219D01*
X200889979Y-92634447D01*
X200133861Y-93011523D01*
X199465360Y-93356550D01*
X198887847Y-93667628D01*
X198404690Y-93942858D01*
X198019261Y-94180341D01*
X197734927Y-94378179D01*
X197555061Y-94534471D01*
X197483030Y-94647320D01*
X197482775Y-94648746D01*
X197522110Y-94756401D01*
X197662850Y-94872273D01*
X197687208Y-94887621D01*
X197771934Y-94960358D01*
X197759342Y-94994189D01*
X197665040Y-94983958D01*
X197504639Y-94924513D01*
X197409977Y-94860382D01*
X197352587Y-94722371D01*
X197400007Y-94540408D01*
X197549859Y-94318752D01*
X197799764Y-94061665D01*
X198147343Y-93773407D01*
X198431066Y-93567618D01*
X198835286Y-93295167D01*
X199329725Y-92977833D01*
X199905698Y-92620792D01*
X200554521Y-92229222D01*
X201267508Y-91808300D01*
X202035973Y-91363202D01*
X202851233Y-90899106D01*
X203704601Y-90421188D01*
X204587393Y-89934626D01*
X204778774Y-89829935D01*
X205326968Y-89529638D01*
X205908578Y-89210511D01*
X206495833Y-88887820D01*
X207060965Y-88576831D01*
X207576202Y-88292810D01*
X208013775Y-88051024D01*
X208315435Y-87884458D01*
X208814905Y-87610048D01*
X209334191Y-87326165D01*
X209842115Y-87049799D01*
X210307502Y-86797941D01*
X210699174Y-86587579D01*
X210865735Y-86498253D01*
X211190661Y-86321703D01*
X211469808Y-86166967D01*
X211688060Y-86042590D01*
X211830302Y-85957119D01*
X211881420Y-85919100D01*
X211878895Y-85912854D01*
X211812736Y-85852202D01*
X211674943Y-85750117D01*
X211489829Y-85624868D01*
X211439002Y-85591109D01*
X211273151Y-85469957D01*
X211168038Y-85374963D01*
X211144557Y-85324315D01*
X211148706Y-85321739D01*
X211233445Y-85285326D01*
X211415581Y-85213124D01*
X211682385Y-85109913D01*
X212021127Y-84980473D01*
X212419076Y-84829583D01*
X212863503Y-84662023D01*
X213341678Y-84482571D01*
X213840870Y-84296009D01*
X214348350Y-84107114D01*
X214851387Y-83920666D01*
X215337251Y-83741446D01*
X215793213Y-83574232D01*
X216206542Y-83423803D01*
X216382203Y-83361862D01*
X216572196Y-83299928D01*
X216690584Y-83268010D01*
X216716943Y-83272175D01*
G36*
X216867062Y-83194908D02*
G01*
X216837038Y-83224932D01*
X216807014Y-83194908D01*
X216837038Y-83164884D01*
X216867062Y-83194908D01*
G37*
X216867062Y-83194908D02*
X216837038Y-83224932D01*
X216807014Y-83194908D01*
X216837038Y-83164884D01*
X216867062Y-83194908D01*
G36*
X242237038Y-52767610D02*
G01*
X242261507Y-52776465D01*
X242553229Y-52867300D01*
X242859409Y-52941504D01*
X243117619Y-52983754D01*
X243165046Y-52988640D01*
X243877079Y-53109548D01*
X244519030Y-53310383D01*
X245084087Y-53587126D01*
X245565442Y-53935759D01*
X245955555Y-54351484D01*
X245956286Y-54352262D01*
X246249810Y-54832615D01*
X246266217Y-54867539D01*
X246370697Y-55106986D01*
X246454601Y-55326736D01*
X246501051Y-55483088D01*
X246538472Y-55601631D01*
X246631982Y-55804878D01*
X246752293Y-56011652D01*
X246864623Y-56190426D01*
X247220354Y-56876408D01*
X247510837Y-57633567D01*
X247675441Y-58240053D01*
X247728144Y-58434238D01*
X247864344Y-59250757D01*
X247911506Y-60055462D01*
X247913996Y-60169955D01*
X247939661Y-60331045D01*
X248010021Y-60472734D01*
X248145570Y-60646798D01*
X248326643Y-60872308D01*
X248754392Y-61523778D01*
X249066425Y-62205765D01*
X249262289Y-62917350D01*
X249310944Y-63301165D01*
X249322410Y-63822107D01*
X249283531Y-64354965D01*
X249196102Y-64847397D01*
X249101990Y-65155252D01*
X248947133Y-65549204D01*
X248755006Y-65966665D01*
X248543293Y-66369429D01*
X248329677Y-66719291D01*
X248046613Y-67116255D01*
X247619227Y-67642249D01*
X247125946Y-68173501D01*
X246559251Y-68716775D01*
X245911624Y-69278830D01*
X245175545Y-69866429D01*
X244343497Y-70486332D01*
X243407960Y-71145302D01*
X243151274Y-71321927D01*
X242826308Y-71545783D01*
X242540869Y-71742691D01*
X242309820Y-71902386D01*
X242148026Y-72014602D01*
X242070350Y-72069074D01*
X242001668Y-72167310D01*
X241935401Y-72370980D01*
X241871150Y-72686634D01*
X241845856Y-72830546D01*
X241545776Y-74186481D01*
X241136482Y-75544932D01*
X240625499Y-76885925D01*
X240020352Y-78189485D01*
X239328566Y-79435638D01*
X239102131Y-79800769D01*
X238236763Y-81052529D01*
X237281837Y-82228304D01*
X236243122Y-83323866D01*
X235126387Y-84334986D01*
X233937401Y-85257434D01*
X232681934Y-86086982D01*
X231365755Y-86819401D01*
X229994633Y-87450461D01*
X228574337Y-87975934D01*
X227110637Y-88391591D01*
X226257513Y-88581673D01*
X225435343Y-88727594D01*
X224621245Y-88830485D01*
X223784168Y-88893459D01*
X222893059Y-88919626D01*
X221916867Y-88912100D01*
X221829964Y-88910049D01*
X221124562Y-88885767D01*
X220501064Y-88847509D01*
X219925521Y-88791351D01*
X219363986Y-88713367D01*
X218782511Y-88609631D01*
X218147150Y-88476218D01*
X217415655Y-88313809D01*
X217247401Y-88446157D01*
X217197951Y-88487218D01*
X217054187Y-88612390D01*
X216843964Y-88799018D01*
X216580857Y-89034780D01*
X216278440Y-89307357D01*
X215950288Y-89604427D01*
X215609975Y-89913668D01*
X215271075Y-90222761D01*
X214947162Y-90519383D01*
X214651811Y-90791214D01*
X214398595Y-91025934D01*
X214201090Y-91211220D01*
X213974515Y-91434320D01*
X213688024Y-91733725D01*
X213390416Y-92059576D01*
X213101037Y-92389742D01*
X212839237Y-92702090D01*
X212624361Y-92974489D01*
X212475759Y-93184807D01*
X212468319Y-93196635D01*
X212341263Y-93462247D01*
X212301559Y-93729950D01*
X212300240Y-93830131D01*
X212290858Y-93935493D01*
X212263438Y-93947426D01*
X212207291Y-93883324D01*
X212191175Y-93859949D01*
X212140552Y-93665751D01*
X212179363Y-93394773D01*
X212306872Y-93049093D01*
X212522339Y-92630793D01*
X212825028Y-92141953D01*
X212843160Y-92114621D01*
X213099318Y-91745802D01*
X213397403Y-91347543D01*
X213744876Y-90910900D01*
X214149197Y-90426926D01*
X214617826Y-89886677D01*
X215158226Y-89281208D01*
X215777856Y-88601574D01*
X215813268Y-88563045D01*
X216022123Y-88333883D01*
X216160077Y-88174961D01*
X216236784Y-88070844D01*
X216261893Y-88006095D01*
X216245056Y-87965279D01*
X216195925Y-87932962D01*
X216137346Y-87898489D01*
X216116639Y-87858919D01*
X216176448Y-87808662D01*
X216330476Y-87726719D01*
X216409273Y-87685971D01*
X216600993Y-87582690D01*
X216746967Y-87498738D01*
X216752428Y-87495430D01*
X216796872Y-87482853D01*
X216755495Y-87547724D01*
X216630618Y-87686300D01*
X216503975Y-87826028D01*
X216414742Y-87938696D01*
X216390428Y-87991126D01*
X216405630Y-87999890D01*
X216511371Y-88039353D01*
X216684588Y-88094641D01*
X216889986Y-88155496D01*
X217092270Y-88211662D01*
X217256145Y-88252884D01*
X217346317Y-88268903D01*
X217371098Y-88259458D01*
X217480064Y-88188484D01*
X217653190Y-88059371D01*
X217872610Y-87885686D01*
X218120457Y-87680997D01*
X218169868Y-87639433D01*
X218470553Y-87388037D01*
X218781615Y-87130162D01*
X219069081Y-86893878D01*
X219298977Y-86707257D01*
X219395066Y-86629713D01*
X219624193Y-86443423D01*
X219914309Y-86206360D01*
X220245384Y-85934935D01*
X220597384Y-85645556D01*
X220950277Y-85354631D01*
X221206949Y-85143837D01*
X221574827Y-84848233D01*
X221893125Y-84603993D01*
X222186918Y-84393420D01*
X222481282Y-84198818D01*
X222801293Y-84002492D01*
X223172026Y-83786745D01*
X223795265Y-83427200D01*
X225097472Y-82653457D01*
X226327233Y-81888941D01*
X227513442Y-81115009D01*
X228684992Y-80313018D01*
X229870777Y-79464323D01*
X230422587Y-79067998D01*
X230928232Y-78721153D01*
X231408310Y-78411560D01*
X231895576Y-78118108D01*
X232422786Y-77819691D01*
X232466734Y-77795372D01*
X232895070Y-77552311D01*
X233351158Y-77284222D01*
X233801505Y-77011367D01*
X234212613Y-76754007D01*
X234550986Y-76532402D01*
X234775863Y-76384287D01*
X235145230Y-76151324D01*
X235574002Y-75889547D01*
X236035792Y-75614807D01*
X236504213Y-75342950D01*
X236952877Y-75089826D01*
X237238774Y-74930311D01*
X237757975Y-74636298D01*
X238289459Y-74330394D01*
X238822617Y-74019074D01*
X239346841Y-73708814D01*
X239851523Y-73406089D01*
X240326053Y-73117375D01*
X240759823Y-72849147D01*
X241142226Y-72607881D01*
X241462652Y-72400054D01*
X241710493Y-72232139D01*
X241875141Y-72110613D01*
X241945987Y-72041951D01*
X241985064Y-71934570D01*
X242035354Y-71686744D01*
X242076925Y-71346657D01*
X242109658Y-70930704D01*
X242133432Y-70455280D01*
X242148127Y-69936779D01*
X242153624Y-69391595D01*
X242149802Y-68836122D01*
X242136542Y-68286755D01*
X242113723Y-67759889D01*
X242081226Y-67271918D01*
X242038929Y-66839235D01*
X241986715Y-66478236D01*
X241977453Y-66426481D01*
X246003893Y-66426481D01*
X246033670Y-66413798D01*
X246130557Y-66329122D01*
X246282685Y-66183258D01*
X246478182Y-65987013D01*
X246606306Y-65854031D01*
X246939080Y-65478926D01*
X247200460Y-65125943D01*
X247412691Y-64762696D01*
X247598018Y-64356802D01*
X247684802Y-64108680D01*
X247742984Y-63819650D01*
X247768275Y-63469376D01*
X247770267Y-63392998D01*
X247771481Y-63149762D01*
X247765059Y-62952770D01*
X247751956Y-62838880D01*
X247727582Y-62760831D01*
X247675441Y-62677700D01*
X247627792Y-62713695D01*
X247588330Y-62868156D01*
X247555217Y-63030898D01*
X247472342Y-63340114D01*
X247358817Y-63702663D01*
X247225867Y-64085161D01*
X247084720Y-64454223D01*
X246946601Y-64776466D01*
X246936459Y-64798313D01*
X246704526Y-65254781D01*
X246397132Y-65791050D01*
X246011663Y-66411693D01*
X246003893Y-66426481D01*
X241977453Y-66426481D01*
X241950265Y-66274566D01*
X241503311Y-66748449D01*
X241056358Y-67222331D01*
X241432049Y-66754001D01*
X241538355Y-66622712D01*
X241688167Y-66442247D01*
X241800658Y-66312436D01*
X241857259Y-66255067D01*
X241873026Y-66240571D01*
X241899049Y-66150977D01*
X241986330Y-66150977D01*
X242015902Y-66133417D01*
X242105976Y-66039452D01*
X242239440Y-65882124D01*
X242400071Y-65679903D01*
X242523931Y-65518854D01*
X242763531Y-65201285D01*
X242927583Y-64973523D01*
X243015560Y-64836318D01*
X243026934Y-64790416D01*
X243023957Y-64791317D01*
X242966663Y-64847268D01*
X242857908Y-64975327D01*
X242713532Y-65154781D01*
X242549377Y-65364919D01*
X242381282Y-65585030D01*
X242225090Y-65794403D01*
X242096640Y-65972326D01*
X242011773Y-66098087D01*
X241986330Y-66150977D01*
X241899049Y-66150977D01*
X241901461Y-66142674D01*
X241896881Y-65958326D01*
X241858583Y-65678061D01*
X241785866Y-65292416D01*
X241766537Y-65201257D01*
X241712896Y-64965300D01*
X241649576Y-64700345D01*
X243047676Y-64700345D01*
X243077700Y-64730369D01*
X243107724Y-64700345D01*
X243077700Y-64670322D01*
X243047676Y-64700345D01*
X241649576Y-64700345D01*
X241645253Y-64682254D01*
X241569579Y-64375536D01*
X241491841Y-64068564D01*
X241418010Y-63784758D01*
X241354054Y-63547533D01*
X241305944Y-63380310D01*
X241279649Y-63306504D01*
X241249636Y-63330997D01*
X241144356Y-63428549D01*
X240974460Y-63590056D01*
X240751508Y-63804445D01*
X240487063Y-64060643D01*
X240192685Y-64347577D01*
X240105758Y-64432415D01*
X239569442Y-64950887D01*
X238988024Y-65505469D01*
X238374592Y-66084145D01*
X237742232Y-66674898D01*
X237104033Y-67265713D01*
X236473083Y-67844571D01*
X235862469Y-68399458D01*
X235285279Y-68918355D01*
X234754600Y-69389246D01*
X234283521Y-69800114D01*
X233885129Y-70138944D01*
X233743604Y-70263529D01*
X233513575Y-70477560D01*
X233221730Y-70757185D01*
X232879469Y-71091190D01*
X232498194Y-71468357D01*
X232089307Y-71877472D01*
X231664208Y-72307319D01*
X231234298Y-72746681D01*
X230997581Y-72990267D01*
X230492337Y-73511861D01*
X230058123Y-73960578D01*
X229684628Y-74344350D01*
X229361544Y-74671105D01*
X229078561Y-74948776D01*
X228825371Y-75185291D01*
X228591663Y-75388580D01*
X228367129Y-75566576D01*
X228141459Y-75727206D01*
X227904344Y-75878403D01*
X227645474Y-76028095D01*
X227354541Y-76184214D01*
X227021236Y-76354689D01*
X226635248Y-76547451D01*
X226186268Y-76770430D01*
X225663988Y-77031556D01*
X225280357Y-77224223D01*
X224603711Y-77562695D01*
X223900608Y-77912661D01*
X223163594Y-78277766D01*
X222385215Y-78661655D01*
X221558019Y-79067973D01*
X220674550Y-79500367D01*
X219727356Y-79962481D01*
X218708983Y-80457962D01*
X217611977Y-80990454D01*
X216428885Y-81563602D01*
X215152253Y-82181054D01*
X213774627Y-82846453D01*
X213535312Y-82962029D01*
X212936611Y-83251644D01*
X212373164Y-83524874D01*
X211854092Y-83777256D01*
X211388514Y-84004330D01*
X210985551Y-84201632D01*
X210654322Y-84364702D01*
X210403949Y-84489078D01*
X210243549Y-84570298D01*
X210182245Y-84603901D01*
X210185438Y-84628132D01*
X210258680Y-84713308D01*
X210401033Y-84839054D01*
X210593851Y-84987970D01*
X211055049Y-85324779D01*
X210883632Y-85389597D01*
X210791265Y-85424589D01*
X210330881Y-85600452D01*
X209799365Y-85805412D01*
X209217083Y-86031469D01*
X208604402Y-86270618D01*
X207981687Y-86514859D01*
X207369304Y-86756187D01*
X206787619Y-86986602D01*
X206256998Y-87198101D01*
X205797807Y-87382681D01*
X205430412Y-87532339D01*
X205004919Y-87708310D01*
X204534715Y-87905969D01*
X204151427Y-88072107D01*
X203840836Y-88213472D01*
X203588721Y-88336813D01*
X203380863Y-88448876D01*
X203203042Y-88556410D01*
X203041036Y-88666163D01*
X202957965Y-88724833D01*
X202804006Y-88827094D01*
X202731631Y-88858539D01*
X202731197Y-88821140D01*
X202793061Y-88716869D01*
X202842599Y-88656567D01*
X203017810Y-88503347D01*
X203292479Y-88304909D01*
X203660392Y-88064844D01*
X204115336Y-87786744D01*
X204651097Y-87474197D01*
X205261461Y-87130796D01*
X205940213Y-86760130D01*
X206681142Y-86365791D01*
X207478032Y-85951368D01*
X208324670Y-85520453D01*
X208599809Y-85381474D01*
X208999699Y-85178029D01*
X209354970Y-84995534D01*
X209653060Y-84840537D01*
X209881410Y-84719586D01*
X210027459Y-84639231D01*
X210078644Y-84606019D01*
X210038136Y-84560533D01*
X209926075Y-84462845D01*
X209767818Y-84335806D01*
X209621311Y-84214904D01*
X209361517Y-83981768D01*
X209053197Y-83689831D01*
X208714329Y-83357312D01*
X208362888Y-83002434D01*
X208016850Y-82643418D01*
X207694191Y-82298484D01*
X207412888Y-81985854D01*
X207190915Y-81723750D01*
X206660913Y-81040465D01*
X205776495Y-79756240D01*
X205004512Y-78430078D01*
X204344435Y-77060698D01*
X203795735Y-75646821D01*
X203357883Y-74187166D01*
X203030351Y-72680454D01*
X202812609Y-71125404D01*
X202791472Y-70881027D01*
X202764882Y-70386933D01*
X202750063Y-69822785D01*
X202746777Y-69219755D01*
X202754782Y-68609010D01*
X202773837Y-68021721D01*
X202803702Y-67489058D01*
X202844137Y-67042189D01*
X203000089Y-65952455D01*
X203317708Y-64440425D01*
X203747126Y-62967732D01*
X204286359Y-61538933D01*
X204933421Y-60158582D01*
X205686327Y-58831235D01*
X206543093Y-57561447D01*
X207501732Y-56353773D01*
X207650183Y-56184970D01*
X208009570Y-55798437D01*
X208422079Y-55377567D01*
X208861630Y-54947611D01*
X209302140Y-54533823D01*
X209717530Y-54161454D01*
X210081719Y-53855758D01*
X210521412Y-53513468D01*
X211119699Y-53095211D01*
X233860442Y-53095211D01*
X233877163Y-53116045D01*
X233970277Y-53197477D01*
X234126805Y-53322532D01*
X234325809Y-53474163D01*
X235023910Y-54022439D01*
X236126938Y-55008396D01*
X237157033Y-56083395D01*
X238108204Y-57239327D01*
X238974456Y-58468083D01*
X239749797Y-59761553D01*
X240428234Y-61111628D01*
X241003773Y-62510200D01*
X241008741Y-62523707D01*
X241106848Y-62788031D01*
X241189604Y-63006651D01*
X241248431Y-63157184D01*
X241274753Y-63217251D01*
X241290320Y-63210382D01*
X241372642Y-63134418D01*
X241513753Y-62987521D01*
X241587169Y-62907708D01*
X245593103Y-62907708D01*
X245593351Y-62972655D01*
X245593397Y-62972700D01*
X245622823Y-62933541D01*
X245675144Y-62799722D01*
X245743934Y-62592977D01*
X245822764Y-62335038D01*
X245905206Y-62047638D01*
X245984834Y-61752511D01*
X246055218Y-61471389D01*
X246109933Y-61226005D01*
X246115920Y-61196508D01*
X246176232Y-60891505D01*
X246211068Y-60678920D01*
X246219727Y-60535532D01*
X246201507Y-60438121D01*
X246155709Y-60363465D01*
X246081631Y-60288342D01*
X246067529Y-60275097D01*
X246003161Y-60218968D01*
X245955555Y-60199050D01*
X245920284Y-60229256D01*
X245892924Y-60323502D01*
X245869048Y-60495700D01*
X245844231Y-60759764D01*
X245814047Y-61129609D01*
X245782442Y-61477496D01*
X245742449Y-61846861D01*
X245699947Y-62184572D01*
X245660091Y-62446536D01*
X245644404Y-62538180D01*
X245611331Y-62753342D01*
X245593103Y-62907708D01*
X241587169Y-62907708D01*
X241701477Y-62783439D01*
X241923638Y-62535922D01*
X242168060Y-62258719D01*
X242422569Y-61965579D01*
X242674987Y-61670252D01*
X242913140Y-61386487D01*
X243026934Y-61247569D01*
X243077700Y-61185595D01*
X243124852Y-61128033D01*
X243195887Y-61039267D01*
X243443896Y-60720992D01*
X243690566Y-60393357D01*
X243910704Y-60090225D01*
X244079115Y-59845457D01*
X244184218Y-59678693D01*
X244310449Y-59456829D01*
X244396778Y-59277507D01*
X244428764Y-59168678D01*
X244426081Y-59136678D01*
X244399346Y-59068870D01*
X244334659Y-58992299D01*
X244220673Y-58899022D01*
X244046043Y-58781100D01*
X243799426Y-58630593D01*
X243469475Y-58439559D01*
X243044845Y-58200059D01*
X242997242Y-58173433D01*
X242550323Y-57927003D01*
X242137599Y-57707488D01*
X241738094Y-57505094D01*
X241330831Y-57310026D01*
X240894832Y-57112492D01*
X240409120Y-56902698D01*
X239852719Y-56670849D01*
X239204650Y-56407153D01*
X238894935Y-56281378D01*
X238492047Y-56115220D01*
X238141379Y-55967590D01*
X237854810Y-55843651D01*
X237644218Y-55748565D01*
X237521479Y-55687494D01*
X237498472Y-55665601D01*
X237532701Y-55668072D01*
X237687168Y-55695290D01*
X237930195Y-55748620D01*
X238242908Y-55823203D01*
X238606435Y-55914182D01*
X239001902Y-56016696D01*
X239410434Y-56125887D01*
X239813158Y-56236896D01*
X240191202Y-56344864D01*
X240525690Y-56444933D01*
X240708186Y-56502805D01*
X241173532Y-56660259D01*
X241696302Y-56847789D01*
X242242046Y-57052340D01*
X242776315Y-57260857D01*
X243264662Y-57460284D01*
X243672638Y-57637566D01*
X243713233Y-57655834D01*
X243907434Y-57738062D01*
X244049960Y-57789987D01*
X244112387Y-57801041D01*
X244113553Y-57799582D01*
X244102987Y-57725190D01*
X244043946Y-57572954D01*
X243948558Y-57366856D01*
X243828951Y-57130877D01*
X243697251Y-56888997D01*
X243565585Y-56665197D01*
X243446082Y-56483459D01*
X243409557Y-56433506D01*
X243109424Y-56072961D01*
X242745120Y-55700743D01*
X242354449Y-55353258D01*
X241975215Y-55066914D01*
X241797382Y-54954282D01*
X241438976Y-54752529D01*
X241020106Y-54539191D01*
X240573859Y-54330170D01*
X240133323Y-54141367D01*
X239731584Y-53988682D01*
X239207690Y-53806214D01*
X238491153Y-53923113D01*
X238263837Y-53961580D01*
X237849035Y-54036352D01*
X237420653Y-54118011D01*
X237042071Y-54194681D01*
X237015322Y-54200308D01*
X236737979Y-54256134D01*
X236508161Y-54297989D01*
X236349119Y-54321908D01*
X236284102Y-54323926D01*
X236284217Y-54312764D01*
X236359806Y-54262229D01*
X236534468Y-54183700D01*
X236796698Y-54081747D01*
X237134993Y-53960939D01*
X237537849Y-53825848D01*
X237571256Y-53814877D01*
X237826470Y-53725689D01*
X237960389Y-53672457D01*
X241396376Y-53672457D01*
X241980226Y-53970925D01*
X242678484Y-54362457D01*
X243377431Y-54846537D01*
X243980100Y-55378424D01*
X244497188Y-55967709D01*
X244939397Y-56623986D01*
X244967457Y-56671607D01*
X245084432Y-56869309D01*
X245156155Y-56986053D01*
X245195993Y-57040717D01*
X245217312Y-57052178D01*
X245233480Y-57039313D01*
X245249976Y-56977303D01*
X245272332Y-56827297D01*
X245294799Y-56623986D01*
X245332017Y-56233679D01*
X245040146Y-55873395D01*
X244825097Y-55621458D01*
X244210957Y-55019067D01*
X243493009Y-54464300D01*
X242666538Y-53953341D01*
X242526221Y-53878072D01*
X242301860Y-53779238D01*
X242087425Y-53725191D01*
X241825876Y-53698651D01*
X241396376Y-53672457D01*
X237960389Y-53672457D01*
X238023685Y-53647297D01*
X238143958Y-53587827D01*
X238168345Y-53555405D01*
X238098164Y-53532288D01*
X237921902Y-53492290D01*
X237669103Y-53443542D01*
X237363341Y-53389987D01*
X237028193Y-53335567D01*
X236687235Y-53284226D01*
X236364043Y-53239906D01*
X236082192Y-53206548D01*
X235913090Y-53190012D01*
X235602246Y-53163969D01*
X235265213Y-53139892D01*
X234922838Y-53118825D01*
X234595966Y-53101814D01*
X234305444Y-53089902D01*
X234072118Y-53084134D01*
X233916836Y-53085556D01*
X233860442Y-53095211D01*
X211119699Y-53095211D01*
X211788247Y-52627835D01*
X213106086Y-51850817D01*
X214475202Y-51182301D01*
X215895869Y-50622176D01*
X217368359Y-50170329D01*
X218892944Y-49826649D01*
X220469899Y-49591023D01*
X220706287Y-49569689D01*
X221111479Y-49547027D01*
X221588881Y-49531602D01*
X222111052Y-49523414D01*
X222650552Y-49522463D01*
X223179940Y-49528748D01*
X223671774Y-49542270D01*
X224098614Y-49563028D01*
X224433019Y-49591023D01*
X225490262Y-49735888D01*
X227027041Y-50041453D01*
X228508684Y-50453497D01*
X229935859Y-50972245D01*
X231309233Y-51597918D01*
X232629473Y-52330739D01*
X233289993Y-52732224D01*
X234072118Y-52738485D01*
X235241530Y-52747845D01*
X235846300Y-52754827D01*
X236484555Y-52769084D01*
X237040059Y-52791281D01*
X237533198Y-52823091D01*
X237984359Y-52866185D01*
X238413928Y-52922236D01*
X238842293Y-52992915D01*
X239289840Y-53079896D01*
X239302880Y-53082565D01*
X239636283Y-53137489D01*
X239945330Y-53164959D01*
X240206892Y-53164932D01*
X240397840Y-53137361D01*
X240495044Y-53082205D01*
X240494843Y-53076096D01*
X240427037Y-53034685D01*
X240264956Y-52971000D01*
X240026449Y-52890594D01*
X239729367Y-52799023D01*
X239391559Y-52701839D01*
X239030877Y-52604597D01*
X238665169Y-52512851D01*
X238446737Y-52463181D01*
X237926586Y-52360595D01*
X237329281Y-52259226D01*
X236682593Y-52162625D01*
X236014288Y-52074344D01*
X235352138Y-51997933D01*
X234723911Y-51936944D01*
X234157375Y-51894926D01*
X233680300Y-51875431D01*
X233528510Y-51871780D01*
X233434744Y-51862930D01*
X233439345Y-51844542D01*
X233530182Y-51811444D01*
X233563683Y-51802892D01*
X233739633Y-51780335D01*
X234011405Y-51763366D01*
X234360781Y-51751858D01*
X234769545Y-51745684D01*
X235219479Y-51744716D01*
X235692367Y-51748826D01*
X236169991Y-51757887D01*
X236634135Y-51771771D01*
X237066582Y-51790351D01*
X237449114Y-51813499D01*
X237763516Y-51841088D01*
X238770896Y-51967573D01*
X239766602Y-52129665D01*
X240685492Y-52318960D01*
X241396376Y-52502330D01*
X241513619Y-52532572D01*
X242237038Y-52767610D01*
G37*
X242237038Y-52767610D02*
X242261507Y-52776465D01*
X242553229Y-52867300D01*
X242859409Y-52941504D01*
X243117619Y-52983754D01*
X243165046Y-52988640D01*
X243877079Y-53109548D01*
X244519030Y-53310383D01*
X245084087Y-53587126D01*
X245565442Y-53935759D01*
X245955555Y-54351484D01*
X245956286Y-54352262D01*
X246249810Y-54832615D01*
X246266217Y-54867539D01*
X246370697Y-55106986D01*
X246454601Y-55326736D01*
X246501051Y-55483088D01*
X246538472Y-55601631D01*
X246631982Y-55804878D01*
X246752293Y-56011652D01*
X246864623Y-56190426D01*
X247220354Y-56876408D01*
X247510837Y-57633567D01*
X247675441Y-58240053D01*
X247728144Y-58434238D01*
X247864344Y-59250757D01*
X247911506Y-60055462D01*
X247913996Y-60169955D01*
X247939661Y-60331045D01*
X248010021Y-60472734D01*
X248145570Y-60646798D01*
X248326643Y-60872308D01*
X248754392Y-61523778D01*
X249066425Y-62205765D01*
X249262289Y-62917350D01*
X249310944Y-63301165D01*
X249322410Y-63822107D01*
X249283531Y-64354965D01*
X249196102Y-64847397D01*
X249101990Y-65155252D01*
X248947133Y-65549204D01*
X248755006Y-65966665D01*
X248543293Y-66369429D01*
X248329677Y-66719291D01*
X248046613Y-67116255D01*
X247619227Y-67642249D01*
X247125946Y-68173501D01*
X246559251Y-68716775D01*
X245911624Y-69278830D01*
X245175545Y-69866429D01*
X244343497Y-70486332D01*
X243407960Y-71145302D01*
X243151274Y-71321927D01*
X242826308Y-71545783D01*
X242540869Y-71742691D01*
X242309820Y-71902386D01*
X242148026Y-72014602D01*
X242070350Y-72069074D01*
X242001668Y-72167310D01*
X241935401Y-72370980D01*
X241871150Y-72686634D01*
X241845856Y-72830546D01*
X241545776Y-74186481D01*
X241136482Y-75544932D01*
X240625499Y-76885925D01*
X240020352Y-78189485D01*
X239328566Y-79435638D01*
X239102131Y-79800769D01*
X238236763Y-81052529D01*
X237281837Y-82228304D01*
X236243122Y-83323866D01*
X235126387Y-84334986D01*
X233937401Y-85257434D01*
X232681934Y-86086982D01*
X231365755Y-86819401D01*
X229994633Y-87450461D01*
X228574337Y-87975934D01*
X227110637Y-88391591D01*
X226257513Y-88581673D01*
X225435343Y-88727594D01*
X224621245Y-88830485D01*
X223784168Y-88893459D01*
X222893059Y-88919626D01*
X221916867Y-88912100D01*
X221829964Y-88910049D01*
X221124562Y-88885767D01*
X220501064Y-88847509D01*
X219925521Y-88791351D01*
X219363986Y-88713367D01*
X218782511Y-88609631D01*
X218147150Y-88476218D01*
X217415655Y-88313809D01*
X217247401Y-88446157D01*
X217197951Y-88487218D01*
X217054187Y-88612390D01*
X216843964Y-88799018D01*
X216580857Y-89034780D01*
X216278440Y-89307357D01*
X215950288Y-89604427D01*
X215609975Y-89913668D01*
X215271075Y-90222761D01*
X214947162Y-90519383D01*
X214651811Y-90791214D01*
X214398595Y-91025934D01*
X214201090Y-91211220D01*
X213974515Y-91434320D01*
X213688024Y-91733725D01*
X213390416Y-92059576D01*
X213101037Y-92389742D01*
X212839237Y-92702090D01*
X212624361Y-92974489D01*
X212475759Y-93184807D01*
X212468319Y-93196635D01*
X212341263Y-93462247D01*
X212301559Y-93729950D01*
X212300240Y-93830131D01*
X212290858Y-93935493D01*
X212263438Y-93947426D01*
X212207291Y-93883324D01*
X212191175Y-93859949D01*
X212140552Y-93665751D01*
X212179363Y-93394773D01*
X212306872Y-93049093D01*
X212522339Y-92630793D01*
X212825028Y-92141953D01*
X212843160Y-92114621D01*
X213099318Y-91745802D01*
X213397403Y-91347543D01*
X213744876Y-90910900D01*
X214149197Y-90426926D01*
X214617826Y-89886677D01*
X215158226Y-89281208D01*
X215777856Y-88601574D01*
X215813268Y-88563045D01*
X216022123Y-88333883D01*
X216160077Y-88174961D01*
X216236784Y-88070844D01*
X216261893Y-88006095D01*
X216245056Y-87965279D01*
X216195925Y-87932962D01*
X216137346Y-87898489D01*
X216116639Y-87858919D01*
X216176448Y-87808662D01*
X216330476Y-87726719D01*
X216409273Y-87685971D01*
X216600993Y-87582690D01*
X216746967Y-87498738D01*
X216752428Y-87495430D01*
X216796872Y-87482853D01*
X216755495Y-87547724D01*
X216630618Y-87686300D01*
X216503975Y-87826028D01*
X216414742Y-87938696D01*
X216390428Y-87991126D01*
X216405630Y-87999890D01*
X216511371Y-88039353D01*
X216684588Y-88094641D01*
X216889986Y-88155496D01*
X217092270Y-88211662D01*
X217256145Y-88252884D01*
X217346317Y-88268903D01*
X217371098Y-88259458D01*
X217480064Y-88188484D01*
X217653190Y-88059371D01*
X217872610Y-87885686D01*
X218120457Y-87680997D01*
X218169868Y-87639433D01*
X218470553Y-87388037D01*
X218781615Y-87130162D01*
X219069081Y-86893878D01*
X219298977Y-86707257D01*
X219395066Y-86629713D01*
X219624193Y-86443423D01*
X219914309Y-86206360D01*
X220245384Y-85934935D01*
X220597384Y-85645556D01*
X220950277Y-85354631D01*
X221206949Y-85143837D01*
X221574827Y-84848233D01*
X221893125Y-84603993D01*
X222186918Y-84393420D01*
X222481282Y-84198818D01*
X222801293Y-84002492D01*
X223172026Y-83786745D01*
X223795265Y-83427200D01*
X225097472Y-82653457D01*
X226327233Y-81888941D01*
X227513442Y-81115009D01*
X228684992Y-80313018D01*
X229870777Y-79464323D01*
X230422587Y-79067998D01*
X230928232Y-78721153D01*
X231408310Y-78411560D01*
X231895576Y-78118108D01*
X232422786Y-77819691D01*
X232466734Y-77795372D01*
X232895070Y-77552311D01*
X233351158Y-77284222D01*
X233801505Y-77011367D01*
X234212613Y-76754007D01*
X234550986Y-76532402D01*
X234775863Y-76384287D01*
X235145230Y-76151324D01*
X235574002Y-75889547D01*
X236035792Y-75614807D01*
X236504213Y-75342950D01*
X236952877Y-75089826D01*
X237238774Y-74930311D01*
X237757975Y-74636298D01*
X238289459Y-74330394D01*
X238822617Y-74019074D01*
X239346841Y-73708814D01*
X239851523Y-73406089D01*
X240326053Y-73117375D01*
X240759823Y-72849147D01*
X241142226Y-72607881D01*
X241462652Y-72400054D01*
X241710493Y-72232139D01*
X241875141Y-72110613D01*
X241945987Y-72041951D01*
X241985064Y-71934570D01*
X242035354Y-71686744D01*
X242076925Y-71346657D01*
X242109658Y-70930704D01*
X242133432Y-70455280D01*
X242148127Y-69936779D01*
X242153624Y-69391595D01*
X242149802Y-68836122D01*
X242136542Y-68286755D01*
X242113723Y-67759889D01*
X242081226Y-67271918D01*
X242038929Y-66839235D01*
X241986715Y-66478236D01*
X241977453Y-66426481D01*
X246003893Y-66426481D01*
X246033670Y-66413798D01*
X246130557Y-66329122D01*
X246282685Y-66183258D01*
X246478182Y-65987013D01*
X246606306Y-65854031D01*
X246939080Y-65478926D01*
X247200460Y-65125943D01*
X247412691Y-64762696D01*
X247598018Y-64356802D01*
X247684802Y-64108680D01*
X247742984Y-63819650D01*
X247768275Y-63469376D01*
X247770267Y-63392998D01*
X247771481Y-63149762D01*
X247765059Y-62952770D01*
X247751956Y-62838880D01*
X247727582Y-62760831D01*
X247675441Y-62677700D01*
X247627792Y-62713695D01*
X247588330Y-62868156D01*
X247555217Y-63030898D01*
X247472342Y-63340114D01*
X247358817Y-63702663D01*
X247225867Y-64085161D01*
X247084720Y-64454223D01*
X246946601Y-64776466D01*
X246936459Y-64798313D01*
X246704526Y-65254781D01*
X246397132Y-65791050D01*
X246011663Y-66411693D01*
X246003893Y-66426481D01*
X241977453Y-66426481D01*
X241950265Y-66274566D01*
X241503311Y-66748449D01*
X241056358Y-67222331D01*
X241432049Y-66754001D01*
X241538355Y-66622712D01*
X241688167Y-66442247D01*
X241800658Y-66312436D01*
X241857259Y-66255067D01*
X241873026Y-66240571D01*
X241899049Y-66150977D01*
X241986330Y-66150977D01*
X242015902Y-66133417D01*
X242105976Y-66039452D01*
X242239440Y-65882124D01*
X242400071Y-65679903D01*
X242523931Y-65518854D01*
X242763531Y-65201285D01*
X242927583Y-64973523D01*
X243015560Y-64836318D01*
X243026934Y-64790416D01*
X243023957Y-64791317D01*
X242966663Y-64847268D01*
X242857908Y-64975327D01*
X242713532Y-65154781D01*
X242549377Y-65364919D01*
X242381282Y-65585030D01*
X242225090Y-65794403D01*
X242096640Y-65972326D01*
X242011773Y-66098087D01*
X241986330Y-66150977D01*
X241899049Y-66150977D01*
X241901461Y-66142674D01*
X241896881Y-65958326D01*
X241858583Y-65678061D01*
X241785866Y-65292416D01*
X241766537Y-65201257D01*
X241712896Y-64965300D01*
X241649576Y-64700345D01*
X243047676Y-64700345D01*
X243077700Y-64730369D01*
X243107724Y-64700345D01*
X243077700Y-64670322D01*
X243047676Y-64700345D01*
X241649576Y-64700345D01*
X241645253Y-64682254D01*
X241569579Y-64375536D01*
X241491841Y-64068564D01*
X241418010Y-63784758D01*
X241354054Y-63547533D01*
X241305944Y-63380310D01*
X241279649Y-63306504D01*
X241249636Y-63330997D01*
X241144356Y-63428549D01*
X240974460Y-63590056D01*
X240751508Y-63804445D01*
X240487063Y-64060643D01*
X240192685Y-64347577D01*
X240105758Y-64432415D01*
X239569442Y-64950887D01*
X238988024Y-65505469D01*
X238374592Y-66084145D01*
X237742232Y-66674898D01*
X237104033Y-67265713D01*
X236473083Y-67844571D01*
X235862469Y-68399458D01*
X235285279Y-68918355D01*
X234754600Y-69389246D01*
X234283521Y-69800114D01*
X233885129Y-70138944D01*
X233743604Y-70263529D01*
X233513575Y-70477560D01*
X233221730Y-70757185D01*
X232879469Y-71091190D01*
X232498194Y-71468357D01*
X232089307Y-71877472D01*
X231664208Y-72307319D01*
X231234298Y-72746681D01*
X230997581Y-72990267D01*
X230492337Y-73511861D01*
X230058123Y-73960578D01*
X229684628Y-74344350D01*
X229361544Y-74671105D01*
X229078561Y-74948776D01*
X228825371Y-75185291D01*
X228591663Y-75388580D01*
X228367129Y-75566576D01*
X228141459Y-75727206D01*
X227904344Y-75878403D01*
X227645474Y-76028095D01*
X227354541Y-76184214D01*
X227021236Y-76354689D01*
X226635248Y-76547451D01*
X226186268Y-76770430D01*
X225663988Y-77031556D01*
X225280357Y-77224223D01*
X224603711Y-77562695D01*
X223900608Y-77912661D01*
X223163594Y-78277766D01*
X222385215Y-78661655D01*
X221558019Y-79067973D01*
X220674550Y-79500367D01*
X219727356Y-79962481D01*
X218708983Y-80457962D01*
X217611977Y-80990454D01*
X216428885Y-81563602D01*
X215152253Y-82181054D01*
X213774627Y-82846453D01*
X213535312Y-82962029D01*
X212936611Y-83251644D01*
X212373164Y-83524874D01*
X211854092Y-83777256D01*
X211388514Y-84004330D01*
X210985551Y-84201632D01*
X210654322Y-84364702D01*
X210403949Y-84489078D01*
X210243549Y-84570298D01*
X210182245Y-84603901D01*
X210185438Y-84628132D01*
X210258680Y-84713308D01*
X210401033Y-84839054D01*
X210593851Y-84987970D01*
X211055049Y-85324779D01*
X210883632Y-85389597D01*
X210791265Y-85424589D01*
X210330881Y-85600452D01*
X209799365Y-85805412D01*
X209217083Y-86031469D01*
X208604402Y-86270618D01*
X207981687Y-86514859D01*
X207369304Y-86756187D01*
X206787619Y-86986602D01*
X206256998Y-87198101D01*
X205797807Y-87382681D01*
X205430412Y-87532339D01*
X205004919Y-87708310D01*
X204534715Y-87905969D01*
X204151427Y-88072107D01*
X203840836Y-88213472D01*
X203588721Y-88336813D01*
X203380863Y-88448876D01*
X203203042Y-88556410D01*
X203041036Y-88666163D01*
X202957965Y-88724833D01*
X202804006Y-88827094D01*
X202731631Y-88858539D01*
X202731197Y-88821140D01*
X202793061Y-88716869D01*
X202842599Y-88656567D01*
X203017810Y-88503347D01*
X203292479Y-88304909D01*
X203660392Y-88064844D01*
X204115336Y-87786744D01*
X204651097Y-87474197D01*
X205261461Y-87130796D01*
X205940213Y-86760130D01*
X206681142Y-86365791D01*
X207478032Y-85951368D01*
X208324670Y-85520453D01*
X208599809Y-85381474D01*
X208999699Y-85178029D01*
X209354970Y-84995534D01*
X209653060Y-84840537D01*
X209881410Y-84719586D01*
X210027459Y-84639231D01*
X210078644Y-84606019D01*
X210038136Y-84560533D01*
X209926075Y-84462845D01*
X209767818Y-84335806D01*
X209621311Y-84214904D01*
X209361517Y-83981768D01*
X209053197Y-83689831D01*
X208714329Y-83357312D01*
X208362888Y-83002434D01*
X208016850Y-82643418D01*
X207694191Y-82298484D01*
X207412888Y-81985854D01*
X207190915Y-81723750D01*
X206660913Y-81040465D01*
X205776495Y-79756240D01*
X205004512Y-78430078D01*
X204344435Y-77060698D01*
X203795735Y-75646821D01*
X203357883Y-74187166D01*
X203030351Y-72680454D01*
X202812609Y-71125404D01*
X202791472Y-70881027D01*
X202764882Y-70386933D01*
X202750063Y-69822785D01*
X202746777Y-69219755D01*
X202754782Y-68609010D01*
X202773837Y-68021721D01*
X202803702Y-67489058D01*
X202844137Y-67042189D01*
X203000089Y-65952455D01*
X203317708Y-64440425D01*
X203747126Y-62967732D01*
X204286359Y-61538933D01*
X204933421Y-60158582D01*
X205686327Y-58831235D01*
X206543093Y-57561447D01*
X207501732Y-56353773D01*
X207650183Y-56184970D01*
X208009570Y-55798437D01*
X208422079Y-55377567D01*
X208861630Y-54947611D01*
X209302140Y-54533823D01*
X209717530Y-54161454D01*
X210081719Y-53855758D01*
X210521412Y-53513468D01*
X211119699Y-53095211D01*
X233860442Y-53095211D01*
X233877163Y-53116045D01*
X233970277Y-53197477D01*
X234126805Y-53322532D01*
X234325809Y-53474163D01*
X235023910Y-54022439D01*
X236126938Y-55008396D01*
X237157033Y-56083395D01*
X238108204Y-57239327D01*
X238974456Y-58468083D01*
X239749797Y-59761553D01*
X240428234Y-61111628D01*
X241003773Y-62510200D01*
X241008741Y-62523707D01*
X241106848Y-62788031D01*
X241189604Y-63006651D01*
X241248431Y-63157184D01*
X241274753Y-63217251D01*
X241290320Y-63210382D01*
X241372642Y-63134418D01*
X241513753Y-62987521D01*
X241587169Y-62907708D01*
X245593103Y-62907708D01*
X245593351Y-62972655D01*
X245593397Y-62972700D01*
X245622823Y-62933541D01*
X245675144Y-62799722D01*
X245743934Y-62592977D01*
X245822764Y-62335038D01*
X245905206Y-62047638D01*
X245984834Y-61752511D01*
X246055218Y-61471389D01*
X246109933Y-61226005D01*
X246115920Y-61196508D01*
X246176232Y-60891505D01*
X246211068Y-60678920D01*
X246219727Y-60535532D01*
X246201507Y-60438121D01*
X246155709Y-60363465D01*
X246081631Y-60288342D01*
X246067529Y-60275097D01*
X246003161Y-60218968D01*
X245955555Y-60199050D01*
X245920284Y-60229256D01*
X245892924Y-60323502D01*
X245869048Y-60495700D01*
X245844231Y-60759764D01*
X245814047Y-61129609D01*
X245782442Y-61477496D01*
X245742449Y-61846861D01*
X245699947Y-62184572D01*
X245660091Y-62446536D01*
X245644404Y-62538180D01*
X245611331Y-62753342D01*
X245593103Y-62907708D01*
X241587169Y-62907708D01*
X241701477Y-62783439D01*
X241923638Y-62535922D01*
X242168060Y-62258719D01*
X242422569Y-61965579D01*
X242674987Y-61670252D01*
X242913140Y-61386487D01*
X243026934Y-61247569D01*
X243077700Y-61185595D01*
X243124852Y-61128033D01*
X243195887Y-61039267D01*
X243443896Y-60720992D01*
X243690566Y-60393357D01*
X243910704Y-60090225D01*
X244079115Y-59845457D01*
X244184218Y-59678693D01*
X244310449Y-59456829D01*
X244396778Y-59277507D01*
X244428764Y-59168678D01*
X244426081Y-59136678D01*
X244399346Y-59068870D01*
X244334659Y-58992299D01*
X244220673Y-58899022D01*
X244046043Y-58781100D01*
X243799426Y-58630593D01*
X243469475Y-58439559D01*
X243044845Y-58200059D01*
X242997242Y-58173433D01*
X242550323Y-57927003D01*
X242137599Y-57707488D01*
X241738094Y-57505094D01*
X241330831Y-57310026D01*
X240894832Y-57112492D01*
X240409120Y-56902698D01*
X239852719Y-56670849D01*
X239204650Y-56407153D01*
X238894935Y-56281378D01*
X238492047Y-56115220D01*
X238141379Y-55967590D01*
X237854810Y-55843651D01*
X237644218Y-55748565D01*
X237521479Y-55687494D01*
X237498472Y-55665601D01*
X237532701Y-55668072D01*
X237687168Y-55695290D01*
X237930195Y-55748620D01*
X238242908Y-55823203D01*
X238606435Y-55914182D01*
X239001902Y-56016696D01*
X239410434Y-56125887D01*
X239813158Y-56236896D01*
X240191202Y-56344864D01*
X240525690Y-56444933D01*
X240708186Y-56502805D01*
X241173532Y-56660259D01*
X241696302Y-56847789D01*
X242242046Y-57052340D01*
X242776315Y-57260857D01*
X243264662Y-57460284D01*
X243672638Y-57637566D01*
X243713233Y-57655834D01*
X243907434Y-57738062D01*
X244049960Y-57789987D01*
X244112387Y-57801041D01*
X244113553Y-57799582D01*
X244102987Y-57725190D01*
X244043946Y-57572954D01*
X243948558Y-57366856D01*
X243828951Y-57130877D01*
X243697251Y-56888997D01*
X243565585Y-56665197D01*
X243446082Y-56483459D01*
X243409557Y-56433506D01*
X243109424Y-56072961D01*
X242745120Y-55700743D01*
X242354449Y-55353258D01*
X241975215Y-55066914D01*
X241797382Y-54954282D01*
X241438976Y-54752529D01*
X241020106Y-54539191D01*
X240573859Y-54330170D01*
X240133323Y-54141367D01*
X239731584Y-53988682D01*
X239207690Y-53806214D01*
X238491153Y-53923113D01*
X238263837Y-53961580D01*
X237849035Y-54036352D01*
X237420653Y-54118011D01*
X237042071Y-54194681D01*
X237015322Y-54200308D01*
X236737979Y-54256134D01*
X236508161Y-54297989D01*
X236349119Y-54321908D01*
X236284102Y-54323926D01*
X236284217Y-54312764D01*
X236359806Y-54262229D01*
X236534468Y-54183700D01*
X236796698Y-54081747D01*
X237134993Y-53960939D01*
X237537849Y-53825848D01*
X237571256Y-53814877D01*
X237826470Y-53725689D01*
X237960389Y-53672457D01*
X241396376Y-53672457D01*
X241980226Y-53970925D01*
X242678484Y-54362457D01*
X243377431Y-54846537D01*
X243980100Y-55378424D01*
X244497188Y-55967709D01*
X244939397Y-56623986D01*
X244967457Y-56671607D01*
X245084432Y-56869309D01*
X245156155Y-56986053D01*
X245195993Y-57040717D01*
X245217312Y-57052178D01*
X245233480Y-57039313D01*
X245249976Y-56977303D01*
X245272332Y-56827297D01*
X245294799Y-56623986D01*
X245332017Y-56233679D01*
X245040146Y-55873395D01*
X244825097Y-55621458D01*
X244210957Y-55019067D01*
X243493009Y-54464300D01*
X242666538Y-53953341D01*
X242526221Y-53878072D01*
X242301860Y-53779238D01*
X242087425Y-53725191D01*
X241825876Y-53698651D01*
X241396376Y-53672457D01*
X237960389Y-53672457D01*
X238023685Y-53647297D01*
X238143958Y-53587827D01*
X238168345Y-53555405D01*
X238098164Y-53532288D01*
X237921902Y-53492290D01*
X237669103Y-53443542D01*
X237363341Y-53389987D01*
X237028193Y-53335567D01*
X236687235Y-53284226D01*
X236364043Y-53239906D01*
X236082192Y-53206548D01*
X235913090Y-53190012D01*
X235602246Y-53163969D01*
X235265213Y-53139892D01*
X234922838Y-53118825D01*
X234595966Y-53101814D01*
X234305444Y-53089902D01*
X234072118Y-53084134D01*
X233916836Y-53085556D01*
X233860442Y-53095211D01*
X211119699Y-53095211D01*
X211788247Y-52627835D01*
X213106086Y-51850817D01*
X214475202Y-51182301D01*
X215895869Y-50622176D01*
X217368359Y-50170329D01*
X218892944Y-49826649D01*
X220469899Y-49591023D01*
X220706287Y-49569689D01*
X221111479Y-49547027D01*
X221588881Y-49531602D01*
X222111052Y-49523414D01*
X222650552Y-49522463D01*
X223179940Y-49528748D01*
X223671774Y-49542270D01*
X224098614Y-49563028D01*
X224433019Y-49591023D01*
X225490262Y-49735888D01*
X227027041Y-50041453D01*
X228508684Y-50453497D01*
X229935859Y-50972245D01*
X231309233Y-51597918D01*
X232629473Y-52330739D01*
X233289993Y-52732224D01*
X234072118Y-52738485D01*
X235241530Y-52747845D01*
X235846300Y-52754827D01*
X236484555Y-52769084D01*
X237040059Y-52791281D01*
X237533198Y-52823091D01*
X237984359Y-52866185D01*
X238413928Y-52922236D01*
X238842293Y-52992915D01*
X239289840Y-53079896D01*
X239302880Y-53082565D01*
X239636283Y-53137489D01*
X239945330Y-53164959D01*
X240206892Y-53164932D01*
X240397840Y-53137361D01*
X240495044Y-53082205D01*
X240494843Y-53076096D01*
X240427037Y-53034685D01*
X240264956Y-52971000D01*
X240026449Y-52890594D01*
X239729367Y-52799023D01*
X239391559Y-52701839D01*
X239030877Y-52604597D01*
X238665169Y-52512851D01*
X238446737Y-52463181D01*
X237926586Y-52360595D01*
X237329281Y-52259226D01*
X236682593Y-52162625D01*
X236014288Y-52074344D01*
X235352138Y-51997933D01*
X234723911Y-51936944D01*
X234157375Y-51894926D01*
X233680300Y-51875431D01*
X233528510Y-51871780D01*
X233434744Y-51862930D01*
X233439345Y-51844542D01*
X233530182Y-51811444D01*
X233563683Y-51802892D01*
X233739633Y-51780335D01*
X234011405Y-51763366D01*
X234360781Y-51751858D01*
X234769545Y-51745684D01*
X235219479Y-51744716D01*
X235692367Y-51748826D01*
X236169991Y-51757887D01*
X236634135Y-51771771D01*
X237066582Y-51790351D01*
X237449114Y-51813499D01*
X237763516Y-51841088D01*
X238770896Y-51967573D01*
X239766602Y-52129665D01*
X240685492Y-52318960D01*
X241396376Y-52502330D01*
X241513619Y-52532572D01*
X242237038Y-52767610D01*
D11*
X242532500Y-48387000D02*
X242532500Y-50927000D01*
X242532500Y-50927000D02*
X250152500Y-50927000D01*
X252057500Y-48387000D02*
X252057500Y-36449000D01*
X247612500Y-36449000D02*
X247612500Y-36957000D01*
X250152500Y-48387000D02*
X252057500Y-48387000D01*
X245072500Y-36449000D02*
X245072500Y-42037000D01*
X240627500Y-48387000D02*
X240627500Y-36449000D01*
X247612500Y-40767000D02*
X247612500Y-42037000D01*
X245072500Y-42037000D02*
X247612500Y-42037000D01*
X240627500Y-48387000D02*
X250152500Y-48387000D01*
X247612500Y-40767000D02*
X247612500Y-36957000D01*
X250152500Y-50927000D02*
X250152500Y-48387000D01*
X240627500Y-36449000D02*
X252057500Y-36449000D01*
X209423000Y-48387000D02*
X209423000Y-36449000D01*
X209423000Y-36449000D02*
X220853000Y-36449000D01*
X216408000Y-36449000D02*
X216408000Y-36957000D01*
X213868000Y-42037000D02*
X216408000Y-42037000D01*
X213868000Y-36449000D02*
X213868000Y-42037000D01*
X216408000Y-40767000D02*
X216408000Y-36957000D01*
X218948000Y-50927000D02*
X218948000Y-48387000D01*
X218948000Y-48387000D02*
X220853000Y-48387000D01*
X211328000Y-50927000D02*
X218948000Y-50927000D01*
X216408000Y-40767000D02*
X216408000Y-42037000D01*
X209423000Y-48387000D02*
X218948000Y-48387000D01*
X211328000Y-48387000D02*
X211328000Y-50927000D01*
X220853000Y-48387000D02*
X220853000Y-36449000D01*
X203962000Y-50927000D02*
X203962000Y-48387000D01*
X194437000Y-48387000D02*
X194437000Y-36449000D01*
X196342000Y-50927000D02*
X203962000Y-50927000D01*
X194437000Y-48387000D02*
X203962000Y-48387000D01*
X203962000Y-48387000D02*
X205867000Y-48387000D01*
X201422000Y-36449000D02*
X201422000Y-36957000D01*
X201422000Y-40767000D02*
X201422000Y-42037000D01*
X201422000Y-40767000D02*
X201422000Y-36957000D01*
X194437000Y-36449000D02*
X205867000Y-36449000D01*
X196342000Y-48387000D02*
X196342000Y-50927000D01*
X205867000Y-48387000D02*
X205867000Y-36449000D01*
X198882000Y-36449000D02*
X198882000Y-42037000D01*
X198882000Y-42037000D02*
X201422000Y-42037000D01*
X163703000Y-48387000D02*
X163703000Y-36449000D01*
X163703000Y-36449000D02*
X175133000Y-36449000D01*
X170688000Y-40767000D02*
X170688000Y-42037000D01*
X173228000Y-48387000D02*
X175133000Y-48387000D01*
X168148000Y-42037000D02*
X170688000Y-42037000D01*
X170688000Y-36449000D02*
X170688000Y-36957000D01*
X168148000Y-36449000D02*
X168148000Y-42037000D01*
X170688000Y-40767000D02*
X170688000Y-36957000D01*
X163703000Y-48387000D02*
X173228000Y-48387000D01*
X165608000Y-50927000D02*
X173228000Y-50927000D01*
X175133000Y-48387000D02*
X175133000Y-36449000D01*
X173228000Y-50927000D02*
X173228000Y-48387000D01*
X165608000Y-48387000D02*
X165608000Y-50927000D01*
X185928000Y-40767000D02*
X185928000Y-36957000D01*
X180848000Y-50927000D02*
X188468000Y-50927000D01*
X180848000Y-48387000D02*
X180848000Y-50927000D01*
X183388000Y-42037000D02*
X185928000Y-42037000D01*
X188468000Y-50927000D02*
X188468000Y-48387000D01*
X190373000Y-48387000D02*
X190373000Y-36449000D01*
X178943000Y-48387000D02*
X188468000Y-48387000D01*
X178943000Y-36449000D02*
X190373000Y-36449000D01*
X185928000Y-40767000D02*
X185928000Y-42037000D01*
X183388000Y-36449000D02*
X183388000Y-42037000D01*
X185928000Y-36449000D02*
X185928000Y-36957000D01*
X188468000Y-48387000D02*
X190373000Y-48387000D01*
X178943000Y-48387000D02*
X178943000Y-36449000D01*
X231648000Y-36449000D02*
X231648000Y-36957000D01*
X231648000Y-40767000D02*
X231648000Y-36957000D01*
X224663000Y-48387000D02*
X224663000Y-36449000D01*
X226568000Y-50927000D02*
X234188000Y-50927000D01*
X226568000Y-48387000D02*
X226568000Y-50927000D01*
X234188000Y-48387000D02*
X236093000Y-48387000D01*
X234188000Y-50927000D02*
X234188000Y-48387000D01*
X236093000Y-48387000D02*
X236093000Y-36449000D01*
X229108000Y-42037000D02*
X231648000Y-42037000D01*
X229108000Y-36449000D02*
X229108000Y-42037000D01*
X224663000Y-48387000D02*
X234188000Y-48387000D01*
X224663000Y-36449000D02*
X236093000Y-36449000D01*
X231648000Y-40767000D02*
X231648000Y-42037000D01*
%LPC*%
D12*
X150062500Y-42799000D03*
X152602500Y-44069000D03*
X150062500Y-45339000D03*
X152602500Y-46609000D03*
X150062500Y-47879000D03*
X152602500Y-49149000D03*
X150062500Y-50419000D03*
X152602500Y-51689000D03*
D13*
X138632500Y-40919000D03*
X140422500Y-43459000D03*
X138632500Y-51029000D03*
X140422500Y-53569000D03*
D14*
X143712500Y-41529000D03*
X143712500Y-52959000D03*
D15*
X146762500Y-39369000D03*
X146762500Y-55119000D03*
D16*
X137414000Y-78486000D03*
X139954000Y-78486000D03*
X142494000Y-78486000D03*
X145034000Y-78486000D03*
X170434000Y-78486000D03*
X139954000Y-63246000D03*
X180594000Y-73406000D03*
X147574000Y-78486000D03*
X150114000Y-78486000D03*
D17*
X141224000Y-75436000D03*
D16*
X152654000Y-78486000D03*
X155194000Y-78486000D03*
X157734000Y-78486000D03*
X160274000Y-78486000D03*
X162814000Y-78486000D03*
X165354000Y-78486000D03*
X167894000Y-78486000D03*
X167894000Y-63246000D03*
X165354000Y-63246000D03*
X162814000Y-63246000D03*
X160274000Y-63246000D03*
X157734000Y-63246000D03*
X155194000Y-63246000D03*
X152654000Y-63246000D03*
X150114000Y-63246000D03*
X147574000Y-63246000D03*
X145034000Y-63246000D03*
X142494000Y-63246000D03*
X172974000Y-78486000D03*
X175514000Y-78486000D03*
X178054000Y-78486000D03*
X180594000Y-78486000D03*
X183134000Y-78486000D03*
X185674000Y-78486000D03*
X188214000Y-78486000D03*
X190754000Y-78486000D03*
X193294000Y-78486000D03*
X193294000Y-63246000D03*
X190754000Y-63246000D03*
X188214000Y-63246000D03*
X185674000Y-63246000D03*
X183134000Y-63246000D03*
X180594000Y-63246000D03*
X178054000Y-63246000D03*
X175514000Y-63246000D03*
X172974000Y-63246000D03*
D17*
X146304000Y-75436000D03*
X143764000Y-75436000D03*
D16*
X134874000Y-78486000D03*
X170434000Y-63246000D03*
X137414000Y-63246000D03*
X180594000Y-70866000D03*
D18*
X149844000Y-67696000D03*
X147844000Y-67696000D03*
D16*
X180594000Y-65786000D03*
X180594000Y-68326000D03*
D18*
X147844000Y-65696000D03*
X149844000Y-65696000D03*
X149844000Y-69696000D03*
X147844000Y-69696000D03*
D17*
X148844000Y-75436000D03*
X151384000Y-75436000D03*
D16*
X180594000Y-75946000D03*
X134874000Y-63246000D03*
X137414000Y-65786000D03*
D19*
X206502000Y-65464000D03*
X206502000Y-73664000D03*
D20*
X206502000Y-67564000D03*
D21*
X206502000Y-69564000D03*
X206502000Y-71564000D03*
D22*
X160020000Y-86233000D03*
X162560000Y-86233000D03*
X165100000Y-86233000D03*
D23*
X149860000Y-88646000D03*
X149860000Y-96520000D03*
X149860000Y-96520000D03*
D24*
X155702000Y-41402000D03*
D25*
X157702000Y-41402000D03*
X155702000Y-43402000D03*
X157702000Y-43402000D03*
X155702000Y-45402000D03*
X157702000Y-45402000D03*
D26*
X242532500Y-41021000D03*
X250152500Y-41021000D03*
D22*
X248882500Y-49657000D03*
X246342500Y-49657000D03*
X243802500Y-49657000D03*
D26*
X218948000Y-41021000D03*
X211328000Y-41021000D03*
D22*
X217678000Y-49657000D03*
X215138000Y-49657000D03*
X212598000Y-49657000D03*
D26*
X203962000Y-41021000D03*
X196342000Y-41021000D03*
D22*
X202692000Y-49657000D03*
X200152000Y-49657000D03*
X197612000Y-49657000D03*
D26*
X173228000Y-41021000D03*
X165608000Y-41021000D03*
D22*
X171958000Y-49657000D03*
X169418000Y-49657000D03*
X166878000Y-49657000D03*
D26*
X188468000Y-41021000D03*
X180848000Y-41021000D03*
D22*
X187198000Y-49657000D03*
X184658000Y-49657000D03*
X182118000Y-49657000D03*
D26*
X234188000Y-41021000D03*
X226568000Y-41021000D03*
D22*
X232918000Y-49657000D03*
X230378000Y-49657000D03*
X227838000Y-49657000D03*
M02*
