M48
; DRILL file {KiCad (6.0.8)} date Sat Nov 19 16:10:18 2022
; FORMAT={-:-/ absolute / metric / decimal}
; #@! TF.CreationDate,2022-11-19T16:10:18-06:00
; #@! TF.GenerationSoftware,Kicad,Pcbnew,(6.0.8)
; #@! TF.FileFunction,Plated,1,2,PTH
FMAT,2
METRIC
; #@! TA.AperFunction,Plated,PTH,ViaDrill
T1C0.400
; #@! TA.AperFunction,Plated,PTH,ComponentDrill
T2C0.700
; #@! TA.AperFunction,Plated,PTH,ComponentDrill
T3C0.750
; #@! TA.AperFunction,Plated,PTH,ComponentDrill
T4C0.762
; #@! TA.AperFunction,Plated,PTH,ComponentDrill
T5C0.800
; #@! TA.AperFunction,Plated,PTH,ComponentDrill
T6C0.889
; #@! TA.AperFunction,Plated,PTH,ComponentDrill
T7C0.900
; #@! TA.AperFunction,Plated,PTH,ComponentDrill
T8C1.020
; #@! TA.AperFunction,Plated,PTH,ComponentDrill
T9C1.500
; #@! TA.AperFunction,Plated,PTH,ComponentDrill
T10C1.600
; #@! TA.AperFunction,Plated,PTH,ComponentDrill
T11C2.000
; #@! TA.AperFunction,Plated,PTH,ComponentDrill
T12C3.250
%
G90
G05
T1
X139.7Y-57.658
X139.954Y-71.628
X140.462Y-58.42
X151.384Y-73.914
X154.178Y-76.962
X157.48Y-59.436
X158.242Y-60.198
X160.274Y-55.626
X161.036Y-56.388
X165.862Y-57.658
X166.624Y-58.42
X169.418Y-57.15
X170.688Y-57.912
X171.995Y-73.189
X181.356Y-59.436
X181.864Y-87.884
X182.118Y-60.198
X182.118Y-67.31
X185.166Y-60.706
X185.928Y-61.468
X189.992Y-54.864
X191.516Y-54.102
X193.294Y-68.326
X196.85Y-60.706
X197.612Y-61.468
X204.978Y-81.026
X207.01Y-77.47
X207.264Y-80.264
X207.264Y-81.788
X209.296Y-75.184
X210.058Y-75.946
X210.82Y-76.708
X211.582Y-77.47
X211.582Y-89.662
X211.836Y-63.246
X213.614Y-54.102
X214.63Y-54.864
X216.916Y-75.184
X216.916Y-78.232
X225.806Y-89.662
X226.314Y-63.246
X228.6Y-56.388
X230.378Y-55.626
X230.378Y-75.946
X230.378Y-77.47
X240.03Y-89.662
X240.284Y-63.246
X243.332Y-57.15
X244.094Y-57.912
X244.602Y-76.708
X244.602Y-78.232
T2
X147.844Y-65.696
X147.844Y-67.696
X147.844Y-69.696
X149.844Y-65.696
X149.844Y-67.696
X149.844Y-69.696
T3
X141.224Y-75.436
X143.764Y-75.436
X146.304Y-75.436
X148.844Y-75.436
X151.384Y-75.436
T4
X166.878Y-49.657
X182.118Y-49.657
X197.612Y-49.657
X212.598Y-49.657
X227.838Y-49.657
X243.802Y-49.657
T5
X134.874Y-63.246
X134.874Y-78.486
X137.414Y-63.246
X137.414Y-65.786
X137.414Y-78.486
X139.954Y-63.246
X139.954Y-78.486
X142.494Y-63.246
X142.494Y-78.486
X145.034Y-63.246
X145.034Y-78.486
X147.574Y-63.246
X147.574Y-78.486
X150.114Y-63.246
X150.114Y-78.486
X152.654Y-63.246
X152.654Y-78.486
X155.194Y-63.246
X155.194Y-78.486
X155.702Y-41.402
X155.702Y-43.402
X155.702Y-45.402
X157.702Y-41.402
X157.702Y-43.402
X157.702Y-45.402
X157.734Y-63.246
X157.734Y-78.486
X160.274Y-63.246
X160.274Y-78.486
X162.814Y-63.246
X162.814Y-78.486
X165.354Y-63.246
X165.354Y-78.486
X167.894Y-63.246
X167.894Y-78.486
X170.434Y-63.246
X170.434Y-78.486
X172.974Y-63.246
X172.974Y-78.486
X175.514Y-63.246
X175.514Y-78.486
X178.054Y-63.246
X178.054Y-78.486
X180.594Y-63.246
X180.594Y-65.786
X180.594Y-68.326
X180.594Y-70.866
X180.594Y-73.406
X180.594Y-75.946
X180.594Y-78.486
X183.134Y-63.246
X183.134Y-78.486
X185.674Y-63.246
X185.674Y-78.486
X188.214Y-63.246
X188.214Y-78.486
X190.754Y-63.246
X190.754Y-78.486
X193.294Y-63.246
X193.294Y-78.486
X206.502Y-67.564
X206.502Y-69.564
X206.502Y-71.564
T6
X160.02Y-86.233
X162.56Y-86.233
X165.1Y-86.233
T7
X150.062Y-42.799
X150.062Y-45.339
X150.062Y-47.879
X150.062Y-50.419
X152.602Y-44.069
X152.602Y-46.609
X152.602Y-49.149
X152.602Y-51.689
X169.418Y-49.657
X171.958Y-49.657
X184.658Y-49.657
X187.198Y-49.657
X200.152Y-49.657
X202.692Y-49.657
X215.138Y-49.657
X217.678Y-49.657
X230.378Y-49.657
X232.918Y-49.657
X246.343Y-49.657
X248.882Y-49.657
T8
X138.632Y-40.919
X138.632Y-51.029
X140.422Y-43.459
X140.422Y-53.569
T9
X206.502Y-65.464
X206.502Y-73.664
T10
X146.762Y-39.369
X146.762Y-55.119
T12
X143.713Y-41.529
X143.713Y-52.959
T11
X149.86Y-87.596G85X149.86Y-89.696
G05
X149.86Y-95.47G85X149.86Y-97.57
G05
X149.86Y-95.47G85X149.86Y-97.57
G05
T0
M30
