G04 #@! TF.GenerationSoftware,KiCad,Pcbnew,(6.0.7)*
G04 #@! TF.CreationDate,2023-03-20T21:26:27-05:00*
G04 #@! TF.ProjectId,DriveBoard_Rev2,44726976-6542-46f6-9172-645f52657632,rev?*
G04 #@! TF.SameCoordinates,Original*
G04 #@! TF.FileFunction,Paste,Bot*
G04 #@! TF.FilePolarity,Positive*
%FSLAX46Y46*%
G04 Gerber Fmt 4.6, Leading zero omitted, Abs format (unit mm)*
G04 Created by KiCad (PCBNEW (6.0.7)) date 2023-03-20 21:26:27*
%MOMM*%
%LPD*%
G01*
G04 APERTURE LIST*
G04 Aperture macros list*
%AMRoundRect*
0 Rectangle with rounded corners*
0 $1 Rounding radius*
0 $2 $3 $4 $5 $6 $7 $8 $9 X,Y pos of 4 corners*
0 Add a 4 corners polygon primitive as box body*
4,1,4,$2,$3,$4,$5,$6,$7,$8,$9,$2,$3,0*
0 Add four circle primitives for the rounded corners*
1,1,$1+$1,$2,$3*
1,1,$1+$1,$4,$5*
1,1,$1+$1,$6,$7*
1,1,$1+$1,$8,$9*
0 Add four rect primitives between the rounded corners*
20,1,$1+$1,$2,$3,$4,$5,0*
20,1,$1+$1,$4,$5,$6,$7,0*
20,1,$1+$1,$6,$7,$8,$9,0*
20,1,$1+$1,$8,$9,$2,$3,0*%
G04 Aperture macros list end*
%ADD10RoundRect,0.237500X-0.237500X0.250000X-0.237500X-0.250000X0.237500X-0.250000X0.237500X0.250000X0*%
%ADD11RoundRect,0.150000X-0.150000X0.587500X-0.150000X-0.587500X0.150000X-0.587500X0.150000X0.587500X0*%
%ADD12RoundRect,0.137500X-0.137500X0.662500X-0.137500X-0.662500X0.137500X-0.662500X0.137500X0.662500X0*%
%ADD13RoundRect,0.137500X0.137500X-0.662500X0.137500X0.662500X-0.137500X0.662500X-0.137500X-0.662500X0*%
%ADD14RoundRect,0.150000X-0.837500X-0.150000X0.837500X-0.150000X0.837500X0.150000X-0.837500X0.150000X0*%
G04 APERTURE END LIST*
D10*
X170641000Y-68762000D03*
X170641000Y-70587000D03*
X151544000Y-68683500D03*
X151544000Y-70508500D03*
D11*
X159324000Y-72722500D03*
X161224000Y-72722500D03*
X160274000Y-74597500D03*
D10*
X175467000Y-68762000D03*
X175467000Y-70587000D03*
D11*
X139973000Y-72722500D03*
X141873000Y-72722500D03*
X140923000Y-74597500D03*
D12*
X112649000Y-128322000D03*
X113919000Y-128322000D03*
X115189000Y-128322000D03*
X116459000Y-128322000D03*
X117729000Y-128322000D03*
X118999000Y-128322000D03*
X120269000Y-128322000D03*
X121539000Y-128322000D03*
X121539000Y-134822000D03*
X120269000Y-134822000D03*
X118999000Y-134822000D03*
X117729000Y-134822000D03*
X116459000Y-134822000D03*
X115189000Y-134822000D03*
X113919000Y-134822000D03*
X112649000Y-134822000D03*
D11*
X164150000Y-72722500D03*
X166050000Y-72722500D03*
X165100000Y-74597500D03*
X178374000Y-72801000D03*
X180274000Y-72801000D03*
X179324000Y-74676000D03*
D13*
X168021000Y-135076000D03*
X166751000Y-135076000D03*
X165481000Y-135076000D03*
X164211000Y-135076000D03*
X162941000Y-135076000D03*
X161671000Y-135076000D03*
X160401000Y-135076000D03*
X159131000Y-135076000D03*
X159131000Y-128576000D03*
X160401000Y-128576000D03*
X161671000Y-128576000D03*
X162941000Y-128576000D03*
X164211000Y-128576000D03*
X165481000Y-128576000D03*
X166751000Y-128576000D03*
X168021000Y-128576000D03*
D11*
X149625000Y-72722500D03*
X151525000Y-72722500D03*
X150575000Y-74597500D03*
D10*
X161243000Y-68683500D03*
X161243000Y-70508500D03*
X180293000Y-68762000D03*
X180293000Y-70587000D03*
D11*
X173548000Y-72801000D03*
X175448000Y-72801000D03*
X174498000Y-74676000D03*
D10*
X146718000Y-68683500D03*
X146718000Y-70508500D03*
X166069000Y-68683500D03*
X166069000Y-70508500D03*
D14*
X136999500Y-135128000D03*
X136999500Y-133858000D03*
X136999500Y-132588000D03*
X136999500Y-131318000D03*
X136999500Y-130048000D03*
X136999500Y-128778000D03*
X136999500Y-127508000D03*
X143924500Y-127508000D03*
X143924500Y-128778000D03*
X143924500Y-130048000D03*
X143924500Y-131318000D03*
X143924500Y-132588000D03*
X143924500Y-133858000D03*
X143924500Y-135128000D03*
D10*
X141892000Y-68683500D03*
X141892000Y-70508500D03*
D11*
X168788000Y-72801000D03*
X170688000Y-72801000D03*
X169738000Y-74676000D03*
X144799000Y-72722500D03*
X146699000Y-72722500D03*
X145749000Y-74597500D03*
D10*
X156417000Y-68683500D03*
X156417000Y-70508500D03*
D11*
X154498000Y-72722500D03*
X156398000Y-72722500D03*
X155448000Y-74597500D03*
M02*
