G04 #@! TF.GenerationSoftware,KiCad,Pcbnew,(6.0.7)*
G04 #@! TF.CreationDate,2023-03-20T21:26:27-05:00*
G04 #@! TF.ProjectId,DriveBoard_Rev2,44726976-6542-46f6-9172-645f52657632,rev?*
G04 #@! TF.SameCoordinates,Original*
G04 #@! TF.FileFunction,Paste,Top*
G04 #@! TF.FilePolarity,Positive*
%FSLAX46Y46*%
G04 Gerber Fmt 4.6, Leading zero omitted, Abs format (unit mm)*
G04 Created by KiCad (PCBNEW (6.0.7)) date 2023-03-20 21:26:27*
%MOMM*%
%LPD*%
G01*
G04 APERTURE LIST*
G04 Aperture macros list*
%AMRoundRect*
0 Rectangle with rounded corners*
0 $1 Rounding radius*
0 $2 $3 $4 $5 $6 $7 $8 $9 X,Y pos of 4 corners*
0 Add a 4 corners polygon primitive as box body*
4,1,4,$2,$3,$4,$5,$6,$7,$8,$9,$2,$3,0*
0 Add four circle primitives for the rounded corners*
1,1,$1+$1,$2,$3*
1,1,$1+$1,$4,$5*
1,1,$1+$1,$6,$7*
1,1,$1+$1,$8,$9*
0 Add four rect primitives between the rounded corners*
20,1,$1+$1,$2,$3,$4,$5,0*
20,1,$1+$1,$4,$5,$6,$7,0*
20,1,$1+$1,$6,$7,$8,$9,0*
20,1,$1+$1,$8,$9,$2,$3,0*%
G04 Aperture macros list end*
%ADD10RoundRect,0.237500X-0.287500X-0.237500X0.287500X-0.237500X0.287500X0.237500X-0.287500X0.237500X0*%
%ADD11RoundRect,0.237500X-0.250000X-0.237500X0.250000X-0.237500X0.250000X0.237500X-0.250000X0.237500X0*%
%ADD12RoundRect,0.237500X0.287500X0.237500X-0.287500X0.237500X-0.287500X-0.237500X0.287500X-0.237500X0*%
%ADD13RoundRect,0.237500X-0.237500X0.287500X-0.237500X-0.287500X0.237500X-0.287500X0.237500X0.287500X0*%
%ADD14RoundRect,0.237500X-0.237500X0.250000X-0.237500X-0.250000X0.237500X-0.250000X0.237500X0.250000X0*%
%ADD15R,1.600000X1.400000*%
%ADD16RoundRect,0.237500X-0.237500X0.300000X-0.237500X-0.300000X0.237500X-0.300000X0.237500X0.300000X0*%
%ADD17RoundRect,0.250000X-1.100000X0.412500X-1.100000X-0.412500X1.100000X-0.412500X1.100000X0.412500X0*%
%ADD18RoundRect,0.237500X-0.300000X-0.237500X0.300000X-0.237500X0.300000X0.237500X-0.300000X0.237500X0*%
%ADD19O,3.000000X5.100000*%
%ADD20RoundRect,0.237500X0.237500X-0.300000X0.237500X0.300000X-0.237500X0.300000X-0.237500X-0.300000X0*%
%ADD21RoundRect,0.237500X0.250000X0.237500X-0.250000X0.237500X-0.250000X-0.237500X0.250000X-0.237500X0*%
G04 APERTURE END LIST*
D10*
X174940000Y-124573000D03*
X176690000Y-124573000D03*
D11*
X115673500Y-100330000D03*
X117498500Y-100330000D03*
X74017500Y-72644000D03*
X75842500Y-72644000D03*
D12*
X68439000Y-70612000D03*
X66689000Y-70612000D03*
D13*
X154940000Y-81421000D03*
X154940000Y-83171000D03*
D10*
X74055000Y-75692000D03*
X75805000Y-75692000D03*
X82540500Y-75692000D03*
X84290500Y-75692000D03*
X149643500Y-124573000D03*
X151393500Y-124573000D03*
X162240000Y-124573000D03*
X163990000Y-124573000D03*
D11*
X158138500Y-99173000D03*
X159963500Y-99173000D03*
D14*
X170133000Y-85739000D03*
X170133000Y-87564000D03*
D13*
X170180000Y-81421000D03*
X170180000Y-83171000D03*
X164084000Y-81421000D03*
X164084000Y-83171000D03*
D15*
X179459000Y-92085000D03*
X172259000Y-92085000D03*
X179459000Y-95085000D03*
X172259000Y-95085000D03*
D11*
X166266500Y-124573000D03*
X168091500Y-124573000D03*
D10*
X78373000Y-75692000D03*
X80123000Y-75692000D03*
D11*
X123801500Y-100330000D03*
X125626500Y-100330000D03*
X102936000Y-100330000D03*
X104761000Y-100330000D03*
X62079500Y-75692000D03*
X63904500Y-75692000D03*
X153566500Y-99173000D03*
X155391500Y-99173000D03*
D13*
X179324000Y-81421000D03*
X179324000Y-83171000D03*
D11*
X178966500Y-99173000D03*
X180791500Y-99173000D03*
D10*
X86708000Y-75692000D03*
X88458000Y-75692000D03*
D14*
X157941000Y-85739000D03*
X157941000Y-87564000D03*
D15*
X172215000Y-117485000D03*
X179415000Y-117485000D03*
X179415000Y-120485000D03*
X172215000Y-120485000D03*
D10*
X132475000Y-113538000D03*
X134225000Y-113538000D03*
D11*
X62079500Y-70612000D03*
X63904500Y-70612000D03*
X136605000Y-100330000D03*
X138430000Y-100330000D03*
D13*
X157988000Y-81421000D03*
X157988000Y-83171000D03*
D14*
X173181000Y-85739000D03*
X173181000Y-87564000D03*
D15*
X124250000Y-106450000D03*
X117050000Y-106450000D03*
X124250000Y-109450000D03*
X117050000Y-109450000D03*
D14*
X167085000Y-85739000D03*
X167085000Y-87564000D03*
D11*
X111101500Y-113538000D03*
X112926500Y-113538000D03*
D16*
X80772000Y-65939500D03*
X80772000Y-67664500D03*
D13*
X173228000Y-81421000D03*
X173228000Y-83171000D03*
D10*
X107075000Y-113538000D03*
X108825000Y-113538000D03*
X175043500Y-111906000D03*
X176793500Y-111906000D03*
D11*
X102973500Y-113538000D03*
X104798500Y-113538000D03*
X170838500Y-99173000D03*
X172663500Y-99173000D03*
X136501500Y-113538000D03*
X138326500Y-113538000D03*
X178966500Y-111906000D03*
X180791500Y-111906000D03*
X123801500Y-113538000D03*
X125626500Y-113538000D03*
X86717500Y-72644000D03*
X88542500Y-72644000D03*
X170942000Y-111906000D03*
X172767000Y-111906000D03*
D10*
X162240000Y-99173000D03*
X163990000Y-99173000D03*
D15*
X104350000Y-93242000D03*
X111550000Y-93242000D03*
X104350000Y-96242000D03*
X111550000Y-96242000D03*
D10*
X119775000Y-100330000D03*
X121525000Y-100330000D03*
D11*
X170838500Y-124573000D03*
X172663500Y-124573000D03*
D10*
X174940000Y-99173000D03*
X176690000Y-99173000D03*
D14*
X164037000Y-85739000D03*
X164037000Y-87564000D03*
D15*
X159515000Y-117485000D03*
X166715000Y-117485000D03*
X166715000Y-120485000D03*
X159515000Y-120485000D03*
D17*
X65532000Y-58127500D03*
X65532000Y-61252500D03*
D15*
X154015000Y-104818000D03*
X146815000Y-104818000D03*
X146815000Y-107818000D03*
X154015000Y-107818000D03*
D18*
X54763500Y-79502000D03*
X56488500Y-79502000D03*
D11*
X158138500Y-124573000D03*
X159963500Y-124573000D03*
X145542000Y-99173000D03*
X147367000Y-99173000D03*
D16*
X60452000Y-59081500D03*
X60452000Y-60806500D03*
D14*
X160989000Y-85739000D03*
X160989000Y-87564000D03*
D11*
X145542000Y-124573000D03*
X147367000Y-124573000D03*
D19*
X49592200Y-50521000D03*
X49592200Y-58395000D03*
D11*
X78232000Y-72644000D03*
X80057000Y-72644000D03*
D12*
X68441000Y-75692000D03*
X66691000Y-75692000D03*
D11*
X178966500Y-124573000D03*
X180791500Y-124573000D03*
D14*
X176229000Y-85739000D03*
X176229000Y-87564000D03*
D15*
X154015000Y-117485000D03*
X146815000Y-117485000D03*
X154015000Y-120485000D03*
X146815000Y-120485000D03*
D14*
X179277000Y-85739000D03*
X179277000Y-87564000D03*
D11*
X158138500Y-111906000D03*
X159963500Y-111906000D03*
D13*
X176276000Y-81421000D03*
X176276000Y-83171000D03*
D11*
X128373500Y-113538000D03*
X130198500Y-113538000D03*
X115673500Y-113538000D03*
X117498500Y-113538000D03*
D10*
X149540000Y-111906000D03*
X151290000Y-111906000D03*
D11*
X111101500Y-100330000D03*
X112926500Y-100330000D03*
D15*
X159515000Y-92085000D03*
X166715000Y-92085000D03*
X166715000Y-95085000D03*
X159515000Y-95085000D03*
X166715000Y-104818000D03*
X159515000Y-104818000D03*
X166715000Y-107818000D03*
X159515000Y-107818000D03*
D11*
X82503000Y-72644000D03*
X84328000Y-72644000D03*
D10*
X109976250Y-80561500D03*
X111726250Y-80561500D03*
D14*
X154893000Y-85739000D03*
X154893000Y-87564000D03*
D11*
X128477000Y-100330000D03*
X130302000Y-100330000D03*
D10*
X162240000Y-111906000D03*
X163990000Y-111906000D03*
X149643500Y-99173000D03*
X151393500Y-99173000D03*
X119775000Y-113538000D03*
X121525000Y-113538000D03*
D11*
X145438500Y-111906000D03*
X147263500Y-111906000D03*
X153670000Y-124573000D03*
X155495000Y-124573000D03*
X166266500Y-99173000D03*
X168091500Y-99173000D03*
D15*
X104350000Y-106450000D03*
X111550000Y-106450000D03*
X104350000Y-109450000D03*
X111550000Y-109450000D03*
D20*
X80772000Y-52932500D03*
X80772000Y-51207500D03*
D11*
X166370000Y-111906000D03*
X168195000Y-111906000D03*
D13*
X167132000Y-81421000D03*
X167132000Y-83171000D03*
D15*
X136950000Y-106450000D03*
X129750000Y-106450000D03*
X136950000Y-109450000D03*
X129750000Y-109450000D03*
D13*
X161036000Y-81421000D03*
X161036000Y-83171000D03*
D10*
X107075000Y-100330000D03*
X108825000Y-100330000D03*
D15*
X124250000Y-93242000D03*
X117050000Y-93242000D03*
X124250000Y-96242000D03*
X117050000Y-96242000D03*
D10*
X132578500Y-100330000D03*
X134328500Y-100330000D03*
D21*
X111763750Y-77513500D03*
X109938750Y-77513500D03*
D15*
X136950000Y-93242000D03*
X129750000Y-93242000D03*
X136950000Y-96242000D03*
X129750000Y-96242000D03*
D11*
X153566500Y-111906000D03*
X155391500Y-111906000D03*
D15*
X179415000Y-104818000D03*
X172215000Y-104818000D03*
X179415000Y-107818000D03*
X172215000Y-107818000D03*
X154015000Y-92085000D03*
X146815000Y-92085000D03*
X146815000Y-95085000D03*
X154015000Y-95085000D03*
M02*
