G04 #@! TF.GenerationSoftware,KiCad,Pcbnew,(6.0.8)*
G04 #@! TF.CreationDate,2022-11-19T16:10:13-06:00*
G04 #@! TF.ProjectId,Driveboard_2023,44726976-6562-46f6-9172-645f32303233,rev?*
G04 #@! TF.SameCoordinates,Original*
G04 #@! TF.FileFunction,Soldermask,Top*
G04 #@! TF.FilePolarity,Negative*
%FSLAX46Y46*%
G04 Gerber Fmt 4.6, Leading zero omitted, Abs format (unit mm)*
G04 Created by KiCad (PCBNEW (6.0.8)) date 2022-11-19 16:10:13*
%MOMM*%
%LPD*%
G01*
G04 APERTURE LIST*
G04 Aperture macros list*
%AMRoundRect*
0 Rectangle with rounded corners*
0 $1 Rounding radius*
0 $2 $3 $4 $5 $6 $7 $8 $9 X,Y pos of 4 corners*
0 Add a 4 corners polygon primitive as box body*
4,1,4,$2,$3,$4,$5,$6,$7,$8,$9,$2,$3,0*
0 Add four circle primitives for the rounded corners*
1,1,$1+$1,$2,$3*
1,1,$1+$1,$4,$5*
1,1,$1+$1,$6,$7*
1,1,$1+$1,$8,$9*
0 Add four rect primitives between the rounded corners*
20,1,$1+$1,$2,$3,$4,$5,0*
20,1,$1+$1,$4,$5,$6,$7,0*
20,1,$1+$1,$6,$7,$8,$9,0*
20,1,$1+$1,$8,$9,$2,$3,0*%
G04 Aperture macros list end*
%ADD10RoundRect,0.237500X0.300000X0.237500X-0.300000X0.237500X-0.300000X-0.237500X0.300000X-0.237500X0*%
%ADD11C,1.100000*%
%ADD12C,1.400000*%
%ADD13C,4.000000*%
%ADD14C,2.000000*%
%ADD15RoundRect,0.237500X0.287500X0.237500X-0.287500X0.237500X-0.287500X-0.237500X0.287500X-0.237500X0*%
%ADD16R,1.400000X1.600000*%
%ADD17RoundRect,0.237500X-0.237500X0.250000X-0.237500X-0.250000X0.237500X-0.250000X0.237500X0.250000X0*%
%ADD18RoundRect,0.237500X-0.287500X-0.237500X0.287500X-0.237500X0.287500X0.237500X-0.287500X0.237500X0*%
%ADD19RoundRect,0.237500X0.237500X-0.287500X0.237500X0.287500X-0.237500X0.287500X-0.237500X-0.287500X0*%
%ADD20RoundRect,0.237500X-0.250000X-0.237500X0.250000X-0.237500X0.250000X0.237500X-0.250000X0.237500X0*%
%ADD21RoundRect,0.237500X0.237500X-0.250000X0.237500X0.250000X-0.237500X0.250000X-0.237500X-0.250000X0*%
%ADD22C,1.308000*%
%ADD23C,1.258000*%
%ADD24C,1.208000*%
%ADD25O,3.500000X2.200000*%
%ADD26R,2.500000X1.500000*%
%ADD27O,2.500000X1.500000*%
%ADD28RoundRect,0.237500X0.250000X0.237500X-0.250000X0.237500X-0.250000X-0.237500X0.250000X-0.237500X0*%
%ADD29RoundRect,0.237500X-0.237500X0.287500X-0.237500X-0.287500X0.237500X-0.287500X0.237500X0.287500X0*%
%ADD30C,1.524000*%
%ADD31O,3.000000X5.100000*%
%ADD32R,1.350000X1.350000*%
%ADD33O,1.350000X1.350000*%
%ADD34RoundRect,0.237500X-0.300000X-0.237500X0.300000X-0.237500X0.300000X0.237500X-0.300000X0.237500X0*%
%ADD35C,3.450000*%
G04 APERTURE END LIST*
D10*
X159866500Y-83058000D03*
X158141500Y-83058000D03*
D11*
X150062500Y-42799000D03*
X152602500Y-44069000D03*
X150062500Y-45339000D03*
X152602500Y-46609000D03*
X150062500Y-47879000D03*
X152602500Y-49149000D03*
X150062500Y-50419000D03*
X152602500Y-51689000D03*
D12*
X138632500Y-40919000D03*
X140422500Y-43459000D03*
X138632500Y-51029000D03*
X140422500Y-53569000D03*
D13*
X143712500Y-41529000D03*
X143712500Y-52959000D03*
D14*
X146762500Y-39369000D03*
X146762500Y-55119000D03*
D15*
X204710000Y-44450000D03*
X202960000Y-44450000D03*
D16*
X228714750Y-86640750D03*
X228714750Y-79440750D03*
X231714750Y-86640750D03*
X231714750Y-79440750D03*
D17*
X249658000Y-86068500D03*
X249658000Y-87893500D03*
D18*
X171845000Y-90678000D03*
X173595000Y-90678000D03*
D19*
X251968000Y-51929000D03*
X251968000Y-50179000D03*
D18*
X225947000Y-44450000D03*
X227697000Y-44450000D03*
D16*
X228661500Y-65779500D03*
X228661500Y-72979500D03*
X231661500Y-65779500D03*
X231661500Y-72979500D03*
D10*
X157480000Y-53340000D03*
X155755000Y-53340000D03*
D15*
X173849000Y-44450000D03*
X172099000Y-44450000D03*
D19*
X204724000Y-61581000D03*
X204724000Y-59831000D03*
D18*
X180227000Y-44450000D03*
X181977000Y-44450000D03*
D19*
X220726000Y-51929000D03*
X220726000Y-50179000D03*
D20*
X225909500Y-46990000D03*
X227734500Y-46990000D03*
D21*
X249682000Y-66698500D03*
X249682000Y-64873500D03*
D19*
X194564000Y-51929000D03*
X194564000Y-50179000D03*
D20*
X164949500Y-46736000D03*
X166774500Y-46736000D03*
D17*
X207772000Y-59793500D03*
X207772000Y-61618500D03*
D20*
X241911500Y-46990000D03*
X243736500Y-46990000D03*
D18*
X241949000Y-44704000D03*
X243699000Y-44704000D03*
D16*
X214236750Y-79694750D03*
X214236750Y-86894750D03*
X217236750Y-79694750D03*
X217236750Y-86894750D03*
D22*
X137414000Y-78486000D03*
X139954000Y-78486000D03*
X142494000Y-78486000D03*
X145034000Y-78486000D03*
X170434000Y-78486000D03*
X139954000Y-63246000D03*
X180594000Y-73406000D03*
X147574000Y-78486000D03*
X150114000Y-78486000D03*
D23*
X141224000Y-75436000D03*
D22*
X152654000Y-78486000D03*
X155194000Y-78486000D03*
X157734000Y-78486000D03*
X160274000Y-78486000D03*
X162814000Y-78486000D03*
X165354000Y-78486000D03*
X167894000Y-78486000D03*
X167894000Y-63246000D03*
X165354000Y-63246000D03*
X162814000Y-63246000D03*
X160274000Y-63246000D03*
X157734000Y-63246000D03*
X155194000Y-63246000D03*
X152654000Y-63246000D03*
X150114000Y-63246000D03*
X147574000Y-63246000D03*
X145034000Y-63246000D03*
X142494000Y-63246000D03*
X172974000Y-78486000D03*
X175514000Y-78486000D03*
X178054000Y-78486000D03*
X180594000Y-78486000D03*
X183134000Y-78486000D03*
X185674000Y-78486000D03*
X188214000Y-78486000D03*
X190754000Y-78486000D03*
X193294000Y-78486000D03*
X193294000Y-63246000D03*
X190754000Y-63246000D03*
X188214000Y-63246000D03*
X185674000Y-63246000D03*
X183134000Y-63246000D03*
X180594000Y-63246000D03*
X178054000Y-63246000D03*
X175514000Y-63246000D03*
X172974000Y-63246000D03*
D23*
X146304000Y-75436000D03*
X143764000Y-75436000D03*
D22*
X134874000Y-78486000D03*
X170434000Y-63246000D03*
X137414000Y-63246000D03*
X180594000Y-70866000D03*
D24*
X149844000Y-67696000D03*
X147844000Y-67696000D03*
D22*
X180594000Y-65786000D03*
X180594000Y-68326000D03*
D24*
X147844000Y-65696000D03*
X149844000Y-65696000D03*
X149844000Y-69696000D03*
X147844000Y-69696000D03*
D23*
X148844000Y-75436000D03*
X151384000Y-75436000D03*
D22*
X180594000Y-75946000D03*
X134874000Y-63246000D03*
X137414000Y-65786000D03*
D19*
X179070000Y-51929000D03*
X179070000Y-50179000D03*
D21*
X221285500Y-66845750D03*
X221285500Y-65020750D03*
D17*
X235802750Y-86501250D03*
X235802750Y-88326250D03*
D19*
X240792000Y-51929000D03*
X240792000Y-50179000D03*
D21*
X235798250Y-66698500D03*
X235798250Y-64873500D03*
D20*
X195683500Y-46736000D03*
X197508500Y-46736000D03*
D16*
X242570000Y-86894750D03*
X242570000Y-79694750D03*
X245570000Y-79694750D03*
X245570000Y-86894750D03*
D17*
X221285500Y-72499750D03*
X221285500Y-74324750D03*
D18*
X195721000Y-44450000D03*
X197471000Y-44450000D03*
D17*
X249682000Y-72503000D03*
X249682000Y-74328000D03*
D19*
X163830000Y-51929000D03*
X163830000Y-50179000D03*
X190246000Y-51929000D03*
X190246000Y-50179000D03*
X209550000Y-51929000D03*
X209550000Y-50179000D03*
D25*
X206502000Y-65464000D03*
X206502000Y-73664000D03*
D26*
X206502000Y-67564000D03*
D27*
X206502000Y-69564000D03*
X206502000Y-71564000D03*
D28*
X173886500Y-46736000D03*
X172061500Y-46736000D03*
D15*
X234809000Y-44450000D03*
X233059000Y-44450000D03*
D16*
X242594000Y-72688000D03*
X242594000Y-65488000D03*
X245594000Y-65488000D03*
X245594000Y-72688000D03*
D29*
X235798250Y-68787000D03*
X235798250Y-70537000D03*
X235802750Y-82474750D03*
X235802750Y-84224750D03*
D18*
X176059500Y-90678000D03*
X177809500Y-90678000D03*
D20*
X176022000Y-87376000D03*
X177847000Y-87376000D03*
D15*
X250811000Y-44704000D03*
X249061000Y-44704000D03*
D20*
X210566000Y-46990000D03*
X212391000Y-46990000D03*
D29*
X221285500Y-68727250D03*
X221285500Y-70477250D03*
D15*
X219569000Y-44450000D03*
X217819000Y-44450000D03*
D28*
X219606500Y-46990000D03*
X217781500Y-46990000D03*
D21*
X249658000Y-80414500D03*
X249658000Y-78589500D03*
D20*
X171807500Y-87376000D03*
X173632500Y-87376000D03*
D28*
X234846500Y-46990000D03*
X233021500Y-46990000D03*
D17*
X221324750Y-86473000D03*
X221324750Y-88298000D03*
D16*
X214197500Y-72896000D03*
X214197500Y-65696000D03*
X217197500Y-72896000D03*
X217197500Y-65696000D03*
D17*
X235798250Y-72559500D03*
X235798250Y-74384500D03*
D15*
X189089000Y-44450000D03*
X187339000Y-44450000D03*
D19*
X235966000Y-51929000D03*
X235966000Y-50179000D03*
D29*
X249658000Y-82296000D03*
X249658000Y-84046000D03*
D28*
X204747500Y-46736000D03*
X202922500Y-46736000D03*
D29*
X249682000Y-68730500D03*
X249682000Y-70480500D03*
D30*
X160020000Y-86233000D03*
X162560000Y-86233000D03*
X165100000Y-86233000D03*
D28*
X250745000Y-46990000D03*
X248920000Y-46990000D03*
D21*
X221324750Y-80565000D03*
X221324750Y-78740000D03*
D19*
X175006000Y-51929000D03*
X175006000Y-50179000D03*
X205613000Y-51929000D03*
X205613000Y-50179000D03*
D18*
X164987000Y-44450000D03*
X166737000Y-44450000D03*
D20*
X180189500Y-46736000D03*
X182014500Y-46736000D03*
D31*
X149860000Y-88646000D03*
X149860000Y-96520000D03*
X149860000Y-96520000D03*
D28*
X189126500Y-46736000D03*
X187301500Y-46736000D03*
D32*
X155702000Y-41402000D03*
D33*
X157702000Y-41402000D03*
X155702000Y-43402000D03*
X157702000Y-43402000D03*
X155702000Y-45402000D03*
X157702000Y-45402000D03*
D34*
X165253500Y-83058000D03*
X166978500Y-83058000D03*
D29*
X221324750Y-82700500D03*
X221324750Y-84450500D03*
D18*
X210580000Y-44450000D03*
X212330000Y-44450000D03*
D19*
X224790000Y-51929000D03*
X224790000Y-50179000D03*
D21*
X235802750Y-80452250D03*
X235802750Y-78627250D03*
D35*
X242532500Y-41021000D03*
X250152500Y-41021000D03*
D30*
X248882500Y-49657000D03*
X246342500Y-49657000D03*
X243802500Y-49657000D03*
D35*
X218948000Y-41021000D03*
X211328000Y-41021000D03*
D30*
X217678000Y-49657000D03*
X215138000Y-49657000D03*
X212598000Y-49657000D03*
D35*
X203962000Y-41021000D03*
X196342000Y-41021000D03*
D30*
X202692000Y-49657000D03*
X200152000Y-49657000D03*
X197612000Y-49657000D03*
D35*
X173228000Y-41021000D03*
X165608000Y-41021000D03*
D30*
X171958000Y-49657000D03*
X169418000Y-49657000D03*
X166878000Y-49657000D03*
D35*
X188468000Y-41021000D03*
X180848000Y-41021000D03*
D30*
X187198000Y-49657000D03*
X184658000Y-49657000D03*
X182118000Y-49657000D03*
D35*
X234188000Y-41021000D03*
X226568000Y-41021000D03*
D30*
X232918000Y-49657000D03*
X230378000Y-49657000D03*
X227838000Y-49657000D03*
M02*
