M48
; DRILL file {KiCad (6.0.7)} date Mon Mar 20 21:26:35 2023
; FORMAT={-:-/ absolute / metric / decimal}
; #@! TF.CreationDate,2023-03-20T21:26:35-05:00
; #@! TF.GenerationSoftware,Kicad,Pcbnew,(6.0.7)
; #@! TF.FileFunction,Plated,1,2,PTH
FMAT,2
METRIC
; #@! TA.AperFunction,Plated,PTH,ViaDrill
T1C0.400
; #@! TA.AperFunction,Plated,PTH,ComponentDrill
T2C0.700
; #@! TA.AperFunction,Plated,PTH,ComponentDrill
T3C0.800
; #@! TA.AperFunction,Plated,PTH,ComponentDrill
T4C0.850
; #@! TA.AperFunction,Plated,PTH,ComponentDrill
T5C0.889
; #@! TA.AperFunction,Plated,PTH,ComponentDrill
T6C0.900
; #@! TA.AperFunction,Plated,PTH,ComponentDrill
T7C1.020
; #@! TA.AperFunction,Plated,PTH,ComponentDrill
T8C1.500
; #@! TA.AperFunction,Plated,PTH,ComponentDrill
T9C1.600
; #@! TA.AperFunction,Plated,PTH,ComponentDrill
T10C2.000
; #@! TA.AperFunction,Plated,PTH,ComponentDrill
T11C3.250
%
G90
G05
T1
X37.846Y-106.934
X39.878Y-107.95
X43.18Y-89.916
X43.688Y-121.666
X48.26Y-123.19
X50.546Y-118.618
X50.546Y-122.428
X53.34Y-120.904
X55.626Y-109.728
X57.658Y-108.712
X58.42Y-82.55
X60.706Y-81.788
X61.214Y-120.142
X64.008Y-62.992
X65.786Y-99.822
X68.072Y-119.344
X73.914Y-129.54
X75.438Y-127.508
X82.042Y-62.992
X83.058Y-52.578
X83.058Y-69.088
X85.09Y-131.572
X87.63Y-128.778
X89.408Y-99.822
X98.806Y-98.806
X99.526Y-81.757
X99.822Y-104.918
X99.822Y-105.918
X99.822Y-106.95
X99.822Y-107.95
X99.822Y-108.95
X99.822Y-109.982
X100.076Y-132.334
X100.33Y-82.55
X102.616Y-54.102
X104.14Y-115.57
X107.95Y-129.54
X108.712Y-84.836
X109.266Y-85.668
X112.268Y-89.154
X113.1Y-89.708
X113.792Y-110.744
X115.062Y-110.744
X117.856Y-123.952
X117.856Y-132.588
X118.618Y-124.714
X119.126Y-130.81
X119.38Y-118.618
X120.142Y-125.73
X124.968Y-135.128
X125.476Y-83.312
X125.476Y-126.746
X125.984Y-84.328
X126.492Y-97.79
X128.016Y-97.79
X128.524Y-51.562
X129.032Y-126.746
X129.286Y-43.688
X129.286Y-119.38
X129.286Y-135.128
X130.048Y-58.674
X130.81Y-119.38
X130.845Y-86.614
X131.82Y-73.908
X132.08Y-128.524
X132.08Y-132.588
X132.334Y-119.38
X133.604Y-119.38
X133.858Y-125.73
X134.62Y-123.952
X134.874Y-119.38
X135.382Y-124.714
X135.557Y-71.51
X135.89Y-119.38
X136.112Y-72.341
X136.675Y-73.166
X136.721Y-74.641
X137.378Y-75.497
X139.446Y-110.744
X140.208Y-127.508
X140.462Y-132.842
X141.986Y-137.414
X142.24Y-78.994
X144.272Y-96.774
X147.066Y-79.756
X150.876Y-133.096
X151.13Y-80.518
X152.019Y-126.492
X156.21Y-130.81
X156.718Y-121.412
X156.718Y-127.762
X157.226Y-135.128
X157.48Y-133.096
X157.734Y-96.774
X159.004Y-76.708
X162.56Y-77.47
X162.814Y-107.442
X164.084Y-79.248
X164.084Y-108.712
X166.878Y-132.08
X167.132Y-126.492
X168.91Y-109.22
X169.672Y-121.158
X170.18Y-96.774
X170.434Y-76.962
X170.434Y-121.92
X173.99Y-79.502
X174.498Y-77.724
T2
X46.848Y-90.32
X46.848Y-92.32
X46.848Y-94.32
X48.848Y-90.32
X48.848Y-92.32
X48.848Y-94.32
T3
X33.878Y-87.87
X33.878Y-103.111
X36.418Y-87.87
X36.418Y-103.111
X38.958Y-87.87
X38.958Y-103.111
X41.498Y-87.87
X41.498Y-103.111
X44.038Y-87.87
X44.038Y-103.111
X46.578Y-87.87
X46.578Y-103.111
X49.118Y-87.87
X49.118Y-103.111
X51.658Y-87.87
X51.658Y-103.111
X54.198Y-87.87
X54.198Y-103.111
X56.738Y-87.87
X56.738Y-103.111
X59.278Y-87.87
X59.278Y-103.111
X61.818Y-87.87
X61.818Y-103.111
X64.358Y-87.87
X64.358Y-103.111
X66.898Y-87.87
X66.898Y-103.111
X69.438Y-87.87
X69.438Y-103.111
X71.978Y-87.87
X71.978Y-103.111
X73.631Y-51.816
X73.721Y-67.056
X74.518Y-87.87
X74.518Y-103.111
X75.631Y-51.816
X75.721Y-67.056
X77.058Y-87.87
X77.058Y-103.111
X79.598Y-87.87
X79.598Y-103.111
X82.138Y-87.87
X82.138Y-103.111
X84.678Y-87.87
X84.678Y-103.111
X87.218Y-87.87
X87.218Y-103.111
X89.758Y-87.87
X89.758Y-103.111
X92.298Y-87.87
X92.298Y-103.111
X118.503Y-79.335
X120.503Y-79.335
X122.503Y-79.335
T4
X75.692Y-45.692
X75.692Y-61.44
X78.232Y-45.692
X78.232Y-61.44
X80.772Y-45.692
X80.772Y-61.44
T5
X60.452Y-55.245
X62.992Y-55.245
X65.532Y-55.245
T6
X48.814Y-68.936
X48.814Y-71.476
X48.814Y-74.016
X48.814Y-76.556
X51.354Y-70.206
X51.354Y-72.746
X51.354Y-75.286
X51.354Y-77.826
X91.44Y-41.91
X91.44Y-44.45
X91.44Y-46.99
X108.204Y-41.835
X108.204Y-44.375
X108.204Y-46.915
X108.204Y-49.455
X108.204Y-51.995
X108.204Y-54.535
X108.204Y-57.075
X108.204Y-59.615
X108.204Y-62.155
X115.316Y-41.91
X115.316Y-44.45
X115.316Y-46.99
X115.316Y-49.53
X115.316Y-52.07
X115.316Y-54.61
X115.316Y-57.15
X115.316Y-59.69
X115.316Y-62.23
X140.716Y-41.91
X140.716Y-44.45
X140.716Y-46.99
X140.716Y-49.53
X140.716Y-52.07
X140.716Y-54.61
X140.716Y-57.15
X140.716Y-59.69
X140.716Y-62.23
X147.828Y-41.91
X147.828Y-44.45
X147.828Y-46.99
X147.828Y-49.53
X147.828Y-52.07
X147.828Y-54.61
X147.828Y-57.15
X147.828Y-59.69
X147.828Y-62.23
X162.56Y-41.91
X162.56Y-44.45
X162.56Y-46.99
X162.56Y-49.53
X162.56Y-52.07
X162.56Y-54.61
X162.56Y-57.15
X162.56Y-59.69
X162.56Y-62.23
T7
X37.384Y-67.056
X37.384Y-77.166
X39.174Y-69.596
X39.174Y-79.706
T8
X116.403Y-79.335
X124.603Y-79.335
T9
X45.514Y-65.506
X45.514Y-81.256
T11
X42.464Y-67.666
X42.464Y-79.096
T10
X49.592Y-49.471G85X49.592Y-51.571
G05
X49.592Y-57.345G85X49.592Y-59.445
G05
T0
M30
