%TF.GenerationSoftware,KiCad,Pcbnew,(5.1.10)-1*%
%TF.CreationDate,2021-11-15T21:10:30-06:00*%
%TF.ProjectId,Driveboard_2022,44726976-6562-46f6-9172-645f32303232,rev?*%
%TF.SameCoordinates,Original*%
%TF.FileFunction,Copper,L2,Bot*%
%TF.FilePolarity,Positive*%
%FSLAX46Y46*%
G04 Gerber Fmt 4.6, Leading zero omitted, Abs format (unit mm)*
G04 Created by KiCad (PCBNEW (5.1.10)-1) date 2021-11-15 21:10:30*
%MOMM*%
%LPD*%
G01*
G04 APERTURE LIST*
%TA.AperFunction,ComponentPad*%
%ADD10C,1.520000*%
%TD*%
%TA.AperFunction,ComponentPad*%
%ADD11C,1.524000*%
%TD*%
%TA.AperFunction,ComponentPad*%
%ADD12C,3.073400*%
%TD*%
%TA.AperFunction,ComponentPad*%
%ADD13C,3.000000*%
%TD*%
%TA.AperFunction,ComponentPad*%
%ADD14C,5.080000*%
%TD*%
%TA.AperFunction,ViaPad*%
%ADD15C,0.800000*%
%TD*%
%TA.AperFunction,Conductor*%
%ADD16C,2.540000*%
%TD*%
%TA.AperFunction,Conductor*%
%ADD17C,0.762000*%
%TD*%
%TA.AperFunction,Conductor*%
%ADD18C,0.381000*%
%TD*%
%TA.AperFunction,Conductor*%
%ADD19C,0.254000*%
%TD*%
%TA.AperFunction,Conductor*%
%ADD20C,0.100000*%
%TD*%
G04 APERTURE END LIST*
D10*
%TO.P,U1,PE4*%
%TO.N,Net-(U1-PadPE4)*%
X143384000Y-145574000D03*
%TO.P,U1,PE1*%
%TO.N,Net-(U1-PadPE1)*%
X140844000Y-140494000D03*
%TO.P,U1,PP5*%
%TO.N,Net-(U1-PadPP5)*%
X97664000Y-79534000D03*
%TO.P,U1,PC7*%
%TO.N,MLTX_V*%
X143384000Y-130334000D03*
%TO.P,U1,PM4*%
%TO.N,Net-(U1-PadPM4)*%
X140844000Y-127794000D03*
%TO.P,U1,PD3*%
%TO.N,Net-(U1-PadPD3)*%
X143384000Y-132874000D03*
%TO.P,U1,PC6*%
%TO.N,MLRX_V*%
X143384000Y-137954000D03*
%TO.P,U1,PC4*%
%TO.N,FLRX_V*%
X143384000Y-143034000D03*
%TO.P,U1,PM7*%
%TO.N,Net-(U1-PadPM7)*%
X97664000Y-82074000D03*
%TO.P,U1,+5V*%
%TO.N,Net-(U1-Pad+5V)*%
X140844000Y-148114000D03*
%TO.P,U1,PC5*%
%TO.N,FLTX_V*%
X143384000Y-140494000D03*
%TO.P,U1,+3V3*%
%TO.N,+3V3*%
X143384000Y-148114000D03*
%TO.P,U1,PM5*%
%TO.N,Net-(U1-PadPM5)*%
X140844000Y-125254000D03*
%TO.P,U1,GND*%
%TO.N,GND*%
X97664000Y-84614000D03*
%TO.P,U1,PA6*%
%TO.N,BRRX_V*%
X140844000Y-130334000D03*
%TO.P,U1,PD7*%
%TO.N,Net-(U1-PadPD7)*%
X140844000Y-132874000D03*
%TO.P,U1,PE0*%
%TO.N,Net-(U1-PadPE0)*%
X140844000Y-143034000D03*
%TO.P,U1,PE5*%
%TO.N,Net-(U1-PadPE5)*%
X143384000Y-135414000D03*
%TO.P,U1,PE2*%
%TO.N,Net-(U1-PadPE2)*%
X140844000Y-137954000D03*
%TO.P,U1,PK7*%
%TO.N,Net-(U1-PadPK7)*%
X100204000Y-61754000D03*
%TO.P,U1,GND*%
%TO.N,GND*%
X140844000Y-145574000D03*
%TO.P,U1,PB3*%
%TO.N,Net-(U1-PadPB3)*%
X143384000Y-125254000D03*
%TO.P,U1,PB2*%
%TO.N,Net-(U1-PadPB2)*%
X143384000Y-127794000D03*
%TO.P,U1,PE3*%
%TO.N,Net-(U1-PadPE3)*%
X140844000Y-135414000D03*
%TO.P,U1,PB4*%
%TO.N,Net-(U1-PadPB4)*%
X140844000Y-79534000D03*
%TO.P,U1,PK0*%
%TO.N,MRRX_V*%
X140844000Y-74454000D03*
%TO.P,U1,PQ1*%
%TO.N,Net-(U1-PadPQ1)*%
X97664000Y-64294000D03*
%TO.P,U1,PK5*%
%TO.N,ML_DRIVE*%
X100204000Y-79534000D03*
%TO.P,U1,PN4*%
%TO.N,BR_FLT*%
X143384000Y-61754000D03*
%TO.P,U1,PD5*%
%TO.N,FR_FLT*%
X143384000Y-71914000D03*
%TO.P,U1,PP0*%
%TO.N,FRRX_V*%
X143384000Y-79534000D03*
%TO.P,U1,GND*%
%TO.N,GND*%
X140844000Y-82074000D03*
%TO.P,U1,Rese'*%
%TO.N,Net-(U1-PadRese')*%
X97664000Y-74454000D03*
%TO.P,U1,PK2*%
%TO.N,Net-(U1-PadPK2)*%
X140844000Y-69374000D03*
%TO.P,U1,PA5*%
%TO.N,BLTX_V*%
X140844000Y-61754000D03*
%TO.P,U1,PK3*%
%TO.N,Net-(U1-PadPK3)*%
X140844000Y-66834000D03*
%TO.P,U1,PK1*%
%TO.N,MRTX_V*%
X140844000Y-71914000D03*
%TO.P,U1,PN5*%
%TO.N,BL_FLT*%
X143384000Y-64294000D03*
%TO.P,U1,PM6*%
%TO.N,Net-(U1-PadPM6)*%
X97664000Y-61754000D03*
%TO.P,U1,PK6*%
%TO.N,Net-(U1-PadPK6)*%
X100204000Y-64294000D03*
%TO.P,U1,PH1*%
%TO.N,Net-(U1-PadPH1)*%
X100204000Y-66834000D03*
%TO.P,U1,PB5*%
%TO.N,Net-(U1-PadPB5)*%
X140844000Y-76994000D03*
%TO.P,U1,PQ0*%
%TO.N,ML_FLT*%
X143384000Y-69374000D03*
%TO.P,U1,PH0*%
%TO.N,Net-(U1-PadPH0)*%
X100204000Y-69374000D03*
%TO.P,U1,PD2*%
%TO.N,Net-(U1-PadPD2)*%
X143384000Y-82074000D03*
%TO.P,U1,PA7*%
%TO.N,BRTX_V*%
X97664000Y-76994000D03*
%TO.P,U1,PQ3*%
%TO.N,Net-(U1-PadPQ3)*%
X97664000Y-69374000D03*
%TO.P,U1,PA4*%
%TO.N,BLRX_V*%
X140844000Y-64294000D03*
%TO.P,U1,PP3*%
%TO.N,Net-(U1-PadPP3)*%
X97664000Y-66834000D03*
%TO.P,U1,PM2*%
%TO.N,BR_DRIVE*%
X100204000Y-71914000D03*
%TO.P,U1,PM1*%
%TO.N,BL_DRIVE*%
X100204000Y-74454000D03*
%TO.P,U1,PK4*%
%TO.N,FR_DRIVE*%
X100204000Y-82074000D03*
%TO.P,U1,PP1*%
%TO.N,FRTX_V*%
X143384000Y-76994000D03*
%TO.P,U1,+5V`*%
%TO.N,N/C*%
X140844000Y-84614000D03*
%TO.P,U1,+3V3`*%
X143384000Y-84614000D03*
%TO.P,U1,PQ2*%
%TO.N,Net-(U1-PadPQ2)*%
X97664000Y-71914000D03*
%TO.P,U1,PM0*%
%TO.N,MR_DRIVE*%
X100204000Y-76994000D03*
%TO.P,U1,PP4*%
%TO.N,MR_FLT*%
X143384000Y-66834000D03*
%TO.P,U1,PG1*%
%TO.N,FL_DRIVE*%
X100204000Y-84614000D03*
%TO.P,U1,PD4*%
%TO.N,FL_FLT*%
X143384000Y-74454000D03*
%TO.P,U1,PL0*%
%TO.N,Net-(U1-PadPL0)*%
X100204000Y-132874000D03*
%TO.P,U1,PF1*%
%TO.N,Net-(U1-PadPF1)*%
X100204000Y-148114000D03*
%TO.P,U1,PG0*%
%TO.N,Net-(U1-PadPG0)*%
X100204000Y-140494000D03*
%TO.P,U1,PF3*%
%TO.N,Net-(U1-PadPF3)*%
X100204000Y-143034000D03*
%TO.P,U1,PF2*%
%TO.N,Net-(U1-PadPF2)*%
X100204000Y-145574000D03*
%TO.P,U1,PL5*%
%TO.N,Net-(U1-PadPL5)*%
X100204000Y-135414000D03*
%TO.P,U1,PL4*%
%TO.N,Net-(U1-PadPL4)*%
X100204000Y-137954000D03*
%TO.P,U1,PH2*%
%TO.N,Net-(U1-PadPH2)*%
X97664000Y-143034000D03*
%TO.P,U1,PD0*%
%TO.N,Net-(U1-PadPD0)*%
X97664000Y-132874000D03*
%TO.P,U1,PN2*%
%TO.N,Net-(U1-PadPN2)*%
X97664000Y-130334000D03*
%TO.P,U1,PL2*%
%TO.N,Net-(U1-PadPL2)*%
X100204000Y-127794000D03*
%TO.P,U1,PD1*%
%TO.N,Net-(U1-PadPD1)*%
X97664000Y-135414000D03*
%TO.P,U1,PL3*%
%TO.N,Net-(U1-PadPL3)*%
X100204000Y-125254000D03*
%TO.P,U1,PN3*%
%TO.N,Net-(U1-PadPN3)*%
X97664000Y-127794000D03*
%TO.P,U1,PH3*%
%TO.N,Net-(U1-PadPH3)*%
X97664000Y-140494000D03*
%TO.P,U1,PP2*%
%TO.N,DIR_SWITCH*%
X97664000Y-125254000D03*
%TO.P,U1,GND*%
%TO.N,GND*%
X97664000Y-148114000D03*
%TO.P,U1,PL1*%
%TO.N,Net-(U1-PadPL1)*%
X100204000Y-130334000D03*
%TO.P,U1,PM3*%
%TO.N,Net-(U1-PadPM3)*%
X97664000Y-145574000D03*
%TO.P,U1,Rese*%
%TO.N,Net-(U1-PadRese)*%
X97664000Y-137954000D03*
%TD*%
D11*
%TO.P,Conn6,6*%
%TO.N,BRRX_V*%
X56464200Y-36271200D03*
%TO.P,Conn6,3*%
%TO.N,BRRX*%
X56464200Y-33274000D03*
D12*
%TO.P,Conn6,*%
%TO.N,*%
X53467000Y-29210000D03*
D11*
%TO.P,Conn6,2*%
%TO.N,GND*%
X53467000Y-33274000D03*
%TO.P,Conn6,1*%
%TO.N,BRTX*%
X50469800Y-33274000D03*
%TO.P,Conn6,4*%
%TO.N,BRTX_V*%
X50469800Y-36271200D03*
%TO.P,Conn6,5*%
%TO.N,GND*%
X53467000Y-36271200D03*
%TD*%
%TO.P,Conn5,6*%
%TO.N,BLRX_V*%
X69291200Y-36271200D03*
%TO.P,Conn5,3*%
%TO.N,BLRX*%
X69291200Y-33274000D03*
D12*
%TO.P,Conn5,*%
%TO.N,*%
X66294000Y-29210000D03*
D11*
%TO.P,Conn5,2*%
%TO.N,GND*%
X66294000Y-33274000D03*
%TO.P,Conn5,1*%
%TO.N,BLTX*%
X63296800Y-33274000D03*
%TO.P,Conn5,4*%
%TO.N,BLTX_V*%
X63296800Y-36271200D03*
%TO.P,Conn5,5*%
%TO.N,GND*%
X66294000Y-36271200D03*
%TD*%
%TO.P,Conn4,6*%
%TO.N,MRRX_V*%
X82118200Y-36271200D03*
%TO.P,Conn4,3*%
%TO.N,MRRX*%
X82118200Y-33274000D03*
D12*
%TO.P,Conn4,*%
%TO.N,*%
X79121000Y-29210000D03*
D11*
%TO.P,Conn4,2*%
%TO.N,GND*%
X79121000Y-33274000D03*
%TO.P,Conn4,1*%
%TO.N,MRTX*%
X76123800Y-33274000D03*
%TO.P,Conn4,4*%
%TO.N,MRTX_V*%
X76123800Y-36271200D03*
%TO.P,Conn4,5*%
%TO.N,GND*%
X79121000Y-36271200D03*
%TD*%
%TO.P,Conn3,6*%
%TO.N,MLRX_V*%
X94945200Y-36271200D03*
%TO.P,Conn3,3*%
%TO.N,MLRX*%
X94945200Y-33274000D03*
D12*
%TO.P,Conn3,*%
%TO.N,*%
X91948000Y-29210000D03*
D11*
%TO.P,Conn3,2*%
%TO.N,GND*%
X91948000Y-33274000D03*
%TO.P,Conn3,1*%
%TO.N,MLTX*%
X88950800Y-33274000D03*
%TO.P,Conn3,4*%
%TO.N,MLTX_V*%
X88950800Y-36271200D03*
%TO.P,Conn3,5*%
%TO.N,GND*%
X91948000Y-36271200D03*
%TD*%
%TO.P,Conn2,6*%
%TO.N,FRRX_V*%
X107772200Y-36271200D03*
%TO.P,Conn2,3*%
%TO.N,FRRX*%
X107772200Y-33274000D03*
D12*
%TO.P,Conn2,*%
%TO.N,*%
X104775000Y-29210000D03*
D11*
%TO.P,Conn2,2*%
%TO.N,GND*%
X104775000Y-33274000D03*
%TO.P,Conn2,1*%
%TO.N,FRTX*%
X101777800Y-33274000D03*
%TO.P,Conn2,4*%
%TO.N,FRTX_V*%
X101777800Y-36271200D03*
%TO.P,Conn2,5*%
%TO.N,GND*%
X104775000Y-36271200D03*
%TD*%
%TO.P,Conn1,6*%
%TO.N,FLRX_V*%
X120599200Y-36271200D03*
%TO.P,Conn1,3*%
%TO.N,FLRX*%
X120599200Y-33274000D03*
D12*
%TO.P,Conn1,*%
%TO.N,*%
X117602000Y-29210000D03*
D11*
%TO.P,Conn1,2*%
%TO.N,GND*%
X117602000Y-33274000D03*
%TO.P,Conn1,1*%
%TO.N,FLTX*%
X114604800Y-33274000D03*
%TO.P,Conn1,4*%
%TO.N,FLTX_V*%
X114604800Y-36271200D03*
%TO.P,Conn1,5*%
%TO.N,GND*%
X117602000Y-36271200D03*
%TD*%
%TO.P,U6,3*%
%TO.N,+5V*%
X154559000Y-65786000D03*
%TO.P,U6,2*%
%TO.N,GND*%
X154559000Y-63246000D03*
%TO.P,U6,1*%
%TO.N,+12V*%
X154559000Y-60706000D03*
%TD*%
%TO.P,U5,3*%
%TO.N,+3V3*%
X154559000Y-76581000D03*
%TO.P,U5,2*%
%TO.N,GND*%
X154559000Y-74041000D03*
%TO.P,U5,1*%
%TO.N,+12V*%
X154559000Y-71501000D03*
%TD*%
D13*
%TO.P,SW4,1*%
%TO.N,+3V3*%
X61569600Y-94234000D03*
X61569600Y-87325200D03*
%TO.P,SW4,2*%
%TO.N,DIR_SWITCH*%
X66167000Y-94234000D03*
X66167000Y-87325200D03*
%TO.P,SW4,3*%
%TO.N,N/C*%
X70764400Y-94234000D03*
X70764400Y-87325200D03*
%TD*%
D14*
%TO.P,Conn13,1*%
%TO.N,GND*%
X161417000Y-43205400D03*
%TO.P,Conn13,2*%
%TO.N,+12V*%
X153543000Y-43205400D03*
%TD*%
D15*
%TO.N,GND*%
X144780000Y-58674000D03*
X72644000Y-54610000D03*
X98298000Y-54610000D03*
X123571000Y-48768000D03*
X123571000Y-51689000D03*
X123571000Y-54610000D03*
X64262000Y-43307000D03*
X89916000Y-43307000D03*
X115570000Y-43307000D03*
X132080000Y-63500000D03*
X121920000Y-63500000D03*
X111760000Y-63500000D03*
X111760000Y-73660000D03*
X121920000Y-73660000D03*
X132080000Y-73660000D03*
X132080000Y-83820000D03*
X121920000Y-83820000D03*
X111760000Y-83820000D03*
X111760000Y-93980000D03*
X121920000Y-93980000D03*
X132080000Y-93980000D03*
X132080000Y-104140000D03*
X121920000Y-104140000D03*
X111760000Y-104140000D03*
X111760000Y-114300000D03*
X121920000Y-114300000D03*
X132080000Y-114300000D03*
X132080000Y-124460000D03*
X121920000Y-124460000D03*
X111760000Y-124460000D03*
X111760000Y-134620000D03*
X121920000Y-134620000D03*
X132080000Y-134620000D03*
X132080000Y-144780000D03*
X121920000Y-144780000D03*
X111760000Y-144780000D03*
X111760000Y-154940000D03*
X121920000Y-154940000D03*
X132080000Y-154940000D03*
X142240000Y-114300000D03*
X142240000Y-104140000D03*
X142240000Y-93980000D03*
X162560000Y-93980000D03*
X162560000Y-104140000D03*
X162560000Y-114300000D03*
X162560000Y-124460000D03*
X152400000Y-134620000D03*
X162560000Y-134620000D03*
X152400000Y-144780000D03*
X162560000Y-144780000D03*
X162560000Y-154940000D03*
X152400000Y-154940000D03*
X142240000Y-154940000D03*
X152400000Y-83820000D03*
X162560000Y-83820000D03*
X162560000Y-71120000D03*
X162560000Y-60960000D03*
X132080000Y-48260000D03*
X142240000Y-48260000D03*
X101600000Y-104140000D03*
X101600000Y-114300000D03*
X91440000Y-114300000D03*
X91440000Y-104140000D03*
X81280000Y-104140000D03*
X81280000Y-114300000D03*
X91440000Y-124460000D03*
X91440000Y-134620000D03*
X91440000Y-144780000D03*
X91440000Y-154940000D03*
X101600000Y-154940000D03*
X81280000Y-154940000D03*
X81280000Y-144780000D03*
X81280000Y-134620000D03*
X81280000Y-124460000D03*
X71120000Y-154940000D03*
X71120000Y-144780000D03*
X71120000Y-134620000D03*
X60960000Y-134620000D03*
X60960000Y-144780000D03*
X60960000Y-154940000D03*
X50800000Y-154940000D03*
X50800000Y-144780000D03*
X50800000Y-134620000D03*
X50800000Y-106680000D03*
X50800000Y-116840000D03*
X50800000Y-127000000D03*
X50800000Y-93980000D03*
X50800000Y-83820000D03*
X60960000Y-83820000D03*
X71120000Y-83820000D03*
X81280000Y-83820000D03*
X81280000Y-93980000D03*
X91440000Y-93980000D03*
X91440000Y-73660000D03*
X50800000Y-73660000D03*
X50800000Y-63500000D03*
X50800000Y-53340000D03*
X91440000Y-63500000D03*
X81280000Y-63500000D03*
X60833000Y-54102000D03*
X120396000Y-43180000D03*
X95123000Y-43180000D03*
X69469000Y-43180000D03*
X102870000Y-44450000D03*
X77470000Y-44450000D03*
X52070000Y-44450000D03*
X101600000Y-93980000D03*
X149860000Y-93980000D03*
X149860000Y-104140000D03*
X149860000Y-114300000D03*
X149860000Y-125730000D03*
X81788000Y-54102000D03*
X73660000Y-52832000D03*
X99822000Y-53340000D03*
X107950000Y-54610000D03*
X137287000Y-63500000D03*
X137160000Y-70231000D03*
%TO.N,+5V*%
X64008000Y-41783000D03*
X89662000Y-41783000D03*
X115316000Y-41783000D03*
X122529537Y-41757537D03*
%TO.N,FL_DRIVE*%
X54229000Y-99314000D03*
%TO.N,ML_DRIVE*%
X54229000Y-109601000D03*
%TO.N,BL_DRIVE*%
X54229000Y-119888000D03*
%TO.N,FR_DRIVE*%
X72390000Y-99314000D03*
%TO.N,MR_DRIVE*%
X72390000Y-109601000D03*
%TO.N,BR_DRIVE*%
X72390000Y-119888000D03*
%TO.N,FL_FLT*%
X109220000Y-89535000D03*
%TO.N,FR_FLT*%
X109833942Y-90325500D03*
%TO.N,ML_FLT*%
X109190314Y-91116000D03*
%TO.N,MR_FLT*%
X109800316Y-91908402D03*
%TO.N,BL_FLT*%
X109162638Y-92697001D03*
%TO.N,BR_FLT*%
X109806454Y-93489403D03*
%TO.N,MLRX_V*%
X98298000Y-47117000D03*
%TO.N,MLTX_V*%
X98298000Y-50038000D03*
%TO.N,BLRX_V*%
X72644000Y-47117000D03*
%TO.N,BLTX_V*%
X72644000Y-50038000D03*
%TD*%
D16*
%TO.N,+12V*%
X154559000Y-44221400D02*
X153543000Y-43205400D01*
X154559000Y-60706000D02*
X154559000Y-44221400D01*
X152326999Y-44421401D02*
X153543000Y-43205400D01*
X152326999Y-69268999D02*
X152326999Y-44421401D01*
X154559000Y-71501000D02*
X152326999Y-69268999D01*
D17*
%TO.N,+5V*%
X64008000Y-41783000D02*
X64008000Y-41783000D01*
X89662000Y-41783000D02*
X64008000Y-41783000D01*
X115316000Y-41783000D02*
X89662000Y-41783000D01*
X122504074Y-41783000D02*
X122529537Y-41757537D01*
X115316000Y-41783000D02*
X122504074Y-41783000D01*
D18*
%TO.N,FL_DRIVE*%
X54229000Y-99314000D02*
X55753000Y-97790000D01*
X55753000Y-97790000D02*
X101473000Y-97790000D01*
X101473000Y-97790000D02*
X102870000Y-96393000D01*
X102870000Y-87280000D02*
X100204000Y-84614000D01*
X102870000Y-96393000D02*
X102870000Y-87280000D01*
%TO.N,ML_DRIVE*%
X104032020Y-83362020D02*
X100204000Y-79534000D01*
X104032020Y-96874324D02*
X104032020Y-83362020D01*
X101954326Y-98952018D02*
X104032020Y-96874324D01*
X82217310Y-98952018D02*
X101954326Y-98952018D01*
X73219328Y-107950000D02*
X82217310Y-98952018D01*
X55880000Y-107950000D02*
X73219328Y-107950000D01*
X54229000Y-109601000D02*
X55880000Y-107950000D01*
%TO.N,BL_DRIVE*%
X105194040Y-97355648D02*
X105194040Y-79444040D01*
X105194040Y-79444040D02*
X100204000Y-74454000D01*
X102435652Y-100114036D02*
X105194040Y-97355648D01*
X73346328Y-118110000D02*
X91342292Y-100114036D01*
X56007000Y-118110000D02*
X73346328Y-118110000D01*
X91342292Y-100114036D02*
X102435652Y-100114036D01*
X54229000Y-119888000D02*
X56007000Y-118110000D01*
%TO.N,FR_DRIVE*%
X72390000Y-99314000D02*
X73332990Y-98371010D01*
X73332990Y-98371010D02*
X101713663Y-98371009D01*
X101713663Y-98371009D02*
X103451010Y-96633662D01*
X103451010Y-85321010D02*
X100204000Y-82074000D01*
X103451010Y-96633662D02*
X103451010Y-85321010D01*
%TO.N,MR_DRIVE*%
X104613030Y-81403030D02*
X100204000Y-76994000D01*
X104613030Y-97114986D02*
X104613030Y-81403030D01*
X102194989Y-99533027D02*
X104613030Y-97114986D01*
X82457972Y-99533028D02*
X102194989Y-99533027D01*
X72390000Y-109601000D02*
X82457972Y-99533028D01*
%TO.N,BR_DRIVE*%
X105775050Y-77485050D02*
X100204000Y-71914000D01*
X105775050Y-97596310D02*
X105775050Y-77485050D01*
X102676315Y-100695045D02*
X105775050Y-97596310D01*
X91582954Y-100695046D02*
X102676315Y-100695045D01*
X72390000Y-119888000D02*
X91582954Y-100695046D01*
%TO.N,FL_FLT*%
X143384000Y-74454000D02*
X146050000Y-77120000D01*
X146050000Y-77120000D02*
X146050000Y-87249000D01*
X146050000Y-87249000D02*
X146050000Y-87757000D01*
X144272000Y-89535000D02*
X109220000Y-89535000D01*
X146050000Y-87757000D02*
X144272000Y-89535000D01*
%TO.N,FR_FLT*%
X146631009Y-87997663D02*
X144512662Y-90116010D01*
X146631010Y-75161010D02*
X146631009Y-87997663D01*
X143384000Y-71914000D02*
X146631010Y-75161010D01*
X110043432Y-90116010D02*
X109833942Y-90325500D01*
X144512662Y-90116010D02*
X110043432Y-90116010D01*
%TO.N,ML_FLT*%
X143384000Y-69374000D02*
X147212019Y-73202019D01*
X147212018Y-88238326D02*
X144753324Y-90697020D01*
X147212019Y-73202019D02*
X147212018Y-88238326D01*
X144753324Y-90697020D02*
X115252500Y-90697020D01*
X115252500Y-90697020D02*
X110624443Y-90697020D01*
X110213384Y-91116000D02*
X109190314Y-91116000D01*
X110624443Y-90704941D02*
X110213384Y-91116000D01*
X110624443Y-90697020D02*
X110624443Y-90704941D01*
%TO.N,MR_FLT*%
X143384000Y-66834000D02*
X147793028Y-71243028D01*
X147793027Y-88478989D02*
X144993986Y-91278030D01*
X147793028Y-71243028D02*
X147793027Y-88478989D01*
X144993986Y-91278030D02*
X115493162Y-91278030D01*
X115493162Y-91278030D02*
X110873026Y-91278030D01*
X110242654Y-91908402D02*
X109800316Y-91908402D01*
X110873026Y-91278030D02*
X110242654Y-91908402D01*
%TO.N,BL_FLT*%
X143384000Y-64294000D02*
X148374037Y-69284037D01*
X148374037Y-69284037D02*
X148374036Y-88719652D01*
X148374036Y-88719652D02*
X145234648Y-91859040D01*
X145234648Y-91859040D02*
X115733824Y-91859040D01*
X115733824Y-91859040D02*
X111113688Y-91859040D01*
X109164540Y-92698903D02*
X109162638Y-92697001D01*
X110273825Y-92698903D02*
X109164540Y-92698903D01*
X111113688Y-91859040D02*
X110273825Y-92698903D01*
%TO.N,BR_FLT*%
X143384000Y-61754000D02*
X148955046Y-67325046D01*
X148955046Y-67325046D02*
X148955046Y-88960314D01*
X148955046Y-88960314D02*
X145475310Y-92440050D01*
X145475310Y-92440050D02*
X111354350Y-92440050D01*
X110304997Y-93489403D02*
X109806454Y-93489403D01*
X111354350Y-92440050D02*
X110304997Y-93489403D01*
%TO.N,MLRX_V*%
X150123510Y-131214490D02*
X143384000Y-137954000D01*
X150117066Y-88960314D02*
X150123510Y-88966758D01*
X150117066Y-58998394D02*
X150117066Y-88960314D01*
X147306662Y-56187990D02*
X150117066Y-58998394D01*
X107368990Y-56187990D02*
X147306662Y-56187990D01*
X98298000Y-47117000D02*
X107368990Y-56187990D01*
X151965010Y-129372990D02*
X150123510Y-131214490D01*
X151965010Y-90808258D02*
X151965010Y-129372990D01*
X150117066Y-88960314D02*
X151965010Y-90808258D01*
%TO.N,MLTX_V*%
X149536056Y-89200976D02*
X149542500Y-89207420D01*
X149536056Y-59239056D02*
X149536056Y-89200976D01*
X147066000Y-56769000D02*
X149536056Y-59239056D01*
X105029000Y-56769000D02*
X147066000Y-56769000D01*
X98298000Y-50038000D02*
X105029000Y-56769000D01*
X151384000Y-122334000D02*
X146050000Y-127668000D01*
X151384000Y-91048920D02*
X151384000Y-122334000D01*
X146050000Y-127668000D02*
X143384000Y-130334000D01*
X149536056Y-89200976D02*
X151384000Y-91048920D01*
%TO.N,BLRX_V*%
X72644000Y-47117000D02*
X82877010Y-57350010D01*
X141994501Y-63143499D02*
X140844000Y-64294000D01*
X141994501Y-61201759D02*
X141994501Y-63143499D01*
X138142752Y-57350010D02*
X141994501Y-61201759D01*
X82877010Y-57350010D02*
X138142752Y-57350010D01*
%TO.N,BLTX_V*%
X137021020Y-57931020D02*
X140844000Y-61754000D01*
X80537020Y-57931020D02*
X137021020Y-57931020D01*
X72644000Y-50038000D02*
X80537020Y-57931020D01*
%TD*%
D19*
%TO.N,GND*%
X122566875Y-25581234D02*
X122822622Y-25658448D01*
X123058504Y-25783869D01*
X123265530Y-25952716D01*
X123435813Y-26158554D01*
X123562879Y-26393556D01*
X123641876Y-26648756D01*
X123673001Y-26944891D01*
X123673000Y-42639581D01*
X123669807Y-42672000D01*
X123682550Y-42801383D01*
X123720290Y-42925793D01*
X123781575Y-43040450D01*
X123804058Y-43067845D01*
X123864052Y-43140948D01*
X123964550Y-43223425D01*
X124079207Y-43284710D01*
X124203617Y-43322450D01*
X124333000Y-43335193D01*
X124365419Y-43332000D01*
X145128581Y-43332000D01*
X145161000Y-43335193D01*
X145193419Y-43332000D01*
X145290383Y-43322450D01*
X145414793Y-43284710D01*
X145529450Y-43223425D01*
X145629948Y-43140948D01*
X145712425Y-43040450D01*
X145773710Y-42925793D01*
X145811450Y-42801383D01*
X145824193Y-42672000D01*
X145821000Y-42639581D01*
X145821000Y-26956279D01*
X145850234Y-26658125D01*
X145927448Y-26402378D01*
X146052869Y-26166496D01*
X146221716Y-25959470D01*
X146427554Y-25789187D01*
X146662556Y-25662121D01*
X146917756Y-25583124D01*
X147213882Y-25552000D01*
X167988721Y-25552000D01*
X168286875Y-25581234D01*
X168542622Y-25658448D01*
X168778504Y-25783869D01*
X168985530Y-25952716D01*
X169155813Y-26158554D01*
X169282879Y-26393556D01*
X169361876Y-26648756D01*
X169393001Y-26944891D01*
X169393000Y-159447339D01*
X169052946Y-159555211D01*
X168997974Y-159578772D01*
X168942659Y-159601571D01*
X168934553Y-159605954D01*
X168587030Y-159797006D01*
X168537674Y-159830801D01*
X168487847Y-159863906D01*
X168480747Y-159869780D01*
X168176951Y-160124695D01*
X168135105Y-160167428D01*
X168092653Y-160209584D01*
X168086829Y-160216725D01*
X167838332Y-160525794D01*
X167805606Y-160575805D01*
X167772127Y-160625439D01*
X167767801Y-160633576D01*
X167584068Y-160985022D01*
X167561656Y-161040494D01*
X167538478Y-161095632D01*
X167535815Y-161104454D01*
X167423845Y-161484896D01*
X167412645Y-161543612D01*
X167400607Y-161602254D01*
X167399708Y-161611425D01*
X167363766Y-162006370D01*
X167364184Y-162066186D01*
X167363766Y-162126003D01*
X167364665Y-162135174D01*
X167406118Y-162529577D01*
X167418148Y-162588183D01*
X167429355Y-162646935D01*
X167432019Y-162655757D01*
X167549290Y-163034599D01*
X167572474Y-163089750D01*
X167594880Y-163145208D01*
X167599206Y-163153345D01*
X167787828Y-163502193D01*
X167821283Y-163551792D01*
X167854032Y-163601838D01*
X167859855Y-163608977D01*
X167859858Y-163608981D01*
X167859862Y-163608985D01*
X168112644Y-163914547D01*
X168155061Y-163956669D01*
X168196943Y-163999438D01*
X168204044Y-164005311D01*
X168511369Y-164255960D01*
X168561178Y-164289052D01*
X168610550Y-164322859D01*
X168618656Y-164327241D01*
X168968813Y-164513423D01*
X169024105Y-164536212D01*
X169079101Y-164559784D01*
X169087905Y-164562509D01*
X169393001Y-164654623D01*
X169393000Y-172687721D01*
X169363766Y-172985876D01*
X169286551Y-173241624D01*
X169161131Y-173477504D01*
X168992289Y-173684525D01*
X168786446Y-173854813D01*
X168551444Y-173981879D01*
X168296240Y-174060877D01*
X168000118Y-174092000D01*
X48927279Y-174092000D01*
X48629124Y-174062766D01*
X48373376Y-173985551D01*
X48137496Y-173860131D01*
X47930475Y-173691289D01*
X47760187Y-173485446D01*
X47633121Y-173250444D01*
X47554123Y-172995240D01*
X47523000Y-172699118D01*
X47523000Y-164656661D01*
X47863055Y-164548789D01*
X47918040Y-164525222D01*
X47973341Y-164502429D01*
X47981447Y-164498046D01*
X48328970Y-164306994D01*
X48378327Y-164273199D01*
X48428153Y-164240094D01*
X48435254Y-164234220D01*
X48739049Y-163979305D01*
X48780912Y-163936555D01*
X48823347Y-163894416D01*
X48829171Y-163887274D01*
X49077668Y-163578206D01*
X49110415Y-163528164D01*
X49143873Y-163478561D01*
X49148199Y-163470425D01*
X49331932Y-163118978D01*
X49354337Y-163063523D01*
X49377522Y-163008368D01*
X49380185Y-162999546D01*
X49492155Y-162619104D01*
X49503355Y-162560388D01*
X49515393Y-162501746D01*
X49516292Y-162492575D01*
X49552234Y-162097630D01*
X49551816Y-162037814D01*
X49552234Y-161977997D01*
X49551334Y-161968826D01*
X49509882Y-161574422D01*
X49497855Y-161515829D01*
X49486645Y-161457065D01*
X49483981Y-161448243D01*
X49366710Y-161069401D01*
X49343526Y-161014250D01*
X49321120Y-160958792D01*
X49316794Y-160950655D01*
X49128172Y-160601807D01*
X49094717Y-160552208D01*
X49061968Y-160502162D01*
X49056144Y-160495021D01*
X48803356Y-160189453D01*
X48760923Y-160147315D01*
X48719057Y-160104562D01*
X48711962Y-160098694D01*
X48711957Y-160098689D01*
X48711952Y-160098685D01*
X48404631Y-159848041D01*
X48354838Y-159814959D01*
X48305449Y-159781141D01*
X48297343Y-159776759D01*
X47947187Y-159590577D01*
X47891867Y-159567776D01*
X47836899Y-159544216D01*
X47828099Y-159541492D01*
X47828093Y-159541490D01*
X47523000Y-159449378D01*
X47523000Y-125116604D01*
X96269000Y-125116604D01*
X96269000Y-125391396D01*
X96322609Y-125660907D01*
X96427767Y-125914780D01*
X96580433Y-126143261D01*
X96774739Y-126337567D01*
X97003220Y-126490233D01*
X97084740Y-126524000D01*
X97003220Y-126557767D01*
X96774739Y-126710433D01*
X96580433Y-126904739D01*
X96427767Y-127133220D01*
X96322609Y-127387093D01*
X96269000Y-127656604D01*
X96269000Y-127931396D01*
X96322609Y-128200907D01*
X96427767Y-128454780D01*
X96580433Y-128683261D01*
X96774739Y-128877567D01*
X97003220Y-129030233D01*
X97084740Y-129064000D01*
X97003220Y-129097767D01*
X96774739Y-129250433D01*
X96580433Y-129444739D01*
X96427767Y-129673220D01*
X96322609Y-129927093D01*
X96269000Y-130196604D01*
X96269000Y-130471396D01*
X96322609Y-130740907D01*
X96427767Y-130994780D01*
X96580433Y-131223261D01*
X96774739Y-131417567D01*
X97003220Y-131570233D01*
X97084740Y-131604000D01*
X97003220Y-131637767D01*
X96774739Y-131790433D01*
X96580433Y-131984739D01*
X96427767Y-132213220D01*
X96322609Y-132467093D01*
X96269000Y-132736604D01*
X96269000Y-133011396D01*
X96322609Y-133280907D01*
X96427767Y-133534780D01*
X96580433Y-133763261D01*
X96774739Y-133957567D01*
X97003220Y-134110233D01*
X97084740Y-134144000D01*
X97003220Y-134177767D01*
X96774739Y-134330433D01*
X96580433Y-134524739D01*
X96427767Y-134753220D01*
X96322609Y-135007093D01*
X96269000Y-135276604D01*
X96269000Y-135551396D01*
X96322609Y-135820907D01*
X96427767Y-136074780D01*
X96580433Y-136303261D01*
X96774739Y-136497567D01*
X97003220Y-136650233D01*
X97084740Y-136684000D01*
X97003220Y-136717767D01*
X96774739Y-136870433D01*
X96580433Y-137064739D01*
X96427767Y-137293220D01*
X96322609Y-137547093D01*
X96269000Y-137816604D01*
X96269000Y-138091396D01*
X96322609Y-138360907D01*
X96427767Y-138614780D01*
X96580433Y-138843261D01*
X96774739Y-139037567D01*
X97003220Y-139190233D01*
X97084740Y-139224000D01*
X97003220Y-139257767D01*
X96774739Y-139410433D01*
X96580433Y-139604739D01*
X96427767Y-139833220D01*
X96322609Y-140087093D01*
X96269000Y-140356604D01*
X96269000Y-140631396D01*
X96322609Y-140900907D01*
X96427767Y-141154780D01*
X96580433Y-141383261D01*
X96774739Y-141577567D01*
X97003220Y-141730233D01*
X97084740Y-141764000D01*
X97003220Y-141797767D01*
X96774739Y-141950433D01*
X96580433Y-142144739D01*
X96427767Y-142373220D01*
X96322609Y-142627093D01*
X96269000Y-142896604D01*
X96269000Y-143171396D01*
X96322609Y-143440907D01*
X96427767Y-143694780D01*
X96580433Y-143923261D01*
X96774739Y-144117567D01*
X97003220Y-144270233D01*
X97084740Y-144304000D01*
X97003220Y-144337767D01*
X96774739Y-144490433D01*
X96580433Y-144684739D01*
X96427767Y-144913220D01*
X96322609Y-145167093D01*
X96269000Y-145436604D01*
X96269000Y-145711396D01*
X96322609Y-145980907D01*
X96427767Y-146234780D01*
X96580433Y-146463261D01*
X96774739Y-146657567D01*
X97003220Y-146810233D01*
X97257093Y-146915391D01*
X97526604Y-146969000D01*
X97801396Y-146969000D01*
X98070907Y-146915391D01*
X98324780Y-146810233D01*
X98553261Y-146657567D01*
X98747567Y-146463261D01*
X98900233Y-146234780D01*
X98934000Y-146153260D01*
X98967767Y-146234780D01*
X99120433Y-146463261D01*
X99314739Y-146657567D01*
X99543220Y-146810233D01*
X99624740Y-146844000D01*
X99543220Y-146877767D01*
X99314739Y-147030433D01*
X99120433Y-147224739D01*
X98967767Y-147453220D01*
X98862609Y-147707093D01*
X98809000Y-147976604D01*
X98809000Y-148251396D01*
X98862609Y-148520907D01*
X98967767Y-148774780D01*
X99120433Y-149003261D01*
X99314739Y-149197567D01*
X99543220Y-149350233D01*
X99797093Y-149455391D01*
X100066604Y-149509000D01*
X100341396Y-149509000D01*
X100610907Y-149455391D01*
X100864780Y-149350233D01*
X101093261Y-149197567D01*
X101287567Y-149003261D01*
X101440233Y-148774780D01*
X101545391Y-148520907D01*
X101599000Y-148251396D01*
X101599000Y-147976604D01*
X101545391Y-147707093D01*
X101440233Y-147453220D01*
X101287567Y-147224739D01*
X101093261Y-147030433D01*
X100864780Y-146877767D01*
X100783260Y-146844000D01*
X100864780Y-146810233D01*
X101093261Y-146657567D01*
X101287567Y-146463261D01*
X101440233Y-146234780D01*
X101545391Y-145980907D01*
X101599000Y-145711396D01*
X101599000Y-145436604D01*
X101545391Y-145167093D01*
X101440233Y-144913220D01*
X101287567Y-144684739D01*
X101093261Y-144490433D01*
X100864780Y-144337767D01*
X100783260Y-144304000D01*
X100864780Y-144270233D01*
X101093261Y-144117567D01*
X101287567Y-143923261D01*
X101440233Y-143694780D01*
X101545391Y-143440907D01*
X101599000Y-143171396D01*
X101599000Y-142896604D01*
X101545391Y-142627093D01*
X101440233Y-142373220D01*
X101287567Y-142144739D01*
X101093261Y-141950433D01*
X100864780Y-141797767D01*
X100783260Y-141764000D01*
X100864780Y-141730233D01*
X101093261Y-141577567D01*
X101287567Y-141383261D01*
X101440233Y-141154780D01*
X101545391Y-140900907D01*
X101599000Y-140631396D01*
X101599000Y-140356604D01*
X101545391Y-140087093D01*
X101440233Y-139833220D01*
X101287567Y-139604739D01*
X101093261Y-139410433D01*
X100864780Y-139257767D01*
X100783260Y-139224000D01*
X100864780Y-139190233D01*
X101093261Y-139037567D01*
X101287567Y-138843261D01*
X101440233Y-138614780D01*
X101545391Y-138360907D01*
X101599000Y-138091396D01*
X101599000Y-137816604D01*
X101545391Y-137547093D01*
X101440233Y-137293220D01*
X101287567Y-137064739D01*
X101093261Y-136870433D01*
X100864780Y-136717767D01*
X100783260Y-136684000D01*
X100864780Y-136650233D01*
X101093261Y-136497567D01*
X101287567Y-136303261D01*
X101440233Y-136074780D01*
X101545391Y-135820907D01*
X101599000Y-135551396D01*
X101599000Y-135276604D01*
X101545391Y-135007093D01*
X101440233Y-134753220D01*
X101287567Y-134524739D01*
X101093261Y-134330433D01*
X100864780Y-134177767D01*
X100783260Y-134144000D01*
X100864780Y-134110233D01*
X101093261Y-133957567D01*
X101287567Y-133763261D01*
X101440233Y-133534780D01*
X101545391Y-133280907D01*
X101599000Y-133011396D01*
X101599000Y-132736604D01*
X101545391Y-132467093D01*
X101440233Y-132213220D01*
X101287567Y-131984739D01*
X101093261Y-131790433D01*
X100864780Y-131637767D01*
X100783260Y-131604000D01*
X100864780Y-131570233D01*
X101093261Y-131417567D01*
X101287567Y-131223261D01*
X101440233Y-130994780D01*
X101545391Y-130740907D01*
X101599000Y-130471396D01*
X101599000Y-130196604D01*
X101545391Y-129927093D01*
X101440233Y-129673220D01*
X101287567Y-129444739D01*
X101093261Y-129250433D01*
X100864780Y-129097767D01*
X100783260Y-129064000D01*
X100864780Y-129030233D01*
X101093261Y-128877567D01*
X101287567Y-128683261D01*
X101440233Y-128454780D01*
X101545391Y-128200907D01*
X101599000Y-127931396D01*
X101599000Y-127656604D01*
X101545391Y-127387093D01*
X101440233Y-127133220D01*
X101287567Y-126904739D01*
X101093261Y-126710433D01*
X100864780Y-126557767D01*
X100783260Y-126524000D01*
X100864780Y-126490233D01*
X101093261Y-126337567D01*
X101287567Y-126143261D01*
X101440233Y-125914780D01*
X101545391Y-125660907D01*
X101599000Y-125391396D01*
X101599000Y-125116604D01*
X101545391Y-124847093D01*
X101440233Y-124593220D01*
X101287567Y-124364739D01*
X101093261Y-124170433D01*
X100864780Y-124017767D01*
X100610907Y-123912609D01*
X100341396Y-123859000D01*
X100066604Y-123859000D01*
X99797093Y-123912609D01*
X99543220Y-124017767D01*
X99314739Y-124170433D01*
X99120433Y-124364739D01*
X98967767Y-124593220D01*
X98934000Y-124674740D01*
X98900233Y-124593220D01*
X98747567Y-124364739D01*
X98553261Y-124170433D01*
X98324780Y-124017767D01*
X98070907Y-123912609D01*
X97801396Y-123859000D01*
X97526604Y-123859000D01*
X97257093Y-123912609D01*
X97003220Y-124017767D01*
X96774739Y-124170433D01*
X96580433Y-124364739D01*
X96427767Y-124593220D01*
X96322609Y-124847093D01*
X96269000Y-125116604D01*
X47523000Y-125116604D01*
X47523000Y-99212061D01*
X53194000Y-99212061D01*
X53194000Y-99415939D01*
X53233774Y-99615898D01*
X53311795Y-99804256D01*
X53425063Y-99973774D01*
X53569226Y-100117937D01*
X53738744Y-100231205D01*
X53927102Y-100309226D01*
X54127061Y-100349000D01*
X54330939Y-100349000D01*
X54530898Y-100309226D01*
X54719256Y-100231205D01*
X54888774Y-100117937D01*
X55032937Y-99973774D01*
X55146205Y-99804256D01*
X55224226Y-99615898D01*
X55256429Y-99454004D01*
X56094933Y-98615500D01*
X71624789Y-98615500D01*
X71586063Y-98654226D01*
X71472795Y-98823744D01*
X71394774Y-99012102D01*
X71355000Y-99212061D01*
X71355000Y-99415939D01*
X71394774Y-99615898D01*
X71472795Y-99804256D01*
X71586063Y-99973774D01*
X71730226Y-100117937D01*
X71899744Y-100231205D01*
X72088102Y-100309226D01*
X72288061Y-100349000D01*
X72491939Y-100349000D01*
X72691898Y-100309226D01*
X72880256Y-100231205D01*
X73049774Y-100117937D01*
X73193937Y-99973774D01*
X73307205Y-99804256D01*
X73385226Y-99615898D01*
X73417428Y-99454004D01*
X73674923Y-99196510D01*
X80805386Y-99196509D01*
X72877396Y-107124500D01*
X55920550Y-107124500D01*
X55880000Y-107120506D01*
X55839449Y-107124500D01*
X55839447Y-107124500D01*
X55718174Y-107136444D01*
X55562566Y-107183647D01*
X55419157Y-107260301D01*
X55324958Y-107337608D01*
X55324955Y-107337611D01*
X55293459Y-107363459D01*
X55267611Y-107394955D01*
X54088996Y-108573572D01*
X53927102Y-108605774D01*
X53738744Y-108683795D01*
X53569226Y-108797063D01*
X53425063Y-108941226D01*
X53311795Y-109110744D01*
X53233774Y-109299102D01*
X53194000Y-109499061D01*
X53194000Y-109702939D01*
X53233774Y-109902898D01*
X53311795Y-110091256D01*
X53425063Y-110260774D01*
X53569226Y-110404937D01*
X53738744Y-110518205D01*
X53927102Y-110596226D01*
X54127061Y-110636000D01*
X54330939Y-110636000D01*
X54530898Y-110596226D01*
X54719256Y-110518205D01*
X54888774Y-110404937D01*
X55032937Y-110260774D01*
X55146205Y-110091256D01*
X55224226Y-109902898D01*
X55256428Y-109741004D01*
X56221934Y-108775500D01*
X71762497Y-108775500D01*
X71730226Y-108797063D01*
X71586063Y-108941226D01*
X71472795Y-109110744D01*
X71394774Y-109299102D01*
X71355000Y-109499061D01*
X71355000Y-109702939D01*
X71394774Y-109902898D01*
X71472795Y-110091256D01*
X71586063Y-110260774D01*
X71730226Y-110404937D01*
X71899744Y-110518205D01*
X72088102Y-110596226D01*
X72288061Y-110636000D01*
X72491939Y-110636000D01*
X72691898Y-110596226D01*
X72880256Y-110518205D01*
X73049774Y-110404937D01*
X73193937Y-110260774D01*
X73307205Y-110091256D01*
X73385226Y-109902898D01*
X73417429Y-109741004D01*
X82799906Y-100358528D01*
X89930368Y-100358527D01*
X73004396Y-117284500D01*
X56047550Y-117284500D01*
X56007000Y-117280506D01*
X55966449Y-117284500D01*
X55966447Y-117284500D01*
X55845174Y-117296444D01*
X55689566Y-117343647D01*
X55546157Y-117420301D01*
X55451958Y-117497608D01*
X55451955Y-117497611D01*
X55420459Y-117523459D01*
X55394611Y-117554955D01*
X54088996Y-118860572D01*
X53927102Y-118892774D01*
X53738744Y-118970795D01*
X53569226Y-119084063D01*
X53425063Y-119228226D01*
X53311795Y-119397744D01*
X53233774Y-119586102D01*
X53194000Y-119786061D01*
X53194000Y-119989939D01*
X53233774Y-120189898D01*
X53311795Y-120378256D01*
X53425063Y-120547774D01*
X53569226Y-120691937D01*
X53738744Y-120805205D01*
X53927102Y-120883226D01*
X54127061Y-120923000D01*
X54330939Y-120923000D01*
X54530898Y-120883226D01*
X54719256Y-120805205D01*
X54888774Y-120691937D01*
X55032937Y-120547774D01*
X55146205Y-120378256D01*
X55224226Y-120189898D01*
X55256428Y-120028004D01*
X56348934Y-118935500D01*
X71984953Y-118935500D01*
X71899744Y-118970795D01*
X71730226Y-119084063D01*
X71586063Y-119228226D01*
X71472795Y-119397744D01*
X71394774Y-119586102D01*
X71355000Y-119786061D01*
X71355000Y-119989939D01*
X71394774Y-120189898D01*
X71472795Y-120378256D01*
X71586063Y-120547774D01*
X71730226Y-120691937D01*
X71899744Y-120805205D01*
X72088102Y-120883226D01*
X72288061Y-120923000D01*
X72491939Y-120923000D01*
X72691898Y-120883226D01*
X72880256Y-120805205D01*
X73049774Y-120691937D01*
X73193937Y-120547774D01*
X73307205Y-120378256D01*
X73385226Y-120189898D01*
X73417429Y-120028003D01*
X91924888Y-101520546D01*
X102635755Y-101520544D01*
X102676315Y-101524539D01*
X102838141Y-101508600D01*
X102993748Y-101461398D01*
X103137157Y-101384744D01*
X103231356Y-101307436D01*
X103262856Y-101281585D01*
X103288708Y-101250084D01*
X106330091Y-98208702D01*
X106361591Y-98182851D01*
X106423485Y-98107433D01*
X106464749Y-98057153D01*
X106541403Y-97913744D01*
X106570904Y-97816491D01*
X106588606Y-97758136D01*
X106600550Y-97636863D01*
X106600550Y-97636861D01*
X106604544Y-97596311D01*
X106600550Y-97555760D01*
X106600550Y-77525592D01*
X106604543Y-77485049D01*
X106600550Y-77444506D01*
X106600550Y-77444497D01*
X106588606Y-77323224D01*
X106541403Y-77167616D01*
X106464749Y-77024208D01*
X106464748Y-77024206D01*
X106410557Y-76958175D01*
X106361591Y-76898509D01*
X106330090Y-76872657D01*
X101584040Y-72126607D01*
X101599000Y-72051396D01*
X101599000Y-71776604D01*
X101545391Y-71507093D01*
X101440233Y-71253220D01*
X101287567Y-71024739D01*
X101093261Y-70830433D01*
X100864780Y-70677767D01*
X100783260Y-70644000D01*
X100864780Y-70610233D01*
X101093261Y-70457567D01*
X101287567Y-70263261D01*
X101440233Y-70034780D01*
X101545391Y-69780907D01*
X101599000Y-69511396D01*
X101599000Y-69236604D01*
X101545391Y-68967093D01*
X101440233Y-68713220D01*
X101287567Y-68484739D01*
X101093261Y-68290433D01*
X100864780Y-68137767D01*
X100783260Y-68104000D01*
X100864780Y-68070233D01*
X101093261Y-67917567D01*
X101287567Y-67723261D01*
X101440233Y-67494780D01*
X101545391Y-67240907D01*
X101599000Y-66971396D01*
X101599000Y-66696604D01*
X101545391Y-66427093D01*
X101440233Y-66173220D01*
X101287567Y-65944739D01*
X101093261Y-65750433D01*
X100864780Y-65597767D01*
X100783260Y-65564000D01*
X100864780Y-65530233D01*
X101093261Y-65377567D01*
X101287567Y-65183261D01*
X101440233Y-64954780D01*
X101545391Y-64700907D01*
X101599000Y-64431396D01*
X101599000Y-64156604D01*
X101545391Y-63887093D01*
X101440233Y-63633220D01*
X101287567Y-63404739D01*
X101093261Y-63210433D01*
X100864780Y-63057767D01*
X100783260Y-63024000D01*
X100864780Y-62990233D01*
X101093261Y-62837567D01*
X101287567Y-62643261D01*
X101440233Y-62414780D01*
X101545391Y-62160907D01*
X101599000Y-61891396D01*
X101599000Y-61616604D01*
X101545391Y-61347093D01*
X101440233Y-61093220D01*
X101287567Y-60864739D01*
X101093261Y-60670433D01*
X100864780Y-60517767D01*
X100610907Y-60412609D01*
X100341396Y-60359000D01*
X100066604Y-60359000D01*
X99797093Y-60412609D01*
X99543220Y-60517767D01*
X99314739Y-60670433D01*
X99120433Y-60864739D01*
X98967767Y-61093220D01*
X98934000Y-61174740D01*
X98900233Y-61093220D01*
X98747567Y-60864739D01*
X98553261Y-60670433D01*
X98324780Y-60517767D01*
X98070907Y-60412609D01*
X97801396Y-60359000D01*
X97526604Y-60359000D01*
X97257093Y-60412609D01*
X97003220Y-60517767D01*
X96774739Y-60670433D01*
X96580433Y-60864739D01*
X96427767Y-61093220D01*
X96322609Y-61347093D01*
X96269000Y-61616604D01*
X96269000Y-61891396D01*
X96322609Y-62160907D01*
X96427767Y-62414780D01*
X96580433Y-62643261D01*
X96774739Y-62837567D01*
X97003220Y-62990233D01*
X97084740Y-63024000D01*
X97003220Y-63057767D01*
X96774739Y-63210433D01*
X96580433Y-63404739D01*
X96427767Y-63633220D01*
X96322609Y-63887093D01*
X96269000Y-64156604D01*
X96269000Y-64431396D01*
X96322609Y-64700907D01*
X96427767Y-64954780D01*
X96580433Y-65183261D01*
X96774739Y-65377567D01*
X97003220Y-65530233D01*
X97084740Y-65564000D01*
X97003220Y-65597767D01*
X96774739Y-65750433D01*
X96580433Y-65944739D01*
X96427767Y-66173220D01*
X96322609Y-66427093D01*
X96269000Y-66696604D01*
X96269000Y-66971396D01*
X96322609Y-67240907D01*
X96427767Y-67494780D01*
X96580433Y-67723261D01*
X96774739Y-67917567D01*
X97003220Y-68070233D01*
X97084740Y-68104000D01*
X97003220Y-68137767D01*
X96774739Y-68290433D01*
X96580433Y-68484739D01*
X96427767Y-68713220D01*
X96322609Y-68967093D01*
X96269000Y-69236604D01*
X96269000Y-69511396D01*
X96322609Y-69780907D01*
X96427767Y-70034780D01*
X96580433Y-70263261D01*
X96774739Y-70457567D01*
X97003220Y-70610233D01*
X97084740Y-70644000D01*
X97003220Y-70677767D01*
X96774739Y-70830433D01*
X96580433Y-71024739D01*
X96427767Y-71253220D01*
X96322609Y-71507093D01*
X96269000Y-71776604D01*
X96269000Y-72051396D01*
X96322609Y-72320907D01*
X96427767Y-72574780D01*
X96580433Y-72803261D01*
X96774739Y-72997567D01*
X97003220Y-73150233D01*
X97084740Y-73184000D01*
X97003220Y-73217767D01*
X96774739Y-73370433D01*
X96580433Y-73564739D01*
X96427767Y-73793220D01*
X96322609Y-74047093D01*
X96269000Y-74316604D01*
X96269000Y-74591396D01*
X96322609Y-74860907D01*
X96427767Y-75114780D01*
X96580433Y-75343261D01*
X96774739Y-75537567D01*
X97003220Y-75690233D01*
X97084740Y-75724000D01*
X97003220Y-75757767D01*
X96774739Y-75910433D01*
X96580433Y-76104739D01*
X96427767Y-76333220D01*
X96322609Y-76587093D01*
X96269000Y-76856604D01*
X96269000Y-77131396D01*
X96322609Y-77400907D01*
X96427767Y-77654780D01*
X96580433Y-77883261D01*
X96774739Y-78077567D01*
X97003220Y-78230233D01*
X97084740Y-78264000D01*
X97003220Y-78297767D01*
X96774739Y-78450433D01*
X96580433Y-78644739D01*
X96427767Y-78873220D01*
X96322609Y-79127093D01*
X96269000Y-79396604D01*
X96269000Y-79671396D01*
X96322609Y-79940907D01*
X96427767Y-80194780D01*
X96580433Y-80423261D01*
X96774739Y-80617567D01*
X97003220Y-80770233D01*
X97084740Y-80804000D01*
X97003220Y-80837767D01*
X96774739Y-80990433D01*
X96580433Y-81184739D01*
X96427767Y-81413220D01*
X96322609Y-81667093D01*
X96269000Y-81936604D01*
X96269000Y-82211396D01*
X96322609Y-82480907D01*
X96427767Y-82734780D01*
X96580433Y-82963261D01*
X96774739Y-83157567D01*
X97003220Y-83310233D01*
X97257093Y-83415391D01*
X97526604Y-83469000D01*
X97801396Y-83469000D01*
X98070907Y-83415391D01*
X98324780Y-83310233D01*
X98553261Y-83157567D01*
X98747567Y-82963261D01*
X98900233Y-82734780D01*
X98934000Y-82653260D01*
X98967767Y-82734780D01*
X99120433Y-82963261D01*
X99314739Y-83157567D01*
X99543220Y-83310233D01*
X99624740Y-83344000D01*
X99543220Y-83377767D01*
X99314739Y-83530433D01*
X99120433Y-83724739D01*
X98967767Y-83953220D01*
X98862609Y-84207093D01*
X98809000Y-84476604D01*
X98809000Y-84751396D01*
X98862609Y-85020907D01*
X98967767Y-85274780D01*
X99120433Y-85503261D01*
X99314739Y-85697567D01*
X99543220Y-85850233D01*
X99797093Y-85955391D01*
X100066604Y-86009000D01*
X100341396Y-86009000D01*
X100416607Y-85994040D01*
X102044501Y-87621934D01*
X102044500Y-96051067D01*
X101131068Y-96964500D01*
X77992317Y-96964500D01*
X78000989Y-96962775D01*
X78253043Y-96858371D01*
X78479886Y-96706799D01*
X78672799Y-96513886D01*
X78824371Y-96287043D01*
X78928775Y-96034989D01*
X78982000Y-95767411D01*
X78982000Y-95494589D01*
X78928775Y-95227011D01*
X78824371Y-94974957D01*
X78672799Y-94748114D01*
X78479886Y-94555201D01*
X78253043Y-94403629D01*
X78000989Y-94299225D01*
X77733411Y-94246000D01*
X77460589Y-94246000D01*
X77193011Y-94299225D01*
X76940957Y-94403629D01*
X76714114Y-94555201D01*
X76521201Y-94748114D01*
X76369629Y-94974957D01*
X76265225Y-95227011D01*
X76212000Y-95494589D01*
X76212000Y-95767411D01*
X76265225Y-96034989D01*
X76369629Y-96287043D01*
X76521201Y-96513886D01*
X76714114Y-96706799D01*
X76940957Y-96858371D01*
X77193011Y-96962775D01*
X77201683Y-96964500D01*
X55793542Y-96964500D01*
X55752999Y-96960507D01*
X55712456Y-96964500D01*
X55712447Y-96964500D01*
X55591174Y-96976444D01*
X55435566Y-97023647D01*
X55325089Y-97082699D01*
X55292156Y-97100302D01*
X55236033Y-97146361D01*
X55166459Y-97203459D01*
X55140608Y-97234959D01*
X54088996Y-98286571D01*
X53927102Y-98318774D01*
X53738744Y-98396795D01*
X53569226Y-98510063D01*
X53425063Y-98654226D01*
X53311795Y-98823744D01*
X53233774Y-99012102D01*
X53194000Y-99212061D01*
X47523000Y-99212061D01*
X47523000Y-95494589D01*
X53352000Y-95494589D01*
X53352000Y-95767411D01*
X53405225Y-96034989D01*
X53509629Y-96287043D01*
X53661201Y-96513886D01*
X53854114Y-96706799D01*
X54080957Y-96858371D01*
X54333011Y-96962775D01*
X54600589Y-97016000D01*
X54873411Y-97016000D01*
X55140989Y-96962775D01*
X55393043Y-96858371D01*
X55619886Y-96706799D01*
X55812799Y-96513886D01*
X55964371Y-96287043D01*
X56068775Y-96034989D01*
X56122000Y-95767411D01*
X56122000Y-95494589D01*
X56068775Y-95227011D01*
X55964371Y-94974957D01*
X55812799Y-94748114D01*
X55619886Y-94555201D01*
X55393043Y-94403629D01*
X55140989Y-94299225D01*
X54873411Y-94246000D01*
X54600589Y-94246000D01*
X54333011Y-94299225D01*
X54080957Y-94403629D01*
X53854114Y-94555201D01*
X53661201Y-94748114D01*
X53509629Y-94974957D01*
X53405225Y-95227011D01*
X53352000Y-95494589D01*
X47523000Y-95494589D01*
X47523000Y-94023721D01*
X59434600Y-94023721D01*
X59434600Y-94444279D01*
X59516647Y-94856756D01*
X59677588Y-95245302D01*
X59911237Y-95594983D01*
X60208617Y-95892363D01*
X60558298Y-96126012D01*
X60946844Y-96286953D01*
X61359321Y-96369000D01*
X61779879Y-96369000D01*
X62192356Y-96286953D01*
X62580902Y-96126012D01*
X62930583Y-95892363D01*
X63227963Y-95594983D01*
X63461612Y-95245302D01*
X63622553Y-94856756D01*
X63704600Y-94444279D01*
X63704600Y-94023721D01*
X64032000Y-94023721D01*
X64032000Y-94444279D01*
X64114047Y-94856756D01*
X64274988Y-95245302D01*
X64508637Y-95594983D01*
X64806017Y-95892363D01*
X65155698Y-96126012D01*
X65544244Y-96286953D01*
X65956721Y-96369000D01*
X66377279Y-96369000D01*
X66789756Y-96286953D01*
X67178302Y-96126012D01*
X67527983Y-95892363D01*
X67825363Y-95594983D01*
X68059012Y-95245302D01*
X68219953Y-94856756D01*
X68302000Y-94444279D01*
X68302000Y-94023721D01*
X68629400Y-94023721D01*
X68629400Y-94444279D01*
X68711447Y-94856756D01*
X68872388Y-95245302D01*
X69106037Y-95594983D01*
X69403417Y-95892363D01*
X69753098Y-96126012D01*
X70141644Y-96286953D01*
X70554121Y-96369000D01*
X70974679Y-96369000D01*
X71387156Y-96286953D01*
X71775702Y-96126012D01*
X72125383Y-95892363D01*
X72422763Y-95594983D01*
X72656412Y-95245302D01*
X72817353Y-94856756D01*
X72899400Y-94444279D01*
X72899400Y-94023721D01*
X72817353Y-93611244D01*
X72656412Y-93222698D01*
X72422763Y-92873017D01*
X72125383Y-92575637D01*
X71775702Y-92341988D01*
X71387156Y-92181047D01*
X70974679Y-92099000D01*
X70554121Y-92099000D01*
X70141644Y-92181047D01*
X69753098Y-92341988D01*
X69403417Y-92575637D01*
X69106037Y-92873017D01*
X68872388Y-93222698D01*
X68711447Y-93611244D01*
X68629400Y-94023721D01*
X68302000Y-94023721D01*
X68219953Y-93611244D01*
X68059012Y-93222698D01*
X67825363Y-92873017D01*
X67527983Y-92575637D01*
X67178302Y-92341988D01*
X66789756Y-92181047D01*
X66377279Y-92099000D01*
X65956721Y-92099000D01*
X65544244Y-92181047D01*
X65155698Y-92341988D01*
X64806017Y-92575637D01*
X64508637Y-92873017D01*
X64274988Y-93222698D01*
X64114047Y-93611244D01*
X64032000Y-94023721D01*
X63704600Y-94023721D01*
X63622553Y-93611244D01*
X63461612Y-93222698D01*
X63227963Y-92873017D01*
X62930583Y-92575637D01*
X62580902Y-92341988D01*
X62192356Y-92181047D01*
X61779879Y-92099000D01*
X61359321Y-92099000D01*
X60946844Y-92181047D01*
X60558298Y-92341988D01*
X60208617Y-92575637D01*
X59911237Y-92873017D01*
X59677588Y-93222698D01*
X59516647Y-93611244D01*
X59434600Y-94023721D01*
X47523000Y-94023721D01*
X47523000Y-85791789D01*
X53352000Y-85791789D01*
X53352000Y-86064611D01*
X53405225Y-86332189D01*
X53509629Y-86584243D01*
X53661201Y-86811086D01*
X53854114Y-87003999D01*
X54080957Y-87155571D01*
X54333011Y-87259975D01*
X54600589Y-87313200D01*
X54873411Y-87313200D01*
X55140989Y-87259975D01*
X55393043Y-87155571D01*
X55453879Y-87114921D01*
X59434600Y-87114921D01*
X59434600Y-87535479D01*
X59516647Y-87947956D01*
X59677588Y-88336502D01*
X59911237Y-88686183D01*
X60208617Y-88983563D01*
X60558298Y-89217212D01*
X60946844Y-89378153D01*
X61359321Y-89460200D01*
X61779879Y-89460200D01*
X62192356Y-89378153D01*
X62580902Y-89217212D01*
X62930583Y-88983563D01*
X63227963Y-88686183D01*
X63461612Y-88336502D01*
X63622553Y-87947956D01*
X63704600Y-87535479D01*
X63704600Y-87114921D01*
X64032000Y-87114921D01*
X64032000Y-87535479D01*
X64114047Y-87947956D01*
X64274988Y-88336502D01*
X64508637Y-88686183D01*
X64806017Y-88983563D01*
X65155698Y-89217212D01*
X65544244Y-89378153D01*
X65956721Y-89460200D01*
X66377279Y-89460200D01*
X66789756Y-89378153D01*
X67178302Y-89217212D01*
X67527983Y-88983563D01*
X67825363Y-88686183D01*
X68059012Y-88336502D01*
X68219953Y-87947956D01*
X68302000Y-87535479D01*
X68302000Y-87114921D01*
X68629400Y-87114921D01*
X68629400Y-87535479D01*
X68711447Y-87947956D01*
X68872388Y-88336502D01*
X69106037Y-88686183D01*
X69403417Y-88983563D01*
X69753098Y-89217212D01*
X70141644Y-89378153D01*
X70554121Y-89460200D01*
X70974679Y-89460200D01*
X71387156Y-89378153D01*
X71775702Y-89217212D01*
X72125383Y-88983563D01*
X72422763Y-88686183D01*
X72656412Y-88336502D01*
X72817353Y-87947956D01*
X72899400Y-87535479D01*
X72899400Y-87114921D01*
X72817353Y-86702444D01*
X72656412Y-86313898D01*
X72422763Y-85964217D01*
X72250335Y-85791789D01*
X76212000Y-85791789D01*
X76212000Y-86064611D01*
X76265225Y-86332189D01*
X76369629Y-86584243D01*
X76521201Y-86811086D01*
X76714114Y-87003999D01*
X76940957Y-87155571D01*
X77193011Y-87259975D01*
X77460589Y-87313200D01*
X77733411Y-87313200D01*
X78000989Y-87259975D01*
X78253043Y-87155571D01*
X78479886Y-87003999D01*
X78672799Y-86811086D01*
X78824371Y-86584243D01*
X78928775Y-86332189D01*
X78982000Y-86064611D01*
X78982000Y-85791789D01*
X78928775Y-85524211D01*
X78824371Y-85272157D01*
X78672799Y-85045314D01*
X78479886Y-84852401D01*
X78253043Y-84700829D01*
X78000989Y-84596425D01*
X77733411Y-84543200D01*
X77460589Y-84543200D01*
X77193011Y-84596425D01*
X76940957Y-84700829D01*
X76714114Y-84852401D01*
X76521201Y-85045314D01*
X76369629Y-85272157D01*
X76265225Y-85524211D01*
X76212000Y-85791789D01*
X72250335Y-85791789D01*
X72125383Y-85666837D01*
X71775702Y-85433188D01*
X71387156Y-85272247D01*
X70974679Y-85190200D01*
X70554121Y-85190200D01*
X70141644Y-85272247D01*
X69753098Y-85433188D01*
X69403417Y-85666837D01*
X69106037Y-85964217D01*
X68872388Y-86313898D01*
X68711447Y-86702444D01*
X68629400Y-87114921D01*
X68302000Y-87114921D01*
X68219953Y-86702444D01*
X68059012Y-86313898D01*
X67825363Y-85964217D01*
X67527983Y-85666837D01*
X67178302Y-85433188D01*
X66789756Y-85272247D01*
X66377279Y-85190200D01*
X65956721Y-85190200D01*
X65544244Y-85272247D01*
X65155698Y-85433188D01*
X64806017Y-85666837D01*
X64508637Y-85964217D01*
X64274988Y-86313898D01*
X64114047Y-86702444D01*
X64032000Y-87114921D01*
X63704600Y-87114921D01*
X63622553Y-86702444D01*
X63461612Y-86313898D01*
X63227963Y-85964217D01*
X62930583Y-85666837D01*
X62580902Y-85433188D01*
X62192356Y-85272247D01*
X61779879Y-85190200D01*
X61359321Y-85190200D01*
X60946844Y-85272247D01*
X60558298Y-85433188D01*
X60208617Y-85666837D01*
X59911237Y-85964217D01*
X59677588Y-86313898D01*
X59516647Y-86702444D01*
X59434600Y-87114921D01*
X55453879Y-87114921D01*
X55619886Y-87003999D01*
X55812799Y-86811086D01*
X55964371Y-86584243D01*
X56068775Y-86332189D01*
X56122000Y-86064611D01*
X56122000Y-85791789D01*
X56068775Y-85524211D01*
X55964371Y-85272157D01*
X55812799Y-85045314D01*
X55619886Y-84852401D01*
X55393043Y-84700829D01*
X55140989Y-84596425D01*
X54873411Y-84543200D01*
X54600589Y-84543200D01*
X54333011Y-84596425D01*
X54080957Y-84700829D01*
X53854114Y-84852401D01*
X53661201Y-85045314D01*
X53509629Y-85272157D01*
X53405225Y-85524211D01*
X53352000Y-85791789D01*
X47523000Y-85791789D01*
X47523000Y-47015061D01*
X71609000Y-47015061D01*
X71609000Y-47218939D01*
X71648774Y-47418898D01*
X71726795Y-47607256D01*
X71840063Y-47776774D01*
X71984226Y-47920937D01*
X72153744Y-48034205D01*
X72342102Y-48112226D01*
X72503996Y-48144429D01*
X81465086Y-57105520D01*
X80878953Y-57105520D01*
X73671429Y-49897997D01*
X73639226Y-49736102D01*
X73561205Y-49547744D01*
X73447937Y-49378226D01*
X73303774Y-49234063D01*
X73134256Y-49120795D01*
X72945898Y-49042774D01*
X72745939Y-49003000D01*
X72542061Y-49003000D01*
X72342102Y-49042774D01*
X72153744Y-49120795D01*
X71984226Y-49234063D01*
X71840063Y-49378226D01*
X71726795Y-49547744D01*
X71648774Y-49736102D01*
X71609000Y-49936061D01*
X71609000Y-50139939D01*
X71648774Y-50339898D01*
X71726795Y-50528256D01*
X71840063Y-50697774D01*
X71984226Y-50841937D01*
X72153744Y-50955205D01*
X72342102Y-51033226D01*
X72503997Y-51065429D01*
X79924627Y-58486060D01*
X79950479Y-58517561D01*
X79989223Y-58549357D01*
X80076177Y-58620719D01*
X80194593Y-58684014D01*
X80219586Y-58697373D01*
X80375194Y-58744576D01*
X80496467Y-58756520D01*
X80496469Y-58756520D01*
X80537020Y-58760514D01*
X80577570Y-58756520D01*
X136679088Y-58756520D01*
X139463960Y-61541393D01*
X139449000Y-61616604D01*
X139449000Y-61891396D01*
X139502609Y-62160907D01*
X139607767Y-62414780D01*
X139760433Y-62643261D01*
X139954739Y-62837567D01*
X140183220Y-62990233D01*
X140264740Y-63024000D01*
X140183220Y-63057767D01*
X139954739Y-63210433D01*
X139760433Y-63404739D01*
X139607767Y-63633220D01*
X139502609Y-63887093D01*
X139449000Y-64156604D01*
X139449000Y-64431396D01*
X139502609Y-64700907D01*
X139607767Y-64954780D01*
X139760433Y-65183261D01*
X139954739Y-65377567D01*
X140183220Y-65530233D01*
X140264740Y-65564000D01*
X140183220Y-65597767D01*
X139954739Y-65750433D01*
X139760433Y-65944739D01*
X139607767Y-66173220D01*
X139502609Y-66427093D01*
X139449000Y-66696604D01*
X139449000Y-66971396D01*
X139502609Y-67240907D01*
X139607767Y-67494780D01*
X139760433Y-67723261D01*
X139954739Y-67917567D01*
X140183220Y-68070233D01*
X140264740Y-68104000D01*
X140183220Y-68137767D01*
X139954739Y-68290433D01*
X139760433Y-68484739D01*
X139607767Y-68713220D01*
X139502609Y-68967093D01*
X139449000Y-69236604D01*
X139449000Y-69511396D01*
X139502609Y-69780907D01*
X139607767Y-70034780D01*
X139760433Y-70263261D01*
X139954739Y-70457567D01*
X140183220Y-70610233D01*
X140264740Y-70644000D01*
X140183220Y-70677767D01*
X139954739Y-70830433D01*
X139760433Y-71024739D01*
X139607767Y-71253220D01*
X139502609Y-71507093D01*
X139449000Y-71776604D01*
X139449000Y-72051396D01*
X139502609Y-72320907D01*
X139607767Y-72574780D01*
X139760433Y-72803261D01*
X139954739Y-72997567D01*
X140183220Y-73150233D01*
X140264740Y-73184000D01*
X140183220Y-73217767D01*
X139954739Y-73370433D01*
X139760433Y-73564739D01*
X139607767Y-73793220D01*
X139502609Y-74047093D01*
X139449000Y-74316604D01*
X139449000Y-74591396D01*
X139502609Y-74860907D01*
X139607767Y-75114780D01*
X139760433Y-75343261D01*
X139954739Y-75537567D01*
X140183220Y-75690233D01*
X140264740Y-75724000D01*
X140183220Y-75757767D01*
X139954739Y-75910433D01*
X139760433Y-76104739D01*
X139607767Y-76333220D01*
X139502609Y-76587093D01*
X139449000Y-76856604D01*
X139449000Y-77131396D01*
X139502609Y-77400907D01*
X139607767Y-77654780D01*
X139760433Y-77883261D01*
X139954739Y-78077567D01*
X140183220Y-78230233D01*
X140264740Y-78264000D01*
X140183220Y-78297767D01*
X139954739Y-78450433D01*
X139760433Y-78644739D01*
X139607767Y-78873220D01*
X139502609Y-79127093D01*
X139449000Y-79396604D01*
X139449000Y-79671396D01*
X139502609Y-79940907D01*
X139607767Y-80194780D01*
X139760433Y-80423261D01*
X139954739Y-80617567D01*
X140183220Y-80770233D01*
X140437093Y-80875391D01*
X140706604Y-80929000D01*
X140981396Y-80929000D01*
X141250907Y-80875391D01*
X141504780Y-80770233D01*
X141733261Y-80617567D01*
X141927567Y-80423261D01*
X142080233Y-80194780D01*
X142114000Y-80113260D01*
X142147767Y-80194780D01*
X142300433Y-80423261D01*
X142494739Y-80617567D01*
X142723220Y-80770233D01*
X142804740Y-80804000D01*
X142723220Y-80837767D01*
X142494739Y-80990433D01*
X142300433Y-81184739D01*
X142147767Y-81413220D01*
X142042609Y-81667093D01*
X141989000Y-81936604D01*
X141989000Y-82211396D01*
X142042609Y-82480907D01*
X142147767Y-82734780D01*
X142300433Y-82963261D01*
X142494739Y-83157567D01*
X142723220Y-83310233D01*
X142804740Y-83344000D01*
X142723220Y-83377767D01*
X142494739Y-83530433D01*
X142300433Y-83724739D01*
X142147767Y-83953220D01*
X142114000Y-84034740D01*
X142080233Y-83953220D01*
X141927567Y-83724739D01*
X141733261Y-83530433D01*
X141504780Y-83377767D01*
X141250907Y-83272609D01*
X140981396Y-83219000D01*
X140706604Y-83219000D01*
X140437093Y-83272609D01*
X140183220Y-83377767D01*
X139954739Y-83530433D01*
X139760433Y-83724739D01*
X139607767Y-83953220D01*
X139502609Y-84207093D01*
X139449000Y-84476604D01*
X139449000Y-84751396D01*
X139502609Y-85020907D01*
X139607767Y-85274780D01*
X139760433Y-85503261D01*
X139954739Y-85697567D01*
X140183220Y-85850233D01*
X140437093Y-85955391D01*
X140706604Y-86009000D01*
X140981396Y-86009000D01*
X141250907Y-85955391D01*
X141504780Y-85850233D01*
X141733261Y-85697567D01*
X141927567Y-85503261D01*
X142080233Y-85274780D01*
X142114000Y-85193260D01*
X142147767Y-85274780D01*
X142300433Y-85503261D01*
X142494739Y-85697567D01*
X142723220Y-85850233D01*
X142977093Y-85955391D01*
X143246604Y-86009000D01*
X143521396Y-86009000D01*
X143790907Y-85955391D01*
X144044780Y-85850233D01*
X144273261Y-85697567D01*
X144467567Y-85503261D01*
X144620233Y-85274780D01*
X144725391Y-85020907D01*
X144779000Y-84751396D01*
X144779000Y-84476604D01*
X144725391Y-84207093D01*
X144620233Y-83953220D01*
X144467567Y-83724739D01*
X144273261Y-83530433D01*
X144044780Y-83377767D01*
X143963260Y-83344000D01*
X144044780Y-83310233D01*
X144273261Y-83157567D01*
X144467567Y-82963261D01*
X144620233Y-82734780D01*
X144725391Y-82480907D01*
X144779000Y-82211396D01*
X144779000Y-81936604D01*
X144725391Y-81667093D01*
X144620233Y-81413220D01*
X144467567Y-81184739D01*
X144273261Y-80990433D01*
X144044780Y-80837767D01*
X143963260Y-80804000D01*
X144044780Y-80770233D01*
X144273261Y-80617567D01*
X144467567Y-80423261D01*
X144620233Y-80194780D01*
X144725391Y-79940907D01*
X144779000Y-79671396D01*
X144779000Y-79396604D01*
X144725391Y-79127093D01*
X144620233Y-78873220D01*
X144467567Y-78644739D01*
X144273261Y-78450433D01*
X144044780Y-78297767D01*
X143963260Y-78264000D01*
X144044780Y-78230233D01*
X144273261Y-78077567D01*
X144467567Y-77883261D01*
X144620233Y-77654780D01*
X144725391Y-77400907D01*
X144779000Y-77131396D01*
X144779000Y-77016433D01*
X145224500Y-77461933D01*
X145224501Y-87208438D01*
X145224500Y-87208448D01*
X145224500Y-87415066D01*
X143930068Y-88709500D01*
X109847503Y-88709500D01*
X109710256Y-88617795D01*
X109521898Y-88539774D01*
X109321939Y-88500000D01*
X109118061Y-88500000D01*
X108918102Y-88539774D01*
X108729744Y-88617795D01*
X108560226Y-88731063D01*
X108416063Y-88875226D01*
X108302795Y-89044744D01*
X108224774Y-89233102D01*
X108185000Y-89433061D01*
X108185000Y-89636939D01*
X108224774Y-89836898D01*
X108302795Y-90025256D01*
X108416063Y-90194774D01*
X108532226Y-90310937D01*
X108530540Y-90312063D01*
X108386377Y-90456226D01*
X108273109Y-90625744D01*
X108195088Y-90814102D01*
X108155314Y-91014061D01*
X108155314Y-91217939D01*
X108195088Y-91417898D01*
X108273109Y-91606256D01*
X108386377Y-91775774D01*
X108503345Y-91892742D01*
X108502864Y-91893064D01*
X108358701Y-92037227D01*
X108245433Y-92206745D01*
X108167412Y-92395103D01*
X108127638Y-92595062D01*
X108127638Y-92798940D01*
X108167412Y-92998899D01*
X108245433Y-93187257D01*
X108358701Y-93356775D01*
X108502864Y-93500938D01*
X108672382Y-93614206D01*
X108785306Y-93660981D01*
X108811228Y-93791301D01*
X108889249Y-93979659D01*
X109002517Y-94149177D01*
X109146680Y-94293340D01*
X109316198Y-94406608D01*
X109504556Y-94484629D01*
X109704515Y-94524403D01*
X109908393Y-94524403D01*
X110108352Y-94484629D01*
X110296710Y-94406608D01*
X110449240Y-94304691D01*
X110466823Y-94302959D01*
X110622431Y-94255756D01*
X110765839Y-94179102D01*
X110891538Y-94075944D01*
X110917395Y-94044437D01*
X111696283Y-93265550D01*
X145434760Y-93265550D01*
X145475310Y-93269544D01*
X145515860Y-93265550D01*
X145515863Y-93265550D01*
X145637136Y-93253606D01*
X145792744Y-93206403D01*
X145936152Y-93129749D01*
X146061851Y-93026591D01*
X146087708Y-92995084D01*
X149125221Y-89957573D01*
X150558500Y-91390853D01*
X150558501Y-121992066D01*
X145494964Y-127055604D01*
X145494958Y-127055609D01*
X144779000Y-127771567D01*
X144779000Y-127656604D01*
X144725391Y-127387093D01*
X144620233Y-127133220D01*
X144467567Y-126904739D01*
X144273261Y-126710433D01*
X144044780Y-126557767D01*
X143963260Y-126524000D01*
X144044780Y-126490233D01*
X144273261Y-126337567D01*
X144467567Y-126143261D01*
X144620233Y-125914780D01*
X144725391Y-125660907D01*
X144779000Y-125391396D01*
X144779000Y-125116604D01*
X144725391Y-124847093D01*
X144620233Y-124593220D01*
X144467567Y-124364739D01*
X144273261Y-124170433D01*
X144044780Y-124017767D01*
X143790907Y-123912609D01*
X143521396Y-123859000D01*
X143246604Y-123859000D01*
X142977093Y-123912609D01*
X142723220Y-124017767D01*
X142494739Y-124170433D01*
X142300433Y-124364739D01*
X142147767Y-124593220D01*
X142114000Y-124674740D01*
X142080233Y-124593220D01*
X141927567Y-124364739D01*
X141733261Y-124170433D01*
X141504780Y-124017767D01*
X141250907Y-123912609D01*
X140981396Y-123859000D01*
X140706604Y-123859000D01*
X140437093Y-123912609D01*
X140183220Y-124017767D01*
X139954739Y-124170433D01*
X139760433Y-124364739D01*
X139607767Y-124593220D01*
X139502609Y-124847093D01*
X139449000Y-125116604D01*
X139449000Y-125391396D01*
X139502609Y-125660907D01*
X139607767Y-125914780D01*
X139760433Y-126143261D01*
X139954739Y-126337567D01*
X140183220Y-126490233D01*
X140264740Y-126524000D01*
X140183220Y-126557767D01*
X139954739Y-126710433D01*
X139760433Y-126904739D01*
X139607767Y-127133220D01*
X139502609Y-127387093D01*
X139449000Y-127656604D01*
X139449000Y-127931396D01*
X139502609Y-128200907D01*
X139607767Y-128454780D01*
X139760433Y-128683261D01*
X139954739Y-128877567D01*
X140183220Y-129030233D01*
X140264740Y-129064000D01*
X140183220Y-129097767D01*
X139954739Y-129250433D01*
X139760433Y-129444739D01*
X139607767Y-129673220D01*
X139502609Y-129927093D01*
X139449000Y-130196604D01*
X139449000Y-130471396D01*
X139502609Y-130740907D01*
X139607767Y-130994780D01*
X139760433Y-131223261D01*
X139954739Y-131417567D01*
X140183220Y-131570233D01*
X140264740Y-131604000D01*
X140183220Y-131637767D01*
X139954739Y-131790433D01*
X139760433Y-131984739D01*
X139607767Y-132213220D01*
X139502609Y-132467093D01*
X139449000Y-132736604D01*
X139449000Y-133011396D01*
X139502609Y-133280907D01*
X139607767Y-133534780D01*
X139760433Y-133763261D01*
X139954739Y-133957567D01*
X140183220Y-134110233D01*
X140264740Y-134144000D01*
X140183220Y-134177767D01*
X139954739Y-134330433D01*
X139760433Y-134524739D01*
X139607767Y-134753220D01*
X139502609Y-135007093D01*
X139449000Y-135276604D01*
X139449000Y-135551396D01*
X139502609Y-135820907D01*
X139607767Y-136074780D01*
X139760433Y-136303261D01*
X139954739Y-136497567D01*
X140183220Y-136650233D01*
X140264740Y-136684000D01*
X140183220Y-136717767D01*
X139954739Y-136870433D01*
X139760433Y-137064739D01*
X139607767Y-137293220D01*
X139502609Y-137547093D01*
X139449000Y-137816604D01*
X139449000Y-138091396D01*
X139502609Y-138360907D01*
X139607767Y-138614780D01*
X139760433Y-138843261D01*
X139954739Y-139037567D01*
X140183220Y-139190233D01*
X140264740Y-139224000D01*
X140183220Y-139257767D01*
X139954739Y-139410433D01*
X139760433Y-139604739D01*
X139607767Y-139833220D01*
X139502609Y-140087093D01*
X139449000Y-140356604D01*
X139449000Y-140631396D01*
X139502609Y-140900907D01*
X139607767Y-141154780D01*
X139760433Y-141383261D01*
X139954739Y-141577567D01*
X140183220Y-141730233D01*
X140264740Y-141764000D01*
X140183220Y-141797767D01*
X139954739Y-141950433D01*
X139760433Y-142144739D01*
X139607767Y-142373220D01*
X139502609Y-142627093D01*
X139449000Y-142896604D01*
X139449000Y-143171396D01*
X139502609Y-143440907D01*
X139607767Y-143694780D01*
X139760433Y-143923261D01*
X139954739Y-144117567D01*
X140183220Y-144270233D01*
X140437093Y-144375391D01*
X140706604Y-144429000D01*
X140981396Y-144429000D01*
X141250907Y-144375391D01*
X141504780Y-144270233D01*
X141733261Y-144117567D01*
X141927567Y-143923261D01*
X142080233Y-143694780D01*
X142114000Y-143613260D01*
X142147767Y-143694780D01*
X142300433Y-143923261D01*
X142494739Y-144117567D01*
X142723220Y-144270233D01*
X142804740Y-144304000D01*
X142723220Y-144337767D01*
X142494739Y-144490433D01*
X142300433Y-144684739D01*
X142147767Y-144913220D01*
X142042609Y-145167093D01*
X141989000Y-145436604D01*
X141989000Y-145711396D01*
X142042609Y-145980907D01*
X142147767Y-146234780D01*
X142300433Y-146463261D01*
X142494739Y-146657567D01*
X142723220Y-146810233D01*
X142804740Y-146844000D01*
X142723220Y-146877767D01*
X142494739Y-147030433D01*
X142300433Y-147224739D01*
X142147767Y-147453220D01*
X142114000Y-147534740D01*
X142080233Y-147453220D01*
X141927567Y-147224739D01*
X141733261Y-147030433D01*
X141504780Y-146877767D01*
X141250907Y-146772609D01*
X140981396Y-146719000D01*
X140706604Y-146719000D01*
X140437093Y-146772609D01*
X140183220Y-146877767D01*
X139954739Y-147030433D01*
X139760433Y-147224739D01*
X139607767Y-147453220D01*
X139502609Y-147707093D01*
X139449000Y-147976604D01*
X139449000Y-148251396D01*
X139502609Y-148520907D01*
X139607767Y-148774780D01*
X139760433Y-149003261D01*
X139954739Y-149197567D01*
X140183220Y-149350233D01*
X140437093Y-149455391D01*
X140706604Y-149509000D01*
X140981396Y-149509000D01*
X141250907Y-149455391D01*
X141504780Y-149350233D01*
X141733261Y-149197567D01*
X141927567Y-149003261D01*
X142080233Y-148774780D01*
X142114000Y-148693260D01*
X142147767Y-148774780D01*
X142300433Y-149003261D01*
X142494739Y-149197567D01*
X142723220Y-149350233D01*
X142977093Y-149455391D01*
X143246604Y-149509000D01*
X143521396Y-149509000D01*
X143790907Y-149455391D01*
X144044780Y-149350233D01*
X144273261Y-149197567D01*
X144467567Y-149003261D01*
X144620233Y-148774780D01*
X144725391Y-148520907D01*
X144779000Y-148251396D01*
X144779000Y-147976604D01*
X144725391Y-147707093D01*
X144620233Y-147453220D01*
X144467567Y-147224739D01*
X144273261Y-147030433D01*
X144044780Y-146877767D01*
X143963260Y-146844000D01*
X144044780Y-146810233D01*
X144273261Y-146657567D01*
X144467567Y-146463261D01*
X144620233Y-146234780D01*
X144725391Y-145980907D01*
X144779000Y-145711396D01*
X144779000Y-145436604D01*
X144725391Y-145167093D01*
X144620233Y-144913220D01*
X144467567Y-144684739D01*
X144273261Y-144490433D01*
X144044780Y-144337767D01*
X143963260Y-144304000D01*
X144044780Y-144270233D01*
X144273261Y-144117567D01*
X144467567Y-143923261D01*
X144620233Y-143694780D01*
X144725391Y-143440907D01*
X144779000Y-143171396D01*
X144779000Y-142896604D01*
X144725391Y-142627093D01*
X144620233Y-142373220D01*
X144467567Y-142144739D01*
X144273261Y-141950433D01*
X144044780Y-141797767D01*
X143963260Y-141764000D01*
X144044780Y-141730233D01*
X144273261Y-141577567D01*
X144467567Y-141383261D01*
X144620233Y-141154780D01*
X144725391Y-140900907D01*
X144779000Y-140631396D01*
X144779000Y-140356604D01*
X144725391Y-140087093D01*
X144620233Y-139833220D01*
X144467567Y-139604739D01*
X144273261Y-139410433D01*
X144044780Y-139257767D01*
X143963260Y-139224000D01*
X144044780Y-139190233D01*
X144273261Y-139037567D01*
X144467567Y-138843261D01*
X144620233Y-138614780D01*
X144725391Y-138360907D01*
X144779000Y-138091396D01*
X144779000Y-137816604D01*
X144764040Y-137741393D01*
X150735901Y-131769532D01*
X150735905Y-131769527D01*
X152520049Y-129985384D01*
X152551551Y-129959531D01*
X152622435Y-129873158D01*
X152654709Y-129833833D01*
X152681409Y-129783879D01*
X152731363Y-129690424D01*
X152778566Y-129534816D01*
X152790510Y-129413543D01*
X152790510Y-129413541D01*
X152794504Y-129372991D01*
X152790510Y-129332440D01*
X152790510Y-90848800D01*
X152794503Y-90808257D01*
X152790510Y-90767714D01*
X152790510Y-90767705D01*
X152778566Y-90646432D01*
X152731363Y-90490824D01*
X152654709Y-90347416D01*
X152654708Y-90347414D01*
X152577401Y-90253216D01*
X152551551Y-90221717D01*
X152520051Y-90195866D01*
X150942566Y-88618382D01*
X150942566Y-76443408D01*
X153162000Y-76443408D01*
X153162000Y-76718592D01*
X153215686Y-76988490D01*
X153320995Y-77242727D01*
X153473880Y-77471535D01*
X153668465Y-77666120D01*
X153897273Y-77819005D01*
X154151510Y-77924314D01*
X154421408Y-77978000D01*
X154696592Y-77978000D01*
X154966490Y-77924314D01*
X155220727Y-77819005D01*
X155449535Y-77666120D01*
X155644120Y-77471535D01*
X155797005Y-77242727D01*
X155902314Y-76988490D01*
X155956000Y-76718592D01*
X155956000Y-76443408D01*
X155902314Y-76173510D01*
X155797005Y-75919273D01*
X155644120Y-75690465D01*
X155449535Y-75495880D01*
X155220727Y-75342995D01*
X154966490Y-75237686D01*
X154696592Y-75184000D01*
X154421408Y-75184000D01*
X154151510Y-75237686D01*
X153897273Y-75342995D01*
X153668465Y-75495880D01*
X153473880Y-75690465D01*
X153320995Y-75919273D01*
X153215686Y-76173510D01*
X153162000Y-76443408D01*
X150942566Y-76443408D01*
X150942566Y-70584931D01*
X150973443Y-70622555D01*
X151046144Y-70682219D01*
X153278133Y-72914210D01*
X153495517Y-73092613D01*
X153826460Y-73269505D01*
X154185554Y-73378435D01*
X154558999Y-73415217D01*
X154932444Y-73378435D01*
X155291539Y-73269505D01*
X155622482Y-73092613D01*
X155912555Y-72854555D01*
X156150613Y-72564482D01*
X156327505Y-72233539D01*
X156436435Y-71874444D01*
X156473217Y-71500999D01*
X156436435Y-71127554D01*
X156327505Y-70768460D01*
X156150613Y-70437517D01*
X155972210Y-70220133D01*
X154231999Y-68479923D01*
X154231999Y-67145324D01*
X154421408Y-67183000D01*
X154696592Y-67183000D01*
X154966490Y-67129314D01*
X155220727Y-67024005D01*
X155449535Y-66871120D01*
X155644120Y-66676535D01*
X155797005Y-66447727D01*
X155902314Y-66193490D01*
X155956000Y-65923592D01*
X155956000Y-65648408D01*
X155902314Y-65378510D01*
X155797005Y-65124273D01*
X155644120Y-64895465D01*
X155449535Y-64700880D01*
X155220727Y-64547995D01*
X154966490Y-64442686D01*
X154696592Y-64389000D01*
X154421408Y-64389000D01*
X154231999Y-64426676D01*
X154231999Y-62588010D01*
X154559000Y-62620217D01*
X154932444Y-62583436D01*
X155291538Y-62474506D01*
X155622482Y-62297613D01*
X155912556Y-62059556D01*
X156150613Y-61769482D01*
X156327506Y-61438539D01*
X156436436Y-61079445D01*
X156464000Y-60799582D01*
X156464000Y-44450155D01*
X156595986Y-44131513D01*
X156718000Y-43518110D01*
X156718000Y-42892690D01*
X156595986Y-42279287D01*
X156356648Y-41701474D01*
X156009183Y-41181456D01*
X155566944Y-40739217D01*
X155046926Y-40391752D01*
X154469113Y-40152414D01*
X153855710Y-40030400D01*
X153230290Y-40030400D01*
X152616887Y-40152414D01*
X152039074Y-40391752D01*
X151519056Y-40739217D01*
X151076817Y-41181456D01*
X150729352Y-41701474D01*
X150490014Y-42279287D01*
X150368000Y-42892690D01*
X150368000Y-43518110D01*
X150463956Y-44000512D01*
X150449564Y-44047956D01*
X150412782Y-44421401D01*
X150422000Y-44514991D01*
X150421999Y-58135895D01*
X147919060Y-55632956D01*
X147893203Y-55601449D01*
X147767504Y-55498291D01*
X147624096Y-55421637D01*
X147468488Y-55374434D01*
X147347215Y-55362490D01*
X147347212Y-55362490D01*
X147306662Y-55358496D01*
X147266112Y-55362490D01*
X107710923Y-55362490D01*
X99325429Y-46976997D01*
X99293226Y-46815102D01*
X99215205Y-46626744D01*
X99101937Y-46457226D01*
X98957774Y-46313063D01*
X98788256Y-46199795D01*
X98599898Y-46121774D01*
X98399939Y-46082000D01*
X98196061Y-46082000D01*
X97996102Y-46121774D01*
X97807744Y-46199795D01*
X97638226Y-46313063D01*
X97494063Y-46457226D01*
X97380795Y-46626744D01*
X97302774Y-46815102D01*
X97263000Y-47015061D01*
X97263000Y-47218939D01*
X97302774Y-47418898D01*
X97380795Y-47607256D01*
X97494063Y-47776774D01*
X97638226Y-47920937D01*
X97807744Y-48034205D01*
X97996102Y-48112226D01*
X98157997Y-48144429D01*
X105957067Y-55943500D01*
X105370933Y-55943500D01*
X99325429Y-49897996D01*
X99293226Y-49736102D01*
X99215205Y-49547744D01*
X99101937Y-49378226D01*
X98957774Y-49234063D01*
X98788256Y-49120795D01*
X98599898Y-49042774D01*
X98399939Y-49003000D01*
X98196061Y-49003000D01*
X97996102Y-49042774D01*
X97807744Y-49120795D01*
X97638226Y-49234063D01*
X97494063Y-49378226D01*
X97380795Y-49547744D01*
X97302774Y-49736102D01*
X97263000Y-49936061D01*
X97263000Y-50139939D01*
X97302774Y-50339898D01*
X97380795Y-50528256D01*
X97494063Y-50697774D01*
X97638226Y-50841937D01*
X97807744Y-50955205D01*
X97996102Y-51033226D01*
X98157996Y-51065429D01*
X103617077Y-56524510D01*
X83218944Y-56524510D01*
X73671429Y-46976996D01*
X73639226Y-46815102D01*
X73561205Y-46626744D01*
X73447937Y-46457226D01*
X73303774Y-46313063D01*
X73134256Y-46199795D01*
X72945898Y-46121774D01*
X72745939Y-46082000D01*
X72542061Y-46082000D01*
X72342102Y-46121774D01*
X72153744Y-46199795D01*
X71984226Y-46313063D01*
X71840063Y-46457226D01*
X71726795Y-46626744D01*
X71648774Y-46815102D01*
X71609000Y-47015061D01*
X47523000Y-47015061D01*
X47523000Y-41681061D01*
X62973000Y-41681061D01*
X62973000Y-41884939D01*
X63012774Y-42084898D01*
X63090795Y-42273256D01*
X63204063Y-42442774D01*
X63348226Y-42586937D01*
X63517744Y-42700205D01*
X63706102Y-42778226D01*
X63906061Y-42818000D01*
X64109939Y-42818000D01*
X64205459Y-42799000D01*
X89464541Y-42799000D01*
X89560061Y-42818000D01*
X89763939Y-42818000D01*
X89859459Y-42799000D01*
X115118541Y-42799000D01*
X115214061Y-42818000D01*
X115417939Y-42818000D01*
X115513459Y-42799000D01*
X122454172Y-42799000D01*
X122504074Y-42803915D01*
X122553976Y-42799000D01*
X122619595Y-42792537D01*
X122631476Y-42792537D01*
X122643130Y-42790219D01*
X122703245Y-42784298D01*
X122761046Y-42766764D01*
X122831435Y-42752763D01*
X123019793Y-42674742D01*
X123189311Y-42561474D01*
X123333474Y-42417311D01*
X123446742Y-42247793D01*
X123524763Y-42059435D01*
X123564537Y-41859476D01*
X123564537Y-41655598D01*
X123524763Y-41455639D01*
X123446742Y-41267281D01*
X123333474Y-41097763D01*
X123189311Y-40953600D01*
X123019793Y-40840332D01*
X122831435Y-40762311D01*
X122631476Y-40722537D01*
X122427598Y-40722537D01*
X122227639Y-40762311D01*
X122216319Y-40767000D01*
X115513459Y-40767000D01*
X115417939Y-40748000D01*
X115214061Y-40748000D01*
X115118541Y-40767000D01*
X89859459Y-40767000D01*
X89763939Y-40748000D01*
X89560061Y-40748000D01*
X89464541Y-40767000D01*
X64205459Y-40767000D01*
X64109939Y-40748000D01*
X63906061Y-40748000D01*
X63706102Y-40787774D01*
X63517744Y-40865795D01*
X63348226Y-40979063D01*
X63204063Y-41123226D01*
X63090795Y-41292744D01*
X63012774Y-41481102D01*
X62973000Y-41681061D01*
X47523000Y-41681061D01*
X47523000Y-36133608D01*
X49072800Y-36133608D01*
X49072800Y-36408792D01*
X49126486Y-36678690D01*
X49231795Y-36932927D01*
X49384680Y-37161735D01*
X49579265Y-37356320D01*
X49808073Y-37509205D01*
X50062310Y-37614514D01*
X50332208Y-37668200D01*
X50607392Y-37668200D01*
X50877290Y-37614514D01*
X51131527Y-37509205D01*
X51360335Y-37356320D01*
X51554920Y-37161735D01*
X51707805Y-36932927D01*
X51813114Y-36678690D01*
X51866800Y-36408792D01*
X51866800Y-36133608D01*
X55067200Y-36133608D01*
X55067200Y-36408792D01*
X55120886Y-36678690D01*
X55226195Y-36932927D01*
X55379080Y-37161735D01*
X55573665Y-37356320D01*
X55802473Y-37509205D01*
X56056710Y-37614514D01*
X56326608Y-37668200D01*
X56601792Y-37668200D01*
X56871690Y-37614514D01*
X57125927Y-37509205D01*
X57354735Y-37356320D01*
X57549320Y-37161735D01*
X57702205Y-36932927D01*
X57807514Y-36678690D01*
X57861200Y-36408792D01*
X57861200Y-36133608D01*
X61899800Y-36133608D01*
X61899800Y-36408792D01*
X61953486Y-36678690D01*
X62058795Y-36932927D01*
X62211680Y-37161735D01*
X62406265Y-37356320D01*
X62635073Y-37509205D01*
X62889310Y-37614514D01*
X63159208Y-37668200D01*
X63434392Y-37668200D01*
X63704290Y-37614514D01*
X63958527Y-37509205D01*
X64187335Y-37356320D01*
X64381920Y-37161735D01*
X64534805Y-36932927D01*
X64640114Y-36678690D01*
X64693800Y-36408792D01*
X64693800Y-36133608D01*
X67894200Y-36133608D01*
X67894200Y-36408792D01*
X67947886Y-36678690D01*
X68053195Y-36932927D01*
X68206080Y-37161735D01*
X68400665Y-37356320D01*
X68629473Y-37509205D01*
X68883710Y-37614514D01*
X69153608Y-37668200D01*
X69428792Y-37668200D01*
X69698690Y-37614514D01*
X69952927Y-37509205D01*
X70181735Y-37356320D01*
X70376320Y-37161735D01*
X70529205Y-36932927D01*
X70634514Y-36678690D01*
X70688200Y-36408792D01*
X70688200Y-36133608D01*
X74726800Y-36133608D01*
X74726800Y-36408792D01*
X74780486Y-36678690D01*
X74885795Y-36932927D01*
X75038680Y-37161735D01*
X75233265Y-37356320D01*
X75462073Y-37509205D01*
X75716310Y-37614514D01*
X75986208Y-37668200D01*
X76261392Y-37668200D01*
X76531290Y-37614514D01*
X76785527Y-37509205D01*
X77014335Y-37356320D01*
X77208920Y-37161735D01*
X77361805Y-36932927D01*
X77467114Y-36678690D01*
X77520800Y-36408792D01*
X77520800Y-36133608D01*
X80721200Y-36133608D01*
X80721200Y-36408792D01*
X80774886Y-36678690D01*
X80880195Y-36932927D01*
X81033080Y-37161735D01*
X81227665Y-37356320D01*
X81456473Y-37509205D01*
X81710710Y-37614514D01*
X81980608Y-37668200D01*
X82255792Y-37668200D01*
X82525690Y-37614514D01*
X82779927Y-37509205D01*
X83008735Y-37356320D01*
X83203320Y-37161735D01*
X83356205Y-36932927D01*
X83461514Y-36678690D01*
X83515200Y-36408792D01*
X83515200Y-36133608D01*
X87553800Y-36133608D01*
X87553800Y-36408792D01*
X87607486Y-36678690D01*
X87712795Y-36932927D01*
X87865680Y-37161735D01*
X88060265Y-37356320D01*
X88289073Y-37509205D01*
X88543310Y-37614514D01*
X88813208Y-37668200D01*
X89088392Y-37668200D01*
X89358290Y-37614514D01*
X89612527Y-37509205D01*
X89841335Y-37356320D01*
X90035920Y-37161735D01*
X90188805Y-36932927D01*
X90294114Y-36678690D01*
X90347800Y-36408792D01*
X90347800Y-36133608D01*
X93548200Y-36133608D01*
X93548200Y-36408792D01*
X93601886Y-36678690D01*
X93707195Y-36932927D01*
X93860080Y-37161735D01*
X94054665Y-37356320D01*
X94283473Y-37509205D01*
X94537710Y-37614514D01*
X94807608Y-37668200D01*
X95082792Y-37668200D01*
X95352690Y-37614514D01*
X95606927Y-37509205D01*
X95835735Y-37356320D01*
X96030320Y-37161735D01*
X96183205Y-36932927D01*
X96288514Y-36678690D01*
X96342200Y-36408792D01*
X96342200Y-36133608D01*
X100380800Y-36133608D01*
X100380800Y-36408792D01*
X100434486Y-36678690D01*
X100539795Y-36932927D01*
X100692680Y-37161735D01*
X100887265Y-37356320D01*
X101116073Y-37509205D01*
X101370310Y-37614514D01*
X101640208Y-37668200D01*
X101915392Y-37668200D01*
X102185290Y-37614514D01*
X102439527Y-37509205D01*
X102668335Y-37356320D01*
X102862920Y-37161735D01*
X103015805Y-36932927D01*
X103121114Y-36678690D01*
X103174800Y-36408792D01*
X103174800Y-36133608D01*
X106375200Y-36133608D01*
X106375200Y-36408792D01*
X106428886Y-36678690D01*
X106534195Y-36932927D01*
X106687080Y-37161735D01*
X106881665Y-37356320D01*
X107110473Y-37509205D01*
X107364710Y-37614514D01*
X107634608Y-37668200D01*
X107909792Y-37668200D01*
X108179690Y-37614514D01*
X108433927Y-37509205D01*
X108662735Y-37356320D01*
X108857320Y-37161735D01*
X109010205Y-36932927D01*
X109115514Y-36678690D01*
X109169200Y-36408792D01*
X109169200Y-36133608D01*
X113207800Y-36133608D01*
X113207800Y-36408792D01*
X113261486Y-36678690D01*
X113366795Y-36932927D01*
X113519680Y-37161735D01*
X113714265Y-37356320D01*
X113943073Y-37509205D01*
X114197310Y-37614514D01*
X114467208Y-37668200D01*
X114742392Y-37668200D01*
X115012290Y-37614514D01*
X115266527Y-37509205D01*
X115495335Y-37356320D01*
X115689920Y-37161735D01*
X115842805Y-36932927D01*
X115948114Y-36678690D01*
X116001800Y-36408792D01*
X116001800Y-36133608D01*
X119202200Y-36133608D01*
X119202200Y-36408792D01*
X119255886Y-36678690D01*
X119361195Y-36932927D01*
X119514080Y-37161735D01*
X119708665Y-37356320D01*
X119937473Y-37509205D01*
X120191710Y-37614514D01*
X120461608Y-37668200D01*
X120736792Y-37668200D01*
X121006690Y-37614514D01*
X121260927Y-37509205D01*
X121489735Y-37356320D01*
X121684320Y-37161735D01*
X121837205Y-36932927D01*
X121942514Y-36678690D01*
X121996200Y-36408792D01*
X121996200Y-36133608D01*
X121942514Y-35863710D01*
X121837205Y-35609473D01*
X121684320Y-35380665D01*
X121489735Y-35186080D01*
X121260927Y-35033195D01*
X121006690Y-34927886D01*
X120736792Y-34874200D01*
X120461608Y-34874200D01*
X120191710Y-34927886D01*
X119937473Y-35033195D01*
X119708665Y-35186080D01*
X119514080Y-35380665D01*
X119361195Y-35609473D01*
X119255886Y-35863710D01*
X119202200Y-36133608D01*
X116001800Y-36133608D01*
X115948114Y-35863710D01*
X115842805Y-35609473D01*
X115689920Y-35380665D01*
X115495335Y-35186080D01*
X115266527Y-35033195D01*
X115012290Y-34927886D01*
X114742392Y-34874200D01*
X114467208Y-34874200D01*
X114197310Y-34927886D01*
X113943073Y-35033195D01*
X113714265Y-35186080D01*
X113519680Y-35380665D01*
X113366795Y-35609473D01*
X113261486Y-35863710D01*
X113207800Y-36133608D01*
X109169200Y-36133608D01*
X109115514Y-35863710D01*
X109010205Y-35609473D01*
X108857320Y-35380665D01*
X108662735Y-35186080D01*
X108433927Y-35033195D01*
X108179690Y-34927886D01*
X107909792Y-34874200D01*
X107634608Y-34874200D01*
X107364710Y-34927886D01*
X107110473Y-35033195D01*
X106881665Y-35186080D01*
X106687080Y-35380665D01*
X106534195Y-35609473D01*
X106428886Y-35863710D01*
X106375200Y-36133608D01*
X103174800Y-36133608D01*
X103121114Y-35863710D01*
X103015805Y-35609473D01*
X102862920Y-35380665D01*
X102668335Y-35186080D01*
X102439527Y-35033195D01*
X102185290Y-34927886D01*
X101915392Y-34874200D01*
X101640208Y-34874200D01*
X101370310Y-34927886D01*
X101116073Y-35033195D01*
X100887265Y-35186080D01*
X100692680Y-35380665D01*
X100539795Y-35609473D01*
X100434486Y-35863710D01*
X100380800Y-36133608D01*
X96342200Y-36133608D01*
X96288514Y-35863710D01*
X96183205Y-35609473D01*
X96030320Y-35380665D01*
X95835735Y-35186080D01*
X95606927Y-35033195D01*
X95352690Y-34927886D01*
X95082792Y-34874200D01*
X94807608Y-34874200D01*
X94537710Y-34927886D01*
X94283473Y-35033195D01*
X94054665Y-35186080D01*
X93860080Y-35380665D01*
X93707195Y-35609473D01*
X93601886Y-35863710D01*
X93548200Y-36133608D01*
X90347800Y-36133608D01*
X90294114Y-35863710D01*
X90188805Y-35609473D01*
X90035920Y-35380665D01*
X89841335Y-35186080D01*
X89612527Y-35033195D01*
X89358290Y-34927886D01*
X89088392Y-34874200D01*
X88813208Y-34874200D01*
X88543310Y-34927886D01*
X88289073Y-35033195D01*
X88060265Y-35186080D01*
X87865680Y-35380665D01*
X87712795Y-35609473D01*
X87607486Y-35863710D01*
X87553800Y-36133608D01*
X83515200Y-36133608D01*
X83461514Y-35863710D01*
X83356205Y-35609473D01*
X83203320Y-35380665D01*
X83008735Y-35186080D01*
X82779927Y-35033195D01*
X82525690Y-34927886D01*
X82255792Y-34874200D01*
X81980608Y-34874200D01*
X81710710Y-34927886D01*
X81456473Y-35033195D01*
X81227665Y-35186080D01*
X81033080Y-35380665D01*
X80880195Y-35609473D01*
X80774886Y-35863710D01*
X80721200Y-36133608D01*
X77520800Y-36133608D01*
X77467114Y-35863710D01*
X77361805Y-35609473D01*
X77208920Y-35380665D01*
X77014335Y-35186080D01*
X76785527Y-35033195D01*
X76531290Y-34927886D01*
X76261392Y-34874200D01*
X75986208Y-34874200D01*
X75716310Y-34927886D01*
X75462073Y-35033195D01*
X75233265Y-35186080D01*
X75038680Y-35380665D01*
X74885795Y-35609473D01*
X74780486Y-35863710D01*
X74726800Y-36133608D01*
X70688200Y-36133608D01*
X70634514Y-35863710D01*
X70529205Y-35609473D01*
X70376320Y-35380665D01*
X70181735Y-35186080D01*
X69952927Y-35033195D01*
X69698690Y-34927886D01*
X69428792Y-34874200D01*
X69153608Y-34874200D01*
X68883710Y-34927886D01*
X68629473Y-35033195D01*
X68400665Y-35186080D01*
X68206080Y-35380665D01*
X68053195Y-35609473D01*
X67947886Y-35863710D01*
X67894200Y-36133608D01*
X64693800Y-36133608D01*
X64640114Y-35863710D01*
X64534805Y-35609473D01*
X64381920Y-35380665D01*
X64187335Y-35186080D01*
X63958527Y-35033195D01*
X63704290Y-34927886D01*
X63434392Y-34874200D01*
X63159208Y-34874200D01*
X62889310Y-34927886D01*
X62635073Y-35033195D01*
X62406265Y-35186080D01*
X62211680Y-35380665D01*
X62058795Y-35609473D01*
X61953486Y-35863710D01*
X61899800Y-36133608D01*
X57861200Y-36133608D01*
X57807514Y-35863710D01*
X57702205Y-35609473D01*
X57549320Y-35380665D01*
X57354735Y-35186080D01*
X57125927Y-35033195D01*
X56871690Y-34927886D01*
X56601792Y-34874200D01*
X56326608Y-34874200D01*
X56056710Y-34927886D01*
X55802473Y-35033195D01*
X55573665Y-35186080D01*
X55379080Y-35380665D01*
X55226195Y-35609473D01*
X55120886Y-35863710D01*
X55067200Y-36133608D01*
X51866800Y-36133608D01*
X51813114Y-35863710D01*
X51707805Y-35609473D01*
X51554920Y-35380665D01*
X51360335Y-35186080D01*
X51131527Y-35033195D01*
X50877290Y-34927886D01*
X50607392Y-34874200D01*
X50332208Y-34874200D01*
X50062310Y-34927886D01*
X49808073Y-35033195D01*
X49579265Y-35186080D01*
X49384680Y-35380665D01*
X49231795Y-35609473D01*
X49126486Y-35863710D01*
X49072800Y-36133608D01*
X47523000Y-36133608D01*
X47523000Y-33136408D01*
X49072800Y-33136408D01*
X49072800Y-33411592D01*
X49126486Y-33681490D01*
X49231795Y-33935727D01*
X49384680Y-34164535D01*
X49579265Y-34359120D01*
X49808073Y-34512005D01*
X50062310Y-34617314D01*
X50332208Y-34671000D01*
X50607392Y-34671000D01*
X50877290Y-34617314D01*
X51131527Y-34512005D01*
X51360335Y-34359120D01*
X51554920Y-34164535D01*
X51707805Y-33935727D01*
X51813114Y-33681490D01*
X51866800Y-33411592D01*
X51866800Y-33136408D01*
X55067200Y-33136408D01*
X55067200Y-33411592D01*
X55120886Y-33681490D01*
X55226195Y-33935727D01*
X55379080Y-34164535D01*
X55573665Y-34359120D01*
X55802473Y-34512005D01*
X56056710Y-34617314D01*
X56326608Y-34671000D01*
X56601792Y-34671000D01*
X56871690Y-34617314D01*
X57125927Y-34512005D01*
X57354735Y-34359120D01*
X57549320Y-34164535D01*
X57702205Y-33935727D01*
X57807514Y-33681490D01*
X57861200Y-33411592D01*
X57861200Y-33136408D01*
X61899800Y-33136408D01*
X61899800Y-33411592D01*
X61953486Y-33681490D01*
X62058795Y-33935727D01*
X62211680Y-34164535D01*
X62406265Y-34359120D01*
X62635073Y-34512005D01*
X62889310Y-34617314D01*
X63159208Y-34671000D01*
X63434392Y-34671000D01*
X63704290Y-34617314D01*
X63958527Y-34512005D01*
X64187335Y-34359120D01*
X64381920Y-34164535D01*
X64534805Y-33935727D01*
X64640114Y-33681490D01*
X64693800Y-33411592D01*
X64693800Y-33136408D01*
X67894200Y-33136408D01*
X67894200Y-33411592D01*
X67947886Y-33681490D01*
X68053195Y-33935727D01*
X68206080Y-34164535D01*
X68400665Y-34359120D01*
X68629473Y-34512005D01*
X68883710Y-34617314D01*
X69153608Y-34671000D01*
X69428792Y-34671000D01*
X69698690Y-34617314D01*
X69952927Y-34512005D01*
X70181735Y-34359120D01*
X70376320Y-34164535D01*
X70529205Y-33935727D01*
X70634514Y-33681490D01*
X70688200Y-33411592D01*
X70688200Y-33136408D01*
X74726800Y-33136408D01*
X74726800Y-33411592D01*
X74780486Y-33681490D01*
X74885795Y-33935727D01*
X75038680Y-34164535D01*
X75233265Y-34359120D01*
X75462073Y-34512005D01*
X75716310Y-34617314D01*
X75986208Y-34671000D01*
X76261392Y-34671000D01*
X76531290Y-34617314D01*
X76785527Y-34512005D01*
X77014335Y-34359120D01*
X77208920Y-34164535D01*
X77361805Y-33935727D01*
X77467114Y-33681490D01*
X77520800Y-33411592D01*
X77520800Y-33136408D01*
X80721200Y-33136408D01*
X80721200Y-33411592D01*
X80774886Y-33681490D01*
X80880195Y-33935727D01*
X81033080Y-34164535D01*
X81227665Y-34359120D01*
X81456473Y-34512005D01*
X81710710Y-34617314D01*
X81980608Y-34671000D01*
X82255792Y-34671000D01*
X82525690Y-34617314D01*
X82779927Y-34512005D01*
X83008735Y-34359120D01*
X83203320Y-34164535D01*
X83356205Y-33935727D01*
X83461514Y-33681490D01*
X83515200Y-33411592D01*
X83515200Y-33136408D01*
X87553800Y-33136408D01*
X87553800Y-33411592D01*
X87607486Y-33681490D01*
X87712795Y-33935727D01*
X87865680Y-34164535D01*
X88060265Y-34359120D01*
X88289073Y-34512005D01*
X88543310Y-34617314D01*
X88813208Y-34671000D01*
X89088392Y-34671000D01*
X89358290Y-34617314D01*
X89612527Y-34512005D01*
X89841335Y-34359120D01*
X90035920Y-34164535D01*
X90188805Y-33935727D01*
X90294114Y-33681490D01*
X90347800Y-33411592D01*
X90347800Y-33136408D01*
X93548200Y-33136408D01*
X93548200Y-33411592D01*
X93601886Y-33681490D01*
X93707195Y-33935727D01*
X93860080Y-34164535D01*
X94054665Y-34359120D01*
X94283473Y-34512005D01*
X94537710Y-34617314D01*
X94807608Y-34671000D01*
X95082792Y-34671000D01*
X95352690Y-34617314D01*
X95606927Y-34512005D01*
X95835735Y-34359120D01*
X96030320Y-34164535D01*
X96183205Y-33935727D01*
X96288514Y-33681490D01*
X96342200Y-33411592D01*
X96342200Y-33136408D01*
X100380800Y-33136408D01*
X100380800Y-33411592D01*
X100434486Y-33681490D01*
X100539795Y-33935727D01*
X100692680Y-34164535D01*
X100887265Y-34359120D01*
X101116073Y-34512005D01*
X101370310Y-34617314D01*
X101640208Y-34671000D01*
X101915392Y-34671000D01*
X102185290Y-34617314D01*
X102439527Y-34512005D01*
X102668335Y-34359120D01*
X102862920Y-34164535D01*
X103015805Y-33935727D01*
X103121114Y-33681490D01*
X103174800Y-33411592D01*
X103174800Y-33136408D01*
X106375200Y-33136408D01*
X106375200Y-33411592D01*
X106428886Y-33681490D01*
X106534195Y-33935727D01*
X106687080Y-34164535D01*
X106881665Y-34359120D01*
X107110473Y-34512005D01*
X107364710Y-34617314D01*
X107634608Y-34671000D01*
X107909792Y-34671000D01*
X108179690Y-34617314D01*
X108433927Y-34512005D01*
X108662735Y-34359120D01*
X108857320Y-34164535D01*
X109010205Y-33935727D01*
X109115514Y-33681490D01*
X109169200Y-33411592D01*
X109169200Y-33136408D01*
X113207800Y-33136408D01*
X113207800Y-33411592D01*
X113261486Y-33681490D01*
X113366795Y-33935727D01*
X113519680Y-34164535D01*
X113714265Y-34359120D01*
X113943073Y-34512005D01*
X114197310Y-34617314D01*
X114467208Y-34671000D01*
X114742392Y-34671000D01*
X115012290Y-34617314D01*
X115266527Y-34512005D01*
X115495335Y-34359120D01*
X115689920Y-34164535D01*
X115842805Y-33935727D01*
X115948114Y-33681490D01*
X116001800Y-33411592D01*
X116001800Y-33136408D01*
X119202200Y-33136408D01*
X119202200Y-33411592D01*
X119255886Y-33681490D01*
X119361195Y-33935727D01*
X119514080Y-34164535D01*
X119708665Y-34359120D01*
X119937473Y-34512005D01*
X120191710Y-34617314D01*
X120461608Y-34671000D01*
X120736792Y-34671000D01*
X121006690Y-34617314D01*
X121260927Y-34512005D01*
X121489735Y-34359120D01*
X121684320Y-34164535D01*
X121837205Y-33935727D01*
X121942514Y-33681490D01*
X121996200Y-33411592D01*
X121996200Y-33136408D01*
X121942514Y-32866510D01*
X121837205Y-32612273D01*
X121684320Y-32383465D01*
X121489735Y-32188880D01*
X121260927Y-32035995D01*
X121006690Y-31930686D01*
X120736792Y-31877000D01*
X120461608Y-31877000D01*
X120191710Y-31930686D01*
X119937473Y-32035995D01*
X119708665Y-32188880D01*
X119514080Y-32383465D01*
X119361195Y-32612273D01*
X119255886Y-32866510D01*
X119202200Y-33136408D01*
X116001800Y-33136408D01*
X115948114Y-32866510D01*
X115842805Y-32612273D01*
X115689920Y-32383465D01*
X115495335Y-32188880D01*
X115266527Y-32035995D01*
X115012290Y-31930686D01*
X114742392Y-31877000D01*
X114467208Y-31877000D01*
X114197310Y-31930686D01*
X113943073Y-32035995D01*
X113714265Y-32188880D01*
X113519680Y-32383465D01*
X113366795Y-32612273D01*
X113261486Y-32866510D01*
X113207800Y-33136408D01*
X109169200Y-33136408D01*
X109115514Y-32866510D01*
X109010205Y-32612273D01*
X108857320Y-32383465D01*
X108662735Y-32188880D01*
X108433927Y-32035995D01*
X108179690Y-31930686D01*
X107909792Y-31877000D01*
X107634608Y-31877000D01*
X107364710Y-31930686D01*
X107110473Y-32035995D01*
X106881665Y-32188880D01*
X106687080Y-32383465D01*
X106534195Y-32612273D01*
X106428886Y-32866510D01*
X106375200Y-33136408D01*
X103174800Y-33136408D01*
X103121114Y-32866510D01*
X103015805Y-32612273D01*
X102862920Y-32383465D01*
X102668335Y-32188880D01*
X102439527Y-32035995D01*
X102185290Y-31930686D01*
X101915392Y-31877000D01*
X101640208Y-31877000D01*
X101370310Y-31930686D01*
X101116073Y-32035995D01*
X100887265Y-32188880D01*
X100692680Y-32383465D01*
X100539795Y-32612273D01*
X100434486Y-32866510D01*
X100380800Y-33136408D01*
X96342200Y-33136408D01*
X96288514Y-32866510D01*
X96183205Y-32612273D01*
X96030320Y-32383465D01*
X95835735Y-32188880D01*
X95606927Y-32035995D01*
X95352690Y-31930686D01*
X95082792Y-31877000D01*
X94807608Y-31877000D01*
X94537710Y-31930686D01*
X94283473Y-32035995D01*
X94054665Y-32188880D01*
X93860080Y-32383465D01*
X93707195Y-32612273D01*
X93601886Y-32866510D01*
X93548200Y-33136408D01*
X90347800Y-33136408D01*
X90294114Y-32866510D01*
X90188805Y-32612273D01*
X90035920Y-32383465D01*
X89841335Y-32188880D01*
X89612527Y-32035995D01*
X89358290Y-31930686D01*
X89088392Y-31877000D01*
X88813208Y-31877000D01*
X88543310Y-31930686D01*
X88289073Y-32035995D01*
X88060265Y-32188880D01*
X87865680Y-32383465D01*
X87712795Y-32612273D01*
X87607486Y-32866510D01*
X87553800Y-33136408D01*
X83515200Y-33136408D01*
X83461514Y-32866510D01*
X83356205Y-32612273D01*
X83203320Y-32383465D01*
X83008735Y-32188880D01*
X82779927Y-32035995D01*
X82525690Y-31930686D01*
X82255792Y-31877000D01*
X81980608Y-31877000D01*
X81710710Y-31930686D01*
X81456473Y-32035995D01*
X81227665Y-32188880D01*
X81033080Y-32383465D01*
X80880195Y-32612273D01*
X80774886Y-32866510D01*
X80721200Y-33136408D01*
X77520800Y-33136408D01*
X77467114Y-32866510D01*
X77361805Y-32612273D01*
X77208920Y-32383465D01*
X77014335Y-32188880D01*
X76785527Y-32035995D01*
X76531290Y-31930686D01*
X76261392Y-31877000D01*
X75986208Y-31877000D01*
X75716310Y-31930686D01*
X75462073Y-32035995D01*
X75233265Y-32188880D01*
X75038680Y-32383465D01*
X74885795Y-32612273D01*
X74780486Y-32866510D01*
X74726800Y-33136408D01*
X70688200Y-33136408D01*
X70634514Y-32866510D01*
X70529205Y-32612273D01*
X70376320Y-32383465D01*
X70181735Y-32188880D01*
X69952927Y-32035995D01*
X69698690Y-31930686D01*
X69428792Y-31877000D01*
X69153608Y-31877000D01*
X68883710Y-31930686D01*
X68629473Y-32035995D01*
X68400665Y-32188880D01*
X68206080Y-32383465D01*
X68053195Y-32612273D01*
X67947886Y-32866510D01*
X67894200Y-33136408D01*
X64693800Y-33136408D01*
X64640114Y-32866510D01*
X64534805Y-32612273D01*
X64381920Y-32383465D01*
X64187335Y-32188880D01*
X63958527Y-32035995D01*
X63704290Y-31930686D01*
X63434392Y-31877000D01*
X63159208Y-31877000D01*
X62889310Y-31930686D01*
X62635073Y-32035995D01*
X62406265Y-32188880D01*
X62211680Y-32383465D01*
X62058795Y-32612273D01*
X61953486Y-32866510D01*
X61899800Y-33136408D01*
X57861200Y-33136408D01*
X57807514Y-32866510D01*
X57702205Y-32612273D01*
X57549320Y-32383465D01*
X57354735Y-32188880D01*
X57125927Y-32035995D01*
X56871690Y-31930686D01*
X56601792Y-31877000D01*
X56326608Y-31877000D01*
X56056710Y-31930686D01*
X55802473Y-32035995D01*
X55573665Y-32188880D01*
X55379080Y-32383465D01*
X55226195Y-32612273D01*
X55120886Y-32866510D01*
X55067200Y-33136408D01*
X51866800Y-33136408D01*
X51813114Y-32866510D01*
X51707805Y-32612273D01*
X51554920Y-32383465D01*
X51360335Y-32188880D01*
X51131527Y-32035995D01*
X50877290Y-31930686D01*
X50607392Y-31877000D01*
X50332208Y-31877000D01*
X50062310Y-31930686D01*
X49808073Y-32035995D01*
X49579265Y-32188880D01*
X49384680Y-32383465D01*
X49231795Y-32612273D01*
X49126486Y-32866510D01*
X49072800Y-33136408D01*
X47523000Y-33136408D01*
X47523000Y-28996106D01*
X51295300Y-28996106D01*
X51295300Y-29423894D01*
X51378757Y-29843462D01*
X51542464Y-30238686D01*
X51780130Y-30594378D01*
X52082622Y-30896870D01*
X52438314Y-31134536D01*
X52833538Y-31298243D01*
X53253106Y-31381700D01*
X53680894Y-31381700D01*
X54100462Y-31298243D01*
X54495686Y-31134536D01*
X54851378Y-30896870D01*
X55153870Y-30594378D01*
X55391536Y-30238686D01*
X55555243Y-29843462D01*
X55638700Y-29423894D01*
X55638700Y-28996106D01*
X64122300Y-28996106D01*
X64122300Y-29423894D01*
X64205757Y-29843462D01*
X64369464Y-30238686D01*
X64607130Y-30594378D01*
X64909622Y-30896870D01*
X65265314Y-31134536D01*
X65660538Y-31298243D01*
X66080106Y-31381700D01*
X66507894Y-31381700D01*
X66927462Y-31298243D01*
X67322686Y-31134536D01*
X67678378Y-30896870D01*
X67980870Y-30594378D01*
X68218536Y-30238686D01*
X68382243Y-29843462D01*
X68465700Y-29423894D01*
X68465700Y-28996106D01*
X76949300Y-28996106D01*
X76949300Y-29423894D01*
X77032757Y-29843462D01*
X77196464Y-30238686D01*
X77434130Y-30594378D01*
X77736622Y-30896870D01*
X78092314Y-31134536D01*
X78487538Y-31298243D01*
X78907106Y-31381700D01*
X79334894Y-31381700D01*
X79754462Y-31298243D01*
X80149686Y-31134536D01*
X80505378Y-30896870D01*
X80807870Y-30594378D01*
X81045536Y-30238686D01*
X81209243Y-29843462D01*
X81292700Y-29423894D01*
X81292700Y-28996106D01*
X89776300Y-28996106D01*
X89776300Y-29423894D01*
X89859757Y-29843462D01*
X90023464Y-30238686D01*
X90261130Y-30594378D01*
X90563622Y-30896870D01*
X90919314Y-31134536D01*
X91314538Y-31298243D01*
X91734106Y-31381700D01*
X92161894Y-31381700D01*
X92581462Y-31298243D01*
X92976686Y-31134536D01*
X93332378Y-30896870D01*
X93634870Y-30594378D01*
X93872536Y-30238686D01*
X94036243Y-29843462D01*
X94119700Y-29423894D01*
X94119700Y-28996106D01*
X102603300Y-28996106D01*
X102603300Y-29423894D01*
X102686757Y-29843462D01*
X102850464Y-30238686D01*
X103088130Y-30594378D01*
X103390622Y-30896870D01*
X103746314Y-31134536D01*
X104141538Y-31298243D01*
X104561106Y-31381700D01*
X104988894Y-31381700D01*
X105408462Y-31298243D01*
X105803686Y-31134536D01*
X106159378Y-30896870D01*
X106461870Y-30594378D01*
X106699536Y-30238686D01*
X106863243Y-29843462D01*
X106946700Y-29423894D01*
X106946700Y-28996106D01*
X115430300Y-28996106D01*
X115430300Y-29423894D01*
X115513757Y-29843462D01*
X115677464Y-30238686D01*
X115915130Y-30594378D01*
X116217622Y-30896870D01*
X116573314Y-31134536D01*
X116968538Y-31298243D01*
X117388106Y-31381700D01*
X117815894Y-31381700D01*
X118235462Y-31298243D01*
X118630686Y-31134536D01*
X118986378Y-30896870D01*
X119288870Y-30594378D01*
X119526536Y-30238686D01*
X119690243Y-29843462D01*
X119773700Y-29423894D01*
X119773700Y-28996106D01*
X119690243Y-28576538D01*
X119526536Y-28181314D01*
X119288870Y-27825622D01*
X118986378Y-27523130D01*
X118630686Y-27285464D01*
X118235462Y-27121757D01*
X117815894Y-27038300D01*
X117388106Y-27038300D01*
X116968538Y-27121757D01*
X116573314Y-27285464D01*
X116217622Y-27523130D01*
X115915130Y-27825622D01*
X115677464Y-28181314D01*
X115513757Y-28576538D01*
X115430300Y-28996106D01*
X106946700Y-28996106D01*
X106863243Y-28576538D01*
X106699536Y-28181314D01*
X106461870Y-27825622D01*
X106159378Y-27523130D01*
X105803686Y-27285464D01*
X105408462Y-27121757D01*
X104988894Y-27038300D01*
X104561106Y-27038300D01*
X104141538Y-27121757D01*
X103746314Y-27285464D01*
X103390622Y-27523130D01*
X103088130Y-27825622D01*
X102850464Y-28181314D01*
X102686757Y-28576538D01*
X102603300Y-28996106D01*
X94119700Y-28996106D01*
X94036243Y-28576538D01*
X93872536Y-28181314D01*
X93634870Y-27825622D01*
X93332378Y-27523130D01*
X92976686Y-27285464D01*
X92581462Y-27121757D01*
X92161894Y-27038300D01*
X91734106Y-27038300D01*
X91314538Y-27121757D01*
X90919314Y-27285464D01*
X90563622Y-27523130D01*
X90261130Y-27825622D01*
X90023464Y-28181314D01*
X89859757Y-28576538D01*
X89776300Y-28996106D01*
X81292700Y-28996106D01*
X81209243Y-28576538D01*
X81045536Y-28181314D01*
X80807870Y-27825622D01*
X80505378Y-27523130D01*
X80149686Y-27285464D01*
X79754462Y-27121757D01*
X79334894Y-27038300D01*
X78907106Y-27038300D01*
X78487538Y-27121757D01*
X78092314Y-27285464D01*
X77736622Y-27523130D01*
X77434130Y-27825622D01*
X77196464Y-28181314D01*
X77032757Y-28576538D01*
X76949300Y-28996106D01*
X68465700Y-28996106D01*
X68382243Y-28576538D01*
X68218536Y-28181314D01*
X67980870Y-27825622D01*
X67678378Y-27523130D01*
X67322686Y-27285464D01*
X66927462Y-27121757D01*
X66507894Y-27038300D01*
X66080106Y-27038300D01*
X65660538Y-27121757D01*
X65265314Y-27285464D01*
X64909622Y-27523130D01*
X64607130Y-27825622D01*
X64369464Y-28181314D01*
X64205757Y-28576538D01*
X64122300Y-28996106D01*
X55638700Y-28996106D01*
X55555243Y-28576538D01*
X55391536Y-28181314D01*
X55153870Y-27825622D01*
X54851378Y-27523130D01*
X54495686Y-27285464D01*
X54100462Y-27121757D01*
X53680894Y-27038300D01*
X53253106Y-27038300D01*
X52833538Y-27121757D01*
X52438314Y-27285464D01*
X52082622Y-27523130D01*
X51780130Y-27825622D01*
X51542464Y-28181314D01*
X51378757Y-28576538D01*
X51295300Y-28996106D01*
X47523000Y-28996106D01*
X47523000Y-26956279D01*
X47552234Y-26658125D01*
X47629448Y-26402378D01*
X47754869Y-26166496D01*
X47923716Y-25959470D01*
X48129554Y-25789187D01*
X48364556Y-25662121D01*
X48619756Y-25583124D01*
X48915882Y-25552000D01*
X122268721Y-25552000D01*
X122566875Y-25581234D01*
%TA.AperFunction,Conductor*%
D20*
G36*
X122566875Y-25581234D02*
G01*
X122822622Y-25658448D01*
X123058504Y-25783869D01*
X123265530Y-25952716D01*
X123435813Y-26158554D01*
X123562879Y-26393556D01*
X123641876Y-26648756D01*
X123673001Y-26944891D01*
X123673000Y-42639581D01*
X123669807Y-42672000D01*
X123682550Y-42801383D01*
X123720290Y-42925793D01*
X123781575Y-43040450D01*
X123804058Y-43067845D01*
X123864052Y-43140948D01*
X123964550Y-43223425D01*
X124079207Y-43284710D01*
X124203617Y-43322450D01*
X124333000Y-43335193D01*
X124365419Y-43332000D01*
X145128581Y-43332000D01*
X145161000Y-43335193D01*
X145193419Y-43332000D01*
X145290383Y-43322450D01*
X145414793Y-43284710D01*
X145529450Y-43223425D01*
X145629948Y-43140948D01*
X145712425Y-43040450D01*
X145773710Y-42925793D01*
X145811450Y-42801383D01*
X145824193Y-42672000D01*
X145821000Y-42639581D01*
X145821000Y-26956279D01*
X145850234Y-26658125D01*
X145927448Y-26402378D01*
X146052869Y-26166496D01*
X146221716Y-25959470D01*
X146427554Y-25789187D01*
X146662556Y-25662121D01*
X146917756Y-25583124D01*
X147213882Y-25552000D01*
X167988721Y-25552000D01*
X168286875Y-25581234D01*
X168542622Y-25658448D01*
X168778504Y-25783869D01*
X168985530Y-25952716D01*
X169155813Y-26158554D01*
X169282879Y-26393556D01*
X169361876Y-26648756D01*
X169393001Y-26944891D01*
X169393000Y-159447339D01*
X169052946Y-159555211D01*
X168997974Y-159578772D01*
X168942659Y-159601571D01*
X168934553Y-159605954D01*
X168587030Y-159797006D01*
X168537674Y-159830801D01*
X168487847Y-159863906D01*
X168480747Y-159869780D01*
X168176951Y-160124695D01*
X168135105Y-160167428D01*
X168092653Y-160209584D01*
X168086829Y-160216725D01*
X167838332Y-160525794D01*
X167805606Y-160575805D01*
X167772127Y-160625439D01*
X167767801Y-160633576D01*
X167584068Y-160985022D01*
X167561656Y-161040494D01*
X167538478Y-161095632D01*
X167535815Y-161104454D01*
X167423845Y-161484896D01*
X167412645Y-161543612D01*
X167400607Y-161602254D01*
X167399708Y-161611425D01*
X167363766Y-162006370D01*
X167364184Y-162066186D01*
X167363766Y-162126003D01*
X167364665Y-162135174D01*
X167406118Y-162529577D01*
X167418148Y-162588183D01*
X167429355Y-162646935D01*
X167432019Y-162655757D01*
X167549290Y-163034599D01*
X167572474Y-163089750D01*
X167594880Y-163145208D01*
X167599206Y-163153345D01*
X167787828Y-163502193D01*
X167821283Y-163551792D01*
X167854032Y-163601838D01*
X167859855Y-163608977D01*
X167859858Y-163608981D01*
X167859862Y-163608985D01*
X168112644Y-163914547D01*
X168155061Y-163956669D01*
X168196943Y-163999438D01*
X168204044Y-164005311D01*
X168511369Y-164255960D01*
X168561178Y-164289052D01*
X168610550Y-164322859D01*
X168618656Y-164327241D01*
X168968813Y-164513423D01*
X169024105Y-164536212D01*
X169079101Y-164559784D01*
X169087905Y-164562509D01*
X169393001Y-164654623D01*
X169393000Y-172687721D01*
X169363766Y-172985876D01*
X169286551Y-173241624D01*
X169161131Y-173477504D01*
X168992289Y-173684525D01*
X168786446Y-173854813D01*
X168551444Y-173981879D01*
X168296240Y-174060877D01*
X168000118Y-174092000D01*
X48927279Y-174092000D01*
X48629124Y-174062766D01*
X48373376Y-173985551D01*
X48137496Y-173860131D01*
X47930475Y-173691289D01*
X47760187Y-173485446D01*
X47633121Y-173250444D01*
X47554123Y-172995240D01*
X47523000Y-172699118D01*
X47523000Y-164656661D01*
X47863055Y-164548789D01*
X47918040Y-164525222D01*
X47973341Y-164502429D01*
X47981447Y-164498046D01*
X48328970Y-164306994D01*
X48378327Y-164273199D01*
X48428153Y-164240094D01*
X48435254Y-164234220D01*
X48739049Y-163979305D01*
X48780912Y-163936555D01*
X48823347Y-163894416D01*
X48829171Y-163887274D01*
X49077668Y-163578206D01*
X49110415Y-163528164D01*
X49143873Y-163478561D01*
X49148199Y-163470425D01*
X49331932Y-163118978D01*
X49354337Y-163063523D01*
X49377522Y-163008368D01*
X49380185Y-162999546D01*
X49492155Y-162619104D01*
X49503355Y-162560388D01*
X49515393Y-162501746D01*
X49516292Y-162492575D01*
X49552234Y-162097630D01*
X49551816Y-162037814D01*
X49552234Y-161977997D01*
X49551334Y-161968826D01*
X49509882Y-161574422D01*
X49497855Y-161515829D01*
X49486645Y-161457065D01*
X49483981Y-161448243D01*
X49366710Y-161069401D01*
X49343526Y-161014250D01*
X49321120Y-160958792D01*
X49316794Y-160950655D01*
X49128172Y-160601807D01*
X49094717Y-160552208D01*
X49061968Y-160502162D01*
X49056144Y-160495021D01*
X48803356Y-160189453D01*
X48760923Y-160147315D01*
X48719057Y-160104562D01*
X48711962Y-160098694D01*
X48711957Y-160098689D01*
X48711952Y-160098685D01*
X48404631Y-159848041D01*
X48354838Y-159814959D01*
X48305449Y-159781141D01*
X48297343Y-159776759D01*
X47947187Y-159590577D01*
X47891867Y-159567776D01*
X47836899Y-159544216D01*
X47828099Y-159541492D01*
X47828093Y-159541490D01*
X47523000Y-159449378D01*
X47523000Y-125116604D01*
X96269000Y-125116604D01*
X96269000Y-125391396D01*
X96322609Y-125660907D01*
X96427767Y-125914780D01*
X96580433Y-126143261D01*
X96774739Y-126337567D01*
X97003220Y-126490233D01*
X97084740Y-126524000D01*
X97003220Y-126557767D01*
X96774739Y-126710433D01*
X96580433Y-126904739D01*
X96427767Y-127133220D01*
X96322609Y-127387093D01*
X96269000Y-127656604D01*
X96269000Y-127931396D01*
X96322609Y-128200907D01*
X96427767Y-128454780D01*
X96580433Y-128683261D01*
X96774739Y-128877567D01*
X97003220Y-129030233D01*
X97084740Y-129064000D01*
X97003220Y-129097767D01*
X96774739Y-129250433D01*
X96580433Y-129444739D01*
X96427767Y-129673220D01*
X96322609Y-129927093D01*
X96269000Y-130196604D01*
X96269000Y-130471396D01*
X96322609Y-130740907D01*
X96427767Y-130994780D01*
X96580433Y-131223261D01*
X96774739Y-131417567D01*
X97003220Y-131570233D01*
X97084740Y-131604000D01*
X97003220Y-131637767D01*
X96774739Y-131790433D01*
X96580433Y-131984739D01*
X96427767Y-132213220D01*
X96322609Y-132467093D01*
X96269000Y-132736604D01*
X96269000Y-133011396D01*
X96322609Y-133280907D01*
X96427767Y-133534780D01*
X96580433Y-133763261D01*
X96774739Y-133957567D01*
X97003220Y-134110233D01*
X97084740Y-134144000D01*
X97003220Y-134177767D01*
X96774739Y-134330433D01*
X96580433Y-134524739D01*
X96427767Y-134753220D01*
X96322609Y-135007093D01*
X96269000Y-135276604D01*
X96269000Y-135551396D01*
X96322609Y-135820907D01*
X96427767Y-136074780D01*
X96580433Y-136303261D01*
X96774739Y-136497567D01*
X97003220Y-136650233D01*
X97084740Y-136684000D01*
X97003220Y-136717767D01*
X96774739Y-136870433D01*
X96580433Y-137064739D01*
X96427767Y-137293220D01*
X96322609Y-137547093D01*
X96269000Y-137816604D01*
X96269000Y-138091396D01*
X96322609Y-138360907D01*
X96427767Y-138614780D01*
X96580433Y-138843261D01*
X96774739Y-139037567D01*
X97003220Y-139190233D01*
X97084740Y-139224000D01*
X97003220Y-139257767D01*
X96774739Y-139410433D01*
X96580433Y-139604739D01*
X96427767Y-139833220D01*
X96322609Y-140087093D01*
X96269000Y-140356604D01*
X96269000Y-140631396D01*
X96322609Y-140900907D01*
X96427767Y-141154780D01*
X96580433Y-141383261D01*
X96774739Y-141577567D01*
X97003220Y-141730233D01*
X97084740Y-141764000D01*
X97003220Y-141797767D01*
X96774739Y-141950433D01*
X96580433Y-142144739D01*
X96427767Y-142373220D01*
X96322609Y-142627093D01*
X96269000Y-142896604D01*
X96269000Y-143171396D01*
X96322609Y-143440907D01*
X96427767Y-143694780D01*
X96580433Y-143923261D01*
X96774739Y-144117567D01*
X97003220Y-144270233D01*
X97084740Y-144304000D01*
X97003220Y-144337767D01*
X96774739Y-144490433D01*
X96580433Y-144684739D01*
X96427767Y-144913220D01*
X96322609Y-145167093D01*
X96269000Y-145436604D01*
X96269000Y-145711396D01*
X96322609Y-145980907D01*
X96427767Y-146234780D01*
X96580433Y-146463261D01*
X96774739Y-146657567D01*
X97003220Y-146810233D01*
X97257093Y-146915391D01*
X97526604Y-146969000D01*
X97801396Y-146969000D01*
X98070907Y-146915391D01*
X98324780Y-146810233D01*
X98553261Y-146657567D01*
X98747567Y-146463261D01*
X98900233Y-146234780D01*
X98934000Y-146153260D01*
X98967767Y-146234780D01*
X99120433Y-146463261D01*
X99314739Y-146657567D01*
X99543220Y-146810233D01*
X99624740Y-146844000D01*
X99543220Y-146877767D01*
X99314739Y-147030433D01*
X99120433Y-147224739D01*
X98967767Y-147453220D01*
X98862609Y-147707093D01*
X98809000Y-147976604D01*
X98809000Y-148251396D01*
X98862609Y-148520907D01*
X98967767Y-148774780D01*
X99120433Y-149003261D01*
X99314739Y-149197567D01*
X99543220Y-149350233D01*
X99797093Y-149455391D01*
X100066604Y-149509000D01*
X100341396Y-149509000D01*
X100610907Y-149455391D01*
X100864780Y-149350233D01*
X101093261Y-149197567D01*
X101287567Y-149003261D01*
X101440233Y-148774780D01*
X101545391Y-148520907D01*
X101599000Y-148251396D01*
X101599000Y-147976604D01*
X101545391Y-147707093D01*
X101440233Y-147453220D01*
X101287567Y-147224739D01*
X101093261Y-147030433D01*
X100864780Y-146877767D01*
X100783260Y-146844000D01*
X100864780Y-146810233D01*
X101093261Y-146657567D01*
X101287567Y-146463261D01*
X101440233Y-146234780D01*
X101545391Y-145980907D01*
X101599000Y-145711396D01*
X101599000Y-145436604D01*
X101545391Y-145167093D01*
X101440233Y-144913220D01*
X101287567Y-144684739D01*
X101093261Y-144490433D01*
X100864780Y-144337767D01*
X100783260Y-144304000D01*
X100864780Y-144270233D01*
X101093261Y-144117567D01*
X101287567Y-143923261D01*
X101440233Y-143694780D01*
X101545391Y-143440907D01*
X101599000Y-143171396D01*
X101599000Y-142896604D01*
X101545391Y-142627093D01*
X101440233Y-142373220D01*
X101287567Y-142144739D01*
X101093261Y-141950433D01*
X100864780Y-141797767D01*
X100783260Y-141764000D01*
X100864780Y-141730233D01*
X101093261Y-141577567D01*
X101287567Y-141383261D01*
X101440233Y-141154780D01*
X101545391Y-140900907D01*
X101599000Y-140631396D01*
X101599000Y-140356604D01*
X101545391Y-140087093D01*
X101440233Y-139833220D01*
X101287567Y-139604739D01*
X101093261Y-139410433D01*
X100864780Y-139257767D01*
X100783260Y-139224000D01*
X100864780Y-139190233D01*
X101093261Y-139037567D01*
X101287567Y-138843261D01*
X101440233Y-138614780D01*
X101545391Y-138360907D01*
X101599000Y-138091396D01*
X101599000Y-137816604D01*
X101545391Y-137547093D01*
X101440233Y-137293220D01*
X101287567Y-137064739D01*
X101093261Y-136870433D01*
X100864780Y-136717767D01*
X100783260Y-136684000D01*
X100864780Y-136650233D01*
X101093261Y-136497567D01*
X101287567Y-136303261D01*
X101440233Y-136074780D01*
X101545391Y-135820907D01*
X101599000Y-135551396D01*
X101599000Y-135276604D01*
X101545391Y-135007093D01*
X101440233Y-134753220D01*
X101287567Y-134524739D01*
X101093261Y-134330433D01*
X100864780Y-134177767D01*
X100783260Y-134144000D01*
X100864780Y-134110233D01*
X101093261Y-133957567D01*
X101287567Y-133763261D01*
X101440233Y-133534780D01*
X101545391Y-133280907D01*
X101599000Y-133011396D01*
X101599000Y-132736604D01*
X101545391Y-132467093D01*
X101440233Y-132213220D01*
X101287567Y-131984739D01*
X101093261Y-131790433D01*
X100864780Y-131637767D01*
X100783260Y-131604000D01*
X100864780Y-131570233D01*
X101093261Y-131417567D01*
X101287567Y-131223261D01*
X101440233Y-130994780D01*
X101545391Y-130740907D01*
X101599000Y-130471396D01*
X101599000Y-130196604D01*
X101545391Y-129927093D01*
X101440233Y-129673220D01*
X101287567Y-129444739D01*
X101093261Y-129250433D01*
X100864780Y-129097767D01*
X100783260Y-129064000D01*
X100864780Y-129030233D01*
X101093261Y-128877567D01*
X101287567Y-128683261D01*
X101440233Y-128454780D01*
X101545391Y-128200907D01*
X101599000Y-127931396D01*
X101599000Y-127656604D01*
X101545391Y-127387093D01*
X101440233Y-127133220D01*
X101287567Y-126904739D01*
X101093261Y-126710433D01*
X100864780Y-126557767D01*
X100783260Y-126524000D01*
X100864780Y-126490233D01*
X101093261Y-126337567D01*
X101287567Y-126143261D01*
X101440233Y-125914780D01*
X101545391Y-125660907D01*
X101599000Y-125391396D01*
X101599000Y-125116604D01*
X101545391Y-124847093D01*
X101440233Y-124593220D01*
X101287567Y-124364739D01*
X101093261Y-124170433D01*
X100864780Y-124017767D01*
X100610907Y-123912609D01*
X100341396Y-123859000D01*
X100066604Y-123859000D01*
X99797093Y-123912609D01*
X99543220Y-124017767D01*
X99314739Y-124170433D01*
X99120433Y-124364739D01*
X98967767Y-124593220D01*
X98934000Y-124674740D01*
X98900233Y-124593220D01*
X98747567Y-124364739D01*
X98553261Y-124170433D01*
X98324780Y-124017767D01*
X98070907Y-123912609D01*
X97801396Y-123859000D01*
X97526604Y-123859000D01*
X97257093Y-123912609D01*
X97003220Y-124017767D01*
X96774739Y-124170433D01*
X96580433Y-124364739D01*
X96427767Y-124593220D01*
X96322609Y-124847093D01*
X96269000Y-125116604D01*
X47523000Y-125116604D01*
X47523000Y-99212061D01*
X53194000Y-99212061D01*
X53194000Y-99415939D01*
X53233774Y-99615898D01*
X53311795Y-99804256D01*
X53425063Y-99973774D01*
X53569226Y-100117937D01*
X53738744Y-100231205D01*
X53927102Y-100309226D01*
X54127061Y-100349000D01*
X54330939Y-100349000D01*
X54530898Y-100309226D01*
X54719256Y-100231205D01*
X54888774Y-100117937D01*
X55032937Y-99973774D01*
X55146205Y-99804256D01*
X55224226Y-99615898D01*
X55256429Y-99454004D01*
X56094933Y-98615500D01*
X71624789Y-98615500D01*
X71586063Y-98654226D01*
X71472795Y-98823744D01*
X71394774Y-99012102D01*
X71355000Y-99212061D01*
X71355000Y-99415939D01*
X71394774Y-99615898D01*
X71472795Y-99804256D01*
X71586063Y-99973774D01*
X71730226Y-100117937D01*
X71899744Y-100231205D01*
X72088102Y-100309226D01*
X72288061Y-100349000D01*
X72491939Y-100349000D01*
X72691898Y-100309226D01*
X72880256Y-100231205D01*
X73049774Y-100117937D01*
X73193937Y-99973774D01*
X73307205Y-99804256D01*
X73385226Y-99615898D01*
X73417428Y-99454004D01*
X73674923Y-99196510D01*
X80805386Y-99196509D01*
X72877396Y-107124500D01*
X55920550Y-107124500D01*
X55880000Y-107120506D01*
X55839449Y-107124500D01*
X55839447Y-107124500D01*
X55718174Y-107136444D01*
X55562566Y-107183647D01*
X55419157Y-107260301D01*
X55324958Y-107337608D01*
X55324955Y-107337611D01*
X55293459Y-107363459D01*
X55267611Y-107394955D01*
X54088996Y-108573572D01*
X53927102Y-108605774D01*
X53738744Y-108683795D01*
X53569226Y-108797063D01*
X53425063Y-108941226D01*
X53311795Y-109110744D01*
X53233774Y-109299102D01*
X53194000Y-109499061D01*
X53194000Y-109702939D01*
X53233774Y-109902898D01*
X53311795Y-110091256D01*
X53425063Y-110260774D01*
X53569226Y-110404937D01*
X53738744Y-110518205D01*
X53927102Y-110596226D01*
X54127061Y-110636000D01*
X54330939Y-110636000D01*
X54530898Y-110596226D01*
X54719256Y-110518205D01*
X54888774Y-110404937D01*
X55032937Y-110260774D01*
X55146205Y-110091256D01*
X55224226Y-109902898D01*
X55256428Y-109741004D01*
X56221934Y-108775500D01*
X71762497Y-108775500D01*
X71730226Y-108797063D01*
X71586063Y-108941226D01*
X71472795Y-109110744D01*
X71394774Y-109299102D01*
X71355000Y-109499061D01*
X71355000Y-109702939D01*
X71394774Y-109902898D01*
X71472795Y-110091256D01*
X71586063Y-110260774D01*
X71730226Y-110404937D01*
X71899744Y-110518205D01*
X72088102Y-110596226D01*
X72288061Y-110636000D01*
X72491939Y-110636000D01*
X72691898Y-110596226D01*
X72880256Y-110518205D01*
X73049774Y-110404937D01*
X73193937Y-110260774D01*
X73307205Y-110091256D01*
X73385226Y-109902898D01*
X73417429Y-109741004D01*
X82799906Y-100358528D01*
X89930368Y-100358527D01*
X73004396Y-117284500D01*
X56047550Y-117284500D01*
X56007000Y-117280506D01*
X55966449Y-117284500D01*
X55966447Y-117284500D01*
X55845174Y-117296444D01*
X55689566Y-117343647D01*
X55546157Y-117420301D01*
X55451958Y-117497608D01*
X55451955Y-117497611D01*
X55420459Y-117523459D01*
X55394611Y-117554955D01*
X54088996Y-118860572D01*
X53927102Y-118892774D01*
X53738744Y-118970795D01*
X53569226Y-119084063D01*
X53425063Y-119228226D01*
X53311795Y-119397744D01*
X53233774Y-119586102D01*
X53194000Y-119786061D01*
X53194000Y-119989939D01*
X53233774Y-120189898D01*
X53311795Y-120378256D01*
X53425063Y-120547774D01*
X53569226Y-120691937D01*
X53738744Y-120805205D01*
X53927102Y-120883226D01*
X54127061Y-120923000D01*
X54330939Y-120923000D01*
X54530898Y-120883226D01*
X54719256Y-120805205D01*
X54888774Y-120691937D01*
X55032937Y-120547774D01*
X55146205Y-120378256D01*
X55224226Y-120189898D01*
X55256428Y-120028004D01*
X56348934Y-118935500D01*
X71984953Y-118935500D01*
X71899744Y-118970795D01*
X71730226Y-119084063D01*
X71586063Y-119228226D01*
X71472795Y-119397744D01*
X71394774Y-119586102D01*
X71355000Y-119786061D01*
X71355000Y-119989939D01*
X71394774Y-120189898D01*
X71472795Y-120378256D01*
X71586063Y-120547774D01*
X71730226Y-120691937D01*
X71899744Y-120805205D01*
X72088102Y-120883226D01*
X72288061Y-120923000D01*
X72491939Y-120923000D01*
X72691898Y-120883226D01*
X72880256Y-120805205D01*
X73049774Y-120691937D01*
X73193937Y-120547774D01*
X73307205Y-120378256D01*
X73385226Y-120189898D01*
X73417429Y-120028003D01*
X91924888Y-101520546D01*
X102635755Y-101520544D01*
X102676315Y-101524539D01*
X102838141Y-101508600D01*
X102993748Y-101461398D01*
X103137157Y-101384744D01*
X103231356Y-101307436D01*
X103262856Y-101281585D01*
X103288708Y-101250084D01*
X106330091Y-98208702D01*
X106361591Y-98182851D01*
X106423485Y-98107433D01*
X106464749Y-98057153D01*
X106541403Y-97913744D01*
X106570904Y-97816491D01*
X106588606Y-97758136D01*
X106600550Y-97636863D01*
X106600550Y-97636861D01*
X106604544Y-97596311D01*
X106600550Y-97555760D01*
X106600550Y-77525592D01*
X106604543Y-77485049D01*
X106600550Y-77444506D01*
X106600550Y-77444497D01*
X106588606Y-77323224D01*
X106541403Y-77167616D01*
X106464749Y-77024208D01*
X106464748Y-77024206D01*
X106410557Y-76958175D01*
X106361591Y-76898509D01*
X106330090Y-76872657D01*
X101584040Y-72126607D01*
X101599000Y-72051396D01*
X101599000Y-71776604D01*
X101545391Y-71507093D01*
X101440233Y-71253220D01*
X101287567Y-71024739D01*
X101093261Y-70830433D01*
X100864780Y-70677767D01*
X100783260Y-70644000D01*
X100864780Y-70610233D01*
X101093261Y-70457567D01*
X101287567Y-70263261D01*
X101440233Y-70034780D01*
X101545391Y-69780907D01*
X101599000Y-69511396D01*
X101599000Y-69236604D01*
X101545391Y-68967093D01*
X101440233Y-68713220D01*
X101287567Y-68484739D01*
X101093261Y-68290433D01*
X100864780Y-68137767D01*
X100783260Y-68104000D01*
X100864780Y-68070233D01*
X101093261Y-67917567D01*
X101287567Y-67723261D01*
X101440233Y-67494780D01*
X101545391Y-67240907D01*
X101599000Y-66971396D01*
X101599000Y-66696604D01*
X101545391Y-66427093D01*
X101440233Y-66173220D01*
X101287567Y-65944739D01*
X101093261Y-65750433D01*
X100864780Y-65597767D01*
X100783260Y-65564000D01*
X100864780Y-65530233D01*
X101093261Y-65377567D01*
X101287567Y-65183261D01*
X101440233Y-64954780D01*
X101545391Y-64700907D01*
X101599000Y-64431396D01*
X101599000Y-64156604D01*
X101545391Y-63887093D01*
X101440233Y-63633220D01*
X101287567Y-63404739D01*
X101093261Y-63210433D01*
X100864780Y-63057767D01*
X100783260Y-63024000D01*
X100864780Y-62990233D01*
X101093261Y-62837567D01*
X101287567Y-62643261D01*
X101440233Y-62414780D01*
X101545391Y-62160907D01*
X101599000Y-61891396D01*
X101599000Y-61616604D01*
X101545391Y-61347093D01*
X101440233Y-61093220D01*
X101287567Y-60864739D01*
X101093261Y-60670433D01*
X100864780Y-60517767D01*
X100610907Y-60412609D01*
X100341396Y-60359000D01*
X100066604Y-60359000D01*
X99797093Y-60412609D01*
X99543220Y-60517767D01*
X99314739Y-60670433D01*
X99120433Y-60864739D01*
X98967767Y-61093220D01*
X98934000Y-61174740D01*
X98900233Y-61093220D01*
X98747567Y-60864739D01*
X98553261Y-60670433D01*
X98324780Y-60517767D01*
X98070907Y-60412609D01*
X97801396Y-60359000D01*
X97526604Y-60359000D01*
X97257093Y-60412609D01*
X97003220Y-60517767D01*
X96774739Y-60670433D01*
X96580433Y-60864739D01*
X96427767Y-61093220D01*
X96322609Y-61347093D01*
X96269000Y-61616604D01*
X96269000Y-61891396D01*
X96322609Y-62160907D01*
X96427767Y-62414780D01*
X96580433Y-62643261D01*
X96774739Y-62837567D01*
X97003220Y-62990233D01*
X97084740Y-63024000D01*
X97003220Y-63057767D01*
X96774739Y-63210433D01*
X96580433Y-63404739D01*
X96427767Y-63633220D01*
X96322609Y-63887093D01*
X96269000Y-64156604D01*
X96269000Y-64431396D01*
X96322609Y-64700907D01*
X96427767Y-64954780D01*
X96580433Y-65183261D01*
X96774739Y-65377567D01*
X97003220Y-65530233D01*
X97084740Y-65564000D01*
X97003220Y-65597767D01*
X96774739Y-65750433D01*
X96580433Y-65944739D01*
X96427767Y-66173220D01*
X96322609Y-66427093D01*
X96269000Y-66696604D01*
X96269000Y-66971396D01*
X96322609Y-67240907D01*
X96427767Y-67494780D01*
X96580433Y-67723261D01*
X96774739Y-67917567D01*
X97003220Y-68070233D01*
X97084740Y-68104000D01*
X97003220Y-68137767D01*
X96774739Y-68290433D01*
X96580433Y-68484739D01*
X96427767Y-68713220D01*
X96322609Y-68967093D01*
X96269000Y-69236604D01*
X96269000Y-69511396D01*
X96322609Y-69780907D01*
X96427767Y-70034780D01*
X96580433Y-70263261D01*
X96774739Y-70457567D01*
X97003220Y-70610233D01*
X97084740Y-70644000D01*
X97003220Y-70677767D01*
X96774739Y-70830433D01*
X96580433Y-71024739D01*
X96427767Y-71253220D01*
X96322609Y-71507093D01*
X96269000Y-71776604D01*
X96269000Y-72051396D01*
X96322609Y-72320907D01*
X96427767Y-72574780D01*
X96580433Y-72803261D01*
X96774739Y-72997567D01*
X97003220Y-73150233D01*
X97084740Y-73184000D01*
X97003220Y-73217767D01*
X96774739Y-73370433D01*
X96580433Y-73564739D01*
X96427767Y-73793220D01*
X96322609Y-74047093D01*
X96269000Y-74316604D01*
X96269000Y-74591396D01*
X96322609Y-74860907D01*
X96427767Y-75114780D01*
X96580433Y-75343261D01*
X96774739Y-75537567D01*
X97003220Y-75690233D01*
X97084740Y-75724000D01*
X97003220Y-75757767D01*
X96774739Y-75910433D01*
X96580433Y-76104739D01*
X96427767Y-76333220D01*
X96322609Y-76587093D01*
X96269000Y-76856604D01*
X96269000Y-77131396D01*
X96322609Y-77400907D01*
X96427767Y-77654780D01*
X96580433Y-77883261D01*
X96774739Y-78077567D01*
X97003220Y-78230233D01*
X97084740Y-78264000D01*
X97003220Y-78297767D01*
X96774739Y-78450433D01*
X96580433Y-78644739D01*
X96427767Y-78873220D01*
X96322609Y-79127093D01*
X96269000Y-79396604D01*
X96269000Y-79671396D01*
X96322609Y-79940907D01*
X96427767Y-80194780D01*
X96580433Y-80423261D01*
X96774739Y-80617567D01*
X97003220Y-80770233D01*
X97084740Y-80804000D01*
X97003220Y-80837767D01*
X96774739Y-80990433D01*
X96580433Y-81184739D01*
X96427767Y-81413220D01*
X96322609Y-81667093D01*
X96269000Y-81936604D01*
X96269000Y-82211396D01*
X96322609Y-82480907D01*
X96427767Y-82734780D01*
X96580433Y-82963261D01*
X96774739Y-83157567D01*
X97003220Y-83310233D01*
X97257093Y-83415391D01*
X97526604Y-83469000D01*
X97801396Y-83469000D01*
X98070907Y-83415391D01*
X98324780Y-83310233D01*
X98553261Y-83157567D01*
X98747567Y-82963261D01*
X98900233Y-82734780D01*
X98934000Y-82653260D01*
X98967767Y-82734780D01*
X99120433Y-82963261D01*
X99314739Y-83157567D01*
X99543220Y-83310233D01*
X99624740Y-83344000D01*
X99543220Y-83377767D01*
X99314739Y-83530433D01*
X99120433Y-83724739D01*
X98967767Y-83953220D01*
X98862609Y-84207093D01*
X98809000Y-84476604D01*
X98809000Y-84751396D01*
X98862609Y-85020907D01*
X98967767Y-85274780D01*
X99120433Y-85503261D01*
X99314739Y-85697567D01*
X99543220Y-85850233D01*
X99797093Y-85955391D01*
X100066604Y-86009000D01*
X100341396Y-86009000D01*
X100416607Y-85994040D01*
X102044501Y-87621934D01*
X102044500Y-96051067D01*
X101131068Y-96964500D01*
X77992317Y-96964500D01*
X78000989Y-96962775D01*
X78253043Y-96858371D01*
X78479886Y-96706799D01*
X78672799Y-96513886D01*
X78824371Y-96287043D01*
X78928775Y-96034989D01*
X78982000Y-95767411D01*
X78982000Y-95494589D01*
X78928775Y-95227011D01*
X78824371Y-94974957D01*
X78672799Y-94748114D01*
X78479886Y-94555201D01*
X78253043Y-94403629D01*
X78000989Y-94299225D01*
X77733411Y-94246000D01*
X77460589Y-94246000D01*
X77193011Y-94299225D01*
X76940957Y-94403629D01*
X76714114Y-94555201D01*
X76521201Y-94748114D01*
X76369629Y-94974957D01*
X76265225Y-95227011D01*
X76212000Y-95494589D01*
X76212000Y-95767411D01*
X76265225Y-96034989D01*
X76369629Y-96287043D01*
X76521201Y-96513886D01*
X76714114Y-96706799D01*
X76940957Y-96858371D01*
X77193011Y-96962775D01*
X77201683Y-96964500D01*
X55793542Y-96964500D01*
X55752999Y-96960507D01*
X55712456Y-96964500D01*
X55712447Y-96964500D01*
X55591174Y-96976444D01*
X55435566Y-97023647D01*
X55325089Y-97082699D01*
X55292156Y-97100302D01*
X55236033Y-97146361D01*
X55166459Y-97203459D01*
X55140608Y-97234959D01*
X54088996Y-98286571D01*
X53927102Y-98318774D01*
X53738744Y-98396795D01*
X53569226Y-98510063D01*
X53425063Y-98654226D01*
X53311795Y-98823744D01*
X53233774Y-99012102D01*
X53194000Y-99212061D01*
X47523000Y-99212061D01*
X47523000Y-95494589D01*
X53352000Y-95494589D01*
X53352000Y-95767411D01*
X53405225Y-96034989D01*
X53509629Y-96287043D01*
X53661201Y-96513886D01*
X53854114Y-96706799D01*
X54080957Y-96858371D01*
X54333011Y-96962775D01*
X54600589Y-97016000D01*
X54873411Y-97016000D01*
X55140989Y-96962775D01*
X55393043Y-96858371D01*
X55619886Y-96706799D01*
X55812799Y-96513886D01*
X55964371Y-96287043D01*
X56068775Y-96034989D01*
X56122000Y-95767411D01*
X56122000Y-95494589D01*
X56068775Y-95227011D01*
X55964371Y-94974957D01*
X55812799Y-94748114D01*
X55619886Y-94555201D01*
X55393043Y-94403629D01*
X55140989Y-94299225D01*
X54873411Y-94246000D01*
X54600589Y-94246000D01*
X54333011Y-94299225D01*
X54080957Y-94403629D01*
X53854114Y-94555201D01*
X53661201Y-94748114D01*
X53509629Y-94974957D01*
X53405225Y-95227011D01*
X53352000Y-95494589D01*
X47523000Y-95494589D01*
X47523000Y-94023721D01*
X59434600Y-94023721D01*
X59434600Y-94444279D01*
X59516647Y-94856756D01*
X59677588Y-95245302D01*
X59911237Y-95594983D01*
X60208617Y-95892363D01*
X60558298Y-96126012D01*
X60946844Y-96286953D01*
X61359321Y-96369000D01*
X61779879Y-96369000D01*
X62192356Y-96286953D01*
X62580902Y-96126012D01*
X62930583Y-95892363D01*
X63227963Y-95594983D01*
X63461612Y-95245302D01*
X63622553Y-94856756D01*
X63704600Y-94444279D01*
X63704600Y-94023721D01*
X64032000Y-94023721D01*
X64032000Y-94444279D01*
X64114047Y-94856756D01*
X64274988Y-95245302D01*
X64508637Y-95594983D01*
X64806017Y-95892363D01*
X65155698Y-96126012D01*
X65544244Y-96286953D01*
X65956721Y-96369000D01*
X66377279Y-96369000D01*
X66789756Y-96286953D01*
X67178302Y-96126012D01*
X67527983Y-95892363D01*
X67825363Y-95594983D01*
X68059012Y-95245302D01*
X68219953Y-94856756D01*
X68302000Y-94444279D01*
X68302000Y-94023721D01*
X68629400Y-94023721D01*
X68629400Y-94444279D01*
X68711447Y-94856756D01*
X68872388Y-95245302D01*
X69106037Y-95594983D01*
X69403417Y-95892363D01*
X69753098Y-96126012D01*
X70141644Y-96286953D01*
X70554121Y-96369000D01*
X70974679Y-96369000D01*
X71387156Y-96286953D01*
X71775702Y-96126012D01*
X72125383Y-95892363D01*
X72422763Y-95594983D01*
X72656412Y-95245302D01*
X72817353Y-94856756D01*
X72899400Y-94444279D01*
X72899400Y-94023721D01*
X72817353Y-93611244D01*
X72656412Y-93222698D01*
X72422763Y-92873017D01*
X72125383Y-92575637D01*
X71775702Y-92341988D01*
X71387156Y-92181047D01*
X70974679Y-92099000D01*
X70554121Y-92099000D01*
X70141644Y-92181047D01*
X69753098Y-92341988D01*
X69403417Y-92575637D01*
X69106037Y-92873017D01*
X68872388Y-93222698D01*
X68711447Y-93611244D01*
X68629400Y-94023721D01*
X68302000Y-94023721D01*
X68219953Y-93611244D01*
X68059012Y-93222698D01*
X67825363Y-92873017D01*
X67527983Y-92575637D01*
X67178302Y-92341988D01*
X66789756Y-92181047D01*
X66377279Y-92099000D01*
X65956721Y-92099000D01*
X65544244Y-92181047D01*
X65155698Y-92341988D01*
X64806017Y-92575637D01*
X64508637Y-92873017D01*
X64274988Y-93222698D01*
X64114047Y-93611244D01*
X64032000Y-94023721D01*
X63704600Y-94023721D01*
X63622553Y-93611244D01*
X63461612Y-93222698D01*
X63227963Y-92873017D01*
X62930583Y-92575637D01*
X62580902Y-92341988D01*
X62192356Y-92181047D01*
X61779879Y-92099000D01*
X61359321Y-92099000D01*
X60946844Y-92181047D01*
X60558298Y-92341988D01*
X60208617Y-92575637D01*
X59911237Y-92873017D01*
X59677588Y-93222698D01*
X59516647Y-93611244D01*
X59434600Y-94023721D01*
X47523000Y-94023721D01*
X47523000Y-85791789D01*
X53352000Y-85791789D01*
X53352000Y-86064611D01*
X53405225Y-86332189D01*
X53509629Y-86584243D01*
X53661201Y-86811086D01*
X53854114Y-87003999D01*
X54080957Y-87155571D01*
X54333011Y-87259975D01*
X54600589Y-87313200D01*
X54873411Y-87313200D01*
X55140989Y-87259975D01*
X55393043Y-87155571D01*
X55453879Y-87114921D01*
X59434600Y-87114921D01*
X59434600Y-87535479D01*
X59516647Y-87947956D01*
X59677588Y-88336502D01*
X59911237Y-88686183D01*
X60208617Y-88983563D01*
X60558298Y-89217212D01*
X60946844Y-89378153D01*
X61359321Y-89460200D01*
X61779879Y-89460200D01*
X62192356Y-89378153D01*
X62580902Y-89217212D01*
X62930583Y-88983563D01*
X63227963Y-88686183D01*
X63461612Y-88336502D01*
X63622553Y-87947956D01*
X63704600Y-87535479D01*
X63704600Y-87114921D01*
X64032000Y-87114921D01*
X64032000Y-87535479D01*
X64114047Y-87947956D01*
X64274988Y-88336502D01*
X64508637Y-88686183D01*
X64806017Y-88983563D01*
X65155698Y-89217212D01*
X65544244Y-89378153D01*
X65956721Y-89460200D01*
X66377279Y-89460200D01*
X66789756Y-89378153D01*
X67178302Y-89217212D01*
X67527983Y-88983563D01*
X67825363Y-88686183D01*
X68059012Y-88336502D01*
X68219953Y-87947956D01*
X68302000Y-87535479D01*
X68302000Y-87114921D01*
X68629400Y-87114921D01*
X68629400Y-87535479D01*
X68711447Y-87947956D01*
X68872388Y-88336502D01*
X69106037Y-88686183D01*
X69403417Y-88983563D01*
X69753098Y-89217212D01*
X70141644Y-89378153D01*
X70554121Y-89460200D01*
X70974679Y-89460200D01*
X71387156Y-89378153D01*
X71775702Y-89217212D01*
X72125383Y-88983563D01*
X72422763Y-88686183D01*
X72656412Y-88336502D01*
X72817353Y-87947956D01*
X72899400Y-87535479D01*
X72899400Y-87114921D01*
X72817353Y-86702444D01*
X72656412Y-86313898D01*
X72422763Y-85964217D01*
X72250335Y-85791789D01*
X76212000Y-85791789D01*
X76212000Y-86064611D01*
X76265225Y-86332189D01*
X76369629Y-86584243D01*
X76521201Y-86811086D01*
X76714114Y-87003999D01*
X76940957Y-87155571D01*
X77193011Y-87259975D01*
X77460589Y-87313200D01*
X77733411Y-87313200D01*
X78000989Y-87259975D01*
X78253043Y-87155571D01*
X78479886Y-87003999D01*
X78672799Y-86811086D01*
X78824371Y-86584243D01*
X78928775Y-86332189D01*
X78982000Y-86064611D01*
X78982000Y-85791789D01*
X78928775Y-85524211D01*
X78824371Y-85272157D01*
X78672799Y-85045314D01*
X78479886Y-84852401D01*
X78253043Y-84700829D01*
X78000989Y-84596425D01*
X77733411Y-84543200D01*
X77460589Y-84543200D01*
X77193011Y-84596425D01*
X76940957Y-84700829D01*
X76714114Y-84852401D01*
X76521201Y-85045314D01*
X76369629Y-85272157D01*
X76265225Y-85524211D01*
X76212000Y-85791789D01*
X72250335Y-85791789D01*
X72125383Y-85666837D01*
X71775702Y-85433188D01*
X71387156Y-85272247D01*
X70974679Y-85190200D01*
X70554121Y-85190200D01*
X70141644Y-85272247D01*
X69753098Y-85433188D01*
X69403417Y-85666837D01*
X69106037Y-85964217D01*
X68872388Y-86313898D01*
X68711447Y-86702444D01*
X68629400Y-87114921D01*
X68302000Y-87114921D01*
X68219953Y-86702444D01*
X68059012Y-86313898D01*
X67825363Y-85964217D01*
X67527983Y-85666837D01*
X67178302Y-85433188D01*
X66789756Y-85272247D01*
X66377279Y-85190200D01*
X65956721Y-85190200D01*
X65544244Y-85272247D01*
X65155698Y-85433188D01*
X64806017Y-85666837D01*
X64508637Y-85964217D01*
X64274988Y-86313898D01*
X64114047Y-86702444D01*
X64032000Y-87114921D01*
X63704600Y-87114921D01*
X63622553Y-86702444D01*
X63461612Y-86313898D01*
X63227963Y-85964217D01*
X62930583Y-85666837D01*
X62580902Y-85433188D01*
X62192356Y-85272247D01*
X61779879Y-85190200D01*
X61359321Y-85190200D01*
X60946844Y-85272247D01*
X60558298Y-85433188D01*
X60208617Y-85666837D01*
X59911237Y-85964217D01*
X59677588Y-86313898D01*
X59516647Y-86702444D01*
X59434600Y-87114921D01*
X55453879Y-87114921D01*
X55619886Y-87003999D01*
X55812799Y-86811086D01*
X55964371Y-86584243D01*
X56068775Y-86332189D01*
X56122000Y-86064611D01*
X56122000Y-85791789D01*
X56068775Y-85524211D01*
X55964371Y-85272157D01*
X55812799Y-85045314D01*
X55619886Y-84852401D01*
X55393043Y-84700829D01*
X55140989Y-84596425D01*
X54873411Y-84543200D01*
X54600589Y-84543200D01*
X54333011Y-84596425D01*
X54080957Y-84700829D01*
X53854114Y-84852401D01*
X53661201Y-85045314D01*
X53509629Y-85272157D01*
X53405225Y-85524211D01*
X53352000Y-85791789D01*
X47523000Y-85791789D01*
X47523000Y-47015061D01*
X71609000Y-47015061D01*
X71609000Y-47218939D01*
X71648774Y-47418898D01*
X71726795Y-47607256D01*
X71840063Y-47776774D01*
X71984226Y-47920937D01*
X72153744Y-48034205D01*
X72342102Y-48112226D01*
X72503996Y-48144429D01*
X81465086Y-57105520D01*
X80878953Y-57105520D01*
X73671429Y-49897997D01*
X73639226Y-49736102D01*
X73561205Y-49547744D01*
X73447937Y-49378226D01*
X73303774Y-49234063D01*
X73134256Y-49120795D01*
X72945898Y-49042774D01*
X72745939Y-49003000D01*
X72542061Y-49003000D01*
X72342102Y-49042774D01*
X72153744Y-49120795D01*
X71984226Y-49234063D01*
X71840063Y-49378226D01*
X71726795Y-49547744D01*
X71648774Y-49736102D01*
X71609000Y-49936061D01*
X71609000Y-50139939D01*
X71648774Y-50339898D01*
X71726795Y-50528256D01*
X71840063Y-50697774D01*
X71984226Y-50841937D01*
X72153744Y-50955205D01*
X72342102Y-51033226D01*
X72503997Y-51065429D01*
X79924627Y-58486060D01*
X79950479Y-58517561D01*
X79989223Y-58549357D01*
X80076177Y-58620719D01*
X80194593Y-58684014D01*
X80219586Y-58697373D01*
X80375194Y-58744576D01*
X80496467Y-58756520D01*
X80496469Y-58756520D01*
X80537020Y-58760514D01*
X80577570Y-58756520D01*
X136679088Y-58756520D01*
X139463960Y-61541393D01*
X139449000Y-61616604D01*
X139449000Y-61891396D01*
X139502609Y-62160907D01*
X139607767Y-62414780D01*
X139760433Y-62643261D01*
X139954739Y-62837567D01*
X140183220Y-62990233D01*
X140264740Y-63024000D01*
X140183220Y-63057767D01*
X139954739Y-63210433D01*
X139760433Y-63404739D01*
X139607767Y-63633220D01*
X139502609Y-63887093D01*
X139449000Y-64156604D01*
X139449000Y-64431396D01*
X139502609Y-64700907D01*
X139607767Y-64954780D01*
X139760433Y-65183261D01*
X139954739Y-65377567D01*
X140183220Y-65530233D01*
X140264740Y-65564000D01*
X140183220Y-65597767D01*
X139954739Y-65750433D01*
X139760433Y-65944739D01*
X139607767Y-66173220D01*
X139502609Y-66427093D01*
X139449000Y-66696604D01*
X139449000Y-66971396D01*
X139502609Y-67240907D01*
X139607767Y-67494780D01*
X139760433Y-67723261D01*
X139954739Y-67917567D01*
X140183220Y-68070233D01*
X140264740Y-68104000D01*
X140183220Y-68137767D01*
X139954739Y-68290433D01*
X139760433Y-68484739D01*
X139607767Y-68713220D01*
X139502609Y-68967093D01*
X139449000Y-69236604D01*
X139449000Y-69511396D01*
X139502609Y-69780907D01*
X139607767Y-70034780D01*
X139760433Y-70263261D01*
X139954739Y-70457567D01*
X140183220Y-70610233D01*
X140264740Y-70644000D01*
X140183220Y-70677767D01*
X139954739Y-70830433D01*
X139760433Y-71024739D01*
X139607767Y-71253220D01*
X139502609Y-71507093D01*
X139449000Y-71776604D01*
X139449000Y-72051396D01*
X139502609Y-72320907D01*
X139607767Y-72574780D01*
X139760433Y-72803261D01*
X139954739Y-72997567D01*
X140183220Y-73150233D01*
X140264740Y-73184000D01*
X140183220Y-73217767D01*
X139954739Y-73370433D01*
X139760433Y-73564739D01*
X139607767Y-73793220D01*
X139502609Y-74047093D01*
X139449000Y-74316604D01*
X139449000Y-74591396D01*
X139502609Y-74860907D01*
X139607767Y-75114780D01*
X139760433Y-75343261D01*
X139954739Y-75537567D01*
X140183220Y-75690233D01*
X140264740Y-75724000D01*
X140183220Y-75757767D01*
X139954739Y-75910433D01*
X139760433Y-76104739D01*
X139607767Y-76333220D01*
X139502609Y-76587093D01*
X139449000Y-76856604D01*
X139449000Y-77131396D01*
X139502609Y-77400907D01*
X139607767Y-77654780D01*
X139760433Y-77883261D01*
X139954739Y-78077567D01*
X140183220Y-78230233D01*
X140264740Y-78264000D01*
X140183220Y-78297767D01*
X139954739Y-78450433D01*
X139760433Y-78644739D01*
X139607767Y-78873220D01*
X139502609Y-79127093D01*
X139449000Y-79396604D01*
X139449000Y-79671396D01*
X139502609Y-79940907D01*
X139607767Y-80194780D01*
X139760433Y-80423261D01*
X139954739Y-80617567D01*
X140183220Y-80770233D01*
X140437093Y-80875391D01*
X140706604Y-80929000D01*
X140981396Y-80929000D01*
X141250907Y-80875391D01*
X141504780Y-80770233D01*
X141733261Y-80617567D01*
X141927567Y-80423261D01*
X142080233Y-80194780D01*
X142114000Y-80113260D01*
X142147767Y-80194780D01*
X142300433Y-80423261D01*
X142494739Y-80617567D01*
X142723220Y-80770233D01*
X142804740Y-80804000D01*
X142723220Y-80837767D01*
X142494739Y-80990433D01*
X142300433Y-81184739D01*
X142147767Y-81413220D01*
X142042609Y-81667093D01*
X141989000Y-81936604D01*
X141989000Y-82211396D01*
X142042609Y-82480907D01*
X142147767Y-82734780D01*
X142300433Y-82963261D01*
X142494739Y-83157567D01*
X142723220Y-83310233D01*
X142804740Y-83344000D01*
X142723220Y-83377767D01*
X142494739Y-83530433D01*
X142300433Y-83724739D01*
X142147767Y-83953220D01*
X142114000Y-84034740D01*
X142080233Y-83953220D01*
X141927567Y-83724739D01*
X141733261Y-83530433D01*
X141504780Y-83377767D01*
X141250907Y-83272609D01*
X140981396Y-83219000D01*
X140706604Y-83219000D01*
X140437093Y-83272609D01*
X140183220Y-83377767D01*
X139954739Y-83530433D01*
X139760433Y-83724739D01*
X139607767Y-83953220D01*
X139502609Y-84207093D01*
X139449000Y-84476604D01*
X139449000Y-84751396D01*
X139502609Y-85020907D01*
X139607767Y-85274780D01*
X139760433Y-85503261D01*
X139954739Y-85697567D01*
X140183220Y-85850233D01*
X140437093Y-85955391D01*
X140706604Y-86009000D01*
X140981396Y-86009000D01*
X141250907Y-85955391D01*
X141504780Y-85850233D01*
X141733261Y-85697567D01*
X141927567Y-85503261D01*
X142080233Y-85274780D01*
X142114000Y-85193260D01*
X142147767Y-85274780D01*
X142300433Y-85503261D01*
X142494739Y-85697567D01*
X142723220Y-85850233D01*
X142977093Y-85955391D01*
X143246604Y-86009000D01*
X143521396Y-86009000D01*
X143790907Y-85955391D01*
X144044780Y-85850233D01*
X144273261Y-85697567D01*
X144467567Y-85503261D01*
X144620233Y-85274780D01*
X144725391Y-85020907D01*
X144779000Y-84751396D01*
X144779000Y-84476604D01*
X144725391Y-84207093D01*
X144620233Y-83953220D01*
X144467567Y-83724739D01*
X144273261Y-83530433D01*
X144044780Y-83377767D01*
X143963260Y-83344000D01*
X144044780Y-83310233D01*
X144273261Y-83157567D01*
X144467567Y-82963261D01*
X144620233Y-82734780D01*
X144725391Y-82480907D01*
X144779000Y-82211396D01*
X144779000Y-81936604D01*
X144725391Y-81667093D01*
X144620233Y-81413220D01*
X144467567Y-81184739D01*
X144273261Y-80990433D01*
X144044780Y-80837767D01*
X143963260Y-80804000D01*
X144044780Y-80770233D01*
X144273261Y-80617567D01*
X144467567Y-80423261D01*
X144620233Y-80194780D01*
X144725391Y-79940907D01*
X144779000Y-79671396D01*
X144779000Y-79396604D01*
X144725391Y-79127093D01*
X144620233Y-78873220D01*
X144467567Y-78644739D01*
X144273261Y-78450433D01*
X144044780Y-78297767D01*
X143963260Y-78264000D01*
X144044780Y-78230233D01*
X144273261Y-78077567D01*
X144467567Y-77883261D01*
X144620233Y-77654780D01*
X144725391Y-77400907D01*
X144779000Y-77131396D01*
X144779000Y-77016433D01*
X145224500Y-77461933D01*
X145224501Y-87208438D01*
X145224500Y-87208448D01*
X145224500Y-87415066D01*
X143930068Y-88709500D01*
X109847503Y-88709500D01*
X109710256Y-88617795D01*
X109521898Y-88539774D01*
X109321939Y-88500000D01*
X109118061Y-88500000D01*
X108918102Y-88539774D01*
X108729744Y-88617795D01*
X108560226Y-88731063D01*
X108416063Y-88875226D01*
X108302795Y-89044744D01*
X108224774Y-89233102D01*
X108185000Y-89433061D01*
X108185000Y-89636939D01*
X108224774Y-89836898D01*
X108302795Y-90025256D01*
X108416063Y-90194774D01*
X108532226Y-90310937D01*
X108530540Y-90312063D01*
X108386377Y-90456226D01*
X108273109Y-90625744D01*
X108195088Y-90814102D01*
X108155314Y-91014061D01*
X108155314Y-91217939D01*
X108195088Y-91417898D01*
X108273109Y-91606256D01*
X108386377Y-91775774D01*
X108503345Y-91892742D01*
X108502864Y-91893064D01*
X108358701Y-92037227D01*
X108245433Y-92206745D01*
X108167412Y-92395103D01*
X108127638Y-92595062D01*
X108127638Y-92798940D01*
X108167412Y-92998899D01*
X108245433Y-93187257D01*
X108358701Y-93356775D01*
X108502864Y-93500938D01*
X108672382Y-93614206D01*
X108785306Y-93660981D01*
X108811228Y-93791301D01*
X108889249Y-93979659D01*
X109002517Y-94149177D01*
X109146680Y-94293340D01*
X109316198Y-94406608D01*
X109504556Y-94484629D01*
X109704515Y-94524403D01*
X109908393Y-94524403D01*
X110108352Y-94484629D01*
X110296710Y-94406608D01*
X110449240Y-94304691D01*
X110466823Y-94302959D01*
X110622431Y-94255756D01*
X110765839Y-94179102D01*
X110891538Y-94075944D01*
X110917395Y-94044437D01*
X111696283Y-93265550D01*
X145434760Y-93265550D01*
X145475310Y-93269544D01*
X145515860Y-93265550D01*
X145515863Y-93265550D01*
X145637136Y-93253606D01*
X145792744Y-93206403D01*
X145936152Y-93129749D01*
X146061851Y-93026591D01*
X146087708Y-92995084D01*
X149125221Y-89957573D01*
X150558500Y-91390853D01*
X150558501Y-121992066D01*
X145494964Y-127055604D01*
X145494958Y-127055609D01*
X144779000Y-127771567D01*
X144779000Y-127656604D01*
X144725391Y-127387093D01*
X144620233Y-127133220D01*
X144467567Y-126904739D01*
X144273261Y-126710433D01*
X144044780Y-126557767D01*
X143963260Y-126524000D01*
X144044780Y-126490233D01*
X144273261Y-126337567D01*
X144467567Y-126143261D01*
X144620233Y-125914780D01*
X144725391Y-125660907D01*
X144779000Y-125391396D01*
X144779000Y-125116604D01*
X144725391Y-124847093D01*
X144620233Y-124593220D01*
X144467567Y-124364739D01*
X144273261Y-124170433D01*
X144044780Y-124017767D01*
X143790907Y-123912609D01*
X143521396Y-123859000D01*
X143246604Y-123859000D01*
X142977093Y-123912609D01*
X142723220Y-124017767D01*
X142494739Y-124170433D01*
X142300433Y-124364739D01*
X142147767Y-124593220D01*
X142114000Y-124674740D01*
X142080233Y-124593220D01*
X141927567Y-124364739D01*
X141733261Y-124170433D01*
X141504780Y-124017767D01*
X141250907Y-123912609D01*
X140981396Y-123859000D01*
X140706604Y-123859000D01*
X140437093Y-123912609D01*
X140183220Y-124017767D01*
X139954739Y-124170433D01*
X139760433Y-124364739D01*
X139607767Y-124593220D01*
X139502609Y-124847093D01*
X139449000Y-125116604D01*
X139449000Y-125391396D01*
X139502609Y-125660907D01*
X139607767Y-125914780D01*
X139760433Y-126143261D01*
X139954739Y-126337567D01*
X140183220Y-126490233D01*
X140264740Y-126524000D01*
X140183220Y-126557767D01*
X139954739Y-126710433D01*
X139760433Y-126904739D01*
X139607767Y-127133220D01*
X139502609Y-127387093D01*
X139449000Y-127656604D01*
X139449000Y-127931396D01*
X139502609Y-128200907D01*
X139607767Y-128454780D01*
X139760433Y-128683261D01*
X139954739Y-128877567D01*
X140183220Y-129030233D01*
X140264740Y-129064000D01*
X140183220Y-129097767D01*
X139954739Y-129250433D01*
X139760433Y-129444739D01*
X139607767Y-129673220D01*
X139502609Y-129927093D01*
X139449000Y-130196604D01*
X139449000Y-130471396D01*
X139502609Y-130740907D01*
X139607767Y-130994780D01*
X139760433Y-131223261D01*
X139954739Y-131417567D01*
X140183220Y-131570233D01*
X140264740Y-131604000D01*
X140183220Y-131637767D01*
X139954739Y-131790433D01*
X139760433Y-131984739D01*
X139607767Y-132213220D01*
X139502609Y-132467093D01*
X139449000Y-132736604D01*
X139449000Y-133011396D01*
X139502609Y-133280907D01*
X139607767Y-133534780D01*
X139760433Y-133763261D01*
X139954739Y-133957567D01*
X140183220Y-134110233D01*
X140264740Y-134144000D01*
X140183220Y-134177767D01*
X139954739Y-134330433D01*
X139760433Y-134524739D01*
X139607767Y-134753220D01*
X139502609Y-135007093D01*
X139449000Y-135276604D01*
X139449000Y-135551396D01*
X139502609Y-135820907D01*
X139607767Y-136074780D01*
X139760433Y-136303261D01*
X139954739Y-136497567D01*
X140183220Y-136650233D01*
X140264740Y-136684000D01*
X140183220Y-136717767D01*
X139954739Y-136870433D01*
X139760433Y-137064739D01*
X139607767Y-137293220D01*
X139502609Y-137547093D01*
X139449000Y-137816604D01*
X139449000Y-138091396D01*
X139502609Y-138360907D01*
X139607767Y-138614780D01*
X139760433Y-138843261D01*
X139954739Y-139037567D01*
X140183220Y-139190233D01*
X140264740Y-139224000D01*
X140183220Y-139257767D01*
X139954739Y-139410433D01*
X139760433Y-139604739D01*
X139607767Y-139833220D01*
X139502609Y-140087093D01*
X139449000Y-140356604D01*
X139449000Y-140631396D01*
X139502609Y-140900907D01*
X139607767Y-141154780D01*
X139760433Y-141383261D01*
X139954739Y-141577567D01*
X140183220Y-141730233D01*
X140264740Y-141764000D01*
X140183220Y-141797767D01*
X139954739Y-141950433D01*
X139760433Y-142144739D01*
X139607767Y-142373220D01*
X139502609Y-142627093D01*
X139449000Y-142896604D01*
X139449000Y-143171396D01*
X139502609Y-143440907D01*
X139607767Y-143694780D01*
X139760433Y-143923261D01*
X139954739Y-144117567D01*
X140183220Y-144270233D01*
X140437093Y-144375391D01*
X140706604Y-144429000D01*
X140981396Y-144429000D01*
X141250907Y-144375391D01*
X141504780Y-144270233D01*
X141733261Y-144117567D01*
X141927567Y-143923261D01*
X142080233Y-143694780D01*
X142114000Y-143613260D01*
X142147767Y-143694780D01*
X142300433Y-143923261D01*
X142494739Y-144117567D01*
X142723220Y-144270233D01*
X142804740Y-144304000D01*
X142723220Y-144337767D01*
X142494739Y-144490433D01*
X142300433Y-144684739D01*
X142147767Y-144913220D01*
X142042609Y-145167093D01*
X141989000Y-145436604D01*
X141989000Y-145711396D01*
X142042609Y-145980907D01*
X142147767Y-146234780D01*
X142300433Y-146463261D01*
X142494739Y-146657567D01*
X142723220Y-146810233D01*
X142804740Y-146844000D01*
X142723220Y-146877767D01*
X142494739Y-147030433D01*
X142300433Y-147224739D01*
X142147767Y-147453220D01*
X142114000Y-147534740D01*
X142080233Y-147453220D01*
X141927567Y-147224739D01*
X141733261Y-147030433D01*
X141504780Y-146877767D01*
X141250907Y-146772609D01*
X140981396Y-146719000D01*
X140706604Y-146719000D01*
X140437093Y-146772609D01*
X140183220Y-146877767D01*
X139954739Y-147030433D01*
X139760433Y-147224739D01*
X139607767Y-147453220D01*
X139502609Y-147707093D01*
X139449000Y-147976604D01*
X139449000Y-148251396D01*
X139502609Y-148520907D01*
X139607767Y-148774780D01*
X139760433Y-149003261D01*
X139954739Y-149197567D01*
X140183220Y-149350233D01*
X140437093Y-149455391D01*
X140706604Y-149509000D01*
X140981396Y-149509000D01*
X141250907Y-149455391D01*
X141504780Y-149350233D01*
X141733261Y-149197567D01*
X141927567Y-149003261D01*
X142080233Y-148774780D01*
X142114000Y-148693260D01*
X142147767Y-148774780D01*
X142300433Y-149003261D01*
X142494739Y-149197567D01*
X142723220Y-149350233D01*
X142977093Y-149455391D01*
X143246604Y-149509000D01*
X143521396Y-149509000D01*
X143790907Y-149455391D01*
X144044780Y-149350233D01*
X144273261Y-149197567D01*
X144467567Y-149003261D01*
X144620233Y-148774780D01*
X144725391Y-148520907D01*
X144779000Y-148251396D01*
X144779000Y-147976604D01*
X144725391Y-147707093D01*
X144620233Y-147453220D01*
X144467567Y-147224739D01*
X144273261Y-147030433D01*
X144044780Y-146877767D01*
X143963260Y-146844000D01*
X144044780Y-146810233D01*
X144273261Y-146657567D01*
X144467567Y-146463261D01*
X144620233Y-146234780D01*
X144725391Y-145980907D01*
X144779000Y-145711396D01*
X144779000Y-145436604D01*
X144725391Y-145167093D01*
X144620233Y-144913220D01*
X144467567Y-144684739D01*
X144273261Y-144490433D01*
X144044780Y-144337767D01*
X143963260Y-144304000D01*
X144044780Y-144270233D01*
X144273261Y-144117567D01*
X144467567Y-143923261D01*
X144620233Y-143694780D01*
X144725391Y-143440907D01*
X144779000Y-143171396D01*
X144779000Y-142896604D01*
X144725391Y-142627093D01*
X144620233Y-142373220D01*
X144467567Y-142144739D01*
X144273261Y-141950433D01*
X144044780Y-141797767D01*
X143963260Y-141764000D01*
X144044780Y-141730233D01*
X144273261Y-141577567D01*
X144467567Y-141383261D01*
X144620233Y-141154780D01*
X144725391Y-140900907D01*
X144779000Y-140631396D01*
X144779000Y-140356604D01*
X144725391Y-140087093D01*
X144620233Y-139833220D01*
X144467567Y-139604739D01*
X144273261Y-139410433D01*
X144044780Y-139257767D01*
X143963260Y-139224000D01*
X144044780Y-139190233D01*
X144273261Y-139037567D01*
X144467567Y-138843261D01*
X144620233Y-138614780D01*
X144725391Y-138360907D01*
X144779000Y-138091396D01*
X144779000Y-137816604D01*
X144764040Y-137741393D01*
X150735901Y-131769532D01*
X150735905Y-131769527D01*
X152520049Y-129985384D01*
X152551551Y-129959531D01*
X152622435Y-129873158D01*
X152654709Y-129833833D01*
X152681409Y-129783879D01*
X152731363Y-129690424D01*
X152778566Y-129534816D01*
X152790510Y-129413543D01*
X152790510Y-129413541D01*
X152794504Y-129372991D01*
X152790510Y-129332440D01*
X152790510Y-90848800D01*
X152794503Y-90808257D01*
X152790510Y-90767714D01*
X152790510Y-90767705D01*
X152778566Y-90646432D01*
X152731363Y-90490824D01*
X152654709Y-90347416D01*
X152654708Y-90347414D01*
X152577401Y-90253216D01*
X152551551Y-90221717D01*
X152520051Y-90195866D01*
X150942566Y-88618382D01*
X150942566Y-76443408D01*
X153162000Y-76443408D01*
X153162000Y-76718592D01*
X153215686Y-76988490D01*
X153320995Y-77242727D01*
X153473880Y-77471535D01*
X153668465Y-77666120D01*
X153897273Y-77819005D01*
X154151510Y-77924314D01*
X154421408Y-77978000D01*
X154696592Y-77978000D01*
X154966490Y-77924314D01*
X155220727Y-77819005D01*
X155449535Y-77666120D01*
X155644120Y-77471535D01*
X155797005Y-77242727D01*
X155902314Y-76988490D01*
X155956000Y-76718592D01*
X155956000Y-76443408D01*
X155902314Y-76173510D01*
X155797005Y-75919273D01*
X155644120Y-75690465D01*
X155449535Y-75495880D01*
X155220727Y-75342995D01*
X154966490Y-75237686D01*
X154696592Y-75184000D01*
X154421408Y-75184000D01*
X154151510Y-75237686D01*
X153897273Y-75342995D01*
X153668465Y-75495880D01*
X153473880Y-75690465D01*
X153320995Y-75919273D01*
X153215686Y-76173510D01*
X153162000Y-76443408D01*
X150942566Y-76443408D01*
X150942566Y-70584931D01*
X150973443Y-70622555D01*
X151046144Y-70682219D01*
X153278133Y-72914210D01*
X153495517Y-73092613D01*
X153826460Y-73269505D01*
X154185554Y-73378435D01*
X154558999Y-73415217D01*
X154932444Y-73378435D01*
X155291539Y-73269505D01*
X155622482Y-73092613D01*
X155912555Y-72854555D01*
X156150613Y-72564482D01*
X156327505Y-72233539D01*
X156436435Y-71874444D01*
X156473217Y-71500999D01*
X156436435Y-71127554D01*
X156327505Y-70768460D01*
X156150613Y-70437517D01*
X155972210Y-70220133D01*
X154231999Y-68479923D01*
X154231999Y-67145324D01*
X154421408Y-67183000D01*
X154696592Y-67183000D01*
X154966490Y-67129314D01*
X155220727Y-67024005D01*
X155449535Y-66871120D01*
X155644120Y-66676535D01*
X155797005Y-66447727D01*
X155902314Y-66193490D01*
X155956000Y-65923592D01*
X155956000Y-65648408D01*
X155902314Y-65378510D01*
X155797005Y-65124273D01*
X155644120Y-64895465D01*
X155449535Y-64700880D01*
X155220727Y-64547995D01*
X154966490Y-64442686D01*
X154696592Y-64389000D01*
X154421408Y-64389000D01*
X154231999Y-64426676D01*
X154231999Y-62588010D01*
X154559000Y-62620217D01*
X154932444Y-62583436D01*
X155291538Y-62474506D01*
X155622482Y-62297613D01*
X155912556Y-62059556D01*
X156150613Y-61769482D01*
X156327506Y-61438539D01*
X156436436Y-61079445D01*
X156464000Y-60799582D01*
X156464000Y-44450155D01*
X156595986Y-44131513D01*
X156718000Y-43518110D01*
X156718000Y-42892690D01*
X156595986Y-42279287D01*
X156356648Y-41701474D01*
X156009183Y-41181456D01*
X155566944Y-40739217D01*
X155046926Y-40391752D01*
X154469113Y-40152414D01*
X153855710Y-40030400D01*
X153230290Y-40030400D01*
X152616887Y-40152414D01*
X152039074Y-40391752D01*
X151519056Y-40739217D01*
X151076817Y-41181456D01*
X150729352Y-41701474D01*
X150490014Y-42279287D01*
X150368000Y-42892690D01*
X150368000Y-43518110D01*
X150463956Y-44000512D01*
X150449564Y-44047956D01*
X150412782Y-44421401D01*
X150422000Y-44514991D01*
X150421999Y-58135895D01*
X147919060Y-55632956D01*
X147893203Y-55601449D01*
X147767504Y-55498291D01*
X147624096Y-55421637D01*
X147468488Y-55374434D01*
X147347215Y-55362490D01*
X147347212Y-55362490D01*
X147306662Y-55358496D01*
X147266112Y-55362490D01*
X107710923Y-55362490D01*
X99325429Y-46976997D01*
X99293226Y-46815102D01*
X99215205Y-46626744D01*
X99101937Y-46457226D01*
X98957774Y-46313063D01*
X98788256Y-46199795D01*
X98599898Y-46121774D01*
X98399939Y-46082000D01*
X98196061Y-46082000D01*
X97996102Y-46121774D01*
X97807744Y-46199795D01*
X97638226Y-46313063D01*
X97494063Y-46457226D01*
X97380795Y-46626744D01*
X97302774Y-46815102D01*
X97263000Y-47015061D01*
X97263000Y-47218939D01*
X97302774Y-47418898D01*
X97380795Y-47607256D01*
X97494063Y-47776774D01*
X97638226Y-47920937D01*
X97807744Y-48034205D01*
X97996102Y-48112226D01*
X98157997Y-48144429D01*
X105957067Y-55943500D01*
X105370933Y-55943500D01*
X99325429Y-49897996D01*
X99293226Y-49736102D01*
X99215205Y-49547744D01*
X99101937Y-49378226D01*
X98957774Y-49234063D01*
X98788256Y-49120795D01*
X98599898Y-49042774D01*
X98399939Y-49003000D01*
X98196061Y-49003000D01*
X97996102Y-49042774D01*
X97807744Y-49120795D01*
X97638226Y-49234063D01*
X97494063Y-49378226D01*
X97380795Y-49547744D01*
X97302774Y-49736102D01*
X97263000Y-49936061D01*
X97263000Y-50139939D01*
X97302774Y-50339898D01*
X97380795Y-50528256D01*
X97494063Y-50697774D01*
X97638226Y-50841937D01*
X97807744Y-50955205D01*
X97996102Y-51033226D01*
X98157996Y-51065429D01*
X103617077Y-56524510D01*
X83218944Y-56524510D01*
X73671429Y-46976996D01*
X73639226Y-46815102D01*
X73561205Y-46626744D01*
X73447937Y-46457226D01*
X73303774Y-46313063D01*
X73134256Y-46199795D01*
X72945898Y-46121774D01*
X72745939Y-46082000D01*
X72542061Y-46082000D01*
X72342102Y-46121774D01*
X72153744Y-46199795D01*
X71984226Y-46313063D01*
X71840063Y-46457226D01*
X71726795Y-46626744D01*
X71648774Y-46815102D01*
X71609000Y-47015061D01*
X47523000Y-47015061D01*
X47523000Y-41681061D01*
X62973000Y-41681061D01*
X62973000Y-41884939D01*
X63012774Y-42084898D01*
X63090795Y-42273256D01*
X63204063Y-42442774D01*
X63348226Y-42586937D01*
X63517744Y-42700205D01*
X63706102Y-42778226D01*
X63906061Y-42818000D01*
X64109939Y-42818000D01*
X64205459Y-42799000D01*
X89464541Y-42799000D01*
X89560061Y-42818000D01*
X89763939Y-42818000D01*
X89859459Y-42799000D01*
X115118541Y-42799000D01*
X115214061Y-42818000D01*
X115417939Y-42818000D01*
X115513459Y-42799000D01*
X122454172Y-42799000D01*
X122504074Y-42803915D01*
X122553976Y-42799000D01*
X122619595Y-42792537D01*
X122631476Y-42792537D01*
X122643130Y-42790219D01*
X122703245Y-42784298D01*
X122761046Y-42766764D01*
X122831435Y-42752763D01*
X123019793Y-42674742D01*
X123189311Y-42561474D01*
X123333474Y-42417311D01*
X123446742Y-42247793D01*
X123524763Y-42059435D01*
X123564537Y-41859476D01*
X123564537Y-41655598D01*
X123524763Y-41455639D01*
X123446742Y-41267281D01*
X123333474Y-41097763D01*
X123189311Y-40953600D01*
X123019793Y-40840332D01*
X122831435Y-40762311D01*
X122631476Y-40722537D01*
X122427598Y-40722537D01*
X122227639Y-40762311D01*
X122216319Y-40767000D01*
X115513459Y-40767000D01*
X115417939Y-40748000D01*
X115214061Y-40748000D01*
X115118541Y-40767000D01*
X89859459Y-40767000D01*
X89763939Y-40748000D01*
X89560061Y-40748000D01*
X89464541Y-40767000D01*
X64205459Y-40767000D01*
X64109939Y-40748000D01*
X63906061Y-40748000D01*
X63706102Y-40787774D01*
X63517744Y-40865795D01*
X63348226Y-40979063D01*
X63204063Y-41123226D01*
X63090795Y-41292744D01*
X63012774Y-41481102D01*
X62973000Y-41681061D01*
X47523000Y-41681061D01*
X47523000Y-36133608D01*
X49072800Y-36133608D01*
X49072800Y-36408792D01*
X49126486Y-36678690D01*
X49231795Y-36932927D01*
X49384680Y-37161735D01*
X49579265Y-37356320D01*
X49808073Y-37509205D01*
X50062310Y-37614514D01*
X50332208Y-37668200D01*
X50607392Y-37668200D01*
X50877290Y-37614514D01*
X51131527Y-37509205D01*
X51360335Y-37356320D01*
X51554920Y-37161735D01*
X51707805Y-36932927D01*
X51813114Y-36678690D01*
X51866800Y-36408792D01*
X51866800Y-36133608D01*
X55067200Y-36133608D01*
X55067200Y-36408792D01*
X55120886Y-36678690D01*
X55226195Y-36932927D01*
X55379080Y-37161735D01*
X55573665Y-37356320D01*
X55802473Y-37509205D01*
X56056710Y-37614514D01*
X56326608Y-37668200D01*
X56601792Y-37668200D01*
X56871690Y-37614514D01*
X57125927Y-37509205D01*
X57354735Y-37356320D01*
X57549320Y-37161735D01*
X57702205Y-36932927D01*
X57807514Y-36678690D01*
X57861200Y-36408792D01*
X57861200Y-36133608D01*
X61899800Y-36133608D01*
X61899800Y-36408792D01*
X61953486Y-36678690D01*
X62058795Y-36932927D01*
X62211680Y-37161735D01*
X62406265Y-37356320D01*
X62635073Y-37509205D01*
X62889310Y-37614514D01*
X63159208Y-37668200D01*
X63434392Y-37668200D01*
X63704290Y-37614514D01*
X63958527Y-37509205D01*
X64187335Y-37356320D01*
X64381920Y-37161735D01*
X64534805Y-36932927D01*
X64640114Y-36678690D01*
X64693800Y-36408792D01*
X64693800Y-36133608D01*
X67894200Y-36133608D01*
X67894200Y-36408792D01*
X67947886Y-36678690D01*
X68053195Y-36932927D01*
X68206080Y-37161735D01*
X68400665Y-37356320D01*
X68629473Y-37509205D01*
X68883710Y-37614514D01*
X69153608Y-37668200D01*
X69428792Y-37668200D01*
X69698690Y-37614514D01*
X69952927Y-37509205D01*
X70181735Y-37356320D01*
X70376320Y-37161735D01*
X70529205Y-36932927D01*
X70634514Y-36678690D01*
X70688200Y-36408792D01*
X70688200Y-36133608D01*
X74726800Y-36133608D01*
X74726800Y-36408792D01*
X74780486Y-36678690D01*
X74885795Y-36932927D01*
X75038680Y-37161735D01*
X75233265Y-37356320D01*
X75462073Y-37509205D01*
X75716310Y-37614514D01*
X75986208Y-37668200D01*
X76261392Y-37668200D01*
X76531290Y-37614514D01*
X76785527Y-37509205D01*
X77014335Y-37356320D01*
X77208920Y-37161735D01*
X77361805Y-36932927D01*
X77467114Y-36678690D01*
X77520800Y-36408792D01*
X77520800Y-36133608D01*
X80721200Y-36133608D01*
X80721200Y-36408792D01*
X80774886Y-36678690D01*
X80880195Y-36932927D01*
X81033080Y-37161735D01*
X81227665Y-37356320D01*
X81456473Y-37509205D01*
X81710710Y-37614514D01*
X81980608Y-37668200D01*
X82255792Y-37668200D01*
X82525690Y-37614514D01*
X82779927Y-37509205D01*
X83008735Y-37356320D01*
X83203320Y-37161735D01*
X83356205Y-36932927D01*
X83461514Y-36678690D01*
X83515200Y-36408792D01*
X83515200Y-36133608D01*
X87553800Y-36133608D01*
X87553800Y-36408792D01*
X87607486Y-36678690D01*
X87712795Y-36932927D01*
X87865680Y-37161735D01*
X88060265Y-37356320D01*
X88289073Y-37509205D01*
X88543310Y-37614514D01*
X88813208Y-37668200D01*
X89088392Y-37668200D01*
X89358290Y-37614514D01*
X89612527Y-37509205D01*
X89841335Y-37356320D01*
X90035920Y-37161735D01*
X90188805Y-36932927D01*
X90294114Y-36678690D01*
X90347800Y-36408792D01*
X90347800Y-36133608D01*
X93548200Y-36133608D01*
X93548200Y-36408792D01*
X93601886Y-36678690D01*
X93707195Y-36932927D01*
X93860080Y-37161735D01*
X94054665Y-37356320D01*
X94283473Y-37509205D01*
X94537710Y-37614514D01*
X94807608Y-37668200D01*
X95082792Y-37668200D01*
X95352690Y-37614514D01*
X95606927Y-37509205D01*
X95835735Y-37356320D01*
X96030320Y-37161735D01*
X96183205Y-36932927D01*
X96288514Y-36678690D01*
X96342200Y-36408792D01*
X96342200Y-36133608D01*
X100380800Y-36133608D01*
X100380800Y-36408792D01*
X100434486Y-36678690D01*
X100539795Y-36932927D01*
X100692680Y-37161735D01*
X100887265Y-37356320D01*
X101116073Y-37509205D01*
X101370310Y-37614514D01*
X101640208Y-37668200D01*
X101915392Y-37668200D01*
X102185290Y-37614514D01*
X102439527Y-37509205D01*
X102668335Y-37356320D01*
X102862920Y-37161735D01*
X103015805Y-36932927D01*
X103121114Y-36678690D01*
X103174800Y-36408792D01*
X103174800Y-36133608D01*
X106375200Y-36133608D01*
X106375200Y-36408792D01*
X106428886Y-36678690D01*
X106534195Y-36932927D01*
X106687080Y-37161735D01*
X106881665Y-37356320D01*
X107110473Y-37509205D01*
X107364710Y-37614514D01*
X107634608Y-37668200D01*
X107909792Y-37668200D01*
X108179690Y-37614514D01*
X108433927Y-37509205D01*
X108662735Y-37356320D01*
X108857320Y-37161735D01*
X109010205Y-36932927D01*
X109115514Y-36678690D01*
X109169200Y-36408792D01*
X109169200Y-36133608D01*
X113207800Y-36133608D01*
X113207800Y-36408792D01*
X113261486Y-36678690D01*
X113366795Y-36932927D01*
X113519680Y-37161735D01*
X113714265Y-37356320D01*
X113943073Y-37509205D01*
X114197310Y-37614514D01*
X114467208Y-37668200D01*
X114742392Y-37668200D01*
X115012290Y-37614514D01*
X115266527Y-37509205D01*
X115495335Y-37356320D01*
X115689920Y-37161735D01*
X115842805Y-36932927D01*
X115948114Y-36678690D01*
X116001800Y-36408792D01*
X116001800Y-36133608D01*
X119202200Y-36133608D01*
X119202200Y-36408792D01*
X119255886Y-36678690D01*
X119361195Y-36932927D01*
X119514080Y-37161735D01*
X119708665Y-37356320D01*
X119937473Y-37509205D01*
X120191710Y-37614514D01*
X120461608Y-37668200D01*
X120736792Y-37668200D01*
X121006690Y-37614514D01*
X121260927Y-37509205D01*
X121489735Y-37356320D01*
X121684320Y-37161735D01*
X121837205Y-36932927D01*
X121942514Y-36678690D01*
X121996200Y-36408792D01*
X121996200Y-36133608D01*
X121942514Y-35863710D01*
X121837205Y-35609473D01*
X121684320Y-35380665D01*
X121489735Y-35186080D01*
X121260927Y-35033195D01*
X121006690Y-34927886D01*
X120736792Y-34874200D01*
X120461608Y-34874200D01*
X120191710Y-34927886D01*
X119937473Y-35033195D01*
X119708665Y-35186080D01*
X119514080Y-35380665D01*
X119361195Y-35609473D01*
X119255886Y-35863710D01*
X119202200Y-36133608D01*
X116001800Y-36133608D01*
X115948114Y-35863710D01*
X115842805Y-35609473D01*
X115689920Y-35380665D01*
X115495335Y-35186080D01*
X115266527Y-35033195D01*
X115012290Y-34927886D01*
X114742392Y-34874200D01*
X114467208Y-34874200D01*
X114197310Y-34927886D01*
X113943073Y-35033195D01*
X113714265Y-35186080D01*
X113519680Y-35380665D01*
X113366795Y-35609473D01*
X113261486Y-35863710D01*
X113207800Y-36133608D01*
X109169200Y-36133608D01*
X109115514Y-35863710D01*
X109010205Y-35609473D01*
X108857320Y-35380665D01*
X108662735Y-35186080D01*
X108433927Y-35033195D01*
X108179690Y-34927886D01*
X107909792Y-34874200D01*
X107634608Y-34874200D01*
X107364710Y-34927886D01*
X107110473Y-35033195D01*
X106881665Y-35186080D01*
X106687080Y-35380665D01*
X106534195Y-35609473D01*
X106428886Y-35863710D01*
X106375200Y-36133608D01*
X103174800Y-36133608D01*
X103121114Y-35863710D01*
X103015805Y-35609473D01*
X102862920Y-35380665D01*
X102668335Y-35186080D01*
X102439527Y-35033195D01*
X102185290Y-34927886D01*
X101915392Y-34874200D01*
X101640208Y-34874200D01*
X101370310Y-34927886D01*
X101116073Y-35033195D01*
X100887265Y-35186080D01*
X100692680Y-35380665D01*
X100539795Y-35609473D01*
X100434486Y-35863710D01*
X100380800Y-36133608D01*
X96342200Y-36133608D01*
X96288514Y-35863710D01*
X96183205Y-35609473D01*
X96030320Y-35380665D01*
X95835735Y-35186080D01*
X95606927Y-35033195D01*
X95352690Y-34927886D01*
X95082792Y-34874200D01*
X94807608Y-34874200D01*
X94537710Y-34927886D01*
X94283473Y-35033195D01*
X94054665Y-35186080D01*
X93860080Y-35380665D01*
X93707195Y-35609473D01*
X93601886Y-35863710D01*
X93548200Y-36133608D01*
X90347800Y-36133608D01*
X90294114Y-35863710D01*
X90188805Y-35609473D01*
X90035920Y-35380665D01*
X89841335Y-35186080D01*
X89612527Y-35033195D01*
X89358290Y-34927886D01*
X89088392Y-34874200D01*
X88813208Y-34874200D01*
X88543310Y-34927886D01*
X88289073Y-35033195D01*
X88060265Y-35186080D01*
X87865680Y-35380665D01*
X87712795Y-35609473D01*
X87607486Y-35863710D01*
X87553800Y-36133608D01*
X83515200Y-36133608D01*
X83461514Y-35863710D01*
X83356205Y-35609473D01*
X83203320Y-35380665D01*
X83008735Y-35186080D01*
X82779927Y-35033195D01*
X82525690Y-34927886D01*
X82255792Y-34874200D01*
X81980608Y-34874200D01*
X81710710Y-34927886D01*
X81456473Y-35033195D01*
X81227665Y-35186080D01*
X81033080Y-35380665D01*
X80880195Y-35609473D01*
X80774886Y-35863710D01*
X80721200Y-36133608D01*
X77520800Y-36133608D01*
X77467114Y-35863710D01*
X77361805Y-35609473D01*
X77208920Y-35380665D01*
X77014335Y-35186080D01*
X76785527Y-35033195D01*
X76531290Y-34927886D01*
X76261392Y-34874200D01*
X75986208Y-34874200D01*
X75716310Y-34927886D01*
X75462073Y-35033195D01*
X75233265Y-35186080D01*
X75038680Y-35380665D01*
X74885795Y-35609473D01*
X74780486Y-35863710D01*
X74726800Y-36133608D01*
X70688200Y-36133608D01*
X70634514Y-35863710D01*
X70529205Y-35609473D01*
X70376320Y-35380665D01*
X70181735Y-35186080D01*
X69952927Y-35033195D01*
X69698690Y-34927886D01*
X69428792Y-34874200D01*
X69153608Y-34874200D01*
X68883710Y-34927886D01*
X68629473Y-35033195D01*
X68400665Y-35186080D01*
X68206080Y-35380665D01*
X68053195Y-35609473D01*
X67947886Y-35863710D01*
X67894200Y-36133608D01*
X64693800Y-36133608D01*
X64640114Y-35863710D01*
X64534805Y-35609473D01*
X64381920Y-35380665D01*
X64187335Y-35186080D01*
X63958527Y-35033195D01*
X63704290Y-34927886D01*
X63434392Y-34874200D01*
X63159208Y-34874200D01*
X62889310Y-34927886D01*
X62635073Y-35033195D01*
X62406265Y-35186080D01*
X62211680Y-35380665D01*
X62058795Y-35609473D01*
X61953486Y-35863710D01*
X61899800Y-36133608D01*
X57861200Y-36133608D01*
X57807514Y-35863710D01*
X57702205Y-35609473D01*
X57549320Y-35380665D01*
X57354735Y-35186080D01*
X57125927Y-35033195D01*
X56871690Y-34927886D01*
X56601792Y-34874200D01*
X56326608Y-34874200D01*
X56056710Y-34927886D01*
X55802473Y-35033195D01*
X55573665Y-35186080D01*
X55379080Y-35380665D01*
X55226195Y-35609473D01*
X55120886Y-35863710D01*
X55067200Y-36133608D01*
X51866800Y-36133608D01*
X51813114Y-35863710D01*
X51707805Y-35609473D01*
X51554920Y-35380665D01*
X51360335Y-35186080D01*
X51131527Y-35033195D01*
X50877290Y-34927886D01*
X50607392Y-34874200D01*
X50332208Y-34874200D01*
X50062310Y-34927886D01*
X49808073Y-35033195D01*
X49579265Y-35186080D01*
X49384680Y-35380665D01*
X49231795Y-35609473D01*
X49126486Y-35863710D01*
X49072800Y-36133608D01*
X47523000Y-36133608D01*
X47523000Y-33136408D01*
X49072800Y-33136408D01*
X49072800Y-33411592D01*
X49126486Y-33681490D01*
X49231795Y-33935727D01*
X49384680Y-34164535D01*
X49579265Y-34359120D01*
X49808073Y-34512005D01*
X50062310Y-34617314D01*
X50332208Y-34671000D01*
X50607392Y-34671000D01*
X50877290Y-34617314D01*
X51131527Y-34512005D01*
X51360335Y-34359120D01*
X51554920Y-34164535D01*
X51707805Y-33935727D01*
X51813114Y-33681490D01*
X51866800Y-33411592D01*
X51866800Y-33136408D01*
X55067200Y-33136408D01*
X55067200Y-33411592D01*
X55120886Y-33681490D01*
X55226195Y-33935727D01*
X55379080Y-34164535D01*
X55573665Y-34359120D01*
X55802473Y-34512005D01*
X56056710Y-34617314D01*
X56326608Y-34671000D01*
X56601792Y-34671000D01*
X56871690Y-34617314D01*
X57125927Y-34512005D01*
X57354735Y-34359120D01*
X57549320Y-34164535D01*
X57702205Y-33935727D01*
X57807514Y-33681490D01*
X57861200Y-33411592D01*
X57861200Y-33136408D01*
X61899800Y-33136408D01*
X61899800Y-33411592D01*
X61953486Y-33681490D01*
X62058795Y-33935727D01*
X62211680Y-34164535D01*
X62406265Y-34359120D01*
X62635073Y-34512005D01*
X62889310Y-34617314D01*
X63159208Y-34671000D01*
X63434392Y-34671000D01*
X63704290Y-34617314D01*
X63958527Y-34512005D01*
X64187335Y-34359120D01*
X64381920Y-34164535D01*
X64534805Y-33935727D01*
X64640114Y-33681490D01*
X64693800Y-33411592D01*
X64693800Y-33136408D01*
X67894200Y-33136408D01*
X67894200Y-33411592D01*
X67947886Y-33681490D01*
X68053195Y-33935727D01*
X68206080Y-34164535D01*
X68400665Y-34359120D01*
X68629473Y-34512005D01*
X68883710Y-34617314D01*
X69153608Y-34671000D01*
X69428792Y-34671000D01*
X69698690Y-34617314D01*
X69952927Y-34512005D01*
X70181735Y-34359120D01*
X70376320Y-34164535D01*
X70529205Y-33935727D01*
X70634514Y-33681490D01*
X70688200Y-33411592D01*
X70688200Y-33136408D01*
X74726800Y-33136408D01*
X74726800Y-33411592D01*
X74780486Y-33681490D01*
X74885795Y-33935727D01*
X75038680Y-34164535D01*
X75233265Y-34359120D01*
X75462073Y-34512005D01*
X75716310Y-34617314D01*
X75986208Y-34671000D01*
X76261392Y-34671000D01*
X76531290Y-34617314D01*
X76785527Y-34512005D01*
X77014335Y-34359120D01*
X77208920Y-34164535D01*
X77361805Y-33935727D01*
X77467114Y-33681490D01*
X77520800Y-33411592D01*
X77520800Y-33136408D01*
X80721200Y-33136408D01*
X80721200Y-33411592D01*
X80774886Y-33681490D01*
X80880195Y-33935727D01*
X81033080Y-34164535D01*
X81227665Y-34359120D01*
X81456473Y-34512005D01*
X81710710Y-34617314D01*
X81980608Y-34671000D01*
X82255792Y-34671000D01*
X82525690Y-34617314D01*
X82779927Y-34512005D01*
X83008735Y-34359120D01*
X83203320Y-34164535D01*
X83356205Y-33935727D01*
X83461514Y-33681490D01*
X83515200Y-33411592D01*
X83515200Y-33136408D01*
X87553800Y-33136408D01*
X87553800Y-33411592D01*
X87607486Y-33681490D01*
X87712795Y-33935727D01*
X87865680Y-34164535D01*
X88060265Y-34359120D01*
X88289073Y-34512005D01*
X88543310Y-34617314D01*
X88813208Y-34671000D01*
X89088392Y-34671000D01*
X89358290Y-34617314D01*
X89612527Y-34512005D01*
X89841335Y-34359120D01*
X90035920Y-34164535D01*
X90188805Y-33935727D01*
X90294114Y-33681490D01*
X90347800Y-33411592D01*
X90347800Y-33136408D01*
X93548200Y-33136408D01*
X93548200Y-33411592D01*
X93601886Y-33681490D01*
X93707195Y-33935727D01*
X93860080Y-34164535D01*
X94054665Y-34359120D01*
X94283473Y-34512005D01*
X94537710Y-34617314D01*
X94807608Y-34671000D01*
X95082792Y-34671000D01*
X95352690Y-34617314D01*
X95606927Y-34512005D01*
X95835735Y-34359120D01*
X96030320Y-34164535D01*
X96183205Y-33935727D01*
X96288514Y-33681490D01*
X96342200Y-33411592D01*
X96342200Y-33136408D01*
X100380800Y-33136408D01*
X100380800Y-33411592D01*
X100434486Y-33681490D01*
X100539795Y-33935727D01*
X100692680Y-34164535D01*
X100887265Y-34359120D01*
X101116073Y-34512005D01*
X101370310Y-34617314D01*
X101640208Y-34671000D01*
X101915392Y-34671000D01*
X102185290Y-34617314D01*
X102439527Y-34512005D01*
X102668335Y-34359120D01*
X102862920Y-34164535D01*
X103015805Y-33935727D01*
X103121114Y-33681490D01*
X103174800Y-33411592D01*
X103174800Y-33136408D01*
X106375200Y-33136408D01*
X106375200Y-33411592D01*
X106428886Y-33681490D01*
X106534195Y-33935727D01*
X106687080Y-34164535D01*
X106881665Y-34359120D01*
X107110473Y-34512005D01*
X107364710Y-34617314D01*
X107634608Y-34671000D01*
X107909792Y-34671000D01*
X108179690Y-34617314D01*
X108433927Y-34512005D01*
X108662735Y-34359120D01*
X108857320Y-34164535D01*
X109010205Y-33935727D01*
X109115514Y-33681490D01*
X109169200Y-33411592D01*
X109169200Y-33136408D01*
X113207800Y-33136408D01*
X113207800Y-33411592D01*
X113261486Y-33681490D01*
X113366795Y-33935727D01*
X113519680Y-34164535D01*
X113714265Y-34359120D01*
X113943073Y-34512005D01*
X114197310Y-34617314D01*
X114467208Y-34671000D01*
X114742392Y-34671000D01*
X115012290Y-34617314D01*
X115266527Y-34512005D01*
X115495335Y-34359120D01*
X115689920Y-34164535D01*
X115842805Y-33935727D01*
X115948114Y-33681490D01*
X116001800Y-33411592D01*
X116001800Y-33136408D01*
X119202200Y-33136408D01*
X119202200Y-33411592D01*
X119255886Y-33681490D01*
X119361195Y-33935727D01*
X119514080Y-34164535D01*
X119708665Y-34359120D01*
X119937473Y-34512005D01*
X120191710Y-34617314D01*
X120461608Y-34671000D01*
X120736792Y-34671000D01*
X121006690Y-34617314D01*
X121260927Y-34512005D01*
X121489735Y-34359120D01*
X121684320Y-34164535D01*
X121837205Y-33935727D01*
X121942514Y-33681490D01*
X121996200Y-33411592D01*
X121996200Y-33136408D01*
X121942514Y-32866510D01*
X121837205Y-32612273D01*
X121684320Y-32383465D01*
X121489735Y-32188880D01*
X121260927Y-32035995D01*
X121006690Y-31930686D01*
X120736792Y-31877000D01*
X120461608Y-31877000D01*
X120191710Y-31930686D01*
X119937473Y-32035995D01*
X119708665Y-32188880D01*
X119514080Y-32383465D01*
X119361195Y-32612273D01*
X119255886Y-32866510D01*
X119202200Y-33136408D01*
X116001800Y-33136408D01*
X115948114Y-32866510D01*
X115842805Y-32612273D01*
X115689920Y-32383465D01*
X115495335Y-32188880D01*
X115266527Y-32035995D01*
X115012290Y-31930686D01*
X114742392Y-31877000D01*
X114467208Y-31877000D01*
X114197310Y-31930686D01*
X113943073Y-32035995D01*
X113714265Y-32188880D01*
X113519680Y-32383465D01*
X113366795Y-32612273D01*
X113261486Y-32866510D01*
X113207800Y-33136408D01*
X109169200Y-33136408D01*
X109115514Y-32866510D01*
X109010205Y-32612273D01*
X108857320Y-32383465D01*
X108662735Y-32188880D01*
X108433927Y-32035995D01*
X108179690Y-31930686D01*
X107909792Y-31877000D01*
X107634608Y-31877000D01*
X107364710Y-31930686D01*
X107110473Y-32035995D01*
X106881665Y-32188880D01*
X106687080Y-32383465D01*
X106534195Y-32612273D01*
X106428886Y-32866510D01*
X106375200Y-33136408D01*
X103174800Y-33136408D01*
X103121114Y-32866510D01*
X103015805Y-32612273D01*
X102862920Y-32383465D01*
X102668335Y-32188880D01*
X102439527Y-32035995D01*
X102185290Y-31930686D01*
X101915392Y-31877000D01*
X101640208Y-31877000D01*
X101370310Y-31930686D01*
X101116073Y-32035995D01*
X100887265Y-32188880D01*
X100692680Y-32383465D01*
X100539795Y-32612273D01*
X100434486Y-32866510D01*
X100380800Y-33136408D01*
X96342200Y-33136408D01*
X96288514Y-32866510D01*
X96183205Y-32612273D01*
X96030320Y-32383465D01*
X95835735Y-32188880D01*
X95606927Y-32035995D01*
X95352690Y-31930686D01*
X95082792Y-31877000D01*
X94807608Y-31877000D01*
X94537710Y-31930686D01*
X94283473Y-32035995D01*
X94054665Y-32188880D01*
X93860080Y-32383465D01*
X93707195Y-32612273D01*
X93601886Y-32866510D01*
X93548200Y-33136408D01*
X90347800Y-33136408D01*
X90294114Y-32866510D01*
X90188805Y-32612273D01*
X90035920Y-32383465D01*
X89841335Y-32188880D01*
X89612527Y-32035995D01*
X89358290Y-31930686D01*
X89088392Y-31877000D01*
X88813208Y-31877000D01*
X88543310Y-31930686D01*
X88289073Y-32035995D01*
X88060265Y-32188880D01*
X87865680Y-32383465D01*
X87712795Y-32612273D01*
X87607486Y-32866510D01*
X87553800Y-33136408D01*
X83515200Y-33136408D01*
X83461514Y-32866510D01*
X83356205Y-32612273D01*
X83203320Y-32383465D01*
X83008735Y-32188880D01*
X82779927Y-32035995D01*
X82525690Y-31930686D01*
X82255792Y-31877000D01*
X81980608Y-31877000D01*
X81710710Y-31930686D01*
X81456473Y-32035995D01*
X81227665Y-32188880D01*
X81033080Y-32383465D01*
X80880195Y-32612273D01*
X80774886Y-32866510D01*
X80721200Y-33136408D01*
X77520800Y-33136408D01*
X77467114Y-32866510D01*
X77361805Y-32612273D01*
X77208920Y-32383465D01*
X77014335Y-32188880D01*
X76785527Y-32035995D01*
X76531290Y-31930686D01*
X76261392Y-31877000D01*
X75986208Y-31877000D01*
X75716310Y-31930686D01*
X75462073Y-32035995D01*
X75233265Y-32188880D01*
X75038680Y-32383465D01*
X74885795Y-32612273D01*
X74780486Y-32866510D01*
X74726800Y-33136408D01*
X70688200Y-33136408D01*
X70634514Y-32866510D01*
X70529205Y-32612273D01*
X70376320Y-32383465D01*
X70181735Y-32188880D01*
X69952927Y-32035995D01*
X69698690Y-31930686D01*
X69428792Y-31877000D01*
X69153608Y-31877000D01*
X68883710Y-31930686D01*
X68629473Y-32035995D01*
X68400665Y-32188880D01*
X68206080Y-32383465D01*
X68053195Y-32612273D01*
X67947886Y-32866510D01*
X67894200Y-33136408D01*
X64693800Y-33136408D01*
X64640114Y-32866510D01*
X64534805Y-32612273D01*
X64381920Y-32383465D01*
X64187335Y-32188880D01*
X63958527Y-32035995D01*
X63704290Y-31930686D01*
X63434392Y-31877000D01*
X63159208Y-31877000D01*
X62889310Y-31930686D01*
X62635073Y-32035995D01*
X62406265Y-32188880D01*
X62211680Y-32383465D01*
X62058795Y-32612273D01*
X61953486Y-32866510D01*
X61899800Y-33136408D01*
X57861200Y-33136408D01*
X57807514Y-32866510D01*
X57702205Y-32612273D01*
X57549320Y-32383465D01*
X57354735Y-32188880D01*
X57125927Y-32035995D01*
X56871690Y-31930686D01*
X56601792Y-31877000D01*
X56326608Y-31877000D01*
X56056710Y-31930686D01*
X55802473Y-32035995D01*
X55573665Y-32188880D01*
X55379080Y-32383465D01*
X55226195Y-32612273D01*
X55120886Y-32866510D01*
X55067200Y-33136408D01*
X51866800Y-33136408D01*
X51813114Y-32866510D01*
X51707805Y-32612273D01*
X51554920Y-32383465D01*
X51360335Y-32188880D01*
X51131527Y-32035995D01*
X50877290Y-31930686D01*
X50607392Y-31877000D01*
X50332208Y-31877000D01*
X50062310Y-31930686D01*
X49808073Y-32035995D01*
X49579265Y-32188880D01*
X49384680Y-32383465D01*
X49231795Y-32612273D01*
X49126486Y-32866510D01*
X49072800Y-33136408D01*
X47523000Y-33136408D01*
X47523000Y-28996106D01*
X51295300Y-28996106D01*
X51295300Y-29423894D01*
X51378757Y-29843462D01*
X51542464Y-30238686D01*
X51780130Y-30594378D01*
X52082622Y-30896870D01*
X52438314Y-31134536D01*
X52833538Y-31298243D01*
X53253106Y-31381700D01*
X53680894Y-31381700D01*
X54100462Y-31298243D01*
X54495686Y-31134536D01*
X54851378Y-30896870D01*
X55153870Y-30594378D01*
X55391536Y-30238686D01*
X55555243Y-29843462D01*
X55638700Y-29423894D01*
X55638700Y-28996106D01*
X64122300Y-28996106D01*
X64122300Y-29423894D01*
X64205757Y-29843462D01*
X64369464Y-30238686D01*
X64607130Y-30594378D01*
X64909622Y-30896870D01*
X65265314Y-31134536D01*
X65660538Y-31298243D01*
X66080106Y-31381700D01*
X66507894Y-31381700D01*
X66927462Y-31298243D01*
X67322686Y-31134536D01*
X67678378Y-30896870D01*
X67980870Y-30594378D01*
X68218536Y-30238686D01*
X68382243Y-29843462D01*
X68465700Y-29423894D01*
X68465700Y-28996106D01*
X76949300Y-28996106D01*
X76949300Y-29423894D01*
X77032757Y-29843462D01*
X77196464Y-30238686D01*
X77434130Y-30594378D01*
X77736622Y-30896870D01*
X78092314Y-31134536D01*
X78487538Y-31298243D01*
X78907106Y-31381700D01*
X79334894Y-31381700D01*
X79754462Y-31298243D01*
X80149686Y-31134536D01*
X80505378Y-30896870D01*
X80807870Y-30594378D01*
X81045536Y-30238686D01*
X81209243Y-29843462D01*
X81292700Y-29423894D01*
X81292700Y-28996106D01*
X89776300Y-28996106D01*
X89776300Y-29423894D01*
X89859757Y-29843462D01*
X90023464Y-30238686D01*
X90261130Y-30594378D01*
X90563622Y-30896870D01*
X90919314Y-31134536D01*
X91314538Y-31298243D01*
X91734106Y-31381700D01*
X92161894Y-31381700D01*
X92581462Y-31298243D01*
X92976686Y-31134536D01*
X93332378Y-30896870D01*
X93634870Y-30594378D01*
X93872536Y-30238686D01*
X94036243Y-29843462D01*
X94119700Y-29423894D01*
X94119700Y-28996106D01*
X102603300Y-28996106D01*
X102603300Y-29423894D01*
X102686757Y-29843462D01*
X102850464Y-30238686D01*
X103088130Y-30594378D01*
X103390622Y-30896870D01*
X103746314Y-31134536D01*
X104141538Y-31298243D01*
X104561106Y-31381700D01*
X104988894Y-31381700D01*
X105408462Y-31298243D01*
X105803686Y-31134536D01*
X106159378Y-30896870D01*
X106461870Y-30594378D01*
X106699536Y-30238686D01*
X106863243Y-29843462D01*
X106946700Y-29423894D01*
X106946700Y-28996106D01*
X115430300Y-28996106D01*
X115430300Y-29423894D01*
X115513757Y-29843462D01*
X115677464Y-30238686D01*
X115915130Y-30594378D01*
X116217622Y-30896870D01*
X116573314Y-31134536D01*
X116968538Y-31298243D01*
X117388106Y-31381700D01*
X117815894Y-31381700D01*
X118235462Y-31298243D01*
X118630686Y-31134536D01*
X118986378Y-30896870D01*
X119288870Y-30594378D01*
X119526536Y-30238686D01*
X119690243Y-29843462D01*
X119773700Y-29423894D01*
X119773700Y-28996106D01*
X119690243Y-28576538D01*
X119526536Y-28181314D01*
X119288870Y-27825622D01*
X118986378Y-27523130D01*
X118630686Y-27285464D01*
X118235462Y-27121757D01*
X117815894Y-27038300D01*
X117388106Y-27038300D01*
X116968538Y-27121757D01*
X116573314Y-27285464D01*
X116217622Y-27523130D01*
X115915130Y-27825622D01*
X115677464Y-28181314D01*
X115513757Y-28576538D01*
X115430300Y-28996106D01*
X106946700Y-28996106D01*
X106863243Y-28576538D01*
X106699536Y-28181314D01*
X106461870Y-27825622D01*
X106159378Y-27523130D01*
X105803686Y-27285464D01*
X105408462Y-27121757D01*
X104988894Y-27038300D01*
X104561106Y-27038300D01*
X104141538Y-27121757D01*
X103746314Y-27285464D01*
X103390622Y-27523130D01*
X103088130Y-27825622D01*
X102850464Y-28181314D01*
X102686757Y-28576538D01*
X102603300Y-28996106D01*
X94119700Y-28996106D01*
X94036243Y-28576538D01*
X93872536Y-28181314D01*
X93634870Y-27825622D01*
X93332378Y-27523130D01*
X92976686Y-27285464D01*
X92581462Y-27121757D01*
X92161894Y-27038300D01*
X91734106Y-27038300D01*
X91314538Y-27121757D01*
X90919314Y-27285464D01*
X90563622Y-27523130D01*
X90261130Y-27825622D01*
X90023464Y-28181314D01*
X89859757Y-28576538D01*
X89776300Y-28996106D01*
X81292700Y-28996106D01*
X81209243Y-28576538D01*
X81045536Y-28181314D01*
X80807870Y-27825622D01*
X80505378Y-27523130D01*
X80149686Y-27285464D01*
X79754462Y-27121757D01*
X79334894Y-27038300D01*
X78907106Y-27038300D01*
X78487538Y-27121757D01*
X78092314Y-27285464D01*
X77736622Y-27523130D01*
X77434130Y-27825622D01*
X77196464Y-28181314D01*
X77032757Y-28576538D01*
X76949300Y-28996106D01*
X68465700Y-28996106D01*
X68382243Y-28576538D01*
X68218536Y-28181314D01*
X67980870Y-27825622D01*
X67678378Y-27523130D01*
X67322686Y-27285464D01*
X66927462Y-27121757D01*
X66507894Y-27038300D01*
X66080106Y-27038300D01*
X65660538Y-27121757D01*
X65265314Y-27285464D01*
X64909622Y-27523130D01*
X64607130Y-27825622D01*
X64369464Y-28181314D01*
X64205757Y-28576538D01*
X64122300Y-28996106D01*
X55638700Y-28996106D01*
X55555243Y-28576538D01*
X55391536Y-28181314D01*
X55153870Y-27825622D01*
X54851378Y-27523130D01*
X54495686Y-27285464D01*
X54100462Y-27121757D01*
X53680894Y-27038300D01*
X53253106Y-27038300D01*
X52833538Y-27121757D01*
X52438314Y-27285464D01*
X52082622Y-27523130D01*
X51780130Y-27825622D01*
X51542464Y-28181314D01*
X51378757Y-28576538D01*
X51295300Y-28996106D01*
X47523000Y-28996106D01*
X47523000Y-26956279D01*
X47552234Y-26658125D01*
X47629448Y-26402378D01*
X47754869Y-26166496D01*
X47923716Y-25959470D01*
X48129554Y-25789187D01*
X48364556Y-25662121D01*
X48619756Y-25583124D01*
X48915882Y-25552000D01*
X122268721Y-25552000D01*
X122566875Y-25581234D01*
G37*
%TD.AperFunction*%
D19*
X151139511Y-129031056D02*
X149568473Y-130602095D01*
X149568468Y-130602099D01*
X144779000Y-135391568D01*
X144779000Y-135276604D01*
X144725391Y-135007093D01*
X144620233Y-134753220D01*
X144467567Y-134524739D01*
X144273261Y-134330433D01*
X144044780Y-134177767D01*
X143963260Y-134144000D01*
X144044780Y-134110233D01*
X144273261Y-133957567D01*
X144467567Y-133763261D01*
X144620233Y-133534780D01*
X144725391Y-133280907D01*
X144779000Y-133011396D01*
X144779000Y-132736604D01*
X144725391Y-132467093D01*
X144620233Y-132213220D01*
X144467567Y-131984739D01*
X144273261Y-131790433D01*
X144044780Y-131637767D01*
X143963260Y-131604000D01*
X144044780Y-131570233D01*
X144273261Y-131417567D01*
X144467567Y-131223261D01*
X144620233Y-130994780D01*
X144725391Y-130740907D01*
X144779000Y-130471396D01*
X144779000Y-130196604D01*
X144764040Y-130121393D01*
X146662391Y-128223042D01*
X146662396Y-128223036D01*
X151139511Y-123745922D01*
X151139511Y-129031056D01*
%TA.AperFunction,Conductor*%
D20*
G36*
X151139511Y-129031056D02*
G01*
X149568473Y-130602095D01*
X149568468Y-130602099D01*
X144779000Y-135391568D01*
X144779000Y-135276604D01*
X144725391Y-135007093D01*
X144620233Y-134753220D01*
X144467567Y-134524739D01*
X144273261Y-134330433D01*
X144044780Y-134177767D01*
X143963260Y-134144000D01*
X144044780Y-134110233D01*
X144273261Y-133957567D01*
X144467567Y-133763261D01*
X144620233Y-133534780D01*
X144725391Y-133280907D01*
X144779000Y-133011396D01*
X144779000Y-132736604D01*
X144725391Y-132467093D01*
X144620233Y-132213220D01*
X144467567Y-131984739D01*
X144273261Y-131790433D01*
X144044780Y-131637767D01*
X143963260Y-131604000D01*
X144044780Y-131570233D01*
X144273261Y-131417567D01*
X144467567Y-131223261D01*
X144620233Y-130994780D01*
X144725391Y-130740907D01*
X144779000Y-130471396D01*
X144779000Y-130196604D01*
X144764040Y-130121393D01*
X146662391Y-128223042D01*
X146662396Y-128223036D01*
X151139511Y-123745922D01*
X151139511Y-129031056D01*
G37*
%TD.AperFunction*%
D19*
X148710556Y-59580990D02*
X148710556Y-65913123D01*
X144764040Y-61966607D01*
X144779000Y-61891396D01*
X144779000Y-61616604D01*
X144725391Y-61347093D01*
X144620233Y-61093220D01*
X144467567Y-60864739D01*
X144273261Y-60670433D01*
X144044780Y-60517767D01*
X143790907Y-60412609D01*
X143521396Y-60359000D01*
X143246604Y-60359000D01*
X142977093Y-60412609D01*
X142723220Y-60517767D01*
X142579396Y-60613867D01*
X142549547Y-60589371D01*
X139554674Y-57594500D01*
X146724068Y-57594500D01*
X148710556Y-59580990D01*
%TA.AperFunction,Conductor*%
D20*
G36*
X148710556Y-59580990D02*
G01*
X148710556Y-65913123D01*
X144764040Y-61966607D01*
X144779000Y-61891396D01*
X144779000Y-61616604D01*
X144725391Y-61347093D01*
X144620233Y-61093220D01*
X144467567Y-60864739D01*
X144273261Y-60670433D01*
X144044780Y-60517767D01*
X143790907Y-60412609D01*
X143521396Y-60359000D01*
X143246604Y-60359000D01*
X142977093Y-60412609D01*
X142723220Y-60517767D01*
X142579396Y-60613867D01*
X142549547Y-60589371D01*
X139554674Y-57594500D01*
X146724068Y-57594500D01*
X148710556Y-59580990D01*
G37*
%TD.AperFunction*%
%TD*%
M02*
