%TF.GenerationSoftware,KiCad,Pcbnew,(5.1.10)-1*%
%TF.CreationDate,2021-11-15T21:10:30-06:00*%
%TF.ProjectId,Driveboard_2022,44726976-6562-46f6-9172-645f32303232,rev?*%
%TF.SameCoordinates,Original*%
%TF.FileFunction,Legend,Bot*%
%TF.FilePolarity,Positive*%
%FSLAX46Y46*%
G04 Gerber Fmt 4.6, Leading zero omitted, Abs format (unit mm)*
G04 Created by KiCad (PCBNEW (5.1.10)-1) date 2021-11-15 21:10:30*
%MOMM*%
%LPD*%
G01*
G04 APERTURE LIST*
%ADD10C,0.150000*%
G04 APERTURE END LIST*
D10*
%TO.C,U6*%
X169799000Y-58166000D02*
X153289000Y-58166000D01*
X153289000Y-68326000D02*
X169799000Y-68326000D01*
X153289000Y-58166000D02*
X153289000Y-68326000D01*
X169799000Y-58166000D02*
X169799000Y-68326000D01*
X157099000Y-60706000D02*
X157099000Y-65786000D01*
X159639000Y-58166000D02*
X157099000Y-60706000D01*
X164719000Y-58166000D02*
X159639000Y-58166000D01*
X167259000Y-60706000D02*
X164719000Y-58166000D01*
X167259000Y-65786000D02*
X167259000Y-60706000D01*
X164719000Y-68326000D02*
X167259000Y-65786000D01*
X159639000Y-68326000D02*
X164719000Y-68326000D01*
X157099000Y-65786000D02*
X159639000Y-68326000D01*
%TO.C,U5*%
X169799000Y-68961000D02*
X153289000Y-68961000D01*
X153289000Y-79121000D02*
X169799000Y-79121000D01*
X153289000Y-68961000D02*
X153289000Y-79121000D01*
X169799000Y-68961000D02*
X169799000Y-79121000D01*
X157099000Y-71501000D02*
X157099000Y-76581000D01*
X159639000Y-68961000D02*
X157099000Y-71501000D01*
X164719000Y-68961000D02*
X159639000Y-68961000D01*
X167259000Y-71501000D02*
X164719000Y-68961000D01*
X167259000Y-76581000D02*
X167259000Y-71501000D01*
X164719000Y-79121000D02*
X167259000Y-76581000D01*
X159639000Y-79121000D02*
X164719000Y-79121000D01*
X157099000Y-76581000D02*
X159639000Y-79121000D01*
%TO.C,U6*%
X151979380Y-61126952D02*
X151979380Y-61317428D01*
X152027000Y-61412666D01*
X152122238Y-61507904D01*
X152312714Y-61555523D01*
X152646047Y-61555523D01*
X152836523Y-61507904D01*
X152931761Y-61412666D01*
X152979380Y-61317428D01*
X152979380Y-61126952D01*
X152931761Y-61031714D01*
X152836523Y-60936476D01*
X152646047Y-60888857D01*
X152312714Y-60888857D01*
X152122238Y-60936476D01*
X152027000Y-61031714D01*
X151979380Y-61126952D01*
X152979380Y-61984095D02*
X151979380Y-61984095D01*
X152979380Y-62555523D02*
X152407952Y-62126952D01*
X151979380Y-62555523D02*
X152550809Y-61984095D01*
X152979380Y-62984095D02*
X151979380Y-62984095D01*
X151979380Y-64698380D02*
X151979380Y-64222190D01*
X152455571Y-64174571D01*
X152407952Y-64222190D01*
X152360333Y-64317428D01*
X152360333Y-64555523D01*
X152407952Y-64650761D01*
X152455571Y-64698380D01*
X152550809Y-64746000D01*
X152788904Y-64746000D01*
X152884142Y-64698380D01*
X152931761Y-64650761D01*
X152979380Y-64555523D01*
X152979380Y-64317428D01*
X152931761Y-64222190D01*
X152884142Y-64174571D01*
X151979380Y-65031714D02*
X152979380Y-65365047D01*
X151979380Y-65698380D01*
%TO.C,U5*%
X151471380Y-72715761D02*
X151471380Y-72906238D01*
X151519000Y-73001476D01*
X151614238Y-73096714D01*
X151804714Y-73144333D01*
X152138047Y-73144333D01*
X152328523Y-73096714D01*
X152423761Y-73001476D01*
X152471380Y-72906238D01*
X152471380Y-72715761D01*
X152423761Y-72620523D01*
X152328523Y-72525285D01*
X152138047Y-72477666D01*
X151804714Y-72477666D01*
X151614238Y-72525285D01*
X151519000Y-72620523D01*
X151471380Y-72715761D01*
X152471380Y-73572904D02*
X151471380Y-73572904D01*
X152471380Y-74144333D02*
X151899952Y-73715761D01*
X151471380Y-74144333D02*
X152042809Y-73572904D01*
X152471380Y-74572904D02*
X151471380Y-74572904D01*
X151471380Y-75715761D02*
X151471380Y-76334809D01*
X151852333Y-76001476D01*
X151852333Y-76144333D01*
X151899952Y-76239571D01*
X151947571Y-76287190D01*
X152042809Y-76334809D01*
X152280904Y-76334809D01*
X152376142Y-76287190D01*
X152423761Y-76239571D01*
X152471380Y-76144333D01*
X152471380Y-75858619D01*
X152423761Y-75763380D01*
X152376142Y-75715761D01*
X151471380Y-76620523D02*
X152471380Y-76953857D01*
X151471380Y-77287190D01*
X151471380Y-77525285D02*
X151471380Y-78144333D01*
X151852333Y-77811000D01*
X151852333Y-77953857D01*
X151899952Y-78049095D01*
X151947571Y-78096714D01*
X152042809Y-78144333D01*
X152280904Y-78144333D01*
X152376142Y-78096714D01*
X152423761Y-78049095D01*
X152471380Y-77953857D01*
X152471380Y-77668142D01*
X152423761Y-77572904D01*
X152376142Y-77525285D01*
%TD*%
M02*
