M48
; DRILL file {KiCad (5.1.10)-1} date 11/15/21 21:10:24
; FORMAT={-:-/ absolute / inch / decimal}
; #@! TF.CreationDate,2021-11-15T21:10:24-06:00
; #@! TF.GenerationSoftware,Kicad,Pcbnew,(5.1.10)-1
; #@! TF.FileFunction,Plated,1,2,PTH
FMAT,2
INCH
T1C0.0157
T2C0.0350
T3C0.0394
T4C0.0400
T5C0.0591
T6C0.1210
T7C0.1598
%
G90
G05
T1
X2.0Y-2.1
X2.0Y-2.5
X2.0Y-2.9
X2.0Y-3.3
X2.0Y-3.7
X2.0Y-4.2
X2.0Y-4.6
X2.0Y-5.0
X2.0Y-5.3
X2.0Y-5.7
X2.0Y-6.1
X2.05Y-1.75
X2.135Y-3.91
X2.135Y-4.315
X2.135Y-4.72
X2.395Y-2.13
X2.4Y-3.3
X2.4Y-5.3
X2.4Y-5.7
X2.4Y-6.1
X2.52Y-1.645
X2.53Y-1.705
X2.735Y-1.7
X2.8Y-3.3
X2.8Y-5.3
X2.8Y-5.7
X2.8Y-6.1
X2.85Y-3.91
X2.85Y-4.315
X2.85Y-4.72
X2.86Y-1.855
X2.86Y-1.97
X2.86Y-2.15
X2.9Y-2.08
X3.05Y-1.75
X3.2Y-2.5
X3.2Y-3.3
X3.2Y-3.7
X3.2Y-4.1
X3.2Y-4.5
X3.2Y-4.9
X3.2Y-5.3
X3.2Y-5.7
X3.2Y-6.1
X3.22Y-2.13
X3.53Y-1.645
X3.54Y-1.705
X3.6Y-2.5
X3.6Y-2.9
X3.6Y-3.7
X3.6Y-4.1
X3.6Y-4.5
X3.6Y-4.9
X3.6Y-5.3
X3.6Y-5.7
X3.6Y-6.1
X3.745Y-1.7
X3.87Y-1.855
X3.87Y-1.97
X3.87Y-2.15
X3.93Y-2.1
X4.0Y-3.7
X4.0Y-4.1
X4.0Y-4.5
X4.0Y-6.1
X4.05Y-1.75
X4.25Y-2.15
X4.2977Y-3.6495
X4.2988Y-3.5872
X4.3Y-3.525
X4.3228Y-3.6184
X4.3231Y-3.6807
X4.3242Y-3.5561
X4.4Y-2.5
X4.4Y-2.9
X4.4Y-3.3
X4.4Y-3.7
X4.4Y-4.1
X4.4Y-4.5
X4.4Y-4.9
X4.4Y-5.3
X4.4Y-5.7
X4.4Y-6.1
X4.54Y-1.645
X4.55Y-1.705
X4.74Y-1.7
X4.8Y-2.5
X4.8Y-2.9
X4.8Y-3.3
X4.8Y-3.7
X4.8Y-4.1
X4.8Y-4.5
X4.8Y-4.9
X4.8Y-5.3
X4.8Y-5.7
X4.8Y-6.1
X4.824Y-1.644
X4.865Y-1.92
X4.865Y-2.035
X4.865Y-2.15
X5.2Y-1.9
X5.2Y-2.5
X5.2Y-2.9
X5.2Y-3.3
X5.2Y-3.7
X5.2Y-4.1
X5.2Y-4.5
X5.2Y-4.9
X5.2Y-5.3
X5.2Y-5.7
X5.2Y-6.1
X5.4Y-2.765
X5.405Y-2.5
X5.6Y-1.9
X5.6Y-3.7
X5.6Y-4.1
X5.6Y-4.5
X5.6Y-6.1
X5.7Y-2.31
X5.9Y-3.7
X5.9Y-4.1
X5.9Y-4.5
X5.9Y-4.95
X6.0Y-3.3
X6.0Y-5.3
X6.0Y-5.7
X6.0Y-6.1
X6.4Y-2.4
X6.4Y-2.8
X6.4Y-3.3
X6.4Y-3.7
X6.4Y-4.1
X6.4Y-4.5
X6.4Y-4.9
X6.4Y-5.3
X6.4Y-5.7
X6.4Y-6.1
T2
X6.085Y-2.39
X6.085Y-2.49
X6.085Y-2.59
X6.085Y-2.815
X6.085Y-2.915
X6.085Y-3.015
T3
X3.845Y-2.4313
X3.845Y-2.5313
X3.845Y-2.6313
X3.845Y-2.7313
X3.845Y-2.8313
X3.845Y-2.9313
X3.845Y-3.0313
X3.845Y-3.1313
X3.845Y-3.2313
X3.845Y-3.3313
X3.845Y-4.9313
X3.845Y-5.0313
X3.845Y-5.1313
X3.845Y-5.2313
X3.845Y-5.3313
X3.845Y-5.4313
X3.845Y-5.5313
X3.845Y-5.6313
X3.845Y-5.7313
X3.845Y-5.8313
X3.945Y-2.4313
X3.945Y-2.5313
X3.945Y-2.6313
X3.945Y-2.7313
X3.945Y-2.8313
X3.945Y-2.9313
X3.945Y-3.0313
X3.945Y-3.1313
X3.945Y-3.2313
X3.945Y-3.3313
X3.945Y-4.9313
X3.945Y-5.0313
X3.945Y-5.1313
X3.945Y-5.2313
X3.945Y-5.3313
X3.945Y-5.4313
X3.945Y-5.5313
X3.945Y-5.6313
X3.945Y-5.7313
X3.945Y-5.8313
X5.545Y-2.4313
X5.545Y-2.5313
X5.545Y-2.6313
X5.545Y-2.7313
X5.545Y-2.8313
X5.545Y-2.9313
X5.545Y-3.0313
X5.545Y-3.1313
X5.545Y-3.2313
X5.545Y-3.3313
X5.545Y-4.9313
X5.545Y-5.0313
X5.545Y-5.1313
X5.545Y-5.2313
X5.545Y-5.3313
X5.545Y-5.4313
X5.545Y-5.5313
X5.545Y-5.6313
X5.545Y-5.7313
X5.545Y-5.8313
X5.645Y-2.4313
X5.645Y-2.5313
X5.645Y-2.6313
X5.645Y-2.7313
X5.645Y-2.8313
X5.645Y-2.9313
X5.645Y-3.0313
X5.645Y-3.1313
X5.645Y-3.2313
X5.645Y-3.3313
X5.645Y-4.9313
X5.645Y-5.0313
X5.645Y-5.1313
X5.645Y-5.2313
X5.645Y-5.3313
X5.645Y-5.4313
X5.645Y-5.5313
X5.645Y-5.6313
X5.645Y-5.7313
X5.645Y-5.8313
T4
X1.987Y-1.31
X1.987Y-1.428
X2.105Y-1.31
X2.105Y-1.428
X2.223Y-1.31
X2.223Y-1.428
X2.492Y-1.31
X2.492Y-1.428
X2.61Y-1.31
X2.61Y-1.428
X2.728Y-1.31
X2.728Y-1.428
X2.997Y-1.31
X2.997Y-1.428
X3.115Y-1.31
X3.115Y-1.428
X3.233Y-1.31
X3.233Y-1.428
X3.502Y-1.31
X3.502Y-1.428
X3.62Y-1.31
X3.62Y-1.428
X3.738Y-1.31
X3.738Y-1.428
X4.007Y-1.31
X4.007Y-1.428
X4.125Y-1.31
X4.125Y-1.428
X4.243Y-1.31
X4.243Y-1.428
X4.512Y-1.31
X4.512Y-1.428
X4.63Y-1.31
X4.63Y-1.428
X4.748Y-1.31
X4.748Y-1.428
T5
X2.424Y-3.438
X2.424Y-3.71
X2.605Y-3.438
X2.605Y-3.71
X2.786Y-3.438
X2.786Y-3.71
T6
X2.105Y-1.15
X2.61Y-1.15
X3.115Y-1.15
X3.62Y-1.15
X4.125Y-1.15
X4.63Y-1.15
T7
X6.045Y-1.701
X6.355Y-1.701
T0
M30
