%TF.GenerationSoftware,KiCad,Pcbnew,(5.1.10)-1*%
%TF.CreationDate,2021-11-15T21:10:31-06:00*%
%TF.ProjectId,Driveboard_2022,44726976-6562-46f6-9172-645f32303232,rev?*%
%TF.SameCoordinates,Original*%
%TF.FileFunction,Soldermask,Bot*%
%TF.FilePolarity,Negative*%
%FSLAX46Y46*%
G04 Gerber Fmt 4.6, Leading zero omitted, Abs format (unit mm)*
G04 Created by KiCad (PCBNEW (5.1.10)-1) date 2021-11-15 21:10:31*
%MOMM*%
%LPD*%
G01*
G04 APERTURE LIST*
%ADD10C,1.520000*%
%ADD11C,1.524000*%
%ADD12C,3.073400*%
%ADD13C,3.000000*%
%ADD14C,1.500000*%
%ADD15C,5.080000*%
G04 APERTURE END LIST*
D10*
%TO.C,U1*%
X143384000Y-145574000D03*
X140844000Y-140494000D03*
X97664000Y-79534000D03*
X143384000Y-130334000D03*
X140844000Y-127794000D03*
X143384000Y-132874000D03*
X143384000Y-137954000D03*
X143384000Y-143034000D03*
X97664000Y-82074000D03*
X140844000Y-148114000D03*
X143384000Y-140494000D03*
X143384000Y-148114000D03*
X140844000Y-125254000D03*
X97664000Y-84614000D03*
X140844000Y-130334000D03*
X140844000Y-132874000D03*
X140844000Y-143034000D03*
X143384000Y-135414000D03*
X140844000Y-137954000D03*
X100204000Y-61754000D03*
X140844000Y-145574000D03*
X143384000Y-125254000D03*
X143384000Y-127794000D03*
X140844000Y-135414000D03*
X140844000Y-79534000D03*
X140844000Y-74454000D03*
X97664000Y-64294000D03*
X100204000Y-79534000D03*
X143384000Y-61754000D03*
X143384000Y-71914000D03*
X143384000Y-79534000D03*
X140844000Y-82074000D03*
X97664000Y-74454000D03*
X140844000Y-69374000D03*
X140844000Y-61754000D03*
X140844000Y-66834000D03*
X140844000Y-71914000D03*
X143384000Y-64294000D03*
X97664000Y-61754000D03*
X100204000Y-64294000D03*
X100204000Y-66834000D03*
X140844000Y-76994000D03*
X143384000Y-69374000D03*
X100204000Y-69374000D03*
X143384000Y-82074000D03*
X97664000Y-76994000D03*
X97664000Y-69374000D03*
X140844000Y-64294000D03*
X97664000Y-66834000D03*
X100204000Y-71914000D03*
X100204000Y-74454000D03*
X100204000Y-82074000D03*
X143384000Y-76994000D03*
X140844000Y-84614000D03*
X143384000Y-84614000D03*
X97664000Y-71914000D03*
X100204000Y-76994000D03*
X143384000Y-66834000D03*
X100204000Y-84614000D03*
X143384000Y-74454000D03*
X100204000Y-132874000D03*
X100204000Y-148114000D03*
X100204000Y-140494000D03*
X100204000Y-143034000D03*
X100204000Y-145574000D03*
X100204000Y-135414000D03*
X100204000Y-137954000D03*
X97664000Y-143034000D03*
X97664000Y-132874000D03*
X97664000Y-130334000D03*
X100204000Y-127794000D03*
X97664000Y-135414000D03*
X100204000Y-125254000D03*
X97664000Y-127794000D03*
X97664000Y-140494000D03*
X97664000Y-125254000D03*
X97664000Y-148114000D03*
X100204000Y-130334000D03*
X97664000Y-145574000D03*
X97664000Y-137954000D03*
%TD*%
D11*
%TO.C,Conn6*%
X56464200Y-36271200D03*
X56464200Y-33274000D03*
D12*
X53467000Y-29210000D03*
D11*
X53467000Y-33274000D03*
X50469800Y-33274000D03*
X50469800Y-36271200D03*
X53467000Y-36271200D03*
%TD*%
%TO.C,Conn5*%
X69291200Y-36271200D03*
X69291200Y-33274000D03*
D12*
X66294000Y-29210000D03*
D11*
X66294000Y-33274000D03*
X63296800Y-33274000D03*
X63296800Y-36271200D03*
X66294000Y-36271200D03*
%TD*%
%TO.C,Conn4*%
X82118200Y-36271200D03*
X82118200Y-33274000D03*
D12*
X79121000Y-29210000D03*
D11*
X79121000Y-33274000D03*
X76123800Y-33274000D03*
X76123800Y-36271200D03*
X79121000Y-36271200D03*
%TD*%
%TO.C,Conn3*%
X94945200Y-36271200D03*
X94945200Y-33274000D03*
D12*
X91948000Y-29210000D03*
D11*
X91948000Y-33274000D03*
X88950800Y-33274000D03*
X88950800Y-36271200D03*
X91948000Y-36271200D03*
%TD*%
%TO.C,Conn2*%
X107772200Y-36271200D03*
X107772200Y-33274000D03*
D12*
X104775000Y-29210000D03*
D11*
X104775000Y-33274000D03*
X101777800Y-33274000D03*
X101777800Y-36271200D03*
X104775000Y-36271200D03*
%TD*%
%TO.C,Conn1*%
X120599200Y-36271200D03*
X120599200Y-33274000D03*
D12*
X117602000Y-29210000D03*
D11*
X117602000Y-33274000D03*
X114604800Y-33274000D03*
X114604800Y-36271200D03*
X117602000Y-36271200D03*
%TD*%
%TO.C,U6*%
X154559000Y-65786000D03*
X154559000Y-63246000D03*
X154559000Y-60706000D03*
%TD*%
%TO.C,U5*%
X154559000Y-76581000D03*
X154559000Y-74041000D03*
X154559000Y-71501000D03*
%TD*%
D13*
%TO.C,SW4*%
X61569600Y-94234000D03*
X61569600Y-87325200D03*
X66167000Y-94234000D03*
X66167000Y-87325200D03*
X70764400Y-94234000D03*
X70764400Y-87325200D03*
D14*
X54737000Y-95631000D03*
X54737000Y-85928200D03*
X77597000Y-95631000D03*
X77597000Y-85928200D03*
%TD*%
D15*
%TO.C,Conn13*%
X161417000Y-43205400D03*
X153543000Y-43205400D03*
%TD*%
M02*
