G04 #@! TF.GenerationSoftware,KiCad,Pcbnew,(5.0.2)-1*
G04 #@! TF.CreationDate,2019-03-03T15:18:12-06:00*
G04 #@! TF.ProjectId,DriveBoard_Hardware,44726976-6542-46f6-9172-645f48617264,rev?*
G04 #@! TF.SameCoordinates,Original*
G04 #@! TF.FileFunction,Soldermask,Bot*
G04 #@! TF.FilePolarity,Negative*
%FSLAX46Y46*%
G04 Gerber Fmt 4.6, Leading zero omitted, Abs format (unit mm)*
G04 Created by KiCad (PCBNEW (5.0.2)-1) date 3/3/2019 3:18:12 PM*
%MOMM*%
%LPD*%
G01*
G04 APERTURE LIST*
%ADD10C,0.100000*%
G04 APERTURE END LIST*
D10*
G36*
X94675300Y-138553800D02*
X93284700Y-138553800D01*
X93284700Y-136375800D01*
X94675300Y-136375800D01*
X94675300Y-138553800D01*
X94675300Y-138553800D01*
G37*
G36*
X92135300Y-138553800D02*
X90744700Y-138553800D01*
X90744700Y-136375800D01*
X92135300Y-136375800D01*
X92135300Y-138553800D01*
X92135300Y-138553800D01*
G37*
G36*
X71815300Y-138553800D02*
X70424700Y-138553800D01*
X70424700Y-136375800D01*
X71815300Y-136375800D01*
X71815300Y-138553800D01*
X71815300Y-138553800D01*
G37*
G36*
X87055300Y-138553800D02*
X85664700Y-138553800D01*
X85664700Y-136375800D01*
X87055300Y-136375800D01*
X87055300Y-138553800D01*
X87055300Y-138553800D01*
G37*
G36*
X74355300Y-138553800D02*
X72964700Y-138553800D01*
X72964700Y-136375800D01*
X74355300Y-136375800D01*
X74355300Y-138553800D01*
X74355300Y-138553800D01*
G37*
G36*
X76895300Y-138553800D02*
X75504700Y-138553800D01*
X75504700Y-136375800D01*
X76895300Y-136375800D01*
X76895300Y-138553800D01*
X76895300Y-138553800D01*
G37*
G36*
X79435300Y-138553800D02*
X78044700Y-138553800D01*
X78044700Y-136375800D01*
X79435300Y-136375800D01*
X79435300Y-138553800D01*
X79435300Y-138553800D01*
G37*
G36*
X81975300Y-138553800D02*
X80584700Y-138553800D01*
X80584700Y-136375800D01*
X81975300Y-136375800D01*
X81975300Y-138553800D01*
X81975300Y-138553800D01*
G37*
G36*
X84515300Y-138553800D02*
X83124700Y-138553800D01*
X83124700Y-136375800D01*
X84515300Y-136375800D01*
X84515300Y-138553800D01*
X84515300Y-138553800D01*
G37*
G36*
X89595300Y-138553800D02*
X88204700Y-138553800D01*
X88204700Y-136375800D01*
X89595300Y-136375800D01*
X89595300Y-138553800D01*
X89595300Y-138553800D01*
G37*
G36*
X94675300Y-132661000D02*
X93284700Y-132661000D01*
X93284700Y-130483000D01*
X94675300Y-130483000D01*
X94675300Y-132661000D01*
X94675300Y-132661000D01*
G37*
G36*
X89595300Y-132661000D02*
X88204700Y-132661000D01*
X88204700Y-130483000D01*
X89595300Y-130483000D01*
X89595300Y-132661000D01*
X89595300Y-132661000D01*
G37*
G36*
X79435300Y-132661000D02*
X78044700Y-132661000D01*
X78044700Y-130483000D01*
X79435300Y-130483000D01*
X79435300Y-132661000D01*
X79435300Y-132661000D01*
G37*
G36*
X76895300Y-132661000D02*
X75504700Y-132661000D01*
X75504700Y-130483000D01*
X76895300Y-130483000D01*
X76895300Y-132661000D01*
X76895300Y-132661000D01*
G37*
G36*
X74355300Y-132661000D02*
X72964700Y-132661000D01*
X72964700Y-130483000D01*
X74355300Y-130483000D01*
X74355300Y-132661000D01*
X74355300Y-132661000D01*
G37*
G36*
X71815300Y-132661000D02*
X70424700Y-132661000D01*
X70424700Y-130483000D01*
X71815300Y-130483000D01*
X71815300Y-132661000D01*
X71815300Y-132661000D01*
G37*
G36*
X84515300Y-132661000D02*
X83124700Y-132661000D01*
X83124700Y-130483000D01*
X84515300Y-130483000D01*
X84515300Y-132661000D01*
X84515300Y-132661000D01*
G37*
G36*
X87055300Y-132661000D02*
X85664700Y-132661000D01*
X85664700Y-130483000D01*
X87055300Y-130483000D01*
X87055300Y-132661000D01*
X87055300Y-132661000D01*
G37*
G36*
X81975300Y-132661000D02*
X80584700Y-132661000D01*
X80584700Y-130483000D01*
X81975300Y-130483000D01*
X81975300Y-132661000D01*
X81975300Y-132661000D01*
G37*
G36*
X92135300Y-132661000D02*
X90744700Y-132661000D01*
X90744700Y-130483000D01*
X92135300Y-130483000D01*
X92135300Y-132661000D01*
X92135300Y-132661000D01*
G37*
G36*
X104762775Y-124076197D02*
X104939229Y-124111296D01*
X105437877Y-124317843D01*
X105873262Y-124608759D01*
X105886651Y-124617705D01*
X106268295Y-124999349D01*
X106268297Y-124999352D01*
X106568157Y-125448123D01*
X106774704Y-125946771D01*
X106880000Y-126476134D01*
X106880000Y-127015866D01*
X106774704Y-127545229D01*
X106568157Y-128043877D01*
X106270319Y-128489621D01*
X106268295Y-128492651D01*
X105886651Y-128874295D01*
X105886648Y-128874297D01*
X105437877Y-129174157D01*
X104939229Y-129380704D01*
X104762775Y-129415803D01*
X104409868Y-129486000D01*
X103870132Y-129486000D01*
X103517225Y-129415803D01*
X103340771Y-129380704D01*
X102842123Y-129174157D01*
X102393352Y-128874297D01*
X102393349Y-128874295D01*
X102011705Y-128492651D01*
X102009681Y-128489621D01*
X101711843Y-128043877D01*
X101505296Y-127545229D01*
X101400000Y-127015866D01*
X101400000Y-126476134D01*
X101505296Y-125946771D01*
X101711843Y-125448123D01*
X102011703Y-124999352D01*
X102011705Y-124999349D01*
X102393349Y-124617705D01*
X102406738Y-124608759D01*
X102842123Y-124317843D01*
X103340771Y-124111296D01*
X103517225Y-124076197D01*
X103870132Y-124006000D01*
X104409868Y-124006000D01*
X104762775Y-124076197D01*
X104762775Y-124076197D01*
G37*
G36*
X95530603Y-124296968D02*
X95530606Y-124296969D01*
X95530605Y-124296969D01*
X95705678Y-124369486D01*
X95705679Y-124369487D01*
X95863241Y-124474767D01*
X95997233Y-124608759D01*
X96050232Y-124688077D01*
X96102514Y-124766322D01*
X96158603Y-124901734D01*
X96175032Y-124941397D01*
X96212000Y-125127250D01*
X96212000Y-125316750D01*
X96175032Y-125502603D01*
X96175031Y-125502605D01*
X96102514Y-125677678D01*
X96102513Y-125677679D01*
X95997233Y-125835241D01*
X95863241Y-125969233D01*
X95783923Y-126022232D01*
X95705678Y-126074514D01*
X95570266Y-126130603D01*
X95530603Y-126147032D01*
X95344750Y-126184000D01*
X95155250Y-126184000D01*
X94969397Y-126147032D01*
X94929734Y-126130603D01*
X94794322Y-126074514D01*
X94716077Y-126022232D01*
X94636759Y-125969233D01*
X94502767Y-125835241D01*
X94397487Y-125677679D01*
X94397486Y-125677678D01*
X94324969Y-125502605D01*
X94324968Y-125502603D01*
X94288000Y-125316750D01*
X94288000Y-125127250D01*
X94324968Y-124941397D01*
X94341397Y-124901734D01*
X94397486Y-124766322D01*
X94449768Y-124688077D01*
X94502767Y-124608759D01*
X94636759Y-124474767D01*
X94794321Y-124369487D01*
X94794322Y-124369486D01*
X94969395Y-124296969D01*
X94969394Y-124296969D01*
X94969397Y-124296968D01*
X95155250Y-124260000D01*
X95344750Y-124260000D01*
X95530603Y-124296968D01*
X95530603Y-124296968D01*
G37*
G36*
X95530603Y-121756968D02*
X95530606Y-121756969D01*
X95530605Y-121756969D01*
X95705678Y-121829486D01*
X95705679Y-121829487D01*
X95863241Y-121934767D01*
X95997233Y-122068759D01*
X95997234Y-122068761D01*
X96102514Y-122226322D01*
X96158603Y-122361734D01*
X96175032Y-122401397D01*
X96212000Y-122587250D01*
X96212000Y-122776750D01*
X96175032Y-122962603D01*
X96175031Y-122962605D01*
X96102514Y-123137678D01*
X96102513Y-123137679D01*
X95997233Y-123295241D01*
X95863241Y-123429233D01*
X95783923Y-123482232D01*
X95705678Y-123534514D01*
X95570266Y-123590603D01*
X95530603Y-123607032D01*
X95344750Y-123644000D01*
X95155250Y-123644000D01*
X94969397Y-123607032D01*
X94929734Y-123590603D01*
X94794322Y-123534514D01*
X94716077Y-123482232D01*
X94636759Y-123429233D01*
X94502767Y-123295241D01*
X94397487Y-123137679D01*
X94397486Y-123137678D01*
X94324969Y-122962605D01*
X94324968Y-122962603D01*
X94288000Y-122776750D01*
X94288000Y-122587250D01*
X94324968Y-122401397D01*
X94341397Y-122361734D01*
X94397486Y-122226322D01*
X94502766Y-122068761D01*
X94502767Y-122068759D01*
X94636759Y-121934767D01*
X94794321Y-121829487D01*
X94794322Y-121829486D01*
X94969395Y-121756969D01*
X94969394Y-121756969D01*
X94969397Y-121756968D01*
X95155250Y-121720000D01*
X95344750Y-121720000D01*
X95530603Y-121756968D01*
X95530603Y-121756968D01*
G37*
G36*
X104762775Y-116202197D02*
X104939229Y-116237296D01*
X105437877Y-116443843D01*
X105883621Y-116741681D01*
X105886651Y-116743705D01*
X106268295Y-117125349D01*
X106268297Y-117125352D01*
X106568157Y-117574123D01*
X106568157Y-117574124D01*
X106774704Y-118072772D01*
X106880000Y-118602132D01*
X106880000Y-119141868D01*
X106829695Y-119394767D01*
X106774704Y-119671229D01*
X106568157Y-120169877D01*
X106399290Y-120422603D01*
X106268295Y-120618651D01*
X105886651Y-121000295D01*
X105886648Y-121000297D01*
X105437877Y-121300157D01*
X104939229Y-121506704D01*
X104762775Y-121541803D01*
X104409868Y-121612000D01*
X103870132Y-121612000D01*
X103517225Y-121541803D01*
X103340771Y-121506704D01*
X102842123Y-121300157D01*
X102393352Y-121000297D01*
X102393349Y-121000295D01*
X102011705Y-120618651D01*
X101880710Y-120422603D01*
X101711843Y-120169877D01*
X101505296Y-119671229D01*
X101450305Y-119394767D01*
X101400000Y-119141868D01*
X101400000Y-118602132D01*
X101505296Y-118072772D01*
X101711843Y-117574124D01*
X101711843Y-117574123D01*
X102011703Y-117125352D01*
X102011705Y-117125349D01*
X102393349Y-116743705D01*
X102396379Y-116741681D01*
X102842123Y-116443843D01*
X103340771Y-116237296D01*
X103517225Y-116202197D01*
X103870132Y-116132000D01*
X104409868Y-116132000D01*
X104762775Y-116202197D01*
X104762775Y-116202197D01*
G37*
G36*
X95530603Y-119216968D02*
X95530606Y-119216969D01*
X95530605Y-119216969D01*
X95705678Y-119289486D01*
X95705679Y-119289487D01*
X95863241Y-119394767D01*
X95997233Y-119528759D01*
X95997234Y-119528761D01*
X96102514Y-119686322D01*
X96158603Y-119821734D01*
X96175032Y-119861397D01*
X96212000Y-120047250D01*
X96212000Y-120236750D01*
X96175032Y-120422603D01*
X96175031Y-120422605D01*
X96102514Y-120597678D01*
X96102513Y-120597679D01*
X95997233Y-120755241D01*
X95863241Y-120889233D01*
X95783923Y-120942232D01*
X95705678Y-120994514D01*
X95570266Y-121050603D01*
X95530603Y-121067032D01*
X95344750Y-121104000D01*
X95155250Y-121104000D01*
X94969397Y-121067032D01*
X94929734Y-121050603D01*
X94794322Y-120994514D01*
X94716077Y-120942232D01*
X94636759Y-120889233D01*
X94502767Y-120755241D01*
X94397487Y-120597679D01*
X94397486Y-120597678D01*
X94324969Y-120422605D01*
X94324968Y-120422603D01*
X94288000Y-120236750D01*
X94288000Y-120047250D01*
X94324968Y-119861397D01*
X94341397Y-119821734D01*
X94397486Y-119686322D01*
X94502766Y-119528761D01*
X94502767Y-119528759D01*
X94636759Y-119394767D01*
X94794321Y-119289487D01*
X94794322Y-119289486D01*
X94969395Y-119216969D01*
X94969394Y-119216969D01*
X94969397Y-119216968D01*
X95155250Y-119180000D01*
X95344750Y-119180000D01*
X95530603Y-119216968D01*
X95530603Y-119216968D01*
G37*
G36*
X127904845Y-101770810D02*
X128149896Y-101845145D01*
X128375736Y-101965860D01*
X128573687Y-102128313D01*
X128736140Y-102326264D01*
X128856855Y-102552104D01*
X128931190Y-102797155D01*
X128956290Y-103052000D01*
X128931190Y-103306845D01*
X128856855Y-103551896D01*
X128736140Y-103777736D01*
X128573687Y-103975687D01*
X128375736Y-104138140D01*
X128169106Y-104248587D01*
X128148741Y-104262195D01*
X128131414Y-104279522D01*
X128117800Y-104299897D01*
X128108422Y-104322536D01*
X128103642Y-104346569D01*
X128103642Y-104371073D01*
X128108423Y-104395107D01*
X128117800Y-104417746D01*
X128131414Y-104438120D01*
X128148740Y-104455447D01*
X128175003Y-104477001D01*
X128293717Y-104621653D01*
X128381932Y-104786691D01*
X128436254Y-104965769D01*
X128454596Y-105152000D01*
X128436254Y-105338231D01*
X128381932Y-105517309D01*
X128293717Y-105682347D01*
X128175001Y-105827001D01*
X128030347Y-105945717D01*
X127860600Y-106036449D01*
X127847777Y-106041760D01*
X127827403Y-106055374D01*
X127810076Y-106072702D01*
X127796462Y-106093076D01*
X127787085Y-106115716D01*
X127782305Y-106139749D01*
X127782305Y-106164253D01*
X127787086Y-106188287D01*
X127796463Y-106210926D01*
X127810077Y-106231300D01*
X127827405Y-106248627D01*
X127847779Y-106262241D01*
X127860601Y-106267552D01*
X128030347Y-106358283D01*
X128175001Y-106476999D01*
X128293717Y-106621653D01*
X128381932Y-106786691D01*
X128436254Y-106965769D01*
X128454596Y-107152000D01*
X128436254Y-107338231D01*
X128381932Y-107517309D01*
X128293717Y-107682347D01*
X128175001Y-107827001D01*
X128030347Y-107945717D01*
X127990978Y-107966760D01*
X127970604Y-107980374D01*
X127953276Y-107997701D01*
X127939663Y-108018076D01*
X127930285Y-108040715D01*
X127925505Y-108064748D01*
X127925505Y-108089252D01*
X127930286Y-108113286D01*
X127939663Y-108135925D01*
X127953277Y-108156299D01*
X127970604Y-108173627D01*
X127990979Y-108187240D01*
X128013618Y-108196618D01*
X128049903Y-108202000D01*
X128450000Y-108202000D01*
X128450000Y-110167687D01*
X128452402Y-110192073D01*
X128459515Y-110215522D01*
X128471066Y-110237133D01*
X128486612Y-110256075D01*
X128495689Y-110264303D01*
X128573687Y-110328313D01*
X128736140Y-110526264D01*
X128856855Y-110752104D01*
X128931190Y-110997155D01*
X128956290Y-111252000D01*
X128931190Y-111506845D01*
X128856855Y-111751896D01*
X128736140Y-111977736D01*
X128573687Y-112175687D01*
X128375736Y-112338140D01*
X128149896Y-112458855D01*
X127904845Y-112533190D01*
X127713864Y-112552000D01*
X126286136Y-112552000D01*
X126095155Y-112533190D01*
X125850104Y-112458855D01*
X125624264Y-112338140D01*
X125426313Y-112175687D01*
X125263860Y-111977736D01*
X125143145Y-111751896D01*
X125068810Y-111506845D01*
X125043710Y-111252000D01*
X125068810Y-110997155D01*
X125143145Y-110752104D01*
X125263860Y-110526264D01*
X125426313Y-110328313D01*
X125504305Y-110264307D01*
X125521626Y-110246986D01*
X125535240Y-110226612D01*
X125544618Y-110203973D01*
X125549398Y-110179939D01*
X125550000Y-110167687D01*
X125550000Y-108202000D01*
X125950097Y-108202000D01*
X125974483Y-108199598D01*
X125997932Y-108192485D01*
X126019543Y-108180934D01*
X126038485Y-108165388D01*
X126054031Y-108146446D01*
X126065582Y-108124835D01*
X126072695Y-108101386D01*
X126075097Y-108077000D01*
X126072695Y-108052614D01*
X126065582Y-108029165D01*
X126054031Y-108007554D01*
X126038485Y-107988612D01*
X126009022Y-107966760D01*
X125969653Y-107945717D01*
X125824999Y-107827001D01*
X125706283Y-107682347D01*
X125618068Y-107517309D01*
X125563746Y-107338231D01*
X125545404Y-107152000D01*
X125563746Y-106965769D01*
X125618068Y-106786691D01*
X125706283Y-106621653D01*
X125824999Y-106476999D01*
X125969653Y-106358283D01*
X126139400Y-106267551D01*
X126152223Y-106262240D01*
X126172597Y-106248626D01*
X126189924Y-106231298D01*
X126203538Y-106210924D01*
X126212915Y-106188284D01*
X126217695Y-106164251D01*
X126217695Y-106139747D01*
X126212914Y-106115713D01*
X126203537Y-106093074D01*
X126189923Y-106072700D01*
X126172595Y-106055373D01*
X126152221Y-106041759D01*
X126139399Y-106036448D01*
X125969653Y-105945717D01*
X125824999Y-105827001D01*
X125706283Y-105682347D01*
X125618068Y-105517309D01*
X125563746Y-105338231D01*
X125545404Y-105152000D01*
X125563746Y-104965769D01*
X125618068Y-104786691D01*
X125706283Y-104621653D01*
X125824997Y-104477001D01*
X125851260Y-104455447D01*
X125868587Y-104438119D01*
X125882201Y-104417745D01*
X125891578Y-104395105D01*
X125896358Y-104371072D01*
X125896358Y-104346568D01*
X125891577Y-104322534D01*
X125882200Y-104299895D01*
X125868586Y-104279521D01*
X125851258Y-104262194D01*
X125830894Y-104248587D01*
X125624264Y-104138140D01*
X125426313Y-103975687D01*
X125263860Y-103777736D01*
X125143145Y-103551896D01*
X125068810Y-103306845D01*
X125043710Y-103052000D01*
X125068810Y-102797155D01*
X125143145Y-102552104D01*
X125263860Y-102326264D01*
X125426313Y-102128313D01*
X125624264Y-101965860D01*
X125850104Y-101845145D01*
X126095155Y-101770810D01*
X126286136Y-101752000D01*
X127713864Y-101752000D01*
X127904845Y-101770810D01*
X127904845Y-101770810D01*
G37*
G36*
X84515300Y-95373800D02*
X83124700Y-95373800D01*
X83124700Y-93195800D01*
X84515300Y-93195800D01*
X84515300Y-95373800D01*
X84515300Y-95373800D01*
G37*
G36*
X71815300Y-95373800D02*
X70424700Y-95373800D01*
X70424700Y-93195800D01*
X71815300Y-93195800D01*
X71815300Y-95373800D01*
X71815300Y-95373800D01*
G37*
G36*
X74355300Y-95373800D02*
X72964700Y-95373800D01*
X72964700Y-93195800D01*
X74355300Y-93195800D01*
X74355300Y-95373800D01*
X74355300Y-95373800D01*
G37*
G36*
X76895300Y-95373800D02*
X75504700Y-95373800D01*
X75504700Y-93195800D01*
X76895300Y-93195800D01*
X76895300Y-95373800D01*
X76895300Y-95373800D01*
G37*
G36*
X81975300Y-95373800D02*
X80584700Y-95373800D01*
X80584700Y-93195800D01*
X81975300Y-93195800D01*
X81975300Y-95373800D01*
X81975300Y-95373800D01*
G37*
G36*
X87055300Y-95373800D02*
X85664700Y-95373800D01*
X85664700Y-93195800D01*
X87055300Y-93195800D01*
X87055300Y-95373800D01*
X87055300Y-95373800D01*
G37*
G36*
X89595300Y-95373800D02*
X88204700Y-95373800D01*
X88204700Y-93195800D01*
X89595300Y-93195800D01*
X89595300Y-95373800D01*
X89595300Y-95373800D01*
G37*
G36*
X92135300Y-95373800D02*
X90744700Y-95373800D01*
X90744700Y-93195800D01*
X92135300Y-93195800D01*
X92135300Y-95373800D01*
X92135300Y-95373800D01*
G37*
G36*
X94675300Y-95373800D02*
X93284700Y-95373800D01*
X93284700Y-93195800D01*
X94675300Y-93195800D01*
X94675300Y-95373800D01*
X94675300Y-95373800D01*
G37*
G36*
X79435300Y-95373800D02*
X78044700Y-95373800D01*
X78044700Y-93195800D01*
X79435300Y-93195800D01*
X79435300Y-95373800D01*
X79435300Y-95373800D01*
G37*
G36*
X71815300Y-89481000D02*
X70424700Y-89481000D01*
X70424700Y-87303000D01*
X71815300Y-87303000D01*
X71815300Y-89481000D01*
X71815300Y-89481000D01*
G37*
G36*
X74355300Y-89481000D02*
X72964700Y-89481000D01*
X72964700Y-87303000D01*
X74355300Y-87303000D01*
X74355300Y-89481000D01*
X74355300Y-89481000D01*
G37*
G36*
X79435300Y-89481000D02*
X78044700Y-89481000D01*
X78044700Y-87303000D01*
X79435300Y-87303000D01*
X79435300Y-89481000D01*
X79435300Y-89481000D01*
G37*
G36*
X81975300Y-89481000D02*
X80584700Y-89481000D01*
X80584700Y-87303000D01*
X81975300Y-87303000D01*
X81975300Y-89481000D01*
X81975300Y-89481000D01*
G37*
G36*
X89595300Y-89481000D02*
X88204700Y-89481000D01*
X88204700Y-87303000D01*
X89595300Y-87303000D01*
X89595300Y-89481000D01*
X89595300Y-89481000D01*
G37*
G36*
X84515300Y-89481000D02*
X83124700Y-89481000D01*
X83124700Y-87303000D01*
X84515300Y-87303000D01*
X84515300Y-89481000D01*
X84515300Y-89481000D01*
G37*
G36*
X92135300Y-89481000D02*
X90744700Y-89481000D01*
X90744700Y-87303000D01*
X92135300Y-87303000D01*
X92135300Y-89481000D01*
X92135300Y-89481000D01*
G37*
G36*
X94675300Y-89481000D02*
X93284700Y-89481000D01*
X93284700Y-87303000D01*
X94675300Y-87303000D01*
X94675300Y-89481000D01*
X94675300Y-89481000D01*
G37*
G36*
X76895300Y-89481000D02*
X75504700Y-89481000D01*
X75504700Y-87303000D01*
X76895300Y-87303000D01*
X76895300Y-89481000D01*
X76895300Y-89481000D01*
G37*
G36*
X87055300Y-89481000D02*
X85664700Y-89481000D01*
X85664700Y-87303000D01*
X87055300Y-87303000D01*
X87055300Y-89481000D01*
X87055300Y-89481000D01*
G37*
G36*
X114580603Y-83656968D02*
X114580606Y-83656969D01*
X114580605Y-83656969D01*
X114755678Y-83729486D01*
X114755679Y-83729487D01*
X114913241Y-83834767D01*
X115047233Y-83968759D01*
X115047234Y-83968761D01*
X115152514Y-84126322D01*
X115208603Y-84261734D01*
X115225032Y-84301397D01*
X115262000Y-84487250D01*
X115262000Y-84676750D01*
X115225032Y-84862603D01*
X115225031Y-84862605D01*
X115152514Y-85037678D01*
X115152513Y-85037679D01*
X115047233Y-85195241D01*
X114913241Y-85329233D01*
X114833923Y-85382232D01*
X114755678Y-85434514D01*
X114620266Y-85490603D01*
X114580603Y-85507032D01*
X114394750Y-85544000D01*
X114205250Y-85544000D01*
X114019397Y-85507032D01*
X113979734Y-85490603D01*
X113844322Y-85434514D01*
X113766077Y-85382232D01*
X113686759Y-85329233D01*
X113552767Y-85195241D01*
X113447487Y-85037679D01*
X113447486Y-85037678D01*
X113374969Y-84862605D01*
X113374968Y-84862603D01*
X113338000Y-84676750D01*
X113338000Y-84487250D01*
X113374968Y-84301397D01*
X113391397Y-84261734D01*
X113447486Y-84126322D01*
X113552766Y-83968761D01*
X113552767Y-83968759D01*
X113686759Y-83834767D01*
X113844321Y-83729487D01*
X113844322Y-83729486D01*
X114019395Y-83656969D01*
X114019394Y-83656969D01*
X114019397Y-83656968D01*
X114205250Y-83620000D01*
X114394750Y-83620000D01*
X114580603Y-83656968D01*
X114580603Y-83656968D01*
G37*
G36*
X76480603Y-83656968D02*
X76480606Y-83656969D01*
X76480605Y-83656969D01*
X76655678Y-83729486D01*
X76655679Y-83729487D01*
X76813241Y-83834767D01*
X76947233Y-83968759D01*
X76947234Y-83968761D01*
X77052514Y-84126322D01*
X77108603Y-84261734D01*
X77125032Y-84301397D01*
X77162000Y-84487250D01*
X77162000Y-84676750D01*
X77125032Y-84862603D01*
X77125031Y-84862605D01*
X77052514Y-85037678D01*
X77052513Y-85037679D01*
X76947233Y-85195241D01*
X76813241Y-85329233D01*
X76733923Y-85382232D01*
X76655678Y-85434514D01*
X76520266Y-85490603D01*
X76480603Y-85507032D01*
X76294750Y-85544000D01*
X76105250Y-85544000D01*
X75919397Y-85507032D01*
X75879734Y-85490603D01*
X75744322Y-85434514D01*
X75666077Y-85382232D01*
X75586759Y-85329233D01*
X75452767Y-85195241D01*
X75347487Y-85037679D01*
X75347486Y-85037678D01*
X75274969Y-84862605D01*
X75274968Y-84862603D01*
X75238000Y-84676750D01*
X75238000Y-84487250D01*
X75274968Y-84301397D01*
X75291397Y-84261734D01*
X75347486Y-84126322D01*
X75452766Y-83968761D01*
X75452767Y-83968759D01*
X75586759Y-83834767D01*
X75744321Y-83729487D01*
X75744322Y-83729486D01*
X75919395Y-83656969D01*
X75919394Y-83656969D01*
X75919397Y-83656968D01*
X76105250Y-83620000D01*
X76294750Y-83620000D01*
X76480603Y-83656968D01*
X76480603Y-83656968D01*
G37*
G36*
X117120603Y-83656968D02*
X117120606Y-83656969D01*
X117120605Y-83656969D01*
X117295678Y-83729486D01*
X117295679Y-83729487D01*
X117453241Y-83834767D01*
X117587233Y-83968759D01*
X117587234Y-83968761D01*
X117692514Y-84126322D01*
X117748603Y-84261734D01*
X117765032Y-84301397D01*
X117802000Y-84487250D01*
X117802000Y-84676750D01*
X117765032Y-84862603D01*
X117765031Y-84862605D01*
X117692514Y-85037678D01*
X117692513Y-85037679D01*
X117587233Y-85195241D01*
X117453241Y-85329233D01*
X117373923Y-85382232D01*
X117295678Y-85434514D01*
X117160266Y-85490603D01*
X117120603Y-85507032D01*
X116934750Y-85544000D01*
X116745250Y-85544000D01*
X116559397Y-85507032D01*
X116519734Y-85490603D01*
X116384322Y-85434514D01*
X116306077Y-85382232D01*
X116226759Y-85329233D01*
X116092767Y-85195241D01*
X115987487Y-85037679D01*
X115987486Y-85037678D01*
X115914969Y-84862605D01*
X115914968Y-84862603D01*
X115878000Y-84676750D01*
X115878000Y-84487250D01*
X115914968Y-84301397D01*
X115931397Y-84261734D01*
X115987486Y-84126322D01*
X116092766Y-83968761D01*
X116092767Y-83968759D01*
X116226759Y-83834767D01*
X116384321Y-83729487D01*
X116384322Y-83729486D01*
X116559395Y-83656969D01*
X116559394Y-83656969D01*
X116559397Y-83656968D01*
X116745250Y-83620000D01*
X116934750Y-83620000D01*
X117120603Y-83656968D01*
X117120603Y-83656968D01*
G37*
G36*
X79020603Y-83656968D02*
X79020606Y-83656969D01*
X79020605Y-83656969D01*
X79195678Y-83729486D01*
X79195679Y-83729487D01*
X79353241Y-83834767D01*
X79487233Y-83968759D01*
X79487234Y-83968761D01*
X79592514Y-84126322D01*
X79648603Y-84261734D01*
X79665032Y-84301397D01*
X79702000Y-84487250D01*
X79702000Y-84676750D01*
X79665032Y-84862603D01*
X79665031Y-84862605D01*
X79592514Y-85037678D01*
X79592513Y-85037679D01*
X79487233Y-85195241D01*
X79353241Y-85329233D01*
X79273923Y-85382232D01*
X79195678Y-85434514D01*
X79060266Y-85490603D01*
X79020603Y-85507032D01*
X78834750Y-85544000D01*
X78645250Y-85544000D01*
X78459397Y-85507032D01*
X78419734Y-85490603D01*
X78284322Y-85434514D01*
X78206077Y-85382232D01*
X78126759Y-85329233D01*
X77992767Y-85195241D01*
X77887487Y-85037679D01*
X77887486Y-85037678D01*
X77814969Y-84862605D01*
X77814968Y-84862603D01*
X77778000Y-84676750D01*
X77778000Y-84487250D01*
X77814968Y-84301397D01*
X77831397Y-84261734D01*
X77887486Y-84126322D01*
X77992766Y-83968761D01*
X77992767Y-83968759D01*
X78126759Y-83834767D01*
X78284321Y-83729487D01*
X78284322Y-83729486D01*
X78459395Y-83656969D01*
X78459394Y-83656969D01*
X78459397Y-83656968D01*
X78645250Y-83620000D01*
X78834750Y-83620000D01*
X79020603Y-83656968D01*
X79020603Y-83656968D01*
G37*
G36*
X94260603Y-83656968D02*
X94260606Y-83656969D01*
X94260605Y-83656969D01*
X94435678Y-83729486D01*
X94435679Y-83729487D01*
X94593241Y-83834767D01*
X94727233Y-83968759D01*
X94727234Y-83968761D01*
X94832514Y-84126322D01*
X94888603Y-84261734D01*
X94905032Y-84301397D01*
X94942000Y-84487250D01*
X94942000Y-84676750D01*
X94905032Y-84862603D01*
X94905031Y-84862605D01*
X94832514Y-85037678D01*
X94832513Y-85037679D01*
X94727233Y-85195241D01*
X94593241Y-85329233D01*
X94513923Y-85382232D01*
X94435678Y-85434514D01*
X94300266Y-85490603D01*
X94260603Y-85507032D01*
X94074750Y-85544000D01*
X93885250Y-85544000D01*
X93699397Y-85507032D01*
X93659734Y-85490603D01*
X93524322Y-85434514D01*
X93446077Y-85382232D01*
X93366759Y-85329233D01*
X93232767Y-85195241D01*
X93127487Y-85037679D01*
X93127486Y-85037678D01*
X93054969Y-84862605D01*
X93054968Y-84862603D01*
X93018000Y-84676750D01*
X93018000Y-84487250D01*
X93054968Y-84301397D01*
X93071397Y-84261734D01*
X93127486Y-84126322D01*
X93232766Y-83968761D01*
X93232767Y-83968759D01*
X93366759Y-83834767D01*
X93524321Y-83729487D01*
X93524322Y-83729486D01*
X93699395Y-83656969D01*
X93699394Y-83656969D01*
X93699397Y-83656968D01*
X93885250Y-83620000D01*
X94074750Y-83620000D01*
X94260603Y-83656968D01*
X94260603Y-83656968D01*
G37*
G36*
X81560603Y-83656968D02*
X81560606Y-83656969D01*
X81560605Y-83656969D01*
X81735678Y-83729486D01*
X81735679Y-83729487D01*
X81893241Y-83834767D01*
X82027233Y-83968759D01*
X82027234Y-83968761D01*
X82132514Y-84126322D01*
X82188603Y-84261734D01*
X82205032Y-84301397D01*
X82242000Y-84487250D01*
X82242000Y-84676750D01*
X82205032Y-84862603D01*
X82205031Y-84862605D01*
X82132514Y-85037678D01*
X82132513Y-85037679D01*
X82027233Y-85195241D01*
X81893241Y-85329233D01*
X81813923Y-85382232D01*
X81735678Y-85434514D01*
X81600266Y-85490603D01*
X81560603Y-85507032D01*
X81374750Y-85544000D01*
X81185250Y-85544000D01*
X80999397Y-85507032D01*
X80959734Y-85490603D01*
X80824322Y-85434514D01*
X80746077Y-85382232D01*
X80666759Y-85329233D01*
X80532767Y-85195241D01*
X80427487Y-85037679D01*
X80427486Y-85037678D01*
X80354969Y-84862605D01*
X80354968Y-84862603D01*
X80318000Y-84676750D01*
X80318000Y-84487250D01*
X80354968Y-84301397D01*
X80371397Y-84261734D01*
X80427486Y-84126322D01*
X80532766Y-83968761D01*
X80532767Y-83968759D01*
X80666759Y-83834767D01*
X80824321Y-83729487D01*
X80824322Y-83729486D01*
X80999395Y-83656969D01*
X80999394Y-83656969D01*
X80999397Y-83656968D01*
X81185250Y-83620000D01*
X81374750Y-83620000D01*
X81560603Y-83656968D01*
X81560603Y-83656968D01*
G37*
G36*
X112040603Y-83656968D02*
X112040606Y-83656969D01*
X112040605Y-83656969D01*
X112215678Y-83729486D01*
X112215679Y-83729487D01*
X112373241Y-83834767D01*
X112507233Y-83968759D01*
X112507234Y-83968761D01*
X112612514Y-84126322D01*
X112668603Y-84261734D01*
X112685032Y-84301397D01*
X112722000Y-84487250D01*
X112722000Y-84676750D01*
X112685032Y-84862603D01*
X112685031Y-84862605D01*
X112612514Y-85037678D01*
X112612513Y-85037679D01*
X112507233Y-85195241D01*
X112373241Y-85329233D01*
X112293923Y-85382232D01*
X112215678Y-85434514D01*
X112080266Y-85490603D01*
X112040603Y-85507032D01*
X111854750Y-85544000D01*
X111665250Y-85544000D01*
X111479397Y-85507032D01*
X111439734Y-85490603D01*
X111304322Y-85434514D01*
X111226077Y-85382232D01*
X111146759Y-85329233D01*
X111012767Y-85195241D01*
X110907487Y-85037679D01*
X110907486Y-85037678D01*
X110834969Y-84862605D01*
X110834968Y-84862603D01*
X110798000Y-84676750D01*
X110798000Y-84487250D01*
X110834968Y-84301397D01*
X110851397Y-84261734D01*
X110907486Y-84126322D01*
X111012766Y-83968761D01*
X111012767Y-83968759D01*
X111146759Y-83834767D01*
X111304321Y-83729487D01*
X111304322Y-83729486D01*
X111479395Y-83656969D01*
X111479394Y-83656969D01*
X111479397Y-83656968D01*
X111665250Y-83620000D01*
X111854750Y-83620000D01*
X112040603Y-83656968D01*
X112040603Y-83656968D01*
G37*
G36*
X96800603Y-83656968D02*
X96800606Y-83656969D01*
X96800605Y-83656969D01*
X96975678Y-83729486D01*
X96975679Y-83729487D01*
X97133241Y-83834767D01*
X97267233Y-83968759D01*
X97267234Y-83968761D01*
X97372514Y-84126322D01*
X97428603Y-84261734D01*
X97445032Y-84301397D01*
X97482000Y-84487250D01*
X97482000Y-84676750D01*
X97445032Y-84862603D01*
X97445031Y-84862605D01*
X97372514Y-85037678D01*
X97372513Y-85037679D01*
X97267233Y-85195241D01*
X97133241Y-85329233D01*
X97053923Y-85382232D01*
X96975678Y-85434514D01*
X96840266Y-85490603D01*
X96800603Y-85507032D01*
X96614750Y-85544000D01*
X96425250Y-85544000D01*
X96239397Y-85507032D01*
X96199734Y-85490603D01*
X96064322Y-85434514D01*
X95986077Y-85382232D01*
X95906759Y-85329233D01*
X95772767Y-85195241D01*
X95667487Y-85037679D01*
X95667486Y-85037678D01*
X95594969Y-84862605D01*
X95594968Y-84862603D01*
X95558000Y-84676750D01*
X95558000Y-84487250D01*
X95594968Y-84301397D01*
X95611397Y-84261734D01*
X95667486Y-84126322D01*
X95772766Y-83968761D01*
X95772767Y-83968759D01*
X95906759Y-83834767D01*
X96064321Y-83729487D01*
X96064322Y-83729486D01*
X96239395Y-83656969D01*
X96239394Y-83656969D01*
X96239397Y-83656968D01*
X96425250Y-83620000D01*
X96614750Y-83620000D01*
X96800603Y-83656968D01*
X96800603Y-83656968D01*
G37*
G36*
X99340603Y-83656968D02*
X99340606Y-83656969D01*
X99340605Y-83656969D01*
X99515678Y-83729486D01*
X99515679Y-83729487D01*
X99673241Y-83834767D01*
X99807233Y-83968759D01*
X99807234Y-83968761D01*
X99912514Y-84126322D01*
X99968603Y-84261734D01*
X99985032Y-84301397D01*
X100022000Y-84487250D01*
X100022000Y-84676750D01*
X99985032Y-84862603D01*
X99985031Y-84862605D01*
X99912514Y-85037678D01*
X99912513Y-85037679D01*
X99807233Y-85195241D01*
X99673241Y-85329233D01*
X99593923Y-85382232D01*
X99515678Y-85434514D01*
X99380266Y-85490603D01*
X99340603Y-85507032D01*
X99154750Y-85544000D01*
X98965250Y-85544000D01*
X98779397Y-85507032D01*
X98739734Y-85490603D01*
X98604322Y-85434514D01*
X98526077Y-85382232D01*
X98446759Y-85329233D01*
X98312767Y-85195241D01*
X98207487Y-85037679D01*
X98207486Y-85037678D01*
X98134969Y-84862605D01*
X98134968Y-84862603D01*
X98098000Y-84676750D01*
X98098000Y-84487250D01*
X98134968Y-84301397D01*
X98151397Y-84261734D01*
X98207486Y-84126322D01*
X98312766Y-83968761D01*
X98312767Y-83968759D01*
X98446759Y-83834767D01*
X98604321Y-83729487D01*
X98604322Y-83729486D01*
X98779395Y-83656969D01*
X98779394Y-83656969D01*
X98779397Y-83656968D01*
X98965250Y-83620000D01*
X99154750Y-83620000D01*
X99340603Y-83656968D01*
X99340603Y-83656968D01*
G37*
G36*
X91720603Y-81116968D02*
X91720606Y-81116969D01*
X91720605Y-81116969D01*
X91895678Y-81189486D01*
X91895679Y-81189487D01*
X92053241Y-81294767D01*
X92187233Y-81428759D01*
X92187234Y-81428761D01*
X92292514Y-81586322D01*
X92348603Y-81721734D01*
X92365032Y-81761397D01*
X92402000Y-81947250D01*
X92402000Y-82136750D01*
X92365032Y-82322603D01*
X92365031Y-82322605D01*
X92292514Y-82497678D01*
X92292513Y-82497679D01*
X92187233Y-82655241D01*
X92053241Y-82789233D01*
X91973923Y-82842232D01*
X91895678Y-82894514D01*
X91760266Y-82950603D01*
X91720603Y-82967032D01*
X91534750Y-83004000D01*
X91345250Y-83004000D01*
X91159397Y-82967032D01*
X91119734Y-82950603D01*
X90984322Y-82894514D01*
X90906077Y-82842232D01*
X90826759Y-82789233D01*
X90692767Y-82655241D01*
X90587487Y-82497679D01*
X90587486Y-82497678D01*
X90514969Y-82322605D01*
X90514968Y-82322603D01*
X90478000Y-82136750D01*
X90478000Y-81947250D01*
X90514968Y-81761397D01*
X90531397Y-81721734D01*
X90587486Y-81586322D01*
X90692766Y-81428761D01*
X90692767Y-81428759D01*
X90826759Y-81294767D01*
X90984321Y-81189487D01*
X90984322Y-81189486D01*
X91159395Y-81116969D01*
X91159394Y-81116969D01*
X91159397Y-81116968D01*
X91345250Y-81080000D01*
X91534750Y-81080000D01*
X91720603Y-81116968D01*
X91720603Y-81116968D01*
G37*
G36*
X119660603Y-81116968D02*
X119660606Y-81116969D01*
X119660605Y-81116969D01*
X119835678Y-81189486D01*
X119835679Y-81189487D01*
X119993241Y-81294767D01*
X120127233Y-81428759D01*
X120127234Y-81428761D01*
X120232514Y-81586322D01*
X120288603Y-81721734D01*
X120305032Y-81761397D01*
X120342000Y-81947250D01*
X120342000Y-82136750D01*
X120305032Y-82322603D01*
X120305031Y-82322605D01*
X120232514Y-82497678D01*
X120232513Y-82497679D01*
X120127233Y-82655241D01*
X119993241Y-82789233D01*
X119913923Y-82842232D01*
X119835678Y-82894514D01*
X119700266Y-82950603D01*
X119660603Y-82967032D01*
X119474750Y-83004000D01*
X119285250Y-83004000D01*
X119099397Y-82967032D01*
X119059734Y-82950603D01*
X118924322Y-82894514D01*
X118846077Y-82842232D01*
X118766759Y-82789233D01*
X118632767Y-82655241D01*
X118527487Y-82497679D01*
X118527486Y-82497678D01*
X118454969Y-82322605D01*
X118454968Y-82322603D01*
X118418000Y-82136750D01*
X118418000Y-81947250D01*
X118454968Y-81761397D01*
X118471397Y-81721734D01*
X118527486Y-81586322D01*
X118632766Y-81428761D01*
X118632767Y-81428759D01*
X118766759Y-81294767D01*
X118924321Y-81189487D01*
X118924322Y-81189486D01*
X119099395Y-81116969D01*
X119099394Y-81116969D01*
X119099397Y-81116968D01*
X119285250Y-81080000D01*
X119474750Y-81080000D01*
X119660603Y-81116968D01*
X119660603Y-81116968D01*
G37*
G36*
X117120603Y-81116968D02*
X117120606Y-81116969D01*
X117120605Y-81116969D01*
X117295678Y-81189486D01*
X117295679Y-81189487D01*
X117453241Y-81294767D01*
X117587233Y-81428759D01*
X117587234Y-81428761D01*
X117692514Y-81586322D01*
X117748603Y-81721734D01*
X117765032Y-81761397D01*
X117802000Y-81947250D01*
X117802000Y-82136750D01*
X117765032Y-82322603D01*
X117765031Y-82322605D01*
X117692514Y-82497678D01*
X117692513Y-82497679D01*
X117587233Y-82655241D01*
X117453241Y-82789233D01*
X117373923Y-82842232D01*
X117295678Y-82894514D01*
X117160266Y-82950603D01*
X117120603Y-82967032D01*
X116934750Y-83004000D01*
X116745250Y-83004000D01*
X116559397Y-82967032D01*
X116519734Y-82950603D01*
X116384322Y-82894514D01*
X116306077Y-82842232D01*
X116226759Y-82789233D01*
X116092767Y-82655241D01*
X115987487Y-82497679D01*
X115987486Y-82497678D01*
X115914969Y-82322605D01*
X115914968Y-82322603D01*
X115878000Y-82136750D01*
X115878000Y-81947250D01*
X115914968Y-81761397D01*
X115931397Y-81721734D01*
X115987486Y-81586322D01*
X116092766Y-81428761D01*
X116092767Y-81428759D01*
X116226759Y-81294767D01*
X116384321Y-81189487D01*
X116384322Y-81189486D01*
X116559395Y-81116969D01*
X116559394Y-81116969D01*
X116559397Y-81116968D01*
X116745250Y-81080000D01*
X116934750Y-81080000D01*
X117120603Y-81116968D01*
X117120603Y-81116968D01*
G37*
G36*
X114580603Y-81116968D02*
X114580606Y-81116969D01*
X114580605Y-81116969D01*
X114755678Y-81189486D01*
X114755679Y-81189487D01*
X114913241Y-81294767D01*
X115047233Y-81428759D01*
X115047234Y-81428761D01*
X115152514Y-81586322D01*
X115208603Y-81721734D01*
X115225032Y-81761397D01*
X115262000Y-81947250D01*
X115262000Y-82136750D01*
X115225032Y-82322603D01*
X115225031Y-82322605D01*
X115152514Y-82497678D01*
X115152513Y-82497679D01*
X115047233Y-82655241D01*
X114913241Y-82789233D01*
X114833923Y-82842232D01*
X114755678Y-82894514D01*
X114620266Y-82950603D01*
X114580603Y-82967032D01*
X114394750Y-83004000D01*
X114205250Y-83004000D01*
X114019397Y-82967032D01*
X113979734Y-82950603D01*
X113844322Y-82894514D01*
X113766077Y-82842232D01*
X113686759Y-82789233D01*
X113552767Y-82655241D01*
X113447487Y-82497679D01*
X113447486Y-82497678D01*
X113374969Y-82322605D01*
X113374968Y-82322603D01*
X113338000Y-82136750D01*
X113338000Y-81947250D01*
X113374968Y-81761397D01*
X113391397Y-81721734D01*
X113447486Y-81586322D01*
X113552766Y-81428761D01*
X113552767Y-81428759D01*
X113686759Y-81294767D01*
X113844321Y-81189487D01*
X113844322Y-81189486D01*
X114019395Y-81116969D01*
X114019394Y-81116969D01*
X114019397Y-81116968D01*
X114205250Y-81080000D01*
X114394750Y-81080000D01*
X114580603Y-81116968D01*
X114580603Y-81116968D01*
G37*
G36*
X112040603Y-81116968D02*
X112040606Y-81116969D01*
X112040605Y-81116969D01*
X112215678Y-81189486D01*
X112215679Y-81189487D01*
X112373241Y-81294767D01*
X112507233Y-81428759D01*
X112507234Y-81428761D01*
X112612514Y-81586322D01*
X112668603Y-81721734D01*
X112685032Y-81761397D01*
X112722000Y-81947250D01*
X112722000Y-82136750D01*
X112685032Y-82322603D01*
X112685031Y-82322605D01*
X112612514Y-82497678D01*
X112612513Y-82497679D01*
X112507233Y-82655241D01*
X112373241Y-82789233D01*
X112293923Y-82842232D01*
X112215678Y-82894514D01*
X112080266Y-82950603D01*
X112040603Y-82967032D01*
X111854750Y-83004000D01*
X111665250Y-83004000D01*
X111479397Y-82967032D01*
X111439734Y-82950603D01*
X111304322Y-82894514D01*
X111226077Y-82842232D01*
X111146759Y-82789233D01*
X111012767Y-82655241D01*
X110907487Y-82497679D01*
X110907486Y-82497678D01*
X110834969Y-82322605D01*
X110834968Y-82322603D01*
X110798000Y-82136750D01*
X110798000Y-81947250D01*
X110834968Y-81761397D01*
X110851397Y-81721734D01*
X110907486Y-81586322D01*
X111012766Y-81428761D01*
X111012767Y-81428759D01*
X111146759Y-81294767D01*
X111304321Y-81189487D01*
X111304322Y-81189486D01*
X111479395Y-81116969D01*
X111479394Y-81116969D01*
X111479397Y-81116968D01*
X111665250Y-81080000D01*
X111854750Y-81080000D01*
X112040603Y-81116968D01*
X112040603Y-81116968D01*
G37*
G36*
X109500603Y-81116968D02*
X109500606Y-81116969D01*
X109500605Y-81116969D01*
X109675678Y-81189486D01*
X109675679Y-81189487D01*
X109833241Y-81294767D01*
X109967233Y-81428759D01*
X109967234Y-81428761D01*
X110072514Y-81586322D01*
X110128603Y-81721734D01*
X110145032Y-81761397D01*
X110182000Y-81947250D01*
X110182000Y-82136750D01*
X110145032Y-82322603D01*
X110145031Y-82322605D01*
X110072514Y-82497678D01*
X110072513Y-82497679D01*
X109967233Y-82655241D01*
X109833241Y-82789233D01*
X109753923Y-82842232D01*
X109675678Y-82894514D01*
X109540266Y-82950603D01*
X109500603Y-82967032D01*
X109314750Y-83004000D01*
X109125250Y-83004000D01*
X108939397Y-82967032D01*
X108899734Y-82950603D01*
X108764322Y-82894514D01*
X108686077Y-82842232D01*
X108606759Y-82789233D01*
X108472767Y-82655241D01*
X108367487Y-82497679D01*
X108367486Y-82497678D01*
X108294969Y-82322605D01*
X108294968Y-82322603D01*
X108258000Y-82136750D01*
X108258000Y-81947250D01*
X108294968Y-81761397D01*
X108311397Y-81721734D01*
X108367486Y-81586322D01*
X108472766Y-81428761D01*
X108472767Y-81428759D01*
X108606759Y-81294767D01*
X108764321Y-81189487D01*
X108764322Y-81189486D01*
X108939395Y-81116969D01*
X108939394Y-81116969D01*
X108939397Y-81116968D01*
X109125250Y-81080000D01*
X109314750Y-81080000D01*
X109500603Y-81116968D01*
X109500603Y-81116968D01*
G37*
G36*
X73940603Y-81116968D02*
X73940606Y-81116969D01*
X73940605Y-81116969D01*
X74115678Y-81189486D01*
X74115679Y-81189487D01*
X74273241Y-81294767D01*
X74407233Y-81428759D01*
X74407234Y-81428761D01*
X74512514Y-81586322D01*
X74568603Y-81721734D01*
X74585032Y-81761397D01*
X74622000Y-81947250D01*
X74622000Y-82136750D01*
X74585032Y-82322603D01*
X74585031Y-82322605D01*
X74512514Y-82497678D01*
X74512513Y-82497679D01*
X74407233Y-82655241D01*
X74273241Y-82789233D01*
X74193923Y-82842232D01*
X74115678Y-82894514D01*
X73980266Y-82950603D01*
X73940603Y-82967032D01*
X73754750Y-83004000D01*
X73565250Y-83004000D01*
X73379397Y-82967032D01*
X73339734Y-82950603D01*
X73204322Y-82894514D01*
X73126077Y-82842232D01*
X73046759Y-82789233D01*
X72912767Y-82655241D01*
X72807487Y-82497679D01*
X72807486Y-82497678D01*
X72734969Y-82322605D01*
X72734968Y-82322603D01*
X72698000Y-82136750D01*
X72698000Y-81947250D01*
X72734968Y-81761397D01*
X72751397Y-81721734D01*
X72807486Y-81586322D01*
X72912766Y-81428761D01*
X72912767Y-81428759D01*
X73046759Y-81294767D01*
X73204321Y-81189487D01*
X73204322Y-81189486D01*
X73379395Y-81116969D01*
X73379394Y-81116969D01*
X73379397Y-81116968D01*
X73565250Y-81080000D01*
X73754750Y-81080000D01*
X73940603Y-81116968D01*
X73940603Y-81116968D01*
G37*
G36*
X79020603Y-81116968D02*
X79020606Y-81116969D01*
X79020605Y-81116969D01*
X79195678Y-81189486D01*
X79195679Y-81189487D01*
X79353241Y-81294767D01*
X79487233Y-81428759D01*
X79487234Y-81428761D01*
X79592514Y-81586322D01*
X79648603Y-81721734D01*
X79665032Y-81761397D01*
X79702000Y-81947250D01*
X79702000Y-82136750D01*
X79665032Y-82322603D01*
X79665031Y-82322605D01*
X79592514Y-82497678D01*
X79592513Y-82497679D01*
X79487233Y-82655241D01*
X79353241Y-82789233D01*
X79273923Y-82842232D01*
X79195678Y-82894514D01*
X79060266Y-82950603D01*
X79020603Y-82967032D01*
X78834750Y-83004000D01*
X78645250Y-83004000D01*
X78459397Y-82967032D01*
X78419734Y-82950603D01*
X78284322Y-82894514D01*
X78206077Y-82842232D01*
X78126759Y-82789233D01*
X77992767Y-82655241D01*
X77887487Y-82497679D01*
X77887486Y-82497678D01*
X77814969Y-82322605D01*
X77814968Y-82322603D01*
X77778000Y-82136750D01*
X77778000Y-81947250D01*
X77814968Y-81761397D01*
X77831397Y-81721734D01*
X77887486Y-81586322D01*
X77992766Y-81428761D01*
X77992767Y-81428759D01*
X78126759Y-81294767D01*
X78284321Y-81189487D01*
X78284322Y-81189486D01*
X78459395Y-81116969D01*
X78459394Y-81116969D01*
X78459397Y-81116968D01*
X78645250Y-81080000D01*
X78834750Y-81080000D01*
X79020603Y-81116968D01*
X79020603Y-81116968D01*
G37*
G36*
X81560603Y-81116968D02*
X81560606Y-81116969D01*
X81560605Y-81116969D01*
X81735678Y-81189486D01*
X81735679Y-81189487D01*
X81893241Y-81294767D01*
X82027233Y-81428759D01*
X82027234Y-81428761D01*
X82132514Y-81586322D01*
X82188603Y-81721734D01*
X82205032Y-81761397D01*
X82242000Y-81947250D01*
X82242000Y-82136750D01*
X82205032Y-82322603D01*
X82205031Y-82322605D01*
X82132514Y-82497678D01*
X82132513Y-82497679D01*
X82027233Y-82655241D01*
X81893241Y-82789233D01*
X81813923Y-82842232D01*
X81735678Y-82894514D01*
X81600266Y-82950603D01*
X81560603Y-82967032D01*
X81374750Y-83004000D01*
X81185250Y-83004000D01*
X80999397Y-82967032D01*
X80959734Y-82950603D01*
X80824322Y-82894514D01*
X80746077Y-82842232D01*
X80666759Y-82789233D01*
X80532767Y-82655241D01*
X80427487Y-82497679D01*
X80427486Y-82497678D01*
X80354969Y-82322605D01*
X80354968Y-82322603D01*
X80318000Y-82136750D01*
X80318000Y-81947250D01*
X80354968Y-81761397D01*
X80371397Y-81721734D01*
X80427486Y-81586322D01*
X80532766Y-81428761D01*
X80532767Y-81428759D01*
X80666759Y-81294767D01*
X80824321Y-81189487D01*
X80824322Y-81189486D01*
X80999395Y-81116969D01*
X80999394Y-81116969D01*
X80999397Y-81116968D01*
X81185250Y-81080000D01*
X81374750Y-81080000D01*
X81560603Y-81116968D01*
X81560603Y-81116968D01*
G37*
G36*
X84100603Y-81116968D02*
X84100606Y-81116969D01*
X84100605Y-81116969D01*
X84275678Y-81189486D01*
X84275679Y-81189487D01*
X84433241Y-81294767D01*
X84567233Y-81428759D01*
X84567234Y-81428761D01*
X84672514Y-81586322D01*
X84728603Y-81721734D01*
X84745032Y-81761397D01*
X84782000Y-81947250D01*
X84782000Y-82136750D01*
X84745032Y-82322603D01*
X84745031Y-82322605D01*
X84672514Y-82497678D01*
X84672513Y-82497679D01*
X84567233Y-82655241D01*
X84433241Y-82789233D01*
X84353923Y-82842232D01*
X84275678Y-82894514D01*
X84140266Y-82950603D01*
X84100603Y-82967032D01*
X83914750Y-83004000D01*
X83725250Y-83004000D01*
X83539397Y-82967032D01*
X83499734Y-82950603D01*
X83364322Y-82894514D01*
X83286077Y-82842232D01*
X83206759Y-82789233D01*
X83072767Y-82655241D01*
X82967487Y-82497679D01*
X82967486Y-82497678D01*
X82894969Y-82322605D01*
X82894968Y-82322603D01*
X82858000Y-82136750D01*
X82858000Y-81947250D01*
X82894968Y-81761397D01*
X82911397Y-81721734D01*
X82967486Y-81586322D01*
X83072766Y-81428761D01*
X83072767Y-81428759D01*
X83206759Y-81294767D01*
X83364321Y-81189487D01*
X83364322Y-81189486D01*
X83539395Y-81116969D01*
X83539394Y-81116969D01*
X83539397Y-81116968D01*
X83725250Y-81080000D01*
X83914750Y-81080000D01*
X84100603Y-81116968D01*
X84100603Y-81116968D01*
G37*
G36*
X101880603Y-81116968D02*
X101880606Y-81116969D01*
X101880605Y-81116969D01*
X102055678Y-81189486D01*
X102055679Y-81189487D01*
X102213241Y-81294767D01*
X102347233Y-81428759D01*
X102347234Y-81428761D01*
X102452514Y-81586322D01*
X102508603Y-81721734D01*
X102525032Y-81761397D01*
X102562000Y-81947250D01*
X102562000Y-82136750D01*
X102525032Y-82322603D01*
X102525031Y-82322605D01*
X102452514Y-82497678D01*
X102452513Y-82497679D01*
X102347233Y-82655241D01*
X102213241Y-82789233D01*
X102133923Y-82842232D01*
X102055678Y-82894514D01*
X101920266Y-82950603D01*
X101880603Y-82967032D01*
X101694750Y-83004000D01*
X101505250Y-83004000D01*
X101319397Y-82967032D01*
X101279734Y-82950603D01*
X101144322Y-82894514D01*
X101066077Y-82842232D01*
X100986759Y-82789233D01*
X100852767Y-82655241D01*
X100747487Y-82497679D01*
X100747486Y-82497678D01*
X100674969Y-82322605D01*
X100674968Y-82322603D01*
X100638000Y-82136750D01*
X100638000Y-81947250D01*
X100674968Y-81761397D01*
X100691397Y-81721734D01*
X100747486Y-81586322D01*
X100852766Y-81428761D01*
X100852767Y-81428759D01*
X100986759Y-81294767D01*
X101144321Y-81189487D01*
X101144322Y-81189486D01*
X101319395Y-81116969D01*
X101319394Y-81116969D01*
X101319397Y-81116968D01*
X101505250Y-81080000D01*
X101694750Y-81080000D01*
X101880603Y-81116968D01*
X101880603Y-81116968D01*
G37*
G36*
X99340603Y-81116968D02*
X99340606Y-81116969D01*
X99340605Y-81116969D01*
X99515678Y-81189486D01*
X99515679Y-81189487D01*
X99673241Y-81294767D01*
X99807233Y-81428759D01*
X99807234Y-81428761D01*
X99912514Y-81586322D01*
X99968603Y-81721734D01*
X99985032Y-81761397D01*
X100022000Y-81947250D01*
X100022000Y-82136750D01*
X99985032Y-82322603D01*
X99985031Y-82322605D01*
X99912514Y-82497678D01*
X99912513Y-82497679D01*
X99807233Y-82655241D01*
X99673241Y-82789233D01*
X99593923Y-82842232D01*
X99515678Y-82894514D01*
X99380266Y-82950603D01*
X99340603Y-82967032D01*
X99154750Y-83004000D01*
X98965250Y-83004000D01*
X98779397Y-82967032D01*
X98739734Y-82950603D01*
X98604322Y-82894514D01*
X98526077Y-82842232D01*
X98446759Y-82789233D01*
X98312767Y-82655241D01*
X98207487Y-82497679D01*
X98207486Y-82497678D01*
X98134969Y-82322605D01*
X98134968Y-82322603D01*
X98098000Y-82136750D01*
X98098000Y-81947250D01*
X98134968Y-81761397D01*
X98151397Y-81721734D01*
X98207486Y-81586322D01*
X98312766Y-81428761D01*
X98312767Y-81428759D01*
X98446759Y-81294767D01*
X98604321Y-81189487D01*
X98604322Y-81189486D01*
X98779395Y-81116969D01*
X98779394Y-81116969D01*
X98779397Y-81116968D01*
X98965250Y-81080000D01*
X99154750Y-81080000D01*
X99340603Y-81116968D01*
X99340603Y-81116968D01*
G37*
G36*
X96800603Y-81116968D02*
X96800606Y-81116969D01*
X96800605Y-81116969D01*
X96975678Y-81189486D01*
X96975679Y-81189487D01*
X97133241Y-81294767D01*
X97267233Y-81428759D01*
X97267234Y-81428761D01*
X97372514Y-81586322D01*
X97428603Y-81721734D01*
X97445032Y-81761397D01*
X97482000Y-81947250D01*
X97482000Y-82136750D01*
X97445032Y-82322603D01*
X97445031Y-82322605D01*
X97372514Y-82497678D01*
X97372513Y-82497679D01*
X97267233Y-82655241D01*
X97133241Y-82789233D01*
X97053923Y-82842232D01*
X96975678Y-82894514D01*
X96840266Y-82950603D01*
X96800603Y-82967032D01*
X96614750Y-83004000D01*
X96425250Y-83004000D01*
X96239397Y-82967032D01*
X96199734Y-82950603D01*
X96064322Y-82894514D01*
X95986077Y-82842232D01*
X95906759Y-82789233D01*
X95772767Y-82655241D01*
X95667487Y-82497679D01*
X95667486Y-82497678D01*
X95594969Y-82322605D01*
X95594968Y-82322603D01*
X95558000Y-82136750D01*
X95558000Y-81947250D01*
X95594968Y-81761397D01*
X95611397Y-81721734D01*
X95667486Y-81586322D01*
X95772766Y-81428761D01*
X95772767Y-81428759D01*
X95906759Y-81294767D01*
X96064321Y-81189487D01*
X96064322Y-81189486D01*
X96239395Y-81116969D01*
X96239394Y-81116969D01*
X96239397Y-81116968D01*
X96425250Y-81080000D01*
X96614750Y-81080000D01*
X96800603Y-81116968D01*
X96800603Y-81116968D01*
G37*
G36*
X94260603Y-81116968D02*
X94260606Y-81116969D01*
X94260605Y-81116969D01*
X94435678Y-81189486D01*
X94435679Y-81189487D01*
X94593241Y-81294767D01*
X94727233Y-81428759D01*
X94727234Y-81428761D01*
X94832514Y-81586322D01*
X94888603Y-81721734D01*
X94905032Y-81761397D01*
X94942000Y-81947250D01*
X94942000Y-82136750D01*
X94905032Y-82322603D01*
X94905031Y-82322605D01*
X94832514Y-82497678D01*
X94832513Y-82497679D01*
X94727233Y-82655241D01*
X94593241Y-82789233D01*
X94513923Y-82842232D01*
X94435678Y-82894514D01*
X94300266Y-82950603D01*
X94260603Y-82967032D01*
X94074750Y-83004000D01*
X93885250Y-83004000D01*
X93699397Y-82967032D01*
X93659734Y-82950603D01*
X93524322Y-82894514D01*
X93446077Y-82842232D01*
X93366759Y-82789233D01*
X93232767Y-82655241D01*
X93127487Y-82497679D01*
X93127486Y-82497678D01*
X93054969Y-82322605D01*
X93054968Y-82322603D01*
X93018000Y-82136750D01*
X93018000Y-81947250D01*
X93054968Y-81761397D01*
X93071397Y-81721734D01*
X93127486Y-81586322D01*
X93232766Y-81428761D01*
X93232767Y-81428759D01*
X93366759Y-81294767D01*
X93524321Y-81189487D01*
X93524322Y-81189486D01*
X93699395Y-81116969D01*
X93699394Y-81116969D01*
X93699397Y-81116968D01*
X93885250Y-81080000D01*
X94074750Y-81080000D01*
X94260603Y-81116968D01*
X94260603Y-81116968D01*
G37*
G36*
X76480603Y-81116968D02*
X76480606Y-81116969D01*
X76480605Y-81116969D01*
X76655678Y-81189486D01*
X76655679Y-81189487D01*
X76813241Y-81294767D01*
X76947233Y-81428759D01*
X76947234Y-81428761D01*
X77052514Y-81586322D01*
X77108603Y-81721734D01*
X77125032Y-81761397D01*
X77162000Y-81947250D01*
X77162000Y-82136750D01*
X77125032Y-82322603D01*
X77125031Y-82322605D01*
X77052514Y-82497678D01*
X77052513Y-82497679D01*
X76947233Y-82655241D01*
X76813241Y-82789233D01*
X76733923Y-82842232D01*
X76655678Y-82894514D01*
X76520266Y-82950603D01*
X76480603Y-82967032D01*
X76294750Y-83004000D01*
X76105250Y-83004000D01*
X75919397Y-82967032D01*
X75879734Y-82950603D01*
X75744322Y-82894514D01*
X75666077Y-82842232D01*
X75586759Y-82789233D01*
X75452767Y-82655241D01*
X75347487Y-82497679D01*
X75347486Y-82497678D01*
X75274969Y-82322605D01*
X75274968Y-82322603D01*
X75238000Y-82136750D01*
X75238000Y-81947250D01*
X75274968Y-81761397D01*
X75291397Y-81721734D01*
X75347486Y-81586322D01*
X75452766Y-81428761D01*
X75452767Y-81428759D01*
X75586759Y-81294767D01*
X75744321Y-81189487D01*
X75744322Y-81189486D01*
X75919395Y-81116969D01*
X75919394Y-81116969D01*
X75919397Y-81116968D01*
X76105250Y-81080000D01*
X76294750Y-81080000D01*
X76480603Y-81116968D01*
X76480603Y-81116968D01*
G37*
G36*
X103431499Y-71554976D02*
X103431501Y-71554977D01*
X103431502Y-71554977D01*
X103781829Y-71700087D01*
X103781830Y-71700088D01*
X104097119Y-71910757D01*
X104365243Y-72178881D01*
X104365245Y-72178884D01*
X104575913Y-72494171D01*
X104721023Y-72844498D01*
X104721024Y-72844501D01*
X104795000Y-73216403D01*
X104795000Y-73595597D01*
X104725868Y-73943148D01*
X104721023Y-73967502D01*
X104575913Y-74317829D01*
X104575912Y-74317830D01*
X104365243Y-74633119D01*
X104097119Y-74901243D01*
X104097116Y-74901245D01*
X103781829Y-75111913D01*
X103431502Y-75257023D01*
X103431501Y-75257023D01*
X103431499Y-75257024D01*
X103059597Y-75331000D01*
X102680403Y-75331000D01*
X102332852Y-75261868D01*
X102308466Y-75259466D01*
X102284080Y-75261868D01*
X102260630Y-75268981D01*
X102239020Y-75280532D01*
X102220078Y-75296078D01*
X102204532Y-75315020D01*
X102192981Y-75336631D01*
X102185868Y-75360080D01*
X102183466Y-75384466D01*
X102185868Y-75408852D01*
X102255000Y-75756403D01*
X102255000Y-76135596D01*
X102181023Y-76507502D01*
X102035913Y-76857829D01*
X102035912Y-76857830D01*
X101825243Y-77173119D01*
X101557119Y-77441243D01*
X101557116Y-77441245D01*
X101241829Y-77651913D01*
X100891502Y-77797023D01*
X100891501Y-77797023D01*
X100891499Y-77797024D01*
X100519597Y-77871000D01*
X100140403Y-77871000D01*
X99768501Y-77797024D01*
X99768499Y-77797023D01*
X99768498Y-77797023D01*
X99418171Y-77651913D01*
X99102884Y-77441245D01*
X99102881Y-77441243D01*
X98834757Y-77173119D01*
X98624088Y-76857830D01*
X98624087Y-76857829D01*
X98478977Y-76507502D01*
X98405000Y-76135596D01*
X98405000Y-75756403D01*
X98478976Y-75384501D01*
X98478990Y-75384466D01*
X98624087Y-75034171D01*
X98834755Y-74718884D01*
X98834757Y-74718881D01*
X99102881Y-74450757D01*
X99107132Y-74447916D01*
X99418171Y-74240087D01*
X99768498Y-74094977D01*
X99768499Y-74094977D01*
X99768501Y-74094976D01*
X100140403Y-74021000D01*
X100519597Y-74021000D01*
X100867148Y-74090132D01*
X100891534Y-74092534D01*
X100915920Y-74090132D01*
X100939370Y-74083019D01*
X100960980Y-74071468D01*
X100979922Y-74055922D01*
X100995468Y-74036980D01*
X101007019Y-74015369D01*
X101014132Y-73991920D01*
X101016534Y-73967534D01*
X101014132Y-73943148D01*
X100945000Y-73595597D01*
X100945000Y-73216403D01*
X101018976Y-72844501D01*
X101018977Y-72844498D01*
X101164087Y-72494171D01*
X101374755Y-72178884D01*
X101374757Y-72178881D01*
X101642881Y-71910757D01*
X101958170Y-71700088D01*
X101958171Y-71700087D01*
X102308498Y-71554977D01*
X102308499Y-71554977D01*
X102308501Y-71554976D01*
X102680403Y-71481000D01*
X103059597Y-71481000D01*
X103431499Y-71554976D01*
X103431499Y-71554976D01*
G37*
G36*
X121211499Y-71554976D02*
X121211501Y-71554977D01*
X121211502Y-71554977D01*
X121561829Y-71700087D01*
X121561830Y-71700088D01*
X121877119Y-71910757D01*
X122145243Y-72178881D01*
X122145245Y-72178884D01*
X122355913Y-72494171D01*
X122501023Y-72844498D01*
X122501024Y-72844501D01*
X122575000Y-73216403D01*
X122575000Y-73595597D01*
X122505868Y-73943148D01*
X122501023Y-73967502D01*
X122355913Y-74317829D01*
X122355912Y-74317830D01*
X122145243Y-74633119D01*
X121877119Y-74901243D01*
X121877116Y-74901245D01*
X121561829Y-75111913D01*
X121211502Y-75257023D01*
X121211501Y-75257023D01*
X121211499Y-75257024D01*
X120839597Y-75331000D01*
X120460403Y-75331000D01*
X120112852Y-75261868D01*
X120088466Y-75259466D01*
X120064080Y-75261868D01*
X120040630Y-75268981D01*
X120019020Y-75280532D01*
X120000078Y-75296078D01*
X119984532Y-75315020D01*
X119972981Y-75336631D01*
X119965868Y-75360080D01*
X119963466Y-75384466D01*
X119965868Y-75408852D01*
X120035000Y-75756403D01*
X120035000Y-76135596D01*
X119961023Y-76507502D01*
X119815913Y-76857829D01*
X119815912Y-76857830D01*
X119605243Y-77173119D01*
X119337119Y-77441243D01*
X119337116Y-77441245D01*
X119021829Y-77651913D01*
X118671502Y-77797023D01*
X118671501Y-77797023D01*
X118671499Y-77797024D01*
X118299597Y-77871000D01*
X117920403Y-77871000D01*
X117548501Y-77797024D01*
X117548499Y-77797023D01*
X117548498Y-77797023D01*
X117198171Y-77651913D01*
X116882884Y-77441245D01*
X116882881Y-77441243D01*
X116614757Y-77173119D01*
X116404088Y-76857830D01*
X116404087Y-76857829D01*
X116258977Y-76507502D01*
X116185000Y-76135596D01*
X116185000Y-75756403D01*
X116258976Y-75384501D01*
X116258990Y-75384466D01*
X116404087Y-75034171D01*
X116614755Y-74718884D01*
X116614757Y-74718881D01*
X116882881Y-74450757D01*
X116887132Y-74447916D01*
X117198171Y-74240087D01*
X117548498Y-74094977D01*
X117548499Y-74094977D01*
X117548501Y-74094976D01*
X117920403Y-74021000D01*
X118299597Y-74021000D01*
X118647148Y-74090132D01*
X118671534Y-74092534D01*
X118695920Y-74090132D01*
X118719370Y-74083019D01*
X118740980Y-74071468D01*
X118759922Y-74055922D01*
X118775468Y-74036980D01*
X118787019Y-74015369D01*
X118794132Y-73991920D01*
X118796534Y-73967534D01*
X118794132Y-73943148D01*
X118725000Y-73595597D01*
X118725000Y-73216403D01*
X118798976Y-72844501D01*
X118798977Y-72844498D01*
X118944087Y-72494171D01*
X119154755Y-72178884D01*
X119154757Y-72178881D01*
X119422881Y-71910757D01*
X119738170Y-71700088D01*
X119738171Y-71700087D01*
X120088498Y-71554977D01*
X120088499Y-71554977D01*
X120088501Y-71554976D01*
X120460403Y-71481000D01*
X120839597Y-71481000D01*
X121211499Y-71554976D01*
X121211499Y-71554976D01*
G37*
G36*
X90731499Y-71554976D02*
X90731501Y-71554977D01*
X90731502Y-71554977D01*
X91081829Y-71700087D01*
X91081830Y-71700088D01*
X91397119Y-71910757D01*
X91665243Y-72178881D01*
X91665245Y-72178884D01*
X91875913Y-72494171D01*
X92021023Y-72844498D01*
X92021024Y-72844501D01*
X92095000Y-73216403D01*
X92095000Y-73595597D01*
X92025868Y-73943148D01*
X92023466Y-73967534D01*
X92025868Y-73991920D01*
X92032981Y-74015370D01*
X92044532Y-74036980D01*
X92060078Y-74055922D01*
X92079020Y-74071468D01*
X92100631Y-74083019D01*
X92124080Y-74090132D01*
X92148466Y-74092534D01*
X92172852Y-74090132D01*
X92520403Y-74021000D01*
X92899597Y-74021000D01*
X93271499Y-74094976D01*
X93271501Y-74094977D01*
X93271502Y-74094977D01*
X93621829Y-74240087D01*
X93932868Y-74447916D01*
X93937119Y-74450757D01*
X94205243Y-74718881D01*
X94205245Y-74718884D01*
X94415913Y-75034171D01*
X94561010Y-75384466D01*
X94561024Y-75384501D01*
X94635000Y-75756403D01*
X94635000Y-76135596D01*
X94561023Y-76507502D01*
X94415913Y-76857829D01*
X94415912Y-76857830D01*
X94205243Y-77173119D01*
X93937119Y-77441243D01*
X93937116Y-77441245D01*
X93621829Y-77651913D01*
X93271502Y-77797023D01*
X93271501Y-77797023D01*
X93271499Y-77797024D01*
X92899597Y-77871000D01*
X92520403Y-77871000D01*
X92148501Y-77797024D01*
X92148499Y-77797023D01*
X92148498Y-77797023D01*
X91798171Y-77651913D01*
X91482884Y-77441245D01*
X91482881Y-77441243D01*
X91214757Y-77173119D01*
X91004088Y-76857830D01*
X91004087Y-76857829D01*
X90858977Y-76507502D01*
X90785000Y-76135596D01*
X90785000Y-75756403D01*
X90854132Y-75408852D01*
X90856534Y-75384466D01*
X90854132Y-75360080D01*
X90847019Y-75336630D01*
X90835468Y-75315020D01*
X90819922Y-75296078D01*
X90800980Y-75280532D01*
X90779369Y-75268981D01*
X90755920Y-75261868D01*
X90731534Y-75259466D01*
X90707148Y-75261868D01*
X90359597Y-75331000D01*
X89980403Y-75331000D01*
X89608501Y-75257024D01*
X89608499Y-75257023D01*
X89608498Y-75257023D01*
X89258171Y-75111913D01*
X88942884Y-74901245D01*
X88942881Y-74901243D01*
X88674757Y-74633119D01*
X88464088Y-74317830D01*
X88464087Y-74317829D01*
X88318977Y-73967502D01*
X88314133Y-73943148D01*
X88245000Y-73595597D01*
X88245000Y-73216403D01*
X88318976Y-72844501D01*
X88318977Y-72844498D01*
X88464087Y-72494171D01*
X88674755Y-72178884D01*
X88674757Y-72178881D01*
X88942881Y-71910757D01*
X89258170Y-71700088D01*
X89258171Y-71700087D01*
X89608498Y-71554977D01*
X89608499Y-71554977D01*
X89608501Y-71554976D01*
X89980403Y-71481000D01*
X90359597Y-71481000D01*
X90731499Y-71554976D01*
X90731499Y-71554976D01*
G37*
G36*
X72951499Y-71554976D02*
X72951501Y-71554977D01*
X72951502Y-71554977D01*
X73301829Y-71700087D01*
X73301830Y-71700088D01*
X73617119Y-71910757D01*
X73885243Y-72178881D01*
X73885245Y-72178884D01*
X74095913Y-72494171D01*
X74241023Y-72844498D01*
X74241024Y-72844501D01*
X74315000Y-73216403D01*
X74315000Y-73595597D01*
X74245868Y-73943148D01*
X74243466Y-73967534D01*
X74245868Y-73991920D01*
X74252981Y-74015370D01*
X74264532Y-74036980D01*
X74280078Y-74055922D01*
X74299020Y-74071468D01*
X74320631Y-74083019D01*
X74344080Y-74090132D01*
X74368466Y-74092534D01*
X74392852Y-74090132D01*
X74740403Y-74021000D01*
X75119597Y-74021000D01*
X75491499Y-74094976D01*
X75491501Y-74094977D01*
X75491502Y-74094977D01*
X75841829Y-74240087D01*
X76152868Y-74447916D01*
X76157119Y-74450757D01*
X76425243Y-74718881D01*
X76425245Y-74718884D01*
X76635913Y-75034171D01*
X76781010Y-75384466D01*
X76781024Y-75384501D01*
X76855000Y-75756403D01*
X76855000Y-76135596D01*
X76781023Y-76507502D01*
X76635913Y-76857829D01*
X76635912Y-76857830D01*
X76425243Y-77173119D01*
X76157119Y-77441243D01*
X76157116Y-77441245D01*
X75841829Y-77651913D01*
X75491502Y-77797023D01*
X75491501Y-77797023D01*
X75491499Y-77797024D01*
X75119597Y-77871000D01*
X74740403Y-77871000D01*
X74368501Y-77797024D01*
X74368499Y-77797023D01*
X74368498Y-77797023D01*
X74018171Y-77651913D01*
X73702884Y-77441245D01*
X73702881Y-77441243D01*
X73434757Y-77173119D01*
X73224088Y-76857830D01*
X73224087Y-76857829D01*
X73078977Y-76507502D01*
X73005000Y-76135596D01*
X73005000Y-75756403D01*
X73074132Y-75408852D01*
X73076534Y-75384466D01*
X73074132Y-75360080D01*
X73067019Y-75336630D01*
X73055468Y-75315020D01*
X73039922Y-75296078D01*
X73020980Y-75280532D01*
X72999369Y-75268981D01*
X72975920Y-75261868D01*
X72951534Y-75259466D01*
X72927148Y-75261868D01*
X72579597Y-75331000D01*
X72200403Y-75331000D01*
X71828501Y-75257024D01*
X71828499Y-75257023D01*
X71828498Y-75257023D01*
X71478171Y-75111913D01*
X71162884Y-74901245D01*
X71162881Y-74901243D01*
X70894757Y-74633119D01*
X70684088Y-74317830D01*
X70684087Y-74317829D01*
X70538977Y-73967502D01*
X70534133Y-73943148D01*
X70465000Y-73595597D01*
X70465000Y-73216403D01*
X70538976Y-72844501D01*
X70538977Y-72844498D01*
X70684087Y-72494171D01*
X70894755Y-72178884D01*
X70894757Y-72178881D01*
X71162881Y-71910757D01*
X71478170Y-71700088D01*
X71478171Y-71700087D01*
X71828498Y-71554977D01*
X71828499Y-71554977D01*
X71828501Y-71554976D01*
X72200403Y-71481000D01*
X72579597Y-71481000D01*
X72951499Y-71554976D01*
X72951499Y-71554976D01*
G37*
G36*
X85651499Y-71554976D02*
X85651501Y-71554977D01*
X85651502Y-71554977D01*
X86001829Y-71700087D01*
X86001830Y-71700088D01*
X86317119Y-71910757D01*
X86585243Y-72178881D01*
X86585245Y-72178884D01*
X86795913Y-72494171D01*
X86941023Y-72844498D01*
X86941024Y-72844501D01*
X87015000Y-73216403D01*
X87015000Y-73595597D01*
X86945868Y-73943148D01*
X86941023Y-73967502D01*
X86795913Y-74317829D01*
X86795912Y-74317830D01*
X86585243Y-74633119D01*
X86317119Y-74901243D01*
X86317116Y-74901245D01*
X86001829Y-75111913D01*
X85651502Y-75257023D01*
X85651501Y-75257023D01*
X85651499Y-75257024D01*
X85279597Y-75331000D01*
X84900403Y-75331000D01*
X84552852Y-75261868D01*
X84528466Y-75259466D01*
X84504080Y-75261868D01*
X84480630Y-75268981D01*
X84459020Y-75280532D01*
X84440078Y-75296078D01*
X84424532Y-75315020D01*
X84412981Y-75336631D01*
X84405868Y-75360080D01*
X84403466Y-75384466D01*
X84405868Y-75408852D01*
X84475000Y-75756403D01*
X84475000Y-76135596D01*
X84401023Y-76507502D01*
X84255913Y-76857829D01*
X84255912Y-76857830D01*
X84045243Y-77173119D01*
X83777119Y-77441243D01*
X83777116Y-77441245D01*
X83461829Y-77651913D01*
X83111502Y-77797023D01*
X83111501Y-77797023D01*
X83111499Y-77797024D01*
X82739597Y-77871000D01*
X82360403Y-77871000D01*
X81988501Y-77797024D01*
X81988499Y-77797023D01*
X81988498Y-77797023D01*
X81638171Y-77651913D01*
X81322884Y-77441245D01*
X81322881Y-77441243D01*
X81054757Y-77173119D01*
X80844088Y-76857830D01*
X80844087Y-76857829D01*
X80698977Y-76507502D01*
X80625000Y-76135596D01*
X80625000Y-75756403D01*
X80698976Y-75384501D01*
X80698990Y-75384466D01*
X80844087Y-75034171D01*
X81054755Y-74718884D01*
X81054757Y-74718881D01*
X81322881Y-74450757D01*
X81327132Y-74447916D01*
X81638171Y-74240087D01*
X81988498Y-74094977D01*
X81988499Y-74094977D01*
X81988501Y-74094976D01*
X82360403Y-74021000D01*
X82739597Y-74021000D01*
X83087148Y-74090132D01*
X83111534Y-74092534D01*
X83135920Y-74090132D01*
X83159370Y-74083019D01*
X83180980Y-74071468D01*
X83199922Y-74055922D01*
X83215468Y-74036980D01*
X83227019Y-74015369D01*
X83234132Y-73991920D01*
X83236534Y-73967534D01*
X83234132Y-73943148D01*
X83165000Y-73595597D01*
X83165000Y-73216403D01*
X83238976Y-72844501D01*
X83238977Y-72844498D01*
X83384087Y-72494171D01*
X83594755Y-72178884D01*
X83594757Y-72178881D01*
X83862881Y-71910757D01*
X84178170Y-71700088D01*
X84178171Y-71700087D01*
X84528498Y-71554977D01*
X84528499Y-71554977D01*
X84528501Y-71554976D01*
X84900403Y-71481000D01*
X85279597Y-71481000D01*
X85651499Y-71554976D01*
X85651499Y-71554976D01*
G37*
G36*
X108511499Y-71554976D02*
X108511501Y-71554977D01*
X108511502Y-71554977D01*
X108861829Y-71700087D01*
X108861830Y-71700088D01*
X109177119Y-71910757D01*
X109445243Y-72178881D01*
X109445245Y-72178884D01*
X109655913Y-72494171D01*
X109801023Y-72844498D01*
X109801024Y-72844501D01*
X109875000Y-73216403D01*
X109875000Y-73595597D01*
X109805868Y-73943148D01*
X109803466Y-73967534D01*
X109805868Y-73991920D01*
X109812981Y-74015370D01*
X109824532Y-74036980D01*
X109840078Y-74055922D01*
X109859020Y-74071468D01*
X109880631Y-74083019D01*
X109904080Y-74090132D01*
X109928466Y-74092534D01*
X109952852Y-74090132D01*
X110300403Y-74021000D01*
X110679597Y-74021000D01*
X111051499Y-74094976D01*
X111051501Y-74094977D01*
X111051502Y-74094977D01*
X111401829Y-74240087D01*
X111712868Y-74447916D01*
X111717119Y-74450757D01*
X111985243Y-74718881D01*
X111985245Y-74718884D01*
X112195913Y-75034171D01*
X112341010Y-75384466D01*
X112341024Y-75384501D01*
X112415000Y-75756403D01*
X112415000Y-76135596D01*
X112341023Y-76507502D01*
X112195913Y-76857829D01*
X112195912Y-76857830D01*
X111985243Y-77173119D01*
X111717119Y-77441243D01*
X111717116Y-77441245D01*
X111401829Y-77651913D01*
X111051502Y-77797023D01*
X111051501Y-77797023D01*
X111051499Y-77797024D01*
X110679597Y-77871000D01*
X110300403Y-77871000D01*
X109928501Y-77797024D01*
X109928499Y-77797023D01*
X109928498Y-77797023D01*
X109578171Y-77651913D01*
X109262884Y-77441245D01*
X109262881Y-77441243D01*
X108994757Y-77173119D01*
X108784088Y-76857830D01*
X108784087Y-76857829D01*
X108638977Y-76507502D01*
X108565000Y-76135596D01*
X108565000Y-75756403D01*
X108634132Y-75408852D01*
X108636534Y-75384466D01*
X108634132Y-75360080D01*
X108627019Y-75336630D01*
X108615468Y-75315020D01*
X108599922Y-75296078D01*
X108580980Y-75280532D01*
X108559369Y-75268981D01*
X108535920Y-75261868D01*
X108511534Y-75259466D01*
X108487148Y-75261868D01*
X108139597Y-75331000D01*
X107760403Y-75331000D01*
X107388501Y-75257024D01*
X107388499Y-75257023D01*
X107388498Y-75257023D01*
X107038171Y-75111913D01*
X106722884Y-74901245D01*
X106722881Y-74901243D01*
X106454757Y-74633119D01*
X106244088Y-74317830D01*
X106244087Y-74317829D01*
X106098977Y-73967502D01*
X106094133Y-73943148D01*
X106025000Y-73595597D01*
X106025000Y-73216403D01*
X106098976Y-72844501D01*
X106098977Y-72844498D01*
X106244087Y-72494171D01*
X106454755Y-72178884D01*
X106454757Y-72178881D01*
X106722881Y-71910757D01*
X107038170Y-71700088D01*
X107038171Y-71700087D01*
X107388498Y-71554977D01*
X107388499Y-71554977D01*
X107388501Y-71554976D01*
X107760403Y-71481000D01*
X108139597Y-71481000D01*
X108511499Y-71554976D01*
X108511499Y-71554976D01*
G37*
M02*
