M48
;DRILL file {KiCad (5.0.2)-1} date 3/3/2019 3:18:14 PM
;FORMAT={-:-/ absolute / inch / decimal}
FMAT,2
INCH,TZ
T1C0.0157
T2C0.0300
T3C0.0350
T4C0.0354
T5C0.0591
T6C0.1598
%
G90
G05
T1
X2.81Y-3.83
X2.9Y-3.38
X2.9Y-5.56
X3.09Y-3.93
X3.1Y-5.08
X3.14Y-3.89
X3.18Y-3.83
X3.18Y-5.51
X3.28Y-5.54
X3.29Y-3.38
X3.4Y-4.51
X3.4Y-5.51
X3.5Y-4.51
X3.5Y-5.51
X3.51Y-3.83
X3.6Y-3.38
X3.6Y-5.51
X3.7Y-5.51
X3.76Y-3.89
X3.78Y-5.1
X3.81Y-3.93
X3.88Y-3.83
X3.99Y-3.38
X4.Y-4.42
X4.21Y-3.83
X4.3Y-3.38
X4.3Y-4.38
X4.47Y-3.84
X4.52Y-3.84
X4.58Y-3.83
X4.6Y-4.42
X4.69Y-3.38
T2
X3.7Y-3.33
X4.4Y-3.33
X3.Y-3.33
T3
X3.75Y-4.73
X3.75Y-4.83
X3.75Y-4.93
T4
X3.1Y-3.33
X3.2Y-3.33
X3.6Y-3.23
X3.7Y-3.23
X3.8Y-3.23
X3.9Y-3.23
X4.Y-3.23
X2.9Y-3.23
X3.Y-3.23
X3.1Y-3.23
X3.2Y-3.23
X3.3Y-3.23
X5.Y-4.1398
X5.Y-4.2186
X5.Y-4.2973
X3.8Y-3.33
X3.9Y-3.33
X4.5Y-3.33
X4.6Y-3.33
X4.3Y-3.23
X4.4Y-3.23
X4.5Y-3.23
X4.6Y-3.23
X4.7Y-3.23
T5
X5.Y-4.0572
X5.Y-4.38
T6
X4.1Y-4.68
X4.1Y-4.99
T0
M30
