G04 #@! TF.GenerationSoftware,KiCad,Pcbnew,(5.0.2)-1*
G04 #@! TF.CreationDate,2019-03-03T15:18:12-06:00*
G04 #@! TF.ProjectId,DriveBoard_Hardware,44726976-6542-46f6-9172-645f48617264,rev?*
G04 #@! TF.SameCoordinates,Original*
G04 #@! TF.FileFunction,Paste,Top*
G04 #@! TF.FilePolarity,Positive*
%FSLAX46Y46*%
G04 Gerber Fmt 4.6, Leading zero omitted, Abs format (unit mm)*
G04 Created by KiCad (PCBNEW (5.0.2)-1) date 3/3/2019 3:18:12 PM*
%MOMM*%
%LPD*%
G01*
G04 APERTURE LIST*
%ADD10C,0.100000*%
%ADD11C,0.950000*%
%ADD12C,5.080000*%
%ADD13R,1.400000X1.600000*%
%ADD14R,0.600000X1.550000*%
G04 APERTURE END LIST*
D10*
G04 #@! TO.C,C1*
G36*
X94290779Y-96808144D02*
X94313834Y-96811563D01*
X94336443Y-96817227D01*
X94358387Y-96825079D01*
X94379457Y-96835044D01*
X94399448Y-96847026D01*
X94418168Y-96860910D01*
X94435438Y-96876562D01*
X94451090Y-96893832D01*
X94464974Y-96912552D01*
X94476956Y-96932543D01*
X94486921Y-96953613D01*
X94494773Y-96975557D01*
X94500437Y-96998166D01*
X94503856Y-97021221D01*
X94505000Y-97044500D01*
X94505000Y-97519500D01*
X94503856Y-97542779D01*
X94500437Y-97565834D01*
X94494773Y-97588443D01*
X94486921Y-97610387D01*
X94476956Y-97631457D01*
X94464974Y-97651448D01*
X94451090Y-97670168D01*
X94435438Y-97687438D01*
X94418168Y-97703090D01*
X94399448Y-97716974D01*
X94379457Y-97728956D01*
X94358387Y-97738921D01*
X94336443Y-97746773D01*
X94313834Y-97752437D01*
X94290779Y-97755856D01*
X94267500Y-97757000D01*
X93692500Y-97757000D01*
X93669221Y-97755856D01*
X93646166Y-97752437D01*
X93623557Y-97746773D01*
X93601613Y-97738921D01*
X93580543Y-97728956D01*
X93560552Y-97716974D01*
X93541832Y-97703090D01*
X93524562Y-97687438D01*
X93508910Y-97670168D01*
X93495026Y-97651448D01*
X93483044Y-97631457D01*
X93473079Y-97610387D01*
X93465227Y-97588443D01*
X93459563Y-97565834D01*
X93456144Y-97542779D01*
X93455000Y-97519500D01*
X93455000Y-97044500D01*
X93456144Y-97021221D01*
X93459563Y-96998166D01*
X93465227Y-96975557D01*
X93473079Y-96953613D01*
X93483044Y-96932543D01*
X93495026Y-96912552D01*
X93508910Y-96893832D01*
X93524562Y-96876562D01*
X93541832Y-96860910D01*
X93560552Y-96847026D01*
X93580543Y-96835044D01*
X93601613Y-96825079D01*
X93623557Y-96817227D01*
X93646166Y-96811563D01*
X93669221Y-96808144D01*
X93692500Y-96807000D01*
X94267500Y-96807000D01*
X94290779Y-96808144D01*
X94290779Y-96808144D01*
G37*
D11*
X93980000Y-97282000D03*
D10*
G36*
X92540779Y-96808144D02*
X92563834Y-96811563D01*
X92586443Y-96817227D01*
X92608387Y-96825079D01*
X92629457Y-96835044D01*
X92649448Y-96847026D01*
X92668168Y-96860910D01*
X92685438Y-96876562D01*
X92701090Y-96893832D01*
X92714974Y-96912552D01*
X92726956Y-96932543D01*
X92736921Y-96953613D01*
X92744773Y-96975557D01*
X92750437Y-96998166D01*
X92753856Y-97021221D01*
X92755000Y-97044500D01*
X92755000Y-97519500D01*
X92753856Y-97542779D01*
X92750437Y-97565834D01*
X92744773Y-97588443D01*
X92736921Y-97610387D01*
X92726956Y-97631457D01*
X92714974Y-97651448D01*
X92701090Y-97670168D01*
X92685438Y-97687438D01*
X92668168Y-97703090D01*
X92649448Y-97716974D01*
X92629457Y-97728956D01*
X92608387Y-97738921D01*
X92586443Y-97746773D01*
X92563834Y-97752437D01*
X92540779Y-97755856D01*
X92517500Y-97757000D01*
X91942500Y-97757000D01*
X91919221Y-97755856D01*
X91896166Y-97752437D01*
X91873557Y-97746773D01*
X91851613Y-97738921D01*
X91830543Y-97728956D01*
X91810552Y-97716974D01*
X91791832Y-97703090D01*
X91774562Y-97687438D01*
X91758910Y-97670168D01*
X91745026Y-97651448D01*
X91733044Y-97631457D01*
X91723079Y-97610387D01*
X91715227Y-97588443D01*
X91709563Y-97565834D01*
X91706144Y-97542779D01*
X91705000Y-97519500D01*
X91705000Y-97044500D01*
X91706144Y-97021221D01*
X91709563Y-96998166D01*
X91715227Y-96975557D01*
X91723079Y-96953613D01*
X91733044Y-96932543D01*
X91745026Y-96912552D01*
X91758910Y-96893832D01*
X91774562Y-96876562D01*
X91791832Y-96860910D01*
X91810552Y-96847026D01*
X91830543Y-96835044D01*
X91851613Y-96825079D01*
X91873557Y-96817227D01*
X91896166Y-96811563D01*
X91919221Y-96808144D01*
X91942500Y-96807000D01*
X92517500Y-96807000D01*
X92540779Y-96808144D01*
X92540779Y-96808144D01*
G37*
D11*
X92230000Y-97282000D03*
G04 #@! TD*
D10*
G04 #@! TO.C,C2*
G36*
X98050779Y-124698144D02*
X98073834Y-124701563D01*
X98096443Y-124707227D01*
X98118387Y-124715079D01*
X98139457Y-124725044D01*
X98159448Y-124737026D01*
X98178168Y-124750910D01*
X98195438Y-124766562D01*
X98211090Y-124783832D01*
X98224974Y-124802552D01*
X98236956Y-124822543D01*
X98246921Y-124843613D01*
X98254773Y-124865557D01*
X98260437Y-124888166D01*
X98263856Y-124911221D01*
X98265000Y-124934500D01*
X98265000Y-125509500D01*
X98263856Y-125532779D01*
X98260437Y-125555834D01*
X98254773Y-125578443D01*
X98246921Y-125600387D01*
X98236956Y-125621457D01*
X98224974Y-125641448D01*
X98211090Y-125660168D01*
X98195438Y-125677438D01*
X98178168Y-125693090D01*
X98159448Y-125706974D01*
X98139457Y-125718956D01*
X98118387Y-125728921D01*
X98096443Y-125736773D01*
X98073834Y-125742437D01*
X98050779Y-125745856D01*
X98027500Y-125747000D01*
X97552500Y-125747000D01*
X97529221Y-125745856D01*
X97506166Y-125742437D01*
X97483557Y-125736773D01*
X97461613Y-125728921D01*
X97440543Y-125718956D01*
X97420552Y-125706974D01*
X97401832Y-125693090D01*
X97384562Y-125677438D01*
X97368910Y-125660168D01*
X97355026Y-125641448D01*
X97343044Y-125621457D01*
X97333079Y-125600387D01*
X97325227Y-125578443D01*
X97319563Y-125555834D01*
X97316144Y-125532779D01*
X97315000Y-125509500D01*
X97315000Y-124934500D01*
X97316144Y-124911221D01*
X97319563Y-124888166D01*
X97325227Y-124865557D01*
X97333079Y-124843613D01*
X97343044Y-124822543D01*
X97355026Y-124802552D01*
X97368910Y-124783832D01*
X97384562Y-124766562D01*
X97401832Y-124750910D01*
X97420552Y-124737026D01*
X97440543Y-124725044D01*
X97461613Y-124715079D01*
X97483557Y-124707227D01*
X97506166Y-124701563D01*
X97529221Y-124698144D01*
X97552500Y-124697000D01*
X98027500Y-124697000D01*
X98050779Y-124698144D01*
X98050779Y-124698144D01*
G37*
D11*
X97790000Y-125222000D03*
D10*
G36*
X98050779Y-126448144D02*
X98073834Y-126451563D01*
X98096443Y-126457227D01*
X98118387Y-126465079D01*
X98139457Y-126475044D01*
X98159448Y-126487026D01*
X98178168Y-126500910D01*
X98195438Y-126516562D01*
X98211090Y-126533832D01*
X98224974Y-126552552D01*
X98236956Y-126572543D01*
X98246921Y-126593613D01*
X98254773Y-126615557D01*
X98260437Y-126638166D01*
X98263856Y-126661221D01*
X98265000Y-126684500D01*
X98265000Y-127259500D01*
X98263856Y-127282779D01*
X98260437Y-127305834D01*
X98254773Y-127328443D01*
X98246921Y-127350387D01*
X98236956Y-127371457D01*
X98224974Y-127391448D01*
X98211090Y-127410168D01*
X98195438Y-127427438D01*
X98178168Y-127443090D01*
X98159448Y-127456974D01*
X98139457Y-127468956D01*
X98118387Y-127478921D01*
X98096443Y-127486773D01*
X98073834Y-127492437D01*
X98050779Y-127495856D01*
X98027500Y-127497000D01*
X97552500Y-127497000D01*
X97529221Y-127495856D01*
X97506166Y-127492437D01*
X97483557Y-127486773D01*
X97461613Y-127478921D01*
X97440543Y-127468956D01*
X97420552Y-127456974D01*
X97401832Y-127443090D01*
X97384562Y-127427438D01*
X97368910Y-127410168D01*
X97355026Y-127391448D01*
X97343044Y-127371457D01*
X97333079Y-127350387D01*
X97325227Y-127328443D01*
X97319563Y-127305834D01*
X97316144Y-127282779D01*
X97315000Y-127259500D01*
X97315000Y-126684500D01*
X97316144Y-126661221D01*
X97319563Y-126638166D01*
X97325227Y-126615557D01*
X97333079Y-126593613D01*
X97343044Y-126572543D01*
X97355026Y-126552552D01*
X97368910Y-126533832D01*
X97384562Y-126516562D01*
X97401832Y-126500910D01*
X97420552Y-126487026D01*
X97440543Y-126475044D01*
X97461613Y-126465079D01*
X97483557Y-126457227D01*
X97506166Y-126451563D01*
X97529221Y-126448144D01*
X97552500Y-126447000D01*
X98027500Y-126447000D01*
X98050779Y-126448144D01*
X98050779Y-126448144D01*
G37*
D11*
X97790000Y-126972000D03*
G04 #@! TD*
D10*
G04 #@! TO.C,C3*
G36*
X76510779Y-96808144D02*
X76533834Y-96811563D01*
X76556443Y-96817227D01*
X76578387Y-96825079D01*
X76599457Y-96835044D01*
X76619448Y-96847026D01*
X76638168Y-96860910D01*
X76655438Y-96876562D01*
X76671090Y-96893832D01*
X76684974Y-96912552D01*
X76696956Y-96932543D01*
X76706921Y-96953613D01*
X76714773Y-96975557D01*
X76720437Y-96998166D01*
X76723856Y-97021221D01*
X76725000Y-97044500D01*
X76725000Y-97519500D01*
X76723856Y-97542779D01*
X76720437Y-97565834D01*
X76714773Y-97588443D01*
X76706921Y-97610387D01*
X76696956Y-97631457D01*
X76684974Y-97651448D01*
X76671090Y-97670168D01*
X76655438Y-97687438D01*
X76638168Y-97703090D01*
X76619448Y-97716974D01*
X76599457Y-97728956D01*
X76578387Y-97738921D01*
X76556443Y-97746773D01*
X76533834Y-97752437D01*
X76510779Y-97755856D01*
X76487500Y-97757000D01*
X75912500Y-97757000D01*
X75889221Y-97755856D01*
X75866166Y-97752437D01*
X75843557Y-97746773D01*
X75821613Y-97738921D01*
X75800543Y-97728956D01*
X75780552Y-97716974D01*
X75761832Y-97703090D01*
X75744562Y-97687438D01*
X75728910Y-97670168D01*
X75715026Y-97651448D01*
X75703044Y-97631457D01*
X75693079Y-97610387D01*
X75685227Y-97588443D01*
X75679563Y-97565834D01*
X75676144Y-97542779D01*
X75675000Y-97519500D01*
X75675000Y-97044500D01*
X75676144Y-97021221D01*
X75679563Y-96998166D01*
X75685227Y-96975557D01*
X75693079Y-96953613D01*
X75703044Y-96932543D01*
X75715026Y-96912552D01*
X75728910Y-96893832D01*
X75744562Y-96876562D01*
X75761832Y-96860910D01*
X75780552Y-96847026D01*
X75800543Y-96835044D01*
X75821613Y-96825079D01*
X75843557Y-96817227D01*
X75866166Y-96811563D01*
X75889221Y-96808144D01*
X75912500Y-96807000D01*
X76487500Y-96807000D01*
X76510779Y-96808144D01*
X76510779Y-96808144D01*
G37*
D11*
X76200000Y-97282000D03*
D10*
G36*
X74760779Y-96808144D02*
X74783834Y-96811563D01*
X74806443Y-96817227D01*
X74828387Y-96825079D01*
X74849457Y-96835044D01*
X74869448Y-96847026D01*
X74888168Y-96860910D01*
X74905438Y-96876562D01*
X74921090Y-96893832D01*
X74934974Y-96912552D01*
X74946956Y-96932543D01*
X74956921Y-96953613D01*
X74964773Y-96975557D01*
X74970437Y-96998166D01*
X74973856Y-97021221D01*
X74975000Y-97044500D01*
X74975000Y-97519500D01*
X74973856Y-97542779D01*
X74970437Y-97565834D01*
X74964773Y-97588443D01*
X74956921Y-97610387D01*
X74946956Y-97631457D01*
X74934974Y-97651448D01*
X74921090Y-97670168D01*
X74905438Y-97687438D01*
X74888168Y-97703090D01*
X74869448Y-97716974D01*
X74849457Y-97728956D01*
X74828387Y-97738921D01*
X74806443Y-97746773D01*
X74783834Y-97752437D01*
X74760779Y-97755856D01*
X74737500Y-97757000D01*
X74162500Y-97757000D01*
X74139221Y-97755856D01*
X74116166Y-97752437D01*
X74093557Y-97746773D01*
X74071613Y-97738921D01*
X74050543Y-97728956D01*
X74030552Y-97716974D01*
X74011832Y-97703090D01*
X73994562Y-97687438D01*
X73978910Y-97670168D01*
X73965026Y-97651448D01*
X73953044Y-97631457D01*
X73943079Y-97610387D01*
X73935227Y-97588443D01*
X73929563Y-97565834D01*
X73926144Y-97542779D01*
X73925000Y-97519500D01*
X73925000Y-97044500D01*
X73926144Y-97021221D01*
X73929563Y-96998166D01*
X73935227Y-96975557D01*
X73943079Y-96953613D01*
X73953044Y-96932543D01*
X73965026Y-96912552D01*
X73978910Y-96893832D01*
X73994562Y-96876562D01*
X74011832Y-96860910D01*
X74030552Y-96847026D01*
X74050543Y-96835044D01*
X74071613Y-96825079D01*
X74093557Y-96817227D01*
X74116166Y-96811563D01*
X74139221Y-96808144D01*
X74162500Y-96807000D01*
X74737500Y-96807000D01*
X74760779Y-96808144D01*
X74760779Y-96808144D01*
G37*
D11*
X74450000Y-97282000D03*
G04 #@! TD*
D10*
G04 #@! TO.C,C7*
G36*
X98050779Y-117868144D02*
X98073834Y-117871563D01*
X98096443Y-117877227D01*
X98118387Y-117885079D01*
X98139457Y-117895044D01*
X98159448Y-117907026D01*
X98178168Y-117920910D01*
X98195438Y-117936562D01*
X98211090Y-117953832D01*
X98224974Y-117972552D01*
X98236956Y-117992543D01*
X98246921Y-118013613D01*
X98254773Y-118035557D01*
X98260437Y-118058166D01*
X98263856Y-118081221D01*
X98265000Y-118104500D01*
X98265000Y-118679500D01*
X98263856Y-118702779D01*
X98260437Y-118725834D01*
X98254773Y-118748443D01*
X98246921Y-118770387D01*
X98236956Y-118791457D01*
X98224974Y-118811448D01*
X98211090Y-118830168D01*
X98195438Y-118847438D01*
X98178168Y-118863090D01*
X98159448Y-118876974D01*
X98139457Y-118888956D01*
X98118387Y-118898921D01*
X98096443Y-118906773D01*
X98073834Y-118912437D01*
X98050779Y-118915856D01*
X98027500Y-118917000D01*
X97552500Y-118917000D01*
X97529221Y-118915856D01*
X97506166Y-118912437D01*
X97483557Y-118906773D01*
X97461613Y-118898921D01*
X97440543Y-118888956D01*
X97420552Y-118876974D01*
X97401832Y-118863090D01*
X97384562Y-118847438D01*
X97368910Y-118830168D01*
X97355026Y-118811448D01*
X97343044Y-118791457D01*
X97333079Y-118770387D01*
X97325227Y-118748443D01*
X97319563Y-118725834D01*
X97316144Y-118702779D01*
X97315000Y-118679500D01*
X97315000Y-118104500D01*
X97316144Y-118081221D01*
X97319563Y-118058166D01*
X97325227Y-118035557D01*
X97333079Y-118013613D01*
X97343044Y-117992543D01*
X97355026Y-117972552D01*
X97368910Y-117953832D01*
X97384562Y-117936562D01*
X97401832Y-117920910D01*
X97420552Y-117907026D01*
X97440543Y-117895044D01*
X97461613Y-117885079D01*
X97483557Y-117877227D01*
X97506166Y-117871563D01*
X97529221Y-117868144D01*
X97552500Y-117867000D01*
X98027500Y-117867000D01*
X98050779Y-117868144D01*
X98050779Y-117868144D01*
G37*
D11*
X97790000Y-118392000D03*
D10*
G36*
X98050779Y-119618144D02*
X98073834Y-119621563D01*
X98096443Y-119627227D01*
X98118387Y-119635079D01*
X98139457Y-119645044D01*
X98159448Y-119657026D01*
X98178168Y-119670910D01*
X98195438Y-119686562D01*
X98211090Y-119703832D01*
X98224974Y-119722552D01*
X98236956Y-119742543D01*
X98246921Y-119763613D01*
X98254773Y-119785557D01*
X98260437Y-119808166D01*
X98263856Y-119831221D01*
X98265000Y-119854500D01*
X98265000Y-120429500D01*
X98263856Y-120452779D01*
X98260437Y-120475834D01*
X98254773Y-120498443D01*
X98246921Y-120520387D01*
X98236956Y-120541457D01*
X98224974Y-120561448D01*
X98211090Y-120580168D01*
X98195438Y-120597438D01*
X98178168Y-120613090D01*
X98159448Y-120626974D01*
X98139457Y-120638956D01*
X98118387Y-120648921D01*
X98096443Y-120656773D01*
X98073834Y-120662437D01*
X98050779Y-120665856D01*
X98027500Y-120667000D01*
X97552500Y-120667000D01*
X97529221Y-120665856D01*
X97506166Y-120662437D01*
X97483557Y-120656773D01*
X97461613Y-120648921D01*
X97440543Y-120638956D01*
X97420552Y-120626974D01*
X97401832Y-120613090D01*
X97384562Y-120597438D01*
X97368910Y-120580168D01*
X97355026Y-120561448D01*
X97343044Y-120541457D01*
X97333079Y-120520387D01*
X97325227Y-120498443D01*
X97319563Y-120475834D01*
X97316144Y-120452779D01*
X97315000Y-120429500D01*
X97315000Y-119854500D01*
X97316144Y-119831221D01*
X97319563Y-119808166D01*
X97325227Y-119785557D01*
X97333079Y-119763613D01*
X97343044Y-119742543D01*
X97355026Y-119722552D01*
X97368910Y-119703832D01*
X97384562Y-119686562D01*
X97401832Y-119670910D01*
X97420552Y-119657026D01*
X97440543Y-119645044D01*
X97461613Y-119635079D01*
X97483557Y-119627227D01*
X97506166Y-119621563D01*
X97529221Y-119618144D01*
X97552500Y-119617000D01*
X98027500Y-119617000D01*
X98050779Y-119618144D01*
X98050779Y-119618144D01*
G37*
D11*
X97790000Y-120142000D03*
G04 #@! TD*
D10*
G04 #@! TO.C,C8*
G36*
X110320779Y-96808144D02*
X110343834Y-96811563D01*
X110366443Y-96817227D01*
X110388387Y-96825079D01*
X110409457Y-96835044D01*
X110429448Y-96847026D01*
X110448168Y-96860910D01*
X110465438Y-96876562D01*
X110481090Y-96893832D01*
X110494974Y-96912552D01*
X110506956Y-96932543D01*
X110516921Y-96953613D01*
X110524773Y-96975557D01*
X110530437Y-96998166D01*
X110533856Y-97021221D01*
X110535000Y-97044500D01*
X110535000Y-97519500D01*
X110533856Y-97542779D01*
X110530437Y-97565834D01*
X110524773Y-97588443D01*
X110516921Y-97610387D01*
X110506956Y-97631457D01*
X110494974Y-97651448D01*
X110481090Y-97670168D01*
X110465438Y-97687438D01*
X110448168Y-97703090D01*
X110429448Y-97716974D01*
X110409457Y-97728956D01*
X110388387Y-97738921D01*
X110366443Y-97746773D01*
X110343834Y-97752437D01*
X110320779Y-97755856D01*
X110297500Y-97757000D01*
X109722500Y-97757000D01*
X109699221Y-97755856D01*
X109676166Y-97752437D01*
X109653557Y-97746773D01*
X109631613Y-97738921D01*
X109610543Y-97728956D01*
X109590552Y-97716974D01*
X109571832Y-97703090D01*
X109554562Y-97687438D01*
X109538910Y-97670168D01*
X109525026Y-97651448D01*
X109513044Y-97631457D01*
X109503079Y-97610387D01*
X109495227Y-97588443D01*
X109489563Y-97565834D01*
X109486144Y-97542779D01*
X109485000Y-97519500D01*
X109485000Y-97044500D01*
X109486144Y-97021221D01*
X109489563Y-96998166D01*
X109495227Y-96975557D01*
X109503079Y-96953613D01*
X109513044Y-96932543D01*
X109525026Y-96912552D01*
X109538910Y-96893832D01*
X109554562Y-96876562D01*
X109571832Y-96860910D01*
X109590552Y-96847026D01*
X109610543Y-96835044D01*
X109631613Y-96825079D01*
X109653557Y-96817227D01*
X109676166Y-96811563D01*
X109699221Y-96808144D01*
X109722500Y-96807000D01*
X110297500Y-96807000D01*
X110320779Y-96808144D01*
X110320779Y-96808144D01*
G37*
D11*
X110010000Y-97282000D03*
D10*
G36*
X112070779Y-96808144D02*
X112093834Y-96811563D01*
X112116443Y-96817227D01*
X112138387Y-96825079D01*
X112159457Y-96835044D01*
X112179448Y-96847026D01*
X112198168Y-96860910D01*
X112215438Y-96876562D01*
X112231090Y-96893832D01*
X112244974Y-96912552D01*
X112256956Y-96932543D01*
X112266921Y-96953613D01*
X112274773Y-96975557D01*
X112280437Y-96998166D01*
X112283856Y-97021221D01*
X112285000Y-97044500D01*
X112285000Y-97519500D01*
X112283856Y-97542779D01*
X112280437Y-97565834D01*
X112274773Y-97588443D01*
X112266921Y-97610387D01*
X112256956Y-97631457D01*
X112244974Y-97651448D01*
X112231090Y-97670168D01*
X112215438Y-97687438D01*
X112198168Y-97703090D01*
X112179448Y-97716974D01*
X112159457Y-97728956D01*
X112138387Y-97738921D01*
X112116443Y-97746773D01*
X112093834Y-97752437D01*
X112070779Y-97755856D01*
X112047500Y-97757000D01*
X111472500Y-97757000D01*
X111449221Y-97755856D01*
X111426166Y-97752437D01*
X111403557Y-97746773D01*
X111381613Y-97738921D01*
X111360543Y-97728956D01*
X111340552Y-97716974D01*
X111321832Y-97703090D01*
X111304562Y-97687438D01*
X111288910Y-97670168D01*
X111275026Y-97651448D01*
X111263044Y-97631457D01*
X111253079Y-97610387D01*
X111245227Y-97588443D01*
X111239563Y-97565834D01*
X111236144Y-97542779D01*
X111235000Y-97519500D01*
X111235000Y-97044500D01*
X111236144Y-97021221D01*
X111239563Y-96998166D01*
X111245227Y-96975557D01*
X111253079Y-96953613D01*
X111263044Y-96932543D01*
X111275026Y-96912552D01*
X111288910Y-96893832D01*
X111304562Y-96876562D01*
X111321832Y-96860910D01*
X111340552Y-96847026D01*
X111360543Y-96835044D01*
X111381613Y-96825079D01*
X111403557Y-96817227D01*
X111426166Y-96811563D01*
X111449221Y-96808144D01*
X111472500Y-96807000D01*
X112047500Y-96807000D01*
X112070779Y-96808144D01*
X112070779Y-96808144D01*
G37*
D11*
X111760000Y-97282000D03*
G04 #@! TD*
D12*
G04 #@! TO.C,Conn1*
X104140000Y-118872000D03*
X104140000Y-126746000D03*
G04 #@! TD*
D10*
G04 #@! TO.C,D2*
G36*
X98050779Y-134576144D02*
X98073834Y-134579563D01*
X98096443Y-134585227D01*
X98118387Y-134593079D01*
X98139457Y-134603044D01*
X98159448Y-134615026D01*
X98178168Y-134628910D01*
X98195438Y-134644562D01*
X98211090Y-134661832D01*
X98224974Y-134680552D01*
X98236956Y-134700543D01*
X98246921Y-134721613D01*
X98254773Y-134743557D01*
X98260437Y-134766166D01*
X98263856Y-134789221D01*
X98265000Y-134812500D01*
X98265000Y-135387500D01*
X98263856Y-135410779D01*
X98260437Y-135433834D01*
X98254773Y-135456443D01*
X98246921Y-135478387D01*
X98236956Y-135499457D01*
X98224974Y-135519448D01*
X98211090Y-135538168D01*
X98195438Y-135555438D01*
X98178168Y-135571090D01*
X98159448Y-135584974D01*
X98139457Y-135596956D01*
X98118387Y-135606921D01*
X98096443Y-135614773D01*
X98073834Y-135620437D01*
X98050779Y-135623856D01*
X98027500Y-135625000D01*
X97552500Y-135625000D01*
X97529221Y-135623856D01*
X97506166Y-135620437D01*
X97483557Y-135614773D01*
X97461613Y-135606921D01*
X97440543Y-135596956D01*
X97420552Y-135584974D01*
X97401832Y-135571090D01*
X97384562Y-135555438D01*
X97368910Y-135538168D01*
X97355026Y-135519448D01*
X97343044Y-135499457D01*
X97333079Y-135478387D01*
X97325227Y-135456443D01*
X97319563Y-135433834D01*
X97316144Y-135410779D01*
X97315000Y-135387500D01*
X97315000Y-134812500D01*
X97316144Y-134789221D01*
X97319563Y-134766166D01*
X97325227Y-134743557D01*
X97333079Y-134721613D01*
X97343044Y-134700543D01*
X97355026Y-134680552D01*
X97368910Y-134661832D01*
X97384562Y-134644562D01*
X97401832Y-134628910D01*
X97420552Y-134615026D01*
X97440543Y-134603044D01*
X97461613Y-134593079D01*
X97483557Y-134585227D01*
X97506166Y-134579563D01*
X97529221Y-134576144D01*
X97552500Y-134575000D01*
X98027500Y-134575000D01*
X98050779Y-134576144D01*
X98050779Y-134576144D01*
G37*
D11*
X97790000Y-135100000D03*
D10*
G36*
X98050779Y-132826144D02*
X98073834Y-132829563D01*
X98096443Y-132835227D01*
X98118387Y-132843079D01*
X98139457Y-132853044D01*
X98159448Y-132865026D01*
X98178168Y-132878910D01*
X98195438Y-132894562D01*
X98211090Y-132911832D01*
X98224974Y-132930552D01*
X98236956Y-132950543D01*
X98246921Y-132971613D01*
X98254773Y-132993557D01*
X98260437Y-133016166D01*
X98263856Y-133039221D01*
X98265000Y-133062500D01*
X98265000Y-133637500D01*
X98263856Y-133660779D01*
X98260437Y-133683834D01*
X98254773Y-133706443D01*
X98246921Y-133728387D01*
X98236956Y-133749457D01*
X98224974Y-133769448D01*
X98211090Y-133788168D01*
X98195438Y-133805438D01*
X98178168Y-133821090D01*
X98159448Y-133834974D01*
X98139457Y-133846956D01*
X98118387Y-133856921D01*
X98096443Y-133864773D01*
X98073834Y-133870437D01*
X98050779Y-133873856D01*
X98027500Y-133875000D01*
X97552500Y-133875000D01*
X97529221Y-133873856D01*
X97506166Y-133870437D01*
X97483557Y-133864773D01*
X97461613Y-133856921D01*
X97440543Y-133846956D01*
X97420552Y-133834974D01*
X97401832Y-133821090D01*
X97384562Y-133805438D01*
X97368910Y-133788168D01*
X97355026Y-133769448D01*
X97343044Y-133749457D01*
X97333079Y-133728387D01*
X97325227Y-133706443D01*
X97319563Y-133683834D01*
X97316144Y-133660779D01*
X97315000Y-133637500D01*
X97315000Y-133062500D01*
X97316144Y-133039221D01*
X97319563Y-133016166D01*
X97325227Y-132993557D01*
X97333079Y-132971613D01*
X97343044Y-132950543D01*
X97355026Y-132930552D01*
X97368910Y-132911832D01*
X97384562Y-132894562D01*
X97401832Y-132878910D01*
X97420552Y-132865026D01*
X97440543Y-132853044D01*
X97461613Y-132843079D01*
X97483557Y-132835227D01*
X97506166Y-132829563D01*
X97529221Y-132826144D01*
X97552500Y-132825000D01*
X98027500Y-132825000D01*
X98050779Y-132826144D01*
X98050779Y-132826144D01*
G37*
D11*
X97790000Y-133350000D03*
G04 #@! TD*
D10*
G04 #@! TO.C,D3*
G36*
X84080779Y-90408144D02*
X84103834Y-90411563D01*
X84126443Y-90417227D01*
X84148387Y-90425079D01*
X84169457Y-90435044D01*
X84189448Y-90447026D01*
X84208168Y-90460910D01*
X84225438Y-90476562D01*
X84241090Y-90493832D01*
X84254974Y-90512552D01*
X84266956Y-90532543D01*
X84276921Y-90553613D01*
X84284773Y-90575557D01*
X84290437Y-90598166D01*
X84293856Y-90621221D01*
X84295000Y-90644500D01*
X84295000Y-91219500D01*
X84293856Y-91242779D01*
X84290437Y-91265834D01*
X84284773Y-91288443D01*
X84276921Y-91310387D01*
X84266956Y-91331457D01*
X84254974Y-91351448D01*
X84241090Y-91370168D01*
X84225438Y-91387438D01*
X84208168Y-91403090D01*
X84189448Y-91416974D01*
X84169457Y-91428956D01*
X84148387Y-91438921D01*
X84126443Y-91446773D01*
X84103834Y-91452437D01*
X84080779Y-91455856D01*
X84057500Y-91457000D01*
X83582500Y-91457000D01*
X83559221Y-91455856D01*
X83536166Y-91452437D01*
X83513557Y-91446773D01*
X83491613Y-91438921D01*
X83470543Y-91428956D01*
X83450552Y-91416974D01*
X83431832Y-91403090D01*
X83414562Y-91387438D01*
X83398910Y-91370168D01*
X83385026Y-91351448D01*
X83373044Y-91331457D01*
X83363079Y-91310387D01*
X83355227Y-91288443D01*
X83349563Y-91265834D01*
X83346144Y-91242779D01*
X83345000Y-91219500D01*
X83345000Y-90644500D01*
X83346144Y-90621221D01*
X83349563Y-90598166D01*
X83355227Y-90575557D01*
X83363079Y-90553613D01*
X83373044Y-90532543D01*
X83385026Y-90512552D01*
X83398910Y-90493832D01*
X83414562Y-90476562D01*
X83431832Y-90460910D01*
X83450552Y-90447026D01*
X83470543Y-90435044D01*
X83491613Y-90425079D01*
X83513557Y-90417227D01*
X83536166Y-90411563D01*
X83559221Y-90408144D01*
X83582500Y-90407000D01*
X84057500Y-90407000D01*
X84080779Y-90408144D01*
X84080779Y-90408144D01*
G37*
D11*
X83820000Y-90932000D03*
D10*
G36*
X84080779Y-88658144D02*
X84103834Y-88661563D01*
X84126443Y-88667227D01*
X84148387Y-88675079D01*
X84169457Y-88685044D01*
X84189448Y-88697026D01*
X84208168Y-88710910D01*
X84225438Y-88726562D01*
X84241090Y-88743832D01*
X84254974Y-88762552D01*
X84266956Y-88782543D01*
X84276921Y-88803613D01*
X84284773Y-88825557D01*
X84290437Y-88848166D01*
X84293856Y-88871221D01*
X84295000Y-88894500D01*
X84295000Y-89469500D01*
X84293856Y-89492779D01*
X84290437Y-89515834D01*
X84284773Y-89538443D01*
X84276921Y-89560387D01*
X84266956Y-89581457D01*
X84254974Y-89601448D01*
X84241090Y-89620168D01*
X84225438Y-89637438D01*
X84208168Y-89653090D01*
X84189448Y-89666974D01*
X84169457Y-89678956D01*
X84148387Y-89688921D01*
X84126443Y-89696773D01*
X84103834Y-89702437D01*
X84080779Y-89705856D01*
X84057500Y-89707000D01*
X83582500Y-89707000D01*
X83559221Y-89705856D01*
X83536166Y-89702437D01*
X83513557Y-89696773D01*
X83491613Y-89688921D01*
X83470543Y-89678956D01*
X83450552Y-89666974D01*
X83431832Y-89653090D01*
X83414562Y-89637438D01*
X83398910Y-89620168D01*
X83385026Y-89601448D01*
X83373044Y-89581457D01*
X83363079Y-89560387D01*
X83355227Y-89538443D01*
X83349563Y-89515834D01*
X83346144Y-89492779D01*
X83345000Y-89469500D01*
X83345000Y-88894500D01*
X83346144Y-88871221D01*
X83349563Y-88848166D01*
X83355227Y-88825557D01*
X83363079Y-88803613D01*
X83373044Y-88782543D01*
X83385026Y-88762552D01*
X83398910Y-88743832D01*
X83414562Y-88726562D01*
X83431832Y-88710910D01*
X83450552Y-88697026D01*
X83470543Y-88685044D01*
X83491613Y-88675079D01*
X83513557Y-88667227D01*
X83536166Y-88661563D01*
X83559221Y-88658144D01*
X83582500Y-88657000D01*
X84057500Y-88657000D01*
X84080779Y-88658144D01*
X84080779Y-88658144D01*
G37*
D11*
X83820000Y-89182000D03*
G04 #@! TD*
D10*
G04 #@! TO.C,D4*
G36*
X101860779Y-88658144D02*
X101883834Y-88661563D01*
X101906443Y-88667227D01*
X101928387Y-88675079D01*
X101949457Y-88685044D01*
X101969448Y-88697026D01*
X101988168Y-88710910D01*
X102005438Y-88726562D01*
X102021090Y-88743832D01*
X102034974Y-88762552D01*
X102046956Y-88782543D01*
X102056921Y-88803613D01*
X102064773Y-88825557D01*
X102070437Y-88848166D01*
X102073856Y-88871221D01*
X102075000Y-88894500D01*
X102075000Y-89469500D01*
X102073856Y-89492779D01*
X102070437Y-89515834D01*
X102064773Y-89538443D01*
X102056921Y-89560387D01*
X102046956Y-89581457D01*
X102034974Y-89601448D01*
X102021090Y-89620168D01*
X102005438Y-89637438D01*
X101988168Y-89653090D01*
X101969448Y-89666974D01*
X101949457Y-89678956D01*
X101928387Y-89688921D01*
X101906443Y-89696773D01*
X101883834Y-89702437D01*
X101860779Y-89705856D01*
X101837500Y-89707000D01*
X101362500Y-89707000D01*
X101339221Y-89705856D01*
X101316166Y-89702437D01*
X101293557Y-89696773D01*
X101271613Y-89688921D01*
X101250543Y-89678956D01*
X101230552Y-89666974D01*
X101211832Y-89653090D01*
X101194562Y-89637438D01*
X101178910Y-89620168D01*
X101165026Y-89601448D01*
X101153044Y-89581457D01*
X101143079Y-89560387D01*
X101135227Y-89538443D01*
X101129563Y-89515834D01*
X101126144Y-89492779D01*
X101125000Y-89469500D01*
X101125000Y-88894500D01*
X101126144Y-88871221D01*
X101129563Y-88848166D01*
X101135227Y-88825557D01*
X101143079Y-88803613D01*
X101153044Y-88782543D01*
X101165026Y-88762552D01*
X101178910Y-88743832D01*
X101194562Y-88726562D01*
X101211832Y-88710910D01*
X101230552Y-88697026D01*
X101250543Y-88685044D01*
X101271613Y-88675079D01*
X101293557Y-88667227D01*
X101316166Y-88661563D01*
X101339221Y-88658144D01*
X101362500Y-88657000D01*
X101837500Y-88657000D01*
X101860779Y-88658144D01*
X101860779Y-88658144D01*
G37*
D11*
X101600000Y-89182000D03*
D10*
G36*
X101860779Y-90408144D02*
X101883834Y-90411563D01*
X101906443Y-90417227D01*
X101928387Y-90425079D01*
X101949457Y-90435044D01*
X101969448Y-90447026D01*
X101988168Y-90460910D01*
X102005438Y-90476562D01*
X102021090Y-90493832D01*
X102034974Y-90512552D01*
X102046956Y-90532543D01*
X102056921Y-90553613D01*
X102064773Y-90575557D01*
X102070437Y-90598166D01*
X102073856Y-90621221D01*
X102075000Y-90644500D01*
X102075000Y-91219500D01*
X102073856Y-91242779D01*
X102070437Y-91265834D01*
X102064773Y-91288443D01*
X102056921Y-91310387D01*
X102046956Y-91331457D01*
X102034974Y-91351448D01*
X102021090Y-91370168D01*
X102005438Y-91387438D01*
X101988168Y-91403090D01*
X101969448Y-91416974D01*
X101949457Y-91428956D01*
X101928387Y-91438921D01*
X101906443Y-91446773D01*
X101883834Y-91452437D01*
X101860779Y-91455856D01*
X101837500Y-91457000D01*
X101362500Y-91457000D01*
X101339221Y-91455856D01*
X101316166Y-91452437D01*
X101293557Y-91446773D01*
X101271613Y-91438921D01*
X101250543Y-91428956D01*
X101230552Y-91416974D01*
X101211832Y-91403090D01*
X101194562Y-91387438D01*
X101178910Y-91370168D01*
X101165026Y-91351448D01*
X101153044Y-91331457D01*
X101143079Y-91310387D01*
X101135227Y-91288443D01*
X101129563Y-91265834D01*
X101126144Y-91242779D01*
X101125000Y-91219500D01*
X101125000Y-90644500D01*
X101126144Y-90621221D01*
X101129563Y-90598166D01*
X101135227Y-90575557D01*
X101143079Y-90553613D01*
X101153044Y-90532543D01*
X101165026Y-90512552D01*
X101178910Y-90493832D01*
X101194562Y-90476562D01*
X101211832Y-90460910D01*
X101230552Y-90447026D01*
X101250543Y-90435044D01*
X101271613Y-90425079D01*
X101293557Y-90417227D01*
X101316166Y-90411563D01*
X101339221Y-90408144D01*
X101362500Y-90407000D01*
X101837500Y-90407000D01*
X101860779Y-90408144D01*
X101860779Y-90408144D01*
G37*
D11*
X101600000Y-90932000D03*
G04 #@! TD*
D10*
G04 #@! TO.C,D5*
G36*
X119640779Y-90408144D02*
X119663834Y-90411563D01*
X119686443Y-90417227D01*
X119708387Y-90425079D01*
X119729457Y-90435044D01*
X119749448Y-90447026D01*
X119768168Y-90460910D01*
X119785438Y-90476562D01*
X119801090Y-90493832D01*
X119814974Y-90512552D01*
X119826956Y-90532543D01*
X119836921Y-90553613D01*
X119844773Y-90575557D01*
X119850437Y-90598166D01*
X119853856Y-90621221D01*
X119855000Y-90644500D01*
X119855000Y-91219500D01*
X119853856Y-91242779D01*
X119850437Y-91265834D01*
X119844773Y-91288443D01*
X119836921Y-91310387D01*
X119826956Y-91331457D01*
X119814974Y-91351448D01*
X119801090Y-91370168D01*
X119785438Y-91387438D01*
X119768168Y-91403090D01*
X119749448Y-91416974D01*
X119729457Y-91428956D01*
X119708387Y-91438921D01*
X119686443Y-91446773D01*
X119663834Y-91452437D01*
X119640779Y-91455856D01*
X119617500Y-91457000D01*
X119142500Y-91457000D01*
X119119221Y-91455856D01*
X119096166Y-91452437D01*
X119073557Y-91446773D01*
X119051613Y-91438921D01*
X119030543Y-91428956D01*
X119010552Y-91416974D01*
X118991832Y-91403090D01*
X118974562Y-91387438D01*
X118958910Y-91370168D01*
X118945026Y-91351448D01*
X118933044Y-91331457D01*
X118923079Y-91310387D01*
X118915227Y-91288443D01*
X118909563Y-91265834D01*
X118906144Y-91242779D01*
X118905000Y-91219500D01*
X118905000Y-90644500D01*
X118906144Y-90621221D01*
X118909563Y-90598166D01*
X118915227Y-90575557D01*
X118923079Y-90553613D01*
X118933044Y-90532543D01*
X118945026Y-90512552D01*
X118958910Y-90493832D01*
X118974562Y-90476562D01*
X118991832Y-90460910D01*
X119010552Y-90447026D01*
X119030543Y-90435044D01*
X119051613Y-90425079D01*
X119073557Y-90417227D01*
X119096166Y-90411563D01*
X119119221Y-90408144D01*
X119142500Y-90407000D01*
X119617500Y-90407000D01*
X119640779Y-90408144D01*
X119640779Y-90408144D01*
G37*
D11*
X119380000Y-90932000D03*
D10*
G36*
X119640779Y-88658144D02*
X119663834Y-88661563D01*
X119686443Y-88667227D01*
X119708387Y-88675079D01*
X119729457Y-88685044D01*
X119749448Y-88697026D01*
X119768168Y-88710910D01*
X119785438Y-88726562D01*
X119801090Y-88743832D01*
X119814974Y-88762552D01*
X119826956Y-88782543D01*
X119836921Y-88803613D01*
X119844773Y-88825557D01*
X119850437Y-88848166D01*
X119853856Y-88871221D01*
X119855000Y-88894500D01*
X119855000Y-89469500D01*
X119853856Y-89492779D01*
X119850437Y-89515834D01*
X119844773Y-89538443D01*
X119836921Y-89560387D01*
X119826956Y-89581457D01*
X119814974Y-89601448D01*
X119801090Y-89620168D01*
X119785438Y-89637438D01*
X119768168Y-89653090D01*
X119749448Y-89666974D01*
X119729457Y-89678956D01*
X119708387Y-89688921D01*
X119686443Y-89696773D01*
X119663834Y-89702437D01*
X119640779Y-89705856D01*
X119617500Y-89707000D01*
X119142500Y-89707000D01*
X119119221Y-89705856D01*
X119096166Y-89702437D01*
X119073557Y-89696773D01*
X119051613Y-89688921D01*
X119030543Y-89678956D01*
X119010552Y-89666974D01*
X118991832Y-89653090D01*
X118974562Y-89637438D01*
X118958910Y-89620168D01*
X118945026Y-89601448D01*
X118933044Y-89581457D01*
X118923079Y-89560387D01*
X118915227Y-89538443D01*
X118909563Y-89515834D01*
X118906144Y-89492779D01*
X118905000Y-89469500D01*
X118905000Y-88894500D01*
X118906144Y-88871221D01*
X118909563Y-88848166D01*
X118915227Y-88825557D01*
X118923079Y-88803613D01*
X118933044Y-88782543D01*
X118945026Y-88762552D01*
X118958910Y-88743832D01*
X118974562Y-88726562D01*
X118991832Y-88710910D01*
X119010552Y-88697026D01*
X119030543Y-88685044D01*
X119051613Y-88675079D01*
X119073557Y-88667227D01*
X119096166Y-88661563D01*
X119119221Y-88658144D01*
X119142500Y-88657000D01*
X119617500Y-88657000D01*
X119640779Y-88658144D01*
X119640779Y-88658144D01*
G37*
D11*
X119380000Y-89182000D03*
G04 #@! TD*
D10*
G04 #@! TO.C,D6*
G36*
X72650779Y-122158144D02*
X72673834Y-122161563D01*
X72696443Y-122167227D01*
X72718387Y-122175079D01*
X72739457Y-122185044D01*
X72759448Y-122197026D01*
X72778168Y-122210910D01*
X72795438Y-122226562D01*
X72811090Y-122243832D01*
X72824974Y-122262552D01*
X72836956Y-122282543D01*
X72846921Y-122303613D01*
X72854773Y-122325557D01*
X72860437Y-122348166D01*
X72863856Y-122371221D01*
X72865000Y-122394500D01*
X72865000Y-122969500D01*
X72863856Y-122992779D01*
X72860437Y-123015834D01*
X72854773Y-123038443D01*
X72846921Y-123060387D01*
X72836956Y-123081457D01*
X72824974Y-123101448D01*
X72811090Y-123120168D01*
X72795438Y-123137438D01*
X72778168Y-123153090D01*
X72759448Y-123166974D01*
X72739457Y-123178956D01*
X72718387Y-123188921D01*
X72696443Y-123196773D01*
X72673834Y-123202437D01*
X72650779Y-123205856D01*
X72627500Y-123207000D01*
X72152500Y-123207000D01*
X72129221Y-123205856D01*
X72106166Y-123202437D01*
X72083557Y-123196773D01*
X72061613Y-123188921D01*
X72040543Y-123178956D01*
X72020552Y-123166974D01*
X72001832Y-123153090D01*
X71984562Y-123137438D01*
X71968910Y-123120168D01*
X71955026Y-123101448D01*
X71943044Y-123081457D01*
X71933079Y-123060387D01*
X71925227Y-123038443D01*
X71919563Y-123015834D01*
X71916144Y-122992779D01*
X71915000Y-122969500D01*
X71915000Y-122394500D01*
X71916144Y-122371221D01*
X71919563Y-122348166D01*
X71925227Y-122325557D01*
X71933079Y-122303613D01*
X71943044Y-122282543D01*
X71955026Y-122262552D01*
X71968910Y-122243832D01*
X71984562Y-122226562D01*
X72001832Y-122210910D01*
X72020552Y-122197026D01*
X72040543Y-122185044D01*
X72061613Y-122175079D01*
X72083557Y-122167227D01*
X72106166Y-122161563D01*
X72129221Y-122158144D01*
X72152500Y-122157000D01*
X72627500Y-122157000D01*
X72650779Y-122158144D01*
X72650779Y-122158144D01*
G37*
D11*
X72390000Y-122682000D03*
D10*
G36*
X72650779Y-120408144D02*
X72673834Y-120411563D01*
X72696443Y-120417227D01*
X72718387Y-120425079D01*
X72739457Y-120435044D01*
X72759448Y-120447026D01*
X72778168Y-120460910D01*
X72795438Y-120476562D01*
X72811090Y-120493832D01*
X72824974Y-120512552D01*
X72836956Y-120532543D01*
X72846921Y-120553613D01*
X72854773Y-120575557D01*
X72860437Y-120598166D01*
X72863856Y-120621221D01*
X72865000Y-120644500D01*
X72865000Y-121219500D01*
X72863856Y-121242779D01*
X72860437Y-121265834D01*
X72854773Y-121288443D01*
X72846921Y-121310387D01*
X72836956Y-121331457D01*
X72824974Y-121351448D01*
X72811090Y-121370168D01*
X72795438Y-121387438D01*
X72778168Y-121403090D01*
X72759448Y-121416974D01*
X72739457Y-121428956D01*
X72718387Y-121438921D01*
X72696443Y-121446773D01*
X72673834Y-121452437D01*
X72650779Y-121455856D01*
X72627500Y-121457000D01*
X72152500Y-121457000D01*
X72129221Y-121455856D01*
X72106166Y-121452437D01*
X72083557Y-121446773D01*
X72061613Y-121438921D01*
X72040543Y-121428956D01*
X72020552Y-121416974D01*
X72001832Y-121403090D01*
X71984562Y-121387438D01*
X71968910Y-121370168D01*
X71955026Y-121351448D01*
X71943044Y-121331457D01*
X71933079Y-121310387D01*
X71925227Y-121288443D01*
X71919563Y-121265834D01*
X71916144Y-121242779D01*
X71915000Y-121219500D01*
X71915000Y-120644500D01*
X71916144Y-120621221D01*
X71919563Y-120598166D01*
X71925227Y-120575557D01*
X71933079Y-120553613D01*
X71943044Y-120532543D01*
X71955026Y-120512552D01*
X71968910Y-120493832D01*
X71984562Y-120476562D01*
X72001832Y-120460910D01*
X72020552Y-120447026D01*
X72040543Y-120435044D01*
X72061613Y-120425079D01*
X72083557Y-120417227D01*
X72106166Y-120411563D01*
X72129221Y-120408144D01*
X72152500Y-120407000D01*
X72627500Y-120407000D01*
X72650779Y-120408144D01*
X72650779Y-120408144D01*
G37*
D11*
X72390000Y-120932000D03*
G04 #@! TD*
D10*
G04 #@! TO.C,D7*
G36*
X75190779Y-122158144D02*
X75213834Y-122161563D01*
X75236443Y-122167227D01*
X75258387Y-122175079D01*
X75279457Y-122185044D01*
X75299448Y-122197026D01*
X75318168Y-122210910D01*
X75335438Y-122226562D01*
X75351090Y-122243832D01*
X75364974Y-122262552D01*
X75376956Y-122282543D01*
X75386921Y-122303613D01*
X75394773Y-122325557D01*
X75400437Y-122348166D01*
X75403856Y-122371221D01*
X75405000Y-122394500D01*
X75405000Y-122969500D01*
X75403856Y-122992779D01*
X75400437Y-123015834D01*
X75394773Y-123038443D01*
X75386921Y-123060387D01*
X75376956Y-123081457D01*
X75364974Y-123101448D01*
X75351090Y-123120168D01*
X75335438Y-123137438D01*
X75318168Y-123153090D01*
X75299448Y-123166974D01*
X75279457Y-123178956D01*
X75258387Y-123188921D01*
X75236443Y-123196773D01*
X75213834Y-123202437D01*
X75190779Y-123205856D01*
X75167500Y-123207000D01*
X74692500Y-123207000D01*
X74669221Y-123205856D01*
X74646166Y-123202437D01*
X74623557Y-123196773D01*
X74601613Y-123188921D01*
X74580543Y-123178956D01*
X74560552Y-123166974D01*
X74541832Y-123153090D01*
X74524562Y-123137438D01*
X74508910Y-123120168D01*
X74495026Y-123101448D01*
X74483044Y-123081457D01*
X74473079Y-123060387D01*
X74465227Y-123038443D01*
X74459563Y-123015834D01*
X74456144Y-122992779D01*
X74455000Y-122969500D01*
X74455000Y-122394500D01*
X74456144Y-122371221D01*
X74459563Y-122348166D01*
X74465227Y-122325557D01*
X74473079Y-122303613D01*
X74483044Y-122282543D01*
X74495026Y-122262552D01*
X74508910Y-122243832D01*
X74524562Y-122226562D01*
X74541832Y-122210910D01*
X74560552Y-122197026D01*
X74580543Y-122185044D01*
X74601613Y-122175079D01*
X74623557Y-122167227D01*
X74646166Y-122161563D01*
X74669221Y-122158144D01*
X74692500Y-122157000D01*
X75167500Y-122157000D01*
X75190779Y-122158144D01*
X75190779Y-122158144D01*
G37*
D11*
X74930000Y-122682000D03*
D10*
G36*
X75190779Y-120408144D02*
X75213834Y-120411563D01*
X75236443Y-120417227D01*
X75258387Y-120425079D01*
X75279457Y-120435044D01*
X75299448Y-120447026D01*
X75318168Y-120460910D01*
X75335438Y-120476562D01*
X75351090Y-120493832D01*
X75364974Y-120512552D01*
X75376956Y-120532543D01*
X75386921Y-120553613D01*
X75394773Y-120575557D01*
X75400437Y-120598166D01*
X75403856Y-120621221D01*
X75405000Y-120644500D01*
X75405000Y-121219500D01*
X75403856Y-121242779D01*
X75400437Y-121265834D01*
X75394773Y-121288443D01*
X75386921Y-121310387D01*
X75376956Y-121331457D01*
X75364974Y-121351448D01*
X75351090Y-121370168D01*
X75335438Y-121387438D01*
X75318168Y-121403090D01*
X75299448Y-121416974D01*
X75279457Y-121428956D01*
X75258387Y-121438921D01*
X75236443Y-121446773D01*
X75213834Y-121452437D01*
X75190779Y-121455856D01*
X75167500Y-121457000D01*
X74692500Y-121457000D01*
X74669221Y-121455856D01*
X74646166Y-121452437D01*
X74623557Y-121446773D01*
X74601613Y-121438921D01*
X74580543Y-121428956D01*
X74560552Y-121416974D01*
X74541832Y-121403090D01*
X74524562Y-121387438D01*
X74508910Y-121370168D01*
X74495026Y-121351448D01*
X74483044Y-121331457D01*
X74473079Y-121310387D01*
X74465227Y-121288443D01*
X74459563Y-121265834D01*
X74456144Y-121242779D01*
X74455000Y-121219500D01*
X74455000Y-120644500D01*
X74456144Y-120621221D01*
X74459563Y-120598166D01*
X74465227Y-120575557D01*
X74473079Y-120553613D01*
X74483044Y-120532543D01*
X74495026Y-120512552D01*
X74508910Y-120493832D01*
X74524562Y-120476562D01*
X74541832Y-120460910D01*
X74560552Y-120447026D01*
X74580543Y-120435044D01*
X74601613Y-120425079D01*
X74623557Y-120417227D01*
X74646166Y-120411563D01*
X74669221Y-120408144D01*
X74692500Y-120407000D01*
X75167500Y-120407000D01*
X75190779Y-120408144D01*
X75190779Y-120408144D01*
G37*
D11*
X74930000Y-120932000D03*
G04 #@! TD*
D10*
G04 #@! TO.C,D8*
G36*
X77730779Y-122158144D02*
X77753834Y-122161563D01*
X77776443Y-122167227D01*
X77798387Y-122175079D01*
X77819457Y-122185044D01*
X77839448Y-122197026D01*
X77858168Y-122210910D01*
X77875438Y-122226562D01*
X77891090Y-122243832D01*
X77904974Y-122262552D01*
X77916956Y-122282543D01*
X77926921Y-122303613D01*
X77934773Y-122325557D01*
X77940437Y-122348166D01*
X77943856Y-122371221D01*
X77945000Y-122394500D01*
X77945000Y-122969500D01*
X77943856Y-122992779D01*
X77940437Y-123015834D01*
X77934773Y-123038443D01*
X77926921Y-123060387D01*
X77916956Y-123081457D01*
X77904974Y-123101448D01*
X77891090Y-123120168D01*
X77875438Y-123137438D01*
X77858168Y-123153090D01*
X77839448Y-123166974D01*
X77819457Y-123178956D01*
X77798387Y-123188921D01*
X77776443Y-123196773D01*
X77753834Y-123202437D01*
X77730779Y-123205856D01*
X77707500Y-123207000D01*
X77232500Y-123207000D01*
X77209221Y-123205856D01*
X77186166Y-123202437D01*
X77163557Y-123196773D01*
X77141613Y-123188921D01*
X77120543Y-123178956D01*
X77100552Y-123166974D01*
X77081832Y-123153090D01*
X77064562Y-123137438D01*
X77048910Y-123120168D01*
X77035026Y-123101448D01*
X77023044Y-123081457D01*
X77013079Y-123060387D01*
X77005227Y-123038443D01*
X76999563Y-123015834D01*
X76996144Y-122992779D01*
X76995000Y-122969500D01*
X76995000Y-122394500D01*
X76996144Y-122371221D01*
X76999563Y-122348166D01*
X77005227Y-122325557D01*
X77013079Y-122303613D01*
X77023044Y-122282543D01*
X77035026Y-122262552D01*
X77048910Y-122243832D01*
X77064562Y-122226562D01*
X77081832Y-122210910D01*
X77100552Y-122197026D01*
X77120543Y-122185044D01*
X77141613Y-122175079D01*
X77163557Y-122167227D01*
X77186166Y-122161563D01*
X77209221Y-122158144D01*
X77232500Y-122157000D01*
X77707500Y-122157000D01*
X77730779Y-122158144D01*
X77730779Y-122158144D01*
G37*
D11*
X77470000Y-122682000D03*
D10*
G36*
X77730779Y-120408144D02*
X77753834Y-120411563D01*
X77776443Y-120417227D01*
X77798387Y-120425079D01*
X77819457Y-120435044D01*
X77839448Y-120447026D01*
X77858168Y-120460910D01*
X77875438Y-120476562D01*
X77891090Y-120493832D01*
X77904974Y-120512552D01*
X77916956Y-120532543D01*
X77926921Y-120553613D01*
X77934773Y-120575557D01*
X77940437Y-120598166D01*
X77943856Y-120621221D01*
X77945000Y-120644500D01*
X77945000Y-121219500D01*
X77943856Y-121242779D01*
X77940437Y-121265834D01*
X77934773Y-121288443D01*
X77926921Y-121310387D01*
X77916956Y-121331457D01*
X77904974Y-121351448D01*
X77891090Y-121370168D01*
X77875438Y-121387438D01*
X77858168Y-121403090D01*
X77839448Y-121416974D01*
X77819457Y-121428956D01*
X77798387Y-121438921D01*
X77776443Y-121446773D01*
X77753834Y-121452437D01*
X77730779Y-121455856D01*
X77707500Y-121457000D01*
X77232500Y-121457000D01*
X77209221Y-121455856D01*
X77186166Y-121452437D01*
X77163557Y-121446773D01*
X77141613Y-121438921D01*
X77120543Y-121428956D01*
X77100552Y-121416974D01*
X77081832Y-121403090D01*
X77064562Y-121387438D01*
X77048910Y-121370168D01*
X77035026Y-121351448D01*
X77023044Y-121331457D01*
X77013079Y-121310387D01*
X77005227Y-121288443D01*
X76999563Y-121265834D01*
X76996144Y-121242779D01*
X76995000Y-121219500D01*
X76995000Y-120644500D01*
X76996144Y-120621221D01*
X76999563Y-120598166D01*
X77005227Y-120575557D01*
X77013079Y-120553613D01*
X77023044Y-120532543D01*
X77035026Y-120512552D01*
X77048910Y-120493832D01*
X77064562Y-120476562D01*
X77081832Y-120460910D01*
X77100552Y-120447026D01*
X77120543Y-120435044D01*
X77141613Y-120425079D01*
X77163557Y-120417227D01*
X77186166Y-120411563D01*
X77209221Y-120408144D01*
X77232500Y-120407000D01*
X77707500Y-120407000D01*
X77730779Y-120408144D01*
X77730779Y-120408144D01*
G37*
D11*
X77470000Y-120932000D03*
G04 #@! TD*
D10*
G04 #@! TO.C,R1*
G36*
X98050779Y-129016144D02*
X98073834Y-129019563D01*
X98096443Y-129025227D01*
X98118387Y-129033079D01*
X98139457Y-129043044D01*
X98159448Y-129055026D01*
X98178168Y-129068910D01*
X98195438Y-129084562D01*
X98211090Y-129101832D01*
X98224974Y-129120552D01*
X98236956Y-129140543D01*
X98246921Y-129161613D01*
X98254773Y-129183557D01*
X98260437Y-129206166D01*
X98263856Y-129229221D01*
X98265000Y-129252500D01*
X98265000Y-129827500D01*
X98263856Y-129850779D01*
X98260437Y-129873834D01*
X98254773Y-129896443D01*
X98246921Y-129918387D01*
X98236956Y-129939457D01*
X98224974Y-129959448D01*
X98211090Y-129978168D01*
X98195438Y-129995438D01*
X98178168Y-130011090D01*
X98159448Y-130024974D01*
X98139457Y-130036956D01*
X98118387Y-130046921D01*
X98096443Y-130054773D01*
X98073834Y-130060437D01*
X98050779Y-130063856D01*
X98027500Y-130065000D01*
X97552500Y-130065000D01*
X97529221Y-130063856D01*
X97506166Y-130060437D01*
X97483557Y-130054773D01*
X97461613Y-130046921D01*
X97440543Y-130036956D01*
X97420552Y-130024974D01*
X97401832Y-130011090D01*
X97384562Y-129995438D01*
X97368910Y-129978168D01*
X97355026Y-129959448D01*
X97343044Y-129939457D01*
X97333079Y-129918387D01*
X97325227Y-129896443D01*
X97319563Y-129873834D01*
X97316144Y-129850779D01*
X97315000Y-129827500D01*
X97315000Y-129252500D01*
X97316144Y-129229221D01*
X97319563Y-129206166D01*
X97325227Y-129183557D01*
X97333079Y-129161613D01*
X97343044Y-129140543D01*
X97355026Y-129120552D01*
X97368910Y-129101832D01*
X97384562Y-129084562D01*
X97401832Y-129068910D01*
X97420552Y-129055026D01*
X97440543Y-129043044D01*
X97461613Y-129033079D01*
X97483557Y-129025227D01*
X97506166Y-129019563D01*
X97529221Y-129016144D01*
X97552500Y-129015000D01*
X98027500Y-129015000D01*
X98050779Y-129016144D01*
X98050779Y-129016144D01*
G37*
D11*
X97790000Y-129540000D03*
D10*
G36*
X98050779Y-130766144D02*
X98073834Y-130769563D01*
X98096443Y-130775227D01*
X98118387Y-130783079D01*
X98139457Y-130793044D01*
X98159448Y-130805026D01*
X98178168Y-130818910D01*
X98195438Y-130834562D01*
X98211090Y-130851832D01*
X98224974Y-130870552D01*
X98236956Y-130890543D01*
X98246921Y-130911613D01*
X98254773Y-130933557D01*
X98260437Y-130956166D01*
X98263856Y-130979221D01*
X98265000Y-131002500D01*
X98265000Y-131577500D01*
X98263856Y-131600779D01*
X98260437Y-131623834D01*
X98254773Y-131646443D01*
X98246921Y-131668387D01*
X98236956Y-131689457D01*
X98224974Y-131709448D01*
X98211090Y-131728168D01*
X98195438Y-131745438D01*
X98178168Y-131761090D01*
X98159448Y-131774974D01*
X98139457Y-131786956D01*
X98118387Y-131796921D01*
X98096443Y-131804773D01*
X98073834Y-131810437D01*
X98050779Y-131813856D01*
X98027500Y-131815000D01*
X97552500Y-131815000D01*
X97529221Y-131813856D01*
X97506166Y-131810437D01*
X97483557Y-131804773D01*
X97461613Y-131796921D01*
X97440543Y-131786956D01*
X97420552Y-131774974D01*
X97401832Y-131761090D01*
X97384562Y-131745438D01*
X97368910Y-131728168D01*
X97355026Y-131709448D01*
X97343044Y-131689457D01*
X97333079Y-131668387D01*
X97325227Y-131646443D01*
X97319563Y-131623834D01*
X97316144Y-131600779D01*
X97315000Y-131577500D01*
X97315000Y-131002500D01*
X97316144Y-130979221D01*
X97319563Y-130956166D01*
X97325227Y-130933557D01*
X97333079Y-130911613D01*
X97343044Y-130890543D01*
X97355026Y-130870552D01*
X97368910Y-130851832D01*
X97384562Y-130834562D01*
X97401832Y-130818910D01*
X97420552Y-130805026D01*
X97440543Y-130793044D01*
X97461613Y-130783079D01*
X97483557Y-130775227D01*
X97506166Y-130769563D01*
X97529221Y-130766144D01*
X97552500Y-130765000D01*
X98027500Y-130765000D01*
X98050779Y-130766144D01*
X98050779Y-130766144D01*
G37*
D11*
X97790000Y-131290000D03*
G04 #@! TD*
D10*
G04 #@! TO.C,R2*
G36*
X84080779Y-92948144D02*
X84103834Y-92951563D01*
X84126443Y-92957227D01*
X84148387Y-92965079D01*
X84169457Y-92975044D01*
X84189448Y-92987026D01*
X84208168Y-93000910D01*
X84225438Y-93016562D01*
X84241090Y-93033832D01*
X84254974Y-93052552D01*
X84266956Y-93072543D01*
X84276921Y-93093613D01*
X84284773Y-93115557D01*
X84290437Y-93138166D01*
X84293856Y-93161221D01*
X84295000Y-93184500D01*
X84295000Y-93759500D01*
X84293856Y-93782779D01*
X84290437Y-93805834D01*
X84284773Y-93828443D01*
X84276921Y-93850387D01*
X84266956Y-93871457D01*
X84254974Y-93891448D01*
X84241090Y-93910168D01*
X84225438Y-93927438D01*
X84208168Y-93943090D01*
X84189448Y-93956974D01*
X84169457Y-93968956D01*
X84148387Y-93978921D01*
X84126443Y-93986773D01*
X84103834Y-93992437D01*
X84080779Y-93995856D01*
X84057500Y-93997000D01*
X83582500Y-93997000D01*
X83559221Y-93995856D01*
X83536166Y-93992437D01*
X83513557Y-93986773D01*
X83491613Y-93978921D01*
X83470543Y-93968956D01*
X83450552Y-93956974D01*
X83431832Y-93943090D01*
X83414562Y-93927438D01*
X83398910Y-93910168D01*
X83385026Y-93891448D01*
X83373044Y-93871457D01*
X83363079Y-93850387D01*
X83355227Y-93828443D01*
X83349563Y-93805834D01*
X83346144Y-93782779D01*
X83345000Y-93759500D01*
X83345000Y-93184500D01*
X83346144Y-93161221D01*
X83349563Y-93138166D01*
X83355227Y-93115557D01*
X83363079Y-93093613D01*
X83373044Y-93072543D01*
X83385026Y-93052552D01*
X83398910Y-93033832D01*
X83414562Y-93016562D01*
X83431832Y-93000910D01*
X83450552Y-92987026D01*
X83470543Y-92975044D01*
X83491613Y-92965079D01*
X83513557Y-92957227D01*
X83536166Y-92951563D01*
X83559221Y-92948144D01*
X83582500Y-92947000D01*
X84057500Y-92947000D01*
X84080779Y-92948144D01*
X84080779Y-92948144D01*
G37*
D11*
X83820000Y-93472000D03*
D10*
G36*
X84080779Y-94698144D02*
X84103834Y-94701563D01*
X84126443Y-94707227D01*
X84148387Y-94715079D01*
X84169457Y-94725044D01*
X84189448Y-94737026D01*
X84208168Y-94750910D01*
X84225438Y-94766562D01*
X84241090Y-94783832D01*
X84254974Y-94802552D01*
X84266956Y-94822543D01*
X84276921Y-94843613D01*
X84284773Y-94865557D01*
X84290437Y-94888166D01*
X84293856Y-94911221D01*
X84295000Y-94934500D01*
X84295000Y-95509500D01*
X84293856Y-95532779D01*
X84290437Y-95555834D01*
X84284773Y-95578443D01*
X84276921Y-95600387D01*
X84266956Y-95621457D01*
X84254974Y-95641448D01*
X84241090Y-95660168D01*
X84225438Y-95677438D01*
X84208168Y-95693090D01*
X84189448Y-95706974D01*
X84169457Y-95718956D01*
X84148387Y-95728921D01*
X84126443Y-95736773D01*
X84103834Y-95742437D01*
X84080779Y-95745856D01*
X84057500Y-95747000D01*
X83582500Y-95747000D01*
X83559221Y-95745856D01*
X83536166Y-95742437D01*
X83513557Y-95736773D01*
X83491613Y-95728921D01*
X83470543Y-95718956D01*
X83450552Y-95706974D01*
X83431832Y-95693090D01*
X83414562Y-95677438D01*
X83398910Y-95660168D01*
X83385026Y-95641448D01*
X83373044Y-95621457D01*
X83363079Y-95600387D01*
X83355227Y-95578443D01*
X83349563Y-95555834D01*
X83346144Y-95532779D01*
X83345000Y-95509500D01*
X83345000Y-94934500D01*
X83346144Y-94911221D01*
X83349563Y-94888166D01*
X83355227Y-94865557D01*
X83363079Y-94843613D01*
X83373044Y-94822543D01*
X83385026Y-94802552D01*
X83398910Y-94783832D01*
X83414562Y-94766562D01*
X83431832Y-94750910D01*
X83450552Y-94737026D01*
X83470543Y-94725044D01*
X83491613Y-94715079D01*
X83513557Y-94707227D01*
X83536166Y-94701563D01*
X83559221Y-94698144D01*
X83582500Y-94697000D01*
X84057500Y-94697000D01*
X84080779Y-94698144D01*
X84080779Y-94698144D01*
G37*
D11*
X83820000Y-95222000D03*
G04 #@! TD*
D10*
G04 #@! TO.C,R3*
G36*
X101860779Y-92948144D02*
X101883834Y-92951563D01*
X101906443Y-92957227D01*
X101928387Y-92965079D01*
X101949457Y-92975044D01*
X101969448Y-92987026D01*
X101988168Y-93000910D01*
X102005438Y-93016562D01*
X102021090Y-93033832D01*
X102034974Y-93052552D01*
X102046956Y-93072543D01*
X102056921Y-93093613D01*
X102064773Y-93115557D01*
X102070437Y-93138166D01*
X102073856Y-93161221D01*
X102075000Y-93184500D01*
X102075000Y-93759500D01*
X102073856Y-93782779D01*
X102070437Y-93805834D01*
X102064773Y-93828443D01*
X102056921Y-93850387D01*
X102046956Y-93871457D01*
X102034974Y-93891448D01*
X102021090Y-93910168D01*
X102005438Y-93927438D01*
X101988168Y-93943090D01*
X101969448Y-93956974D01*
X101949457Y-93968956D01*
X101928387Y-93978921D01*
X101906443Y-93986773D01*
X101883834Y-93992437D01*
X101860779Y-93995856D01*
X101837500Y-93997000D01*
X101362500Y-93997000D01*
X101339221Y-93995856D01*
X101316166Y-93992437D01*
X101293557Y-93986773D01*
X101271613Y-93978921D01*
X101250543Y-93968956D01*
X101230552Y-93956974D01*
X101211832Y-93943090D01*
X101194562Y-93927438D01*
X101178910Y-93910168D01*
X101165026Y-93891448D01*
X101153044Y-93871457D01*
X101143079Y-93850387D01*
X101135227Y-93828443D01*
X101129563Y-93805834D01*
X101126144Y-93782779D01*
X101125000Y-93759500D01*
X101125000Y-93184500D01*
X101126144Y-93161221D01*
X101129563Y-93138166D01*
X101135227Y-93115557D01*
X101143079Y-93093613D01*
X101153044Y-93072543D01*
X101165026Y-93052552D01*
X101178910Y-93033832D01*
X101194562Y-93016562D01*
X101211832Y-93000910D01*
X101230552Y-92987026D01*
X101250543Y-92975044D01*
X101271613Y-92965079D01*
X101293557Y-92957227D01*
X101316166Y-92951563D01*
X101339221Y-92948144D01*
X101362500Y-92947000D01*
X101837500Y-92947000D01*
X101860779Y-92948144D01*
X101860779Y-92948144D01*
G37*
D11*
X101600000Y-93472000D03*
D10*
G36*
X101860779Y-94698144D02*
X101883834Y-94701563D01*
X101906443Y-94707227D01*
X101928387Y-94715079D01*
X101949457Y-94725044D01*
X101969448Y-94737026D01*
X101988168Y-94750910D01*
X102005438Y-94766562D01*
X102021090Y-94783832D01*
X102034974Y-94802552D01*
X102046956Y-94822543D01*
X102056921Y-94843613D01*
X102064773Y-94865557D01*
X102070437Y-94888166D01*
X102073856Y-94911221D01*
X102075000Y-94934500D01*
X102075000Y-95509500D01*
X102073856Y-95532779D01*
X102070437Y-95555834D01*
X102064773Y-95578443D01*
X102056921Y-95600387D01*
X102046956Y-95621457D01*
X102034974Y-95641448D01*
X102021090Y-95660168D01*
X102005438Y-95677438D01*
X101988168Y-95693090D01*
X101969448Y-95706974D01*
X101949457Y-95718956D01*
X101928387Y-95728921D01*
X101906443Y-95736773D01*
X101883834Y-95742437D01*
X101860779Y-95745856D01*
X101837500Y-95747000D01*
X101362500Y-95747000D01*
X101339221Y-95745856D01*
X101316166Y-95742437D01*
X101293557Y-95736773D01*
X101271613Y-95728921D01*
X101250543Y-95718956D01*
X101230552Y-95706974D01*
X101211832Y-95693090D01*
X101194562Y-95677438D01*
X101178910Y-95660168D01*
X101165026Y-95641448D01*
X101153044Y-95621457D01*
X101143079Y-95600387D01*
X101135227Y-95578443D01*
X101129563Y-95555834D01*
X101126144Y-95532779D01*
X101125000Y-95509500D01*
X101125000Y-94934500D01*
X101126144Y-94911221D01*
X101129563Y-94888166D01*
X101135227Y-94865557D01*
X101143079Y-94843613D01*
X101153044Y-94822543D01*
X101165026Y-94802552D01*
X101178910Y-94783832D01*
X101194562Y-94766562D01*
X101211832Y-94750910D01*
X101230552Y-94737026D01*
X101250543Y-94725044D01*
X101271613Y-94715079D01*
X101293557Y-94707227D01*
X101316166Y-94701563D01*
X101339221Y-94698144D01*
X101362500Y-94697000D01*
X101837500Y-94697000D01*
X101860779Y-94698144D01*
X101860779Y-94698144D01*
G37*
D11*
X101600000Y-95222000D03*
G04 #@! TD*
D10*
G04 #@! TO.C,R4*
G36*
X119640779Y-94698144D02*
X119663834Y-94701563D01*
X119686443Y-94707227D01*
X119708387Y-94715079D01*
X119729457Y-94725044D01*
X119749448Y-94737026D01*
X119768168Y-94750910D01*
X119785438Y-94766562D01*
X119801090Y-94783832D01*
X119814974Y-94802552D01*
X119826956Y-94822543D01*
X119836921Y-94843613D01*
X119844773Y-94865557D01*
X119850437Y-94888166D01*
X119853856Y-94911221D01*
X119855000Y-94934500D01*
X119855000Y-95509500D01*
X119853856Y-95532779D01*
X119850437Y-95555834D01*
X119844773Y-95578443D01*
X119836921Y-95600387D01*
X119826956Y-95621457D01*
X119814974Y-95641448D01*
X119801090Y-95660168D01*
X119785438Y-95677438D01*
X119768168Y-95693090D01*
X119749448Y-95706974D01*
X119729457Y-95718956D01*
X119708387Y-95728921D01*
X119686443Y-95736773D01*
X119663834Y-95742437D01*
X119640779Y-95745856D01*
X119617500Y-95747000D01*
X119142500Y-95747000D01*
X119119221Y-95745856D01*
X119096166Y-95742437D01*
X119073557Y-95736773D01*
X119051613Y-95728921D01*
X119030543Y-95718956D01*
X119010552Y-95706974D01*
X118991832Y-95693090D01*
X118974562Y-95677438D01*
X118958910Y-95660168D01*
X118945026Y-95641448D01*
X118933044Y-95621457D01*
X118923079Y-95600387D01*
X118915227Y-95578443D01*
X118909563Y-95555834D01*
X118906144Y-95532779D01*
X118905000Y-95509500D01*
X118905000Y-94934500D01*
X118906144Y-94911221D01*
X118909563Y-94888166D01*
X118915227Y-94865557D01*
X118923079Y-94843613D01*
X118933044Y-94822543D01*
X118945026Y-94802552D01*
X118958910Y-94783832D01*
X118974562Y-94766562D01*
X118991832Y-94750910D01*
X119010552Y-94737026D01*
X119030543Y-94725044D01*
X119051613Y-94715079D01*
X119073557Y-94707227D01*
X119096166Y-94701563D01*
X119119221Y-94698144D01*
X119142500Y-94697000D01*
X119617500Y-94697000D01*
X119640779Y-94698144D01*
X119640779Y-94698144D01*
G37*
D11*
X119380000Y-95222000D03*
D10*
G36*
X119640779Y-92948144D02*
X119663834Y-92951563D01*
X119686443Y-92957227D01*
X119708387Y-92965079D01*
X119729457Y-92975044D01*
X119749448Y-92987026D01*
X119768168Y-93000910D01*
X119785438Y-93016562D01*
X119801090Y-93033832D01*
X119814974Y-93052552D01*
X119826956Y-93072543D01*
X119836921Y-93093613D01*
X119844773Y-93115557D01*
X119850437Y-93138166D01*
X119853856Y-93161221D01*
X119855000Y-93184500D01*
X119855000Y-93759500D01*
X119853856Y-93782779D01*
X119850437Y-93805834D01*
X119844773Y-93828443D01*
X119836921Y-93850387D01*
X119826956Y-93871457D01*
X119814974Y-93891448D01*
X119801090Y-93910168D01*
X119785438Y-93927438D01*
X119768168Y-93943090D01*
X119749448Y-93956974D01*
X119729457Y-93968956D01*
X119708387Y-93978921D01*
X119686443Y-93986773D01*
X119663834Y-93992437D01*
X119640779Y-93995856D01*
X119617500Y-93997000D01*
X119142500Y-93997000D01*
X119119221Y-93995856D01*
X119096166Y-93992437D01*
X119073557Y-93986773D01*
X119051613Y-93978921D01*
X119030543Y-93968956D01*
X119010552Y-93956974D01*
X118991832Y-93943090D01*
X118974562Y-93927438D01*
X118958910Y-93910168D01*
X118945026Y-93891448D01*
X118933044Y-93871457D01*
X118923079Y-93850387D01*
X118915227Y-93828443D01*
X118909563Y-93805834D01*
X118906144Y-93782779D01*
X118905000Y-93759500D01*
X118905000Y-93184500D01*
X118906144Y-93161221D01*
X118909563Y-93138166D01*
X118915227Y-93115557D01*
X118923079Y-93093613D01*
X118933044Y-93072543D01*
X118945026Y-93052552D01*
X118958910Y-93033832D01*
X118974562Y-93016562D01*
X118991832Y-93000910D01*
X119010552Y-92987026D01*
X119030543Y-92975044D01*
X119051613Y-92965079D01*
X119073557Y-92957227D01*
X119096166Y-92951563D01*
X119119221Y-92948144D01*
X119142500Y-92947000D01*
X119617500Y-92947000D01*
X119640779Y-92948144D01*
X119640779Y-92948144D01*
G37*
D11*
X119380000Y-93472000D03*
G04 #@! TD*
D10*
G04 #@! TO.C,R5*
G36*
X72650779Y-124218144D02*
X72673834Y-124221563D01*
X72696443Y-124227227D01*
X72718387Y-124235079D01*
X72739457Y-124245044D01*
X72759448Y-124257026D01*
X72778168Y-124270910D01*
X72795438Y-124286562D01*
X72811090Y-124303832D01*
X72824974Y-124322552D01*
X72836956Y-124342543D01*
X72846921Y-124363613D01*
X72854773Y-124385557D01*
X72860437Y-124408166D01*
X72863856Y-124431221D01*
X72865000Y-124454500D01*
X72865000Y-125029500D01*
X72863856Y-125052779D01*
X72860437Y-125075834D01*
X72854773Y-125098443D01*
X72846921Y-125120387D01*
X72836956Y-125141457D01*
X72824974Y-125161448D01*
X72811090Y-125180168D01*
X72795438Y-125197438D01*
X72778168Y-125213090D01*
X72759448Y-125226974D01*
X72739457Y-125238956D01*
X72718387Y-125248921D01*
X72696443Y-125256773D01*
X72673834Y-125262437D01*
X72650779Y-125265856D01*
X72627500Y-125267000D01*
X72152500Y-125267000D01*
X72129221Y-125265856D01*
X72106166Y-125262437D01*
X72083557Y-125256773D01*
X72061613Y-125248921D01*
X72040543Y-125238956D01*
X72020552Y-125226974D01*
X72001832Y-125213090D01*
X71984562Y-125197438D01*
X71968910Y-125180168D01*
X71955026Y-125161448D01*
X71943044Y-125141457D01*
X71933079Y-125120387D01*
X71925227Y-125098443D01*
X71919563Y-125075834D01*
X71916144Y-125052779D01*
X71915000Y-125029500D01*
X71915000Y-124454500D01*
X71916144Y-124431221D01*
X71919563Y-124408166D01*
X71925227Y-124385557D01*
X71933079Y-124363613D01*
X71943044Y-124342543D01*
X71955026Y-124322552D01*
X71968910Y-124303832D01*
X71984562Y-124286562D01*
X72001832Y-124270910D01*
X72020552Y-124257026D01*
X72040543Y-124245044D01*
X72061613Y-124235079D01*
X72083557Y-124227227D01*
X72106166Y-124221563D01*
X72129221Y-124218144D01*
X72152500Y-124217000D01*
X72627500Y-124217000D01*
X72650779Y-124218144D01*
X72650779Y-124218144D01*
G37*
D11*
X72390000Y-124742000D03*
D10*
G36*
X72650779Y-125968144D02*
X72673834Y-125971563D01*
X72696443Y-125977227D01*
X72718387Y-125985079D01*
X72739457Y-125995044D01*
X72759448Y-126007026D01*
X72778168Y-126020910D01*
X72795438Y-126036562D01*
X72811090Y-126053832D01*
X72824974Y-126072552D01*
X72836956Y-126092543D01*
X72846921Y-126113613D01*
X72854773Y-126135557D01*
X72860437Y-126158166D01*
X72863856Y-126181221D01*
X72865000Y-126204500D01*
X72865000Y-126779500D01*
X72863856Y-126802779D01*
X72860437Y-126825834D01*
X72854773Y-126848443D01*
X72846921Y-126870387D01*
X72836956Y-126891457D01*
X72824974Y-126911448D01*
X72811090Y-126930168D01*
X72795438Y-126947438D01*
X72778168Y-126963090D01*
X72759448Y-126976974D01*
X72739457Y-126988956D01*
X72718387Y-126998921D01*
X72696443Y-127006773D01*
X72673834Y-127012437D01*
X72650779Y-127015856D01*
X72627500Y-127017000D01*
X72152500Y-127017000D01*
X72129221Y-127015856D01*
X72106166Y-127012437D01*
X72083557Y-127006773D01*
X72061613Y-126998921D01*
X72040543Y-126988956D01*
X72020552Y-126976974D01*
X72001832Y-126963090D01*
X71984562Y-126947438D01*
X71968910Y-126930168D01*
X71955026Y-126911448D01*
X71943044Y-126891457D01*
X71933079Y-126870387D01*
X71925227Y-126848443D01*
X71919563Y-126825834D01*
X71916144Y-126802779D01*
X71915000Y-126779500D01*
X71915000Y-126204500D01*
X71916144Y-126181221D01*
X71919563Y-126158166D01*
X71925227Y-126135557D01*
X71933079Y-126113613D01*
X71943044Y-126092543D01*
X71955026Y-126072552D01*
X71968910Y-126053832D01*
X71984562Y-126036562D01*
X72001832Y-126020910D01*
X72020552Y-126007026D01*
X72040543Y-125995044D01*
X72061613Y-125985079D01*
X72083557Y-125977227D01*
X72106166Y-125971563D01*
X72129221Y-125968144D01*
X72152500Y-125967000D01*
X72627500Y-125967000D01*
X72650779Y-125968144D01*
X72650779Y-125968144D01*
G37*
D11*
X72390000Y-126492000D03*
G04 #@! TD*
D10*
G04 #@! TO.C,R6*
G36*
X75190779Y-124218144D02*
X75213834Y-124221563D01*
X75236443Y-124227227D01*
X75258387Y-124235079D01*
X75279457Y-124245044D01*
X75299448Y-124257026D01*
X75318168Y-124270910D01*
X75335438Y-124286562D01*
X75351090Y-124303832D01*
X75364974Y-124322552D01*
X75376956Y-124342543D01*
X75386921Y-124363613D01*
X75394773Y-124385557D01*
X75400437Y-124408166D01*
X75403856Y-124431221D01*
X75405000Y-124454500D01*
X75405000Y-125029500D01*
X75403856Y-125052779D01*
X75400437Y-125075834D01*
X75394773Y-125098443D01*
X75386921Y-125120387D01*
X75376956Y-125141457D01*
X75364974Y-125161448D01*
X75351090Y-125180168D01*
X75335438Y-125197438D01*
X75318168Y-125213090D01*
X75299448Y-125226974D01*
X75279457Y-125238956D01*
X75258387Y-125248921D01*
X75236443Y-125256773D01*
X75213834Y-125262437D01*
X75190779Y-125265856D01*
X75167500Y-125267000D01*
X74692500Y-125267000D01*
X74669221Y-125265856D01*
X74646166Y-125262437D01*
X74623557Y-125256773D01*
X74601613Y-125248921D01*
X74580543Y-125238956D01*
X74560552Y-125226974D01*
X74541832Y-125213090D01*
X74524562Y-125197438D01*
X74508910Y-125180168D01*
X74495026Y-125161448D01*
X74483044Y-125141457D01*
X74473079Y-125120387D01*
X74465227Y-125098443D01*
X74459563Y-125075834D01*
X74456144Y-125052779D01*
X74455000Y-125029500D01*
X74455000Y-124454500D01*
X74456144Y-124431221D01*
X74459563Y-124408166D01*
X74465227Y-124385557D01*
X74473079Y-124363613D01*
X74483044Y-124342543D01*
X74495026Y-124322552D01*
X74508910Y-124303832D01*
X74524562Y-124286562D01*
X74541832Y-124270910D01*
X74560552Y-124257026D01*
X74580543Y-124245044D01*
X74601613Y-124235079D01*
X74623557Y-124227227D01*
X74646166Y-124221563D01*
X74669221Y-124218144D01*
X74692500Y-124217000D01*
X75167500Y-124217000D01*
X75190779Y-124218144D01*
X75190779Y-124218144D01*
G37*
D11*
X74930000Y-124742000D03*
D10*
G36*
X75190779Y-125968144D02*
X75213834Y-125971563D01*
X75236443Y-125977227D01*
X75258387Y-125985079D01*
X75279457Y-125995044D01*
X75299448Y-126007026D01*
X75318168Y-126020910D01*
X75335438Y-126036562D01*
X75351090Y-126053832D01*
X75364974Y-126072552D01*
X75376956Y-126092543D01*
X75386921Y-126113613D01*
X75394773Y-126135557D01*
X75400437Y-126158166D01*
X75403856Y-126181221D01*
X75405000Y-126204500D01*
X75405000Y-126779500D01*
X75403856Y-126802779D01*
X75400437Y-126825834D01*
X75394773Y-126848443D01*
X75386921Y-126870387D01*
X75376956Y-126891457D01*
X75364974Y-126911448D01*
X75351090Y-126930168D01*
X75335438Y-126947438D01*
X75318168Y-126963090D01*
X75299448Y-126976974D01*
X75279457Y-126988956D01*
X75258387Y-126998921D01*
X75236443Y-127006773D01*
X75213834Y-127012437D01*
X75190779Y-127015856D01*
X75167500Y-127017000D01*
X74692500Y-127017000D01*
X74669221Y-127015856D01*
X74646166Y-127012437D01*
X74623557Y-127006773D01*
X74601613Y-126998921D01*
X74580543Y-126988956D01*
X74560552Y-126976974D01*
X74541832Y-126963090D01*
X74524562Y-126947438D01*
X74508910Y-126930168D01*
X74495026Y-126911448D01*
X74483044Y-126891457D01*
X74473079Y-126870387D01*
X74465227Y-126848443D01*
X74459563Y-126825834D01*
X74456144Y-126802779D01*
X74455000Y-126779500D01*
X74455000Y-126204500D01*
X74456144Y-126181221D01*
X74459563Y-126158166D01*
X74465227Y-126135557D01*
X74473079Y-126113613D01*
X74483044Y-126092543D01*
X74495026Y-126072552D01*
X74508910Y-126053832D01*
X74524562Y-126036562D01*
X74541832Y-126020910D01*
X74560552Y-126007026D01*
X74580543Y-125995044D01*
X74601613Y-125985079D01*
X74623557Y-125977227D01*
X74646166Y-125971563D01*
X74669221Y-125968144D01*
X74692500Y-125967000D01*
X75167500Y-125967000D01*
X75190779Y-125968144D01*
X75190779Y-125968144D01*
G37*
D11*
X74930000Y-126492000D03*
G04 #@! TD*
D10*
G04 #@! TO.C,R7*
G36*
X77730779Y-124218144D02*
X77753834Y-124221563D01*
X77776443Y-124227227D01*
X77798387Y-124235079D01*
X77819457Y-124245044D01*
X77839448Y-124257026D01*
X77858168Y-124270910D01*
X77875438Y-124286562D01*
X77891090Y-124303832D01*
X77904974Y-124322552D01*
X77916956Y-124342543D01*
X77926921Y-124363613D01*
X77934773Y-124385557D01*
X77940437Y-124408166D01*
X77943856Y-124431221D01*
X77945000Y-124454500D01*
X77945000Y-125029500D01*
X77943856Y-125052779D01*
X77940437Y-125075834D01*
X77934773Y-125098443D01*
X77926921Y-125120387D01*
X77916956Y-125141457D01*
X77904974Y-125161448D01*
X77891090Y-125180168D01*
X77875438Y-125197438D01*
X77858168Y-125213090D01*
X77839448Y-125226974D01*
X77819457Y-125238956D01*
X77798387Y-125248921D01*
X77776443Y-125256773D01*
X77753834Y-125262437D01*
X77730779Y-125265856D01*
X77707500Y-125267000D01*
X77232500Y-125267000D01*
X77209221Y-125265856D01*
X77186166Y-125262437D01*
X77163557Y-125256773D01*
X77141613Y-125248921D01*
X77120543Y-125238956D01*
X77100552Y-125226974D01*
X77081832Y-125213090D01*
X77064562Y-125197438D01*
X77048910Y-125180168D01*
X77035026Y-125161448D01*
X77023044Y-125141457D01*
X77013079Y-125120387D01*
X77005227Y-125098443D01*
X76999563Y-125075834D01*
X76996144Y-125052779D01*
X76995000Y-125029500D01*
X76995000Y-124454500D01*
X76996144Y-124431221D01*
X76999563Y-124408166D01*
X77005227Y-124385557D01*
X77013079Y-124363613D01*
X77023044Y-124342543D01*
X77035026Y-124322552D01*
X77048910Y-124303832D01*
X77064562Y-124286562D01*
X77081832Y-124270910D01*
X77100552Y-124257026D01*
X77120543Y-124245044D01*
X77141613Y-124235079D01*
X77163557Y-124227227D01*
X77186166Y-124221563D01*
X77209221Y-124218144D01*
X77232500Y-124217000D01*
X77707500Y-124217000D01*
X77730779Y-124218144D01*
X77730779Y-124218144D01*
G37*
D11*
X77470000Y-124742000D03*
D10*
G36*
X77730779Y-125968144D02*
X77753834Y-125971563D01*
X77776443Y-125977227D01*
X77798387Y-125985079D01*
X77819457Y-125995044D01*
X77839448Y-126007026D01*
X77858168Y-126020910D01*
X77875438Y-126036562D01*
X77891090Y-126053832D01*
X77904974Y-126072552D01*
X77916956Y-126092543D01*
X77926921Y-126113613D01*
X77934773Y-126135557D01*
X77940437Y-126158166D01*
X77943856Y-126181221D01*
X77945000Y-126204500D01*
X77945000Y-126779500D01*
X77943856Y-126802779D01*
X77940437Y-126825834D01*
X77934773Y-126848443D01*
X77926921Y-126870387D01*
X77916956Y-126891457D01*
X77904974Y-126911448D01*
X77891090Y-126930168D01*
X77875438Y-126947438D01*
X77858168Y-126963090D01*
X77839448Y-126976974D01*
X77819457Y-126988956D01*
X77798387Y-126998921D01*
X77776443Y-127006773D01*
X77753834Y-127012437D01*
X77730779Y-127015856D01*
X77707500Y-127017000D01*
X77232500Y-127017000D01*
X77209221Y-127015856D01*
X77186166Y-127012437D01*
X77163557Y-127006773D01*
X77141613Y-126998921D01*
X77120543Y-126988956D01*
X77100552Y-126976974D01*
X77081832Y-126963090D01*
X77064562Y-126947438D01*
X77048910Y-126930168D01*
X77035026Y-126911448D01*
X77023044Y-126891457D01*
X77013079Y-126870387D01*
X77005227Y-126848443D01*
X76999563Y-126825834D01*
X76996144Y-126802779D01*
X76995000Y-126779500D01*
X76995000Y-126204500D01*
X76996144Y-126181221D01*
X76999563Y-126158166D01*
X77005227Y-126135557D01*
X77013079Y-126113613D01*
X77023044Y-126092543D01*
X77035026Y-126072552D01*
X77048910Y-126053832D01*
X77064562Y-126036562D01*
X77081832Y-126020910D01*
X77100552Y-126007026D01*
X77120543Y-125995044D01*
X77141613Y-125985079D01*
X77163557Y-125977227D01*
X77186166Y-125971563D01*
X77209221Y-125968144D01*
X77232500Y-125967000D01*
X77707500Y-125967000D01*
X77730779Y-125968144D01*
X77730779Y-125968144D01*
G37*
D11*
X77470000Y-126492000D03*
G04 #@! TD*
D10*
G04 #@! TO.C,R8*
G36*
X79000779Y-104858144D02*
X79023834Y-104861563D01*
X79046443Y-104867227D01*
X79068387Y-104875079D01*
X79089457Y-104885044D01*
X79109448Y-104897026D01*
X79128168Y-104910910D01*
X79145438Y-104926562D01*
X79161090Y-104943832D01*
X79174974Y-104962552D01*
X79186956Y-104982543D01*
X79196921Y-105003613D01*
X79204773Y-105025557D01*
X79210437Y-105048166D01*
X79213856Y-105071221D01*
X79215000Y-105094500D01*
X79215000Y-105669500D01*
X79213856Y-105692779D01*
X79210437Y-105715834D01*
X79204773Y-105738443D01*
X79196921Y-105760387D01*
X79186956Y-105781457D01*
X79174974Y-105801448D01*
X79161090Y-105820168D01*
X79145438Y-105837438D01*
X79128168Y-105853090D01*
X79109448Y-105866974D01*
X79089457Y-105878956D01*
X79068387Y-105888921D01*
X79046443Y-105896773D01*
X79023834Y-105902437D01*
X79000779Y-105905856D01*
X78977500Y-105907000D01*
X78502500Y-105907000D01*
X78479221Y-105905856D01*
X78456166Y-105902437D01*
X78433557Y-105896773D01*
X78411613Y-105888921D01*
X78390543Y-105878956D01*
X78370552Y-105866974D01*
X78351832Y-105853090D01*
X78334562Y-105837438D01*
X78318910Y-105820168D01*
X78305026Y-105801448D01*
X78293044Y-105781457D01*
X78283079Y-105760387D01*
X78275227Y-105738443D01*
X78269563Y-105715834D01*
X78266144Y-105692779D01*
X78265000Y-105669500D01*
X78265000Y-105094500D01*
X78266144Y-105071221D01*
X78269563Y-105048166D01*
X78275227Y-105025557D01*
X78283079Y-105003613D01*
X78293044Y-104982543D01*
X78305026Y-104962552D01*
X78318910Y-104943832D01*
X78334562Y-104926562D01*
X78351832Y-104910910D01*
X78370552Y-104897026D01*
X78390543Y-104885044D01*
X78411613Y-104875079D01*
X78433557Y-104867227D01*
X78456166Y-104861563D01*
X78479221Y-104858144D01*
X78502500Y-104857000D01*
X78977500Y-104857000D01*
X79000779Y-104858144D01*
X79000779Y-104858144D01*
G37*
D11*
X78740000Y-105382000D03*
D10*
G36*
X79000779Y-103108144D02*
X79023834Y-103111563D01*
X79046443Y-103117227D01*
X79068387Y-103125079D01*
X79089457Y-103135044D01*
X79109448Y-103147026D01*
X79128168Y-103160910D01*
X79145438Y-103176562D01*
X79161090Y-103193832D01*
X79174974Y-103212552D01*
X79186956Y-103232543D01*
X79196921Y-103253613D01*
X79204773Y-103275557D01*
X79210437Y-103298166D01*
X79213856Y-103321221D01*
X79215000Y-103344500D01*
X79215000Y-103919500D01*
X79213856Y-103942779D01*
X79210437Y-103965834D01*
X79204773Y-103988443D01*
X79196921Y-104010387D01*
X79186956Y-104031457D01*
X79174974Y-104051448D01*
X79161090Y-104070168D01*
X79145438Y-104087438D01*
X79128168Y-104103090D01*
X79109448Y-104116974D01*
X79089457Y-104128956D01*
X79068387Y-104138921D01*
X79046443Y-104146773D01*
X79023834Y-104152437D01*
X79000779Y-104155856D01*
X78977500Y-104157000D01*
X78502500Y-104157000D01*
X78479221Y-104155856D01*
X78456166Y-104152437D01*
X78433557Y-104146773D01*
X78411613Y-104138921D01*
X78390543Y-104128956D01*
X78370552Y-104116974D01*
X78351832Y-104103090D01*
X78334562Y-104087438D01*
X78318910Y-104070168D01*
X78305026Y-104051448D01*
X78293044Y-104031457D01*
X78283079Y-104010387D01*
X78275227Y-103988443D01*
X78269563Y-103965834D01*
X78266144Y-103942779D01*
X78265000Y-103919500D01*
X78265000Y-103344500D01*
X78266144Y-103321221D01*
X78269563Y-103298166D01*
X78275227Y-103275557D01*
X78283079Y-103253613D01*
X78293044Y-103232543D01*
X78305026Y-103212552D01*
X78318910Y-103193832D01*
X78334562Y-103176562D01*
X78351832Y-103160910D01*
X78370552Y-103147026D01*
X78390543Y-103135044D01*
X78411613Y-103125079D01*
X78433557Y-103117227D01*
X78456166Y-103111563D01*
X78479221Y-103108144D01*
X78502500Y-103107000D01*
X78977500Y-103107000D01*
X79000779Y-103108144D01*
X79000779Y-103108144D01*
G37*
D11*
X78740000Y-103632000D03*
G04 #@! TD*
D10*
G04 #@! TO.C,R9*
G36*
X86620779Y-103108144D02*
X86643834Y-103111563D01*
X86666443Y-103117227D01*
X86688387Y-103125079D01*
X86709457Y-103135044D01*
X86729448Y-103147026D01*
X86748168Y-103160910D01*
X86765438Y-103176562D01*
X86781090Y-103193832D01*
X86794974Y-103212552D01*
X86806956Y-103232543D01*
X86816921Y-103253613D01*
X86824773Y-103275557D01*
X86830437Y-103298166D01*
X86833856Y-103321221D01*
X86835000Y-103344500D01*
X86835000Y-103919500D01*
X86833856Y-103942779D01*
X86830437Y-103965834D01*
X86824773Y-103988443D01*
X86816921Y-104010387D01*
X86806956Y-104031457D01*
X86794974Y-104051448D01*
X86781090Y-104070168D01*
X86765438Y-104087438D01*
X86748168Y-104103090D01*
X86729448Y-104116974D01*
X86709457Y-104128956D01*
X86688387Y-104138921D01*
X86666443Y-104146773D01*
X86643834Y-104152437D01*
X86620779Y-104155856D01*
X86597500Y-104157000D01*
X86122500Y-104157000D01*
X86099221Y-104155856D01*
X86076166Y-104152437D01*
X86053557Y-104146773D01*
X86031613Y-104138921D01*
X86010543Y-104128956D01*
X85990552Y-104116974D01*
X85971832Y-104103090D01*
X85954562Y-104087438D01*
X85938910Y-104070168D01*
X85925026Y-104051448D01*
X85913044Y-104031457D01*
X85903079Y-104010387D01*
X85895227Y-103988443D01*
X85889563Y-103965834D01*
X85886144Y-103942779D01*
X85885000Y-103919500D01*
X85885000Y-103344500D01*
X85886144Y-103321221D01*
X85889563Y-103298166D01*
X85895227Y-103275557D01*
X85903079Y-103253613D01*
X85913044Y-103232543D01*
X85925026Y-103212552D01*
X85938910Y-103193832D01*
X85954562Y-103176562D01*
X85971832Y-103160910D01*
X85990552Y-103147026D01*
X86010543Y-103135044D01*
X86031613Y-103125079D01*
X86053557Y-103117227D01*
X86076166Y-103111563D01*
X86099221Y-103108144D01*
X86122500Y-103107000D01*
X86597500Y-103107000D01*
X86620779Y-103108144D01*
X86620779Y-103108144D01*
G37*
D11*
X86360000Y-103632000D03*
D10*
G36*
X86620779Y-104858144D02*
X86643834Y-104861563D01*
X86666443Y-104867227D01*
X86688387Y-104875079D01*
X86709457Y-104885044D01*
X86729448Y-104897026D01*
X86748168Y-104910910D01*
X86765438Y-104926562D01*
X86781090Y-104943832D01*
X86794974Y-104962552D01*
X86806956Y-104982543D01*
X86816921Y-105003613D01*
X86824773Y-105025557D01*
X86830437Y-105048166D01*
X86833856Y-105071221D01*
X86835000Y-105094500D01*
X86835000Y-105669500D01*
X86833856Y-105692779D01*
X86830437Y-105715834D01*
X86824773Y-105738443D01*
X86816921Y-105760387D01*
X86806956Y-105781457D01*
X86794974Y-105801448D01*
X86781090Y-105820168D01*
X86765438Y-105837438D01*
X86748168Y-105853090D01*
X86729448Y-105866974D01*
X86709457Y-105878956D01*
X86688387Y-105888921D01*
X86666443Y-105896773D01*
X86643834Y-105902437D01*
X86620779Y-105905856D01*
X86597500Y-105907000D01*
X86122500Y-105907000D01*
X86099221Y-105905856D01*
X86076166Y-105902437D01*
X86053557Y-105896773D01*
X86031613Y-105888921D01*
X86010543Y-105878956D01*
X85990552Y-105866974D01*
X85971832Y-105853090D01*
X85954562Y-105837438D01*
X85938910Y-105820168D01*
X85925026Y-105801448D01*
X85913044Y-105781457D01*
X85903079Y-105760387D01*
X85895227Y-105738443D01*
X85889563Y-105715834D01*
X85886144Y-105692779D01*
X85885000Y-105669500D01*
X85885000Y-105094500D01*
X85886144Y-105071221D01*
X85889563Y-105048166D01*
X85895227Y-105025557D01*
X85903079Y-105003613D01*
X85913044Y-104982543D01*
X85925026Y-104962552D01*
X85938910Y-104943832D01*
X85954562Y-104926562D01*
X85971832Y-104910910D01*
X85990552Y-104897026D01*
X86010543Y-104885044D01*
X86031613Y-104875079D01*
X86053557Y-104867227D01*
X86076166Y-104861563D01*
X86099221Y-104858144D01*
X86122500Y-104857000D01*
X86597500Y-104857000D01*
X86620779Y-104858144D01*
X86620779Y-104858144D01*
G37*
D11*
X86360000Y-105382000D03*
G04 #@! TD*
D10*
G04 #@! TO.C,R10*
G36*
X94240779Y-104858144D02*
X94263834Y-104861563D01*
X94286443Y-104867227D01*
X94308387Y-104875079D01*
X94329457Y-104885044D01*
X94349448Y-104897026D01*
X94368168Y-104910910D01*
X94385438Y-104926562D01*
X94401090Y-104943832D01*
X94414974Y-104962552D01*
X94426956Y-104982543D01*
X94436921Y-105003613D01*
X94444773Y-105025557D01*
X94450437Y-105048166D01*
X94453856Y-105071221D01*
X94455000Y-105094500D01*
X94455000Y-105669500D01*
X94453856Y-105692779D01*
X94450437Y-105715834D01*
X94444773Y-105738443D01*
X94436921Y-105760387D01*
X94426956Y-105781457D01*
X94414974Y-105801448D01*
X94401090Y-105820168D01*
X94385438Y-105837438D01*
X94368168Y-105853090D01*
X94349448Y-105866974D01*
X94329457Y-105878956D01*
X94308387Y-105888921D01*
X94286443Y-105896773D01*
X94263834Y-105902437D01*
X94240779Y-105905856D01*
X94217500Y-105907000D01*
X93742500Y-105907000D01*
X93719221Y-105905856D01*
X93696166Y-105902437D01*
X93673557Y-105896773D01*
X93651613Y-105888921D01*
X93630543Y-105878956D01*
X93610552Y-105866974D01*
X93591832Y-105853090D01*
X93574562Y-105837438D01*
X93558910Y-105820168D01*
X93545026Y-105801448D01*
X93533044Y-105781457D01*
X93523079Y-105760387D01*
X93515227Y-105738443D01*
X93509563Y-105715834D01*
X93506144Y-105692779D01*
X93505000Y-105669500D01*
X93505000Y-105094500D01*
X93506144Y-105071221D01*
X93509563Y-105048166D01*
X93515227Y-105025557D01*
X93523079Y-105003613D01*
X93533044Y-104982543D01*
X93545026Y-104962552D01*
X93558910Y-104943832D01*
X93574562Y-104926562D01*
X93591832Y-104910910D01*
X93610552Y-104897026D01*
X93630543Y-104885044D01*
X93651613Y-104875079D01*
X93673557Y-104867227D01*
X93696166Y-104861563D01*
X93719221Y-104858144D01*
X93742500Y-104857000D01*
X94217500Y-104857000D01*
X94240779Y-104858144D01*
X94240779Y-104858144D01*
G37*
D11*
X93980000Y-105382000D03*
D10*
G36*
X94240779Y-103108144D02*
X94263834Y-103111563D01*
X94286443Y-103117227D01*
X94308387Y-103125079D01*
X94329457Y-103135044D01*
X94349448Y-103147026D01*
X94368168Y-103160910D01*
X94385438Y-103176562D01*
X94401090Y-103193832D01*
X94414974Y-103212552D01*
X94426956Y-103232543D01*
X94436921Y-103253613D01*
X94444773Y-103275557D01*
X94450437Y-103298166D01*
X94453856Y-103321221D01*
X94455000Y-103344500D01*
X94455000Y-103919500D01*
X94453856Y-103942779D01*
X94450437Y-103965834D01*
X94444773Y-103988443D01*
X94436921Y-104010387D01*
X94426956Y-104031457D01*
X94414974Y-104051448D01*
X94401090Y-104070168D01*
X94385438Y-104087438D01*
X94368168Y-104103090D01*
X94349448Y-104116974D01*
X94329457Y-104128956D01*
X94308387Y-104138921D01*
X94286443Y-104146773D01*
X94263834Y-104152437D01*
X94240779Y-104155856D01*
X94217500Y-104157000D01*
X93742500Y-104157000D01*
X93719221Y-104155856D01*
X93696166Y-104152437D01*
X93673557Y-104146773D01*
X93651613Y-104138921D01*
X93630543Y-104128956D01*
X93610552Y-104116974D01*
X93591832Y-104103090D01*
X93574562Y-104087438D01*
X93558910Y-104070168D01*
X93545026Y-104051448D01*
X93533044Y-104031457D01*
X93523079Y-104010387D01*
X93515227Y-103988443D01*
X93509563Y-103965834D01*
X93506144Y-103942779D01*
X93505000Y-103919500D01*
X93505000Y-103344500D01*
X93506144Y-103321221D01*
X93509563Y-103298166D01*
X93515227Y-103275557D01*
X93523079Y-103253613D01*
X93533044Y-103232543D01*
X93545026Y-103212552D01*
X93558910Y-103193832D01*
X93574562Y-103176562D01*
X93591832Y-103160910D01*
X93610552Y-103147026D01*
X93630543Y-103135044D01*
X93651613Y-103125079D01*
X93673557Y-103117227D01*
X93696166Y-103111563D01*
X93719221Y-103108144D01*
X93742500Y-103107000D01*
X94217500Y-103107000D01*
X94240779Y-103108144D01*
X94240779Y-103108144D01*
G37*
D11*
X93980000Y-103632000D03*
G04 #@! TD*
D10*
G04 #@! TO.C,R11*
G36*
X101860779Y-103108144D02*
X101883834Y-103111563D01*
X101906443Y-103117227D01*
X101928387Y-103125079D01*
X101949457Y-103135044D01*
X101969448Y-103147026D01*
X101988168Y-103160910D01*
X102005438Y-103176562D01*
X102021090Y-103193832D01*
X102034974Y-103212552D01*
X102046956Y-103232543D01*
X102056921Y-103253613D01*
X102064773Y-103275557D01*
X102070437Y-103298166D01*
X102073856Y-103321221D01*
X102075000Y-103344500D01*
X102075000Y-103919500D01*
X102073856Y-103942779D01*
X102070437Y-103965834D01*
X102064773Y-103988443D01*
X102056921Y-104010387D01*
X102046956Y-104031457D01*
X102034974Y-104051448D01*
X102021090Y-104070168D01*
X102005438Y-104087438D01*
X101988168Y-104103090D01*
X101969448Y-104116974D01*
X101949457Y-104128956D01*
X101928387Y-104138921D01*
X101906443Y-104146773D01*
X101883834Y-104152437D01*
X101860779Y-104155856D01*
X101837500Y-104157000D01*
X101362500Y-104157000D01*
X101339221Y-104155856D01*
X101316166Y-104152437D01*
X101293557Y-104146773D01*
X101271613Y-104138921D01*
X101250543Y-104128956D01*
X101230552Y-104116974D01*
X101211832Y-104103090D01*
X101194562Y-104087438D01*
X101178910Y-104070168D01*
X101165026Y-104051448D01*
X101153044Y-104031457D01*
X101143079Y-104010387D01*
X101135227Y-103988443D01*
X101129563Y-103965834D01*
X101126144Y-103942779D01*
X101125000Y-103919500D01*
X101125000Y-103344500D01*
X101126144Y-103321221D01*
X101129563Y-103298166D01*
X101135227Y-103275557D01*
X101143079Y-103253613D01*
X101153044Y-103232543D01*
X101165026Y-103212552D01*
X101178910Y-103193832D01*
X101194562Y-103176562D01*
X101211832Y-103160910D01*
X101230552Y-103147026D01*
X101250543Y-103135044D01*
X101271613Y-103125079D01*
X101293557Y-103117227D01*
X101316166Y-103111563D01*
X101339221Y-103108144D01*
X101362500Y-103107000D01*
X101837500Y-103107000D01*
X101860779Y-103108144D01*
X101860779Y-103108144D01*
G37*
D11*
X101600000Y-103632000D03*
D10*
G36*
X101860779Y-104858144D02*
X101883834Y-104861563D01*
X101906443Y-104867227D01*
X101928387Y-104875079D01*
X101949457Y-104885044D01*
X101969448Y-104897026D01*
X101988168Y-104910910D01*
X102005438Y-104926562D01*
X102021090Y-104943832D01*
X102034974Y-104962552D01*
X102046956Y-104982543D01*
X102056921Y-105003613D01*
X102064773Y-105025557D01*
X102070437Y-105048166D01*
X102073856Y-105071221D01*
X102075000Y-105094500D01*
X102075000Y-105669500D01*
X102073856Y-105692779D01*
X102070437Y-105715834D01*
X102064773Y-105738443D01*
X102056921Y-105760387D01*
X102046956Y-105781457D01*
X102034974Y-105801448D01*
X102021090Y-105820168D01*
X102005438Y-105837438D01*
X101988168Y-105853090D01*
X101969448Y-105866974D01*
X101949457Y-105878956D01*
X101928387Y-105888921D01*
X101906443Y-105896773D01*
X101883834Y-105902437D01*
X101860779Y-105905856D01*
X101837500Y-105907000D01*
X101362500Y-105907000D01*
X101339221Y-105905856D01*
X101316166Y-105902437D01*
X101293557Y-105896773D01*
X101271613Y-105888921D01*
X101250543Y-105878956D01*
X101230552Y-105866974D01*
X101211832Y-105853090D01*
X101194562Y-105837438D01*
X101178910Y-105820168D01*
X101165026Y-105801448D01*
X101153044Y-105781457D01*
X101143079Y-105760387D01*
X101135227Y-105738443D01*
X101129563Y-105715834D01*
X101126144Y-105692779D01*
X101125000Y-105669500D01*
X101125000Y-105094500D01*
X101126144Y-105071221D01*
X101129563Y-105048166D01*
X101135227Y-105025557D01*
X101143079Y-105003613D01*
X101153044Y-104982543D01*
X101165026Y-104962552D01*
X101178910Y-104943832D01*
X101194562Y-104926562D01*
X101211832Y-104910910D01*
X101230552Y-104897026D01*
X101250543Y-104885044D01*
X101271613Y-104875079D01*
X101293557Y-104867227D01*
X101316166Y-104861563D01*
X101339221Y-104858144D01*
X101362500Y-104857000D01*
X101837500Y-104857000D01*
X101860779Y-104858144D01*
X101860779Y-104858144D01*
G37*
D11*
X101600000Y-105382000D03*
G04 #@! TD*
D10*
G04 #@! TO.C,R12*
G36*
X109480779Y-104858144D02*
X109503834Y-104861563D01*
X109526443Y-104867227D01*
X109548387Y-104875079D01*
X109569457Y-104885044D01*
X109589448Y-104897026D01*
X109608168Y-104910910D01*
X109625438Y-104926562D01*
X109641090Y-104943832D01*
X109654974Y-104962552D01*
X109666956Y-104982543D01*
X109676921Y-105003613D01*
X109684773Y-105025557D01*
X109690437Y-105048166D01*
X109693856Y-105071221D01*
X109695000Y-105094500D01*
X109695000Y-105669500D01*
X109693856Y-105692779D01*
X109690437Y-105715834D01*
X109684773Y-105738443D01*
X109676921Y-105760387D01*
X109666956Y-105781457D01*
X109654974Y-105801448D01*
X109641090Y-105820168D01*
X109625438Y-105837438D01*
X109608168Y-105853090D01*
X109589448Y-105866974D01*
X109569457Y-105878956D01*
X109548387Y-105888921D01*
X109526443Y-105896773D01*
X109503834Y-105902437D01*
X109480779Y-105905856D01*
X109457500Y-105907000D01*
X108982500Y-105907000D01*
X108959221Y-105905856D01*
X108936166Y-105902437D01*
X108913557Y-105896773D01*
X108891613Y-105888921D01*
X108870543Y-105878956D01*
X108850552Y-105866974D01*
X108831832Y-105853090D01*
X108814562Y-105837438D01*
X108798910Y-105820168D01*
X108785026Y-105801448D01*
X108773044Y-105781457D01*
X108763079Y-105760387D01*
X108755227Y-105738443D01*
X108749563Y-105715834D01*
X108746144Y-105692779D01*
X108745000Y-105669500D01*
X108745000Y-105094500D01*
X108746144Y-105071221D01*
X108749563Y-105048166D01*
X108755227Y-105025557D01*
X108763079Y-105003613D01*
X108773044Y-104982543D01*
X108785026Y-104962552D01*
X108798910Y-104943832D01*
X108814562Y-104926562D01*
X108831832Y-104910910D01*
X108850552Y-104897026D01*
X108870543Y-104885044D01*
X108891613Y-104875079D01*
X108913557Y-104867227D01*
X108936166Y-104861563D01*
X108959221Y-104858144D01*
X108982500Y-104857000D01*
X109457500Y-104857000D01*
X109480779Y-104858144D01*
X109480779Y-104858144D01*
G37*
D11*
X109220000Y-105382000D03*
D10*
G36*
X109480779Y-103108144D02*
X109503834Y-103111563D01*
X109526443Y-103117227D01*
X109548387Y-103125079D01*
X109569457Y-103135044D01*
X109589448Y-103147026D01*
X109608168Y-103160910D01*
X109625438Y-103176562D01*
X109641090Y-103193832D01*
X109654974Y-103212552D01*
X109666956Y-103232543D01*
X109676921Y-103253613D01*
X109684773Y-103275557D01*
X109690437Y-103298166D01*
X109693856Y-103321221D01*
X109695000Y-103344500D01*
X109695000Y-103919500D01*
X109693856Y-103942779D01*
X109690437Y-103965834D01*
X109684773Y-103988443D01*
X109676921Y-104010387D01*
X109666956Y-104031457D01*
X109654974Y-104051448D01*
X109641090Y-104070168D01*
X109625438Y-104087438D01*
X109608168Y-104103090D01*
X109589448Y-104116974D01*
X109569457Y-104128956D01*
X109548387Y-104138921D01*
X109526443Y-104146773D01*
X109503834Y-104152437D01*
X109480779Y-104155856D01*
X109457500Y-104157000D01*
X108982500Y-104157000D01*
X108959221Y-104155856D01*
X108936166Y-104152437D01*
X108913557Y-104146773D01*
X108891613Y-104138921D01*
X108870543Y-104128956D01*
X108850552Y-104116974D01*
X108831832Y-104103090D01*
X108814562Y-104087438D01*
X108798910Y-104070168D01*
X108785026Y-104051448D01*
X108773044Y-104031457D01*
X108763079Y-104010387D01*
X108755227Y-103988443D01*
X108749563Y-103965834D01*
X108746144Y-103942779D01*
X108745000Y-103919500D01*
X108745000Y-103344500D01*
X108746144Y-103321221D01*
X108749563Y-103298166D01*
X108755227Y-103275557D01*
X108763079Y-103253613D01*
X108773044Y-103232543D01*
X108785026Y-103212552D01*
X108798910Y-103193832D01*
X108814562Y-103176562D01*
X108831832Y-103160910D01*
X108850552Y-103147026D01*
X108870543Y-103135044D01*
X108891613Y-103125079D01*
X108913557Y-103117227D01*
X108936166Y-103111563D01*
X108959221Y-103108144D01*
X108982500Y-103107000D01*
X109457500Y-103107000D01*
X109480779Y-103108144D01*
X109480779Y-103108144D01*
G37*
D11*
X109220000Y-103632000D03*
G04 #@! TD*
D10*
G04 #@! TO.C,R13*
G36*
X117100779Y-103108144D02*
X117123834Y-103111563D01*
X117146443Y-103117227D01*
X117168387Y-103125079D01*
X117189457Y-103135044D01*
X117209448Y-103147026D01*
X117228168Y-103160910D01*
X117245438Y-103176562D01*
X117261090Y-103193832D01*
X117274974Y-103212552D01*
X117286956Y-103232543D01*
X117296921Y-103253613D01*
X117304773Y-103275557D01*
X117310437Y-103298166D01*
X117313856Y-103321221D01*
X117315000Y-103344500D01*
X117315000Y-103919500D01*
X117313856Y-103942779D01*
X117310437Y-103965834D01*
X117304773Y-103988443D01*
X117296921Y-104010387D01*
X117286956Y-104031457D01*
X117274974Y-104051448D01*
X117261090Y-104070168D01*
X117245438Y-104087438D01*
X117228168Y-104103090D01*
X117209448Y-104116974D01*
X117189457Y-104128956D01*
X117168387Y-104138921D01*
X117146443Y-104146773D01*
X117123834Y-104152437D01*
X117100779Y-104155856D01*
X117077500Y-104157000D01*
X116602500Y-104157000D01*
X116579221Y-104155856D01*
X116556166Y-104152437D01*
X116533557Y-104146773D01*
X116511613Y-104138921D01*
X116490543Y-104128956D01*
X116470552Y-104116974D01*
X116451832Y-104103090D01*
X116434562Y-104087438D01*
X116418910Y-104070168D01*
X116405026Y-104051448D01*
X116393044Y-104031457D01*
X116383079Y-104010387D01*
X116375227Y-103988443D01*
X116369563Y-103965834D01*
X116366144Y-103942779D01*
X116365000Y-103919500D01*
X116365000Y-103344500D01*
X116366144Y-103321221D01*
X116369563Y-103298166D01*
X116375227Y-103275557D01*
X116383079Y-103253613D01*
X116393044Y-103232543D01*
X116405026Y-103212552D01*
X116418910Y-103193832D01*
X116434562Y-103176562D01*
X116451832Y-103160910D01*
X116470552Y-103147026D01*
X116490543Y-103135044D01*
X116511613Y-103125079D01*
X116533557Y-103117227D01*
X116556166Y-103111563D01*
X116579221Y-103108144D01*
X116602500Y-103107000D01*
X117077500Y-103107000D01*
X117100779Y-103108144D01*
X117100779Y-103108144D01*
G37*
D11*
X116840000Y-103632000D03*
D10*
G36*
X117100779Y-104858144D02*
X117123834Y-104861563D01*
X117146443Y-104867227D01*
X117168387Y-104875079D01*
X117189457Y-104885044D01*
X117209448Y-104897026D01*
X117228168Y-104910910D01*
X117245438Y-104926562D01*
X117261090Y-104943832D01*
X117274974Y-104962552D01*
X117286956Y-104982543D01*
X117296921Y-105003613D01*
X117304773Y-105025557D01*
X117310437Y-105048166D01*
X117313856Y-105071221D01*
X117315000Y-105094500D01*
X117315000Y-105669500D01*
X117313856Y-105692779D01*
X117310437Y-105715834D01*
X117304773Y-105738443D01*
X117296921Y-105760387D01*
X117286956Y-105781457D01*
X117274974Y-105801448D01*
X117261090Y-105820168D01*
X117245438Y-105837438D01*
X117228168Y-105853090D01*
X117209448Y-105866974D01*
X117189457Y-105878956D01*
X117168387Y-105888921D01*
X117146443Y-105896773D01*
X117123834Y-105902437D01*
X117100779Y-105905856D01*
X117077500Y-105907000D01*
X116602500Y-105907000D01*
X116579221Y-105905856D01*
X116556166Y-105902437D01*
X116533557Y-105896773D01*
X116511613Y-105888921D01*
X116490543Y-105878956D01*
X116470552Y-105866974D01*
X116451832Y-105853090D01*
X116434562Y-105837438D01*
X116418910Y-105820168D01*
X116405026Y-105801448D01*
X116393044Y-105781457D01*
X116383079Y-105760387D01*
X116375227Y-105738443D01*
X116369563Y-105715834D01*
X116366144Y-105692779D01*
X116365000Y-105669500D01*
X116365000Y-105094500D01*
X116366144Y-105071221D01*
X116369563Y-105048166D01*
X116375227Y-105025557D01*
X116383079Y-105003613D01*
X116393044Y-104982543D01*
X116405026Y-104962552D01*
X116418910Y-104943832D01*
X116434562Y-104926562D01*
X116451832Y-104910910D01*
X116470552Y-104897026D01*
X116490543Y-104885044D01*
X116511613Y-104875079D01*
X116533557Y-104867227D01*
X116556166Y-104861563D01*
X116579221Y-104858144D01*
X116602500Y-104857000D01*
X117077500Y-104857000D01*
X117100779Y-104858144D01*
X117100779Y-104858144D01*
G37*
D11*
X116840000Y-105382000D03*
G04 #@! TD*
D10*
G04 #@! TO.C,R14*
G36*
X127564779Y-99348144D02*
X127587834Y-99351563D01*
X127610443Y-99357227D01*
X127632387Y-99365079D01*
X127653457Y-99375044D01*
X127673448Y-99387026D01*
X127692168Y-99400910D01*
X127709438Y-99416562D01*
X127725090Y-99433832D01*
X127738974Y-99452552D01*
X127750956Y-99472543D01*
X127760921Y-99493613D01*
X127768773Y-99515557D01*
X127774437Y-99538166D01*
X127777856Y-99561221D01*
X127779000Y-99584500D01*
X127779000Y-100059500D01*
X127777856Y-100082779D01*
X127774437Y-100105834D01*
X127768773Y-100128443D01*
X127760921Y-100150387D01*
X127750956Y-100171457D01*
X127738974Y-100191448D01*
X127725090Y-100210168D01*
X127709438Y-100227438D01*
X127692168Y-100243090D01*
X127673448Y-100256974D01*
X127653457Y-100268956D01*
X127632387Y-100278921D01*
X127610443Y-100286773D01*
X127587834Y-100292437D01*
X127564779Y-100295856D01*
X127541500Y-100297000D01*
X126966500Y-100297000D01*
X126943221Y-100295856D01*
X126920166Y-100292437D01*
X126897557Y-100286773D01*
X126875613Y-100278921D01*
X126854543Y-100268956D01*
X126834552Y-100256974D01*
X126815832Y-100243090D01*
X126798562Y-100227438D01*
X126782910Y-100210168D01*
X126769026Y-100191448D01*
X126757044Y-100171457D01*
X126747079Y-100150387D01*
X126739227Y-100128443D01*
X126733563Y-100105834D01*
X126730144Y-100082779D01*
X126729000Y-100059500D01*
X126729000Y-99584500D01*
X126730144Y-99561221D01*
X126733563Y-99538166D01*
X126739227Y-99515557D01*
X126747079Y-99493613D01*
X126757044Y-99472543D01*
X126769026Y-99452552D01*
X126782910Y-99433832D01*
X126798562Y-99416562D01*
X126815832Y-99400910D01*
X126834552Y-99387026D01*
X126854543Y-99375044D01*
X126875613Y-99365079D01*
X126897557Y-99357227D01*
X126920166Y-99351563D01*
X126943221Y-99348144D01*
X126966500Y-99347000D01*
X127541500Y-99347000D01*
X127564779Y-99348144D01*
X127564779Y-99348144D01*
G37*
D11*
X127254000Y-99822000D03*
D10*
G36*
X129314779Y-99348144D02*
X129337834Y-99351563D01*
X129360443Y-99357227D01*
X129382387Y-99365079D01*
X129403457Y-99375044D01*
X129423448Y-99387026D01*
X129442168Y-99400910D01*
X129459438Y-99416562D01*
X129475090Y-99433832D01*
X129488974Y-99452552D01*
X129500956Y-99472543D01*
X129510921Y-99493613D01*
X129518773Y-99515557D01*
X129524437Y-99538166D01*
X129527856Y-99561221D01*
X129529000Y-99584500D01*
X129529000Y-100059500D01*
X129527856Y-100082779D01*
X129524437Y-100105834D01*
X129518773Y-100128443D01*
X129510921Y-100150387D01*
X129500956Y-100171457D01*
X129488974Y-100191448D01*
X129475090Y-100210168D01*
X129459438Y-100227438D01*
X129442168Y-100243090D01*
X129423448Y-100256974D01*
X129403457Y-100268956D01*
X129382387Y-100278921D01*
X129360443Y-100286773D01*
X129337834Y-100292437D01*
X129314779Y-100295856D01*
X129291500Y-100297000D01*
X128716500Y-100297000D01*
X128693221Y-100295856D01*
X128670166Y-100292437D01*
X128647557Y-100286773D01*
X128625613Y-100278921D01*
X128604543Y-100268956D01*
X128584552Y-100256974D01*
X128565832Y-100243090D01*
X128548562Y-100227438D01*
X128532910Y-100210168D01*
X128519026Y-100191448D01*
X128507044Y-100171457D01*
X128497079Y-100150387D01*
X128489227Y-100128443D01*
X128483563Y-100105834D01*
X128480144Y-100082779D01*
X128479000Y-100059500D01*
X128479000Y-99584500D01*
X128480144Y-99561221D01*
X128483563Y-99538166D01*
X128489227Y-99515557D01*
X128497079Y-99493613D01*
X128507044Y-99472543D01*
X128519026Y-99452552D01*
X128532910Y-99433832D01*
X128548562Y-99416562D01*
X128565832Y-99400910D01*
X128584552Y-99387026D01*
X128604543Y-99375044D01*
X128625613Y-99365079D01*
X128647557Y-99357227D01*
X128670166Y-99351563D01*
X128693221Y-99348144D01*
X128716500Y-99347000D01*
X129291500Y-99347000D01*
X129314779Y-99348144D01*
X129314779Y-99348144D01*
G37*
D11*
X129004000Y-99822000D03*
G04 #@! TD*
D13*
G04 #@! TO.C,SW1*
X84280000Y-110832000D03*
X84280000Y-103632000D03*
X81280000Y-110832000D03*
X81280000Y-103632000D03*
G04 #@! TD*
G04 #@! TO.C,SW2*
X88900000Y-103632000D03*
X88900000Y-110832000D03*
X91900000Y-103632000D03*
X91900000Y-110832000D03*
G04 #@! TD*
G04 #@! TO.C,SW3*
X99520000Y-110832000D03*
X99520000Y-103632000D03*
X96520000Y-110832000D03*
X96520000Y-103632000D03*
G04 #@! TD*
G04 #@! TO.C,SW4*
X104140000Y-103632000D03*
X104140000Y-110832000D03*
X107140000Y-103632000D03*
X107140000Y-110832000D03*
G04 #@! TD*
G04 #@! TO.C,SW5*
X114760000Y-110832000D03*
X114760000Y-103632000D03*
X111760000Y-110832000D03*
X111760000Y-103632000D03*
G04 #@! TD*
G04 #@! TO.C,SW6*
X119380000Y-103632000D03*
X119380000Y-110832000D03*
X122380000Y-103632000D03*
X122380000Y-110832000D03*
G04 #@! TD*
D14*
G04 #@! TO.C,U1*
X76835000Y-94902000D03*
X78105000Y-94902000D03*
X79375000Y-94902000D03*
X80645000Y-94902000D03*
X80645000Y-89502000D03*
X79375000Y-89502000D03*
X78105000Y-89502000D03*
X76835000Y-89502000D03*
G04 #@! TD*
G04 #@! TO.C,U2*
X94615000Y-89502000D03*
X95885000Y-89502000D03*
X97155000Y-89502000D03*
X98425000Y-89502000D03*
X98425000Y-94902000D03*
X97155000Y-94902000D03*
X95885000Y-94902000D03*
X94615000Y-94902000D03*
G04 #@! TD*
G04 #@! TO.C,U5*
X112395000Y-94902000D03*
X113665000Y-94902000D03*
X114935000Y-94902000D03*
X116205000Y-94902000D03*
X116205000Y-89502000D03*
X114935000Y-89502000D03*
X113665000Y-89502000D03*
X112395000Y-89502000D03*
G04 #@! TD*
D10*
G04 #@! TO.C,D1*
G36*
X73942312Y-90354762D02*
X73965367Y-90358181D01*
X73987976Y-90363845D01*
X74009920Y-90371697D01*
X74030990Y-90381662D01*
X74050981Y-90393644D01*
X74069701Y-90407528D01*
X74086971Y-90423180D01*
X74102623Y-90440450D01*
X74116507Y-90459170D01*
X74128489Y-90479161D01*
X74138454Y-90500231D01*
X74146306Y-90522175D01*
X74151970Y-90544784D01*
X74155389Y-90567839D01*
X74156533Y-90591118D01*
X74156533Y-91166118D01*
X74155389Y-91189397D01*
X74151970Y-91212452D01*
X74146306Y-91235061D01*
X74138454Y-91257005D01*
X74128489Y-91278075D01*
X74116507Y-91298066D01*
X74102623Y-91316786D01*
X74086971Y-91334056D01*
X74069701Y-91349708D01*
X74050981Y-91363592D01*
X74030990Y-91375574D01*
X74009920Y-91385539D01*
X73987976Y-91393391D01*
X73965367Y-91399055D01*
X73942312Y-91402474D01*
X73919033Y-91403618D01*
X73444033Y-91403618D01*
X73420754Y-91402474D01*
X73397699Y-91399055D01*
X73375090Y-91393391D01*
X73353146Y-91385539D01*
X73332076Y-91375574D01*
X73312085Y-91363592D01*
X73293365Y-91349708D01*
X73276095Y-91334056D01*
X73260443Y-91316786D01*
X73246559Y-91298066D01*
X73234577Y-91278075D01*
X73224612Y-91257005D01*
X73216760Y-91235061D01*
X73211096Y-91212452D01*
X73207677Y-91189397D01*
X73206533Y-91166118D01*
X73206533Y-90591118D01*
X73207677Y-90567839D01*
X73211096Y-90544784D01*
X73216760Y-90522175D01*
X73224612Y-90500231D01*
X73234577Y-90479161D01*
X73246559Y-90459170D01*
X73260443Y-90440450D01*
X73276095Y-90423180D01*
X73293365Y-90407528D01*
X73312085Y-90393644D01*
X73332076Y-90381662D01*
X73353146Y-90371697D01*
X73375090Y-90363845D01*
X73397699Y-90358181D01*
X73420754Y-90354762D01*
X73444033Y-90353618D01*
X73919033Y-90353618D01*
X73942312Y-90354762D01*
X73942312Y-90354762D01*
G37*
D11*
X73681533Y-90878618D03*
D10*
G36*
X73942312Y-88604762D02*
X73965367Y-88608181D01*
X73987976Y-88613845D01*
X74009920Y-88621697D01*
X74030990Y-88631662D01*
X74050981Y-88643644D01*
X74069701Y-88657528D01*
X74086971Y-88673180D01*
X74102623Y-88690450D01*
X74116507Y-88709170D01*
X74128489Y-88729161D01*
X74138454Y-88750231D01*
X74146306Y-88772175D01*
X74151970Y-88794784D01*
X74155389Y-88817839D01*
X74156533Y-88841118D01*
X74156533Y-89416118D01*
X74155389Y-89439397D01*
X74151970Y-89462452D01*
X74146306Y-89485061D01*
X74138454Y-89507005D01*
X74128489Y-89528075D01*
X74116507Y-89548066D01*
X74102623Y-89566786D01*
X74086971Y-89584056D01*
X74069701Y-89599708D01*
X74050981Y-89613592D01*
X74030990Y-89625574D01*
X74009920Y-89635539D01*
X73987976Y-89643391D01*
X73965367Y-89649055D01*
X73942312Y-89652474D01*
X73919033Y-89653618D01*
X73444033Y-89653618D01*
X73420754Y-89652474D01*
X73397699Y-89649055D01*
X73375090Y-89643391D01*
X73353146Y-89635539D01*
X73332076Y-89625574D01*
X73312085Y-89613592D01*
X73293365Y-89599708D01*
X73276095Y-89584056D01*
X73260443Y-89566786D01*
X73246559Y-89548066D01*
X73234577Y-89528075D01*
X73224612Y-89507005D01*
X73216760Y-89485061D01*
X73211096Y-89462452D01*
X73207677Y-89439397D01*
X73206533Y-89416118D01*
X73206533Y-88841118D01*
X73207677Y-88817839D01*
X73211096Y-88794784D01*
X73216760Y-88772175D01*
X73224612Y-88750231D01*
X73234577Y-88729161D01*
X73246559Y-88709170D01*
X73260443Y-88690450D01*
X73276095Y-88673180D01*
X73293365Y-88657528D01*
X73312085Y-88643644D01*
X73332076Y-88631662D01*
X73353146Y-88621697D01*
X73375090Y-88613845D01*
X73397699Y-88608181D01*
X73420754Y-88604762D01*
X73444033Y-88603618D01*
X73919033Y-88603618D01*
X73942312Y-88604762D01*
X73942312Y-88604762D01*
G37*
D11*
X73681533Y-89128618D03*
G04 #@! TD*
D10*
G04 #@! TO.C,D9*
G36*
X91700779Y-88658144D02*
X91723834Y-88661563D01*
X91746443Y-88667227D01*
X91768387Y-88675079D01*
X91789457Y-88685044D01*
X91809448Y-88697026D01*
X91828168Y-88710910D01*
X91845438Y-88726562D01*
X91861090Y-88743832D01*
X91874974Y-88762552D01*
X91886956Y-88782543D01*
X91896921Y-88803613D01*
X91904773Y-88825557D01*
X91910437Y-88848166D01*
X91913856Y-88871221D01*
X91915000Y-88894500D01*
X91915000Y-89469500D01*
X91913856Y-89492779D01*
X91910437Y-89515834D01*
X91904773Y-89538443D01*
X91896921Y-89560387D01*
X91886956Y-89581457D01*
X91874974Y-89601448D01*
X91861090Y-89620168D01*
X91845438Y-89637438D01*
X91828168Y-89653090D01*
X91809448Y-89666974D01*
X91789457Y-89678956D01*
X91768387Y-89688921D01*
X91746443Y-89696773D01*
X91723834Y-89702437D01*
X91700779Y-89705856D01*
X91677500Y-89707000D01*
X91202500Y-89707000D01*
X91179221Y-89705856D01*
X91156166Y-89702437D01*
X91133557Y-89696773D01*
X91111613Y-89688921D01*
X91090543Y-89678956D01*
X91070552Y-89666974D01*
X91051832Y-89653090D01*
X91034562Y-89637438D01*
X91018910Y-89620168D01*
X91005026Y-89601448D01*
X90993044Y-89581457D01*
X90983079Y-89560387D01*
X90975227Y-89538443D01*
X90969563Y-89515834D01*
X90966144Y-89492779D01*
X90965000Y-89469500D01*
X90965000Y-88894500D01*
X90966144Y-88871221D01*
X90969563Y-88848166D01*
X90975227Y-88825557D01*
X90983079Y-88803613D01*
X90993044Y-88782543D01*
X91005026Y-88762552D01*
X91018910Y-88743832D01*
X91034562Y-88726562D01*
X91051832Y-88710910D01*
X91070552Y-88697026D01*
X91090543Y-88685044D01*
X91111613Y-88675079D01*
X91133557Y-88667227D01*
X91156166Y-88661563D01*
X91179221Y-88658144D01*
X91202500Y-88657000D01*
X91677500Y-88657000D01*
X91700779Y-88658144D01*
X91700779Y-88658144D01*
G37*
D11*
X91440000Y-89182000D03*
D10*
G36*
X91700779Y-90408144D02*
X91723834Y-90411563D01*
X91746443Y-90417227D01*
X91768387Y-90425079D01*
X91789457Y-90435044D01*
X91809448Y-90447026D01*
X91828168Y-90460910D01*
X91845438Y-90476562D01*
X91861090Y-90493832D01*
X91874974Y-90512552D01*
X91886956Y-90532543D01*
X91896921Y-90553613D01*
X91904773Y-90575557D01*
X91910437Y-90598166D01*
X91913856Y-90621221D01*
X91915000Y-90644500D01*
X91915000Y-91219500D01*
X91913856Y-91242779D01*
X91910437Y-91265834D01*
X91904773Y-91288443D01*
X91896921Y-91310387D01*
X91886956Y-91331457D01*
X91874974Y-91351448D01*
X91861090Y-91370168D01*
X91845438Y-91387438D01*
X91828168Y-91403090D01*
X91809448Y-91416974D01*
X91789457Y-91428956D01*
X91768387Y-91438921D01*
X91746443Y-91446773D01*
X91723834Y-91452437D01*
X91700779Y-91455856D01*
X91677500Y-91457000D01*
X91202500Y-91457000D01*
X91179221Y-91455856D01*
X91156166Y-91452437D01*
X91133557Y-91446773D01*
X91111613Y-91438921D01*
X91090543Y-91428956D01*
X91070552Y-91416974D01*
X91051832Y-91403090D01*
X91034562Y-91387438D01*
X91018910Y-91370168D01*
X91005026Y-91351448D01*
X90993044Y-91331457D01*
X90983079Y-91310387D01*
X90975227Y-91288443D01*
X90969563Y-91265834D01*
X90966144Y-91242779D01*
X90965000Y-91219500D01*
X90965000Y-90644500D01*
X90966144Y-90621221D01*
X90969563Y-90598166D01*
X90975227Y-90575557D01*
X90983079Y-90553613D01*
X90993044Y-90532543D01*
X91005026Y-90512552D01*
X91018910Y-90493832D01*
X91034562Y-90476562D01*
X91051832Y-90460910D01*
X91070552Y-90447026D01*
X91090543Y-90435044D01*
X91111613Y-90425079D01*
X91133557Y-90417227D01*
X91156166Y-90411563D01*
X91179221Y-90408144D01*
X91202500Y-90407000D01*
X91677500Y-90407000D01*
X91700779Y-90408144D01*
X91700779Y-90408144D01*
G37*
D11*
X91440000Y-90932000D03*
G04 #@! TD*
D10*
G04 #@! TO.C,D10*
G36*
X109480779Y-90408144D02*
X109503834Y-90411563D01*
X109526443Y-90417227D01*
X109548387Y-90425079D01*
X109569457Y-90435044D01*
X109589448Y-90447026D01*
X109608168Y-90460910D01*
X109625438Y-90476562D01*
X109641090Y-90493832D01*
X109654974Y-90512552D01*
X109666956Y-90532543D01*
X109676921Y-90553613D01*
X109684773Y-90575557D01*
X109690437Y-90598166D01*
X109693856Y-90621221D01*
X109695000Y-90644500D01*
X109695000Y-91219500D01*
X109693856Y-91242779D01*
X109690437Y-91265834D01*
X109684773Y-91288443D01*
X109676921Y-91310387D01*
X109666956Y-91331457D01*
X109654974Y-91351448D01*
X109641090Y-91370168D01*
X109625438Y-91387438D01*
X109608168Y-91403090D01*
X109589448Y-91416974D01*
X109569457Y-91428956D01*
X109548387Y-91438921D01*
X109526443Y-91446773D01*
X109503834Y-91452437D01*
X109480779Y-91455856D01*
X109457500Y-91457000D01*
X108982500Y-91457000D01*
X108959221Y-91455856D01*
X108936166Y-91452437D01*
X108913557Y-91446773D01*
X108891613Y-91438921D01*
X108870543Y-91428956D01*
X108850552Y-91416974D01*
X108831832Y-91403090D01*
X108814562Y-91387438D01*
X108798910Y-91370168D01*
X108785026Y-91351448D01*
X108773044Y-91331457D01*
X108763079Y-91310387D01*
X108755227Y-91288443D01*
X108749563Y-91265834D01*
X108746144Y-91242779D01*
X108745000Y-91219500D01*
X108745000Y-90644500D01*
X108746144Y-90621221D01*
X108749563Y-90598166D01*
X108755227Y-90575557D01*
X108763079Y-90553613D01*
X108773044Y-90532543D01*
X108785026Y-90512552D01*
X108798910Y-90493832D01*
X108814562Y-90476562D01*
X108831832Y-90460910D01*
X108850552Y-90447026D01*
X108870543Y-90435044D01*
X108891613Y-90425079D01*
X108913557Y-90417227D01*
X108936166Y-90411563D01*
X108959221Y-90408144D01*
X108982500Y-90407000D01*
X109457500Y-90407000D01*
X109480779Y-90408144D01*
X109480779Y-90408144D01*
G37*
D11*
X109220000Y-90932000D03*
D10*
G36*
X109480779Y-88658144D02*
X109503834Y-88661563D01*
X109526443Y-88667227D01*
X109548387Y-88675079D01*
X109569457Y-88685044D01*
X109589448Y-88697026D01*
X109608168Y-88710910D01*
X109625438Y-88726562D01*
X109641090Y-88743832D01*
X109654974Y-88762552D01*
X109666956Y-88782543D01*
X109676921Y-88803613D01*
X109684773Y-88825557D01*
X109690437Y-88848166D01*
X109693856Y-88871221D01*
X109695000Y-88894500D01*
X109695000Y-89469500D01*
X109693856Y-89492779D01*
X109690437Y-89515834D01*
X109684773Y-89538443D01*
X109676921Y-89560387D01*
X109666956Y-89581457D01*
X109654974Y-89601448D01*
X109641090Y-89620168D01*
X109625438Y-89637438D01*
X109608168Y-89653090D01*
X109589448Y-89666974D01*
X109569457Y-89678956D01*
X109548387Y-89688921D01*
X109526443Y-89696773D01*
X109503834Y-89702437D01*
X109480779Y-89705856D01*
X109457500Y-89707000D01*
X108982500Y-89707000D01*
X108959221Y-89705856D01*
X108936166Y-89702437D01*
X108913557Y-89696773D01*
X108891613Y-89688921D01*
X108870543Y-89678956D01*
X108850552Y-89666974D01*
X108831832Y-89653090D01*
X108814562Y-89637438D01*
X108798910Y-89620168D01*
X108785026Y-89601448D01*
X108773044Y-89581457D01*
X108763079Y-89560387D01*
X108755227Y-89538443D01*
X108749563Y-89515834D01*
X108746144Y-89492779D01*
X108745000Y-89469500D01*
X108745000Y-88894500D01*
X108746144Y-88871221D01*
X108749563Y-88848166D01*
X108755227Y-88825557D01*
X108763079Y-88803613D01*
X108773044Y-88782543D01*
X108785026Y-88762552D01*
X108798910Y-88743832D01*
X108814562Y-88726562D01*
X108831832Y-88710910D01*
X108850552Y-88697026D01*
X108870543Y-88685044D01*
X108891613Y-88675079D01*
X108913557Y-88667227D01*
X108936166Y-88661563D01*
X108959221Y-88658144D01*
X108982500Y-88657000D01*
X109457500Y-88657000D01*
X109480779Y-88658144D01*
X109480779Y-88658144D01*
G37*
D11*
X109220000Y-89182000D03*
G04 #@! TD*
D10*
G04 #@! TO.C,R15*
G36*
X73942312Y-92894762D02*
X73965367Y-92898181D01*
X73987976Y-92903845D01*
X74009920Y-92911697D01*
X74030990Y-92921662D01*
X74050981Y-92933644D01*
X74069701Y-92947528D01*
X74086971Y-92963180D01*
X74102623Y-92980450D01*
X74116507Y-92999170D01*
X74128489Y-93019161D01*
X74138454Y-93040231D01*
X74146306Y-93062175D01*
X74151970Y-93084784D01*
X74155389Y-93107839D01*
X74156533Y-93131118D01*
X74156533Y-93706118D01*
X74155389Y-93729397D01*
X74151970Y-93752452D01*
X74146306Y-93775061D01*
X74138454Y-93797005D01*
X74128489Y-93818075D01*
X74116507Y-93838066D01*
X74102623Y-93856786D01*
X74086971Y-93874056D01*
X74069701Y-93889708D01*
X74050981Y-93903592D01*
X74030990Y-93915574D01*
X74009920Y-93925539D01*
X73987976Y-93933391D01*
X73965367Y-93939055D01*
X73942312Y-93942474D01*
X73919033Y-93943618D01*
X73444033Y-93943618D01*
X73420754Y-93942474D01*
X73397699Y-93939055D01*
X73375090Y-93933391D01*
X73353146Y-93925539D01*
X73332076Y-93915574D01*
X73312085Y-93903592D01*
X73293365Y-93889708D01*
X73276095Y-93874056D01*
X73260443Y-93856786D01*
X73246559Y-93838066D01*
X73234577Y-93818075D01*
X73224612Y-93797005D01*
X73216760Y-93775061D01*
X73211096Y-93752452D01*
X73207677Y-93729397D01*
X73206533Y-93706118D01*
X73206533Y-93131118D01*
X73207677Y-93107839D01*
X73211096Y-93084784D01*
X73216760Y-93062175D01*
X73224612Y-93040231D01*
X73234577Y-93019161D01*
X73246559Y-92999170D01*
X73260443Y-92980450D01*
X73276095Y-92963180D01*
X73293365Y-92947528D01*
X73312085Y-92933644D01*
X73332076Y-92921662D01*
X73353146Y-92911697D01*
X73375090Y-92903845D01*
X73397699Y-92898181D01*
X73420754Y-92894762D01*
X73444033Y-92893618D01*
X73919033Y-92893618D01*
X73942312Y-92894762D01*
X73942312Y-92894762D01*
G37*
D11*
X73681533Y-93418618D03*
D10*
G36*
X73942312Y-94644762D02*
X73965367Y-94648181D01*
X73987976Y-94653845D01*
X74009920Y-94661697D01*
X74030990Y-94671662D01*
X74050981Y-94683644D01*
X74069701Y-94697528D01*
X74086971Y-94713180D01*
X74102623Y-94730450D01*
X74116507Y-94749170D01*
X74128489Y-94769161D01*
X74138454Y-94790231D01*
X74146306Y-94812175D01*
X74151970Y-94834784D01*
X74155389Y-94857839D01*
X74156533Y-94881118D01*
X74156533Y-95456118D01*
X74155389Y-95479397D01*
X74151970Y-95502452D01*
X74146306Y-95525061D01*
X74138454Y-95547005D01*
X74128489Y-95568075D01*
X74116507Y-95588066D01*
X74102623Y-95606786D01*
X74086971Y-95624056D01*
X74069701Y-95639708D01*
X74050981Y-95653592D01*
X74030990Y-95665574D01*
X74009920Y-95675539D01*
X73987976Y-95683391D01*
X73965367Y-95689055D01*
X73942312Y-95692474D01*
X73919033Y-95693618D01*
X73444033Y-95693618D01*
X73420754Y-95692474D01*
X73397699Y-95689055D01*
X73375090Y-95683391D01*
X73353146Y-95675539D01*
X73332076Y-95665574D01*
X73312085Y-95653592D01*
X73293365Y-95639708D01*
X73276095Y-95624056D01*
X73260443Y-95606786D01*
X73246559Y-95588066D01*
X73234577Y-95568075D01*
X73224612Y-95547005D01*
X73216760Y-95525061D01*
X73211096Y-95502452D01*
X73207677Y-95479397D01*
X73206533Y-95456118D01*
X73206533Y-94881118D01*
X73207677Y-94857839D01*
X73211096Y-94834784D01*
X73216760Y-94812175D01*
X73224612Y-94790231D01*
X73234577Y-94769161D01*
X73246559Y-94749170D01*
X73260443Y-94730450D01*
X73276095Y-94713180D01*
X73293365Y-94697528D01*
X73312085Y-94683644D01*
X73332076Y-94671662D01*
X73353146Y-94661697D01*
X73375090Y-94653845D01*
X73397699Y-94648181D01*
X73420754Y-94644762D01*
X73444033Y-94643618D01*
X73919033Y-94643618D01*
X73942312Y-94644762D01*
X73942312Y-94644762D01*
G37*
D11*
X73681533Y-95168618D03*
G04 #@! TD*
D10*
G04 #@! TO.C,R16*
G36*
X91700779Y-92948144D02*
X91723834Y-92951563D01*
X91746443Y-92957227D01*
X91768387Y-92965079D01*
X91789457Y-92975044D01*
X91809448Y-92987026D01*
X91828168Y-93000910D01*
X91845438Y-93016562D01*
X91861090Y-93033832D01*
X91874974Y-93052552D01*
X91886956Y-93072543D01*
X91896921Y-93093613D01*
X91904773Y-93115557D01*
X91910437Y-93138166D01*
X91913856Y-93161221D01*
X91915000Y-93184500D01*
X91915000Y-93759500D01*
X91913856Y-93782779D01*
X91910437Y-93805834D01*
X91904773Y-93828443D01*
X91896921Y-93850387D01*
X91886956Y-93871457D01*
X91874974Y-93891448D01*
X91861090Y-93910168D01*
X91845438Y-93927438D01*
X91828168Y-93943090D01*
X91809448Y-93956974D01*
X91789457Y-93968956D01*
X91768387Y-93978921D01*
X91746443Y-93986773D01*
X91723834Y-93992437D01*
X91700779Y-93995856D01*
X91677500Y-93997000D01*
X91202500Y-93997000D01*
X91179221Y-93995856D01*
X91156166Y-93992437D01*
X91133557Y-93986773D01*
X91111613Y-93978921D01*
X91090543Y-93968956D01*
X91070552Y-93956974D01*
X91051832Y-93943090D01*
X91034562Y-93927438D01*
X91018910Y-93910168D01*
X91005026Y-93891448D01*
X90993044Y-93871457D01*
X90983079Y-93850387D01*
X90975227Y-93828443D01*
X90969563Y-93805834D01*
X90966144Y-93782779D01*
X90965000Y-93759500D01*
X90965000Y-93184500D01*
X90966144Y-93161221D01*
X90969563Y-93138166D01*
X90975227Y-93115557D01*
X90983079Y-93093613D01*
X90993044Y-93072543D01*
X91005026Y-93052552D01*
X91018910Y-93033832D01*
X91034562Y-93016562D01*
X91051832Y-93000910D01*
X91070552Y-92987026D01*
X91090543Y-92975044D01*
X91111613Y-92965079D01*
X91133557Y-92957227D01*
X91156166Y-92951563D01*
X91179221Y-92948144D01*
X91202500Y-92947000D01*
X91677500Y-92947000D01*
X91700779Y-92948144D01*
X91700779Y-92948144D01*
G37*
D11*
X91440000Y-93472000D03*
D10*
G36*
X91700779Y-94698144D02*
X91723834Y-94701563D01*
X91746443Y-94707227D01*
X91768387Y-94715079D01*
X91789457Y-94725044D01*
X91809448Y-94737026D01*
X91828168Y-94750910D01*
X91845438Y-94766562D01*
X91861090Y-94783832D01*
X91874974Y-94802552D01*
X91886956Y-94822543D01*
X91896921Y-94843613D01*
X91904773Y-94865557D01*
X91910437Y-94888166D01*
X91913856Y-94911221D01*
X91915000Y-94934500D01*
X91915000Y-95509500D01*
X91913856Y-95532779D01*
X91910437Y-95555834D01*
X91904773Y-95578443D01*
X91896921Y-95600387D01*
X91886956Y-95621457D01*
X91874974Y-95641448D01*
X91861090Y-95660168D01*
X91845438Y-95677438D01*
X91828168Y-95693090D01*
X91809448Y-95706974D01*
X91789457Y-95718956D01*
X91768387Y-95728921D01*
X91746443Y-95736773D01*
X91723834Y-95742437D01*
X91700779Y-95745856D01*
X91677500Y-95747000D01*
X91202500Y-95747000D01*
X91179221Y-95745856D01*
X91156166Y-95742437D01*
X91133557Y-95736773D01*
X91111613Y-95728921D01*
X91090543Y-95718956D01*
X91070552Y-95706974D01*
X91051832Y-95693090D01*
X91034562Y-95677438D01*
X91018910Y-95660168D01*
X91005026Y-95641448D01*
X90993044Y-95621457D01*
X90983079Y-95600387D01*
X90975227Y-95578443D01*
X90969563Y-95555834D01*
X90966144Y-95532779D01*
X90965000Y-95509500D01*
X90965000Y-94934500D01*
X90966144Y-94911221D01*
X90969563Y-94888166D01*
X90975227Y-94865557D01*
X90983079Y-94843613D01*
X90993044Y-94822543D01*
X91005026Y-94802552D01*
X91018910Y-94783832D01*
X91034562Y-94766562D01*
X91051832Y-94750910D01*
X91070552Y-94737026D01*
X91090543Y-94725044D01*
X91111613Y-94715079D01*
X91133557Y-94707227D01*
X91156166Y-94701563D01*
X91179221Y-94698144D01*
X91202500Y-94697000D01*
X91677500Y-94697000D01*
X91700779Y-94698144D01*
X91700779Y-94698144D01*
G37*
D11*
X91440000Y-95222000D03*
G04 #@! TD*
D10*
G04 #@! TO.C,R17*
G36*
X109480779Y-94698144D02*
X109503834Y-94701563D01*
X109526443Y-94707227D01*
X109548387Y-94715079D01*
X109569457Y-94725044D01*
X109589448Y-94737026D01*
X109608168Y-94750910D01*
X109625438Y-94766562D01*
X109641090Y-94783832D01*
X109654974Y-94802552D01*
X109666956Y-94822543D01*
X109676921Y-94843613D01*
X109684773Y-94865557D01*
X109690437Y-94888166D01*
X109693856Y-94911221D01*
X109695000Y-94934500D01*
X109695000Y-95509500D01*
X109693856Y-95532779D01*
X109690437Y-95555834D01*
X109684773Y-95578443D01*
X109676921Y-95600387D01*
X109666956Y-95621457D01*
X109654974Y-95641448D01*
X109641090Y-95660168D01*
X109625438Y-95677438D01*
X109608168Y-95693090D01*
X109589448Y-95706974D01*
X109569457Y-95718956D01*
X109548387Y-95728921D01*
X109526443Y-95736773D01*
X109503834Y-95742437D01*
X109480779Y-95745856D01*
X109457500Y-95747000D01*
X108982500Y-95747000D01*
X108959221Y-95745856D01*
X108936166Y-95742437D01*
X108913557Y-95736773D01*
X108891613Y-95728921D01*
X108870543Y-95718956D01*
X108850552Y-95706974D01*
X108831832Y-95693090D01*
X108814562Y-95677438D01*
X108798910Y-95660168D01*
X108785026Y-95641448D01*
X108773044Y-95621457D01*
X108763079Y-95600387D01*
X108755227Y-95578443D01*
X108749563Y-95555834D01*
X108746144Y-95532779D01*
X108745000Y-95509500D01*
X108745000Y-94934500D01*
X108746144Y-94911221D01*
X108749563Y-94888166D01*
X108755227Y-94865557D01*
X108763079Y-94843613D01*
X108773044Y-94822543D01*
X108785026Y-94802552D01*
X108798910Y-94783832D01*
X108814562Y-94766562D01*
X108831832Y-94750910D01*
X108850552Y-94737026D01*
X108870543Y-94725044D01*
X108891613Y-94715079D01*
X108913557Y-94707227D01*
X108936166Y-94701563D01*
X108959221Y-94698144D01*
X108982500Y-94697000D01*
X109457500Y-94697000D01*
X109480779Y-94698144D01*
X109480779Y-94698144D01*
G37*
D11*
X109220000Y-95222000D03*
D10*
G36*
X109480779Y-92948144D02*
X109503834Y-92951563D01*
X109526443Y-92957227D01*
X109548387Y-92965079D01*
X109569457Y-92975044D01*
X109589448Y-92987026D01*
X109608168Y-93000910D01*
X109625438Y-93016562D01*
X109641090Y-93033832D01*
X109654974Y-93052552D01*
X109666956Y-93072543D01*
X109676921Y-93093613D01*
X109684773Y-93115557D01*
X109690437Y-93138166D01*
X109693856Y-93161221D01*
X109695000Y-93184500D01*
X109695000Y-93759500D01*
X109693856Y-93782779D01*
X109690437Y-93805834D01*
X109684773Y-93828443D01*
X109676921Y-93850387D01*
X109666956Y-93871457D01*
X109654974Y-93891448D01*
X109641090Y-93910168D01*
X109625438Y-93927438D01*
X109608168Y-93943090D01*
X109589448Y-93956974D01*
X109569457Y-93968956D01*
X109548387Y-93978921D01*
X109526443Y-93986773D01*
X109503834Y-93992437D01*
X109480779Y-93995856D01*
X109457500Y-93997000D01*
X108982500Y-93997000D01*
X108959221Y-93995856D01*
X108936166Y-93992437D01*
X108913557Y-93986773D01*
X108891613Y-93978921D01*
X108870543Y-93968956D01*
X108850552Y-93956974D01*
X108831832Y-93943090D01*
X108814562Y-93927438D01*
X108798910Y-93910168D01*
X108785026Y-93891448D01*
X108773044Y-93871457D01*
X108763079Y-93850387D01*
X108755227Y-93828443D01*
X108749563Y-93805834D01*
X108746144Y-93782779D01*
X108745000Y-93759500D01*
X108745000Y-93184500D01*
X108746144Y-93161221D01*
X108749563Y-93138166D01*
X108755227Y-93115557D01*
X108763079Y-93093613D01*
X108773044Y-93072543D01*
X108785026Y-93052552D01*
X108798910Y-93033832D01*
X108814562Y-93016562D01*
X108831832Y-93000910D01*
X108850552Y-92987026D01*
X108870543Y-92975044D01*
X108891613Y-92965079D01*
X108913557Y-92957227D01*
X108936166Y-92951563D01*
X108959221Y-92948144D01*
X108982500Y-92947000D01*
X109457500Y-92947000D01*
X109480779Y-92948144D01*
X109480779Y-92948144D01*
G37*
D11*
X109220000Y-93472000D03*
G04 #@! TD*
D10*
G04 #@! TO.C,D11*
G36*
X79000779Y-108668144D02*
X79023834Y-108671563D01*
X79046443Y-108677227D01*
X79068387Y-108685079D01*
X79089457Y-108695044D01*
X79109448Y-108707026D01*
X79128168Y-108720910D01*
X79145438Y-108736562D01*
X79161090Y-108753832D01*
X79174974Y-108772552D01*
X79186956Y-108792543D01*
X79196921Y-108813613D01*
X79204773Y-108835557D01*
X79210437Y-108858166D01*
X79213856Y-108881221D01*
X79215000Y-108904500D01*
X79215000Y-109479500D01*
X79213856Y-109502779D01*
X79210437Y-109525834D01*
X79204773Y-109548443D01*
X79196921Y-109570387D01*
X79186956Y-109591457D01*
X79174974Y-109611448D01*
X79161090Y-109630168D01*
X79145438Y-109647438D01*
X79128168Y-109663090D01*
X79109448Y-109676974D01*
X79089457Y-109688956D01*
X79068387Y-109698921D01*
X79046443Y-109706773D01*
X79023834Y-109712437D01*
X79000779Y-109715856D01*
X78977500Y-109717000D01*
X78502500Y-109717000D01*
X78479221Y-109715856D01*
X78456166Y-109712437D01*
X78433557Y-109706773D01*
X78411613Y-109698921D01*
X78390543Y-109688956D01*
X78370552Y-109676974D01*
X78351832Y-109663090D01*
X78334562Y-109647438D01*
X78318910Y-109630168D01*
X78305026Y-109611448D01*
X78293044Y-109591457D01*
X78283079Y-109570387D01*
X78275227Y-109548443D01*
X78269563Y-109525834D01*
X78266144Y-109502779D01*
X78265000Y-109479500D01*
X78265000Y-108904500D01*
X78266144Y-108881221D01*
X78269563Y-108858166D01*
X78275227Y-108835557D01*
X78283079Y-108813613D01*
X78293044Y-108792543D01*
X78305026Y-108772552D01*
X78318910Y-108753832D01*
X78334562Y-108736562D01*
X78351832Y-108720910D01*
X78370552Y-108707026D01*
X78390543Y-108695044D01*
X78411613Y-108685079D01*
X78433557Y-108677227D01*
X78456166Y-108671563D01*
X78479221Y-108668144D01*
X78502500Y-108667000D01*
X78977500Y-108667000D01*
X79000779Y-108668144D01*
X79000779Y-108668144D01*
G37*
D11*
X78740000Y-109192000D03*
D10*
G36*
X79000779Y-106918144D02*
X79023834Y-106921563D01*
X79046443Y-106927227D01*
X79068387Y-106935079D01*
X79089457Y-106945044D01*
X79109448Y-106957026D01*
X79128168Y-106970910D01*
X79145438Y-106986562D01*
X79161090Y-107003832D01*
X79174974Y-107022552D01*
X79186956Y-107042543D01*
X79196921Y-107063613D01*
X79204773Y-107085557D01*
X79210437Y-107108166D01*
X79213856Y-107131221D01*
X79215000Y-107154500D01*
X79215000Y-107729500D01*
X79213856Y-107752779D01*
X79210437Y-107775834D01*
X79204773Y-107798443D01*
X79196921Y-107820387D01*
X79186956Y-107841457D01*
X79174974Y-107861448D01*
X79161090Y-107880168D01*
X79145438Y-107897438D01*
X79128168Y-107913090D01*
X79109448Y-107926974D01*
X79089457Y-107938956D01*
X79068387Y-107948921D01*
X79046443Y-107956773D01*
X79023834Y-107962437D01*
X79000779Y-107965856D01*
X78977500Y-107967000D01*
X78502500Y-107967000D01*
X78479221Y-107965856D01*
X78456166Y-107962437D01*
X78433557Y-107956773D01*
X78411613Y-107948921D01*
X78390543Y-107938956D01*
X78370552Y-107926974D01*
X78351832Y-107913090D01*
X78334562Y-107897438D01*
X78318910Y-107880168D01*
X78305026Y-107861448D01*
X78293044Y-107841457D01*
X78283079Y-107820387D01*
X78275227Y-107798443D01*
X78269563Y-107775834D01*
X78266144Y-107752779D01*
X78265000Y-107729500D01*
X78265000Y-107154500D01*
X78266144Y-107131221D01*
X78269563Y-107108166D01*
X78275227Y-107085557D01*
X78283079Y-107063613D01*
X78293044Y-107042543D01*
X78305026Y-107022552D01*
X78318910Y-107003832D01*
X78334562Y-106986562D01*
X78351832Y-106970910D01*
X78370552Y-106957026D01*
X78390543Y-106945044D01*
X78411613Y-106935079D01*
X78433557Y-106927227D01*
X78456166Y-106921563D01*
X78479221Y-106918144D01*
X78502500Y-106917000D01*
X78977500Y-106917000D01*
X79000779Y-106918144D01*
X79000779Y-106918144D01*
G37*
D11*
X78740000Y-107442000D03*
G04 #@! TD*
D10*
G04 #@! TO.C,D12*
G36*
X86620779Y-106918144D02*
X86643834Y-106921563D01*
X86666443Y-106927227D01*
X86688387Y-106935079D01*
X86709457Y-106945044D01*
X86729448Y-106957026D01*
X86748168Y-106970910D01*
X86765438Y-106986562D01*
X86781090Y-107003832D01*
X86794974Y-107022552D01*
X86806956Y-107042543D01*
X86816921Y-107063613D01*
X86824773Y-107085557D01*
X86830437Y-107108166D01*
X86833856Y-107131221D01*
X86835000Y-107154500D01*
X86835000Y-107729500D01*
X86833856Y-107752779D01*
X86830437Y-107775834D01*
X86824773Y-107798443D01*
X86816921Y-107820387D01*
X86806956Y-107841457D01*
X86794974Y-107861448D01*
X86781090Y-107880168D01*
X86765438Y-107897438D01*
X86748168Y-107913090D01*
X86729448Y-107926974D01*
X86709457Y-107938956D01*
X86688387Y-107948921D01*
X86666443Y-107956773D01*
X86643834Y-107962437D01*
X86620779Y-107965856D01*
X86597500Y-107967000D01*
X86122500Y-107967000D01*
X86099221Y-107965856D01*
X86076166Y-107962437D01*
X86053557Y-107956773D01*
X86031613Y-107948921D01*
X86010543Y-107938956D01*
X85990552Y-107926974D01*
X85971832Y-107913090D01*
X85954562Y-107897438D01*
X85938910Y-107880168D01*
X85925026Y-107861448D01*
X85913044Y-107841457D01*
X85903079Y-107820387D01*
X85895227Y-107798443D01*
X85889563Y-107775834D01*
X85886144Y-107752779D01*
X85885000Y-107729500D01*
X85885000Y-107154500D01*
X85886144Y-107131221D01*
X85889563Y-107108166D01*
X85895227Y-107085557D01*
X85903079Y-107063613D01*
X85913044Y-107042543D01*
X85925026Y-107022552D01*
X85938910Y-107003832D01*
X85954562Y-106986562D01*
X85971832Y-106970910D01*
X85990552Y-106957026D01*
X86010543Y-106945044D01*
X86031613Y-106935079D01*
X86053557Y-106927227D01*
X86076166Y-106921563D01*
X86099221Y-106918144D01*
X86122500Y-106917000D01*
X86597500Y-106917000D01*
X86620779Y-106918144D01*
X86620779Y-106918144D01*
G37*
D11*
X86360000Y-107442000D03*
D10*
G36*
X86620779Y-108668144D02*
X86643834Y-108671563D01*
X86666443Y-108677227D01*
X86688387Y-108685079D01*
X86709457Y-108695044D01*
X86729448Y-108707026D01*
X86748168Y-108720910D01*
X86765438Y-108736562D01*
X86781090Y-108753832D01*
X86794974Y-108772552D01*
X86806956Y-108792543D01*
X86816921Y-108813613D01*
X86824773Y-108835557D01*
X86830437Y-108858166D01*
X86833856Y-108881221D01*
X86835000Y-108904500D01*
X86835000Y-109479500D01*
X86833856Y-109502779D01*
X86830437Y-109525834D01*
X86824773Y-109548443D01*
X86816921Y-109570387D01*
X86806956Y-109591457D01*
X86794974Y-109611448D01*
X86781090Y-109630168D01*
X86765438Y-109647438D01*
X86748168Y-109663090D01*
X86729448Y-109676974D01*
X86709457Y-109688956D01*
X86688387Y-109698921D01*
X86666443Y-109706773D01*
X86643834Y-109712437D01*
X86620779Y-109715856D01*
X86597500Y-109717000D01*
X86122500Y-109717000D01*
X86099221Y-109715856D01*
X86076166Y-109712437D01*
X86053557Y-109706773D01*
X86031613Y-109698921D01*
X86010543Y-109688956D01*
X85990552Y-109676974D01*
X85971832Y-109663090D01*
X85954562Y-109647438D01*
X85938910Y-109630168D01*
X85925026Y-109611448D01*
X85913044Y-109591457D01*
X85903079Y-109570387D01*
X85895227Y-109548443D01*
X85889563Y-109525834D01*
X85886144Y-109502779D01*
X85885000Y-109479500D01*
X85885000Y-108904500D01*
X85886144Y-108881221D01*
X85889563Y-108858166D01*
X85895227Y-108835557D01*
X85903079Y-108813613D01*
X85913044Y-108792543D01*
X85925026Y-108772552D01*
X85938910Y-108753832D01*
X85954562Y-108736562D01*
X85971832Y-108720910D01*
X85990552Y-108707026D01*
X86010543Y-108695044D01*
X86031613Y-108685079D01*
X86053557Y-108677227D01*
X86076166Y-108671563D01*
X86099221Y-108668144D01*
X86122500Y-108667000D01*
X86597500Y-108667000D01*
X86620779Y-108668144D01*
X86620779Y-108668144D01*
G37*
D11*
X86360000Y-109192000D03*
G04 #@! TD*
D10*
G04 #@! TO.C,D13*
G36*
X94240779Y-108668144D02*
X94263834Y-108671563D01*
X94286443Y-108677227D01*
X94308387Y-108685079D01*
X94329457Y-108695044D01*
X94349448Y-108707026D01*
X94368168Y-108720910D01*
X94385438Y-108736562D01*
X94401090Y-108753832D01*
X94414974Y-108772552D01*
X94426956Y-108792543D01*
X94436921Y-108813613D01*
X94444773Y-108835557D01*
X94450437Y-108858166D01*
X94453856Y-108881221D01*
X94455000Y-108904500D01*
X94455000Y-109479500D01*
X94453856Y-109502779D01*
X94450437Y-109525834D01*
X94444773Y-109548443D01*
X94436921Y-109570387D01*
X94426956Y-109591457D01*
X94414974Y-109611448D01*
X94401090Y-109630168D01*
X94385438Y-109647438D01*
X94368168Y-109663090D01*
X94349448Y-109676974D01*
X94329457Y-109688956D01*
X94308387Y-109698921D01*
X94286443Y-109706773D01*
X94263834Y-109712437D01*
X94240779Y-109715856D01*
X94217500Y-109717000D01*
X93742500Y-109717000D01*
X93719221Y-109715856D01*
X93696166Y-109712437D01*
X93673557Y-109706773D01*
X93651613Y-109698921D01*
X93630543Y-109688956D01*
X93610552Y-109676974D01*
X93591832Y-109663090D01*
X93574562Y-109647438D01*
X93558910Y-109630168D01*
X93545026Y-109611448D01*
X93533044Y-109591457D01*
X93523079Y-109570387D01*
X93515227Y-109548443D01*
X93509563Y-109525834D01*
X93506144Y-109502779D01*
X93505000Y-109479500D01*
X93505000Y-108904500D01*
X93506144Y-108881221D01*
X93509563Y-108858166D01*
X93515227Y-108835557D01*
X93523079Y-108813613D01*
X93533044Y-108792543D01*
X93545026Y-108772552D01*
X93558910Y-108753832D01*
X93574562Y-108736562D01*
X93591832Y-108720910D01*
X93610552Y-108707026D01*
X93630543Y-108695044D01*
X93651613Y-108685079D01*
X93673557Y-108677227D01*
X93696166Y-108671563D01*
X93719221Y-108668144D01*
X93742500Y-108667000D01*
X94217500Y-108667000D01*
X94240779Y-108668144D01*
X94240779Y-108668144D01*
G37*
D11*
X93980000Y-109192000D03*
D10*
G36*
X94240779Y-106918144D02*
X94263834Y-106921563D01*
X94286443Y-106927227D01*
X94308387Y-106935079D01*
X94329457Y-106945044D01*
X94349448Y-106957026D01*
X94368168Y-106970910D01*
X94385438Y-106986562D01*
X94401090Y-107003832D01*
X94414974Y-107022552D01*
X94426956Y-107042543D01*
X94436921Y-107063613D01*
X94444773Y-107085557D01*
X94450437Y-107108166D01*
X94453856Y-107131221D01*
X94455000Y-107154500D01*
X94455000Y-107729500D01*
X94453856Y-107752779D01*
X94450437Y-107775834D01*
X94444773Y-107798443D01*
X94436921Y-107820387D01*
X94426956Y-107841457D01*
X94414974Y-107861448D01*
X94401090Y-107880168D01*
X94385438Y-107897438D01*
X94368168Y-107913090D01*
X94349448Y-107926974D01*
X94329457Y-107938956D01*
X94308387Y-107948921D01*
X94286443Y-107956773D01*
X94263834Y-107962437D01*
X94240779Y-107965856D01*
X94217500Y-107967000D01*
X93742500Y-107967000D01*
X93719221Y-107965856D01*
X93696166Y-107962437D01*
X93673557Y-107956773D01*
X93651613Y-107948921D01*
X93630543Y-107938956D01*
X93610552Y-107926974D01*
X93591832Y-107913090D01*
X93574562Y-107897438D01*
X93558910Y-107880168D01*
X93545026Y-107861448D01*
X93533044Y-107841457D01*
X93523079Y-107820387D01*
X93515227Y-107798443D01*
X93509563Y-107775834D01*
X93506144Y-107752779D01*
X93505000Y-107729500D01*
X93505000Y-107154500D01*
X93506144Y-107131221D01*
X93509563Y-107108166D01*
X93515227Y-107085557D01*
X93523079Y-107063613D01*
X93533044Y-107042543D01*
X93545026Y-107022552D01*
X93558910Y-107003832D01*
X93574562Y-106986562D01*
X93591832Y-106970910D01*
X93610552Y-106957026D01*
X93630543Y-106945044D01*
X93651613Y-106935079D01*
X93673557Y-106927227D01*
X93696166Y-106921563D01*
X93719221Y-106918144D01*
X93742500Y-106917000D01*
X94217500Y-106917000D01*
X94240779Y-106918144D01*
X94240779Y-106918144D01*
G37*
D11*
X93980000Y-107442000D03*
G04 #@! TD*
D10*
G04 #@! TO.C,D14*
G36*
X101860779Y-106918144D02*
X101883834Y-106921563D01*
X101906443Y-106927227D01*
X101928387Y-106935079D01*
X101949457Y-106945044D01*
X101969448Y-106957026D01*
X101988168Y-106970910D01*
X102005438Y-106986562D01*
X102021090Y-107003832D01*
X102034974Y-107022552D01*
X102046956Y-107042543D01*
X102056921Y-107063613D01*
X102064773Y-107085557D01*
X102070437Y-107108166D01*
X102073856Y-107131221D01*
X102075000Y-107154500D01*
X102075000Y-107729500D01*
X102073856Y-107752779D01*
X102070437Y-107775834D01*
X102064773Y-107798443D01*
X102056921Y-107820387D01*
X102046956Y-107841457D01*
X102034974Y-107861448D01*
X102021090Y-107880168D01*
X102005438Y-107897438D01*
X101988168Y-107913090D01*
X101969448Y-107926974D01*
X101949457Y-107938956D01*
X101928387Y-107948921D01*
X101906443Y-107956773D01*
X101883834Y-107962437D01*
X101860779Y-107965856D01*
X101837500Y-107967000D01*
X101362500Y-107967000D01*
X101339221Y-107965856D01*
X101316166Y-107962437D01*
X101293557Y-107956773D01*
X101271613Y-107948921D01*
X101250543Y-107938956D01*
X101230552Y-107926974D01*
X101211832Y-107913090D01*
X101194562Y-107897438D01*
X101178910Y-107880168D01*
X101165026Y-107861448D01*
X101153044Y-107841457D01*
X101143079Y-107820387D01*
X101135227Y-107798443D01*
X101129563Y-107775834D01*
X101126144Y-107752779D01*
X101125000Y-107729500D01*
X101125000Y-107154500D01*
X101126144Y-107131221D01*
X101129563Y-107108166D01*
X101135227Y-107085557D01*
X101143079Y-107063613D01*
X101153044Y-107042543D01*
X101165026Y-107022552D01*
X101178910Y-107003832D01*
X101194562Y-106986562D01*
X101211832Y-106970910D01*
X101230552Y-106957026D01*
X101250543Y-106945044D01*
X101271613Y-106935079D01*
X101293557Y-106927227D01*
X101316166Y-106921563D01*
X101339221Y-106918144D01*
X101362500Y-106917000D01*
X101837500Y-106917000D01*
X101860779Y-106918144D01*
X101860779Y-106918144D01*
G37*
D11*
X101600000Y-107442000D03*
D10*
G36*
X101860779Y-108668144D02*
X101883834Y-108671563D01*
X101906443Y-108677227D01*
X101928387Y-108685079D01*
X101949457Y-108695044D01*
X101969448Y-108707026D01*
X101988168Y-108720910D01*
X102005438Y-108736562D01*
X102021090Y-108753832D01*
X102034974Y-108772552D01*
X102046956Y-108792543D01*
X102056921Y-108813613D01*
X102064773Y-108835557D01*
X102070437Y-108858166D01*
X102073856Y-108881221D01*
X102075000Y-108904500D01*
X102075000Y-109479500D01*
X102073856Y-109502779D01*
X102070437Y-109525834D01*
X102064773Y-109548443D01*
X102056921Y-109570387D01*
X102046956Y-109591457D01*
X102034974Y-109611448D01*
X102021090Y-109630168D01*
X102005438Y-109647438D01*
X101988168Y-109663090D01*
X101969448Y-109676974D01*
X101949457Y-109688956D01*
X101928387Y-109698921D01*
X101906443Y-109706773D01*
X101883834Y-109712437D01*
X101860779Y-109715856D01*
X101837500Y-109717000D01*
X101362500Y-109717000D01*
X101339221Y-109715856D01*
X101316166Y-109712437D01*
X101293557Y-109706773D01*
X101271613Y-109698921D01*
X101250543Y-109688956D01*
X101230552Y-109676974D01*
X101211832Y-109663090D01*
X101194562Y-109647438D01*
X101178910Y-109630168D01*
X101165026Y-109611448D01*
X101153044Y-109591457D01*
X101143079Y-109570387D01*
X101135227Y-109548443D01*
X101129563Y-109525834D01*
X101126144Y-109502779D01*
X101125000Y-109479500D01*
X101125000Y-108904500D01*
X101126144Y-108881221D01*
X101129563Y-108858166D01*
X101135227Y-108835557D01*
X101143079Y-108813613D01*
X101153044Y-108792543D01*
X101165026Y-108772552D01*
X101178910Y-108753832D01*
X101194562Y-108736562D01*
X101211832Y-108720910D01*
X101230552Y-108707026D01*
X101250543Y-108695044D01*
X101271613Y-108685079D01*
X101293557Y-108677227D01*
X101316166Y-108671563D01*
X101339221Y-108668144D01*
X101362500Y-108667000D01*
X101837500Y-108667000D01*
X101860779Y-108668144D01*
X101860779Y-108668144D01*
G37*
D11*
X101600000Y-109192000D03*
G04 #@! TD*
D10*
G04 #@! TO.C,D15*
G36*
X109480779Y-108668144D02*
X109503834Y-108671563D01*
X109526443Y-108677227D01*
X109548387Y-108685079D01*
X109569457Y-108695044D01*
X109589448Y-108707026D01*
X109608168Y-108720910D01*
X109625438Y-108736562D01*
X109641090Y-108753832D01*
X109654974Y-108772552D01*
X109666956Y-108792543D01*
X109676921Y-108813613D01*
X109684773Y-108835557D01*
X109690437Y-108858166D01*
X109693856Y-108881221D01*
X109695000Y-108904500D01*
X109695000Y-109479500D01*
X109693856Y-109502779D01*
X109690437Y-109525834D01*
X109684773Y-109548443D01*
X109676921Y-109570387D01*
X109666956Y-109591457D01*
X109654974Y-109611448D01*
X109641090Y-109630168D01*
X109625438Y-109647438D01*
X109608168Y-109663090D01*
X109589448Y-109676974D01*
X109569457Y-109688956D01*
X109548387Y-109698921D01*
X109526443Y-109706773D01*
X109503834Y-109712437D01*
X109480779Y-109715856D01*
X109457500Y-109717000D01*
X108982500Y-109717000D01*
X108959221Y-109715856D01*
X108936166Y-109712437D01*
X108913557Y-109706773D01*
X108891613Y-109698921D01*
X108870543Y-109688956D01*
X108850552Y-109676974D01*
X108831832Y-109663090D01*
X108814562Y-109647438D01*
X108798910Y-109630168D01*
X108785026Y-109611448D01*
X108773044Y-109591457D01*
X108763079Y-109570387D01*
X108755227Y-109548443D01*
X108749563Y-109525834D01*
X108746144Y-109502779D01*
X108745000Y-109479500D01*
X108745000Y-108904500D01*
X108746144Y-108881221D01*
X108749563Y-108858166D01*
X108755227Y-108835557D01*
X108763079Y-108813613D01*
X108773044Y-108792543D01*
X108785026Y-108772552D01*
X108798910Y-108753832D01*
X108814562Y-108736562D01*
X108831832Y-108720910D01*
X108850552Y-108707026D01*
X108870543Y-108695044D01*
X108891613Y-108685079D01*
X108913557Y-108677227D01*
X108936166Y-108671563D01*
X108959221Y-108668144D01*
X108982500Y-108667000D01*
X109457500Y-108667000D01*
X109480779Y-108668144D01*
X109480779Y-108668144D01*
G37*
D11*
X109220000Y-109192000D03*
D10*
G36*
X109480779Y-106918144D02*
X109503834Y-106921563D01*
X109526443Y-106927227D01*
X109548387Y-106935079D01*
X109569457Y-106945044D01*
X109589448Y-106957026D01*
X109608168Y-106970910D01*
X109625438Y-106986562D01*
X109641090Y-107003832D01*
X109654974Y-107022552D01*
X109666956Y-107042543D01*
X109676921Y-107063613D01*
X109684773Y-107085557D01*
X109690437Y-107108166D01*
X109693856Y-107131221D01*
X109695000Y-107154500D01*
X109695000Y-107729500D01*
X109693856Y-107752779D01*
X109690437Y-107775834D01*
X109684773Y-107798443D01*
X109676921Y-107820387D01*
X109666956Y-107841457D01*
X109654974Y-107861448D01*
X109641090Y-107880168D01*
X109625438Y-107897438D01*
X109608168Y-107913090D01*
X109589448Y-107926974D01*
X109569457Y-107938956D01*
X109548387Y-107948921D01*
X109526443Y-107956773D01*
X109503834Y-107962437D01*
X109480779Y-107965856D01*
X109457500Y-107967000D01*
X108982500Y-107967000D01*
X108959221Y-107965856D01*
X108936166Y-107962437D01*
X108913557Y-107956773D01*
X108891613Y-107948921D01*
X108870543Y-107938956D01*
X108850552Y-107926974D01*
X108831832Y-107913090D01*
X108814562Y-107897438D01*
X108798910Y-107880168D01*
X108785026Y-107861448D01*
X108773044Y-107841457D01*
X108763079Y-107820387D01*
X108755227Y-107798443D01*
X108749563Y-107775834D01*
X108746144Y-107752779D01*
X108745000Y-107729500D01*
X108745000Y-107154500D01*
X108746144Y-107131221D01*
X108749563Y-107108166D01*
X108755227Y-107085557D01*
X108763079Y-107063613D01*
X108773044Y-107042543D01*
X108785026Y-107022552D01*
X108798910Y-107003832D01*
X108814562Y-106986562D01*
X108831832Y-106970910D01*
X108850552Y-106957026D01*
X108870543Y-106945044D01*
X108891613Y-106935079D01*
X108913557Y-106927227D01*
X108936166Y-106921563D01*
X108959221Y-106918144D01*
X108982500Y-106917000D01*
X109457500Y-106917000D01*
X109480779Y-106918144D01*
X109480779Y-106918144D01*
G37*
D11*
X109220000Y-107442000D03*
G04 #@! TD*
D10*
G04 #@! TO.C,D16*
G36*
X117100779Y-106918144D02*
X117123834Y-106921563D01*
X117146443Y-106927227D01*
X117168387Y-106935079D01*
X117189457Y-106945044D01*
X117209448Y-106957026D01*
X117228168Y-106970910D01*
X117245438Y-106986562D01*
X117261090Y-107003832D01*
X117274974Y-107022552D01*
X117286956Y-107042543D01*
X117296921Y-107063613D01*
X117304773Y-107085557D01*
X117310437Y-107108166D01*
X117313856Y-107131221D01*
X117315000Y-107154500D01*
X117315000Y-107729500D01*
X117313856Y-107752779D01*
X117310437Y-107775834D01*
X117304773Y-107798443D01*
X117296921Y-107820387D01*
X117286956Y-107841457D01*
X117274974Y-107861448D01*
X117261090Y-107880168D01*
X117245438Y-107897438D01*
X117228168Y-107913090D01*
X117209448Y-107926974D01*
X117189457Y-107938956D01*
X117168387Y-107948921D01*
X117146443Y-107956773D01*
X117123834Y-107962437D01*
X117100779Y-107965856D01*
X117077500Y-107967000D01*
X116602500Y-107967000D01*
X116579221Y-107965856D01*
X116556166Y-107962437D01*
X116533557Y-107956773D01*
X116511613Y-107948921D01*
X116490543Y-107938956D01*
X116470552Y-107926974D01*
X116451832Y-107913090D01*
X116434562Y-107897438D01*
X116418910Y-107880168D01*
X116405026Y-107861448D01*
X116393044Y-107841457D01*
X116383079Y-107820387D01*
X116375227Y-107798443D01*
X116369563Y-107775834D01*
X116366144Y-107752779D01*
X116365000Y-107729500D01*
X116365000Y-107154500D01*
X116366144Y-107131221D01*
X116369563Y-107108166D01*
X116375227Y-107085557D01*
X116383079Y-107063613D01*
X116393044Y-107042543D01*
X116405026Y-107022552D01*
X116418910Y-107003832D01*
X116434562Y-106986562D01*
X116451832Y-106970910D01*
X116470552Y-106957026D01*
X116490543Y-106945044D01*
X116511613Y-106935079D01*
X116533557Y-106927227D01*
X116556166Y-106921563D01*
X116579221Y-106918144D01*
X116602500Y-106917000D01*
X117077500Y-106917000D01*
X117100779Y-106918144D01*
X117100779Y-106918144D01*
G37*
D11*
X116840000Y-107442000D03*
D10*
G36*
X117100779Y-108668144D02*
X117123834Y-108671563D01*
X117146443Y-108677227D01*
X117168387Y-108685079D01*
X117189457Y-108695044D01*
X117209448Y-108707026D01*
X117228168Y-108720910D01*
X117245438Y-108736562D01*
X117261090Y-108753832D01*
X117274974Y-108772552D01*
X117286956Y-108792543D01*
X117296921Y-108813613D01*
X117304773Y-108835557D01*
X117310437Y-108858166D01*
X117313856Y-108881221D01*
X117315000Y-108904500D01*
X117315000Y-109479500D01*
X117313856Y-109502779D01*
X117310437Y-109525834D01*
X117304773Y-109548443D01*
X117296921Y-109570387D01*
X117286956Y-109591457D01*
X117274974Y-109611448D01*
X117261090Y-109630168D01*
X117245438Y-109647438D01*
X117228168Y-109663090D01*
X117209448Y-109676974D01*
X117189457Y-109688956D01*
X117168387Y-109698921D01*
X117146443Y-109706773D01*
X117123834Y-109712437D01*
X117100779Y-109715856D01*
X117077500Y-109717000D01*
X116602500Y-109717000D01*
X116579221Y-109715856D01*
X116556166Y-109712437D01*
X116533557Y-109706773D01*
X116511613Y-109698921D01*
X116490543Y-109688956D01*
X116470552Y-109676974D01*
X116451832Y-109663090D01*
X116434562Y-109647438D01*
X116418910Y-109630168D01*
X116405026Y-109611448D01*
X116393044Y-109591457D01*
X116383079Y-109570387D01*
X116375227Y-109548443D01*
X116369563Y-109525834D01*
X116366144Y-109502779D01*
X116365000Y-109479500D01*
X116365000Y-108904500D01*
X116366144Y-108881221D01*
X116369563Y-108858166D01*
X116375227Y-108835557D01*
X116383079Y-108813613D01*
X116393044Y-108792543D01*
X116405026Y-108772552D01*
X116418910Y-108753832D01*
X116434562Y-108736562D01*
X116451832Y-108720910D01*
X116470552Y-108707026D01*
X116490543Y-108695044D01*
X116511613Y-108685079D01*
X116533557Y-108677227D01*
X116556166Y-108671563D01*
X116579221Y-108668144D01*
X116602500Y-108667000D01*
X117077500Y-108667000D01*
X117100779Y-108668144D01*
X117100779Y-108668144D01*
G37*
D11*
X116840000Y-109192000D03*
G04 #@! TD*
D10*
G04 #@! TO.C,D17*
G36*
X123274779Y-99348144D02*
X123297834Y-99351563D01*
X123320443Y-99357227D01*
X123342387Y-99365079D01*
X123363457Y-99375044D01*
X123383448Y-99387026D01*
X123402168Y-99400910D01*
X123419438Y-99416562D01*
X123435090Y-99433832D01*
X123448974Y-99452552D01*
X123460956Y-99472543D01*
X123470921Y-99493613D01*
X123478773Y-99515557D01*
X123484437Y-99538166D01*
X123487856Y-99561221D01*
X123489000Y-99584500D01*
X123489000Y-100059500D01*
X123487856Y-100082779D01*
X123484437Y-100105834D01*
X123478773Y-100128443D01*
X123470921Y-100150387D01*
X123460956Y-100171457D01*
X123448974Y-100191448D01*
X123435090Y-100210168D01*
X123419438Y-100227438D01*
X123402168Y-100243090D01*
X123383448Y-100256974D01*
X123363457Y-100268956D01*
X123342387Y-100278921D01*
X123320443Y-100286773D01*
X123297834Y-100292437D01*
X123274779Y-100295856D01*
X123251500Y-100297000D01*
X122676500Y-100297000D01*
X122653221Y-100295856D01*
X122630166Y-100292437D01*
X122607557Y-100286773D01*
X122585613Y-100278921D01*
X122564543Y-100268956D01*
X122544552Y-100256974D01*
X122525832Y-100243090D01*
X122508562Y-100227438D01*
X122492910Y-100210168D01*
X122479026Y-100191448D01*
X122467044Y-100171457D01*
X122457079Y-100150387D01*
X122449227Y-100128443D01*
X122443563Y-100105834D01*
X122440144Y-100082779D01*
X122439000Y-100059500D01*
X122439000Y-99584500D01*
X122440144Y-99561221D01*
X122443563Y-99538166D01*
X122449227Y-99515557D01*
X122457079Y-99493613D01*
X122467044Y-99472543D01*
X122479026Y-99452552D01*
X122492910Y-99433832D01*
X122508562Y-99416562D01*
X122525832Y-99400910D01*
X122544552Y-99387026D01*
X122564543Y-99375044D01*
X122585613Y-99365079D01*
X122607557Y-99357227D01*
X122630166Y-99351563D01*
X122653221Y-99348144D01*
X122676500Y-99347000D01*
X123251500Y-99347000D01*
X123274779Y-99348144D01*
X123274779Y-99348144D01*
G37*
D11*
X122964000Y-99822000D03*
D10*
G36*
X125024779Y-99348144D02*
X125047834Y-99351563D01*
X125070443Y-99357227D01*
X125092387Y-99365079D01*
X125113457Y-99375044D01*
X125133448Y-99387026D01*
X125152168Y-99400910D01*
X125169438Y-99416562D01*
X125185090Y-99433832D01*
X125198974Y-99452552D01*
X125210956Y-99472543D01*
X125220921Y-99493613D01*
X125228773Y-99515557D01*
X125234437Y-99538166D01*
X125237856Y-99561221D01*
X125239000Y-99584500D01*
X125239000Y-100059500D01*
X125237856Y-100082779D01*
X125234437Y-100105834D01*
X125228773Y-100128443D01*
X125220921Y-100150387D01*
X125210956Y-100171457D01*
X125198974Y-100191448D01*
X125185090Y-100210168D01*
X125169438Y-100227438D01*
X125152168Y-100243090D01*
X125133448Y-100256974D01*
X125113457Y-100268956D01*
X125092387Y-100278921D01*
X125070443Y-100286773D01*
X125047834Y-100292437D01*
X125024779Y-100295856D01*
X125001500Y-100297000D01*
X124426500Y-100297000D01*
X124403221Y-100295856D01*
X124380166Y-100292437D01*
X124357557Y-100286773D01*
X124335613Y-100278921D01*
X124314543Y-100268956D01*
X124294552Y-100256974D01*
X124275832Y-100243090D01*
X124258562Y-100227438D01*
X124242910Y-100210168D01*
X124229026Y-100191448D01*
X124217044Y-100171457D01*
X124207079Y-100150387D01*
X124199227Y-100128443D01*
X124193563Y-100105834D01*
X124190144Y-100082779D01*
X124189000Y-100059500D01*
X124189000Y-99584500D01*
X124190144Y-99561221D01*
X124193563Y-99538166D01*
X124199227Y-99515557D01*
X124207079Y-99493613D01*
X124217044Y-99472543D01*
X124229026Y-99452552D01*
X124242910Y-99433832D01*
X124258562Y-99416562D01*
X124275832Y-99400910D01*
X124294552Y-99387026D01*
X124314543Y-99375044D01*
X124335613Y-99365079D01*
X124357557Y-99357227D01*
X124380166Y-99351563D01*
X124403221Y-99348144D01*
X124426500Y-99347000D01*
X125001500Y-99347000D01*
X125024779Y-99348144D01*
X125024779Y-99348144D01*
G37*
D11*
X124714000Y-99822000D03*
G04 #@! TD*
D10*
G04 #@! TO.C,R18*
G36*
X76510779Y-86394144D02*
X76533834Y-86397563D01*
X76556443Y-86403227D01*
X76578387Y-86411079D01*
X76599457Y-86421044D01*
X76619448Y-86433026D01*
X76638168Y-86446910D01*
X76655438Y-86462562D01*
X76671090Y-86479832D01*
X76684974Y-86498552D01*
X76696956Y-86518543D01*
X76706921Y-86539613D01*
X76714773Y-86561557D01*
X76720437Y-86584166D01*
X76723856Y-86607221D01*
X76725000Y-86630500D01*
X76725000Y-87105500D01*
X76723856Y-87128779D01*
X76720437Y-87151834D01*
X76714773Y-87174443D01*
X76706921Y-87196387D01*
X76696956Y-87217457D01*
X76684974Y-87237448D01*
X76671090Y-87256168D01*
X76655438Y-87273438D01*
X76638168Y-87289090D01*
X76619448Y-87302974D01*
X76599457Y-87314956D01*
X76578387Y-87324921D01*
X76556443Y-87332773D01*
X76533834Y-87338437D01*
X76510779Y-87341856D01*
X76487500Y-87343000D01*
X75912500Y-87343000D01*
X75889221Y-87341856D01*
X75866166Y-87338437D01*
X75843557Y-87332773D01*
X75821613Y-87324921D01*
X75800543Y-87314956D01*
X75780552Y-87302974D01*
X75761832Y-87289090D01*
X75744562Y-87273438D01*
X75728910Y-87256168D01*
X75715026Y-87237448D01*
X75703044Y-87217457D01*
X75693079Y-87196387D01*
X75685227Y-87174443D01*
X75679563Y-87151834D01*
X75676144Y-87128779D01*
X75675000Y-87105500D01*
X75675000Y-86630500D01*
X75676144Y-86607221D01*
X75679563Y-86584166D01*
X75685227Y-86561557D01*
X75693079Y-86539613D01*
X75703044Y-86518543D01*
X75715026Y-86498552D01*
X75728910Y-86479832D01*
X75744562Y-86462562D01*
X75761832Y-86446910D01*
X75780552Y-86433026D01*
X75800543Y-86421044D01*
X75821613Y-86411079D01*
X75843557Y-86403227D01*
X75866166Y-86397563D01*
X75889221Y-86394144D01*
X75912500Y-86393000D01*
X76487500Y-86393000D01*
X76510779Y-86394144D01*
X76510779Y-86394144D01*
G37*
D11*
X76200000Y-86868000D03*
D10*
G36*
X78260779Y-86394144D02*
X78283834Y-86397563D01*
X78306443Y-86403227D01*
X78328387Y-86411079D01*
X78349457Y-86421044D01*
X78369448Y-86433026D01*
X78388168Y-86446910D01*
X78405438Y-86462562D01*
X78421090Y-86479832D01*
X78434974Y-86498552D01*
X78446956Y-86518543D01*
X78456921Y-86539613D01*
X78464773Y-86561557D01*
X78470437Y-86584166D01*
X78473856Y-86607221D01*
X78475000Y-86630500D01*
X78475000Y-87105500D01*
X78473856Y-87128779D01*
X78470437Y-87151834D01*
X78464773Y-87174443D01*
X78456921Y-87196387D01*
X78446956Y-87217457D01*
X78434974Y-87237448D01*
X78421090Y-87256168D01*
X78405438Y-87273438D01*
X78388168Y-87289090D01*
X78369448Y-87302974D01*
X78349457Y-87314956D01*
X78328387Y-87324921D01*
X78306443Y-87332773D01*
X78283834Y-87338437D01*
X78260779Y-87341856D01*
X78237500Y-87343000D01*
X77662500Y-87343000D01*
X77639221Y-87341856D01*
X77616166Y-87338437D01*
X77593557Y-87332773D01*
X77571613Y-87324921D01*
X77550543Y-87314956D01*
X77530552Y-87302974D01*
X77511832Y-87289090D01*
X77494562Y-87273438D01*
X77478910Y-87256168D01*
X77465026Y-87237448D01*
X77453044Y-87217457D01*
X77443079Y-87196387D01*
X77435227Y-87174443D01*
X77429563Y-87151834D01*
X77426144Y-87128779D01*
X77425000Y-87105500D01*
X77425000Y-86630500D01*
X77426144Y-86607221D01*
X77429563Y-86584166D01*
X77435227Y-86561557D01*
X77443079Y-86539613D01*
X77453044Y-86518543D01*
X77465026Y-86498552D01*
X77478910Y-86479832D01*
X77494562Y-86462562D01*
X77511832Y-86446910D01*
X77530552Y-86433026D01*
X77550543Y-86421044D01*
X77571613Y-86411079D01*
X77593557Y-86403227D01*
X77616166Y-86397563D01*
X77639221Y-86394144D01*
X77662500Y-86393000D01*
X78237500Y-86393000D01*
X78260779Y-86394144D01*
X78260779Y-86394144D01*
G37*
D11*
X77950000Y-86868000D03*
G04 #@! TD*
D10*
G04 #@! TO.C,R19*
G36*
X96040779Y-86394144D02*
X96063834Y-86397563D01*
X96086443Y-86403227D01*
X96108387Y-86411079D01*
X96129457Y-86421044D01*
X96149448Y-86433026D01*
X96168168Y-86446910D01*
X96185438Y-86462562D01*
X96201090Y-86479832D01*
X96214974Y-86498552D01*
X96226956Y-86518543D01*
X96236921Y-86539613D01*
X96244773Y-86561557D01*
X96250437Y-86584166D01*
X96253856Y-86607221D01*
X96255000Y-86630500D01*
X96255000Y-87105500D01*
X96253856Y-87128779D01*
X96250437Y-87151834D01*
X96244773Y-87174443D01*
X96236921Y-87196387D01*
X96226956Y-87217457D01*
X96214974Y-87237448D01*
X96201090Y-87256168D01*
X96185438Y-87273438D01*
X96168168Y-87289090D01*
X96149448Y-87302974D01*
X96129457Y-87314956D01*
X96108387Y-87324921D01*
X96086443Y-87332773D01*
X96063834Y-87338437D01*
X96040779Y-87341856D01*
X96017500Y-87343000D01*
X95442500Y-87343000D01*
X95419221Y-87341856D01*
X95396166Y-87338437D01*
X95373557Y-87332773D01*
X95351613Y-87324921D01*
X95330543Y-87314956D01*
X95310552Y-87302974D01*
X95291832Y-87289090D01*
X95274562Y-87273438D01*
X95258910Y-87256168D01*
X95245026Y-87237448D01*
X95233044Y-87217457D01*
X95223079Y-87196387D01*
X95215227Y-87174443D01*
X95209563Y-87151834D01*
X95206144Y-87128779D01*
X95205000Y-87105500D01*
X95205000Y-86630500D01*
X95206144Y-86607221D01*
X95209563Y-86584166D01*
X95215227Y-86561557D01*
X95223079Y-86539613D01*
X95233044Y-86518543D01*
X95245026Y-86498552D01*
X95258910Y-86479832D01*
X95274562Y-86462562D01*
X95291832Y-86446910D01*
X95310552Y-86433026D01*
X95330543Y-86421044D01*
X95351613Y-86411079D01*
X95373557Y-86403227D01*
X95396166Y-86397563D01*
X95419221Y-86394144D01*
X95442500Y-86393000D01*
X96017500Y-86393000D01*
X96040779Y-86394144D01*
X96040779Y-86394144D01*
G37*
D11*
X95730000Y-86868000D03*
D10*
G36*
X94290779Y-86394144D02*
X94313834Y-86397563D01*
X94336443Y-86403227D01*
X94358387Y-86411079D01*
X94379457Y-86421044D01*
X94399448Y-86433026D01*
X94418168Y-86446910D01*
X94435438Y-86462562D01*
X94451090Y-86479832D01*
X94464974Y-86498552D01*
X94476956Y-86518543D01*
X94486921Y-86539613D01*
X94494773Y-86561557D01*
X94500437Y-86584166D01*
X94503856Y-86607221D01*
X94505000Y-86630500D01*
X94505000Y-87105500D01*
X94503856Y-87128779D01*
X94500437Y-87151834D01*
X94494773Y-87174443D01*
X94486921Y-87196387D01*
X94476956Y-87217457D01*
X94464974Y-87237448D01*
X94451090Y-87256168D01*
X94435438Y-87273438D01*
X94418168Y-87289090D01*
X94399448Y-87302974D01*
X94379457Y-87314956D01*
X94358387Y-87324921D01*
X94336443Y-87332773D01*
X94313834Y-87338437D01*
X94290779Y-87341856D01*
X94267500Y-87343000D01*
X93692500Y-87343000D01*
X93669221Y-87341856D01*
X93646166Y-87338437D01*
X93623557Y-87332773D01*
X93601613Y-87324921D01*
X93580543Y-87314956D01*
X93560552Y-87302974D01*
X93541832Y-87289090D01*
X93524562Y-87273438D01*
X93508910Y-87256168D01*
X93495026Y-87237448D01*
X93483044Y-87217457D01*
X93473079Y-87196387D01*
X93465227Y-87174443D01*
X93459563Y-87151834D01*
X93456144Y-87128779D01*
X93455000Y-87105500D01*
X93455000Y-86630500D01*
X93456144Y-86607221D01*
X93459563Y-86584166D01*
X93465227Y-86561557D01*
X93473079Y-86539613D01*
X93483044Y-86518543D01*
X93495026Y-86498552D01*
X93508910Y-86479832D01*
X93524562Y-86462562D01*
X93541832Y-86446910D01*
X93560552Y-86433026D01*
X93580543Y-86421044D01*
X93601613Y-86411079D01*
X93623557Y-86403227D01*
X93646166Y-86397563D01*
X93669221Y-86394144D01*
X93692500Y-86393000D01*
X94267500Y-86393000D01*
X94290779Y-86394144D01*
X94290779Y-86394144D01*
G37*
D11*
X93980000Y-86868000D03*
G04 #@! TD*
D10*
G04 #@! TO.C,R20*
G36*
X112070779Y-86394144D02*
X112093834Y-86397563D01*
X112116443Y-86403227D01*
X112138387Y-86411079D01*
X112159457Y-86421044D01*
X112179448Y-86433026D01*
X112198168Y-86446910D01*
X112215438Y-86462562D01*
X112231090Y-86479832D01*
X112244974Y-86498552D01*
X112256956Y-86518543D01*
X112266921Y-86539613D01*
X112274773Y-86561557D01*
X112280437Y-86584166D01*
X112283856Y-86607221D01*
X112285000Y-86630500D01*
X112285000Y-87105500D01*
X112283856Y-87128779D01*
X112280437Y-87151834D01*
X112274773Y-87174443D01*
X112266921Y-87196387D01*
X112256956Y-87217457D01*
X112244974Y-87237448D01*
X112231090Y-87256168D01*
X112215438Y-87273438D01*
X112198168Y-87289090D01*
X112179448Y-87302974D01*
X112159457Y-87314956D01*
X112138387Y-87324921D01*
X112116443Y-87332773D01*
X112093834Y-87338437D01*
X112070779Y-87341856D01*
X112047500Y-87343000D01*
X111472500Y-87343000D01*
X111449221Y-87341856D01*
X111426166Y-87338437D01*
X111403557Y-87332773D01*
X111381613Y-87324921D01*
X111360543Y-87314956D01*
X111340552Y-87302974D01*
X111321832Y-87289090D01*
X111304562Y-87273438D01*
X111288910Y-87256168D01*
X111275026Y-87237448D01*
X111263044Y-87217457D01*
X111253079Y-87196387D01*
X111245227Y-87174443D01*
X111239563Y-87151834D01*
X111236144Y-87128779D01*
X111235000Y-87105500D01*
X111235000Y-86630500D01*
X111236144Y-86607221D01*
X111239563Y-86584166D01*
X111245227Y-86561557D01*
X111253079Y-86539613D01*
X111263044Y-86518543D01*
X111275026Y-86498552D01*
X111288910Y-86479832D01*
X111304562Y-86462562D01*
X111321832Y-86446910D01*
X111340552Y-86433026D01*
X111360543Y-86421044D01*
X111381613Y-86411079D01*
X111403557Y-86403227D01*
X111426166Y-86397563D01*
X111449221Y-86394144D01*
X111472500Y-86393000D01*
X112047500Y-86393000D01*
X112070779Y-86394144D01*
X112070779Y-86394144D01*
G37*
D11*
X111760000Y-86868000D03*
D10*
G36*
X113820779Y-86394144D02*
X113843834Y-86397563D01*
X113866443Y-86403227D01*
X113888387Y-86411079D01*
X113909457Y-86421044D01*
X113929448Y-86433026D01*
X113948168Y-86446910D01*
X113965438Y-86462562D01*
X113981090Y-86479832D01*
X113994974Y-86498552D01*
X114006956Y-86518543D01*
X114016921Y-86539613D01*
X114024773Y-86561557D01*
X114030437Y-86584166D01*
X114033856Y-86607221D01*
X114035000Y-86630500D01*
X114035000Y-87105500D01*
X114033856Y-87128779D01*
X114030437Y-87151834D01*
X114024773Y-87174443D01*
X114016921Y-87196387D01*
X114006956Y-87217457D01*
X113994974Y-87237448D01*
X113981090Y-87256168D01*
X113965438Y-87273438D01*
X113948168Y-87289090D01*
X113929448Y-87302974D01*
X113909457Y-87314956D01*
X113888387Y-87324921D01*
X113866443Y-87332773D01*
X113843834Y-87338437D01*
X113820779Y-87341856D01*
X113797500Y-87343000D01*
X113222500Y-87343000D01*
X113199221Y-87341856D01*
X113176166Y-87338437D01*
X113153557Y-87332773D01*
X113131613Y-87324921D01*
X113110543Y-87314956D01*
X113090552Y-87302974D01*
X113071832Y-87289090D01*
X113054562Y-87273438D01*
X113038910Y-87256168D01*
X113025026Y-87237448D01*
X113013044Y-87217457D01*
X113003079Y-87196387D01*
X112995227Y-87174443D01*
X112989563Y-87151834D01*
X112986144Y-87128779D01*
X112985000Y-87105500D01*
X112985000Y-86630500D01*
X112986144Y-86607221D01*
X112989563Y-86584166D01*
X112995227Y-86561557D01*
X113003079Y-86539613D01*
X113013044Y-86518543D01*
X113025026Y-86498552D01*
X113038910Y-86479832D01*
X113054562Y-86462562D01*
X113071832Y-86446910D01*
X113090552Y-86433026D01*
X113110543Y-86421044D01*
X113131613Y-86411079D01*
X113153557Y-86403227D01*
X113176166Y-86397563D01*
X113199221Y-86394144D01*
X113222500Y-86393000D01*
X113797500Y-86393000D01*
X113820779Y-86394144D01*
X113820779Y-86394144D01*
G37*
D11*
X113510000Y-86868000D03*
G04 #@! TD*
M02*
