%
M48
M72
T01C0.0197
T02C0.0236
T03C0.0354
T04C0.0400
T05C0.0787
T06C0.1260
T07C0.1280
%
T01
X12183Y23038
X19383Y23038
X26583Y23038
X33783Y23038
X40983Y23038
X48183Y23038
T02
X49893Y24993
X46193Y24993
X40793Y24993
X24743Y25743
X21543Y25743
X19143Y25743
X17243Y25743
T03
X18393Y17708
X19393Y17708
X20393Y17708
X21393Y17708
X20893Y16708
X19893Y16708
X18893Y16708
X17893Y16708
X14188Y17708
X13188Y17708
X12188Y17708
X11188Y17708
X11688Y16708
X10688Y16708
X12688Y16708
X13688Y16708
X25098Y16708
X26098Y16708
X27098Y16708
X28098Y16708
X28598Y17708
X27598Y17708
X26598Y17708
X25598Y17708
X32303Y16708
X33303Y16708
X34303Y16708
X35303Y16708
X35803Y17708
X34803Y17708
X33803Y17708
X32803Y17708
X39508Y16708
X40508Y16708
X41508Y16708
X42508Y16708
X43008Y17708
X42008Y17708
X41008Y17708
X40008Y17708
X46713Y16708
X47713Y16708
X48713Y16708
X49713Y16708
X50213Y17708
X49213Y17708
X48213Y17708
X47213Y17708
T04
X17443Y9893
X18443Y9893
X19443Y9893
X20443Y9893
X21443Y9893
X22443Y9893
X23443Y9893
X24443Y9893
X25443Y9893
X26443Y9893
X26443Y10893
X25443Y10893
X24443Y10893
X23443Y10893
X22443Y10893
X21443Y10893
X20443Y10893
X19443Y10893
X18443Y10893
X17443Y10893
X42443Y10893
X43443Y10893
X44443Y10893
X45443Y10893
X46443Y10893
X47443Y10893
X48443Y10893
X49443Y10893
X50443Y10893
X51443Y10893
X51443Y9893
X50443Y9893
X49443Y9893
X48443Y9893
X47443Y9893
X46443Y9893
X45443Y9893
X44443Y9893
X43443Y9893
X42443Y9893
X42443Y26893
X43443Y26893
X44443Y26893
X45443Y26893
X46443Y26893
X47443Y26893
X48443Y26893
X49443Y26893
X50443Y26893
X51443Y26893
X51443Y27893
X50443Y27893
X49443Y27893
X48443Y27893
X47443Y27893
X46443Y27893
X45443Y27893
X44443Y27893
X43443Y27893
X42443Y27893
X26443Y27893
X25443Y27893
X24443Y27893
X23443Y27893
X22443Y27893
X21443Y27893
X20443Y27893
X19443Y27893
X18443Y27893
X17443Y27893
X17443Y26893
X18443Y26893
X19443Y26893
X20443Y26893
X21443Y26893
X22443Y26893
X23443Y26893
X24443Y26893
X25443Y26893
X26443Y26893
T05
X15393Y26843
X12893Y26843
X10393Y26843
T06
X35443Y26893
T07
X36228Y14208
X38933Y14208
X43433Y14208
X46138Y14208
X50638Y14208
X31728Y14208
X29023Y14208
X24523Y14208
X21818Y14208
X17318Y14208
X14613Y14208
X10113Y14208
M30
