G75*
%MOIN*%
%OFA0B0*%
%FSLAX24Y24*%
%IPPOS*%
%LPD*%
%AMOC8*
5,1,8,0,0,1.08239X$1,22.5*
%
%ADD10C,0.0000*%
%ADD11C,0.0060*%
%ADD12C,0.0040*%
%ADD13C,0.0010*%
%ADD14C,0.0080*%
%ADD15C,0.0050*%
%ADD16R,0.0006X0.0002*%
%ADD17R,0.0004X0.0002*%
%ADD18R,0.0008X0.0002*%
%ADD19R,0.0034X0.0002*%
%ADD20R,0.0006X0.0002*%
%ADD21R,0.0010X0.0002*%
%ADD22R,0.0056X0.0002*%
%ADD23R,0.0008X0.0002*%
%ADD24R,0.0010X0.0002*%
%ADD25R,0.0074X0.0002*%
%ADD26R,0.0094X0.0002*%
%ADD27R,0.0002X0.0002*%
%ADD28R,0.0142X0.0002*%
%ADD29R,0.0154X0.0002*%
%ADD30R,0.0164X0.0002*%
%ADD31R,0.0178X0.0002*%
%ADD32R,0.0188X0.0002*%
%ADD33R,0.0194X0.0002*%
%ADD34R,0.0206X0.0002*%
%ADD35R,0.0214X0.0002*%
%ADD36R,0.0226X0.0002*%
%ADD37R,0.0238X0.0002*%
%ADD38R,0.0246X0.0002*%
%ADD39R,0.0252X0.0002*%
%ADD40R,0.0262X0.0002*%
%ADD41R,0.0270X0.0002*%
%ADD42R,0.0274X0.0002*%
%ADD43R,0.0280X0.0002*%
%ADD44R,0.0286X0.0002*%
%ADD45R,0.0292X0.0002*%
%ADD46R,0.0298X0.0002*%
%ADD47R,0.0304X0.0002*%
%ADD48R,0.0310X0.0002*%
%ADD49R,0.0314X0.0002*%
%ADD50R,0.0318X0.0002*%
%ADD51R,0.0326X0.0002*%
%ADD52R,0.0332X0.0002*%
%ADD53R,0.0338X0.0002*%
%ADD54R,0.0344X0.0002*%
%ADD55R,0.0350X0.0002*%
%ADD56R,0.0354X0.0002*%
%ADD57R,0.0360X0.0002*%
%ADD58R,0.0178X0.0002*%
%ADD59R,0.0128X0.0002*%
%ADD60R,0.0162X0.0002*%
%ADD61R,0.0122X0.0002*%
%ADD62R,0.0150X0.0002*%
%ADD63R,0.0118X0.0002*%
%ADD64R,0.0148X0.0002*%
%ADD65R,0.0114X0.0002*%
%ADD66R,0.0146X0.0002*%
%ADD67R,0.0108X0.0002*%
%ADD68R,0.0108X0.0002*%
%ADD69R,0.0144X0.0002*%
%ADD70R,0.0106X0.0002*%
%ADD71R,0.0144X0.0002*%
%ADD72R,0.0142X0.0002*%
%ADD73R,0.0140X0.0002*%
%ADD74R,0.0138X0.0002*%
%ADD75R,0.0114X0.0002*%
%ADD76R,0.0004X0.0002*%
%ADD77R,0.0132X0.0002*%
%ADD78R,0.0174X0.0002*%
%ADD79R,0.0132X0.0002*%
%ADD80R,0.0202X0.0002*%
%ADD81R,0.0002X0.0002*%
%ADD82R,0.0130X0.0002*%
%ADD83R,0.0208X0.0002*%
%ADD84R,0.0130X0.0002*%
%ADD85R,0.0222X0.0002*%
%ADD86R,0.0002X0.0002*%
%ADD87R,0.0244X0.0002*%
%ADD88R,0.0128X0.0002*%
%ADD89R,0.0256X0.0002*%
%ADD90R,0.0126X0.0002*%
%ADD91R,0.0266X0.0002*%
%ADD92R,0.0276X0.0002*%
%ADD93R,0.0296X0.0002*%
%ADD94R,0.0328X0.0002*%
%ADD95R,0.0126X0.0002*%
%ADD96R,0.0346X0.0002*%
%ADD97R,0.0356X0.0002*%
%ADD98R,0.0124X0.0002*%
%ADD99R,0.0366X0.0002*%
%ADD100R,0.0124X0.0002*%
%ADD101R,0.0386X0.0002*%
%ADD102R,0.0398X0.0002*%
%ADD103R,0.0122X0.0002*%
%ADD104R,0.0406X0.0002*%
%ADD105R,0.0122X0.0002*%
%ADD106R,0.0416X0.0002*%
%ADD107R,0.0424X0.0002*%
%ADD108R,0.0120X0.0002*%
%ADD109R,0.0432X0.0002*%
%ADD110R,0.0120X0.0002*%
%ADD111R,0.0446X0.0002*%
%ADD112R,0.0118X0.0002*%
%ADD113R,0.0456X0.0002*%
%ADD114R,0.0464X0.0002*%
%ADD115R,0.0474X0.0002*%
%ADD116R,0.0484X0.0002*%
%ADD117R,0.0494X0.0002*%
%ADD118R,0.0506X0.0002*%
%ADD119R,0.0514X0.0002*%
%ADD120R,0.0522X0.0002*%
%ADD121R,0.0532X0.0002*%
%ADD122R,0.0538X0.0002*%
%ADD123R,0.0546X0.0002*%
%ADD124R,0.0554X0.0002*%
%ADD125R,0.0560X0.0002*%
%ADD126R,0.0566X0.0002*%
%ADD127R,0.0194X0.0002*%
%ADD128R,0.0366X0.0002*%
%ADD129R,0.0194X0.0002*%
%ADD130R,0.0122X0.0002*%
%ADD131R,0.0196X0.0002*%
%ADD132R,0.0074X0.0002*%
%ADD133R,0.0272X0.0002*%
%ADD134R,0.0196X0.0002*%
%ADD135R,0.0070X0.0002*%
%ADD136R,0.0262X0.0002*%
%ADD137R,0.0198X0.0002*%
%ADD138R,0.0070X0.0002*%
%ADD139R,0.0256X0.0002*%
%ADD140R,0.0202X0.0002*%
%ADD141R,0.0068X0.0002*%
%ADD142R,0.0250X0.0002*%
%ADD143R,0.0068X0.0002*%
%ADD144R,0.0244X0.0002*%
%ADD145R,0.0210X0.0002*%
%ADD146R,0.0066X0.0002*%
%ADD147R,0.0240X0.0002*%
%ADD148R,0.0218X0.0002*%
%ADD149R,0.0236X0.0002*%
%ADD150R,0.0220X0.0002*%
%ADD151R,0.0236X0.0002*%
%ADD152R,0.0228X0.0002*%
%ADD153R,0.0072X0.0002*%
%ADD154R,0.0234X0.0002*%
%ADD155R,0.0312X0.0002*%
%ADD156R,0.0232X0.0002*%
%ADD157R,0.0316X0.0002*%
%ADD158R,0.0232X0.0002*%
%ADD159R,0.0318X0.0002*%
%ADD160R,0.0230X0.0002*%
%ADD161R,0.0324X0.0002*%
%ADD162R,0.0230X0.0002*%
%ADD163R,0.0336X0.0002*%
%ADD164R,0.0342X0.0002*%
%ADD165R,0.0226X0.0002*%
%ADD166R,0.0224X0.0002*%
%ADD167R,0.0124X0.0002*%
%ADD168R,0.0392X0.0002*%
%ADD169R,0.0408X0.0002*%
%ADD170R,0.0446X0.0002*%
%ADD171R,0.0724X0.0002*%
%ADD172R,0.0730X0.0002*%
%ADD173R,0.0192X0.0002*%
%ADD174R,0.0528X0.0002*%
%ADD175R,0.0530X0.0002*%
%ADD176R,0.0530X0.0002*%
%ADD177R,0.0534X0.0002*%
%ADD178R,0.0200X0.0002*%
%ADD179R,0.0534X0.0002*%
%ADD180R,0.0202X0.0002*%
%ADD181R,0.0204X0.0002*%
%ADD182R,0.0544X0.0002*%
%ADD183R,0.0210X0.0002*%
%ADD184R,0.0548X0.0002*%
%ADD185R,0.0566X0.0002*%
%ADD186R,0.0634X0.0002*%
%ADD187R,0.0632X0.0002*%
%ADD188R,0.0634X0.0002*%
%ADD189R,0.0636X0.0002*%
%ADD190R,0.0116X0.0002*%
%ADD191R,0.0638X0.0002*%
%ADD192R,0.0110X0.0002*%
%ADD193R,0.0640X0.0002*%
%ADD194R,0.0644X0.0002*%
%ADD195R,0.0104X0.0002*%
%ADD196R,0.0648X0.0002*%
%ADD197R,0.0104X0.0002*%
%ADD198R,0.0650X0.0002*%
%ADD199R,0.0102X0.0002*%
%ADD200R,0.0654X0.0002*%
%ADD201R,0.0100X0.0002*%
%ADD202R,0.0660X0.0002*%
%ADD203R,0.0098X0.0002*%
%ADD204R,0.0666X0.0002*%
%ADD205R,0.0132X0.0002*%
%ADD206R,0.0092X0.0002*%
%ADD207R,0.0670X0.0002*%
%ADD208R,0.0132X0.0002*%
%ADD209R,0.0090X0.0002*%
%ADD210R,0.0678X0.0002*%
%ADD211R,0.0134X0.0002*%
%ADD212R,0.0086X0.0002*%
%ADD213R,0.0682X0.0002*%
%ADD214R,0.0134X0.0002*%
%ADD215R,0.0084X0.0002*%
%ADD216R,0.0688X0.0002*%
%ADD217R,0.0080X0.0002*%
%ADD218R,0.0690X0.0002*%
%ADD219R,0.0138X0.0002*%
%ADD220R,0.0078X0.0002*%
%ADD221R,0.0002X0.0002*%
%ADD222R,0.0694X0.0002*%
%ADD223R,0.0076X0.0002*%
%ADD224R,0.0840X0.0002*%
%ADD225R,0.0842X0.0002*%
%ADD226R,0.0846X0.0002*%
%ADD227R,0.0078X0.0002*%
%ADD228R,0.0850X0.0002*%
%ADD229R,0.0166X0.0002*%
%ADD230R,0.0674X0.0002*%
%ADD231R,0.0168X0.0002*%
%ADD232R,0.0668X0.0002*%
%ADD233R,0.0080X0.0002*%
%ADD234R,0.0666X0.0002*%
%ADD235R,0.0168X0.0002*%
%ADD236R,0.0664X0.0002*%
%ADD237R,0.0170X0.0002*%
%ADD238R,0.0662X0.0002*%
%ADD239R,0.0076X0.0002*%
%ADD240R,0.0098X0.0002*%
%ADD241R,0.0052X0.0002*%
%ADD242R,0.0662X0.0002*%
%ADD243R,0.0094X0.0002*%
%ADD244R,0.0048X0.0002*%
%ADD245R,0.0092X0.0002*%
%ADD246R,0.0046X0.0002*%
%ADD247R,0.0090X0.0002*%
%ADD248R,0.0042X0.0002*%
%ADD249R,0.0658X0.0002*%
%ADD250R,0.0040X0.0002*%
%ADD251R,0.0656X0.0002*%
%ADD252R,0.0088X0.0002*%
%ADD253R,0.0040X0.0002*%
%ADD254R,0.0652X0.0002*%
%ADD255R,0.0066X0.0002*%
%ADD256R,0.0088X0.0002*%
%ADD257R,0.0038X0.0002*%
%ADD258R,0.0186X0.0002*%
%ADD259R,0.0460X0.0002*%
%ADD260R,0.0038X0.0002*%
%ADD261R,0.0182X0.0002*%
%ADD262R,0.0458X0.0002*%
%ADD263R,0.0064X0.0002*%
%ADD264R,0.0074X0.0002*%
%ADD265R,0.0452X0.0002*%
%ADD266R,0.0062X0.0002*%
%ADD267R,0.0176X0.0002*%
%ADD268R,0.0448X0.0002*%
%ADD269R,0.0176X0.0002*%
%ADD270R,0.0444X0.0002*%
%ADD271R,0.0062X0.0002*%
%ADD272R,0.0074X0.0002*%
%ADD273R,0.0174X0.0002*%
%ADD274R,0.0438X0.0002*%
%ADD275R,0.0060X0.0002*%
%ADD276R,0.0172X0.0002*%
%ADD277R,0.0434X0.0002*%
%ADD278R,0.0062X0.0002*%
%ADD279R,0.0170X0.0002*%
%ADD280R,0.0426X0.0002*%
%ADD281R,0.0036X0.0002*%
%ADD282R,0.0422X0.0002*%
%ADD283R,0.0062X0.0002*%
%ADD284R,0.0412X0.0002*%
%ADD285R,0.0036X0.0002*%
%ADD286R,0.0406X0.0002*%
%ADD287R,0.0058X0.0002*%
%ADD288R,0.0404X0.0002*%
%ADD289R,0.0058X0.0002*%
%ADD290R,0.0402X0.0002*%
%ADD291R,0.0060X0.0002*%
%ADD292R,0.0398X0.0002*%
%ADD293R,0.0394X0.0002*%
%ADD294R,0.0392X0.0002*%
%ADD295R,0.0164X0.0002*%
%ADD296R,0.0388X0.0002*%
%ADD297R,0.0166X0.0002*%
%ADD298R,0.0384X0.0002*%
%ADD299R,0.0380X0.0002*%
%ADD300R,0.0378X0.0002*%
%ADD301R,0.0056X0.0002*%
%ADD302R,0.0376X0.0002*%
%ADD303R,0.0034X0.0002*%
%ADD304R,0.0374X0.0002*%
%ADD305R,0.0034X0.0002*%
%ADD306R,0.0372X0.0002*%
%ADD307R,0.0054X0.0002*%
%ADD308R,0.0034X0.0002*%
%ADD309R,0.0370X0.0002*%
%ADD310R,0.0032X0.0002*%
%ADD311R,0.0172X0.0002*%
%ADD312R,0.0054X0.0002*%
%ADD313R,0.0054X0.0002*%
%ADD314R,0.0172X0.0002*%
%ADD315R,0.0032X0.0002*%
%ADD316R,0.0174X0.0002*%
%ADD317R,0.0364X0.0002*%
%ADD318R,0.0052X0.0002*%
%ADD319R,0.0032X0.0002*%
%ADD320R,0.0360X0.0002*%
%ADD321R,0.0358X0.0002*%
%ADD322R,0.0052X0.0002*%
%ADD323R,0.0356X0.0002*%
%ADD324R,0.0052X0.0002*%
%ADD325R,0.0180X0.0002*%
%ADD326R,0.0354X0.0002*%
%ADD327R,0.0050X0.0002*%
%ADD328R,0.0180X0.0002*%
%ADD329R,0.0348X0.0002*%
%ADD330R,0.0032X0.0002*%
%ADD331R,0.0182X0.0002*%
%ADD332R,0.0344X0.0002*%
%ADD333R,0.0182X0.0002*%
%ADD334R,0.0344X0.0002*%
%ADD335R,0.0050X0.0002*%
%ADD336R,0.0184X0.0002*%
%ADD337R,0.0340X0.0002*%
%ADD338R,0.0054X0.0002*%
%ADD339R,0.0184X0.0002*%
%ADD340R,0.0340X0.0002*%
%ADD341R,0.0184X0.0002*%
%ADD342R,0.0048X0.0002*%
%ADD343R,0.0336X0.0002*%
%ADD344R,0.0044X0.0002*%
%ADD345R,0.0044X0.0002*%
%ADD346R,0.0184X0.0002*%
%ADD347R,0.0332X0.0002*%
%ADD348R,0.0332X0.0002*%
%ADD349R,0.0044X0.0002*%
%ADD350R,0.0330X0.0002*%
%ADD351R,0.0046X0.0002*%
%ADD352R,0.0330X0.0002*%
%ADD353R,0.0328X0.0002*%
%ADD354R,0.0326X0.0002*%
%ADD355R,0.0322X0.0002*%
%ADD356R,0.0320X0.0002*%
%ADD357R,0.0042X0.0002*%
%ADD358R,0.0320X0.0002*%
%ADD359R,0.0042X0.0002*%
%ADD360R,0.0042X0.0002*%
%ADD361R,0.0316X0.0002*%
%ADD362R,0.0064X0.0002*%
%ADD363R,0.0064X0.0002*%
%ADD364R,0.0064X0.0002*%
%ADD365R,0.0314X0.0002*%
%ADD366R,0.0312X0.0002*%
%ADD367R,0.0312X0.0002*%
%ADD368R,0.0346X0.0002*%
%ADD369R,0.0182X0.0002*%
%ADD370R,0.0362X0.0002*%
%ADD371R,0.0388X0.0002*%
%ADD372R,0.0596X0.0002*%
%ADD373R,0.0606X0.0002*%
%ADD374R,0.0616X0.0002*%
%ADD375R,0.0030X0.0002*%
%ADD376R,0.0626X0.0002*%
%ADD377R,0.0642X0.0002*%
%ADD378R,0.0650X0.0002*%
%ADD379R,0.0656X0.0002*%
%ADD380R,0.0664X0.0002*%
%ADD381R,0.0668X0.0002*%
%ADD382R,0.0674X0.0002*%
%ADD383R,0.0680X0.0002*%
%ADD384R,0.0686X0.0002*%
%ADD385R,0.0692X0.0002*%
%ADD386R,0.0698X0.0002*%
%ADD387R,0.0082X0.0002*%
%ADD388R,0.0702X0.0002*%
%ADD389R,0.0304X0.0002*%
%ADD390R,0.0116X0.0002*%
%ADD391R,0.0072X0.0002*%
%ADD392R,0.0284X0.0002*%
%ADD393R,0.0260X0.0002*%
%ADD394R,0.0248X0.0002*%
%ADD395R,0.0242X0.0002*%
%ADD396R,0.0234X0.0002*%
%ADD397R,0.0110X0.0002*%
%ADD398R,0.0220X0.0002*%
%ADD399R,0.0112X0.0002*%
%ADD400R,0.0214X0.0002*%
%ADD401R,0.0206X0.0002*%
%ADD402R,0.0030X0.0002*%
%ADD403R,0.0216X0.0002*%
%ADD404R,0.0224X0.0002*%
%ADD405R,0.0028X0.0002*%
%ADD406R,0.0142X0.0002*%
%ADD407R,0.0240X0.0002*%
%ADD408R,0.0156X0.0002*%
%ADD409R,0.0028X0.0002*%
%ADD410R,0.0160X0.0002*%
%ADD411R,0.0260X0.0002*%
%ADD412R,0.0268X0.0002*%
%ADD413R,0.0026X0.0002*%
%ADD414R,0.0214X0.0002*%
%ADD415R,0.0278X0.0002*%
%ADD416R,0.0024X0.0002*%
%ADD417R,0.0024X0.0002*%
%ADD418R,0.0284X0.0002*%
%ADD419R,0.0022X0.0002*%
%ADD420R,0.0288X0.0002*%
%ADD421R,0.0022X0.0002*%
%ADD422R,0.0290X0.0002*%
%ADD423R,0.0022X0.0002*%
%ADD424R,0.0246X0.0002*%
%ADD425R,0.0294X0.0002*%
%ADD426R,0.0022X0.0002*%
%ADD427R,0.0252X0.0002*%
%ADD428R,0.0020X0.0002*%
%ADD429R,0.0300X0.0002*%
%ADD430R,0.0020X0.0002*%
%ADD431R,0.0262X0.0002*%
%ADD432R,0.0302X0.0002*%
%ADD433R,0.0270X0.0002*%
%ADD434R,0.0306X0.0002*%
%ADD435R,0.0276X0.0002*%
%ADD436R,0.0310X0.0002*%
%ADD437R,0.0282X0.0002*%
%ADD438R,0.0288X0.0002*%
%ADD439R,0.0018X0.0002*%
%ADD440R,0.0298X0.0002*%
%ADD441R,0.0304X0.0002*%
%ADD442R,0.0324X0.0002*%
%ADD443R,0.0018X0.0002*%
%ADD444R,0.0332X0.0002*%
%ADD445R,0.0026X0.0002*%
%ADD446R,0.0334X0.0002*%
%ADD447R,0.0334X0.0002*%
%ADD448R,0.0338X0.0002*%
%ADD449R,0.0016X0.0002*%
%ADD450R,0.0344X0.0002*%
%ADD451R,0.0348X0.0002*%
%ADD452R,0.0016X0.0002*%
%ADD453R,0.0024X0.0002*%
%ADD454R,0.0350X0.0002*%
%ADD455R,0.0352X0.0002*%
%ADD456R,0.0372X0.0002*%
%ADD457R,0.0024X0.0002*%
%ADD458R,0.0014X0.0002*%
%ADD459R,0.0378X0.0002*%
%ADD460R,0.0358X0.0002*%
%ADD461R,0.0014X0.0002*%
%ADD462R,0.0386X0.0002*%
%ADD463R,0.0362X0.0002*%
%ADD464R,0.0364X0.0002*%
%ADD465R,0.0368X0.0002*%
%ADD466R,0.0402X0.0002*%
%ADD467R,0.0368X0.0002*%
%ADD468R,0.0012X0.0002*%
%ADD469R,0.0014X0.0002*%
%ADD470R,0.0414X0.0002*%
%ADD471R,0.0374X0.0002*%
%ADD472R,0.0420X0.0002*%
%ADD473R,0.0376X0.0002*%
%ADD474R,0.0422X0.0002*%
%ADD475R,0.0428X0.0002*%
%ADD476R,0.0380X0.0002*%
%ADD477R,0.0012X0.0002*%
%ADD478R,0.0434X0.0002*%
%ADD479R,0.0382X0.0002*%
%ADD480R,0.0044X0.0002*%
%ADD481R,0.0012X0.0002*%
%ADD482R,0.0012X0.0002*%
%ADD483R,0.0450X0.0002*%
%ADD484R,0.0390X0.0002*%
%ADD485R,0.0454X0.0002*%
%ADD486R,0.0390X0.0002*%
%ADD487R,0.0464X0.0002*%
%ADD488R,0.0396X0.0002*%
%ADD489R,0.0468X0.0002*%
%ADD490R,0.0396X0.0002*%
%ADD491R,0.0474X0.0002*%
%ADD492R,0.0400X0.0002*%
%ADD493R,0.0478X0.0002*%
%ADD494R,0.0400X0.0002*%
%ADD495R,0.0488X0.0002*%
%ADD496R,0.0004X0.0002*%
%ADD497R,0.0498X0.0002*%
%ADD498R,0.0410X0.0002*%
%ADD499R,0.0502X0.0002*%
%ADD500R,0.0410X0.0002*%
%ADD501R,0.0508X0.0002*%
%ADD502R,0.0412X0.0002*%
%ADD503R,0.0512X0.0002*%
%ADD504R,0.0518X0.0002*%
%ADD505R,0.0522X0.0002*%
%ADD506R,0.0418X0.0002*%
%ADD507R,0.0528X0.0002*%
%ADD508R,0.0540X0.0002*%
%ADD509R,0.0424X0.0002*%
%ADD510R,0.0544X0.0002*%
%ADD511R,0.0550X0.0002*%
%ADD512R,0.0428X0.0002*%
%ADD513R,0.0432X0.0002*%
%ADD514R,0.0564X0.0002*%
%ADD515R,0.0568X0.0002*%
%ADD516R,0.0436X0.0002*%
%ADD517R,0.0572X0.0002*%
%ADD518R,0.0436X0.0002*%
%ADD519R,0.0576X0.0002*%
%ADD520R,0.0582X0.0002*%
%ADD521R,0.0440X0.0002*%
%ADD522R,0.0586X0.0002*%
%ADD523R,0.0440X0.0002*%
%ADD524R,0.0590X0.0002*%
%ADD525R,0.0442X0.0002*%
%ADD526R,0.0444X0.0002*%
%ADD527R,0.0598X0.0002*%
%ADD528R,0.0604X0.0002*%
%ADD529R,0.0608X0.0002*%
%ADD530R,0.0448X0.0002*%
%ADD531R,0.0612X0.0002*%
%ADD532R,0.0618X0.0002*%
%ADD533R,0.0452X0.0002*%
%ADD534R,0.0622X0.0002*%
%ADD535R,0.0452X0.0002*%
%ADD536R,0.0630X0.0002*%
%ADD537R,0.0454X0.0002*%
%ADD538R,0.0638X0.0002*%
%ADD539R,0.0458X0.0002*%
%ADD540R,0.0642X0.0002*%
%ADD541R,0.0648X0.0002*%
%ADD542R,0.0462X0.0002*%
%ADD543R,0.0652X0.0002*%
%ADD544R,0.0462X0.0002*%
%ADD545R,0.0464X0.0002*%
%ADD546R,0.0660X0.0002*%
%ADD547R,0.0464X0.0002*%
%ADD548R,0.0664X0.0002*%
%ADD549R,0.0466X0.0002*%
%ADD550R,0.0468X0.0002*%
%ADD551R,0.0014X0.0002*%
%ADD552R,0.0672X0.0002*%
%ADD553R,0.0676X0.0002*%
%ADD554R,0.0470X0.0002*%
%ADD555R,0.0682X0.0002*%
%ADD556R,0.0472X0.0002*%
%ADD557R,0.0472X0.0002*%
%ADD558R,0.0694X0.0002*%
%ADD559R,0.0696X0.0002*%
%ADD560R,0.0476X0.0002*%
%ADD561R,0.0702X0.0002*%
%ADD562R,0.0706X0.0002*%
%ADD563R,0.0478X0.0002*%
%ADD564R,0.0710X0.0002*%
%ADD565R,0.0480X0.0002*%
%ADD566R,0.0714X0.0002*%
%ADD567R,0.0480X0.0002*%
%ADD568R,0.0718X0.0002*%
%ADD569R,0.0724X0.0002*%
%ADD570R,0.0484X0.0002*%
%ADD571R,0.0726X0.0002*%
%ADD572R,0.0486X0.0002*%
%ADD573R,0.0734X0.0002*%
%ADD574R,0.0486X0.0002*%
%ADD575R,0.0738X0.0002*%
%ADD576R,0.0742X0.0002*%
%ADD577R,0.0746X0.0002*%
%ADD578R,0.0488X0.0002*%
%ADD579R,0.0752X0.0002*%
%ADD580R,0.0492X0.0002*%
%ADD581R,0.0756X0.0002*%
%ADD582R,0.0492X0.0002*%
%ADD583R,0.0758X0.0002*%
%ADD584R,0.0762X0.0002*%
%ADD585R,0.0494X0.0002*%
%ADD586R,0.0766X0.0002*%
%ADD587R,0.0770X0.0002*%
%ADD588R,0.0496X0.0002*%
%ADD589R,0.0774X0.0002*%
%ADD590R,0.0496X0.0002*%
%ADD591R,0.0778X0.0002*%
%ADD592R,0.0782X0.0002*%
%ADD593R,0.0498X0.0002*%
%ADD594R,0.0786X0.0002*%
%ADD595R,0.0790X0.0002*%
%ADD596R,0.0794X0.0002*%
%ADD597R,0.0502X0.0002*%
%ADD598R,0.0798X0.0002*%
%ADD599R,0.0502X0.0002*%
%ADD600R,0.0802X0.0002*%
%ADD601R,0.0504X0.0002*%
%ADD602R,0.0806X0.0002*%
%ADD603R,0.0504X0.0002*%
%ADD604R,0.0810X0.0002*%
%ADD605R,0.0814X0.0002*%
%ADD606R,0.0506X0.0002*%
%ADD607R,0.0816X0.0002*%
%ADD608R,0.0820X0.0002*%
%ADD609R,0.0508X0.0002*%
%ADD610R,0.0824X0.0002*%
%ADD611R,0.0828X0.0002*%
%ADD612R,0.0510X0.0002*%
%ADD613R,0.0832X0.0002*%
%ADD614R,0.0510X0.0002*%
%ADD615R,0.0836X0.0002*%
%ADD616R,0.0844X0.0002*%
%ADD617R,0.0512X0.0002*%
%ADD618R,0.0846X0.0002*%
%ADD619R,0.0514X0.0002*%
%ADD620R,0.0850X0.0002*%
%ADD621R,0.0514X0.0002*%
%ADD622R,0.0854X0.0002*%
%ADD623R,0.0858X0.0002*%
%ADD624R,0.0516X0.0002*%
%ADD625R,0.0862X0.0002*%
%ADD626R,0.0516X0.0002*%
%ADD627R,0.0866X0.0002*%
%ADD628R,0.0518X0.0002*%
%ADD629R,0.0870X0.0002*%
%ADD630R,0.0872X0.0002*%
%ADD631R,0.0876X0.0002*%
%ADD632R,0.0520X0.0002*%
%ADD633R,0.0880X0.0002*%
%ADD634R,0.0520X0.0002*%
%ADD635R,0.0884X0.0002*%
%ADD636R,0.0888X0.0002*%
%ADD637R,0.0522X0.0002*%
%ADD638R,0.0892X0.0002*%
%ADD639R,0.0896X0.0002*%
%ADD640R,0.0524X0.0002*%
%ADD641R,0.0900X0.0002*%
%ADD642R,0.0524X0.0002*%
%ADD643R,0.0902X0.0002*%
%ADD644R,0.0526X0.0002*%
%ADD645R,0.0906X0.0002*%
%ADD646R,0.0526X0.0002*%
%ADD647R,0.0910X0.0002*%
%ADD648R,0.0914X0.0002*%
%ADD649R,0.0918X0.0002*%
%ADD650R,0.0920X0.0002*%
%ADD651R,0.0924X0.0002*%
%ADD652R,0.0926X0.0002*%
%ADD653R,0.0930X0.0002*%
%ADD654R,0.0934X0.0002*%
%ADD655R,0.0938X0.0002*%
%ADD656R,0.0532X0.0002*%
%ADD657R,0.0942X0.0002*%
%ADD658R,0.0946X0.0002*%
%ADD659R,0.0950X0.0002*%
%ADD660R,0.0954X0.0002*%
%ADD661R,0.0956X0.0002*%
%ADD662R,0.0958X0.0002*%
%ADD663R,0.0962X0.0002*%
%ADD664R,0.0966X0.0002*%
%ADD665R,0.0536X0.0002*%
%ADD666R,0.0970X0.0002*%
%ADD667R,0.0536X0.0002*%
%ADD668R,0.0974X0.0002*%
%ADD669R,0.0538X0.0002*%
%ADD670R,0.0978X0.0002*%
%ADD671R,0.0980X0.0002*%
%ADD672R,0.0984X0.0002*%
%ADD673R,0.0540X0.0002*%
%ADD674R,0.0986X0.0002*%
%ADD675R,0.0990X0.0002*%
%ADD676R,0.0994X0.0002*%
%ADD677R,0.0998X0.0002*%
%ADD678R,0.1002X0.0002*%
%ADD679R,0.0542X0.0002*%
%ADD680R,0.1006X0.0002*%
%ADD681R,0.0542X0.0002*%
%ADD682R,0.1006X0.0002*%
%ADD683R,0.1010X0.0002*%
%ADD684R,0.0542X0.0002*%
%ADD685R,0.1014X0.0002*%
%ADD686R,0.1018X0.0002*%
%ADD687R,0.0544X0.0002*%
%ADD688R,0.1022X0.0002*%
%ADD689R,0.1026X0.0002*%
%ADD690R,0.1028X0.0002*%
%ADD691R,0.1030X0.0002*%
%ADD692R,0.1034X0.0002*%
%ADD693R,0.1038X0.0002*%
%ADD694R,0.0546X0.0002*%
%ADD695R,0.1042X0.0002*%
%ADD696R,0.1044X0.0002*%
%ADD697R,0.1048X0.0002*%
%ADD698R,0.1052X0.0002*%
%ADD699R,0.1056X0.0002*%
%ADD700R,0.0548X0.0002*%
%ADD701R,0.1058X0.0002*%
%ADD702R,0.1060X0.0002*%
%ADD703R,0.1064X0.0002*%
%ADD704R,0.1068X0.0002*%
%ADD705R,0.1072X0.0002*%
%ADD706R,0.0550X0.0002*%
%ADD707R,0.1074X0.0002*%
%ADD708R,0.1078X0.0002*%
%ADD709R,0.1082X0.0002*%
%ADD710R,0.1084X0.0002*%
%ADD711R,0.0552X0.0002*%
%ADD712R,0.1086X0.0002*%
%ADD713R,0.1090X0.0002*%
%ADD714R,0.1094X0.0002*%
%ADD715R,0.0552X0.0002*%
%ADD716R,0.1098X0.0002*%
%ADD717R,0.0552X0.0002*%
%ADD718R,0.1100X0.0002*%
%ADD719R,0.1104X0.0002*%
%ADD720R,0.1108X0.0002*%
%ADD721R,0.1112X0.0002*%
%ADD722R,0.0554X0.0002*%
%ADD723R,0.1114X0.0002*%
%ADD724R,0.1116X0.0002*%
%ADD725R,0.0554X0.0002*%
%ADD726R,0.1120X0.0002*%
%ADD727R,0.1124X0.0002*%
%ADD728R,0.1126X0.0002*%
%ADD729R,0.1130X0.0002*%
%ADD730R,0.1134X0.0002*%
%ADD731R,0.0556X0.0002*%
%ADD732R,0.1136X0.0002*%
%ADD733R,0.1140X0.0002*%
%ADD734R,0.1144X0.0002*%
%ADD735R,0.0556X0.0002*%
%ADD736R,0.1148X0.0002*%
%ADD737R,0.1148X0.0002*%
%ADD738R,0.1152X0.0002*%
%ADD739R,0.1156X0.0002*%
%ADD740R,0.1158X0.0002*%
%ADD741R,0.1162X0.0002*%
%ADD742R,0.1166X0.0002*%
%ADD743R,0.0558X0.0002*%
%ADD744R,0.1168X0.0002*%
%ADD745R,0.1172X0.0002*%
%ADD746R,0.1176X0.0002*%
%ADD747R,0.0558X0.0002*%
%ADD748R,0.1180X0.0002*%
%ADD749R,0.1184X0.0002*%
%ADD750R,0.1186X0.0002*%
%ADD751R,0.1190X0.0002*%
%ADD752R,0.1194X0.0002*%
%ADD753R,0.1196X0.0002*%
%ADD754R,0.1200X0.0002*%
%ADD755R,0.1204X0.0002*%
%ADD756R,0.1206X0.0002*%
%ADD757R,0.1208X0.0002*%
%ADD758R,0.1212X0.0002*%
%ADD759R,0.1214X0.0002*%
%ADD760R,0.1218X0.0002*%
%ADD761R,0.1222X0.0002*%
%ADD762R,0.0560X0.0002*%
%ADD763R,0.1224X0.0002*%
%ADD764R,0.1228X0.0002*%
%ADD765R,0.1232X0.0002*%
%ADD766R,0.1234X0.0002*%
%ADD767R,0.1238X0.0002*%
%ADD768R,0.1240X0.0002*%
%ADD769R,0.1244X0.0002*%
%ADD770R,0.1246X0.0002*%
%ADD771R,0.1248X0.0002*%
%ADD772R,0.1252X0.0002*%
%ADD773R,0.1256X0.0002*%
%ADD774R,0.1258X0.0002*%
%ADD775R,0.1262X0.0002*%
%ADD776R,0.1264X0.0002*%
%ADD777R,0.1268X0.0002*%
%ADD778R,0.1272X0.0002*%
%ADD779R,0.1274X0.0002*%
%ADD780R,0.1278X0.0002*%
%ADD781R,0.1280X0.0002*%
%ADD782R,0.1284X0.0002*%
%ADD783R,0.1286X0.0002*%
%ADD784R,0.1288X0.0002*%
%ADD785R,0.1292X0.0002*%
%ADD786R,0.1294X0.0002*%
%ADD787R,0.1298X0.0002*%
%ADD788R,0.1300X0.0002*%
%ADD789R,0.1304X0.0002*%
%ADD790R,0.1308X0.0002*%
%ADD791R,0.1310X0.0002*%
%ADD792R,0.1314X0.0002*%
%ADD793R,0.1316X0.0002*%
%ADD794R,0.1320X0.0002*%
%ADD795R,0.1322X0.0002*%
%ADD796R,0.1326X0.0002*%
%ADD797R,0.1326X0.0002*%
%ADD798R,0.1330X0.0002*%
%ADD799R,0.1334X0.0002*%
%ADD800R,0.1336X0.0002*%
%ADD801R,0.1340X0.0002*%
%ADD802R,0.1342X0.0002*%
%ADD803R,0.1346X0.0002*%
%ADD804R,0.1348X0.0002*%
%ADD805R,0.1352X0.0002*%
%ADD806R,0.1354X0.0002*%
%ADD807R,0.1358X0.0002*%
%ADD808R,0.1360X0.0002*%
%ADD809R,0.1364X0.0002*%
%ADD810R,0.1366X0.0002*%
%ADD811R,0.1368X0.0002*%
%ADD812R,0.1370X0.0002*%
%ADD813R,0.1374X0.0002*%
%ADD814R,0.1378X0.0002*%
%ADD815R,0.1380X0.0002*%
%ADD816R,0.1384X0.0002*%
%ADD817R,0.1386X0.0002*%
%ADD818R,0.1390X0.0002*%
%ADD819R,0.1392X0.0002*%
%ADD820R,0.1396X0.0002*%
%ADD821R,0.1398X0.0002*%
%ADD822R,0.1402X0.0002*%
%ADD823R,0.1404X0.0002*%
%ADD824R,0.1408X0.0002*%
%ADD825R,0.1408X0.0002*%
%ADD826R,0.1412X0.0002*%
%ADD827R,0.0554X0.0002*%
%ADD828R,0.1414X0.0002*%
%ADD829R,0.1416X0.0002*%
%ADD830R,0.1420X0.0002*%
%ADD831R,0.0552X0.0002*%
%ADD832R,0.1422X0.0002*%
%ADD833R,0.1426X0.0002*%
%ADD834R,0.1428X0.0002*%
%ADD835R,0.1432X0.0002*%
%ADD836R,0.1434X0.0002*%
%ADD837R,0.1438X0.0002*%
%ADD838R,0.1440X0.0002*%
%ADD839R,0.1444X0.0002*%
%ADD840R,0.1448X0.0002*%
%ADD841R,0.1450X0.0002*%
%ADD842R,0.1454X0.0002*%
%ADD843R,0.1456X0.0002*%
%ADD844R,0.1460X0.0002*%
%ADD845R,0.1462X0.0002*%
%ADD846R,0.1464X0.0002*%
%ADD847R,0.1468X0.0002*%
%ADD848R,0.1470X0.0002*%
%ADD849R,0.1474X0.0002*%
%ADD850R,0.1476X0.0002*%
%ADD851R,0.1480X0.0002*%
%ADD852R,0.1482X0.0002*%
%ADD853R,0.1484X0.0002*%
%ADD854R,0.1486X0.0002*%
%ADD855R,0.1488X0.0002*%
%ADD856R,0.1492X0.0002*%
%ADD857R,0.1494X0.0002*%
%ADD858R,0.1498X0.0002*%
%ADD859R,0.1500X0.0002*%
%ADD860R,0.1502X0.0002*%
%ADD861R,0.1506X0.0002*%
%ADD862R,0.1508X0.0002*%
%ADD863R,0.1512X0.0002*%
%ADD864R,0.1514X0.0002*%
%ADD865R,0.1518X0.0002*%
%ADD866R,0.1518X0.0002*%
%ADD867R,0.1520X0.0002*%
%ADD868R,0.1524X0.0002*%
%ADD869R,0.1526X0.0002*%
%ADD870R,0.1530X0.0002*%
%ADD871R,0.1532X0.0002*%
%ADD872R,0.1534X0.0002*%
%ADD873R,0.1538X0.0002*%
%ADD874R,0.1540X0.0002*%
%ADD875R,0.1544X0.0002*%
%ADD876R,0.1546X0.0002*%
%ADD877R,0.1548X0.0002*%
%ADD878R,0.1552X0.0002*%
%ADD879R,0.1554X0.0002*%
%ADD880R,0.1556X0.0002*%
%ADD881R,0.1558X0.0002*%
%ADD882R,0.1560X0.0002*%
%ADD883R,0.1564X0.0002*%
%ADD884R,0.1566X0.0002*%
%ADD885R,0.1568X0.0002*%
%ADD886R,0.0532X0.0002*%
%ADD887R,0.1572X0.0002*%
%ADD888R,0.0534X0.0002*%
%ADD889R,0.1574X0.0002*%
%ADD890R,0.1576X0.0002*%
%ADD891R,0.1580X0.0002*%
%ADD892R,0.0532X0.0002*%
%ADD893R,0.1582X0.0002*%
%ADD894R,0.1586X0.0002*%
%ADD895R,0.1588X0.0002*%
%ADD896R,0.1590X0.0002*%
%ADD897R,0.1592X0.0002*%
%ADD898R,0.1594X0.0002*%
%ADD899R,0.1596X0.0002*%
%ADD900R,0.1600X0.0002*%
%ADD901R,0.1602X0.0002*%
%ADD902R,0.1604X0.0002*%
%ADD903R,0.1608X0.0002*%
%ADD904R,0.1610X0.0002*%
%ADD905R,0.0524X0.0002*%
%ADD906R,0.1612X0.0002*%
%ADD907R,0.1616X0.0002*%
%ADD908R,0.1618X0.0002*%
%ADD909R,0.1620X0.0002*%
%ADD910R,0.1624X0.0002*%
%ADD911R,0.1624X0.0002*%
%ADD912R,0.1626X0.0002*%
%ADD913R,0.1630X0.0002*%
%ADD914R,0.1632X0.0002*%
%ADD915R,0.1634X0.0002*%
%ADD916R,0.1640X0.0002*%
%ADD917R,0.1642X0.0002*%
%ADD918R,0.1646X0.0002*%
%ADD919R,0.0514X0.0002*%
%ADD920R,0.1648X0.0002*%
%ADD921R,0.1650X0.0002*%
%ADD922R,0.1654X0.0002*%
%ADD923R,0.1656X0.0002*%
%ADD924R,0.1658X0.0002*%
%ADD925R,0.1660X0.0002*%
%ADD926R,0.1662X0.0002*%
%ADD927R,0.1664X0.0002*%
%ADD928R,0.1666X0.0002*%
%ADD929R,0.1670X0.0002*%
%ADD930R,0.1672X0.0002*%
%ADD931R,0.1674X0.0002*%
%ADD932R,0.1678X0.0002*%
%ADD933R,0.1680X0.0002*%
%ADD934R,0.1682X0.0002*%
%ADD935R,0.1686X0.0002*%
%ADD936R,0.1688X0.0002*%
%ADD937R,0.1690X0.0002*%
%ADD938R,0.0500X0.0002*%
%ADD939R,0.1692X0.0002*%
%ADD940R,0.1694X0.0002*%
%ADD941R,0.0500X0.0002*%
%ADD942R,0.1696X0.0002*%
%ADD943R,0.1698X0.0002*%
%ADD944R,0.1702X0.0002*%
%ADD945R,0.1704X0.0002*%
%ADD946R,0.1706X0.0002*%
%ADD947R,0.1708X0.0002*%
%ADD948R,0.1712X0.0002*%
%ADD949R,0.1714X0.0002*%
%ADD950R,0.0492X0.0002*%
%ADD951R,0.1716X0.0002*%
%ADD952R,0.1716X0.0002*%
%ADD953R,0.0490X0.0002*%
%ADD954R,0.1720X0.0002*%
%ADD955R,0.0490X0.0002*%
%ADD956R,0.1720X0.0002*%
%ADD957R,0.1722X0.0002*%
%ADD958R,0.1724X0.0002*%
%ADD959R,0.1726X0.0002*%
%ADD960R,0.1726X0.0002*%
%ADD961R,0.1728X0.0002*%
%ADD962R,0.0482X0.0002*%
%ADD963R,0.1730X0.0002*%
%ADD964R,0.1732X0.0002*%
%ADD965R,0.0482X0.0002*%
%ADD966R,0.1732X0.0002*%
%ADD967R,0.1736X0.0002*%
%ADD968R,0.1738X0.0002*%
%ADD969R,0.1738X0.0002*%
%ADD970R,0.1742X0.0002*%
%ADD971R,0.0476X0.0002*%
%ADD972R,0.1742X0.0002*%
%ADD973R,0.1744X0.0002*%
%ADD974R,0.1744X0.0002*%
%ADD975R,0.1746X0.0002*%
%ADD976R,0.1748X0.0002*%
%ADD977R,0.0472X0.0002*%
%ADD978R,0.1748X0.0002*%
%ADD979R,0.1750X0.0002*%
%ADD980R,0.1750X0.0002*%
%ADD981R,0.1754X0.0002*%
%ADD982R,0.1754X0.0002*%
%ADD983R,0.0466X0.0002*%
%ADD984R,0.1756X0.0002*%
%ADD985R,0.1758X0.0002*%
%ADD986R,0.1760X0.0002*%
%ADD987R,0.1760X0.0002*%
%ADD988R,0.1762X0.0002*%
%ADD989R,0.0460X0.0002*%
%ADD990R,0.1766X0.0002*%
%ADD991R,0.1766X0.0002*%
%ADD992R,0.1768X0.0002*%
%ADD993R,0.1768X0.0002*%
%ADD994R,0.0456X0.0002*%
%ADD995R,0.1772X0.0002*%
%ADD996R,0.1772X0.0002*%
%ADD997R,0.1774X0.0002*%
%ADD998R,0.0452X0.0002*%
%ADD999R,0.1774X0.0002*%
%ADD1000R,0.1776X0.0002*%
%ADD1001R,0.1778X0.0002*%
%ADD1002R,0.0450X0.0002*%
%ADD1003R,0.1780X0.0002*%
%ADD1004R,0.1780X0.0002*%
%ADD1005R,0.1782X0.0002*%
%ADD1006R,0.1784X0.0002*%
%ADD1007R,0.1786X0.0002*%
%ADD1008R,0.0444X0.0002*%
%ADD1009R,0.1786X0.0002*%
%ADD1010R,0.0442X0.0002*%
%ADD1011R,0.1788X0.0002*%
%ADD1012R,0.1790X0.0002*%
%ADD1013R,0.1792X0.0002*%
%ADD1014R,0.1792X0.0002*%
%ADD1015R,0.1794X0.0002*%
%ADD1016R,0.1796X0.0002*%
%ADD1017R,0.0434X0.0002*%
%ADD1018R,0.1796X0.0002*%
%ADD1019R,0.0432X0.0002*%
%ADD1020R,0.1800X0.0002*%
%ADD1021R,0.0432X0.0002*%
%ADD1022R,0.1800X0.0002*%
%ADD1023R,0.1802X0.0002*%
%ADD1024R,0.0430X0.0002*%
%ADD1025R,0.1802X0.0002*%
%ADD1026R,0.1804X0.0002*%
%ADD1027R,0.0426X0.0002*%
%ADD1028R,0.1806X0.0002*%
%ADD1029R,0.1808X0.0002*%
%ADD1030R,0.1808X0.0002*%
%ADD1031R,0.1810X0.0002*%
%ADD1032R,0.1810X0.0002*%
%ADD1033R,0.1812X0.0002*%
%ADD1034R,0.1814X0.0002*%
%ADD1035R,0.0420X0.0002*%
%ADD1036R,0.1816X0.0002*%
%ADD1037R,0.1816X0.0002*%
%ADD1038R,0.0416X0.0002*%
%ADD1039R,0.1818X0.0002*%
%ADD1040R,0.0414X0.0002*%
%ADD1041R,0.1820X0.0002*%
%ADD1042R,0.1820X0.0002*%
%ADD1043R,0.1822X0.0002*%
%ADD1044R,0.1824X0.0002*%
%ADD1045R,0.1826X0.0002*%
%ADD1046R,0.0408X0.0002*%
%ADD1047R,0.1826X0.0002*%
%ADD1048R,0.1828X0.0002*%
%ADD1049R,0.0404X0.0002*%
%ADD1050R,0.1828X0.0002*%
%ADD1051R,0.0404X0.0002*%
%ADD1052R,0.1830X0.0002*%
%ADD1053R,0.1830X0.0002*%
%ADD1054R,0.1834X0.0002*%
%ADD1055R,0.0402X0.0002*%
%ADD1056R,0.1834X0.0002*%
%ADD1057R,0.1836X0.0002*%
%ADD1058R,0.1836X0.0002*%
%ADD1059R,0.1838X0.0002*%
%ADD1060R,0.1838X0.0002*%
%ADD1061R,0.0394X0.0002*%
%ADD1062R,0.1840X0.0002*%
%ADD1063R,0.1844X0.0002*%
%ADD1064R,0.1844X0.0002*%
%ADD1065R,0.1846X0.0002*%
%ADD1066R,0.1848X0.0002*%
%ADD1067R,0.1848X0.0002*%
%ADD1068R,0.0382X0.0002*%
%ADD1069R,0.1850X0.0002*%
%ADD1070R,0.0382X0.0002*%
%ADD1071R,0.1850X0.0002*%
%ADD1072R,0.1852X0.0002*%
%ADD1073R,0.1852X0.0002*%
%ADD1074R,0.1854X0.0002*%
%ADD1075R,0.1856X0.0002*%
%ADD1076R,0.1856X0.0002*%
%ADD1077R,0.1858X0.0002*%
%ADD1078R,0.1858X0.0002*%
%ADD1079R,0.0372X0.0002*%
%ADD1080R,0.1860X0.0002*%
%ADD1081R,0.0372X0.0002*%
%ADD1082R,0.1860X0.0002*%
%ADD1083R,0.0370X0.0002*%
%ADD1084R,0.1862X0.0002*%
%ADD1085R,0.1862X0.0002*%
%ADD1086R,0.1864X0.0002*%
%ADD1087R,0.1864X0.0002*%
%ADD1088R,0.1866X0.0002*%
%ADD1089R,0.0362X0.0002*%
%ADD1090R,0.1868X0.0002*%
%ADD1091R,0.0362X0.0002*%
%ADD1092R,0.1870X0.0002*%
%ADD1093R,0.1870X0.0002*%
%ADD1094R,0.1872X0.0002*%
%ADD1095R,0.1872X0.0002*%
%ADD1096R,0.1874X0.0002*%
%ADD1097R,0.1874X0.0002*%
%ADD1098R,0.0352X0.0002*%
%ADD1099R,0.1876X0.0002*%
%ADD1100R,0.0352X0.0002*%
%ADD1101R,0.1876X0.0002*%
%ADD1102R,0.1878X0.0002*%
%ADD1103R,0.1878X0.0002*%
%ADD1104R,0.1880X0.0002*%
%ADD1105R,0.1880X0.0002*%
%ADD1106R,0.1882X0.0002*%
%ADD1107R,0.0342X0.0002*%
%ADD1108R,0.1882X0.0002*%
%ADD1109R,0.1884X0.0002*%
%ADD1110R,0.1884X0.0002*%
%ADD1111R,0.1886X0.0002*%
%ADD1112R,0.0334X0.0002*%
%ADD1113R,0.1888X0.0002*%
%ADD1114R,0.1890X0.0002*%
%ADD1115R,0.1890X0.0002*%
%ADD1116R,0.1892X0.0002*%
%ADD1117R,0.1894X0.0002*%
%ADD1118R,0.1894X0.0002*%
%ADD1119R,0.1896X0.0002*%
%ADD1120R,0.1896X0.0002*%
%ADD1121R,0.0324X0.0002*%
%ADD1122R,0.1898X0.0002*%
%ADD1123R,0.1898X0.0002*%
%ADD1124R,0.1900X0.0002*%
%ADD1125R,0.1900X0.0002*%
%ADD1126R,0.1902X0.0002*%
%ADD1127R,0.1902X0.0002*%
%ADD1128R,0.0314X0.0002*%
%ADD1129R,0.1904X0.0002*%
%ADD1130R,0.0314X0.0002*%
%ADD1131R,0.1904X0.0002*%
%ADD1132R,0.1906X0.0002*%
%ADD1133R,0.1906X0.0002*%
%ADD1134R,0.0308X0.0002*%
%ADD1135R,0.1908X0.0002*%
%ADD1136R,0.1908X0.0002*%
%ADD1137R,0.0306X0.0002*%
%ADD1138R,0.1910X0.0002*%
%ADD1139R,0.0302X0.0002*%
%ADD1140R,0.1912X0.0002*%
%ADD1141R,0.1912X0.0002*%
%ADD1142R,0.1914X0.0002*%
%ADD1143R,0.1914X0.0002*%
%ADD1144R,0.1916X0.0002*%
%ADD1145R,0.0294X0.0002*%
%ADD1146R,0.1916X0.0002*%
%ADD1147R,0.0294X0.0002*%
%ADD1148R,0.1918X0.0002*%
%ADD1149R,0.0292X0.0002*%
%ADD1150R,0.1918X0.0002*%
%ADD1151R,0.1920X0.0002*%
%ADD1152R,0.1920X0.0002*%
%ADD1153R,0.1922X0.0002*%
%ADD1154R,0.0286X0.0002*%
%ADD1155R,0.1922X0.0002*%
%ADD1156R,0.0284X0.0002*%
%ADD1157R,0.1922X0.0002*%
%ADD1158R,0.1922X0.0002*%
%ADD1159R,0.1924X0.0002*%
%ADD1160R,0.0278X0.0002*%
%ADD1161R,0.1924X0.0002*%
%ADD1162R,0.1926X0.0002*%
%ADD1163R,0.1928X0.0002*%
%ADD1164R,0.0272X0.0002*%
%ADD1165R,0.1928X0.0002*%
%ADD1166R,0.1930X0.0002*%
%ADD1167R,0.1932X0.0002*%
%ADD1168R,0.0266X0.0002*%
%ADD1169R,0.1932X0.0002*%
%ADD1170R,0.0264X0.0002*%
%ADD1171R,0.1934X0.0002*%
%ADD1172R,0.1934X0.0002*%
%ADD1173R,0.1936X0.0002*%
%ADD1174R,0.1936X0.0002*%
%ADD1175R,0.0258X0.0002*%
%ADD1176R,0.1938X0.0002*%
%ADD1177R,0.1938X0.0002*%
%ADD1178R,0.0254X0.0002*%
%ADD1179R,0.1940X0.0002*%
%ADD1180R,0.1940X0.0002*%
%ADD1181R,0.0252X0.0002*%
%ADD1182R,0.1942X0.0002*%
%ADD1183R,0.1942X0.0002*%
%ADD1184R,0.0242X0.0002*%
%ADD1185R,0.1944X0.0002*%
%ADD1186R,0.1944X0.0002*%
%ADD1187R,0.1946X0.0002*%
%ADD1188R,0.1948X0.0002*%
%ADD1189R,0.1948X0.0002*%
%ADD1190R,0.0234X0.0002*%
%ADD1191R,0.1950X0.0002*%
%ADD1192R,0.0232X0.0002*%
%ADD1193R,0.1950X0.0002*%
%ADD1194R,0.0232X0.0002*%
%ADD1195R,0.1952X0.0002*%
%ADD1196R,0.1952X0.0002*%
%ADD1197R,0.0222X0.0002*%
%ADD1198R,0.1954X0.0002*%
%ADD1199R,0.1954X0.0002*%
%ADD1200R,0.1956X0.0002*%
%ADD1201R,0.0218X0.0002*%
%ADD1202R,0.1956X0.0002*%
%ADD1203R,0.1958X0.0002*%
%ADD1204R,0.0212X0.0002*%
%ADD1205R,0.1958X0.0002*%
%ADD1206R,0.0208X0.0002*%
%ADD1207R,0.1960X0.0002*%
%ADD1208R,0.1962X0.0002*%
%ADD1209R,0.0204X0.0002*%
%ADD1210R,0.1962X0.0002*%
%ADD1211R,0.0202X0.0002*%
%ADD1212R,0.1964X0.0002*%
%ADD1213R,0.0200X0.0002*%
%ADD1214R,0.1964X0.0002*%
%ADD1215R,0.1964X0.0002*%
%ADD1216R,0.1966X0.0002*%
%ADD1217R,0.0192X0.0002*%
%ADD1218R,0.1966X0.0002*%
%ADD1219R,0.1968X0.0002*%
%ADD1220R,0.0190X0.0002*%
%ADD1221R,0.1968X0.0002*%
%ADD1222R,0.0188X0.0002*%
%ADD1223R,0.1970X0.0002*%
%ADD1224R,0.1970X0.0002*%
%ADD1225R,0.1972X0.0002*%
%ADD1226R,0.1972X0.0002*%
%ADD1227R,0.1974X0.0002*%
%ADD1228R,0.1972X0.0002*%
%ADD1229R,0.0172X0.0002*%
%ADD1230R,0.1974X0.0002*%
%ADD1231R,0.1976X0.0002*%
%ADD1232R,0.1978X0.0002*%
%ADD1233R,0.1978X0.0002*%
%ADD1234R,0.0162X0.0002*%
%ADD1235R,0.0160X0.0002*%
%ADD1236R,0.0158X0.0002*%
%ADD1237R,0.1980X0.0002*%
%ADD1238R,0.0156X0.0002*%
%ADD1239R,0.1980X0.0002*%
%ADD1240R,0.0154X0.0002*%
%ADD1241R,0.1982X0.0002*%
%ADD1242R,0.0152X0.0002*%
%ADD1243R,0.1982X0.0002*%
%ADD1244R,0.0148X0.0002*%
%ADD1245R,0.1982X0.0002*%
%ADD1246R,0.0146X0.0002*%
%ADD1247R,0.1984X0.0002*%
%ADD1248R,0.1984X0.0002*%
%ADD1249R,0.1984X0.0002*%
%ADD1250R,0.1984X0.0002*%
%ADD1251R,0.1986X0.0002*%
%ADD1252R,0.0136X0.0002*%
%ADD1253R,0.1986X0.0002*%
%ADD1254R,0.0134X0.0002*%
%ADD1255R,0.1988X0.0002*%
%ADD1256R,0.0134X0.0002*%
%ADD1257R,0.1988X0.0002*%
%ADD1258R,0.1990X0.0002*%
%ADD1259R,0.1990X0.0002*%
%ADD1260R,0.1992X0.0002*%
%ADD1261R,0.1992X0.0002*%
%ADD1262R,0.1994X0.0002*%
%ADD1263R,0.1992X0.0002*%
%ADD1264R,0.0112X0.0002*%
%ADD1265R,0.1992X0.0002*%
%ADD1266R,0.1994X0.0002*%
%ADD1267R,0.1996X0.0002*%
%ADD1268R,0.1994X0.0002*%
%ADD1269R,0.0102X0.0002*%
%ADD1270R,0.1996X0.0002*%
%ADD1271R,0.0100X0.0002*%
%ADD1272R,0.1998X0.0002*%
%ADD1273R,0.0096X0.0002*%
%ADD1274R,0.1998X0.0002*%
%ADD1275R,0.2000X0.0002*%
%ADD1276R,0.2000X0.0002*%
%ADD1277R,0.0084X0.0002*%
%ADD1278R,0.2002X0.0002*%
%ADD1279R,0.2002X0.0002*%
%ADD1280R,0.2002X0.0002*%
%ADD1281R,0.2002X0.0002*%
%ADD1282R,0.2004X0.0002*%
%ADD1283R,0.2004X0.0002*%
%ADD1284R,0.2006X0.0002*%
%ADD1285R,0.2004X0.0002*%
%ADD1286R,0.2004X0.0002*%
%ADD1287R,0.2006X0.0002*%
%ADD1288R,0.2008X0.0002*%
%ADD1289R,0.2008X0.0002*%
%ADD1290R,0.2010X0.0002*%
%ADD1291R,0.2010X0.0002*%
%ADD1292R,0.2012X0.0002*%
%ADD1293R,0.2012X0.0002*%
%ADD1294R,0.2012X0.0002*%
%ADD1295R,0.2012X0.0002*%
%ADD1296R,0.2014X0.0002*%
%ADD1297R,0.2014X0.0002*%
%ADD1298R,0.2014X0.0002*%
%ADD1299R,0.2016X0.0002*%
%ADD1300R,0.2016X0.0002*%
%ADD1301R,0.2018X0.0002*%
%ADD1302R,0.2018X0.0002*%
%ADD1303R,0.2020X0.0002*%
%ADD1304R,0.2020X0.0002*%
%ADD1305R,0.2022X0.0002*%
%ADD1306R,0.2022X0.0002*%
%ADD1307R,0.2022X0.0002*%
%ADD1308R,0.0082X0.0002*%
%ADD1309R,0.0086X0.0002*%
%ADD1310R,0.2022X0.0002*%
%ADD1311R,0.0094X0.0002*%
%ADD1312R,0.2024X0.0002*%
%ADD1313R,0.0102X0.0002*%
%ADD1314R,0.2024X0.0002*%
%ADD1315R,0.0106X0.0002*%
%ADD1316R,0.0114X0.0002*%
%ADD1317R,0.2024X0.0002*%
%ADD1318R,0.2024X0.0002*%
%ADD1319R,0.0096X0.0002*%
%ADD1320R,0.2026X0.0002*%
%ADD1321R,0.0094X0.0002*%
%ADD1322R,0.2026X0.0002*%
%ADD1323R,0.0092X0.0002*%
%ADD1324R,0.2028X0.0002*%
%ADD1325R,0.2028X0.0002*%
%ADD1326R,0.0084X0.0002*%
%ADD1327R,0.0082X0.0002*%
%ADD1328R,0.0112X0.0002*%
%ADD1329R,0.0112X0.0002*%
%ADD1330R,0.0072X0.0002*%
%ADD1331R,0.0124X0.0002*%
%ADD1332R,0.0072X0.0002*%
%ADD1333R,0.0136X0.0002*%
%ADD1334R,0.0142X0.0002*%
%ADD1335R,0.0152X0.0002*%
%ADD1336R,0.0162X0.0002*%
%ADD1337R,0.0190X0.0002*%
%ADD1338R,0.0192X0.0002*%
%ADD1339R,0.0212X0.0002*%
%ADD1340R,0.0222X0.0002*%
%ADD1341R,0.0224X0.0002*%
%ADD1342R,0.0238X0.0002*%
%ADD1343R,0.0242X0.0002*%
%ADD1344R,0.0250X0.0002*%
%ADD1345R,0.0162X0.0002*%
%ADD1346R,0.0164X0.0002*%
%ADD1347R,0.0102X0.0002*%
%ADD1348R,0.0104X0.0002*%
%ADD1349R,0.1982X0.0002*%
%ADD1350R,0.0158X0.0002*%
%ADD1351R,0.2054X0.0002*%
%ADD1352R,0.2052X0.0002*%
%ADD1353R,0.2052X0.0002*%
%ADD1354R,0.0154X0.0002*%
%ADD1355R,0.2052X0.0002*%
%ADD1356R,0.2050X0.0002*%
%ADD1357R,0.2050X0.0002*%
%ADD1358R,0.2048X0.0002*%
%ADD1359R,0.2046X0.0002*%
%ADD1360R,0.1972X0.0002*%
%ADD1361R,0.1960X0.0002*%
%ADD1362R,0.1952X0.0002*%
%ADD1363R,0.0092X0.0002*%
%ADD1364R,0.0152X0.0002*%
%ADD1365R,0.0154X0.0002*%
%ADD1366R,0.1932X0.0002*%
%ADD1367R,0.0152X0.0002*%
%ADD1368R,0.0150X0.0002*%
%ADD1369R,0.1872X0.0002*%
%ADD1370R,0.1868X0.0002*%
%ADD1371R,0.1852X0.0002*%
%ADD1372R,0.1832X0.0002*%
%ADD1373R,0.0084X0.0002*%
%ADD1374R,0.1804X0.0002*%
%ADD1375R,0.0144X0.0002*%
%ADD1376R,0.1788X0.0002*%
%ADD1377R,0.1784X0.0002*%
%ADD1378R,0.1776X0.0002*%
%ADD1379R,0.0144X0.0002*%
%ADD1380R,0.1752X0.0002*%
%ADD1381R,0.0082X0.0002*%
%ADD1382R,0.1740X0.0002*%
%ADD1383R,0.0140X0.0002*%
%ADD1384R,0.1712X0.0002*%
%ADD1385R,0.1708X0.0002*%
%ADD1386R,0.1700X0.0002*%
%ADD1387R,0.1684X0.0002*%
%ADD1388R,0.1676X0.0002*%
%ADD1389R,0.1668X0.0002*%
%ADD1390R,0.1660X0.0002*%
%ADD1391R,0.1652X0.0002*%
%ADD1392R,0.1644X0.0002*%
%ADD1393R,0.1636X0.0002*%
%ADD1394R,0.1632X0.0002*%
%ADD1395R,0.1628X0.0002*%
%ADD1396R,0.1608X0.0002*%
%ADD1397R,0.1604X0.0002*%
%ADD1398R,0.1576X0.0002*%
%ADD1399R,0.1568X0.0002*%
%ADD1400R,0.1556X0.0002*%
%ADD1401R,0.1552X0.0002*%
%ADD1402R,0.1544X0.0002*%
%ADD1403R,0.1532X0.0002*%
%ADD1404R,0.1528X0.0002*%
%ADD1405R,0.1524X0.0002*%
%ADD1406R,0.1516X0.0002*%
%ADD1407R,0.1496X0.0002*%
%ADD1408R,0.1488X0.0002*%
%ADD1409R,0.1472X0.0002*%
%ADD1410R,0.1464X0.0002*%
%ADD1411R,0.1436X0.0002*%
%ADD1412R,0.1424X0.0002*%
%ADD1413R,0.1412X0.0002*%
%ADD1414R,0.1404X0.0002*%
%ADD1415R,0.1400X0.0002*%
%ADD1416R,0.1392X0.0002*%
%ADD1417R,0.1388X0.0002*%
%ADD1418R,0.1376X0.0002*%
%ADD1419R,0.1368X0.0002*%
%ADD1420R,0.1356X0.0002*%
%ADD1421R,0.1348X0.0002*%
%ADD1422R,0.1328X0.0002*%
%ADD1423R,0.1308X0.0002*%
%ADD1424R,0.1280X0.0002*%
%ADD1425R,0.1272X0.0002*%
%ADD1426R,0.1264X0.0002*%
%ADD1427R,0.1260X0.0002*%
%ADD1428R,0.1252X0.0002*%
%ADD1429R,0.1244X0.0002*%
%ADD1430R,0.1236X0.0002*%
%ADD1431R,0.1228X0.0002*%
%ADD1432R,0.1220X0.0002*%
%ADD1433R,0.1216X0.0002*%
%ADD1434R,0.1200X0.0002*%
%ADD1435R,0.1192X0.0002*%
%ADD1436R,0.1184X0.0002*%
%ADD1437R,0.1176X0.0002*%
%ADD1438R,0.1160X0.0002*%
%ADD1439R,0.1152X0.0002*%
%ADD1440R,0.1136X0.0002*%
%ADD1441R,0.1128X0.0002*%
%ADD1442R,0.1120X0.0002*%
%ADD1443R,0.1100X0.0002*%
%ADD1444R,0.1092X0.0002*%
%ADD1445R,0.1084X0.0002*%
%ADD1446R,0.1076X0.0002*%
%ADD1447R,0.1068X0.0002*%
%ADD1448R,0.1048X0.0002*%
%ADD1449R,0.1040X0.0002*%
%ADD1450R,0.1032X0.0002*%
%ADD1451R,0.1020X0.0002*%
%ADD1452R,0.1012X0.0002*%
%ADD1453R,0.1004X0.0002*%
%ADD1454R,0.0992X0.0002*%
%ADD1455R,0.0972X0.0002*%
%ADD1456R,0.0964X0.0002*%
%ADD1457R,0.0952X0.0002*%
%ADD1458R,0.0944X0.0002*%
%ADD1459R,0.0932X0.0002*%
%ADD1460R,0.0912X0.0002*%
%ADD1461R,0.0900X0.0002*%
%ADD1462R,0.0880X0.0002*%
%ADD1463R,0.0868X0.0002*%
%ADD1464R,0.0856X0.0002*%
%ADD1465R,0.0844X0.0002*%
%ADD1466R,0.0808X0.0002*%
%ADD1467R,0.0796X0.0002*%
%ADD1468R,0.0784X0.0002*%
%ADD1469R,0.0772X0.0002*%
%ADD1470R,0.0760X0.0002*%
%ADD1471R,0.0744X0.0002*%
%ADD1472R,0.0732X0.0002*%
%ADD1473R,0.0720X0.0002*%
%ADD1474R,0.0704X0.0002*%
%ADD1475R,0.0688X0.0002*%
%ADD1476R,0.0628X0.0002*%
%ADD1477R,0.0612X0.0002*%
%ADD1478R,0.0596X0.0002*%
%ADD1479R,0.0580X0.0002*%
%ADD1480R,0.0114X0.0002*%
%ADD1481R,0.0104X0.0002*%
D10*
X008943Y009393D02*
X008943Y028388D01*
X051935Y028388D01*
X051935Y009393D01*
X008943Y009393D01*
X009473Y014208D02*
X009475Y014258D01*
X009481Y014308D01*
X009491Y014357D01*
X009504Y014406D01*
X009522Y014453D01*
X009543Y014499D01*
X009567Y014542D01*
X009595Y014584D01*
X009626Y014624D01*
X009660Y014661D01*
X009697Y014695D01*
X009737Y014726D01*
X009779Y014754D01*
X009822Y014778D01*
X009868Y014799D01*
X009915Y014817D01*
X009964Y014830D01*
X010013Y014840D01*
X010063Y014846D01*
X010113Y014848D01*
X010163Y014846D01*
X010213Y014840D01*
X010262Y014830D01*
X010311Y014817D01*
X010358Y014799D01*
X010404Y014778D01*
X010447Y014754D01*
X010489Y014726D01*
X010529Y014695D01*
X010566Y014661D01*
X010600Y014624D01*
X010631Y014584D01*
X010659Y014542D01*
X010683Y014499D01*
X010704Y014453D01*
X010722Y014406D01*
X010735Y014357D01*
X010745Y014308D01*
X010751Y014258D01*
X010753Y014208D01*
X010751Y014158D01*
X010745Y014108D01*
X010735Y014059D01*
X010722Y014010D01*
X010704Y013963D01*
X010683Y013917D01*
X010659Y013874D01*
X010631Y013832D01*
X010600Y013792D01*
X010566Y013755D01*
X010529Y013721D01*
X010489Y013690D01*
X010447Y013662D01*
X010404Y013638D01*
X010358Y013617D01*
X010311Y013599D01*
X010262Y013586D01*
X010213Y013576D01*
X010163Y013570D01*
X010113Y013568D01*
X010063Y013570D01*
X010013Y013576D01*
X009964Y013586D01*
X009915Y013599D01*
X009868Y013617D01*
X009822Y013638D01*
X009779Y013662D01*
X009737Y013690D01*
X009697Y013721D01*
X009660Y013755D01*
X009626Y013792D01*
X009595Y013832D01*
X009567Y013874D01*
X009543Y013917D01*
X009522Y013963D01*
X009504Y014010D01*
X009491Y014059D01*
X009481Y014108D01*
X009475Y014158D01*
X009473Y014208D01*
X013973Y014208D02*
X013975Y014258D01*
X013981Y014308D01*
X013991Y014357D01*
X014004Y014406D01*
X014022Y014453D01*
X014043Y014499D01*
X014067Y014542D01*
X014095Y014584D01*
X014126Y014624D01*
X014160Y014661D01*
X014197Y014695D01*
X014237Y014726D01*
X014279Y014754D01*
X014322Y014778D01*
X014368Y014799D01*
X014415Y014817D01*
X014464Y014830D01*
X014513Y014840D01*
X014563Y014846D01*
X014613Y014848D01*
X014663Y014846D01*
X014713Y014840D01*
X014762Y014830D01*
X014811Y014817D01*
X014858Y014799D01*
X014904Y014778D01*
X014947Y014754D01*
X014989Y014726D01*
X015029Y014695D01*
X015066Y014661D01*
X015100Y014624D01*
X015131Y014584D01*
X015159Y014542D01*
X015183Y014499D01*
X015204Y014453D01*
X015222Y014406D01*
X015235Y014357D01*
X015245Y014308D01*
X015251Y014258D01*
X015253Y014208D01*
X015251Y014158D01*
X015245Y014108D01*
X015235Y014059D01*
X015222Y014010D01*
X015204Y013963D01*
X015183Y013917D01*
X015159Y013874D01*
X015131Y013832D01*
X015100Y013792D01*
X015066Y013755D01*
X015029Y013721D01*
X014989Y013690D01*
X014947Y013662D01*
X014904Y013638D01*
X014858Y013617D01*
X014811Y013599D01*
X014762Y013586D01*
X014713Y013576D01*
X014663Y013570D01*
X014613Y013568D01*
X014563Y013570D01*
X014513Y013576D01*
X014464Y013586D01*
X014415Y013599D01*
X014368Y013617D01*
X014322Y013638D01*
X014279Y013662D01*
X014237Y013690D01*
X014197Y013721D01*
X014160Y013755D01*
X014126Y013792D01*
X014095Y013832D01*
X014067Y013874D01*
X014043Y013917D01*
X014022Y013963D01*
X014004Y014010D01*
X013991Y014059D01*
X013981Y014108D01*
X013975Y014158D01*
X013973Y014208D01*
X016678Y014208D02*
X016680Y014258D01*
X016686Y014308D01*
X016696Y014357D01*
X016709Y014406D01*
X016727Y014453D01*
X016748Y014499D01*
X016772Y014542D01*
X016800Y014584D01*
X016831Y014624D01*
X016865Y014661D01*
X016902Y014695D01*
X016942Y014726D01*
X016984Y014754D01*
X017027Y014778D01*
X017073Y014799D01*
X017120Y014817D01*
X017169Y014830D01*
X017218Y014840D01*
X017268Y014846D01*
X017318Y014848D01*
X017368Y014846D01*
X017418Y014840D01*
X017467Y014830D01*
X017516Y014817D01*
X017563Y014799D01*
X017609Y014778D01*
X017652Y014754D01*
X017694Y014726D01*
X017734Y014695D01*
X017771Y014661D01*
X017805Y014624D01*
X017836Y014584D01*
X017864Y014542D01*
X017888Y014499D01*
X017909Y014453D01*
X017927Y014406D01*
X017940Y014357D01*
X017950Y014308D01*
X017956Y014258D01*
X017958Y014208D01*
X017956Y014158D01*
X017950Y014108D01*
X017940Y014059D01*
X017927Y014010D01*
X017909Y013963D01*
X017888Y013917D01*
X017864Y013874D01*
X017836Y013832D01*
X017805Y013792D01*
X017771Y013755D01*
X017734Y013721D01*
X017694Y013690D01*
X017652Y013662D01*
X017609Y013638D01*
X017563Y013617D01*
X017516Y013599D01*
X017467Y013586D01*
X017418Y013576D01*
X017368Y013570D01*
X017318Y013568D01*
X017268Y013570D01*
X017218Y013576D01*
X017169Y013586D01*
X017120Y013599D01*
X017073Y013617D01*
X017027Y013638D01*
X016984Y013662D01*
X016942Y013690D01*
X016902Y013721D01*
X016865Y013755D01*
X016831Y013792D01*
X016800Y013832D01*
X016772Y013874D01*
X016748Y013917D01*
X016727Y013963D01*
X016709Y014010D01*
X016696Y014059D01*
X016686Y014108D01*
X016680Y014158D01*
X016678Y014208D01*
X021178Y014208D02*
X021180Y014258D01*
X021186Y014308D01*
X021196Y014357D01*
X021209Y014406D01*
X021227Y014453D01*
X021248Y014499D01*
X021272Y014542D01*
X021300Y014584D01*
X021331Y014624D01*
X021365Y014661D01*
X021402Y014695D01*
X021442Y014726D01*
X021484Y014754D01*
X021527Y014778D01*
X021573Y014799D01*
X021620Y014817D01*
X021669Y014830D01*
X021718Y014840D01*
X021768Y014846D01*
X021818Y014848D01*
X021868Y014846D01*
X021918Y014840D01*
X021967Y014830D01*
X022016Y014817D01*
X022063Y014799D01*
X022109Y014778D01*
X022152Y014754D01*
X022194Y014726D01*
X022234Y014695D01*
X022271Y014661D01*
X022305Y014624D01*
X022336Y014584D01*
X022364Y014542D01*
X022388Y014499D01*
X022409Y014453D01*
X022427Y014406D01*
X022440Y014357D01*
X022450Y014308D01*
X022456Y014258D01*
X022458Y014208D01*
X022456Y014158D01*
X022450Y014108D01*
X022440Y014059D01*
X022427Y014010D01*
X022409Y013963D01*
X022388Y013917D01*
X022364Y013874D01*
X022336Y013832D01*
X022305Y013792D01*
X022271Y013755D01*
X022234Y013721D01*
X022194Y013690D01*
X022152Y013662D01*
X022109Y013638D01*
X022063Y013617D01*
X022016Y013599D01*
X021967Y013586D01*
X021918Y013576D01*
X021868Y013570D01*
X021818Y013568D01*
X021768Y013570D01*
X021718Y013576D01*
X021669Y013586D01*
X021620Y013599D01*
X021573Y013617D01*
X021527Y013638D01*
X021484Y013662D01*
X021442Y013690D01*
X021402Y013721D01*
X021365Y013755D01*
X021331Y013792D01*
X021300Y013832D01*
X021272Y013874D01*
X021248Y013917D01*
X021227Y013963D01*
X021209Y014010D01*
X021196Y014059D01*
X021186Y014108D01*
X021180Y014158D01*
X021178Y014208D01*
X023883Y014208D02*
X023885Y014258D01*
X023891Y014308D01*
X023901Y014357D01*
X023914Y014406D01*
X023932Y014453D01*
X023953Y014499D01*
X023977Y014542D01*
X024005Y014584D01*
X024036Y014624D01*
X024070Y014661D01*
X024107Y014695D01*
X024147Y014726D01*
X024189Y014754D01*
X024232Y014778D01*
X024278Y014799D01*
X024325Y014817D01*
X024374Y014830D01*
X024423Y014840D01*
X024473Y014846D01*
X024523Y014848D01*
X024573Y014846D01*
X024623Y014840D01*
X024672Y014830D01*
X024721Y014817D01*
X024768Y014799D01*
X024814Y014778D01*
X024857Y014754D01*
X024899Y014726D01*
X024939Y014695D01*
X024976Y014661D01*
X025010Y014624D01*
X025041Y014584D01*
X025069Y014542D01*
X025093Y014499D01*
X025114Y014453D01*
X025132Y014406D01*
X025145Y014357D01*
X025155Y014308D01*
X025161Y014258D01*
X025163Y014208D01*
X025161Y014158D01*
X025155Y014108D01*
X025145Y014059D01*
X025132Y014010D01*
X025114Y013963D01*
X025093Y013917D01*
X025069Y013874D01*
X025041Y013832D01*
X025010Y013792D01*
X024976Y013755D01*
X024939Y013721D01*
X024899Y013690D01*
X024857Y013662D01*
X024814Y013638D01*
X024768Y013617D01*
X024721Y013599D01*
X024672Y013586D01*
X024623Y013576D01*
X024573Y013570D01*
X024523Y013568D01*
X024473Y013570D01*
X024423Y013576D01*
X024374Y013586D01*
X024325Y013599D01*
X024278Y013617D01*
X024232Y013638D01*
X024189Y013662D01*
X024147Y013690D01*
X024107Y013721D01*
X024070Y013755D01*
X024036Y013792D01*
X024005Y013832D01*
X023977Y013874D01*
X023953Y013917D01*
X023932Y013963D01*
X023914Y014010D01*
X023901Y014059D01*
X023891Y014108D01*
X023885Y014158D01*
X023883Y014208D01*
X028383Y014208D02*
X028385Y014258D01*
X028391Y014308D01*
X028401Y014357D01*
X028414Y014406D01*
X028432Y014453D01*
X028453Y014499D01*
X028477Y014542D01*
X028505Y014584D01*
X028536Y014624D01*
X028570Y014661D01*
X028607Y014695D01*
X028647Y014726D01*
X028689Y014754D01*
X028732Y014778D01*
X028778Y014799D01*
X028825Y014817D01*
X028874Y014830D01*
X028923Y014840D01*
X028973Y014846D01*
X029023Y014848D01*
X029073Y014846D01*
X029123Y014840D01*
X029172Y014830D01*
X029221Y014817D01*
X029268Y014799D01*
X029314Y014778D01*
X029357Y014754D01*
X029399Y014726D01*
X029439Y014695D01*
X029476Y014661D01*
X029510Y014624D01*
X029541Y014584D01*
X029569Y014542D01*
X029593Y014499D01*
X029614Y014453D01*
X029632Y014406D01*
X029645Y014357D01*
X029655Y014308D01*
X029661Y014258D01*
X029663Y014208D01*
X029661Y014158D01*
X029655Y014108D01*
X029645Y014059D01*
X029632Y014010D01*
X029614Y013963D01*
X029593Y013917D01*
X029569Y013874D01*
X029541Y013832D01*
X029510Y013792D01*
X029476Y013755D01*
X029439Y013721D01*
X029399Y013690D01*
X029357Y013662D01*
X029314Y013638D01*
X029268Y013617D01*
X029221Y013599D01*
X029172Y013586D01*
X029123Y013576D01*
X029073Y013570D01*
X029023Y013568D01*
X028973Y013570D01*
X028923Y013576D01*
X028874Y013586D01*
X028825Y013599D01*
X028778Y013617D01*
X028732Y013638D01*
X028689Y013662D01*
X028647Y013690D01*
X028607Y013721D01*
X028570Y013755D01*
X028536Y013792D01*
X028505Y013832D01*
X028477Y013874D01*
X028453Y013917D01*
X028432Y013963D01*
X028414Y014010D01*
X028401Y014059D01*
X028391Y014108D01*
X028385Y014158D01*
X028383Y014208D01*
X031088Y014208D02*
X031090Y014258D01*
X031096Y014308D01*
X031106Y014357D01*
X031119Y014406D01*
X031137Y014453D01*
X031158Y014499D01*
X031182Y014542D01*
X031210Y014584D01*
X031241Y014624D01*
X031275Y014661D01*
X031312Y014695D01*
X031352Y014726D01*
X031394Y014754D01*
X031437Y014778D01*
X031483Y014799D01*
X031530Y014817D01*
X031579Y014830D01*
X031628Y014840D01*
X031678Y014846D01*
X031728Y014848D01*
X031778Y014846D01*
X031828Y014840D01*
X031877Y014830D01*
X031926Y014817D01*
X031973Y014799D01*
X032019Y014778D01*
X032062Y014754D01*
X032104Y014726D01*
X032144Y014695D01*
X032181Y014661D01*
X032215Y014624D01*
X032246Y014584D01*
X032274Y014542D01*
X032298Y014499D01*
X032319Y014453D01*
X032337Y014406D01*
X032350Y014357D01*
X032360Y014308D01*
X032366Y014258D01*
X032368Y014208D01*
X032366Y014158D01*
X032360Y014108D01*
X032350Y014059D01*
X032337Y014010D01*
X032319Y013963D01*
X032298Y013917D01*
X032274Y013874D01*
X032246Y013832D01*
X032215Y013792D01*
X032181Y013755D01*
X032144Y013721D01*
X032104Y013690D01*
X032062Y013662D01*
X032019Y013638D01*
X031973Y013617D01*
X031926Y013599D01*
X031877Y013586D01*
X031828Y013576D01*
X031778Y013570D01*
X031728Y013568D01*
X031678Y013570D01*
X031628Y013576D01*
X031579Y013586D01*
X031530Y013599D01*
X031483Y013617D01*
X031437Y013638D01*
X031394Y013662D01*
X031352Y013690D01*
X031312Y013721D01*
X031275Y013755D01*
X031241Y013792D01*
X031210Y013832D01*
X031182Y013874D01*
X031158Y013917D01*
X031137Y013963D01*
X031119Y014010D01*
X031106Y014059D01*
X031096Y014108D01*
X031090Y014158D01*
X031088Y014208D01*
X035588Y014208D02*
X035590Y014258D01*
X035596Y014308D01*
X035606Y014357D01*
X035619Y014406D01*
X035637Y014453D01*
X035658Y014499D01*
X035682Y014542D01*
X035710Y014584D01*
X035741Y014624D01*
X035775Y014661D01*
X035812Y014695D01*
X035852Y014726D01*
X035894Y014754D01*
X035937Y014778D01*
X035983Y014799D01*
X036030Y014817D01*
X036079Y014830D01*
X036128Y014840D01*
X036178Y014846D01*
X036228Y014848D01*
X036278Y014846D01*
X036328Y014840D01*
X036377Y014830D01*
X036426Y014817D01*
X036473Y014799D01*
X036519Y014778D01*
X036562Y014754D01*
X036604Y014726D01*
X036644Y014695D01*
X036681Y014661D01*
X036715Y014624D01*
X036746Y014584D01*
X036774Y014542D01*
X036798Y014499D01*
X036819Y014453D01*
X036837Y014406D01*
X036850Y014357D01*
X036860Y014308D01*
X036866Y014258D01*
X036868Y014208D01*
X036866Y014158D01*
X036860Y014108D01*
X036850Y014059D01*
X036837Y014010D01*
X036819Y013963D01*
X036798Y013917D01*
X036774Y013874D01*
X036746Y013832D01*
X036715Y013792D01*
X036681Y013755D01*
X036644Y013721D01*
X036604Y013690D01*
X036562Y013662D01*
X036519Y013638D01*
X036473Y013617D01*
X036426Y013599D01*
X036377Y013586D01*
X036328Y013576D01*
X036278Y013570D01*
X036228Y013568D01*
X036178Y013570D01*
X036128Y013576D01*
X036079Y013586D01*
X036030Y013599D01*
X035983Y013617D01*
X035937Y013638D01*
X035894Y013662D01*
X035852Y013690D01*
X035812Y013721D01*
X035775Y013755D01*
X035741Y013792D01*
X035710Y013832D01*
X035682Y013874D01*
X035658Y013917D01*
X035637Y013963D01*
X035619Y014010D01*
X035606Y014059D01*
X035596Y014108D01*
X035590Y014158D01*
X035588Y014208D01*
X038293Y014208D02*
X038295Y014258D01*
X038301Y014308D01*
X038311Y014357D01*
X038324Y014406D01*
X038342Y014453D01*
X038363Y014499D01*
X038387Y014542D01*
X038415Y014584D01*
X038446Y014624D01*
X038480Y014661D01*
X038517Y014695D01*
X038557Y014726D01*
X038599Y014754D01*
X038642Y014778D01*
X038688Y014799D01*
X038735Y014817D01*
X038784Y014830D01*
X038833Y014840D01*
X038883Y014846D01*
X038933Y014848D01*
X038983Y014846D01*
X039033Y014840D01*
X039082Y014830D01*
X039131Y014817D01*
X039178Y014799D01*
X039224Y014778D01*
X039267Y014754D01*
X039309Y014726D01*
X039349Y014695D01*
X039386Y014661D01*
X039420Y014624D01*
X039451Y014584D01*
X039479Y014542D01*
X039503Y014499D01*
X039524Y014453D01*
X039542Y014406D01*
X039555Y014357D01*
X039565Y014308D01*
X039571Y014258D01*
X039573Y014208D01*
X039571Y014158D01*
X039565Y014108D01*
X039555Y014059D01*
X039542Y014010D01*
X039524Y013963D01*
X039503Y013917D01*
X039479Y013874D01*
X039451Y013832D01*
X039420Y013792D01*
X039386Y013755D01*
X039349Y013721D01*
X039309Y013690D01*
X039267Y013662D01*
X039224Y013638D01*
X039178Y013617D01*
X039131Y013599D01*
X039082Y013586D01*
X039033Y013576D01*
X038983Y013570D01*
X038933Y013568D01*
X038883Y013570D01*
X038833Y013576D01*
X038784Y013586D01*
X038735Y013599D01*
X038688Y013617D01*
X038642Y013638D01*
X038599Y013662D01*
X038557Y013690D01*
X038517Y013721D01*
X038480Y013755D01*
X038446Y013792D01*
X038415Y013832D01*
X038387Y013874D01*
X038363Y013917D01*
X038342Y013963D01*
X038324Y014010D01*
X038311Y014059D01*
X038301Y014108D01*
X038295Y014158D01*
X038293Y014208D01*
X042793Y014208D02*
X042795Y014258D01*
X042801Y014308D01*
X042811Y014357D01*
X042824Y014406D01*
X042842Y014453D01*
X042863Y014499D01*
X042887Y014542D01*
X042915Y014584D01*
X042946Y014624D01*
X042980Y014661D01*
X043017Y014695D01*
X043057Y014726D01*
X043099Y014754D01*
X043142Y014778D01*
X043188Y014799D01*
X043235Y014817D01*
X043284Y014830D01*
X043333Y014840D01*
X043383Y014846D01*
X043433Y014848D01*
X043483Y014846D01*
X043533Y014840D01*
X043582Y014830D01*
X043631Y014817D01*
X043678Y014799D01*
X043724Y014778D01*
X043767Y014754D01*
X043809Y014726D01*
X043849Y014695D01*
X043886Y014661D01*
X043920Y014624D01*
X043951Y014584D01*
X043979Y014542D01*
X044003Y014499D01*
X044024Y014453D01*
X044042Y014406D01*
X044055Y014357D01*
X044065Y014308D01*
X044071Y014258D01*
X044073Y014208D01*
X044071Y014158D01*
X044065Y014108D01*
X044055Y014059D01*
X044042Y014010D01*
X044024Y013963D01*
X044003Y013917D01*
X043979Y013874D01*
X043951Y013832D01*
X043920Y013792D01*
X043886Y013755D01*
X043849Y013721D01*
X043809Y013690D01*
X043767Y013662D01*
X043724Y013638D01*
X043678Y013617D01*
X043631Y013599D01*
X043582Y013586D01*
X043533Y013576D01*
X043483Y013570D01*
X043433Y013568D01*
X043383Y013570D01*
X043333Y013576D01*
X043284Y013586D01*
X043235Y013599D01*
X043188Y013617D01*
X043142Y013638D01*
X043099Y013662D01*
X043057Y013690D01*
X043017Y013721D01*
X042980Y013755D01*
X042946Y013792D01*
X042915Y013832D01*
X042887Y013874D01*
X042863Y013917D01*
X042842Y013963D01*
X042824Y014010D01*
X042811Y014059D01*
X042801Y014108D01*
X042795Y014158D01*
X042793Y014208D01*
X045498Y014208D02*
X045500Y014258D01*
X045506Y014308D01*
X045516Y014357D01*
X045529Y014406D01*
X045547Y014453D01*
X045568Y014499D01*
X045592Y014542D01*
X045620Y014584D01*
X045651Y014624D01*
X045685Y014661D01*
X045722Y014695D01*
X045762Y014726D01*
X045804Y014754D01*
X045847Y014778D01*
X045893Y014799D01*
X045940Y014817D01*
X045989Y014830D01*
X046038Y014840D01*
X046088Y014846D01*
X046138Y014848D01*
X046188Y014846D01*
X046238Y014840D01*
X046287Y014830D01*
X046336Y014817D01*
X046383Y014799D01*
X046429Y014778D01*
X046472Y014754D01*
X046514Y014726D01*
X046554Y014695D01*
X046591Y014661D01*
X046625Y014624D01*
X046656Y014584D01*
X046684Y014542D01*
X046708Y014499D01*
X046729Y014453D01*
X046747Y014406D01*
X046760Y014357D01*
X046770Y014308D01*
X046776Y014258D01*
X046778Y014208D01*
X046776Y014158D01*
X046770Y014108D01*
X046760Y014059D01*
X046747Y014010D01*
X046729Y013963D01*
X046708Y013917D01*
X046684Y013874D01*
X046656Y013832D01*
X046625Y013792D01*
X046591Y013755D01*
X046554Y013721D01*
X046514Y013690D01*
X046472Y013662D01*
X046429Y013638D01*
X046383Y013617D01*
X046336Y013599D01*
X046287Y013586D01*
X046238Y013576D01*
X046188Y013570D01*
X046138Y013568D01*
X046088Y013570D01*
X046038Y013576D01*
X045989Y013586D01*
X045940Y013599D01*
X045893Y013617D01*
X045847Y013638D01*
X045804Y013662D01*
X045762Y013690D01*
X045722Y013721D01*
X045685Y013755D01*
X045651Y013792D01*
X045620Y013832D01*
X045592Y013874D01*
X045568Y013917D01*
X045547Y013963D01*
X045529Y014010D01*
X045516Y014059D01*
X045506Y014108D01*
X045500Y014158D01*
X045498Y014208D01*
X049998Y014208D02*
X050000Y014258D01*
X050006Y014308D01*
X050016Y014357D01*
X050029Y014406D01*
X050047Y014453D01*
X050068Y014499D01*
X050092Y014542D01*
X050120Y014584D01*
X050151Y014624D01*
X050185Y014661D01*
X050222Y014695D01*
X050262Y014726D01*
X050304Y014754D01*
X050347Y014778D01*
X050393Y014799D01*
X050440Y014817D01*
X050489Y014830D01*
X050538Y014840D01*
X050588Y014846D01*
X050638Y014848D01*
X050688Y014846D01*
X050738Y014840D01*
X050787Y014830D01*
X050836Y014817D01*
X050883Y014799D01*
X050929Y014778D01*
X050972Y014754D01*
X051014Y014726D01*
X051054Y014695D01*
X051091Y014661D01*
X051125Y014624D01*
X051156Y014584D01*
X051184Y014542D01*
X051208Y014499D01*
X051229Y014453D01*
X051247Y014406D01*
X051260Y014357D01*
X051270Y014308D01*
X051276Y014258D01*
X051278Y014208D01*
X051276Y014158D01*
X051270Y014108D01*
X051260Y014059D01*
X051247Y014010D01*
X051229Y013963D01*
X051208Y013917D01*
X051184Y013874D01*
X051156Y013832D01*
X051125Y013792D01*
X051091Y013755D01*
X051054Y013721D01*
X051014Y013690D01*
X050972Y013662D01*
X050929Y013638D01*
X050883Y013617D01*
X050836Y013599D01*
X050787Y013586D01*
X050738Y013576D01*
X050688Y013570D01*
X050638Y013568D01*
X050588Y013570D01*
X050538Y013576D01*
X050489Y013586D01*
X050440Y013599D01*
X050393Y013617D01*
X050347Y013638D01*
X050304Y013662D01*
X050262Y013690D01*
X050222Y013721D01*
X050185Y013755D01*
X050151Y013792D01*
X050120Y013832D01*
X050092Y013874D01*
X050068Y013917D01*
X050047Y013963D01*
X050029Y014010D01*
X050016Y014059D01*
X050006Y014108D01*
X050000Y014158D01*
X049998Y014208D01*
X034813Y026893D02*
X034815Y026943D01*
X034821Y026993D01*
X034831Y027042D01*
X034845Y027090D01*
X034862Y027137D01*
X034883Y027182D01*
X034908Y027226D01*
X034936Y027267D01*
X034968Y027306D01*
X035002Y027343D01*
X035039Y027377D01*
X035079Y027407D01*
X035121Y027434D01*
X035165Y027458D01*
X035211Y027479D01*
X035258Y027495D01*
X035306Y027508D01*
X035356Y027517D01*
X035405Y027522D01*
X035456Y027523D01*
X035506Y027520D01*
X035555Y027513D01*
X035604Y027502D01*
X035652Y027487D01*
X035698Y027469D01*
X035743Y027447D01*
X035786Y027421D01*
X035827Y027392D01*
X035866Y027360D01*
X035902Y027325D01*
X035934Y027287D01*
X035964Y027247D01*
X035991Y027204D01*
X036014Y027160D01*
X036033Y027114D01*
X036049Y027066D01*
X036061Y027017D01*
X036069Y026968D01*
X036073Y026918D01*
X036073Y026868D01*
X036069Y026818D01*
X036061Y026769D01*
X036049Y026720D01*
X036033Y026672D01*
X036014Y026626D01*
X035991Y026582D01*
X035964Y026539D01*
X035934Y026499D01*
X035902Y026461D01*
X035866Y026426D01*
X035827Y026394D01*
X035786Y026365D01*
X035743Y026339D01*
X035698Y026317D01*
X035652Y026299D01*
X035604Y026284D01*
X035555Y026273D01*
X035506Y026266D01*
X035456Y026263D01*
X035405Y026264D01*
X035356Y026269D01*
X035306Y026278D01*
X035258Y026291D01*
X035211Y026307D01*
X035165Y026328D01*
X035121Y026352D01*
X035079Y026379D01*
X035039Y026409D01*
X035002Y026443D01*
X034968Y026480D01*
X034936Y026519D01*
X034908Y026560D01*
X034883Y026604D01*
X034862Y026649D01*
X034845Y026696D01*
X034831Y026744D01*
X034821Y026793D01*
X034815Y026843D01*
X034813Y026893D01*
D11*
X034093Y026893D02*
X034095Y026966D01*
X034101Y027039D01*
X034111Y027111D01*
X034125Y027183D01*
X034142Y027254D01*
X034164Y027324D01*
X034189Y027393D01*
X034218Y027460D01*
X034250Y027525D01*
X034286Y027589D01*
X034326Y027651D01*
X034368Y027710D01*
X034414Y027767D01*
X034463Y027821D01*
X034515Y027873D01*
X034569Y027922D01*
X034626Y027968D01*
X034685Y028010D01*
X034747Y028050D01*
X034811Y028086D01*
X034876Y028118D01*
X034943Y028147D01*
X035012Y028172D01*
X035082Y028194D01*
X035153Y028211D01*
X035225Y028225D01*
X035297Y028235D01*
X035370Y028241D01*
X035443Y028243D01*
X035516Y028241D01*
X035589Y028235D01*
X035661Y028225D01*
X035733Y028211D01*
X035804Y028194D01*
X035874Y028172D01*
X035943Y028147D01*
X036010Y028118D01*
X036075Y028086D01*
X036139Y028050D01*
X036201Y028010D01*
X036260Y027968D01*
X036317Y027922D01*
X036371Y027873D01*
X036423Y027821D01*
X036472Y027767D01*
X036518Y027710D01*
X036560Y027651D01*
X036600Y027589D01*
X036636Y027525D01*
X036668Y027460D01*
X036697Y027393D01*
X036722Y027324D01*
X036744Y027254D01*
X036761Y027183D01*
X036775Y027111D01*
X036785Y027039D01*
X036791Y026966D01*
X036793Y026893D01*
X036791Y026820D01*
X036785Y026747D01*
X036775Y026675D01*
X036761Y026603D01*
X036744Y026532D01*
X036722Y026462D01*
X036697Y026393D01*
X036668Y026326D01*
X036636Y026261D01*
X036600Y026197D01*
X036560Y026135D01*
X036518Y026076D01*
X036472Y026019D01*
X036423Y025965D01*
X036371Y025913D01*
X036317Y025864D01*
X036260Y025818D01*
X036201Y025776D01*
X036139Y025736D01*
X036075Y025700D01*
X036010Y025668D01*
X035943Y025639D01*
X035874Y025614D01*
X035804Y025592D01*
X035733Y025575D01*
X035661Y025561D01*
X035589Y025551D01*
X035516Y025545D01*
X035443Y025543D01*
X035370Y025545D01*
X035297Y025551D01*
X035225Y025561D01*
X035153Y025575D01*
X035082Y025592D01*
X035012Y025614D01*
X034943Y025639D01*
X034876Y025668D01*
X034811Y025700D01*
X034747Y025736D01*
X034685Y025776D01*
X034626Y025818D01*
X034569Y025864D01*
X034515Y025913D01*
X034463Y025965D01*
X034414Y026019D01*
X034368Y026076D01*
X034326Y026135D01*
X034286Y026197D01*
X034250Y026261D01*
X034218Y026326D01*
X034189Y026393D01*
X034164Y026462D01*
X034142Y026532D01*
X034125Y026603D01*
X034111Y026675D01*
X034101Y026747D01*
X034095Y026820D01*
X034093Y026893D01*
X033492Y026695D02*
X033172Y026695D01*
X033065Y026589D01*
X033172Y026482D01*
X033385Y026482D01*
X033492Y026375D01*
X033385Y026268D01*
X033065Y026268D01*
X032848Y026482D02*
X032421Y026482D01*
X032421Y026589D02*
X032527Y026695D01*
X032741Y026695D01*
X032848Y026589D01*
X032848Y026482D01*
X032741Y026268D02*
X032527Y026268D01*
X032421Y026375D01*
X032421Y026589D01*
X032204Y026268D02*
X031991Y026268D01*
X032098Y026268D02*
X032098Y026909D01*
X031991Y026909D01*
X031668Y026909D02*
X031668Y027016D01*
X031668Y026695D02*
X031561Y026695D01*
X031668Y026695D02*
X031668Y026268D01*
X031561Y026268D02*
X031775Y026268D01*
X031344Y026268D02*
X031344Y026909D01*
X031130Y026695D01*
X030917Y026909D01*
X030917Y026268D01*
X030809Y025645D02*
X030809Y025325D01*
X030916Y025218D01*
X031236Y025218D01*
X031236Y025112D02*
X031129Y025005D01*
X031023Y025005D01*
X031236Y025112D02*
X031236Y025645D01*
X030592Y025645D02*
X030486Y025645D01*
X030272Y025432D01*
X030272Y025645D02*
X030272Y025218D01*
X030054Y025218D02*
X029734Y025218D01*
X029627Y025325D01*
X029734Y025432D01*
X030054Y025432D01*
X030054Y025539D02*
X030054Y025218D01*
X030054Y025539D02*
X029948Y025645D01*
X029734Y025645D01*
X029410Y025645D02*
X029410Y025218D01*
X029090Y025218D01*
X028983Y025325D01*
X028983Y025645D01*
X028765Y025539D02*
X028765Y025218D01*
X028765Y025539D02*
X028659Y025645D01*
X028338Y025645D01*
X028338Y025218D01*
X028121Y025218D02*
X027801Y025218D01*
X027694Y025325D01*
X027801Y025432D01*
X028121Y025432D01*
X028121Y025539D02*
X028121Y025218D01*
X028121Y025539D02*
X028014Y025645D01*
X027801Y025645D01*
X027476Y025859D02*
X027263Y025859D01*
X027370Y025859D02*
X027370Y025325D01*
X027263Y025218D01*
X027156Y025218D01*
X027049Y025325D01*
X027103Y024809D02*
X027423Y024809D01*
X027530Y024702D01*
X027530Y024489D01*
X027423Y024382D01*
X027103Y024382D01*
X027316Y024382D02*
X027530Y024168D01*
X027748Y024275D02*
X027854Y024168D01*
X028068Y024168D01*
X028175Y024275D01*
X028175Y024489D01*
X028068Y024595D01*
X027854Y024595D01*
X027748Y024489D01*
X027748Y024275D01*
X027103Y024168D02*
X027103Y024809D01*
X026241Y024595D02*
X025921Y024595D01*
X025814Y024489D01*
X025921Y024382D01*
X026134Y024382D01*
X026241Y024275D01*
X026134Y024168D01*
X025814Y024168D01*
X025597Y024595D02*
X025490Y024595D01*
X025277Y024382D01*
X025277Y024595D02*
X025277Y024168D01*
X025059Y024168D02*
X025059Y024489D01*
X024952Y024595D01*
X024739Y024595D01*
X024739Y024382D02*
X025059Y024382D01*
X025059Y024168D02*
X024739Y024168D01*
X024632Y024275D01*
X024739Y024382D01*
X024415Y024168D02*
X024415Y024809D01*
X024201Y024595D01*
X023988Y024809D01*
X023988Y024168D01*
X028016Y026268D02*
X028016Y026909D01*
X028230Y026695D01*
X028443Y026909D01*
X028443Y026268D01*
X028661Y026268D02*
X028874Y026268D01*
X028767Y026268D02*
X028767Y026695D01*
X028661Y026695D01*
X028767Y026909D02*
X028767Y027016D01*
X029090Y026909D02*
X029090Y026268D01*
X029090Y026482D02*
X029411Y026695D01*
X029627Y026589D02*
X029734Y026695D01*
X029948Y026695D01*
X030054Y026589D01*
X030054Y026482D01*
X029627Y026482D01*
X029627Y026375D02*
X029627Y026589D01*
X029627Y026375D02*
X029734Y026268D01*
X029948Y026268D01*
X029411Y026268D02*
X029090Y026482D01*
X030863Y024809D02*
X031183Y024809D01*
X031290Y024702D01*
X031290Y024275D01*
X031183Y024168D01*
X030863Y024168D01*
X030863Y024809D01*
X031507Y024489D02*
X031614Y024595D01*
X031828Y024595D01*
X031934Y024489D01*
X031934Y024382D01*
X031507Y024382D01*
X031507Y024275D02*
X031507Y024489D01*
X031507Y024275D02*
X031614Y024168D01*
X031828Y024168D01*
X032152Y024168D02*
X032472Y024168D01*
X032579Y024275D01*
X032472Y024382D01*
X032259Y024382D01*
X032152Y024489D01*
X032259Y024595D01*
X032579Y024595D01*
X032796Y024595D02*
X032903Y024595D01*
X032903Y024168D01*
X032796Y024168D02*
X033010Y024168D01*
X033226Y024275D02*
X033333Y024168D01*
X033653Y024168D01*
X033653Y024062D02*
X033653Y024595D01*
X033333Y024595D01*
X033226Y024489D01*
X033226Y024275D01*
X033440Y023955D02*
X033546Y023955D01*
X033653Y024062D01*
X033871Y024168D02*
X033871Y024595D01*
X034191Y024595D01*
X034298Y024489D01*
X034298Y024168D01*
X035160Y024809D02*
X035587Y024809D01*
X035373Y024809D02*
X035373Y024168D01*
X035804Y024275D02*
X035804Y024489D01*
X035911Y024595D01*
X036125Y024595D01*
X036231Y024489D01*
X036231Y024382D01*
X035804Y024382D01*
X035804Y024275D02*
X035911Y024168D01*
X036125Y024168D01*
X036449Y024275D02*
X036556Y024382D01*
X036876Y024382D01*
X036876Y024489D02*
X036876Y024168D01*
X036556Y024168D01*
X036449Y024275D01*
X036556Y024595D02*
X036769Y024595D01*
X036876Y024489D01*
X037093Y024595D02*
X037093Y024168D01*
X037307Y024168D02*
X037307Y024489D01*
X037414Y024595D01*
X037521Y024489D01*
X037521Y024168D01*
X037307Y024489D02*
X037200Y024595D01*
X037093Y024595D01*
X034459Y025325D02*
X034352Y025218D01*
X034139Y025218D01*
X034032Y025325D01*
X034032Y025539D01*
X034352Y025539D01*
X034459Y025432D01*
X034459Y025325D01*
X034245Y025752D02*
X034032Y025539D01*
X034245Y025752D02*
X034459Y025859D01*
X033601Y025859D02*
X033601Y025218D01*
X033814Y025218D02*
X033387Y025218D01*
X033170Y025325D02*
X033063Y025218D01*
X032850Y025218D01*
X032743Y025325D01*
X033170Y025752D01*
X033170Y025325D01*
X033387Y025645D02*
X033601Y025859D01*
X033170Y025752D02*
X033063Y025859D01*
X032850Y025859D01*
X032743Y025752D01*
X032743Y025325D01*
X032525Y025218D02*
X032098Y025218D01*
X032525Y025645D01*
X032525Y025752D01*
X032419Y025859D01*
X032205Y025859D01*
X032098Y025752D01*
X032903Y024916D02*
X032903Y024809D01*
X030001Y024595D02*
X029895Y024595D01*
X029681Y024382D01*
X029681Y024595D02*
X029681Y024168D01*
X029464Y024382D02*
X029037Y024382D01*
X029037Y024489D02*
X029143Y024595D01*
X029357Y024595D01*
X029464Y024489D01*
X029464Y024382D01*
X029357Y024168D02*
X029143Y024168D01*
X029037Y024275D01*
X029037Y024489D01*
X028819Y024595D02*
X028606Y024168D01*
X028392Y024595D01*
D12*
X026645Y025788D02*
X026338Y025788D01*
X026491Y025788D02*
X026491Y026249D01*
X026338Y026095D01*
X027213Y026663D02*
X027443Y026663D01*
X027520Y026740D01*
X027520Y026817D01*
X027443Y026894D01*
X027213Y026894D01*
X027213Y027124D02*
X027213Y026663D01*
X027443Y026894D02*
X027520Y026970D01*
X027520Y027047D01*
X027443Y027124D01*
X027213Y027124D01*
X027673Y027047D02*
X027750Y027124D01*
X027903Y027124D01*
X027980Y027047D01*
X027980Y026970D01*
X027673Y026663D01*
X027980Y026663D01*
X027980Y027663D02*
X027673Y027663D01*
X027980Y027970D01*
X027980Y028047D01*
X027903Y028124D01*
X027750Y028124D01*
X027673Y028047D01*
X027520Y027970D02*
X027520Y027663D01*
X027520Y027894D02*
X027213Y027894D01*
X027213Y027970D02*
X027366Y028124D01*
X027520Y027970D01*
X027213Y027970D02*
X027213Y027663D01*
X017855Y026172D02*
X017855Y025865D01*
X017778Y025788D01*
X017625Y025788D01*
X017548Y025865D01*
X017855Y026172D01*
X017778Y026249D01*
X017625Y026249D01*
X017548Y026172D01*
X017548Y025865D01*
X017395Y025788D02*
X017088Y025788D01*
X017241Y025788D02*
X017241Y026249D01*
X017088Y026095D01*
X014259Y024824D02*
X014259Y024747D01*
X013952Y024440D01*
X013952Y024363D01*
X013799Y024440D02*
X013799Y024517D01*
X013722Y024594D01*
X013569Y024594D01*
X013492Y024670D01*
X013492Y024747D01*
X013569Y024824D01*
X013722Y024824D01*
X013799Y024747D01*
X013952Y024824D02*
X014259Y024824D01*
X013799Y024440D02*
X013722Y024363D01*
X013569Y024363D01*
X013492Y024440D01*
X013339Y024440D02*
X013339Y024824D01*
X013032Y024824D02*
X013032Y024440D01*
X013108Y024363D01*
X013262Y024363D01*
X013339Y024440D01*
X013646Y024287D02*
X013646Y024900D01*
X014202Y021905D02*
X014202Y021598D01*
X014433Y021598D01*
X014356Y021751D01*
X014356Y021828D01*
X014433Y021905D01*
X014586Y021905D01*
X014663Y021828D01*
X014663Y021675D01*
X014586Y021598D01*
X014663Y021444D02*
X014663Y021138D01*
X014663Y021291D02*
X014202Y021291D01*
X014356Y021138D01*
X014279Y020984D02*
X014202Y020907D01*
X014202Y020754D01*
X014279Y020677D01*
X014356Y020677D01*
X014433Y020754D01*
X014433Y020907D01*
X014509Y020984D01*
X014586Y020984D01*
X014663Y020907D01*
X014663Y020754D01*
X014586Y020677D01*
X014586Y020524D02*
X014202Y020524D01*
X014202Y020217D02*
X014586Y020217D01*
X014663Y020293D01*
X014663Y020447D01*
X014586Y020524D01*
X014740Y020831D02*
X014126Y020831D01*
X021326Y020831D02*
X021940Y020831D01*
X021863Y020907D02*
X021786Y020984D01*
X021709Y020984D01*
X021633Y020907D01*
X021633Y020754D01*
X021556Y020677D01*
X021479Y020677D01*
X021402Y020754D01*
X021402Y020907D01*
X021479Y020984D01*
X021556Y021138D02*
X021402Y021291D01*
X021863Y021291D01*
X021863Y021138D02*
X021863Y021444D01*
X021633Y021598D02*
X021633Y021905D01*
X021863Y021828D02*
X021402Y021828D01*
X021633Y021598D01*
X021863Y020907D02*
X021863Y020754D01*
X021786Y020677D01*
X021786Y020524D02*
X021402Y020524D01*
X021402Y020217D02*
X021786Y020217D01*
X021863Y020293D01*
X021863Y020447D01*
X021786Y020524D01*
X028526Y020831D02*
X029140Y020831D01*
X029063Y020907D02*
X028986Y020984D01*
X028909Y020984D01*
X028833Y020907D01*
X028833Y020754D01*
X028756Y020677D01*
X028679Y020677D01*
X028602Y020754D01*
X028602Y020907D01*
X028679Y020984D01*
X028756Y021138D02*
X028602Y021291D01*
X029063Y021291D01*
X029063Y021138D02*
X029063Y021444D01*
X028986Y021598D02*
X029063Y021675D01*
X029063Y021828D01*
X028986Y021905D01*
X028909Y021905D01*
X028833Y021828D01*
X028833Y021751D01*
X028833Y021828D02*
X028756Y021905D01*
X028679Y021905D01*
X028602Y021828D01*
X028602Y021675D01*
X028679Y021598D01*
X029063Y020907D02*
X029063Y020754D01*
X028986Y020677D01*
X028986Y020524D02*
X028602Y020524D01*
X028602Y020217D02*
X028986Y020217D01*
X029063Y020293D01*
X029063Y020447D01*
X028986Y020524D01*
X035726Y020831D02*
X036340Y020831D01*
X036263Y020907D02*
X036186Y020984D01*
X036109Y020984D01*
X036033Y020907D01*
X036033Y020754D01*
X035956Y020677D01*
X035879Y020677D01*
X035802Y020754D01*
X035802Y020907D01*
X035879Y020984D01*
X035956Y021138D02*
X035802Y021291D01*
X036263Y021291D01*
X036263Y021138D02*
X036263Y021444D01*
X036263Y021598D02*
X035956Y021905D01*
X035879Y021905D01*
X035802Y021828D01*
X035802Y021675D01*
X035879Y021598D01*
X036263Y021598D02*
X036263Y021905D01*
X036263Y020907D02*
X036263Y020754D01*
X036186Y020677D01*
X036186Y020524D02*
X035802Y020524D01*
X035802Y020217D02*
X036186Y020217D01*
X036263Y020293D01*
X036263Y020447D01*
X036186Y020524D01*
X042926Y020831D02*
X043540Y020831D01*
X043463Y020907D02*
X043386Y020984D01*
X043309Y020984D01*
X043233Y020907D01*
X043233Y020754D01*
X043156Y020677D01*
X043079Y020677D01*
X043002Y020754D01*
X043002Y020907D01*
X043079Y020984D01*
X043156Y021138D02*
X043002Y021291D01*
X043463Y021291D01*
X043463Y021138D02*
X043463Y021444D01*
X043463Y021598D02*
X043463Y021905D01*
X043463Y021751D02*
X043002Y021751D01*
X043156Y021598D01*
X043463Y020907D02*
X043463Y020754D01*
X043386Y020677D01*
X043386Y020524D02*
X043002Y020524D01*
X043002Y020217D02*
X043386Y020217D01*
X043463Y020293D01*
X043463Y020447D01*
X043386Y020524D01*
X050126Y020831D02*
X050740Y020831D01*
X050663Y020907D02*
X050586Y020984D01*
X050509Y020984D01*
X050433Y020907D01*
X050433Y020754D01*
X050356Y020677D01*
X050279Y020677D01*
X050202Y020754D01*
X050202Y020907D01*
X050279Y020984D01*
X050356Y021138D02*
X050202Y021291D01*
X050663Y021291D01*
X050663Y021138D02*
X050663Y021444D01*
X050586Y021598D02*
X050279Y021905D01*
X050586Y021905D01*
X050663Y021828D01*
X050663Y021675D01*
X050586Y021598D01*
X050279Y021598D01*
X050202Y021675D01*
X050202Y021828D01*
X050279Y021905D01*
X050663Y020907D02*
X050663Y020754D01*
X050586Y020677D01*
X050586Y020524D02*
X050202Y020524D01*
X050202Y020217D02*
X050586Y020217D01*
X050663Y020293D01*
X050663Y020447D01*
X050586Y020524D01*
X051338Y025788D02*
X051645Y025788D01*
X051491Y025788D02*
X051491Y026249D01*
X051338Y026095D01*
X042855Y026172D02*
X042855Y025865D01*
X042778Y025788D01*
X042625Y025788D01*
X042548Y025865D01*
X042855Y026172D01*
X042778Y026249D01*
X042625Y026249D01*
X042548Y026172D01*
X042548Y025865D01*
X042395Y025788D02*
X042088Y025788D01*
X042241Y025788D02*
X042241Y026249D01*
X042088Y026095D01*
X041730Y026663D02*
X041423Y026663D01*
X041577Y026663D02*
X041577Y027124D01*
X041423Y026970D01*
X041270Y026970D02*
X041193Y026894D01*
X040963Y026894D01*
X040963Y027124D02*
X040963Y026663D01*
X041193Y026663D01*
X041270Y026740D01*
X041270Y026817D01*
X041193Y026894D01*
X041270Y026970D02*
X041270Y027047D01*
X041193Y027124D01*
X040963Y027124D01*
X040963Y027663D02*
X040963Y027970D01*
X041116Y028124D01*
X041270Y027970D01*
X041270Y027663D01*
X041423Y027663D02*
X041730Y027663D01*
X041577Y027663D02*
X041577Y028124D01*
X041423Y027970D01*
X041270Y027894D02*
X040963Y027894D01*
X042241Y011999D02*
X042088Y011845D01*
X042241Y011999D02*
X042241Y011538D01*
X042088Y011538D02*
X042395Y011538D01*
X042548Y011615D02*
X042855Y011922D01*
X042855Y011615D01*
X042778Y011538D01*
X042625Y011538D01*
X042548Y011615D01*
X042548Y011922D01*
X042625Y011999D01*
X042778Y011999D01*
X042855Y011922D01*
X041577Y011124D02*
X041423Y010970D01*
X041270Y011047D02*
X041193Y011124D01*
X041040Y011124D01*
X040963Y011047D01*
X040963Y010740D01*
X041040Y010663D01*
X041193Y010663D01*
X041270Y010740D01*
X041423Y010663D02*
X041730Y010663D01*
X041577Y010663D02*
X041577Y011124D01*
X041577Y010124D02*
X041577Y009663D01*
X041730Y009663D02*
X041423Y009663D01*
X041270Y009740D02*
X041270Y010047D01*
X041193Y010124D01*
X040963Y010124D01*
X040963Y009663D01*
X041193Y009663D01*
X041270Y009740D01*
X041423Y009970D02*
X041577Y010124D01*
X051338Y011538D02*
X051645Y011538D01*
X051491Y011538D02*
X051491Y011999D01*
X051338Y011845D01*
X027980Y011047D02*
X027903Y011124D01*
X027750Y011124D01*
X027673Y011047D01*
X027520Y011047D02*
X027443Y011124D01*
X027290Y011124D01*
X027213Y011047D01*
X027213Y010740D01*
X027290Y010663D01*
X027443Y010663D01*
X027520Y010740D01*
X027673Y010663D02*
X027980Y010970D01*
X027980Y011047D01*
X027980Y010663D02*
X027673Y010663D01*
X027750Y010124D02*
X027673Y010047D01*
X027750Y010124D02*
X027903Y010124D01*
X027980Y010047D01*
X027980Y009970D01*
X027673Y009663D01*
X027980Y009663D01*
X027520Y009740D02*
X027520Y010047D01*
X027443Y010124D01*
X027213Y010124D01*
X027213Y009663D01*
X027443Y009663D01*
X027520Y009740D01*
X026645Y011538D02*
X026338Y011538D01*
X026491Y011538D02*
X026491Y011999D01*
X026338Y011845D01*
X017855Y011922D02*
X017855Y011615D01*
X017778Y011538D01*
X017625Y011538D01*
X017548Y011615D01*
X017855Y011922D01*
X017778Y011999D01*
X017625Y011999D01*
X017548Y011922D01*
X017548Y011615D01*
X017395Y011538D02*
X017088Y011538D01*
X017241Y011538D02*
X017241Y011999D01*
X017088Y011845D01*
D13*
X017338Y019593D02*
X017338Y019743D01*
X017413Y019743D01*
X017438Y019718D01*
X017438Y019668D01*
X017413Y019643D01*
X017338Y019643D01*
X017388Y019643D02*
X017438Y019593D01*
X017485Y019593D02*
X017485Y019618D01*
X017585Y019718D01*
X017585Y019743D01*
X017485Y019743D01*
X019438Y019743D02*
X019513Y019743D01*
X019538Y019718D01*
X019538Y019668D01*
X019513Y019643D01*
X019438Y019643D01*
X019438Y019593D02*
X019438Y019743D01*
X019488Y019643D02*
X019538Y019593D01*
X019585Y019618D02*
X019585Y019643D01*
X019610Y019668D01*
X019660Y019668D01*
X019685Y019643D01*
X019685Y019618D01*
X019660Y019593D01*
X019610Y019593D01*
X019585Y019618D01*
X019610Y019668D02*
X019585Y019693D01*
X019585Y019718D01*
X019610Y019743D01*
X019660Y019743D01*
X019685Y019718D01*
X019685Y019693D01*
X019660Y019668D01*
X018416Y021683D02*
X018366Y021683D01*
X018341Y021708D01*
X018293Y021708D02*
X018268Y021683D01*
X018218Y021683D01*
X018193Y021708D01*
X018193Y021808D01*
X018218Y021833D01*
X018268Y021833D01*
X018293Y021808D01*
X018341Y021833D02*
X018341Y021758D01*
X018391Y021783D01*
X018416Y021783D01*
X018441Y021758D01*
X018441Y021708D01*
X018416Y021683D01*
X018441Y021833D02*
X018341Y021833D01*
X012633Y019718D02*
X012532Y019618D01*
X012558Y019593D01*
X012608Y019593D01*
X012633Y019618D01*
X012633Y019718D01*
X012608Y019743D01*
X012558Y019743D01*
X012532Y019718D01*
X012532Y019618D01*
X012485Y019593D02*
X012385Y019593D01*
X012338Y019593D02*
X012288Y019643D01*
X012313Y019643D02*
X012238Y019643D01*
X012238Y019593D02*
X012238Y019743D01*
X012313Y019743D01*
X012338Y019718D01*
X012338Y019668D01*
X012313Y019643D01*
X012385Y019693D02*
X012435Y019743D01*
X012435Y019593D01*
X010385Y019618D02*
X010385Y019718D01*
X010360Y019743D01*
X010310Y019743D01*
X010285Y019718D01*
X010285Y019693D01*
X010310Y019668D01*
X010385Y019668D01*
X010385Y019618D02*
X010360Y019593D01*
X010310Y019593D01*
X010285Y019618D01*
X010238Y019593D02*
X010188Y019643D01*
X010213Y019643D02*
X010138Y019643D01*
X010138Y019593D02*
X010138Y019743D01*
X010213Y019743D01*
X010238Y019718D01*
X010238Y019668D01*
X010213Y019643D01*
X011018Y021683D02*
X011068Y021683D01*
X011093Y021708D01*
X011141Y021708D02*
X011166Y021683D01*
X011216Y021683D01*
X011241Y021708D01*
X011241Y021733D01*
X011216Y021758D01*
X011141Y021758D01*
X011141Y021708D01*
X011141Y021758D02*
X011191Y021808D01*
X011241Y021833D01*
X011093Y021808D02*
X011068Y021833D01*
X011018Y021833D01*
X010993Y021808D01*
X010993Y021708D01*
X011018Y021683D01*
X024538Y019743D02*
X024613Y019743D01*
X024638Y019718D01*
X024638Y019668D01*
X024613Y019643D01*
X024538Y019643D01*
X024538Y019593D02*
X024538Y019743D01*
X024588Y019643D02*
X024638Y019593D01*
X024685Y019618D02*
X024710Y019593D01*
X024760Y019593D01*
X024785Y019618D01*
X024785Y019668D01*
X024760Y019693D01*
X024735Y019693D01*
X024685Y019668D01*
X024685Y019743D01*
X024785Y019743D01*
X026638Y019743D02*
X026713Y019743D01*
X026738Y019718D01*
X026738Y019668D01*
X026713Y019643D01*
X026638Y019643D01*
X026638Y019593D02*
X026638Y019743D01*
X026688Y019643D02*
X026738Y019593D01*
X026785Y019618D02*
X026810Y019593D01*
X026860Y019593D01*
X026885Y019618D01*
X026885Y019643D01*
X026860Y019668D01*
X026785Y019668D01*
X026785Y019618D01*
X026785Y019668D02*
X026835Y019718D01*
X026885Y019743D01*
X025616Y021683D02*
X025616Y021833D01*
X025541Y021758D01*
X025641Y021758D01*
X025493Y021708D02*
X025468Y021683D01*
X025418Y021683D01*
X025393Y021708D01*
X025393Y021808D01*
X025418Y021833D01*
X025468Y021833D01*
X025493Y021808D01*
X031738Y019743D02*
X031813Y019743D01*
X031838Y019718D01*
X031838Y019668D01*
X031813Y019643D01*
X031738Y019643D01*
X031738Y019593D02*
X031738Y019743D01*
X031788Y019643D02*
X031838Y019593D01*
X031885Y019618D02*
X031910Y019593D01*
X031960Y019593D01*
X031985Y019618D01*
X031985Y019643D01*
X031960Y019668D01*
X031935Y019668D01*
X031960Y019668D02*
X031985Y019693D01*
X031985Y019718D01*
X031960Y019743D01*
X031910Y019743D01*
X031885Y019718D01*
X033838Y019743D02*
X033913Y019743D01*
X033938Y019718D01*
X033938Y019668D01*
X033913Y019643D01*
X033838Y019643D01*
X033838Y019593D02*
X033838Y019743D01*
X033888Y019643D02*
X033938Y019593D01*
X033985Y019668D02*
X034085Y019668D01*
X034060Y019593D02*
X034060Y019743D01*
X033985Y019668D01*
X032766Y021683D02*
X032716Y021683D01*
X032691Y021708D01*
X032643Y021708D02*
X032618Y021683D01*
X032568Y021683D01*
X032543Y021708D01*
X032543Y021808D01*
X032568Y021833D01*
X032618Y021833D01*
X032643Y021808D01*
X032691Y021808D02*
X032716Y021833D01*
X032766Y021833D01*
X032791Y021808D01*
X032791Y021783D01*
X032766Y021758D01*
X032791Y021733D01*
X032791Y021708D01*
X032766Y021683D01*
X032766Y021758D02*
X032741Y021758D01*
X038938Y019743D02*
X039013Y019743D01*
X039038Y019718D01*
X039038Y019668D01*
X039013Y019643D01*
X038938Y019643D01*
X038938Y019593D02*
X038938Y019743D01*
X038988Y019643D02*
X039038Y019593D01*
X039085Y019593D02*
X039185Y019593D01*
X039135Y019593D02*
X039135Y019743D01*
X039085Y019693D01*
X041038Y019643D02*
X041113Y019643D01*
X041138Y019668D01*
X041138Y019718D01*
X041113Y019743D01*
X041038Y019743D01*
X041038Y019593D01*
X041088Y019643D02*
X041138Y019593D01*
X041185Y019593D02*
X041285Y019693D01*
X041285Y019718D01*
X041260Y019743D01*
X041210Y019743D01*
X041185Y019718D01*
X041185Y019593D02*
X041285Y019593D01*
X039991Y021683D02*
X039891Y021683D01*
X039991Y021783D01*
X039991Y021808D01*
X039966Y021833D01*
X039916Y021833D01*
X039891Y021808D01*
X039843Y021808D02*
X039818Y021833D01*
X039768Y021833D01*
X039743Y021808D01*
X039743Y021708D01*
X039768Y021683D01*
X039818Y021683D01*
X039843Y021708D01*
X046138Y019743D02*
X046213Y019743D01*
X046238Y019718D01*
X046238Y019668D01*
X046213Y019643D01*
X046138Y019643D01*
X046138Y019593D02*
X046138Y019743D01*
X046188Y019643D02*
X046238Y019593D01*
X046285Y019593D02*
X046385Y019693D01*
X046385Y019718D01*
X046360Y019743D01*
X046310Y019743D01*
X046285Y019718D01*
X046285Y019593D02*
X046385Y019593D01*
X046432Y019593D02*
X046432Y019618D01*
X046533Y019718D01*
X046533Y019743D01*
X046432Y019743D01*
X048238Y019743D02*
X048313Y019743D01*
X048338Y019718D01*
X048338Y019668D01*
X048313Y019643D01*
X048238Y019643D01*
X048238Y019593D02*
X048238Y019743D01*
X048288Y019643D02*
X048338Y019593D01*
X048385Y019593D02*
X048485Y019693D01*
X048485Y019718D01*
X048460Y019743D01*
X048410Y019743D01*
X048385Y019718D01*
X048385Y019593D02*
X048485Y019593D01*
X048532Y019618D02*
X048558Y019593D01*
X048608Y019593D01*
X048633Y019618D01*
X048633Y019718D01*
X048608Y019743D01*
X048558Y019743D01*
X048532Y019718D01*
X048532Y019693D01*
X048558Y019668D01*
X048633Y019668D01*
X047191Y021683D02*
X047091Y021683D01*
X047141Y021683D02*
X047141Y021833D01*
X047091Y021783D01*
X047043Y021808D02*
X047018Y021833D01*
X046968Y021833D01*
X046943Y021808D01*
X046943Y021708D01*
X046968Y021683D01*
X047018Y021683D01*
X047043Y021708D01*
D14*
X034774Y026893D02*
X034776Y026944D01*
X034782Y026995D01*
X034792Y027045D01*
X034805Y027095D01*
X034823Y027143D01*
X034843Y027190D01*
X034868Y027235D01*
X034896Y027278D01*
X034927Y027319D01*
X034961Y027357D01*
X034998Y027392D01*
X035037Y027425D01*
X035079Y027455D01*
X035123Y027481D01*
X035169Y027503D01*
X035217Y027523D01*
X035266Y027538D01*
X035316Y027550D01*
X035366Y027558D01*
X035417Y027562D01*
X035469Y027562D01*
X035520Y027558D01*
X035570Y027550D01*
X035620Y027538D01*
X035669Y027523D01*
X035717Y027503D01*
X035763Y027481D01*
X035807Y027455D01*
X035849Y027425D01*
X035888Y027392D01*
X035925Y027357D01*
X035959Y027319D01*
X035990Y027278D01*
X036018Y027235D01*
X036043Y027190D01*
X036063Y027143D01*
X036081Y027095D01*
X036094Y027045D01*
X036104Y026995D01*
X036110Y026944D01*
X036112Y026893D01*
X036110Y026842D01*
X036104Y026791D01*
X036094Y026741D01*
X036081Y026691D01*
X036063Y026643D01*
X036043Y026596D01*
X036018Y026551D01*
X035990Y026508D01*
X035959Y026467D01*
X035925Y026429D01*
X035888Y026394D01*
X035849Y026361D01*
X035807Y026331D01*
X035763Y026305D01*
X035717Y026283D01*
X035669Y026263D01*
X035620Y026248D01*
X035570Y026236D01*
X035520Y026228D01*
X035469Y026224D01*
X035417Y026224D01*
X035366Y026228D01*
X035316Y026236D01*
X035266Y026248D01*
X035217Y026263D01*
X035169Y026283D01*
X035123Y026305D01*
X035079Y026331D01*
X035037Y026361D01*
X034998Y026394D01*
X034961Y026429D01*
X034927Y026467D01*
X034896Y026508D01*
X034868Y026551D01*
X034843Y026596D01*
X034823Y026643D01*
X034805Y026691D01*
X034792Y026741D01*
X034782Y026791D01*
X034776Y026842D01*
X034774Y026893D01*
D15*
X035158Y021663D02*
X035160Y021685D01*
X035166Y021706D01*
X035175Y021725D01*
X035187Y021743D01*
X035203Y021759D01*
X035220Y021771D01*
X035240Y021780D01*
X035261Y021786D01*
X035283Y021788D01*
X035305Y021786D01*
X035326Y021780D01*
X035345Y021771D01*
X035363Y021759D01*
X035379Y021743D01*
X035391Y021725D01*
X035400Y021706D01*
X035406Y021685D01*
X035408Y021663D01*
X035406Y021641D01*
X035400Y021620D01*
X035391Y021601D01*
X035379Y021583D01*
X035363Y021567D01*
X035346Y021555D01*
X035326Y021546D01*
X035305Y021540D01*
X035283Y021538D01*
X035261Y021540D01*
X035240Y021546D01*
X035220Y021555D01*
X035203Y021567D01*
X035187Y021583D01*
X035175Y021600D01*
X035166Y021620D01*
X035160Y021641D01*
X035158Y021663D01*
X042358Y021663D02*
X042360Y021685D01*
X042366Y021706D01*
X042375Y021725D01*
X042387Y021743D01*
X042403Y021759D01*
X042420Y021771D01*
X042440Y021780D01*
X042461Y021786D01*
X042483Y021788D01*
X042505Y021786D01*
X042526Y021780D01*
X042545Y021771D01*
X042563Y021759D01*
X042579Y021743D01*
X042591Y021725D01*
X042600Y021706D01*
X042606Y021685D01*
X042608Y021663D01*
X042606Y021641D01*
X042600Y021620D01*
X042591Y021601D01*
X042579Y021583D01*
X042563Y021567D01*
X042546Y021555D01*
X042526Y021546D01*
X042505Y021540D01*
X042483Y021538D01*
X042461Y021540D01*
X042440Y021546D01*
X042420Y021555D01*
X042403Y021567D01*
X042387Y021583D01*
X042375Y021600D01*
X042366Y021620D01*
X042360Y021641D01*
X042358Y021663D01*
X049558Y021663D02*
X049560Y021685D01*
X049566Y021706D01*
X049575Y021725D01*
X049587Y021743D01*
X049603Y021759D01*
X049620Y021771D01*
X049640Y021780D01*
X049661Y021786D01*
X049683Y021788D01*
X049705Y021786D01*
X049726Y021780D01*
X049745Y021771D01*
X049763Y021759D01*
X049779Y021743D01*
X049791Y021725D01*
X049800Y021706D01*
X049806Y021685D01*
X049808Y021663D01*
X049806Y021641D01*
X049800Y021620D01*
X049791Y021601D01*
X049779Y021583D01*
X049763Y021567D01*
X049746Y021555D01*
X049726Y021546D01*
X049705Y021540D01*
X049683Y021538D01*
X049661Y021540D01*
X049640Y021546D01*
X049620Y021555D01*
X049603Y021567D01*
X049587Y021583D01*
X049575Y021600D01*
X049566Y021620D01*
X049560Y021641D01*
X049558Y021663D01*
X027958Y021663D02*
X027960Y021685D01*
X027966Y021706D01*
X027975Y021725D01*
X027987Y021743D01*
X028003Y021759D01*
X028020Y021771D01*
X028040Y021780D01*
X028061Y021786D01*
X028083Y021788D01*
X028105Y021786D01*
X028126Y021780D01*
X028145Y021771D01*
X028163Y021759D01*
X028179Y021743D01*
X028191Y021725D01*
X028200Y021706D01*
X028206Y021685D01*
X028208Y021663D01*
X028206Y021641D01*
X028200Y021620D01*
X028191Y021601D01*
X028179Y021583D01*
X028163Y021567D01*
X028146Y021555D01*
X028126Y021546D01*
X028105Y021540D01*
X028083Y021538D01*
X028061Y021540D01*
X028040Y021546D01*
X028020Y021555D01*
X028003Y021567D01*
X027987Y021583D01*
X027975Y021600D01*
X027966Y021620D01*
X027960Y021641D01*
X027958Y021663D01*
X020758Y021663D02*
X020760Y021685D01*
X020766Y021706D01*
X020775Y021725D01*
X020787Y021743D01*
X020803Y021759D01*
X020820Y021771D01*
X020840Y021780D01*
X020861Y021786D01*
X020883Y021788D01*
X020905Y021786D01*
X020926Y021780D01*
X020945Y021771D01*
X020963Y021759D01*
X020979Y021743D01*
X020991Y021725D01*
X021000Y021706D01*
X021006Y021685D01*
X021008Y021663D01*
X021006Y021641D01*
X021000Y021620D01*
X020991Y021601D01*
X020979Y021583D01*
X020963Y021567D01*
X020946Y021555D01*
X020926Y021546D01*
X020905Y021540D01*
X020883Y021538D01*
X020861Y021540D01*
X020840Y021546D01*
X020820Y021555D01*
X020803Y021567D01*
X020787Y021583D01*
X020775Y021600D01*
X020766Y021620D01*
X020760Y021641D01*
X020758Y021663D01*
X013558Y021663D02*
X013560Y021685D01*
X013566Y021706D01*
X013575Y021725D01*
X013587Y021743D01*
X013603Y021759D01*
X013620Y021771D01*
X013640Y021780D01*
X013661Y021786D01*
X013683Y021788D01*
X013705Y021786D01*
X013726Y021780D01*
X013745Y021771D01*
X013763Y021759D01*
X013779Y021743D01*
X013791Y021725D01*
X013800Y021706D01*
X013806Y021685D01*
X013808Y021663D01*
X013806Y021641D01*
X013800Y021620D01*
X013791Y021601D01*
X013779Y021583D01*
X013763Y021567D01*
X013746Y021555D01*
X013726Y021546D01*
X013705Y021540D01*
X013683Y021538D01*
X013661Y021540D01*
X013640Y021546D01*
X013620Y021555D01*
X013603Y021567D01*
X013587Y021583D01*
X013575Y021600D01*
X013566Y021620D01*
X013560Y021641D01*
X013558Y021663D01*
D16*
X036851Y023941D03*
X037001Y023941D03*
X037121Y023845D03*
X037029Y023645D03*
X037411Y023351D03*
X037595Y023177D03*
X037627Y023175D03*
X037951Y023827D03*
X038881Y025395D03*
X039201Y026217D03*
D17*
X038882Y025397D03*
X036924Y024037D03*
X036924Y024035D03*
X036924Y024031D03*
X036850Y023945D03*
X037002Y023945D03*
X037120Y023847D03*
X036914Y023737D03*
X036914Y023735D03*
X037954Y023831D03*
X037960Y023837D03*
X037696Y023271D03*
X037650Y023177D03*
D18*
X037586Y023179D03*
X037946Y023823D03*
X037122Y023839D03*
X037122Y023843D03*
X037000Y023939D03*
X036852Y023933D03*
X038886Y025403D03*
D19*
X038923Y025473D03*
X039083Y026009D03*
X039403Y026323D03*
X039413Y026343D03*
X037203Y023639D03*
X037223Y023593D03*
X037233Y023573D03*
X037243Y023553D03*
X036963Y023759D03*
X036893Y023739D03*
X037623Y023179D03*
D20*
X037659Y023179D03*
X037509Y023389D03*
X037953Y023829D03*
X036851Y023939D03*
X036851Y023943D03*
X038883Y025399D03*
D21*
X038887Y025407D03*
X038889Y025411D03*
X036925Y024021D03*
X036925Y024017D03*
X036925Y024015D03*
X036925Y024011D03*
X036925Y024007D03*
X036925Y024005D03*
X036925Y024001D03*
X036999Y023935D03*
X036997Y023931D03*
X036853Y023931D03*
X036853Y023927D03*
X037577Y023181D03*
X037939Y023815D03*
X037941Y023817D03*
X037945Y023821D03*
D22*
X037072Y023557D03*
X036982Y023527D03*
X036982Y023525D03*
X036980Y023531D03*
X036962Y023575D03*
X036962Y023577D03*
X036960Y023581D03*
X036970Y023711D03*
X036970Y023715D03*
X037622Y023181D03*
X039150Y025391D03*
X038952Y025527D03*
X038954Y025531D03*
X038990Y025641D03*
X039014Y025861D03*
X039016Y025865D03*
X039306Y026127D03*
X039308Y026131D03*
X039310Y026135D03*
X039498Y025615D03*
X039366Y025511D03*
X040036Y026827D03*
X040040Y026831D03*
X040044Y026835D03*
X040046Y026837D03*
X040050Y026841D03*
X040054Y026845D03*
X040404Y027091D03*
X040424Y027097D03*
D23*
X039196Y026215D03*
X038886Y025405D03*
X038884Y025401D03*
X036924Y024025D03*
X036852Y023937D03*
X036852Y023935D03*
X037000Y023937D03*
X037122Y023841D03*
X037948Y023825D03*
X037670Y023181D03*
X037560Y023185D03*
D24*
X037569Y023183D03*
X037681Y023183D03*
X037943Y023819D03*
X036999Y023933D03*
X036997Y023929D03*
X036925Y023999D03*
X036925Y024003D03*
X036925Y024009D03*
X036925Y024013D03*
X036925Y024019D03*
X036925Y024023D03*
X036853Y023929D03*
X038889Y025409D03*
D25*
X038977Y025573D03*
X038969Y025759D03*
X038971Y025763D03*
X039217Y025939D03*
X039219Y025943D03*
X039227Y025959D03*
X039305Y025453D03*
X039301Y025449D03*
X039169Y025213D03*
X039867Y026619D03*
X039869Y026623D03*
X036975Y023679D03*
X036939Y023659D03*
X037151Y023489D03*
X037621Y023183D03*
D26*
X037617Y023185D03*
X039155Y025431D03*
X039227Y025381D03*
X039125Y025745D03*
X039127Y025747D03*
X039131Y025757D03*
X039135Y025765D03*
X039135Y025767D03*
X039137Y025771D03*
X039711Y026401D03*
X039715Y026407D03*
X039717Y026411D03*
X039721Y026417D03*
X039731Y026431D03*
D27*
X038879Y025391D03*
X038877Y025387D03*
X036923Y024057D03*
X036923Y024055D03*
X036923Y024047D03*
X036923Y024045D03*
X036923Y024041D03*
X036923Y024027D03*
X036957Y023887D03*
X036983Y023801D03*
X036923Y023711D03*
X037047Y023475D03*
X037063Y023461D03*
X037687Y023267D03*
X037703Y023275D03*
X037713Y023281D03*
X037689Y023185D03*
D28*
X037631Y023187D03*
X037515Y023247D03*
X039151Y025135D03*
X039365Y025861D03*
X039371Y025871D03*
X039375Y025877D03*
D29*
X039321Y025789D03*
X039317Y025783D03*
X039311Y025773D03*
X039309Y025769D03*
X039291Y025739D03*
X037631Y023189D03*
D30*
X037630Y023191D03*
X037504Y023517D03*
X039162Y025501D03*
X039040Y025627D03*
X039042Y025635D03*
X039260Y025687D03*
X039262Y025691D03*
X039264Y025695D03*
X037944Y026207D03*
D31*
X039161Y025513D03*
X039215Y025609D03*
X039217Y025613D03*
X039221Y025619D03*
X039139Y025093D03*
X037541Y023549D03*
X037631Y023193D03*
D32*
X037630Y023195D03*
X037542Y023725D03*
X039136Y025081D03*
X039160Y025521D03*
D33*
X037135Y023397D03*
X037629Y023197D03*
D34*
X037627Y023199D03*
X037201Y023359D03*
D35*
X037125Y023411D03*
X037405Y023277D03*
X037627Y023201D03*
X039127Y025047D03*
D36*
X039121Y025029D03*
X039159Y025553D03*
X037639Y023379D03*
X037625Y023203D03*
D37*
X037625Y023205D03*
X038287Y023711D03*
X039117Y025015D03*
X039117Y025017D03*
D38*
X039113Y025005D03*
X037625Y023207D03*
D39*
X037626Y023209D03*
X038300Y023719D03*
D40*
X038309Y023725D03*
X037627Y023211D03*
D41*
X037627Y023213D03*
X038315Y023729D03*
X039103Y024973D03*
D42*
X039101Y024967D03*
X039101Y024965D03*
X038317Y023731D03*
X037627Y023215D03*
D43*
X037628Y023217D03*
X038324Y023735D03*
X039098Y024957D03*
D44*
X037389Y023289D03*
X037629Y023219D03*
D45*
X037630Y023221D03*
D46*
X037629Y023223D03*
X039091Y024933D03*
D47*
X039088Y024925D03*
X037628Y023225D03*
D48*
X037627Y023227D03*
X037515Y023765D03*
X039085Y024915D03*
X039085Y024917D03*
D49*
X037965Y023633D03*
X037957Y023623D03*
X037387Y023293D03*
X037627Y023229D03*
D50*
X037627Y023231D03*
X037943Y023605D03*
X037945Y023607D03*
X039081Y024905D03*
D51*
X039077Y024893D03*
X037627Y023233D03*
D52*
X037626Y023235D03*
X037920Y023581D03*
D53*
X037627Y023237D03*
X037387Y023297D03*
X039069Y024871D03*
D54*
X037628Y023239D03*
D55*
X037629Y023241D03*
X037893Y023555D03*
X039063Y024855D03*
D56*
X039061Y024849D03*
X037891Y023553D03*
X037627Y023243D03*
X037235Y023383D03*
D57*
X037628Y023245D03*
X039058Y024841D03*
X037944Y026197D03*
D58*
X039161Y025511D03*
X039213Y025605D03*
X039219Y025615D03*
X039219Y025617D03*
X039223Y025621D03*
X039225Y025625D03*
X039139Y025091D03*
X037539Y023547D03*
X037537Y023545D03*
X037465Y023487D03*
X037719Y023247D03*
D59*
X037778Y023279D03*
X037788Y023289D03*
X037792Y023293D03*
X037916Y023423D03*
X037506Y023249D03*
X037080Y023413D03*
X039154Y025149D03*
X039158Y025463D03*
X039466Y026023D03*
X039470Y026029D03*
X039472Y026033D03*
X039476Y026039D03*
X039478Y026043D03*
D60*
X039263Y025693D03*
X039037Y025619D03*
X037729Y023249D03*
D61*
X037851Y023347D03*
X037855Y023351D03*
X037861Y023357D03*
X037871Y023367D03*
X037875Y023371D03*
X037881Y023377D03*
X037885Y023381D03*
X037501Y023251D03*
X036961Y023665D03*
X039195Y025361D03*
X039511Y026097D03*
X039521Y026111D03*
D62*
X039331Y025807D03*
X039147Y025125D03*
X037737Y023251D03*
D63*
X037823Y023319D03*
X037497Y023253D03*
X037065Y023423D03*
X037563Y023703D03*
X039157Y025163D03*
X039195Y025359D03*
X039157Y025453D03*
X039537Y026139D03*
X039547Y026153D03*
X039551Y026159D03*
D64*
X039348Y025833D03*
X039342Y025823D03*
X037552Y023713D03*
X037742Y023253D03*
D65*
X037491Y023255D03*
X037579Y023697D03*
X039159Y025167D03*
X039157Y025451D03*
X039569Y026187D03*
X039571Y026191D03*
X039575Y026197D03*
X039577Y026201D03*
D66*
X039353Y025841D03*
X039351Y025837D03*
X039349Y025835D03*
X039347Y025831D03*
X039149Y025131D03*
X037747Y023257D03*
X037745Y023255D03*
D67*
X037486Y023257D03*
X037474Y023265D03*
X037472Y023267D03*
X039160Y025175D03*
X039192Y025351D03*
X039156Y025445D03*
X039614Y026257D03*
X039616Y026261D03*
X039628Y026277D03*
D68*
X039618Y026263D03*
X039616Y026259D03*
X039612Y026253D03*
X039156Y025443D03*
X039160Y025173D03*
X037600Y023689D03*
X037056Y023429D03*
X037476Y023263D03*
X037480Y023259D03*
D69*
X037750Y023259D03*
X039150Y025133D03*
X039354Y025843D03*
X039360Y025853D03*
X039364Y025859D03*
X039366Y025863D03*
X039370Y025869D03*
D70*
X039619Y026265D03*
X039621Y026267D03*
X039623Y026271D03*
X039627Y026275D03*
X039631Y026281D03*
X039633Y026285D03*
X039635Y026287D03*
X039637Y026291D03*
X039639Y026295D03*
X039641Y026297D03*
X039647Y026307D03*
X039161Y025177D03*
X037605Y023687D03*
X037477Y023261D03*
D71*
X037752Y023261D03*
X037660Y023675D03*
X039160Y025481D03*
X039356Y025845D03*
X039356Y025847D03*
X039362Y025855D03*
D72*
X037755Y023263D03*
D73*
X037758Y023265D03*
X037928Y023451D03*
X039150Y025137D03*
X039160Y025477D03*
X039380Y025885D03*
X039380Y025887D03*
X039382Y025891D03*
X039386Y025895D03*
X039386Y025897D03*
X039390Y025901D03*
X039392Y025905D03*
X039394Y025907D03*
X039396Y025911D03*
X039402Y025921D03*
D74*
X039405Y025925D03*
X039407Y025927D03*
X039409Y025931D03*
X039411Y025935D03*
X039399Y025917D03*
X039399Y025915D03*
X039159Y025475D03*
X037761Y023267D03*
D75*
X037465Y023269D03*
X039557Y026169D03*
X039577Y026199D03*
X039579Y026203D03*
D76*
X039564Y026579D03*
X038880Y025393D03*
X036924Y024039D03*
X036924Y024033D03*
X037002Y023943D03*
X037956Y023833D03*
X037716Y023283D03*
X037692Y023269D03*
D77*
X037766Y023269D03*
X039446Y025993D03*
X039450Y025999D03*
D78*
X039235Y025641D03*
X039231Y025635D03*
X039141Y025097D03*
X037545Y023721D03*
X037431Y023271D03*
D79*
X037768Y023271D03*
X037924Y023437D03*
X039154Y025147D03*
D80*
X037539Y023729D03*
X037413Y023273D03*
D81*
X037701Y023273D03*
X037161Y023449D03*
X037065Y023459D03*
X037045Y023479D03*
X037961Y023839D03*
D82*
X037921Y023433D03*
X037919Y023429D03*
X037771Y023273D03*
X039457Y026009D03*
X039459Y026013D03*
X039463Y026019D03*
D83*
X039160Y025537D03*
X039128Y025055D03*
X037408Y023275D03*
D84*
X037773Y023275D03*
X037775Y023277D03*
X037783Y023285D03*
X037785Y023287D03*
X037917Y023425D03*
X037921Y023431D03*
X037923Y023435D03*
X037649Y023677D03*
X039159Y025467D03*
X039453Y026005D03*
X039455Y026007D03*
D85*
X037401Y023279D03*
D86*
X037709Y023279D03*
X037059Y023463D03*
X036923Y023709D03*
X036913Y023739D03*
X036983Y023799D03*
X036983Y023803D03*
X036957Y023889D03*
X036923Y024029D03*
X036923Y024043D03*
X036923Y024049D03*
X038877Y025389D03*
X039203Y026219D03*
D87*
X039114Y025007D03*
X038294Y023715D03*
X037392Y023281D03*
D88*
X037780Y023281D03*
X037790Y023291D03*
X037914Y023421D03*
X037918Y023427D03*
X039154Y025151D03*
X039158Y025465D03*
X039458Y026011D03*
X039460Y026015D03*
X039462Y026017D03*
X039464Y026021D03*
X039468Y026025D03*
X039468Y026027D03*
X039472Y026031D03*
X039474Y026035D03*
X039474Y026037D03*
X039480Y026047D03*
D89*
X039110Y024993D03*
X038196Y023683D03*
X037388Y023283D03*
D90*
X037783Y023283D03*
X037799Y023299D03*
X037893Y023389D03*
X037901Y023399D03*
X037913Y023419D03*
X039155Y025153D03*
X039481Y026049D03*
X039483Y026053D03*
X039487Y026059D03*
X039491Y026063D03*
D91*
X039159Y025585D03*
X039105Y024977D03*
X037387Y023285D03*
D92*
X037388Y023287D03*
D93*
X037390Y023291D03*
X038338Y023745D03*
X039092Y024937D03*
D94*
X039076Y024891D03*
X037958Y023635D03*
X037512Y023771D03*
X037228Y023377D03*
X037386Y023295D03*
D95*
X037077Y023415D03*
X037795Y023295D03*
X037797Y023297D03*
X037891Y023385D03*
X037895Y023391D03*
X037897Y023395D03*
X037899Y023397D03*
X037913Y023417D03*
X039477Y026041D03*
X039479Y026045D03*
X039483Y026051D03*
X039485Y026055D03*
X039487Y026057D03*
X039489Y026061D03*
X039493Y026067D03*
X039501Y026081D03*
D96*
X037899Y023559D03*
X037389Y023299D03*
D97*
X037390Y023301D03*
X038392Y023787D03*
X039060Y024845D03*
X039060Y024847D03*
D98*
X039156Y025155D03*
X039156Y025157D03*
X039492Y026065D03*
X039496Y026071D03*
X039504Y026085D03*
X039504Y026087D03*
X037912Y023415D03*
X037910Y023411D03*
X037906Y023405D03*
X037902Y023401D03*
X037892Y023387D03*
X037806Y023305D03*
X037802Y023301D03*
X037074Y023417D03*
D99*
X037391Y023303D03*
X037509Y023349D03*
X037875Y023539D03*
X039053Y024829D03*
D100*
X039494Y026069D03*
X039496Y026073D03*
X039500Y026079D03*
X039502Y026083D03*
X039506Y026089D03*
X037904Y023403D03*
X037896Y023393D03*
X037804Y023303D03*
D101*
X037853Y023521D03*
X037387Y023305D03*
X038425Y023815D03*
X039041Y024795D03*
X039041Y024797D03*
D102*
X039033Y024777D03*
X039033Y024775D03*
X037499Y023797D03*
X037387Y023307D03*
D103*
X037809Y023307D03*
X037813Y023311D03*
X037859Y023355D03*
X037879Y023375D03*
X037907Y023407D03*
X039157Y025457D03*
X039509Y026095D03*
X039517Y026105D03*
X039517Y026107D03*
X039523Y026115D03*
X039529Y026125D03*
D104*
X037387Y023309D03*
D105*
X037071Y023419D03*
X036961Y023663D03*
X037811Y023309D03*
X037911Y023413D03*
X039515Y026103D03*
X039521Y026113D03*
X039525Y026119D03*
D106*
X039020Y024745D03*
X038458Y023845D03*
X037824Y023501D03*
X037388Y023311D03*
D107*
X037390Y023313D03*
X039014Y024729D03*
D108*
X039156Y025159D03*
X039528Y026123D03*
X039532Y026129D03*
X039534Y026133D03*
X039540Y026143D03*
X039544Y026149D03*
X037548Y023709D03*
X037868Y023363D03*
X037864Y023359D03*
X037848Y023343D03*
X037844Y023339D03*
X037838Y023333D03*
X037834Y023329D03*
X037828Y023323D03*
X037816Y023313D03*
D109*
X037392Y023315D03*
X038478Y023865D03*
X039008Y024715D03*
D110*
X037558Y023705D03*
X037554Y023707D03*
X037870Y023365D03*
X037866Y023361D03*
X037850Y023345D03*
X037846Y023341D03*
X037842Y023337D03*
X037840Y023335D03*
X037836Y023331D03*
X037832Y023327D03*
X037830Y023325D03*
X037826Y023321D03*
X037818Y023315D03*
X037068Y023421D03*
X036962Y023661D03*
X036960Y023667D03*
X036958Y023671D03*
X039514Y026101D03*
X039524Y026117D03*
X039526Y026121D03*
X039530Y026127D03*
X039546Y026151D03*
X039548Y026155D03*
D111*
X038995Y024685D03*
X037391Y023317D03*
D112*
X037821Y023317D03*
X039157Y025161D03*
X039157Y025455D03*
X039533Y026131D03*
X039535Y026135D03*
X039537Y026137D03*
X039539Y026141D03*
X039541Y026145D03*
X039543Y026147D03*
X039549Y026157D03*
D113*
X038988Y024669D03*
X037392Y023319D03*
D114*
X037392Y023321D03*
X038980Y024651D03*
D115*
X038533Y023923D03*
X037393Y023323D03*
D116*
X037394Y023325D03*
X037486Y023831D03*
X038550Y023941D03*
X038960Y024607D03*
X037944Y026187D03*
D117*
X038947Y024581D03*
X038567Y023961D03*
X037485Y023835D03*
X037395Y023327D03*
D118*
X037395Y023329D03*
X038585Y023983D03*
D119*
X038605Y024007D03*
X038921Y024527D03*
X037397Y023331D03*
D120*
X037397Y023333D03*
X038617Y024023D03*
X038909Y024503D03*
D121*
X038898Y024481D03*
X038894Y024475D03*
X038644Y024057D03*
X038642Y024055D03*
X037398Y023335D03*
D122*
X037399Y023337D03*
X037523Y023405D03*
X038657Y024075D03*
X038659Y024077D03*
X038661Y024081D03*
X038881Y024447D03*
X038883Y024451D03*
X038885Y024455D03*
D123*
X038859Y024403D03*
X038857Y024399D03*
X038681Y024109D03*
X038677Y024103D03*
X037399Y023339D03*
D124*
X037399Y023341D03*
X037525Y023411D03*
X037477Y023861D03*
X038717Y024161D03*
X038719Y024165D03*
X038721Y024167D03*
X038829Y024347D03*
X038831Y024351D03*
D125*
X038802Y024299D03*
X038796Y024289D03*
X038790Y024279D03*
X038784Y024269D03*
X038778Y024259D03*
X038772Y024249D03*
X038766Y024239D03*
X038760Y024229D03*
X038754Y024219D03*
X037476Y023863D03*
X037400Y023343D03*
X037944Y026179D03*
D126*
X037401Y023345D03*
D127*
X037213Y023347D03*
X039133Y025071D03*
D128*
X039053Y024827D03*
X037505Y023785D03*
X037505Y023347D03*
X037873Y023537D03*
D129*
X037211Y023349D03*
D130*
X036959Y023669D03*
X037853Y023349D03*
X037857Y023353D03*
X037873Y023369D03*
X037877Y023373D03*
X037883Y023379D03*
X037909Y023409D03*
X039157Y025459D03*
X039509Y026093D03*
X039513Y026099D03*
X039519Y026109D03*
D131*
X039160Y025527D03*
X039132Y025067D03*
X037540Y023727D03*
X037208Y023351D03*
D132*
X037365Y023351D03*
X037141Y023495D03*
X037131Y023505D03*
X039169Y025211D03*
X039185Y025325D03*
X039307Y025455D03*
X038979Y025577D03*
X038977Y025575D03*
X038969Y025757D03*
X039211Y025927D03*
X039215Y025935D03*
X039221Y025947D03*
X039225Y025955D03*
X039225Y025957D03*
X039227Y025961D03*
X039861Y026611D03*
X039865Y026617D03*
X039869Y026621D03*
X039871Y026625D03*
D133*
X037560Y023351D03*
D134*
X037206Y023353D03*
X037130Y023399D03*
X039132Y025069D03*
X039160Y025529D03*
D135*
X039323Y025469D03*
X038971Y025563D03*
X038969Y025559D03*
X038961Y025733D03*
X038981Y025783D03*
X038983Y025789D03*
X039231Y025969D03*
X039233Y025973D03*
X039239Y025983D03*
X039241Y025989D03*
X039889Y026649D03*
X039893Y026653D03*
X039897Y026659D03*
X039901Y026663D03*
X039905Y026669D03*
X037819Y023693D03*
X037815Y023689D03*
X037811Y023683D03*
X037365Y023353D03*
X037199Y023413D03*
X037127Y023509D03*
X036943Y023643D03*
X036941Y023649D03*
X036939Y023653D03*
D136*
X037569Y023353D03*
X039107Y024983D03*
X039159Y025583D03*
D137*
X037205Y023355D03*
X037127Y023401D03*
D138*
X037125Y023511D03*
X037009Y023477D03*
X037009Y023475D03*
X036941Y023647D03*
X036941Y023651D03*
X036939Y023655D03*
X036939Y023657D03*
X036973Y023687D03*
X037365Y023355D03*
X037803Y023675D03*
X037805Y023677D03*
X037809Y023681D03*
X037813Y023685D03*
X037815Y023687D03*
X037817Y023691D03*
X039169Y025215D03*
X039321Y025467D03*
X038973Y025567D03*
X038977Y025777D03*
X038979Y025781D03*
X038981Y025785D03*
X039235Y025977D03*
X039237Y025981D03*
X039239Y025985D03*
X039891Y026651D03*
X039895Y026655D03*
X039895Y026657D03*
X039899Y026661D03*
X039901Y026665D03*
X039903Y026667D03*
X039907Y026671D03*
D139*
X039158Y025577D03*
X039110Y024991D03*
X038302Y023721D03*
X037526Y023747D03*
X037576Y023355D03*
D140*
X037203Y023357D03*
D141*
X037360Y023365D03*
X037364Y023357D03*
X037006Y023481D03*
X036944Y023637D03*
X036944Y023641D03*
X036942Y023645D03*
X039170Y025217D03*
X039184Y025321D03*
X039152Y025405D03*
X039324Y025471D03*
X039328Y025475D03*
X038970Y025561D03*
X038968Y025557D03*
X038962Y025731D03*
X038982Y025787D03*
X038984Y025791D03*
X038986Y025795D03*
X038986Y025797D03*
X038988Y025801D03*
X039240Y025987D03*
X039242Y025991D03*
X039244Y025995D03*
X039244Y025997D03*
X039246Y026001D03*
X039248Y026005D03*
X039254Y026017D03*
X039256Y026021D03*
X039910Y026675D03*
X039912Y026677D03*
X039914Y026681D03*
X039918Y026685D03*
X039920Y026687D03*
X039922Y026691D03*
X039928Y026697D03*
X039934Y026705D03*
D142*
X037583Y023357D03*
D143*
X037364Y023359D03*
X037362Y023363D03*
X037124Y023513D03*
X037008Y023479D03*
X036944Y023639D03*
X036974Y023689D03*
X039152Y025403D03*
X039326Y025473D03*
X038984Y025793D03*
X039242Y025993D03*
X039246Y025999D03*
X039250Y026009D03*
X039252Y026013D03*
X039908Y026673D03*
X039912Y026679D03*
X039916Y026683D03*
X039924Y026693D03*
X039932Y026703D03*
D144*
X037590Y023359D03*
D145*
X037199Y023361D03*
X039127Y025051D03*
D146*
X039171Y025221D03*
X039151Y025401D03*
X039331Y025477D03*
X039335Y025481D03*
X038967Y025555D03*
X038965Y025551D03*
X038989Y025805D03*
X038991Y025807D03*
X039249Y026007D03*
X039251Y026011D03*
X039253Y026015D03*
X039257Y026025D03*
X039259Y026027D03*
X039261Y026031D03*
X039263Y026035D03*
X039925Y026695D03*
X039931Y026701D03*
X039935Y026707D03*
X039939Y026711D03*
X039941Y026715D03*
X039943Y026717D03*
X039947Y026721D03*
X039955Y026731D03*
X039963Y026741D03*
X036973Y023697D03*
X036973Y023695D03*
X036973Y023691D03*
X036945Y023635D03*
X036947Y023631D03*
X036947Y023627D03*
X036949Y023621D03*
X037003Y023485D03*
X037119Y023517D03*
X037121Y023515D03*
X037363Y023361D03*
D147*
X037596Y023361D03*
X037530Y023741D03*
D148*
X037197Y023363D03*
X039125Y025043D03*
D149*
X039118Y025019D03*
X037650Y023389D03*
X037602Y023363D03*
D150*
X037534Y023735D03*
X037196Y023365D03*
X039160Y025547D03*
X037944Y026205D03*
D151*
X039160Y025561D03*
X037608Y023365D03*
D152*
X037648Y023385D03*
X037196Y023367D03*
X038234Y023691D03*
X038280Y023707D03*
X039120Y025027D03*
D153*
X039152Y025407D03*
X039314Y025461D03*
X039318Y025465D03*
X038972Y025565D03*
X038972Y025765D03*
X038972Y025767D03*
X038974Y025771D03*
X039232Y025971D03*
X039234Y025975D03*
X039878Y026635D03*
X039888Y026647D03*
X036974Y023685D03*
X036974Y023681D03*
X037128Y023507D03*
X037358Y023367D03*
D154*
X037613Y023367D03*
D155*
X037236Y023369D03*
D156*
X037618Y023369D03*
X038284Y023709D03*
D157*
X038354Y023757D03*
X037956Y023621D03*
X037952Y023617D03*
X037952Y023615D03*
X037948Y023611D03*
X037514Y023767D03*
X037234Y023371D03*
X039082Y024907D03*
D158*
X037622Y023371D03*
D159*
X037233Y023373D03*
X037947Y023609D03*
X038357Y023759D03*
D160*
X037627Y023373D03*
D161*
X037230Y023375D03*
D162*
X037631Y023375D03*
X037635Y023377D03*
X037649Y023387D03*
X039159Y025555D03*
X039159Y025557D03*
D163*
X037918Y023579D03*
X037230Y023379D03*
D164*
X037231Y023381D03*
X037905Y023567D03*
D165*
X037643Y023381D03*
X037533Y023737D03*
X039121Y025031D03*
D166*
X039122Y025033D03*
X037646Y023383D03*
D167*
X037888Y023383D03*
D168*
X037500Y023795D03*
X037250Y023385D03*
X039036Y024785D03*
D169*
X039026Y024757D03*
X037498Y023801D03*
X037832Y023505D03*
X037254Y023387D03*
D170*
X037271Y023389D03*
X038997Y024689D03*
D171*
X037408Y023391D03*
D172*
X037409Y023393D03*
X037459Y023943D03*
D173*
X037138Y023395D03*
X039134Y025075D03*
D174*
X038900Y024485D03*
X038636Y024047D03*
X038634Y024045D03*
X038632Y024041D03*
X037512Y023395D03*
D175*
X037515Y023397D03*
X037479Y023851D03*
X038639Y024051D03*
X038901Y024487D03*
D176*
X038899Y024483D03*
X038897Y024479D03*
X038637Y024049D03*
X037517Y023399D03*
D177*
X037519Y023401D03*
X038647Y024061D03*
X038649Y024065D03*
X038651Y024067D03*
X038891Y024467D03*
D178*
X037126Y023403D03*
D179*
X037521Y023403D03*
X037479Y023853D03*
X038645Y024059D03*
X038889Y024463D03*
D180*
X037125Y023405D03*
D181*
X037124Y023407D03*
X039130Y025061D03*
X039160Y025535D03*
D182*
X037944Y026181D03*
X038870Y024425D03*
X038866Y024417D03*
X038680Y024107D03*
X038676Y024101D03*
X037524Y023407D03*
D183*
X037125Y023409D03*
X038267Y023699D03*
D184*
X038684Y024113D03*
X038688Y024119D03*
X038698Y024133D03*
X038852Y024389D03*
X038854Y024393D03*
X037524Y023409D03*
D185*
X037521Y023413D03*
D186*
X037499Y023421D03*
X037491Y023415D03*
X037879Y023651D03*
X037467Y023897D03*
D187*
X037494Y023417D03*
D188*
X037497Y023419D03*
D189*
X037502Y023423D03*
D190*
X037568Y023701D03*
X037062Y023425D03*
X039158Y025165D03*
X039194Y025357D03*
X039552Y026161D03*
X039554Y026165D03*
X039556Y026167D03*
X039558Y026171D03*
X039560Y026175D03*
X039562Y026177D03*
X039564Y026181D03*
X039568Y026185D03*
D191*
X037503Y023425D03*
D192*
X037595Y023691D03*
X037059Y023427D03*
X039159Y025171D03*
X039587Y026217D03*
X039591Y026221D03*
X039593Y026225D03*
X039595Y026227D03*
X039597Y026231D03*
X039599Y026235D03*
X039601Y026237D03*
X039607Y026245D03*
X039609Y026247D03*
X039611Y026251D03*
X039613Y026255D03*
D193*
X037504Y023427D03*
D194*
X037506Y023429D03*
X037944Y026169D03*
D195*
X039074Y025637D03*
X039076Y025641D03*
X039156Y025441D03*
X039644Y026301D03*
X039646Y026305D03*
X037610Y023685D03*
X037054Y023431D03*
D196*
X037506Y023431D03*
D197*
X037616Y023683D03*
X037050Y023433D03*
X039156Y025439D03*
X039080Y025649D03*
D198*
X037507Y023433D03*
D199*
X037047Y023435D03*
X039079Y025647D03*
X039649Y026311D03*
X039653Y026317D03*
X039659Y026325D03*
X039663Y026331D03*
X039669Y026341D03*
X039673Y026345D03*
X039677Y026351D03*
D200*
X037507Y023435D03*
D201*
X037622Y023681D03*
X037044Y023437D03*
X039162Y025181D03*
X039082Y025655D03*
X039084Y025657D03*
X039090Y025671D03*
X039092Y025675D03*
X039092Y025677D03*
X039094Y025681D03*
X039096Y025685D03*
X039098Y025687D03*
X039100Y025691D03*
X039102Y025695D03*
X039102Y025697D03*
X039104Y025701D03*
X039106Y025705D03*
X039108Y025707D03*
X039110Y025711D03*
X039656Y026321D03*
X039666Y026337D03*
X039674Y026347D03*
D202*
X037944Y026167D03*
X037684Y023475D03*
X037508Y023437D03*
D203*
X037041Y023439D03*
X039191Y025343D03*
X039215Y025369D03*
X039155Y025433D03*
X039101Y025693D03*
X039109Y025709D03*
X039111Y025713D03*
X039113Y025719D03*
X039115Y025723D03*
X039681Y026359D03*
X039691Y026373D03*
X039695Y026379D03*
D204*
X037507Y023439D03*
D205*
X037924Y023439D03*
X039158Y025469D03*
X039452Y026003D03*
D206*
X039128Y025751D03*
X039154Y025427D03*
X039232Y025385D03*
X039234Y025387D03*
X039238Y025391D03*
X039164Y025191D03*
X039724Y026421D03*
X039728Y026427D03*
X039734Y026435D03*
X039738Y026441D03*
X037038Y023441D03*
D207*
X037507Y023441D03*
D208*
X037926Y023441D03*
X039450Y026001D03*
D209*
X039147Y025793D03*
X039145Y025789D03*
X039143Y025783D03*
X039141Y025779D03*
X039247Y025399D03*
X039241Y025393D03*
X039165Y025193D03*
X039737Y026439D03*
X039739Y026443D03*
X039743Y026449D03*
X039747Y026453D03*
X039751Y026459D03*
X039753Y026463D03*
X039757Y026469D03*
X037171Y023479D03*
X037035Y023443D03*
D210*
X037507Y023443D03*
D211*
X037927Y023443D03*
X039431Y025969D03*
X039435Y025973D03*
X039437Y025979D03*
X039441Y025983D03*
D212*
X039163Y025827D03*
X039163Y025825D03*
X039161Y025821D03*
X039157Y025817D03*
X039157Y025815D03*
X039155Y025811D03*
X039153Y025807D03*
X039153Y025421D03*
X039255Y025407D03*
X039165Y025197D03*
X039773Y026491D03*
X039775Y026495D03*
X039777Y026497D03*
X039779Y026501D03*
X039783Y026505D03*
X039783Y026507D03*
X039787Y026511D03*
X039789Y026515D03*
X039791Y026517D03*
X037033Y023445D03*
D213*
X037507Y023445D03*
D214*
X037927Y023445D03*
X037929Y023447D03*
X039159Y025471D03*
X039427Y025961D03*
X039429Y025965D03*
X039431Y025967D03*
X039435Y025975D03*
X039437Y025977D03*
X039439Y025981D03*
X039441Y025985D03*
X039445Y025991D03*
X039447Y025995D03*
X039449Y025997D03*
D215*
X039174Y025847D03*
X039172Y025845D03*
X039170Y025841D03*
X039166Y025831D03*
X039270Y025421D03*
X039266Y025417D03*
X039264Y025415D03*
X039260Y025411D03*
X039166Y025201D03*
X039794Y026521D03*
X039802Y026531D03*
X039806Y026537D03*
X039810Y026541D03*
X039812Y026545D03*
X039814Y026547D03*
X039816Y026551D03*
X037160Y023485D03*
X037030Y023447D03*
D216*
X037506Y023447D03*
D217*
X037028Y023449D03*
X039186Y025329D03*
X039284Y025433D03*
X039188Y025879D03*
X039190Y025883D03*
X039198Y025899D03*
X039822Y026559D03*
X039832Y026573D03*
X039836Y026579D03*
X039840Y026583D03*
D218*
X037463Y023923D03*
X037509Y023449D03*
D219*
X037929Y023449D03*
X039151Y025139D03*
X039395Y025909D03*
X039397Y025913D03*
X039401Y025919D03*
X039407Y025929D03*
X039409Y025933D03*
D220*
X039205Y025915D03*
X039203Y025911D03*
X039201Y025907D03*
X039201Y025905D03*
X039199Y025901D03*
X039197Y025897D03*
X039191Y025885D03*
X039189Y025881D03*
X039187Y025877D03*
X038983Y025585D03*
X038981Y025581D03*
X039153Y025415D03*
X039185Y025327D03*
X039167Y025207D03*
X039843Y026587D03*
X039847Y026591D03*
X039849Y026595D03*
X039851Y026597D03*
X039857Y026605D03*
X036977Y023675D03*
X037017Y023467D03*
X037019Y023461D03*
X037023Y023457D03*
X037025Y023455D03*
X037027Y023451D03*
X037137Y023501D03*
X037139Y023497D03*
D221*
X037071Y023451D03*
X036925Y023705D03*
X036921Y023715D03*
X036911Y023741D03*
X036981Y023797D03*
D222*
X037509Y023451D03*
D223*
X037026Y023453D03*
X037018Y023463D03*
X037012Y023473D03*
X039168Y025209D03*
X039290Y025439D03*
X039294Y025443D03*
X038982Y025583D03*
X038980Y025579D03*
X039204Y025913D03*
X039208Y025923D03*
X039212Y025929D03*
X039214Y025933D03*
X039848Y026593D03*
X039852Y026599D03*
X039860Y026609D03*
X039862Y026613D03*
X037944Y026209D03*
D224*
X037454Y023999D03*
X037580Y023453D03*
D225*
X037581Y023455D03*
D226*
X037579Y023457D03*
D227*
X037137Y023499D03*
X037133Y023503D03*
X037021Y023459D03*
X037015Y023469D03*
X039153Y025413D03*
X039193Y025889D03*
X039195Y025893D03*
X039201Y025903D03*
X039203Y025909D03*
X039207Y025919D03*
X039845Y026589D03*
X039855Y026603D03*
D228*
X037579Y023459D03*
D229*
X037501Y023515D03*
X037235Y023461D03*
X037229Y023465D03*
X039143Y025105D03*
X039143Y025107D03*
X039259Y025685D03*
D230*
X037669Y023461D03*
D231*
X037498Y023513D03*
X037492Y023509D03*
X037486Y023503D03*
X037546Y023719D03*
X037232Y023463D03*
X039142Y025103D03*
X039242Y025653D03*
X039246Y025659D03*
X039248Y025663D03*
X039252Y025669D03*
X039254Y025673D03*
D232*
X037464Y023913D03*
X037672Y023463D03*
D233*
X037018Y023465D03*
X039168Y025205D03*
X039282Y025431D03*
X039286Y025435D03*
X039288Y025437D03*
X039182Y025867D03*
X039184Y025871D03*
X039186Y025875D03*
X039192Y025887D03*
X039194Y025891D03*
X039196Y025895D03*
X039826Y026565D03*
X039828Y026567D03*
X039830Y026571D03*
X039834Y026575D03*
X039834Y026577D03*
X039838Y026581D03*
X039842Y026585D03*
D234*
X037675Y023465D03*
D235*
X037516Y023527D03*
X037514Y023525D03*
X037510Y023521D03*
X037494Y023511D03*
X037490Y023507D03*
X037488Y023505D03*
X037484Y023501D03*
X037228Y023467D03*
X039244Y025655D03*
X039244Y025657D03*
X039246Y025661D03*
X039250Y025667D03*
X039252Y025671D03*
X039254Y025675D03*
X039256Y025677D03*
X039258Y025681D03*
D236*
X037678Y023467D03*
D237*
X037525Y023533D03*
X037519Y023529D03*
X037481Y023499D03*
X037225Y023469D03*
D238*
X037679Y023469D03*
X037683Y023473D03*
D239*
X037148Y023491D03*
X037014Y023471D03*
X036976Y023677D03*
X039152Y025411D03*
X039292Y025441D03*
X039296Y025445D03*
X039298Y025447D03*
X038960Y025737D03*
X039206Y025917D03*
X039208Y025921D03*
X039210Y025925D03*
X039216Y025937D03*
X039218Y025941D03*
X039854Y026601D03*
X039858Y026607D03*
X039864Y026615D03*
D240*
X039697Y026381D03*
X039693Y026377D03*
X039693Y026375D03*
X039689Y026371D03*
X039685Y026365D03*
X039683Y026361D03*
X039681Y026357D03*
X039679Y026355D03*
X039113Y025717D03*
X039111Y025715D03*
X039087Y025667D03*
X039087Y025665D03*
X039085Y025661D03*
X039155Y025435D03*
X039163Y025185D03*
X037187Y023471D03*
D241*
X037282Y023471D03*
X037064Y023565D03*
X036974Y023541D03*
X036972Y023545D03*
X036972Y023547D03*
X036968Y023555D03*
X036968Y023557D03*
X037844Y023715D03*
X039174Y025235D03*
X039028Y025891D03*
X039322Y026161D03*
X039324Y026165D03*
X039328Y026171D03*
X039332Y026181D03*
X039334Y026185D03*
X040062Y026855D03*
X040064Y026857D03*
X040074Y026867D03*
X040078Y026871D03*
D242*
X037681Y023471D03*
D243*
X037183Y023473D03*
X039163Y025189D03*
X039123Y025739D03*
X039133Y025763D03*
X039723Y026419D03*
D244*
X039358Y026233D03*
X039356Y026229D03*
X039348Y026213D03*
X039346Y026209D03*
X039038Y025913D03*
X039036Y025909D03*
X038942Y025509D03*
X039150Y025383D03*
X039174Y025239D03*
X039384Y025529D03*
X039388Y025533D03*
X039482Y025609D03*
X040090Y026883D03*
X040096Y026889D03*
X040100Y026893D03*
X040110Y026903D03*
X040116Y026909D03*
X037852Y023723D03*
X037282Y023473D03*
X037058Y023569D03*
X037056Y023573D03*
X036958Y023829D03*
D245*
X037180Y023475D03*
X039130Y025755D03*
X039140Y025777D03*
X039720Y026415D03*
X039726Y026425D03*
X039736Y026437D03*
D246*
X039363Y026245D03*
X039361Y026241D03*
X039359Y026237D03*
X039359Y026235D03*
X039357Y026231D03*
X039355Y026227D03*
X039043Y025925D03*
X039041Y025921D03*
X038967Y025715D03*
X039149Y025381D03*
X039175Y025241D03*
X039391Y025537D03*
X039395Y025541D03*
X039399Y025545D03*
X039401Y025547D03*
X039407Y025551D03*
X039411Y025555D03*
X039413Y025557D03*
X039417Y025561D03*
X039421Y025565D03*
X039423Y025567D03*
X040123Y026917D03*
X040129Y026921D03*
X040133Y026925D03*
X040139Y026931D03*
X040143Y026935D03*
X040353Y027075D03*
X040357Y027077D03*
X036959Y023821D03*
X037041Y023591D03*
X037045Y023585D03*
X037283Y023475D03*
D247*
X037177Y023477D03*
X039165Y025195D03*
X039189Y025337D03*
X039243Y025395D03*
X039245Y025397D03*
X039139Y025775D03*
X039141Y025781D03*
X039143Y025785D03*
X039145Y025787D03*
X039149Y025797D03*
X039741Y026445D03*
X039745Y026451D03*
X039747Y026455D03*
X039749Y026457D03*
X039751Y026461D03*
X039755Y026465D03*
X039759Y026471D03*
D248*
X039379Y026277D03*
X039373Y026265D03*
X039057Y025955D03*
X039053Y025947D03*
X039053Y025945D03*
X038933Y025491D03*
X039149Y025377D03*
X039177Y025301D03*
X039459Y025597D03*
X040167Y026957D03*
X040293Y027047D03*
X040329Y027065D03*
X040367Y027081D03*
X037869Y023741D03*
X037283Y023477D03*
X037029Y023611D03*
X037027Y023617D03*
X037023Y023625D03*
X037023Y023627D03*
X037017Y023635D03*
X037017Y023637D03*
X036967Y023735D03*
X036959Y023807D03*
D249*
X037687Y023477D03*
D250*
X037282Y023479D03*
X037278Y023489D03*
X037276Y023493D03*
X037026Y023619D03*
X037016Y023639D03*
X036966Y023739D03*
X036966Y023743D03*
X036958Y023799D03*
X036958Y023803D03*
X038928Y025483D03*
X039056Y025953D03*
X039058Y025959D03*
X039060Y025963D03*
X039380Y026279D03*
X039382Y026283D03*
X040170Y026959D03*
X040174Y026963D03*
X040182Y026969D03*
X040186Y026973D03*
X040194Y026979D03*
X040224Y027003D03*
X040278Y027039D03*
X040304Y027053D03*
D251*
X037690Y023479D03*
D252*
X037166Y023481D03*
X039188Y025335D03*
X039250Y025401D03*
X039254Y025405D03*
X039154Y025425D03*
X039146Y025791D03*
X039148Y025795D03*
X039150Y025801D03*
X039152Y025805D03*
X039742Y026447D03*
X039756Y026467D03*
X039762Y026475D03*
X039764Y026477D03*
X039766Y026481D03*
X039768Y026485D03*
X039770Y026487D03*
D253*
X039386Y026291D03*
X039384Y026287D03*
X039382Y026285D03*
X039380Y026281D03*
X039378Y026275D03*
X039060Y025961D03*
X039058Y025957D03*
X038968Y025711D03*
X038988Y025655D03*
X038930Y025487D03*
X039148Y025375D03*
X039176Y025247D03*
X039464Y025601D03*
X039470Y025605D03*
X040160Y026951D03*
X040172Y026961D03*
X040180Y026967D03*
X040184Y026971D03*
X040188Y026975D03*
X040196Y026981D03*
X040202Y026985D03*
X040204Y026987D03*
X040214Y026995D03*
X040216Y026997D03*
X040222Y027001D03*
X040228Y027005D03*
X040230Y027007D03*
X040236Y027011D03*
X040258Y027025D03*
X040260Y027027D03*
X040266Y027031D03*
X040272Y027035D03*
X040276Y027037D03*
X040288Y027045D03*
X040300Y027051D03*
X040308Y027055D03*
X040312Y027057D03*
X040332Y027067D03*
X036958Y023805D03*
X036958Y023801D03*
X036958Y023797D03*
X036958Y023795D03*
X036966Y023741D03*
X036966Y023737D03*
X037028Y023615D03*
X037282Y023481D03*
D254*
X037692Y023481D03*
D255*
X037117Y023519D03*
X037005Y023483D03*
X036947Y023629D03*
X036945Y023633D03*
X036973Y023693D03*
X039171Y025219D03*
X039183Y025319D03*
X039333Y025479D03*
X039337Y025483D03*
X038965Y025553D03*
X038987Y025799D03*
X038989Y025803D03*
X038991Y025809D03*
X038993Y025813D03*
X039247Y026003D03*
X039255Y026019D03*
X039257Y026023D03*
X039259Y026029D03*
X039921Y026689D03*
X039929Y026699D03*
X039937Y026709D03*
X039953Y026729D03*
D256*
X039772Y026489D03*
X039768Y026483D03*
X039764Y026479D03*
X039760Y026473D03*
X039152Y025803D03*
X039150Y025799D03*
X039154Y025423D03*
X039252Y025403D03*
X037162Y023483D03*
D257*
X037263Y023513D03*
X037265Y023509D03*
X037269Y023503D03*
X037281Y023483D03*
X037013Y023643D03*
X036915Y023673D03*
X036905Y023699D03*
X036959Y023793D03*
X037877Y023749D03*
X039177Y025249D03*
X039177Y025299D03*
X039467Y025603D03*
X038969Y025709D03*
X039063Y025969D03*
X039065Y025973D03*
X039069Y025979D03*
X039071Y025983D03*
X039073Y025989D03*
X039385Y026289D03*
X039387Y026293D03*
X039395Y026309D03*
X039397Y026313D03*
X040199Y026983D03*
X040207Y026989D03*
X040211Y026993D03*
X040219Y026999D03*
X040233Y027009D03*
X040239Y027013D03*
X040247Y027019D03*
X040253Y027023D03*
X040269Y027033D03*
X040337Y027069D03*
D258*
X039161Y025519D03*
X037463Y023483D03*
D259*
X037790Y023483D03*
X038984Y024659D03*
X037944Y026189D03*
D260*
X039061Y025965D03*
X039063Y025967D03*
X039065Y025971D03*
X039067Y025975D03*
X039067Y025977D03*
X039069Y025981D03*
X039071Y025985D03*
X038987Y025657D03*
X038929Y025485D03*
X038927Y025481D03*
X038925Y025477D03*
X039177Y025297D03*
X039177Y025251D03*
X039387Y026295D03*
X039389Y026297D03*
X039391Y026301D03*
X039393Y026305D03*
X040177Y026965D03*
X040209Y026991D03*
X040241Y027015D03*
X037879Y023751D03*
X037875Y023747D03*
X037873Y023745D03*
X037281Y023485D03*
X037279Y023487D03*
X037277Y023491D03*
X037275Y023495D03*
X037273Y023497D03*
X037271Y023501D03*
X037267Y023507D03*
X037261Y023517D03*
X037013Y023641D03*
D261*
X037463Y023485D03*
X037559Y023565D03*
X037573Y023577D03*
X039137Y025085D03*
X039137Y025087D03*
X039203Y025591D03*
D262*
X038985Y024661D03*
X038513Y023901D03*
X038509Y023897D03*
X037793Y023485D03*
X037489Y023821D03*
D263*
X037116Y023521D03*
X037002Y023487D03*
X037000Y023491D03*
X036952Y023611D03*
X036950Y023617D03*
X036972Y023701D03*
X038962Y025547D03*
X038992Y025811D03*
X038994Y025815D03*
X038996Y025817D03*
X039000Y025827D03*
X039264Y026037D03*
X039266Y026041D03*
X039270Y026051D03*
X039272Y026055D03*
X039346Y025491D03*
X039342Y025487D03*
X039340Y025485D03*
X039182Y025317D03*
X039950Y026725D03*
X039952Y026727D03*
X039960Y026737D03*
X039966Y026745D03*
X040420Y027095D03*
D264*
X039883Y026641D03*
X039873Y026627D03*
X039223Y025951D03*
X039213Y025931D03*
X039303Y025451D03*
X037153Y023487D03*
D265*
X037796Y023487D03*
D266*
X037105Y023529D03*
X037001Y023489D03*
X036995Y023499D03*
X036951Y023613D03*
X039171Y025223D03*
X039151Y025399D03*
X038961Y025543D03*
X039001Y025829D03*
X039271Y026053D03*
X039275Y026063D03*
X039281Y026073D03*
X039981Y026763D03*
X039991Y026773D03*
X039995Y026779D03*
D267*
X039230Y025633D03*
X039228Y025629D03*
X039224Y025623D03*
X037536Y023543D03*
X037466Y023489D03*
D268*
X037800Y023489D03*
X038496Y023883D03*
X038994Y024683D03*
D269*
X039140Y025095D03*
X039226Y025627D03*
X039228Y025631D03*
X037468Y023491D03*
D270*
X037492Y023815D03*
X037804Y023491D03*
X038494Y023881D03*
X038996Y024687D03*
D271*
X039003Y025833D03*
X039269Y026049D03*
X039279Y026069D03*
X039283Y026079D03*
X039969Y026749D03*
X039973Y026753D03*
X039977Y026759D03*
X039987Y026769D03*
X036973Y023703D03*
X036953Y023609D03*
X036993Y023503D03*
X036999Y023493D03*
X037113Y023523D03*
D272*
X037143Y023493D03*
X039223Y025953D03*
D273*
X039161Y025509D03*
X037471Y023493D03*
D274*
X037493Y023813D03*
X037807Y023493D03*
X039001Y024699D03*
X039003Y024703D03*
D275*
X039172Y025225D03*
X039172Y025227D03*
X039182Y025315D03*
X039352Y025497D03*
X039356Y025501D03*
X038956Y025535D03*
X038964Y025725D03*
X039004Y025837D03*
X039006Y025841D03*
X039008Y025845D03*
X039008Y025847D03*
X039282Y026077D03*
X039284Y026081D03*
X039286Y026085D03*
X039286Y026087D03*
X039288Y026091D03*
X039290Y026095D03*
X039292Y026097D03*
X039294Y026101D03*
X039296Y026105D03*
X039974Y026755D03*
X040000Y026785D03*
X040002Y026787D03*
X040006Y026791D03*
X040014Y026801D03*
X036972Y023705D03*
X036954Y023605D03*
X036956Y023597D03*
X036956Y023595D03*
X036958Y023591D03*
X036992Y023507D03*
X036992Y023505D03*
X036998Y023495D03*
X037080Y023547D03*
X037082Y023545D03*
X037098Y023535D03*
X037108Y023527D03*
X037110Y023525D03*
D276*
X037474Y023495D03*
X037528Y023535D03*
X039238Y025645D03*
D277*
X037811Y023495D03*
D278*
X037103Y023531D03*
X036997Y023497D03*
X036953Y023607D03*
X038959Y025541D03*
X038963Y025727D03*
X038997Y025821D03*
X038999Y025825D03*
X039003Y025835D03*
X039273Y026057D03*
X039277Y026065D03*
X039279Y026071D03*
X039979Y026761D03*
X039983Y026765D03*
X039989Y026771D03*
X039993Y026775D03*
X039993Y026777D03*
X039997Y026781D03*
X040389Y027087D03*
D279*
X039249Y025665D03*
X039241Y025651D03*
X039239Y025647D03*
X039161Y025507D03*
X039161Y025505D03*
X039141Y025101D03*
X037523Y023531D03*
X037477Y023497D03*
D280*
X037817Y023497D03*
X038469Y023857D03*
X039013Y024725D03*
X039013Y024727D03*
D281*
X039178Y025253D03*
X039148Y025373D03*
X038926Y025479D03*
X038988Y025659D03*
X039390Y026299D03*
X039392Y026303D03*
X039400Y026319D03*
X037880Y023753D03*
X037272Y023499D03*
X037260Y023519D03*
X037258Y023523D03*
X037254Y023529D03*
X036960Y023763D03*
X036958Y023779D03*
X036958Y023783D03*
X036958Y023789D03*
X036898Y023723D03*
X036898Y023719D03*
X036900Y023713D03*
X036902Y023709D03*
X036904Y023703D03*
X036908Y023693D03*
X036908Y023689D03*
X036910Y023683D03*
D282*
X037821Y023499D03*
X038465Y023853D03*
X039015Y024733D03*
D283*
X039151Y025397D03*
X039351Y025495D03*
X038961Y025545D03*
X039001Y025831D03*
X039275Y026061D03*
X039281Y026075D03*
X039971Y026751D03*
X039975Y026757D03*
X039985Y026767D03*
X037825Y023695D03*
X036995Y023501D03*
X036955Y023601D03*
X036951Y023615D03*
D284*
X037828Y023503D03*
X039022Y024749D03*
X037944Y026193D03*
D285*
X038970Y025707D03*
X038924Y025475D03*
X039148Y025371D03*
X039176Y025295D03*
X039072Y025987D03*
X039074Y025991D03*
X039076Y025995D03*
X039394Y026307D03*
X039396Y026311D03*
X039398Y026315D03*
X040244Y027017D03*
X040250Y027021D03*
X037884Y023757D03*
X037882Y023755D03*
X037268Y023505D03*
X037264Y023511D03*
X037262Y023515D03*
X037260Y023521D03*
X037258Y023525D03*
X037256Y023527D03*
X037004Y023657D03*
X036914Y023675D03*
X036910Y023685D03*
X036910Y023687D03*
X036908Y023691D03*
X036906Y023695D03*
X036906Y023697D03*
X036904Y023701D03*
X036904Y023705D03*
X036902Y023707D03*
X036902Y023711D03*
X036900Y023715D03*
X036900Y023717D03*
X036898Y023721D03*
X036896Y023727D03*
X036966Y023745D03*
X036962Y023761D03*
X036960Y023765D03*
X036958Y023781D03*
X036958Y023785D03*
X036958Y023787D03*
X036958Y023791D03*
D286*
X037833Y023507D03*
X038447Y023835D03*
X039027Y024761D03*
D287*
X039173Y025229D03*
X039181Y025313D03*
X039151Y025393D03*
X038953Y025529D03*
X038955Y025533D03*
X039009Y025849D03*
X039011Y025853D03*
X039295Y026103D03*
X039297Y026109D03*
X039299Y026113D03*
X039491Y025613D03*
X040021Y026809D03*
X040025Y026813D03*
X040029Y026819D03*
X040033Y026823D03*
X037833Y023703D03*
X037829Y023699D03*
X037075Y023553D03*
X036991Y023509D03*
X036985Y023519D03*
X036983Y023523D03*
X036961Y023579D03*
X036959Y023589D03*
X036957Y023593D03*
X036971Y023709D03*
D288*
X037836Y023509D03*
X038444Y023833D03*
D289*
X037831Y023701D03*
X037827Y023697D03*
X037095Y023537D03*
X037077Y023551D03*
X037073Y023555D03*
X036991Y023511D03*
X036987Y023515D03*
X036987Y023517D03*
X036985Y023521D03*
X036959Y023585D03*
X036959Y023587D03*
X036971Y023707D03*
X038957Y025537D03*
X038991Y025637D03*
X039011Y025851D03*
X039013Y025855D03*
X039013Y025857D03*
X039297Y026107D03*
X039299Y026111D03*
X039301Y026115D03*
X039301Y026117D03*
X039303Y026121D03*
X039305Y026125D03*
X039363Y025507D03*
X039361Y025505D03*
X039151Y025395D03*
X039181Y025311D03*
X040009Y026795D03*
X040011Y026797D03*
X040017Y026805D03*
X040019Y026807D03*
X040023Y026811D03*
X040027Y026815D03*
X040029Y026817D03*
X040031Y026821D03*
X040035Y026825D03*
X040383Y027085D03*
D290*
X039029Y024767D03*
X038443Y023831D03*
X037839Y023511D03*
D291*
X037100Y023533D03*
X037078Y023549D03*
X036988Y023513D03*
X036956Y023599D03*
X036954Y023603D03*
X038958Y025539D03*
X039004Y025839D03*
X039006Y025843D03*
X039284Y026083D03*
X039288Y026089D03*
X039290Y026093D03*
X039292Y026099D03*
X039358Y025503D03*
X039354Y025499D03*
X039998Y026783D03*
X040004Y026789D03*
X040008Y026793D03*
X040012Y026799D03*
X040016Y026803D03*
X040396Y027089D03*
D292*
X037841Y023513D03*
D293*
X037845Y023515D03*
X039035Y024781D03*
D294*
X038432Y023821D03*
X037848Y023517D03*
D295*
X037506Y023519D03*
X039144Y025109D03*
X039040Y025629D03*
X039042Y025633D03*
D296*
X039040Y024793D03*
X037850Y023519D03*
D297*
X037511Y023523D03*
X039161Y025503D03*
X039257Y025679D03*
X039259Y025683D03*
D298*
X039042Y024799D03*
X038422Y023813D03*
X037856Y023523D03*
D299*
X037858Y023525D03*
X037502Y023791D03*
X039044Y024805D03*
D300*
X039045Y024807D03*
X039047Y024811D03*
X038415Y023807D03*
X037861Y023527D03*
D301*
X037070Y023559D03*
X036980Y023529D03*
X036978Y023533D03*
X036964Y023569D03*
X036960Y023583D03*
X036970Y023713D03*
X038990Y025639D03*
X038964Y025723D03*
X039014Y025859D03*
X039016Y025863D03*
X039018Y025869D03*
X039302Y026119D03*
X039304Y026123D03*
X039306Y026129D03*
X039308Y026133D03*
X039312Y026139D03*
X039368Y025513D03*
X039364Y025509D03*
X040038Y026829D03*
X040042Y026833D03*
X040048Y026839D03*
X040052Y026843D03*
D302*
X039048Y024813D03*
X037864Y023529D03*
D303*
X037253Y023531D03*
X037223Y023595D03*
X037213Y023615D03*
X037213Y023617D03*
X037203Y023637D03*
X036963Y023757D03*
X036893Y023737D03*
X036913Y023677D03*
X039083Y026011D03*
X039403Y026325D03*
X039403Y026327D03*
X039413Y026345D03*
D304*
X039049Y024817D03*
X037865Y023531D03*
D305*
X037887Y023759D03*
X037249Y023539D03*
X037251Y023533D03*
X037245Y023549D03*
X037235Y023569D03*
X037231Y023579D03*
X037229Y023583D03*
X037225Y023589D03*
X037221Y023599D03*
X037219Y023603D03*
X037217Y023609D03*
X037215Y023613D03*
X037211Y023619D03*
X037207Y023629D03*
X037205Y023633D03*
X037201Y023643D03*
X037189Y023669D03*
X037179Y023689D03*
X036959Y023769D03*
X036959Y023773D03*
X036895Y023733D03*
X036895Y023729D03*
X036911Y023679D03*
X038921Y025469D03*
X039075Y025993D03*
X039077Y025999D03*
X039079Y026003D03*
X039405Y026329D03*
X039407Y026333D03*
X039411Y026339D03*
X039415Y026349D03*
X039417Y026353D03*
X039421Y026359D03*
D306*
X037868Y023533D03*
D307*
X037835Y023705D03*
X037837Y023707D03*
X037841Y023711D03*
X037091Y023541D03*
X037069Y023561D03*
X036977Y023537D03*
X036977Y023535D03*
X036965Y023565D03*
X036965Y023567D03*
X038949Y025521D03*
X038951Y025525D03*
X038965Y025721D03*
X039017Y025867D03*
X039019Y025871D03*
X039021Y025875D03*
X039021Y025877D03*
X039311Y026137D03*
X039315Y026145D03*
X039315Y026147D03*
X039317Y026151D03*
X039319Y026155D03*
X039325Y026167D03*
X039485Y025611D03*
X039371Y025515D03*
X040055Y026847D03*
X040059Y026851D03*
X040069Y026861D03*
D308*
X039421Y026361D03*
X039419Y026357D03*
X039415Y026347D03*
X039411Y026341D03*
X039409Y026337D03*
X039409Y026335D03*
X039405Y026331D03*
X039401Y026321D03*
X039399Y026317D03*
X039085Y026015D03*
X039081Y026007D03*
X039081Y026005D03*
X039079Y026001D03*
X039077Y025997D03*
X038987Y025661D03*
X038921Y025471D03*
X037181Y023685D03*
X037197Y023651D03*
X037199Y023647D03*
X037209Y023625D03*
X037211Y023621D03*
X037215Y023611D03*
X037217Y023607D03*
X037219Y023601D03*
X037225Y023591D03*
X037227Y023587D03*
X037227Y023585D03*
X037229Y023581D03*
X037231Y023577D03*
X037237Y023565D03*
X037239Y023561D03*
X037241Y023557D03*
X037247Y023545D03*
X037251Y023535D03*
X037005Y023655D03*
X036911Y023681D03*
X036897Y023725D03*
X036895Y023731D03*
X036959Y023767D03*
X036959Y023771D03*
X036959Y023775D03*
D309*
X037871Y023535D03*
X038409Y023801D03*
D310*
X037250Y023537D03*
X037246Y023547D03*
X037236Y023567D03*
X037206Y023631D03*
X037200Y023645D03*
X037196Y023655D03*
X037190Y023665D03*
X037190Y023667D03*
X037186Y023675D03*
X037186Y023677D03*
X037180Y023687D03*
X037176Y023695D03*
X037176Y023697D03*
X037006Y023651D03*
X036890Y023751D03*
X038920Y025467D03*
X038970Y025705D03*
X039086Y026017D03*
X039090Y026027D03*
X039416Y026351D03*
X039426Y026371D03*
X039430Y026377D03*
D311*
X037530Y023537D03*
D312*
X037839Y023709D03*
X037087Y023543D03*
X037065Y023563D03*
X036975Y023539D03*
X036967Y023559D03*
X038949Y025523D03*
X039181Y025309D03*
X039019Y025873D03*
X039317Y026149D03*
X039319Y026153D03*
X039321Y026159D03*
X039327Y026169D03*
X039329Y026173D03*
X040057Y026849D03*
X040071Y026863D03*
X040411Y027093D03*
D313*
X039323Y026163D03*
X039313Y026143D03*
X039023Y025879D03*
X039173Y025233D03*
X037093Y023539D03*
X036963Y023573D03*
D314*
X037532Y023539D03*
X039234Y025639D03*
D315*
X039148Y025367D03*
X039178Y025257D03*
X039178Y025255D03*
X038918Y025465D03*
X039088Y026021D03*
X039418Y026355D03*
X039424Y026365D03*
X039424Y026367D03*
X039428Y026375D03*
X039432Y026381D03*
X039434Y026385D03*
X037892Y023765D03*
X037888Y023761D03*
X037248Y023541D03*
X037244Y023551D03*
X037242Y023555D03*
X037234Y023571D03*
X037232Y023575D03*
X037222Y023597D03*
X037218Y023605D03*
X037208Y023627D03*
X037204Y023635D03*
X037202Y023641D03*
X037194Y023657D03*
X037192Y023661D03*
X037188Y023671D03*
X037184Y023681D03*
X037178Y023691D03*
X037008Y023647D03*
X037008Y023645D03*
X036964Y023747D03*
X036964Y023751D03*
X036964Y023755D03*
X036958Y023777D03*
X036892Y023745D03*
X036892Y023741D03*
X036894Y023735D03*
D316*
X037533Y023541D03*
X039233Y025637D03*
D317*
X037878Y023541D03*
D318*
X037842Y023713D03*
X036974Y023543D03*
X038948Y025519D03*
X039024Y025883D03*
X039028Y025889D03*
X039332Y026179D03*
X039334Y026183D03*
X039508Y025619D03*
X039374Y025519D03*
D319*
X039148Y025369D03*
X039084Y026013D03*
X039088Y026023D03*
X039422Y026363D03*
X039428Y026373D03*
X037178Y023693D03*
X037182Y023683D03*
X037184Y023679D03*
X037188Y023673D03*
X037192Y023663D03*
X037194Y023659D03*
X037198Y023649D03*
X037238Y023563D03*
X037248Y023543D03*
X036964Y023749D03*
X036964Y023753D03*
X036892Y023743D03*
D320*
X037506Y023783D03*
X037880Y023543D03*
X039058Y024839D03*
D321*
X038397Y023791D03*
X037885Y023547D03*
X037883Y023545D03*
D322*
X036970Y023549D03*
X036966Y023563D03*
X039150Y025389D03*
X038990Y025643D03*
X038966Y025719D03*
X039336Y026189D03*
X040060Y026853D03*
X040066Y026859D03*
X040076Y026869D03*
X040080Y026873D03*
D323*
X037886Y023549D03*
D324*
X036970Y023551D03*
X036966Y023561D03*
X036970Y023717D03*
X038946Y025517D03*
X039150Y025387D03*
X039380Y025525D03*
X039026Y025885D03*
X039026Y025887D03*
X039030Y025895D03*
X039320Y026157D03*
X039330Y026175D03*
X039330Y026177D03*
D325*
X039216Y025611D03*
X039214Y025607D03*
X039210Y025601D03*
X039208Y025597D03*
X037620Y023621D03*
X037550Y023557D03*
X037548Y023555D03*
X037544Y023551D03*
D326*
X037507Y023781D03*
X037889Y023551D03*
D327*
X037849Y023719D03*
X036969Y023719D03*
X036969Y023723D03*
X036969Y023553D03*
X038945Y025513D03*
X039029Y025893D03*
X039031Y025899D03*
X039033Y025903D03*
X039337Y026193D03*
X039341Y026199D03*
X039343Y026203D03*
X039379Y025523D03*
X040085Y026879D03*
X040107Y026899D03*
D328*
X039212Y025603D03*
X039138Y025089D03*
X037552Y023559D03*
X037546Y023553D03*
D329*
X037896Y023557D03*
X039064Y024857D03*
X039118Y025587D03*
D330*
X038986Y025663D03*
X039086Y026019D03*
X039426Y026369D03*
X039430Y026379D03*
X039436Y026389D03*
X039176Y025293D03*
X037890Y023763D03*
X037240Y023559D03*
X037210Y023623D03*
X037196Y023653D03*
X037006Y023653D03*
X036890Y023749D03*
D331*
X037555Y023561D03*
X037561Y023567D03*
X037571Y023575D03*
X037595Y023597D03*
X037615Y023615D03*
X039161Y025515D03*
X039161Y025517D03*
X039205Y025595D03*
D332*
X039066Y024865D03*
X038380Y023777D03*
X037904Y023565D03*
X037900Y023561D03*
D333*
X037597Y023599D03*
X037557Y023563D03*
X037543Y023723D03*
X039209Y025599D03*
D334*
X039066Y024863D03*
X038382Y023779D03*
X037902Y023563D03*
D335*
X037847Y023717D03*
X037061Y023567D03*
X037057Y023571D03*
X036969Y023721D03*
X039175Y025237D03*
X039179Y025307D03*
X039149Y025385D03*
X038943Y025511D03*
X038945Y025515D03*
X038989Y025645D03*
X039031Y025897D03*
X039033Y025901D03*
X039035Y025907D03*
X039037Y025911D03*
X039335Y026187D03*
X039337Y026191D03*
X039339Y026195D03*
X039339Y026197D03*
X039341Y026201D03*
X039345Y026207D03*
X039347Y026211D03*
X039511Y025621D03*
X039381Y025527D03*
X039377Y025521D03*
X040081Y026875D03*
X040083Y026877D03*
X040103Y026895D03*
X040105Y026897D03*
D336*
X039202Y025589D03*
X039136Y025083D03*
X037634Y023633D03*
X037630Y023629D03*
X037624Y023623D03*
X037620Y023619D03*
X037612Y023613D03*
X037602Y023603D03*
X037590Y023593D03*
X037586Y023589D03*
X037580Y023583D03*
X037576Y023579D03*
X037564Y023569D03*
D337*
X037908Y023569D03*
X037912Y023573D03*
X039068Y024869D03*
D338*
X039173Y025231D03*
X039373Y025517D03*
X039503Y025617D03*
X039023Y025881D03*
X039313Y026141D03*
X040073Y026865D03*
X036963Y023571D03*
D339*
X037566Y023571D03*
X037582Y023585D03*
X037584Y023587D03*
X037592Y023595D03*
X037600Y023601D03*
X037604Y023605D03*
X037606Y023607D03*
X037610Y023611D03*
X037626Y023625D03*
X037632Y023631D03*
X037636Y023635D03*
X037644Y023641D03*
D340*
X037510Y023775D03*
X037910Y023571D03*
X038378Y023775D03*
D341*
X037608Y023609D03*
X037568Y023573D03*
D342*
X037850Y023721D03*
X037854Y023725D03*
X037856Y023727D03*
X037054Y023575D03*
X037052Y023577D03*
X036968Y023725D03*
X036968Y023727D03*
X036958Y023825D03*
X036958Y023827D03*
X038940Y025505D03*
X038942Y025507D03*
X038990Y025647D03*
X038966Y025717D03*
X039034Y025905D03*
X039038Y025915D03*
X039040Y025917D03*
X039344Y026205D03*
X039348Y026215D03*
X039350Y026217D03*
X039352Y026221D03*
X039354Y026225D03*
X039390Y025535D03*
X039386Y025531D03*
X039178Y025305D03*
X040086Y026881D03*
X040092Y026885D03*
X040094Y026887D03*
X040098Y026891D03*
X040108Y026901D03*
X040112Y026905D03*
X040114Y026907D03*
X040118Y026911D03*
X040122Y026915D03*
D343*
X039070Y024875D03*
X037916Y023577D03*
X037914Y023575D03*
D344*
X037862Y023733D03*
X037050Y023579D03*
X037046Y023583D03*
X039176Y025243D03*
X039430Y025573D03*
X039442Y025583D03*
X039516Y025623D03*
X039046Y025933D03*
X039050Y025939D03*
X039052Y025943D03*
X039370Y026259D03*
X039372Y026263D03*
X040136Y026929D03*
X040152Y026943D03*
X040316Y027059D03*
X040324Y027063D03*
X040346Y027073D03*
X040362Y027079D03*
D345*
X039368Y026257D03*
X039368Y026255D03*
X039048Y025937D03*
X039048Y025935D03*
X038988Y025651D03*
X038938Y025501D03*
X039428Y025571D03*
X036958Y023817D03*
X036958Y023815D03*
X036958Y023811D03*
X036968Y023731D03*
X037038Y023595D03*
X037048Y023581D03*
D346*
X037578Y023581D03*
X037588Y023591D03*
X037618Y023617D03*
X037628Y023627D03*
X037638Y023637D03*
D347*
X037922Y023583D03*
X039074Y024883D03*
X037944Y026199D03*
D348*
X039074Y024885D03*
X037924Y023585D03*
D349*
X037860Y023731D03*
X037864Y023735D03*
X037044Y023587D03*
X037036Y023597D03*
X037034Y023601D03*
X037032Y023605D03*
X039176Y025245D03*
X038936Y025497D03*
X039044Y025927D03*
X039046Y025931D03*
X039364Y026247D03*
X039366Y026251D03*
X039370Y026261D03*
X039374Y026267D03*
X039476Y025607D03*
X039446Y025587D03*
X039444Y025585D03*
X039440Y025581D03*
X039434Y025577D03*
X039432Y025575D03*
X040134Y026927D03*
X040146Y026937D03*
X040150Y026941D03*
X040154Y026945D03*
X040156Y026947D03*
X040320Y027061D03*
D350*
X039075Y024887D03*
X038367Y023767D03*
X037929Y023591D03*
X037925Y023587D03*
D351*
X037857Y023729D03*
X037043Y023589D03*
X037039Y023593D03*
X037035Y023599D03*
X036967Y023729D03*
X036959Y023823D03*
X038937Y025499D03*
X038939Y025503D03*
X038989Y025649D03*
X039041Y025919D03*
X039043Y025923D03*
X039045Y025929D03*
X039351Y026219D03*
X039353Y026223D03*
X039361Y026239D03*
X039363Y026243D03*
X039365Y026249D03*
X039367Y026253D03*
X039425Y025569D03*
X039419Y025563D03*
X039415Y025559D03*
X039409Y025553D03*
X039403Y025549D03*
X039397Y025543D03*
X039393Y025539D03*
X040121Y026913D03*
X040127Y026919D03*
X040131Y026923D03*
X040141Y026933D03*
X040373Y027083D03*
D352*
X037927Y023589D03*
D353*
X037930Y023593D03*
X039076Y024889D03*
D354*
X038365Y023765D03*
X038133Y023675D03*
X037935Y023597D03*
X037933Y023595D03*
D355*
X037937Y023599D03*
X037513Y023769D03*
X039079Y024899D03*
D356*
X039080Y024901D03*
X038360Y023761D03*
X037940Y023601D03*
D357*
X037867Y023739D03*
X037033Y023603D03*
X037029Y023613D03*
X037019Y023633D03*
X036967Y023733D03*
X036959Y023809D03*
X038933Y025493D03*
X038989Y025653D03*
X039149Y025379D03*
X039449Y025589D03*
X039453Y025593D03*
X039377Y026273D03*
X040163Y026953D03*
X040263Y027029D03*
X040297Y027049D03*
D358*
X039080Y024903D03*
X037942Y023603D03*
D359*
X037865Y023737D03*
X037031Y023607D03*
X037025Y023621D03*
X037021Y023631D03*
X038935Y025495D03*
X039051Y025941D03*
X039055Y025951D03*
X039375Y026271D03*
X039455Y025595D03*
X039451Y025591D03*
X040165Y026955D03*
X040191Y026977D03*
X040281Y027041D03*
X040341Y027071D03*
D360*
X040285Y027043D03*
X039375Y026269D03*
X039055Y025949D03*
X038931Y025489D03*
X039461Y025599D03*
X037871Y023743D03*
X037031Y023609D03*
X037025Y023623D03*
X037021Y023629D03*
X037001Y023659D03*
D361*
X037950Y023613D03*
X037954Y023619D03*
D362*
X036972Y023699D03*
X036950Y023619D03*
X038964Y025549D03*
X038962Y025729D03*
X038996Y025819D03*
X039262Y026033D03*
X039264Y026039D03*
X039266Y026043D03*
X039274Y026059D03*
X039344Y025489D03*
X039940Y026713D03*
X039944Y026719D03*
X039956Y026733D03*
X039962Y026739D03*
X039964Y026743D03*
D363*
X039948Y026723D03*
X038998Y025823D03*
X039348Y025493D03*
X036948Y023623D03*
D364*
X036948Y023625D03*
X039268Y026045D03*
X039268Y026047D03*
X039278Y026067D03*
X039958Y026735D03*
X039968Y026747D03*
D365*
X037961Y023627D03*
X037959Y023625D03*
D366*
X037962Y023629D03*
X039084Y024913D03*
D367*
X038352Y023755D03*
X037964Y023631D03*
D368*
X037951Y023637D03*
X038385Y023781D03*
X039065Y024861D03*
D369*
X039205Y025593D03*
X037641Y023639D03*
D370*
X037945Y023639D03*
X039055Y024833D03*
D371*
X037944Y023641D03*
X037944Y026195D03*
D372*
X037472Y023879D03*
X037852Y023643D03*
D373*
X037859Y023645D03*
D374*
X037866Y023647D03*
D375*
X037895Y023769D03*
X037175Y023703D03*
X037175Y023699D03*
X037167Y023719D03*
X037007Y023649D03*
X036889Y023753D03*
X036887Y023763D03*
X039179Y025259D03*
X038915Y025459D03*
X038917Y025463D03*
X038971Y025703D03*
X039091Y026029D03*
X039093Y026033D03*
X039095Y026039D03*
X039097Y026043D03*
X039433Y026383D03*
X039439Y026393D03*
X039441Y026399D03*
X039443Y026403D03*
X039449Y026413D03*
D376*
X037873Y023649D03*
X037469Y023893D03*
D377*
X037885Y023653D03*
D378*
X037891Y023655D03*
D379*
X037896Y023657D03*
X037466Y023907D03*
D380*
X037902Y023659D03*
D381*
X037908Y023661D03*
D382*
X037913Y023663D03*
D383*
X037918Y023665D03*
D384*
X037923Y023667D03*
X037463Y023921D03*
D385*
X037928Y023669D03*
D386*
X037933Y023671D03*
D387*
X036977Y023673D03*
X039167Y025203D03*
X039273Y025423D03*
X039279Y025429D03*
X039179Y025859D03*
X039183Y025869D03*
X039817Y026553D03*
X039829Y026569D03*
D388*
X037937Y023673D03*
D389*
X038152Y023677D03*
D390*
X037636Y023679D03*
X037574Y023699D03*
X039554Y026163D03*
X039560Y026173D03*
X039564Y026179D03*
X039566Y026183D03*
X039570Y026189D03*
D391*
X039228Y025963D03*
X039222Y025949D03*
X038978Y025779D03*
X038974Y025769D03*
X038974Y025569D03*
X039152Y025409D03*
X039184Y025323D03*
X039312Y025459D03*
X039874Y026629D03*
X039882Y026639D03*
X039884Y026643D03*
X037808Y023679D03*
X036974Y023683D03*
D392*
X038168Y023679D03*
X039098Y024953D03*
D393*
X039108Y024985D03*
X039108Y024987D03*
X039158Y025581D03*
X038186Y023681D03*
D394*
X038206Y023685D03*
X038296Y023717D03*
X039112Y025001D03*
X039158Y025571D03*
D395*
X039115Y025011D03*
X038215Y023687D03*
D396*
X038225Y023689D03*
X037531Y023739D03*
X039159Y025559D03*
D397*
X039193Y025353D03*
X039585Y026213D03*
X039589Y026219D03*
X039591Y026223D03*
X039599Y026233D03*
X039603Y026239D03*
X039605Y026243D03*
X039609Y026249D03*
X037589Y023693D03*
D398*
X038244Y023693D03*
X038274Y023703D03*
X039124Y025039D03*
D399*
X039582Y026207D03*
X039584Y026211D03*
X039604Y026241D03*
X037584Y023695D03*
D400*
X038253Y023695D03*
D401*
X038263Y023697D03*
X037537Y023731D03*
X039129Y025057D03*
D402*
X039175Y025291D03*
X039147Y025365D03*
X038917Y025461D03*
X039521Y025625D03*
X039089Y026025D03*
X039091Y026031D03*
X039093Y026035D03*
X039095Y026037D03*
X039097Y026041D03*
X039099Y026045D03*
X039099Y026047D03*
X039101Y026051D03*
X039435Y026387D03*
X039437Y026391D03*
X039439Y026395D03*
X037897Y023771D03*
X037893Y023767D03*
X037175Y023701D03*
X037173Y023705D03*
X037173Y023707D03*
X037171Y023711D03*
X037169Y023715D03*
X036891Y023747D03*
X036889Y023755D03*
X036889Y023757D03*
X036887Y023761D03*
D403*
X038270Y023701D03*
X039126Y025045D03*
X039160Y025545D03*
D404*
X038278Y023705D03*
D405*
X037900Y023773D03*
X037172Y023709D03*
X037170Y023713D03*
X037166Y023723D03*
X037162Y023729D03*
X036888Y023759D03*
X036886Y023769D03*
X036884Y023773D03*
X039174Y025289D03*
X038912Y025453D03*
X039100Y026049D03*
X039102Y026053D03*
X039106Y026059D03*
X039108Y026063D03*
X039110Y026069D03*
X039112Y026073D03*
X039446Y026409D03*
X039452Y026419D03*
X039454Y026423D03*
X039460Y026433D03*
X039464Y026439D03*
X039466Y026443D03*
D406*
X039377Y025881D03*
X039373Y025875D03*
X039369Y025867D03*
X039363Y025857D03*
X039359Y025851D03*
X037553Y023711D03*
D407*
X038290Y023713D03*
X039116Y025013D03*
D408*
X039146Y025117D03*
X039286Y025731D03*
X039288Y025735D03*
X039290Y025737D03*
X039292Y025741D03*
X039294Y025745D03*
X039298Y025751D03*
X039302Y025757D03*
X039304Y025761D03*
X039306Y025765D03*
X037550Y023715D03*
D409*
X037168Y023717D03*
X037166Y023721D03*
X037164Y023725D03*
X037164Y023727D03*
X037162Y023731D03*
X036886Y023765D03*
X036886Y023767D03*
X036884Y023775D03*
X039180Y025261D03*
X038914Y025455D03*
X038914Y025457D03*
X038986Y025665D03*
X038986Y025667D03*
X038972Y025701D03*
X039104Y026055D03*
X039104Y026057D03*
X039106Y026061D03*
X039108Y026065D03*
X039110Y026067D03*
X039440Y026397D03*
X039442Y026401D03*
X039444Y026405D03*
X039446Y026407D03*
X039448Y026411D03*
X039450Y026415D03*
X039452Y026417D03*
X039462Y026437D03*
X039468Y026447D03*
D410*
X039282Y025725D03*
X039280Y025721D03*
X039276Y025715D03*
X039270Y025707D03*
X039032Y025611D03*
X039032Y025607D03*
X039030Y025605D03*
X039030Y025601D03*
X039028Y025597D03*
X039028Y025595D03*
X039026Y025591D03*
X037548Y023717D03*
D411*
X038306Y023723D03*
X037944Y026203D03*
D412*
X039104Y024975D03*
X038312Y023727D03*
D413*
X037905Y023779D03*
X037161Y023733D03*
X036973Y023839D03*
X036945Y023839D03*
X036943Y023853D03*
X036943Y023859D03*
X036937Y023893D03*
X036881Y023783D03*
X036883Y023779D03*
X039147Y025363D03*
X038985Y025669D03*
X038973Y025699D03*
X039115Y026079D03*
X039117Y026083D03*
X039123Y026093D03*
X039125Y026099D03*
X039457Y026429D03*
X039469Y026449D03*
X039471Y026453D03*
X039475Y026459D03*
X039477Y026463D03*
X039557Y026569D03*
D414*
X039159Y025543D03*
X037535Y023733D03*
D415*
X038321Y023733D03*
X039099Y024959D03*
D416*
X039180Y025265D03*
X039180Y025267D03*
X039176Y025281D03*
X039174Y025285D03*
X039174Y025287D03*
X039124Y026097D03*
X039126Y026101D03*
X039130Y026111D03*
X039132Y026115D03*
X039134Y026117D03*
X039136Y026121D03*
X039482Y026471D03*
X039484Y026475D03*
X039486Y026477D03*
X039490Y026485D03*
X039494Y026491D03*
X037910Y023785D03*
X037160Y023735D03*
X036972Y023831D03*
X036972Y023835D03*
X036972Y023837D03*
X036974Y023841D03*
X036946Y023835D03*
X036946Y023831D03*
X036944Y023841D03*
X036944Y023845D03*
X036944Y023847D03*
X036942Y023861D03*
X036940Y023871D03*
X036940Y023875D03*
X036940Y023877D03*
X036936Y023895D03*
X036936Y023897D03*
X036936Y023901D03*
X036934Y023905D03*
X036934Y023907D03*
X036876Y023807D03*
X036880Y023791D03*
X036880Y023787D03*
X036882Y023781D03*
D417*
X036878Y023795D03*
X036878Y023797D03*
X036878Y023801D03*
X036938Y023881D03*
X036938Y023885D03*
X036938Y023887D03*
X037158Y023737D03*
X039178Y025275D03*
X038908Y025445D03*
X039128Y026105D03*
X039128Y026107D03*
X039478Y026465D03*
X039488Y026481D03*
X039498Y026497D03*
D418*
X038326Y023737D03*
D419*
X037157Y023739D03*
X036933Y023909D03*
X036933Y023913D03*
X036869Y023843D03*
X036873Y023823D03*
X036877Y023803D03*
X039179Y025269D03*
X038907Y025443D03*
X039143Y026133D03*
X039157Y026159D03*
X039489Y026483D03*
X039493Y026489D03*
X039499Y026499D03*
X039509Y026513D03*
D420*
X039096Y024949D03*
X038330Y023739D03*
D421*
X037913Y023787D03*
X037157Y023741D03*
X037153Y023751D03*
X036977Y023847D03*
X036933Y023911D03*
X036867Y023855D03*
X036869Y023845D03*
X036873Y023827D03*
X036873Y023825D03*
X036873Y023821D03*
X036877Y023805D03*
X039179Y025271D03*
X039177Y025277D03*
X038973Y025697D03*
X039139Y026125D03*
X039139Y026127D03*
X039143Y026135D03*
X039147Y026141D03*
X039497Y026495D03*
X039503Y026505D03*
X039507Y026511D03*
X039509Y026515D03*
X039533Y026547D03*
X039553Y026567D03*
D422*
X039095Y024945D03*
X038333Y023741D03*
D423*
X037915Y023789D03*
X037155Y023743D03*
X036935Y023903D03*
X036871Y023833D03*
X036871Y023829D03*
X036875Y023813D03*
X038905Y025439D03*
X038985Y025673D03*
X039135Y026119D03*
X039141Y026129D03*
X039495Y026493D03*
X039501Y026503D03*
X039505Y026509D03*
X039561Y026573D03*
D424*
X039159Y025569D03*
X039113Y025003D03*
X037529Y023743D03*
D425*
X037519Y023759D03*
X038335Y023743D03*
D426*
X037155Y023745D03*
X036975Y023845D03*
X036875Y023817D03*
X036875Y023815D03*
X036875Y023811D03*
X036871Y023831D03*
X036871Y023835D03*
X036871Y023837D03*
X038905Y025441D03*
X038985Y025671D03*
X039141Y026131D03*
X039145Y026137D03*
X039151Y026147D03*
X039491Y026487D03*
X039501Y026501D03*
X039505Y026507D03*
X039511Y026517D03*
X039525Y026537D03*
X039531Y026545D03*
D427*
X039112Y024997D03*
X037528Y023745D03*
D428*
X037154Y023747D03*
X037152Y023755D03*
X037150Y023757D03*
X036978Y023851D03*
X036978Y023855D03*
X036978Y023857D03*
X036980Y023861D03*
X036982Y023865D03*
X036982Y023867D03*
X036982Y023871D03*
X036984Y023875D03*
X036932Y023915D03*
X036862Y023881D03*
X036862Y023877D03*
X036864Y023871D03*
X036864Y023867D03*
X036864Y023865D03*
X036866Y023861D03*
X036866Y023857D03*
X036868Y023851D03*
X036868Y023847D03*
X036870Y023841D03*
X037916Y023791D03*
X037920Y023795D03*
X037922Y023797D03*
X038902Y025435D03*
X038904Y025437D03*
X038984Y025675D03*
X038974Y025695D03*
X039150Y026145D03*
X039152Y026151D03*
X039154Y026155D03*
X039156Y026157D03*
X039158Y026161D03*
X039160Y026165D03*
X039162Y026167D03*
X039168Y026177D03*
X039514Y026521D03*
X039516Y026525D03*
X039518Y026527D03*
X039520Y026531D03*
X039524Y026535D03*
X039528Y026541D03*
X039536Y026551D03*
X039546Y026561D03*
X039550Y026565D03*
D429*
X037944Y026201D03*
X039090Y024931D03*
X038340Y023747D03*
D430*
X037918Y023793D03*
X037154Y023749D03*
X037152Y023753D03*
X037150Y023759D03*
X037148Y023763D03*
X036978Y023849D03*
X036978Y023853D03*
X036980Y023863D03*
X036982Y023869D03*
X036984Y023873D03*
X036986Y023879D03*
X036868Y023853D03*
X036868Y023849D03*
X036866Y023859D03*
X036866Y023863D03*
X036864Y023869D03*
X036862Y023879D03*
X036870Y023839D03*
X039146Y026139D03*
X039148Y026143D03*
X039152Y026149D03*
X039154Y026153D03*
X039160Y026163D03*
X039166Y026173D03*
X039512Y026519D03*
X039514Y026523D03*
X039518Y026529D03*
X039522Y026533D03*
X039526Y026539D03*
X039530Y026543D03*
X039534Y026549D03*
X039538Y026553D03*
X039544Y026559D03*
X039548Y026563D03*
D431*
X037525Y023749D03*
D432*
X038343Y023749D03*
X039089Y024929D03*
D433*
X039103Y024971D03*
X037523Y023751D03*
D434*
X038347Y023751D03*
X039087Y024921D03*
D435*
X039100Y024963D03*
X037522Y023753D03*
D436*
X038349Y023753D03*
D437*
X037521Y023755D03*
D438*
X037520Y023757D03*
X039096Y024947D03*
D439*
X038901Y025431D03*
X039165Y026171D03*
X039167Y026175D03*
X039171Y026181D03*
X039173Y026185D03*
X039539Y026555D03*
X039541Y026557D03*
X039561Y026575D03*
X037143Y023777D03*
X037145Y023771D03*
X037147Y023767D03*
X037147Y023765D03*
X037149Y023761D03*
X036985Y023877D03*
X036987Y023881D03*
X036987Y023885D03*
X036989Y023887D03*
X036989Y023891D03*
X036991Y023901D03*
X036933Y023917D03*
X036933Y023921D03*
X036931Y023935D03*
X036931Y023937D03*
X036859Y023895D03*
X036861Y023887D03*
X036861Y023885D03*
X036863Y023875D03*
D440*
X037517Y023761D03*
X039091Y024935D03*
D441*
X037516Y023763D03*
D442*
X038362Y023763D03*
D443*
X037147Y023769D03*
X037145Y023773D03*
X037143Y023779D03*
X036979Y023859D03*
X036987Y023883D03*
X036989Y023889D03*
X036989Y023893D03*
X036991Y023903D03*
X036933Y023919D03*
X036931Y023933D03*
X036931Y023939D03*
X036859Y023893D03*
X036861Y023883D03*
X036863Y023873D03*
X038899Y025429D03*
X038901Y025433D03*
X039163Y026169D03*
X039169Y026179D03*
X039179Y026193D03*
D444*
X038370Y023769D03*
D445*
X037907Y023781D03*
X037903Y023777D03*
X037901Y023775D03*
X036945Y023837D03*
X036943Y023851D03*
X036943Y023855D03*
X036943Y023857D03*
X036941Y023865D03*
X036941Y023867D03*
X036937Y023891D03*
X036881Y023785D03*
X036883Y023777D03*
X036885Y023771D03*
X038909Y025447D03*
X038911Y025451D03*
X039111Y026071D03*
X039113Y026075D03*
X039113Y026077D03*
X039115Y026081D03*
X039117Y026085D03*
X039119Y026087D03*
X039121Y026091D03*
X039123Y026095D03*
X039453Y026421D03*
X039455Y026425D03*
X039457Y026427D03*
X039459Y026431D03*
X039461Y026435D03*
X039465Y026441D03*
X039467Y026445D03*
X039471Y026451D03*
X039473Y026455D03*
X039473Y026457D03*
X039475Y026461D03*
X039479Y026467D03*
X039559Y026571D03*
D446*
X039073Y024881D03*
X038373Y023771D03*
D447*
X037511Y023773D03*
X039071Y024879D03*
D448*
X039069Y024873D03*
X038375Y023773D03*
D449*
X037930Y023805D03*
X037926Y023801D03*
X037144Y023775D03*
X037142Y023781D03*
X037140Y023785D03*
X037140Y023787D03*
X036990Y023895D03*
X036990Y023897D03*
X036992Y023905D03*
X036992Y023907D03*
X036992Y023911D03*
X036932Y023925D03*
X036932Y023927D03*
X036932Y023931D03*
X036930Y023941D03*
X036930Y023945D03*
X036930Y023947D03*
X036930Y023951D03*
X036930Y023955D03*
X036930Y023957D03*
X036930Y023961D03*
X036856Y023907D03*
X036856Y023905D03*
X036858Y023901D03*
X036858Y023897D03*
X036860Y023891D03*
X038898Y025425D03*
X038898Y025427D03*
X038984Y025677D03*
X039524Y025627D03*
X039174Y026187D03*
X039178Y026191D03*
X039180Y026195D03*
X039182Y026197D03*
X039186Y026201D03*
X039188Y026205D03*
D450*
X037508Y023777D03*
D451*
X037508Y023779D03*
X039064Y024859D03*
D452*
X038896Y025423D03*
X038974Y025693D03*
X039172Y026183D03*
X039176Y026189D03*
X039184Y026199D03*
X039186Y026203D03*
X039190Y026209D03*
X036930Y023963D03*
X036930Y023959D03*
X036930Y023953D03*
X036930Y023949D03*
X036930Y023943D03*
X036932Y023929D03*
X036932Y023923D03*
X036992Y023909D03*
X036990Y023899D03*
X036860Y023889D03*
X036858Y023899D03*
X036858Y023903D03*
X036856Y023909D03*
X037142Y023783D03*
X037924Y023799D03*
X037928Y023803D03*
D453*
X037908Y023783D03*
X036938Y023879D03*
X036938Y023883D03*
X036938Y023889D03*
X036878Y023799D03*
X039178Y025273D03*
X039138Y026123D03*
D454*
X038387Y023783D03*
D455*
X038390Y023785D03*
D456*
X037504Y023787D03*
D457*
X036974Y023843D03*
X036972Y023833D03*
X036946Y023833D03*
X036944Y023843D03*
X036944Y023849D03*
X036942Y023863D03*
X036940Y023869D03*
X036940Y023873D03*
X036936Y023899D03*
X036874Y023819D03*
X036876Y023809D03*
X036880Y023793D03*
X036880Y023789D03*
X039180Y025263D03*
X039176Y025279D03*
X039174Y025283D03*
X038910Y025449D03*
X039120Y026089D03*
X039126Y026103D03*
X039130Y026109D03*
X039132Y026113D03*
X039480Y026469D03*
X039482Y026473D03*
X039486Y026479D03*
D458*
X038977Y025689D03*
X036927Y023983D03*
X036927Y023979D03*
X036929Y023973D03*
X036929Y023969D03*
X036995Y023923D03*
X036855Y023913D03*
X037131Y023809D03*
X037135Y023799D03*
X037137Y023793D03*
X037139Y023789D03*
D459*
X037503Y023789D03*
X039045Y024809D03*
D460*
X039059Y024843D03*
X038395Y023789D03*
D461*
X037935Y023811D03*
X037931Y023807D03*
X037137Y023795D03*
X037135Y023797D03*
X037137Y023791D03*
X037129Y023815D03*
X037127Y023821D03*
X037125Y023827D03*
X036995Y023921D03*
X036929Y023965D03*
X036929Y023967D03*
X036929Y023971D03*
X036929Y023975D03*
X036927Y023977D03*
X036927Y023981D03*
X036855Y023917D03*
X036855Y023915D03*
X036855Y023911D03*
X038895Y025421D03*
X038975Y025691D03*
X039189Y026207D03*
X039191Y026211D03*
D462*
X037501Y023793D03*
D463*
X038399Y023793D03*
D464*
X038402Y023795D03*
X039054Y024831D03*
D465*
X039052Y024825D03*
X038404Y023797D03*
D466*
X037499Y023799D03*
D467*
X038406Y023799D03*
D468*
X037134Y023801D03*
X037132Y023805D03*
X037132Y023807D03*
X037128Y023817D03*
X037124Y023831D03*
X037122Y023835D03*
X037122Y023837D03*
X038892Y025415D03*
X038978Y025687D03*
D469*
X038983Y025679D03*
X037933Y023809D03*
X037133Y023803D03*
X037123Y023833D03*
X036993Y023913D03*
X036853Y023923D03*
D470*
X037497Y023803D03*
X038455Y023843D03*
D471*
X038411Y023803D03*
D472*
X038464Y023851D03*
X037496Y023805D03*
X039016Y024735D03*
D473*
X039048Y024815D03*
X038414Y023805D03*
D474*
X037495Y023807D03*
X039015Y024731D03*
D475*
X039010Y024719D03*
X038472Y023859D03*
X037494Y023809D03*
D476*
X038418Y023809D03*
D477*
X037130Y023811D03*
X037126Y023825D03*
X036996Y023925D03*
X036996Y023927D03*
X036926Y023985D03*
X036926Y023987D03*
X036926Y023991D03*
X036926Y023995D03*
X036926Y023997D03*
X038980Y025685D03*
D478*
X037493Y023811D03*
D479*
X038421Y023811D03*
D480*
X036958Y023813D03*
X036958Y023819D03*
X039178Y025303D03*
X039438Y025579D03*
X038968Y025713D03*
X040148Y026939D03*
X040158Y026949D03*
D481*
X038890Y025413D03*
X036926Y023993D03*
X036926Y023989D03*
X037126Y023823D03*
X037130Y023813D03*
D482*
X037128Y023819D03*
X037124Y023829D03*
X036994Y023919D03*
X036854Y023919D03*
X037938Y023813D03*
X038894Y025419D03*
X038982Y025683D03*
X039194Y026213D03*
D483*
X038991Y024677D03*
X038991Y024675D03*
X038499Y023887D03*
X037491Y023817D03*
D484*
X038427Y023817D03*
X039037Y024787D03*
X039039Y024791D03*
D485*
X038505Y023893D03*
X037491Y023819D03*
D486*
X038429Y023819D03*
X039039Y024789D03*
D487*
X037488Y023823D03*
D488*
X038434Y023823D03*
X039034Y024779D03*
D489*
X038976Y024641D03*
X038974Y024637D03*
X038526Y023915D03*
X037488Y023825D03*
D490*
X038436Y023825D03*
D491*
X038535Y023925D03*
X037487Y023827D03*
X038969Y024627D03*
D492*
X038438Y023827D03*
D493*
X038539Y023929D03*
X037487Y023829D03*
X038965Y024619D03*
D494*
X039030Y024769D03*
X039032Y024773D03*
X038440Y023829D03*
D495*
X038556Y023949D03*
X037486Y023833D03*
X038954Y024593D03*
D496*
X037958Y023835D03*
D497*
X037483Y023837D03*
X038575Y023971D03*
X038941Y024567D03*
X038943Y024571D03*
X038945Y024575D03*
D498*
X039023Y024751D03*
X039025Y024755D03*
X038449Y023837D03*
D499*
X038577Y023973D03*
X038937Y024559D03*
X038939Y024563D03*
X037483Y023839D03*
D500*
X038451Y023839D03*
X039023Y024753D03*
D501*
X038930Y024545D03*
X038592Y023991D03*
X037482Y023841D03*
D502*
X038454Y023841D03*
D503*
X038598Y023999D03*
X038924Y024533D03*
X037482Y023843D03*
D504*
X037481Y023845D03*
X038611Y024015D03*
X038613Y024017D03*
X038915Y024515D03*
X038917Y024517D03*
D505*
X038911Y024507D03*
X038621Y024027D03*
X037481Y023847D03*
D506*
X038459Y023847D03*
X039017Y024737D03*
X039019Y024741D03*
D507*
X038904Y024493D03*
X038902Y024489D03*
X038632Y024043D03*
X038630Y024039D03*
X037480Y023849D03*
D508*
X037478Y023855D03*
X038664Y024085D03*
X038666Y024087D03*
X038876Y024437D03*
X038878Y024441D03*
X038880Y024445D03*
D509*
X038468Y023855D03*
D510*
X038678Y024105D03*
X038868Y024421D03*
X037478Y023857D03*
D511*
X037477Y023859D03*
X038691Y024123D03*
X038695Y024129D03*
X038705Y024143D03*
X038841Y024369D03*
X038843Y024373D03*
X038847Y024379D03*
X038849Y024383D03*
D512*
X039010Y024721D03*
X038474Y023861D03*
D513*
X038476Y023863D03*
D514*
X037476Y023865D03*
D515*
X037474Y023867D03*
D516*
X038480Y023867D03*
X038484Y023871D03*
X039004Y024705D03*
X039004Y024707D03*
X037944Y026191D03*
D517*
X037474Y023869D03*
D518*
X038482Y023869D03*
D519*
X037474Y023871D03*
D520*
X037473Y023873D03*
D521*
X038486Y023873D03*
D522*
X037473Y023875D03*
D523*
X038488Y023875D03*
X039000Y024697D03*
X039002Y024701D03*
D524*
X037473Y023877D03*
D525*
X038489Y023877D03*
X038999Y024695D03*
D526*
X038492Y023879D03*
D527*
X037471Y023881D03*
D528*
X037470Y023883D03*
D529*
X037470Y023885D03*
D530*
X038498Y023885D03*
X038994Y024681D03*
D531*
X037470Y023887D03*
D532*
X037469Y023889D03*
D533*
X038502Y023889D03*
D534*
X037469Y023891D03*
D535*
X038504Y023891D03*
D536*
X037469Y023895D03*
D537*
X038507Y023895D03*
X038987Y024667D03*
X038989Y024671D03*
D538*
X037467Y023899D03*
D539*
X038511Y023899D03*
X038985Y024663D03*
D540*
X037467Y023901D03*
D541*
X037466Y023903D03*
D542*
X038515Y023903D03*
X038981Y024653D03*
D543*
X037466Y023905D03*
D544*
X038517Y023905D03*
D545*
X038518Y023907D03*
X038978Y024647D03*
D546*
X037466Y023909D03*
D547*
X038520Y023909D03*
X038980Y024649D03*
D548*
X037464Y023911D03*
D549*
X038523Y023911D03*
X038977Y024645D03*
D550*
X038974Y024639D03*
X038524Y023913D03*
D551*
X036993Y023915D03*
X036993Y023917D03*
X036853Y023921D03*
X036853Y023925D03*
X038893Y025417D03*
X038983Y025681D03*
X039563Y026577D03*
D552*
X037464Y023915D03*
D553*
X037464Y023917D03*
X037944Y026165D03*
D554*
X038973Y024635D03*
X038527Y023917D03*
D555*
X037463Y023919D03*
D556*
X038530Y023919D03*
X038970Y024629D03*
D557*
X038972Y024631D03*
X038532Y023921D03*
D558*
X037463Y023925D03*
D559*
X037462Y023927D03*
D560*
X038536Y023927D03*
X038966Y024621D03*
X038968Y024625D03*
D561*
X037461Y023929D03*
D562*
X037461Y023931D03*
D563*
X038541Y023931D03*
X038965Y024617D03*
D564*
X037461Y023933D03*
D565*
X038542Y023933D03*
X038962Y024613D03*
D566*
X037461Y023935D03*
D567*
X038544Y023935D03*
X038546Y023937D03*
X038962Y024611D03*
X038964Y024615D03*
D568*
X037461Y023937D03*
D569*
X037460Y023939D03*
D570*
X038548Y023939D03*
X038958Y024603D03*
D571*
X037459Y023941D03*
D572*
X038551Y023943D03*
X038957Y024599D03*
D573*
X037459Y023945D03*
D574*
X038553Y023945D03*
X038555Y023947D03*
X038955Y024597D03*
X038957Y024601D03*
D575*
X037459Y023947D03*
D576*
X037459Y023949D03*
D577*
X037459Y023951D03*
D578*
X038558Y023951D03*
X038954Y024595D03*
D579*
X037458Y023953D03*
D580*
X038560Y023953D03*
D581*
X037458Y023955D03*
D582*
X038562Y023955D03*
X038564Y023957D03*
D583*
X037457Y023957D03*
D584*
X037457Y023959D03*
D585*
X038565Y023959D03*
X038947Y024579D03*
X038949Y024583D03*
D586*
X037457Y023961D03*
D587*
X037457Y023963D03*
D588*
X038568Y023963D03*
X038944Y024573D03*
D589*
X037457Y023965D03*
D590*
X038570Y023965D03*
X038572Y023967D03*
X038946Y024577D03*
D591*
X037457Y023967D03*
D592*
X037457Y023969D03*
D593*
X038573Y023969D03*
D594*
X037457Y023971D03*
D595*
X037455Y023973D03*
D596*
X037455Y023975D03*
D597*
X038579Y023975D03*
X038939Y024561D03*
D598*
X037455Y023977D03*
D599*
X038581Y023977D03*
D600*
X037455Y023979D03*
D601*
X038582Y023979D03*
X038934Y024553D03*
D602*
X037455Y023981D03*
D603*
X038584Y023981D03*
X038936Y024555D03*
X038936Y024557D03*
X037944Y026185D03*
D604*
X037455Y023983D03*
D605*
X037455Y023985D03*
D606*
X038587Y023985D03*
X038589Y023987D03*
X038931Y024547D03*
X038933Y024551D03*
D607*
X037454Y023987D03*
D608*
X037454Y023989D03*
X037944Y026143D03*
D609*
X038932Y024549D03*
X038590Y023989D03*
D610*
X037454Y023991D03*
D611*
X037454Y023993D03*
D612*
X038593Y023993D03*
X038927Y024539D03*
X038929Y024543D03*
D613*
X037454Y023995D03*
X037944Y026141D03*
D614*
X038929Y024541D03*
X038597Y023997D03*
X038595Y023995D03*
D615*
X037454Y023997D03*
D616*
X037454Y024001D03*
D617*
X038600Y024001D03*
X038926Y024535D03*
X038926Y024537D03*
D618*
X037453Y024003D03*
D619*
X038601Y024003D03*
D620*
X037453Y024005D03*
D621*
X038603Y024005D03*
X038923Y024531D03*
D622*
X037453Y024007D03*
D623*
X037453Y024009D03*
D624*
X038606Y024009D03*
X038920Y024523D03*
D625*
X037453Y024011D03*
D626*
X038608Y024011D03*
X038918Y024521D03*
X038920Y024525D03*
D627*
X037453Y024013D03*
D628*
X038609Y024013D03*
X038917Y024519D03*
D629*
X037453Y024015D03*
D630*
X037452Y024017D03*
D631*
X037452Y024019D03*
D632*
X038614Y024019D03*
X038912Y024509D03*
X038914Y024513D03*
D633*
X037452Y024021D03*
D634*
X038616Y024021D03*
D635*
X037452Y024023D03*
D636*
X037452Y024025D03*
D637*
X038619Y024025D03*
X038913Y024511D03*
D638*
X037452Y024027D03*
X037944Y026131D03*
D639*
X037452Y024029D03*
D640*
X038622Y024029D03*
X037944Y026183D03*
D641*
X037452Y024031D03*
D642*
X038624Y024031D03*
X038906Y024497D03*
X038910Y024505D03*
D643*
X037451Y024033D03*
D644*
X038625Y024033D03*
X038907Y024499D03*
D645*
X037451Y024035D03*
D646*
X038627Y024035D03*
X038629Y024037D03*
X038903Y024491D03*
X038905Y024495D03*
D647*
X037451Y024037D03*
D648*
X037451Y024039D03*
D649*
X037451Y024041D03*
D650*
X037452Y024043D03*
D651*
X037452Y024045D03*
X037944Y026125D03*
D652*
X037451Y024047D03*
D653*
X037451Y024049D03*
D654*
X037451Y024051D03*
D655*
X037451Y024053D03*
D656*
X038640Y024053D03*
D657*
X037451Y024055D03*
D658*
X037451Y024057D03*
D659*
X037451Y024059D03*
D660*
X037451Y024061D03*
D661*
X037450Y024063D03*
D662*
X037451Y024065D03*
D663*
X037451Y024067D03*
D664*
X037451Y024069D03*
D665*
X038652Y024069D03*
X038884Y024453D03*
X038888Y024459D03*
D666*
X037451Y024071D03*
D667*
X038654Y024071D03*
X038886Y024457D03*
X038888Y024461D03*
X038890Y024465D03*
D668*
X037451Y024073D03*
D669*
X038655Y024073D03*
X038879Y024443D03*
X038883Y024449D03*
D670*
X037451Y024075D03*
D671*
X037450Y024077D03*
D672*
X037450Y024079D03*
X037944Y026113D03*
D673*
X038878Y024439D03*
X038874Y024433D03*
X038662Y024083D03*
X038660Y024079D03*
D674*
X037451Y024081D03*
D675*
X037451Y024083D03*
D676*
X037451Y024085D03*
D677*
X037451Y024087D03*
D678*
X037451Y024089D03*
D679*
X038667Y024089D03*
X038669Y024093D03*
X038867Y024419D03*
X038869Y024423D03*
X038873Y024429D03*
D680*
X037451Y024091D03*
D681*
X038669Y024091D03*
X038673Y024097D03*
X038873Y024431D03*
D682*
X037451Y024093D03*
D683*
X037451Y024095D03*
D684*
X038671Y024095D03*
X038871Y024427D03*
X038875Y024435D03*
D685*
X037451Y024097D03*
D686*
X037451Y024099D03*
D687*
X038674Y024099D03*
X038862Y024409D03*
X038864Y024413D03*
D688*
X037451Y024101D03*
D689*
X037451Y024103D03*
D690*
X037452Y024105D03*
D691*
X037451Y024107D03*
D692*
X037451Y024109D03*
D693*
X037451Y024111D03*
D694*
X038683Y024111D03*
X038685Y024115D03*
X038687Y024117D03*
X038861Y024407D03*
X038863Y024411D03*
X038865Y024415D03*
D695*
X037451Y024113D03*
D696*
X037452Y024115D03*
D697*
X037452Y024117D03*
D698*
X037452Y024119D03*
D699*
X037452Y024121D03*
D700*
X038690Y024121D03*
X038692Y024125D03*
X038694Y024127D03*
X038852Y024391D03*
X038854Y024395D03*
X038856Y024397D03*
X038858Y024401D03*
X038860Y024405D03*
D701*
X037451Y024123D03*
D702*
X037452Y024125D03*
X037944Y026097D03*
D703*
X037452Y024127D03*
D704*
X037452Y024129D03*
D705*
X037452Y024131D03*
D706*
X038697Y024131D03*
X038699Y024135D03*
X038701Y024137D03*
X038703Y024141D03*
X038845Y024377D03*
X038847Y024381D03*
X038849Y024385D03*
X038851Y024387D03*
D707*
X037453Y024133D03*
D708*
X037453Y024135D03*
D709*
X037453Y024137D03*
D710*
X037452Y024139D03*
D711*
X038702Y024139D03*
X038708Y024149D03*
X038712Y024153D03*
X038838Y024363D03*
D712*
X037453Y024141D03*
D713*
X037453Y024143D03*
D714*
X037453Y024145D03*
D715*
X038706Y024145D03*
X038710Y024151D03*
X038836Y024361D03*
X038840Y024367D03*
D716*
X037453Y024147D03*
D717*
X038708Y024147D03*
X038714Y024157D03*
X038834Y024357D03*
X038838Y024365D03*
X038842Y024371D03*
X038844Y024375D03*
D718*
X037454Y024149D03*
D719*
X037454Y024151D03*
D720*
X037454Y024153D03*
D721*
X037454Y024155D03*
X037944Y026085D03*
D722*
X038833Y024355D03*
X038723Y024171D03*
X038713Y024155D03*
D723*
X037455Y024157D03*
D724*
X037454Y024159D03*
D725*
X038715Y024159D03*
X038719Y024163D03*
X038725Y024173D03*
X038825Y024339D03*
X038827Y024343D03*
X038831Y024349D03*
D726*
X037454Y024161D03*
D727*
X037454Y024163D03*
D728*
X037455Y024165D03*
D729*
X037455Y024167D03*
D730*
X037455Y024169D03*
D731*
X038722Y024169D03*
X038728Y024179D03*
X038732Y024183D03*
X038738Y024193D03*
X038744Y024203D03*
X038810Y024313D03*
X038816Y024323D03*
X038820Y024329D03*
X038822Y024333D03*
D732*
X037456Y024171D03*
D733*
X037456Y024173D03*
D734*
X037456Y024175D03*
X037944Y026077D03*
D735*
X038828Y024345D03*
X038826Y024341D03*
X038824Y024337D03*
X038822Y024335D03*
X038820Y024331D03*
X038818Y024327D03*
X038816Y024325D03*
X038814Y024321D03*
X038812Y024317D03*
X038740Y024197D03*
X038736Y024191D03*
X038734Y024187D03*
X038732Y024185D03*
X038730Y024181D03*
X038728Y024177D03*
X038726Y024175D03*
D736*
X037456Y024177D03*
D737*
X037456Y024179D03*
D738*
X037456Y024181D03*
D739*
X037456Y024183D03*
D740*
X037457Y024185D03*
D741*
X037457Y024187D03*
D742*
X037457Y024189D03*
D743*
X038735Y024189D03*
X038741Y024199D03*
X038747Y024209D03*
X038751Y024213D03*
X038757Y024223D03*
X038763Y024233D03*
X038769Y024243D03*
X038775Y024253D03*
X038781Y024263D03*
X038787Y024273D03*
X038793Y024283D03*
X038799Y024293D03*
X038805Y024303D03*
X038807Y024309D03*
X038813Y024319D03*
D744*
X037458Y024191D03*
X037944Y026071D03*
D745*
X037458Y024193D03*
D746*
X037458Y024195D03*
X037458Y024197D03*
D747*
X038739Y024195D03*
X038743Y024201D03*
X038745Y024205D03*
X038747Y024207D03*
X038749Y024211D03*
X038751Y024215D03*
X038753Y024217D03*
X038755Y024221D03*
X038759Y024227D03*
X038765Y024237D03*
X038783Y024267D03*
X038789Y024277D03*
X038795Y024287D03*
X038797Y024291D03*
X038799Y024295D03*
X038801Y024297D03*
X038803Y024301D03*
X038805Y024305D03*
X038807Y024307D03*
X038809Y024311D03*
X038811Y024315D03*
D748*
X037458Y024199D03*
D749*
X037458Y024201D03*
D750*
X037459Y024203D03*
D751*
X037459Y024205D03*
D752*
X037459Y024207D03*
D753*
X037460Y024209D03*
D754*
X037460Y024211D03*
D755*
X037460Y024213D03*
D756*
X037461Y024215D03*
D757*
X037460Y024217D03*
X037944Y026061D03*
D758*
X037460Y024219D03*
D759*
X037461Y024221D03*
D760*
X037461Y024223D03*
D761*
X037461Y024225D03*
D762*
X038758Y024225D03*
X038762Y024231D03*
X038764Y024235D03*
X038768Y024241D03*
X038770Y024245D03*
X038772Y024247D03*
X038774Y024251D03*
X038776Y024255D03*
X038778Y024257D03*
X038780Y024261D03*
X038782Y024265D03*
X038786Y024271D03*
X038788Y024275D03*
X038792Y024281D03*
X038794Y024285D03*
D763*
X037462Y024227D03*
D764*
X037462Y024229D03*
D765*
X037462Y024231D03*
D766*
X037463Y024233D03*
D767*
X037463Y024235D03*
D768*
X037464Y024237D03*
D769*
X037464Y024239D03*
D770*
X037463Y024241D03*
D771*
X037464Y024243D03*
D772*
X037464Y024245D03*
D773*
X037464Y024247D03*
D774*
X037465Y024249D03*
D775*
X037465Y024251D03*
D776*
X037466Y024253D03*
D777*
X037466Y024255D03*
D778*
X037466Y024257D03*
D779*
X037467Y024259D03*
D780*
X037467Y024261D03*
D781*
X037468Y024263D03*
D782*
X037468Y024265D03*
D783*
X037469Y024267D03*
D784*
X037468Y024269D03*
X037944Y026039D03*
D785*
X037944Y026037D03*
X037468Y024271D03*
D786*
X037469Y024273D03*
D787*
X037469Y024275D03*
D788*
X037470Y024277D03*
X037944Y026035D03*
D789*
X037470Y024279D03*
D790*
X037470Y024281D03*
D791*
X037471Y024283D03*
D792*
X037471Y024285D03*
D793*
X037472Y024287D03*
X037944Y026031D03*
D794*
X037944Y026029D03*
X037472Y024289D03*
D795*
X037473Y024291D03*
D796*
X037473Y024293D03*
D797*
X037473Y024295D03*
D798*
X037473Y024297D03*
D799*
X037473Y024299D03*
D800*
X037474Y024301D03*
X037944Y026025D03*
D801*
X037944Y026023D03*
X037474Y024303D03*
D802*
X037475Y024305D03*
D803*
X037475Y024307D03*
D804*
X037476Y024309D03*
D805*
X037476Y024311D03*
D806*
X037477Y024313D03*
D807*
X037477Y024315D03*
D808*
X037478Y024317D03*
X037944Y026017D03*
D809*
X037478Y024319D03*
D810*
X037479Y024321D03*
D811*
X037478Y024323D03*
D812*
X037479Y024325D03*
D813*
X037479Y024327D03*
D814*
X037479Y024329D03*
D815*
X037480Y024331D03*
X037944Y026011D03*
D816*
X037480Y024333D03*
D817*
X037481Y024335D03*
D818*
X037481Y024337D03*
D819*
X037482Y024339D03*
D820*
X037482Y024341D03*
D821*
X037483Y024343D03*
D822*
X037483Y024345D03*
D823*
X037484Y024347D03*
D824*
X037484Y024349D03*
D825*
X037484Y024351D03*
D826*
X037484Y024353D03*
D827*
X038833Y024353D03*
D828*
X037485Y024355D03*
D829*
X037486Y024357D03*
D830*
X037486Y024359D03*
D831*
X038836Y024359D03*
D832*
X037487Y024361D03*
D833*
X037487Y024363D03*
D834*
X037488Y024365D03*
D835*
X037488Y024367D03*
X037944Y025995D03*
D836*
X037489Y024369D03*
D837*
X037489Y024371D03*
D838*
X037490Y024373D03*
D839*
X037490Y024375D03*
X037490Y024377D03*
X037944Y025991D03*
D840*
X037944Y025989D03*
X037490Y024379D03*
D841*
X037491Y024381D03*
D842*
X037491Y024383D03*
D843*
X037492Y024385D03*
X037944Y025987D03*
D844*
X037944Y025985D03*
X037492Y024387D03*
D845*
X037493Y024389D03*
D846*
X037494Y024391D03*
D847*
X037494Y024393D03*
D848*
X037495Y024395D03*
D849*
X037495Y024397D03*
D850*
X037496Y024399D03*
X037944Y025979D03*
D851*
X037496Y024401D03*
D852*
X037497Y024403D03*
D853*
X037496Y024405D03*
X037944Y025977D03*
D854*
X037497Y024407D03*
D855*
X037498Y024409D03*
D856*
X037498Y024411D03*
D857*
X037499Y024413D03*
D858*
X037499Y024415D03*
D859*
X037500Y024417D03*
X037944Y025971D03*
D860*
X037501Y024419D03*
D861*
X037501Y024421D03*
D862*
X037502Y024423D03*
X037944Y025969D03*
D863*
X037944Y025967D03*
X037502Y024425D03*
D864*
X037503Y024427D03*
D865*
X037503Y024429D03*
D866*
X037503Y024431D03*
D867*
X037504Y024433D03*
D868*
X037504Y024435D03*
D869*
X037505Y024437D03*
D870*
X037505Y024439D03*
D871*
X037506Y024441D03*
D872*
X037507Y024443D03*
D873*
X037507Y024445D03*
D874*
X037508Y024447D03*
X037944Y025957D03*
D875*
X037508Y024449D03*
D876*
X037509Y024451D03*
D877*
X037510Y024453D03*
D878*
X037510Y024455D03*
D879*
X037511Y024457D03*
D880*
X037510Y024459D03*
D881*
X037511Y024461D03*
D882*
X037512Y024463D03*
X037944Y025949D03*
D883*
X037512Y024465D03*
D884*
X037513Y024467D03*
D885*
X037514Y024469D03*
D886*
X038892Y024469D03*
X038894Y024473D03*
D887*
X037514Y024471D03*
X037944Y025945D03*
D888*
X038893Y024471D03*
D889*
X037515Y024473D03*
D890*
X037516Y024475D03*
D891*
X037516Y024477D03*
X037944Y025941D03*
D892*
X038896Y024477D03*
D893*
X037517Y024479D03*
D894*
X037517Y024481D03*
D895*
X037518Y024483D03*
X037944Y025939D03*
D896*
X037519Y024485D03*
D897*
X037518Y024487D03*
X037944Y025937D03*
D898*
X037519Y024489D03*
D899*
X037520Y024491D03*
X037944Y025935D03*
D900*
X037520Y024493D03*
D901*
X037521Y024495D03*
D902*
X037522Y024497D03*
D903*
X037522Y024499D03*
D904*
X037523Y024501D03*
D905*
X038908Y024501D03*
D906*
X037524Y024503D03*
X037944Y025929D03*
D907*
X037944Y025927D03*
X037524Y024505D03*
D908*
X037525Y024507D03*
D909*
X037526Y024509D03*
D910*
X037526Y024511D03*
X037944Y025925D03*
D911*
X037526Y024513D03*
D912*
X037527Y024515D03*
D913*
X037527Y024517D03*
D914*
X037528Y024519D03*
D915*
X037529Y024521D03*
D916*
X037530Y024525D03*
D917*
X037531Y024527D03*
D918*
X037531Y024529D03*
D919*
X038923Y024529D03*
D920*
X037532Y024531D03*
X037944Y025915D03*
D921*
X037533Y024533D03*
D922*
X037533Y024535D03*
D923*
X037534Y024537D03*
X037944Y025911D03*
D924*
X037535Y024539D03*
D925*
X037534Y024541D03*
D926*
X037535Y024543D03*
D927*
X037536Y024545D03*
D928*
X037537Y024547D03*
D929*
X037537Y024549D03*
D930*
X037538Y024551D03*
X037944Y025905D03*
D931*
X037539Y024553D03*
D932*
X037539Y024555D03*
D933*
X037540Y024557D03*
X037944Y025901D03*
D934*
X037541Y024559D03*
D935*
X037541Y024561D03*
D936*
X037542Y024563D03*
D937*
X037543Y024565D03*
D938*
X038940Y024565D03*
D939*
X037544Y024567D03*
X037944Y025897D03*
D940*
X037543Y024569D03*
D941*
X038942Y024569D03*
D942*
X037544Y024571D03*
X037944Y025895D03*
D943*
X037545Y024573D03*
D944*
X037545Y024575D03*
D945*
X037546Y024577D03*
X037944Y025891D03*
D946*
X037547Y024579D03*
D947*
X037548Y024581D03*
D948*
X037548Y024583D03*
D949*
X037549Y024585D03*
D950*
X038950Y024587D03*
X038950Y024585D03*
D951*
X037550Y024587D03*
X037944Y025885D03*
D952*
X037550Y024589D03*
D953*
X038951Y024589D03*
D954*
X037550Y024591D03*
X037550Y024595D03*
D955*
X038953Y024591D03*
D956*
X037550Y024593D03*
D957*
X037551Y024597D03*
D958*
X037550Y024599D03*
X037944Y025883D03*
D959*
X037551Y024601D03*
D960*
X037551Y024603D03*
D961*
X037552Y024605D03*
X037944Y025881D03*
D962*
X038959Y024605D03*
D963*
X037551Y024607D03*
D964*
X037552Y024609D03*
X037552Y024613D03*
X037944Y025879D03*
D965*
X038961Y024609D03*
D966*
X037552Y024611D03*
D967*
X037552Y024615D03*
X037552Y024617D03*
X037944Y025877D03*
D968*
X037553Y024619D03*
D969*
X037553Y024621D03*
D970*
X037553Y024623D03*
D971*
X038968Y024623D03*
D972*
X037553Y024625D03*
D973*
X037554Y024627D03*
D974*
X037554Y024629D03*
X037944Y025873D03*
D975*
X037553Y024631D03*
D976*
X037554Y024633D03*
D977*
X038972Y024633D03*
D978*
X037554Y024635D03*
X037944Y025871D03*
D979*
X037555Y024637D03*
D980*
X037555Y024639D03*
D981*
X037555Y024641D03*
D982*
X037555Y024643D03*
D983*
X038977Y024643D03*
D984*
X037556Y024645D03*
X037556Y024647D03*
X037944Y025867D03*
D985*
X037555Y024649D03*
D986*
X037556Y024651D03*
X037944Y025865D03*
D987*
X037556Y024653D03*
D988*
X037557Y024655D03*
X037557Y024657D03*
D989*
X038982Y024657D03*
X038982Y024655D03*
D990*
X037557Y024659D03*
D991*
X037557Y024661D03*
D992*
X037558Y024663D03*
X037944Y025863D03*
D993*
X037558Y024667D03*
X037558Y024665D03*
D994*
X038986Y024665D03*
D995*
X037558Y024669D03*
D996*
X037558Y024671D03*
X037944Y025861D03*
D997*
X037559Y024673D03*
D998*
X038990Y024673D03*
D999*
X037559Y024675D03*
D1000*
X037560Y024677D03*
D1001*
X037559Y024679D03*
D1002*
X038993Y024679D03*
D1003*
X037560Y024681D03*
X037560Y024685D03*
X037944Y025857D03*
D1004*
X037560Y024683D03*
D1005*
X037561Y024687D03*
D1006*
X037560Y024689D03*
D1007*
X037561Y024691D03*
D1008*
X038998Y024691D03*
D1009*
X037561Y024693D03*
D1010*
X038999Y024693D03*
D1011*
X037562Y024695D03*
X037562Y024697D03*
D1012*
X037563Y024699D03*
D1013*
X037562Y024701D03*
X037944Y025851D03*
D1014*
X037562Y024703D03*
D1015*
X037563Y024705D03*
X037563Y024707D03*
D1016*
X037564Y024709D03*
X037944Y025849D03*
D1017*
X039005Y024709D03*
D1018*
X037564Y024711D03*
D1019*
X039006Y024711D03*
D1020*
X037564Y024713D03*
D1021*
X039008Y024713D03*
D1022*
X037564Y024715D03*
X037944Y025847D03*
D1023*
X037565Y024721D03*
X037565Y024717D03*
D1024*
X039009Y024717D03*
D1025*
X037565Y024719D03*
D1026*
X037566Y024723D03*
D1027*
X039011Y024723D03*
D1028*
X037565Y024725D03*
D1029*
X037566Y024727D03*
D1030*
X037566Y024729D03*
X037944Y025843D03*
D1031*
X037567Y024731D03*
D1032*
X037567Y024733D03*
D1033*
X037568Y024735D03*
X037568Y024737D03*
X037944Y025841D03*
D1034*
X037567Y024739D03*
D1035*
X039018Y024739D03*
D1036*
X037568Y024741D03*
D1037*
X037568Y024743D03*
X037944Y025839D03*
D1038*
X039020Y024743D03*
D1039*
X037569Y024745D03*
X037569Y024747D03*
D1040*
X039021Y024747D03*
D1041*
X037570Y024749D03*
D1042*
X037570Y024751D03*
X037944Y025837D03*
D1043*
X037571Y024753D03*
D1044*
X037570Y024755D03*
X037570Y024757D03*
X037944Y025835D03*
D1045*
X037571Y024759D03*
D1046*
X039026Y024759D03*
D1047*
X037571Y024761D03*
D1048*
X037572Y024763D03*
X037944Y025833D03*
D1049*
X039028Y024763D03*
D1050*
X037572Y024765D03*
D1051*
X039028Y024765D03*
D1052*
X037573Y024767D03*
D1053*
X037573Y024769D03*
D1054*
X037573Y024771D03*
X037573Y024775D03*
D1055*
X039031Y024771D03*
D1056*
X037573Y024773D03*
D1057*
X037574Y024777D03*
D1058*
X037574Y024779D03*
X037944Y025829D03*
D1059*
X037575Y024781D03*
D1060*
X037575Y024783D03*
D1061*
X039035Y024783D03*
D1062*
X037576Y024785D03*
X037576Y024787D03*
X037944Y025827D03*
D1063*
X037576Y024793D03*
X037576Y024789D03*
D1064*
X037576Y024791D03*
X037944Y025825D03*
D1065*
X037577Y024797D03*
X037577Y024795D03*
D1066*
X037578Y024799D03*
X037944Y025823D03*
D1067*
X037578Y024801D03*
D1068*
X039043Y024801D03*
D1069*
X037579Y024803D03*
D1070*
X039043Y024803D03*
D1071*
X037579Y024805D03*
D1072*
X037580Y024807D03*
D1073*
X037580Y024809D03*
D1074*
X037579Y024811D03*
D1075*
X037580Y024813D03*
X037944Y025819D03*
D1076*
X037580Y024815D03*
D1077*
X037581Y024817D03*
D1078*
X037581Y024819D03*
D1079*
X039050Y024819D03*
D1080*
X037582Y024821D03*
X037944Y025817D03*
D1081*
X039050Y024821D03*
D1082*
X037582Y024823D03*
D1083*
X039051Y024823D03*
D1084*
X037583Y024825D03*
X037583Y024827D03*
D1085*
X037583Y024829D03*
D1086*
X037584Y024831D03*
X037944Y025815D03*
D1087*
X037584Y024833D03*
D1088*
X037585Y024835D03*
D1089*
X039055Y024835D03*
D1090*
X037584Y024837D03*
D1091*
X039057Y024837D03*
D1092*
X037585Y024839D03*
D1093*
X037585Y024841D03*
D1094*
X037586Y024843D03*
D1095*
X037586Y024845D03*
X037586Y024847D03*
D1096*
X037587Y024849D03*
D1097*
X037587Y024851D03*
D1098*
X039062Y024851D03*
D1099*
X037588Y024853D03*
X037944Y025809D03*
D1100*
X039062Y024853D03*
D1101*
X037588Y024855D03*
D1102*
X037589Y024857D03*
D1103*
X037589Y024859D03*
D1104*
X037590Y024861D03*
X037590Y024865D03*
X037944Y025807D03*
D1105*
X037590Y024863D03*
D1106*
X037591Y024867D03*
D1107*
X039067Y024867D03*
D1108*
X037591Y024869D03*
D1109*
X037592Y024871D03*
X037944Y025805D03*
D1110*
X037592Y024873D03*
D1111*
X037593Y024875D03*
X037593Y024877D03*
D1112*
X039071Y024877D03*
D1113*
X037594Y024879D03*
X037944Y025803D03*
D1114*
X037593Y024881D03*
D1115*
X037593Y024883D03*
D1116*
X037594Y024885D03*
X037594Y024887D03*
X037944Y025801D03*
D1117*
X037595Y024889D03*
D1118*
X037595Y024891D03*
D1119*
X037596Y024893D03*
X037944Y025799D03*
D1120*
X037596Y024895D03*
D1121*
X039078Y024897D03*
X039078Y024895D03*
D1122*
X037597Y024897D03*
X037597Y024901D03*
D1123*
X037597Y024899D03*
D1124*
X037598Y024903D03*
D1125*
X037598Y024905D03*
X037944Y025797D03*
D1126*
X037599Y024907D03*
D1127*
X037599Y024909D03*
D1128*
X039083Y024909D03*
D1129*
X037600Y024911D03*
X037944Y025795D03*
D1130*
X039083Y024911D03*
D1131*
X037600Y024913D03*
X037944Y025793D03*
D1132*
X037601Y024917D03*
X037601Y024915D03*
D1133*
X037601Y024919D03*
D1134*
X039086Y024919D03*
D1135*
X037602Y024921D03*
X037944Y025791D03*
D1136*
X037602Y024923D03*
D1137*
X039087Y024923D03*
D1138*
X037603Y024925D03*
X037603Y024927D03*
D1139*
X039089Y024927D03*
D1140*
X037604Y024929D03*
X037944Y025789D03*
D1141*
X037604Y024931D03*
D1142*
X037605Y024933D03*
D1143*
X037605Y024935D03*
X037605Y024937D03*
D1144*
X037606Y024939D03*
D1145*
X039093Y024939D03*
D1146*
X037606Y024941D03*
X037944Y025787D03*
D1147*
X039093Y024941D03*
D1148*
X037607Y024943D03*
D1149*
X039094Y024943D03*
D1150*
X037607Y024945D03*
D1151*
X037608Y024947D03*
X037944Y025785D03*
D1152*
X037608Y024949D03*
D1153*
X037609Y024951D03*
X037609Y024955D03*
D1154*
X039097Y024951D03*
D1155*
X037609Y024953D03*
D1156*
X039098Y024955D03*
D1157*
X037611Y024957D03*
D1158*
X037611Y024959D03*
D1159*
X037612Y024961D03*
D1160*
X039099Y024961D03*
D1161*
X037612Y024963D03*
X037944Y025783D03*
D1162*
X037613Y024967D03*
X037613Y024965D03*
D1163*
X037614Y024969D03*
X037614Y024973D03*
D1164*
X039102Y024969D03*
D1165*
X037944Y025781D03*
X037614Y024971D03*
D1166*
X037615Y024975D03*
X037615Y024977D03*
D1167*
X037616Y024979D03*
D1168*
X039105Y024979D03*
D1169*
X037616Y024981D03*
D1170*
X039106Y024981D03*
D1171*
X037617Y024983D03*
D1172*
X037617Y024985D03*
D1173*
X037618Y024987D03*
X037618Y024991D03*
X037944Y025777D03*
D1174*
X037618Y024989D03*
D1175*
X039109Y024989D03*
X039159Y025579D03*
D1176*
X037619Y024993D03*
D1177*
X037619Y024995D03*
D1178*
X039111Y024995D03*
X039159Y025575D03*
D1179*
X037944Y025775D03*
X037622Y025001D03*
X037620Y024997D03*
D1180*
X037620Y024999D03*
X037622Y025003D03*
D1181*
X039112Y024999D03*
D1182*
X037623Y025005D03*
X037623Y025007D03*
D1183*
X037623Y025009D03*
D1184*
X039115Y025009D03*
D1185*
X037944Y025771D03*
X037624Y025011D03*
D1186*
X037624Y025013D03*
X037944Y025773D03*
D1187*
X037625Y025017D03*
X037625Y025015D03*
D1188*
X037626Y025019D03*
X037944Y025769D03*
D1189*
X037628Y025027D03*
X037626Y025021D03*
D1190*
X039119Y025021D03*
D1191*
X037629Y025029D03*
X037627Y025023D03*
D1192*
X039120Y025023D03*
D1193*
X037629Y025031D03*
X037627Y025025D03*
D1194*
X039120Y025025D03*
D1195*
X037630Y025033D03*
D1196*
X037630Y025035D03*
D1197*
X039123Y025037D03*
X039123Y025035D03*
D1198*
X037631Y025037D03*
D1199*
X037631Y025039D03*
D1200*
X037632Y025041D03*
X037632Y025045D03*
X037944Y025765D03*
D1201*
X039125Y025041D03*
D1202*
X037634Y025049D03*
X037632Y025043D03*
D1203*
X037633Y025047D03*
X037635Y025051D03*
D1204*
X039126Y025049D03*
D1205*
X037635Y025053D03*
D1206*
X039128Y025053D03*
X039160Y025539D03*
D1207*
X037636Y025057D03*
X037636Y025055D03*
D1208*
X037637Y025059D03*
X037637Y025063D03*
D1209*
X039130Y025059D03*
X039160Y025533D03*
D1210*
X037639Y025067D03*
X037637Y025061D03*
D1211*
X039131Y025063D03*
D1212*
X037638Y025065D03*
D1213*
X039132Y025065D03*
X039160Y025531D03*
D1214*
X037640Y025069D03*
D1215*
X037640Y025071D03*
X037944Y025761D03*
D1216*
X037641Y025073D03*
D1217*
X039134Y025073D03*
D1218*
X037641Y025075D03*
D1219*
X037642Y025077D03*
X037642Y025081D03*
X037644Y025085D03*
D1220*
X039135Y025077D03*
D1221*
X037944Y025759D03*
X037644Y025083D03*
X037642Y025079D03*
D1222*
X039136Y025079D03*
D1223*
X037645Y025087D03*
D1224*
X037645Y025089D03*
D1225*
X037646Y025091D03*
D1226*
X037646Y025093D03*
D1227*
X037647Y025095D03*
X037647Y025097D03*
X037649Y025101D03*
D1228*
X037648Y025099D03*
D1229*
X039140Y025099D03*
X039236Y025643D03*
X039240Y025649D03*
D1230*
X037649Y025103D03*
D1231*
X037650Y025105D03*
X037650Y025107D03*
X037930Y025737D03*
D1232*
X037927Y025733D03*
X037925Y025729D03*
X037653Y025113D03*
X037651Y025109D03*
D1233*
X037651Y025111D03*
X037653Y025115D03*
X037653Y025117D03*
X037927Y025731D03*
X037929Y025735D03*
D1234*
X039035Y025617D03*
X039035Y025615D03*
X039041Y025631D03*
X039265Y025697D03*
X039145Y025111D03*
D1235*
X039144Y025113D03*
X039026Y025589D03*
X039026Y025593D03*
X039028Y025599D03*
X039030Y025603D03*
X039032Y025609D03*
X039034Y025613D03*
X039266Y025699D03*
X039268Y025703D03*
X039272Y025709D03*
X039274Y025713D03*
X039278Y025719D03*
D1236*
X039277Y025717D03*
X039273Y025711D03*
X039283Y025727D03*
X039301Y025755D03*
X039161Y025497D03*
X039161Y025495D03*
X039145Y025115D03*
D1237*
X037654Y025119D03*
D1238*
X039146Y025119D03*
X039160Y025493D03*
X039296Y025749D03*
X039306Y025763D03*
D1239*
X037924Y025727D03*
X037656Y025125D03*
X037654Y025121D03*
D1240*
X039147Y025121D03*
X039161Y025491D03*
X039295Y025747D03*
X039307Y025767D03*
X039309Y025771D03*
X039319Y025785D03*
D1241*
X037921Y025723D03*
X037655Y025123D03*
D1242*
X039148Y025123D03*
X039314Y025779D03*
D1243*
X037923Y025725D03*
X037657Y025127D03*
D1244*
X039148Y025127D03*
X039160Y025485D03*
X039160Y025487D03*
X039334Y025811D03*
X039336Y025815D03*
X039338Y025817D03*
X039340Y025821D03*
X039342Y025825D03*
X039344Y025827D03*
D1245*
X037919Y025719D03*
X037657Y025129D03*
D1246*
X039149Y025129D03*
X039159Y025483D03*
X039345Y025829D03*
X039351Y025839D03*
D1247*
X037918Y025717D03*
X037658Y025135D03*
X037658Y025131D03*
D1248*
X037658Y025133D03*
D1249*
X037660Y025137D03*
X037914Y025711D03*
X037916Y025715D03*
D1250*
X037660Y025139D03*
D1251*
X037661Y025141D03*
D1252*
X039152Y025141D03*
X039412Y025937D03*
X039414Y025941D03*
X039416Y025945D03*
X039418Y025947D03*
X039420Y025951D03*
X039422Y025955D03*
X039424Y025957D03*
D1253*
X037915Y025713D03*
X037913Y025709D03*
X037661Y025143D03*
D1254*
X039153Y025143D03*
X039443Y025989D03*
D1255*
X037912Y025707D03*
X037910Y025705D03*
X037908Y025701D03*
X037664Y025151D03*
X037662Y025147D03*
X037662Y025145D03*
D1256*
X039153Y025145D03*
X039433Y025971D03*
X039443Y025987D03*
D1257*
X037910Y025703D03*
X037664Y025153D03*
X037664Y025149D03*
D1258*
X037665Y025155D03*
X037665Y025157D03*
X037667Y025161D03*
X037905Y025695D03*
X037905Y025697D03*
D1259*
X037907Y025699D03*
X037903Y025693D03*
X037667Y025159D03*
D1260*
X037668Y025163D03*
D1261*
X037668Y025165D03*
X037902Y025691D03*
D1262*
X037899Y025685D03*
X037671Y025175D03*
X037669Y025167D03*
D1263*
X037670Y025169D03*
D1264*
X039158Y025169D03*
X039582Y026209D03*
D1265*
X037900Y025687D03*
X037670Y025171D03*
D1266*
X037671Y025173D03*
X037895Y025679D03*
X037897Y025683D03*
X037901Y025689D03*
D1267*
X037896Y025681D03*
X037894Y025677D03*
X037892Y025675D03*
X037674Y025181D03*
X037672Y025177D03*
D1268*
X037673Y025179D03*
D1269*
X039075Y025639D03*
X039081Y025653D03*
X039651Y026313D03*
X039655Y026319D03*
X039661Y026329D03*
X039671Y026343D03*
X039161Y025179D03*
D1270*
X037676Y025189D03*
X037674Y025183D03*
D1271*
X039162Y025183D03*
X039084Y025659D03*
X039086Y025663D03*
X039088Y025669D03*
X039090Y025673D03*
X039094Y025679D03*
X039096Y025683D03*
X039098Y025689D03*
X039104Y025699D03*
X039106Y025703D03*
X039664Y026333D03*
X039668Y026339D03*
X039676Y026349D03*
X039678Y026353D03*
D1272*
X037891Y025671D03*
X037887Y025665D03*
X037679Y025197D03*
X037677Y025191D03*
X037675Y025187D03*
X037675Y025185D03*
D1273*
X039164Y025187D03*
X039190Y025341D03*
X039212Y025365D03*
X039214Y025367D03*
X039218Y025371D03*
X039222Y025375D03*
X039114Y025721D03*
X039116Y025725D03*
X039116Y025727D03*
X039118Y025731D03*
X039120Y025735D03*
X039122Y025737D03*
X039124Y025741D03*
X039686Y026367D03*
X039700Y026385D03*
X039700Y026387D03*
X039706Y026395D03*
X039708Y026397D03*
D1274*
X037891Y025673D03*
X037889Y025669D03*
X037677Y025193D03*
D1275*
X037678Y025195D03*
X037680Y025201D03*
X037682Y025207D03*
X037882Y025657D03*
X037884Y025661D03*
X037888Y025667D03*
D1276*
X037886Y025663D03*
X037680Y025199D03*
D1277*
X039166Y025199D03*
X039154Y025419D03*
X039262Y025413D03*
X039156Y025813D03*
X039164Y025829D03*
X039166Y025833D03*
X039172Y025843D03*
X039174Y025849D03*
X039176Y025853D03*
X039180Y025863D03*
X039774Y026493D03*
X039792Y026519D03*
X039796Y026523D03*
X039800Y026529D03*
X039804Y026533D03*
X039810Y026543D03*
D1278*
X037681Y025203D03*
D1279*
X037681Y025205D03*
X037685Y025215D03*
X037881Y025655D03*
D1280*
X037883Y025659D03*
X037683Y025209D03*
D1281*
X037683Y025211D03*
X037879Y025651D03*
D1282*
X037880Y025653D03*
X037874Y025643D03*
X037872Y025639D03*
X037686Y025219D03*
X037684Y025213D03*
D1283*
X037686Y025217D03*
X037876Y025645D03*
X037876Y025647D03*
D1284*
X037873Y025641D03*
X037871Y025637D03*
X037691Y025231D03*
X037689Y025227D03*
X037687Y025221D03*
D1285*
X037688Y025223D03*
X037878Y025649D03*
D1286*
X037688Y025225D03*
D1287*
X037689Y025229D03*
X037691Y025233D03*
X037869Y025633D03*
D1288*
X037870Y025635D03*
X037868Y025631D03*
X037866Y025627D03*
X037864Y025625D03*
X037862Y025621D03*
X037696Y025247D03*
X037694Y025241D03*
X037692Y025237D03*
X037692Y025235D03*
D1289*
X037694Y025239D03*
X037694Y025243D03*
X037866Y025629D03*
D1290*
X037859Y025615D03*
X037699Y025255D03*
X037697Y025251D03*
X037695Y025245D03*
D1291*
X037697Y025249D03*
X037861Y025619D03*
X037863Y025623D03*
D1292*
X037858Y025613D03*
X037852Y025603D03*
X037704Y025269D03*
X037702Y025263D03*
X037698Y025253D03*
D1293*
X037700Y025257D03*
X037700Y025261D03*
X037856Y025611D03*
X037860Y025617D03*
D1294*
X037856Y025609D03*
X037700Y025259D03*
D1295*
X037702Y025265D03*
X037854Y025607D03*
D1296*
X037853Y025605D03*
X037703Y025267D03*
D1297*
X037705Y025271D03*
X037707Y025277D03*
X037849Y025597D03*
X037851Y025601D03*
D1298*
X037851Y025599D03*
X037847Y025593D03*
X037709Y025283D03*
X037707Y025279D03*
X037705Y025273D03*
D1299*
X037706Y025275D03*
X037708Y025281D03*
X037710Y025285D03*
X037710Y025287D03*
X037712Y025291D03*
X037714Y025297D03*
X037842Y025585D03*
X037844Y025587D03*
X037846Y025591D03*
X037848Y025595D03*
D1300*
X037844Y025589D03*
X037842Y025583D03*
X037712Y025289D03*
D1301*
X037713Y025293D03*
X037715Y025299D03*
X037717Y025303D03*
X037719Y025309D03*
X037835Y025569D03*
X037837Y025573D03*
X037839Y025579D03*
D1302*
X037839Y025577D03*
X037837Y025575D03*
X037835Y025571D03*
X037833Y025567D03*
X037841Y025581D03*
X037721Y025315D03*
X037717Y025305D03*
X037715Y025301D03*
X037713Y025295D03*
D1303*
X037718Y025307D03*
X037720Y025311D03*
X037722Y025317D03*
X037724Y025321D03*
X037726Y025327D03*
X037828Y025557D03*
X037830Y025561D03*
X037832Y025565D03*
D1304*
X037832Y025563D03*
X037830Y025559D03*
X037826Y025553D03*
X037824Y025549D03*
X037728Y025333D03*
X037724Y025323D03*
X037722Y025319D03*
X037720Y025313D03*
D1305*
X037725Y025325D03*
X037731Y025341D03*
X037735Y025351D03*
X037815Y025531D03*
X037821Y025541D03*
X037825Y025551D03*
D1306*
X037819Y025539D03*
X037727Y025329D03*
D1307*
X037727Y025331D03*
X037729Y025335D03*
X037729Y025337D03*
X037733Y025345D03*
X037817Y025535D03*
X037823Y025545D03*
X037823Y025547D03*
X037827Y025555D03*
D1308*
X039153Y025417D03*
X039187Y025331D03*
X039277Y025427D03*
X039177Y025855D03*
X039179Y025861D03*
X039799Y026527D03*
X039819Y026555D03*
X039823Y026561D03*
D1309*
X039785Y026509D03*
X039781Y026503D03*
X039169Y025839D03*
X039161Y025823D03*
X039159Y025819D03*
X039155Y025809D03*
X039257Y025409D03*
X039187Y025333D03*
D1310*
X037821Y025543D03*
X037731Y025339D03*
D1311*
X039155Y025429D03*
X039225Y025379D03*
X039189Y025339D03*
X039125Y025743D03*
X039127Y025749D03*
X039129Y025753D03*
X039131Y025759D03*
X039705Y026393D03*
X039709Y026399D03*
X039715Y026409D03*
X039719Y026413D03*
D1312*
X037816Y025533D03*
X037814Y025529D03*
X037812Y025523D03*
X037810Y025519D03*
X037806Y025513D03*
X037744Y025373D03*
X037742Y025369D03*
X037740Y025363D03*
X037736Y025353D03*
X037734Y025349D03*
X037732Y025343D03*
D1313*
X039081Y025651D03*
X039155Y025437D03*
X039191Y025347D03*
X039191Y025345D03*
X039651Y026315D03*
X039661Y026327D03*
X039665Y026335D03*
D1314*
X037814Y025527D03*
X037812Y025525D03*
X037810Y025521D03*
X037806Y025511D03*
X037742Y025367D03*
X037740Y025361D03*
X037736Y025355D03*
X037734Y025347D03*
D1315*
X039191Y025349D03*
X039621Y026269D03*
X039625Y026273D03*
X039629Y026279D03*
X039631Y026283D03*
X039635Y026289D03*
X039643Y026299D03*
X039645Y026303D03*
D1316*
X039573Y026195D03*
X039193Y025355D03*
D1317*
X037818Y025537D03*
X037808Y025517D03*
X037808Y025515D03*
X037738Y025357D03*
D1318*
X037738Y025359D03*
D1319*
X039118Y025729D03*
X039120Y025733D03*
X039220Y025373D03*
X039210Y025363D03*
X039684Y026363D03*
X039688Y026369D03*
X039698Y026383D03*
X039702Y026389D03*
X039712Y026403D03*
D1320*
X037803Y025507D03*
X037803Y025505D03*
X037801Y025501D03*
X037799Y025497D03*
X037797Y025495D03*
X037793Y025485D03*
X037791Y025481D03*
X037789Y025477D03*
X037789Y025475D03*
X037787Y025471D03*
X037785Y025467D03*
X037775Y025445D03*
X037773Y025441D03*
X037767Y025427D03*
X037763Y025417D03*
X037757Y025405D03*
X037753Y025395D03*
X037751Y025391D03*
X037749Y025387D03*
X037749Y025385D03*
X037747Y025381D03*
X037745Y025377D03*
X037745Y025375D03*
X037743Y025371D03*
X037741Y025365D03*
D1321*
X039133Y025761D03*
X039223Y025377D03*
X039703Y026391D03*
X039713Y026405D03*
D1322*
X037805Y025509D03*
X037801Y025503D03*
X037799Y025499D03*
X037797Y025493D03*
X037795Y025489D03*
X037791Y025479D03*
X037783Y025463D03*
X037781Y025459D03*
X037765Y025423D03*
X037761Y025413D03*
X037759Y025409D03*
X037757Y025403D03*
X037755Y025399D03*
X037753Y025393D03*
X037751Y025389D03*
X037749Y025383D03*
X037747Y025379D03*
D1323*
X039136Y025769D03*
X039236Y025389D03*
X039230Y025383D03*
X039726Y026423D03*
X039730Y026429D03*
D1324*
X037796Y025491D03*
X037794Y025487D03*
X037784Y025465D03*
X037782Y025461D03*
X037780Y025457D03*
X037780Y025455D03*
X037778Y025451D03*
X037776Y025447D03*
X037772Y025437D03*
X037770Y025435D03*
X037768Y025431D03*
X037766Y025425D03*
X037764Y025421D03*
X037762Y025415D03*
X037760Y025411D03*
X037758Y025407D03*
X037756Y025401D03*
X037754Y025397D03*
D1325*
X037764Y025419D03*
X037768Y025429D03*
X037770Y025433D03*
X037772Y025439D03*
X037774Y025443D03*
X037776Y025449D03*
X037778Y025453D03*
X037786Y025469D03*
X037788Y025473D03*
X037792Y025483D03*
D1326*
X039268Y025419D03*
X039778Y026499D03*
X039788Y026513D03*
X039808Y026539D03*
D1327*
X039805Y026535D03*
X039821Y026557D03*
X039181Y025865D03*
X039175Y025851D03*
X039275Y025425D03*
D1328*
X039156Y025447D03*
X039580Y026205D03*
X039586Y026215D03*
D1329*
X039596Y026229D03*
X039156Y025449D03*
D1330*
X039310Y025457D03*
X038976Y025571D03*
X038960Y025735D03*
X038970Y025761D03*
X038976Y025775D03*
X039220Y025945D03*
X039230Y025965D03*
X039230Y025967D03*
X039876Y026631D03*
X039880Y026637D03*
X039886Y026645D03*
D1331*
X039508Y026091D03*
X039498Y026077D03*
X039498Y026075D03*
X039158Y025461D03*
D1332*
X039316Y025463D03*
X038976Y025773D03*
X039236Y025979D03*
X039876Y026633D03*
D1333*
X039428Y025963D03*
X039426Y025959D03*
X039422Y025953D03*
X039420Y025949D03*
X039416Y025943D03*
X039414Y025939D03*
X039158Y025473D03*
D1334*
X039159Y025479D03*
X039373Y025873D03*
D1335*
X039326Y025799D03*
X039160Y025489D03*
D1336*
X039161Y025499D03*
X039261Y025689D03*
D1337*
X039161Y025523D03*
D1338*
X039160Y025525D03*
D1339*
X039160Y025541D03*
D1340*
X039159Y025549D03*
D1341*
X039160Y025551D03*
D1342*
X039159Y025563D03*
D1343*
X039159Y025565D03*
X039159Y025567D03*
D1344*
X039159Y025573D03*
D1345*
X039039Y025625D03*
X039037Y025621D03*
X039267Y025701D03*
X039269Y025705D03*
D1346*
X039038Y025623D03*
D1347*
X039077Y025643D03*
D1348*
X039078Y025645D03*
D1349*
X037921Y025721D03*
D1350*
X039281Y025723D03*
X039285Y025729D03*
X039287Y025733D03*
X039299Y025753D03*
X039303Y025759D03*
D1351*
X037971Y025739D03*
D1352*
X037972Y025741D03*
X037974Y025745D03*
D1353*
X037974Y025743D03*
D1354*
X039293Y025743D03*
X039323Y025793D03*
D1355*
X037976Y025747D03*
D1356*
X037977Y025749D03*
D1357*
X037979Y025751D03*
D1358*
X037980Y025753D03*
D1359*
X037981Y025755D03*
D1360*
X037944Y025757D03*
D1361*
X037944Y025763D03*
D1362*
X037944Y025767D03*
D1363*
X039138Y025773D03*
X039732Y026433D03*
D1364*
X039328Y025801D03*
X039324Y025795D03*
X039322Y025791D03*
X039312Y025775D03*
D1365*
X039313Y025777D03*
D1366*
X037944Y025779D03*
D1367*
X039316Y025781D03*
X039320Y025787D03*
X039326Y025797D03*
X039330Y025805D03*
D1368*
X039329Y025803D03*
X039333Y025809D03*
X039335Y025813D03*
X039339Y025819D03*
D1369*
X037944Y025811D03*
D1370*
X037944Y025813D03*
D1371*
X037944Y025821D03*
D1372*
X037944Y025831D03*
D1373*
X039168Y025835D03*
X039168Y025837D03*
X039178Y025857D03*
X039798Y026525D03*
D1374*
X037944Y025845D03*
D1375*
X039358Y025849D03*
D1376*
X037944Y025853D03*
D1377*
X037944Y025855D03*
D1378*
X037944Y025859D03*
D1379*
X039368Y025865D03*
D1380*
X037944Y025869D03*
D1381*
X039185Y025873D03*
X039815Y026549D03*
X039825Y026563D03*
D1382*
X037944Y025875D03*
D1383*
X039376Y025879D03*
X039378Y025883D03*
X039382Y025889D03*
X039384Y025893D03*
X039388Y025899D03*
X039390Y025903D03*
X039404Y025923D03*
D1384*
X037944Y025887D03*
D1385*
X037944Y025889D03*
D1386*
X037944Y025893D03*
D1387*
X037944Y025899D03*
D1388*
X037944Y025903D03*
D1389*
X037944Y025907D03*
D1390*
X037944Y025909D03*
D1391*
X037944Y025913D03*
D1392*
X037944Y025917D03*
D1393*
X037944Y025919D03*
D1394*
X037944Y025921D03*
D1395*
X037944Y025923D03*
D1396*
X037944Y025931D03*
D1397*
X037944Y025933D03*
D1398*
X037944Y025943D03*
D1399*
X037944Y025947D03*
D1400*
X037944Y025951D03*
D1401*
X037944Y025953D03*
D1402*
X037944Y025955D03*
D1403*
X037944Y025959D03*
D1404*
X037944Y025961D03*
D1405*
X037944Y025963D03*
D1406*
X037944Y025965D03*
D1407*
X037944Y025973D03*
D1408*
X037944Y025975D03*
D1409*
X037944Y025981D03*
D1410*
X037944Y025983D03*
D1411*
X037944Y025993D03*
D1412*
X037944Y025997D03*
D1413*
X037944Y026001D03*
D1414*
X037944Y026003D03*
D1415*
X037944Y026005D03*
D1416*
X037944Y026007D03*
D1417*
X037944Y026009D03*
D1418*
X037944Y026013D03*
D1419*
X037944Y026015D03*
D1420*
X037944Y026019D03*
D1421*
X037944Y026021D03*
D1422*
X037944Y026027D03*
D1423*
X037944Y026033D03*
D1424*
X037944Y026041D03*
D1425*
X037944Y026043D03*
D1426*
X037944Y026045D03*
D1427*
X037944Y026047D03*
D1428*
X037944Y026049D03*
D1429*
X037944Y026051D03*
D1430*
X037944Y026053D03*
D1431*
X037944Y026055D03*
D1432*
X037944Y026057D03*
D1433*
X037944Y026059D03*
D1434*
X037944Y026063D03*
D1435*
X037944Y026065D03*
D1436*
X037944Y026067D03*
D1437*
X037944Y026069D03*
D1438*
X037944Y026073D03*
D1439*
X037944Y026075D03*
D1440*
X037944Y026079D03*
D1441*
X037944Y026081D03*
D1442*
X037944Y026083D03*
D1443*
X037944Y026087D03*
D1444*
X037944Y026089D03*
D1445*
X037944Y026091D03*
D1446*
X037944Y026093D03*
D1447*
X037944Y026095D03*
D1448*
X037944Y026099D03*
D1449*
X037944Y026101D03*
D1450*
X037944Y026103D03*
D1451*
X037944Y026105D03*
D1452*
X037944Y026107D03*
D1453*
X037944Y026109D03*
D1454*
X037944Y026111D03*
D1455*
X037944Y026115D03*
D1456*
X037944Y026117D03*
D1457*
X037944Y026119D03*
D1458*
X037944Y026121D03*
D1459*
X037944Y026123D03*
D1460*
X037944Y026127D03*
D1461*
X037944Y026129D03*
D1462*
X037944Y026133D03*
D1463*
X037944Y026135D03*
D1464*
X037944Y026137D03*
D1465*
X037944Y026139D03*
D1466*
X037944Y026145D03*
D1467*
X037944Y026147D03*
D1468*
X037944Y026149D03*
D1469*
X037944Y026151D03*
D1470*
X037944Y026153D03*
D1471*
X037944Y026155D03*
D1472*
X037944Y026157D03*
D1473*
X037944Y026159D03*
D1474*
X037944Y026161D03*
D1475*
X037944Y026163D03*
D1476*
X037944Y026171D03*
D1477*
X037944Y026173D03*
D1478*
X037944Y026175D03*
D1479*
X037944Y026177D03*
D1480*
X039573Y026193D03*
D1481*
X039638Y026293D03*
X039648Y026309D03*
X039658Y026323D03*
M02*
