G75*
%MOIN*%
%OFA0B0*%
%FSLAX24Y24*%
%IPPOS*%
%LPD*%
%AMOC8*
5,1,8,0,0,1.08239X$1,22.5*
%
%ADD10C,0.0000*%
D10*
X008943Y009393D02*
X008943Y028388D01*
X051935Y028388D01*
X051935Y009393D01*
X008943Y009393D01*
X009473Y014208D02*
X009475Y014258D01*
X009481Y014308D01*
X009491Y014357D01*
X009504Y014406D01*
X009522Y014453D01*
X009543Y014499D01*
X009567Y014542D01*
X009595Y014584D01*
X009626Y014624D01*
X009660Y014661D01*
X009697Y014695D01*
X009737Y014726D01*
X009779Y014754D01*
X009822Y014778D01*
X009868Y014799D01*
X009915Y014817D01*
X009964Y014830D01*
X010013Y014840D01*
X010063Y014846D01*
X010113Y014848D01*
X010163Y014846D01*
X010213Y014840D01*
X010262Y014830D01*
X010311Y014817D01*
X010358Y014799D01*
X010404Y014778D01*
X010447Y014754D01*
X010489Y014726D01*
X010529Y014695D01*
X010566Y014661D01*
X010600Y014624D01*
X010631Y014584D01*
X010659Y014542D01*
X010683Y014499D01*
X010704Y014453D01*
X010722Y014406D01*
X010735Y014357D01*
X010745Y014308D01*
X010751Y014258D01*
X010753Y014208D01*
X010751Y014158D01*
X010745Y014108D01*
X010735Y014059D01*
X010722Y014010D01*
X010704Y013963D01*
X010683Y013917D01*
X010659Y013874D01*
X010631Y013832D01*
X010600Y013792D01*
X010566Y013755D01*
X010529Y013721D01*
X010489Y013690D01*
X010447Y013662D01*
X010404Y013638D01*
X010358Y013617D01*
X010311Y013599D01*
X010262Y013586D01*
X010213Y013576D01*
X010163Y013570D01*
X010113Y013568D01*
X010063Y013570D01*
X010013Y013576D01*
X009964Y013586D01*
X009915Y013599D01*
X009868Y013617D01*
X009822Y013638D01*
X009779Y013662D01*
X009737Y013690D01*
X009697Y013721D01*
X009660Y013755D01*
X009626Y013792D01*
X009595Y013832D01*
X009567Y013874D01*
X009543Y013917D01*
X009522Y013963D01*
X009504Y014010D01*
X009491Y014059D01*
X009481Y014108D01*
X009475Y014158D01*
X009473Y014208D01*
X013973Y014208D02*
X013975Y014258D01*
X013981Y014308D01*
X013991Y014357D01*
X014004Y014406D01*
X014022Y014453D01*
X014043Y014499D01*
X014067Y014542D01*
X014095Y014584D01*
X014126Y014624D01*
X014160Y014661D01*
X014197Y014695D01*
X014237Y014726D01*
X014279Y014754D01*
X014322Y014778D01*
X014368Y014799D01*
X014415Y014817D01*
X014464Y014830D01*
X014513Y014840D01*
X014563Y014846D01*
X014613Y014848D01*
X014663Y014846D01*
X014713Y014840D01*
X014762Y014830D01*
X014811Y014817D01*
X014858Y014799D01*
X014904Y014778D01*
X014947Y014754D01*
X014989Y014726D01*
X015029Y014695D01*
X015066Y014661D01*
X015100Y014624D01*
X015131Y014584D01*
X015159Y014542D01*
X015183Y014499D01*
X015204Y014453D01*
X015222Y014406D01*
X015235Y014357D01*
X015245Y014308D01*
X015251Y014258D01*
X015253Y014208D01*
X015251Y014158D01*
X015245Y014108D01*
X015235Y014059D01*
X015222Y014010D01*
X015204Y013963D01*
X015183Y013917D01*
X015159Y013874D01*
X015131Y013832D01*
X015100Y013792D01*
X015066Y013755D01*
X015029Y013721D01*
X014989Y013690D01*
X014947Y013662D01*
X014904Y013638D01*
X014858Y013617D01*
X014811Y013599D01*
X014762Y013586D01*
X014713Y013576D01*
X014663Y013570D01*
X014613Y013568D01*
X014563Y013570D01*
X014513Y013576D01*
X014464Y013586D01*
X014415Y013599D01*
X014368Y013617D01*
X014322Y013638D01*
X014279Y013662D01*
X014237Y013690D01*
X014197Y013721D01*
X014160Y013755D01*
X014126Y013792D01*
X014095Y013832D01*
X014067Y013874D01*
X014043Y013917D01*
X014022Y013963D01*
X014004Y014010D01*
X013991Y014059D01*
X013981Y014108D01*
X013975Y014158D01*
X013973Y014208D01*
X016678Y014208D02*
X016680Y014258D01*
X016686Y014308D01*
X016696Y014357D01*
X016709Y014406D01*
X016727Y014453D01*
X016748Y014499D01*
X016772Y014542D01*
X016800Y014584D01*
X016831Y014624D01*
X016865Y014661D01*
X016902Y014695D01*
X016942Y014726D01*
X016984Y014754D01*
X017027Y014778D01*
X017073Y014799D01*
X017120Y014817D01*
X017169Y014830D01*
X017218Y014840D01*
X017268Y014846D01*
X017318Y014848D01*
X017368Y014846D01*
X017418Y014840D01*
X017467Y014830D01*
X017516Y014817D01*
X017563Y014799D01*
X017609Y014778D01*
X017652Y014754D01*
X017694Y014726D01*
X017734Y014695D01*
X017771Y014661D01*
X017805Y014624D01*
X017836Y014584D01*
X017864Y014542D01*
X017888Y014499D01*
X017909Y014453D01*
X017927Y014406D01*
X017940Y014357D01*
X017950Y014308D01*
X017956Y014258D01*
X017958Y014208D01*
X017956Y014158D01*
X017950Y014108D01*
X017940Y014059D01*
X017927Y014010D01*
X017909Y013963D01*
X017888Y013917D01*
X017864Y013874D01*
X017836Y013832D01*
X017805Y013792D01*
X017771Y013755D01*
X017734Y013721D01*
X017694Y013690D01*
X017652Y013662D01*
X017609Y013638D01*
X017563Y013617D01*
X017516Y013599D01*
X017467Y013586D01*
X017418Y013576D01*
X017368Y013570D01*
X017318Y013568D01*
X017268Y013570D01*
X017218Y013576D01*
X017169Y013586D01*
X017120Y013599D01*
X017073Y013617D01*
X017027Y013638D01*
X016984Y013662D01*
X016942Y013690D01*
X016902Y013721D01*
X016865Y013755D01*
X016831Y013792D01*
X016800Y013832D01*
X016772Y013874D01*
X016748Y013917D01*
X016727Y013963D01*
X016709Y014010D01*
X016696Y014059D01*
X016686Y014108D01*
X016680Y014158D01*
X016678Y014208D01*
X021178Y014208D02*
X021180Y014258D01*
X021186Y014308D01*
X021196Y014357D01*
X021209Y014406D01*
X021227Y014453D01*
X021248Y014499D01*
X021272Y014542D01*
X021300Y014584D01*
X021331Y014624D01*
X021365Y014661D01*
X021402Y014695D01*
X021442Y014726D01*
X021484Y014754D01*
X021527Y014778D01*
X021573Y014799D01*
X021620Y014817D01*
X021669Y014830D01*
X021718Y014840D01*
X021768Y014846D01*
X021818Y014848D01*
X021868Y014846D01*
X021918Y014840D01*
X021967Y014830D01*
X022016Y014817D01*
X022063Y014799D01*
X022109Y014778D01*
X022152Y014754D01*
X022194Y014726D01*
X022234Y014695D01*
X022271Y014661D01*
X022305Y014624D01*
X022336Y014584D01*
X022364Y014542D01*
X022388Y014499D01*
X022409Y014453D01*
X022427Y014406D01*
X022440Y014357D01*
X022450Y014308D01*
X022456Y014258D01*
X022458Y014208D01*
X022456Y014158D01*
X022450Y014108D01*
X022440Y014059D01*
X022427Y014010D01*
X022409Y013963D01*
X022388Y013917D01*
X022364Y013874D01*
X022336Y013832D01*
X022305Y013792D01*
X022271Y013755D01*
X022234Y013721D01*
X022194Y013690D01*
X022152Y013662D01*
X022109Y013638D01*
X022063Y013617D01*
X022016Y013599D01*
X021967Y013586D01*
X021918Y013576D01*
X021868Y013570D01*
X021818Y013568D01*
X021768Y013570D01*
X021718Y013576D01*
X021669Y013586D01*
X021620Y013599D01*
X021573Y013617D01*
X021527Y013638D01*
X021484Y013662D01*
X021442Y013690D01*
X021402Y013721D01*
X021365Y013755D01*
X021331Y013792D01*
X021300Y013832D01*
X021272Y013874D01*
X021248Y013917D01*
X021227Y013963D01*
X021209Y014010D01*
X021196Y014059D01*
X021186Y014108D01*
X021180Y014158D01*
X021178Y014208D01*
X023883Y014208D02*
X023885Y014258D01*
X023891Y014308D01*
X023901Y014357D01*
X023914Y014406D01*
X023932Y014453D01*
X023953Y014499D01*
X023977Y014542D01*
X024005Y014584D01*
X024036Y014624D01*
X024070Y014661D01*
X024107Y014695D01*
X024147Y014726D01*
X024189Y014754D01*
X024232Y014778D01*
X024278Y014799D01*
X024325Y014817D01*
X024374Y014830D01*
X024423Y014840D01*
X024473Y014846D01*
X024523Y014848D01*
X024573Y014846D01*
X024623Y014840D01*
X024672Y014830D01*
X024721Y014817D01*
X024768Y014799D01*
X024814Y014778D01*
X024857Y014754D01*
X024899Y014726D01*
X024939Y014695D01*
X024976Y014661D01*
X025010Y014624D01*
X025041Y014584D01*
X025069Y014542D01*
X025093Y014499D01*
X025114Y014453D01*
X025132Y014406D01*
X025145Y014357D01*
X025155Y014308D01*
X025161Y014258D01*
X025163Y014208D01*
X025161Y014158D01*
X025155Y014108D01*
X025145Y014059D01*
X025132Y014010D01*
X025114Y013963D01*
X025093Y013917D01*
X025069Y013874D01*
X025041Y013832D01*
X025010Y013792D01*
X024976Y013755D01*
X024939Y013721D01*
X024899Y013690D01*
X024857Y013662D01*
X024814Y013638D01*
X024768Y013617D01*
X024721Y013599D01*
X024672Y013586D01*
X024623Y013576D01*
X024573Y013570D01*
X024523Y013568D01*
X024473Y013570D01*
X024423Y013576D01*
X024374Y013586D01*
X024325Y013599D01*
X024278Y013617D01*
X024232Y013638D01*
X024189Y013662D01*
X024147Y013690D01*
X024107Y013721D01*
X024070Y013755D01*
X024036Y013792D01*
X024005Y013832D01*
X023977Y013874D01*
X023953Y013917D01*
X023932Y013963D01*
X023914Y014010D01*
X023901Y014059D01*
X023891Y014108D01*
X023885Y014158D01*
X023883Y014208D01*
X028383Y014208D02*
X028385Y014258D01*
X028391Y014308D01*
X028401Y014357D01*
X028414Y014406D01*
X028432Y014453D01*
X028453Y014499D01*
X028477Y014542D01*
X028505Y014584D01*
X028536Y014624D01*
X028570Y014661D01*
X028607Y014695D01*
X028647Y014726D01*
X028689Y014754D01*
X028732Y014778D01*
X028778Y014799D01*
X028825Y014817D01*
X028874Y014830D01*
X028923Y014840D01*
X028973Y014846D01*
X029023Y014848D01*
X029073Y014846D01*
X029123Y014840D01*
X029172Y014830D01*
X029221Y014817D01*
X029268Y014799D01*
X029314Y014778D01*
X029357Y014754D01*
X029399Y014726D01*
X029439Y014695D01*
X029476Y014661D01*
X029510Y014624D01*
X029541Y014584D01*
X029569Y014542D01*
X029593Y014499D01*
X029614Y014453D01*
X029632Y014406D01*
X029645Y014357D01*
X029655Y014308D01*
X029661Y014258D01*
X029663Y014208D01*
X029661Y014158D01*
X029655Y014108D01*
X029645Y014059D01*
X029632Y014010D01*
X029614Y013963D01*
X029593Y013917D01*
X029569Y013874D01*
X029541Y013832D01*
X029510Y013792D01*
X029476Y013755D01*
X029439Y013721D01*
X029399Y013690D01*
X029357Y013662D01*
X029314Y013638D01*
X029268Y013617D01*
X029221Y013599D01*
X029172Y013586D01*
X029123Y013576D01*
X029073Y013570D01*
X029023Y013568D01*
X028973Y013570D01*
X028923Y013576D01*
X028874Y013586D01*
X028825Y013599D01*
X028778Y013617D01*
X028732Y013638D01*
X028689Y013662D01*
X028647Y013690D01*
X028607Y013721D01*
X028570Y013755D01*
X028536Y013792D01*
X028505Y013832D01*
X028477Y013874D01*
X028453Y013917D01*
X028432Y013963D01*
X028414Y014010D01*
X028401Y014059D01*
X028391Y014108D01*
X028385Y014158D01*
X028383Y014208D01*
X031088Y014208D02*
X031090Y014258D01*
X031096Y014308D01*
X031106Y014357D01*
X031119Y014406D01*
X031137Y014453D01*
X031158Y014499D01*
X031182Y014542D01*
X031210Y014584D01*
X031241Y014624D01*
X031275Y014661D01*
X031312Y014695D01*
X031352Y014726D01*
X031394Y014754D01*
X031437Y014778D01*
X031483Y014799D01*
X031530Y014817D01*
X031579Y014830D01*
X031628Y014840D01*
X031678Y014846D01*
X031728Y014848D01*
X031778Y014846D01*
X031828Y014840D01*
X031877Y014830D01*
X031926Y014817D01*
X031973Y014799D01*
X032019Y014778D01*
X032062Y014754D01*
X032104Y014726D01*
X032144Y014695D01*
X032181Y014661D01*
X032215Y014624D01*
X032246Y014584D01*
X032274Y014542D01*
X032298Y014499D01*
X032319Y014453D01*
X032337Y014406D01*
X032350Y014357D01*
X032360Y014308D01*
X032366Y014258D01*
X032368Y014208D01*
X032366Y014158D01*
X032360Y014108D01*
X032350Y014059D01*
X032337Y014010D01*
X032319Y013963D01*
X032298Y013917D01*
X032274Y013874D01*
X032246Y013832D01*
X032215Y013792D01*
X032181Y013755D01*
X032144Y013721D01*
X032104Y013690D01*
X032062Y013662D01*
X032019Y013638D01*
X031973Y013617D01*
X031926Y013599D01*
X031877Y013586D01*
X031828Y013576D01*
X031778Y013570D01*
X031728Y013568D01*
X031678Y013570D01*
X031628Y013576D01*
X031579Y013586D01*
X031530Y013599D01*
X031483Y013617D01*
X031437Y013638D01*
X031394Y013662D01*
X031352Y013690D01*
X031312Y013721D01*
X031275Y013755D01*
X031241Y013792D01*
X031210Y013832D01*
X031182Y013874D01*
X031158Y013917D01*
X031137Y013963D01*
X031119Y014010D01*
X031106Y014059D01*
X031096Y014108D01*
X031090Y014158D01*
X031088Y014208D01*
X035588Y014208D02*
X035590Y014258D01*
X035596Y014308D01*
X035606Y014357D01*
X035619Y014406D01*
X035637Y014453D01*
X035658Y014499D01*
X035682Y014542D01*
X035710Y014584D01*
X035741Y014624D01*
X035775Y014661D01*
X035812Y014695D01*
X035852Y014726D01*
X035894Y014754D01*
X035937Y014778D01*
X035983Y014799D01*
X036030Y014817D01*
X036079Y014830D01*
X036128Y014840D01*
X036178Y014846D01*
X036228Y014848D01*
X036278Y014846D01*
X036328Y014840D01*
X036377Y014830D01*
X036426Y014817D01*
X036473Y014799D01*
X036519Y014778D01*
X036562Y014754D01*
X036604Y014726D01*
X036644Y014695D01*
X036681Y014661D01*
X036715Y014624D01*
X036746Y014584D01*
X036774Y014542D01*
X036798Y014499D01*
X036819Y014453D01*
X036837Y014406D01*
X036850Y014357D01*
X036860Y014308D01*
X036866Y014258D01*
X036868Y014208D01*
X036866Y014158D01*
X036860Y014108D01*
X036850Y014059D01*
X036837Y014010D01*
X036819Y013963D01*
X036798Y013917D01*
X036774Y013874D01*
X036746Y013832D01*
X036715Y013792D01*
X036681Y013755D01*
X036644Y013721D01*
X036604Y013690D01*
X036562Y013662D01*
X036519Y013638D01*
X036473Y013617D01*
X036426Y013599D01*
X036377Y013586D01*
X036328Y013576D01*
X036278Y013570D01*
X036228Y013568D01*
X036178Y013570D01*
X036128Y013576D01*
X036079Y013586D01*
X036030Y013599D01*
X035983Y013617D01*
X035937Y013638D01*
X035894Y013662D01*
X035852Y013690D01*
X035812Y013721D01*
X035775Y013755D01*
X035741Y013792D01*
X035710Y013832D01*
X035682Y013874D01*
X035658Y013917D01*
X035637Y013963D01*
X035619Y014010D01*
X035606Y014059D01*
X035596Y014108D01*
X035590Y014158D01*
X035588Y014208D01*
X038293Y014208D02*
X038295Y014258D01*
X038301Y014308D01*
X038311Y014357D01*
X038324Y014406D01*
X038342Y014453D01*
X038363Y014499D01*
X038387Y014542D01*
X038415Y014584D01*
X038446Y014624D01*
X038480Y014661D01*
X038517Y014695D01*
X038557Y014726D01*
X038599Y014754D01*
X038642Y014778D01*
X038688Y014799D01*
X038735Y014817D01*
X038784Y014830D01*
X038833Y014840D01*
X038883Y014846D01*
X038933Y014848D01*
X038983Y014846D01*
X039033Y014840D01*
X039082Y014830D01*
X039131Y014817D01*
X039178Y014799D01*
X039224Y014778D01*
X039267Y014754D01*
X039309Y014726D01*
X039349Y014695D01*
X039386Y014661D01*
X039420Y014624D01*
X039451Y014584D01*
X039479Y014542D01*
X039503Y014499D01*
X039524Y014453D01*
X039542Y014406D01*
X039555Y014357D01*
X039565Y014308D01*
X039571Y014258D01*
X039573Y014208D01*
X039571Y014158D01*
X039565Y014108D01*
X039555Y014059D01*
X039542Y014010D01*
X039524Y013963D01*
X039503Y013917D01*
X039479Y013874D01*
X039451Y013832D01*
X039420Y013792D01*
X039386Y013755D01*
X039349Y013721D01*
X039309Y013690D01*
X039267Y013662D01*
X039224Y013638D01*
X039178Y013617D01*
X039131Y013599D01*
X039082Y013586D01*
X039033Y013576D01*
X038983Y013570D01*
X038933Y013568D01*
X038883Y013570D01*
X038833Y013576D01*
X038784Y013586D01*
X038735Y013599D01*
X038688Y013617D01*
X038642Y013638D01*
X038599Y013662D01*
X038557Y013690D01*
X038517Y013721D01*
X038480Y013755D01*
X038446Y013792D01*
X038415Y013832D01*
X038387Y013874D01*
X038363Y013917D01*
X038342Y013963D01*
X038324Y014010D01*
X038311Y014059D01*
X038301Y014108D01*
X038295Y014158D01*
X038293Y014208D01*
X042793Y014208D02*
X042795Y014258D01*
X042801Y014308D01*
X042811Y014357D01*
X042824Y014406D01*
X042842Y014453D01*
X042863Y014499D01*
X042887Y014542D01*
X042915Y014584D01*
X042946Y014624D01*
X042980Y014661D01*
X043017Y014695D01*
X043057Y014726D01*
X043099Y014754D01*
X043142Y014778D01*
X043188Y014799D01*
X043235Y014817D01*
X043284Y014830D01*
X043333Y014840D01*
X043383Y014846D01*
X043433Y014848D01*
X043483Y014846D01*
X043533Y014840D01*
X043582Y014830D01*
X043631Y014817D01*
X043678Y014799D01*
X043724Y014778D01*
X043767Y014754D01*
X043809Y014726D01*
X043849Y014695D01*
X043886Y014661D01*
X043920Y014624D01*
X043951Y014584D01*
X043979Y014542D01*
X044003Y014499D01*
X044024Y014453D01*
X044042Y014406D01*
X044055Y014357D01*
X044065Y014308D01*
X044071Y014258D01*
X044073Y014208D01*
X044071Y014158D01*
X044065Y014108D01*
X044055Y014059D01*
X044042Y014010D01*
X044024Y013963D01*
X044003Y013917D01*
X043979Y013874D01*
X043951Y013832D01*
X043920Y013792D01*
X043886Y013755D01*
X043849Y013721D01*
X043809Y013690D01*
X043767Y013662D01*
X043724Y013638D01*
X043678Y013617D01*
X043631Y013599D01*
X043582Y013586D01*
X043533Y013576D01*
X043483Y013570D01*
X043433Y013568D01*
X043383Y013570D01*
X043333Y013576D01*
X043284Y013586D01*
X043235Y013599D01*
X043188Y013617D01*
X043142Y013638D01*
X043099Y013662D01*
X043057Y013690D01*
X043017Y013721D01*
X042980Y013755D01*
X042946Y013792D01*
X042915Y013832D01*
X042887Y013874D01*
X042863Y013917D01*
X042842Y013963D01*
X042824Y014010D01*
X042811Y014059D01*
X042801Y014108D01*
X042795Y014158D01*
X042793Y014208D01*
X045498Y014208D02*
X045500Y014258D01*
X045506Y014308D01*
X045516Y014357D01*
X045529Y014406D01*
X045547Y014453D01*
X045568Y014499D01*
X045592Y014542D01*
X045620Y014584D01*
X045651Y014624D01*
X045685Y014661D01*
X045722Y014695D01*
X045762Y014726D01*
X045804Y014754D01*
X045847Y014778D01*
X045893Y014799D01*
X045940Y014817D01*
X045989Y014830D01*
X046038Y014840D01*
X046088Y014846D01*
X046138Y014848D01*
X046188Y014846D01*
X046238Y014840D01*
X046287Y014830D01*
X046336Y014817D01*
X046383Y014799D01*
X046429Y014778D01*
X046472Y014754D01*
X046514Y014726D01*
X046554Y014695D01*
X046591Y014661D01*
X046625Y014624D01*
X046656Y014584D01*
X046684Y014542D01*
X046708Y014499D01*
X046729Y014453D01*
X046747Y014406D01*
X046760Y014357D01*
X046770Y014308D01*
X046776Y014258D01*
X046778Y014208D01*
X046776Y014158D01*
X046770Y014108D01*
X046760Y014059D01*
X046747Y014010D01*
X046729Y013963D01*
X046708Y013917D01*
X046684Y013874D01*
X046656Y013832D01*
X046625Y013792D01*
X046591Y013755D01*
X046554Y013721D01*
X046514Y013690D01*
X046472Y013662D01*
X046429Y013638D01*
X046383Y013617D01*
X046336Y013599D01*
X046287Y013586D01*
X046238Y013576D01*
X046188Y013570D01*
X046138Y013568D01*
X046088Y013570D01*
X046038Y013576D01*
X045989Y013586D01*
X045940Y013599D01*
X045893Y013617D01*
X045847Y013638D01*
X045804Y013662D01*
X045762Y013690D01*
X045722Y013721D01*
X045685Y013755D01*
X045651Y013792D01*
X045620Y013832D01*
X045592Y013874D01*
X045568Y013917D01*
X045547Y013963D01*
X045529Y014010D01*
X045516Y014059D01*
X045506Y014108D01*
X045500Y014158D01*
X045498Y014208D01*
X049998Y014208D02*
X050000Y014258D01*
X050006Y014308D01*
X050016Y014357D01*
X050029Y014406D01*
X050047Y014453D01*
X050068Y014499D01*
X050092Y014542D01*
X050120Y014584D01*
X050151Y014624D01*
X050185Y014661D01*
X050222Y014695D01*
X050262Y014726D01*
X050304Y014754D01*
X050347Y014778D01*
X050393Y014799D01*
X050440Y014817D01*
X050489Y014830D01*
X050538Y014840D01*
X050588Y014846D01*
X050638Y014848D01*
X050688Y014846D01*
X050738Y014840D01*
X050787Y014830D01*
X050836Y014817D01*
X050883Y014799D01*
X050929Y014778D01*
X050972Y014754D01*
X051014Y014726D01*
X051054Y014695D01*
X051091Y014661D01*
X051125Y014624D01*
X051156Y014584D01*
X051184Y014542D01*
X051208Y014499D01*
X051229Y014453D01*
X051247Y014406D01*
X051260Y014357D01*
X051270Y014308D01*
X051276Y014258D01*
X051278Y014208D01*
X051276Y014158D01*
X051270Y014108D01*
X051260Y014059D01*
X051247Y014010D01*
X051229Y013963D01*
X051208Y013917D01*
X051184Y013874D01*
X051156Y013832D01*
X051125Y013792D01*
X051091Y013755D01*
X051054Y013721D01*
X051014Y013690D01*
X050972Y013662D01*
X050929Y013638D01*
X050883Y013617D01*
X050836Y013599D01*
X050787Y013586D01*
X050738Y013576D01*
X050688Y013570D01*
X050638Y013568D01*
X050588Y013570D01*
X050538Y013576D01*
X050489Y013586D01*
X050440Y013599D01*
X050393Y013617D01*
X050347Y013638D01*
X050304Y013662D01*
X050262Y013690D01*
X050222Y013721D01*
X050185Y013755D01*
X050151Y013792D01*
X050120Y013832D01*
X050092Y013874D01*
X050068Y013917D01*
X050047Y013963D01*
X050029Y014010D01*
X050016Y014059D01*
X050006Y014108D01*
X050000Y014158D01*
X049998Y014208D01*
X034813Y026893D02*
X034815Y026943D01*
X034821Y026993D01*
X034831Y027042D01*
X034845Y027090D01*
X034862Y027137D01*
X034883Y027182D01*
X034908Y027226D01*
X034936Y027267D01*
X034968Y027306D01*
X035002Y027343D01*
X035039Y027377D01*
X035079Y027407D01*
X035121Y027434D01*
X035165Y027458D01*
X035211Y027479D01*
X035258Y027495D01*
X035306Y027508D01*
X035356Y027517D01*
X035405Y027522D01*
X035456Y027523D01*
X035506Y027520D01*
X035555Y027513D01*
X035604Y027502D01*
X035652Y027487D01*
X035698Y027469D01*
X035743Y027447D01*
X035786Y027421D01*
X035827Y027392D01*
X035866Y027360D01*
X035902Y027325D01*
X035934Y027287D01*
X035964Y027247D01*
X035991Y027204D01*
X036014Y027160D01*
X036033Y027114D01*
X036049Y027066D01*
X036061Y027017D01*
X036069Y026968D01*
X036073Y026918D01*
X036073Y026868D01*
X036069Y026818D01*
X036061Y026769D01*
X036049Y026720D01*
X036033Y026672D01*
X036014Y026626D01*
X035991Y026582D01*
X035964Y026539D01*
X035934Y026499D01*
X035902Y026461D01*
X035866Y026426D01*
X035827Y026394D01*
X035786Y026365D01*
X035743Y026339D01*
X035698Y026317D01*
X035652Y026299D01*
X035604Y026284D01*
X035555Y026273D01*
X035506Y026266D01*
X035456Y026263D01*
X035405Y026264D01*
X035356Y026269D01*
X035306Y026278D01*
X035258Y026291D01*
X035211Y026307D01*
X035165Y026328D01*
X035121Y026352D01*
X035079Y026379D01*
X035039Y026409D01*
X035002Y026443D01*
X034968Y026480D01*
X034936Y026519D01*
X034908Y026560D01*
X034883Y026604D01*
X034862Y026649D01*
X034845Y026696D01*
X034831Y026744D01*
X034821Y026793D01*
X034815Y026843D01*
X034813Y026893D01*
M02*
