G75*
%MOIN*%
%OFA0B0*%
%FSLAX24Y24*%
%IPPOS*%
%LPD*%
%AMOC8*
5,1,8,0,0,1.08239X$1,22.5*
%
%ADD10OC8,0.0680*%
%ADD11R,0.0710X0.0789*%
%ADD12C,0.1360*%
%ADD13C,0.0634*%
%ADD14C,0.1340*%
%ADD15C,0.1261*%
%ADD16R,0.0316X0.0946*%
%ADD17R,0.0437X0.0437*%
%ADD18C,0.0640*%
D10*
X017443Y009893D03*
X018443Y009893D03*
X019443Y009893D03*
X020443Y009893D03*
X021443Y009893D03*
X022443Y009893D03*
X023443Y009893D03*
X024443Y009893D03*
X025443Y009893D03*
X026443Y009893D03*
X026443Y010893D03*
X025443Y010893D03*
X024443Y010893D03*
X023443Y010893D03*
X022443Y010893D03*
X021443Y010893D03*
X020443Y010893D03*
X019443Y010893D03*
X018443Y010893D03*
X017443Y010893D03*
X042443Y010893D03*
X043443Y010893D03*
X044443Y010893D03*
X045443Y010893D03*
X046443Y010893D03*
X047443Y010893D03*
X048443Y010893D03*
X049443Y010893D03*
X050443Y010893D03*
X051443Y010893D03*
X051443Y009893D03*
X050443Y009893D03*
X049443Y009893D03*
X048443Y009893D03*
X047443Y009893D03*
X046443Y009893D03*
X045443Y009893D03*
X044443Y009893D03*
X043443Y009893D03*
X042443Y009893D03*
X042443Y026893D03*
X043443Y026893D03*
X044443Y026893D03*
X045443Y026893D03*
X046443Y026893D03*
X047443Y026893D03*
X048443Y026893D03*
X049443Y026893D03*
X050443Y026893D03*
X051443Y026893D03*
X051443Y027893D03*
X050443Y027893D03*
X049443Y027893D03*
X048443Y027893D03*
X047443Y027893D03*
X046443Y027893D03*
X045443Y027893D03*
X044443Y027893D03*
X043443Y027893D03*
X042443Y027893D03*
X026443Y027893D03*
X025443Y027893D03*
X024443Y027893D03*
X023443Y027893D03*
X022443Y027893D03*
X021443Y027893D03*
X020443Y027893D03*
X019443Y027893D03*
X018443Y027893D03*
X017443Y027893D03*
X017443Y026893D03*
X018443Y026893D03*
X019443Y026893D03*
X020443Y026893D03*
X021443Y026893D03*
X022443Y026893D03*
X023443Y026893D03*
X024443Y026893D03*
X025443Y026893D03*
X026443Y026893D03*
D11*
X025734Y022288D03*
X024632Y022288D03*
X024482Y019138D03*
X025584Y019138D03*
X026582Y019138D03*
X027684Y019138D03*
X031682Y019138D03*
X032784Y019138D03*
X033782Y019138D03*
X034884Y019138D03*
X038882Y019138D03*
X039984Y019138D03*
X040982Y019138D03*
X042084Y019138D03*
X046082Y019138D03*
X047184Y019138D03*
X048182Y019138D03*
X049284Y019138D03*
X047284Y022288D03*
X046182Y022288D03*
X040084Y022288D03*
X038982Y022288D03*
X032884Y022288D03*
X031782Y022288D03*
X020484Y019138D03*
X019382Y019138D03*
X018384Y019138D03*
X017282Y019138D03*
X013284Y019138D03*
X012182Y019138D03*
X011184Y019138D03*
X010082Y019138D03*
X010232Y022288D03*
X011334Y022288D03*
X017432Y022288D03*
X018534Y022288D03*
D12*
X017318Y014208D03*
X014613Y014208D03*
X010113Y014208D03*
X021818Y014208D03*
X024523Y014208D03*
X029023Y014208D03*
X031728Y014208D03*
X036228Y014208D03*
X038933Y014208D03*
X043433Y014208D03*
X046138Y014208D03*
X050638Y014208D03*
D13*
X049713Y016708D03*
X048713Y016708D03*
X047713Y016708D03*
X046713Y016708D03*
X047213Y017708D03*
X048213Y017708D03*
X049213Y017708D03*
X050213Y017708D03*
X043008Y017708D03*
X042008Y017708D03*
X041008Y017708D03*
X040008Y017708D03*
X040508Y016708D03*
X041508Y016708D03*
X042508Y016708D03*
X039508Y016708D03*
X035803Y017708D03*
X034803Y017708D03*
X033803Y017708D03*
X032803Y017708D03*
X033303Y016708D03*
X032303Y016708D03*
X034303Y016708D03*
X035303Y016708D03*
X028598Y017708D03*
X027598Y017708D03*
X026598Y017708D03*
X025598Y017708D03*
X026098Y016708D03*
X027098Y016708D03*
X028098Y016708D03*
X025098Y016708D03*
X021393Y017708D03*
X020393Y017708D03*
X019393Y017708D03*
X018393Y017708D03*
X018893Y016708D03*
X019893Y016708D03*
X020893Y016708D03*
X017893Y016708D03*
X014188Y017708D03*
X013188Y017708D03*
X012188Y017708D03*
X011188Y017708D03*
X011688Y016708D03*
X010688Y016708D03*
X012688Y016708D03*
X013688Y016708D03*
D14*
X035443Y026893D03*
D15*
X015393Y026843D03*
X012893Y026843D03*
X010393Y026843D03*
D16*
X012183Y022312D03*
X012683Y022312D03*
X013183Y022312D03*
X013683Y022312D03*
X013683Y020265D03*
X013183Y020265D03*
X012683Y020265D03*
X012183Y020265D03*
X019383Y020265D03*
X019883Y020265D03*
X020383Y020265D03*
X020883Y020265D03*
X020883Y022312D03*
X020383Y022312D03*
X019883Y022312D03*
X019383Y022312D03*
X026583Y022312D03*
X027083Y022312D03*
X027583Y022312D03*
X028083Y022312D03*
X028083Y020265D03*
X027583Y020265D03*
X027083Y020265D03*
X026583Y020265D03*
X033783Y020265D03*
X034283Y020265D03*
X034783Y020265D03*
X035283Y020265D03*
X035283Y022312D03*
X034783Y022312D03*
X034283Y022312D03*
X033783Y022312D03*
X040983Y022312D03*
X041483Y022312D03*
X041983Y022312D03*
X042483Y022312D03*
X042483Y020265D03*
X041983Y020265D03*
X041483Y020265D03*
X040983Y020265D03*
X048183Y020265D03*
X048683Y020265D03*
X049183Y020265D03*
X049683Y020265D03*
X049683Y022312D03*
X049183Y022312D03*
X048683Y022312D03*
X048183Y022312D03*
D17*
X048183Y023038D03*
X040983Y023038D03*
X033783Y023038D03*
X026583Y023038D03*
X019383Y023038D03*
X012183Y023038D03*
D18*
X017243Y025743D03*
X019143Y025743D03*
X021543Y025743D03*
X024743Y025743D03*
X040793Y024993D03*
X046193Y024993D03*
X049893Y024993D03*
M02*
