G04 #@! TF.GenerationSoftware,KiCad,Pcbnew,(5.0.0)*
G04 #@! TF.CreationDate,2018-12-16T15:07:15-06:00*
G04 #@! TF.ProjectId,DriveBoard_Hardware,4472697665426F6172645F4861726477,rev?*
G04 #@! TF.SameCoordinates,Original*
G04 #@! TF.FileFunction,Soldermask,Bot*
G04 #@! TF.FilePolarity,Negative*
%FSLAX46Y46*%
G04 Gerber Fmt 4.6, Leading zero omitted, Abs format (unit mm)*
G04 Created by KiCad (PCBNEW (5.0.0)) date 12/16/18 15:07:15*
%MOMM*%
%LPD*%
G01*
G04 APERTURE LIST*
%ADD10C,1.924000*%
%ADD11C,5.480000*%
%ADD12R,1.390600X2.178000*%
%ADD13R,1.800000X2.000000*%
%ADD14R,2.900000X1.900000*%
%ADD15O,2.900000X1.900000*%
%ADD16O,3.900000X2.600000*%
%ADD17C,0.100000*%
%ADD18C,1.350000*%
G04 APERTURE END LIST*
D10*
G04 #@! TO.C,Conn2*
X126238000Y-49022000D03*
X128778000Y-49022000D03*
X131318000Y-49022000D03*
X133858000Y-49022000D03*
X136398000Y-49022000D03*
G04 #@! TD*
G04 #@! TO.C,U3*
X167132000Y-85852000D03*
X167132000Y-83312000D03*
X167132000Y-80772000D03*
G04 #@! TD*
G04 #@! TO.C,Conn3*
X143510000Y-49022000D03*
X146050000Y-49022000D03*
X148590000Y-49022000D03*
X151130000Y-49022000D03*
X153670000Y-49022000D03*
G04 #@! TD*
G04 #@! TO.C,Conn4*
X160782000Y-49022000D03*
X163322000Y-49022000D03*
X165862000Y-49022000D03*
X168402000Y-49022000D03*
X170942000Y-49022000D03*
G04 #@! TD*
D11*
G04 #@! TO.C,Conn1*
X155168600Y-95757000D03*
X155168600Y-103758000D03*
G04 #@! TD*
D12*
G04 #@! TO.C,U4*
X123698000Y-110134400D03*
X146558000Y-61061600D03*
X144018000Y-61061600D03*
X136398000Y-61061600D03*
X133858000Y-104241600D03*
X138938000Y-61061600D03*
X141478000Y-61061600D03*
X138938000Y-110134400D03*
X144018000Y-104241600D03*
X133858000Y-61061600D03*
X131318000Y-61061600D03*
X144018000Y-110134400D03*
X138938000Y-104241600D03*
X136398000Y-104241600D03*
X123698000Y-104241600D03*
X126238000Y-104241600D03*
X128778000Y-104241600D03*
X131318000Y-104241600D03*
X141478000Y-104241600D03*
X146558000Y-104241600D03*
X126238000Y-110134400D03*
X128778000Y-110134400D03*
X131318000Y-110134400D03*
X133858000Y-110134400D03*
X136398000Y-110134400D03*
X141478000Y-110134400D03*
X146558000Y-110134400D03*
X123698000Y-66954400D03*
X126238000Y-66954400D03*
X128778000Y-66954400D03*
X131318000Y-66954400D03*
X133858000Y-66954400D03*
X136398000Y-66954400D03*
X138938000Y-66954400D03*
X141478000Y-66954400D03*
X144018000Y-66954400D03*
X146558000Y-66954400D03*
X123698000Y-61061600D03*
X126238000Y-61061600D03*
X128778000Y-61061600D03*
G04 #@! TD*
D13*
G04 #@! TO.C,SW1*
X128754000Y-38945000D03*
X128754000Y-46145000D03*
X125754000Y-38945000D03*
X125754000Y-46145000D03*
G04 #@! TD*
G04 #@! TO.C,SW2*
X133882000Y-46145000D03*
X133882000Y-38945000D03*
X136882000Y-46145000D03*
X136882000Y-38945000D03*
G04 #@! TD*
G04 #@! TO.C,SW3*
X146026000Y-38945000D03*
X146026000Y-46145000D03*
X143026000Y-38945000D03*
X143026000Y-46145000D03*
G04 #@! TD*
G04 #@! TO.C,SW4*
X151154000Y-46145000D03*
X151154000Y-38945000D03*
X154154000Y-46145000D03*
X154154000Y-38945000D03*
G04 #@! TD*
G04 #@! TO.C,SW5*
X163298000Y-38945000D03*
X163298000Y-46145000D03*
X160298000Y-38945000D03*
X160298000Y-46145000D03*
G04 #@! TD*
G04 #@! TO.C,SW6*
X168426000Y-46145000D03*
X168426000Y-38945000D03*
X171426000Y-46145000D03*
X171426000Y-38945000D03*
G04 #@! TD*
D14*
G04 #@! TO.C,SW7*
X180848000Y-42164000D03*
D15*
X180848000Y-44164000D03*
X180848000Y-46164000D03*
D16*
X180848000Y-40064000D03*
X180848000Y-48264000D03*
G04 #@! TD*
D17*
G04 #@! TO.C,R8*
G36*
X131942581Y-45476625D02*
X131975343Y-45481485D01*
X132007471Y-45489533D01*
X132038656Y-45500691D01*
X132068596Y-45514852D01*
X132097005Y-45531879D01*
X132123608Y-45551609D01*
X132148149Y-45573851D01*
X132170391Y-45598392D01*
X132190121Y-45624995D01*
X132207148Y-45653404D01*
X132221309Y-45683344D01*
X132232467Y-45714529D01*
X132240515Y-45746657D01*
X132245375Y-45779419D01*
X132247000Y-45812500D01*
X132247000Y-46587500D01*
X132245375Y-46620581D01*
X132240515Y-46653343D01*
X132232467Y-46685471D01*
X132221309Y-46716656D01*
X132207148Y-46746596D01*
X132190121Y-46775005D01*
X132170391Y-46801608D01*
X132148149Y-46826149D01*
X132123608Y-46848391D01*
X132097005Y-46868121D01*
X132068596Y-46885148D01*
X132038656Y-46899309D01*
X132007471Y-46910467D01*
X131975343Y-46918515D01*
X131942581Y-46923375D01*
X131909500Y-46925000D01*
X131234500Y-46925000D01*
X131201419Y-46923375D01*
X131168657Y-46918515D01*
X131136529Y-46910467D01*
X131105344Y-46899309D01*
X131075404Y-46885148D01*
X131046995Y-46868121D01*
X131020392Y-46848391D01*
X130995851Y-46826149D01*
X130973609Y-46801608D01*
X130953879Y-46775005D01*
X130936852Y-46746596D01*
X130922691Y-46716656D01*
X130911533Y-46685471D01*
X130903485Y-46653343D01*
X130898625Y-46620581D01*
X130897000Y-46587500D01*
X130897000Y-45812500D01*
X130898625Y-45779419D01*
X130903485Y-45746657D01*
X130911533Y-45714529D01*
X130922691Y-45683344D01*
X130936852Y-45653404D01*
X130953879Y-45624995D01*
X130973609Y-45598392D01*
X130995851Y-45573851D01*
X131020392Y-45551609D01*
X131046995Y-45531879D01*
X131075404Y-45514852D01*
X131105344Y-45500691D01*
X131136529Y-45489533D01*
X131168657Y-45481485D01*
X131201419Y-45476625D01*
X131234500Y-45475000D01*
X131909500Y-45475000D01*
X131942581Y-45476625D01*
X131942581Y-45476625D01*
G37*
D18*
X131572000Y-46200000D03*
D17*
G36*
X131942581Y-43726625D02*
X131975343Y-43731485D01*
X132007471Y-43739533D01*
X132038656Y-43750691D01*
X132068596Y-43764852D01*
X132097005Y-43781879D01*
X132123608Y-43801609D01*
X132148149Y-43823851D01*
X132170391Y-43848392D01*
X132190121Y-43874995D01*
X132207148Y-43903404D01*
X132221309Y-43933344D01*
X132232467Y-43964529D01*
X132240515Y-43996657D01*
X132245375Y-44029419D01*
X132247000Y-44062500D01*
X132247000Y-44837500D01*
X132245375Y-44870581D01*
X132240515Y-44903343D01*
X132232467Y-44935471D01*
X132221309Y-44966656D01*
X132207148Y-44996596D01*
X132190121Y-45025005D01*
X132170391Y-45051608D01*
X132148149Y-45076149D01*
X132123608Y-45098391D01*
X132097005Y-45118121D01*
X132068596Y-45135148D01*
X132038656Y-45149309D01*
X132007471Y-45160467D01*
X131975343Y-45168515D01*
X131942581Y-45173375D01*
X131909500Y-45175000D01*
X131234500Y-45175000D01*
X131201419Y-45173375D01*
X131168657Y-45168515D01*
X131136529Y-45160467D01*
X131105344Y-45149309D01*
X131075404Y-45135148D01*
X131046995Y-45118121D01*
X131020392Y-45098391D01*
X130995851Y-45076149D01*
X130973609Y-45051608D01*
X130953879Y-45025005D01*
X130936852Y-44996596D01*
X130922691Y-44966656D01*
X130911533Y-44935471D01*
X130903485Y-44903343D01*
X130898625Y-44870581D01*
X130897000Y-44837500D01*
X130897000Y-44062500D01*
X130898625Y-44029419D01*
X130903485Y-43996657D01*
X130911533Y-43964529D01*
X130922691Y-43933344D01*
X130936852Y-43903404D01*
X130953879Y-43874995D01*
X130973609Y-43848392D01*
X130995851Y-43823851D01*
X131020392Y-43801609D01*
X131046995Y-43781879D01*
X131075404Y-43764852D01*
X131105344Y-43750691D01*
X131136529Y-43739533D01*
X131168657Y-43731485D01*
X131201419Y-43726625D01*
X131234500Y-43725000D01*
X131909500Y-43725000D01*
X131942581Y-43726625D01*
X131942581Y-43726625D01*
G37*
D18*
X131572000Y-44450000D03*
G04 #@! TD*
D17*
G04 #@! TO.C,R9*
G36*
X131942581Y-41666625D02*
X131975343Y-41671485D01*
X132007471Y-41679533D01*
X132038656Y-41690691D01*
X132068596Y-41704852D01*
X132097005Y-41721879D01*
X132123608Y-41741609D01*
X132148149Y-41763851D01*
X132170391Y-41788392D01*
X132190121Y-41814995D01*
X132207148Y-41843404D01*
X132221309Y-41873344D01*
X132232467Y-41904529D01*
X132240515Y-41936657D01*
X132245375Y-41969419D01*
X132247000Y-42002500D01*
X132247000Y-42777500D01*
X132245375Y-42810581D01*
X132240515Y-42843343D01*
X132232467Y-42875471D01*
X132221309Y-42906656D01*
X132207148Y-42936596D01*
X132190121Y-42965005D01*
X132170391Y-42991608D01*
X132148149Y-43016149D01*
X132123608Y-43038391D01*
X132097005Y-43058121D01*
X132068596Y-43075148D01*
X132038656Y-43089309D01*
X132007471Y-43100467D01*
X131975343Y-43108515D01*
X131942581Y-43113375D01*
X131909500Y-43115000D01*
X131234500Y-43115000D01*
X131201419Y-43113375D01*
X131168657Y-43108515D01*
X131136529Y-43100467D01*
X131105344Y-43089309D01*
X131075404Y-43075148D01*
X131046995Y-43058121D01*
X131020392Y-43038391D01*
X130995851Y-43016149D01*
X130973609Y-42991608D01*
X130953879Y-42965005D01*
X130936852Y-42936596D01*
X130922691Y-42906656D01*
X130911533Y-42875471D01*
X130903485Y-42843343D01*
X130898625Y-42810581D01*
X130897000Y-42777500D01*
X130897000Y-42002500D01*
X130898625Y-41969419D01*
X130903485Y-41936657D01*
X130911533Y-41904529D01*
X130922691Y-41873344D01*
X130936852Y-41843404D01*
X130953879Y-41814995D01*
X130973609Y-41788392D01*
X130995851Y-41763851D01*
X131020392Y-41741609D01*
X131046995Y-41721879D01*
X131075404Y-41704852D01*
X131105344Y-41690691D01*
X131136529Y-41679533D01*
X131168657Y-41671485D01*
X131201419Y-41666625D01*
X131234500Y-41665000D01*
X131909500Y-41665000D01*
X131942581Y-41666625D01*
X131942581Y-41666625D01*
G37*
D18*
X131572000Y-42390000D03*
D17*
G36*
X131942581Y-39916625D02*
X131975343Y-39921485D01*
X132007471Y-39929533D01*
X132038656Y-39940691D01*
X132068596Y-39954852D01*
X132097005Y-39971879D01*
X132123608Y-39991609D01*
X132148149Y-40013851D01*
X132170391Y-40038392D01*
X132190121Y-40064995D01*
X132207148Y-40093404D01*
X132221309Y-40123344D01*
X132232467Y-40154529D01*
X132240515Y-40186657D01*
X132245375Y-40219419D01*
X132247000Y-40252500D01*
X132247000Y-41027500D01*
X132245375Y-41060581D01*
X132240515Y-41093343D01*
X132232467Y-41125471D01*
X132221309Y-41156656D01*
X132207148Y-41186596D01*
X132190121Y-41215005D01*
X132170391Y-41241608D01*
X132148149Y-41266149D01*
X132123608Y-41288391D01*
X132097005Y-41308121D01*
X132068596Y-41325148D01*
X132038656Y-41339309D01*
X132007471Y-41350467D01*
X131975343Y-41358515D01*
X131942581Y-41363375D01*
X131909500Y-41365000D01*
X131234500Y-41365000D01*
X131201419Y-41363375D01*
X131168657Y-41358515D01*
X131136529Y-41350467D01*
X131105344Y-41339309D01*
X131075404Y-41325148D01*
X131046995Y-41308121D01*
X131020392Y-41288391D01*
X130995851Y-41266149D01*
X130973609Y-41241608D01*
X130953879Y-41215005D01*
X130936852Y-41186596D01*
X130922691Y-41156656D01*
X130911533Y-41125471D01*
X130903485Y-41093343D01*
X130898625Y-41060581D01*
X130897000Y-41027500D01*
X130897000Y-40252500D01*
X130898625Y-40219419D01*
X130903485Y-40186657D01*
X130911533Y-40154529D01*
X130922691Y-40123344D01*
X130936852Y-40093404D01*
X130953879Y-40064995D01*
X130973609Y-40038392D01*
X130995851Y-40013851D01*
X131020392Y-39991609D01*
X131046995Y-39971879D01*
X131075404Y-39954852D01*
X131105344Y-39940691D01*
X131136529Y-39929533D01*
X131168657Y-39921485D01*
X131201419Y-39916625D01*
X131234500Y-39915000D01*
X131909500Y-39915000D01*
X131942581Y-39916625D01*
X131942581Y-39916625D01*
G37*
D18*
X131572000Y-40640000D03*
G04 #@! TD*
D17*
G04 #@! TO.C,R10*
G36*
X140324581Y-40170625D02*
X140357343Y-40175485D01*
X140389471Y-40183533D01*
X140420656Y-40194691D01*
X140450596Y-40208852D01*
X140479005Y-40225879D01*
X140505608Y-40245609D01*
X140530149Y-40267851D01*
X140552391Y-40292392D01*
X140572121Y-40318995D01*
X140589148Y-40347404D01*
X140603309Y-40377344D01*
X140614467Y-40408529D01*
X140622515Y-40440657D01*
X140627375Y-40473419D01*
X140629000Y-40506500D01*
X140629000Y-41281500D01*
X140627375Y-41314581D01*
X140622515Y-41347343D01*
X140614467Y-41379471D01*
X140603309Y-41410656D01*
X140589148Y-41440596D01*
X140572121Y-41469005D01*
X140552391Y-41495608D01*
X140530149Y-41520149D01*
X140505608Y-41542391D01*
X140479005Y-41562121D01*
X140450596Y-41579148D01*
X140420656Y-41593309D01*
X140389471Y-41604467D01*
X140357343Y-41612515D01*
X140324581Y-41617375D01*
X140291500Y-41619000D01*
X139616500Y-41619000D01*
X139583419Y-41617375D01*
X139550657Y-41612515D01*
X139518529Y-41604467D01*
X139487344Y-41593309D01*
X139457404Y-41579148D01*
X139428995Y-41562121D01*
X139402392Y-41542391D01*
X139377851Y-41520149D01*
X139355609Y-41495608D01*
X139335879Y-41469005D01*
X139318852Y-41440596D01*
X139304691Y-41410656D01*
X139293533Y-41379471D01*
X139285485Y-41347343D01*
X139280625Y-41314581D01*
X139279000Y-41281500D01*
X139279000Y-40506500D01*
X139280625Y-40473419D01*
X139285485Y-40440657D01*
X139293533Y-40408529D01*
X139304691Y-40377344D01*
X139318852Y-40347404D01*
X139335879Y-40318995D01*
X139355609Y-40292392D01*
X139377851Y-40267851D01*
X139402392Y-40245609D01*
X139428995Y-40225879D01*
X139457404Y-40208852D01*
X139487344Y-40194691D01*
X139518529Y-40183533D01*
X139550657Y-40175485D01*
X139583419Y-40170625D01*
X139616500Y-40169000D01*
X140291500Y-40169000D01*
X140324581Y-40170625D01*
X140324581Y-40170625D01*
G37*
D18*
X139954000Y-40894000D03*
D17*
G36*
X140324581Y-41920625D02*
X140357343Y-41925485D01*
X140389471Y-41933533D01*
X140420656Y-41944691D01*
X140450596Y-41958852D01*
X140479005Y-41975879D01*
X140505608Y-41995609D01*
X140530149Y-42017851D01*
X140552391Y-42042392D01*
X140572121Y-42068995D01*
X140589148Y-42097404D01*
X140603309Y-42127344D01*
X140614467Y-42158529D01*
X140622515Y-42190657D01*
X140627375Y-42223419D01*
X140629000Y-42256500D01*
X140629000Y-43031500D01*
X140627375Y-43064581D01*
X140622515Y-43097343D01*
X140614467Y-43129471D01*
X140603309Y-43160656D01*
X140589148Y-43190596D01*
X140572121Y-43219005D01*
X140552391Y-43245608D01*
X140530149Y-43270149D01*
X140505608Y-43292391D01*
X140479005Y-43312121D01*
X140450596Y-43329148D01*
X140420656Y-43343309D01*
X140389471Y-43354467D01*
X140357343Y-43362515D01*
X140324581Y-43367375D01*
X140291500Y-43369000D01*
X139616500Y-43369000D01*
X139583419Y-43367375D01*
X139550657Y-43362515D01*
X139518529Y-43354467D01*
X139487344Y-43343309D01*
X139457404Y-43329148D01*
X139428995Y-43312121D01*
X139402392Y-43292391D01*
X139377851Y-43270149D01*
X139355609Y-43245608D01*
X139335879Y-43219005D01*
X139318852Y-43190596D01*
X139304691Y-43160656D01*
X139293533Y-43129471D01*
X139285485Y-43097343D01*
X139280625Y-43064581D01*
X139279000Y-43031500D01*
X139279000Y-42256500D01*
X139280625Y-42223419D01*
X139285485Y-42190657D01*
X139293533Y-42158529D01*
X139304691Y-42127344D01*
X139318852Y-42097404D01*
X139335879Y-42068995D01*
X139355609Y-42042392D01*
X139377851Y-42017851D01*
X139402392Y-41995609D01*
X139428995Y-41975879D01*
X139457404Y-41958852D01*
X139487344Y-41944691D01*
X139518529Y-41933533D01*
X139550657Y-41925485D01*
X139583419Y-41920625D01*
X139616500Y-41919000D01*
X140291500Y-41919000D01*
X140324581Y-41920625D01*
X140324581Y-41920625D01*
G37*
D18*
X139954000Y-42644000D03*
G04 #@! TD*
D17*
G04 #@! TO.C,R11*
G36*
X148960581Y-42174625D02*
X148993343Y-42179485D01*
X149025471Y-42187533D01*
X149056656Y-42198691D01*
X149086596Y-42212852D01*
X149115005Y-42229879D01*
X149141608Y-42249609D01*
X149166149Y-42271851D01*
X149188391Y-42296392D01*
X149208121Y-42322995D01*
X149225148Y-42351404D01*
X149239309Y-42381344D01*
X149250467Y-42412529D01*
X149258515Y-42444657D01*
X149263375Y-42477419D01*
X149265000Y-42510500D01*
X149265000Y-43285500D01*
X149263375Y-43318581D01*
X149258515Y-43351343D01*
X149250467Y-43383471D01*
X149239309Y-43414656D01*
X149225148Y-43444596D01*
X149208121Y-43473005D01*
X149188391Y-43499608D01*
X149166149Y-43524149D01*
X149141608Y-43546391D01*
X149115005Y-43566121D01*
X149086596Y-43583148D01*
X149056656Y-43597309D01*
X149025471Y-43608467D01*
X148993343Y-43616515D01*
X148960581Y-43621375D01*
X148927500Y-43623000D01*
X148252500Y-43623000D01*
X148219419Y-43621375D01*
X148186657Y-43616515D01*
X148154529Y-43608467D01*
X148123344Y-43597309D01*
X148093404Y-43583148D01*
X148064995Y-43566121D01*
X148038392Y-43546391D01*
X148013851Y-43524149D01*
X147991609Y-43499608D01*
X147971879Y-43473005D01*
X147954852Y-43444596D01*
X147940691Y-43414656D01*
X147929533Y-43383471D01*
X147921485Y-43351343D01*
X147916625Y-43318581D01*
X147915000Y-43285500D01*
X147915000Y-42510500D01*
X147916625Y-42477419D01*
X147921485Y-42444657D01*
X147929533Y-42412529D01*
X147940691Y-42381344D01*
X147954852Y-42351404D01*
X147971879Y-42322995D01*
X147991609Y-42296392D01*
X148013851Y-42271851D01*
X148038392Y-42249609D01*
X148064995Y-42229879D01*
X148093404Y-42212852D01*
X148123344Y-42198691D01*
X148154529Y-42187533D01*
X148186657Y-42179485D01*
X148219419Y-42174625D01*
X148252500Y-42173000D01*
X148927500Y-42173000D01*
X148960581Y-42174625D01*
X148960581Y-42174625D01*
G37*
D18*
X148590000Y-42898000D03*
D17*
G36*
X148960581Y-40424625D02*
X148993343Y-40429485D01*
X149025471Y-40437533D01*
X149056656Y-40448691D01*
X149086596Y-40462852D01*
X149115005Y-40479879D01*
X149141608Y-40499609D01*
X149166149Y-40521851D01*
X149188391Y-40546392D01*
X149208121Y-40572995D01*
X149225148Y-40601404D01*
X149239309Y-40631344D01*
X149250467Y-40662529D01*
X149258515Y-40694657D01*
X149263375Y-40727419D01*
X149265000Y-40760500D01*
X149265000Y-41535500D01*
X149263375Y-41568581D01*
X149258515Y-41601343D01*
X149250467Y-41633471D01*
X149239309Y-41664656D01*
X149225148Y-41694596D01*
X149208121Y-41723005D01*
X149188391Y-41749608D01*
X149166149Y-41774149D01*
X149141608Y-41796391D01*
X149115005Y-41816121D01*
X149086596Y-41833148D01*
X149056656Y-41847309D01*
X149025471Y-41858467D01*
X148993343Y-41866515D01*
X148960581Y-41871375D01*
X148927500Y-41873000D01*
X148252500Y-41873000D01*
X148219419Y-41871375D01*
X148186657Y-41866515D01*
X148154529Y-41858467D01*
X148123344Y-41847309D01*
X148093404Y-41833148D01*
X148064995Y-41816121D01*
X148038392Y-41796391D01*
X148013851Y-41774149D01*
X147991609Y-41749608D01*
X147971879Y-41723005D01*
X147954852Y-41694596D01*
X147940691Y-41664656D01*
X147929533Y-41633471D01*
X147921485Y-41601343D01*
X147916625Y-41568581D01*
X147915000Y-41535500D01*
X147915000Y-40760500D01*
X147916625Y-40727419D01*
X147921485Y-40694657D01*
X147929533Y-40662529D01*
X147940691Y-40631344D01*
X147954852Y-40601404D01*
X147971879Y-40572995D01*
X147991609Y-40546392D01*
X148013851Y-40521851D01*
X148038392Y-40499609D01*
X148064995Y-40479879D01*
X148093404Y-40462852D01*
X148123344Y-40448691D01*
X148154529Y-40437533D01*
X148186657Y-40429485D01*
X148219419Y-40424625D01*
X148252500Y-40423000D01*
X148927500Y-40423000D01*
X148960581Y-40424625D01*
X148960581Y-40424625D01*
G37*
D18*
X148590000Y-41148000D03*
G04 #@! TD*
D17*
G04 #@! TO.C,R12*
G36*
X158104581Y-40678625D02*
X158137343Y-40683485D01*
X158169471Y-40691533D01*
X158200656Y-40702691D01*
X158230596Y-40716852D01*
X158259005Y-40733879D01*
X158285608Y-40753609D01*
X158310149Y-40775851D01*
X158332391Y-40800392D01*
X158352121Y-40826995D01*
X158369148Y-40855404D01*
X158383309Y-40885344D01*
X158394467Y-40916529D01*
X158402515Y-40948657D01*
X158407375Y-40981419D01*
X158409000Y-41014500D01*
X158409000Y-41789500D01*
X158407375Y-41822581D01*
X158402515Y-41855343D01*
X158394467Y-41887471D01*
X158383309Y-41918656D01*
X158369148Y-41948596D01*
X158352121Y-41977005D01*
X158332391Y-42003608D01*
X158310149Y-42028149D01*
X158285608Y-42050391D01*
X158259005Y-42070121D01*
X158230596Y-42087148D01*
X158200656Y-42101309D01*
X158169471Y-42112467D01*
X158137343Y-42120515D01*
X158104581Y-42125375D01*
X158071500Y-42127000D01*
X157396500Y-42127000D01*
X157363419Y-42125375D01*
X157330657Y-42120515D01*
X157298529Y-42112467D01*
X157267344Y-42101309D01*
X157237404Y-42087148D01*
X157208995Y-42070121D01*
X157182392Y-42050391D01*
X157157851Y-42028149D01*
X157135609Y-42003608D01*
X157115879Y-41977005D01*
X157098852Y-41948596D01*
X157084691Y-41918656D01*
X157073533Y-41887471D01*
X157065485Y-41855343D01*
X157060625Y-41822581D01*
X157059000Y-41789500D01*
X157059000Y-41014500D01*
X157060625Y-40981419D01*
X157065485Y-40948657D01*
X157073533Y-40916529D01*
X157084691Y-40885344D01*
X157098852Y-40855404D01*
X157115879Y-40826995D01*
X157135609Y-40800392D01*
X157157851Y-40775851D01*
X157182392Y-40753609D01*
X157208995Y-40733879D01*
X157237404Y-40716852D01*
X157267344Y-40702691D01*
X157298529Y-40691533D01*
X157330657Y-40683485D01*
X157363419Y-40678625D01*
X157396500Y-40677000D01*
X158071500Y-40677000D01*
X158104581Y-40678625D01*
X158104581Y-40678625D01*
G37*
D18*
X157734000Y-41402000D03*
D17*
G36*
X158104581Y-42428625D02*
X158137343Y-42433485D01*
X158169471Y-42441533D01*
X158200656Y-42452691D01*
X158230596Y-42466852D01*
X158259005Y-42483879D01*
X158285608Y-42503609D01*
X158310149Y-42525851D01*
X158332391Y-42550392D01*
X158352121Y-42576995D01*
X158369148Y-42605404D01*
X158383309Y-42635344D01*
X158394467Y-42666529D01*
X158402515Y-42698657D01*
X158407375Y-42731419D01*
X158409000Y-42764500D01*
X158409000Y-43539500D01*
X158407375Y-43572581D01*
X158402515Y-43605343D01*
X158394467Y-43637471D01*
X158383309Y-43668656D01*
X158369148Y-43698596D01*
X158352121Y-43727005D01*
X158332391Y-43753608D01*
X158310149Y-43778149D01*
X158285608Y-43800391D01*
X158259005Y-43820121D01*
X158230596Y-43837148D01*
X158200656Y-43851309D01*
X158169471Y-43862467D01*
X158137343Y-43870515D01*
X158104581Y-43875375D01*
X158071500Y-43877000D01*
X157396500Y-43877000D01*
X157363419Y-43875375D01*
X157330657Y-43870515D01*
X157298529Y-43862467D01*
X157267344Y-43851309D01*
X157237404Y-43837148D01*
X157208995Y-43820121D01*
X157182392Y-43800391D01*
X157157851Y-43778149D01*
X157135609Y-43753608D01*
X157115879Y-43727005D01*
X157098852Y-43698596D01*
X157084691Y-43668656D01*
X157073533Y-43637471D01*
X157065485Y-43605343D01*
X157060625Y-43572581D01*
X157059000Y-43539500D01*
X157059000Y-42764500D01*
X157060625Y-42731419D01*
X157065485Y-42698657D01*
X157073533Y-42666529D01*
X157084691Y-42635344D01*
X157098852Y-42605404D01*
X157115879Y-42576995D01*
X157135609Y-42550392D01*
X157157851Y-42525851D01*
X157182392Y-42503609D01*
X157208995Y-42483879D01*
X157237404Y-42466852D01*
X157267344Y-42452691D01*
X157298529Y-42441533D01*
X157330657Y-42433485D01*
X157363419Y-42428625D01*
X157396500Y-42427000D01*
X158071500Y-42427000D01*
X158104581Y-42428625D01*
X158104581Y-42428625D01*
G37*
D18*
X157734000Y-43152000D03*
G04 #@! TD*
D17*
G04 #@! TO.C,R13*
G36*
X166232581Y-42428625D02*
X166265343Y-42433485D01*
X166297471Y-42441533D01*
X166328656Y-42452691D01*
X166358596Y-42466852D01*
X166387005Y-42483879D01*
X166413608Y-42503609D01*
X166438149Y-42525851D01*
X166460391Y-42550392D01*
X166480121Y-42576995D01*
X166497148Y-42605404D01*
X166511309Y-42635344D01*
X166522467Y-42666529D01*
X166530515Y-42698657D01*
X166535375Y-42731419D01*
X166537000Y-42764500D01*
X166537000Y-43539500D01*
X166535375Y-43572581D01*
X166530515Y-43605343D01*
X166522467Y-43637471D01*
X166511309Y-43668656D01*
X166497148Y-43698596D01*
X166480121Y-43727005D01*
X166460391Y-43753608D01*
X166438149Y-43778149D01*
X166413608Y-43800391D01*
X166387005Y-43820121D01*
X166358596Y-43837148D01*
X166328656Y-43851309D01*
X166297471Y-43862467D01*
X166265343Y-43870515D01*
X166232581Y-43875375D01*
X166199500Y-43877000D01*
X165524500Y-43877000D01*
X165491419Y-43875375D01*
X165458657Y-43870515D01*
X165426529Y-43862467D01*
X165395344Y-43851309D01*
X165365404Y-43837148D01*
X165336995Y-43820121D01*
X165310392Y-43800391D01*
X165285851Y-43778149D01*
X165263609Y-43753608D01*
X165243879Y-43727005D01*
X165226852Y-43698596D01*
X165212691Y-43668656D01*
X165201533Y-43637471D01*
X165193485Y-43605343D01*
X165188625Y-43572581D01*
X165187000Y-43539500D01*
X165187000Y-42764500D01*
X165188625Y-42731419D01*
X165193485Y-42698657D01*
X165201533Y-42666529D01*
X165212691Y-42635344D01*
X165226852Y-42605404D01*
X165243879Y-42576995D01*
X165263609Y-42550392D01*
X165285851Y-42525851D01*
X165310392Y-42503609D01*
X165336995Y-42483879D01*
X165365404Y-42466852D01*
X165395344Y-42452691D01*
X165426529Y-42441533D01*
X165458657Y-42433485D01*
X165491419Y-42428625D01*
X165524500Y-42427000D01*
X166199500Y-42427000D01*
X166232581Y-42428625D01*
X166232581Y-42428625D01*
G37*
D18*
X165862000Y-43152000D03*
D17*
G36*
X166232581Y-40678625D02*
X166265343Y-40683485D01*
X166297471Y-40691533D01*
X166328656Y-40702691D01*
X166358596Y-40716852D01*
X166387005Y-40733879D01*
X166413608Y-40753609D01*
X166438149Y-40775851D01*
X166460391Y-40800392D01*
X166480121Y-40826995D01*
X166497148Y-40855404D01*
X166511309Y-40885344D01*
X166522467Y-40916529D01*
X166530515Y-40948657D01*
X166535375Y-40981419D01*
X166537000Y-41014500D01*
X166537000Y-41789500D01*
X166535375Y-41822581D01*
X166530515Y-41855343D01*
X166522467Y-41887471D01*
X166511309Y-41918656D01*
X166497148Y-41948596D01*
X166480121Y-41977005D01*
X166460391Y-42003608D01*
X166438149Y-42028149D01*
X166413608Y-42050391D01*
X166387005Y-42070121D01*
X166358596Y-42087148D01*
X166328656Y-42101309D01*
X166297471Y-42112467D01*
X166265343Y-42120515D01*
X166232581Y-42125375D01*
X166199500Y-42127000D01*
X165524500Y-42127000D01*
X165491419Y-42125375D01*
X165458657Y-42120515D01*
X165426529Y-42112467D01*
X165395344Y-42101309D01*
X165365404Y-42087148D01*
X165336995Y-42070121D01*
X165310392Y-42050391D01*
X165285851Y-42028149D01*
X165263609Y-42003608D01*
X165243879Y-41977005D01*
X165226852Y-41948596D01*
X165212691Y-41918656D01*
X165201533Y-41887471D01*
X165193485Y-41855343D01*
X165188625Y-41822581D01*
X165187000Y-41789500D01*
X165187000Y-41014500D01*
X165188625Y-40981419D01*
X165193485Y-40948657D01*
X165201533Y-40916529D01*
X165212691Y-40885344D01*
X165226852Y-40855404D01*
X165243879Y-40826995D01*
X165263609Y-40800392D01*
X165285851Y-40775851D01*
X165310392Y-40753609D01*
X165336995Y-40733879D01*
X165365404Y-40716852D01*
X165395344Y-40702691D01*
X165426529Y-40691533D01*
X165458657Y-40683485D01*
X165491419Y-40678625D01*
X165524500Y-40677000D01*
X166199500Y-40677000D01*
X166232581Y-40678625D01*
X166232581Y-40678625D01*
G37*
D18*
X165862000Y-41402000D03*
G04 #@! TD*
D17*
G04 #@! TO.C,R14*
G36*
X176646581Y-38392625D02*
X176679343Y-38397485D01*
X176711471Y-38405533D01*
X176742656Y-38416691D01*
X176772596Y-38430852D01*
X176801005Y-38447879D01*
X176827608Y-38467609D01*
X176852149Y-38489851D01*
X176874391Y-38514392D01*
X176894121Y-38540995D01*
X176911148Y-38569404D01*
X176925309Y-38599344D01*
X176936467Y-38630529D01*
X176944515Y-38662657D01*
X176949375Y-38695419D01*
X176951000Y-38728500D01*
X176951000Y-39503500D01*
X176949375Y-39536581D01*
X176944515Y-39569343D01*
X176936467Y-39601471D01*
X176925309Y-39632656D01*
X176911148Y-39662596D01*
X176894121Y-39691005D01*
X176874391Y-39717608D01*
X176852149Y-39742149D01*
X176827608Y-39764391D01*
X176801005Y-39784121D01*
X176772596Y-39801148D01*
X176742656Y-39815309D01*
X176711471Y-39826467D01*
X176679343Y-39834515D01*
X176646581Y-39839375D01*
X176613500Y-39841000D01*
X175938500Y-39841000D01*
X175905419Y-39839375D01*
X175872657Y-39834515D01*
X175840529Y-39826467D01*
X175809344Y-39815309D01*
X175779404Y-39801148D01*
X175750995Y-39784121D01*
X175724392Y-39764391D01*
X175699851Y-39742149D01*
X175677609Y-39717608D01*
X175657879Y-39691005D01*
X175640852Y-39662596D01*
X175626691Y-39632656D01*
X175615533Y-39601471D01*
X175607485Y-39569343D01*
X175602625Y-39536581D01*
X175601000Y-39503500D01*
X175601000Y-38728500D01*
X175602625Y-38695419D01*
X175607485Y-38662657D01*
X175615533Y-38630529D01*
X175626691Y-38599344D01*
X175640852Y-38569404D01*
X175657879Y-38540995D01*
X175677609Y-38514392D01*
X175699851Y-38489851D01*
X175724392Y-38467609D01*
X175750995Y-38447879D01*
X175779404Y-38430852D01*
X175809344Y-38416691D01*
X175840529Y-38405533D01*
X175872657Y-38397485D01*
X175905419Y-38392625D01*
X175938500Y-38391000D01*
X176613500Y-38391000D01*
X176646581Y-38392625D01*
X176646581Y-38392625D01*
G37*
D18*
X176276000Y-39116000D03*
D17*
G36*
X176646581Y-40142625D02*
X176679343Y-40147485D01*
X176711471Y-40155533D01*
X176742656Y-40166691D01*
X176772596Y-40180852D01*
X176801005Y-40197879D01*
X176827608Y-40217609D01*
X176852149Y-40239851D01*
X176874391Y-40264392D01*
X176894121Y-40290995D01*
X176911148Y-40319404D01*
X176925309Y-40349344D01*
X176936467Y-40380529D01*
X176944515Y-40412657D01*
X176949375Y-40445419D01*
X176951000Y-40478500D01*
X176951000Y-41253500D01*
X176949375Y-41286581D01*
X176944515Y-41319343D01*
X176936467Y-41351471D01*
X176925309Y-41382656D01*
X176911148Y-41412596D01*
X176894121Y-41441005D01*
X176874391Y-41467608D01*
X176852149Y-41492149D01*
X176827608Y-41514391D01*
X176801005Y-41534121D01*
X176772596Y-41551148D01*
X176742656Y-41565309D01*
X176711471Y-41576467D01*
X176679343Y-41584515D01*
X176646581Y-41589375D01*
X176613500Y-41591000D01*
X175938500Y-41591000D01*
X175905419Y-41589375D01*
X175872657Y-41584515D01*
X175840529Y-41576467D01*
X175809344Y-41565309D01*
X175779404Y-41551148D01*
X175750995Y-41534121D01*
X175724392Y-41514391D01*
X175699851Y-41492149D01*
X175677609Y-41467608D01*
X175657879Y-41441005D01*
X175640852Y-41412596D01*
X175626691Y-41382656D01*
X175615533Y-41351471D01*
X175607485Y-41319343D01*
X175602625Y-41286581D01*
X175601000Y-41253500D01*
X175601000Y-40478500D01*
X175602625Y-40445419D01*
X175607485Y-40412657D01*
X175615533Y-40380529D01*
X175626691Y-40349344D01*
X175640852Y-40319404D01*
X175657879Y-40290995D01*
X175677609Y-40264392D01*
X175699851Y-40239851D01*
X175724392Y-40217609D01*
X175750995Y-40197879D01*
X175779404Y-40180852D01*
X175809344Y-40166691D01*
X175840529Y-40155533D01*
X175872657Y-40147485D01*
X175905419Y-40142625D01*
X175938500Y-40141000D01*
X176613500Y-40141000D01*
X176646581Y-40142625D01*
X176646581Y-40142625D01*
G37*
D18*
X176276000Y-40866000D03*
G04 #@! TD*
M02*
