G04 #@! TF.GenerationSoftware,KiCad,Pcbnew,(5.0.0)*
G04 #@! TF.CreationDate,2018-12-16T15:07:14-06:00*
G04 #@! TF.ProjectId,DriveBoard_Hardware,4472697665426F6172645F4861726477,rev?*
G04 #@! TF.SameCoordinates,Original*
G04 #@! TF.FileFunction,Paste,Top*
G04 #@! TF.FilePolarity,Positive*
%FSLAX46Y46*%
G04 Gerber Fmt 4.6, Leading zero omitted, Abs format (unit mm)*
G04 Created by KiCad (PCBNEW (5.0.0)) date 12/16/18 15:07:14*
%MOMM*%
%LPD*%
G01*
G04 APERTURE LIST*
%ADD10C,0.100000*%
%ADD11C,0.950000*%
%ADD12C,5.080000*%
%ADD13R,1.500000X0.600000*%
G04 APERTURE END LIST*
D10*
G04 #@! TO.C,R2*
G36*
X131120779Y-54390144D02*
X131143834Y-54393563D01*
X131166443Y-54399227D01*
X131188387Y-54407079D01*
X131209457Y-54417044D01*
X131229448Y-54429026D01*
X131248168Y-54442910D01*
X131265438Y-54458562D01*
X131281090Y-54475832D01*
X131294974Y-54494552D01*
X131306956Y-54514543D01*
X131316921Y-54535613D01*
X131324773Y-54557557D01*
X131330437Y-54580166D01*
X131333856Y-54603221D01*
X131335000Y-54626500D01*
X131335000Y-55101500D01*
X131333856Y-55124779D01*
X131330437Y-55147834D01*
X131324773Y-55170443D01*
X131316921Y-55192387D01*
X131306956Y-55213457D01*
X131294974Y-55233448D01*
X131281090Y-55252168D01*
X131265438Y-55269438D01*
X131248168Y-55285090D01*
X131229448Y-55298974D01*
X131209457Y-55310956D01*
X131188387Y-55320921D01*
X131166443Y-55328773D01*
X131143834Y-55334437D01*
X131120779Y-55337856D01*
X131097500Y-55339000D01*
X130522500Y-55339000D01*
X130499221Y-55337856D01*
X130476166Y-55334437D01*
X130453557Y-55328773D01*
X130431613Y-55320921D01*
X130410543Y-55310956D01*
X130390552Y-55298974D01*
X130371832Y-55285090D01*
X130354562Y-55269438D01*
X130338910Y-55252168D01*
X130325026Y-55233448D01*
X130313044Y-55213457D01*
X130303079Y-55192387D01*
X130295227Y-55170443D01*
X130289563Y-55147834D01*
X130286144Y-55124779D01*
X130285000Y-55101500D01*
X130285000Y-54626500D01*
X130286144Y-54603221D01*
X130289563Y-54580166D01*
X130295227Y-54557557D01*
X130303079Y-54535613D01*
X130313044Y-54514543D01*
X130325026Y-54494552D01*
X130338910Y-54475832D01*
X130354562Y-54458562D01*
X130371832Y-54442910D01*
X130390552Y-54429026D01*
X130410543Y-54417044D01*
X130431613Y-54407079D01*
X130453557Y-54399227D01*
X130476166Y-54393563D01*
X130499221Y-54390144D01*
X130522500Y-54389000D01*
X131097500Y-54389000D01*
X131120779Y-54390144D01*
X131120779Y-54390144D01*
G37*
D11*
X130810000Y-54864000D03*
D10*
G36*
X132870779Y-54390144D02*
X132893834Y-54393563D01*
X132916443Y-54399227D01*
X132938387Y-54407079D01*
X132959457Y-54417044D01*
X132979448Y-54429026D01*
X132998168Y-54442910D01*
X133015438Y-54458562D01*
X133031090Y-54475832D01*
X133044974Y-54494552D01*
X133056956Y-54514543D01*
X133066921Y-54535613D01*
X133074773Y-54557557D01*
X133080437Y-54580166D01*
X133083856Y-54603221D01*
X133085000Y-54626500D01*
X133085000Y-55101500D01*
X133083856Y-55124779D01*
X133080437Y-55147834D01*
X133074773Y-55170443D01*
X133066921Y-55192387D01*
X133056956Y-55213457D01*
X133044974Y-55233448D01*
X133031090Y-55252168D01*
X133015438Y-55269438D01*
X132998168Y-55285090D01*
X132979448Y-55298974D01*
X132959457Y-55310956D01*
X132938387Y-55320921D01*
X132916443Y-55328773D01*
X132893834Y-55334437D01*
X132870779Y-55337856D01*
X132847500Y-55339000D01*
X132272500Y-55339000D01*
X132249221Y-55337856D01*
X132226166Y-55334437D01*
X132203557Y-55328773D01*
X132181613Y-55320921D01*
X132160543Y-55310956D01*
X132140552Y-55298974D01*
X132121832Y-55285090D01*
X132104562Y-55269438D01*
X132088910Y-55252168D01*
X132075026Y-55233448D01*
X132063044Y-55213457D01*
X132053079Y-55192387D01*
X132045227Y-55170443D01*
X132039563Y-55147834D01*
X132036144Y-55124779D01*
X132035000Y-55101500D01*
X132035000Y-54626500D01*
X132036144Y-54603221D01*
X132039563Y-54580166D01*
X132045227Y-54557557D01*
X132053079Y-54535613D01*
X132063044Y-54514543D01*
X132075026Y-54494552D01*
X132088910Y-54475832D01*
X132104562Y-54458562D01*
X132121832Y-54442910D01*
X132140552Y-54429026D01*
X132160543Y-54417044D01*
X132181613Y-54407079D01*
X132203557Y-54399227D01*
X132226166Y-54393563D01*
X132249221Y-54390144D01*
X132272500Y-54389000D01*
X132847500Y-54389000D01*
X132870779Y-54390144D01*
X132870779Y-54390144D01*
G37*
D11*
X132560000Y-54864000D03*
G04 #@! TD*
D10*
G04 #@! TO.C,R3*
G36*
X148420779Y-54390144D02*
X148443834Y-54393563D01*
X148466443Y-54399227D01*
X148488387Y-54407079D01*
X148509457Y-54417044D01*
X148529448Y-54429026D01*
X148548168Y-54442910D01*
X148565438Y-54458562D01*
X148581090Y-54475832D01*
X148594974Y-54494552D01*
X148606956Y-54514543D01*
X148616921Y-54535613D01*
X148624773Y-54557557D01*
X148630437Y-54580166D01*
X148633856Y-54603221D01*
X148635000Y-54626500D01*
X148635000Y-55101500D01*
X148633856Y-55124779D01*
X148630437Y-55147834D01*
X148624773Y-55170443D01*
X148616921Y-55192387D01*
X148606956Y-55213457D01*
X148594974Y-55233448D01*
X148581090Y-55252168D01*
X148565438Y-55269438D01*
X148548168Y-55285090D01*
X148529448Y-55298974D01*
X148509457Y-55310956D01*
X148488387Y-55320921D01*
X148466443Y-55328773D01*
X148443834Y-55334437D01*
X148420779Y-55337856D01*
X148397500Y-55339000D01*
X147822500Y-55339000D01*
X147799221Y-55337856D01*
X147776166Y-55334437D01*
X147753557Y-55328773D01*
X147731613Y-55320921D01*
X147710543Y-55310956D01*
X147690552Y-55298974D01*
X147671832Y-55285090D01*
X147654562Y-55269438D01*
X147638910Y-55252168D01*
X147625026Y-55233448D01*
X147613044Y-55213457D01*
X147603079Y-55192387D01*
X147595227Y-55170443D01*
X147589563Y-55147834D01*
X147586144Y-55124779D01*
X147585000Y-55101500D01*
X147585000Y-54626500D01*
X147586144Y-54603221D01*
X147589563Y-54580166D01*
X147595227Y-54557557D01*
X147603079Y-54535613D01*
X147613044Y-54514543D01*
X147625026Y-54494552D01*
X147638910Y-54475832D01*
X147654562Y-54458562D01*
X147671832Y-54442910D01*
X147690552Y-54429026D01*
X147710543Y-54417044D01*
X147731613Y-54407079D01*
X147753557Y-54399227D01*
X147776166Y-54393563D01*
X147799221Y-54390144D01*
X147822500Y-54389000D01*
X148397500Y-54389000D01*
X148420779Y-54390144D01*
X148420779Y-54390144D01*
G37*
D11*
X148110000Y-54864000D03*
D10*
G36*
X150170779Y-54390144D02*
X150193834Y-54393563D01*
X150216443Y-54399227D01*
X150238387Y-54407079D01*
X150259457Y-54417044D01*
X150279448Y-54429026D01*
X150298168Y-54442910D01*
X150315438Y-54458562D01*
X150331090Y-54475832D01*
X150344974Y-54494552D01*
X150356956Y-54514543D01*
X150366921Y-54535613D01*
X150374773Y-54557557D01*
X150380437Y-54580166D01*
X150383856Y-54603221D01*
X150385000Y-54626500D01*
X150385000Y-55101500D01*
X150383856Y-55124779D01*
X150380437Y-55147834D01*
X150374773Y-55170443D01*
X150366921Y-55192387D01*
X150356956Y-55213457D01*
X150344974Y-55233448D01*
X150331090Y-55252168D01*
X150315438Y-55269438D01*
X150298168Y-55285090D01*
X150279448Y-55298974D01*
X150259457Y-55310956D01*
X150238387Y-55320921D01*
X150216443Y-55328773D01*
X150193834Y-55334437D01*
X150170779Y-55337856D01*
X150147500Y-55339000D01*
X149572500Y-55339000D01*
X149549221Y-55337856D01*
X149526166Y-55334437D01*
X149503557Y-55328773D01*
X149481613Y-55320921D01*
X149460543Y-55310956D01*
X149440552Y-55298974D01*
X149421832Y-55285090D01*
X149404562Y-55269438D01*
X149388910Y-55252168D01*
X149375026Y-55233448D01*
X149363044Y-55213457D01*
X149353079Y-55192387D01*
X149345227Y-55170443D01*
X149339563Y-55147834D01*
X149336144Y-55124779D01*
X149335000Y-55101500D01*
X149335000Y-54626500D01*
X149336144Y-54603221D01*
X149339563Y-54580166D01*
X149345227Y-54557557D01*
X149353079Y-54535613D01*
X149363044Y-54514543D01*
X149375026Y-54494552D01*
X149388910Y-54475832D01*
X149404562Y-54458562D01*
X149421832Y-54442910D01*
X149440552Y-54429026D01*
X149460543Y-54417044D01*
X149481613Y-54407079D01*
X149503557Y-54399227D01*
X149526166Y-54393563D01*
X149549221Y-54390144D01*
X149572500Y-54389000D01*
X150147500Y-54389000D01*
X150170779Y-54390144D01*
X150170779Y-54390144D01*
G37*
D11*
X149860000Y-54864000D03*
G04 #@! TD*
D10*
G04 #@! TO.C,R4*
G36*
X165692779Y-54390144D02*
X165715834Y-54393563D01*
X165738443Y-54399227D01*
X165760387Y-54407079D01*
X165781457Y-54417044D01*
X165801448Y-54429026D01*
X165820168Y-54442910D01*
X165837438Y-54458562D01*
X165853090Y-54475832D01*
X165866974Y-54494552D01*
X165878956Y-54514543D01*
X165888921Y-54535613D01*
X165896773Y-54557557D01*
X165902437Y-54580166D01*
X165905856Y-54603221D01*
X165907000Y-54626500D01*
X165907000Y-55101500D01*
X165905856Y-55124779D01*
X165902437Y-55147834D01*
X165896773Y-55170443D01*
X165888921Y-55192387D01*
X165878956Y-55213457D01*
X165866974Y-55233448D01*
X165853090Y-55252168D01*
X165837438Y-55269438D01*
X165820168Y-55285090D01*
X165801448Y-55298974D01*
X165781457Y-55310956D01*
X165760387Y-55320921D01*
X165738443Y-55328773D01*
X165715834Y-55334437D01*
X165692779Y-55337856D01*
X165669500Y-55339000D01*
X165094500Y-55339000D01*
X165071221Y-55337856D01*
X165048166Y-55334437D01*
X165025557Y-55328773D01*
X165003613Y-55320921D01*
X164982543Y-55310956D01*
X164962552Y-55298974D01*
X164943832Y-55285090D01*
X164926562Y-55269438D01*
X164910910Y-55252168D01*
X164897026Y-55233448D01*
X164885044Y-55213457D01*
X164875079Y-55192387D01*
X164867227Y-55170443D01*
X164861563Y-55147834D01*
X164858144Y-55124779D01*
X164857000Y-55101500D01*
X164857000Y-54626500D01*
X164858144Y-54603221D01*
X164861563Y-54580166D01*
X164867227Y-54557557D01*
X164875079Y-54535613D01*
X164885044Y-54514543D01*
X164897026Y-54494552D01*
X164910910Y-54475832D01*
X164926562Y-54458562D01*
X164943832Y-54442910D01*
X164962552Y-54429026D01*
X164982543Y-54417044D01*
X165003613Y-54407079D01*
X165025557Y-54399227D01*
X165048166Y-54393563D01*
X165071221Y-54390144D01*
X165094500Y-54389000D01*
X165669500Y-54389000D01*
X165692779Y-54390144D01*
X165692779Y-54390144D01*
G37*
D11*
X165382000Y-54864000D03*
D10*
G36*
X167442779Y-54390144D02*
X167465834Y-54393563D01*
X167488443Y-54399227D01*
X167510387Y-54407079D01*
X167531457Y-54417044D01*
X167551448Y-54429026D01*
X167570168Y-54442910D01*
X167587438Y-54458562D01*
X167603090Y-54475832D01*
X167616974Y-54494552D01*
X167628956Y-54514543D01*
X167638921Y-54535613D01*
X167646773Y-54557557D01*
X167652437Y-54580166D01*
X167655856Y-54603221D01*
X167657000Y-54626500D01*
X167657000Y-55101500D01*
X167655856Y-55124779D01*
X167652437Y-55147834D01*
X167646773Y-55170443D01*
X167638921Y-55192387D01*
X167628956Y-55213457D01*
X167616974Y-55233448D01*
X167603090Y-55252168D01*
X167587438Y-55269438D01*
X167570168Y-55285090D01*
X167551448Y-55298974D01*
X167531457Y-55310956D01*
X167510387Y-55320921D01*
X167488443Y-55328773D01*
X167465834Y-55334437D01*
X167442779Y-55337856D01*
X167419500Y-55339000D01*
X166844500Y-55339000D01*
X166821221Y-55337856D01*
X166798166Y-55334437D01*
X166775557Y-55328773D01*
X166753613Y-55320921D01*
X166732543Y-55310956D01*
X166712552Y-55298974D01*
X166693832Y-55285090D01*
X166676562Y-55269438D01*
X166660910Y-55252168D01*
X166647026Y-55233448D01*
X166635044Y-55213457D01*
X166625079Y-55192387D01*
X166617227Y-55170443D01*
X166611563Y-55147834D01*
X166608144Y-55124779D01*
X166607000Y-55101500D01*
X166607000Y-54626500D01*
X166608144Y-54603221D01*
X166611563Y-54580166D01*
X166617227Y-54557557D01*
X166625079Y-54535613D01*
X166635044Y-54514543D01*
X166647026Y-54494552D01*
X166660910Y-54475832D01*
X166676562Y-54458562D01*
X166693832Y-54442910D01*
X166712552Y-54429026D01*
X166732543Y-54417044D01*
X166753613Y-54407079D01*
X166775557Y-54399227D01*
X166798166Y-54393563D01*
X166821221Y-54390144D01*
X166844500Y-54389000D01*
X167419500Y-54389000D01*
X167442779Y-54390144D01*
X167442779Y-54390144D01*
G37*
D11*
X167132000Y-54864000D03*
G04 #@! TD*
D10*
G04 #@! TO.C,R5*
G36*
X149612779Y-99016144D02*
X149635834Y-99019563D01*
X149658443Y-99025227D01*
X149680387Y-99033079D01*
X149701457Y-99043044D01*
X149721448Y-99055026D01*
X149740168Y-99068910D01*
X149757438Y-99084562D01*
X149773090Y-99101832D01*
X149786974Y-99120552D01*
X149798956Y-99140543D01*
X149808921Y-99161613D01*
X149816773Y-99183557D01*
X149822437Y-99206166D01*
X149825856Y-99229221D01*
X149827000Y-99252500D01*
X149827000Y-99827500D01*
X149825856Y-99850779D01*
X149822437Y-99873834D01*
X149816773Y-99896443D01*
X149808921Y-99918387D01*
X149798956Y-99939457D01*
X149786974Y-99959448D01*
X149773090Y-99978168D01*
X149757438Y-99995438D01*
X149740168Y-100011090D01*
X149721448Y-100024974D01*
X149701457Y-100036956D01*
X149680387Y-100046921D01*
X149658443Y-100054773D01*
X149635834Y-100060437D01*
X149612779Y-100063856D01*
X149589500Y-100065000D01*
X149114500Y-100065000D01*
X149091221Y-100063856D01*
X149068166Y-100060437D01*
X149045557Y-100054773D01*
X149023613Y-100046921D01*
X149002543Y-100036956D01*
X148982552Y-100024974D01*
X148963832Y-100011090D01*
X148946562Y-99995438D01*
X148930910Y-99978168D01*
X148917026Y-99959448D01*
X148905044Y-99939457D01*
X148895079Y-99918387D01*
X148887227Y-99896443D01*
X148881563Y-99873834D01*
X148878144Y-99850779D01*
X148877000Y-99827500D01*
X148877000Y-99252500D01*
X148878144Y-99229221D01*
X148881563Y-99206166D01*
X148887227Y-99183557D01*
X148895079Y-99161613D01*
X148905044Y-99140543D01*
X148917026Y-99120552D01*
X148930910Y-99101832D01*
X148946562Y-99084562D01*
X148963832Y-99068910D01*
X148982552Y-99055026D01*
X149002543Y-99043044D01*
X149023613Y-99033079D01*
X149045557Y-99025227D01*
X149068166Y-99019563D01*
X149091221Y-99016144D01*
X149114500Y-99015000D01*
X149589500Y-99015000D01*
X149612779Y-99016144D01*
X149612779Y-99016144D01*
G37*
D11*
X149352000Y-99540000D03*
D10*
G36*
X149612779Y-97266144D02*
X149635834Y-97269563D01*
X149658443Y-97275227D01*
X149680387Y-97283079D01*
X149701457Y-97293044D01*
X149721448Y-97305026D01*
X149740168Y-97318910D01*
X149757438Y-97334562D01*
X149773090Y-97351832D01*
X149786974Y-97370552D01*
X149798956Y-97390543D01*
X149808921Y-97411613D01*
X149816773Y-97433557D01*
X149822437Y-97456166D01*
X149825856Y-97479221D01*
X149827000Y-97502500D01*
X149827000Y-98077500D01*
X149825856Y-98100779D01*
X149822437Y-98123834D01*
X149816773Y-98146443D01*
X149808921Y-98168387D01*
X149798956Y-98189457D01*
X149786974Y-98209448D01*
X149773090Y-98228168D01*
X149757438Y-98245438D01*
X149740168Y-98261090D01*
X149721448Y-98274974D01*
X149701457Y-98286956D01*
X149680387Y-98296921D01*
X149658443Y-98304773D01*
X149635834Y-98310437D01*
X149612779Y-98313856D01*
X149589500Y-98315000D01*
X149114500Y-98315000D01*
X149091221Y-98313856D01*
X149068166Y-98310437D01*
X149045557Y-98304773D01*
X149023613Y-98296921D01*
X149002543Y-98286956D01*
X148982552Y-98274974D01*
X148963832Y-98261090D01*
X148946562Y-98245438D01*
X148930910Y-98228168D01*
X148917026Y-98209448D01*
X148905044Y-98189457D01*
X148895079Y-98168387D01*
X148887227Y-98146443D01*
X148881563Y-98123834D01*
X148878144Y-98100779D01*
X148877000Y-98077500D01*
X148877000Y-97502500D01*
X148878144Y-97479221D01*
X148881563Y-97456166D01*
X148887227Y-97433557D01*
X148895079Y-97411613D01*
X148905044Y-97390543D01*
X148917026Y-97370552D01*
X148930910Y-97351832D01*
X148946562Y-97334562D01*
X148963832Y-97318910D01*
X148982552Y-97305026D01*
X149002543Y-97293044D01*
X149023613Y-97283079D01*
X149045557Y-97275227D01*
X149068166Y-97269563D01*
X149091221Y-97266144D01*
X149114500Y-97265000D01*
X149589500Y-97265000D01*
X149612779Y-97266144D01*
X149612779Y-97266144D01*
G37*
D11*
X149352000Y-97790000D03*
G04 #@! TD*
D10*
G04 #@! TO.C,R6*
G36*
X145294779Y-99016144D02*
X145317834Y-99019563D01*
X145340443Y-99025227D01*
X145362387Y-99033079D01*
X145383457Y-99043044D01*
X145403448Y-99055026D01*
X145422168Y-99068910D01*
X145439438Y-99084562D01*
X145455090Y-99101832D01*
X145468974Y-99120552D01*
X145480956Y-99140543D01*
X145490921Y-99161613D01*
X145498773Y-99183557D01*
X145504437Y-99206166D01*
X145507856Y-99229221D01*
X145509000Y-99252500D01*
X145509000Y-99827500D01*
X145507856Y-99850779D01*
X145504437Y-99873834D01*
X145498773Y-99896443D01*
X145490921Y-99918387D01*
X145480956Y-99939457D01*
X145468974Y-99959448D01*
X145455090Y-99978168D01*
X145439438Y-99995438D01*
X145422168Y-100011090D01*
X145403448Y-100024974D01*
X145383457Y-100036956D01*
X145362387Y-100046921D01*
X145340443Y-100054773D01*
X145317834Y-100060437D01*
X145294779Y-100063856D01*
X145271500Y-100065000D01*
X144796500Y-100065000D01*
X144773221Y-100063856D01*
X144750166Y-100060437D01*
X144727557Y-100054773D01*
X144705613Y-100046921D01*
X144684543Y-100036956D01*
X144664552Y-100024974D01*
X144645832Y-100011090D01*
X144628562Y-99995438D01*
X144612910Y-99978168D01*
X144599026Y-99959448D01*
X144587044Y-99939457D01*
X144577079Y-99918387D01*
X144569227Y-99896443D01*
X144563563Y-99873834D01*
X144560144Y-99850779D01*
X144559000Y-99827500D01*
X144559000Y-99252500D01*
X144560144Y-99229221D01*
X144563563Y-99206166D01*
X144569227Y-99183557D01*
X144577079Y-99161613D01*
X144587044Y-99140543D01*
X144599026Y-99120552D01*
X144612910Y-99101832D01*
X144628562Y-99084562D01*
X144645832Y-99068910D01*
X144664552Y-99055026D01*
X144684543Y-99043044D01*
X144705613Y-99033079D01*
X144727557Y-99025227D01*
X144750166Y-99019563D01*
X144773221Y-99016144D01*
X144796500Y-99015000D01*
X145271500Y-99015000D01*
X145294779Y-99016144D01*
X145294779Y-99016144D01*
G37*
D11*
X145034000Y-99540000D03*
D10*
G36*
X145294779Y-97266144D02*
X145317834Y-97269563D01*
X145340443Y-97275227D01*
X145362387Y-97283079D01*
X145383457Y-97293044D01*
X145403448Y-97305026D01*
X145422168Y-97318910D01*
X145439438Y-97334562D01*
X145455090Y-97351832D01*
X145468974Y-97370552D01*
X145480956Y-97390543D01*
X145490921Y-97411613D01*
X145498773Y-97433557D01*
X145504437Y-97456166D01*
X145507856Y-97479221D01*
X145509000Y-97502500D01*
X145509000Y-98077500D01*
X145507856Y-98100779D01*
X145504437Y-98123834D01*
X145498773Y-98146443D01*
X145490921Y-98168387D01*
X145480956Y-98189457D01*
X145468974Y-98209448D01*
X145455090Y-98228168D01*
X145439438Y-98245438D01*
X145422168Y-98261090D01*
X145403448Y-98274974D01*
X145383457Y-98286956D01*
X145362387Y-98296921D01*
X145340443Y-98304773D01*
X145317834Y-98310437D01*
X145294779Y-98313856D01*
X145271500Y-98315000D01*
X144796500Y-98315000D01*
X144773221Y-98313856D01*
X144750166Y-98310437D01*
X144727557Y-98304773D01*
X144705613Y-98296921D01*
X144684543Y-98286956D01*
X144664552Y-98274974D01*
X144645832Y-98261090D01*
X144628562Y-98245438D01*
X144612910Y-98228168D01*
X144599026Y-98209448D01*
X144587044Y-98189457D01*
X144577079Y-98168387D01*
X144569227Y-98146443D01*
X144563563Y-98123834D01*
X144560144Y-98100779D01*
X144559000Y-98077500D01*
X144559000Y-97502500D01*
X144560144Y-97479221D01*
X144563563Y-97456166D01*
X144569227Y-97433557D01*
X144577079Y-97411613D01*
X144587044Y-97390543D01*
X144599026Y-97370552D01*
X144612910Y-97351832D01*
X144628562Y-97334562D01*
X144645832Y-97318910D01*
X144664552Y-97305026D01*
X144684543Y-97293044D01*
X144705613Y-97283079D01*
X144727557Y-97275227D01*
X144750166Y-97269563D01*
X144773221Y-97266144D01*
X144796500Y-97265000D01*
X145271500Y-97265000D01*
X145294779Y-97266144D01*
X145294779Y-97266144D01*
G37*
D11*
X145034000Y-97790000D03*
G04 #@! TD*
D10*
G04 #@! TO.C,R7*
G36*
X141230779Y-98903144D02*
X141253834Y-98906563D01*
X141276443Y-98912227D01*
X141298387Y-98920079D01*
X141319457Y-98930044D01*
X141339448Y-98942026D01*
X141358168Y-98955910D01*
X141375438Y-98971562D01*
X141391090Y-98988832D01*
X141404974Y-99007552D01*
X141416956Y-99027543D01*
X141426921Y-99048613D01*
X141434773Y-99070557D01*
X141440437Y-99093166D01*
X141443856Y-99116221D01*
X141445000Y-99139500D01*
X141445000Y-99714500D01*
X141443856Y-99737779D01*
X141440437Y-99760834D01*
X141434773Y-99783443D01*
X141426921Y-99805387D01*
X141416956Y-99826457D01*
X141404974Y-99846448D01*
X141391090Y-99865168D01*
X141375438Y-99882438D01*
X141358168Y-99898090D01*
X141339448Y-99911974D01*
X141319457Y-99923956D01*
X141298387Y-99933921D01*
X141276443Y-99941773D01*
X141253834Y-99947437D01*
X141230779Y-99950856D01*
X141207500Y-99952000D01*
X140732500Y-99952000D01*
X140709221Y-99950856D01*
X140686166Y-99947437D01*
X140663557Y-99941773D01*
X140641613Y-99933921D01*
X140620543Y-99923956D01*
X140600552Y-99911974D01*
X140581832Y-99898090D01*
X140564562Y-99882438D01*
X140548910Y-99865168D01*
X140535026Y-99846448D01*
X140523044Y-99826457D01*
X140513079Y-99805387D01*
X140505227Y-99783443D01*
X140499563Y-99760834D01*
X140496144Y-99737779D01*
X140495000Y-99714500D01*
X140495000Y-99139500D01*
X140496144Y-99116221D01*
X140499563Y-99093166D01*
X140505227Y-99070557D01*
X140513079Y-99048613D01*
X140523044Y-99027543D01*
X140535026Y-99007552D01*
X140548910Y-98988832D01*
X140564562Y-98971562D01*
X140581832Y-98955910D01*
X140600552Y-98942026D01*
X140620543Y-98930044D01*
X140641613Y-98920079D01*
X140663557Y-98912227D01*
X140686166Y-98906563D01*
X140709221Y-98903144D01*
X140732500Y-98902000D01*
X141207500Y-98902000D01*
X141230779Y-98903144D01*
X141230779Y-98903144D01*
G37*
D11*
X140970000Y-99427000D03*
D10*
G36*
X141230779Y-97153144D02*
X141253834Y-97156563D01*
X141276443Y-97162227D01*
X141298387Y-97170079D01*
X141319457Y-97180044D01*
X141339448Y-97192026D01*
X141358168Y-97205910D01*
X141375438Y-97221562D01*
X141391090Y-97238832D01*
X141404974Y-97257552D01*
X141416956Y-97277543D01*
X141426921Y-97298613D01*
X141434773Y-97320557D01*
X141440437Y-97343166D01*
X141443856Y-97366221D01*
X141445000Y-97389500D01*
X141445000Y-97964500D01*
X141443856Y-97987779D01*
X141440437Y-98010834D01*
X141434773Y-98033443D01*
X141426921Y-98055387D01*
X141416956Y-98076457D01*
X141404974Y-98096448D01*
X141391090Y-98115168D01*
X141375438Y-98132438D01*
X141358168Y-98148090D01*
X141339448Y-98161974D01*
X141319457Y-98173956D01*
X141298387Y-98183921D01*
X141276443Y-98191773D01*
X141253834Y-98197437D01*
X141230779Y-98200856D01*
X141207500Y-98202000D01*
X140732500Y-98202000D01*
X140709221Y-98200856D01*
X140686166Y-98197437D01*
X140663557Y-98191773D01*
X140641613Y-98183921D01*
X140620543Y-98173956D01*
X140600552Y-98161974D01*
X140581832Y-98148090D01*
X140564562Y-98132438D01*
X140548910Y-98115168D01*
X140535026Y-98096448D01*
X140523044Y-98076457D01*
X140513079Y-98055387D01*
X140505227Y-98033443D01*
X140499563Y-98010834D01*
X140496144Y-97987779D01*
X140495000Y-97964500D01*
X140495000Y-97389500D01*
X140496144Y-97366221D01*
X140499563Y-97343166D01*
X140505227Y-97320557D01*
X140513079Y-97298613D01*
X140523044Y-97277543D01*
X140535026Y-97257552D01*
X140548910Y-97238832D01*
X140564562Y-97221562D01*
X140581832Y-97205910D01*
X140600552Y-97192026D01*
X140620543Y-97180044D01*
X140641613Y-97170079D01*
X140663557Y-97162227D01*
X140686166Y-97156563D01*
X140709221Y-97153144D01*
X140732500Y-97152000D01*
X141207500Y-97152000D01*
X141230779Y-97153144D01*
X141230779Y-97153144D01*
G37*
D11*
X140970000Y-97677000D03*
G04 #@! TD*
D10*
G04 #@! TO.C,R1*
G36*
X137166779Y-98903144D02*
X137189834Y-98906563D01*
X137212443Y-98912227D01*
X137234387Y-98920079D01*
X137255457Y-98930044D01*
X137275448Y-98942026D01*
X137294168Y-98955910D01*
X137311438Y-98971562D01*
X137327090Y-98988832D01*
X137340974Y-99007552D01*
X137352956Y-99027543D01*
X137362921Y-99048613D01*
X137370773Y-99070557D01*
X137376437Y-99093166D01*
X137379856Y-99116221D01*
X137381000Y-99139500D01*
X137381000Y-99714500D01*
X137379856Y-99737779D01*
X137376437Y-99760834D01*
X137370773Y-99783443D01*
X137362921Y-99805387D01*
X137352956Y-99826457D01*
X137340974Y-99846448D01*
X137327090Y-99865168D01*
X137311438Y-99882438D01*
X137294168Y-99898090D01*
X137275448Y-99911974D01*
X137255457Y-99923956D01*
X137234387Y-99933921D01*
X137212443Y-99941773D01*
X137189834Y-99947437D01*
X137166779Y-99950856D01*
X137143500Y-99952000D01*
X136668500Y-99952000D01*
X136645221Y-99950856D01*
X136622166Y-99947437D01*
X136599557Y-99941773D01*
X136577613Y-99933921D01*
X136556543Y-99923956D01*
X136536552Y-99911974D01*
X136517832Y-99898090D01*
X136500562Y-99882438D01*
X136484910Y-99865168D01*
X136471026Y-99846448D01*
X136459044Y-99826457D01*
X136449079Y-99805387D01*
X136441227Y-99783443D01*
X136435563Y-99760834D01*
X136432144Y-99737779D01*
X136431000Y-99714500D01*
X136431000Y-99139500D01*
X136432144Y-99116221D01*
X136435563Y-99093166D01*
X136441227Y-99070557D01*
X136449079Y-99048613D01*
X136459044Y-99027543D01*
X136471026Y-99007552D01*
X136484910Y-98988832D01*
X136500562Y-98971562D01*
X136517832Y-98955910D01*
X136536552Y-98942026D01*
X136556543Y-98930044D01*
X136577613Y-98920079D01*
X136599557Y-98912227D01*
X136622166Y-98906563D01*
X136645221Y-98903144D01*
X136668500Y-98902000D01*
X137143500Y-98902000D01*
X137166779Y-98903144D01*
X137166779Y-98903144D01*
G37*
D11*
X136906000Y-99427000D03*
D10*
G36*
X137166779Y-97153144D02*
X137189834Y-97156563D01*
X137212443Y-97162227D01*
X137234387Y-97170079D01*
X137255457Y-97180044D01*
X137275448Y-97192026D01*
X137294168Y-97205910D01*
X137311438Y-97221562D01*
X137327090Y-97238832D01*
X137340974Y-97257552D01*
X137352956Y-97277543D01*
X137362921Y-97298613D01*
X137370773Y-97320557D01*
X137376437Y-97343166D01*
X137379856Y-97366221D01*
X137381000Y-97389500D01*
X137381000Y-97964500D01*
X137379856Y-97987779D01*
X137376437Y-98010834D01*
X137370773Y-98033443D01*
X137362921Y-98055387D01*
X137352956Y-98076457D01*
X137340974Y-98096448D01*
X137327090Y-98115168D01*
X137311438Y-98132438D01*
X137294168Y-98148090D01*
X137275448Y-98161974D01*
X137255457Y-98173956D01*
X137234387Y-98183921D01*
X137212443Y-98191773D01*
X137189834Y-98197437D01*
X137166779Y-98200856D01*
X137143500Y-98202000D01*
X136668500Y-98202000D01*
X136645221Y-98200856D01*
X136622166Y-98197437D01*
X136599557Y-98191773D01*
X136577613Y-98183921D01*
X136556543Y-98173956D01*
X136536552Y-98161974D01*
X136517832Y-98148090D01*
X136500562Y-98132438D01*
X136484910Y-98115168D01*
X136471026Y-98096448D01*
X136459044Y-98076457D01*
X136449079Y-98055387D01*
X136441227Y-98033443D01*
X136435563Y-98010834D01*
X136432144Y-97987779D01*
X136431000Y-97964500D01*
X136431000Y-97389500D01*
X136432144Y-97366221D01*
X136435563Y-97343166D01*
X136441227Y-97320557D01*
X136449079Y-97298613D01*
X136459044Y-97277543D01*
X136471026Y-97257552D01*
X136484910Y-97238832D01*
X136500562Y-97221562D01*
X136517832Y-97205910D01*
X136536552Y-97192026D01*
X136556543Y-97180044D01*
X136577613Y-97170079D01*
X136599557Y-97162227D01*
X136622166Y-97156563D01*
X136645221Y-97153144D01*
X136668500Y-97152000D01*
X137143500Y-97152000D01*
X137166779Y-97153144D01*
X137166779Y-97153144D01*
G37*
D11*
X136906000Y-97677000D03*
G04 #@! TD*
D10*
G04 #@! TO.C,C1*
G36*
X127755050Y-83746307D02*
X127778105Y-83749726D01*
X127800714Y-83755390D01*
X127822658Y-83763242D01*
X127843728Y-83773207D01*
X127863719Y-83785189D01*
X127882439Y-83799073D01*
X127899709Y-83814725D01*
X127915361Y-83831995D01*
X127929245Y-83850715D01*
X127941227Y-83870706D01*
X127951192Y-83891776D01*
X127959044Y-83913720D01*
X127964708Y-83936329D01*
X127968127Y-83959384D01*
X127969271Y-83982663D01*
X127969271Y-84557663D01*
X127968127Y-84580942D01*
X127964708Y-84603997D01*
X127959044Y-84626606D01*
X127951192Y-84648550D01*
X127941227Y-84669620D01*
X127929245Y-84689611D01*
X127915361Y-84708331D01*
X127899709Y-84725601D01*
X127882439Y-84741253D01*
X127863719Y-84755137D01*
X127843728Y-84767119D01*
X127822658Y-84777084D01*
X127800714Y-84784936D01*
X127778105Y-84790600D01*
X127755050Y-84794019D01*
X127731771Y-84795163D01*
X127256771Y-84795163D01*
X127233492Y-84794019D01*
X127210437Y-84790600D01*
X127187828Y-84784936D01*
X127165884Y-84777084D01*
X127144814Y-84767119D01*
X127124823Y-84755137D01*
X127106103Y-84741253D01*
X127088833Y-84725601D01*
X127073181Y-84708331D01*
X127059297Y-84689611D01*
X127047315Y-84669620D01*
X127037350Y-84648550D01*
X127029498Y-84626606D01*
X127023834Y-84603997D01*
X127020415Y-84580942D01*
X127019271Y-84557663D01*
X127019271Y-83982663D01*
X127020415Y-83959384D01*
X127023834Y-83936329D01*
X127029498Y-83913720D01*
X127037350Y-83891776D01*
X127047315Y-83870706D01*
X127059297Y-83850715D01*
X127073181Y-83831995D01*
X127088833Y-83814725D01*
X127106103Y-83799073D01*
X127124823Y-83785189D01*
X127144814Y-83773207D01*
X127165884Y-83763242D01*
X127187828Y-83755390D01*
X127210437Y-83749726D01*
X127233492Y-83746307D01*
X127256771Y-83745163D01*
X127731771Y-83745163D01*
X127755050Y-83746307D01*
X127755050Y-83746307D01*
G37*
D11*
X127494271Y-84270163D03*
D10*
G36*
X127755050Y-81996307D02*
X127778105Y-81999726D01*
X127800714Y-82005390D01*
X127822658Y-82013242D01*
X127843728Y-82023207D01*
X127863719Y-82035189D01*
X127882439Y-82049073D01*
X127899709Y-82064725D01*
X127915361Y-82081995D01*
X127929245Y-82100715D01*
X127941227Y-82120706D01*
X127951192Y-82141776D01*
X127959044Y-82163720D01*
X127964708Y-82186329D01*
X127968127Y-82209384D01*
X127969271Y-82232663D01*
X127969271Y-82807663D01*
X127968127Y-82830942D01*
X127964708Y-82853997D01*
X127959044Y-82876606D01*
X127951192Y-82898550D01*
X127941227Y-82919620D01*
X127929245Y-82939611D01*
X127915361Y-82958331D01*
X127899709Y-82975601D01*
X127882439Y-82991253D01*
X127863719Y-83005137D01*
X127843728Y-83017119D01*
X127822658Y-83027084D01*
X127800714Y-83034936D01*
X127778105Y-83040600D01*
X127755050Y-83044019D01*
X127731771Y-83045163D01*
X127256771Y-83045163D01*
X127233492Y-83044019D01*
X127210437Y-83040600D01*
X127187828Y-83034936D01*
X127165884Y-83027084D01*
X127144814Y-83017119D01*
X127124823Y-83005137D01*
X127106103Y-82991253D01*
X127088833Y-82975601D01*
X127073181Y-82958331D01*
X127059297Y-82939611D01*
X127047315Y-82919620D01*
X127037350Y-82898550D01*
X127029498Y-82876606D01*
X127023834Y-82853997D01*
X127020415Y-82830942D01*
X127019271Y-82807663D01*
X127019271Y-82232663D01*
X127020415Y-82209384D01*
X127023834Y-82186329D01*
X127029498Y-82163720D01*
X127037350Y-82141776D01*
X127047315Y-82120706D01*
X127059297Y-82100715D01*
X127073181Y-82081995D01*
X127088833Y-82064725D01*
X127106103Y-82049073D01*
X127124823Y-82035189D01*
X127144814Y-82023207D01*
X127165884Y-82013242D01*
X127187828Y-82005390D01*
X127210437Y-81999726D01*
X127233492Y-81996307D01*
X127256771Y-81995163D01*
X127731771Y-81995163D01*
X127755050Y-81996307D01*
X127755050Y-81996307D01*
G37*
D11*
X127494271Y-82520163D03*
G04 #@! TD*
D10*
G04 #@! TO.C,C2*
G36*
X177298779Y-60069144D02*
X177321834Y-60072563D01*
X177344443Y-60078227D01*
X177366387Y-60086079D01*
X177387457Y-60096044D01*
X177407448Y-60108026D01*
X177426168Y-60121910D01*
X177443438Y-60137562D01*
X177459090Y-60154832D01*
X177472974Y-60173552D01*
X177484956Y-60193543D01*
X177494921Y-60214613D01*
X177502773Y-60236557D01*
X177508437Y-60259166D01*
X177511856Y-60282221D01*
X177513000Y-60305500D01*
X177513000Y-60880500D01*
X177511856Y-60903779D01*
X177508437Y-60926834D01*
X177502773Y-60949443D01*
X177494921Y-60971387D01*
X177484956Y-60992457D01*
X177472974Y-61012448D01*
X177459090Y-61031168D01*
X177443438Y-61048438D01*
X177426168Y-61064090D01*
X177407448Y-61077974D01*
X177387457Y-61089956D01*
X177366387Y-61099921D01*
X177344443Y-61107773D01*
X177321834Y-61113437D01*
X177298779Y-61116856D01*
X177275500Y-61118000D01*
X176800500Y-61118000D01*
X176777221Y-61116856D01*
X176754166Y-61113437D01*
X176731557Y-61107773D01*
X176709613Y-61099921D01*
X176688543Y-61089956D01*
X176668552Y-61077974D01*
X176649832Y-61064090D01*
X176632562Y-61048438D01*
X176616910Y-61031168D01*
X176603026Y-61012448D01*
X176591044Y-60992457D01*
X176581079Y-60971387D01*
X176573227Y-60949443D01*
X176567563Y-60926834D01*
X176564144Y-60903779D01*
X176563000Y-60880500D01*
X176563000Y-60305500D01*
X176564144Y-60282221D01*
X176567563Y-60259166D01*
X176573227Y-60236557D01*
X176581079Y-60214613D01*
X176591044Y-60193543D01*
X176603026Y-60173552D01*
X176616910Y-60154832D01*
X176632562Y-60137562D01*
X176649832Y-60121910D01*
X176668552Y-60108026D01*
X176688543Y-60096044D01*
X176709613Y-60086079D01*
X176731557Y-60078227D01*
X176754166Y-60072563D01*
X176777221Y-60069144D01*
X176800500Y-60068000D01*
X177275500Y-60068000D01*
X177298779Y-60069144D01*
X177298779Y-60069144D01*
G37*
D11*
X177038000Y-60593000D03*
D10*
G36*
X177298779Y-61819144D02*
X177321834Y-61822563D01*
X177344443Y-61828227D01*
X177366387Y-61836079D01*
X177387457Y-61846044D01*
X177407448Y-61858026D01*
X177426168Y-61871910D01*
X177443438Y-61887562D01*
X177459090Y-61904832D01*
X177472974Y-61923552D01*
X177484956Y-61943543D01*
X177494921Y-61964613D01*
X177502773Y-61986557D01*
X177508437Y-62009166D01*
X177511856Y-62032221D01*
X177513000Y-62055500D01*
X177513000Y-62630500D01*
X177511856Y-62653779D01*
X177508437Y-62676834D01*
X177502773Y-62699443D01*
X177494921Y-62721387D01*
X177484956Y-62742457D01*
X177472974Y-62762448D01*
X177459090Y-62781168D01*
X177443438Y-62798438D01*
X177426168Y-62814090D01*
X177407448Y-62827974D01*
X177387457Y-62839956D01*
X177366387Y-62849921D01*
X177344443Y-62857773D01*
X177321834Y-62863437D01*
X177298779Y-62866856D01*
X177275500Y-62868000D01*
X176800500Y-62868000D01*
X176777221Y-62866856D01*
X176754166Y-62863437D01*
X176731557Y-62857773D01*
X176709613Y-62849921D01*
X176688543Y-62839956D01*
X176668552Y-62827974D01*
X176649832Y-62814090D01*
X176632562Y-62798438D01*
X176616910Y-62781168D01*
X176603026Y-62762448D01*
X176591044Y-62742457D01*
X176581079Y-62721387D01*
X176573227Y-62699443D01*
X176567563Y-62676834D01*
X176564144Y-62653779D01*
X176563000Y-62630500D01*
X176563000Y-62055500D01*
X176564144Y-62032221D01*
X176567563Y-62009166D01*
X176573227Y-61986557D01*
X176581079Y-61964613D01*
X176591044Y-61943543D01*
X176603026Y-61923552D01*
X176616910Y-61904832D01*
X176632562Y-61887562D01*
X176649832Y-61871910D01*
X176668552Y-61858026D01*
X176688543Y-61846044D01*
X176709613Y-61836079D01*
X176731557Y-61828227D01*
X176754166Y-61822563D01*
X176777221Y-61819144D01*
X176800500Y-61818000D01*
X177275500Y-61818000D01*
X177298779Y-61819144D01*
X177298779Y-61819144D01*
G37*
D11*
X177038000Y-62343000D03*
G04 #@! TD*
D10*
G04 #@! TO.C,C3*
G36*
X135058050Y-85715307D02*
X135081105Y-85718726D01*
X135103714Y-85724390D01*
X135125658Y-85732242D01*
X135146728Y-85742207D01*
X135166719Y-85754189D01*
X135185439Y-85768073D01*
X135202709Y-85783725D01*
X135218361Y-85800995D01*
X135232245Y-85819715D01*
X135244227Y-85839706D01*
X135254192Y-85860776D01*
X135262044Y-85882720D01*
X135267708Y-85905329D01*
X135271127Y-85928384D01*
X135272271Y-85951663D01*
X135272271Y-86426663D01*
X135271127Y-86449942D01*
X135267708Y-86472997D01*
X135262044Y-86495606D01*
X135254192Y-86517550D01*
X135244227Y-86538620D01*
X135232245Y-86558611D01*
X135218361Y-86577331D01*
X135202709Y-86594601D01*
X135185439Y-86610253D01*
X135166719Y-86624137D01*
X135146728Y-86636119D01*
X135125658Y-86646084D01*
X135103714Y-86653936D01*
X135081105Y-86659600D01*
X135058050Y-86663019D01*
X135034771Y-86664163D01*
X134459771Y-86664163D01*
X134436492Y-86663019D01*
X134413437Y-86659600D01*
X134390828Y-86653936D01*
X134368884Y-86646084D01*
X134347814Y-86636119D01*
X134327823Y-86624137D01*
X134309103Y-86610253D01*
X134291833Y-86594601D01*
X134276181Y-86577331D01*
X134262297Y-86558611D01*
X134250315Y-86538620D01*
X134240350Y-86517550D01*
X134232498Y-86495606D01*
X134226834Y-86472997D01*
X134223415Y-86449942D01*
X134222271Y-86426663D01*
X134222271Y-85951663D01*
X134223415Y-85928384D01*
X134226834Y-85905329D01*
X134232498Y-85882720D01*
X134240350Y-85860776D01*
X134250315Y-85839706D01*
X134262297Y-85819715D01*
X134276181Y-85800995D01*
X134291833Y-85783725D01*
X134309103Y-85768073D01*
X134327823Y-85754189D01*
X134347814Y-85742207D01*
X134368884Y-85732242D01*
X134390828Y-85724390D01*
X134413437Y-85718726D01*
X134436492Y-85715307D01*
X134459771Y-85714163D01*
X135034771Y-85714163D01*
X135058050Y-85715307D01*
X135058050Y-85715307D01*
G37*
D11*
X134747271Y-86189163D03*
D10*
G36*
X136808050Y-85715307D02*
X136831105Y-85718726D01*
X136853714Y-85724390D01*
X136875658Y-85732242D01*
X136896728Y-85742207D01*
X136916719Y-85754189D01*
X136935439Y-85768073D01*
X136952709Y-85783725D01*
X136968361Y-85800995D01*
X136982245Y-85819715D01*
X136994227Y-85839706D01*
X137004192Y-85860776D01*
X137012044Y-85882720D01*
X137017708Y-85905329D01*
X137021127Y-85928384D01*
X137022271Y-85951663D01*
X137022271Y-86426663D01*
X137021127Y-86449942D01*
X137017708Y-86472997D01*
X137012044Y-86495606D01*
X137004192Y-86517550D01*
X136994227Y-86538620D01*
X136982245Y-86558611D01*
X136968361Y-86577331D01*
X136952709Y-86594601D01*
X136935439Y-86610253D01*
X136916719Y-86624137D01*
X136896728Y-86636119D01*
X136875658Y-86646084D01*
X136853714Y-86653936D01*
X136831105Y-86659600D01*
X136808050Y-86663019D01*
X136784771Y-86664163D01*
X136209771Y-86664163D01*
X136186492Y-86663019D01*
X136163437Y-86659600D01*
X136140828Y-86653936D01*
X136118884Y-86646084D01*
X136097814Y-86636119D01*
X136077823Y-86624137D01*
X136059103Y-86610253D01*
X136041833Y-86594601D01*
X136026181Y-86577331D01*
X136012297Y-86558611D01*
X136000315Y-86538620D01*
X135990350Y-86517550D01*
X135982498Y-86495606D01*
X135976834Y-86472997D01*
X135973415Y-86449942D01*
X135972271Y-86426663D01*
X135972271Y-85951663D01*
X135973415Y-85928384D01*
X135976834Y-85905329D01*
X135982498Y-85882720D01*
X135990350Y-85860776D01*
X136000315Y-85839706D01*
X136012297Y-85819715D01*
X136026181Y-85800995D01*
X136041833Y-85783725D01*
X136059103Y-85768073D01*
X136077823Y-85754189D01*
X136097814Y-85742207D01*
X136118884Y-85732242D01*
X136140828Y-85724390D01*
X136163437Y-85718726D01*
X136186492Y-85715307D01*
X136209771Y-85714163D01*
X136784771Y-85714163D01*
X136808050Y-85715307D01*
X136808050Y-85715307D01*
G37*
D11*
X136497271Y-86189163D03*
G04 #@! TD*
D10*
G04 #@! TO.C,C4*
G36*
X139693050Y-74630307D02*
X139716105Y-74633726D01*
X139738714Y-74639390D01*
X139760658Y-74647242D01*
X139781728Y-74657207D01*
X139801719Y-74669189D01*
X139820439Y-74683073D01*
X139837709Y-74698725D01*
X139853361Y-74715995D01*
X139867245Y-74734715D01*
X139879227Y-74754706D01*
X139889192Y-74775776D01*
X139897044Y-74797720D01*
X139902708Y-74820329D01*
X139906127Y-74843384D01*
X139907271Y-74866663D01*
X139907271Y-75441663D01*
X139906127Y-75464942D01*
X139902708Y-75487997D01*
X139897044Y-75510606D01*
X139889192Y-75532550D01*
X139879227Y-75553620D01*
X139867245Y-75573611D01*
X139853361Y-75592331D01*
X139837709Y-75609601D01*
X139820439Y-75625253D01*
X139801719Y-75639137D01*
X139781728Y-75651119D01*
X139760658Y-75661084D01*
X139738714Y-75668936D01*
X139716105Y-75674600D01*
X139693050Y-75678019D01*
X139669771Y-75679163D01*
X139194771Y-75679163D01*
X139171492Y-75678019D01*
X139148437Y-75674600D01*
X139125828Y-75668936D01*
X139103884Y-75661084D01*
X139082814Y-75651119D01*
X139062823Y-75639137D01*
X139044103Y-75625253D01*
X139026833Y-75609601D01*
X139011181Y-75592331D01*
X138997297Y-75573611D01*
X138985315Y-75553620D01*
X138975350Y-75532550D01*
X138967498Y-75510606D01*
X138961834Y-75487997D01*
X138958415Y-75464942D01*
X138957271Y-75441663D01*
X138957271Y-74866663D01*
X138958415Y-74843384D01*
X138961834Y-74820329D01*
X138967498Y-74797720D01*
X138975350Y-74775776D01*
X138985315Y-74754706D01*
X138997297Y-74734715D01*
X139011181Y-74715995D01*
X139026833Y-74698725D01*
X139044103Y-74683073D01*
X139062823Y-74669189D01*
X139082814Y-74657207D01*
X139103884Y-74647242D01*
X139125828Y-74639390D01*
X139148437Y-74633726D01*
X139171492Y-74630307D01*
X139194771Y-74629163D01*
X139669771Y-74629163D01*
X139693050Y-74630307D01*
X139693050Y-74630307D01*
G37*
D11*
X139432271Y-75154163D03*
D10*
G36*
X139693050Y-76380307D02*
X139716105Y-76383726D01*
X139738714Y-76389390D01*
X139760658Y-76397242D01*
X139781728Y-76407207D01*
X139801719Y-76419189D01*
X139820439Y-76433073D01*
X139837709Y-76448725D01*
X139853361Y-76465995D01*
X139867245Y-76484715D01*
X139879227Y-76504706D01*
X139889192Y-76525776D01*
X139897044Y-76547720D01*
X139902708Y-76570329D01*
X139906127Y-76593384D01*
X139907271Y-76616663D01*
X139907271Y-77191663D01*
X139906127Y-77214942D01*
X139902708Y-77237997D01*
X139897044Y-77260606D01*
X139889192Y-77282550D01*
X139879227Y-77303620D01*
X139867245Y-77323611D01*
X139853361Y-77342331D01*
X139837709Y-77359601D01*
X139820439Y-77375253D01*
X139801719Y-77389137D01*
X139781728Y-77401119D01*
X139760658Y-77411084D01*
X139738714Y-77418936D01*
X139716105Y-77424600D01*
X139693050Y-77428019D01*
X139669771Y-77429163D01*
X139194771Y-77429163D01*
X139171492Y-77428019D01*
X139148437Y-77424600D01*
X139125828Y-77418936D01*
X139103884Y-77411084D01*
X139082814Y-77401119D01*
X139062823Y-77389137D01*
X139044103Y-77375253D01*
X139026833Y-77359601D01*
X139011181Y-77342331D01*
X138997297Y-77323611D01*
X138985315Y-77303620D01*
X138975350Y-77282550D01*
X138967498Y-77260606D01*
X138961834Y-77237997D01*
X138958415Y-77214942D01*
X138957271Y-77191663D01*
X138957271Y-76616663D01*
X138958415Y-76593384D01*
X138961834Y-76570329D01*
X138967498Y-76547720D01*
X138975350Y-76525776D01*
X138985315Y-76504706D01*
X138997297Y-76484715D01*
X139011181Y-76465995D01*
X139026833Y-76448725D01*
X139044103Y-76433073D01*
X139062823Y-76419189D01*
X139082814Y-76407207D01*
X139103884Y-76397242D01*
X139125828Y-76389390D01*
X139148437Y-76383726D01*
X139171492Y-76380307D01*
X139194771Y-76379163D01*
X139669771Y-76379163D01*
X139693050Y-76380307D01*
X139693050Y-76380307D01*
G37*
D11*
X139432271Y-76904163D03*
G04 #@! TD*
D10*
G04 #@! TO.C,C5*
G36*
X169841779Y-58454144D02*
X169864834Y-58457563D01*
X169887443Y-58463227D01*
X169909387Y-58471079D01*
X169930457Y-58481044D01*
X169950448Y-58493026D01*
X169969168Y-58506910D01*
X169986438Y-58522562D01*
X170002090Y-58539832D01*
X170015974Y-58558552D01*
X170027956Y-58578543D01*
X170037921Y-58599613D01*
X170045773Y-58621557D01*
X170051437Y-58644166D01*
X170054856Y-58667221D01*
X170056000Y-58690500D01*
X170056000Y-59165500D01*
X170054856Y-59188779D01*
X170051437Y-59211834D01*
X170045773Y-59234443D01*
X170037921Y-59256387D01*
X170027956Y-59277457D01*
X170015974Y-59297448D01*
X170002090Y-59316168D01*
X169986438Y-59333438D01*
X169969168Y-59349090D01*
X169950448Y-59362974D01*
X169930457Y-59374956D01*
X169909387Y-59384921D01*
X169887443Y-59392773D01*
X169864834Y-59398437D01*
X169841779Y-59401856D01*
X169818500Y-59403000D01*
X169243500Y-59403000D01*
X169220221Y-59401856D01*
X169197166Y-59398437D01*
X169174557Y-59392773D01*
X169152613Y-59384921D01*
X169131543Y-59374956D01*
X169111552Y-59362974D01*
X169092832Y-59349090D01*
X169075562Y-59333438D01*
X169059910Y-59316168D01*
X169046026Y-59297448D01*
X169034044Y-59277457D01*
X169024079Y-59256387D01*
X169016227Y-59234443D01*
X169010563Y-59211834D01*
X169007144Y-59188779D01*
X169006000Y-59165500D01*
X169006000Y-58690500D01*
X169007144Y-58667221D01*
X169010563Y-58644166D01*
X169016227Y-58621557D01*
X169024079Y-58599613D01*
X169034044Y-58578543D01*
X169046026Y-58558552D01*
X169059910Y-58539832D01*
X169075562Y-58522562D01*
X169092832Y-58506910D01*
X169111552Y-58493026D01*
X169131543Y-58481044D01*
X169152613Y-58471079D01*
X169174557Y-58463227D01*
X169197166Y-58457563D01*
X169220221Y-58454144D01*
X169243500Y-58453000D01*
X169818500Y-58453000D01*
X169841779Y-58454144D01*
X169841779Y-58454144D01*
G37*
D11*
X169531000Y-58928000D03*
D10*
G36*
X168091779Y-58454144D02*
X168114834Y-58457563D01*
X168137443Y-58463227D01*
X168159387Y-58471079D01*
X168180457Y-58481044D01*
X168200448Y-58493026D01*
X168219168Y-58506910D01*
X168236438Y-58522562D01*
X168252090Y-58539832D01*
X168265974Y-58558552D01*
X168277956Y-58578543D01*
X168287921Y-58599613D01*
X168295773Y-58621557D01*
X168301437Y-58644166D01*
X168304856Y-58667221D01*
X168306000Y-58690500D01*
X168306000Y-59165500D01*
X168304856Y-59188779D01*
X168301437Y-59211834D01*
X168295773Y-59234443D01*
X168287921Y-59256387D01*
X168277956Y-59277457D01*
X168265974Y-59297448D01*
X168252090Y-59316168D01*
X168236438Y-59333438D01*
X168219168Y-59349090D01*
X168200448Y-59362974D01*
X168180457Y-59374956D01*
X168159387Y-59384921D01*
X168137443Y-59392773D01*
X168114834Y-59398437D01*
X168091779Y-59401856D01*
X168068500Y-59403000D01*
X167493500Y-59403000D01*
X167470221Y-59401856D01*
X167447166Y-59398437D01*
X167424557Y-59392773D01*
X167402613Y-59384921D01*
X167381543Y-59374956D01*
X167361552Y-59362974D01*
X167342832Y-59349090D01*
X167325562Y-59333438D01*
X167309910Y-59316168D01*
X167296026Y-59297448D01*
X167284044Y-59277457D01*
X167274079Y-59256387D01*
X167266227Y-59234443D01*
X167260563Y-59211834D01*
X167257144Y-59188779D01*
X167256000Y-59165500D01*
X167256000Y-58690500D01*
X167257144Y-58667221D01*
X167260563Y-58644166D01*
X167266227Y-58621557D01*
X167274079Y-58599613D01*
X167284044Y-58578543D01*
X167296026Y-58558552D01*
X167309910Y-58539832D01*
X167325562Y-58522562D01*
X167342832Y-58506910D01*
X167361552Y-58493026D01*
X167381543Y-58481044D01*
X167402613Y-58471079D01*
X167424557Y-58463227D01*
X167447166Y-58457563D01*
X167470221Y-58454144D01*
X167493500Y-58453000D01*
X168068500Y-58453000D01*
X168091779Y-58454144D01*
X168091779Y-58454144D01*
G37*
D11*
X167781000Y-58928000D03*
G04 #@! TD*
D10*
G04 #@! TO.C,C6*
G36*
X164598779Y-69439144D02*
X164621834Y-69442563D01*
X164644443Y-69448227D01*
X164666387Y-69456079D01*
X164687457Y-69466044D01*
X164707448Y-69478026D01*
X164726168Y-69491910D01*
X164743438Y-69507562D01*
X164759090Y-69524832D01*
X164772974Y-69543552D01*
X164784956Y-69563543D01*
X164794921Y-69584613D01*
X164802773Y-69606557D01*
X164808437Y-69629166D01*
X164811856Y-69652221D01*
X164813000Y-69675500D01*
X164813000Y-70250500D01*
X164811856Y-70273779D01*
X164808437Y-70296834D01*
X164802773Y-70319443D01*
X164794921Y-70341387D01*
X164784956Y-70362457D01*
X164772974Y-70382448D01*
X164759090Y-70401168D01*
X164743438Y-70418438D01*
X164726168Y-70434090D01*
X164707448Y-70447974D01*
X164687457Y-70459956D01*
X164666387Y-70469921D01*
X164644443Y-70477773D01*
X164621834Y-70483437D01*
X164598779Y-70486856D01*
X164575500Y-70488000D01*
X164100500Y-70488000D01*
X164077221Y-70486856D01*
X164054166Y-70483437D01*
X164031557Y-70477773D01*
X164009613Y-70469921D01*
X163988543Y-70459956D01*
X163968552Y-70447974D01*
X163949832Y-70434090D01*
X163932562Y-70418438D01*
X163916910Y-70401168D01*
X163903026Y-70382448D01*
X163891044Y-70362457D01*
X163881079Y-70341387D01*
X163873227Y-70319443D01*
X163867563Y-70296834D01*
X163864144Y-70273779D01*
X163863000Y-70250500D01*
X163863000Y-69675500D01*
X163864144Y-69652221D01*
X163867563Y-69629166D01*
X163873227Y-69606557D01*
X163881079Y-69584613D01*
X163891044Y-69563543D01*
X163903026Y-69543552D01*
X163916910Y-69524832D01*
X163932562Y-69507562D01*
X163949832Y-69491910D01*
X163968552Y-69478026D01*
X163988543Y-69466044D01*
X164009613Y-69456079D01*
X164031557Y-69448227D01*
X164054166Y-69442563D01*
X164077221Y-69439144D01*
X164100500Y-69438000D01*
X164575500Y-69438000D01*
X164598779Y-69439144D01*
X164598779Y-69439144D01*
G37*
D11*
X164338000Y-69963000D03*
D10*
G36*
X164598779Y-67689144D02*
X164621834Y-67692563D01*
X164644443Y-67698227D01*
X164666387Y-67706079D01*
X164687457Y-67716044D01*
X164707448Y-67728026D01*
X164726168Y-67741910D01*
X164743438Y-67757562D01*
X164759090Y-67774832D01*
X164772974Y-67793552D01*
X164784956Y-67813543D01*
X164794921Y-67834613D01*
X164802773Y-67856557D01*
X164808437Y-67879166D01*
X164811856Y-67902221D01*
X164813000Y-67925500D01*
X164813000Y-68500500D01*
X164811856Y-68523779D01*
X164808437Y-68546834D01*
X164802773Y-68569443D01*
X164794921Y-68591387D01*
X164784956Y-68612457D01*
X164772974Y-68632448D01*
X164759090Y-68651168D01*
X164743438Y-68668438D01*
X164726168Y-68684090D01*
X164707448Y-68697974D01*
X164687457Y-68709956D01*
X164666387Y-68719921D01*
X164644443Y-68727773D01*
X164621834Y-68733437D01*
X164598779Y-68736856D01*
X164575500Y-68738000D01*
X164100500Y-68738000D01*
X164077221Y-68736856D01*
X164054166Y-68733437D01*
X164031557Y-68727773D01*
X164009613Y-68719921D01*
X163988543Y-68709956D01*
X163968552Y-68697974D01*
X163949832Y-68684090D01*
X163932562Y-68668438D01*
X163916910Y-68651168D01*
X163903026Y-68632448D01*
X163891044Y-68612457D01*
X163881079Y-68591387D01*
X163873227Y-68569443D01*
X163867563Y-68546834D01*
X163864144Y-68523779D01*
X163863000Y-68500500D01*
X163863000Y-67925500D01*
X163864144Y-67902221D01*
X163867563Y-67879166D01*
X163873227Y-67856557D01*
X163881079Y-67834613D01*
X163891044Y-67813543D01*
X163903026Y-67793552D01*
X163916910Y-67774832D01*
X163932562Y-67757562D01*
X163949832Y-67741910D01*
X163968552Y-67728026D01*
X163988543Y-67716044D01*
X164009613Y-67706079D01*
X164031557Y-67698227D01*
X164054166Y-67692563D01*
X164077221Y-67689144D01*
X164100500Y-67688000D01*
X164575500Y-67688000D01*
X164598779Y-67689144D01*
X164598779Y-67689144D01*
G37*
D11*
X164338000Y-68213000D03*
G04 #@! TD*
D10*
G04 #@! TO.C,C7*
G36*
X164344779Y-85215144D02*
X164367834Y-85218563D01*
X164390443Y-85224227D01*
X164412387Y-85232079D01*
X164433457Y-85242044D01*
X164453448Y-85254026D01*
X164472168Y-85267910D01*
X164489438Y-85283562D01*
X164505090Y-85300832D01*
X164518974Y-85319552D01*
X164530956Y-85339543D01*
X164540921Y-85360613D01*
X164548773Y-85382557D01*
X164554437Y-85405166D01*
X164557856Y-85428221D01*
X164559000Y-85451500D01*
X164559000Y-86026500D01*
X164557856Y-86049779D01*
X164554437Y-86072834D01*
X164548773Y-86095443D01*
X164540921Y-86117387D01*
X164530956Y-86138457D01*
X164518974Y-86158448D01*
X164505090Y-86177168D01*
X164489438Y-86194438D01*
X164472168Y-86210090D01*
X164453448Y-86223974D01*
X164433457Y-86235956D01*
X164412387Y-86245921D01*
X164390443Y-86253773D01*
X164367834Y-86259437D01*
X164344779Y-86262856D01*
X164321500Y-86264000D01*
X163846500Y-86264000D01*
X163823221Y-86262856D01*
X163800166Y-86259437D01*
X163777557Y-86253773D01*
X163755613Y-86245921D01*
X163734543Y-86235956D01*
X163714552Y-86223974D01*
X163695832Y-86210090D01*
X163678562Y-86194438D01*
X163662910Y-86177168D01*
X163649026Y-86158448D01*
X163637044Y-86138457D01*
X163627079Y-86117387D01*
X163619227Y-86095443D01*
X163613563Y-86072834D01*
X163610144Y-86049779D01*
X163609000Y-86026500D01*
X163609000Y-85451500D01*
X163610144Y-85428221D01*
X163613563Y-85405166D01*
X163619227Y-85382557D01*
X163627079Y-85360613D01*
X163637044Y-85339543D01*
X163649026Y-85319552D01*
X163662910Y-85300832D01*
X163678562Y-85283562D01*
X163695832Y-85267910D01*
X163714552Y-85254026D01*
X163734543Y-85242044D01*
X163755613Y-85232079D01*
X163777557Y-85224227D01*
X163800166Y-85218563D01*
X163823221Y-85215144D01*
X163846500Y-85214000D01*
X164321500Y-85214000D01*
X164344779Y-85215144D01*
X164344779Y-85215144D01*
G37*
D11*
X164084000Y-85739000D03*
D10*
G36*
X164344779Y-86965144D02*
X164367834Y-86968563D01*
X164390443Y-86974227D01*
X164412387Y-86982079D01*
X164433457Y-86992044D01*
X164453448Y-87004026D01*
X164472168Y-87017910D01*
X164489438Y-87033562D01*
X164505090Y-87050832D01*
X164518974Y-87069552D01*
X164530956Y-87089543D01*
X164540921Y-87110613D01*
X164548773Y-87132557D01*
X164554437Y-87155166D01*
X164557856Y-87178221D01*
X164559000Y-87201500D01*
X164559000Y-87776500D01*
X164557856Y-87799779D01*
X164554437Y-87822834D01*
X164548773Y-87845443D01*
X164540921Y-87867387D01*
X164530956Y-87888457D01*
X164518974Y-87908448D01*
X164505090Y-87927168D01*
X164489438Y-87944438D01*
X164472168Y-87960090D01*
X164453448Y-87973974D01*
X164433457Y-87985956D01*
X164412387Y-87995921D01*
X164390443Y-88003773D01*
X164367834Y-88009437D01*
X164344779Y-88012856D01*
X164321500Y-88014000D01*
X163846500Y-88014000D01*
X163823221Y-88012856D01*
X163800166Y-88009437D01*
X163777557Y-88003773D01*
X163755613Y-87995921D01*
X163734543Y-87985956D01*
X163714552Y-87973974D01*
X163695832Y-87960090D01*
X163678562Y-87944438D01*
X163662910Y-87927168D01*
X163649026Y-87908448D01*
X163637044Y-87888457D01*
X163627079Y-87867387D01*
X163619227Y-87845443D01*
X163613563Y-87822834D01*
X163610144Y-87799779D01*
X163609000Y-87776500D01*
X163609000Y-87201500D01*
X163610144Y-87178221D01*
X163613563Y-87155166D01*
X163619227Y-87132557D01*
X163627079Y-87110613D01*
X163637044Y-87089543D01*
X163649026Y-87069552D01*
X163662910Y-87050832D01*
X163678562Y-87033562D01*
X163695832Y-87017910D01*
X163714552Y-87004026D01*
X163734543Y-86992044D01*
X163755613Y-86982079D01*
X163777557Y-86974227D01*
X163800166Y-86968563D01*
X163823221Y-86965144D01*
X163846500Y-86964000D01*
X164321500Y-86964000D01*
X164344779Y-86965144D01*
X164344779Y-86965144D01*
G37*
D11*
X164084000Y-87489000D03*
G04 #@! TD*
D10*
G04 #@! TO.C,C8*
G36*
X164344779Y-79881144D02*
X164367834Y-79884563D01*
X164390443Y-79890227D01*
X164412387Y-79898079D01*
X164433457Y-79908044D01*
X164453448Y-79920026D01*
X164472168Y-79933910D01*
X164489438Y-79949562D01*
X164505090Y-79966832D01*
X164518974Y-79985552D01*
X164530956Y-80005543D01*
X164540921Y-80026613D01*
X164548773Y-80048557D01*
X164554437Y-80071166D01*
X164557856Y-80094221D01*
X164559000Y-80117500D01*
X164559000Y-80692500D01*
X164557856Y-80715779D01*
X164554437Y-80738834D01*
X164548773Y-80761443D01*
X164540921Y-80783387D01*
X164530956Y-80804457D01*
X164518974Y-80824448D01*
X164505090Y-80843168D01*
X164489438Y-80860438D01*
X164472168Y-80876090D01*
X164453448Y-80889974D01*
X164433457Y-80901956D01*
X164412387Y-80911921D01*
X164390443Y-80919773D01*
X164367834Y-80925437D01*
X164344779Y-80928856D01*
X164321500Y-80930000D01*
X163846500Y-80930000D01*
X163823221Y-80928856D01*
X163800166Y-80925437D01*
X163777557Y-80919773D01*
X163755613Y-80911921D01*
X163734543Y-80901956D01*
X163714552Y-80889974D01*
X163695832Y-80876090D01*
X163678562Y-80860438D01*
X163662910Y-80843168D01*
X163649026Y-80824448D01*
X163637044Y-80804457D01*
X163627079Y-80783387D01*
X163619227Y-80761443D01*
X163613563Y-80738834D01*
X163610144Y-80715779D01*
X163609000Y-80692500D01*
X163609000Y-80117500D01*
X163610144Y-80094221D01*
X163613563Y-80071166D01*
X163619227Y-80048557D01*
X163627079Y-80026613D01*
X163637044Y-80005543D01*
X163649026Y-79985552D01*
X163662910Y-79966832D01*
X163678562Y-79949562D01*
X163695832Y-79933910D01*
X163714552Y-79920026D01*
X163734543Y-79908044D01*
X163755613Y-79898079D01*
X163777557Y-79890227D01*
X163800166Y-79884563D01*
X163823221Y-79881144D01*
X163846500Y-79880000D01*
X164321500Y-79880000D01*
X164344779Y-79881144D01*
X164344779Y-79881144D01*
G37*
D11*
X164084000Y-80405000D03*
D10*
G36*
X164344779Y-81631144D02*
X164367834Y-81634563D01*
X164390443Y-81640227D01*
X164412387Y-81648079D01*
X164433457Y-81658044D01*
X164453448Y-81670026D01*
X164472168Y-81683910D01*
X164489438Y-81699562D01*
X164505090Y-81716832D01*
X164518974Y-81735552D01*
X164530956Y-81755543D01*
X164540921Y-81776613D01*
X164548773Y-81798557D01*
X164554437Y-81821166D01*
X164557856Y-81844221D01*
X164559000Y-81867500D01*
X164559000Y-82442500D01*
X164557856Y-82465779D01*
X164554437Y-82488834D01*
X164548773Y-82511443D01*
X164540921Y-82533387D01*
X164530956Y-82554457D01*
X164518974Y-82574448D01*
X164505090Y-82593168D01*
X164489438Y-82610438D01*
X164472168Y-82626090D01*
X164453448Y-82639974D01*
X164433457Y-82651956D01*
X164412387Y-82661921D01*
X164390443Y-82669773D01*
X164367834Y-82675437D01*
X164344779Y-82678856D01*
X164321500Y-82680000D01*
X163846500Y-82680000D01*
X163823221Y-82678856D01*
X163800166Y-82675437D01*
X163777557Y-82669773D01*
X163755613Y-82661921D01*
X163734543Y-82651956D01*
X163714552Y-82639974D01*
X163695832Y-82626090D01*
X163678562Y-82610438D01*
X163662910Y-82593168D01*
X163649026Y-82574448D01*
X163637044Y-82554457D01*
X163627079Y-82533387D01*
X163619227Y-82511443D01*
X163613563Y-82488834D01*
X163610144Y-82465779D01*
X163609000Y-82442500D01*
X163609000Y-81867500D01*
X163610144Y-81844221D01*
X163613563Y-81821166D01*
X163619227Y-81798557D01*
X163627079Y-81776613D01*
X163637044Y-81755543D01*
X163649026Y-81735552D01*
X163662910Y-81716832D01*
X163678562Y-81699562D01*
X163695832Y-81683910D01*
X163714552Y-81670026D01*
X163734543Y-81658044D01*
X163755613Y-81648079D01*
X163777557Y-81640227D01*
X163800166Y-81634563D01*
X163823221Y-81631144D01*
X163846500Y-81630000D01*
X164321500Y-81630000D01*
X164344779Y-81631144D01*
X164344779Y-81631144D01*
G37*
D11*
X164084000Y-82155000D03*
G04 #@! TD*
D10*
G04 #@! TO.C,C9*
G36*
X139693050Y-81996307D02*
X139716105Y-81999726D01*
X139738714Y-82005390D01*
X139760658Y-82013242D01*
X139781728Y-82023207D01*
X139801719Y-82035189D01*
X139820439Y-82049073D01*
X139837709Y-82064725D01*
X139853361Y-82081995D01*
X139867245Y-82100715D01*
X139879227Y-82120706D01*
X139889192Y-82141776D01*
X139897044Y-82163720D01*
X139902708Y-82186329D01*
X139906127Y-82209384D01*
X139907271Y-82232663D01*
X139907271Y-82807663D01*
X139906127Y-82830942D01*
X139902708Y-82853997D01*
X139897044Y-82876606D01*
X139889192Y-82898550D01*
X139879227Y-82919620D01*
X139867245Y-82939611D01*
X139853361Y-82958331D01*
X139837709Y-82975601D01*
X139820439Y-82991253D01*
X139801719Y-83005137D01*
X139781728Y-83017119D01*
X139760658Y-83027084D01*
X139738714Y-83034936D01*
X139716105Y-83040600D01*
X139693050Y-83044019D01*
X139669771Y-83045163D01*
X139194771Y-83045163D01*
X139171492Y-83044019D01*
X139148437Y-83040600D01*
X139125828Y-83034936D01*
X139103884Y-83027084D01*
X139082814Y-83017119D01*
X139062823Y-83005137D01*
X139044103Y-82991253D01*
X139026833Y-82975601D01*
X139011181Y-82958331D01*
X138997297Y-82939611D01*
X138985315Y-82919620D01*
X138975350Y-82898550D01*
X138967498Y-82876606D01*
X138961834Y-82853997D01*
X138958415Y-82830942D01*
X138957271Y-82807663D01*
X138957271Y-82232663D01*
X138958415Y-82209384D01*
X138961834Y-82186329D01*
X138967498Y-82163720D01*
X138975350Y-82141776D01*
X138985315Y-82120706D01*
X138997297Y-82100715D01*
X139011181Y-82081995D01*
X139026833Y-82064725D01*
X139044103Y-82049073D01*
X139062823Y-82035189D01*
X139082814Y-82023207D01*
X139103884Y-82013242D01*
X139125828Y-82005390D01*
X139148437Y-81999726D01*
X139171492Y-81996307D01*
X139194771Y-81995163D01*
X139669771Y-81995163D01*
X139693050Y-81996307D01*
X139693050Y-81996307D01*
G37*
D11*
X139432271Y-82520163D03*
D10*
G36*
X139693050Y-83746307D02*
X139716105Y-83749726D01*
X139738714Y-83755390D01*
X139760658Y-83763242D01*
X139781728Y-83773207D01*
X139801719Y-83785189D01*
X139820439Y-83799073D01*
X139837709Y-83814725D01*
X139853361Y-83831995D01*
X139867245Y-83850715D01*
X139879227Y-83870706D01*
X139889192Y-83891776D01*
X139897044Y-83913720D01*
X139902708Y-83936329D01*
X139906127Y-83959384D01*
X139907271Y-83982663D01*
X139907271Y-84557663D01*
X139906127Y-84580942D01*
X139902708Y-84603997D01*
X139897044Y-84626606D01*
X139889192Y-84648550D01*
X139879227Y-84669620D01*
X139867245Y-84689611D01*
X139853361Y-84708331D01*
X139837709Y-84725601D01*
X139820439Y-84741253D01*
X139801719Y-84755137D01*
X139781728Y-84767119D01*
X139760658Y-84777084D01*
X139738714Y-84784936D01*
X139716105Y-84790600D01*
X139693050Y-84794019D01*
X139669771Y-84795163D01*
X139194771Y-84795163D01*
X139171492Y-84794019D01*
X139148437Y-84790600D01*
X139125828Y-84784936D01*
X139103884Y-84777084D01*
X139082814Y-84767119D01*
X139062823Y-84755137D01*
X139044103Y-84741253D01*
X139026833Y-84725601D01*
X139011181Y-84708331D01*
X138997297Y-84689611D01*
X138985315Y-84669620D01*
X138975350Y-84648550D01*
X138967498Y-84626606D01*
X138961834Y-84603997D01*
X138958415Y-84580942D01*
X138957271Y-84557663D01*
X138957271Y-83982663D01*
X138958415Y-83959384D01*
X138961834Y-83936329D01*
X138967498Y-83913720D01*
X138975350Y-83891776D01*
X138985315Y-83870706D01*
X138997297Y-83850715D01*
X139011181Y-83831995D01*
X139026833Y-83814725D01*
X139044103Y-83799073D01*
X139062823Y-83785189D01*
X139082814Y-83773207D01*
X139103884Y-83763242D01*
X139125828Y-83755390D01*
X139148437Y-83749726D01*
X139171492Y-83746307D01*
X139194771Y-83745163D01*
X139669771Y-83745163D01*
X139693050Y-83746307D01*
X139693050Y-83746307D01*
G37*
D11*
X139432271Y-84270163D03*
G04 #@! TD*
D10*
G04 #@! TO.C,C10*
G36*
X139693050Y-79936307D02*
X139716105Y-79939726D01*
X139738714Y-79945390D01*
X139760658Y-79953242D01*
X139781728Y-79963207D01*
X139801719Y-79975189D01*
X139820439Y-79989073D01*
X139837709Y-80004725D01*
X139853361Y-80021995D01*
X139867245Y-80040715D01*
X139879227Y-80060706D01*
X139889192Y-80081776D01*
X139897044Y-80103720D01*
X139902708Y-80126329D01*
X139906127Y-80149384D01*
X139907271Y-80172663D01*
X139907271Y-80747663D01*
X139906127Y-80770942D01*
X139902708Y-80793997D01*
X139897044Y-80816606D01*
X139889192Y-80838550D01*
X139879227Y-80859620D01*
X139867245Y-80879611D01*
X139853361Y-80898331D01*
X139837709Y-80915601D01*
X139820439Y-80931253D01*
X139801719Y-80945137D01*
X139781728Y-80957119D01*
X139760658Y-80967084D01*
X139738714Y-80974936D01*
X139716105Y-80980600D01*
X139693050Y-80984019D01*
X139669771Y-80985163D01*
X139194771Y-80985163D01*
X139171492Y-80984019D01*
X139148437Y-80980600D01*
X139125828Y-80974936D01*
X139103884Y-80967084D01*
X139082814Y-80957119D01*
X139062823Y-80945137D01*
X139044103Y-80931253D01*
X139026833Y-80915601D01*
X139011181Y-80898331D01*
X138997297Y-80879611D01*
X138985315Y-80859620D01*
X138975350Y-80838550D01*
X138967498Y-80816606D01*
X138961834Y-80793997D01*
X138958415Y-80770942D01*
X138957271Y-80747663D01*
X138957271Y-80172663D01*
X138958415Y-80149384D01*
X138961834Y-80126329D01*
X138967498Y-80103720D01*
X138975350Y-80081776D01*
X138985315Y-80060706D01*
X138997297Y-80040715D01*
X139011181Y-80021995D01*
X139026833Y-80004725D01*
X139044103Y-79989073D01*
X139062823Y-79975189D01*
X139082814Y-79963207D01*
X139103884Y-79953242D01*
X139125828Y-79945390D01*
X139148437Y-79939726D01*
X139171492Y-79936307D01*
X139194771Y-79935163D01*
X139669771Y-79935163D01*
X139693050Y-79936307D01*
X139693050Y-79936307D01*
G37*
D11*
X139432271Y-80460163D03*
D10*
G36*
X139693050Y-78186307D02*
X139716105Y-78189726D01*
X139738714Y-78195390D01*
X139760658Y-78203242D01*
X139781728Y-78213207D01*
X139801719Y-78225189D01*
X139820439Y-78239073D01*
X139837709Y-78254725D01*
X139853361Y-78271995D01*
X139867245Y-78290715D01*
X139879227Y-78310706D01*
X139889192Y-78331776D01*
X139897044Y-78353720D01*
X139902708Y-78376329D01*
X139906127Y-78399384D01*
X139907271Y-78422663D01*
X139907271Y-78997663D01*
X139906127Y-79020942D01*
X139902708Y-79043997D01*
X139897044Y-79066606D01*
X139889192Y-79088550D01*
X139879227Y-79109620D01*
X139867245Y-79129611D01*
X139853361Y-79148331D01*
X139837709Y-79165601D01*
X139820439Y-79181253D01*
X139801719Y-79195137D01*
X139781728Y-79207119D01*
X139760658Y-79217084D01*
X139738714Y-79224936D01*
X139716105Y-79230600D01*
X139693050Y-79234019D01*
X139669771Y-79235163D01*
X139194771Y-79235163D01*
X139171492Y-79234019D01*
X139148437Y-79230600D01*
X139125828Y-79224936D01*
X139103884Y-79217084D01*
X139082814Y-79207119D01*
X139062823Y-79195137D01*
X139044103Y-79181253D01*
X139026833Y-79165601D01*
X139011181Y-79148331D01*
X138997297Y-79129611D01*
X138985315Y-79109620D01*
X138975350Y-79088550D01*
X138967498Y-79066606D01*
X138961834Y-79043997D01*
X138958415Y-79020942D01*
X138957271Y-78997663D01*
X138957271Y-78422663D01*
X138958415Y-78399384D01*
X138961834Y-78376329D01*
X138967498Y-78353720D01*
X138975350Y-78331776D01*
X138985315Y-78310706D01*
X138997297Y-78290715D01*
X139011181Y-78271995D01*
X139026833Y-78254725D01*
X139044103Y-78239073D01*
X139062823Y-78225189D01*
X139082814Y-78213207D01*
X139103884Y-78203242D01*
X139125828Y-78195390D01*
X139148437Y-78189726D01*
X139171492Y-78186307D01*
X139194771Y-78185163D01*
X139669771Y-78185163D01*
X139693050Y-78186307D01*
X139693050Y-78186307D01*
G37*
D11*
X139432271Y-78710163D03*
G04 #@! TD*
D10*
G04 #@! TO.C,C11*
G36*
X164598779Y-62327144D02*
X164621834Y-62330563D01*
X164644443Y-62336227D01*
X164666387Y-62344079D01*
X164687457Y-62354044D01*
X164707448Y-62366026D01*
X164726168Y-62379910D01*
X164743438Y-62395562D01*
X164759090Y-62412832D01*
X164772974Y-62431552D01*
X164784956Y-62451543D01*
X164794921Y-62472613D01*
X164802773Y-62494557D01*
X164808437Y-62517166D01*
X164811856Y-62540221D01*
X164813000Y-62563500D01*
X164813000Y-63138500D01*
X164811856Y-63161779D01*
X164808437Y-63184834D01*
X164802773Y-63207443D01*
X164794921Y-63229387D01*
X164784956Y-63250457D01*
X164772974Y-63270448D01*
X164759090Y-63289168D01*
X164743438Y-63306438D01*
X164726168Y-63322090D01*
X164707448Y-63335974D01*
X164687457Y-63347956D01*
X164666387Y-63357921D01*
X164644443Y-63365773D01*
X164621834Y-63371437D01*
X164598779Y-63374856D01*
X164575500Y-63376000D01*
X164100500Y-63376000D01*
X164077221Y-63374856D01*
X164054166Y-63371437D01*
X164031557Y-63365773D01*
X164009613Y-63357921D01*
X163988543Y-63347956D01*
X163968552Y-63335974D01*
X163949832Y-63322090D01*
X163932562Y-63306438D01*
X163916910Y-63289168D01*
X163903026Y-63270448D01*
X163891044Y-63250457D01*
X163881079Y-63229387D01*
X163873227Y-63207443D01*
X163867563Y-63184834D01*
X163864144Y-63161779D01*
X163863000Y-63138500D01*
X163863000Y-62563500D01*
X163864144Y-62540221D01*
X163867563Y-62517166D01*
X163873227Y-62494557D01*
X163881079Y-62472613D01*
X163891044Y-62451543D01*
X163903026Y-62431552D01*
X163916910Y-62412832D01*
X163932562Y-62395562D01*
X163949832Y-62379910D01*
X163968552Y-62366026D01*
X163988543Y-62354044D01*
X164009613Y-62344079D01*
X164031557Y-62336227D01*
X164054166Y-62330563D01*
X164077221Y-62327144D01*
X164100500Y-62326000D01*
X164575500Y-62326000D01*
X164598779Y-62327144D01*
X164598779Y-62327144D01*
G37*
D11*
X164338000Y-62851000D03*
D10*
G36*
X164598779Y-60577144D02*
X164621834Y-60580563D01*
X164644443Y-60586227D01*
X164666387Y-60594079D01*
X164687457Y-60604044D01*
X164707448Y-60616026D01*
X164726168Y-60629910D01*
X164743438Y-60645562D01*
X164759090Y-60662832D01*
X164772974Y-60681552D01*
X164784956Y-60701543D01*
X164794921Y-60722613D01*
X164802773Y-60744557D01*
X164808437Y-60767166D01*
X164811856Y-60790221D01*
X164813000Y-60813500D01*
X164813000Y-61388500D01*
X164811856Y-61411779D01*
X164808437Y-61434834D01*
X164802773Y-61457443D01*
X164794921Y-61479387D01*
X164784956Y-61500457D01*
X164772974Y-61520448D01*
X164759090Y-61539168D01*
X164743438Y-61556438D01*
X164726168Y-61572090D01*
X164707448Y-61585974D01*
X164687457Y-61597956D01*
X164666387Y-61607921D01*
X164644443Y-61615773D01*
X164621834Y-61621437D01*
X164598779Y-61624856D01*
X164575500Y-61626000D01*
X164100500Y-61626000D01*
X164077221Y-61624856D01*
X164054166Y-61621437D01*
X164031557Y-61615773D01*
X164009613Y-61607921D01*
X163988543Y-61597956D01*
X163968552Y-61585974D01*
X163949832Y-61572090D01*
X163932562Y-61556438D01*
X163916910Y-61539168D01*
X163903026Y-61520448D01*
X163891044Y-61500457D01*
X163881079Y-61479387D01*
X163873227Y-61457443D01*
X163867563Y-61434834D01*
X163864144Y-61411779D01*
X163863000Y-61388500D01*
X163863000Y-60813500D01*
X163864144Y-60790221D01*
X163867563Y-60767166D01*
X163873227Y-60744557D01*
X163881079Y-60722613D01*
X163891044Y-60701543D01*
X163903026Y-60681552D01*
X163916910Y-60662832D01*
X163932562Y-60645562D01*
X163949832Y-60629910D01*
X163968552Y-60616026D01*
X163988543Y-60604044D01*
X164009613Y-60594079D01*
X164031557Y-60586227D01*
X164054166Y-60580563D01*
X164077221Y-60577144D01*
X164100500Y-60576000D01*
X164575500Y-60576000D01*
X164598779Y-60577144D01*
X164598779Y-60577144D01*
G37*
D11*
X164338000Y-61101000D03*
G04 #@! TD*
D10*
G04 #@! TO.C,C12*
G36*
X164598779Y-65883144D02*
X164621834Y-65886563D01*
X164644443Y-65892227D01*
X164666387Y-65900079D01*
X164687457Y-65910044D01*
X164707448Y-65922026D01*
X164726168Y-65935910D01*
X164743438Y-65951562D01*
X164759090Y-65968832D01*
X164772974Y-65987552D01*
X164784956Y-66007543D01*
X164794921Y-66028613D01*
X164802773Y-66050557D01*
X164808437Y-66073166D01*
X164811856Y-66096221D01*
X164813000Y-66119500D01*
X164813000Y-66694500D01*
X164811856Y-66717779D01*
X164808437Y-66740834D01*
X164802773Y-66763443D01*
X164794921Y-66785387D01*
X164784956Y-66806457D01*
X164772974Y-66826448D01*
X164759090Y-66845168D01*
X164743438Y-66862438D01*
X164726168Y-66878090D01*
X164707448Y-66891974D01*
X164687457Y-66903956D01*
X164666387Y-66913921D01*
X164644443Y-66921773D01*
X164621834Y-66927437D01*
X164598779Y-66930856D01*
X164575500Y-66932000D01*
X164100500Y-66932000D01*
X164077221Y-66930856D01*
X164054166Y-66927437D01*
X164031557Y-66921773D01*
X164009613Y-66913921D01*
X163988543Y-66903956D01*
X163968552Y-66891974D01*
X163949832Y-66878090D01*
X163932562Y-66862438D01*
X163916910Y-66845168D01*
X163903026Y-66826448D01*
X163891044Y-66806457D01*
X163881079Y-66785387D01*
X163873227Y-66763443D01*
X163867563Y-66740834D01*
X163864144Y-66717779D01*
X163863000Y-66694500D01*
X163863000Y-66119500D01*
X163864144Y-66096221D01*
X163867563Y-66073166D01*
X163873227Y-66050557D01*
X163881079Y-66028613D01*
X163891044Y-66007543D01*
X163903026Y-65987552D01*
X163916910Y-65968832D01*
X163932562Y-65951562D01*
X163949832Y-65935910D01*
X163968552Y-65922026D01*
X163988543Y-65910044D01*
X164009613Y-65900079D01*
X164031557Y-65892227D01*
X164054166Y-65886563D01*
X164077221Y-65883144D01*
X164100500Y-65882000D01*
X164575500Y-65882000D01*
X164598779Y-65883144D01*
X164598779Y-65883144D01*
G37*
D11*
X164338000Y-66407000D03*
D10*
G36*
X164598779Y-64133144D02*
X164621834Y-64136563D01*
X164644443Y-64142227D01*
X164666387Y-64150079D01*
X164687457Y-64160044D01*
X164707448Y-64172026D01*
X164726168Y-64185910D01*
X164743438Y-64201562D01*
X164759090Y-64218832D01*
X164772974Y-64237552D01*
X164784956Y-64257543D01*
X164794921Y-64278613D01*
X164802773Y-64300557D01*
X164808437Y-64323166D01*
X164811856Y-64346221D01*
X164813000Y-64369500D01*
X164813000Y-64944500D01*
X164811856Y-64967779D01*
X164808437Y-64990834D01*
X164802773Y-65013443D01*
X164794921Y-65035387D01*
X164784956Y-65056457D01*
X164772974Y-65076448D01*
X164759090Y-65095168D01*
X164743438Y-65112438D01*
X164726168Y-65128090D01*
X164707448Y-65141974D01*
X164687457Y-65153956D01*
X164666387Y-65163921D01*
X164644443Y-65171773D01*
X164621834Y-65177437D01*
X164598779Y-65180856D01*
X164575500Y-65182000D01*
X164100500Y-65182000D01*
X164077221Y-65180856D01*
X164054166Y-65177437D01*
X164031557Y-65171773D01*
X164009613Y-65163921D01*
X163988543Y-65153956D01*
X163968552Y-65141974D01*
X163949832Y-65128090D01*
X163932562Y-65112438D01*
X163916910Y-65095168D01*
X163903026Y-65076448D01*
X163891044Y-65056457D01*
X163881079Y-65035387D01*
X163873227Y-65013443D01*
X163867563Y-64990834D01*
X163864144Y-64967779D01*
X163863000Y-64944500D01*
X163863000Y-64369500D01*
X163864144Y-64346221D01*
X163867563Y-64323166D01*
X163873227Y-64300557D01*
X163881079Y-64278613D01*
X163891044Y-64257543D01*
X163903026Y-64237552D01*
X163916910Y-64218832D01*
X163932562Y-64201562D01*
X163949832Y-64185910D01*
X163968552Y-64172026D01*
X163988543Y-64160044D01*
X164009613Y-64150079D01*
X164031557Y-64142227D01*
X164054166Y-64136563D01*
X164077221Y-64133144D01*
X164100500Y-64132000D01*
X164575500Y-64132000D01*
X164598779Y-64133144D01*
X164598779Y-64133144D01*
G37*
D11*
X164338000Y-64657000D03*
G04 #@! TD*
D12*
G04 #@! TO.C,Conn1*
X155168600Y-95757000D03*
X155168600Y-103758000D03*
G04 #@! TD*
D13*
G04 #@! TO.C,U1*
X130382271Y-84284163D03*
X130382271Y-83014163D03*
X130382271Y-81744163D03*
X130382271Y-80474163D03*
X130382271Y-79204163D03*
X130382271Y-77934163D03*
X130382271Y-76664163D03*
X130382271Y-75394163D03*
X135782271Y-75394163D03*
X135782271Y-76664163D03*
X135782271Y-77934163D03*
X135782271Y-79204163D03*
X135782271Y-80474163D03*
X135782271Y-81744163D03*
X135782271Y-83014163D03*
X135782271Y-84284163D03*
G04 #@! TD*
G04 #@! TO.C,U2*
X168496000Y-60579000D03*
X168496000Y-61849000D03*
X168496000Y-63119000D03*
X168496000Y-64389000D03*
X168496000Y-65659000D03*
X168496000Y-66929000D03*
X168496000Y-68199000D03*
X168496000Y-69469000D03*
X173896000Y-69469000D03*
X173896000Y-68199000D03*
X173896000Y-66929000D03*
X173896000Y-65659000D03*
X173896000Y-64389000D03*
X173896000Y-63119000D03*
X173896000Y-61849000D03*
X173896000Y-60579000D03*
G04 #@! TD*
D10*
G04 #@! TO.C,D3*
G36*
X135438779Y-54390144D02*
X135461834Y-54393563D01*
X135484443Y-54399227D01*
X135506387Y-54407079D01*
X135527457Y-54417044D01*
X135547448Y-54429026D01*
X135566168Y-54442910D01*
X135583438Y-54458562D01*
X135599090Y-54475832D01*
X135612974Y-54494552D01*
X135624956Y-54514543D01*
X135634921Y-54535613D01*
X135642773Y-54557557D01*
X135648437Y-54580166D01*
X135651856Y-54603221D01*
X135653000Y-54626500D01*
X135653000Y-55101500D01*
X135651856Y-55124779D01*
X135648437Y-55147834D01*
X135642773Y-55170443D01*
X135634921Y-55192387D01*
X135624956Y-55213457D01*
X135612974Y-55233448D01*
X135599090Y-55252168D01*
X135583438Y-55269438D01*
X135566168Y-55285090D01*
X135547448Y-55298974D01*
X135527457Y-55310956D01*
X135506387Y-55320921D01*
X135484443Y-55328773D01*
X135461834Y-55334437D01*
X135438779Y-55337856D01*
X135415500Y-55339000D01*
X134840500Y-55339000D01*
X134817221Y-55337856D01*
X134794166Y-55334437D01*
X134771557Y-55328773D01*
X134749613Y-55320921D01*
X134728543Y-55310956D01*
X134708552Y-55298974D01*
X134689832Y-55285090D01*
X134672562Y-55269438D01*
X134656910Y-55252168D01*
X134643026Y-55233448D01*
X134631044Y-55213457D01*
X134621079Y-55192387D01*
X134613227Y-55170443D01*
X134607563Y-55147834D01*
X134604144Y-55124779D01*
X134603000Y-55101500D01*
X134603000Y-54626500D01*
X134604144Y-54603221D01*
X134607563Y-54580166D01*
X134613227Y-54557557D01*
X134621079Y-54535613D01*
X134631044Y-54514543D01*
X134643026Y-54494552D01*
X134656910Y-54475832D01*
X134672562Y-54458562D01*
X134689832Y-54442910D01*
X134708552Y-54429026D01*
X134728543Y-54417044D01*
X134749613Y-54407079D01*
X134771557Y-54399227D01*
X134794166Y-54393563D01*
X134817221Y-54390144D01*
X134840500Y-54389000D01*
X135415500Y-54389000D01*
X135438779Y-54390144D01*
X135438779Y-54390144D01*
G37*
D11*
X135128000Y-54864000D03*
D10*
G36*
X137188779Y-54390144D02*
X137211834Y-54393563D01*
X137234443Y-54399227D01*
X137256387Y-54407079D01*
X137277457Y-54417044D01*
X137297448Y-54429026D01*
X137316168Y-54442910D01*
X137333438Y-54458562D01*
X137349090Y-54475832D01*
X137362974Y-54494552D01*
X137374956Y-54514543D01*
X137384921Y-54535613D01*
X137392773Y-54557557D01*
X137398437Y-54580166D01*
X137401856Y-54603221D01*
X137403000Y-54626500D01*
X137403000Y-55101500D01*
X137401856Y-55124779D01*
X137398437Y-55147834D01*
X137392773Y-55170443D01*
X137384921Y-55192387D01*
X137374956Y-55213457D01*
X137362974Y-55233448D01*
X137349090Y-55252168D01*
X137333438Y-55269438D01*
X137316168Y-55285090D01*
X137297448Y-55298974D01*
X137277457Y-55310956D01*
X137256387Y-55320921D01*
X137234443Y-55328773D01*
X137211834Y-55334437D01*
X137188779Y-55337856D01*
X137165500Y-55339000D01*
X136590500Y-55339000D01*
X136567221Y-55337856D01*
X136544166Y-55334437D01*
X136521557Y-55328773D01*
X136499613Y-55320921D01*
X136478543Y-55310956D01*
X136458552Y-55298974D01*
X136439832Y-55285090D01*
X136422562Y-55269438D01*
X136406910Y-55252168D01*
X136393026Y-55233448D01*
X136381044Y-55213457D01*
X136371079Y-55192387D01*
X136363227Y-55170443D01*
X136357563Y-55147834D01*
X136354144Y-55124779D01*
X136353000Y-55101500D01*
X136353000Y-54626500D01*
X136354144Y-54603221D01*
X136357563Y-54580166D01*
X136363227Y-54557557D01*
X136371079Y-54535613D01*
X136381044Y-54514543D01*
X136393026Y-54494552D01*
X136406910Y-54475832D01*
X136422562Y-54458562D01*
X136439832Y-54442910D01*
X136458552Y-54429026D01*
X136478543Y-54417044D01*
X136499613Y-54407079D01*
X136521557Y-54399227D01*
X136544166Y-54393563D01*
X136567221Y-54390144D01*
X136590500Y-54389000D01*
X137165500Y-54389000D01*
X137188779Y-54390144D01*
X137188779Y-54390144D01*
G37*
D11*
X136878000Y-54864000D03*
G04 #@! TD*
D10*
G04 #@! TO.C,D4*
G36*
X154460779Y-54390144D02*
X154483834Y-54393563D01*
X154506443Y-54399227D01*
X154528387Y-54407079D01*
X154549457Y-54417044D01*
X154569448Y-54429026D01*
X154588168Y-54442910D01*
X154605438Y-54458562D01*
X154621090Y-54475832D01*
X154634974Y-54494552D01*
X154646956Y-54514543D01*
X154656921Y-54535613D01*
X154664773Y-54557557D01*
X154670437Y-54580166D01*
X154673856Y-54603221D01*
X154675000Y-54626500D01*
X154675000Y-55101500D01*
X154673856Y-55124779D01*
X154670437Y-55147834D01*
X154664773Y-55170443D01*
X154656921Y-55192387D01*
X154646956Y-55213457D01*
X154634974Y-55233448D01*
X154621090Y-55252168D01*
X154605438Y-55269438D01*
X154588168Y-55285090D01*
X154569448Y-55298974D01*
X154549457Y-55310956D01*
X154528387Y-55320921D01*
X154506443Y-55328773D01*
X154483834Y-55334437D01*
X154460779Y-55337856D01*
X154437500Y-55339000D01*
X153862500Y-55339000D01*
X153839221Y-55337856D01*
X153816166Y-55334437D01*
X153793557Y-55328773D01*
X153771613Y-55320921D01*
X153750543Y-55310956D01*
X153730552Y-55298974D01*
X153711832Y-55285090D01*
X153694562Y-55269438D01*
X153678910Y-55252168D01*
X153665026Y-55233448D01*
X153653044Y-55213457D01*
X153643079Y-55192387D01*
X153635227Y-55170443D01*
X153629563Y-55147834D01*
X153626144Y-55124779D01*
X153625000Y-55101500D01*
X153625000Y-54626500D01*
X153626144Y-54603221D01*
X153629563Y-54580166D01*
X153635227Y-54557557D01*
X153643079Y-54535613D01*
X153653044Y-54514543D01*
X153665026Y-54494552D01*
X153678910Y-54475832D01*
X153694562Y-54458562D01*
X153711832Y-54442910D01*
X153730552Y-54429026D01*
X153750543Y-54417044D01*
X153771613Y-54407079D01*
X153793557Y-54399227D01*
X153816166Y-54393563D01*
X153839221Y-54390144D01*
X153862500Y-54389000D01*
X154437500Y-54389000D01*
X154460779Y-54390144D01*
X154460779Y-54390144D01*
G37*
D11*
X154150000Y-54864000D03*
D10*
G36*
X152710779Y-54390144D02*
X152733834Y-54393563D01*
X152756443Y-54399227D01*
X152778387Y-54407079D01*
X152799457Y-54417044D01*
X152819448Y-54429026D01*
X152838168Y-54442910D01*
X152855438Y-54458562D01*
X152871090Y-54475832D01*
X152884974Y-54494552D01*
X152896956Y-54514543D01*
X152906921Y-54535613D01*
X152914773Y-54557557D01*
X152920437Y-54580166D01*
X152923856Y-54603221D01*
X152925000Y-54626500D01*
X152925000Y-55101500D01*
X152923856Y-55124779D01*
X152920437Y-55147834D01*
X152914773Y-55170443D01*
X152906921Y-55192387D01*
X152896956Y-55213457D01*
X152884974Y-55233448D01*
X152871090Y-55252168D01*
X152855438Y-55269438D01*
X152838168Y-55285090D01*
X152819448Y-55298974D01*
X152799457Y-55310956D01*
X152778387Y-55320921D01*
X152756443Y-55328773D01*
X152733834Y-55334437D01*
X152710779Y-55337856D01*
X152687500Y-55339000D01*
X152112500Y-55339000D01*
X152089221Y-55337856D01*
X152066166Y-55334437D01*
X152043557Y-55328773D01*
X152021613Y-55320921D01*
X152000543Y-55310956D01*
X151980552Y-55298974D01*
X151961832Y-55285090D01*
X151944562Y-55269438D01*
X151928910Y-55252168D01*
X151915026Y-55233448D01*
X151903044Y-55213457D01*
X151893079Y-55192387D01*
X151885227Y-55170443D01*
X151879563Y-55147834D01*
X151876144Y-55124779D01*
X151875000Y-55101500D01*
X151875000Y-54626500D01*
X151876144Y-54603221D01*
X151879563Y-54580166D01*
X151885227Y-54557557D01*
X151893079Y-54535613D01*
X151903044Y-54514543D01*
X151915026Y-54494552D01*
X151928910Y-54475832D01*
X151944562Y-54458562D01*
X151961832Y-54442910D01*
X151980552Y-54429026D01*
X152000543Y-54417044D01*
X152021613Y-54407079D01*
X152043557Y-54399227D01*
X152066166Y-54393563D01*
X152089221Y-54390144D01*
X152112500Y-54389000D01*
X152687500Y-54389000D01*
X152710779Y-54390144D01*
X152710779Y-54390144D01*
G37*
D11*
X152400000Y-54864000D03*
G04 #@! TD*
D10*
G04 #@! TO.C,D5*
G36*
X170010779Y-54390144D02*
X170033834Y-54393563D01*
X170056443Y-54399227D01*
X170078387Y-54407079D01*
X170099457Y-54417044D01*
X170119448Y-54429026D01*
X170138168Y-54442910D01*
X170155438Y-54458562D01*
X170171090Y-54475832D01*
X170184974Y-54494552D01*
X170196956Y-54514543D01*
X170206921Y-54535613D01*
X170214773Y-54557557D01*
X170220437Y-54580166D01*
X170223856Y-54603221D01*
X170225000Y-54626500D01*
X170225000Y-55101500D01*
X170223856Y-55124779D01*
X170220437Y-55147834D01*
X170214773Y-55170443D01*
X170206921Y-55192387D01*
X170196956Y-55213457D01*
X170184974Y-55233448D01*
X170171090Y-55252168D01*
X170155438Y-55269438D01*
X170138168Y-55285090D01*
X170119448Y-55298974D01*
X170099457Y-55310956D01*
X170078387Y-55320921D01*
X170056443Y-55328773D01*
X170033834Y-55334437D01*
X170010779Y-55337856D01*
X169987500Y-55339000D01*
X169412500Y-55339000D01*
X169389221Y-55337856D01*
X169366166Y-55334437D01*
X169343557Y-55328773D01*
X169321613Y-55320921D01*
X169300543Y-55310956D01*
X169280552Y-55298974D01*
X169261832Y-55285090D01*
X169244562Y-55269438D01*
X169228910Y-55252168D01*
X169215026Y-55233448D01*
X169203044Y-55213457D01*
X169193079Y-55192387D01*
X169185227Y-55170443D01*
X169179563Y-55147834D01*
X169176144Y-55124779D01*
X169175000Y-55101500D01*
X169175000Y-54626500D01*
X169176144Y-54603221D01*
X169179563Y-54580166D01*
X169185227Y-54557557D01*
X169193079Y-54535613D01*
X169203044Y-54514543D01*
X169215026Y-54494552D01*
X169228910Y-54475832D01*
X169244562Y-54458562D01*
X169261832Y-54442910D01*
X169280552Y-54429026D01*
X169300543Y-54417044D01*
X169321613Y-54407079D01*
X169343557Y-54399227D01*
X169366166Y-54393563D01*
X169389221Y-54390144D01*
X169412500Y-54389000D01*
X169987500Y-54389000D01*
X170010779Y-54390144D01*
X170010779Y-54390144D01*
G37*
D11*
X169700000Y-54864000D03*
D10*
G36*
X171760779Y-54390144D02*
X171783834Y-54393563D01*
X171806443Y-54399227D01*
X171828387Y-54407079D01*
X171849457Y-54417044D01*
X171869448Y-54429026D01*
X171888168Y-54442910D01*
X171905438Y-54458562D01*
X171921090Y-54475832D01*
X171934974Y-54494552D01*
X171946956Y-54514543D01*
X171956921Y-54535613D01*
X171964773Y-54557557D01*
X171970437Y-54580166D01*
X171973856Y-54603221D01*
X171975000Y-54626500D01*
X171975000Y-55101500D01*
X171973856Y-55124779D01*
X171970437Y-55147834D01*
X171964773Y-55170443D01*
X171956921Y-55192387D01*
X171946956Y-55213457D01*
X171934974Y-55233448D01*
X171921090Y-55252168D01*
X171905438Y-55269438D01*
X171888168Y-55285090D01*
X171869448Y-55298974D01*
X171849457Y-55310956D01*
X171828387Y-55320921D01*
X171806443Y-55328773D01*
X171783834Y-55334437D01*
X171760779Y-55337856D01*
X171737500Y-55339000D01*
X171162500Y-55339000D01*
X171139221Y-55337856D01*
X171116166Y-55334437D01*
X171093557Y-55328773D01*
X171071613Y-55320921D01*
X171050543Y-55310956D01*
X171030552Y-55298974D01*
X171011832Y-55285090D01*
X170994562Y-55269438D01*
X170978910Y-55252168D01*
X170965026Y-55233448D01*
X170953044Y-55213457D01*
X170943079Y-55192387D01*
X170935227Y-55170443D01*
X170929563Y-55147834D01*
X170926144Y-55124779D01*
X170925000Y-55101500D01*
X170925000Y-54626500D01*
X170926144Y-54603221D01*
X170929563Y-54580166D01*
X170935227Y-54557557D01*
X170943079Y-54535613D01*
X170953044Y-54514543D01*
X170965026Y-54494552D01*
X170978910Y-54475832D01*
X170994562Y-54458562D01*
X171011832Y-54442910D01*
X171030552Y-54429026D01*
X171050543Y-54417044D01*
X171071613Y-54407079D01*
X171093557Y-54399227D01*
X171116166Y-54393563D01*
X171139221Y-54390144D01*
X171162500Y-54389000D01*
X171737500Y-54389000D01*
X171760779Y-54390144D01*
X171760779Y-54390144D01*
G37*
D11*
X171450000Y-54864000D03*
G04 #@! TD*
D10*
G04 #@! TO.C,D6*
G36*
X149612779Y-95234144D02*
X149635834Y-95237563D01*
X149658443Y-95243227D01*
X149680387Y-95251079D01*
X149701457Y-95261044D01*
X149721448Y-95273026D01*
X149740168Y-95286910D01*
X149757438Y-95302562D01*
X149773090Y-95319832D01*
X149786974Y-95338552D01*
X149798956Y-95358543D01*
X149808921Y-95379613D01*
X149816773Y-95401557D01*
X149822437Y-95424166D01*
X149825856Y-95447221D01*
X149827000Y-95470500D01*
X149827000Y-96045500D01*
X149825856Y-96068779D01*
X149822437Y-96091834D01*
X149816773Y-96114443D01*
X149808921Y-96136387D01*
X149798956Y-96157457D01*
X149786974Y-96177448D01*
X149773090Y-96196168D01*
X149757438Y-96213438D01*
X149740168Y-96229090D01*
X149721448Y-96242974D01*
X149701457Y-96254956D01*
X149680387Y-96264921D01*
X149658443Y-96272773D01*
X149635834Y-96278437D01*
X149612779Y-96281856D01*
X149589500Y-96283000D01*
X149114500Y-96283000D01*
X149091221Y-96281856D01*
X149068166Y-96278437D01*
X149045557Y-96272773D01*
X149023613Y-96264921D01*
X149002543Y-96254956D01*
X148982552Y-96242974D01*
X148963832Y-96229090D01*
X148946562Y-96213438D01*
X148930910Y-96196168D01*
X148917026Y-96177448D01*
X148905044Y-96157457D01*
X148895079Y-96136387D01*
X148887227Y-96114443D01*
X148881563Y-96091834D01*
X148878144Y-96068779D01*
X148877000Y-96045500D01*
X148877000Y-95470500D01*
X148878144Y-95447221D01*
X148881563Y-95424166D01*
X148887227Y-95401557D01*
X148895079Y-95379613D01*
X148905044Y-95358543D01*
X148917026Y-95338552D01*
X148930910Y-95319832D01*
X148946562Y-95302562D01*
X148963832Y-95286910D01*
X148982552Y-95273026D01*
X149002543Y-95261044D01*
X149023613Y-95251079D01*
X149045557Y-95243227D01*
X149068166Y-95237563D01*
X149091221Y-95234144D01*
X149114500Y-95233000D01*
X149589500Y-95233000D01*
X149612779Y-95234144D01*
X149612779Y-95234144D01*
G37*
D11*
X149352000Y-95758000D03*
D10*
G36*
X149612779Y-93484144D02*
X149635834Y-93487563D01*
X149658443Y-93493227D01*
X149680387Y-93501079D01*
X149701457Y-93511044D01*
X149721448Y-93523026D01*
X149740168Y-93536910D01*
X149757438Y-93552562D01*
X149773090Y-93569832D01*
X149786974Y-93588552D01*
X149798956Y-93608543D01*
X149808921Y-93629613D01*
X149816773Y-93651557D01*
X149822437Y-93674166D01*
X149825856Y-93697221D01*
X149827000Y-93720500D01*
X149827000Y-94295500D01*
X149825856Y-94318779D01*
X149822437Y-94341834D01*
X149816773Y-94364443D01*
X149808921Y-94386387D01*
X149798956Y-94407457D01*
X149786974Y-94427448D01*
X149773090Y-94446168D01*
X149757438Y-94463438D01*
X149740168Y-94479090D01*
X149721448Y-94492974D01*
X149701457Y-94504956D01*
X149680387Y-94514921D01*
X149658443Y-94522773D01*
X149635834Y-94528437D01*
X149612779Y-94531856D01*
X149589500Y-94533000D01*
X149114500Y-94533000D01*
X149091221Y-94531856D01*
X149068166Y-94528437D01*
X149045557Y-94522773D01*
X149023613Y-94514921D01*
X149002543Y-94504956D01*
X148982552Y-94492974D01*
X148963832Y-94479090D01*
X148946562Y-94463438D01*
X148930910Y-94446168D01*
X148917026Y-94427448D01*
X148905044Y-94407457D01*
X148895079Y-94386387D01*
X148887227Y-94364443D01*
X148881563Y-94341834D01*
X148878144Y-94318779D01*
X148877000Y-94295500D01*
X148877000Y-93720500D01*
X148878144Y-93697221D01*
X148881563Y-93674166D01*
X148887227Y-93651557D01*
X148895079Y-93629613D01*
X148905044Y-93608543D01*
X148917026Y-93588552D01*
X148930910Y-93569832D01*
X148946562Y-93552562D01*
X148963832Y-93536910D01*
X148982552Y-93523026D01*
X149002543Y-93511044D01*
X149023613Y-93501079D01*
X149045557Y-93493227D01*
X149068166Y-93487563D01*
X149091221Y-93484144D01*
X149114500Y-93483000D01*
X149589500Y-93483000D01*
X149612779Y-93484144D01*
X149612779Y-93484144D01*
G37*
D11*
X149352000Y-94008000D03*
G04 #@! TD*
D10*
G04 #@! TO.C,D7*
G36*
X145294779Y-95234144D02*
X145317834Y-95237563D01*
X145340443Y-95243227D01*
X145362387Y-95251079D01*
X145383457Y-95261044D01*
X145403448Y-95273026D01*
X145422168Y-95286910D01*
X145439438Y-95302562D01*
X145455090Y-95319832D01*
X145468974Y-95338552D01*
X145480956Y-95358543D01*
X145490921Y-95379613D01*
X145498773Y-95401557D01*
X145504437Y-95424166D01*
X145507856Y-95447221D01*
X145509000Y-95470500D01*
X145509000Y-96045500D01*
X145507856Y-96068779D01*
X145504437Y-96091834D01*
X145498773Y-96114443D01*
X145490921Y-96136387D01*
X145480956Y-96157457D01*
X145468974Y-96177448D01*
X145455090Y-96196168D01*
X145439438Y-96213438D01*
X145422168Y-96229090D01*
X145403448Y-96242974D01*
X145383457Y-96254956D01*
X145362387Y-96264921D01*
X145340443Y-96272773D01*
X145317834Y-96278437D01*
X145294779Y-96281856D01*
X145271500Y-96283000D01*
X144796500Y-96283000D01*
X144773221Y-96281856D01*
X144750166Y-96278437D01*
X144727557Y-96272773D01*
X144705613Y-96264921D01*
X144684543Y-96254956D01*
X144664552Y-96242974D01*
X144645832Y-96229090D01*
X144628562Y-96213438D01*
X144612910Y-96196168D01*
X144599026Y-96177448D01*
X144587044Y-96157457D01*
X144577079Y-96136387D01*
X144569227Y-96114443D01*
X144563563Y-96091834D01*
X144560144Y-96068779D01*
X144559000Y-96045500D01*
X144559000Y-95470500D01*
X144560144Y-95447221D01*
X144563563Y-95424166D01*
X144569227Y-95401557D01*
X144577079Y-95379613D01*
X144587044Y-95358543D01*
X144599026Y-95338552D01*
X144612910Y-95319832D01*
X144628562Y-95302562D01*
X144645832Y-95286910D01*
X144664552Y-95273026D01*
X144684543Y-95261044D01*
X144705613Y-95251079D01*
X144727557Y-95243227D01*
X144750166Y-95237563D01*
X144773221Y-95234144D01*
X144796500Y-95233000D01*
X145271500Y-95233000D01*
X145294779Y-95234144D01*
X145294779Y-95234144D01*
G37*
D11*
X145034000Y-95758000D03*
D10*
G36*
X145294779Y-93484144D02*
X145317834Y-93487563D01*
X145340443Y-93493227D01*
X145362387Y-93501079D01*
X145383457Y-93511044D01*
X145403448Y-93523026D01*
X145422168Y-93536910D01*
X145439438Y-93552562D01*
X145455090Y-93569832D01*
X145468974Y-93588552D01*
X145480956Y-93608543D01*
X145490921Y-93629613D01*
X145498773Y-93651557D01*
X145504437Y-93674166D01*
X145507856Y-93697221D01*
X145509000Y-93720500D01*
X145509000Y-94295500D01*
X145507856Y-94318779D01*
X145504437Y-94341834D01*
X145498773Y-94364443D01*
X145490921Y-94386387D01*
X145480956Y-94407457D01*
X145468974Y-94427448D01*
X145455090Y-94446168D01*
X145439438Y-94463438D01*
X145422168Y-94479090D01*
X145403448Y-94492974D01*
X145383457Y-94504956D01*
X145362387Y-94514921D01*
X145340443Y-94522773D01*
X145317834Y-94528437D01*
X145294779Y-94531856D01*
X145271500Y-94533000D01*
X144796500Y-94533000D01*
X144773221Y-94531856D01*
X144750166Y-94528437D01*
X144727557Y-94522773D01*
X144705613Y-94514921D01*
X144684543Y-94504956D01*
X144664552Y-94492974D01*
X144645832Y-94479090D01*
X144628562Y-94463438D01*
X144612910Y-94446168D01*
X144599026Y-94427448D01*
X144587044Y-94407457D01*
X144577079Y-94386387D01*
X144569227Y-94364443D01*
X144563563Y-94341834D01*
X144560144Y-94318779D01*
X144559000Y-94295500D01*
X144559000Y-93720500D01*
X144560144Y-93697221D01*
X144563563Y-93674166D01*
X144569227Y-93651557D01*
X144577079Y-93629613D01*
X144587044Y-93608543D01*
X144599026Y-93588552D01*
X144612910Y-93569832D01*
X144628562Y-93552562D01*
X144645832Y-93536910D01*
X144664552Y-93523026D01*
X144684543Y-93511044D01*
X144705613Y-93501079D01*
X144727557Y-93493227D01*
X144750166Y-93487563D01*
X144773221Y-93484144D01*
X144796500Y-93483000D01*
X145271500Y-93483000D01*
X145294779Y-93484144D01*
X145294779Y-93484144D01*
G37*
D11*
X145034000Y-94008000D03*
G04 #@! TD*
D10*
G04 #@! TO.C,D8*
G36*
X141230779Y-95093144D02*
X141253834Y-95096563D01*
X141276443Y-95102227D01*
X141298387Y-95110079D01*
X141319457Y-95120044D01*
X141339448Y-95132026D01*
X141358168Y-95145910D01*
X141375438Y-95161562D01*
X141391090Y-95178832D01*
X141404974Y-95197552D01*
X141416956Y-95217543D01*
X141426921Y-95238613D01*
X141434773Y-95260557D01*
X141440437Y-95283166D01*
X141443856Y-95306221D01*
X141445000Y-95329500D01*
X141445000Y-95904500D01*
X141443856Y-95927779D01*
X141440437Y-95950834D01*
X141434773Y-95973443D01*
X141426921Y-95995387D01*
X141416956Y-96016457D01*
X141404974Y-96036448D01*
X141391090Y-96055168D01*
X141375438Y-96072438D01*
X141358168Y-96088090D01*
X141339448Y-96101974D01*
X141319457Y-96113956D01*
X141298387Y-96123921D01*
X141276443Y-96131773D01*
X141253834Y-96137437D01*
X141230779Y-96140856D01*
X141207500Y-96142000D01*
X140732500Y-96142000D01*
X140709221Y-96140856D01*
X140686166Y-96137437D01*
X140663557Y-96131773D01*
X140641613Y-96123921D01*
X140620543Y-96113956D01*
X140600552Y-96101974D01*
X140581832Y-96088090D01*
X140564562Y-96072438D01*
X140548910Y-96055168D01*
X140535026Y-96036448D01*
X140523044Y-96016457D01*
X140513079Y-95995387D01*
X140505227Y-95973443D01*
X140499563Y-95950834D01*
X140496144Y-95927779D01*
X140495000Y-95904500D01*
X140495000Y-95329500D01*
X140496144Y-95306221D01*
X140499563Y-95283166D01*
X140505227Y-95260557D01*
X140513079Y-95238613D01*
X140523044Y-95217543D01*
X140535026Y-95197552D01*
X140548910Y-95178832D01*
X140564562Y-95161562D01*
X140581832Y-95145910D01*
X140600552Y-95132026D01*
X140620543Y-95120044D01*
X140641613Y-95110079D01*
X140663557Y-95102227D01*
X140686166Y-95096563D01*
X140709221Y-95093144D01*
X140732500Y-95092000D01*
X141207500Y-95092000D01*
X141230779Y-95093144D01*
X141230779Y-95093144D01*
G37*
D11*
X140970000Y-95617000D03*
D10*
G36*
X141230779Y-93343144D02*
X141253834Y-93346563D01*
X141276443Y-93352227D01*
X141298387Y-93360079D01*
X141319457Y-93370044D01*
X141339448Y-93382026D01*
X141358168Y-93395910D01*
X141375438Y-93411562D01*
X141391090Y-93428832D01*
X141404974Y-93447552D01*
X141416956Y-93467543D01*
X141426921Y-93488613D01*
X141434773Y-93510557D01*
X141440437Y-93533166D01*
X141443856Y-93556221D01*
X141445000Y-93579500D01*
X141445000Y-94154500D01*
X141443856Y-94177779D01*
X141440437Y-94200834D01*
X141434773Y-94223443D01*
X141426921Y-94245387D01*
X141416956Y-94266457D01*
X141404974Y-94286448D01*
X141391090Y-94305168D01*
X141375438Y-94322438D01*
X141358168Y-94338090D01*
X141339448Y-94351974D01*
X141319457Y-94363956D01*
X141298387Y-94373921D01*
X141276443Y-94381773D01*
X141253834Y-94387437D01*
X141230779Y-94390856D01*
X141207500Y-94392000D01*
X140732500Y-94392000D01*
X140709221Y-94390856D01*
X140686166Y-94387437D01*
X140663557Y-94381773D01*
X140641613Y-94373921D01*
X140620543Y-94363956D01*
X140600552Y-94351974D01*
X140581832Y-94338090D01*
X140564562Y-94322438D01*
X140548910Y-94305168D01*
X140535026Y-94286448D01*
X140523044Y-94266457D01*
X140513079Y-94245387D01*
X140505227Y-94223443D01*
X140499563Y-94200834D01*
X140496144Y-94177779D01*
X140495000Y-94154500D01*
X140495000Y-93579500D01*
X140496144Y-93556221D01*
X140499563Y-93533166D01*
X140505227Y-93510557D01*
X140513079Y-93488613D01*
X140523044Y-93467543D01*
X140535026Y-93447552D01*
X140548910Y-93428832D01*
X140564562Y-93411562D01*
X140581832Y-93395910D01*
X140600552Y-93382026D01*
X140620543Y-93370044D01*
X140641613Y-93360079D01*
X140663557Y-93352227D01*
X140686166Y-93346563D01*
X140709221Y-93343144D01*
X140732500Y-93342000D01*
X141207500Y-93342000D01*
X141230779Y-93343144D01*
X141230779Y-93343144D01*
G37*
D11*
X140970000Y-93867000D03*
G04 #@! TD*
D10*
G04 #@! TO.C,D2*
G36*
X137166779Y-95093144D02*
X137189834Y-95096563D01*
X137212443Y-95102227D01*
X137234387Y-95110079D01*
X137255457Y-95120044D01*
X137275448Y-95132026D01*
X137294168Y-95145910D01*
X137311438Y-95161562D01*
X137327090Y-95178832D01*
X137340974Y-95197552D01*
X137352956Y-95217543D01*
X137362921Y-95238613D01*
X137370773Y-95260557D01*
X137376437Y-95283166D01*
X137379856Y-95306221D01*
X137381000Y-95329500D01*
X137381000Y-95904500D01*
X137379856Y-95927779D01*
X137376437Y-95950834D01*
X137370773Y-95973443D01*
X137362921Y-95995387D01*
X137352956Y-96016457D01*
X137340974Y-96036448D01*
X137327090Y-96055168D01*
X137311438Y-96072438D01*
X137294168Y-96088090D01*
X137275448Y-96101974D01*
X137255457Y-96113956D01*
X137234387Y-96123921D01*
X137212443Y-96131773D01*
X137189834Y-96137437D01*
X137166779Y-96140856D01*
X137143500Y-96142000D01*
X136668500Y-96142000D01*
X136645221Y-96140856D01*
X136622166Y-96137437D01*
X136599557Y-96131773D01*
X136577613Y-96123921D01*
X136556543Y-96113956D01*
X136536552Y-96101974D01*
X136517832Y-96088090D01*
X136500562Y-96072438D01*
X136484910Y-96055168D01*
X136471026Y-96036448D01*
X136459044Y-96016457D01*
X136449079Y-95995387D01*
X136441227Y-95973443D01*
X136435563Y-95950834D01*
X136432144Y-95927779D01*
X136431000Y-95904500D01*
X136431000Y-95329500D01*
X136432144Y-95306221D01*
X136435563Y-95283166D01*
X136441227Y-95260557D01*
X136449079Y-95238613D01*
X136459044Y-95217543D01*
X136471026Y-95197552D01*
X136484910Y-95178832D01*
X136500562Y-95161562D01*
X136517832Y-95145910D01*
X136536552Y-95132026D01*
X136556543Y-95120044D01*
X136577613Y-95110079D01*
X136599557Y-95102227D01*
X136622166Y-95096563D01*
X136645221Y-95093144D01*
X136668500Y-95092000D01*
X137143500Y-95092000D01*
X137166779Y-95093144D01*
X137166779Y-95093144D01*
G37*
D11*
X136906000Y-95617000D03*
D10*
G36*
X137166779Y-93343144D02*
X137189834Y-93346563D01*
X137212443Y-93352227D01*
X137234387Y-93360079D01*
X137255457Y-93370044D01*
X137275448Y-93382026D01*
X137294168Y-93395910D01*
X137311438Y-93411562D01*
X137327090Y-93428832D01*
X137340974Y-93447552D01*
X137352956Y-93467543D01*
X137362921Y-93488613D01*
X137370773Y-93510557D01*
X137376437Y-93533166D01*
X137379856Y-93556221D01*
X137381000Y-93579500D01*
X137381000Y-94154500D01*
X137379856Y-94177779D01*
X137376437Y-94200834D01*
X137370773Y-94223443D01*
X137362921Y-94245387D01*
X137352956Y-94266457D01*
X137340974Y-94286448D01*
X137327090Y-94305168D01*
X137311438Y-94322438D01*
X137294168Y-94338090D01*
X137275448Y-94351974D01*
X137255457Y-94363956D01*
X137234387Y-94373921D01*
X137212443Y-94381773D01*
X137189834Y-94387437D01*
X137166779Y-94390856D01*
X137143500Y-94392000D01*
X136668500Y-94392000D01*
X136645221Y-94390856D01*
X136622166Y-94387437D01*
X136599557Y-94381773D01*
X136577613Y-94373921D01*
X136556543Y-94363956D01*
X136536552Y-94351974D01*
X136517832Y-94338090D01*
X136500562Y-94322438D01*
X136484910Y-94305168D01*
X136471026Y-94286448D01*
X136459044Y-94266457D01*
X136449079Y-94245387D01*
X136441227Y-94223443D01*
X136435563Y-94200834D01*
X136432144Y-94177779D01*
X136431000Y-94154500D01*
X136431000Y-93579500D01*
X136432144Y-93556221D01*
X136435563Y-93533166D01*
X136441227Y-93510557D01*
X136449079Y-93488613D01*
X136459044Y-93467543D01*
X136471026Y-93447552D01*
X136484910Y-93428832D01*
X136500562Y-93411562D01*
X136517832Y-93395910D01*
X136536552Y-93382026D01*
X136556543Y-93370044D01*
X136577613Y-93360079D01*
X136599557Y-93352227D01*
X136622166Y-93346563D01*
X136645221Y-93343144D01*
X136668500Y-93342000D01*
X137143500Y-93342000D01*
X137166779Y-93343144D01*
X137166779Y-93343144D01*
G37*
D11*
X136906000Y-93867000D03*
G04 #@! TD*
M02*
