G04 #@! TF.GenerationSoftware,KiCad,Pcbnew,(5.0.0)*
G04 #@! TF.CreationDate,2018-12-16T15:07:14-06:00*
G04 #@! TF.ProjectId,DriveBoard_Hardware,4472697665426F6172645F4861726477,rev?*
G04 #@! TF.SameCoordinates,Original*
G04 #@! TF.FileFunction,Copper,L1,Top,Signal*
G04 #@! TF.FilePolarity,Positive*
%FSLAX46Y46*%
G04 Gerber Fmt 4.6, Leading zero omitted, Abs format (unit mm)*
G04 Created by KiCad (PCBNEW (5.0.0)) date 12/16/18 15:07:14*
%MOMM*%
%LPD*%
G01*
G04 APERTURE LIST*
G04 #@! TA.AperFunction,Conductor*
%ADD10C,0.100000*%
G04 #@! TD*
G04 #@! TA.AperFunction,SMDPad,CuDef*
%ADD11C,0.950000*%
G04 #@! TD*
G04 #@! TA.AperFunction,ComponentPad*
%ADD12C,1.524000*%
G04 #@! TD*
G04 #@! TA.AperFunction,ComponentPad*
%ADD13C,5.080000*%
G04 #@! TD*
G04 #@! TA.AperFunction,SMDPad,CuDef*
%ADD14R,1.500000X0.600000*%
G04 #@! TD*
G04 #@! TA.AperFunction,ComponentPad*
%ADD15R,2.500000X1.500000*%
G04 #@! TD*
G04 #@! TA.AperFunction,ComponentPad*
%ADD16O,2.500000X1.500000*%
G04 #@! TD*
G04 #@! TA.AperFunction,ComponentPad*
%ADD17O,3.500000X2.200000*%
G04 #@! TD*
G04 #@! TA.AperFunction,ViaPad*
%ADD18C,0.800000*%
G04 #@! TD*
G04 #@! TA.AperFunction,Conductor*
%ADD19C,0.381000*%
G04 #@! TD*
G04 #@! TA.AperFunction,Conductor*
%ADD20C,0.762000*%
G04 #@! TD*
G04 #@! TA.AperFunction,Conductor*
%ADD21C,0.250000*%
G04 #@! TD*
G04 #@! TA.AperFunction,Conductor*
%ADD22C,0.254000*%
G04 #@! TD*
G04 APERTURE END LIST*
D10*
G04 #@! TO.N,TX_1_SL*
G04 #@! TO.C,R2*
G36*
X131120779Y-54390144D02*
X131143834Y-54393563D01*
X131166443Y-54399227D01*
X131188387Y-54407079D01*
X131209457Y-54417044D01*
X131229448Y-54429026D01*
X131248168Y-54442910D01*
X131265438Y-54458562D01*
X131281090Y-54475832D01*
X131294974Y-54494552D01*
X131306956Y-54514543D01*
X131316921Y-54535613D01*
X131324773Y-54557557D01*
X131330437Y-54580166D01*
X131333856Y-54603221D01*
X131335000Y-54626500D01*
X131335000Y-55101500D01*
X131333856Y-55124779D01*
X131330437Y-55147834D01*
X131324773Y-55170443D01*
X131316921Y-55192387D01*
X131306956Y-55213457D01*
X131294974Y-55233448D01*
X131281090Y-55252168D01*
X131265438Y-55269438D01*
X131248168Y-55285090D01*
X131229448Y-55298974D01*
X131209457Y-55310956D01*
X131188387Y-55320921D01*
X131166443Y-55328773D01*
X131143834Y-55334437D01*
X131120779Y-55337856D01*
X131097500Y-55339000D01*
X130522500Y-55339000D01*
X130499221Y-55337856D01*
X130476166Y-55334437D01*
X130453557Y-55328773D01*
X130431613Y-55320921D01*
X130410543Y-55310956D01*
X130390552Y-55298974D01*
X130371832Y-55285090D01*
X130354562Y-55269438D01*
X130338910Y-55252168D01*
X130325026Y-55233448D01*
X130313044Y-55213457D01*
X130303079Y-55192387D01*
X130295227Y-55170443D01*
X130289563Y-55147834D01*
X130286144Y-55124779D01*
X130285000Y-55101500D01*
X130285000Y-54626500D01*
X130286144Y-54603221D01*
X130289563Y-54580166D01*
X130295227Y-54557557D01*
X130303079Y-54535613D01*
X130313044Y-54514543D01*
X130325026Y-54494552D01*
X130338910Y-54475832D01*
X130354562Y-54458562D01*
X130371832Y-54442910D01*
X130390552Y-54429026D01*
X130410543Y-54417044D01*
X130431613Y-54407079D01*
X130453557Y-54399227D01*
X130476166Y-54393563D01*
X130499221Y-54390144D01*
X130522500Y-54389000D01*
X131097500Y-54389000D01*
X131120779Y-54390144D01*
X131120779Y-54390144D01*
G37*
D11*
G04 #@! TD*
G04 #@! TO.P,R2,2*
G04 #@! TO.N,TX_1_SL*
X130810000Y-54864000D03*
D10*
G04 #@! TO.N,Net-(D3-Pad2)*
G04 #@! TO.C,R2*
G36*
X132870779Y-54390144D02*
X132893834Y-54393563D01*
X132916443Y-54399227D01*
X132938387Y-54407079D01*
X132959457Y-54417044D01*
X132979448Y-54429026D01*
X132998168Y-54442910D01*
X133015438Y-54458562D01*
X133031090Y-54475832D01*
X133044974Y-54494552D01*
X133056956Y-54514543D01*
X133066921Y-54535613D01*
X133074773Y-54557557D01*
X133080437Y-54580166D01*
X133083856Y-54603221D01*
X133085000Y-54626500D01*
X133085000Y-55101500D01*
X133083856Y-55124779D01*
X133080437Y-55147834D01*
X133074773Y-55170443D01*
X133066921Y-55192387D01*
X133056956Y-55213457D01*
X133044974Y-55233448D01*
X133031090Y-55252168D01*
X133015438Y-55269438D01*
X132998168Y-55285090D01*
X132979448Y-55298974D01*
X132959457Y-55310956D01*
X132938387Y-55320921D01*
X132916443Y-55328773D01*
X132893834Y-55334437D01*
X132870779Y-55337856D01*
X132847500Y-55339000D01*
X132272500Y-55339000D01*
X132249221Y-55337856D01*
X132226166Y-55334437D01*
X132203557Y-55328773D01*
X132181613Y-55320921D01*
X132160543Y-55310956D01*
X132140552Y-55298974D01*
X132121832Y-55285090D01*
X132104562Y-55269438D01*
X132088910Y-55252168D01*
X132075026Y-55233448D01*
X132063044Y-55213457D01*
X132053079Y-55192387D01*
X132045227Y-55170443D01*
X132039563Y-55147834D01*
X132036144Y-55124779D01*
X132035000Y-55101500D01*
X132035000Y-54626500D01*
X132036144Y-54603221D01*
X132039563Y-54580166D01*
X132045227Y-54557557D01*
X132053079Y-54535613D01*
X132063044Y-54514543D01*
X132075026Y-54494552D01*
X132088910Y-54475832D01*
X132104562Y-54458562D01*
X132121832Y-54442910D01*
X132140552Y-54429026D01*
X132160543Y-54417044D01*
X132181613Y-54407079D01*
X132203557Y-54399227D01*
X132226166Y-54393563D01*
X132249221Y-54390144D01*
X132272500Y-54389000D01*
X132847500Y-54389000D01*
X132870779Y-54390144D01*
X132870779Y-54390144D01*
G37*
D11*
G04 #@! TD*
G04 #@! TO.P,R2,1*
G04 #@! TO.N,Net-(D3-Pad2)*
X132560000Y-54864000D03*
D10*
G04 #@! TO.N,TX_2_SL*
G04 #@! TO.C,R3*
G36*
X148420779Y-54390144D02*
X148443834Y-54393563D01*
X148466443Y-54399227D01*
X148488387Y-54407079D01*
X148509457Y-54417044D01*
X148529448Y-54429026D01*
X148548168Y-54442910D01*
X148565438Y-54458562D01*
X148581090Y-54475832D01*
X148594974Y-54494552D01*
X148606956Y-54514543D01*
X148616921Y-54535613D01*
X148624773Y-54557557D01*
X148630437Y-54580166D01*
X148633856Y-54603221D01*
X148635000Y-54626500D01*
X148635000Y-55101500D01*
X148633856Y-55124779D01*
X148630437Y-55147834D01*
X148624773Y-55170443D01*
X148616921Y-55192387D01*
X148606956Y-55213457D01*
X148594974Y-55233448D01*
X148581090Y-55252168D01*
X148565438Y-55269438D01*
X148548168Y-55285090D01*
X148529448Y-55298974D01*
X148509457Y-55310956D01*
X148488387Y-55320921D01*
X148466443Y-55328773D01*
X148443834Y-55334437D01*
X148420779Y-55337856D01*
X148397500Y-55339000D01*
X147822500Y-55339000D01*
X147799221Y-55337856D01*
X147776166Y-55334437D01*
X147753557Y-55328773D01*
X147731613Y-55320921D01*
X147710543Y-55310956D01*
X147690552Y-55298974D01*
X147671832Y-55285090D01*
X147654562Y-55269438D01*
X147638910Y-55252168D01*
X147625026Y-55233448D01*
X147613044Y-55213457D01*
X147603079Y-55192387D01*
X147595227Y-55170443D01*
X147589563Y-55147834D01*
X147586144Y-55124779D01*
X147585000Y-55101500D01*
X147585000Y-54626500D01*
X147586144Y-54603221D01*
X147589563Y-54580166D01*
X147595227Y-54557557D01*
X147603079Y-54535613D01*
X147613044Y-54514543D01*
X147625026Y-54494552D01*
X147638910Y-54475832D01*
X147654562Y-54458562D01*
X147671832Y-54442910D01*
X147690552Y-54429026D01*
X147710543Y-54417044D01*
X147731613Y-54407079D01*
X147753557Y-54399227D01*
X147776166Y-54393563D01*
X147799221Y-54390144D01*
X147822500Y-54389000D01*
X148397500Y-54389000D01*
X148420779Y-54390144D01*
X148420779Y-54390144D01*
G37*
D11*
G04 #@! TD*
G04 #@! TO.P,R3,2*
G04 #@! TO.N,TX_2_SL*
X148110000Y-54864000D03*
D10*
G04 #@! TO.N,Net-(D4-Pad2)*
G04 #@! TO.C,R3*
G36*
X150170779Y-54390144D02*
X150193834Y-54393563D01*
X150216443Y-54399227D01*
X150238387Y-54407079D01*
X150259457Y-54417044D01*
X150279448Y-54429026D01*
X150298168Y-54442910D01*
X150315438Y-54458562D01*
X150331090Y-54475832D01*
X150344974Y-54494552D01*
X150356956Y-54514543D01*
X150366921Y-54535613D01*
X150374773Y-54557557D01*
X150380437Y-54580166D01*
X150383856Y-54603221D01*
X150385000Y-54626500D01*
X150385000Y-55101500D01*
X150383856Y-55124779D01*
X150380437Y-55147834D01*
X150374773Y-55170443D01*
X150366921Y-55192387D01*
X150356956Y-55213457D01*
X150344974Y-55233448D01*
X150331090Y-55252168D01*
X150315438Y-55269438D01*
X150298168Y-55285090D01*
X150279448Y-55298974D01*
X150259457Y-55310956D01*
X150238387Y-55320921D01*
X150216443Y-55328773D01*
X150193834Y-55334437D01*
X150170779Y-55337856D01*
X150147500Y-55339000D01*
X149572500Y-55339000D01*
X149549221Y-55337856D01*
X149526166Y-55334437D01*
X149503557Y-55328773D01*
X149481613Y-55320921D01*
X149460543Y-55310956D01*
X149440552Y-55298974D01*
X149421832Y-55285090D01*
X149404562Y-55269438D01*
X149388910Y-55252168D01*
X149375026Y-55233448D01*
X149363044Y-55213457D01*
X149353079Y-55192387D01*
X149345227Y-55170443D01*
X149339563Y-55147834D01*
X149336144Y-55124779D01*
X149335000Y-55101500D01*
X149335000Y-54626500D01*
X149336144Y-54603221D01*
X149339563Y-54580166D01*
X149345227Y-54557557D01*
X149353079Y-54535613D01*
X149363044Y-54514543D01*
X149375026Y-54494552D01*
X149388910Y-54475832D01*
X149404562Y-54458562D01*
X149421832Y-54442910D01*
X149440552Y-54429026D01*
X149460543Y-54417044D01*
X149481613Y-54407079D01*
X149503557Y-54399227D01*
X149526166Y-54393563D01*
X149549221Y-54390144D01*
X149572500Y-54389000D01*
X150147500Y-54389000D01*
X150170779Y-54390144D01*
X150170779Y-54390144D01*
G37*
D11*
G04 #@! TD*
G04 #@! TO.P,R3,1*
G04 #@! TO.N,Net-(D4-Pad2)*
X149860000Y-54864000D03*
D10*
G04 #@! TO.N,TX_3_SL*
G04 #@! TO.C,R4*
G36*
X165692779Y-54390144D02*
X165715834Y-54393563D01*
X165738443Y-54399227D01*
X165760387Y-54407079D01*
X165781457Y-54417044D01*
X165801448Y-54429026D01*
X165820168Y-54442910D01*
X165837438Y-54458562D01*
X165853090Y-54475832D01*
X165866974Y-54494552D01*
X165878956Y-54514543D01*
X165888921Y-54535613D01*
X165896773Y-54557557D01*
X165902437Y-54580166D01*
X165905856Y-54603221D01*
X165907000Y-54626500D01*
X165907000Y-55101500D01*
X165905856Y-55124779D01*
X165902437Y-55147834D01*
X165896773Y-55170443D01*
X165888921Y-55192387D01*
X165878956Y-55213457D01*
X165866974Y-55233448D01*
X165853090Y-55252168D01*
X165837438Y-55269438D01*
X165820168Y-55285090D01*
X165801448Y-55298974D01*
X165781457Y-55310956D01*
X165760387Y-55320921D01*
X165738443Y-55328773D01*
X165715834Y-55334437D01*
X165692779Y-55337856D01*
X165669500Y-55339000D01*
X165094500Y-55339000D01*
X165071221Y-55337856D01*
X165048166Y-55334437D01*
X165025557Y-55328773D01*
X165003613Y-55320921D01*
X164982543Y-55310956D01*
X164962552Y-55298974D01*
X164943832Y-55285090D01*
X164926562Y-55269438D01*
X164910910Y-55252168D01*
X164897026Y-55233448D01*
X164885044Y-55213457D01*
X164875079Y-55192387D01*
X164867227Y-55170443D01*
X164861563Y-55147834D01*
X164858144Y-55124779D01*
X164857000Y-55101500D01*
X164857000Y-54626500D01*
X164858144Y-54603221D01*
X164861563Y-54580166D01*
X164867227Y-54557557D01*
X164875079Y-54535613D01*
X164885044Y-54514543D01*
X164897026Y-54494552D01*
X164910910Y-54475832D01*
X164926562Y-54458562D01*
X164943832Y-54442910D01*
X164962552Y-54429026D01*
X164982543Y-54417044D01*
X165003613Y-54407079D01*
X165025557Y-54399227D01*
X165048166Y-54393563D01*
X165071221Y-54390144D01*
X165094500Y-54389000D01*
X165669500Y-54389000D01*
X165692779Y-54390144D01*
X165692779Y-54390144D01*
G37*
D11*
G04 #@! TD*
G04 #@! TO.P,R4,2*
G04 #@! TO.N,TX_3_SL*
X165382000Y-54864000D03*
D10*
G04 #@! TO.N,Net-(D5-Pad2)*
G04 #@! TO.C,R4*
G36*
X167442779Y-54390144D02*
X167465834Y-54393563D01*
X167488443Y-54399227D01*
X167510387Y-54407079D01*
X167531457Y-54417044D01*
X167551448Y-54429026D01*
X167570168Y-54442910D01*
X167587438Y-54458562D01*
X167603090Y-54475832D01*
X167616974Y-54494552D01*
X167628956Y-54514543D01*
X167638921Y-54535613D01*
X167646773Y-54557557D01*
X167652437Y-54580166D01*
X167655856Y-54603221D01*
X167657000Y-54626500D01*
X167657000Y-55101500D01*
X167655856Y-55124779D01*
X167652437Y-55147834D01*
X167646773Y-55170443D01*
X167638921Y-55192387D01*
X167628956Y-55213457D01*
X167616974Y-55233448D01*
X167603090Y-55252168D01*
X167587438Y-55269438D01*
X167570168Y-55285090D01*
X167551448Y-55298974D01*
X167531457Y-55310956D01*
X167510387Y-55320921D01*
X167488443Y-55328773D01*
X167465834Y-55334437D01*
X167442779Y-55337856D01*
X167419500Y-55339000D01*
X166844500Y-55339000D01*
X166821221Y-55337856D01*
X166798166Y-55334437D01*
X166775557Y-55328773D01*
X166753613Y-55320921D01*
X166732543Y-55310956D01*
X166712552Y-55298974D01*
X166693832Y-55285090D01*
X166676562Y-55269438D01*
X166660910Y-55252168D01*
X166647026Y-55233448D01*
X166635044Y-55213457D01*
X166625079Y-55192387D01*
X166617227Y-55170443D01*
X166611563Y-55147834D01*
X166608144Y-55124779D01*
X166607000Y-55101500D01*
X166607000Y-54626500D01*
X166608144Y-54603221D01*
X166611563Y-54580166D01*
X166617227Y-54557557D01*
X166625079Y-54535613D01*
X166635044Y-54514543D01*
X166647026Y-54494552D01*
X166660910Y-54475832D01*
X166676562Y-54458562D01*
X166693832Y-54442910D01*
X166712552Y-54429026D01*
X166732543Y-54417044D01*
X166753613Y-54407079D01*
X166775557Y-54399227D01*
X166798166Y-54393563D01*
X166821221Y-54390144D01*
X166844500Y-54389000D01*
X167419500Y-54389000D01*
X167442779Y-54390144D01*
X167442779Y-54390144D01*
G37*
D11*
G04 #@! TD*
G04 #@! TO.P,R4,1*
G04 #@! TO.N,Net-(D5-Pad2)*
X167132000Y-54864000D03*
D10*
G04 #@! TO.N,Lspeed*
G04 #@! TO.C,R5*
G36*
X149612779Y-99016144D02*
X149635834Y-99019563D01*
X149658443Y-99025227D01*
X149680387Y-99033079D01*
X149701457Y-99043044D01*
X149721448Y-99055026D01*
X149740168Y-99068910D01*
X149757438Y-99084562D01*
X149773090Y-99101832D01*
X149786974Y-99120552D01*
X149798956Y-99140543D01*
X149808921Y-99161613D01*
X149816773Y-99183557D01*
X149822437Y-99206166D01*
X149825856Y-99229221D01*
X149827000Y-99252500D01*
X149827000Y-99827500D01*
X149825856Y-99850779D01*
X149822437Y-99873834D01*
X149816773Y-99896443D01*
X149808921Y-99918387D01*
X149798956Y-99939457D01*
X149786974Y-99959448D01*
X149773090Y-99978168D01*
X149757438Y-99995438D01*
X149740168Y-100011090D01*
X149721448Y-100024974D01*
X149701457Y-100036956D01*
X149680387Y-100046921D01*
X149658443Y-100054773D01*
X149635834Y-100060437D01*
X149612779Y-100063856D01*
X149589500Y-100065000D01*
X149114500Y-100065000D01*
X149091221Y-100063856D01*
X149068166Y-100060437D01*
X149045557Y-100054773D01*
X149023613Y-100046921D01*
X149002543Y-100036956D01*
X148982552Y-100024974D01*
X148963832Y-100011090D01*
X148946562Y-99995438D01*
X148930910Y-99978168D01*
X148917026Y-99959448D01*
X148905044Y-99939457D01*
X148895079Y-99918387D01*
X148887227Y-99896443D01*
X148881563Y-99873834D01*
X148878144Y-99850779D01*
X148877000Y-99827500D01*
X148877000Y-99252500D01*
X148878144Y-99229221D01*
X148881563Y-99206166D01*
X148887227Y-99183557D01*
X148895079Y-99161613D01*
X148905044Y-99140543D01*
X148917026Y-99120552D01*
X148930910Y-99101832D01*
X148946562Y-99084562D01*
X148963832Y-99068910D01*
X148982552Y-99055026D01*
X149002543Y-99043044D01*
X149023613Y-99033079D01*
X149045557Y-99025227D01*
X149068166Y-99019563D01*
X149091221Y-99016144D01*
X149114500Y-99015000D01*
X149589500Y-99015000D01*
X149612779Y-99016144D01*
X149612779Y-99016144D01*
G37*
D11*
G04 #@! TD*
G04 #@! TO.P,R5,2*
G04 #@! TO.N,Lspeed*
X149352000Y-99540000D03*
D10*
G04 #@! TO.N,Net-(D6-Pad2)*
G04 #@! TO.C,R5*
G36*
X149612779Y-97266144D02*
X149635834Y-97269563D01*
X149658443Y-97275227D01*
X149680387Y-97283079D01*
X149701457Y-97293044D01*
X149721448Y-97305026D01*
X149740168Y-97318910D01*
X149757438Y-97334562D01*
X149773090Y-97351832D01*
X149786974Y-97370552D01*
X149798956Y-97390543D01*
X149808921Y-97411613D01*
X149816773Y-97433557D01*
X149822437Y-97456166D01*
X149825856Y-97479221D01*
X149827000Y-97502500D01*
X149827000Y-98077500D01*
X149825856Y-98100779D01*
X149822437Y-98123834D01*
X149816773Y-98146443D01*
X149808921Y-98168387D01*
X149798956Y-98189457D01*
X149786974Y-98209448D01*
X149773090Y-98228168D01*
X149757438Y-98245438D01*
X149740168Y-98261090D01*
X149721448Y-98274974D01*
X149701457Y-98286956D01*
X149680387Y-98296921D01*
X149658443Y-98304773D01*
X149635834Y-98310437D01*
X149612779Y-98313856D01*
X149589500Y-98315000D01*
X149114500Y-98315000D01*
X149091221Y-98313856D01*
X149068166Y-98310437D01*
X149045557Y-98304773D01*
X149023613Y-98296921D01*
X149002543Y-98286956D01*
X148982552Y-98274974D01*
X148963832Y-98261090D01*
X148946562Y-98245438D01*
X148930910Y-98228168D01*
X148917026Y-98209448D01*
X148905044Y-98189457D01*
X148895079Y-98168387D01*
X148887227Y-98146443D01*
X148881563Y-98123834D01*
X148878144Y-98100779D01*
X148877000Y-98077500D01*
X148877000Y-97502500D01*
X148878144Y-97479221D01*
X148881563Y-97456166D01*
X148887227Y-97433557D01*
X148895079Y-97411613D01*
X148905044Y-97390543D01*
X148917026Y-97370552D01*
X148930910Y-97351832D01*
X148946562Y-97334562D01*
X148963832Y-97318910D01*
X148982552Y-97305026D01*
X149002543Y-97293044D01*
X149023613Y-97283079D01*
X149045557Y-97275227D01*
X149068166Y-97269563D01*
X149091221Y-97266144D01*
X149114500Y-97265000D01*
X149589500Y-97265000D01*
X149612779Y-97266144D01*
X149612779Y-97266144D01*
G37*
D11*
G04 #@! TD*
G04 #@! TO.P,R5,1*
G04 #@! TO.N,Net-(D6-Pad2)*
X149352000Y-97790000D03*
D10*
G04 #@! TO.N,Rspeed*
G04 #@! TO.C,R6*
G36*
X145294779Y-99016144D02*
X145317834Y-99019563D01*
X145340443Y-99025227D01*
X145362387Y-99033079D01*
X145383457Y-99043044D01*
X145403448Y-99055026D01*
X145422168Y-99068910D01*
X145439438Y-99084562D01*
X145455090Y-99101832D01*
X145468974Y-99120552D01*
X145480956Y-99140543D01*
X145490921Y-99161613D01*
X145498773Y-99183557D01*
X145504437Y-99206166D01*
X145507856Y-99229221D01*
X145509000Y-99252500D01*
X145509000Y-99827500D01*
X145507856Y-99850779D01*
X145504437Y-99873834D01*
X145498773Y-99896443D01*
X145490921Y-99918387D01*
X145480956Y-99939457D01*
X145468974Y-99959448D01*
X145455090Y-99978168D01*
X145439438Y-99995438D01*
X145422168Y-100011090D01*
X145403448Y-100024974D01*
X145383457Y-100036956D01*
X145362387Y-100046921D01*
X145340443Y-100054773D01*
X145317834Y-100060437D01*
X145294779Y-100063856D01*
X145271500Y-100065000D01*
X144796500Y-100065000D01*
X144773221Y-100063856D01*
X144750166Y-100060437D01*
X144727557Y-100054773D01*
X144705613Y-100046921D01*
X144684543Y-100036956D01*
X144664552Y-100024974D01*
X144645832Y-100011090D01*
X144628562Y-99995438D01*
X144612910Y-99978168D01*
X144599026Y-99959448D01*
X144587044Y-99939457D01*
X144577079Y-99918387D01*
X144569227Y-99896443D01*
X144563563Y-99873834D01*
X144560144Y-99850779D01*
X144559000Y-99827500D01*
X144559000Y-99252500D01*
X144560144Y-99229221D01*
X144563563Y-99206166D01*
X144569227Y-99183557D01*
X144577079Y-99161613D01*
X144587044Y-99140543D01*
X144599026Y-99120552D01*
X144612910Y-99101832D01*
X144628562Y-99084562D01*
X144645832Y-99068910D01*
X144664552Y-99055026D01*
X144684543Y-99043044D01*
X144705613Y-99033079D01*
X144727557Y-99025227D01*
X144750166Y-99019563D01*
X144773221Y-99016144D01*
X144796500Y-99015000D01*
X145271500Y-99015000D01*
X145294779Y-99016144D01*
X145294779Y-99016144D01*
G37*
D11*
G04 #@! TD*
G04 #@! TO.P,R6,2*
G04 #@! TO.N,Rspeed*
X145034000Y-99540000D03*
D10*
G04 #@! TO.N,Net-(D7-Pad2)*
G04 #@! TO.C,R6*
G36*
X145294779Y-97266144D02*
X145317834Y-97269563D01*
X145340443Y-97275227D01*
X145362387Y-97283079D01*
X145383457Y-97293044D01*
X145403448Y-97305026D01*
X145422168Y-97318910D01*
X145439438Y-97334562D01*
X145455090Y-97351832D01*
X145468974Y-97370552D01*
X145480956Y-97390543D01*
X145490921Y-97411613D01*
X145498773Y-97433557D01*
X145504437Y-97456166D01*
X145507856Y-97479221D01*
X145509000Y-97502500D01*
X145509000Y-98077500D01*
X145507856Y-98100779D01*
X145504437Y-98123834D01*
X145498773Y-98146443D01*
X145490921Y-98168387D01*
X145480956Y-98189457D01*
X145468974Y-98209448D01*
X145455090Y-98228168D01*
X145439438Y-98245438D01*
X145422168Y-98261090D01*
X145403448Y-98274974D01*
X145383457Y-98286956D01*
X145362387Y-98296921D01*
X145340443Y-98304773D01*
X145317834Y-98310437D01*
X145294779Y-98313856D01*
X145271500Y-98315000D01*
X144796500Y-98315000D01*
X144773221Y-98313856D01*
X144750166Y-98310437D01*
X144727557Y-98304773D01*
X144705613Y-98296921D01*
X144684543Y-98286956D01*
X144664552Y-98274974D01*
X144645832Y-98261090D01*
X144628562Y-98245438D01*
X144612910Y-98228168D01*
X144599026Y-98209448D01*
X144587044Y-98189457D01*
X144577079Y-98168387D01*
X144569227Y-98146443D01*
X144563563Y-98123834D01*
X144560144Y-98100779D01*
X144559000Y-98077500D01*
X144559000Y-97502500D01*
X144560144Y-97479221D01*
X144563563Y-97456166D01*
X144569227Y-97433557D01*
X144577079Y-97411613D01*
X144587044Y-97390543D01*
X144599026Y-97370552D01*
X144612910Y-97351832D01*
X144628562Y-97334562D01*
X144645832Y-97318910D01*
X144664552Y-97305026D01*
X144684543Y-97293044D01*
X144705613Y-97283079D01*
X144727557Y-97275227D01*
X144750166Y-97269563D01*
X144773221Y-97266144D01*
X144796500Y-97265000D01*
X145271500Y-97265000D01*
X145294779Y-97266144D01*
X145294779Y-97266144D01*
G37*
D11*
G04 #@! TD*
G04 #@! TO.P,R6,1*
G04 #@! TO.N,Net-(D7-Pad2)*
X145034000Y-97790000D03*
D10*
G04 #@! TO.N,Watchdog*
G04 #@! TO.C,R7*
G36*
X141230779Y-98903144D02*
X141253834Y-98906563D01*
X141276443Y-98912227D01*
X141298387Y-98920079D01*
X141319457Y-98930044D01*
X141339448Y-98942026D01*
X141358168Y-98955910D01*
X141375438Y-98971562D01*
X141391090Y-98988832D01*
X141404974Y-99007552D01*
X141416956Y-99027543D01*
X141426921Y-99048613D01*
X141434773Y-99070557D01*
X141440437Y-99093166D01*
X141443856Y-99116221D01*
X141445000Y-99139500D01*
X141445000Y-99714500D01*
X141443856Y-99737779D01*
X141440437Y-99760834D01*
X141434773Y-99783443D01*
X141426921Y-99805387D01*
X141416956Y-99826457D01*
X141404974Y-99846448D01*
X141391090Y-99865168D01*
X141375438Y-99882438D01*
X141358168Y-99898090D01*
X141339448Y-99911974D01*
X141319457Y-99923956D01*
X141298387Y-99933921D01*
X141276443Y-99941773D01*
X141253834Y-99947437D01*
X141230779Y-99950856D01*
X141207500Y-99952000D01*
X140732500Y-99952000D01*
X140709221Y-99950856D01*
X140686166Y-99947437D01*
X140663557Y-99941773D01*
X140641613Y-99933921D01*
X140620543Y-99923956D01*
X140600552Y-99911974D01*
X140581832Y-99898090D01*
X140564562Y-99882438D01*
X140548910Y-99865168D01*
X140535026Y-99846448D01*
X140523044Y-99826457D01*
X140513079Y-99805387D01*
X140505227Y-99783443D01*
X140499563Y-99760834D01*
X140496144Y-99737779D01*
X140495000Y-99714500D01*
X140495000Y-99139500D01*
X140496144Y-99116221D01*
X140499563Y-99093166D01*
X140505227Y-99070557D01*
X140513079Y-99048613D01*
X140523044Y-99027543D01*
X140535026Y-99007552D01*
X140548910Y-98988832D01*
X140564562Y-98971562D01*
X140581832Y-98955910D01*
X140600552Y-98942026D01*
X140620543Y-98930044D01*
X140641613Y-98920079D01*
X140663557Y-98912227D01*
X140686166Y-98906563D01*
X140709221Y-98903144D01*
X140732500Y-98902000D01*
X141207500Y-98902000D01*
X141230779Y-98903144D01*
X141230779Y-98903144D01*
G37*
D11*
G04 #@! TD*
G04 #@! TO.P,R7,2*
G04 #@! TO.N,Watchdog*
X140970000Y-99427000D03*
D10*
G04 #@! TO.N,Net-(D8-Pad2)*
G04 #@! TO.C,R7*
G36*
X141230779Y-97153144D02*
X141253834Y-97156563D01*
X141276443Y-97162227D01*
X141298387Y-97170079D01*
X141319457Y-97180044D01*
X141339448Y-97192026D01*
X141358168Y-97205910D01*
X141375438Y-97221562D01*
X141391090Y-97238832D01*
X141404974Y-97257552D01*
X141416956Y-97277543D01*
X141426921Y-97298613D01*
X141434773Y-97320557D01*
X141440437Y-97343166D01*
X141443856Y-97366221D01*
X141445000Y-97389500D01*
X141445000Y-97964500D01*
X141443856Y-97987779D01*
X141440437Y-98010834D01*
X141434773Y-98033443D01*
X141426921Y-98055387D01*
X141416956Y-98076457D01*
X141404974Y-98096448D01*
X141391090Y-98115168D01*
X141375438Y-98132438D01*
X141358168Y-98148090D01*
X141339448Y-98161974D01*
X141319457Y-98173956D01*
X141298387Y-98183921D01*
X141276443Y-98191773D01*
X141253834Y-98197437D01*
X141230779Y-98200856D01*
X141207500Y-98202000D01*
X140732500Y-98202000D01*
X140709221Y-98200856D01*
X140686166Y-98197437D01*
X140663557Y-98191773D01*
X140641613Y-98183921D01*
X140620543Y-98173956D01*
X140600552Y-98161974D01*
X140581832Y-98148090D01*
X140564562Y-98132438D01*
X140548910Y-98115168D01*
X140535026Y-98096448D01*
X140523044Y-98076457D01*
X140513079Y-98055387D01*
X140505227Y-98033443D01*
X140499563Y-98010834D01*
X140496144Y-97987779D01*
X140495000Y-97964500D01*
X140495000Y-97389500D01*
X140496144Y-97366221D01*
X140499563Y-97343166D01*
X140505227Y-97320557D01*
X140513079Y-97298613D01*
X140523044Y-97277543D01*
X140535026Y-97257552D01*
X140548910Y-97238832D01*
X140564562Y-97221562D01*
X140581832Y-97205910D01*
X140600552Y-97192026D01*
X140620543Y-97180044D01*
X140641613Y-97170079D01*
X140663557Y-97162227D01*
X140686166Y-97156563D01*
X140709221Y-97153144D01*
X140732500Y-97152000D01*
X141207500Y-97152000D01*
X141230779Y-97153144D01*
X141230779Y-97153144D01*
G37*
D11*
G04 #@! TD*
G04 #@! TO.P,R7,1*
G04 #@! TO.N,Net-(D8-Pad2)*
X140970000Y-97677000D03*
D10*
G04 #@! TO.N,+5V*
G04 #@! TO.C,R1*
G36*
X137166779Y-98903144D02*
X137189834Y-98906563D01*
X137212443Y-98912227D01*
X137234387Y-98920079D01*
X137255457Y-98930044D01*
X137275448Y-98942026D01*
X137294168Y-98955910D01*
X137311438Y-98971562D01*
X137327090Y-98988832D01*
X137340974Y-99007552D01*
X137352956Y-99027543D01*
X137362921Y-99048613D01*
X137370773Y-99070557D01*
X137376437Y-99093166D01*
X137379856Y-99116221D01*
X137381000Y-99139500D01*
X137381000Y-99714500D01*
X137379856Y-99737779D01*
X137376437Y-99760834D01*
X137370773Y-99783443D01*
X137362921Y-99805387D01*
X137352956Y-99826457D01*
X137340974Y-99846448D01*
X137327090Y-99865168D01*
X137311438Y-99882438D01*
X137294168Y-99898090D01*
X137275448Y-99911974D01*
X137255457Y-99923956D01*
X137234387Y-99933921D01*
X137212443Y-99941773D01*
X137189834Y-99947437D01*
X137166779Y-99950856D01*
X137143500Y-99952000D01*
X136668500Y-99952000D01*
X136645221Y-99950856D01*
X136622166Y-99947437D01*
X136599557Y-99941773D01*
X136577613Y-99933921D01*
X136556543Y-99923956D01*
X136536552Y-99911974D01*
X136517832Y-99898090D01*
X136500562Y-99882438D01*
X136484910Y-99865168D01*
X136471026Y-99846448D01*
X136459044Y-99826457D01*
X136449079Y-99805387D01*
X136441227Y-99783443D01*
X136435563Y-99760834D01*
X136432144Y-99737779D01*
X136431000Y-99714500D01*
X136431000Y-99139500D01*
X136432144Y-99116221D01*
X136435563Y-99093166D01*
X136441227Y-99070557D01*
X136449079Y-99048613D01*
X136459044Y-99027543D01*
X136471026Y-99007552D01*
X136484910Y-98988832D01*
X136500562Y-98971562D01*
X136517832Y-98955910D01*
X136536552Y-98942026D01*
X136556543Y-98930044D01*
X136577613Y-98920079D01*
X136599557Y-98912227D01*
X136622166Y-98906563D01*
X136645221Y-98903144D01*
X136668500Y-98902000D01*
X137143500Y-98902000D01*
X137166779Y-98903144D01*
X137166779Y-98903144D01*
G37*
D11*
G04 #@! TD*
G04 #@! TO.P,R1,2*
G04 #@! TO.N,+5V*
X136906000Y-99427000D03*
D10*
G04 #@! TO.N,Net-(D2-Pad2)*
G04 #@! TO.C,R1*
G36*
X137166779Y-97153144D02*
X137189834Y-97156563D01*
X137212443Y-97162227D01*
X137234387Y-97170079D01*
X137255457Y-97180044D01*
X137275448Y-97192026D01*
X137294168Y-97205910D01*
X137311438Y-97221562D01*
X137327090Y-97238832D01*
X137340974Y-97257552D01*
X137352956Y-97277543D01*
X137362921Y-97298613D01*
X137370773Y-97320557D01*
X137376437Y-97343166D01*
X137379856Y-97366221D01*
X137381000Y-97389500D01*
X137381000Y-97964500D01*
X137379856Y-97987779D01*
X137376437Y-98010834D01*
X137370773Y-98033443D01*
X137362921Y-98055387D01*
X137352956Y-98076457D01*
X137340974Y-98096448D01*
X137327090Y-98115168D01*
X137311438Y-98132438D01*
X137294168Y-98148090D01*
X137275448Y-98161974D01*
X137255457Y-98173956D01*
X137234387Y-98183921D01*
X137212443Y-98191773D01*
X137189834Y-98197437D01*
X137166779Y-98200856D01*
X137143500Y-98202000D01*
X136668500Y-98202000D01*
X136645221Y-98200856D01*
X136622166Y-98197437D01*
X136599557Y-98191773D01*
X136577613Y-98183921D01*
X136556543Y-98173956D01*
X136536552Y-98161974D01*
X136517832Y-98148090D01*
X136500562Y-98132438D01*
X136484910Y-98115168D01*
X136471026Y-98096448D01*
X136459044Y-98076457D01*
X136449079Y-98055387D01*
X136441227Y-98033443D01*
X136435563Y-98010834D01*
X136432144Y-97987779D01*
X136431000Y-97964500D01*
X136431000Y-97389500D01*
X136432144Y-97366221D01*
X136435563Y-97343166D01*
X136441227Y-97320557D01*
X136449079Y-97298613D01*
X136459044Y-97277543D01*
X136471026Y-97257552D01*
X136484910Y-97238832D01*
X136500562Y-97221562D01*
X136517832Y-97205910D01*
X136536552Y-97192026D01*
X136556543Y-97180044D01*
X136577613Y-97170079D01*
X136599557Y-97162227D01*
X136622166Y-97156563D01*
X136645221Y-97153144D01*
X136668500Y-97152000D01*
X137143500Y-97152000D01*
X137166779Y-97153144D01*
X137166779Y-97153144D01*
G37*
D11*
G04 #@! TD*
G04 #@! TO.P,R1,1*
G04 #@! TO.N,Net-(D2-Pad2)*
X136906000Y-97677000D03*
D12*
G04 #@! TO.P,Conn2,1*
G04 #@! TO.N,RX_1_SL*
X126238000Y-49022000D03*
G04 #@! TO.P,Conn2,2*
G04 #@! TO.N,TX_1_SL*
X128778000Y-49022000D03*
G04 #@! TO.P,Conn2,3*
G04 #@! TO.N,Net-(Conn2-Pad3)*
X131318000Y-49022000D03*
G04 #@! TO.P,Conn2,4*
G04 #@! TO.N,Net-(Conn2-Pad4)*
X133858000Y-49022000D03*
G04 #@! TO.P,Conn2,5*
G04 #@! TO.N,GND*
X136398000Y-49022000D03*
G04 #@! TD*
G04 #@! TO.P,U3,1*
G04 #@! TO.N,/+12V*
X167132000Y-85852000D03*
G04 #@! TO.P,U3,2*
G04 #@! TO.N,GND*
X167132000Y-83312000D03*
G04 #@! TO.P,U3,3*
G04 #@! TO.N,+5V*
X167132000Y-80772000D03*
G04 #@! TD*
G04 #@! TO.P,Conn3,1*
G04 #@! TO.N,RX_2_SL*
X143510000Y-49022000D03*
G04 #@! TO.P,Conn3,2*
G04 #@! TO.N,TX_2_SL*
X146050000Y-49022000D03*
G04 #@! TO.P,Conn3,3*
G04 #@! TO.N,Net-(Conn3-Pad3)*
X148590000Y-49022000D03*
G04 #@! TO.P,Conn3,4*
G04 #@! TO.N,Net-(Conn3-Pad4)*
X151130000Y-49022000D03*
G04 #@! TO.P,Conn3,5*
G04 #@! TO.N,GND*
X153670000Y-49022000D03*
G04 #@! TD*
G04 #@! TO.P,Conn4,1*
G04 #@! TO.N,RX_3_SL*
X160782000Y-49022000D03*
G04 #@! TO.P,Conn4,2*
G04 #@! TO.N,TX_3_SL*
X163322000Y-49022000D03*
G04 #@! TO.P,Conn4,3*
G04 #@! TO.N,Net-(Conn4-Pad3)*
X165862000Y-49022000D03*
G04 #@! TO.P,Conn4,4*
G04 #@! TO.N,Net-(Conn4-Pad4)*
X168402000Y-49022000D03*
G04 #@! TO.P,Conn4,5*
G04 #@! TO.N,GND*
X170942000Y-49022000D03*
G04 #@! TD*
D10*
G04 #@! TO.N,+5V*
G04 #@! TO.C,C1*
G36*
X127755050Y-83746307D02*
X127778105Y-83749726D01*
X127800714Y-83755390D01*
X127822658Y-83763242D01*
X127843728Y-83773207D01*
X127863719Y-83785189D01*
X127882439Y-83799073D01*
X127899709Y-83814725D01*
X127915361Y-83831995D01*
X127929245Y-83850715D01*
X127941227Y-83870706D01*
X127951192Y-83891776D01*
X127959044Y-83913720D01*
X127964708Y-83936329D01*
X127968127Y-83959384D01*
X127969271Y-83982663D01*
X127969271Y-84557663D01*
X127968127Y-84580942D01*
X127964708Y-84603997D01*
X127959044Y-84626606D01*
X127951192Y-84648550D01*
X127941227Y-84669620D01*
X127929245Y-84689611D01*
X127915361Y-84708331D01*
X127899709Y-84725601D01*
X127882439Y-84741253D01*
X127863719Y-84755137D01*
X127843728Y-84767119D01*
X127822658Y-84777084D01*
X127800714Y-84784936D01*
X127778105Y-84790600D01*
X127755050Y-84794019D01*
X127731771Y-84795163D01*
X127256771Y-84795163D01*
X127233492Y-84794019D01*
X127210437Y-84790600D01*
X127187828Y-84784936D01*
X127165884Y-84777084D01*
X127144814Y-84767119D01*
X127124823Y-84755137D01*
X127106103Y-84741253D01*
X127088833Y-84725601D01*
X127073181Y-84708331D01*
X127059297Y-84689611D01*
X127047315Y-84669620D01*
X127037350Y-84648550D01*
X127029498Y-84626606D01*
X127023834Y-84603997D01*
X127020415Y-84580942D01*
X127019271Y-84557663D01*
X127019271Y-83982663D01*
X127020415Y-83959384D01*
X127023834Y-83936329D01*
X127029498Y-83913720D01*
X127037350Y-83891776D01*
X127047315Y-83870706D01*
X127059297Y-83850715D01*
X127073181Y-83831995D01*
X127088833Y-83814725D01*
X127106103Y-83799073D01*
X127124823Y-83785189D01*
X127144814Y-83773207D01*
X127165884Y-83763242D01*
X127187828Y-83755390D01*
X127210437Y-83749726D01*
X127233492Y-83746307D01*
X127256771Y-83745163D01*
X127731771Y-83745163D01*
X127755050Y-83746307D01*
X127755050Y-83746307D01*
G37*
D11*
G04 #@! TD*
G04 #@! TO.P,C1,2*
G04 #@! TO.N,+5V*
X127494271Y-84270163D03*
D10*
G04 #@! TO.N,GND*
G04 #@! TO.C,C1*
G36*
X127755050Y-81996307D02*
X127778105Y-81999726D01*
X127800714Y-82005390D01*
X127822658Y-82013242D01*
X127843728Y-82023207D01*
X127863719Y-82035189D01*
X127882439Y-82049073D01*
X127899709Y-82064725D01*
X127915361Y-82081995D01*
X127929245Y-82100715D01*
X127941227Y-82120706D01*
X127951192Y-82141776D01*
X127959044Y-82163720D01*
X127964708Y-82186329D01*
X127968127Y-82209384D01*
X127969271Y-82232663D01*
X127969271Y-82807663D01*
X127968127Y-82830942D01*
X127964708Y-82853997D01*
X127959044Y-82876606D01*
X127951192Y-82898550D01*
X127941227Y-82919620D01*
X127929245Y-82939611D01*
X127915361Y-82958331D01*
X127899709Y-82975601D01*
X127882439Y-82991253D01*
X127863719Y-83005137D01*
X127843728Y-83017119D01*
X127822658Y-83027084D01*
X127800714Y-83034936D01*
X127778105Y-83040600D01*
X127755050Y-83044019D01*
X127731771Y-83045163D01*
X127256771Y-83045163D01*
X127233492Y-83044019D01*
X127210437Y-83040600D01*
X127187828Y-83034936D01*
X127165884Y-83027084D01*
X127144814Y-83017119D01*
X127124823Y-83005137D01*
X127106103Y-82991253D01*
X127088833Y-82975601D01*
X127073181Y-82958331D01*
X127059297Y-82939611D01*
X127047315Y-82919620D01*
X127037350Y-82898550D01*
X127029498Y-82876606D01*
X127023834Y-82853997D01*
X127020415Y-82830942D01*
X127019271Y-82807663D01*
X127019271Y-82232663D01*
X127020415Y-82209384D01*
X127023834Y-82186329D01*
X127029498Y-82163720D01*
X127037350Y-82141776D01*
X127047315Y-82120706D01*
X127059297Y-82100715D01*
X127073181Y-82081995D01*
X127088833Y-82064725D01*
X127106103Y-82049073D01*
X127124823Y-82035189D01*
X127144814Y-82023207D01*
X127165884Y-82013242D01*
X127187828Y-82005390D01*
X127210437Y-81999726D01*
X127233492Y-81996307D01*
X127256771Y-81995163D01*
X127731771Y-81995163D01*
X127755050Y-81996307D01*
X127755050Y-81996307D01*
G37*
D11*
G04 #@! TD*
G04 #@! TO.P,C1,1*
G04 #@! TO.N,GND*
X127494271Y-82520163D03*
D10*
G04 #@! TO.N,+5V*
G04 #@! TO.C,C2*
G36*
X177298779Y-60069144D02*
X177321834Y-60072563D01*
X177344443Y-60078227D01*
X177366387Y-60086079D01*
X177387457Y-60096044D01*
X177407448Y-60108026D01*
X177426168Y-60121910D01*
X177443438Y-60137562D01*
X177459090Y-60154832D01*
X177472974Y-60173552D01*
X177484956Y-60193543D01*
X177494921Y-60214613D01*
X177502773Y-60236557D01*
X177508437Y-60259166D01*
X177511856Y-60282221D01*
X177513000Y-60305500D01*
X177513000Y-60880500D01*
X177511856Y-60903779D01*
X177508437Y-60926834D01*
X177502773Y-60949443D01*
X177494921Y-60971387D01*
X177484956Y-60992457D01*
X177472974Y-61012448D01*
X177459090Y-61031168D01*
X177443438Y-61048438D01*
X177426168Y-61064090D01*
X177407448Y-61077974D01*
X177387457Y-61089956D01*
X177366387Y-61099921D01*
X177344443Y-61107773D01*
X177321834Y-61113437D01*
X177298779Y-61116856D01*
X177275500Y-61118000D01*
X176800500Y-61118000D01*
X176777221Y-61116856D01*
X176754166Y-61113437D01*
X176731557Y-61107773D01*
X176709613Y-61099921D01*
X176688543Y-61089956D01*
X176668552Y-61077974D01*
X176649832Y-61064090D01*
X176632562Y-61048438D01*
X176616910Y-61031168D01*
X176603026Y-61012448D01*
X176591044Y-60992457D01*
X176581079Y-60971387D01*
X176573227Y-60949443D01*
X176567563Y-60926834D01*
X176564144Y-60903779D01*
X176563000Y-60880500D01*
X176563000Y-60305500D01*
X176564144Y-60282221D01*
X176567563Y-60259166D01*
X176573227Y-60236557D01*
X176581079Y-60214613D01*
X176591044Y-60193543D01*
X176603026Y-60173552D01*
X176616910Y-60154832D01*
X176632562Y-60137562D01*
X176649832Y-60121910D01*
X176668552Y-60108026D01*
X176688543Y-60096044D01*
X176709613Y-60086079D01*
X176731557Y-60078227D01*
X176754166Y-60072563D01*
X176777221Y-60069144D01*
X176800500Y-60068000D01*
X177275500Y-60068000D01*
X177298779Y-60069144D01*
X177298779Y-60069144D01*
G37*
D11*
G04 #@! TD*
G04 #@! TO.P,C2,2*
G04 #@! TO.N,+5V*
X177038000Y-60593000D03*
D10*
G04 #@! TO.N,GND*
G04 #@! TO.C,C2*
G36*
X177298779Y-61819144D02*
X177321834Y-61822563D01*
X177344443Y-61828227D01*
X177366387Y-61836079D01*
X177387457Y-61846044D01*
X177407448Y-61858026D01*
X177426168Y-61871910D01*
X177443438Y-61887562D01*
X177459090Y-61904832D01*
X177472974Y-61923552D01*
X177484956Y-61943543D01*
X177494921Y-61964613D01*
X177502773Y-61986557D01*
X177508437Y-62009166D01*
X177511856Y-62032221D01*
X177513000Y-62055500D01*
X177513000Y-62630500D01*
X177511856Y-62653779D01*
X177508437Y-62676834D01*
X177502773Y-62699443D01*
X177494921Y-62721387D01*
X177484956Y-62742457D01*
X177472974Y-62762448D01*
X177459090Y-62781168D01*
X177443438Y-62798438D01*
X177426168Y-62814090D01*
X177407448Y-62827974D01*
X177387457Y-62839956D01*
X177366387Y-62849921D01*
X177344443Y-62857773D01*
X177321834Y-62863437D01*
X177298779Y-62866856D01*
X177275500Y-62868000D01*
X176800500Y-62868000D01*
X176777221Y-62866856D01*
X176754166Y-62863437D01*
X176731557Y-62857773D01*
X176709613Y-62849921D01*
X176688543Y-62839956D01*
X176668552Y-62827974D01*
X176649832Y-62814090D01*
X176632562Y-62798438D01*
X176616910Y-62781168D01*
X176603026Y-62762448D01*
X176591044Y-62742457D01*
X176581079Y-62721387D01*
X176573227Y-62699443D01*
X176567563Y-62676834D01*
X176564144Y-62653779D01*
X176563000Y-62630500D01*
X176563000Y-62055500D01*
X176564144Y-62032221D01*
X176567563Y-62009166D01*
X176573227Y-61986557D01*
X176581079Y-61964613D01*
X176591044Y-61943543D01*
X176603026Y-61923552D01*
X176616910Y-61904832D01*
X176632562Y-61887562D01*
X176649832Y-61871910D01*
X176668552Y-61858026D01*
X176688543Y-61846044D01*
X176709613Y-61836079D01*
X176731557Y-61828227D01*
X176754166Y-61822563D01*
X176777221Y-61819144D01*
X176800500Y-61818000D01*
X177275500Y-61818000D01*
X177298779Y-61819144D01*
X177298779Y-61819144D01*
G37*
D11*
G04 #@! TD*
G04 #@! TO.P,C2,1*
G04 #@! TO.N,GND*
X177038000Y-62343000D03*
D10*
G04 #@! TO.N,Net-(C3-Pad2)*
G04 #@! TO.C,C3*
G36*
X135058050Y-85715307D02*
X135081105Y-85718726D01*
X135103714Y-85724390D01*
X135125658Y-85732242D01*
X135146728Y-85742207D01*
X135166719Y-85754189D01*
X135185439Y-85768073D01*
X135202709Y-85783725D01*
X135218361Y-85800995D01*
X135232245Y-85819715D01*
X135244227Y-85839706D01*
X135254192Y-85860776D01*
X135262044Y-85882720D01*
X135267708Y-85905329D01*
X135271127Y-85928384D01*
X135272271Y-85951663D01*
X135272271Y-86426663D01*
X135271127Y-86449942D01*
X135267708Y-86472997D01*
X135262044Y-86495606D01*
X135254192Y-86517550D01*
X135244227Y-86538620D01*
X135232245Y-86558611D01*
X135218361Y-86577331D01*
X135202709Y-86594601D01*
X135185439Y-86610253D01*
X135166719Y-86624137D01*
X135146728Y-86636119D01*
X135125658Y-86646084D01*
X135103714Y-86653936D01*
X135081105Y-86659600D01*
X135058050Y-86663019D01*
X135034771Y-86664163D01*
X134459771Y-86664163D01*
X134436492Y-86663019D01*
X134413437Y-86659600D01*
X134390828Y-86653936D01*
X134368884Y-86646084D01*
X134347814Y-86636119D01*
X134327823Y-86624137D01*
X134309103Y-86610253D01*
X134291833Y-86594601D01*
X134276181Y-86577331D01*
X134262297Y-86558611D01*
X134250315Y-86538620D01*
X134240350Y-86517550D01*
X134232498Y-86495606D01*
X134226834Y-86472997D01*
X134223415Y-86449942D01*
X134222271Y-86426663D01*
X134222271Y-85951663D01*
X134223415Y-85928384D01*
X134226834Y-85905329D01*
X134232498Y-85882720D01*
X134240350Y-85860776D01*
X134250315Y-85839706D01*
X134262297Y-85819715D01*
X134276181Y-85800995D01*
X134291833Y-85783725D01*
X134309103Y-85768073D01*
X134327823Y-85754189D01*
X134347814Y-85742207D01*
X134368884Y-85732242D01*
X134390828Y-85724390D01*
X134413437Y-85718726D01*
X134436492Y-85715307D01*
X134459771Y-85714163D01*
X135034771Y-85714163D01*
X135058050Y-85715307D01*
X135058050Y-85715307D01*
G37*
D11*
G04 #@! TD*
G04 #@! TO.P,C3,2*
G04 #@! TO.N,Net-(C3-Pad2)*
X134747271Y-86189163D03*
D10*
G04 #@! TO.N,GND*
G04 #@! TO.C,C3*
G36*
X136808050Y-85715307D02*
X136831105Y-85718726D01*
X136853714Y-85724390D01*
X136875658Y-85732242D01*
X136896728Y-85742207D01*
X136916719Y-85754189D01*
X136935439Y-85768073D01*
X136952709Y-85783725D01*
X136968361Y-85800995D01*
X136982245Y-85819715D01*
X136994227Y-85839706D01*
X137004192Y-85860776D01*
X137012044Y-85882720D01*
X137017708Y-85905329D01*
X137021127Y-85928384D01*
X137022271Y-85951663D01*
X137022271Y-86426663D01*
X137021127Y-86449942D01*
X137017708Y-86472997D01*
X137012044Y-86495606D01*
X137004192Y-86517550D01*
X136994227Y-86538620D01*
X136982245Y-86558611D01*
X136968361Y-86577331D01*
X136952709Y-86594601D01*
X136935439Y-86610253D01*
X136916719Y-86624137D01*
X136896728Y-86636119D01*
X136875658Y-86646084D01*
X136853714Y-86653936D01*
X136831105Y-86659600D01*
X136808050Y-86663019D01*
X136784771Y-86664163D01*
X136209771Y-86664163D01*
X136186492Y-86663019D01*
X136163437Y-86659600D01*
X136140828Y-86653936D01*
X136118884Y-86646084D01*
X136097814Y-86636119D01*
X136077823Y-86624137D01*
X136059103Y-86610253D01*
X136041833Y-86594601D01*
X136026181Y-86577331D01*
X136012297Y-86558611D01*
X136000315Y-86538620D01*
X135990350Y-86517550D01*
X135982498Y-86495606D01*
X135976834Y-86472997D01*
X135973415Y-86449942D01*
X135972271Y-86426663D01*
X135972271Y-85951663D01*
X135973415Y-85928384D01*
X135976834Y-85905329D01*
X135982498Y-85882720D01*
X135990350Y-85860776D01*
X136000315Y-85839706D01*
X136012297Y-85819715D01*
X136026181Y-85800995D01*
X136041833Y-85783725D01*
X136059103Y-85768073D01*
X136077823Y-85754189D01*
X136097814Y-85742207D01*
X136118884Y-85732242D01*
X136140828Y-85724390D01*
X136163437Y-85718726D01*
X136186492Y-85715307D01*
X136209771Y-85714163D01*
X136784771Y-85714163D01*
X136808050Y-85715307D01*
X136808050Y-85715307D01*
G37*
D11*
G04 #@! TD*
G04 #@! TO.P,C3,1*
G04 #@! TO.N,GND*
X136497271Y-86189163D03*
D10*
G04 #@! TO.N,GND*
G04 #@! TO.C,C4*
G36*
X139693050Y-74630307D02*
X139716105Y-74633726D01*
X139738714Y-74639390D01*
X139760658Y-74647242D01*
X139781728Y-74657207D01*
X139801719Y-74669189D01*
X139820439Y-74683073D01*
X139837709Y-74698725D01*
X139853361Y-74715995D01*
X139867245Y-74734715D01*
X139879227Y-74754706D01*
X139889192Y-74775776D01*
X139897044Y-74797720D01*
X139902708Y-74820329D01*
X139906127Y-74843384D01*
X139907271Y-74866663D01*
X139907271Y-75441663D01*
X139906127Y-75464942D01*
X139902708Y-75487997D01*
X139897044Y-75510606D01*
X139889192Y-75532550D01*
X139879227Y-75553620D01*
X139867245Y-75573611D01*
X139853361Y-75592331D01*
X139837709Y-75609601D01*
X139820439Y-75625253D01*
X139801719Y-75639137D01*
X139781728Y-75651119D01*
X139760658Y-75661084D01*
X139738714Y-75668936D01*
X139716105Y-75674600D01*
X139693050Y-75678019D01*
X139669771Y-75679163D01*
X139194771Y-75679163D01*
X139171492Y-75678019D01*
X139148437Y-75674600D01*
X139125828Y-75668936D01*
X139103884Y-75661084D01*
X139082814Y-75651119D01*
X139062823Y-75639137D01*
X139044103Y-75625253D01*
X139026833Y-75609601D01*
X139011181Y-75592331D01*
X138997297Y-75573611D01*
X138985315Y-75553620D01*
X138975350Y-75532550D01*
X138967498Y-75510606D01*
X138961834Y-75487997D01*
X138958415Y-75464942D01*
X138957271Y-75441663D01*
X138957271Y-74866663D01*
X138958415Y-74843384D01*
X138961834Y-74820329D01*
X138967498Y-74797720D01*
X138975350Y-74775776D01*
X138985315Y-74754706D01*
X138997297Y-74734715D01*
X139011181Y-74715995D01*
X139026833Y-74698725D01*
X139044103Y-74683073D01*
X139062823Y-74669189D01*
X139082814Y-74657207D01*
X139103884Y-74647242D01*
X139125828Y-74639390D01*
X139148437Y-74633726D01*
X139171492Y-74630307D01*
X139194771Y-74629163D01*
X139669771Y-74629163D01*
X139693050Y-74630307D01*
X139693050Y-74630307D01*
G37*
D11*
G04 #@! TD*
G04 #@! TO.P,C4,1*
G04 #@! TO.N,GND*
X139432271Y-75154163D03*
D10*
G04 #@! TO.N,Net-(C4-Pad2)*
G04 #@! TO.C,C4*
G36*
X139693050Y-76380307D02*
X139716105Y-76383726D01*
X139738714Y-76389390D01*
X139760658Y-76397242D01*
X139781728Y-76407207D01*
X139801719Y-76419189D01*
X139820439Y-76433073D01*
X139837709Y-76448725D01*
X139853361Y-76465995D01*
X139867245Y-76484715D01*
X139879227Y-76504706D01*
X139889192Y-76525776D01*
X139897044Y-76547720D01*
X139902708Y-76570329D01*
X139906127Y-76593384D01*
X139907271Y-76616663D01*
X139907271Y-77191663D01*
X139906127Y-77214942D01*
X139902708Y-77237997D01*
X139897044Y-77260606D01*
X139889192Y-77282550D01*
X139879227Y-77303620D01*
X139867245Y-77323611D01*
X139853361Y-77342331D01*
X139837709Y-77359601D01*
X139820439Y-77375253D01*
X139801719Y-77389137D01*
X139781728Y-77401119D01*
X139760658Y-77411084D01*
X139738714Y-77418936D01*
X139716105Y-77424600D01*
X139693050Y-77428019D01*
X139669771Y-77429163D01*
X139194771Y-77429163D01*
X139171492Y-77428019D01*
X139148437Y-77424600D01*
X139125828Y-77418936D01*
X139103884Y-77411084D01*
X139082814Y-77401119D01*
X139062823Y-77389137D01*
X139044103Y-77375253D01*
X139026833Y-77359601D01*
X139011181Y-77342331D01*
X138997297Y-77323611D01*
X138985315Y-77303620D01*
X138975350Y-77282550D01*
X138967498Y-77260606D01*
X138961834Y-77237997D01*
X138958415Y-77214942D01*
X138957271Y-77191663D01*
X138957271Y-76616663D01*
X138958415Y-76593384D01*
X138961834Y-76570329D01*
X138967498Y-76547720D01*
X138975350Y-76525776D01*
X138985315Y-76504706D01*
X138997297Y-76484715D01*
X139011181Y-76465995D01*
X139026833Y-76448725D01*
X139044103Y-76433073D01*
X139062823Y-76419189D01*
X139082814Y-76407207D01*
X139103884Y-76397242D01*
X139125828Y-76389390D01*
X139148437Y-76383726D01*
X139171492Y-76380307D01*
X139194771Y-76379163D01*
X139669771Y-76379163D01*
X139693050Y-76380307D01*
X139693050Y-76380307D01*
G37*
D11*
G04 #@! TD*
G04 #@! TO.P,C4,2*
G04 #@! TO.N,Net-(C4-Pad2)*
X139432271Y-76904163D03*
D10*
G04 #@! TO.N,Net-(C5-Pad2)*
G04 #@! TO.C,C5*
G36*
X169841779Y-58454144D02*
X169864834Y-58457563D01*
X169887443Y-58463227D01*
X169909387Y-58471079D01*
X169930457Y-58481044D01*
X169950448Y-58493026D01*
X169969168Y-58506910D01*
X169986438Y-58522562D01*
X170002090Y-58539832D01*
X170015974Y-58558552D01*
X170027956Y-58578543D01*
X170037921Y-58599613D01*
X170045773Y-58621557D01*
X170051437Y-58644166D01*
X170054856Y-58667221D01*
X170056000Y-58690500D01*
X170056000Y-59165500D01*
X170054856Y-59188779D01*
X170051437Y-59211834D01*
X170045773Y-59234443D01*
X170037921Y-59256387D01*
X170027956Y-59277457D01*
X170015974Y-59297448D01*
X170002090Y-59316168D01*
X169986438Y-59333438D01*
X169969168Y-59349090D01*
X169950448Y-59362974D01*
X169930457Y-59374956D01*
X169909387Y-59384921D01*
X169887443Y-59392773D01*
X169864834Y-59398437D01*
X169841779Y-59401856D01*
X169818500Y-59403000D01*
X169243500Y-59403000D01*
X169220221Y-59401856D01*
X169197166Y-59398437D01*
X169174557Y-59392773D01*
X169152613Y-59384921D01*
X169131543Y-59374956D01*
X169111552Y-59362974D01*
X169092832Y-59349090D01*
X169075562Y-59333438D01*
X169059910Y-59316168D01*
X169046026Y-59297448D01*
X169034044Y-59277457D01*
X169024079Y-59256387D01*
X169016227Y-59234443D01*
X169010563Y-59211834D01*
X169007144Y-59188779D01*
X169006000Y-59165500D01*
X169006000Y-58690500D01*
X169007144Y-58667221D01*
X169010563Y-58644166D01*
X169016227Y-58621557D01*
X169024079Y-58599613D01*
X169034044Y-58578543D01*
X169046026Y-58558552D01*
X169059910Y-58539832D01*
X169075562Y-58522562D01*
X169092832Y-58506910D01*
X169111552Y-58493026D01*
X169131543Y-58481044D01*
X169152613Y-58471079D01*
X169174557Y-58463227D01*
X169197166Y-58457563D01*
X169220221Y-58454144D01*
X169243500Y-58453000D01*
X169818500Y-58453000D01*
X169841779Y-58454144D01*
X169841779Y-58454144D01*
G37*
D11*
G04 #@! TD*
G04 #@! TO.P,C5,2*
G04 #@! TO.N,Net-(C5-Pad2)*
X169531000Y-58928000D03*
D10*
G04 #@! TO.N,GND*
G04 #@! TO.C,C5*
G36*
X168091779Y-58454144D02*
X168114834Y-58457563D01*
X168137443Y-58463227D01*
X168159387Y-58471079D01*
X168180457Y-58481044D01*
X168200448Y-58493026D01*
X168219168Y-58506910D01*
X168236438Y-58522562D01*
X168252090Y-58539832D01*
X168265974Y-58558552D01*
X168277956Y-58578543D01*
X168287921Y-58599613D01*
X168295773Y-58621557D01*
X168301437Y-58644166D01*
X168304856Y-58667221D01*
X168306000Y-58690500D01*
X168306000Y-59165500D01*
X168304856Y-59188779D01*
X168301437Y-59211834D01*
X168295773Y-59234443D01*
X168287921Y-59256387D01*
X168277956Y-59277457D01*
X168265974Y-59297448D01*
X168252090Y-59316168D01*
X168236438Y-59333438D01*
X168219168Y-59349090D01*
X168200448Y-59362974D01*
X168180457Y-59374956D01*
X168159387Y-59384921D01*
X168137443Y-59392773D01*
X168114834Y-59398437D01*
X168091779Y-59401856D01*
X168068500Y-59403000D01*
X167493500Y-59403000D01*
X167470221Y-59401856D01*
X167447166Y-59398437D01*
X167424557Y-59392773D01*
X167402613Y-59384921D01*
X167381543Y-59374956D01*
X167361552Y-59362974D01*
X167342832Y-59349090D01*
X167325562Y-59333438D01*
X167309910Y-59316168D01*
X167296026Y-59297448D01*
X167284044Y-59277457D01*
X167274079Y-59256387D01*
X167266227Y-59234443D01*
X167260563Y-59211834D01*
X167257144Y-59188779D01*
X167256000Y-59165500D01*
X167256000Y-58690500D01*
X167257144Y-58667221D01*
X167260563Y-58644166D01*
X167266227Y-58621557D01*
X167274079Y-58599613D01*
X167284044Y-58578543D01*
X167296026Y-58558552D01*
X167309910Y-58539832D01*
X167325562Y-58522562D01*
X167342832Y-58506910D01*
X167361552Y-58493026D01*
X167381543Y-58481044D01*
X167402613Y-58471079D01*
X167424557Y-58463227D01*
X167447166Y-58457563D01*
X167470221Y-58454144D01*
X167493500Y-58453000D01*
X168068500Y-58453000D01*
X168091779Y-58454144D01*
X168091779Y-58454144D01*
G37*
D11*
G04 #@! TD*
G04 #@! TO.P,C5,1*
G04 #@! TO.N,GND*
X167781000Y-58928000D03*
D10*
G04 #@! TO.N,GND*
G04 #@! TO.C,C6*
G36*
X164598779Y-69439144D02*
X164621834Y-69442563D01*
X164644443Y-69448227D01*
X164666387Y-69456079D01*
X164687457Y-69466044D01*
X164707448Y-69478026D01*
X164726168Y-69491910D01*
X164743438Y-69507562D01*
X164759090Y-69524832D01*
X164772974Y-69543552D01*
X164784956Y-69563543D01*
X164794921Y-69584613D01*
X164802773Y-69606557D01*
X164808437Y-69629166D01*
X164811856Y-69652221D01*
X164813000Y-69675500D01*
X164813000Y-70250500D01*
X164811856Y-70273779D01*
X164808437Y-70296834D01*
X164802773Y-70319443D01*
X164794921Y-70341387D01*
X164784956Y-70362457D01*
X164772974Y-70382448D01*
X164759090Y-70401168D01*
X164743438Y-70418438D01*
X164726168Y-70434090D01*
X164707448Y-70447974D01*
X164687457Y-70459956D01*
X164666387Y-70469921D01*
X164644443Y-70477773D01*
X164621834Y-70483437D01*
X164598779Y-70486856D01*
X164575500Y-70488000D01*
X164100500Y-70488000D01*
X164077221Y-70486856D01*
X164054166Y-70483437D01*
X164031557Y-70477773D01*
X164009613Y-70469921D01*
X163988543Y-70459956D01*
X163968552Y-70447974D01*
X163949832Y-70434090D01*
X163932562Y-70418438D01*
X163916910Y-70401168D01*
X163903026Y-70382448D01*
X163891044Y-70362457D01*
X163881079Y-70341387D01*
X163873227Y-70319443D01*
X163867563Y-70296834D01*
X163864144Y-70273779D01*
X163863000Y-70250500D01*
X163863000Y-69675500D01*
X163864144Y-69652221D01*
X163867563Y-69629166D01*
X163873227Y-69606557D01*
X163881079Y-69584613D01*
X163891044Y-69563543D01*
X163903026Y-69543552D01*
X163916910Y-69524832D01*
X163932562Y-69507562D01*
X163949832Y-69491910D01*
X163968552Y-69478026D01*
X163988543Y-69466044D01*
X164009613Y-69456079D01*
X164031557Y-69448227D01*
X164054166Y-69442563D01*
X164077221Y-69439144D01*
X164100500Y-69438000D01*
X164575500Y-69438000D01*
X164598779Y-69439144D01*
X164598779Y-69439144D01*
G37*
D11*
G04 #@! TD*
G04 #@! TO.P,C6,1*
G04 #@! TO.N,GND*
X164338000Y-69963000D03*
D10*
G04 #@! TO.N,Net-(C6-Pad2)*
G04 #@! TO.C,C6*
G36*
X164598779Y-67689144D02*
X164621834Y-67692563D01*
X164644443Y-67698227D01*
X164666387Y-67706079D01*
X164687457Y-67716044D01*
X164707448Y-67728026D01*
X164726168Y-67741910D01*
X164743438Y-67757562D01*
X164759090Y-67774832D01*
X164772974Y-67793552D01*
X164784956Y-67813543D01*
X164794921Y-67834613D01*
X164802773Y-67856557D01*
X164808437Y-67879166D01*
X164811856Y-67902221D01*
X164813000Y-67925500D01*
X164813000Y-68500500D01*
X164811856Y-68523779D01*
X164808437Y-68546834D01*
X164802773Y-68569443D01*
X164794921Y-68591387D01*
X164784956Y-68612457D01*
X164772974Y-68632448D01*
X164759090Y-68651168D01*
X164743438Y-68668438D01*
X164726168Y-68684090D01*
X164707448Y-68697974D01*
X164687457Y-68709956D01*
X164666387Y-68719921D01*
X164644443Y-68727773D01*
X164621834Y-68733437D01*
X164598779Y-68736856D01*
X164575500Y-68738000D01*
X164100500Y-68738000D01*
X164077221Y-68736856D01*
X164054166Y-68733437D01*
X164031557Y-68727773D01*
X164009613Y-68719921D01*
X163988543Y-68709956D01*
X163968552Y-68697974D01*
X163949832Y-68684090D01*
X163932562Y-68668438D01*
X163916910Y-68651168D01*
X163903026Y-68632448D01*
X163891044Y-68612457D01*
X163881079Y-68591387D01*
X163873227Y-68569443D01*
X163867563Y-68546834D01*
X163864144Y-68523779D01*
X163863000Y-68500500D01*
X163863000Y-67925500D01*
X163864144Y-67902221D01*
X163867563Y-67879166D01*
X163873227Y-67856557D01*
X163881079Y-67834613D01*
X163891044Y-67813543D01*
X163903026Y-67793552D01*
X163916910Y-67774832D01*
X163932562Y-67757562D01*
X163949832Y-67741910D01*
X163968552Y-67728026D01*
X163988543Y-67716044D01*
X164009613Y-67706079D01*
X164031557Y-67698227D01*
X164054166Y-67692563D01*
X164077221Y-67689144D01*
X164100500Y-67688000D01*
X164575500Y-67688000D01*
X164598779Y-67689144D01*
X164598779Y-67689144D01*
G37*
D11*
G04 #@! TD*
G04 #@! TO.P,C6,2*
G04 #@! TO.N,Net-(C6-Pad2)*
X164338000Y-68213000D03*
D10*
G04 #@! TO.N,/+12V*
G04 #@! TO.C,C7*
G36*
X164344779Y-85215144D02*
X164367834Y-85218563D01*
X164390443Y-85224227D01*
X164412387Y-85232079D01*
X164433457Y-85242044D01*
X164453448Y-85254026D01*
X164472168Y-85267910D01*
X164489438Y-85283562D01*
X164505090Y-85300832D01*
X164518974Y-85319552D01*
X164530956Y-85339543D01*
X164540921Y-85360613D01*
X164548773Y-85382557D01*
X164554437Y-85405166D01*
X164557856Y-85428221D01*
X164559000Y-85451500D01*
X164559000Y-86026500D01*
X164557856Y-86049779D01*
X164554437Y-86072834D01*
X164548773Y-86095443D01*
X164540921Y-86117387D01*
X164530956Y-86138457D01*
X164518974Y-86158448D01*
X164505090Y-86177168D01*
X164489438Y-86194438D01*
X164472168Y-86210090D01*
X164453448Y-86223974D01*
X164433457Y-86235956D01*
X164412387Y-86245921D01*
X164390443Y-86253773D01*
X164367834Y-86259437D01*
X164344779Y-86262856D01*
X164321500Y-86264000D01*
X163846500Y-86264000D01*
X163823221Y-86262856D01*
X163800166Y-86259437D01*
X163777557Y-86253773D01*
X163755613Y-86245921D01*
X163734543Y-86235956D01*
X163714552Y-86223974D01*
X163695832Y-86210090D01*
X163678562Y-86194438D01*
X163662910Y-86177168D01*
X163649026Y-86158448D01*
X163637044Y-86138457D01*
X163627079Y-86117387D01*
X163619227Y-86095443D01*
X163613563Y-86072834D01*
X163610144Y-86049779D01*
X163609000Y-86026500D01*
X163609000Y-85451500D01*
X163610144Y-85428221D01*
X163613563Y-85405166D01*
X163619227Y-85382557D01*
X163627079Y-85360613D01*
X163637044Y-85339543D01*
X163649026Y-85319552D01*
X163662910Y-85300832D01*
X163678562Y-85283562D01*
X163695832Y-85267910D01*
X163714552Y-85254026D01*
X163734543Y-85242044D01*
X163755613Y-85232079D01*
X163777557Y-85224227D01*
X163800166Y-85218563D01*
X163823221Y-85215144D01*
X163846500Y-85214000D01*
X164321500Y-85214000D01*
X164344779Y-85215144D01*
X164344779Y-85215144D01*
G37*
D11*
G04 #@! TD*
G04 #@! TO.P,C7,1*
G04 #@! TO.N,/+12V*
X164084000Y-85739000D03*
D10*
G04 #@! TO.N,GND*
G04 #@! TO.C,C7*
G36*
X164344779Y-86965144D02*
X164367834Y-86968563D01*
X164390443Y-86974227D01*
X164412387Y-86982079D01*
X164433457Y-86992044D01*
X164453448Y-87004026D01*
X164472168Y-87017910D01*
X164489438Y-87033562D01*
X164505090Y-87050832D01*
X164518974Y-87069552D01*
X164530956Y-87089543D01*
X164540921Y-87110613D01*
X164548773Y-87132557D01*
X164554437Y-87155166D01*
X164557856Y-87178221D01*
X164559000Y-87201500D01*
X164559000Y-87776500D01*
X164557856Y-87799779D01*
X164554437Y-87822834D01*
X164548773Y-87845443D01*
X164540921Y-87867387D01*
X164530956Y-87888457D01*
X164518974Y-87908448D01*
X164505090Y-87927168D01*
X164489438Y-87944438D01*
X164472168Y-87960090D01*
X164453448Y-87973974D01*
X164433457Y-87985956D01*
X164412387Y-87995921D01*
X164390443Y-88003773D01*
X164367834Y-88009437D01*
X164344779Y-88012856D01*
X164321500Y-88014000D01*
X163846500Y-88014000D01*
X163823221Y-88012856D01*
X163800166Y-88009437D01*
X163777557Y-88003773D01*
X163755613Y-87995921D01*
X163734543Y-87985956D01*
X163714552Y-87973974D01*
X163695832Y-87960090D01*
X163678562Y-87944438D01*
X163662910Y-87927168D01*
X163649026Y-87908448D01*
X163637044Y-87888457D01*
X163627079Y-87867387D01*
X163619227Y-87845443D01*
X163613563Y-87822834D01*
X163610144Y-87799779D01*
X163609000Y-87776500D01*
X163609000Y-87201500D01*
X163610144Y-87178221D01*
X163613563Y-87155166D01*
X163619227Y-87132557D01*
X163627079Y-87110613D01*
X163637044Y-87089543D01*
X163649026Y-87069552D01*
X163662910Y-87050832D01*
X163678562Y-87033562D01*
X163695832Y-87017910D01*
X163714552Y-87004026D01*
X163734543Y-86992044D01*
X163755613Y-86982079D01*
X163777557Y-86974227D01*
X163800166Y-86968563D01*
X163823221Y-86965144D01*
X163846500Y-86964000D01*
X164321500Y-86964000D01*
X164344779Y-86965144D01*
X164344779Y-86965144D01*
G37*
D11*
G04 #@! TD*
G04 #@! TO.P,C7,2*
G04 #@! TO.N,GND*
X164084000Y-87489000D03*
D10*
G04 #@! TO.N,+5V*
G04 #@! TO.C,C8*
G36*
X164344779Y-79881144D02*
X164367834Y-79884563D01*
X164390443Y-79890227D01*
X164412387Y-79898079D01*
X164433457Y-79908044D01*
X164453448Y-79920026D01*
X164472168Y-79933910D01*
X164489438Y-79949562D01*
X164505090Y-79966832D01*
X164518974Y-79985552D01*
X164530956Y-80005543D01*
X164540921Y-80026613D01*
X164548773Y-80048557D01*
X164554437Y-80071166D01*
X164557856Y-80094221D01*
X164559000Y-80117500D01*
X164559000Y-80692500D01*
X164557856Y-80715779D01*
X164554437Y-80738834D01*
X164548773Y-80761443D01*
X164540921Y-80783387D01*
X164530956Y-80804457D01*
X164518974Y-80824448D01*
X164505090Y-80843168D01*
X164489438Y-80860438D01*
X164472168Y-80876090D01*
X164453448Y-80889974D01*
X164433457Y-80901956D01*
X164412387Y-80911921D01*
X164390443Y-80919773D01*
X164367834Y-80925437D01*
X164344779Y-80928856D01*
X164321500Y-80930000D01*
X163846500Y-80930000D01*
X163823221Y-80928856D01*
X163800166Y-80925437D01*
X163777557Y-80919773D01*
X163755613Y-80911921D01*
X163734543Y-80901956D01*
X163714552Y-80889974D01*
X163695832Y-80876090D01*
X163678562Y-80860438D01*
X163662910Y-80843168D01*
X163649026Y-80824448D01*
X163637044Y-80804457D01*
X163627079Y-80783387D01*
X163619227Y-80761443D01*
X163613563Y-80738834D01*
X163610144Y-80715779D01*
X163609000Y-80692500D01*
X163609000Y-80117500D01*
X163610144Y-80094221D01*
X163613563Y-80071166D01*
X163619227Y-80048557D01*
X163627079Y-80026613D01*
X163637044Y-80005543D01*
X163649026Y-79985552D01*
X163662910Y-79966832D01*
X163678562Y-79949562D01*
X163695832Y-79933910D01*
X163714552Y-79920026D01*
X163734543Y-79908044D01*
X163755613Y-79898079D01*
X163777557Y-79890227D01*
X163800166Y-79884563D01*
X163823221Y-79881144D01*
X163846500Y-79880000D01*
X164321500Y-79880000D01*
X164344779Y-79881144D01*
X164344779Y-79881144D01*
G37*
D11*
G04 #@! TD*
G04 #@! TO.P,C8,1*
G04 #@! TO.N,+5V*
X164084000Y-80405000D03*
D10*
G04 #@! TO.N,GND*
G04 #@! TO.C,C8*
G36*
X164344779Y-81631144D02*
X164367834Y-81634563D01*
X164390443Y-81640227D01*
X164412387Y-81648079D01*
X164433457Y-81658044D01*
X164453448Y-81670026D01*
X164472168Y-81683910D01*
X164489438Y-81699562D01*
X164505090Y-81716832D01*
X164518974Y-81735552D01*
X164530956Y-81755543D01*
X164540921Y-81776613D01*
X164548773Y-81798557D01*
X164554437Y-81821166D01*
X164557856Y-81844221D01*
X164559000Y-81867500D01*
X164559000Y-82442500D01*
X164557856Y-82465779D01*
X164554437Y-82488834D01*
X164548773Y-82511443D01*
X164540921Y-82533387D01*
X164530956Y-82554457D01*
X164518974Y-82574448D01*
X164505090Y-82593168D01*
X164489438Y-82610438D01*
X164472168Y-82626090D01*
X164453448Y-82639974D01*
X164433457Y-82651956D01*
X164412387Y-82661921D01*
X164390443Y-82669773D01*
X164367834Y-82675437D01*
X164344779Y-82678856D01*
X164321500Y-82680000D01*
X163846500Y-82680000D01*
X163823221Y-82678856D01*
X163800166Y-82675437D01*
X163777557Y-82669773D01*
X163755613Y-82661921D01*
X163734543Y-82651956D01*
X163714552Y-82639974D01*
X163695832Y-82626090D01*
X163678562Y-82610438D01*
X163662910Y-82593168D01*
X163649026Y-82574448D01*
X163637044Y-82554457D01*
X163627079Y-82533387D01*
X163619227Y-82511443D01*
X163613563Y-82488834D01*
X163610144Y-82465779D01*
X163609000Y-82442500D01*
X163609000Y-81867500D01*
X163610144Y-81844221D01*
X163613563Y-81821166D01*
X163619227Y-81798557D01*
X163627079Y-81776613D01*
X163637044Y-81755543D01*
X163649026Y-81735552D01*
X163662910Y-81716832D01*
X163678562Y-81699562D01*
X163695832Y-81683910D01*
X163714552Y-81670026D01*
X163734543Y-81658044D01*
X163755613Y-81648079D01*
X163777557Y-81640227D01*
X163800166Y-81634563D01*
X163823221Y-81631144D01*
X163846500Y-81630000D01*
X164321500Y-81630000D01*
X164344779Y-81631144D01*
X164344779Y-81631144D01*
G37*
D11*
G04 #@! TD*
G04 #@! TO.P,C8,2*
G04 #@! TO.N,GND*
X164084000Y-82155000D03*
D10*
G04 #@! TO.N,Net-(C9-Pad1)*
G04 #@! TO.C,C9*
G36*
X139693050Y-81996307D02*
X139716105Y-81999726D01*
X139738714Y-82005390D01*
X139760658Y-82013242D01*
X139781728Y-82023207D01*
X139801719Y-82035189D01*
X139820439Y-82049073D01*
X139837709Y-82064725D01*
X139853361Y-82081995D01*
X139867245Y-82100715D01*
X139879227Y-82120706D01*
X139889192Y-82141776D01*
X139897044Y-82163720D01*
X139902708Y-82186329D01*
X139906127Y-82209384D01*
X139907271Y-82232663D01*
X139907271Y-82807663D01*
X139906127Y-82830942D01*
X139902708Y-82853997D01*
X139897044Y-82876606D01*
X139889192Y-82898550D01*
X139879227Y-82919620D01*
X139867245Y-82939611D01*
X139853361Y-82958331D01*
X139837709Y-82975601D01*
X139820439Y-82991253D01*
X139801719Y-83005137D01*
X139781728Y-83017119D01*
X139760658Y-83027084D01*
X139738714Y-83034936D01*
X139716105Y-83040600D01*
X139693050Y-83044019D01*
X139669771Y-83045163D01*
X139194771Y-83045163D01*
X139171492Y-83044019D01*
X139148437Y-83040600D01*
X139125828Y-83034936D01*
X139103884Y-83027084D01*
X139082814Y-83017119D01*
X139062823Y-83005137D01*
X139044103Y-82991253D01*
X139026833Y-82975601D01*
X139011181Y-82958331D01*
X138997297Y-82939611D01*
X138985315Y-82919620D01*
X138975350Y-82898550D01*
X138967498Y-82876606D01*
X138961834Y-82853997D01*
X138958415Y-82830942D01*
X138957271Y-82807663D01*
X138957271Y-82232663D01*
X138958415Y-82209384D01*
X138961834Y-82186329D01*
X138967498Y-82163720D01*
X138975350Y-82141776D01*
X138985315Y-82120706D01*
X138997297Y-82100715D01*
X139011181Y-82081995D01*
X139026833Y-82064725D01*
X139044103Y-82049073D01*
X139062823Y-82035189D01*
X139082814Y-82023207D01*
X139103884Y-82013242D01*
X139125828Y-82005390D01*
X139148437Y-81999726D01*
X139171492Y-81996307D01*
X139194771Y-81995163D01*
X139669771Y-81995163D01*
X139693050Y-81996307D01*
X139693050Y-81996307D01*
G37*
D11*
G04 #@! TD*
G04 #@! TO.P,C9,1*
G04 #@! TO.N,Net-(C9-Pad1)*
X139432271Y-82520163D03*
D10*
G04 #@! TO.N,Net-(C9-Pad2)*
G04 #@! TO.C,C9*
G36*
X139693050Y-83746307D02*
X139716105Y-83749726D01*
X139738714Y-83755390D01*
X139760658Y-83763242D01*
X139781728Y-83773207D01*
X139801719Y-83785189D01*
X139820439Y-83799073D01*
X139837709Y-83814725D01*
X139853361Y-83831995D01*
X139867245Y-83850715D01*
X139879227Y-83870706D01*
X139889192Y-83891776D01*
X139897044Y-83913720D01*
X139902708Y-83936329D01*
X139906127Y-83959384D01*
X139907271Y-83982663D01*
X139907271Y-84557663D01*
X139906127Y-84580942D01*
X139902708Y-84603997D01*
X139897044Y-84626606D01*
X139889192Y-84648550D01*
X139879227Y-84669620D01*
X139867245Y-84689611D01*
X139853361Y-84708331D01*
X139837709Y-84725601D01*
X139820439Y-84741253D01*
X139801719Y-84755137D01*
X139781728Y-84767119D01*
X139760658Y-84777084D01*
X139738714Y-84784936D01*
X139716105Y-84790600D01*
X139693050Y-84794019D01*
X139669771Y-84795163D01*
X139194771Y-84795163D01*
X139171492Y-84794019D01*
X139148437Y-84790600D01*
X139125828Y-84784936D01*
X139103884Y-84777084D01*
X139082814Y-84767119D01*
X139062823Y-84755137D01*
X139044103Y-84741253D01*
X139026833Y-84725601D01*
X139011181Y-84708331D01*
X138997297Y-84689611D01*
X138985315Y-84669620D01*
X138975350Y-84648550D01*
X138967498Y-84626606D01*
X138961834Y-84603997D01*
X138958415Y-84580942D01*
X138957271Y-84557663D01*
X138957271Y-83982663D01*
X138958415Y-83959384D01*
X138961834Y-83936329D01*
X138967498Y-83913720D01*
X138975350Y-83891776D01*
X138985315Y-83870706D01*
X138997297Y-83850715D01*
X139011181Y-83831995D01*
X139026833Y-83814725D01*
X139044103Y-83799073D01*
X139062823Y-83785189D01*
X139082814Y-83773207D01*
X139103884Y-83763242D01*
X139125828Y-83755390D01*
X139148437Y-83749726D01*
X139171492Y-83746307D01*
X139194771Y-83745163D01*
X139669771Y-83745163D01*
X139693050Y-83746307D01*
X139693050Y-83746307D01*
G37*
D11*
G04 #@! TD*
G04 #@! TO.P,C9,2*
G04 #@! TO.N,Net-(C9-Pad2)*
X139432271Y-84270163D03*
D10*
G04 #@! TO.N,Net-(C10-Pad2)*
G04 #@! TO.C,C10*
G36*
X139693050Y-79936307D02*
X139716105Y-79939726D01*
X139738714Y-79945390D01*
X139760658Y-79953242D01*
X139781728Y-79963207D01*
X139801719Y-79975189D01*
X139820439Y-79989073D01*
X139837709Y-80004725D01*
X139853361Y-80021995D01*
X139867245Y-80040715D01*
X139879227Y-80060706D01*
X139889192Y-80081776D01*
X139897044Y-80103720D01*
X139902708Y-80126329D01*
X139906127Y-80149384D01*
X139907271Y-80172663D01*
X139907271Y-80747663D01*
X139906127Y-80770942D01*
X139902708Y-80793997D01*
X139897044Y-80816606D01*
X139889192Y-80838550D01*
X139879227Y-80859620D01*
X139867245Y-80879611D01*
X139853361Y-80898331D01*
X139837709Y-80915601D01*
X139820439Y-80931253D01*
X139801719Y-80945137D01*
X139781728Y-80957119D01*
X139760658Y-80967084D01*
X139738714Y-80974936D01*
X139716105Y-80980600D01*
X139693050Y-80984019D01*
X139669771Y-80985163D01*
X139194771Y-80985163D01*
X139171492Y-80984019D01*
X139148437Y-80980600D01*
X139125828Y-80974936D01*
X139103884Y-80967084D01*
X139082814Y-80957119D01*
X139062823Y-80945137D01*
X139044103Y-80931253D01*
X139026833Y-80915601D01*
X139011181Y-80898331D01*
X138997297Y-80879611D01*
X138985315Y-80859620D01*
X138975350Y-80838550D01*
X138967498Y-80816606D01*
X138961834Y-80793997D01*
X138958415Y-80770942D01*
X138957271Y-80747663D01*
X138957271Y-80172663D01*
X138958415Y-80149384D01*
X138961834Y-80126329D01*
X138967498Y-80103720D01*
X138975350Y-80081776D01*
X138985315Y-80060706D01*
X138997297Y-80040715D01*
X139011181Y-80021995D01*
X139026833Y-80004725D01*
X139044103Y-79989073D01*
X139062823Y-79975189D01*
X139082814Y-79963207D01*
X139103884Y-79953242D01*
X139125828Y-79945390D01*
X139148437Y-79939726D01*
X139171492Y-79936307D01*
X139194771Y-79935163D01*
X139669771Y-79935163D01*
X139693050Y-79936307D01*
X139693050Y-79936307D01*
G37*
D11*
G04 #@! TD*
G04 #@! TO.P,C10,2*
G04 #@! TO.N,Net-(C10-Pad2)*
X139432271Y-80460163D03*
D10*
G04 #@! TO.N,Net-(C10-Pad1)*
G04 #@! TO.C,C10*
G36*
X139693050Y-78186307D02*
X139716105Y-78189726D01*
X139738714Y-78195390D01*
X139760658Y-78203242D01*
X139781728Y-78213207D01*
X139801719Y-78225189D01*
X139820439Y-78239073D01*
X139837709Y-78254725D01*
X139853361Y-78271995D01*
X139867245Y-78290715D01*
X139879227Y-78310706D01*
X139889192Y-78331776D01*
X139897044Y-78353720D01*
X139902708Y-78376329D01*
X139906127Y-78399384D01*
X139907271Y-78422663D01*
X139907271Y-78997663D01*
X139906127Y-79020942D01*
X139902708Y-79043997D01*
X139897044Y-79066606D01*
X139889192Y-79088550D01*
X139879227Y-79109620D01*
X139867245Y-79129611D01*
X139853361Y-79148331D01*
X139837709Y-79165601D01*
X139820439Y-79181253D01*
X139801719Y-79195137D01*
X139781728Y-79207119D01*
X139760658Y-79217084D01*
X139738714Y-79224936D01*
X139716105Y-79230600D01*
X139693050Y-79234019D01*
X139669771Y-79235163D01*
X139194771Y-79235163D01*
X139171492Y-79234019D01*
X139148437Y-79230600D01*
X139125828Y-79224936D01*
X139103884Y-79217084D01*
X139082814Y-79207119D01*
X139062823Y-79195137D01*
X139044103Y-79181253D01*
X139026833Y-79165601D01*
X139011181Y-79148331D01*
X138997297Y-79129611D01*
X138985315Y-79109620D01*
X138975350Y-79088550D01*
X138967498Y-79066606D01*
X138961834Y-79043997D01*
X138958415Y-79020942D01*
X138957271Y-78997663D01*
X138957271Y-78422663D01*
X138958415Y-78399384D01*
X138961834Y-78376329D01*
X138967498Y-78353720D01*
X138975350Y-78331776D01*
X138985315Y-78310706D01*
X138997297Y-78290715D01*
X139011181Y-78271995D01*
X139026833Y-78254725D01*
X139044103Y-78239073D01*
X139062823Y-78225189D01*
X139082814Y-78213207D01*
X139103884Y-78203242D01*
X139125828Y-78195390D01*
X139148437Y-78189726D01*
X139171492Y-78186307D01*
X139194771Y-78185163D01*
X139669771Y-78185163D01*
X139693050Y-78186307D01*
X139693050Y-78186307D01*
G37*
D11*
G04 #@! TD*
G04 #@! TO.P,C10,1*
G04 #@! TO.N,Net-(C10-Pad1)*
X139432271Y-78710163D03*
D10*
G04 #@! TO.N,Net-(C11-Pad1)*
G04 #@! TO.C,C11*
G36*
X164598779Y-62327144D02*
X164621834Y-62330563D01*
X164644443Y-62336227D01*
X164666387Y-62344079D01*
X164687457Y-62354044D01*
X164707448Y-62366026D01*
X164726168Y-62379910D01*
X164743438Y-62395562D01*
X164759090Y-62412832D01*
X164772974Y-62431552D01*
X164784956Y-62451543D01*
X164794921Y-62472613D01*
X164802773Y-62494557D01*
X164808437Y-62517166D01*
X164811856Y-62540221D01*
X164813000Y-62563500D01*
X164813000Y-63138500D01*
X164811856Y-63161779D01*
X164808437Y-63184834D01*
X164802773Y-63207443D01*
X164794921Y-63229387D01*
X164784956Y-63250457D01*
X164772974Y-63270448D01*
X164759090Y-63289168D01*
X164743438Y-63306438D01*
X164726168Y-63322090D01*
X164707448Y-63335974D01*
X164687457Y-63347956D01*
X164666387Y-63357921D01*
X164644443Y-63365773D01*
X164621834Y-63371437D01*
X164598779Y-63374856D01*
X164575500Y-63376000D01*
X164100500Y-63376000D01*
X164077221Y-63374856D01*
X164054166Y-63371437D01*
X164031557Y-63365773D01*
X164009613Y-63357921D01*
X163988543Y-63347956D01*
X163968552Y-63335974D01*
X163949832Y-63322090D01*
X163932562Y-63306438D01*
X163916910Y-63289168D01*
X163903026Y-63270448D01*
X163891044Y-63250457D01*
X163881079Y-63229387D01*
X163873227Y-63207443D01*
X163867563Y-63184834D01*
X163864144Y-63161779D01*
X163863000Y-63138500D01*
X163863000Y-62563500D01*
X163864144Y-62540221D01*
X163867563Y-62517166D01*
X163873227Y-62494557D01*
X163881079Y-62472613D01*
X163891044Y-62451543D01*
X163903026Y-62431552D01*
X163916910Y-62412832D01*
X163932562Y-62395562D01*
X163949832Y-62379910D01*
X163968552Y-62366026D01*
X163988543Y-62354044D01*
X164009613Y-62344079D01*
X164031557Y-62336227D01*
X164054166Y-62330563D01*
X164077221Y-62327144D01*
X164100500Y-62326000D01*
X164575500Y-62326000D01*
X164598779Y-62327144D01*
X164598779Y-62327144D01*
G37*
D11*
G04 #@! TD*
G04 #@! TO.P,C11,1*
G04 #@! TO.N,Net-(C11-Pad1)*
X164338000Y-62851000D03*
D10*
G04 #@! TO.N,Net-(C11-Pad2)*
G04 #@! TO.C,C11*
G36*
X164598779Y-60577144D02*
X164621834Y-60580563D01*
X164644443Y-60586227D01*
X164666387Y-60594079D01*
X164687457Y-60604044D01*
X164707448Y-60616026D01*
X164726168Y-60629910D01*
X164743438Y-60645562D01*
X164759090Y-60662832D01*
X164772974Y-60681552D01*
X164784956Y-60701543D01*
X164794921Y-60722613D01*
X164802773Y-60744557D01*
X164808437Y-60767166D01*
X164811856Y-60790221D01*
X164813000Y-60813500D01*
X164813000Y-61388500D01*
X164811856Y-61411779D01*
X164808437Y-61434834D01*
X164802773Y-61457443D01*
X164794921Y-61479387D01*
X164784956Y-61500457D01*
X164772974Y-61520448D01*
X164759090Y-61539168D01*
X164743438Y-61556438D01*
X164726168Y-61572090D01*
X164707448Y-61585974D01*
X164687457Y-61597956D01*
X164666387Y-61607921D01*
X164644443Y-61615773D01*
X164621834Y-61621437D01*
X164598779Y-61624856D01*
X164575500Y-61626000D01*
X164100500Y-61626000D01*
X164077221Y-61624856D01*
X164054166Y-61621437D01*
X164031557Y-61615773D01*
X164009613Y-61607921D01*
X163988543Y-61597956D01*
X163968552Y-61585974D01*
X163949832Y-61572090D01*
X163932562Y-61556438D01*
X163916910Y-61539168D01*
X163903026Y-61520448D01*
X163891044Y-61500457D01*
X163881079Y-61479387D01*
X163873227Y-61457443D01*
X163867563Y-61434834D01*
X163864144Y-61411779D01*
X163863000Y-61388500D01*
X163863000Y-60813500D01*
X163864144Y-60790221D01*
X163867563Y-60767166D01*
X163873227Y-60744557D01*
X163881079Y-60722613D01*
X163891044Y-60701543D01*
X163903026Y-60681552D01*
X163916910Y-60662832D01*
X163932562Y-60645562D01*
X163949832Y-60629910D01*
X163968552Y-60616026D01*
X163988543Y-60604044D01*
X164009613Y-60594079D01*
X164031557Y-60586227D01*
X164054166Y-60580563D01*
X164077221Y-60577144D01*
X164100500Y-60576000D01*
X164575500Y-60576000D01*
X164598779Y-60577144D01*
X164598779Y-60577144D01*
G37*
D11*
G04 #@! TD*
G04 #@! TO.P,C11,2*
G04 #@! TO.N,Net-(C11-Pad2)*
X164338000Y-61101000D03*
D10*
G04 #@! TO.N,Net-(C12-Pad1)*
G04 #@! TO.C,C12*
G36*
X164598779Y-65883144D02*
X164621834Y-65886563D01*
X164644443Y-65892227D01*
X164666387Y-65900079D01*
X164687457Y-65910044D01*
X164707448Y-65922026D01*
X164726168Y-65935910D01*
X164743438Y-65951562D01*
X164759090Y-65968832D01*
X164772974Y-65987552D01*
X164784956Y-66007543D01*
X164794921Y-66028613D01*
X164802773Y-66050557D01*
X164808437Y-66073166D01*
X164811856Y-66096221D01*
X164813000Y-66119500D01*
X164813000Y-66694500D01*
X164811856Y-66717779D01*
X164808437Y-66740834D01*
X164802773Y-66763443D01*
X164794921Y-66785387D01*
X164784956Y-66806457D01*
X164772974Y-66826448D01*
X164759090Y-66845168D01*
X164743438Y-66862438D01*
X164726168Y-66878090D01*
X164707448Y-66891974D01*
X164687457Y-66903956D01*
X164666387Y-66913921D01*
X164644443Y-66921773D01*
X164621834Y-66927437D01*
X164598779Y-66930856D01*
X164575500Y-66932000D01*
X164100500Y-66932000D01*
X164077221Y-66930856D01*
X164054166Y-66927437D01*
X164031557Y-66921773D01*
X164009613Y-66913921D01*
X163988543Y-66903956D01*
X163968552Y-66891974D01*
X163949832Y-66878090D01*
X163932562Y-66862438D01*
X163916910Y-66845168D01*
X163903026Y-66826448D01*
X163891044Y-66806457D01*
X163881079Y-66785387D01*
X163873227Y-66763443D01*
X163867563Y-66740834D01*
X163864144Y-66717779D01*
X163863000Y-66694500D01*
X163863000Y-66119500D01*
X163864144Y-66096221D01*
X163867563Y-66073166D01*
X163873227Y-66050557D01*
X163881079Y-66028613D01*
X163891044Y-66007543D01*
X163903026Y-65987552D01*
X163916910Y-65968832D01*
X163932562Y-65951562D01*
X163949832Y-65935910D01*
X163968552Y-65922026D01*
X163988543Y-65910044D01*
X164009613Y-65900079D01*
X164031557Y-65892227D01*
X164054166Y-65886563D01*
X164077221Y-65883144D01*
X164100500Y-65882000D01*
X164575500Y-65882000D01*
X164598779Y-65883144D01*
X164598779Y-65883144D01*
G37*
D11*
G04 #@! TD*
G04 #@! TO.P,C12,1*
G04 #@! TO.N,Net-(C12-Pad1)*
X164338000Y-66407000D03*
D10*
G04 #@! TO.N,Net-(C12-Pad2)*
G04 #@! TO.C,C12*
G36*
X164598779Y-64133144D02*
X164621834Y-64136563D01*
X164644443Y-64142227D01*
X164666387Y-64150079D01*
X164687457Y-64160044D01*
X164707448Y-64172026D01*
X164726168Y-64185910D01*
X164743438Y-64201562D01*
X164759090Y-64218832D01*
X164772974Y-64237552D01*
X164784956Y-64257543D01*
X164794921Y-64278613D01*
X164802773Y-64300557D01*
X164808437Y-64323166D01*
X164811856Y-64346221D01*
X164813000Y-64369500D01*
X164813000Y-64944500D01*
X164811856Y-64967779D01*
X164808437Y-64990834D01*
X164802773Y-65013443D01*
X164794921Y-65035387D01*
X164784956Y-65056457D01*
X164772974Y-65076448D01*
X164759090Y-65095168D01*
X164743438Y-65112438D01*
X164726168Y-65128090D01*
X164707448Y-65141974D01*
X164687457Y-65153956D01*
X164666387Y-65163921D01*
X164644443Y-65171773D01*
X164621834Y-65177437D01*
X164598779Y-65180856D01*
X164575500Y-65182000D01*
X164100500Y-65182000D01*
X164077221Y-65180856D01*
X164054166Y-65177437D01*
X164031557Y-65171773D01*
X164009613Y-65163921D01*
X163988543Y-65153956D01*
X163968552Y-65141974D01*
X163949832Y-65128090D01*
X163932562Y-65112438D01*
X163916910Y-65095168D01*
X163903026Y-65076448D01*
X163891044Y-65056457D01*
X163881079Y-65035387D01*
X163873227Y-65013443D01*
X163867563Y-64990834D01*
X163864144Y-64967779D01*
X163863000Y-64944500D01*
X163863000Y-64369500D01*
X163864144Y-64346221D01*
X163867563Y-64323166D01*
X163873227Y-64300557D01*
X163881079Y-64278613D01*
X163891044Y-64257543D01*
X163903026Y-64237552D01*
X163916910Y-64218832D01*
X163932562Y-64201562D01*
X163949832Y-64185910D01*
X163968552Y-64172026D01*
X163988543Y-64160044D01*
X164009613Y-64150079D01*
X164031557Y-64142227D01*
X164054166Y-64136563D01*
X164077221Y-64133144D01*
X164100500Y-64132000D01*
X164575500Y-64132000D01*
X164598779Y-64133144D01*
X164598779Y-64133144D01*
G37*
D11*
G04 #@! TD*
G04 #@! TO.P,C12,2*
G04 #@! TO.N,Net-(C12-Pad2)*
X164338000Y-64657000D03*
D13*
G04 #@! TO.P,Conn1,1*
G04 #@! TO.N,GND*
X155168600Y-95757000D03*
G04 #@! TO.P,Conn1,2*
G04 #@! TO.N,/+12V*
X155168600Y-103758000D03*
G04 #@! TD*
D14*
G04 #@! TO.P,U1,16*
G04 #@! TO.N,+5V*
X130382271Y-84284163D03*
G04 #@! TO.P,U1,15*
G04 #@! TO.N,GND*
X130382271Y-83014163D03*
G04 #@! TO.P,U1,14*
G04 #@! TO.N,TX_1_SL*
X130382271Y-81744163D03*
G04 #@! TO.P,U1,13*
G04 #@! TO.N,RX_1_SL*
X130382271Y-80474163D03*
G04 #@! TO.P,U1,12*
G04 #@! TO.N,RX_1_IC*
X130382271Y-79204163D03*
G04 #@! TO.P,U1,11*
G04 #@! TO.N,TX_1_IC*
X130382271Y-77934163D03*
G04 #@! TO.P,U1,10*
G04 #@! TO.N,TX_2_IC*
X130382271Y-76664163D03*
G04 #@! TO.P,U1,9*
G04 #@! TO.N,RX_2_IC*
X130382271Y-75394163D03*
G04 #@! TO.P,U1,8*
G04 #@! TO.N,RX_2_SL*
X135782271Y-75394163D03*
G04 #@! TO.P,U1,7*
G04 #@! TO.N,TX_2_SL*
X135782271Y-76664163D03*
G04 #@! TO.P,U1,6*
G04 #@! TO.N,Net-(C4-Pad2)*
X135782271Y-77934163D03*
G04 #@! TO.P,U1,5*
G04 #@! TO.N,Net-(C10-Pad1)*
X135782271Y-79204163D03*
G04 #@! TO.P,U1,4*
G04 #@! TO.N,Net-(C10-Pad2)*
X135782271Y-80474163D03*
G04 #@! TO.P,U1,3*
G04 #@! TO.N,Net-(C9-Pad1)*
X135782271Y-81744163D03*
G04 #@! TO.P,U1,2*
G04 #@! TO.N,Net-(C3-Pad2)*
X135782271Y-83014163D03*
G04 #@! TO.P,U1,1*
G04 #@! TO.N,Net-(C9-Pad2)*
X135782271Y-84284163D03*
G04 #@! TD*
G04 #@! TO.P,U2,1*
G04 #@! TO.N,Net-(C11-Pad2)*
X168496000Y-60579000D03*
G04 #@! TO.P,U2,2*
G04 #@! TO.N,Net-(C5-Pad2)*
X168496000Y-61849000D03*
G04 #@! TO.P,U2,3*
G04 #@! TO.N,Net-(C11-Pad1)*
X168496000Y-63119000D03*
G04 #@! TO.P,U2,4*
G04 #@! TO.N,Net-(C12-Pad2)*
X168496000Y-64389000D03*
G04 #@! TO.P,U2,5*
G04 #@! TO.N,Net-(C12-Pad1)*
X168496000Y-65659000D03*
G04 #@! TO.P,U2,6*
G04 #@! TO.N,Net-(C6-Pad2)*
X168496000Y-66929000D03*
G04 #@! TO.P,U2,7*
G04 #@! TO.N,Net-(U2-Pad7)*
X168496000Y-68199000D03*
G04 #@! TO.P,U2,8*
G04 #@! TO.N,Net-(U2-Pad8)*
X168496000Y-69469000D03*
G04 #@! TO.P,U2,9*
G04 #@! TO.N,Net-(U2-Pad9)*
X173896000Y-69469000D03*
G04 #@! TO.P,U2,10*
G04 #@! TO.N,Net-(U2-Pad10)*
X173896000Y-68199000D03*
G04 #@! TO.P,U2,11*
G04 #@! TO.N,TX_3_IC*
X173896000Y-66929000D03*
G04 #@! TO.P,U2,12*
G04 #@! TO.N,RX_3_IC*
X173896000Y-65659000D03*
G04 #@! TO.P,U2,13*
G04 #@! TO.N,RX_3_SL*
X173896000Y-64389000D03*
G04 #@! TO.P,U2,14*
G04 #@! TO.N,TX_3_SL*
X173896000Y-63119000D03*
G04 #@! TO.P,U2,15*
G04 #@! TO.N,GND*
X173896000Y-61849000D03*
G04 #@! TO.P,U2,16*
G04 #@! TO.N,+5V*
X173896000Y-60579000D03*
G04 #@! TD*
D10*
G04 #@! TO.N,Net-(D3-Pad2)*
G04 #@! TO.C,D3*
G36*
X135438779Y-54390144D02*
X135461834Y-54393563D01*
X135484443Y-54399227D01*
X135506387Y-54407079D01*
X135527457Y-54417044D01*
X135547448Y-54429026D01*
X135566168Y-54442910D01*
X135583438Y-54458562D01*
X135599090Y-54475832D01*
X135612974Y-54494552D01*
X135624956Y-54514543D01*
X135634921Y-54535613D01*
X135642773Y-54557557D01*
X135648437Y-54580166D01*
X135651856Y-54603221D01*
X135653000Y-54626500D01*
X135653000Y-55101500D01*
X135651856Y-55124779D01*
X135648437Y-55147834D01*
X135642773Y-55170443D01*
X135634921Y-55192387D01*
X135624956Y-55213457D01*
X135612974Y-55233448D01*
X135599090Y-55252168D01*
X135583438Y-55269438D01*
X135566168Y-55285090D01*
X135547448Y-55298974D01*
X135527457Y-55310956D01*
X135506387Y-55320921D01*
X135484443Y-55328773D01*
X135461834Y-55334437D01*
X135438779Y-55337856D01*
X135415500Y-55339000D01*
X134840500Y-55339000D01*
X134817221Y-55337856D01*
X134794166Y-55334437D01*
X134771557Y-55328773D01*
X134749613Y-55320921D01*
X134728543Y-55310956D01*
X134708552Y-55298974D01*
X134689832Y-55285090D01*
X134672562Y-55269438D01*
X134656910Y-55252168D01*
X134643026Y-55233448D01*
X134631044Y-55213457D01*
X134621079Y-55192387D01*
X134613227Y-55170443D01*
X134607563Y-55147834D01*
X134604144Y-55124779D01*
X134603000Y-55101500D01*
X134603000Y-54626500D01*
X134604144Y-54603221D01*
X134607563Y-54580166D01*
X134613227Y-54557557D01*
X134621079Y-54535613D01*
X134631044Y-54514543D01*
X134643026Y-54494552D01*
X134656910Y-54475832D01*
X134672562Y-54458562D01*
X134689832Y-54442910D01*
X134708552Y-54429026D01*
X134728543Y-54417044D01*
X134749613Y-54407079D01*
X134771557Y-54399227D01*
X134794166Y-54393563D01*
X134817221Y-54390144D01*
X134840500Y-54389000D01*
X135415500Y-54389000D01*
X135438779Y-54390144D01*
X135438779Y-54390144D01*
G37*
D11*
G04 #@! TD*
G04 #@! TO.P,D3,2*
G04 #@! TO.N,Net-(D3-Pad2)*
X135128000Y-54864000D03*
D10*
G04 #@! TO.N,GND*
G04 #@! TO.C,D3*
G36*
X137188779Y-54390144D02*
X137211834Y-54393563D01*
X137234443Y-54399227D01*
X137256387Y-54407079D01*
X137277457Y-54417044D01*
X137297448Y-54429026D01*
X137316168Y-54442910D01*
X137333438Y-54458562D01*
X137349090Y-54475832D01*
X137362974Y-54494552D01*
X137374956Y-54514543D01*
X137384921Y-54535613D01*
X137392773Y-54557557D01*
X137398437Y-54580166D01*
X137401856Y-54603221D01*
X137403000Y-54626500D01*
X137403000Y-55101500D01*
X137401856Y-55124779D01*
X137398437Y-55147834D01*
X137392773Y-55170443D01*
X137384921Y-55192387D01*
X137374956Y-55213457D01*
X137362974Y-55233448D01*
X137349090Y-55252168D01*
X137333438Y-55269438D01*
X137316168Y-55285090D01*
X137297448Y-55298974D01*
X137277457Y-55310956D01*
X137256387Y-55320921D01*
X137234443Y-55328773D01*
X137211834Y-55334437D01*
X137188779Y-55337856D01*
X137165500Y-55339000D01*
X136590500Y-55339000D01*
X136567221Y-55337856D01*
X136544166Y-55334437D01*
X136521557Y-55328773D01*
X136499613Y-55320921D01*
X136478543Y-55310956D01*
X136458552Y-55298974D01*
X136439832Y-55285090D01*
X136422562Y-55269438D01*
X136406910Y-55252168D01*
X136393026Y-55233448D01*
X136381044Y-55213457D01*
X136371079Y-55192387D01*
X136363227Y-55170443D01*
X136357563Y-55147834D01*
X136354144Y-55124779D01*
X136353000Y-55101500D01*
X136353000Y-54626500D01*
X136354144Y-54603221D01*
X136357563Y-54580166D01*
X136363227Y-54557557D01*
X136371079Y-54535613D01*
X136381044Y-54514543D01*
X136393026Y-54494552D01*
X136406910Y-54475832D01*
X136422562Y-54458562D01*
X136439832Y-54442910D01*
X136458552Y-54429026D01*
X136478543Y-54417044D01*
X136499613Y-54407079D01*
X136521557Y-54399227D01*
X136544166Y-54393563D01*
X136567221Y-54390144D01*
X136590500Y-54389000D01*
X137165500Y-54389000D01*
X137188779Y-54390144D01*
X137188779Y-54390144D01*
G37*
D11*
G04 #@! TD*
G04 #@! TO.P,D3,1*
G04 #@! TO.N,GND*
X136878000Y-54864000D03*
D10*
G04 #@! TO.N,GND*
G04 #@! TO.C,D4*
G36*
X154460779Y-54390144D02*
X154483834Y-54393563D01*
X154506443Y-54399227D01*
X154528387Y-54407079D01*
X154549457Y-54417044D01*
X154569448Y-54429026D01*
X154588168Y-54442910D01*
X154605438Y-54458562D01*
X154621090Y-54475832D01*
X154634974Y-54494552D01*
X154646956Y-54514543D01*
X154656921Y-54535613D01*
X154664773Y-54557557D01*
X154670437Y-54580166D01*
X154673856Y-54603221D01*
X154675000Y-54626500D01*
X154675000Y-55101500D01*
X154673856Y-55124779D01*
X154670437Y-55147834D01*
X154664773Y-55170443D01*
X154656921Y-55192387D01*
X154646956Y-55213457D01*
X154634974Y-55233448D01*
X154621090Y-55252168D01*
X154605438Y-55269438D01*
X154588168Y-55285090D01*
X154569448Y-55298974D01*
X154549457Y-55310956D01*
X154528387Y-55320921D01*
X154506443Y-55328773D01*
X154483834Y-55334437D01*
X154460779Y-55337856D01*
X154437500Y-55339000D01*
X153862500Y-55339000D01*
X153839221Y-55337856D01*
X153816166Y-55334437D01*
X153793557Y-55328773D01*
X153771613Y-55320921D01*
X153750543Y-55310956D01*
X153730552Y-55298974D01*
X153711832Y-55285090D01*
X153694562Y-55269438D01*
X153678910Y-55252168D01*
X153665026Y-55233448D01*
X153653044Y-55213457D01*
X153643079Y-55192387D01*
X153635227Y-55170443D01*
X153629563Y-55147834D01*
X153626144Y-55124779D01*
X153625000Y-55101500D01*
X153625000Y-54626500D01*
X153626144Y-54603221D01*
X153629563Y-54580166D01*
X153635227Y-54557557D01*
X153643079Y-54535613D01*
X153653044Y-54514543D01*
X153665026Y-54494552D01*
X153678910Y-54475832D01*
X153694562Y-54458562D01*
X153711832Y-54442910D01*
X153730552Y-54429026D01*
X153750543Y-54417044D01*
X153771613Y-54407079D01*
X153793557Y-54399227D01*
X153816166Y-54393563D01*
X153839221Y-54390144D01*
X153862500Y-54389000D01*
X154437500Y-54389000D01*
X154460779Y-54390144D01*
X154460779Y-54390144D01*
G37*
D11*
G04 #@! TD*
G04 #@! TO.P,D4,1*
G04 #@! TO.N,GND*
X154150000Y-54864000D03*
D10*
G04 #@! TO.N,Net-(D4-Pad2)*
G04 #@! TO.C,D4*
G36*
X152710779Y-54390144D02*
X152733834Y-54393563D01*
X152756443Y-54399227D01*
X152778387Y-54407079D01*
X152799457Y-54417044D01*
X152819448Y-54429026D01*
X152838168Y-54442910D01*
X152855438Y-54458562D01*
X152871090Y-54475832D01*
X152884974Y-54494552D01*
X152896956Y-54514543D01*
X152906921Y-54535613D01*
X152914773Y-54557557D01*
X152920437Y-54580166D01*
X152923856Y-54603221D01*
X152925000Y-54626500D01*
X152925000Y-55101500D01*
X152923856Y-55124779D01*
X152920437Y-55147834D01*
X152914773Y-55170443D01*
X152906921Y-55192387D01*
X152896956Y-55213457D01*
X152884974Y-55233448D01*
X152871090Y-55252168D01*
X152855438Y-55269438D01*
X152838168Y-55285090D01*
X152819448Y-55298974D01*
X152799457Y-55310956D01*
X152778387Y-55320921D01*
X152756443Y-55328773D01*
X152733834Y-55334437D01*
X152710779Y-55337856D01*
X152687500Y-55339000D01*
X152112500Y-55339000D01*
X152089221Y-55337856D01*
X152066166Y-55334437D01*
X152043557Y-55328773D01*
X152021613Y-55320921D01*
X152000543Y-55310956D01*
X151980552Y-55298974D01*
X151961832Y-55285090D01*
X151944562Y-55269438D01*
X151928910Y-55252168D01*
X151915026Y-55233448D01*
X151903044Y-55213457D01*
X151893079Y-55192387D01*
X151885227Y-55170443D01*
X151879563Y-55147834D01*
X151876144Y-55124779D01*
X151875000Y-55101500D01*
X151875000Y-54626500D01*
X151876144Y-54603221D01*
X151879563Y-54580166D01*
X151885227Y-54557557D01*
X151893079Y-54535613D01*
X151903044Y-54514543D01*
X151915026Y-54494552D01*
X151928910Y-54475832D01*
X151944562Y-54458562D01*
X151961832Y-54442910D01*
X151980552Y-54429026D01*
X152000543Y-54417044D01*
X152021613Y-54407079D01*
X152043557Y-54399227D01*
X152066166Y-54393563D01*
X152089221Y-54390144D01*
X152112500Y-54389000D01*
X152687500Y-54389000D01*
X152710779Y-54390144D01*
X152710779Y-54390144D01*
G37*
D11*
G04 #@! TD*
G04 #@! TO.P,D4,2*
G04 #@! TO.N,Net-(D4-Pad2)*
X152400000Y-54864000D03*
D10*
G04 #@! TO.N,Net-(D5-Pad2)*
G04 #@! TO.C,D5*
G36*
X170010779Y-54390144D02*
X170033834Y-54393563D01*
X170056443Y-54399227D01*
X170078387Y-54407079D01*
X170099457Y-54417044D01*
X170119448Y-54429026D01*
X170138168Y-54442910D01*
X170155438Y-54458562D01*
X170171090Y-54475832D01*
X170184974Y-54494552D01*
X170196956Y-54514543D01*
X170206921Y-54535613D01*
X170214773Y-54557557D01*
X170220437Y-54580166D01*
X170223856Y-54603221D01*
X170225000Y-54626500D01*
X170225000Y-55101500D01*
X170223856Y-55124779D01*
X170220437Y-55147834D01*
X170214773Y-55170443D01*
X170206921Y-55192387D01*
X170196956Y-55213457D01*
X170184974Y-55233448D01*
X170171090Y-55252168D01*
X170155438Y-55269438D01*
X170138168Y-55285090D01*
X170119448Y-55298974D01*
X170099457Y-55310956D01*
X170078387Y-55320921D01*
X170056443Y-55328773D01*
X170033834Y-55334437D01*
X170010779Y-55337856D01*
X169987500Y-55339000D01*
X169412500Y-55339000D01*
X169389221Y-55337856D01*
X169366166Y-55334437D01*
X169343557Y-55328773D01*
X169321613Y-55320921D01*
X169300543Y-55310956D01*
X169280552Y-55298974D01*
X169261832Y-55285090D01*
X169244562Y-55269438D01*
X169228910Y-55252168D01*
X169215026Y-55233448D01*
X169203044Y-55213457D01*
X169193079Y-55192387D01*
X169185227Y-55170443D01*
X169179563Y-55147834D01*
X169176144Y-55124779D01*
X169175000Y-55101500D01*
X169175000Y-54626500D01*
X169176144Y-54603221D01*
X169179563Y-54580166D01*
X169185227Y-54557557D01*
X169193079Y-54535613D01*
X169203044Y-54514543D01*
X169215026Y-54494552D01*
X169228910Y-54475832D01*
X169244562Y-54458562D01*
X169261832Y-54442910D01*
X169280552Y-54429026D01*
X169300543Y-54417044D01*
X169321613Y-54407079D01*
X169343557Y-54399227D01*
X169366166Y-54393563D01*
X169389221Y-54390144D01*
X169412500Y-54389000D01*
X169987500Y-54389000D01*
X170010779Y-54390144D01*
X170010779Y-54390144D01*
G37*
D11*
G04 #@! TD*
G04 #@! TO.P,D5,2*
G04 #@! TO.N,Net-(D5-Pad2)*
X169700000Y-54864000D03*
D10*
G04 #@! TO.N,GND*
G04 #@! TO.C,D5*
G36*
X171760779Y-54390144D02*
X171783834Y-54393563D01*
X171806443Y-54399227D01*
X171828387Y-54407079D01*
X171849457Y-54417044D01*
X171869448Y-54429026D01*
X171888168Y-54442910D01*
X171905438Y-54458562D01*
X171921090Y-54475832D01*
X171934974Y-54494552D01*
X171946956Y-54514543D01*
X171956921Y-54535613D01*
X171964773Y-54557557D01*
X171970437Y-54580166D01*
X171973856Y-54603221D01*
X171975000Y-54626500D01*
X171975000Y-55101500D01*
X171973856Y-55124779D01*
X171970437Y-55147834D01*
X171964773Y-55170443D01*
X171956921Y-55192387D01*
X171946956Y-55213457D01*
X171934974Y-55233448D01*
X171921090Y-55252168D01*
X171905438Y-55269438D01*
X171888168Y-55285090D01*
X171869448Y-55298974D01*
X171849457Y-55310956D01*
X171828387Y-55320921D01*
X171806443Y-55328773D01*
X171783834Y-55334437D01*
X171760779Y-55337856D01*
X171737500Y-55339000D01*
X171162500Y-55339000D01*
X171139221Y-55337856D01*
X171116166Y-55334437D01*
X171093557Y-55328773D01*
X171071613Y-55320921D01*
X171050543Y-55310956D01*
X171030552Y-55298974D01*
X171011832Y-55285090D01*
X170994562Y-55269438D01*
X170978910Y-55252168D01*
X170965026Y-55233448D01*
X170953044Y-55213457D01*
X170943079Y-55192387D01*
X170935227Y-55170443D01*
X170929563Y-55147834D01*
X170926144Y-55124779D01*
X170925000Y-55101500D01*
X170925000Y-54626500D01*
X170926144Y-54603221D01*
X170929563Y-54580166D01*
X170935227Y-54557557D01*
X170943079Y-54535613D01*
X170953044Y-54514543D01*
X170965026Y-54494552D01*
X170978910Y-54475832D01*
X170994562Y-54458562D01*
X171011832Y-54442910D01*
X171030552Y-54429026D01*
X171050543Y-54417044D01*
X171071613Y-54407079D01*
X171093557Y-54399227D01*
X171116166Y-54393563D01*
X171139221Y-54390144D01*
X171162500Y-54389000D01*
X171737500Y-54389000D01*
X171760779Y-54390144D01*
X171760779Y-54390144D01*
G37*
D11*
G04 #@! TD*
G04 #@! TO.P,D5,1*
G04 #@! TO.N,GND*
X171450000Y-54864000D03*
D15*
G04 #@! TO.P,SW7,1*
G04 #@! TO.N,DIRECTION_SW*
X180848000Y-42164000D03*
D16*
G04 #@! TO.P,SW7,2*
G04 #@! TO.N,+5V*
X180848000Y-44164000D03*
G04 #@! TO.P,SW7,3*
G04 #@! TO.N,Net-(SW7-Pad3)*
X180848000Y-46164000D03*
D17*
G04 #@! TO.P,SW7,*
G04 #@! TO.N,*
X180848000Y-40064000D03*
X180848000Y-48264000D03*
G04 #@! TD*
D10*
G04 #@! TO.N,Net-(D6-Pad2)*
G04 #@! TO.C,D6*
G36*
X149612779Y-95234144D02*
X149635834Y-95237563D01*
X149658443Y-95243227D01*
X149680387Y-95251079D01*
X149701457Y-95261044D01*
X149721448Y-95273026D01*
X149740168Y-95286910D01*
X149757438Y-95302562D01*
X149773090Y-95319832D01*
X149786974Y-95338552D01*
X149798956Y-95358543D01*
X149808921Y-95379613D01*
X149816773Y-95401557D01*
X149822437Y-95424166D01*
X149825856Y-95447221D01*
X149827000Y-95470500D01*
X149827000Y-96045500D01*
X149825856Y-96068779D01*
X149822437Y-96091834D01*
X149816773Y-96114443D01*
X149808921Y-96136387D01*
X149798956Y-96157457D01*
X149786974Y-96177448D01*
X149773090Y-96196168D01*
X149757438Y-96213438D01*
X149740168Y-96229090D01*
X149721448Y-96242974D01*
X149701457Y-96254956D01*
X149680387Y-96264921D01*
X149658443Y-96272773D01*
X149635834Y-96278437D01*
X149612779Y-96281856D01*
X149589500Y-96283000D01*
X149114500Y-96283000D01*
X149091221Y-96281856D01*
X149068166Y-96278437D01*
X149045557Y-96272773D01*
X149023613Y-96264921D01*
X149002543Y-96254956D01*
X148982552Y-96242974D01*
X148963832Y-96229090D01*
X148946562Y-96213438D01*
X148930910Y-96196168D01*
X148917026Y-96177448D01*
X148905044Y-96157457D01*
X148895079Y-96136387D01*
X148887227Y-96114443D01*
X148881563Y-96091834D01*
X148878144Y-96068779D01*
X148877000Y-96045500D01*
X148877000Y-95470500D01*
X148878144Y-95447221D01*
X148881563Y-95424166D01*
X148887227Y-95401557D01*
X148895079Y-95379613D01*
X148905044Y-95358543D01*
X148917026Y-95338552D01*
X148930910Y-95319832D01*
X148946562Y-95302562D01*
X148963832Y-95286910D01*
X148982552Y-95273026D01*
X149002543Y-95261044D01*
X149023613Y-95251079D01*
X149045557Y-95243227D01*
X149068166Y-95237563D01*
X149091221Y-95234144D01*
X149114500Y-95233000D01*
X149589500Y-95233000D01*
X149612779Y-95234144D01*
X149612779Y-95234144D01*
G37*
D11*
G04 #@! TD*
G04 #@! TO.P,D6,2*
G04 #@! TO.N,Net-(D6-Pad2)*
X149352000Y-95758000D03*
D10*
G04 #@! TO.N,GND*
G04 #@! TO.C,D6*
G36*
X149612779Y-93484144D02*
X149635834Y-93487563D01*
X149658443Y-93493227D01*
X149680387Y-93501079D01*
X149701457Y-93511044D01*
X149721448Y-93523026D01*
X149740168Y-93536910D01*
X149757438Y-93552562D01*
X149773090Y-93569832D01*
X149786974Y-93588552D01*
X149798956Y-93608543D01*
X149808921Y-93629613D01*
X149816773Y-93651557D01*
X149822437Y-93674166D01*
X149825856Y-93697221D01*
X149827000Y-93720500D01*
X149827000Y-94295500D01*
X149825856Y-94318779D01*
X149822437Y-94341834D01*
X149816773Y-94364443D01*
X149808921Y-94386387D01*
X149798956Y-94407457D01*
X149786974Y-94427448D01*
X149773090Y-94446168D01*
X149757438Y-94463438D01*
X149740168Y-94479090D01*
X149721448Y-94492974D01*
X149701457Y-94504956D01*
X149680387Y-94514921D01*
X149658443Y-94522773D01*
X149635834Y-94528437D01*
X149612779Y-94531856D01*
X149589500Y-94533000D01*
X149114500Y-94533000D01*
X149091221Y-94531856D01*
X149068166Y-94528437D01*
X149045557Y-94522773D01*
X149023613Y-94514921D01*
X149002543Y-94504956D01*
X148982552Y-94492974D01*
X148963832Y-94479090D01*
X148946562Y-94463438D01*
X148930910Y-94446168D01*
X148917026Y-94427448D01*
X148905044Y-94407457D01*
X148895079Y-94386387D01*
X148887227Y-94364443D01*
X148881563Y-94341834D01*
X148878144Y-94318779D01*
X148877000Y-94295500D01*
X148877000Y-93720500D01*
X148878144Y-93697221D01*
X148881563Y-93674166D01*
X148887227Y-93651557D01*
X148895079Y-93629613D01*
X148905044Y-93608543D01*
X148917026Y-93588552D01*
X148930910Y-93569832D01*
X148946562Y-93552562D01*
X148963832Y-93536910D01*
X148982552Y-93523026D01*
X149002543Y-93511044D01*
X149023613Y-93501079D01*
X149045557Y-93493227D01*
X149068166Y-93487563D01*
X149091221Y-93484144D01*
X149114500Y-93483000D01*
X149589500Y-93483000D01*
X149612779Y-93484144D01*
X149612779Y-93484144D01*
G37*
D11*
G04 #@! TD*
G04 #@! TO.P,D6,1*
G04 #@! TO.N,GND*
X149352000Y-94008000D03*
D10*
G04 #@! TO.N,Net-(D7-Pad2)*
G04 #@! TO.C,D7*
G36*
X145294779Y-95234144D02*
X145317834Y-95237563D01*
X145340443Y-95243227D01*
X145362387Y-95251079D01*
X145383457Y-95261044D01*
X145403448Y-95273026D01*
X145422168Y-95286910D01*
X145439438Y-95302562D01*
X145455090Y-95319832D01*
X145468974Y-95338552D01*
X145480956Y-95358543D01*
X145490921Y-95379613D01*
X145498773Y-95401557D01*
X145504437Y-95424166D01*
X145507856Y-95447221D01*
X145509000Y-95470500D01*
X145509000Y-96045500D01*
X145507856Y-96068779D01*
X145504437Y-96091834D01*
X145498773Y-96114443D01*
X145490921Y-96136387D01*
X145480956Y-96157457D01*
X145468974Y-96177448D01*
X145455090Y-96196168D01*
X145439438Y-96213438D01*
X145422168Y-96229090D01*
X145403448Y-96242974D01*
X145383457Y-96254956D01*
X145362387Y-96264921D01*
X145340443Y-96272773D01*
X145317834Y-96278437D01*
X145294779Y-96281856D01*
X145271500Y-96283000D01*
X144796500Y-96283000D01*
X144773221Y-96281856D01*
X144750166Y-96278437D01*
X144727557Y-96272773D01*
X144705613Y-96264921D01*
X144684543Y-96254956D01*
X144664552Y-96242974D01*
X144645832Y-96229090D01*
X144628562Y-96213438D01*
X144612910Y-96196168D01*
X144599026Y-96177448D01*
X144587044Y-96157457D01*
X144577079Y-96136387D01*
X144569227Y-96114443D01*
X144563563Y-96091834D01*
X144560144Y-96068779D01*
X144559000Y-96045500D01*
X144559000Y-95470500D01*
X144560144Y-95447221D01*
X144563563Y-95424166D01*
X144569227Y-95401557D01*
X144577079Y-95379613D01*
X144587044Y-95358543D01*
X144599026Y-95338552D01*
X144612910Y-95319832D01*
X144628562Y-95302562D01*
X144645832Y-95286910D01*
X144664552Y-95273026D01*
X144684543Y-95261044D01*
X144705613Y-95251079D01*
X144727557Y-95243227D01*
X144750166Y-95237563D01*
X144773221Y-95234144D01*
X144796500Y-95233000D01*
X145271500Y-95233000D01*
X145294779Y-95234144D01*
X145294779Y-95234144D01*
G37*
D11*
G04 #@! TD*
G04 #@! TO.P,D7,2*
G04 #@! TO.N,Net-(D7-Pad2)*
X145034000Y-95758000D03*
D10*
G04 #@! TO.N,GND*
G04 #@! TO.C,D7*
G36*
X145294779Y-93484144D02*
X145317834Y-93487563D01*
X145340443Y-93493227D01*
X145362387Y-93501079D01*
X145383457Y-93511044D01*
X145403448Y-93523026D01*
X145422168Y-93536910D01*
X145439438Y-93552562D01*
X145455090Y-93569832D01*
X145468974Y-93588552D01*
X145480956Y-93608543D01*
X145490921Y-93629613D01*
X145498773Y-93651557D01*
X145504437Y-93674166D01*
X145507856Y-93697221D01*
X145509000Y-93720500D01*
X145509000Y-94295500D01*
X145507856Y-94318779D01*
X145504437Y-94341834D01*
X145498773Y-94364443D01*
X145490921Y-94386387D01*
X145480956Y-94407457D01*
X145468974Y-94427448D01*
X145455090Y-94446168D01*
X145439438Y-94463438D01*
X145422168Y-94479090D01*
X145403448Y-94492974D01*
X145383457Y-94504956D01*
X145362387Y-94514921D01*
X145340443Y-94522773D01*
X145317834Y-94528437D01*
X145294779Y-94531856D01*
X145271500Y-94533000D01*
X144796500Y-94533000D01*
X144773221Y-94531856D01*
X144750166Y-94528437D01*
X144727557Y-94522773D01*
X144705613Y-94514921D01*
X144684543Y-94504956D01*
X144664552Y-94492974D01*
X144645832Y-94479090D01*
X144628562Y-94463438D01*
X144612910Y-94446168D01*
X144599026Y-94427448D01*
X144587044Y-94407457D01*
X144577079Y-94386387D01*
X144569227Y-94364443D01*
X144563563Y-94341834D01*
X144560144Y-94318779D01*
X144559000Y-94295500D01*
X144559000Y-93720500D01*
X144560144Y-93697221D01*
X144563563Y-93674166D01*
X144569227Y-93651557D01*
X144577079Y-93629613D01*
X144587044Y-93608543D01*
X144599026Y-93588552D01*
X144612910Y-93569832D01*
X144628562Y-93552562D01*
X144645832Y-93536910D01*
X144664552Y-93523026D01*
X144684543Y-93511044D01*
X144705613Y-93501079D01*
X144727557Y-93493227D01*
X144750166Y-93487563D01*
X144773221Y-93484144D01*
X144796500Y-93483000D01*
X145271500Y-93483000D01*
X145294779Y-93484144D01*
X145294779Y-93484144D01*
G37*
D11*
G04 #@! TD*
G04 #@! TO.P,D7,1*
G04 #@! TO.N,GND*
X145034000Y-94008000D03*
D10*
G04 #@! TO.N,Net-(D8-Pad2)*
G04 #@! TO.C,D8*
G36*
X141230779Y-95093144D02*
X141253834Y-95096563D01*
X141276443Y-95102227D01*
X141298387Y-95110079D01*
X141319457Y-95120044D01*
X141339448Y-95132026D01*
X141358168Y-95145910D01*
X141375438Y-95161562D01*
X141391090Y-95178832D01*
X141404974Y-95197552D01*
X141416956Y-95217543D01*
X141426921Y-95238613D01*
X141434773Y-95260557D01*
X141440437Y-95283166D01*
X141443856Y-95306221D01*
X141445000Y-95329500D01*
X141445000Y-95904500D01*
X141443856Y-95927779D01*
X141440437Y-95950834D01*
X141434773Y-95973443D01*
X141426921Y-95995387D01*
X141416956Y-96016457D01*
X141404974Y-96036448D01*
X141391090Y-96055168D01*
X141375438Y-96072438D01*
X141358168Y-96088090D01*
X141339448Y-96101974D01*
X141319457Y-96113956D01*
X141298387Y-96123921D01*
X141276443Y-96131773D01*
X141253834Y-96137437D01*
X141230779Y-96140856D01*
X141207500Y-96142000D01*
X140732500Y-96142000D01*
X140709221Y-96140856D01*
X140686166Y-96137437D01*
X140663557Y-96131773D01*
X140641613Y-96123921D01*
X140620543Y-96113956D01*
X140600552Y-96101974D01*
X140581832Y-96088090D01*
X140564562Y-96072438D01*
X140548910Y-96055168D01*
X140535026Y-96036448D01*
X140523044Y-96016457D01*
X140513079Y-95995387D01*
X140505227Y-95973443D01*
X140499563Y-95950834D01*
X140496144Y-95927779D01*
X140495000Y-95904500D01*
X140495000Y-95329500D01*
X140496144Y-95306221D01*
X140499563Y-95283166D01*
X140505227Y-95260557D01*
X140513079Y-95238613D01*
X140523044Y-95217543D01*
X140535026Y-95197552D01*
X140548910Y-95178832D01*
X140564562Y-95161562D01*
X140581832Y-95145910D01*
X140600552Y-95132026D01*
X140620543Y-95120044D01*
X140641613Y-95110079D01*
X140663557Y-95102227D01*
X140686166Y-95096563D01*
X140709221Y-95093144D01*
X140732500Y-95092000D01*
X141207500Y-95092000D01*
X141230779Y-95093144D01*
X141230779Y-95093144D01*
G37*
D11*
G04 #@! TD*
G04 #@! TO.P,D8,2*
G04 #@! TO.N,Net-(D8-Pad2)*
X140970000Y-95617000D03*
D10*
G04 #@! TO.N,GND*
G04 #@! TO.C,D8*
G36*
X141230779Y-93343144D02*
X141253834Y-93346563D01*
X141276443Y-93352227D01*
X141298387Y-93360079D01*
X141319457Y-93370044D01*
X141339448Y-93382026D01*
X141358168Y-93395910D01*
X141375438Y-93411562D01*
X141391090Y-93428832D01*
X141404974Y-93447552D01*
X141416956Y-93467543D01*
X141426921Y-93488613D01*
X141434773Y-93510557D01*
X141440437Y-93533166D01*
X141443856Y-93556221D01*
X141445000Y-93579500D01*
X141445000Y-94154500D01*
X141443856Y-94177779D01*
X141440437Y-94200834D01*
X141434773Y-94223443D01*
X141426921Y-94245387D01*
X141416956Y-94266457D01*
X141404974Y-94286448D01*
X141391090Y-94305168D01*
X141375438Y-94322438D01*
X141358168Y-94338090D01*
X141339448Y-94351974D01*
X141319457Y-94363956D01*
X141298387Y-94373921D01*
X141276443Y-94381773D01*
X141253834Y-94387437D01*
X141230779Y-94390856D01*
X141207500Y-94392000D01*
X140732500Y-94392000D01*
X140709221Y-94390856D01*
X140686166Y-94387437D01*
X140663557Y-94381773D01*
X140641613Y-94373921D01*
X140620543Y-94363956D01*
X140600552Y-94351974D01*
X140581832Y-94338090D01*
X140564562Y-94322438D01*
X140548910Y-94305168D01*
X140535026Y-94286448D01*
X140523044Y-94266457D01*
X140513079Y-94245387D01*
X140505227Y-94223443D01*
X140499563Y-94200834D01*
X140496144Y-94177779D01*
X140495000Y-94154500D01*
X140495000Y-93579500D01*
X140496144Y-93556221D01*
X140499563Y-93533166D01*
X140505227Y-93510557D01*
X140513079Y-93488613D01*
X140523044Y-93467543D01*
X140535026Y-93447552D01*
X140548910Y-93428832D01*
X140564562Y-93411562D01*
X140581832Y-93395910D01*
X140600552Y-93382026D01*
X140620543Y-93370044D01*
X140641613Y-93360079D01*
X140663557Y-93352227D01*
X140686166Y-93346563D01*
X140709221Y-93343144D01*
X140732500Y-93342000D01*
X141207500Y-93342000D01*
X141230779Y-93343144D01*
X141230779Y-93343144D01*
G37*
D11*
G04 #@! TD*
G04 #@! TO.P,D8,1*
G04 #@! TO.N,GND*
X140970000Y-93867000D03*
D10*
G04 #@! TO.N,Net-(D2-Pad2)*
G04 #@! TO.C,D2*
G36*
X137166779Y-95093144D02*
X137189834Y-95096563D01*
X137212443Y-95102227D01*
X137234387Y-95110079D01*
X137255457Y-95120044D01*
X137275448Y-95132026D01*
X137294168Y-95145910D01*
X137311438Y-95161562D01*
X137327090Y-95178832D01*
X137340974Y-95197552D01*
X137352956Y-95217543D01*
X137362921Y-95238613D01*
X137370773Y-95260557D01*
X137376437Y-95283166D01*
X137379856Y-95306221D01*
X137381000Y-95329500D01*
X137381000Y-95904500D01*
X137379856Y-95927779D01*
X137376437Y-95950834D01*
X137370773Y-95973443D01*
X137362921Y-95995387D01*
X137352956Y-96016457D01*
X137340974Y-96036448D01*
X137327090Y-96055168D01*
X137311438Y-96072438D01*
X137294168Y-96088090D01*
X137275448Y-96101974D01*
X137255457Y-96113956D01*
X137234387Y-96123921D01*
X137212443Y-96131773D01*
X137189834Y-96137437D01*
X137166779Y-96140856D01*
X137143500Y-96142000D01*
X136668500Y-96142000D01*
X136645221Y-96140856D01*
X136622166Y-96137437D01*
X136599557Y-96131773D01*
X136577613Y-96123921D01*
X136556543Y-96113956D01*
X136536552Y-96101974D01*
X136517832Y-96088090D01*
X136500562Y-96072438D01*
X136484910Y-96055168D01*
X136471026Y-96036448D01*
X136459044Y-96016457D01*
X136449079Y-95995387D01*
X136441227Y-95973443D01*
X136435563Y-95950834D01*
X136432144Y-95927779D01*
X136431000Y-95904500D01*
X136431000Y-95329500D01*
X136432144Y-95306221D01*
X136435563Y-95283166D01*
X136441227Y-95260557D01*
X136449079Y-95238613D01*
X136459044Y-95217543D01*
X136471026Y-95197552D01*
X136484910Y-95178832D01*
X136500562Y-95161562D01*
X136517832Y-95145910D01*
X136536552Y-95132026D01*
X136556543Y-95120044D01*
X136577613Y-95110079D01*
X136599557Y-95102227D01*
X136622166Y-95096563D01*
X136645221Y-95093144D01*
X136668500Y-95092000D01*
X137143500Y-95092000D01*
X137166779Y-95093144D01*
X137166779Y-95093144D01*
G37*
D11*
G04 #@! TD*
G04 #@! TO.P,D2,2*
G04 #@! TO.N,Net-(D2-Pad2)*
X136906000Y-95617000D03*
D10*
G04 #@! TO.N,GND*
G04 #@! TO.C,D2*
G36*
X137166779Y-93343144D02*
X137189834Y-93346563D01*
X137212443Y-93352227D01*
X137234387Y-93360079D01*
X137255457Y-93370044D01*
X137275448Y-93382026D01*
X137294168Y-93395910D01*
X137311438Y-93411562D01*
X137327090Y-93428832D01*
X137340974Y-93447552D01*
X137352956Y-93467543D01*
X137362921Y-93488613D01*
X137370773Y-93510557D01*
X137376437Y-93533166D01*
X137379856Y-93556221D01*
X137381000Y-93579500D01*
X137381000Y-94154500D01*
X137379856Y-94177779D01*
X137376437Y-94200834D01*
X137370773Y-94223443D01*
X137362921Y-94245387D01*
X137352956Y-94266457D01*
X137340974Y-94286448D01*
X137327090Y-94305168D01*
X137311438Y-94322438D01*
X137294168Y-94338090D01*
X137275448Y-94351974D01*
X137255457Y-94363956D01*
X137234387Y-94373921D01*
X137212443Y-94381773D01*
X137189834Y-94387437D01*
X137166779Y-94390856D01*
X137143500Y-94392000D01*
X136668500Y-94392000D01*
X136645221Y-94390856D01*
X136622166Y-94387437D01*
X136599557Y-94381773D01*
X136577613Y-94373921D01*
X136556543Y-94363956D01*
X136536552Y-94351974D01*
X136517832Y-94338090D01*
X136500562Y-94322438D01*
X136484910Y-94305168D01*
X136471026Y-94286448D01*
X136459044Y-94266457D01*
X136449079Y-94245387D01*
X136441227Y-94223443D01*
X136435563Y-94200834D01*
X136432144Y-94177779D01*
X136431000Y-94154500D01*
X136431000Y-93579500D01*
X136432144Y-93556221D01*
X136435563Y-93533166D01*
X136441227Y-93510557D01*
X136449079Y-93488613D01*
X136459044Y-93467543D01*
X136471026Y-93447552D01*
X136484910Y-93428832D01*
X136500562Y-93411562D01*
X136517832Y-93395910D01*
X136536552Y-93382026D01*
X136556543Y-93370044D01*
X136577613Y-93360079D01*
X136599557Y-93352227D01*
X136622166Y-93346563D01*
X136645221Y-93343144D01*
X136668500Y-93342000D01*
X137143500Y-93342000D01*
X137166779Y-93343144D01*
X137166779Y-93343144D01*
G37*
D11*
G04 #@! TD*
G04 #@! TO.P,D2,1*
G04 #@! TO.N,GND*
X136906000Y-93867000D03*
D18*
G04 #@! TO.N,GND*
X126238000Y-82550000D03*
X172720000Y-54864000D03*
X126238000Y-85598000D03*
X126238000Y-88392000D03*
X126238000Y-91440000D03*
X123698000Y-58928000D03*
X123698000Y-57150000D03*
X123698000Y-55372000D03*
X156464000Y-44704000D03*
X166878000Y-44450000D03*
X176276000Y-37592000D03*
X148590000Y-46990000D03*
X138684000Y-44196000D03*
X130302000Y-42418000D03*
X130302000Y-43688000D03*
G04 #@! TO.N,RX_1_SL*
X127409449Y-80489500D03*
X125828448Y-80518000D03*
G04 #@! TO.N,RX_1_IC*
X133858000Y-102616000D03*
G04 #@! TO.N,TX_1_IC*
X136398000Y-102616000D03*
G04 #@! TO.N,TX_2_IC*
X128524000Y-77724000D03*
G04 #@! TO.N,RX_2_IC*
X127762000Y-78994000D03*
G04 #@! TO.N,TX_3_IC*
X172494500Y-71882000D03*
G04 #@! TO.N,RX_3_IC*
X171704000Y-70866000D03*
G04 #@! TO.N,DIRECTION_SW*
X126746000Y-108204000D03*
G04 #@! TO.N,+5V*
X123698000Y-105918000D03*
X177800000Y-80772000D03*
G04 #@! TO.N,Lspeed*
X149352000Y-105664000D03*
G04 #@! TO.N,Rspeed*
X145034000Y-102616000D03*
G04 #@! TO.N,Watchdog*
X131318000Y-105918000D03*
G04 #@! TD*
D19*
G04 #@! TO.N,GND*
X127494271Y-82520163D02*
X126267837Y-82520163D01*
X126267837Y-82520163D02*
X126238000Y-82550000D01*
X171450000Y-54864000D02*
X172720000Y-54864000D01*
G04 #@! TO.N,Net-(C3-Pad2)*
X134248199Y-85690091D02*
X134747271Y-86189163D01*
X134248199Y-83417235D02*
X134248199Y-85690091D01*
X134651271Y-83014163D02*
X134248199Y-83417235D01*
X135782271Y-83014163D02*
X134651271Y-83014163D01*
G04 #@! TO.N,Net-(C4-Pad2)*
X138402271Y-77934163D02*
X139432271Y-76904163D01*
X135782271Y-77934163D02*
X138402271Y-77934163D01*
G04 #@! TO.N,Net-(C5-Pad2)*
X170030072Y-59427072D02*
X169531000Y-58928000D01*
X170030072Y-61445928D02*
X170030072Y-59427072D01*
X169627000Y-61849000D02*
X170030072Y-61445928D01*
X168496000Y-61849000D02*
X169627000Y-61849000D01*
G04 #@! TO.N,Net-(C6-Pad2)*
X165622000Y-66929000D02*
X164338000Y-68213000D01*
X168496000Y-66929000D02*
X165622000Y-66929000D01*
G04 #@! TO.N,Net-(C9-Pad2)*
X139418271Y-84284163D02*
X139432271Y-84270163D01*
X135782271Y-84284163D02*
X139418271Y-84284163D01*
G04 #@! TO.N,Net-(C9-Pad1)*
X138656271Y-81744163D02*
X139432271Y-82520163D01*
X135782271Y-81744163D02*
X138656271Y-81744163D01*
G04 #@! TO.N,Net-(C10-Pad1)*
X138938271Y-79204163D02*
X139432271Y-78710163D01*
X135782271Y-79204163D02*
X138938271Y-79204163D01*
G04 #@! TO.N,Net-(C10-Pad2)*
X139418271Y-80474163D02*
X139432271Y-80460163D01*
X135782271Y-80474163D02*
X139418271Y-80474163D01*
G04 #@! TO.N,Net-(C11-Pad2)*
X164860000Y-60579000D02*
X164338000Y-61101000D01*
X168496000Y-60579000D02*
X164860000Y-60579000D01*
G04 #@! TO.N,Net-(C11-Pad1)*
X164606000Y-63119000D02*
X164338000Y-62851000D01*
X168496000Y-63119000D02*
X164606000Y-63119000D01*
G04 #@! TO.N,Net-(C12-Pad1)*
X165086000Y-65659000D02*
X164338000Y-66407000D01*
X168496000Y-65659000D02*
X165086000Y-65659000D01*
G04 #@! TO.N,Net-(C12-Pad2)*
X164606000Y-64389000D02*
X164338000Y-64657000D01*
X168496000Y-64389000D02*
X164606000Y-64389000D01*
G04 #@! TO.N,TX_1_SL*
X129032000Y-54864000D02*
X128778000Y-54610000D01*
X128778000Y-49022000D02*
X128778000Y-54610000D01*
X128778000Y-55118000D02*
X129032000Y-54864000D01*
X127508000Y-56388000D02*
X128778000Y-55118000D01*
X129242163Y-81744163D02*
X128778000Y-81280000D01*
X128778000Y-81280000D02*
X127000000Y-81280000D01*
X127000000Y-81280000D02*
X126618948Y-80898948D01*
X127508000Y-75818948D02*
X127508000Y-56388000D01*
X126618948Y-80898948D02*
X126618948Y-76708000D01*
X130382271Y-81744163D02*
X129242163Y-81744163D01*
X126618948Y-76708000D02*
X127508000Y-75818948D01*
X130810000Y-54864000D02*
X129032000Y-54864000D01*
G04 #@! TO.N,RX_1_SL*
X130382271Y-80474163D02*
X127424786Y-80474163D01*
X127424786Y-80474163D02*
X127409449Y-80489500D01*
X125828448Y-80518000D02*
X125222000Y-79911552D01*
X125222000Y-50038000D02*
X126238000Y-49022000D01*
X125222000Y-79911552D02*
X125222000Y-50038000D01*
G04 #@! TO.N,TX_2_SL*
X146558000Y-54864000D02*
X146050000Y-54356000D01*
X148110000Y-54864000D02*
X146558000Y-54864000D01*
X146050000Y-49022000D02*
X146050000Y-54356000D01*
X145288000Y-56134000D02*
X146050000Y-55372000D01*
X145288000Y-72390000D02*
X145288000Y-56134000D01*
X136265173Y-76664163D02*
X137668000Y-75261336D01*
X146050000Y-55372000D02*
X146558000Y-54864000D01*
X135782271Y-76664163D02*
X136265173Y-76664163D01*
X137668000Y-75261336D02*
X137668000Y-73914000D01*
X137668000Y-73914000D02*
X138102990Y-73479010D01*
X138102990Y-73479010D02*
X144198990Y-73479010D01*
X144198990Y-73479010D02*
X145288000Y-72390000D01*
G04 #@! TO.N,RX_2_SL*
X143510000Y-49022000D02*
X143510000Y-50099630D01*
X143510000Y-50099630D02*
X142748000Y-50861630D01*
X135782271Y-74713163D02*
X137597434Y-72898000D01*
X135782271Y-75394163D02*
X135782271Y-74713163D01*
X142240000Y-72898000D02*
X142748000Y-72390000D01*
X137597434Y-72898000D02*
X142240000Y-72898000D01*
X142748000Y-50861630D02*
X142748000Y-72390000D01*
G04 #@! TO.N,RX_3_SL*
X162560000Y-50800000D02*
X160782000Y-49022000D01*
X162560000Y-56701672D02*
X162560000Y-50800000D01*
X172765000Y-64389000D02*
X171704000Y-63328000D01*
X173896000Y-64389000D02*
X172765000Y-64389000D01*
X171704000Y-63328000D02*
X171704000Y-58166000D01*
X171704000Y-58166000D02*
X171269010Y-57731010D01*
X171269010Y-57731010D02*
X163589337Y-57731009D01*
X163589337Y-57731009D02*
X162560000Y-56701672D01*
G04 #@! TO.N,TX_3_SL*
X165382000Y-54864000D02*
X164084000Y-54864000D01*
X163322000Y-54102000D02*
X163322000Y-49022000D01*
X164084000Y-54864000D02*
X163322000Y-54102000D01*
X163830000Y-54864000D02*
X164084000Y-54864000D01*
X163576000Y-55118000D02*
X163830000Y-54864000D01*
X173896000Y-63119000D02*
X173446000Y-63119000D01*
X163576000Y-56896000D02*
X163576000Y-55118000D01*
X173446000Y-63119000D02*
X172466000Y-62139000D01*
X172466000Y-62139000D02*
X172466000Y-57912000D01*
X172466000Y-57912000D02*
X171704000Y-57150000D01*
X171704000Y-57150000D02*
X163830000Y-57150000D01*
X163830000Y-57150000D02*
X163576000Y-56896000D01*
G04 #@! TO.N,RX_1_IC*
X130832271Y-79204163D02*
X130382271Y-79204163D01*
X131826000Y-80197892D02*
X130832271Y-79204163D01*
X131826000Y-100584000D02*
X131826000Y-80197892D01*
X133858000Y-102616000D02*
X131826000Y-100584000D01*
G04 #@! TO.N,TX_1_IC*
X136398000Y-102050315D02*
X135947685Y-101600000D01*
X136398000Y-102616000D02*
X136398000Y-102050315D01*
X135947685Y-101600000D02*
X133663672Y-101600000D01*
X133663672Y-101600000D02*
X132407010Y-100343338D01*
X130832271Y-77934163D02*
X130382271Y-77934163D01*
X132407010Y-79508902D02*
X130832271Y-77934163D01*
X132407010Y-100343338D02*
X132407010Y-79508902D01*
G04 #@! TO.N,TX_2_IC*
X130382271Y-76664163D02*
X129583837Y-76664163D01*
X129583837Y-76664163D02*
X128524000Y-77724000D01*
G04 #@! TO.N,RX_2_IC*
X129251271Y-75394163D02*
X130382271Y-75394163D01*
X127362001Y-77283433D02*
X129251271Y-75394163D01*
X127362001Y-78594001D02*
X127362001Y-77283433D01*
X127762000Y-78994000D02*
X127362001Y-78594001D01*
G04 #@! TO.N,TX_3_IC*
X173446000Y-66929000D02*
X173896000Y-66929000D01*
X172494500Y-67880500D02*
X173446000Y-66929000D01*
X172494500Y-71882000D02*
X172494500Y-67880500D01*
G04 #@! TO.N,RX_3_IC*
X171704000Y-70300315D02*
X171704000Y-70866000D01*
X171704000Y-66720000D02*
X171704000Y-70300315D01*
X172765000Y-65659000D02*
X171704000Y-66720000D01*
X173896000Y-65659000D02*
X172765000Y-65659000D01*
D20*
G04 #@! TO.N,/+12V*
X155168600Y-103758000D02*
X161672000Y-103758000D01*
X161672000Y-103758000D02*
X162306000Y-103124000D01*
X162306000Y-87517000D02*
X164084000Y-85739000D01*
X162306000Y-103124000D02*
X162306000Y-87517000D01*
X167019000Y-85739000D02*
X167132000Y-85852000D01*
X164084000Y-85739000D02*
X167019000Y-85739000D01*
D19*
G04 #@! TO.N,Net-(D3-Pad2)*
X135128000Y-54864000D02*
X132560000Y-54864000D01*
G04 #@! TO.N,Net-(D4-Pad2)*
X152400000Y-54864000D02*
X149860000Y-54864000D01*
G04 #@! TO.N,Net-(D5-Pad2)*
X169700000Y-54864000D02*
X167132000Y-54864000D01*
G04 #@! TO.N,DIRECTION_SW*
X177800000Y-43434000D02*
X179070000Y-42164000D01*
X178562000Y-50038000D02*
X177800000Y-49276000D01*
X181864000Y-50038000D02*
X178562000Y-50038000D01*
X182880000Y-51054000D02*
X181864000Y-50038000D01*
X182880000Y-87630000D02*
X182880000Y-51054000D01*
X177800000Y-49276000D02*
X177800000Y-43434000D01*
X181864000Y-88646000D02*
X182880000Y-87630000D01*
X126746000Y-108204000D02*
X127180990Y-107769010D01*
X127180990Y-107769010D02*
X164518990Y-107769010D01*
X164518990Y-107769010D02*
X164846000Y-107442000D01*
X164846000Y-107442000D02*
X164846000Y-89511670D01*
X179070000Y-42164000D02*
X180848000Y-42164000D01*
X164846000Y-89511670D02*
X165711670Y-88646000D01*
X165711670Y-88646000D02*
X181864000Y-88646000D01*
D21*
G04 #@! TO.N,+5V*
X174346000Y-60579000D02*
X174473000Y-60706000D01*
X173896000Y-60579000D02*
X174346000Y-60579000D01*
D19*
X173910000Y-60593000D02*
X173896000Y-60579000D01*
X177038000Y-60593000D02*
X173910000Y-60593000D01*
X130368271Y-84270163D02*
X130382271Y-84284163D01*
X127494271Y-84270163D02*
X130368271Y-84270163D01*
X127494271Y-84270163D02*
X127494271Y-106439729D01*
X164451000Y-80772000D02*
X164084000Y-80405000D01*
X167132000Y-80772000D02*
X164451000Y-80772000D01*
X160962795Y-80405000D02*
X160958121Y-80400326D01*
X164084000Y-80405000D02*
X160962795Y-80405000D01*
X127494271Y-106666271D02*
X127494271Y-106439729D01*
X128016000Y-107188000D02*
X127494271Y-106666271D01*
X160958121Y-80400326D02*
X159512000Y-81846447D01*
X151892000Y-106426000D02*
X151130000Y-107188000D01*
X159512000Y-81846447D02*
X159512000Y-99314000D01*
X159512000Y-99314000D02*
X159004000Y-99822000D01*
X159004000Y-99822000D02*
X152400000Y-99822000D01*
X152400000Y-99822000D02*
X151892000Y-100330000D01*
X151892000Y-100330000D02*
X151892000Y-106426000D01*
X127494271Y-106666271D02*
X127494271Y-106693729D01*
X127494271Y-106693729D02*
X127000000Y-107188000D01*
X127000000Y-107188000D02*
X124460000Y-107188000D01*
X124460000Y-107188000D02*
X123698000Y-106426000D01*
X123698000Y-106426000D02*
X123698000Y-105918000D01*
X130938559Y-104873499D02*
X130048000Y-105764058D01*
X135310443Y-104873499D02*
X130938559Y-104873499D01*
X137668000Y-102515942D02*
X135310443Y-104873499D01*
X136906000Y-99427000D02*
X137668000Y-100189000D01*
X137668000Y-100189000D02*
X137668000Y-102515942D01*
X130048000Y-106680000D02*
X130556000Y-107188000D01*
X130048000Y-105764058D02*
X130048000Y-106680000D01*
X151130000Y-107188000D02*
X130556000Y-107188000D01*
X130556000Y-107188000D02*
X128016000Y-107188000D01*
X177800000Y-80772000D02*
X177800000Y-80772000D01*
X178816000Y-79756000D02*
X177800000Y-80772000D01*
X178816000Y-61214000D02*
X178816000Y-79756000D01*
X178195000Y-60593000D02*
X178816000Y-61214000D01*
X177038000Y-60593000D02*
X178195000Y-60593000D01*
G04 #@! TO.N,Net-(D6-Pad2)*
X149352000Y-95758000D02*
X149352000Y-97790000D01*
G04 #@! TO.N,Net-(D7-Pad2)*
X145034000Y-95758000D02*
X145034000Y-97790000D01*
G04 #@! TO.N,Net-(D8-Pad2)*
X140970000Y-95617000D02*
X140970000Y-97677000D01*
G04 #@! TO.N,Lspeed*
X149352000Y-105098315D02*
X149352000Y-99540000D01*
X149352000Y-105664000D02*
X149352000Y-105098315D01*
G04 #@! TO.N,Rspeed*
X145034000Y-102616000D02*
X145034000Y-99540000D01*
G04 #@! TO.N,Watchdog*
X131717999Y-106317999D02*
X140062001Y-106317999D01*
X131318000Y-105918000D02*
X131717999Y-106317999D01*
X140970000Y-105410000D02*
X140970000Y-99427000D01*
X140062001Y-106317999D02*
X140970000Y-105410000D01*
G04 #@! TO.N,Net-(D2-Pad2)*
X136906000Y-95617000D02*
X136906000Y-97677000D01*
G04 #@! TD*
D22*
G04 #@! TO.N,GND*
G36*
X181725009Y-36584090D02*
X182064352Y-36738381D01*
X182346752Y-36981712D01*
X182549506Y-37294523D01*
X182663348Y-37675184D01*
X182678000Y-37872350D01*
X182678000Y-38765785D01*
X182174963Y-38429666D01*
X181668880Y-38329000D01*
X180027120Y-38329000D01*
X179521037Y-38429666D01*
X178947135Y-38813135D01*
X178563666Y-39387037D01*
X178429010Y-40064000D01*
X178563666Y-40740963D01*
X178947135Y-41314865D01*
X178967564Y-41328515D01*
X178964625Y-41343288D01*
X178747906Y-41386396D01*
X178474848Y-41568848D01*
X178428793Y-41637774D01*
X177273775Y-42792793D01*
X177204849Y-42838848D01*
X177158794Y-42907774D01*
X177022397Y-43111906D01*
X176958328Y-43434000D01*
X176974501Y-43515306D01*
X176974500Y-49194698D01*
X176958328Y-49276000D01*
X176974500Y-49357301D01*
X176974500Y-49357302D01*
X177022396Y-49598093D01*
X177204848Y-49871152D01*
X177273777Y-49917209D01*
X177920793Y-50564226D01*
X177966848Y-50633152D01*
X178035773Y-50679206D01*
X178239905Y-50815604D01*
X178562000Y-50879672D01*
X178643303Y-50863500D01*
X181522068Y-50863500D01*
X182054501Y-51395934D01*
X182054500Y-87288067D01*
X181522068Y-87820500D01*
X165792967Y-87820500D01*
X165711669Y-87804329D01*
X165630371Y-87820500D01*
X165630367Y-87820500D01*
X165389576Y-87868396D01*
X165116518Y-88050848D01*
X165070463Y-88119774D01*
X164319775Y-88870463D01*
X164250849Y-88916518D01*
X164204794Y-88985444D01*
X164068397Y-89189576D01*
X164004328Y-89511670D01*
X164020501Y-89592976D01*
X164020500Y-106943510D01*
X152539031Y-106943510D01*
X152634391Y-106800794D01*
X152669604Y-106748095D01*
X152733672Y-106426000D01*
X152717500Y-106344697D01*
X152717500Y-105797028D01*
X153370107Y-106449635D01*
X154537053Y-106933000D01*
X155800147Y-106933000D01*
X156967093Y-106449635D01*
X157860235Y-105556493D01*
X158184354Y-104774000D01*
X161571937Y-104774000D01*
X161672000Y-104793904D01*
X161772063Y-104774000D01*
X161772065Y-104774000D01*
X162068423Y-104715051D01*
X162404495Y-104490495D01*
X162461180Y-104405660D01*
X162953661Y-103913179D01*
X163038495Y-103856495D01*
X163263051Y-103520423D01*
X163322000Y-103224065D01*
X163322000Y-103224064D01*
X163341904Y-103124001D01*
X163322000Y-103023937D01*
X163322000Y-87937840D01*
X164355080Y-86904760D01*
X164660152Y-86844078D01*
X164793466Y-86755000D01*
X166059343Y-86755000D01*
X166340663Y-87036320D01*
X166854119Y-87249000D01*
X167409881Y-87249000D01*
X167923337Y-87036320D01*
X168316320Y-86643337D01*
X168529000Y-86129881D01*
X168529000Y-85574119D01*
X168316320Y-85060663D01*
X167923337Y-84667680D01*
X167409881Y-84455000D01*
X166854119Y-84455000D01*
X166340663Y-84667680D01*
X166285343Y-84723000D01*
X164793466Y-84723000D01*
X164660152Y-84633922D01*
X164321500Y-84566560D01*
X163846500Y-84566560D01*
X163507848Y-84633922D01*
X163220753Y-84825753D01*
X163028922Y-85112848D01*
X162968240Y-85417920D01*
X161658337Y-86727822D01*
X161573506Y-86784505D01*
X161516823Y-86869337D01*
X161348950Y-87120577D01*
X161270096Y-87517000D01*
X161290001Y-87617068D01*
X161290000Y-102703160D01*
X161251160Y-102742000D01*
X158184354Y-102742000D01*
X157860235Y-101959507D01*
X156967093Y-101066365D01*
X155955864Y-100647500D01*
X158922699Y-100647500D01*
X159004000Y-100663672D01*
X159085301Y-100647500D01*
X159085303Y-100647500D01*
X159326094Y-100599604D01*
X159599152Y-100417152D01*
X159645209Y-100348224D01*
X160038225Y-99955207D01*
X160107152Y-99909152D01*
X160289604Y-99636094D01*
X160337500Y-99395303D01*
X160337500Y-99395299D01*
X160353671Y-99314001D01*
X160337500Y-99232703D01*
X160337500Y-82188379D01*
X161295380Y-81230500D01*
X163162122Y-81230500D01*
X163220753Y-81318247D01*
X163507848Y-81510078D01*
X163846500Y-81577440D01*
X164268848Y-81577440D01*
X164369697Y-81597500D01*
X164369701Y-81597500D01*
X164450999Y-81613671D01*
X164532297Y-81597500D01*
X165981843Y-81597500D01*
X166340663Y-81956320D01*
X166854119Y-82169000D01*
X167409881Y-82169000D01*
X167923337Y-81956320D01*
X168316320Y-81563337D01*
X168529000Y-81049881D01*
X168529000Y-80494119D01*
X168316320Y-79980663D01*
X167923337Y-79587680D01*
X167409881Y-79375000D01*
X166854119Y-79375000D01*
X166340663Y-79587680D01*
X165981843Y-79946500D01*
X165172426Y-79946500D01*
X165139078Y-79778848D01*
X164947247Y-79491753D01*
X164660152Y-79299922D01*
X164321500Y-79232560D01*
X163846500Y-79232560D01*
X163507848Y-79299922D01*
X163220753Y-79491753D01*
X163162122Y-79579500D01*
X161062920Y-79579500D01*
X160958121Y-79558654D01*
X160636026Y-79622723D01*
X160431894Y-79759120D01*
X160431890Y-79759124D01*
X160362970Y-79805175D01*
X160316918Y-79874096D01*
X158985777Y-81205238D01*
X158916848Y-81251295D01*
X158734396Y-81524354D01*
X158709517Y-81649431D01*
X158670328Y-81846447D01*
X158686500Y-81927749D01*
X158686501Y-98972067D01*
X158662068Y-98996500D01*
X152481297Y-98996500D01*
X152399999Y-98980329D01*
X152318701Y-98996500D01*
X152318697Y-98996500D01*
X152077906Y-99044396D01*
X151804848Y-99226848D01*
X151758793Y-99295774D01*
X151365776Y-99688791D01*
X151296848Y-99734848D01*
X151114396Y-100007907D01*
X151078375Y-100189000D01*
X151050328Y-100330000D01*
X151066500Y-100411302D01*
X151066501Y-106084066D01*
X150788068Y-106362500D01*
X150117211Y-106362500D01*
X150229431Y-106250280D01*
X150387000Y-105869874D01*
X150387000Y-105458126D01*
X150229431Y-105077720D01*
X150177500Y-105025789D01*
X150177500Y-100478469D01*
X150215247Y-100453247D01*
X150407078Y-100166152D01*
X150474440Y-99827500D01*
X150474440Y-99252500D01*
X150407078Y-98913848D01*
X150240803Y-98665000D01*
X150407078Y-98416152D01*
X150474440Y-98077500D01*
X150474440Y-97502500D01*
X150407078Y-97163848D01*
X150215247Y-96876753D01*
X150177500Y-96851531D01*
X150177500Y-96696469D01*
X150215247Y-96671247D01*
X150407078Y-96384152D01*
X150474440Y-96045500D01*
X150474440Y-95470500D01*
X150407078Y-95131848D01*
X150215247Y-94844753D01*
X149928152Y-94652922D01*
X149589500Y-94585560D01*
X149114500Y-94585560D01*
X148775848Y-94652922D01*
X148488753Y-94844753D01*
X148296922Y-95131848D01*
X148229560Y-95470500D01*
X148229560Y-96045500D01*
X148296922Y-96384152D01*
X148488753Y-96671247D01*
X148526500Y-96696469D01*
X148526501Y-96851531D01*
X148488753Y-96876753D01*
X148296922Y-97163848D01*
X148229560Y-97502500D01*
X148229560Y-98077500D01*
X148296922Y-98416152D01*
X148463197Y-98665000D01*
X148296922Y-98913848D01*
X148229560Y-99252500D01*
X148229560Y-99827500D01*
X148296922Y-100166152D01*
X148488753Y-100453247D01*
X148526501Y-100478469D01*
X148526500Y-105017012D01*
X148526500Y-105025789D01*
X148474569Y-105077720D01*
X148317000Y-105458126D01*
X148317000Y-105869874D01*
X148474569Y-106250280D01*
X148586789Y-106362500D01*
X141184933Y-106362500D01*
X141496226Y-106051207D01*
X141565152Y-106005152D01*
X141747604Y-105732094D01*
X141795500Y-105491303D01*
X141795500Y-105491302D01*
X141811672Y-105410000D01*
X141795500Y-105328697D01*
X141795500Y-100365469D01*
X141833247Y-100340247D01*
X142025078Y-100053152D01*
X142092440Y-99714500D01*
X142092440Y-99139500D01*
X142025078Y-98800848D01*
X141858803Y-98552000D01*
X142025078Y-98303152D01*
X142092440Y-97964500D01*
X142092440Y-97389500D01*
X142025078Y-97050848D01*
X141833247Y-96763753D01*
X141795500Y-96738531D01*
X141795500Y-96555469D01*
X141833247Y-96530247D01*
X142025078Y-96243152D01*
X142092440Y-95904500D01*
X142092440Y-95470500D01*
X143911560Y-95470500D01*
X143911560Y-96045500D01*
X143978922Y-96384152D01*
X144170753Y-96671247D01*
X144208500Y-96696469D01*
X144208501Y-96851531D01*
X144170753Y-96876753D01*
X143978922Y-97163848D01*
X143911560Y-97502500D01*
X143911560Y-98077500D01*
X143978922Y-98416152D01*
X144145197Y-98665000D01*
X143978922Y-98913848D01*
X143911560Y-99252500D01*
X143911560Y-99827500D01*
X143978922Y-100166152D01*
X144170753Y-100453247D01*
X144208501Y-100478469D01*
X144208500Y-101977789D01*
X144156569Y-102029720D01*
X143999000Y-102410126D01*
X143999000Y-102821874D01*
X144156569Y-103202280D01*
X144447720Y-103493431D01*
X144828126Y-103651000D01*
X145239874Y-103651000D01*
X145620280Y-103493431D01*
X145911431Y-103202280D01*
X146069000Y-102821874D01*
X146069000Y-102410126D01*
X145911431Y-102029720D01*
X145859500Y-101977789D01*
X145859500Y-100478469D01*
X145897247Y-100453247D01*
X146089078Y-100166152D01*
X146156440Y-99827500D01*
X146156440Y-99252500D01*
X146089078Y-98913848D01*
X145922803Y-98665000D01*
X146089078Y-98416152D01*
X146156440Y-98077500D01*
X146156440Y-97502500D01*
X146089078Y-97163848D01*
X145897247Y-96876753D01*
X145859500Y-96851531D01*
X145859500Y-96696469D01*
X145897247Y-96671247D01*
X146089078Y-96384152D01*
X146156440Y-96045500D01*
X146156440Y-95470500D01*
X146089078Y-95131848D01*
X145897247Y-94844753D01*
X145610152Y-94652922D01*
X145271500Y-94585560D01*
X144796500Y-94585560D01*
X144457848Y-94652922D01*
X144170753Y-94844753D01*
X143978922Y-95131848D01*
X143911560Y-95470500D01*
X142092440Y-95470500D01*
X142092440Y-95329500D01*
X142025078Y-94990848D01*
X141833247Y-94703753D01*
X141546152Y-94511922D01*
X141207500Y-94444560D01*
X140732500Y-94444560D01*
X140393848Y-94511922D01*
X140106753Y-94703753D01*
X139914922Y-94990848D01*
X139847560Y-95329500D01*
X139847560Y-95904500D01*
X139914922Y-96243152D01*
X140106753Y-96530247D01*
X140144500Y-96555469D01*
X140144501Y-96738531D01*
X140106753Y-96763753D01*
X139914922Y-97050848D01*
X139847560Y-97389500D01*
X139847560Y-97964500D01*
X139914922Y-98303152D01*
X140081197Y-98552000D01*
X139914922Y-98800848D01*
X139847560Y-99139500D01*
X139847560Y-99714500D01*
X139914922Y-100053152D01*
X140106753Y-100340247D01*
X140144501Y-100365469D01*
X140144500Y-105068067D01*
X139720069Y-105492499D01*
X135869904Y-105492499D01*
X135905595Y-105468651D01*
X135951652Y-105399722D01*
X138194226Y-103157149D01*
X138263152Y-103111094D01*
X138445604Y-102838036D01*
X138493500Y-102597245D01*
X138493500Y-102597241D01*
X138509671Y-102515943D01*
X138493500Y-102434645D01*
X138493500Y-100270303D01*
X138509672Y-100189000D01*
X138445604Y-99866905D01*
X138309206Y-99662773D01*
X138263152Y-99593848D01*
X138194226Y-99547793D01*
X138028440Y-99382007D01*
X138028440Y-99139500D01*
X137961078Y-98800848D01*
X137794803Y-98552000D01*
X137961078Y-98303152D01*
X138028440Y-97964500D01*
X138028440Y-97389500D01*
X137961078Y-97050848D01*
X137769247Y-96763753D01*
X137731500Y-96738531D01*
X137731500Y-96555469D01*
X137769247Y-96530247D01*
X137961078Y-96243152D01*
X138028440Y-95904500D01*
X138028440Y-95329500D01*
X137961078Y-94990848D01*
X137769247Y-94703753D01*
X137482152Y-94511922D01*
X137143500Y-94444560D01*
X136668500Y-94444560D01*
X136329848Y-94511922D01*
X136042753Y-94703753D01*
X135850922Y-94990848D01*
X135783560Y-95329500D01*
X135783560Y-95904500D01*
X135850922Y-96243152D01*
X136042753Y-96530247D01*
X136080500Y-96555469D01*
X136080501Y-96738531D01*
X136042753Y-96763753D01*
X135850922Y-97050848D01*
X135783560Y-97389500D01*
X135783560Y-97964500D01*
X135850922Y-98303152D01*
X136017197Y-98552000D01*
X135850922Y-98800848D01*
X135783560Y-99139500D01*
X135783560Y-99714500D01*
X135850922Y-100053152D01*
X136042753Y-100340247D01*
X136329848Y-100532078D01*
X136668500Y-100599440D01*
X136842500Y-100599440D01*
X136842500Y-101327383D01*
X136588894Y-101073777D01*
X136542837Y-101004848D01*
X136269779Y-100822396D01*
X136028988Y-100774500D01*
X136028986Y-100774500D01*
X135947685Y-100758328D01*
X135866384Y-100774500D01*
X134005606Y-100774500D01*
X133232510Y-100001406D01*
X133232510Y-83417235D01*
X133406527Y-83417235D01*
X133422699Y-83498537D01*
X133422700Y-85608785D01*
X133406527Y-85690091D01*
X133470596Y-86012185D01*
X133574831Y-86168183D01*
X133574831Y-86426663D01*
X133642193Y-86765315D01*
X133834024Y-87052410D01*
X134121119Y-87244241D01*
X134459771Y-87311603D01*
X135034771Y-87311603D01*
X135373423Y-87244241D01*
X135660518Y-87052410D01*
X135852349Y-86765315D01*
X135919711Y-86426663D01*
X135919711Y-85951663D01*
X135852349Y-85613011D01*
X135660518Y-85325916D01*
X135519369Y-85231603D01*
X136532271Y-85231603D01*
X136780036Y-85182320D01*
X136888774Y-85109663D01*
X138519748Y-85109663D01*
X138569024Y-85183410D01*
X138856119Y-85375241D01*
X139194771Y-85442603D01*
X139669771Y-85442603D01*
X140008423Y-85375241D01*
X140295518Y-85183410D01*
X140487349Y-84896315D01*
X140554711Y-84557663D01*
X140554711Y-83982663D01*
X140487349Y-83644011D01*
X140321074Y-83395163D01*
X140487349Y-83146315D01*
X140554711Y-82807663D01*
X140554711Y-82232663D01*
X140487349Y-81894011D01*
X140295518Y-81606916D01*
X140120785Y-81490163D01*
X140295518Y-81373410D01*
X140487349Y-81086315D01*
X140554711Y-80747663D01*
X140554711Y-80172663D01*
X140487349Y-79834011D01*
X140321074Y-79585163D01*
X140487349Y-79336315D01*
X140554711Y-78997663D01*
X140554711Y-78422663D01*
X140487349Y-78084011D01*
X140302365Y-77807163D01*
X140487349Y-77530315D01*
X140554711Y-77191663D01*
X140554711Y-76616663D01*
X140487349Y-76278011D01*
X140295518Y-75990916D01*
X140008423Y-75799085D01*
X139669771Y-75731723D01*
X139194771Y-75731723D01*
X138856119Y-75799085D01*
X138569024Y-75990916D01*
X138377193Y-76278011D01*
X138309831Y-76616663D01*
X138309831Y-76859171D01*
X138060339Y-77108663D01*
X137150968Y-77108663D01*
X137179711Y-76964163D01*
X137179711Y-76917057D01*
X138194226Y-75902543D01*
X138263152Y-75856488D01*
X138445604Y-75583430D01*
X138493500Y-75342639D01*
X138493500Y-75342638D01*
X138509672Y-75261336D01*
X138493500Y-75180035D01*
X138493500Y-74304510D01*
X144117689Y-74304510D01*
X144198990Y-74320682D01*
X144280291Y-74304510D01*
X144280293Y-74304510D01*
X144521084Y-74256614D01*
X144794142Y-74074162D01*
X144840199Y-74005233D01*
X145814226Y-73031207D01*
X145883152Y-72985152D01*
X145981607Y-72837804D01*
X146065604Y-72712095D01*
X146129672Y-72390000D01*
X146113500Y-72308697D01*
X146113500Y-56475932D01*
X146691206Y-55898227D01*
X146899933Y-55689500D01*
X147171531Y-55689500D01*
X147196753Y-55727247D01*
X147483848Y-55919078D01*
X147822500Y-55986440D01*
X148397500Y-55986440D01*
X148736152Y-55919078D01*
X148985000Y-55752803D01*
X149233848Y-55919078D01*
X149572500Y-55986440D01*
X150147500Y-55986440D01*
X150486152Y-55919078D01*
X150773247Y-55727247D01*
X150798469Y-55689500D01*
X151461531Y-55689500D01*
X151486753Y-55727247D01*
X151773848Y-55919078D01*
X152112500Y-55986440D01*
X152687500Y-55986440D01*
X153026152Y-55919078D01*
X153313247Y-55727247D01*
X153505078Y-55440152D01*
X153572440Y-55101500D01*
X153572440Y-54626500D01*
X153505078Y-54287848D01*
X153313247Y-54000753D01*
X153026152Y-53808922D01*
X152687500Y-53741560D01*
X152112500Y-53741560D01*
X151773848Y-53808922D01*
X151486753Y-54000753D01*
X151461531Y-54038500D01*
X150798469Y-54038500D01*
X150773247Y-54000753D01*
X150486152Y-53808922D01*
X150147500Y-53741560D01*
X149572500Y-53741560D01*
X149233848Y-53808922D01*
X148985000Y-53975197D01*
X148736152Y-53808922D01*
X148397500Y-53741560D01*
X147822500Y-53741560D01*
X147483848Y-53808922D01*
X147196753Y-54000753D01*
X147171531Y-54038500D01*
X146899933Y-54038500D01*
X146875500Y-54014068D01*
X146875500Y-50172157D01*
X147234320Y-49813337D01*
X147320000Y-49606487D01*
X147405680Y-49813337D01*
X147798663Y-50206320D01*
X148312119Y-50419000D01*
X148867881Y-50419000D01*
X149381337Y-50206320D01*
X149774320Y-49813337D01*
X149860000Y-49606487D01*
X149945680Y-49813337D01*
X150338663Y-50206320D01*
X150852119Y-50419000D01*
X151407881Y-50419000D01*
X151921337Y-50206320D01*
X152314320Y-49813337D01*
X152527000Y-49299881D01*
X152527000Y-48744119D01*
X159385000Y-48744119D01*
X159385000Y-49299881D01*
X159597680Y-49813337D01*
X159990663Y-50206320D01*
X160504119Y-50419000D01*
X161011568Y-50419000D01*
X161734501Y-51141934D01*
X161734500Y-56620370D01*
X161718328Y-56701672D01*
X161734500Y-56782973D01*
X161734500Y-56782974D01*
X161782396Y-57023765D01*
X161964848Y-57296824D01*
X162033777Y-57342881D01*
X162948131Y-58257236D01*
X162994185Y-58326160D01*
X163063108Y-58372213D01*
X163063110Y-58372215D01*
X163267242Y-58508612D01*
X163589336Y-58572680D01*
X163670639Y-58556508D01*
X168385212Y-58556509D01*
X168358560Y-58690500D01*
X168358560Y-59165500D01*
X168425922Y-59504152D01*
X168511053Y-59631560D01*
X167746000Y-59631560D01*
X167498235Y-59680843D01*
X167389497Y-59753500D01*
X164941297Y-59753500D01*
X164859999Y-59737329D01*
X164778701Y-59753500D01*
X164778697Y-59753500D01*
X164537906Y-59801396D01*
X164347592Y-59928560D01*
X164100500Y-59928560D01*
X163761848Y-59995922D01*
X163474753Y-60187753D01*
X163282922Y-60474848D01*
X163215560Y-60813500D01*
X163215560Y-61388500D01*
X163282922Y-61727152D01*
X163449197Y-61976000D01*
X163282922Y-62224848D01*
X163215560Y-62563500D01*
X163215560Y-63138500D01*
X163282922Y-63477152D01*
X163467906Y-63754000D01*
X163282922Y-64030848D01*
X163215560Y-64369500D01*
X163215560Y-64944500D01*
X163282922Y-65283152D01*
X163449197Y-65532000D01*
X163282922Y-65780848D01*
X163215560Y-66119500D01*
X163215560Y-66694500D01*
X163282922Y-67033152D01*
X163467906Y-67310000D01*
X163282922Y-67586848D01*
X163215560Y-67925500D01*
X163215560Y-68500500D01*
X163282922Y-68839152D01*
X163474753Y-69126247D01*
X163761848Y-69318078D01*
X164100500Y-69385440D01*
X164575500Y-69385440D01*
X164914152Y-69318078D01*
X165201247Y-69126247D01*
X165393078Y-68839152D01*
X165460440Y-68500500D01*
X165460440Y-68257992D01*
X165963933Y-67754500D01*
X167127303Y-67754500D01*
X167098560Y-67899000D01*
X167098560Y-68499000D01*
X167147843Y-68746765D01*
X167206132Y-68834000D01*
X167147843Y-68921235D01*
X167098560Y-69169000D01*
X167098560Y-69769000D01*
X167147843Y-70016765D01*
X167288191Y-70226809D01*
X167498235Y-70367157D01*
X167746000Y-70416440D01*
X169246000Y-70416440D01*
X169493765Y-70367157D01*
X169703809Y-70226809D01*
X169844157Y-70016765D01*
X169893440Y-69769000D01*
X169893440Y-69169000D01*
X169844157Y-68921235D01*
X169785868Y-68834000D01*
X169844157Y-68746765D01*
X169893440Y-68499000D01*
X169893440Y-67899000D01*
X169844157Y-67651235D01*
X169785868Y-67564000D01*
X169844157Y-67476765D01*
X169893440Y-67229000D01*
X169893440Y-66629000D01*
X169844157Y-66381235D01*
X169785868Y-66294000D01*
X169844157Y-66206765D01*
X169893440Y-65959000D01*
X169893440Y-65359000D01*
X169844157Y-65111235D01*
X169785868Y-65024000D01*
X169844157Y-64936765D01*
X169893440Y-64689000D01*
X169893440Y-64089000D01*
X169844157Y-63841235D01*
X169785868Y-63754000D01*
X169844157Y-63666765D01*
X169893440Y-63419000D01*
X169893440Y-62819000D01*
X169858745Y-62644575D01*
X169949094Y-62626604D01*
X170222152Y-62444152D01*
X170268209Y-62375223D01*
X170556295Y-62087137D01*
X170625224Y-62041080D01*
X170807676Y-61768022D01*
X170855572Y-61527231D01*
X170855572Y-61527230D01*
X170871744Y-61445928D01*
X170855572Y-61364627D01*
X170855572Y-59508369D01*
X170871743Y-59427071D01*
X170855572Y-59345773D01*
X170855572Y-59345769D01*
X170807676Y-59104978D01*
X170703440Y-58948978D01*
X170703440Y-58690500D01*
X170676788Y-58556510D01*
X170878501Y-58556510D01*
X170878500Y-63246698D01*
X170862328Y-63328000D01*
X170878500Y-63409301D01*
X170878500Y-63409302D01*
X170926396Y-63650093D01*
X171108848Y-63923152D01*
X171177777Y-63969209D01*
X172123793Y-64915226D01*
X172169848Y-64984152D01*
X172229485Y-65024000D01*
X172169848Y-65063848D01*
X172123793Y-65132774D01*
X171177777Y-66078791D01*
X171108848Y-66124848D01*
X170926396Y-66397907D01*
X170884824Y-66606906D01*
X170862328Y-66720000D01*
X170878500Y-66801302D01*
X170878501Y-70219008D01*
X170878500Y-70219013D01*
X170878500Y-70227789D01*
X170826569Y-70279720D01*
X170669000Y-70660126D01*
X170669000Y-71071874D01*
X170826569Y-71452280D01*
X171117720Y-71743431D01*
X171459500Y-71885001D01*
X171459500Y-72087874D01*
X171617069Y-72468280D01*
X171908220Y-72759431D01*
X172288626Y-72917000D01*
X172700374Y-72917000D01*
X173080780Y-72759431D01*
X173371931Y-72468280D01*
X173529500Y-72087874D01*
X173529500Y-71676126D01*
X173371931Y-71295720D01*
X173320000Y-71243789D01*
X173320000Y-70416440D01*
X174646000Y-70416440D01*
X174893765Y-70367157D01*
X175103809Y-70226809D01*
X175244157Y-70016765D01*
X175293440Y-69769000D01*
X175293440Y-69169000D01*
X175244157Y-68921235D01*
X175185868Y-68834000D01*
X175244157Y-68746765D01*
X175293440Y-68499000D01*
X175293440Y-67899000D01*
X175244157Y-67651235D01*
X175185868Y-67564000D01*
X175244157Y-67476765D01*
X175293440Y-67229000D01*
X175293440Y-66629000D01*
X175244157Y-66381235D01*
X175185868Y-66294000D01*
X175244157Y-66206765D01*
X175293440Y-65959000D01*
X175293440Y-65359000D01*
X175244157Y-65111235D01*
X175185868Y-65024000D01*
X175244157Y-64936765D01*
X175293440Y-64689000D01*
X175293440Y-64089000D01*
X175244157Y-63841235D01*
X175185868Y-63754000D01*
X175244157Y-63666765D01*
X175293440Y-63419000D01*
X175293440Y-62819000D01*
X175244157Y-62571235D01*
X175103809Y-62361191D01*
X174893765Y-62220843D01*
X174646000Y-62171560D01*
X173665993Y-62171560D01*
X173291500Y-61797068D01*
X173291500Y-61526440D01*
X174646000Y-61526440D01*
X174893765Y-61477157D01*
X174981551Y-61418500D01*
X176116122Y-61418500D01*
X176174753Y-61506247D01*
X176461848Y-61698078D01*
X176800500Y-61765440D01*
X177275500Y-61765440D01*
X177614152Y-61698078D01*
X177901247Y-61506247D01*
X177917096Y-61482528D01*
X177990500Y-61555933D01*
X177990501Y-79414066D01*
X177667568Y-79737000D01*
X177594126Y-79737000D01*
X177213720Y-79894569D01*
X176922569Y-80185720D01*
X176765000Y-80566126D01*
X176765000Y-80977874D01*
X176922569Y-81358280D01*
X177213720Y-81649431D01*
X177594126Y-81807000D01*
X178005874Y-81807000D01*
X178386280Y-81649431D01*
X178677431Y-81358280D01*
X178835000Y-80977874D01*
X178835000Y-80904432D01*
X179342226Y-80397207D01*
X179411152Y-80351152D01*
X179593604Y-80078094D01*
X179641500Y-79837303D01*
X179641500Y-79837302D01*
X179657672Y-79756000D01*
X179641500Y-79674699D01*
X179641500Y-61295303D01*
X179657672Y-61214000D01*
X179619780Y-61023500D01*
X179593604Y-60891906D01*
X179411152Y-60618848D01*
X179342226Y-60572793D01*
X178836209Y-60066777D01*
X178790152Y-59997848D01*
X178517094Y-59815396D01*
X178276303Y-59767500D01*
X178276301Y-59767500D01*
X178195000Y-59751328D01*
X178113699Y-59767500D01*
X177959878Y-59767500D01*
X177901247Y-59679753D01*
X177614152Y-59487922D01*
X177275500Y-59420560D01*
X176800500Y-59420560D01*
X176461848Y-59487922D01*
X176174753Y-59679753D01*
X176116122Y-59767500D01*
X175023455Y-59767500D01*
X174893765Y-59680843D01*
X174646000Y-59631560D01*
X173291500Y-59631560D01*
X173291500Y-57993303D01*
X173307672Y-57912000D01*
X173243604Y-57589905D01*
X173152586Y-57453689D01*
X173061152Y-57316848D01*
X172992226Y-57270793D01*
X172345209Y-56623777D01*
X172299152Y-56554848D01*
X172026094Y-56372396D01*
X171785303Y-56324500D01*
X171785301Y-56324500D01*
X171704000Y-56308328D01*
X171622699Y-56324500D01*
X164401500Y-56324500D01*
X164401500Y-55689500D01*
X164443531Y-55689500D01*
X164468753Y-55727247D01*
X164755848Y-55919078D01*
X165094500Y-55986440D01*
X165669500Y-55986440D01*
X166008152Y-55919078D01*
X166257000Y-55752803D01*
X166505848Y-55919078D01*
X166844500Y-55986440D01*
X167419500Y-55986440D01*
X167758152Y-55919078D01*
X168045247Y-55727247D01*
X168070469Y-55689500D01*
X168761531Y-55689500D01*
X168786753Y-55727247D01*
X169073848Y-55919078D01*
X169412500Y-55986440D01*
X169987500Y-55986440D01*
X170326152Y-55919078D01*
X170613247Y-55727247D01*
X170805078Y-55440152D01*
X170872440Y-55101500D01*
X170872440Y-54626500D01*
X170805078Y-54287848D01*
X170613247Y-54000753D01*
X170326152Y-53808922D01*
X169987500Y-53741560D01*
X169412500Y-53741560D01*
X169073848Y-53808922D01*
X168786753Y-54000753D01*
X168761531Y-54038500D01*
X168070469Y-54038500D01*
X168045247Y-54000753D01*
X167758152Y-53808922D01*
X167419500Y-53741560D01*
X166844500Y-53741560D01*
X166505848Y-53808922D01*
X166257000Y-53975197D01*
X166008152Y-53808922D01*
X165669500Y-53741560D01*
X165094500Y-53741560D01*
X164755848Y-53808922D01*
X164468753Y-54000753D01*
X164443531Y-54038500D01*
X164425933Y-54038500D01*
X164147500Y-53760068D01*
X164147500Y-50172157D01*
X164506320Y-49813337D01*
X164592000Y-49606487D01*
X164677680Y-49813337D01*
X165070663Y-50206320D01*
X165584119Y-50419000D01*
X166139881Y-50419000D01*
X166653337Y-50206320D01*
X167046320Y-49813337D01*
X167132000Y-49606487D01*
X167217680Y-49813337D01*
X167610663Y-50206320D01*
X168124119Y-50419000D01*
X168679881Y-50419000D01*
X169193337Y-50206320D01*
X169586320Y-49813337D01*
X169799000Y-49299881D01*
X169799000Y-48744119D01*
X169586320Y-48230663D01*
X169193337Y-47837680D01*
X168679881Y-47625000D01*
X168124119Y-47625000D01*
X167610663Y-47837680D01*
X167217680Y-48230663D01*
X167132000Y-48437513D01*
X167046320Y-48230663D01*
X166653337Y-47837680D01*
X166139881Y-47625000D01*
X165584119Y-47625000D01*
X165070663Y-47837680D01*
X164677680Y-48230663D01*
X164592000Y-48437513D01*
X164506320Y-48230663D01*
X164113337Y-47837680D01*
X163599881Y-47625000D01*
X163044119Y-47625000D01*
X162530663Y-47837680D01*
X162137680Y-48230663D01*
X162052000Y-48437513D01*
X161966320Y-48230663D01*
X161573337Y-47837680D01*
X161059881Y-47625000D01*
X160504119Y-47625000D01*
X159990663Y-47837680D01*
X159597680Y-48230663D01*
X159385000Y-48744119D01*
X152527000Y-48744119D01*
X152314320Y-48230663D01*
X151921337Y-47837680D01*
X151407881Y-47625000D01*
X150852119Y-47625000D01*
X150338663Y-47837680D01*
X149945680Y-48230663D01*
X149860000Y-48437513D01*
X149774320Y-48230663D01*
X149381337Y-47837680D01*
X148867881Y-47625000D01*
X148312119Y-47625000D01*
X147798663Y-47837680D01*
X147405680Y-48230663D01*
X147320000Y-48437513D01*
X147234320Y-48230663D01*
X146841337Y-47837680D01*
X146327881Y-47625000D01*
X145772119Y-47625000D01*
X145258663Y-47837680D01*
X144865680Y-48230663D01*
X144780000Y-48437513D01*
X144694320Y-48230663D01*
X144301337Y-47837680D01*
X143787881Y-47625000D01*
X143232119Y-47625000D01*
X142718663Y-47837680D01*
X142325680Y-48230663D01*
X142113000Y-48744119D01*
X142113000Y-49299881D01*
X142325680Y-49813337D01*
X142477270Y-49964927D01*
X142221777Y-50220421D01*
X142152848Y-50266478D01*
X141970396Y-50539537D01*
X141939516Y-50694782D01*
X141906328Y-50861630D01*
X141922500Y-50942932D01*
X141922501Y-72048066D01*
X141898068Y-72072500D01*
X137678731Y-72072500D01*
X137597433Y-72056329D01*
X137516135Y-72072500D01*
X137516131Y-72072500D01*
X137275340Y-72120396D01*
X137002282Y-72302848D01*
X136956227Y-72371774D01*
X135256046Y-74071956D01*
X135187120Y-74118011D01*
X135004668Y-74391069D01*
X134992004Y-74454732D01*
X134784506Y-74496006D01*
X134574462Y-74636354D01*
X134434114Y-74846398D01*
X134384831Y-75094163D01*
X134384831Y-75694163D01*
X134434114Y-75941928D01*
X134492403Y-76029163D01*
X134434114Y-76116398D01*
X134384831Y-76364163D01*
X134384831Y-76964163D01*
X134434114Y-77211928D01*
X134492403Y-77299163D01*
X134434114Y-77386398D01*
X134384831Y-77634163D01*
X134384831Y-78234163D01*
X134434114Y-78481928D01*
X134492403Y-78569163D01*
X134434114Y-78656398D01*
X134384831Y-78904163D01*
X134384831Y-79504163D01*
X134434114Y-79751928D01*
X134492403Y-79839163D01*
X134434114Y-79926398D01*
X134384831Y-80174163D01*
X134384831Y-80774163D01*
X134434114Y-81021928D01*
X134492403Y-81109163D01*
X134434114Y-81196398D01*
X134384831Y-81444163D01*
X134384831Y-82044163D01*
X134419526Y-82218588D01*
X134329177Y-82236559D01*
X134056119Y-82419011D01*
X134010062Y-82487940D01*
X133721976Y-82776026D01*
X133653047Y-82822083D01*
X133470595Y-83095142D01*
X133457422Y-83161369D01*
X133406527Y-83417235D01*
X133232510Y-83417235D01*
X133232510Y-79590199D01*
X133248681Y-79508901D01*
X133232510Y-79427603D01*
X133232510Y-79427599D01*
X133184614Y-79186808D01*
X133002162Y-78913750D01*
X132933236Y-78867695D01*
X131779711Y-77714171D01*
X131779711Y-77634163D01*
X131730428Y-77386398D01*
X131672139Y-77299163D01*
X131730428Y-77211928D01*
X131779711Y-76964163D01*
X131779711Y-76364163D01*
X131730428Y-76116398D01*
X131672139Y-76029163D01*
X131730428Y-75941928D01*
X131779711Y-75694163D01*
X131779711Y-75094163D01*
X131730428Y-74846398D01*
X131590080Y-74636354D01*
X131380036Y-74496006D01*
X131132271Y-74446723D01*
X129632271Y-74446723D01*
X129384506Y-74496006D01*
X129288798Y-74559957D01*
X129251270Y-74552492D01*
X129169972Y-74568663D01*
X129169968Y-74568663D01*
X128929177Y-74616559D01*
X128656119Y-74799011D01*
X128610064Y-74867937D01*
X128333500Y-75144501D01*
X128333500Y-56729932D01*
X129373933Y-55689500D01*
X129871531Y-55689500D01*
X129896753Y-55727247D01*
X130183848Y-55919078D01*
X130522500Y-55986440D01*
X131097500Y-55986440D01*
X131436152Y-55919078D01*
X131685000Y-55752803D01*
X131933848Y-55919078D01*
X132272500Y-55986440D01*
X132847500Y-55986440D01*
X133186152Y-55919078D01*
X133473247Y-55727247D01*
X133498469Y-55689500D01*
X134189531Y-55689500D01*
X134214753Y-55727247D01*
X134501848Y-55919078D01*
X134840500Y-55986440D01*
X135415500Y-55986440D01*
X135754152Y-55919078D01*
X136041247Y-55727247D01*
X136233078Y-55440152D01*
X136300440Y-55101500D01*
X136300440Y-54626500D01*
X136233078Y-54287848D01*
X136041247Y-54000753D01*
X135754152Y-53808922D01*
X135415500Y-53741560D01*
X134840500Y-53741560D01*
X134501848Y-53808922D01*
X134214753Y-54000753D01*
X134189531Y-54038500D01*
X133498469Y-54038500D01*
X133473247Y-54000753D01*
X133186152Y-53808922D01*
X132847500Y-53741560D01*
X132272500Y-53741560D01*
X131933848Y-53808922D01*
X131685000Y-53975197D01*
X131436152Y-53808922D01*
X131097500Y-53741560D01*
X130522500Y-53741560D01*
X130183848Y-53808922D01*
X129896753Y-54000753D01*
X129871531Y-54038500D01*
X129603500Y-54038500D01*
X129603500Y-50172157D01*
X129962320Y-49813337D01*
X130048000Y-49606487D01*
X130133680Y-49813337D01*
X130526663Y-50206320D01*
X131040119Y-50419000D01*
X131595881Y-50419000D01*
X132109337Y-50206320D01*
X132502320Y-49813337D01*
X132588000Y-49606487D01*
X132673680Y-49813337D01*
X133066663Y-50206320D01*
X133580119Y-50419000D01*
X134135881Y-50419000D01*
X134649337Y-50206320D01*
X135042320Y-49813337D01*
X135255000Y-49299881D01*
X135255000Y-48744119D01*
X135042320Y-48230663D01*
X134649337Y-47837680D01*
X134135881Y-47625000D01*
X133580119Y-47625000D01*
X133066663Y-47837680D01*
X132673680Y-48230663D01*
X132588000Y-48437513D01*
X132502320Y-48230663D01*
X132109337Y-47837680D01*
X131595881Y-47625000D01*
X131040119Y-47625000D01*
X130526663Y-47837680D01*
X130133680Y-48230663D01*
X130048000Y-48437513D01*
X129962320Y-48230663D01*
X129569337Y-47837680D01*
X129055881Y-47625000D01*
X128500119Y-47625000D01*
X127986663Y-47837680D01*
X127593680Y-48230663D01*
X127508000Y-48437513D01*
X127422320Y-48230663D01*
X127029337Y-47837680D01*
X126515881Y-47625000D01*
X125960119Y-47625000D01*
X125446663Y-47837680D01*
X125053680Y-48230663D01*
X124841000Y-48744119D01*
X124841000Y-49251568D01*
X124695775Y-49396793D01*
X124626849Y-49442848D01*
X124580795Y-49511773D01*
X124580794Y-49511774D01*
X124444397Y-49715906D01*
X124380328Y-50038000D01*
X124396501Y-50119306D01*
X124396500Y-79830250D01*
X124380328Y-79911552D01*
X124396500Y-79992853D01*
X124396500Y-79992854D01*
X124444396Y-80233645D01*
X124626848Y-80506704D01*
X124695777Y-80552761D01*
X124793448Y-80650432D01*
X124793448Y-80723874D01*
X124951017Y-81104280D01*
X125242168Y-81395431D01*
X125622574Y-81553000D01*
X126034322Y-81553000D01*
X126082241Y-81533152D01*
X126092725Y-81540157D01*
X126358791Y-81806223D01*
X126404848Y-81875152D01*
X126677906Y-82057604D01*
X126918697Y-82105500D01*
X126918698Y-82105500D01*
X127000000Y-82121672D01*
X127081301Y-82105500D01*
X128436068Y-82105500D01*
X128600954Y-82270386D01*
X128647011Y-82339315D01*
X128837204Y-82466398D01*
X128920069Y-82521767D01*
X129242163Y-82585835D01*
X129286710Y-82576974D01*
X129384506Y-82642320D01*
X129632271Y-82691603D01*
X131000501Y-82691603D01*
X131000501Y-83336723D01*
X129632271Y-83336723D01*
X129384506Y-83386006D01*
X129296720Y-83444663D01*
X128416149Y-83444663D01*
X128357518Y-83356916D01*
X128070423Y-83165085D01*
X127731771Y-83097723D01*
X127256771Y-83097723D01*
X126918119Y-83165085D01*
X126631024Y-83356916D01*
X126439193Y-83644011D01*
X126371831Y-83982663D01*
X126371831Y-84557663D01*
X126439193Y-84896315D01*
X126631024Y-85183410D01*
X126668771Y-85208632D01*
X126668772Y-106351796D01*
X126658068Y-106362500D01*
X124801933Y-106362500D01*
X124683298Y-106243865D01*
X124733000Y-106123874D01*
X124733000Y-105712126D01*
X124575431Y-105331720D01*
X124284280Y-105040569D01*
X123903874Y-104883000D01*
X123492126Y-104883000D01*
X123138000Y-105029683D01*
X123138000Y-37896581D01*
X123198090Y-37476991D01*
X123352381Y-37137648D01*
X123595712Y-36855248D01*
X123908523Y-36652494D01*
X124289184Y-36538652D01*
X124486350Y-36524000D01*
X181305419Y-36524000D01*
X181725009Y-36584090D01*
X181725009Y-36584090D01*
G37*
X181725009Y-36584090D02*
X182064352Y-36738381D01*
X182346752Y-36981712D01*
X182549506Y-37294523D01*
X182663348Y-37675184D01*
X182678000Y-37872350D01*
X182678000Y-38765785D01*
X182174963Y-38429666D01*
X181668880Y-38329000D01*
X180027120Y-38329000D01*
X179521037Y-38429666D01*
X178947135Y-38813135D01*
X178563666Y-39387037D01*
X178429010Y-40064000D01*
X178563666Y-40740963D01*
X178947135Y-41314865D01*
X178967564Y-41328515D01*
X178964625Y-41343288D01*
X178747906Y-41386396D01*
X178474848Y-41568848D01*
X178428793Y-41637774D01*
X177273775Y-42792793D01*
X177204849Y-42838848D01*
X177158794Y-42907774D01*
X177022397Y-43111906D01*
X176958328Y-43434000D01*
X176974501Y-43515306D01*
X176974500Y-49194698D01*
X176958328Y-49276000D01*
X176974500Y-49357301D01*
X176974500Y-49357302D01*
X177022396Y-49598093D01*
X177204848Y-49871152D01*
X177273777Y-49917209D01*
X177920793Y-50564226D01*
X177966848Y-50633152D01*
X178035773Y-50679206D01*
X178239905Y-50815604D01*
X178562000Y-50879672D01*
X178643303Y-50863500D01*
X181522068Y-50863500D01*
X182054501Y-51395934D01*
X182054500Y-87288067D01*
X181522068Y-87820500D01*
X165792967Y-87820500D01*
X165711669Y-87804329D01*
X165630371Y-87820500D01*
X165630367Y-87820500D01*
X165389576Y-87868396D01*
X165116518Y-88050848D01*
X165070463Y-88119774D01*
X164319775Y-88870463D01*
X164250849Y-88916518D01*
X164204794Y-88985444D01*
X164068397Y-89189576D01*
X164004328Y-89511670D01*
X164020501Y-89592976D01*
X164020500Y-106943510D01*
X152539031Y-106943510D01*
X152634391Y-106800794D01*
X152669604Y-106748095D01*
X152733672Y-106426000D01*
X152717500Y-106344697D01*
X152717500Y-105797028D01*
X153370107Y-106449635D01*
X154537053Y-106933000D01*
X155800147Y-106933000D01*
X156967093Y-106449635D01*
X157860235Y-105556493D01*
X158184354Y-104774000D01*
X161571937Y-104774000D01*
X161672000Y-104793904D01*
X161772063Y-104774000D01*
X161772065Y-104774000D01*
X162068423Y-104715051D01*
X162404495Y-104490495D01*
X162461180Y-104405660D01*
X162953661Y-103913179D01*
X163038495Y-103856495D01*
X163263051Y-103520423D01*
X163322000Y-103224065D01*
X163322000Y-103224064D01*
X163341904Y-103124001D01*
X163322000Y-103023937D01*
X163322000Y-87937840D01*
X164355080Y-86904760D01*
X164660152Y-86844078D01*
X164793466Y-86755000D01*
X166059343Y-86755000D01*
X166340663Y-87036320D01*
X166854119Y-87249000D01*
X167409881Y-87249000D01*
X167923337Y-87036320D01*
X168316320Y-86643337D01*
X168529000Y-86129881D01*
X168529000Y-85574119D01*
X168316320Y-85060663D01*
X167923337Y-84667680D01*
X167409881Y-84455000D01*
X166854119Y-84455000D01*
X166340663Y-84667680D01*
X166285343Y-84723000D01*
X164793466Y-84723000D01*
X164660152Y-84633922D01*
X164321500Y-84566560D01*
X163846500Y-84566560D01*
X163507848Y-84633922D01*
X163220753Y-84825753D01*
X163028922Y-85112848D01*
X162968240Y-85417920D01*
X161658337Y-86727822D01*
X161573506Y-86784505D01*
X161516823Y-86869337D01*
X161348950Y-87120577D01*
X161270096Y-87517000D01*
X161290001Y-87617068D01*
X161290000Y-102703160D01*
X161251160Y-102742000D01*
X158184354Y-102742000D01*
X157860235Y-101959507D01*
X156967093Y-101066365D01*
X155955864Y-100647500D01*
X158922699Y-100647500D01*
X159004000Y-100663672D01*
X159085301Y-100647500D01*
X159085303Y-100647500D01*
X159326094Y-100599604D01*
X159599152Y-100417152D01*
X159645209Y-100348224D01*
X160038225Y-99955207D01*
X160107152Y-99909152D01*
X160289604Y-99636094D01*
X160337500Y-99395303D01*
X160337500Y-99395299D01*
X160353671Y-99314001D01*
X160337500Y-99232703D01*
X160337500Y-82188379D01*
X161295380Y-81230500D01*
X163162122Y-81230500D01*
X163220753Y-81318247D01*
X163507848Y-81510078D01*
X163846500Y-81577440D01*
X164268848Y-81577440D01*
X164369697Y-81597500D01*
X164369701Y-81597500D01*
X164450999Y-81613671D01*
X164532297Y-81597500D01*
X165981843Y-81597500D01*
X166340663Y-81956320D01*
X166854119Y-82169000D01*
X167409881Y-82169000D01*
X167923337Y-81956320D01*
X168316320Y-81563337D01*
X168529000Y-81049881D01*
X168529000Y-80494119D01*
X168316320Y-79980663D01*
X167923337Y-79587680D01*
X167409881Y-79375000D01*
X166854119Y-79375000D01*
X166340663Y-79587680D01*
X165981843Y-79946500D01*
X165172426Y-79946500D01*
X165139078Y-79778848D01*
X164947247Y-79491753D01*
X164660152Y-79299922D01*
X164321500Y-79232560D01*
X163846500Y-79232560D01*
X163507848Y-79299922D01*
X163220753Y-79491753D01*
X163162122Y-79579500D01*
X161062920Y-79579500D01*
X160958121Y-79558654D01*
X160636026Y-79622723D01*
X160431894Y-79759120D01*
X160431890Y-79759124D01*
X160362970Y-79805175D01*
X160316918Y-79874096D01*
X158985777Y-81205238D01*
X158916848Y-81251295D01*
X158734396Y-81524354D01*
X158709517Y-81649431D01*
X158670328Y-81846447D01*
X158686500Y-81927749D01*
X158686501Y-98972067D01*
X158662068Y-98996500D01*
X152481297Y-98996500D01*
X152399999Y-98980329D01*
X152318701Y-98996500D01*
X152318697Y-98996500D01*
X152077906Y-99044396D01*
X151804848Y-99226848D01*
X151758793Y-99295774D01*
X151365776Y-99688791D01*
X151296848Y-99734848D01*
X151114396Y-100007907D01*
X151078375Y-100189000D01*
X151050328Y-100330000D01*
X151066500Y-100411302D01*
X151066501Y-106084066D01*
X150788068Y-106362500D01*
X150117211Y-106362500D01*
X150229431Y-106250280D01*
X150387000Y-105869874D01*
X150387000Y-105458126D01*
X150229431Y-105077720D01*
X150177500Y-105025789D01*
X150177500Y-100478469D01*
X150215247Y-100453247D01*
X150407078Y-100166152D01*
X150474440Y-99827500D01*
X150474440Y-99252500D01*
X150407078Y-98913848D01*
X150240803Y-98665000D01*
X150407078Y-98416152D01*
X150474440Y-98077500D01*
X150474440Y-97502500D01*
X150407078Y-97163848D01*
X150215247Y-96876753D01*
X150177500Y-96851531D01*
X150177500Y-96696469D01*
X150215247Y-96671247D01*
X150407078Y-96384152D01*
X150474440Y-96045500D01*
X150474440Y-95470500D01*
X150407078Y-95131848D01*
X150215247Y-94844753D01*
X149928152Y-94652922D01*
X149589500Y-94585560D01*
X149114500Y-94585560D01*
X148775848Y-94652922D01*
X148488753Y-94844753D01*
X148296922Y-95131848D01*
X148229560Y-95470500D01*
X148229560Y-96045500D01*
X148296922Y-96384152D01*
X148488753Y-96671247D01*
X148526500Y-96696469D01*
X148526501Y-96851531D01*
X148488753Y-96876753D01*
X148296922Y-97163848D01*
X148229560Y-97502500D01*
X148229560Y-98077500D01*
X148296922Y-98416152D01*
X148463197Y-98665000D01*
X148296922Y-98913848D01*
X148229560Y-99252500D01*
X148229560Y-99827500D01*
X148296922Y-100166152D01*
X148488753Y-100453247D01*
X148526501Y-100478469D01*
X148526500Y-105017012D01*
X148526500Y-105025789D01*
X148474569Y-105077720D01*
X148317000Y-105458126D01*
X148317000Y-105869874D01*
X148474569Y-106250280D01*
X148586789Y-106362500D01*
X141184933Y-106362500D01*
X141496226Y-106051207D01*
X141565152Y-106005152D01*
X141747604Y-105732094D01*
X141795500Y-105491303D01*
X141795500Y-105491302D01*
X141811672Y-105410000D01*
X141795500Y-105328697D01*
X141795500Y-100365469D01*
X141833247Y-100340247D01*
X142025078Y-100053152D01*
X142092440Y-99714500D01*
X142092440Y-99139500D01*
X142025078Y-98800848D01*
X141858803Y-98552000D01*
X142025078Y-98303152D01*
X142092440Y-97964500D01*
X142092440Y-97389500D01*
X142025078Y-97050848D01*
X141833247Y-96763753D01*
X141795500Y-96738531D01*
X141795500Y-96555469D01*
X141833247Y-96530247D01*
X142025078Y-96243152D01*
X142092440Y-95904500D01*
X142092440Y-95470500D01*
X143911560Y-95470500D01*
X143911560Y-96045500D01*
X143978922Y-96384152D01*
X144170753Y-96671247D01*
X144208500Y-96696469D01*
X144208501Y-96851531D01*
X144170753Y-96876753D01*
X143978922Y-97163848D01*
X143911560Y-97502500D01*
X143911560Y-98077500D01*
X143978922Y-98416152D01*
X144145197Y-98665000D01*
X143978922Y-98913848D01*
X143911560Y-99252500D01*
X143911560Y-99827500D01*
X143978922Y-100166152D01*
X144170753Y-100453247D01*
X144208501Y-100478469D01*
X144208500Y-101977789D01*
X144156569Y-102029720D01*
X143999000Y-102410126D01*
X143999000Y-102821874D01*
X144156569Y-103202280D01*
X144447720Y-103493431D01*
X144828126Y-103651000D01*
X145239874Y-103651000D01*
X145620280Y-103493431D01*
X145911431Y-103202280D01*
X146069000Y-102821874D01*
X146069000Y-102410126D01*
X145911431Y-102029720D01*
X145859500Y-101977789D01*
X145859500Y-100478469D01*
X145897247Y-100453247D01*
X146089078Y-100166152D01*
X146156440Y-99827500D01*
X146156440Y-99252500D01*
X146089078Y-98913848D01*
X145922803Y-98665000D01*
X146089078Y-98416152D01*
X146156440Y-98077500D01*
X146156440Y-97502500D01*
X146089078Y-97163848D01*
X145897247Y-96876753D01*
X145859500Y-96851531D01*
X145859500Y-96696469D01*
X145897247Y-96671247D01*
X146089078Y-96384152D01*
X146156440Y-96045500D01*
X146156440Y-95470500D01*
X146089078Y-95131848D01*
X145897247Y-94844753D01*
X145610152Y-94652922D01*
X145271500Y-94585560D01*
X144796500Y-94585560D01*
X144457848Y-94652922D01*
X144170753Y-94844753D01*
X143978922Y-95131848D01*
X143911560Y-95470500D01*
X142092440Y-95470500D01*
X142092440Y-95329500D01*
X142025078Y-94990848D01*
X141833247Y-94703753D01*
X141546152Y-94511922D01*
X141207500Y-94444560D01*
X140732500Y-94444560D01*
X140393848Y-94511922D01*
X140106753Y-94703753D01*
X139914922Y-94990848D01*
X139847560Y-95329500D01*
X139847560Y-95904500D01*
X139914922Y-96243152D01*
X140106753Y-96530247D01*
X140144500Y-96555469D01*
X140144501Y-96738531D01*
X140106753Y-96763753D01*
X139914922Y-97050848D01*
X139847560Y-97389500D01*
X139847560Y-97964500D01*
X139914922Y-98303152D01*
X140081197Y-98552000D01*
X139914922Y-98800848D01*
X139847560Y-99139500D01*
X139847560Y-99714500D01*
X139914922Y-100053152D01*
X140106753Y-100340247D01*
X140144501Y-100365469D01*
X140144500Y-105068067D01*
X139720069Y-105492499D01*
X135869904Y-105492499D01*
X135905595Y-105468651D01*
X135951652Y-105399722D01*
X138194226Y-103157149D01*
X138263152Y-103111094D01*
X138445604Y-102838036D01*
X138493500Y-102597245D01*
X138493500Y-102597241D01*
X138509671Y-102515943D01*
X138493500Y-102434645D01*
X138493500Y-100270303D01*
X138509672Y-100189000D01*
X138445604Y-99866905D01*
X138309206Y-99662773D01*
X138263152Y-99593848D01*
X138194226Y-99547793D01*
X138028440Y-99382007D01*
X138028440Y-99139500D01*
X137961078Y-98800848D01*
X137794803Y-98552000D01*
X137961078Y-98303152D01*
X138028440Y-97964500D01*
X138028440Y-97389500D01*
X137961078Y-97050848D01*
X137769247Y-96763753D01*
X137731500Y-96738531D01*
X137731500Y-96555469D01*
X137769247Y-96530247D01*
X137961078Y-96243152D01*
X138028440Y-95904500D01*
X138028440Y-95329500D01*
X137961078Y-94990848D01*
X137769247Y-94703753D01*
X137482152Y-94511922D01*
X137143500Y-94444560D01*
X136668500Y-94444560D01*
X136329848Y-94511922D01*
X136042753Y-94703753D01*
X135850922Y-94990848D01*
X135783560Y-95329500D01*
X135783560Y-95904500D01*
X135850922Y-96243152D01*
X136042753Y-96530247D01*
X136080500Y-96555469D01*
X136080501Y-96738531D01*
X136042753Y-96763753D01*
X135850922Y-97050848D01*
X135783560Y-97389500D01*
X135783560Y-97964500D01*
X135850922Y-98303152D01*
X136017197Y-98552000D01*
X135850922Y-98800848D01*
X135783560Y-99139500D01*
X135783560Y-99714500D01*
X135850922Y-100053152D01*
X136042753Y-100340247D01*
X136329848Y-100532078D01*
X136668500Y-100599440D01*
X136842500Y-100599440D01*
X136842500Y-101327383D01*
X136588894Y-101073777D01*
X136542837Y-101004848D01*
X136269779Y-100822396D01*
X136028988Y-100774500D01*
X136028986Y-100774500D01*
X135947685Y-100758328D01*
X135866384Y-100774500D01*
X134005606Y-100774500D01*
X133232510Y-100001406D01*
X133232510Y-83417235D01*
X133406527Y-83417235D01*
X133422699Y-83498537D01*
X133422700Y-85608785D01*
X133406527Y-85690091D01*
X133470596Y-86012185D01*
X133574831Y-86168183D01*
X133574831Y-86426663D01*
X133642193Y-86765315D01*
X133834024Y-87052410D01*
X134121119Y-87244241D01*
X134459771Y-87311603D01*
X135034771Y-87311603D01*
X135373423Y-87244241D01*
X135660518Y-87052410D01*
X135852349Y-86765315D01*
X135919711Y-86426663D01*
X135919711Y-85951663D01*
X135852349Y-85613011D01*
X135660518Y-85325916D01*
X135519369Y-85231603D01*
X136532271Y-85231603D01*
X136780036Y-85182320D01*
X136888774Y-85109663D01*
X138519748Y-85109663D01*
X138569024Y-85183410D01*
X138856119Y-85375241D01*
X139194771Y-85442603D01*
X139669771Y-85442603D01*
X140008423Y-85375241D01*
X140295518Y-85183410D01*
X140487349Y-84896315D01*
X140554711Y-84557663D01*
X140554711Y-83982663D01*
X140487349Y-83644011D01*
X140321074Y-83395163D01*
X140487349Y-83146315D01*
X140554711Y-82807663D01*
X140554711Y-82232663D01*
X140487349Y-81894011D01*
X140295518Y-81606916D01*
X140120785Y-81490163D01*
X140295518Y-81373410D01*
X140487349Y-81086315D01*
X140554711Y-80747663D01*
X140554711Y-80172663D01*
X140487349Y-79834011D01*
X140321074Y-79585163D01*
X140487349Y-79336315D01*
X140554711Y-78997663D01*
X140554711Y-78422663D01*
X140487349Y-78084011D01*
X140302365Y-77807163D01*
X140487349Y-77530315D01*
X140554711Y-77191663D01*
X140554711Y-76616663D01*
X140487349Y-76278011D01*
X140295518Y-75990916D01*
X140008423Y-75799085D01*
X139669771Y-75731723D01*
X139194771Y-75731723D01*
X138856119Y-75799085D01*
X138569024Y-75990916D01*
X138377193Y-76278011D01*
X138309831Y-76616663D01*
X138309831Y-76859171D01*
X138060339Y-77108663D01*
X137150968Y-77108663D01*
X137179711Y-76964163D01*
X137179711Y-76917057D01*
X138194226Y-75902543D01*
X138263152Y-75856488D01*
X138445604Y-75583430D01*
X138493500Y-75342639D01*
X138493500Y-75342638D01*
X138509672Y-75261336D01*
X138493500Y-75180035D01*
X138493500Y-74304510D01*
X144117689Y-74304510D01*
X144198990Y-74320682D01*
X144280291Y-74304510D01*
X144280293Y-74304510D01*
X144521084Y-74256614D01*
X144794142Y-74074162D01*
X144840199Y-74005233D01*
X145814226Y-73031207D01*
X145883152Y-72985152D01*
X145981607Y-72837804D01*
X146065604Y-72712095D01*
X146129672Y-72390000D01*
X146113500Y-72308697D01*
X146113500Y-56475932D01*
X146691206Y-55898227D01*
X146899933Y-55689500D01*
X147171531Y-55689500D01*
X147196753Y-55727247D01*
X147483848Y-55919078D01*
X147822500Y-55986440D01*
X148397500Y-55986440D01*
X148736152Y-55919078D01*
X148985000Y-55752803D01*
X149233848Y-55919078D01*
X149572500Y-55986440D01*
X150147500Y-55986440D01*
X150486152Y-55919078D01*
X150773247Y-55727247D01*
X150798469Y-55689500D01*
X151461531Y-55689500D01*
X151486753Y-55727247D01*
X151773848Y-55919078D01*
X152112500Y-55986440D01*
X152687500Y-55986440D01*
X153026152Y-55919078D01*
X153313247Y-55727247D01*
X153505078Y-55440152D01*
X153572440Y-55101500D01*
X153572440Y-54626500D01*
X153505078Y-54287848D01*
X153313247Y-54000753D01*
X153026152Y-53808922D01*
X152687500Y-53741560D01*
X152112500Y-53741560D01*
X151773848Y-53808922D01*
X151486753Y-54000753D01*
X151461531Y-54038500D01*
X150798469Y-54038500D01*
X150773247Y-54000753D01*
X150486152Y-53808922D01*
X150147500Y-53741560D01*
X149572500Y-53741560D01*
X149233848Y-53808922D01*
X148985000Y-53975197D01*
X148736152Y-53808922D01*
X148397500Y-53741560D01*
X147822500Y-53741560D01*
X147483848Y-53808922D01*
X147196753Y-54000753D01*
X147171531Y-54038500D01*
X146899933Y-54038500D01*
X146875500Y-54014068D01*
X146875500Y-50172157D01*
X147234320Y-49813337D01*
X147320000Y-49606487D01*
X147405680Y-49813337D01*
X147798663Y-50206320D01*
X148312119Y-50419000D01*
X148867881Y-50419000D01*
X149381337Y-50206320D01*
X149774320Y-49813337D01*
X149860000Y-49606487D01*
X149945680Y-49813337D01*
X150338663Y-50206320D01*
X150852119Y-50419000D01*
X151407881Y-50419000D01*
X151921337Y-50206320D01*
X152314320Y-49813337D01*
X152527000Y-49299881D01*
X152527000Y-48744119D01*
X159385000Y-48744119D01*
X159385000Y-49299881D01*
X159597680Y-49813337D01*
X159990663Y-50206320D01*
X160504119Y-50419000D01*
X161011568Y-50419000D01*
X161734501Y-51141934D01*
X161734500Y-56620370D01*
X161718328Y-56701672D01*
X161734500Y-56782973D01*
X161734500Y-56782974D01*
X161782396Y-57023765D01*
X161964848Y-57296824D01*
X162033777Y-57342881D01*
X162948131Y-58257236D01*
X162994185Y-58326160D01*
X163063108Y-58372213D01*
X163063110Y-58372215D01*
X163267242Y-58508612D01*
X163589336Y-58572680D01*
X163670639Y-58556508D01*
X168385212Y-58556509D01*
X168358560Y-58690500D01*
X168358560Y-59165500D01*
X168425922Y-59504152D01*
X168511053Y-59631560D01*
X167746000Y-59631560D01*
X167498235Y-59680843D01*
X167389497Y-59753500D01*
X164941297Y-59753500D01*
X164859999Y-59737329D01*
X164778701Y-59753500D01*
X164778697Y-59753500D01*
X164537906Y-59801396D01*
X164347592Y-59928560D01*
X164100500Y-59928560D01*
X163761848Y-59995922D01*
X163474753Y-60187753D01*
X163282922Y-60474848D01*
X163215560Y-60813500D01*
X163215560Y-61388500D01*
X163282922Y-61727152D01*
X163449197Y-61976000D01*
X163282922Y-62224848D01*
X163215560Y-62563500D01*
X163215560Y-63138500D01*
X163282922Y-63477152D01*
X163467906Y-63754000D01*
X163282922Y-64030848D01*
X163215560Y-64369500D01*
X163215560Y-64944500D01*
X163282922Y-65283152D01*
X163449197Y-65532000D01*
X163282922Y-65780848D01*
X163215560Y-66119500D01*
X163215560Y-66694500D01*
X163282922Y-67033152D01*
X163467906Y-67310000D01*
X163282922Y-67586848D01*
X163215560Y-67925500D01*
X163215560Y-68500500D01*
X163282922Y-68839152D01*
X163474753Y-69126247D01*
X163761848Y-69318078D01*
X164100500Y-69385440D01*
X164575500Y-69385440D01*
X164914152Y-69318078D01*
X165201247Y-69126247D01*
X165393078Y-68839152D01*
X165460440Y-68500500D01*
X165460440Y-68257992D01*
X165963933Y-67754500D01*
X167127303Y-67754500D01*
X167098560Y-67899000D01*
X167098560Y-68499000D01*
X167147843Y-68746765D01*
X167206132Y-68834000D01*
X167147843Y-68921235D01*
X167098560Y-69169000D01*
X167098560Y-69769000D01*
X167147843Y-70016765D01*
X167288191Y-70226809D01*
X167498235Y-70367157D01*
X167746000Y-70416440D01*
X169246000Y-70416440D01*
X169493765Y-70367157D01*
X169703809Y-70226809D01*
X169844157Y-70016765D01*
X169893440Y-69769000D01*
X169893440Y-69169000D01*
X169844157Y-68921235D01*
X169785868Y-68834000D01*
X169844157Y-68746765D01*
X169893440Y-68499000D01*
X169893440Y-67899000D01*
X169844157Y-67651235D01*
X169785868Y-67564000D01*
X169844157Y-67476765D01*
X169893440Y-67229000D01*
X169893440Y-66629000D01*
X169844157Y-66381235D01*
X169785868Y-66294000D01*
X169844157Y-66206765D01*
X169893440Y-65959000D01*
X169893440Y-65359000D01*
X169844157Y-65111235D01*
X169785868Y-65024000D01*
X169844157Y-64936765D01*
X169893440Y-64689000D01*
X169893440Y-64089000D01*
X169844157Y-63841235D01*
X169785868Y-63754000D01*
X169844157Y-63666765D01*
X169893440Y-63419000D01*
X169893440Y-62819000D01*
X169858745Y-62644575D01*
X169949094Y-62626604D01*
X170222152Y-62444152D01*
X170268209Y-62375223D01*
X170556295Y-62087137D01*
X170625224Y-62041080D01*
X170807676Y-61768022D01*
X170855572Y-61527231D01*
X170855572Y-61527230D01*
X170871744Y-61445928D01*
X170855572Y-61364627D01*
X170855572Y-59508369D01*
X170871743Y-59427071D01*
X170855572Y-59345773D01*
X170855572Y-59345769D01*
X170807676Y-59104978D01*
X170703440Y-58948978D01*
X170703440Y-58690500D01*
X170676788Y-58556510D01*
X170878501Y-58556510D01*
X170878500Y-63246698D01*
X170862328Y-63328000D01*
X170878500Y-63409301D01*
X170878500Y-63409302D01*
X170926396Y-63650093D01*
X171108848Y-63923152D01*
X171177777Y-63969209D01*
X172123793Y-64915226D01*
X172169848Y-64984152D01*
X172229485Y-65024000D01*
X172169848Y-65063848D01*
X172123793Y-65132774D01*
X171177777Y-66078791D01*
X171108848Y-66124848D01*
X170926396Y-66397907D01*
X170884824Y-66606906D01*
X170862328Y-66720000D01*
X170878500Y-66801302D01*
X170878501Y-70219008D01*
X170878500Y-70219013D01*
X170878500Y-70227789D01*
X170826569Y-70279720D01*
X170669000Y-70660126D01*
X170669000Y-71071874D01*
X170826569Y-71452280D01*
X171117720Y-71743431D01*
X171459500Y-71885001D01*
X171459500Y-72087874D01*
X171617069Y-72468280D01*
X171908220Y-72759431D01*
X172288626Y-72917000D01*
X172700374Y-72917000D01*
X173080780Y-72759431D01*
X173371931Y-72468280D01*
X173529500Y-72087874D01*
X173529500Y-71676126D01*
X173371931Y-71295720D01*
X173320000Y-71243789D01*
X173320000Y-70416440D01*
X174646000Y-70416440D01*
X174893765Y-70367157D01*
X175103809Y-70226809D01*
X175244157Y-70016765D01*
X175293440Y-69769000D01*
X175293440Y-69169000D01*
X175244157Y-68921235D01*
X175185868Y-68834000D01*
X175244157Y-68746765D01*
X175293440Y-68499000D01*
X175293440Y-67899000D01*
X175244157Y-67651235D01*
X175185868Y-67564000D01*
X175244157Y-67476765D01*
X175293440Y-67229000D01*
X175293440Y-66629000D01*
X175244157Y-66381235D01*
X175185868Y-66294000D01*
X175244157Y-66206765D01*
X175293440Y-65959000D01*
X175293440Y-65359000D01*
X175244157Y-65111235D01*
X175185868Y-65024000D01*
X175244157Y-64936765D01*
X175293440Y-64689000D01*
X175293440Y-64089000D01*
X175244157Y-63841235D01*
X175185868Y-63754000D01*
X175244157Y-63666765D01*
X175293440Y-63419000D01*
X175293440Y-62819000D01*
X175244157Y-62571235D01*
X175103809Y-62361191D01*
X174893765Y-62220843D01*
X174646000Y-62171560D01*
X173665993Y-62171560D01*
X173291500Y-61797068D01*
X173291500Y-61526440D01*
X174646000Y-61526440D01*
X174893765Y-61477157D01*
X174981551Y-61418500D01*
X176116122Y-61418500D01*
X176174753Y-61506247D01*
X176461848Y-61698078D01*
X176800500Y-61765440D01*
X177275500Y-61765440D01*
X177614152Y-61698078D01*
X177901247Y-61506247D01*
X177917096Y-61482528D01*
X177990500Y-61555933D01*
X177990501Y-79414066D01*
X177667568Y-79737000D01*
X177594126Y-79737000D01*
X177213720Y-79894569D01*
X176922569Y-80185720D01*
X176765000Y-80566126D01*
X176765000Y-80977874D01*
X176922569Y-81358280D01*
X177213720Y-81649431D01*
X177594126Y-81807000D01*
X178005874Y-81807000D01*
X178386280Y-81649431D01*
X178677431Y-81358280D01*
X178835000Y-80977874D01*
X178835000Y-80904432D01*
X179342226Y-80397207D01*
X179411152Y-80351152D01*
X179593604Y-80078094D01*
X179641500Y-79837303D01*
X179641500Y-79837302D01*
X179657672Y-79756000D01*
X179641500Y-79674699D01*
X179641500Y-61295303D01*
X179657672Y-61214000D01*
X179619780Y-61023500D01*
X179593604Y-60891906D01*
X179411152Y-60618848D01*
X179342226Y-60572793D01*
X178836209Y-60066777D01*
X178790152Y-59997848D01*
X178517094Y-59815396D01*
X178276303Y-59767500D01*
X178276301Y-59767500D01*
X178195000Y-59751328D01*
X178113699Y-59767500D01*
X177959878Y-59767500D01*
X177901247Y-59679753D01*
X177614152Y-59487922D01*
X177275500Y-59420560D01*
X176800500Y-59420560D01*
X176461848Y-59487922D01*
X176174753Y-59679753D01*
X176116122Y-59767500D01*
X175023455Y-59767500D01*
X174893765Y-59680843D01*
X174646000Y-59631560D01*
X173291500Y-59631560D01*
X173291500Y-57993303D01*
X173307672Y-57912000D01*
X173243604Y-57589905D01*
X173152586Y-57453689D01*
X173061152Y-57316848D01*
X172992226Y-57270793D01*
X172345209Y-56623777D01*
X172299152Y-56554848D01*
X172026094Y-56372396D01*
X171785303Y-56324500D01*
X171785301Y-56324500D01*
X171704000Y-56308328D01*
X171622699Y-56324500D01*
X164401500Y-56324500D01*
X164401500Y-55689500D01*
X164443531Y-55689500D01*
X164468753Y-55727247D01*
X164755848Y-55919078D01*
X165094500Y-55986440D01*
X165669500Y-55986440D01*
X166008152Y-55919078D01*
X166257000Y-55752803D01*
X166505848Y-55919078D01*
X166844500Y-55986440D01*
X167419500Y-55986440D01*
X167758152Y-55919078D01*
X168045247Y-55727247D01*
X168070469Y-55689500D01*
X168761531Y-55689500D01*
X168786753Y-55727247D01*
X169073848Y-55919078D01*
X169412500Y-55986440D01*
X169987500Y-55986440D01*
X170326152Y-55919078D01*
X170613247Y-55727247D01*
X170805078Y-55440152D01*
X170872440Y-55101500D01*
X170872440Y-54626500D01*
X170805078Y-54287848D01*
X170613247Y-54000753D01*
X170326152Y-53808922D01*
X169987500Y-53741560D01*
X169412500Y-53741560D01*
X169073848Y-53808922D01*
X168786753Y-54000753D01*
X168761531Y-54038500D01*
X168070469Y-54038500D01*
X168045247Y-54000753D01*
X167758152Y-53808922D01*
X167419500Y-53741560D01*
X166844500Y-53741560D01*
X166505848Y-53808922D01*
X166257000Y-53975197D01*
X166008152Y-53808922D01*
X165669500Y-53741560D01*
X165094500Y-53741560D01*
X164755848Y-53808922D01*
X164468753Y-54000753D01*
X164443531Y-54038500D01*
X164425933Y-54038500D01*
X164147500Y-53760068D01*
X164147500Y-50172157D01*
X164506320Y-49813337D01*
X164592000Y-49606487D01*
X164677680Y-49813337D01*
X165070663Y-50206320D01*
X165584119Y-50419000D01*
X166139881Y-50419000D01*
X166653337Y-50206320D01*
X167046320Y-49813337D01*
X167132000Y-49606487D01*
X167217680Y-49813337D01*
X167610663Y-50206320D01*
X168124119Y-50419000D01*
X168679881Y-50419000D01*
X169193337Y-50206320D01*
X169586320Y-49813337D01*
X169799000Y-49299881D01*
X169799000Y-48744119D01*
X169586320Y-48230663D01*
X169193337Y-47837680D01*
X168679881Y-47625000D01*
X168124119Y-47625000D01*
X167610663Y-47837680D01*
X167217680Y-48230663D01*
X167132000Y-48437513D01*
X167046320Y-48230663D01*
X166653337Y-47837680D01*
X166139881Y-47625000D01*
X165584119Y-47625000D01*
X165070663Y-47837680D01*
X164677680Y-48230663D01*
X164592000Y-48437513D01*
X164506320Y-48230663D01*
X164113337Y-47837680D01*
X163599881Y-47625000D01*
X163044119Y-47625000D01*
X162530663Y-47837680D01*
X162137680Y-48230663D01*
X162052000Y-48437513D01*
X161966320Y-48230663D01*
X161573337Y-47837680D01*
X161059881Y-47625000D01*
X160504119Y-47625000D01*
X159990663Y-47837680D01*
X159597680Y-48230663D01*
X159385000Y-48744119D01*
X152527000Y-48744119D01*
X152314320Y-48230663D01*
X151921337Y-47837680D01*
X151407881Y-47625000D01*
X150852119Y-47625000D01*
X150338663Y-47837680D01*
X149945680Y-48230663D01*
X149860000Y-48437513D01*
X149774320Y-48230663D01*
X149381337Y-47837680D01*
X148867881Y-47625000D01*
X148312119Y-47625000D01*
X147798663Y-47837680D01*
X147405680Y-48230663D01*
X147320000Y-48437513D01*
X147234320Y-48230663D01*
X146841337Y-47837680D01*
X146327881Y-47625000D01*
X145772119Y-47625000D01*
X145258663Y-47837680D01*
X144865680Y-48230663D01*
X144780000Y-48437513D01*
X144694320Y-48230663D01*
X144301337Y-47837680D01*
X143787881Y-47625000D01*
X143232119Y-47625000D01*
X142718663Y-47837680D01*
X142325680Y-48230663D01*
X142113000Y-48744119D01*
X142113000Y-49299881D01*
X142325680Y-49813337D01*
X142477270Y-49964927D01*
X142221777Y-50220421D01*
X142152848Y-50266478D01*
X141970396Y-50539537D01*
X141939516Y-50694782D01*
X141906328Y-50861630D01*
X141922500Y-50942932D01*
X141922501Y-72048066D01*
X141898068Y-72072500D01*
X137678731Y-72072500D01*
X137597433Y-72056329D01*
X137516135Y-72072500D01*
X137516131Y-72072500D01*
X137275340Y-72120396D01*
X137002282Y-72302848D01*
X136956227Y-72371774D01*
X135256046Y-74071956D01*
X135187120Y-74118011D01*
X135004668Y-74391069D01*
X134992004Y-74454732D01*
X134784506Y-74496006D01*
X134574462Y-74636354D01*
X134434114Y-74846398D01*
X134384831Y-75094163D01*
X134384831Y-75694163D01*
X134434114Y-75941928D01*
X134492403Y-76029163D01*
X134434114Y-76116398D01*
X134384831Y-76364163D01*
X134384831Y-76964163D01*
X134434114Y-77211928D01*
X134492403Y-77299163D01*
X134434114Y-77386398D01*
X134384831Y-77634163D01*
X134384831Y-78234163D01*
X134434114Y-78481928D01*
X134492403Y-78569163D01*
X134434114Y-78656398D01*
X134384831Y-78904163D01*
X134384831Y-79504163D01*
X134434114Y-79751928D01*
X134492403Y-79839163D01*
X134434114Y-79926398D01*
X134384831Y-80174163D01*
X134384831Y-80774163D01*
X134434114Y-81021928D01*
X134492403Y-81109163D01*
X134434114Y-81196398D01*
X134384831Y-81444163D01*
X134384831Y-82044163D01*
X134419526Y-82218588D01*
X134329177Y-82236559D01*
X134056119Y-82419011D01*
X134010062Y-82487940D01*
X133721976Y-82776026D01*
X133653047Y-82822083D01*
X133470595Y-83095142D01*
X133457422Y-83161369D01*
X133406527Y-83417235D01*
X133232510Y-83417235D01*
X133232510Y-79590199D01*
X133248681Y-79508901D01*
X133232510Y-79427603D01*
X133232510Y-79427599D01*
X133184614Y-79186808D01*
X133002162Y-78913750D01*
X132933236Y-78867695D01*
X131779711Y-77714171D01*
X131779711Y-77634163D01*
X131730428Y-77386398D01*
X131672139Y-77299163D01*
X131730428Y-77211928D01*
X131779711Y-76964163D01*
X131779711Y-76364163D01*
X131730428Y-76116398D01*
X131672139Y-76029163D01*
X131730428Y-75941928D01*
X131779711Y-75694163D01*
X131779711Y-75094163D01*
X131730428Y-74846398D01*
X131590080Y-74636354D01*
X131380036Y-74496006D01*
X131132271Y-74446723D01*
X129632271Y-74446723D01*
X129384506Y-74496006D01*
X129288798Y-74559957D01*
X129251270Y-74552492D01*
X129169972Y-74568663D01*
X129169968Y-74568663D01*
X128929177Y-74616559D01*
X128656119Y-74799011D01*
X128610064Y-74867937D01*
X128333500Y-75144501D01*
X128333500Y-56729932D01*
X129373933Y-55689500D01*
X129871531Y-55689500D01*
X129896753Y-55727247D01*
X130183848Y-55919078D01*
X130522500Y-55986440D01*
X131097500Y-55986440D01*
X131436152Y-55919078D01*
X131685000Y-55752803D01*
X131933848Y-55919078D01*
X132272500Y-55986440D01*
X132847500Y-55986440D01*
X133186152Y-55919078D01*
X133473247Y-55727247D01*
X133498469Y-55689500D01*
X134189531Y-55689500D01*
X134214753Y-55727247D01*
X134501848Y-55919078D01*
X134840500Y-55986440D01*
X135415500Y-55986440D01*
X135754152Y-55919078D01*
X136041247Y-55727247D01*
X136233078Y-55440152D01*
X136300440Y-55101500D01*
X136300440Y-54626500D01*
X136233078Y-54287848D01*
X136041247Y-54000753D01*
X135754152Y-53808922D01*
X135415500Y-53741560D01*
X134840500Y-53741560D01*
X134501848Y-53808922D01*
X134214753Y-54000753D01*
X134189531Y-54038500D01*
X133498469Y-54038500D01*
X133473247Y-54000753D01*
X133186152Y-53808922D01*
X132847500Y-53741560D01*
X132272500Y-53741560D01*
X131933848Y-53808922D01*
X131685000Y-53975197D01*
X131436152Y-53808922D01*
X131097500Y-53741560D01*
X130522500Y-53741560D01*
X130183848Y-53808922D01*
X129896753Y-54000753D01*
X129871531Y-54038500D01*
X129603500Y-54038500D01*
X129603500Y-50172157D01*
X129962320Y-49813337D01*
X130048000Y-49606487D01*
X130133680Y-49813337D01*
X130526663Y-50206320D01*
X131040119Y-50419000D01*
X131595881Y-50419000D01*
X132109337Y-50206320D01*
X132502320Y-49813337D01*
X132588000Y-49606487D01*
X132673680Y-49813337D01*
X133066663Y-50206320D01*
X133580119Y-50419000D01*
X134135881Y-50419000D01*
X134649337Y-50206320D01*
X135042320Y-49813337D01*
X135255000Y-49299881D01*
X135255000Y-48744119D01*
X135042320Y-48230663D01*
X134649337Y-47837680D01*
X134135881Y-47625000D01*
X133580119Y-47625000D01*
X133066663Y-47837680D01*
X132673680Y-48230663D01*
X132588000Y-48437513D01*
X132502320Y-48230663D01*
X132109337Y-47837680D01*
X131595881Y-47625000D01*
X131040119Y-47625000D01*
X130526663Y-47837680D01*
X130133680Y-48230663D01*
X130048000Y-48437513D01*
X129962320Y-48230663D01*
X129569337Y-47837680D01*
X129055881Y-47625000D01*
X128500119Y-47625000D01*
X127986663Y-47837680D01*
X127593680Y-48230663D01*
X127508000Y-48437513D01*
X127422320Y-48230663D01*
X127029337Y-47837680D01*
X126515881Y-47625000D01*
X125960119Y-47625000D01*
X125446663Y-47837680D01*
X125053680Y-48230663D01*
X124841000Y-48744119D01*
X124841000Y-49251568D01*
X124695775Y-49396793D01*
X124626849Y-49442848D01*
X124580795Y-49511773D01*
X124580794Y-49511774D01*
X124444397Y-49715906D01*
X124380328Y-50038000D01*
X124396501Y-50119306D01*
X124396500Y-79830250D01*
X124380328Y-79911552D01*
X124396500Y-79992853D01*
X124396500Y-79992854D01*
X124444396Y-80233645D01*
X124626848Y-80506704D01*
X124695777Y-80552761D01*
X124793448Y-80650432D01*
X124793448Y-80723874D01*
X124951017Y-81104280D01*
X125242168Y-81395431D01*
X125622574Y-81553000D01*
X126034322Y-81553000D01*
X126082241Y-81533152D01*
X126092725Y-81540157D01*
X126358791Y-81806223D01*
X126404848Y-81875152D01*
X126677906Y-82057604D01*
X126918697Y-82105500D01*
X126918698Y-82105500D01*
X127000000Y-82121672D01*
X127081301Y-82105500D01*
X128436068Y-82105500D01*
X128600954Y-82270386D01*
X128647011Y-82339315D01*
X128837204Y-82466398D01*
X128920069Y-82521767D01*
X129242163Y-82585835D01*
X129286710Y-82576974D01*
X129384506Y-82642320D01*
X129632271Y-82691603D01*
X131000501Y-82691603D01*
X131000501Y-83336723D01*
X129632271Y-83336723D01*
X129384506Y-83386006D01*
X129296720Y-83444663D01*
X128416149Y-83444663D01*
X128357518Y-83356916D01*
X128070423Y-83165085D01*
X127731771Y-83097723D01*
X127256771Y-83097723D01*
X126918119Y-83165085D01*
X126631024Y-83356916D01*
X126439193Y-83644011D01*
X126371831Y-83982663D01*
X126371831Y-84557663D01*
X126439193Y-84896315D01*
X126631024Y-85183410D01*
X126668771Y-85208632D01*
X126668772Y-106351796D01*
X126658068Y-106362500D01*
X124801933Y-106362500D01*
X124683298Y-106243865D01*
X124733000Y-106123874D01*
X124733000Y-105712126D01*
X124575431Y-105331720D01*
X124284280Y-105040569D01*
X123903874Y-104883000D01*
X123492126Y-104883000D01*
X123138000Y-105029683D01*
X123138000Y-37896581D01*
X123198090Y-37476991D01*
X123352381Y-37137648D01*
X123595712Y-36855248D01*
X123908523Y-36652494D01*
X124289184Y-36538652D01*
X124486350Y-36524000D01*
X181305419Y-36524000D01*
X181725009Y-36584090D01*
G04 #@! TD*
M02*
