G04 #@! TF.GenerationSoftware,KiCad,Pcbnew,(5.0.2)-1*
G04 #@! TF.CreationDate,2019-03-03T15:18:12-06:00*
G04 #@! TF.ProjectId,DriveBoard_Hardware,44726976-6542-46f6-9172-645f48617264,rev?*
G04 #@! TF.SameCoordinates,Original*
G04 #@! TF.FileFunction,Copper,L2,Bot*
G04 #@! TF.FilePolarity,Positive*
%FSLAX46Y46*%
G04 Gerber Fmt 4.6, Leading zero omitted, Abs format (unit mm)*
G04 Created by KiCad (PCBNEW (5.0.2)-1) date 3/3/2019 3:18:12 PM*
%MOMM*%
%LPD*%
G01*
G04 APERTURE LIST*
G04 #@! TA.AperFunction,ComponentPad*
%ADD10C,5.080000*%
G04 #@! TD*
G04 #@! TA.AperFunction,ComponentPad*
%ADD11C,1.524000*%
G04 #@! TD*
G04 #@! TA.AperFunction,ComponentPad*
%ADD12R,2.500000X1.500000*%
G04 #@! TD*
G04 #@! TA.AperFunction,ComponentPad*
%ADD13O,2.500000X1.500000*%
G04 #@! TD*
G04 #@! TA.AperFunction,ComponentPad*
%ADD14O,3.500000X2.200000*%
G04 #@! TD*
G04 #@! TA.AperFunction,SMDPad,CuDef*
%ADD15R,0.990600X1.778000*%
G04 #@! TD*
G04 #@! TA.AperFunction,ViaPad*
%ADD16C,0.800000*%
G04 #@! TD*
G04 #@! TA.AperFunction,Conductor*
%ADD17C,0.381000*%
G04 #@! TD*
G04 #@! TA.AperFunction,Conductor*
%ADD18C,0.762000*%
G04 #@! TD*
G04 #@! TA.AperFunction,Conductor*
%ADD19C,0.254000*%
G04 #@! TD*
G04 APERTURE END LIST*
D10*
G04 #@! TO.P,Conn1,2*
G04 #@! TO.N,/+12V*
X104140000Y-118872000D03*
G04 #@! TO.P,Conn1,1*
G04 #@! TO.N,GND*
X104140000Y-126746000D03*
G04 #@! TD*
D11*
G04 #@! TO.P,Conn2,1*
G04 #@! TO.N,A1*
X73660000Y-82042000D03*
G04 #@! TO.P,Conn2,2*
G04 #@! TO.N,B1*
X76200000Y-82042000D03*
G04 #@! TO.P,Conn2,3*
G04 #@! TO.N,GND*
X78740000Y-82042000D03*
G04 #@! TO.P,Conn2,4*
G04 #@! TO.N,Z1*
X81280000Y-82042000D03*
G04 #@! TO.P,Conn2,5*
G04 #@! TO.N,Y1*
X83820000Y-82042000D03*
G04 #@! TD*
G04 #@! TO.P,Conn3,5*
G04 #@! TO.N,Y2*
X101600000Y-82042000D03*
G04 #@! TO.P,Conn3,4*
G04 #@! TO.N,Z2*
X99060000Y-82042000D03*
G04 #@! TO.P,Conn3,3*
G04 #@! TO.N,GND*
X96520000Y-82042000D03*
G04 #@! TO.P,Conn3,2*
G04 #@! TO.N,B2*
X93980000Y-82042000D03*
G04 #@! TO.P,Conn3,1*
G04 #@! TO.N,A2*
X91440000Y-82042000D03*
G04 #@! TD*
G04 #@! TO.P,Conn4,1*
G04 #@! TO.N,A3*
X109220000Y-82042000D03*
G04 #@! TO.P,Conn4,2*
G04 #@! TO.N,B3*
X111760000Y-82042000D03*
G04 #@! TO.P,Conn4,3*
G04 #@! TO.N,GND*
X114300000Y-82042000D03*
G04 #@! TO.P,Conn4,4*
G04 #@! TO.N,Z3*
X116840000Y-82042000D03*
G04 #@! TO.P,Conn4,5*
G04 #@! TO.N,Y3*
X119380000Y-82042000D03*
G04 #@! TD*
G04 #@! TO.P,Conn5,3*
G04 #@! TO.N,RX_1*
X76200000Y-84582000D03*
G04 #@! TO.P,Conn5,2*
G04 #@! TO.N,GND*
X78740000Y-84582000D03*
G04 #@! TO.P,Conn5,1*
G04 #@! TO.N,TX_1*
X81280000Y-84582000D03*
G04 #@! TD*
G04 #@! TO.P,Conn6,1*
G04 #@! TO.N,TX_2*
X99060000Y-84582000D03*
G04 #@! TO.P,Conn6,2*
G04 #@! TO.N,GND*
X96520000Y-84582000D03*
G04 #@! TO.P,Conn6,3*
G04 #@! TO.N,RX_2*
X93980000Y-84582000D03*
G04 #@! TD*
G04 #@! TO.P,Conn7,1*
G04 #@! TO.N,TX_3*
X116840000Y-84582000D03*
G04 #@! TO.P,Conn7,2*
G04 #@! TO.N,GND*
X114300000Y-84582000D03*
G04 #@! TO.P,Conn7,3*
G04 #@! TO.N,RX_3*
X111760000Y-84582000D03*
G04 #@! TD*
D12*
G04 #@! TO.P,SW7,1*
G04 #@! TO.N,Net-(SW7-Pad1)*
X127000000Y-109152000D03*
D13*
G04 #@! TO.P,SW7,2*
G04 #@! TO.N,+3V3*
X127000000Y-107152000D03*
G04 #@! TO.P,SW7,3*
G04 #@! TO.N,DIRECTION_SW*
X127000000Y-105152000D03*
D14*
G04 #@! TO.P,SW7,*
G04 #@! TO.N,*
X127000000Y-111252000D03*
X127000000Y-103052000D03*
G04 #@! TD*
D11*
G04 #@! TO.P,U3,1*
G04 #@! TO.N,/+12V*
X95250000Y-120142000D03*
G04 #@! TO.P,U3,2*
G04 #@! TO.N,GND*
X95250000Y-122682000D03*
G04 #@! TO.P,U3,3*
G04 #@! TO.N,+3V3*
X95250000Y-125222000D03*
G04 #@! TD*
D15*
G04 #@! TO.P,U4,+3V3'*
G04 #@! TO.N,+3V3*
X71120000Y-137464800D03*
G04 #@! TO.P,U4,PM6*
G04 #@! TO.N,Net-(U4-PadPM6)*
X93980000Y-88392000D03*
G04 #@! TO.P,U4,PQ1*
G04 #@! TO.N,Net-(U4-PadPQ1)*
X91440000Y-88392000D03*
G04 #@! TO.P,U4,PQ2*
G04 #@! TO.N,Net-(U4-PadPQ2)*
X83820000Y-88392000D03*
G04 #@! TO.P,U4,PK0*
G04 #@! TO.N,RX_1*
X81280000Y-131572000D03*
G04 #@! TO.P,U4,PQ3*
G04 #@! TO.N,Net-(U4-PadPQ3)*
X86360000Y-88392000D03*
G04 #@! TO.P,U4,PP3*
G04 #@! TO.N,Net-(U4-PadPP3)*
X88900000Y-88392000D03*
G04 #@! TO.P,U4,PQ0*
G04 #@! TO.N,RR_SW*
X86360000Y-137464800D03*
G04 #@! TO.P,U4,PA4*
G04 #@! TO.N,RX_3*
X91440000Y-131572000D03*
G04 #@! TO.P,U4,Rese'*
G04 #@! TO.N,Net-(U4-PadRese')*
X81280000Y-88392000D03*
G04 #@! TO.P,U4,PA7*
G04 #@! TO.N,Net-(U4-PadPA7)*
X78740000Y-88392000D03*
G04 #@! TO.P,U4,PN5*
G04 #@! TO.N,RF_SW*
X91440000Y-137464800D03*
G04 #@! TO.P,U4,PK2*
G04 #@! TO.N,LF_SW*
X86360000Y-131572000D03*
G04 #@! TO.P,U4,PK1*
G04 #@! TO.N,TX_1*
X83820000Y-131572000D03*
G04 #@! TO.P,U4,+5V'*
G04 #@! TO.N,Net-(U4-Pad+5V')*
X71120000Y-131572000D03*
G04 #@! TO.P,U4,GND*
G04 #@! TO.N,GND*
X73660000Y-131572000D03*
G04 #@! TO.P,U4,PB4*
G04 #@! TO.N,Net-(U4-PadPB4)*
X76200000Y-131572000D03*
G04 #@! TO.P,U4,PB5*
G04 #@! TO.N,Watchdog*
X78740000Y-131572000D03*
G04 #@! TO.P,U4,PK3*
G04 #@! TO.N,LM_SW*
X88900000Y-131572000D03*
G04 #@! TO.P,U4,PA5*
G04 #@! TO.N,TX_3*
X93980000Y-131572000D03*
G04 #@! TO.P,U4,PD2*
G04 #@! TO.N,DIRECTION_SW*
X73660000Y-137464800D03*
G04 #@! TO.P,U4,PP0*
G04 #@! TO.N,RX_2*
X76200000Y-137464800D03*
G04 #@! TO.P,U4,PP1*
G04 #@! TO.N,TX_2*
X78740000Y-137464800D03*
G04 #@! TO.P,U4,PD4*
G04 #@! TO.N,Rspeed*
X81280000Y-137464800D03*
G04 #@! TO.P,U4,PD5*
G04 #@! TO.N,Lspeed*
X83820000Y-137464800D03*
G04 #@! TO.P,U4,PP4*
G04 #@! TO.N,RM_SW*
X88900000Y-137464800D03*
G04 #@! TO.P,U4,PN4*
G04 #@! TO.N,LR_SW*
X93980000Y-137464800D03*
G04 #@! TO.P,U4,PG1*
G04 #@! TO.N,Net-(U4-PadPG1)*
X71120000Y-94284800D03*
G04 #@! TO.P,U4,PK4*
G04 #@! TO.N,Net-(U4-PadPK4)*
X73660000Y-94284800D03*
G04 #@! TO.P,U4,PK5*
G04 #@! TO.N,Net-(U4-PadPK5)*
X76200000Y-94284800D03*
G04 #@! TO.P,U4,PM0*
G04 #@! TO.N,Net-(U4-PadPM0)*
X78740000Y-94284800D03*
G04 #@! TO.P,U4,PM1*
G04 #@! TO.N,Net-(U4-PadPM1)*
X81280000Y-94284800D03*
G04 #@! TO.P,U4,PM2*
G04 #@! TO.N,Net-(U4-PadPM2)*
X83820000Y-94284800D03*
G04 #@! TO.P,U4,PH0*
G04 #@! TO.N,Net-(U4-PadPH0)*
X86360000Y-94284800D03*
G04 #@! TO.P,U4,PH1*
G04 #@! TO.N,Net-(U4-PadPH1)*
X88900000Y-94284800D03*
G04 #@! TO.P,U4,PK6*
G04 #@! TO.N,Net-(U4-PadPK6)*
X91440000Y-94284800D03*
G04 #@! TO.P,U4,PK7*
G04 #@! TO.N,Net-(U4-PadPK7)*
X93980000Y-94284800D03*
G04 #@! TO.P,U4,GND*
G04 #@! TO.N,GND*
X71120000Y-88392000D03*
G04 #@! TO.P,U4,PM7*
G04 #@! TO.N,Net-(U4-PadPM7)*
X73660000Y-88392000D03*
G04 #@! TO.P,U4,PP5*
G04 #@! TO.N,Net-(U4-PadPP5)*
X76200000Y-88392000D03*
G04 #@! TD*
D16*
G04 #@! TO.N,GND*
X98552000Y-97282000D03*
X116332000Y-97282000D03*
X80772000Y-97282000D03*
X89154000Y-97282000D03*
X71374000Y-97282000D03*
X106934000Y-97282000D03*
X109220000Y-111252000D03*
X101600000Y-112268000D03*
X116840000Y-112268000D03*
G04 #@! TO.N,DIRECTION_SW*
X73660000Y-141224000D03*
G04 #@! TO.N,Lspeed*
X83312000Y-140716000D03*
G04 #@! TO.N,Rspeed*
X80772000Y-139954000D03*
G04 #@! TO.N,Watchdog*
X78740000Y-129032000D03*
G04 #@! TO.N,+3V3*
X96012000Y-129540000D03*
G04 #@! TO.N,RX_1*
X73660000Y-85852000D03*
X78486000Y-99822000D03*
G04 #@! TO.N,TX_1*
X83566000Y-85852000D03*
X79756000Y-98806000D03*
G04 #@! TO.N,TX_2*
X101346000Y-85852000D03*
X96774000Y-99822000D03*
G04 #@! TO.N,RX_2*
X91440000Y-85852000D03*
X95504000Y-98806000D03*
G04 #@! TO.N,TX_3*
X119126000Y-85852000D03*
X114808000Y-97536000D03*
G04 #@! TO.N,RX_3*
X109220000Y-85852000D03*
X113538000Y-97536000D03*
G04 #@! TO.N,LF_SW*
X86360000Y-114554000D03*
G04 #@! TO.N,LM_SW*
X88900000Y-114554000D03*
G04 #@! TO.N,LR_SW*
X93980000Y-139954000D03*
G04 #@! TO.N,RF_SW*
X91440000Y-139954000D03*
G04 #@! TO.N,RM_SW*
X88900000Y-139954000D03*
G04 #@! TO.N,RR_SW*
X86360000Y-139954000D03*
G04 #@! TD*
D17*
G04 #@! TO.N,DIRECTION_SW*
X73660000Y-137464800D02*
X73660000Y-141224000D01*
G04 #@! TO.N,Lspeed*
X83820000Y-137414000D02*
X83820000Y-139954000D01*
X83820000Y-139954000D02*
X83820000Y-140208000D01*
X83820000Y-140208000D02*
X83312000Y-140716000D01*
G04 #@! TO.N,Rspeed*
X81280000Y-139446000D02*
X80772000Y-139954000D01*
X81280000Y-138684000D02*
X81280000Y-139446000D01*
X81280000Y-137414000D02*
X81280000Y-138684000D01*
G04 #@! TO.N,Watchdog*
X78740000Y-131572000D02*
X78740000Y-129032000D01*
D18*
G04 #@! TO.N,+3V3*
X71120000Y-141986000D02*
X71120000Y-137464800D01*
X71628000Y-142494000D02*
X71120000Y-141986000D01*
X95504000Y-142494000D02*
X71628000Y-142494000D01*
X96012000Y-129540000D02*
X96012000Y-141986000D01*
X96012000Y-141986000D02*
X95504000Y-142494000D01*
D17*
G04 #@! TO.N,RX_1*
X74930000Y-84582000D02*
X76200000Y-84582000D01*
X76200000Y-84582000D02*
X75122370Y-84582000D01*
X75122370Y-84582000D02*
X74930000Y-84582000D01*
X74930000Y-84582000D02*
X74168000Y-84582000D01*
X73660000Y-85090000D02*
X73660000Y-85852000D01*
X74168000Y-84582000D02*
X73660000Y-85090000D01*
X81280000Y-131572000D02*
X81280000Y-130302000D01*
X81280000Y-100330000D02*
X81280000Y-131572000D01*
X78486000Y-99822000D02*
X80772000Y-99822000D01*
X80772000Y-99822000D02*
X81280000Y-100330000D01*
G04 #@! TO.N,TX_1*
X83566000Y-85090000D02*
X83566000Y-85852000D01*
X83058000Y-84582000D02*
X83566000Y-85090000D01*
X81280000Y-84582000D02*
X83058000Y-84582000D01*
X83820000Y-131572000D02*
X83820000Y-130556000D01*
X83820000Y-130556000D02*
X83820000Y-130302000D01*
X83820000Y-131572000D02*
X83820000Y-99314000D01*
X83820000Y-99314000D02*
X83312000Y-98806000D01*
X83312000Y-98806000D02*
X79756000Y-98806000D01*
G04 #@! TO.N,TX_2*
X100838000Y-84582000D02*
X101346000Y-85090000D01*
X101346000Y-85090000D02*
X101346000Y-85852000D01*
X99060000Y-84582000D02*
X100838000Y-84582000D01*
X78740000Y-136194800D02*
X79298800Y-135636000D01*
X78740000Y-137464800D02*
X78740000Y-136194800D01*
X79298800Y-135636000D02*
X87122000Y-135636000D01*
X87122000Y-135636000D02*
X87630000Y-135128000D01*
X87630000Y-135128000D02*
X87630000Y-100330000D01*
X87630000Y-100330000D02*
X88138000Y-99822000D01*
X88138000Y-99822000D02*
X96774000Y-99822000D01*
G04 #@! TO.N,RX_2*
X92710000Y-84582000D02*
X93980000Y-84582000D01*
X91440000Y-85090000D02*
X91440000Y-85852000D01*
X93980000Y-84582000D02*
X92902370Y-84582000D01*
X91948000Y-84582000D02*
X91440000Y-85090000D01*
X92710000Y-84582000D02*
X91948000Y-84582000D01*
X92902370Y-84582000D02*
X92710000Y-84582000D01*
X76200000Y-136194800D02*
X78282800Y-134112000D01*
X76200000Y-137464800D02*
X76200000Y-136194800D01*
X78282800Y-134112000D02*
X84582000Y-134112000D01*
X84582000Y-134112000D02*
X85090000Y-133604000D01*
X85090000Y-133604000D02*
X85090000Y-99314000D01*
X85090000Y-99314000D02*
X85598000Y-98806000D01*
X85598000Y-98806000D02*
X95504000Y-98806000D01*
G04 #@! TO.N,TX_3*
X118618000Y-84582000D02*
X119126000Y-85090000D01*
X119126000Y-85090000D02*
X119126000Y-85852000D01*
X116840000Y-84582000D02*
X118618000Y-84582000D01*
X93980000Y-131572000D02*
X93980000Y-129286000D01*
X93980000Y-129286000D02*
X92964000Y-128270000D01*
X92964000Y-128270000D02*
X92964000Y-102108000D01*
X92964000Y-102108000D02*
X93472000Y-101600000D01*
X93472000Y-101600000D02*
X113792000Y-101600000D01*
X113792000Y-101600000D02*
X114300000Y-101600000D01*
X114808000Y-97536000D02*
X114808000Y-101092000D01*
X114808000Y-101092000D02*
X114300000Y-101600000D01*
G04 #@! TO.N,RX_3*
X110490000Y-84582000D02*
X111760000Y-84582000D01*
X109220000Y-85090000D02*
X109220000Y-85852000D01*
X111760000Y-84582000D02*
X110682370Y-84582000D01*
X109728000Y-84582000D02*
X109220000Y-85090000D01*
X110490000Y-84582000D02*
X109728000Y-84582000D01*
X110682370Y-84582000D02*
X110490000Y-84582000D01*
X91440000Y-129032000D02*
X91440000Y-131572000D01*
X91440000Y-101854000D02*
X91440000Y-129032000D01*
X92456000Y-100838000D02*
X91440000Y-101854000D01*
X113030000Y-100838000D02*
X92456000Y-100838000D01*
X113538000Y-100330000D02*
X113030000Y-100838000D01*
X113538000Y-97536000D02*
X113538000Y-100330000D01*
G04 #@! TO.N,LF_SW*
X86360000Y-114554000D02*
X86360000Y-130048000D01*
X86360000Y-131572000D02*
X86360000Y-130048000D01*
X86360000Y-130048000D02*
X86360000Y-129032000D01*
G04 #@! TO.N,LM_SW*
X88900000Y-129286000D02*
X88900000Y-114554000D01*
X88900000Y-129286000D02*
X88900000Y-129032000D01*
X88900000Y-131572000D02*
X88900000Y-129286000D01*
G04 #@! TO.N,LR_SW*
X93980000Y-137414000D02*
X93980000Y-139954000D01*
G04 #@! TO.N,RF_SW*
X91440000Y-137414000D02*
X91440000Y-139954000D01*
G04 #@! TO.N,RM_SW*
X88900000Y-137414000D02*
X88900000Y-139954000D01*
G04 #@! TO.N,RR_SW*
X86360000Y-137414000D02*
X86360000Y-139954000D01*
G04 #@! TD*
D19*
G04 #@! TO.N,GND*
G36*
X129147009Y-69604090D02*
X129486352Y-69758381D01*
X129768752Y-70001712D01*
X129971506Y-70314523D01*
X130085348Y-70695184D01*
X130100000Y-70892350D01*
X130100001Y-114655812D01*
X130039910Y-115075409D01*
X129885619Y-115414752D01*
X129642288Y-115697152D01*
X129329479Y-115899906D01*
X128948815Y-116013748D01*
X128751649Y-116028400D01*
X113099925Y-116028400D01*
X113030000Y-116014491D01*
X112960074Y-116028400D01*
X112752972Y-116069595D01*
X112518119Y-116226519D01*
X112361195Y-116461372D01*
X112306091Y-116738400D01*
X112320000Y-116808326D01*
X112320001Y-137496469D01*
X112306091Y-137566400D01*
X112361195Y-137843428D01*
X112518119Y-138078281D01*
X112752972Y-138235205D01*
X112960074Y-138276400D01*
X112960075Y-138276400D01*
X113030000Y-138290309D01*
X113099926Y-138276400D01*
X128727419Y-138276400D01*
X129147009Y-138336490D01*
X129486352Y-138490781D01*
X129768752Y-138734112D01*
X129971506Y-139046923D01*
X130085348Y-139427584D01*
X130100000Y-139624750D01*
X130100001Y-147130160D01*
X129754241Y-147233564D01*
X129666769Y-147273982D01*
X129578806Y-147313329D01*
X129571502Y-147318001D01*
X129571498Y-147318003D01*
X129571499Y-147318003D01*
X129088040Y-147631366D01*
X129015447Y-147694693D01*
X128942045Y-147757163D01*
X128936343Y-147763700D01*
X128560266Y-148200159D01*
X128508347Y-148281342D01*
X128455446Y-148361875D01*
X128451808Y-148369750D01*
X128213347Y-148894217D01*
X128186300Y-148986709D01*
X128158129Y-149078852D01*
X128156847Y-149087431D01*
X128075171Y-149657746D01*
X128075171Y-149730166D01*
X128069362Y-149802363D01*
X128069952Y-149811018D01*
X128092272Y-150111366D01*
X128107826Y-150182111D01*
X128117654Y-150253855D01*
X128120088Y-150262181D01*
X128285164Y-150814158D01*
X128325591Y-150901650D01*
X128364930Y-150989594D01*
X128369603Y-150996901D01*
X128682966Y-151480361D01*
X128746328Y-151552994D01*
X128808763Y-151626355D01*
X128815296Y-151632054D01*
X128815300Y-151632058D01*
X128815305Y-151632061D01*
X129251759Y-152008134D01*
X129332942Y-152060053D01*
X129413475Y-152112954D01*
X129421346Y-152116590D01*
X129421349Y-152116592D01*
X129421352Y-152116593D01*
X129945817Y-152355053D01*
X130038309Y-152382100D01*
X130100000Y-152400961D01*
X130100001Y-160375812D01*
X130039910Y-160795409D01*
X129885619Y-161134752D01*
X129642288Y-161417152D01*
X129329479Y-161619906D01*
X128948815Y-161733748D01*
X128751649Y-161748400D01*
X71932581Y-161748400D01*
X71512991Y-161688310D01*
X71173648Y-161534019D01*
X70891248Y-161290688D01*
X70688494Y-160977879D01*
X70574652Y-160597215D01*
X70560000Y-160400049D01*
X70560000Y-152386639D01*
X70905758Y-152283236D01*
X70993250Y-152242809D01*
X71081194Y-152203470D01*
X71088498Y-152198799D01*
X71088502Y-152198797D01*
X71571961Y-151885434D01*
X71644594Y-151822072D01*
X71717955Y-151759637D01*
X71723654Y-151753104D01*
X71723658Y-151753100D01*
X71723661Y-151753095D01*
X72099734Y-151316641D01*
X72151653Y-151235458D01*
X72204554Y-151154925D01*
X72208192Y-151147050D01*
X72446653Y-150622583D01*
X72473700Y-150530091D01*
X72501871Y-150437948D01*
X72503153Y-150429369D01*
X72584829Y-149859053D01*
X72584829Y-149786633D01*
X72590638Y-149714436D01*
X72590048Y-149705782D01*
X72567728Y-149405433D01*
X72552174Y-149334688D01*
X72542346Y-149262944D01*
X72539912Y-149254619D01*
X72374836Y-148702641D01*
X72334418Y-148615169D01*
X72295071Y-148527206D01*
X72290397Y-148519899D01*
X71977034Y-148036440D01*
X71913707Y-147963847D01*
X71851237Y-147890445D01*
X71844700Y-147884743D01*
X71408241Y-147508666D01*
X71327058Y-147456747D01*
X71246525Y-147403846D01*
X71238654Y-147400210D01*
X71238651Y-147400208D01*
X71238648Y-147400207D01*
X70714183Y-147161747D01*
X70621691Y-147134700D01*
X70560000Y-147115839D01*
X70560000Y-142862840D01*
X70838820Y-143141660D01*
X70895505Y-143226495D01*
X71177587Y-143414976D01*
X71231575Y-143451050D01*
X71231576Y-143451050D01*
X71231577Y-143451051D01*
X71527935Y-143510000D01*
X71627999Y-143529904D01*
X71728063Y-143510000D01*
X95403937Y-143510000D01*
X95504000Y-143529904D01*
X95604063Y-143510000D01*
X95604065Y-143510000D01*
X95900423Y-143451051D01*
X96236495Y-143226495D01*
X96293180Y-143141660D01*
X96659660Y-142775180D01*
X96744495Y-142718495D01*
X96969051Y-142382423D01*
X97028000Y-142086065D01*
X97028000Y-142086064D01*
X97047904Y-141986001D01*
X97028000Y-141885937D01*
X97028000Y-129791744D01*
X97047000Y-129745874D01*
X97047000Y-129334126D01*
X96969955Y-129148123D01*
X96969051Y-129143577D01*
X96966476Y-129139723D01*
X96889431Y-128953720D01*
X96747070Y-128811359D01*
X96744495Y-128807505D01*
X96740641Y-128804930D01*
X96598280Y-128662569D01*
X96412275Y-128585523D01*
X96408422Y-128582949D01*
X96403878Y-128582045D01*
X96217874Y-128505000D01*
X96016545Y-128505000D01*
X96012000Y-128504096D01*
X96007455Y-128505000D01*
X95806126Y-128505000D01*
X95620123Y-128582045D01*
X95615577Y-128582949D01*
X95611723Y-128585524D01*
X95425720Y-128662569D01*
X95283359Y-128804930D01*
X95279505Y-128807505D01*
X95276930Y-128811359D01*
X95134569Y-128953720D01*
X95057523Y-129139725D01*
X95054949Y-129143578D01*
X95054045Y-129148122D01*
X94977000Y-129334126D01*
X94977000Y-129745874D01*
X94996000Y-129791744D01*
X94996000Y-130319313D01*
X94933109Y-130225191D01*
X94805500Y-130139925D01*
X94805500Y-129367301D01*
X94821672Y-129286000D01*
X94805500Y-129204697D01*
X94757604Y-128963906D01*
X94575152Y-128690848D01*
X94506226Y-128644793D01*
X93789500Y-127928068D01*
X93789500Y-124944119D01*
X93853000Y-124944119D01*
X93853000Y-125499881D01*
X94065680Y-126013337D01*
X94458663Y-126406320D01*
X94972119Y-126619000D01*
X95527881Y-126619000D01*
X96041337Y-126406320D01*
X96434320Y-126013337D01*
X96647000Y-125499881D01*
X96647000Y-124944119D01*
X96434320Y-124430663D01*
X96041337Y-124037680D01*
X95527881Y-123825000D01*
X94972119Y-123825000D01*
X94458663Y-124037680D01*
X94065680Y-124430663D01*
X93853000Y-124944119D01*
X93789500Y-124944119D01*
X93789500Y-119864119D01*
X93853000Y-119864119D01*
X93853000Y-120419881D01*
X94065680Y-120933337D01*
X94458663Y-121326320D01*
X94972119Y-121539000D01*
X95527881Y-121539000D01*
X96041337Y-121326320D01*
X96434320Y-120933337D01*
X96647000Y-120419881D01*
X96647000Y-119864119D01*
X96434320Y-119350663D01*
X96041337Y-118957680D01*
X95527881Y-118745000D01*
X94972119Y-118745000D01*
X94458663Y-118957680D01*
X94065680Y-119350663D01*
X93853000Y-119864119D01*
X93789500Y-119864119D01*
X93789500Y-118240453D01*
X100965000Y-118240453D01*
X100965000Y-119503547D01*
X101448365Y-120670493D01*
X102341507Y-121563635D01*
X103508453Y-122047000D01*
X104771547Y-122047000D01*
X105938493Y-121563635D01*
X106831635Y-120670493D01*
X107315000Y-119503547D01*
X107315000Y-118240453D01*
X106831635Y-117073507D01*
X105938493Y-116180365D01*
X104771547Y-115697000D01*
X103508453Y-115697000D01*
X102341507Y-116180365D01*
X101448365Y-117073507D01*
X100965000Y-118240453D01*
X93789500Y-118240453D01*
X93789500Y-103052000D01*
X124581010Y-103052000D01*
X124715666Y-103728963D01*
X125099135Y-104302865D01*
X125308276Y-104442608D01*
X125195359Y-104611600D01*
X125087867Y-105152000D01*
X125195359Y-105692400D01*
X125501471Y-106150529D01*
X125503673Y-106152000D01*
X125501471Y-106153471D01*
X125195359Y-106611600D01*
X125087867Y-107152000D01*
X125195359Y-107692400D01*
X125341559Y-107911204D01*
X125292191Y-107944191D01*
X125151843Y-108154235D01*
X125102560Y-108402000D01*
X125102560Y-109902000D01*
X125119564Y-109987485D01*
X125099135Y-110001135D01*
X124715666Y-110575037D01*
X124581010Y-111252000D01*
X124715666Y-111928963D01*
X125099135Y-112502865D01*
X125673037Y-112886334D01*
X126179120Y-112987000D01*
X127820880Y-112987000D01*
X128326963Y-112886334D01*
X128900865Y-112502865D01*
X129284334Y-111928963D01*
X129418990Y-111252000D01*
X129284334Y-110575037D01*
X128900865Y-110001135D01*
X128880436Y-109987485D01*
X128897440Y-109902000D01*
X128897440Y-108402000D01*
X128848157Y-108154235D01*
X128707809Y-107944191D01*
X128658441Y-107911204D01*
X128804641Y-107692400D01*
X128912133Y-107152000D01*
X128804641Y-106611600D01*
X128498529Y-106153471D01*
X128496327Y-106152000D01*
X128498529Y-106150529D01*
X128804641Y-105692400D01*
X128912133Y-105152000D01*
X128804641Y-104611600D01*
X128691724Y-104442608D01*
X128900865Y-104302865D01*
X129284334Y-103728963D01*
X129418990Y-103052000D01*
X129284334Y-102375037D01*
X128900865Y-101801135D01*
X128326963Y-101417666D01*
X127820880Y-101317000D01*
X126179120Y-101317000D01*
X125673037Y-101417666D01*
X125099135Y-101801135D01*
X124715666Y-102375037D01*
X124581010Y-103052000D01*
X93789500Y-103052000D01*
X93789500Y-102449932D01*
X93813933Y-102425500D01*
X114218699Y-102425500D01*
X114300000Y-102441672D01*
X114381301Y-102425500D01*
X114381303Y-102425500D01*
X114622094Y-102377604D01*
X114895152Y-102195152D01*
X114941209Y-102126224D01*
X115334225Y-101733207D01*
X115403152Y-101687152D01*
X115585604Y-101414094D01*
X115633500Y-101173303D01*
X115633500Y-101173299D01*
X115649671Y-101092001D01*
X115633500Y-101010703D01*
X115633500Y-98174211D01*
X115685431Y-98122280D01*
X115843000Y-97741874D01*
X115843000Y-97330126D01*
X115685431Y-96949720D01*
X115394280Y-96658569D01*
X115013874Y-96501000D01*
X114602126Y-96501000D01*
X114221720Y-96658569D01*
X114173000Y-96707289D01*
X114124280Y-96658569D01*
X113743874Y-96501000D01*
X113332126Y-96501000D01*
X112951720Y-96658569D01*
X112660569Y-96949720D01*
X112503000Y-97330126D01*
X112503000Y-97741874D01*
X112660569Y-98122280D01*
X112712500Y-98174211D01*
X112712501Y-99988067D01*
X112688068Y-100012500D01*
X97809000Y-100012500D01*
X97809000Y-99616126D01*
X97651431Y-99235720D01*
X97360280Y-98944569D01*
X96979874Y-98787000D01*
X96568126Y-98787000D01*
X96539000Y-98799064D01*
X96539000Y-98600126D01*
X96381431Y-98219720D01*
X96090280Y-97928569D01*
X95709874Y-97771000D01*
X95298126Y-97771000D01*
X94917720Y-97928569D01*
X94865789Y-97980500D01*
X85679297Y-97980500D01*
X85597999Y-97964329D01*
X85516701Y-97980500D01*
X85516697Y-97980500D01*
X85275906Y-98028396D01*
X85002848Y-98210848D01*
X84956793Y-98279775D01*
X84563774Y-98672793D01*
X84494849Y-98718848D01*
X84455001Y-98778485D01*
X84415152Y-98718848D01*
X84346225Y-98672793D01*
X83953209Y-98279776D01*
X83907152Y-98210848D01*
X83634094Y-98028396D01*
X83393303Y-97980500D01*
X83393301Y-97980500D01*
X83312000Y-97964328D01*
X83230699Y-97980500D01*
X80394211Y-97980500D01*
X80342280Y-97928569D01*
X79961874Y-97771000D01*
X79550126Y-97771000D01*
X79169720Y-97928569D01*
X78878569Y-98219720D01*
X78721000Y-98600126D01*
X78721000Y-98799064D01*
X78691874Y-98787000D01*
X78280126Y-98787000D01*
X77899720Y-98944569D01*
X77608569Y-99235720D01*
X77451000Y-99616126D01*
X77451000Y-100027874D01*
X77608569Y-100408280D01*
X77899720Y-100699431D01*
X78280126Y-100857000D01*
X78691874Y-100857000D01*
X79072280Y-100699431D01*
X79124211Y-100647500D01*
X80430068Y-100647500D01*
X80454500Y-100671933D01*
X80454501Y-130139924D01*
X80326891Y-130225191D01*
X80186543Y-130435235D01*
X80137260Y-130683000D01*
X80137260Y-132461000D01*
X80186543Y-132708765D01*
X80326891Y-132918809D01*
X80536935Y-133059157D01*
X80784700Y-133108440D01*
X81775300Y-133108440D01*
X82023065Y-133059157D01*
X82233109Y-132918809D01*
X82373457Y-132708765D01*
X82422740Y-132461000D01*
X82422740Y-130683000D01*
X82373457Y-130435235D01*
X82233109Y-130225191D01*
X82105500Y-130139925D01*
X82105500Y-100411297D01*
X82121671Y-100329999D01*
X82105500Y-100248701D01*
X82105500Y-100248697D01*
X82057604Y-100007906D01*
X81875152Y-99734848D01*
X81806226Y-99688793D01*
X81748933Y-99631500D01*
X82970068Y-99631500D01*
X82994501Y-99655934D01*
X82994500Y-130139925D01*
X82866891Y-130225191D01*
X82726543Y-130435235D01*
X82677260Y-130683000D01*
X82677260Y-132461000D01*
X82726543Y-132708765D01*
X82866891Y-132918809D01*
X83076935Y-133059157D01*
X83324700Y-133108440D01*
X84264500Y-133108440D01*
X84264500Y-133262067D01*
X84240068Y-133286500D01*
X78364101Y-133286500D01*
X78282799Y-133270328D01*
X78201498Y-133286500D01*
X78201497Y-133286500D01*
X77960706Y-133334396D01*
X77687648Y-133516848D01*
X77641593Y-133585774D01*
X75673775Y-135553593D01*
X75604849Y-135599648D01*
X75558794Y-135668574D01*
X75422397Y-135872706D01*
X75393030Y-136020343D01*
X75246891Y-136117991D01*
X75106543Y-136328035D01*
X75057260Y-136575800D01*
X75057260Y-138353800D01*
X75106543Y-138601565D01*
X75246891Y-138811609D01*
X75456935Y-138951957D01*
X75704700Y-139001240D01*
X76695300Y-139001240D01*
X76943065Y-138951957D01*
X77153109Y-138811609D01*
X77293457Y-138601565D01*
X77342740Y-138353800D01*
X77342740Y-136575800D01*
X77293457Y-136328035D01*
X77269721Y-136292511D01*
X78624733Y-134937500D01*
X78858319Y-134937500D01*
X78703648Y-135040848D01*
X78657593Y-135109774D01*
X78213774Y-135553593D01*
X78144849Y-135599648D01*
X78098794Y-135668574D01*
X77962397Y-135872706D01*
X77933030Y-136020343D01*
X77786891Y-136117991D01*
X77646543Y-136328035D01*
X77597260Y-136575800D01*
X77597260Y-138353800D01*
X77646543Y-138601565D01*
X77786891Y-138811609D01*
X77996935Y-138951957D01*
X78244700Y-139001240D01*
X79235300Y-139001240D01*
X79483065Y-138951957D01*
X79693109Y-138811609D01*
X79833457Y-138601565D01*
X79882740Y-138353800D01*
X79882740Y-136575800D01*
X79860005Y-136461500D01*
X80159995Y-136461500D01*
X80137260Y-136575800D01*
X80137260Y-138353800D01*
X80186543Y-138601565D01*
X80326891Y-138811609D01*
X80454500Y-138896875D01*
X80454500Y-138965237D01*
X80185720Y-139076569D01*
X79894569Y-139367720D01*
X79737000Y-139748126D01*
X79737000Y-140159874D01*
X79894569Y-140540280D01*
X80185720Y-140831431D01*
X80566126Y-140989000D01*
X80977874Y-140989000D01*
X81358280Y-140831431D01*
X81649431Y-140540280D01*
X81807000Y-140159874D01*
X81807000Y-140086690D01*
X81875152Y-140041152D01*
X82057604Y-139768094D01*
X82105500Y-139527303D01*
X82105500Y-139527299D01*
X82121671Y-139446001D01*
X82105500Y-139364703D01*
X82105500Y-138896875D01*
X82233109Y-138811609D01*
X82373457Y-138601565D01*
X82422740Y-138353800D01*
X82422740Y-136575800D01*
X82400005Y-136461500D01*
X82699995Y-136461500D01*
X82677260Y-136575800D01*
X82677260Y-138353800D01*
X82726543Y-138601565D01*
X82866891Y-138811609D01*
X82994501Y-138896876D01*
X82994501Y-139727237D01*
X82725720Y-139838569D01*
X82434569Y-140129720D01*
X82277000Y-140510126D01*
X82277000Y-140921874D01*
X82434569Y-141302280D01*
X82610289Y-141478000D01*
X74675066Y-141478000D01*
X74695000Y-141429874D01*
X74695000Y-141018126D01*
X74537431Y-140637720D01*
X74485500Y-140585789D01*
X74485500Y-138896875D01*
X74613109Y-138811609D01*
X74753457Y-138601565D01*
X74802740Y-138353800D01*
X74802740Y-136575800D01*
X74753457Y-136328035D01*
X74613109Y-136117991D01*
X74403065Y-135977643D01*
X74155300Y-135928360D01*
X73164700Y-135928360D01*
X72916935Y-135977643D01*
X72706891Y-136117991D01*
X72566543Y-136328035D01*
X72517260Y-136575800D01*
X72517260Y-138353800D01*
X72566543Y-138601565D01*
X72706891Y-138811609D01*
X72834500Y-138896876D01*
X72834501Y-140585788D01*
X72782569Y-140637720D01*
X72625000Y-141018126D01*
X72625000Y-141429874D01*
X72644934Y-141478000D01*
X72136000Y-141478000D01*
X72136000Y-138717487D01*
X72213457Y-138601565D01*
X72262740Y-138353800D01*
X72262740Y-136575800D01*
X72213457Y-136328035D01*
X72073109Y-136117991D01*
X71863065Y-135977643D01*
X71615300Y-135928360D01*
X70624700Y-135928360D01*
X70560000Y-135941229D01*
X70560000Y-133095571D01*
X70624700Y-133108440D01*
X71615300Y-133108440D01*
X71863065Y-133059157D01*
X72073109Y-132918809D01*
X72213457Y-132708765D01*
X72262740Y-132461000D01*
X72262740Y-130683000D01*
X75057260Y-130683000D01*
X75057260Y-132461000D01*
X75106543Y-132708765D01*
X75246891Y-132918809D01*
X75456935Y-133059157D01*
X75704700Y-133108440D01*
X76695300Y-133108440D01*
X76943065Y-133059157D01*
X77153109Y-132918809D01*
X77293457Y-132708765D01*
X77342740Y-132461000D01*
X77342740Y-130683000D01*
X77597260Y-130683000D01*
X77597260Y-132461000D01*
X77646543Y-132708765D01*
X77786891Y-132918809D01*
X77996935Y-133059157D01*
X78244700Y-133108440D01*
X79235300Y-133108440D01*
X79483065Y-133059157D01*
X79693109Y-132918809D01*
X79833457Y-132708765D01*
X79882740Y-132461000D01*
X79882740Y-130683000D01*
X79833457Y-130435235D01*
X79693109Y-130225191D01*
X79565500Y-130139925D01*
X79565500Y-129670211D01*
X79617431Y-129618280D01*
X79775000Y-129237874D01*
X79775000Y-128826126D01*
X79617431Y-128445720D01*
X79326280Y-128154569D01*
X78945874Y-127997000D01*
X78534126Y-127997000D01*
X78153720Y-128154569D01*
X77862569Y-128445720D01*
X77705000Y-128826126D01*
X77705000Y-129237874D01*
X77862569Y-129618280D01*
X77914501Y-129670212D01*
X77914501Y-130139924D01*
X77786891Y-130225191D01*
X77646543Y-130435235D01*
X77597260Y-130683000D01*
X77342740Y-130683000D01*
X77293457Y-130435235D01*
X77153109Y-130225191D01*
X76943065Y-130084843D01*
X76695300Y-130035560D01*
X75704700Y-130035560D01*
X75456935Y-130084843D01*
X75246891Y-130225191D01*
X75106543Y-130435235D01*
X75057260Y-130683000D01*
X72262740Y-130683000D01*
X72213457Y-130435235D01*
X72073109Y-130225191D01*
X71863065Y-130084843D01*
X71615300Y-130035560D01*
X70624700Y-130035560D01*
X70560000Y-130048429D01*
X70560000Y-95808371D01*
X70624700Y-95821240D01*
X71615300Y-95821240D01*
X71863065Y-95771957D01*
X72073109Y-95631609D01*
X72213457Y-95421565D01*
X72262740Y-95173800D01*
X72262740Y-93395800D01*
X72517260Y-93395800D01*
X72517260Y-95173800D01*
X72566543Y-95421565D01*
X72706891Y-95631609D01*
X72916935Y-95771957D01*
X73164700Y-95821240D01*
X74155300Y-95821240D01*
X74403065Y-95771957D01*
X74613109Y-95631609D01*
X74753457Y-95421565D01*
X74802740Y-95173800D01*
X74802740Y-93395800D01*
X75057260Y-93395800D01*
X75057260Y-95173800D01*
X75106543Y-95421565D01*
X75246891Y-95631609D01*
X75456935Y-95771957D01*
X75704700Y-95821240D01*
X76695300Y-95821240D01*
X76943065Y-95771957D01*
X77153109Y-95631609D01*
X77293457Y-95421565D01*
X77342740Y-95173800D01*
X77342740Y-93395800D01*
X77597260Y-93395800D01*
X77597260Y-95173800D01*
X77646543Y-95421565D01*
X77786891Y-95631609D01*
X77996935Y-95771957D01*
X78244700Y-95821240D01*
X79235300Y-95821240D01*
X79483065Y-95771957D01*
X79693109Y-95631609D01*
X79833457Y-95421565D01*
X79882740Y-95173800D01*
X79882740Y-93395800D01*
X80137260Y-93395800D01*
X80137260Y-95173800D01*
X80186543Y-95421565D01*
X80326891Y-95631609D01*
X80536935Y-95771957D01*
X80784700Y-95821240D01*
X81775300Y-95821240D01*
X82023065Y-95771957D01*
X82233109Y-95631609D01*
X82373457Y-95421565D01*
X82422740Y-95173800D01*
X82422740Y-93395800D01*
X82677260Y-93395800D01*
X82677260Y-95173800D01*
X82726543Y-95421565D01*
X82866891Y-95631609D01*
X83076935Y-95771957D01*
X83324700Y-95821240D01*
X84315300Y-95821240D01*
X84563065Y-95771957D01*
X84773109Y-95631609D01*
X84913457Y-95421565D01*
X84962740Y-95173800D01*
X84962740Y-93395800D01*
X85217260Y-93395800D01*
X85217260Y-95173800D01*
X85266543Y-95421565D01*
X85406891Y-95631609D01*
X85616935Y-95771957D01*
X85864700Y-95821240D01*
X86855300Y-95821240D01*
X87103065Y-95771957D01*
X87313109Y-95631609D01*
X87453457Y-95421565D01*
X87502740Y-95173800D01*
X87502740Y-93395800D01*
X87757260Y-93395800D01*
X87757260Y-95173800D01*
X87806543Y-95421565D01*
X87946891Y-95631609D01*
X88156935Y-95771957D01*
X88404700Y-95821240D01*
X89395300Y-95821240D01*
X89643065Y-95771957D01*
X89853109Y-95631609D01*
X89993457Y-95421565D01*
X90042740Y-95173800D01*
X90042740Y-93395800D01*
X90297260Y-93395800D01*
X90297260Y-95173800D01*
X90346543Y-95421565D01*
X90486891Y-95631609D01*
X90696935Y-95771957D01*
X90944700Y-95821240D01*
X91935300Y-95821240D01*
X92183065Y-95771957D01*
X92393109Y-95631609D01*
X92533457Y-95421565D01*
X92582740Y-95173800D01*
X92582740Y-93395800D01*
X92837260Y-93395800D01*
X92837260Y-95173800D01*
X92886543Y-95421565D01*
X93026891Y-95631609D01*
X93236935Y-95771957D01*
X93484700Y-95821240D01*
X94475300Y-95821240D01*
X94723065Y-95771957D01*
X94933109Y-95631609D01*
X95073457Y-95421565D01*
X95122740Y-95173800D01*
X95122740Y-93395800D01*
X95073457Y-93148035D01*
X94933109Y-92937991D01*
X94723065Y-92797643D01*
X94475300Y-92748360D01*
X93484700Y-92748360D01*
X93236935Y-92797643D01*
X93026891Y-92937991D01*
X92886543Y-93148035D01*
X92837260Y-93395800D01*
X92582740Y-93395800D01*
X92533457Y-93148035D01*
X92393109Y-92937991D01*
X92183065Y-92797643D01*
X91935300Y-92748360D01*
X90944700Y-92748360D01*
X90696935Y-92797643D01*
X90486891Y-92937991D01*
X90346543Y-93148035D01*
X90297260Y-93395800D01*
X90042740Y-93395800D01*
X89993457Y-93148035D01*
X89853109Y-92937991D01*
X89643065Y-92797643D01*
X89395300Y-92748360D01*
X88404700Y-92748360D01*
X88156935Y-92797643D01*
X87946891Y-92937991D01*
X87806543Y-93148035D01*
X87757260Y-93395800D01*
X87502740Y-93395800D01*
X87453457Y-93148035D01*
X87313109Y-92937991D01*
X87103065Y-92797643D01*
X86855300Y-92748360D01*
X85864700Y-92748360D01*
X85616935Y-92797643D01*
X85406891Y-92937991D01*
X85266543Y-93148035D01*
X85217260Y-93395800D01*
X84962740Y-93395800D01*
X84913457Y-93148035D01*
X84773109Y-92937991D01*
X84563065Y-92797643D01*
X84315300Y-92748360D01*
X83324700Y-92748360D01*
X83076935Y-92797643D01*
X82866891Y-92937991D01*
X82726543Y-93148035D01*
X82677260Y-93395800D01*
X82422740Y-93395800D01*
X82373457Y-93148035D01*
X82233109Y-92937991D01*
X82023065Y-92797643D01*
X81775300Y-92748360D01*
X80784700Y-92748360D01*
X80536935Y-92797643D01*
X80326891Y-92937991D01*
X80186543Y-93148035D01*
X80137260Y-93395800D01*
X79882740Y-93395800D01*
X79833457Y-93148035D01*
X79693109Y-92937991D01*
X79483065Y-92797643D01*
X79235300Y-92748360D01*
X78244700Y-92748360D01*
X77996935Y-92797643D01*
X77786891Y-92937991D01*
X77646543Y-93148035D01*
X77597260Y-93395800D01*
X77342740Y-93395800D01*
X77293457Y-93148035D01*
X77153109Y-92937991D01*
X76943065Y-92797643D01*
X76695300Y-92748360D01*
X75704700Y-92748360D01*
X75456935Y-92797643D01*
X75246891Y-92937991D01*
X75106543Y-93148035D01*
X75057260Y-93395800D01*
X74802740Y-93395800D01*
X74753457Y-93148035D01*
X74613109Y-92937991D01*
X74403065Y-92797643D01*
X74155300Y-92748360D01*
X73164700Y-92748360D01*
X72916935Y-92797643D01*
X72706891Y-92937991D01*
X72566543Y-93148035D01*
X72517260Y-93395800D01*
X72262740Y-93395800D01*
X72213457Y-93148035D01*
X72073109Y-92937991D01*
X71863065Y-92797643D01*
X71615300Y-92748360D01*
X70624700Y-92748360D01*
X70560000Y-92761229D01*
X70560000Y-81764119D01*
X72263000Y-81764119D01*
X72263000Y-82319881D01*
X72475680Y-82833337D01*
X72868663Y-83226320D01*
X73382119Y-83439000D01*
X73937881Y-83439000D01*
X74451337Y-83226320D01*
X74844320Y-82833337D01*
X74930000Y-82626487D01*
X75015680Y-82833337D01*
X75408663Y-83226320D01*
X75615513Y-83312000D01*
X75408663Y-83397680D01*
X75049843Y-83756500D01*
X74249297Y-83756500D01*
X74167999Y-83740329D01*
X74086701Y-83756500D01*
X74086697Y-83756500D01*
X73845906Y-83804396D01*
X73572848Y-83986848D01*
X73526793Y-84055775D01*
X73133776Y-84448791D01*
X73064848Y-84494848D01*
X72882396Y-84767907D01*
X72855307Y-84904094D01*
X72818328Y-85090000D01*
X72834500Y-85171301D01*
X72834500Y-85213789D01*
X72782569Y-85265720D01*
X72625000Y-85646126D01*
X72625000Y-86057874D01*
X72782569Y-86438280D01*
X73073720Y-86729431D01*
X73378223Y-86855560D01*
X73164700Y-86855560D01*
X72916935Y-86904843D01*
X72706891Y-87045191D01*
X72566543Y-87255235D01*
X72517260Y-87503000D01*
X72517260Y-89281000D01*
X72566543Y-89528765D01*
X72706891Y-89738809D01*
X72916935Y-89879157D01*
X73164700Y-89928440D01*
X74155300Y-89928440D01*
X74403065Y-89879157D01*
X74613109Y-89738809D01*
X74753457Y-89528765D01*
X74802740Y-89281000D01*
X74802740Y-87503000D01*
X75057260Y-87503000D01*
X75057260Y-89281000D01*
X75106543Y-89528765D01*
X75246891Y-89738809D01*
X75456935Y-89879157D01*
X75704700Y-89928440D01*
X76695300Y-89928440D01*
X76943065Y-89879157D01*
X77153109Y-89738809D01*
X77293457Y-89528765D01*
X77342740Y-89281000D01*
X77342740Y-87503000D01*
X77597260Y-87503000D01*
X77597260Y-89281000D01*
X77646543Y-89528765D01*
X77786891Y-89738809D01*
X77996935Y-89879157D01*
X78244700Y-89928440D01*
X79235300Y-89928440D01*
X79483065Y-89879157D01*
X79693109Y-89738809D01*
X79833457Y-89528765D01*
X79882740Y-89281000D01*
X79882740Y-87503000D01*
X80137260Y-87503000D01*
X80137260Y-89281000D01*
X80186543Y-89528765D01*
X80326891Y-89738809D01*
X80536935Y-89879157D01*
X80784700Y-89928440D01*
X81775300Y-89928440D01*
X82023065Y-89879157D01*
X82233109Y-89738809D01*
X82373457Y-89528765D01*
X82422740Y-89281000D01*
X82422740Y-87503000D01*
X82373457Y-87255235D01*
X82233109Y-87045191D01*
X82023065Y-86904843D01*
X81775300Y-86855560D01*
X80784700Y-86855560D01*
X80536935Y-86904843D01*
X80326891Y-87045191D01*
X80186543Y-87255235D01*
X80137260Y-87503000D01*
X79882740Y-87503000D01*
X79833457Y-87255235D01*
X79693109Y-87045191D01*
X79483065Y-86904843D01*
X79235300Y-86855560D01*
X78244700Y-86855560D01*
X77996935Y-86904843D01*
X77786891Y-87045191D01*
X77646543Y-87255235D01*
X77597260Y-87503000D01*
X77342740Y-87503000D01*
X77293457Y-87255235D01*
X77153109Y-87045191D01*
X76943065Y-86904843D01*
X76695300Y-86855560D01*
X75704700Y-86855560D01*
X75456935Y-86904843D01*
X75246891Y-87045191D01*
X75106543Y-87255235D01*
X75057260Y-87503000D01*
X74802740Y-87503000D01*
X74753457Y-87255235D01*
X74613109Y-87045191D01*
X74403065Y-86904843D01*
X74155300Y-86855560D01*
X73941777Y-86855560D01*
X74246280Y-86729431D01*
X74537431Y-86438280D01*
X74695000Y-86057874D01*
X74695000Y-85646126D01*
X74596158Y-85407500D01*
X75049843Y-85407500D01*
X75408663Y-85766320D01*
X75922119Y-85979000D01*
X76477881Y-85979000D01*
X76991337Y-85766320D01*
X77384320Y-85373337D01*
X77597000Y-84859881D01*
X77597000Y-84304119D01*
X77384320Y-83790663D01*
X76991337Y-83397680D01*
X76784487Y-83312000D01*
X76991337Y-83226320D01*
X77384320Y-82833337D01*
X77597000Y-82319881D01*
X77597000Y-81764119D01*
X79883000Y-81764119D01*
X79883000Y-82319881D01*
X80095680Y-82833337D01*
X80488663Y-83226320D01*
X80695513Y-83312000D01*
X80488663Y-83397680D01*
X80095680Y-83790663D01*
X79883000Y-84304119D01*
X79883000Y-84859881D01*
X80095680Y-85373337D01*
X80488663Y-85766320D01*
X81002119Y-85979000D01*
X81557881Y-85979000D01*
X82071337Y-85766320D01*
X82430157Y-85407500D01*
X82629842Y-85407500D01*
X82531000Y-85646126D01*
X82531000Y-86057874D01*
X82688569Y-86438280D01*
X82979720Y-86729431D01*
X83297355Y-86860999D01*
X83076935Y-86904843D01*
X82866891Y-87045191D01*
X82726543Y-87255235D01*
X82677260Y-87503000D01*
X82677260Y-89281000D01*
X82726543Y-89528765D01*
X82866891Y-89738809D01*
X83076935Y-89879157D01*
X83324700Y-89928440D01*
X84315300Y-89928440D01*
X84563065Y-89879157D01*
X84773109Y-89738809D01*
X84913457Y-89528765D01*
X84962740Y-89281000D01*
X84962740Y-87503000D01*
X85217260Y-87503000D01*
X85217260Y-89281000D01*
X85266543Y-89528765D01*
X85406891Y-89738809D01*
X85616935Y-89879157D01*
X85864700Y-89928440D01*
X86855300Y-89928440D01*
X87103065Y-89879157D01*
X87313109Y-89738809D01*
X87453457Y-89528765D01*
X87502740Y-89281000D01*
X87502740Y-87503000D01*
X87757260Y-87503000D01*
X87757260Y-89281000D01*
X87806543Y-89528765D01*
X87946891Y-89738809D01*
X88156935Y-89879157D01*
X88404700Y-89928440D01*
X89395300Y-89928440D01*
X89643065Y-89879157D01*
X89853109Y-89738809D01*
X89993457Y-89528765D01*
X90042740Y-89281000D01*
X90042740Y-87503000D01*
X89993457Y-87255235D01*
X89853109Y-87045191D01*
X89643065Y-86904843D01*
X89395300Y-86855560D01*
X88404700Y-86855560D01*
X88156935Y-86904843D01*
X87946891Y-87045191D01*
X87806543Y-87255235D01*
X87757260Y-87503000D01*
X87502740Y-87503000D01*
X87453457Y-87255235D01*
X87313109Y-87045191D01*
X87103065Y-86904843D01*
X86855300Y-86855560D01*
X85864700Y-86855560D01*
X85616935Y-86904843D01*
X85406891Y-87045191D01*
X85266543Y-87255235D01*
X85217260Y-87503000D01*
X84962740Y-87503000D01*
X84913457Y-87255235D01*
X84773109Y-87045191D01*
X84563065Y-86904843D01*
X84315300Y-86855560D01*
X83847777Y-86855560D01*
X84152280Y-86729431D01*
X84443431Y-86438280D01*
X84601000Y-86057874D01*
X84601000Y-85646126D01*
X84443431Y-85265720D01*
X84391500Y-85213789D01*
X84391500Y-85171297D01*
X84407671Y-85089999D01*
X84391500Y-85008701D01*
X84391500Y-85008697D01*
X84343604Y-84767906D01*
X84161152Y-84494848D01*
X84092226Y-84448793D01*
X83699209Y-84055776D01*
X83653152Y-83986848D01*
X83380094Y-83804396D01*
X83139303Y-83756500D01*
X83139301Y-83756500D01*
X83058000Y-83740328D01*
X82976699Y-83756500D01*
X82430157Y-83756500D01*
X82071337Y-83397680D01*
X81864487Y-83312000D01*
X82071337Y-83226320D01*
X82464320Y-82833337D01*
X82550000Y-82626487D01*
X82635680Y-82833337D01*
X83028663Y-83226320D01*
X83542119Y-83439000D01*
X84097881Y-83439000D01*
X84611337Y-83226320D01*
X85004320Y-82833337D01*
X85217000Y-82319881D01*
X85217000Y-81764119D01*
X90043000Y-81764119D01*
X90043000Y-82319881D01*
X90255680Y-82833337D01*
X90648663Y-83226320D01*
X91162119Y-83439000D01*
X91717881Y-83439000D01*
X92231337Y-83226320D01*
X92624320Y-82833337D01*
X92710000Y-82626487D01*
X92795680Y-82833337D01*
X93188663Y-83226320D01*
X93395513Y-83312000D01*
X93188663Y-83397680D01*
X92829843Y-83756500D01*
X92029297Y-83756500D01*
X91947999Y-83740329D01*
X91866701Y-83756500D01*
X91866697Y-83756500D01*
X91625906Y-83804396D01*
X91352848Y-83986848D01*
X91306793Y-84055775D01*
X90913776Y-84448791D01*
X90844848Y-84494848D01*
X90662396Y-84767907D01*
X90635307Y-84904094D01*
X90598328Y-85090000D01*
X90614500Y-85171301D01*
X90614500Y-85213789D01*
X90562569Y-85265720D01*
X90405000Y-85646126D01*
X90405000Y-86057874D01*
X90562569Y-86438280D01*
X90853720Y-86729431D01*
X91158223Y-86855560D01*
X90944700Y-86855560D01*
X90696935Y-86904843D01*
X90486891Y-87045191D01*
X90346543Y-87255235D01*
X90297260Y-87503000D01*
X90297260Y-89281000D01*
X90346543Y-89528765D01*
X90486891Y-89738809D01*
X90696935Y-89879157D01*
X90944700Y-89928440D01*
X91935300Y-89928440D01*
X92183065Y-89879157D01*
X92393109Y-89738809D01*
X92533457Y-89528765D01*
X92582740Y-89281000D01*
X92582740Y-87503000D01*
X92837260Y-87503000D01*
X92837260Y-89281000D01*
X92886543Y-89528765D01*
X93026891Y-89738809D01*
X93236935Y-89879157D01*
X93484700Y-89928440D01*
X94475300Y-89928440D01*
X94723065Y-89879157D01*
X94933109Y-89738809D01*
X95073457Y-89528765D01*
X95122740Y-89281000D01*
X95122740Y-87503000D01*
X95073457Y-87255235D01*
X94933109Y-87045191D01*
X94723065Y-86904843D01*
X94475300Y-86855560D01*
X93484700Y-86855560D01*
X93236935Y-86904843D01*
X93026891Y-87045191D01*
X92886543Y-87255235D01*
X92837260Y-87503000D01*
X92582740Y-87503000D01*
X92533457Y-87255235D01*
X92393109Y-87045191D01*
X92183065Y-86904843D01*
X91935300Y-86855560D01*
X91721777Y-86855560D01*
X92026280Y-86729431D01*
X92317431Y-86438280D01*
X92475000Y-86057874D01*
X92475000Y-85646126D01*
X92376158Y-85407500D01*
X92829843Y-85407500D01*
X93188663Y-85766320D01*
X93702119Y-85979000D01*
X94257881Y-85979000D01*
X94771337Y-85766320D01*
X95164320Y-85373337D01*
X95377000Y-84859881D01*
X95377000Y-84304119D01*
X95164320Y-83790663D01*
X94771337Y-83397680D01*
X94564487Y-83312000D01*
X94771337Y-83226320D01*
X95164320Y-82833337D01*
X95377000Y-82319881D01*
X95377000Y-81764119D01*
X97663000Y-81764119D01*
X97663000Y-82319881D01*
X97875680Y-82833337D01*
X98268663Y-83226320D01*
X98475513Y-83312000D01*
X98268663Y-83397680D01*
X97875680Y-83790663D01*
X97663000Y-84304119D01*
X97663000Y-84859881D01*
X97875680Y-85373337D01*
X98268663Y-85766320D01*
X98782119Y-85979000D01*
X99337881Y-85979000D01*
X99851337Y-85766320D01*
X100210157Y-85407500D01*
X100409842Y-85407500D01*
X100311000Y-85646126D01*
X100311000Y-86057874D01*
X100468569Y-86438280D01*
X100759720Y-86729431D01*
X101140126Y-86887000D01*
X101551874Y-86887000D01*
X101932280Y-86729431D01*
X102223431Y-86438280D01*
X102381000Y-86057874D01*
X102381000Y-85646126D01*
X102223431Y-85265720D01*
X102171500Y-85213789D01*
X102171500Y-85171297D01*
X102187671Y-85089999D01*
X102171500Y-85008701D01*
X102171500Y-85008697D01*
X102123604Y-84767906D01*
X101941152Y-84494848D01*
X101872226Y-84448793D01*
X101479209Y-84055776D01*
X101433152Y-83986848D01*
X101160094Y-83804396D01*
X100919303Y-83756500D01*
X100919301Y-83756500D01*
X100838000Y-83740328D01*
X100756699Y-83756500D01*
X100210157Y-83756500D01*
X99851337Y-83397680D01*
X99644487Y-83312000D01*
X99851337Y-83226320D01*
X100244320Y-82833337D01*
X100330000Y-82626487D01*
X100415680Y-82833337D01*
X100808663Y-83226320D01*
X101322119Y-83439000D01*
X101877881Y-83439000D01*
X102391337Y-83226320D01*
X102784320Y-82833337D01*
X102997000Y-82319881D01*
X102997000Y-81764119D01*
X107823000Y-81764119D01*
X107823000Y-82319881D01*
X108035680Y-82833337D01*
X108428663Y-83226320D01*
X108942119Y-83439000D01*
X109497881Y-83439000D01*
X110011337Y-83226320D01*
X110404320Y-82833337D01*
X110490000Y-82626487D01*
X110575680Y-82833337D01*
X110968663Y-83226320D01*
X111175513Y-83312000D01*
X110968663Y-83397680D01*
X110609843Y-83756500D01*
X109809297Y-83756500D01*
X109727999Y-83740329D01*
X109646701Y-83756500D01*
X109646697Y-83756500D01*
X109405906Y-83804396D01*
X109132848Y-83986848D01*
X109086793Y-84055775D01*
X108693776Y-84448791D01*
X108624848Y-84494848D01*
X108442396Y-84767907D01*
X108415307Y-84904094D01*
X108378328Y-85090000D01*
X108394500Y-85171301D01*
X108394500Y-85213789D01*
X108342569Y-85265720D01*
X108185000Y-85646126D01*
X108185000Y-86057874D01*
X108342569Y-86438280D01*
X108633720Y-86729431D01*
X109014126Y-86887000D01*
X109425874Y-86887000D01*
X109806280Y-86729431D01*
X110097431Y-86438280D01*
X110255000Y-86057874D01*
X110255000Y-85646126D01*
X110156158Y-85407500D01*
X110609843Y-85407500D01*
X110968663Y-85766320D01*
X111482119Y-85979000D01*
X112037881Y-85979000D01*
X112551337Y-85766320D01*
X112944320Y-85373337D01*
X113157000Y-84859881D01*
X113157000Y-84304119D01*
X112944320Y-83790663D01*
X112551337Y-83397680D01*
X112344487Y-83312000D01*
X112551337Y-83226320D01*
X112944320Y-82833337D01*
X113157000Y-82319881D01*
X113157000Y-81764119D01*
X115443000Y-81764119D01*
X115443000Y-82319881D01*
X115655680Y-82833337D01*
X116048663Y-83226320D01*
X116255513Y-83312000D01*
X116048663Y-83397680D01*
X115655680Y-83790663D01*
X115443000Y-84304119D01*
X115443000Y-84859881D01*
X115655680Y-85373337D01*
X116048663Y-85766320D01*
X116562119Y-85979000D01*
X117117881Y-85979000D01*
X117631337Y-85766320D01*
X117990157Y-85407500D01*
X118189842Y-85407500D01*
X118091000Y-85646126D01*
X118091000Y-86057874D01*
X118248569Y-86438280D01*
X118539720Y-86729431D01*
X118920126Y-86887000D01*
X119331874Y-86887000D01*
X119712280Y-86729431D01*
X120003431Y-86438280D01*
X120161000Y-86057874D01*
X120161000Y-85646126D01*
X120003431Y-85265720D01*
X119951500Y-85213789D01*
X119951500Y-85171297D01*
X119967671Y-85089999D01*
X119951500Y-85008701D01*
X119951500Y-85008697D01*
X119903604Y-84767906D01*
X119721152Y-84494848D01*
X119652226Y-84448793D01*
X119259209Y-84055776D01*
X119213152Y-83986848D01*
X118940094Y-83804396D01*
X118699303Y-83756500D01*
X118699301Y-83756500D01*
X118618000Y-83740328D01*
X118536699Y-83756500D01*
X117990157Y-83756500D01*
X117631337Y-83397680D01*
X117424487Y-83312000D01*
X117631337Y-83226320D01*
X118024320Y-82833337D01*
X118110000Y-82626487D01*
X118195680Y-82833337D01*
X118588663Y-83226320D01*
X119102119Y-83439000D01*
X119657881Y-83439000D01*
X120171337Y-83226320D01*
X120564320Y-82833337D01*
X120777000Y-82319881D01*
X120777000Y-81764119D01*
X120564320Y-81250663D01*
X120171337Y-80857680D01*
X119657881Y-80645000D01*
X119102119Y-80645000D01*
X118588663Y-80857680D01*
X118195680Y-81250663D01*
X118110000Y-81457513D01*
X118024320Y-81250663D01*
X117631337Y-80857680D01*
X117117881Y-80645000D01*
X116562119Y-80645000D01*
X116048663Y-80857680D01*
X115655680Y-81250663D01*
X115443000Y-81764119D01*
X113157000Y-81764119D01*
X112944320Y-81250663D01*
X112551337Y-80857680D01*
X112037881Y-80645000D01*
X111482119Y-80645000D01*
X110968663Y-80857680D01*
X110575680Y-81250663D01*
X110490000Y-81457513D01*
X110404320Y-81250663D01*
X110011337Y-80857680D01*
X109497881Y-80645000D01*
X108942119Y-80645000D01*
X108428663Y-80857680D01*
X108035680Y-81250663D01*
X107823000Y-81764119D01*
X102997000Y-81764119D01*
X102784320Y-81250663D01*
X102391337Y-80857680D01*
X101877881Y-80645000D01*
X101322119Y-80645000D01*
X100808663Y-80857680D01*
X100415680Y-81250663D01*
X100330000Y-81457513D01*
X100244320Y-81250663D01*
X99851337Y-80857680D01*
X99337881Y-80645000D01*
X98782119Y-80645000D01*
X98268663Y-80857680D01*
X97875680Y-81250663D01*
X97663000Y-81764119D01*
X95377000Y-81764119D01*
X95164320Y-81250663D01*
X94771337Y-80857680D01*
X94257881Y-80645000D01*
X93702119Y-80645000D01*
X93188663Y-80857680D01*
X92795680Y-81250663D01*
X92710000Y-81457513D01*
X92624320Y-81250663D01*
X92231337Y-80857680D01*
X91717881Y-80645000D01*
X91162119Y-80645000D01*
X90648663Y-80857680D01*
X90255680Y-81250663D01*
X90043000Y-81764119D01*
X85217000Y-81764119D01*
X85004320Y-81250663D01*
X84611337Y-80857680D01*
X84097881Y-80645000D01*
X83542119Y-80645000D01*
X83028663Y-80857680D01*
X82635680Y-81250663D01*
X82550000Y-81457513D01*
X82464320Y-81250663D01*
X82071337Y-80857680D01*
X81557881Y-80645000D01*
X81002119Y-80645000D01*
X80488663Y-80857680D01*
X80095680Y-81250663D01*
X79883000Y-81764119D01*
X77597000Y-81764119D01*
X77384320Y-81250663D01*
X76991337Y-80857680D01*
X76477881Y-80645000D01*
X75922119Y-80645000D01*
X75408663Y-80857680D01*
X75015680Y-81250663D01*
X74930000Y-81457513D01*
X74844320Y-81250663D01*
X74451337Y-80857680D01*
X73937881Y-80645000D01*
X73382119Y-80645000D01*
X72868663Y-80857680D01*
X72475680Y-81250663D01*
X72263000Y-81764119D01*
X70560000Y-81764119D01*
X70560000Y-74913544D01*
X71053167Y-75406711D01*
X71920567Y-75766000D01*
X72570000Y-75766000D01*
X72570000Y-76415433D01*
X72929289Y-77282833D01*
X73593167Y-77946711D01*
X74460567Y-78306000D01*
X75399433Y-78306000D01*
X76266833Y-77946711D01*
X76930711Y-77282833D01*
X77290000Y-76415433D01*
X77290000Y-75476567D01*
X80190000Y-75476567D01*
X80190000Y-76415433D01*
X80549289Y-77282833D01*
X81213167Y-77946711D01*
X82080567Y-78306000D01*
X83019433Y-78306000D01*
X83886833Y-77946711D01*
X84550711Y-77282833D01*
X84910000Y-76415433D01*
X84910000Y-75766000D01*
X85559433Y-75766000D01*
X86426833Y-75406711D01*
X87090711Y-74742833D01*
X87450000Y-73875433D01*
X87450000Y-72936567D01*
X87810000Y-72936567D01*
X87810000Y-73875433D01*
X88169289Y-74742833D01*
X88833167Y-75406711D01*
X89700567Y-75766000D01*
X90350000Y-75766000D01*
X90350000Y-76415433D01*
X90709289Y-77282833D01*
X91373167Y-77946711D01*
X92240567Y-78306000D01*
X93179433Y-78306000D01*
X94046833Y-77946711D01*
X94710711Y-77282833D01*
X95070000Y-76415433D01*
X95070000Y-75476567D01*
X97970000Y-75476567D01*
X97970000Y-76415433D01*
X98329289Y-77282833D01*
X98993167Y-77946711D01*
X99860567Y-78306000D01*
X100799433Y-78306000D01*
X101666833Y-77946711D01*
X102330711Y-77282833D01*
X102690000Y-76415433D01*
X102690000Y-75766000D01*
X103339433Y-75766000D01*
X104206833Y-75406711D01*
X104870711Y-74742833D01*
X105230000Y-73875433D01*
X105230000Y-72936567D01*
X105590000Y-72936567D01*
X105590000Y-73875433D01*
X105949289Y-74742833D01*
X106613167Y-75406711D01*
X107480567Y-75766000D01*
X108130000Y-75766000D01*
X108130000Y-76415433D01*
X108489289Y-77282833D01*
X109153167Y-77946711D01*
X110020567Y-78306000D01*
X110959433Y-78306000D01*
X111826833Y-77946711D01*
X112490711Y-77282833D01*
X112850000Y-76415433D01*
X112850000Y-75476567D01*
X115750000Y-75476567D01*
X115750000Y-76415433D01*
X116109289Y-77282833D01*
X116773167Y-77946711D01*
X117640567Y-78306000D01*
X118579433Y-78306000D01*
X119446833Y-77946711D01*
X120110711Y-77282833D01*
X120470000Y-76415433D01*
X120470000Y-75766000D01*
X121119433Y-75766000D01*
X121986833Y-75406711D01*
X122650711Y-74742833D01*
X123010000Y-73875433D01*
X123010000Y-72936567D01*
X122650711Y-72069167D01*
X121986833Y-71405289D01*
X121119433Y-71046000D01*
X120180567Y-71046000D01*
X119313167Y-71405289D01*
X118649289Y-72069167D01*
X118290000Y-72936567D01*
X118290000Y-73586000D01*
X117640567Y-73586000D01*
X116773167Y-73945289D01*
X116109289Y-74609167D01*
X115750000Y-75476567D01*
X112850000Y-75476567D01*
X112490711Y-74609167D01*
X111826833Y-73945289D01*
X110959433Y-73586000D01*
X110310000Y-73586000D01*
X110310000Y-72936567D01*
X109950711Y-72069167D01*
X109286833Y-71405289D01*
X108419433Y-71046000D01*
X107480567Y-71046000D01*
X106613167Y-71405289D01*
X105949289Y-72069167D01*
X105590000Y-72936567D01*
X105230000Y-72936567D01*
X104870711Y-72069167D01*
X104206833Y-71405289D01*
X103339433Y-71046000D01*
X102400567Y-71046000D01*
X101533167Y-71405289D01*
X100869289Y-72069167D01*
X100510000Y-72936567D01*
X100510000Y-73586000D01*
X99860567Y-73586000D01*
X98993167Y-73945289D01*
X98329289Y-74609167D01*
X97970000Y-75476567D01*
X95070000Y-75476567D01*
X94710711Y-74609167D01*
X94046833Y-73945289D01*
X93179433Y-73586000D01*
X92530000Y-73586000D01*
X92530000Y-72936567D01*
X92170711Y-72069167D01*
X91506833Y-71405289D01*
X90639433Y-71046000D01*
X89700567Y-71046000D01*
X88833167Y-71405289D01*
X88169289Y-72069167D01*
X87810000Y-72936567D01*
X87450000Y-72936567D01*
X87090711Y-72069167D01*
X86426833Y-71405289D01*
X85559433Y-71046000D01*
X84620567Y-71046000D01*
X83753167Y-71405289D01*
X83089289Y-72069167D01*
X82730000Y-72936567D01*
X82730000Y-73586000D01*
X82080567Y-73586000D01*
X81213167Y-73945289D01*
X80549289Y-74609167D01*
X80190000Y-75476567D01*
X77290000Y-75476567D01*
X76930711Y-74609167D01*
X76266833Y-73945289D01*
X75399433Y-73586000D01*
X74750000Y-73586000D01*
X74750000Y-72936567D01*
X74390711Y-72069167D01*
X73726833Y-71405289D01*
X72859433Y-71046000D01*
X71920567Y-71046000D01*
X71053167Y-71405289D01*
X70560000Y-71898456D01*
X70560000Y-70916581D01*
X70620090Y-70496991D01*
X70774381Y-70157648D01*
X71017712Y-69875248D01*
X71330523Y-69672494D01*
X71711184Y-69558652D01*
X71908350Y-69544000D01*
X128727419Y-69544000D01*
X129147009Y-69604090D01*
X129147009Y-69604090D01*
G37*
X129147009Y-69604090D02*
X129486352Y-69758381D01*
X129768752Y-70001712D01*
X129971506Y-70314523D01*
X130085348Y-70695184D01*
X130100000Y-70892350D01*
X130100001Y-114655812D01*
X130039910Y-115075409D01*
X129885619Y-115414752D01*
X129642288Y-115697152D01*
X129329479Y-115899906D01*
X128948815Y-116013748D01*
X128751649Y-116028400D01*
X113099925Y-116028400D01*
X113030000Y-116014491D01*
X112960074Y-116028400D01*
X112752972Y-116069595D01*
X112518119Y-116226519D01*
X112361195Y-116461372D01*
X112306091Y-116738400D01*
X112320000Y-116808326D01*
X112320001Y-137496469D01*
X112306091Y-137566400D01*
X112361195Y-137843428D01*
X112518119Y-138078281D01*
X112752972Y-138235205D01*
X112960074Y-138276400D01*
X112960075Y-138276400D01*
X113030000Y-138290309D01*
X113099926Y-138276400D01*
X128727419Y-138276400D01*
X129147009Y-138336490D01*
X129486352Y-138490781D01*
X129768752Y-138734112D01*
X129971506Y-139046923D01*
X130085348Y-139427584D01*
X130100000Y-139624750D01*
X130100001Y-147130160D01*
X129754241Y-147233564D01*
X129666769Y-147273982D01*
X129578806Y-147313329D01*
X129571502Y-147318001D01*
X129571498Y-147318003D01*
X129571499Y-147318003D01*
X129088040Y-147631366D01*
X129015447Y-147694693D01*
X128942045Y-147757163D01*
X128936343Y-147763700D01*
X128560266Y-148200159D01*
X128508347Y-148281342D01*
X128455446Y-148361875D01*
X128451808Y-148369750D01*
X128213347Y-148894217D01*
X128186300Y-148986709D01*
X128158129Y-149078852D01*
X128156847Y-149087431D01*
X128075171Y-149657746D01*
X128075171Y-149730166D01*
X128069362Y-149802363D01*
X128069952Y-149811018D01*
X128092272Y-150111366D01*
X128107826Y-150182111D01*
X128117654Y-150253855D01*
X128120088Y-150262181D01*
X128285164Y-150814158D01*
X128325591Y-150901650D01*
X128364930Y-150989594D01*
X128369603Y-150996901D01*
X128682966Y-151480361D01*
X128746328Y-151552994D01*
X128808763Y-151626355D01*
X128815296Y-151632054D01*
X128815300Y-151632058D01*
X128815305Y-151632061D01*
X129251759Y-152008134D01*
X129332942Y-152060053D01*
X129413475Y-152112954D01*
X129421346Y-152116590D01*
X129421349Y-152116592D01*
X129421352Y-152116593D01*
X129945817Y-152355053D01*
X130038309Y-152382100D01*
X130100000Y-152400961D01*
X130100001Y-160375812D01*
X130039910Y-160795409D01*
X129885619Y-161134752D01*
X129642288Y-161417152D01*
X129329479Y-161619906D01*
X128948815Y-161733748D01*
X128751649Y-161748400D01*
X71932581Y-161748400D01*
X71512991Y-161688310D01*
X71173648Y-161534019D01*
X70891248Y-161290688D01*
X70688494Y-160977879D01*
X70574652Y-160597215D01*
X70560000Y-160400049D01*
X70560000Y-152386639D01*
X70905758Y-152283236D01*
X70993250Y-152242809D01*
X71081194Y-152203470D01*
X71088498Y-152198799D01*
X71088502Y-152198797D01*
X71571961Y-151885434D01*
X71644594Y-151822072D01*
X71717955Y-151759637D01*
X71723654Y-151753104D01*
X71723658Y-151753100D01*
X71723661Y-151753095D01*
X72099734Y-151316641D01*
X72151653Y-151235458D01*
X72204554Y-151154925D01*
X72208192Y-151147050D01*
X72446653Y-150622583D01*
X72473700Y-150530091D01*
X72501871Y-150437948D01*
X72503153Y-150429369D01*
X72584829Y-149859053D01*
X72584829Y-149786633D01*
X72590638Y-149714436D01*
X72590048Y-149705782D01*
X72567728Y-149405433D01*
X72552174Y-149334688D01*
X72542346Y-149262944D01*
X72539912Y-149254619D01*
X72374836Y-148702641D01*
X72334418Y-148615169D01*
X72295071Y-148527206D01*
X72290397Y-148519899D01*
X71977034Y-148036440D01*
X71913707Y-147963847D01*
X71851237Y-147890445D01*
X71844700Y-147884743D01*
X71408241Y-147508666D01*
X71327058Y-147456747D01*
X71246525Y-147403846D01*
X71238654Y-147400210D01*
X71238651Y-147400208D01*
X71238648Y-147400207D01*
X70714183Y-147161747D01*
X70621691Y-147134700D01*
X70560000Y-147115839D01*
X70560000Y-142862840D01*
X70838820Y-143141660D01*
X70895505Y-143226495D01*
X71177587Y-143414976D01*
X71231575Y-143451050D01*
X71231576Y-143451050D01*
X71231577Y-143451051D01*
X71527935Y-143510000D01*
X71627999Y-143529904D01*
X71728063Y-143510000D01*
X95403937Y-143510000D01*
X95504000Y-143529904D01*
X95604063Y-143510000D01*
X95604065Y-143510000D01*
X95900423Y-143451051D01*
X96236495Y-143226495D01*
X96293180Y-143141660D01*
X96659660Y-142775180D01*
X96744495Y-142718495D01*
X96969051Y-142382423D01*
X97028000Y-142086065D01*
X97028000Y-142086064D01*
X97047904Y-141986001D01*
X97028000Y-141885937D01*
X97028000Y-129791744D01*
X97047000Y-129745874D01*
X97047000Y-129334126D01*
X96969955Y-129148123D01*
X96969051Y-129143577D01*
X96966476Y-129139723D01*
X96889431Y-128953720D01*
X96747070Y-128811359D01*
X96744495Y-128807505D01*
X96740641Y-128804930D01*
X96598280Y-128662569D01*
X96412275Y-128585523D01*
X96408422Y-128582949D01*
X96403878Y-128582045D01*
X96217874Y-128505000D01*
X96016545Y-128505000D01*
X96012000Y-128504096D01*
X96007455Y-128505000D01*
X95806126Y-128505000D01*
X95620123Y-128582045D01*
X95615577Y-128582949D01*
X95611723Y-128585524D01*
X95425720Y-128662569D01*
X95283359Y-128804930D01*
X95279505Y-128807505D01*
X95276930Y-128811359D01*
X95134569Y-128953720D01*
X95057523Y-129139725D01*
X95054949Y-129143578D01*
X95054045Y-129148122D01*
X94977000Y-129334126D01*
X94977000Y-129745874D01*
X94996000Y-129791744D01*
X94996000Y-130319313D01*
X94933109Y-130225191D01*
X94805500Y-130139925D01*
X94805500Y-129367301D01*
X94821672Y-129286000D01*
X94805500Y-129204697D01*
X94757604Y-128963906D01*
X94575152Y-128690848D01*
X94506226Y-128644793D01*
X93789500Y-127928068D01*
X93789500Y-124944119D01*
X93853000Y-124944119D01*
X93853000Y-125499881D01*
X94065680Y-126013337D01*
X94458663Y-126406320D01*
X94972119Y-126619000D01*
X95527881Y-126619000D01*
X96041337Y-126406320D01*
X96434320Y-126013337D01*
X96647000Y-125499881D01*
X96647000Y-124944119D01*
X96434320Y-124430663D01*
X96041337Y-124037680D01*
X95527881Y-123825000D01*
X94972119Y-123825000D01*
X94458663Y-124037680D01*
X94065680Y-124430663D01*
X93853000Y-124944119D01*
X93789500Y-124944119D01*
X93789500Y-119864119D01*
X93853000Y-119864119D01*
X93853000Y-120419881D01*
X94065680Y-120933337D01*
X94458663Y-121326320D01*
X94972119Y-121539000D01*
X95527881Y-121539000D01*
X96041337Y-121326320D01*
X96434320Y-120933337D01*
X96647000Y-120419881D01*
X96647000Y-119864119D01*
X96434320Y-119350663D01*
X96041337Y-118957680D01*
X95527881Y-118745000D01*
X94972119Y-118745000D01*
X94458663Y-118957680D01*
X94065680Y-119350663D01*
X93853000Y-119864119D01*
X93789500Y-119864119D01*
X93789500Y-118240453D01*
X100965000Y-118240453D01*
X100965000Y-119503547D01*
X101448365Y-120670493D01*
X102341507Y-121563635D01*
X103508453Y-122047000D01*
X104771547Y-122047000D01*
X105938493Y-121563635D01*
X106831635Y-120670493D01*
X107315000Y-119503547D01*
X107315000Y-118240453D01*
X106831635Y-117073507D01*
X105938493Y-116180365D01*
X104771547Y-115697000D01*
X103508453Y-115697000D01*
X102341507Y-116180365D01*
X101448365Y-117073507D01*
X100965000Y-118240453D01*
X93789500Y-118240453D01*
X93789500Y-103052000D01*
X124581010Y-103052000D01*
X124715666Y-103728963D01*
X125099135Y-104302865D01*
X125308276Y-104442608D01*
X125195359Y-104611600D01*
X125087867Y-105152000D01*
X125195359Y-105692400D01*
X125501471Y-106150529D01*
X125503673Y-106152000D01*
X125501471Y-106153471D01*
X125195359Y-106611600D01*
X125087867Y-107152000D01*
X125195359Y-107692400D01*
X125341559Y-107911204D01*
X125292191Y-107944191D01*
X125151843Y-108154235D01*
X125102560Y-108402000D01*
X125102560Y-109902000D01*
X125119564Y-109987485D01*
X125099135Y-110001135D01*
X124715666Y-110575037D01*
X124581010Y-111252000D01*
X124715666Y-111928963D01*
X125099135Y-112502865D01*
X125673037Y-112886334D01*
X126179120Y-112987000D01*
X127820880Y-112987000D01*
X128326963Y-112886334D01*
X128900865Y-112502865D01*
X129284334Y-111928963D01*
X129418990Y-111252000D01*
X129284334Y-110575037D01*
X128900865Y-110001135D01*
X128880436Y-109987485D01*
X128897440Y-109902000D01*
X128897440Y-108402000D01*
X128848157Y-108154235D01*
X128707809Y-107944191D01*
X128658441Y-107911204D01*
X128804641Y-107692400D01*
X128912133Y-107152000D01*
X128804641Y-106611600D01*
X128498529Y-106153471D01*
X128496327Y-106152000D01*
X128498529Y-106150529D01*
X128804641Y-105692400D01*
X128912133Y-105152000D01*
X128804641Y-104611600D01*
X128691724Y-104442608D01*
X128900865Y-104302865D01*
X129284334Y-103728963D01*
X129418990Y-103052000D01*
X129284334Y-102375037D01*
X128900865Y-101801135D01*
X128326963Y-101417666D01*
X127820880Y-101317000D01*
X126179120Y-101317000D01*
X125673037Y-101417666D01*
X125099135Y-101801135D01*
X124715666Y-102375037D01*
X124581010Y-103052000D01*
X93789500Y-103052000D01*
X93789500Y-102449932D01*
X93813933Y-102425500D01*
X114218699Y-102425500D01*
X114300000Y-102441672D01*
X114381301Y-102425500D01*
X114381303Y-102425500D01*
X114622094Y-102377604D01*
X114895152Y-102195152D01*
X114941209Y-102126224D01*
X115334225Y-101733207D01*
X115403152Y-101687152D01*
X115585604Y-101414094D01*
X115633500Y-101173303D01*
X115633500Y-101173299D01*
X115649671Y-101092001D01*
X115633500Y-101010703D01*
X115633500Y-98174211D01*
X115685431Y-98122280D01*
X115843000Y-97741874D01*
X115843000Y-97330126D01*
X115685431Y-96949720D01*
X115394280Y-96658569D01*
X115013874Y-96501000D01*
X114602126Y-96501000D01*
X114221720Y-96658569D01*
X114173000Y-96707289D01*
X114124280Y-96658569D01*
X113743874Y-96501000D01*
X113332126Y-96501000D01*
X112951720Y-96658569D01*
X112660569Y-96949720D01*
X112503000Y-97330126D01*
X112503000Y-97741874D01*
X112660569Y-98122280D01*
X112712500Y-98174211D01*
X112712501Y-99988067D01*
X112688068Y-100012500D01*
X97809000Y-100012500D01*
X97809000Y-99616126D01*
X97651431Y-99235720D01*
X97360280Y-98944569D01*
X96979874Y-98787000D01*
X96568126Y-98787000D01*
X96539000Y-98799064D01*
X96539000Y-98600126D01*
X96381431Y-98219720D01*
X96090280Y-97928569D01*
X95709874Y-97771000D01*
X95298126Y-97771000D01*
X94917720Y-97928569D01*
X94865789Y-97980500D01*
X85679297Y-97980500D01*
X85597999Y-97964329D01*
X85516701Y-97980500D01*
X85516697Y-97980500D01*
X85275906Y-98028396D01*
X85002848Y-98210848D01*
X84956793Y-98279775D01*
X84563774Y-98672793D01*
X84494849Y-98718848D01*
X84455001Y-98778485D01*
X84415152Y-98718848D01*
X84346225Y-98672793D01*
X83953209Y-98279776D01*
X83907152Y-98210848D01*
X83634094Y-98028396D01*
X83393303Y-97980500D01*
X83393301Y-97980500D01*
X83312000Y-97964328D01*
X83230699Y-97980500D01*
X80394211Y-97980500D01*
X80342280Y-97928569D01*
X79961874Y-97771000D01*
X79550126Y-97771000D01*
X79169720Y-97928569D01*
X78878569Y-98219720D01*
X78721000Y-98600126D01*
X78721000Y-98799064D01*
X78691874Y-98787000D01*
X78280126Y-98787000D01*
X77899720Y-98944569D01*
X77608569Y-99235720D01*
X77451000Y-99616126D01*
X77451000Y-100027874D01*
X77608569Y-100408280D01*
X77899720Y-100699431D01*
X78280126Y-100857000D01*
X78691874Y-100857000D01*
X79072280Y-100699431D01*
X79124211Y-100647500D01*
X80430068Y-100647500D01*
X80454500Y-100671933D01*
X80454501Y-130139924D01*
X80326891Y-130225191D01*
X80186543Y-130435235D01*
X80137260Y-130683000D01*
X80137260Y-132461000D01*
X80186543Y-132708765D01*
X80326891Y-132918809D01*
X80536935Y-133059157D01*
X80784700Y-133108440D01*
X81775300Y-133108440D01*
X82023065Y-133059157D01*
X82233109Y-132918809D01*
X82373457Y-132708765D01*
X82422740Y-132461000D01*
X82422740Y-130683000D01*
X82373457Y-130435235D01*
X82233109Y-130225191D01*
X82105500Y-130139925D01*
X82105500Y-100411297D01*
X82121671Y-100329999D01*
X82105500Y-100248701D01*
X82105500Y-100248697D01*
X82057604Y-100007906D01*
X81875152Y-99734848D01*
X81806226Y-99688793D01*
X81748933Y-99631500D01*
X82970068Y-99631500D01*
X82994501Y-99655934D01*
X82994500Y-130139925D01*
X82866891Y-130225191D01*
X82726543Y-130435235D01*
X82677260Y-130683000D01*
X82677260Y-132461000D01*
X82726543Y-132708765D01*
X82866891Y-132918809D01*
X83076935Y-133059157D01*
X83324700Y-133108440D01*
X84264500Y-133108440D01*
X84264500Y-133262067D01*
X84240068Y-133286500D01*
X78364101Y-133286500D01*
X78282799Y-133270328D01*
X78201498Y-133286500D01*
X78201497Y-133286500D01*
X77960706Y-133334396D01*
X77687648Y-133516848D01*
X77641593Y-133585774D01*
X75673775Y-135553593D01*
X75604849Y-135599648D01*
X75558794Y-135668574D01*
X75422397Y-135872706D01*
X75393030Y-136020343D01*
X75246891Y-136117991D01*
X75106543Y-136328035D01*
X75057260Y-136575800D01*
X75057260Y-138353800D01*
X75106543Y-138601565D01*
X75246891Y-138811609D01*
X75456935Y-138951957D01*
X75704700Y-139001240D01*
X76695300Y-139001240D01*
X76943065Y-138951957D01*
X77153109Y-138811609D01*
X77293457Y-138601565D01*
X77342740Y-138353800D01*
X77342740Y-136575800D01*
X77293457Y-136328035D01*
X77269721Y-136292511D01*
X78624733Y-134937500D01*
X78858319Y-134937500D01*
X78703648Y-135040848D01*
X78657593Y-135109774D01*
X78213774Y-135553593D01*
X78144849Y-135599648D01*
X78098794Y-135668574D01*
X77962397Y-135872706D01*
X77933030Y-136020343D01*
X77786891Y-136117991D01*
X77646543Y-136328035D01*
X77597260Y-136575800D01*
X77597260Y-138353800D01*
X77646543Y-138601565D01*
X77786891Y-138811609D01*
X77996935Y-138951957D01*
X78244700Y-139001240D01*
X79235300Y-139001240D01*
X79483065Y-138951957D01*
X79693109Y-138811609D01*
X79833457Y-138601565D01*
X79882740Y-138353800D01*
X79882740Y-136575800D01*
X79860005Y-136461500D01*
X80159995Y-136461500D01*
X80137260Y-136575800D01*
X80137260Y-138353800D01*
X80186543Y-138601565D01*
X80326891Y-138811609D01*
X80454500Y-138896875D01*
X80454500Y-138965237D01*
X80185720Y-139076569D01*
X79894569Y-139367720D01*
X79737000Y-139748126D01*
X79737000Y-140159874D01*
X79894569Y-140540280D01*
X80185720Y-140831431D01*
X80566126Y-140989000D01*
X80977874Y-140989000D01*
X81358280Y-140831431D01*
X81649431Y-140540280D01*
X81807000Y-140159874D01*
X81807000Y-140086690D01*
X81875152Y-140041152D01*
X82057604Y-139768094D01*
X82105500Y-139527303D01*
X82105500Y-139527299D01*
X82121671Y-139446001D01*
X82105500Y-139364703D01*
X82105500Y-138896875D01*
X82233109Y-138811609D01*
X82373457Y-138601565D01*
X82422740Y-138353800D01*
X82422740Y-136575800D01*
X82400005Y-136461500D01*
X82699995Y-136461500D01*
X82677260Y-136575800D01*
X82677260Y-138353800D01*
X82726543Y-138601565D01*
X82866891Y-138811609D01*
X82994501Y-138896876D01*
X82994501Y-139727237D01*
X82725720Y-139838569D01*
X82434569Y-140129720D01*
X82277000Y-140510126D01*
X82277000Y-140921874D01*
X82434569Y-141302280D01*
X82610289Y-141478000D01*
X74675066Y-141478000D01*
X74695000Y-141429874D01*
X74695000Y-141018126D01*
X74537431Y-140637720D01*
X74485500Y-140585789D01*
X74485500Y-138896875D01*
X74613109Y-138811609D01*
X74753457Y-138601565D01*
X74802740Y-138353800D01*
X74802740Y-136575800D01*
X74753457Y-136328035D01*
X74613109Y-136117991D01*
X74403065Y-135977643D01*
X74155300Y-135928360D01*
X73164700Y-135928360D01*
X72916935Y-135977643D01*
X72706891Y-136117991D01*
X72566543Y-136328035D01*
X72517260Y-136575800D01*
X72517260Y-138353800D01*
X72566543Y-138601565D01*
X72706891Y-138811609D01*
X72834500Y-138896876D01*
X72834501Y-140585788D01*
X72782569Y-140637720D01*
X72625000Y-141018126D01*
X72625000Y-141429874D01*
X72644934Y-141478000D01*
X72136000Y-141478000D01*
X72136000Y-138717487D01*
X72213457Y-138601565D01*
X72262740Y-138353800D01*
X72262740Y-136575800D01*
X72213457Y-136328035D01*
X72073109Y-136117991D01*
X71863065Y-135977643D01*
X71615300Y-135928360D01*
X70624700Y-135928360D01*
X70560000Y-135941229D01*
X70560000Y-133095571D01*
X70624700Y-133108440D01*
X71615300Y-133108440D01*
X71863065Y-133059157D01*
X72073109Y-132918809D01*
X72213457Y-132708765D01*
X72262740Y-132461000D01*
X72262740Y-130683000D01*
X75057260Y-130683000D01*
X75057260Y-132461000D01*
X75106543Y-132708765D01*
X75246891Y-132918809D01*
X75456935Y-133059157D01*
X75704700Y-133108440D01*
X76695300Y-133108440D01*
X76943065Y-133059157D01*
X77153109Y-132918809D01*
X77293457Y-132708765D01*
X77342740Y-132461000D01*
X77342740Y-130683000D01*
X77597260Y-130683000D01*
X77597260Y-132461000D01*
X77646543Y-132708765D01*
X77786891Y-132918809D01*
X77996935Y-133059157D01*
X78244700Y-133108440D01*
X79235300Y-133108440D01*
X79483065Y-133059157D01*
X79693109Y-132918809D01*
X79833457Y-132708765D01*
X79882740Y-132461000D01*
X79882740Y-130683000D01*
X79833457Y-130435235D01*
X79693109Y-130225191D01*
X79565500Y-130139925D01*
X79565500Y-129670211D01*
X79617431Y-129618280D01*
X79775000Y-129237874D01*
X79775000Y-128826126D01*
X79617431Y-128445720D01*
X79326280Y-128154569D01*
X78945874Y-127997000D01*
X78534126Y-127997000D01*
X78153720Y-128154569D01*
X77862569Y-128445720D01*
X77705000Y-128826126D01*
X77705000Y-129237874D01*
X77862569Y-129618280D01*
X77914501Y-129670212D01*
X77914501Y-130139924D01*
X77786891Y-130225191D01*
X77646543Y-130435235D01*
X77597260Y-130683000D01*
X77342740Y-130683000D01*
X77293457Y-130435235D01*
X77153109Y-130225191D01*
X76943065Y-130084843D01*
X76695300Y-130035560D01*
X75704700Y-130035560D01*
X75456935Y-130084843D01*
X75246891Y-130225191D01*
X75106543Y-130435235D01*
X75057260Y-130683000D01*
X72262740Y-130683000D01*
X72213457Y-130435235D01*
X72073109Y-130225191D01*
X71863065Y-130084843D01*
X71615300Y-130035560D01*
X70624700Y-130035560D01*
X70560000Y-130048429D01*
X70560000Y-95808371D01*
X70624700Y-95821240D01*
X71615300Y-95821240D01*
X71863065Y-95771957D01*
X72073109Y-95631609D01*
X72213457Y-95421565D01*
X72262740Y-95173800D01*
X72262740Y-93395800D01*
X72517260Y-93395800D01*
X72517260Y-95173800D01*
X72566543Y-95421565D01*
X72706891Y-95631609D01*
X72916935Y-95771957D01*
X73164700Y-95821240D01*
X74155300Y-95821240D01*
X74403065Y-95771957D01*
X74613109Y-95631609D01*
X74753457Y-95421565D01*
X74802740Y-95173800D01*
X74802740Y-93395800D01*
X75057260Y-93395800D01*
X75057260Y-95173800D01*
X75106543Y-95421565D01*
X75246891Y-95631609D01*
X75456935Y-95771957D01*
X75704700Y-95821240D01*
X76695300Y-95821240D01*
X76943065Y-95771957D01*
X77153109Y-95631609D01*
X77293457Y-95421565D01*
X77342740Y-95173800D01*
X77342740Y-93395800D01*
X77597260Y-93395800D01*
X77597260Y-95173800D01*
X77646543Y-95421565D01*
X77786891Y-95631609D01*
X77996935Y-95771957D01*
X78244700Y-95821240D01*
X79235300Y-95821240D01*
X79483065Y-95771957D01*
X79693109Y-95631609D01*
X79833457Y-95421565D01*
X79882740Y-95173800D01*
X79882740Y-93395800D01*
X80137260Y-93395800D01*
X80137260Y-95173800D01*
X80186543Y-95421565D01*
X80326891Y-95631609D01*
X80536935Y-95771957D01*
X80784700Y-95821240D01*
X81775300Y-95821240D01*
X82023065Y-95771957D01*
X82233109Y-95631609D01*
X82373457Y-95421565D01*
X82422740Y-95173800D01*
X82422740Y-93395800D01*
X82677260Y-93395800D01*
X82677260Y-95173800D01*
X82726543Y-95421565D01*
X82866891Y-95631609D01*
X83076935Y-95771957D01*
X83324700Y-95821240D01*
X84315300Y-95821240D01*
X84563065Y-95771957D01*
X84773109Y-95631609D01*
X84913457Y-95421565D01*
X84962740Y-95173800D01*
X84962740Y-93395800D01*
X85217260Y-93395800D01*
X85217260Y-95173800D01*
X85266543Y-95421565D01*
X85406891Y-95631609D01*
X85616935Y-95771957D01*
X85864700Y-95821240D01*
X86855300Y-95821240D01*
X87103065Y-95771957D01*
X87313109Y-95631609D01*
X87453457Y-95421565D01*
X87502740Y-95173800D01*
X87502740Y-93395800D01*
X87757260Y-93395800D01*
X87757260Y-95173800D01*
X87806543Y-95421565D01*
X87946891Y-95631609D01*
X88156935Y-95771957D01*
X88404700Y-95821240D01*
X89395300Y-95821240D01*
X89643065Y-95771957D01*
X89853109Y-95631609D01*
X89993457Y-95421565D01*
X90042740Y-95173800D01*
X90042740Y-93395800D01*
X90297260Y-93395800D01*
X90297260Y-95173800D01*
X90346543Y-95421565D01*
X90486891Y-95631609D01*
X90696935Y-95771957D01*
X90944700Y-95821240D01*
X91935300Y-95821240D01*
X92183065Y-95771957D01*
X92393109Y-95631609D01*
X92533457Y-95421565D01*
X92582740Y-95173800D01*
X92582740Y-93395800D01*
X92837260Y-93395800D01*
X92837260Y-95173800D01*
X92886543Y-95421565D01*
X93026891Y-95631609D01*
X93236935Y-95771957D01*
X93484700Y-95821240D01*
X94475300Y-95821240D01*
X94723065Y-95771957D01*
X94933109Y-95631609D01*
X95073457Y-95421565D01*
X95122740Y-95173800D01*
X95122740Y-93395800D01*
X95073457Y-93148035D01*
X94933109Y-92937991D01*
X94723065Y-92797643D01*
X94475300Y-92748360D01*
X93484700Y-92748360D01*
X93236935Y-92797643D01*
X93026891Y-92937991D01*
X92886543Y-93148035D01*
X92837260Y-93395800D01*
X92582740Y-93395800D01*
X92533457Y-93148035D01*
X92393109Y-92937991D01*
X92183065Y-92797643D01*
X91935300Y-92748360D01*
X90944700Y-92748360D01*
X90696935Y-92797643D01*
X90486891Y-92937991D01*
X90346543Y-93148035D01*
X90297260Y-93395800D01*
X90042740Y-93395800D01*
X89993457Y-93148035D01*
X89853109Y-92937991D01*
X89643065Y-92797643D01*
X89395300Y-92748360D01*
X88404700Y-92748360D01*
X88156935Y-92797643D01*
X87946891Y-92937991D01*
X87806543Y-93148035D01*
X87757260Y-93395800D01*
X87502740Y-93395800D01*
X87453457Y-93148035D01*
X87313109Y-92937991D01*
X87103065Y-92797643D01*
X86855300Y-92748360D01*
X85864700Y-92748360D01*
X85616935Y-92797643D01*
X85406891Y-92937991D01*
X85266543Y-93148035D01*
X85217260Y-93395800D01*
X84962740Y-93395800D01*
X84913457Y-93148035D01*
X84773109Y-92937991D01*
X84563065Y-92797643D01*
X84315300Y-92748360D01*
X83324700Y-92748360D01*
X83076935Y-92797643D01*
X82866891Y-92937991D01*
X82726543Y-93148035D01*
X82677260Y-93395800D01*
X82422740Y-93395800D01*
X82373457Y-93148035D01*
X82233109Y-92937991D01*
X82023065Y-92797643D01*
X81775300Y-92748360D01*
X80784700Y-92748360D01*
X80536935Y-92797643D01*
X80326891Y-92937991D01*
X80186543Y-93148035D01*
X80137260Y-93395800D01*
X79882740Y-93395800D01*
X79833457Y-93148035D01*
X79693109Y-92937991D01*
X79483065Y-92797643D01*
X79235300Y-92748360D01*
X78244700Y-92748360D01*
X77996935Y-92797643D01*
X77786891Y-92937991D01*
X77646543Y-93148035D01*
X77597260Y-93395800D01*
X77342740Y-93395800D01*
X77293457Y-93148035D01*
X77153109Y-92937991D01*
X76943065Y-92797643D01*
X76695300Y-92748360D01*
X75704700Y-92748360D01*
X75456935Y-92797643D01*
X75246891Y-92937991D01*
X75106543Y-93148035D01*
X75057260Y-93395800D01*
X74802740Y-93395800D01*
X74753457Y-93148035D01*
X74613109Y-92937991D01*
X74403065Y-92797643D01*
X74155300Y-92748360D01*
X73164700Y-92748360D01*
X72916935Y-92797643D01*
X72706891Y-92937991D01*
X72566543Y-93148035D01*
X72517260Y-93395800D01*
X72262740Y-93395800D01*
X72213457Y-93148035D01*
X72073109Y-92937991D01*
X71863065Y-92797643D01*
X71615300Y-92748360D01*
X70624700Y-92748360D01*
X70560000Y-92761229D01*
X70560000Y-81764119D01*
X72263000Y-81764119D01*
X72263000Y-82319881D01*
X72475680Y-82833337D01*
X72868663Y-83226320D01*
X73382119Y-83439000D01*
X73937881Y-83439000D01*
X74451337Y-83226320D01*
X74844320Y-82833337D01*
X74930000Y-82626487D01*
X75015680Y-82833337D01*
X75408663Y-83226320D01*
X75615513Y-83312000D01*
X75408663Y-83397680D01*
X75049843Y-83756500D01*
X74249297Y-83756500D01*
X74167999Y-83740329D01*
X74086701Y-83756500D01*
X74086697Y-83756500D01*
X73845906Y-83804396D01*
X73572848Y-83986848D01*
X73526793Y-84055775D01*
X73133776Y-84448791D01*
X73064848Y-84494848D01*
X72882396Y-84767907D01*
X72855307Y-84904094D01*
X72818328Y-85090000D01*
X72834500Y-85171301D01*
X72834500Y-85213789D01*
X72782569Y-85265720D01*
X72625000Y-85646126D01*
X72625000Y-86057874D01*
X72782569Y-86438280D01*
X73073720Y-86729431D01*
X73378223Y-86855560D01*
X73164700Y-86855560D01*
X72916935Y-86904843D01*
X72706891Y-87045191D01*
X72566543Y-87255235D01*
X72517260Y-87503000D01*
X72517260Y-89281000D01*
X72566543Y-89528765D01*
X72706891Y-89738809D01*
X72916935Y-89879157D01*
X73164700Y-89928440D01*
X74155300Y-89928440D01*
X74403065Y-89879157D01*
X74613109Y-89738809D01*
X74753457Y-89528765D01*
X74802740Y-89281000D01*
X74802740Y-87503000D01*
X75057260Y-87503000D01*
X75057260Y-89281000D01*
X75106543Y-89528765D01*
X75246891Y-89738809D01*
X75456935Y-89879157D01*
X75704700Y-89928440D01*
X76695300Y-89928440D01*
X76943065Y-89879157D01*
X77153109Y-89738809D01*
X77293457Y-89528765D01*
X77342740Y-89281000D01*
X77342740Y-87503000D01*
X77597260Y-87503000D01*
X77597260Y-89281000D01*
X77646543Y-89528765D01*
X77786891Y-89738809D01*
X77996935Y-89879157D01*
X78244700Y-89928440D01*
X79235300Y-89928440D01*
X79483065Y-89879157D01*
X79693109Y-89738809D01*
X79833457Y-89528765D01*
X79882740Y-89281000D01*
X79882740Y-87503000D01*
X80137260Y-87503000D01*
X80137260Y-89281000D01*
X80186543Y-89528765D01*
X80326891Y-89738809D01*
X80536935Y-89879157D01*
X80784700Y-89928440D01*
X81775300Y-89928440D01*
X82023065Y-89879157D01*
X82233109Y-89738809D01*
X82373457Y-89528765D01*
X82422740Y-89281000D01*
X82422740Y-87503000D01*
X82373457Y-87255235D01*
X82233109Y-87045191D01*
X82023065Y-86904843D01*
X81775300Y-86855560D01*
X80784700Y-86855560D01*
X80536935Y-86904843D01*
X80326891Y-87045191D01*
X80186543Y-87255235D01*
X80137260Y-87503000D01*
X79882740Y-87503000D01*
X79833457Y-87255235D01*
X79693109Y-87045191D01*
X79483065Y-86904843D01*
X79235300Y-86855560D01*
X78244700Y-86855560D01*
X77996935Y-86904843D01*
X77786891Y-87045191D01*
X77646543Y-87255235D01*
X77597260Y-87503000D01*
X77342740Y-87503000D01*
X77293457Y-87255235D01*
X77153109Y-87045191D01*
X76943065Y-86904843D01*
X76695300Y-86855560D01*
X75704700Y-86855560D01*
X75456935Y-86904843D01*
X75246891Y-87045191D01*
X75106543Y-87255235D01*
X75057260Y-87503000D01*
X74802740Y-87503000D01*
X74753457Y-87255235D01*
X74613109Y-87045191D01*
X74403065Y-86904843D01*
X74155300Y-86855560D01*
X73941777Y-86855560D01*
X74246280Y-86729431D01*
X74537431Y-86438280D01*
X74695000Y-86057874D01*
X74695000Y-85646126D01*
X74596158Y-85407500D01*
X75049843Y-85407500D01*
X75408663Y-85766320D01*
X75922119Y-85979000D01*
X76477881Y-85979000D01*
X76991337Y-85766320D01*
X77384320Y-85373337D01*
X77597000Y-84859881D01*
X77597000Y-84304119D01*
X77384320Y-83790663D01*
X76991337Y-83397680D01*
X76784487Y-83312000D01*
X76991337Y-83226320D01*
X77384320Y-82833337D01*
X77597000Y-82319881D01*
X77597000Y-81764119D01*
X79883000Y-81764119D01*
X79883000Y-82319881D01*
X80095680Y-82833337D01*
X80488663Y-83226320D01*
X80695513Y-83312000D01*
X80488663Y-83397680D01*
X80095680Y-83790663D01*
X79883000Y-84304119D01*
X79883000Y-84859881D01*
X80095680Y-85373337D01*
X80488663Y-85766320D01*
X81002119Y-85979000D01*
X81557881Y-85979000D01*
X82071337Y-85766320D01*
X82430157Y-85407500D01*
X82629842Y-85407500D01*
X82531000Y-85646126D01*
X82531000Y-86057874D01*
X82688569Y-86438280D01*
X82979720Y-86729431D01*
X83297355Y-86860999D01*
X83076935Y-86904843D01*
X82866891Y-87045191D01*
X82726543Y-87255235D01*
X82677260Y-87503000D01*
X82677260Y-89281000D01*
X82726543Y-89528765D01*
X82866891Y-89738809D01*
X83076935Y-89879157D01*
X83324700Y-89928440D01*
X84315300Y-89928440D01*
X84563065Y-89879157D01*
X84773109Y-89738809D01*
X84913457Y-89528765D01*
X84962740Y-89281000D01*
X84962740Y-87503000D01*
X85217260Y-87503000D01*
X85217260Y-89281000D01*
X85266543Y-89528765D01*
X85406891Y-89738809D01*
X85616935Y-89879157D01*
X85864700Y-89928440D01*
X86855300Y-89928440D01*
X87103065Y-89879157D01*
X87313109Y-89738809D01*
X87453457Y-89528765D01*
X87502740Y-89281000D01*
X87502740Y-87503000D01*
X87757260Y-87503000D01*
X87757260Y-89281000D01*
X87806543Y-89528765D01*
X87946891Y-89738809D01*
X88156935Y-89879157D01*
X88404700Y-89928440D01*
X89395300Y-89928440D01*
X89643065Y-89879157D01*
X89853109Y-89738809D01*
X89993457Y-89528765D01*
X90042740Y-89281000D01*
X90042740Y-87503000D01*
X89993457Y-87255235D01*
X89853109Y-87045191D01*
X89643065Y-86904843D01*
X89395300Y-86855560D01*
X88404700Y-86855560D01*
X88156935Y-86904843D01*
X87946891Y-87045191D01*
X87806543Y-87255235D01*
X87757260Y-87503000D01*
X87502740Y-87503000D01*
X87453457Y-87255235D01*
X87313109Y-87045191D01*
X87103065Y-86904843D01*
X86855300Y-86855560D01*
X85864700Y-86855560D01*
X85616935Y-86904843D01*
X85406891Y-87045191D01*
X85266543Y-87255235D01*
X85217260Y-87503000D01*
X84962740Y-87503000D01*
X84913457Y-87255235D01*
X84773109Y-87045191D01*
X84563065Y-86904843D01*
X84315300Y-86855560D01*
X83847777Y-86855560D01*
X84152280Y-86729431D01*
X84443431Y-86438280D01*
X84601000Y-86057874D01*
X84601000Y-85646126D01*
X84443431Y-85265720D01*
X84391500Y-85213789D01*
X84391500Y-85171297D01*
X84407671Y-85089999D01*
X84391500Y-85008701D01*
X84391500Y-85008697D01*
X84343604Y-84767906D01*
X84161152Y-84494848D01*
X84092226Y-84448793D01*
X83699209Y-84055776D01*
X83653152Y-83986848D01*
X83380094Y-83804396D01*
X83139303Y-83756500D01*
X83139301Y-83756500D01*
X83058000Y-83740328D01*
X82976699Y-83756500D01*
X82430157Y-83756500D01*
X82071337Y-83397680D01*
X81864487Y-83312000D01*
X82071337Y-83226320D01*
X82464320Y-82833337D01*
X82550000Y-82626487D01*
X82635680Y-82833337D01*
X83028663Y-83226320D01*
X83542119Y-83439000D01*
X84097881Y-83439000D01*
X84611337Y-83226320D01*
X85004320Y-82833337D01*
X85217000Y-82319881D01*
X85217000Y-81764119D01*
X90043000Y-81764119D01*
X90043000Y-82319881D01*
X90255680Y-82833337D01*
X90648663Y-83226320D01*
X91162119Y-83439000D01*
X91717881Y-83439000D01*
X92231337Y-83226320D01*
X92624320Y-82833337D01*
X92710000Y-82626487D01*
X92795680Y-82833337D01*
X93188663Y-83226320D01*
X93395513Y-83312000D01*
X93188663Y-83397680D01*
X92829843Y-83756500D01*
X92029297Y-83756500D01*
X91947999Y-83740329D01*
X91866701Y-83756500D01*
X91866697Y-83756500D01*
X91625906Y-83804396D01*
X91352848Y-83986848D01*
X91306793Y-84055775D01*
X90913776Y-84448791D01*
X90844848Y-84494848D01*
X90662396Y-84767907D01*
X90635307Y-84904094D01*
X90598328Y-85090000D01*
X90614500Y-85171301D01*
X90614500Y-85213789D01*
X90562569Y-85265720D01*
X90405000Y-85646126D01*
X90405000Y-86057874D01*
X90562569Y-86438280D01*
X90853720Y-86729431D01*
X91158223Y-86855560D01*
X90944700Y-86855560D01*
X90696935Y-86904843D01*
X90486891Y-87045191D01*
X90346543Y-87255235D01*
X90297260Y-87503000D01*
X90297260Y-89281000D01*
X90346543Y-89528765D01*
X90486891Y-89738809D01*
X90696935Y-89879157D01*
X90944700Y-89928440D01*
X91935300Y-89928440D01*
X92183065Y-89879157D01*
X92393109Y-89738809D01*
X92533457Y-89528765D01*
X92582740Y-89281000D01*
X92582740Y-87503000D01*
X92837260Y-87503000D01*
X92837260Y-89281000D01*
X92886543Y-89528765D01*
X93026891Y-89738809D01*
X93236935Y-89879157D01*
X93484700Y-89928440D01*
X94475300Y-89928440D01*
X94723065Y-89879157D01*
X94933109Y-89738809D01*
X95073457Y-89528765D01*
X95122740Y-89281000D01*
X95122740Y-87503000D01*
X95073457Y-87255235D01*
X94933109Y-87045191D01*
X94723065Y-86904843D01*
X94475300Y-86855560D01*
X93484700Y-86855560D01*
X93236935Y-86904843D01*
X93026891Y-87045191D01*
X92886543Y-87255235D01*
X92837260Y-87503000D01*
X92582740Y-87503000D01*
X92533457Y-87255235D01*
X92393109Y-87045191D01*
X92183065Y-86904843D01*
X91935300Y-86855560D01*
X91721777Y-86855560D01*
X92026280Y-86729431D01*
X92317431Y-86438280D01*
X92475000Y-86057874D01*
X92475000Y-85646126D01*
X92376158Y-85407500D01*
X92829843Y-85407500D01*
X93188663Y-85766320D01*
X93702119Y-85979000D01*
X94257881Y-85979000D01*
X94771337Y-85766320D01*
X95164320Y-85373337D01*
X95377000Y-84859881D01*
X95377000Y-84304119D01*
X95164320Y-83790663D01*
X94771337Y-83397680D01*
X94564487Y-83312000D01*
X94771337Y-83226320D01*
X95164320Y-82833337D01*
X95377000Y-82319881D01*
X95377000Y-81764119D01*
X97663000Y-81764119D01*
X97663000Y-82319881D01*
X97875680Y-82833337D01*
X98268663Y-83226320D01*
X98475513Y-83312000D01*
X98268663Y-83397680D01*
X97875680Y-83790663D01*
X97663000Y-84304119D01*
X97663000Y-84859881D01*
X97875680Y-85373337D01*
X98268663Y-85766320D01*
X98782119Y-85979000D01*
X99337881Y-85979000D01*
X99851337Y-85766320D01*
X100210157Y-85407500D01*
X100409842Y-85407500D01*
X100311000Y-85646126D01*
X100311000Y-86057874D01*
X100468569Y-86438280D01*
X100759720Y-86729431D01*
X101140126Y-86887000D01*
X101551874Y-86887000D01*
X101932280Y-86729431D01*
X102223431Y-86438280D01*
X102381000Y-86057874D01*
X102381000Y-85646126D01*
X102223431Y-85265720D01*
X102171500Y-85213789D01*
X102171500Y-85171297D01*
X102187671Y-85089999D01*
X102171500Y-85008701D01*
X102171500Y-85008697D01*
X102123604Y-84767906D01*
X101941152Y-84494848D01*
X101872226Y-84448793D01*
X101479209Y-84055776D01*
X101433152Y-83986848D01*
X101160094Y-83804396D01*
X100919303Y-83756500D01*
X100919301Y-83756500D01*
X100838000Y-83740328D01*
X100756699Y-83756500D01*
X100210157Y-83756500D01*
X99851337Y-83397680D01*
X99644487Y-83312000D01*
X99851337Y-83226320D01*
X100244320Y-82833337D01*
X100330000Y-82626487D01*
X100415680Y-82833337D01*
X100808663Y-83226320D01*
X101322119Y-83439000D01*
X101877881Y-83439000D01*
X102391337Y-83226320D01*
X102784320Y-82833337D01*
X102997000Y-82319881D01*
X102997000Y-81764119D01*
X107823000Y-81764119D01*
X107823000Y-82319881D01*
X108035680Y-82833337D01*
X108428663Y-83226320D01*
X108942119Y-83439000D01*
X109497881Y-83439000D01*
X110011337Y-83226320D01*
X110404320Y-82833337D01*
X110490000Y-82626487D01*
X110575680Y-82833337D01*
X110968663Y-83226320D01*
X111175513Y-83312000D01*
X110968663Y-83397680D01*
X110609843Y-83756500D01*
X109809297Y-83756500D01*
X109727999Y-83740329D01*
X109646701Y-83756500D01*
X109646697Y-83756500D01*
X109405906Y-83804396D01*
X109132848Y-83986848D01*
X109086793Y-84055775D01*
X108693776Y-84448791D01*
X108624848Y-84494848D01*
X108442396Y-84767907D01*
X108415307Y-84904094D01*
X108378328Y-85090000D01*
X108394500Y-85171301D01*
X108394500Y-85213789D01*
X108342569Y-85265720D01*
X108185000Y-85646126D01*
X108185000Y-86057874D01*
X108342569Y-86438280D01*
X108633720Y-86729431D01*
X109014126Y-86887000D01*
X109425874Y-86887000D01*
X109806280Y-86729431D01*
X110097431Y-86438280D01*
X110255000Y-86057874D01*
X110255000Y-85646126D01*
X110156158Y-85407500D01*
X110609843Y-85407500D01*
X110968663Y-85766320D01*
X111482119Y-85979000D01*
X112037881Y-85979000D01*
X112551337Y-85766320D01*
X112944320Y-85373337D01*
X113157000Y-84859881D01*
X113157000Y-84304119D01*
X112944320Y-83790663D01*
X112551337Y-83397680D01*
X112344487Y-83312000D01*
X112551337Y-83226320D01*
X112944320Y-82833337D01*
X113157000Y-82319881D01*
X113157000Y-81764119D01*
X115443000Y-81764119D01*
X115443000Y-82319881D01*
X115655680Y-82833337D01*
X116048663Y-83226320D01*
X116255513Y-83312000D01*
X116048663Y-83397680D01*
X115655680Y-83790663D01*
X115443000Y-84304119D01*
X115443000Y-84859881D01*
X115655680Y-85373337D01*
X116048663Y-85766320D01*
X116562119Y-85979000D01*
X117117881Y-85979000D01*
X117631337Y-85766320D01*
X117990157Y-85407500D01*
X118189842Y-85407500D01*
X118091000Y-85646126D01*
X118091000Y-86057874D01*
X118248569Y-86438280D01*
X118539720Y-86729431D01*
X118920126Y-86887000D01*
X119331874Y-86887000D01*
X119712280Y-86729431D01*
X120003431Y-86438280D01*
X120161000Y-86057874D01*
X120161000Y-85646126D01*
X120003431Y-85265720D01*
X119951500Y-85213789D01*
X119951500Y-85171297D01*
X119967671Y-85089999D01*
X119951500Y-85008701D01*
X119951500Y-85008697D01*
X119903604Y-84767906D01*
X119721152Y-84494848D01*
X119652226Y-84448793D01*
X119259209Y-84055776D01*
X119213152Y-83986848D01*
X118940094Y-83804396D01*
X118699303Y-83756500D01*
X118699301Y-83756500D01*
X118618000Y-83740328D01*
X118536699Y-83756500D01*
X117990157Y-83756500D01*
X117631337Y-83397680D01*
X117424487Y-83312000D01*
X117631337Y-83226320D01*
X118024320Y-82833337D01*
X118110000Y-82626487D01*
X118195680Y-82833337D01*
X118588663Y-83226320D01*
X119102119Y-83439000D01*
X119657881Y-83439000D01*
X120171337Y-83226320D01*
X120564320Y-82833337D01*
X120777000Y-82319881D01*
X120777000Y-81764119D01*
X120564320Y-81250663D01*
X120171337Y-80857680D01*
X119657881Y-80645000D01*
X119102119Y-80645000D01*
X118588663Y-80857680D01*
X118195680Y-81250663D01*
X118110000Y-81457513D01*
X118024320Y-81250663D01*
X117631337Y-80857680D01*
X117117881Y-80645000D01*
X116562119Y-80645000D01*
X116048663Y-80857680D01*
X115655680Y-81250663D01*
X115443000Y-81764119D01*
X113157000Y-81764119D01*
X112944320Y-81250663D01*
X112551337Y-80857680D01*
X112037881Y-80645000D01*
X111482119Y-80645000D01*
X110968663Y-80857680D01*
X110575680Y-81250663D01*
X110490000Y-81457513D01*
X110404320Y-81250663D01*
X110011337Y-80857680D01*
X109497881Y-80645000D01*
X108942119Y-80645000D01*
X108428663Y-80857680D01*
X108035680Y-81250663D01*
X107823000Y-81764119D01*
X102997000Y-81764119D01*
X102784320Y-81250663D01*
X102391337Y-80857680D01*
X101877881Y-80645000D01*
X101322119Y-80645000D01*
X100808663Y-80857680D01*
X100415680Y-81250663D01*
X100330000Y-81457513D01*
X100244320Y-81250663D01*
X99851337Y-80857680D01*
X99337881Y-80645000D01*
X98782119Y-80645000D01*
X98268663Y-80857680D01*
X97875680Y-81250663D01*
X97663000Y-81764119D01*
X95377000Y-81764119D01*
X95164320Y-81250663D01*
X94771337Y-80857680D01*
X94257881Y-80645000D01*
X93702119Y-80645000D01*
X93188663Y-80857680D01*
X92795680Y-81250663D01*
X92710000Y-81457513D01*
X92624320Y-81250663D01*
X92231337Y-80857680D01*
X91717881Y-80645000D01*
X91162119Y-80645000D01*
X90648663Y-80857680D01*
X90255680Y-81250663D01*
X90043000Y-81764119D01*
X85217000Y-81764119D01*
X85004320Y-81250663D01*
X84611337Y-80857680D01*
X84097881Y-80645000D01*
X83542119Y-80645000D01*
X83028663Y-80857680D01*
X82635680Y-81250663D01*
X82550000Y-81457513D01*
X82464320Y-81250663D01*
X82071337Y-80857680D01*
X81557881Y-80645000D01*
X81002119Y-80645000D01*
X80488663Y-80857680D01*
X80095680Y-81250663D01*
X79883000Y-81764119D01*
X77597000Y-81764119D01*
X77384320Y-81250663D01*
X76991337Y-80857680D01*
X76477881Y-80645000D01*
X75922119Y-80645000D01*
X75408663Y-80857680D01*
X75015680Y-81250663D01*
X74930000Y-81457513D01*
X74844320Y-81250663D01*
X74451337Y-80857680D01*
X73937881Y-80645000D01*
X73382119Y-80645000D01*
X72868663Y-80857680D01*
X72475680Y-81250663D01*
X72263000Y-81764119D01*
X70560000Y-81764119D01*
X70560000Y-74913544D01*
X71053167Y-75406711D01*
X71920567Y-75766000D01*
X72570000Y-75766000D01*
X72570000Y-76415433D01*
X72929289Y-77282833D01*
X73593167Y-77946711D01*
X74460567Y-78306000D01*
X75399433Y-78306000D01*
X76266833Y-77946711D01*
X76930711Y-77282833D01*
X77290000Y-76415433D01*
X77290000Y-75476567D01*
X80190000Y-75476567D01*
X80190000Y-76415433D01*
X80549289Y-77282833D01*
X81213167Y-77946711D01*
X82080567Y-78306000D01*
X83019433Y-78306000D01*
X83886833Y-77946711D01*
X84550711Y-77282833D01*
X84910000Y-76415433D01*
X84910000Y-75766000D01*
X85559433Y-75766000D01*
X86426833Y-75406711D01*
X87090711Y-74742833D01*
X87450000Y-73875433D01*
X87450000Y-72936567D01*
X87810000Y-72936567D01*
X87810000Y-73875433D01*
X88169289Y-74742833D01*
X88833167Y-75406711D01*
X89700567Y-75766000D01*
X90350000Y-75766000D01*
X90350000Y-76415433D01*
X90709289Y-77282833D01*
X91373167Y-77946711D01*
X92240567Y-78306000D01*
X93179433Y-78306000D01*
X94046833Y-77946711D01*
X94710711Y-77282833D01*
X95070000Y-76415433D01*
X95070000Y-75476567D01*
X97970000Y-75476567D01*
X97970000Y-76415433D01*
X98329289Y-77282833D01*
X98993167Y-77946711D01*
X99860567Y-78306000D01*
X100799433Y-78306000D01*
X101666833Y-77946711D01*
X102330711Y-77282833D01*
X102690000Y-76415433D01*
X102690000Y-75766000D01*
X103339433Y-75766000D01*
X104206833Y-75406711D01*
X104870711Y-74742833D01*
X105230000Y-73875433D01*
X105230000Y-72936567D01*
X105590000Y-72936567D01*
X105590000Y-73875433D01*
X105949289Y-74742833D01*
X106613167Y-75406711D01*
X107480567Y-75766000D01*
X108130000Y-75766000D01*
X108130000Y-76415433D01*
X108489289Y-77282833D01*
X109153167Y-77946711D01*
X110020567Y-78306000D01*
X110959433Y-78306000D01*
X111826833Y-77946711D01*
X112490711Y-77282833D01*
X112850000Y-76415433D01*
X112850000Y-75476567D01*
X115750000Y-75476567D01*
X115750000Y-76415433D01*
X116109289Y-77282833D01*
X116773167Y-77946711D01*
X117640567Y-78306000D01*
X118579433Y-78306000D01*
X119446833Y-77946711D01*
X120110711Y-77282833D01*
X120470000Y-76415433D01*
X120470000Y-75766000D01*
X121119433Y-75766000D01*
X121986833Y-75406711D01*
X122650711Y-74742833D01*
X123010000Y-73875433D01*
X123010000Y-72936567D01*
X122650711Y-72069167D01*
X121986833Y-71405289D01*
X121119433Y-71046000D01*
X120180567Y-71046000D01*
X119313167Y-71405289D01*
X118649289Y-72069167D01*
X118290000Y-72936567D01*
X118290000Y-73586000D01*
X117640567Y-73586000D01*
X116773167Y-73945289D01*
X116109289Y-74609167D01*
X115750000Y-75476567D01*
X112850000Y-75476567D01*
X112490711Y-74609167D01*
X111826833Y-73945289D01*
X110959433Y-73586000D01*
X110310000Y-73586000D01*
X110310000Y-72936567D01*
X109950711Y-72069167D01*
X109286833Y-71405289D01*
X108419433Y-71046000D01*
X107480567Y-71046000D01*
X106613167Y-71405289D01*
X105949289Y-72069167D01*
X105590000Y-72936567D01*
X105230000Y-72936567D01*
X104870711Y-72069167D01*
X104206833Y-71405289D01*
X103339433Y-71046000D01*
X102400567Y-71046000D01*
X101533167Y-71405289D01*
X100869289Y-72069167D01*
X100510000Y-72936567D01*
X100510000Y-73586000D01*
X99860567Y-73586000D01*
X98993167Y-73945289D01*
X98329289Y-74609167D01*
X97970000Y-75476567D01*
X95070000Y-75476567D01*
X94710711Y-74609167D01*
X94046833Y-73945289D01*
X93179433Y-73586000D01*
X92530000Y-73586000D01*
X92530000Y-72936567D01*
X92170711Y-72069167D01*
X91506833Y-71405289D01*
X90639433Y-71046000D01*
X89700567Y-71046000D01*
X88833167Y-71405289D01*
X88169289Y-72069167D01*
X87810000Y-72936567D01*
X87450000Y-72936567D01*
X87090711Y-72069167D01*
X86426833Y-71405289D01*
X85559433Y-71046000D01*
X84620567Y-71046000D01*
X83753167Y-71405289D01*
X83089289Y-72069167D01*
X82730000Y-72936567D01*
X82730000Y-73586000D01*
X82080567Y-73586000D01*
X81213167Y-73945289D01*
X80549289Y-74609167D01*
X80190000Y-75476567D01*
X77290000Y-75476567D01*
X76930711Y-74609167D01*
X76266833Y-73945289D01*
X75399433Y-73586000D01*
X74750000Y-73586000D01*
X74750000Y-72936567D01*
X74390711Y-72069167D01*
X73726833Y-71405289D01*
X72859433Y-71046000D01*
X71920567Y-71046000D01*
X71053167Y-71405289D01*
X70560000Y-71898456D01*
X70560000Y-70916581D01*
X70620090Y-70496991D01*
X70774381Y-70157648D01*
X71017712Y-69875248D01*
X71330523Y-69672494D01*
X71711184Y-69558652D01*
X71908350Y-69544000D01*
X128727419Y-69544000D01*
X129147009Y-69604090D01*
G04 #@! TD*
M02*
