G04 #@! TF.GenerationSoftware,KiCad,Pcbnew,(5.0.0)*
G04 #@! TF.CreationDate,2018-12-16T15:07:14-06:00*
G04 #@! TF.ProjectId,DriveBoard_Hardware,4472697665426F6172645F4861726477,rev?*
G04 #@! TF.SameCoordinates,Original*
G04 #@! TF.FileFunction,Paste,Bot*
G04 #@! TF.FilePolarity,Positive*
%FSLAX46Y46*%
G04 Gerber Fmt 4.6, Leading zero omitted, Abs format (unit mm)*
G04 Created by KiCad (PCBNEW (5.0.0)) date 12/16/18 15:07:14*
%MOMM*%
%LPD*%
G01*
G04 APERTURE LIST*
%ADD10R,0.990600X1.778000*%
%ADD11R,1.400000X1.600000*%
%ADD12C,0.100000*%
%ADD13C,0.950000*%
G04 APERTURE END LIST*
D10*
G04 #@! TO.C,U4*
X123698000Y-110134400D03*
X146558000Y-61061600D03*
X144018000Y-61061600D03*
X136398000Y-61061600D03*
X133858000Y-104241600D03*
X138938000Y-61061600D03*
X141478000Y-61061600D03*
X138938000Y-110134400D03*
X144018000Y-104241600D03*
X133858000Y-61061600D03*
X131318000Y-61061600D03*
X144018000Y-110134400D03*
X138938000Y-104241600D03*
X136398000Y-104241600D03*
X123698000Y-104241600D03*
X126238000Y-104241600D03*
X128778000Y-104241600D03*
X131318000Y-104241600D03*
X141478000Y-104241600D03*
X146558000Y-104241600D03*
X126238000Y-110134400D03*
X128778000Y-110134400D03*
X131318000Y-110134400D03*
X133858000Y-110134400D03*
X136398000Y-110134400D03*
X141478000Y-110134400D03*
X146558000Y-110134400D03*
X123698000Y-66954400D03*
X126238000Y-66954400D03*
X128778000Y-66954400D03*
X131318000Y-66954400D03*
X133858000Y-66954400D03*
X136398000Y-66954400D03*
X138938000Y-66954400D03*
X141478000Y-66954400D03*
X144018000Y-66954400D03*
X146558000Y-66954400D03*
X123698000Y-61061600D03*
X126238000Y-61061600D03*
X128778000Y-61061600D03*
G04 #@! TD*
D11*
G04 #@! TO.C,SW1*
X128754000Y-38945000D03*
X128754000Y-46145000D03*
X125754000Y-38945000D03*
X125754000Y-46145000D03*
G04 #@! TD*
G04 #@! TO.C,SW2*
X133882000Y-46145000D03*
X133882000Y-38945000D03*
X136882000Y-46145000D03*
X136882000Y-38945000D03*
G04 #@! TD*
G04 #@! TO.C,SW3*
X146026000Y-38945000D03*
X146026000Y-46145000D03*
X143026000Y-38945000D03*
X143026000Y-46145000D03*
G04 #@! TD*
G04 #@! TO.C,SW4*
X151154000Y-46145000D03*
X151154000Y-38945000D03*
X154154000Y-46145000D03*
X154154000Y-38945000D03*
G04 #@! TD*
G04 #@! TO.C,SW5*
X163298000Y-38945000D03*
X163298000Y-46145000D03*
X160298000Y-38945000D03*
X160298000Y-46145000D03*
G04 #@! TD*
G04 #@! TO.C,SW6*
X168426000Y-46145000D03*
X168426000Y-38945000D03*
X171426000Y-46145000D03*
X171426000Y-38945000D03*
G04 #@! TD*
D12*
G04 #@! TO.C,R8*
G36*
X131832779Y-45676144D02*
X131855834Y-45679563D01*
X131878443Y-45685227D01*
X131900387Y-45693079D01*
X131921457Y-45703044D01*
X131941448Y-45715026D01*
X131960168Y-45728910D01*
X131977438Y-45744562D01*
X131993090Y-45761832D01*
X132006974Y-45780552D01*
X132018956Y-45800543D01*
X132028921Y-45821613D01*
X132036773Y-45843557D01*
X132042437Y-45866166D01*
X132045856Y-45889221D01*
X132047000Y-45912500D01*
X132047000Y-46487500D01*
X132045856Y-46510779D01*
X132042437Y-46533834D01*
X132036773Y-46556443D01*
X132028921Y-46578387D01*
X132018956Y-46599457D01*
X132006974Y-46619448D01*
X131993090Y-46638168D01*
X131977438Y-46655438D01*
X131960168Y-46671090D01*
X131941448Y-46684974D01*
X131921457Y-46696956D01*
X131900387Y-46706921D01*
X131878443Y-46714773D01*
X131855834Y-46720437D01*
X131832779Y-46723856D01*
X131809500Y-46725000D01*
X131334500Y-46725000D01*
X131311221Y-46723856D01*
X131288166Y-46720437D01*
X131265557Y-46714773D01*
X131243613Y-46706921D01*
X131222543Y-46696956D01*
X131202552Y-46684974D01*
X131183832Y-46671090D01*
X131166562Y-46655438D01*
X131150910Y-46638168D01*
X131137026Y-46619448D01*
X131125044Y-46599457D01*
X131115079Y-46578387D01*
X131107227Y-46556443D01*
X131101563Y-46533834D01*
X131098144Y-46510779D01*
X131097000Y-46487500D01*
X131097000Y-45912500D01*
X131098144Y-45889221D01*
X131101563Y-45866166D01*
X131107227Y-45843557D01*
X131115079Y-45821613D01*
X131125044Y-45800543D01*
X131137026Y-45780552D01*
X131150910Y-45761832D01*
X131166562Y-45744562D01*
X131183832Y-45728910D01*
X131202552Y-45715026D01*
X131222543Y-45703044D01*
X131243613Y-45693079D01*
X131265557Y-45685227D01*
X131288166Y-45679563D01*
X131311221Y-45676144D01*
X131334500Y-45675000D01*
X131809500Y-45675000D01*
X131832779Y-45676144D01*
X131832779Y-45676144D01*
G37*
D13*
X131572000Y-46200000D03*
D12*
G36*
X131832779Y-43926144D02*
X131855834Y-43929563D01*
X131878443Y-43935227D01*
X131900387Y-43943079D01*
X131921457Y-43953044D01*
X131941448Y-43965026D01*
X131960168Y-43978910D01*
X131977438Y-43994562D01*
X131993090Y-44011832D01*
X132006974Y-44030552D01*
X132018956Y-44050543D01*
X132028921Y-44071613D01*
X132036773Y-44093557D01*
X132042437Y-44116166D01*
X132045856Y-44139221D01*
X132047000Y-44162500D01*
X132047000Y-44737500D01*
X132045856Y-44760779D01*
X132042437Y-44783834D01*
X132036773Y-44806443D01*
X132028921Y-44828387D01*
X132018956Y-44849457D01*
X132006974Y-44869448D01*
X131993090Y-44888168D01*
X131977438Y-44905438D01*
X131960168Y-44921090D01*
X131941448Y-44934974D01*
X131921457Y-44946956D01*
X131900387Y-44956921D01*
X131878443Y-44964773D01*
X131855834Y-44970437D01*
X131832779Y-44973856D01*
X131809500Y-44975000D01*
X131334500Y-44975000D01*
X131311221Y-44973856D01*
X131288166Y-44970437D01*
X131265557Y-44964773D01*
X131243613Y-44956921D01*
X131222543Y-44946956D01*
X131202552Y-44934974D01*
X131183832Y-44921090D01*
X131166562Y-44905438D01*
X131150910Y-44888168D01*
X131137026Y-44869448D01*
X131125044Y-44849457D01*
X131115079Y-44828387D01*
X131107227Y-44806443D01*
X131101563Y-44783834D01*
X131098144Y-44760779D01*
X131097000Y-44737500D01*
X131097000Y-44162500D01*
X131098144Y-44139221D01*
X131101563Y-44116166D01*
X131107227Y-44093557D01*
X131115079Y-44071613D01*
X131125044Y-44050543D01*
X131137026Y-44030552D01*
X131150910Y-44011832D01*
X131166562Y-43994562D01*
X131183832Y-43978910D01*
X131202552Y-43965026D01*
X131222543Y-43953044D01*
X131243613Y-43943079D01*
X131265557Y-43935227D01*
X131288166Y-43929563D01*
X131311221Y-43926144D01*
X131334500Y-43925000D01*
X131809500Y-43925000D01*
X131832779Y-43926144D01*
X131832779Y-43926144D01*
G37*
D13*
X131572000Y-44450000D03*
G04 #@! TD*
D12*
G04 #@! TO.C,R9*
G36*
X131832779Y-41866144D02*
X131855834Y-41869563D01*
X131878443Y-41875227D01*
X131900387Y-41883079D01*
X131921457Y-41893044D01*
X131941448Y-41905026D01*
X131960168Y-41918910D01*
X131977438Y-41934562D01*
X131993090Y-41951832D01*
X132006974Y-41970552D01*
X132018956Y-41990543D01*
X132028921Y-42011613D01*
X132036773Y-42033557D01*
X132042437Y-42056166D01*
X132045856Y-42079221D01*
X132047000Y-42102500D01*
X132047000Y-42677500D01*
X132045856Y-42700779D01*
X132042437Y-42723834D01*
X132036773Y-42746443D01*
X132028921Y-42768387D01*
X132018956Y-42789457D01*
X132006974Y-42809448D01*
X131993090Y-42828168D01*
X131977438Y-42845438D01*
X131960168Y-42861090D01*
X131941448Y-42874974D01*
X131921457Y-42886956D01*
X131900387Y-42896921D01*
X131878443Y-42904773D01*
X131855834Y-42910437D01*
X131832779Y-42913856D01*
X131809500Y-42915000D01*
X131334500Y-42915000D01*
X131311221Y-42913856D01*
X131288166Y-42910437D01*
X131265557Y-42904773D01*
X131243613Y-42896921D01*
X131222543Y-42886956D01*
X131202552Y-42874974D01*
X131183832Y-42861090D01*
X131166562Y-42845438D01*
X131150910Y-42828168D01*
X131137026Y-42809448D01*
X131125044Y-42789457D01*
X131115079Y-42768387D01*
X131107227Y-42746443D01*
X131101563Y-42723834D01*
X131098144Y-42700779D01*
X131097000Y-42677500D01*
X131097000Y-42102500D01*
X131098144Y-42079221D01*
X131101563Y-42056166D01*
X131107227Y-42033557D01*
X131115079Y-42011613D01*
X131125044Y-41990543D01*
X131137026Y-41970552D01*
X131150910Y-41951832D01*
X131166562Y-41934562D01*
X131183832Y-41918910D01*
X131202552Y-41905026D01*
X131222543Y-41893044D01*
X131243613Y-41883079D01*
X131265557Y-41875227D01*
X131288166Y-41869563D01*
X131311221Y-41866144D01*
X131334500Y-41865000D01*
X131809500Y-41865000D01*
X131832779Y-41866144D01*
X131832779Y-41866144D01*
G37*
D13*
X131572000Y-42390000D03*
D12*
G36*
X131832779Y-40116144D02*
X131855834Y-40119563D01*
X131878443Y-40125227D01*
X131900387Y-40133079D01*
X131921457Y-40143044D01*
X131941448Y-40155026D01*
X131960168Y-40168910D01*
X131977438Y-40184562D01*
X131993090Y-40201832D01*
X132006974Y-40220552D01*
X132018956Y-40240543D01*
X132028921Y-40261613D01*
X132036773Y-40283557D01*
X132042437Y-40306166D01*
X132045856Y-40329221D01*
X132047000Y-40352500D01*
X132047000Y-40927500D01*
X132045856Y-40950779D01*
X132042437Y-40973834D01*
X132036773Y-40996443D01*
X132028921Y-41018387D01*
X132018956Y-41039457D01*
X132006974Y-41059448D01*
X131993090Y-41078168D01*
X131977438Y-41095438D01*
X131960168Y-41111090D01*
X131941448Y-41124974D01*
X131921457Y-41136956D01*
X131900387Y-41146921D01*
X131878443Y-41154773D01*
X131855834Y-41160437D01*
X131832779Y-41163856D01*
X131809500Y-41165000D01*
X131334500Y-41165000D01*
X131311221Y-41163856D01*
X131288166Y-41160437D01*
X131265557Y-41154773D01*
X131243613Y-41146921D01*
X131222543Y-41136956D01*
X131202552Y-41124974D01*
X131183832Y-41111090D01*
X131166562Y-41095438D01*
X131150910Y-41078168D01*
X131137026Y-41059448D01*
X131125044Y-41039457D01*
X131115079Y-41018387D01*
X131107227Y-40996443D01*
X131101563Y-40973834D01*
X131098144Y-40950779D01*
X131097000Y-40927500D01*
X131097000Y-40352500D01*
X131098144Y-40329221D01*
X131101563Y-40306166D01*
X131107227Y-40283557D01*
X131115079Y-40261613D01*
X131125044Y-40240543D01*
X131137026Y-40220552D01*
X131150910Y-40201832D01*
X131166562Y-40184562D01*
X131183832Y-40168910D01*
X131202552Y-40155026D01*
X131222543Y-40143044D01*
X131243613Y-40133079D01*
X131265557Y-40125227D01*
X131288166Y-40119563D01*
X131311221Y-40116144D01*
X131334500Y-40115000D01*
X131809500Y-40115000D01*
X131832779Y-40116144D01*
X131832779Y-40116144D01*
G37*
D13*
X131572000Y-40640000D03*
G04 #@! TD*
D12*
G04 #@! TO.C,R10*
G36*
X140214779Y-40370144D02*
X140237834Y-40373563D01*
X140260443Y-40379227D01*
X140282387Y-40387079D01*
X140303457Y-40397044D01*
X140323448Y-40409026D01*
X140342168Y-40422910D01*
X140359438Y-40438562D01*
X140375090Y-40455832D01*
X140388974Y-40474552D01*
X140400956Y-40494543D01*
X140410921Y-40515613D01*
X140418773Y-40537557D01*
X140424437Y-40560166D01*
X140427856Y-40583221D01*
X140429000Y-40606500D01*
X140429000Y-41181500D01*
X140427856Y-41204779D01*
X140424437Y-41227834D01*
X140418773Y-41250443D01*
X140410921Y-41272387D01*
X140400956Y-41293457D01*
X140388974Y-41313448D01*
X140375090Y-41332168D01*
X140359438Y-41349438D01*
X140342168Y-41365090D01*
X140323448Y-41378974D01*
X140303457Y-41390956D01*
X140282387Y-41400921D01*
X140260443Y-41408773D01*
X140237834Y-41414437D01*
X140214779Y-41417856D01*
X140191500Y-41419000D01*
X139716500Y-41419000D01*
X139693221Y-41417856D01*
X139670166Y-41414437D01*
X139647557Y-41408773D01*
X139625613Y-41400921D01*
X139604543Y-41390956D01*
X139584552Y-41378974D01*
X139565832Y-41365090D01*
X139548562Y-41349438D01*
X139532910Y-41332168D01*
X139519026Y-41313448D01*
X139507044Y-41293457D01*
X139497079Y-41272387D01*
X139489227Y-41250443D01*
X139483563Y-41227834D01*
X139480144Y-41204779D01*
X139479000Y-41181500D01*
X139479000Y-40606500D01*
X139480144Y-40583221D01*
X139483563Y-40560166D01*
X139489227Y-40537557D01*
X139497079Y-40515613D01*
X139507044Y-40494543D01*
X139519026Y-40474552D01*
X139532910Y-40455832D01*
X139548562Y-40438562D01*
X139565832Y-40422910D01*
X139584552Y-40409026D01*
X139604543Y-40397044D01*
X139625613Y-40387079D01*
X139647557Y-40379227D01*
X139670166Y-40373563D01*
X139693221Y-40370144D01*
X139716500Y-40369000D01*
X140191500Y-40369000D01*
X140214779Y-40370144D01*
X140214779Y-40370144D01*
G37*
D13*
X139954000Y-40894000D03*
D12*
G36*
X140214779Y-42120144D02*
X140237834Y-42123563D01*
X140260443Y-42129227D01*
X140282387Y-42137079D01*
X140303457Y-42147044D01*
X140323448Y-42159026D01*
X140342168Y-42172910D01*
X140359438Y-42188562D01*
X140375090Y-42205832D01*
X140388974Y-42224552D01*
X140400956Y-42244543D01*
X140410921Y-42265613D01*
X140418773Y-42287557D01*
X140424437Y-42310166D01*
X140427856Y-42333221D01*
X140429000Y-42356500D01*
X140429000Y-42931500D01*
X140427856Y-42954779D01*
X140424437Y-42977834D01*
X140418773Y-43000443D01*
X140410921Y-43022387D01*
X140400956Y-43043457D01*
X140388974Y-43063448D01*
X140375090Y-43082168D01*
X140359438Y-43099438D01*
X140342168Y-43115090D01*
X140323448Y-43128974D01*
X140303457Y-43140956D01*
X140282387Y-43150921D01*
X140260443Y-43158773D01*
X140237834Y-43164437D01*
X140214779Y-43167856D01*
X140191500Y-43169000D01*
X139716500Y-43169000D01*
X139693221Y-43167856D01*
X139670166Y-43164437D01*
X139647557Y-43158773D01*
X139625613Y-43150921D01*
X139604543Y-43140956D01*
X139584552Y-43128974D01*
X139565832Y-43115090D01*
X139548562Y-43099438D01*
X139532910Y-43082168D01*
X139519026Y-43063448D01*
X139507044Y-43043457D01*
X139497079Y-43022387D01*
X139489227Y-43000443D01*
X139483563Y-42977834D01*
X139480144Y-42954779D01*
X139479000Y-42931500D01*
X139479000Y-42356500D01*
X139480144Y-42333221D01*
X139483563Y-42310166D01*
X139489227Y-42287557D01*
X139497079Y-42265613D01*
X139507044Y-42244543D01*
X139519026Y-42224552D01*
X139532910Y-42205832D01*
X139548562Y-42188562D01*
X139565832Y-42172910D01*
X139584552Y-42159026D01*
X139604543Y-42147044D01*
X139625613Y-42137079D01*
X139647557Y-42129227D01*
X139670166Y-42123563D01*
X139693221Y-42120144D01*
X139716500Y-42119000D01*
X140191500Y-42119000D01*
X140214779Y-42120144D01*
X140214779Y-42120144D01*
G37*
D13*
X139954000Y-42644000D03*
G04 #@! TD*
D12*
G04 #@! TO.C,R11*
G36*
X148850779Y-42374144D02*
X148873834Y-42377563D01*
X148896443Y-42383227D01*
X148918387Y-42391079D01*
X148939457Y-42401044D01*
X148959448Y-42413026D01*
X148978168Y-42426910D01*
X148995438Y-42442562D01*
X149011090Y-42459832D01*
X149024974Y-42478552D01*
X149036956Y-42498543D01*
X149046921Y-42519613D01*
X149054773Y-42541557D01*
X149060437Y-42564166D01*
X149063856Y-42587221D01*
X149065000Y-42610500D01*
X149065000Y-43185500D01*
X149063856Y-43208779D01*
X149060437Y-43231834D01*
X149054773Y-43254443D01*
X149046921Y-43276387D01*
X149036956Y-43297457D01*
X149024974Y-43317448D01*
X149011090Y-43336168D01*
X148995438Y-43353438D01*
X148978168Y-43369090D01*
X148959448Y-43382974D01*
X148939457Y-43394956D01*
X148918387Y-43404921D01*
X148896443Y-43412773D01*
X148873834Y-43418437D01*
X148850779Y-43421856D01*
X148827500Y-43423000D01*
X148352500Y-43423000D01*
X148329221Y-43421856D01*
X148306166Y-43418437D01*
X148283557Y-43412773D01*
X148261613Y-43404921D01*
X148240543Y-43394956D01*
X148220552Y-43382974D01*
X148201832Y-43369090D01*
X148184562Y-43353438D01*
X148168910Y-43336168D01*
X148155026Y-43317448D01*
X148143044Y-43297457D01*
X148133079Y-43276387D01*
X148125227Y-43254443D01*
X148119563Y-43231834D01*
X148116144Y-43208779D01*
X148115000Y-43185500D01*
X148115000Y-42610500D01*
X148116144Y-42587221D01*
X148119563Y-42564166D01*
X148125227Y-42541557D01*
X148133079Y-42519613D01*
X148143044Y-42498543D01*
X148155026Y-42478552D01*
X148168910Y-42459832D01*
X148184562Y-42442562D01*
X148201832Y-42426910D01*
X148220552Y-42413026D01*
X148240543Y-42401044D01*
X148261613Y-42391079D01*
X148283557Y-42383227D01*
X148306166Y-42377563D01*
X148329221Y-42374144D01*
X148352500Y-42373000D01*
X148827500Y-42373000D01*
X148850779Y-42374144D01*
X148850779Y-42374144D01*
G37*
D13*
X148590000Y-42898000D03*
D12*
G36*
X148850779Y-40624144D02*
X148873834Y-40627563D01*
X148896443Y-40633227D01*
X148918387Y-40641079D01*
X148939457Y-40651044D01*
X148959448Y-40663026D01*
X148978168Y-40676910D01*
X148995438Y-40692562D01*
X149011090Y-40709832D01*
X149024974Y-40728552D01*
X149036956Y-40748543D01*
X149046921Y-40769613D01*
X149054773Y-40791557D01*
X149060437Y-40814166D01*
X149063856Y-40837221D01*
X149065000Y-40860500D01*
X149065000Y-41435500D01*
X149063856Y-41458779D01*
X149060437Y-41481834D01*
X149054773Y-41504443D01*
X149046921Y-41526387D01*
X149036956Y-41547457D01*
X149024974Y-41567448D01*
X149011090Y-41586168D01*
X148995438Y-41603438D01*
X148978168Y-41619090D01*
X148959448Y-41632974D01*
X148939457Y-41644956D01*
X148918387Y-41654921D01*
X148896443Y-41662773D01*
X148873834Y-41668437D01*
X148850779Y-41671856D01*
X148827500Y-41673000D01*
X148352500Y-41673000D01*
X148329221Y-41671856D01*
X148306166Y-41668437D01*
X148283557Y-41662773D01*
X148261613Y-41654921D01*
X148240543Y-41644956D01*
X148220552Y-41632974D01*
X148201832Y-41619090D01*
X148184562Y-41603438D01*
X148168910Y-41586168D01*
X148155026Y-41567448D01*
X148143044Y-41547457D01*
X148133079Y-41526387D01*
X148125227Y-41504443D01*
X148119563Y-41481834D01*
X148116144Y-41458779D01*
X148115000Y-41435500D01*
X148115000Y-40860500D01*
X148116144Y-40837221D01*
X148119563Y-40814166D01*
X148125227Y-40791557D01*
X148133079Y-40769613D01*
X148143044Y-40748543D01*
X148155026Y-40728552D01*
X148168910Y-40709832D01*
X148184562Y-40692562D01*
X148201832Y-40676910D01*
X148220552Y-40663026D01*
X148240543Y-40651044D01*
X148261613Y-40641079D01*
X148283557Y-40633227D01*
X148306166Y-40627563D01*
X148329221Y-40624144D01*
X148352500Y-40623000D01*
X148827500Y-40623000D01*
X148850779Y-40624144D01*
X148850779Y-40624144D01*
G37*
D13*
X148590000Y-41148000D03*
G04 #@! TD*
D12*
G04 #@! TO.C,R12*
G36*
X157994779Y-40878144D02*
X158017834Y-40881563D01*
X158040443Y-40887227D01*
X158062387Y-40895079D01*
X158083457Y-40905044D01*
X158103448Y-40917026D01*
X158122168Y-40930910D01*
X158139438Y-40946562D01*
X158155090Y-40963832D01*
X158168974Y-40982552D01*
X158180956Y-41002543D01*
X158190921Y-41023613D01*
X158198773Y-41045557D01*
X158204437Y-41068166D01*
X158207856Y-41091221D01*
X158209000Y-41114500D01*
X158209000Y-41689500D01*
X158207856Y-41712779D01*
X158204437Y-41735834D01*
X158198773Y-41758443D01*
X158190921Y-41780387D01*
X158180956Y-41801457D01*
X158168974Y-41821448D01*
X158155090Y-41840168D01*
X158139438Y-41857438D01*
X158122168Y-41873090D01*
X158103448Y-41886974D01*
X158083457Y-41898956D01*
X158062387Y-41908921D01*
X158040443Y-41916773D01*
X158017834Y-41922437D01*
X157994779Y-41925856D01*
X157971500Y-41927000D01*
X157496500Y-41927000D01*
X157473221Y-41925856D01*
X157450166Y-41922437D01*
X157427557Y-41916773D01*
X157405613Y-41908921D01*
X157384543Y-41898956D01*
X157364552Y-41886974D01*
X157345832Y-41873090D01*
X157328562Y-41857438D01*
X157312910Y-41840168D01*
X157299026Y-41821448D01*
X157287044Y-41801457D01*
X157277079Y-41780387D01*
X157269227Y-41758443D01*
X157263563Y-41735834D01*
X157260144Y-41712779D01*
X157259000Y-41689500D01*
X157259000Y-41114500D01*
X157260144Y-41091221D01*
X157263563Y-41068166D01*
X157269227Y-41045557D01*
X157277079Y-41023613D01*
X157287044Y-41002543D01*
X157299026Y-40982552D01*
X157312910Y-40963832D01*
X157328562Y-40946562D01*
X157345832Y-40930910D01*
X157364552Y-40917026D01*
X157384543Y-40905044D01*
X157405613Y-40895079D01*
X157427557Y-40887227D01*
X157450166Y-40881563D01*
X157473221Y-40878144D01*
X157496500Y-40877000D01*
X157971500Y-40877000D01*
X157994779Y-40878144D01*
X157994779Y-40878144D01*
G37*
D13*
X157734000Y-41402000D03*
D12*
G36*
X157994779Y-42628144D02*
X158017834Y-42631563D01*
X158040443Y-42637227D01*
X158062387Y-42645079D01*
X158083457Y-42655044D01*
X158103448Y-42667026D01*
X158122168Y-42680910D01*
X158139438Y-42696562D01*
X158155090Y-42713832D01*
X158168974Y-42732552D01*
X158180956Y-42752543D01*
X158190921Y-42773613D01*
X158198773Y-42795557D01*
X158204437Y-42818166D01*
X158207856Y-42841221D01*
X158209000Y-42864500D01*
X158209000Y-43439500D01*
X158207856Y-43462779D01*
X158204437Y-43485834D01*
X158198773Y-43508443D01*
X158190921Y-43530387D01*
X158180956Y-43551457D01*
X158168974Y-43571448D01*
X158155090Y-43590168D01*
X158139438Y-43607438D01*
X158122168Y-43623090D01*
X158103448Y-43636974D01*
X158083457Y-43648956D01*
X158062387Y-43658921D01*
X158040443Y-43666773D01*
X158017834Y-43672437D01*
X157994779Y-43675856D01*
X157971500Y-43677000D01*
X157496500Y-43677000D01*
X157473221Y-43675856D01*
X157450166Y-43672437D01*
X157427557Y-43666773D01*
X157405613Y-43658921D01*
X157384543Y-43648956D01*
X157364552Y-43636974D01*
X157345832Y-43623090D01*
X157328562Y-43607438D01*
X157312910Y-43590168D01*
X157299026Y-43571448D01*
X157287044Y-43551457D01*
X157277079Y-43530387D01*
X157269227Y-43508443D01*
X157263563Y-43485834D01*
X157260144Y-43462779D01*
X157259000Y-43439500D01*
X157259000Y-42864500D01*
X157260144Y-42841221D01*
X157263563Y-42818166D01*
X157269227Y-42795557D01*
X157277079Y-42773613D01*
X157287044Y-42752543D01*
X157299026Y-42732552D01*
X157312910Y-42713832D01*
X157328562Y-42696562D01*
X157345832Y-42680910D01*
X157364552Y-42667026D01*
X157384543Y-42655044D01*
X157405613Y-42645079D01*
X157427557Y-42637227D01*
X157450166Y-42631563D01*
X157473221Y-42628144D01*
X157496500Y-42627000D01*
X157971500Y-42627000D01*
X157994779Y-42628144D01*
X157994779Y-42628144D01*
G37*
D13*
X157734000Y-43152000D03*
G04 #@! TD*
D12*
G04 #@! TO.C,R13*
G36*
X166122779Y-42628144D02*
X166145834Y-42631563D01*
X166168443Y-42637227D01*
X166190387Y-42645079D01*
X166211457Y-42655044D01*
X166231448Y-42667026D01*
X166250168Y-42680910D01*
X166267438Y-42696562D01*
X166283090Y-42713832D01*
X166296974Y-42732552D01*
X166308956Y-42752543D01*
X166318921Y-42773613D01*
X166326773Y-42795557D01*
X166332437Y-42818166D01*
X166335856Y-42841221D01*
X166337000Y-42864500D01*
X166337000Y-43439500D01*
X166335856Y-43462779D01*
X166332437Y-43485834D01*
X166326773Y-43508443D01*
X166318921Y-43530387D01*
X166308956Y-43551457D01*
X166296974Y-43571448D01*
X166283090Y-43590168D01*
X166267438Y-43607438D01*
X166250168Y-43623090D01*
X166231448Y-43636974D01*
X166211457Y-43648956D01*
X166190387Y-43658921D01*
X166168443Y-43666773D01*
X166145834Y-43672437D01*
X166122779Y-43675856D01*
X166099500Y-43677000D01*
X165624500Y-43677000D01*
X165601221Y-43675856D01*
X165578166Y-43672437D01*
X165555557Y-43666773D01*
X165533613Y-43658921D01*
X165512543Y-43648956D01*
X165492552Y-43636974D01*
X165473832Y-43623090D01*
X165456562Y-43607438D01*
X165440910Y-43590168D01*
X165427026Y-43571448D01*
X165415044Y-43551457D01*
X165405079Y-43530387D01*
X165397227Y-43508443D01*
X165391563Y-43485834D01*
X165388144Y-43462779D01*
X165387000Y-43439500D01*
X165387000Y-42864500D01*
X165388144Y-42841221D01*
X165391563Y-42818166D01*
X165397227Y-42795557D01*
X165405079Y-42773613D01*
X165415044Y-42752543D01*
X165427026Y-42732552D01*
X165440910Y-42713832D01*
X165456562Y-42696562D01*
X165473832Y-42680910D01*
X165492552Y-42667026D01*
X165512543Y-42655044D01*
X165533613Y-42645079D01*
X165555557Y-42637227D01*
X165578166Y-42631563D01*
X165601221Y-42628144D01*
X165624500Y-42627000D01*
X166099500Y-42627000D01*
X166122779Y-42628144D01*
X166122779Y-42628144D01*
G37*
D13*
X165862000Y-43152000D03*
D12*
G36*
X166122779Y-40878144D02*
X166145834Y-40881563D01*
X166168443Y-40887227D01*
X166190387Y-40895079D01*
X166211457Y-40905044D01*
X166231448Y-40917026D01*
X166250168Y-40930910D01*
X166267438Y-40946562D01*
X166283090Y-40963832D01*
X166296974Y-40982552D01*
X166308956Y-41002543D01*
X166318921Y-41023613D01*
X166326773Y-41045557D01*
X166332437Y-41068166D01*
X166335856Y-41091221D01*
X166337000Y-41114500D01*
X166337000Y-41689500D01*
X166335856Y-41712779D01*
X166332437Y-41735834D01*
X166326773Y-41758443D01*
X166318921Y-41780387D01*
X166308956Y-41801457D01*
X166296974Y-41821448D01*
X166283090Y-41840168D01*
X166267438Y-41857438D01*
X166250168Y-41873090D01*
X166231448Y-41886974D01*
X166211457Y-41898956D01*
X166190387Y-41908921D01*
X166168443Y-41916773D01*
X166145834Y-41922437D01*
X166122779Y-41925856D01*
X166099500Y-41927000D01*
X165624500Y-41927000D01*
X165601221Y-41925856D01*
X165578166Y-41922437D01*
X165555557Y-41916773D01*
X165533613Y-41908921D01*
X165512543Y-41898956D01*
X165492552Y-41886974D01*
X165473832Y-41873090D01*
X165456562Y-41857438D01*
X165440910Y-41840168D01*
X165427026Y-41821448D01*
X165415044Y-41801457D01*
X165405079Y-41780387D01*
X165397227Y-41758443D01*
X165391563Y-41735834D01*
X165388144Y-41712779D01*
X165387000Y-41689500D01*
X165387000Y-41114500D01*
X165388144Y-41091221D01*
X165391563Y-41068166D01*
X165397227Y-41045557D01*
X165405079Y-41023613D01*
X165415044Y-41002543D01*
X165427026Y-40982552D01*
X165440910Y-40963832D01*
X165456562Y-40946562D01*
X165473832Y-40930910D01*
X165492552Y-40917026D01*
X165512543Y-40905044D01*
X165533613Y-40895079D01*
X165555557Y-40887227D01*
X165578166Y-40881563D01*
X165601221Y-40878144D01*
X165624500Y-40877000D01*
X166099500Y-40877000D01*
X166122779Y-40878144D01*
X166122779Y-40878144D01*
G37*
D13*
X165862000Y-41402000D03*
G04 #@! TD*
D12*
G04 #@! TO.C,R14*
G36*
X176536779Y-38592144D02*
X176559834Y-38595563D01*
X176582443Y-38601227D01*
X176604387Y-38609079D01*
X176625457Y-38619044D01*
X176645448Y-38631026D01*
X176664168Y-38644910D01*
X176681438Y-38660562D01*
X176697090Y-38677832D01*
X176710974Y-38696552D01*
X176722956Y-38716543D01*
X176732921Y-38737613D01*
X176740773Y-38759557D01*
X176746437Y-38782166D01*
X176749856Y-38805221D01*
X176751000Y-38828500D01*
X176751000Y-39403500D01*
X176749856Y-39426779D01*
X176746437Y-39449834D01*
X176740773Y-39472443D01*
X176732921Y-39494387D01*
X176722956Y-39515457D01*
X176710974Y-39535448D01*
X176697090Y-39554168D01*
X176681438Y-39571438D01*
X176664168Y-39587090D01*
X176645448Y-39600974D01*
X176625457Y-39612956D01*
X176604387Y-39622921D01*
X176582443Y-39630773D01*
X176559834Y-39636437D01*
X176536779Y-39639856D01*
X176513500Y-39641000D01*
X176038500Y-39641000D01*
X176015221Y-39639856D01*
X175992166Y-39636437D01*
X175969557Y-39630773D01*
X175947613Y-39622921D01*
X175926543Y-39612956D01*
X175906552Y-39600974D01*
X175887832Y-39587090D01*
X175870562Y-39571438D01*
X175854910Y-39554168D01*
X175841026Y-39535448D01*
X175829044Y-39515457D01*
X175819079Y-39494387D01*
X175811227Y-39472443D01*
X175805563Y-39449834D01*
X175802144Y-39426779D01*
X175801000Y-39403500D01*
X175801000Y-38828500D01*
X175802144Y-38805221D01*
X175805563Y-38782166D01*
X175811227Y-38759557D01*
X175819079Y-38737613D01*
X175829044Y-38716543D01*
X175841026Y-38696552D01*
X175854910Y-38677832D01*
X175870562Y-38660562D01*
X175887832Y-38644910D01*
X175906552Y-38631026D01*
X175926543Y-38619044D01*
X175947613Y-38609079D01*
X175969557Y-38601227D01*
X175992166Y-38595563D01*
X176015221Y-38592144D01*
X176038500Y-38591000D01*
X176513500Y-38591000D01*
X176536779Y-38592144D01*
X176536779Y-38592144D01*
G37*
D13*
X176276000Y-39116000D03*
D12*
G36*
X176536779Y-40342144D02*
X176559834Y-40345563D01*
X176582443Y-40351227D01*
X176604387Y-40359079D01*
X176625457Y-40369044D01*
X176645448Y-40381026D01*
X176664168Y-40394910D01*
X176681438Y-40410562D01*
X176697090Y-40427832D01*
X176710974Y-40446552D01*
X176722956Y-40466543D01*
X176732921Y-40487613D01*
X176740773Y-40509557D01*
X176746437Y-40532166D01*
X176749856Y-40555221D01*
X176751000Y-40578500D01*
X176751000Y-41153500D01*
X176749856Y-41176779D01*
X176746437Y-41199834D01*
X176740773Y-41222443D01*
X176732921Y-41244387D01*
X176722956Y-41265457D01*
X176710974Y-41285448D01*
X176697090Y-41304168D01*
X176681438Y-41321438D01*
X176664168Y-41337090D01*
X176645448Y-41350974D01*
X176625457Y-41362956D01*
X176604387Y-41372921D01*
X176582443Y-41380773D01*
X176559834Y-41386437D01*
X176536779Y-41389856D01*
X176513500Y-41391000D01*
X176038500Y-41391000D01*
X176015221Y-41389856D01*
X175992166Y-41386437D01*
X175969557Y-41380773D01*
X175947613Y-41372921D01*
X175926543Y-41362956D01*
X175906552Y-41350974D01*
X175887832Y-41337090D01*
X175870562Y-41321438D01*
X175854910Y-41304168D01*
X175841026Y-41285448D01*
X175829044Y-41265457D01*
X175819079Y-41244387D01*
X175811227Y-41222443D01*
X175805563Y-41199834D01*
X175802144Y-41176779D01*
X175801000Y-41153500D01*
X175801000Y-40578500D01*
X175802144Y-40555221D01*
X175805563Y-40532166D01*
X175811227Y-40509557D01*
X175819079Y-40487613D01*
X175829044Y-40466543D01*
X175841026Y-40446552D01*
X175854910Y-40427832D01*
X175870562Y-40410562D01*
X175887832Y-40394910D01*
X175906552Y-40381026D01*
X175926543Y-40369044D01*
X175947613Y-40359079D01*
X175969557Y-40351227D01*
X175992166Y-40345563D01*
X176015221Y-40342144D01*
X176038500Y-40341000D01*
X176513500Y-40341000D01*
X176536779Y-40342144D01*
X176536779Y-40342144D01*
G37*
D13*
X176276000Y-40866000D03*
G04 #@! TD*
M02*
