G04 #@! TF.GenerationSoftware,KiCad,Pcbnew,(5.0.0)*
G04 #@! TF.CreationDate,2018-12-16T15:07:15-06:00*
G04 #@! TF.ProjectId,DriveBoard_Hardware,4472697665426F6172645F4861726477,rev?*
G04 #@! TF.SameCoordinates,Original*
G04 #@! TF.FileFunction,Legend,Bot*
G04 #@! TF.FilePolarity,Positive*
%FSLAX46Y46*%
G04 Gerber Fmt 4.6, Leading zero omitted, Abs format (unit mm)*
G04 Created by KiCad (PCBNEW (5.0.0)) date 12/16/18 15:07:15*
%MOMM*%
%LPD*%
G01*
G04 APERTURE LIST*
%ADD10C,0.300000*%
%ADD11C,0.120000*%
%ADD12C,0.150000*%
G04 APERTURE END LIST*
D10*
X126916571Y-51419142D02*
X126202285Y-50919142D01*
X126916571Y-50562000D02*
X125416571Y-50562000D01*
X125416571Y-51133428D01*
X125488000Y-51276285D01*
X125559428Y-51347714D01*
X125702285Y-51419142D01*
X125916571Y-51419142D01*
X126059428Y-51347714D01*
X126130857Y-51276285D01*
X126202285Y-51133428D01*
X126202285Y-50562000D01*
X126916571Y-51919142D02*
X125916571Y-52704857D01*
X125916571Y-51919142D02*
X126916571Y-52704857D01*
X136505142Y-50990571D02*
X136505142Y-52133428D01*
X127956571Y-50526285D02*
X127956571Y-51383428D01*
X129456571Y-50954857D02*
X127956571Y-50954857D01*
X129456571Y-51740571D02*
X128456571Y-52526285D01*
X128456571Y-51740571D02*
X129456571Y-52526285D01*
X144188571Y-51419142D02*
X143474285Y-50919142D01*
X144188571Y-50562000D02*
X142688571Y-50562000D01*
X142688571Y-51133428D01*
X142760000Y-51276285D01*
X142831428Y-51347714D01*
X142974285Y-51419142D01*
X143188571Y-51419142D01*
X143331428Y-51347714D01*
X143402857Y-51276285D01*
X143474285Y-51133428D01*
X143474285Y-50562000D01*
X144188571Y-51919142D02*
X143188571Y-52704857D01*
X143188571Y-51919142D02*
X144188571Y-52704857D01*
X153777142Y-50990571D02*
X153777142Y-52133428D01*
X145228571Y-50526285D02*
X145228571Y-51383428D01*
X146728571Y-50954857D02*
X145228571Y-50954857D01*
X146728571Y-51740571D02*
X145728571Y-52526285D01*
X145728571Y-51740571D02*
X146728571Y-52526285D01*
X161460571Y-51419142D02*
X160746285Y-50919142D01*
X161460571Y-50562000D02*
X159960571Y-50562000D01*
X159960571Y-51133428D01*
X160032000Y-51276285D01*
X160103428Y-51347714D01*
X160246285Y-51419142D01*
X160460571Y-51419142D01*
X160603428Y-51347714D01*
X160674857Y-51276285D01*
X160746285Y-51133428D01*
X160746285Y-50562000D01*
X161460571Y-51919142D02*
X160460571Y-52704857D01*
X160460571Y-51919142D02*
X161460571Y-52704857D01*
X162500571Y-50526285D02*
X162500571Y-51383428D01*
X164000571Y-50954857D02*
X162500571Y-50954857D01*
X164000571Y-51740571D02*
X163000571Y-52526285D01*
X163000571Y-51740571D02*
X164000571Y-52526285D01*
X171049142Y-50990571D02*
X171049142Y-52133428D01*
X181197142Y-52113571D02*
X181697142Y-51399285D01*
X182054285Y-52113571D02*
X182054285Y-50613571D01*
X181482857Y-50613571D01*
X181340000Y-50685000D01*
X181268571Y-50756428D01*
X181197142Y-50899285D01*
X181197142Y-51113571D01*
X181268571Y-51256428D01*
X181340000Y-51327857D01*
X181482857Y-51399285D01*
X182054285Y-51399285D01*
X180554285Y-51327857D02*
X180054285Y-51327857D01*
X179840000Y-52113571D02*
X180554285Y-52113571D01*
X180554285Y-50613571D01*
X179840000Y-50613571D01*
X179411428Y-50613571D02*
X178911428Y-52113571D01*
X178411428Y-50613571D01*
X181732857Y-37230857D02*
X182232857Y-37230857D01*
X182232857Y-38016571D02*
X182232857Y-36516571D01*
X181518571Y-36516571D01*
X181090000Y-36516571D02*
X180732857Y-38016571D01*
X180447142Y-36945142D01*
X180161428Y-38016571D01*
X179804285Y-36516571D01*
X179232857Y-38016571D02*
X179232857Y-36516571D01*
X178875714Y-36516571D01*
X178661428Y-36588000D01*
X178518571Y-36730857D01*
X178447142Y-36873714D01*
X178375714Y-37159428D01*
X178375714Y-37373714D01*
X178447142Y-37659428D01*
X178518571Y-37802285D01*
X178661428Y-37945142D01*
X178875714Y-38016571D01*
X179232857Y-38016571D01*
X170759285Y-37508571D02*
X170759285Y-36008571D01*
X170259285Y-37080000D01*
X169759285Y-36008571D01*
X169759285Y-37508571D01*
X168402142Y-36008571D02*
X168687857Y-36008571D01*
X168830714Y-36080000D01*
X168902142Y-36151428D01*
X169045000Y-36365714D01*
X169116428Y-36651428D01*
X169116428Y-37222857D01*
X169045000Y-37365714D01*
X168973571Y-37437142D01*
X168830714Y-37508571D01*
X168545000Y-37508571D01*
X168402142Y-37437142D01*
X168330714Y-37365714D01*
X168259285Y-37222857D01*
X168259285Y-36865714D01*
X168330714Y-36722857D01*
X168402142Y-36651428D01*
X168545000Y-36580000D01*
X168830714Y-36580000D01*
X168973571Y-36651428D01*
X169045000Y-36722857D01*
X169116428Y-36865714D01*
X163139285Y-37508571D02*
X163139285Y-36008571D01*
X162639285Y-37080000D01*
X162139285Y-36008571D01*
X162139285Y-37508571D01*
X160710714Y-36008571D02*
X161425000Y-36008571D01*
X161496428Y-36722857D01*
X161425000Y-36651428D01*
X161282142Y-36580000D01*
X160925000Y-36580000D01*
X160782142Y-36651428D01*
X160710714Y-36722857D01*
X160639285Y-36865714D01*
X160639285Y-37222857D01*
X160710714Y-37365714D01*
X160782142Y-37437142D01*
X160925000Y-37508571D01*
X161282142Y-37508571D01*
X161425000Y-37437142D01*
X161496428Y-37365714D01*
X153614285Y-37508571D02*
X153614285Y-36008571D01*
X153114285Y-37080000D01*
X152614285Y-36008571D01*
X152614285Y-37508571D01*
X151257142Y-36508571D02*
X151257142Y-37508571D01*
X151614285Y-35937142D02*
X151971428Y-37008571D01*
X151042857Y-37008571D01*
X145359285Y-37508571D02*
X145359285Y-36008571D01*
X144859285Y-37080000D01*
X144359285Y-36008571D01*
X144359285Y-37508571D01*
X143787857Y-36008571D02*
X142859285Y-36008571D01*
X143359285Y-36580000D01*
X143145000Y-36580000D01*
X143002142Y-36651428D01*
X142930714Y-36722857D01*
X142859285Y-36865714D01*
X142859285Y-37222857D01*
X142930714Y-37365714D01*
X143002142Y-37437142D01*
X143145000Y-37508571D01*
X143573571Y-37508571D01*
X143716428Y-37437142D01*
X143787857Y-37365714D01*
X136469285Y-37508571D02*
X136469285Y-36008571D01*
X135969285Y-37080000D01*
X135469285Y-36008571D01*
X135469285Y-37508571D01*
X134826428Y-36151428D02*
X134755000Y-36080000D01*
X134612142Y-36008571D01*
X134255000Y-36008571D01*
X134112142Y-36080000D01*
X134040714Y-36151428D01*
X133969285Y-36294285D01*
X133969285Y-36437142D01*
X134040714Y-36651428D01*
X134897857Y-37508571D01*
X133969285Y-37508571D01*
X128214285Y-37508571D02*
X128214285Y-36008571D01*
X127714285Y-37080000D01*
X127214285Y-36008571D01*
X127214285Y-37508571D01*
X125714285Y-37508571D02*
X126571428Y-37508571D01*
X126142857Y-37508571D02*
X126142857Y-36008571D01*
X126285714Y-36222857D01*
X126428571Y-36365714D01*
X126571428Y-36437142D01*
D11*
G04 #@! TO.C,SW1*
X129624000Y-44915000D02*
X129624000Y-40175000D01*
X129624000Y-44915000D02*
X129224000Y-44915000D01*
X129624000Y-40175000D02*
X129224000Y-40175000D01*
X124884000Y-44915000D02*
X125284000Y-44915000D01*
X124884000Y-44915000D02*
X124884000Y-40175000D01*
X124884000Y-40175000D02*
X125284000Y-40175000D01*
X126224000Y-40175000D02*
X128284000Y-40175000D01*
X126224000Y-44915000D02*
X128284000Y-44915000D01*
G04 #@! TO.C,SW2*
X134352000Y-44915000D02*
X136412000Y-44915000D01*
X134352000Y-40175000D02*
X136412000Y-40175000D01*
X133012000Y-40175000D02*
X133412000Y-40175000D01*
X133012000Y-44915000D02*
X133012000Y-40175000D01*
X133012000Y-44915000D02*
X133412000Y-44915000D01*
X137752000Y-40175000D02*
X137352000Y-40175000D01*
X137752000Y-44915000D02*
X137352000Y-44915000D01*
X137752000Y-44915000D02*
X137752000Y-40175000D01*
G04 #@! TO.C,SW3*
X146896000Y-44915000D02*
X146896000Y-40175000D01*
X146896000Y-44915000D02*
X146496000Y-44915000D01*
X146896000Y-40175000D02*
X146496000Y-40175000D01*
X142156000Y-44915000D02*
X142556000Y-44915000D01*
X142156000Y-44915000D02*
X142156000Y-40175000D01*
X142156000Y-40175000D02*
X142556000Y-40175000D01*
X143496000Y-40175000D02*
X145556000Y-40175000D01*
X143496000Y-44915000D02*
X145556000Y-44915000D01*
G04 #@! TO.C,SW4*
X151624000Y-44915000D02*
X153684000Y-44915000D01*
X151624000Y-40175000D02*
X153684000Y-40175000D01*
X150284000Y-40175000D02*
X150684000Y-40175000D01*
X150284000Y-44915000D02*
X150284000Y-40175000D01*
X150284000Y-44915000D02*
X150684000Y-44915000D01*
X155024000Y-40175000D02*
X154624000Y-40175000D01*
X155024000Y-44915000D02*
X154624000Y-44915000D01*
X155024000Y-44915000D02*
X155024000Y-40175000D01*
G04 #@! TO.C,SW5*
X164168000Y-44915000D02*
X164168000Y-40175000D01*
X164168000Y-44915000D02*
X163768000Y-44915000D01*
X164168000Y-40175000D02*
X163768000Y-40175000D01*
X159428000Y-44915000D02*
X159828000Y-44915000D01*
X159428000Y-44915000D02*
X159428000Y-40175000D01*
X159428000Y-40175000D02*
X159828000Y-40175000D01*
X160768000Y-40175000D02*
X162828000Y-40175000D01*
X160768000Y-44915000D02*
X162828000Y-44915000D01*
G04 #@! TO.C,SW6*
X168896000Y-44915000D02*
X170956000Y-44915000D01*
X168896000Y-40175000D02*
X170956000Y-40175000D01*
X167556000Y-40175000D02*
X167956000Y-40175000D01*
X167556000Y-44915000D02*
X167556000Y-40175000D01*
X167556000Y-44915000D02*
X167956000Y-44915000D01*
X172296000Y-40175000D02*
X171896000Y-40175000D01*
X172296000Y-44915000D02*
X171896000Y-44915000D01*
X172296000Y-44915000D02*
X172296000Y-40175000D01*
D12*
G04 #@! TO.C,SW7*
X178548000Y-39864000D02*
X178548000Y-48464000D01*
X183148000Y-39864000D02*
X183148000Y-42064000D01*
X183148000Y-46164000D02*
X183148000Y-48464000D01*
D11*
G04 #@! TO.C,R8*
X132082000Y-45153733D02*
X132082000Y-45496267D01*
X131062000Y-45153733D02*
X131062000Y-45496267D01*
G04 #@! TO.C,R9*
X132082000Y-41686267D02*
X132082000Y-41343733D01*
X131062000Y-41686267D02*
X131062000Y-41343733D01*
G04 #@! TO.C,R10*
X139444000Y-41940267D02*
X139444000Y-41597733D01*
X140464000Y-41940267D02*
X140464000Y-41597733D01*
G04 #@! TO.C,R11*
X149100000Y-42194267D02*
X149100000Y-41851733D01*
X148080000Y-42194267D02*
X148080000Y-41851733D01*
G04 #@! TO.C,R12*
X157224000Y-42448267D02*
X157224000Y-42105733D01*
X158244000Y-42448267D02*
X158244000Y-42105733D01*
G04 #@! TO.C,R13*
X166372000Y-42448267D02*
X166372000Y-42105733D01*
X165352000Y-42448267D02*
X165352000Y-42105733D01*
G04 #@! TO.C,R14*
X175766000Y-39819733D02*
X175766000Y-40162267D01*
X176786000Y-39819733D02*
X176786000Y-40162267D01*
G04 #@! TO.C,SW1*
D12*
X127404761Y-41338666D02*
X127452380Y-41481523D01*
X127452380Y-41719619D01*
X127404761Y-41814857D01*
X127357142Y-41862476D01*
X127261904Y-41910095D01*
X127166666Y-41910095D01*
X127071428Y-41862476D01*
X127023809Y-41814857D01*
X126976190Y-41719619D01*
X126928571Y-41529142D01*
X126880952Y-41433904D01*
X126833333Y-41386285D01*
X126738095Y-41338666D01*
X126642857Y-41338666D01*
X126547619Y-41386285D01*
X126500000Y-41433904D01*
X126452380Y-41529142D01*
X126452380Y-41767238D01*
X126500000Y-41910095D01*
X126452380Y-42243428D02*
X127452380Y-42481523D01*
X126738095Y-42672000D01*
X127452380Y-42862476D01*
X126452380Y-43100571D01*
X127452380Y-44005333D02*
X127452380Y-43433904D01*
X127452380Y-43719619D02*
X126452380Y-43719619D01*
X126595238Y-43624380D01*
X126690476Y-43529142D01*
X126738095Y-43433904D01*
G04 #@! TO.C,SW2*
X136040761Y-41084666D02*
X136088380Y-41227523D01*
X136088380Y-41465619D01*
X136040761Y-41560857D01*
X135993142Y-41608476D01*
X135897904Y-41656095D01*
X135802666Y-41656095D01*
X135707428Y-41608476D01*
X135659809Y-41560857D01*
X135612190Y-41465619D01*
X135564571Y-41275142D01*
X135516952Y-41179904D01*
X135469333Y-41132285D01*
X135374095Y-41084666D01*
X135278857Y-41084666D01*
X135183619Y-41132285D01*
X135136000Y-41179904D01*
X135088380Y-41275142D01*
X135088380Y-41513238D01*
X135136000Y-41656095D01*
X135088380Y-41989428D02*
X136088380Y-42227523D01*
X135374095Y-42418000D01*
X136088380Y-42608476D01*
X135088380Y-42846571D01*
X135183619Y-43179904D02*
X135136000Y-43227523D01*
X135088380Y-43322761D01*
X135088380Y-43560857D01*
X135136000Y-43656095D01*
X135183619Y-43703714D01*
X135278857Y-43751333D01*
X135374095Y-43751333D01*
X135516952Y-43703714D01*
X136088380Y-43132285D01*
X136088380Y-43751333D01*
G04 #@! TO.C,SW3*
X144930761Y-40830666D02*
X144978380Y-40973523D01*
X144978380Y-41211619D01*
X144930761Y-41306857D01*
X144883142Y-41354476D01*
X144787904Y-41402095D01*
X144692666Y-41402095D01*
X144597428Y-41354476D01*
X144549809Y-41306857D01*
X144502190Y-41211619D01*
X144454571Y-41021142D01*
X144406952Y-40925904D01*
X144359333Y-40878285D01*
X144264095Y-40830666D01*
X144168857Y-40830666D01*
X144073619Y-40878285D01*
X144026000Y-40925904D01*
X143978380Y-41021142D01*
X143978380Y-41259238D01*
X144026000Y-41402095D01*
X143978380Y-41735428D02*
X144978380Y-41973523D01*
X144264095Y-42164000D01*
X144978380Y-42354476D01*
X143978380Y-42592571D01*
X143978380Y-42878285D02*
X143978380Y-43497333D01*
X144359333Y-43164000D01*
X144359333Y-43306857D01*
X144406952Y-43402095D01*
X144454571Y-43449714D01*
X144549809Y-43497333D01*
X144787904Y-43497333D01*
X144883142Y-43449714D01*
X144930761Y-43402095D01*
X144978380Y-43306857D01*
X144978380Y-43021142D01*
X144930761Y-42925904D01*
X144883142Y-42878285D01*
G04 #@! TO.C,SW4*
X153312761Y-41084666D02*
X153360380Y-41227523D01*
X153360380Y-41465619D01*
X153312761Y-41560857D01*
X153265142Y-41608476D01*
X153169904Y-41656095D01*
X153074666Y-41656095D01*
X152979428Y-41608476D01*
X152931809Y-41560857D01*
X152884190Y-41465619D01*
X152836571Y-41275142D01*
X152788952Y-41179904D01*
X152741333Y-41132285D01*
X152646095Y-41084666D01*
X152550857Y-41084666D01*
X152455619Y-41132285D01*
X152408000Y-41179904D01*
X152360380Y-41275142D01*
X152360380Y-41513238D01*
X152408000Y-41656095D01*
X152360380Y-41989428D02*
X153360380Y-42227523D01*
X152646095Y-42418000D01*
X153360380Y-42608476D01*
X152360380Y-42846571D01*
X152693714Y-43656095D02*
X153360380Y-43656095D01*
X152312761Y-43418000D02*
X153027047Y-43179904D01*
X153027047Y-43798952D01*
G04 #@! TO.C,SW5*
X162202761Y-41084666D02*
X162250380Y-41227523D01*
X162250380Y-41465619D01*
X162202761Y-41560857D01*
X162155142Y-41608476D01*
X162059904Y-41656095D01*
X161964666Y-41656095D01*
X161869428Y-41608476D01*
X161821809Y-41560857D01*
X161774190Y-41465619D01*
X161726571Y-41275142D01*
X161678952Y-41179904D01*
X161631333Y-41132285D01*
X161536095Y-41084666D01*
X161440857Y-41084666D01*
X161345619Y-41132285D01*
X161298000Y-41179904D01*
X161250380Y-41275142D01*
X161250380Y-41513238D01*
X161298000Y-41656095D01*
X161250380Y-41989428D02*
X162250380Y-42227523D01*
X161536095Y-42418000D01*
X162250380Y-42608476D01*
X161250380Y-42846571D01*
X161250380Y-43703714D02*
X161250380Y-43227523D01*
X161726571Y-43179904D01*
X161678952Y-43227523D01*
X161631333Y-43322761D01*
X161631333Y-43560857D01*
X161678952Y-43656095D01*
X161726571Y-43703714D01*
X161821809Y-43751333D01*
X162059904Y-43751333D01*
X162155142Y-43703714D01*
X162202761Y-43656095D01*
X162250380Y-43560857D01*
X162250380Y-43322761D01*
X162202761Y-43227523D01*
X162155142Y-43179904D01*
G04 #@! TO.C,SW6*
X170330761Y-41211666D02*
X170378380Y-41354523D01*
X170378380Y-41592619D01*
X170330761Y-41687857D01*
X170283142Y-41735476D01*
X170187904Y-41783095D01*
X170092666Y-41783095D01*
X169997428Y-41735476D01*
X169949809Y-41687857D01*
X169902190Y-41592619D01*
X169854571Y-41402142D01*
X169806952Y-41306904D01*
X169759333Y-41259285D01*
X169664095Y-41211666D01*
X169568857Y-41211666D01*
X169473619Y-41259285D01*
X169426000Y-41306904D01*
X169378380Y-41402142D01*
X169378380Y-41640238D01*
X169426000Y-41783095D01*
X169378380Y-42116428D02*
X170378380Y-42354523D01*
X169664095Y-42545000D01*
X170378380Y-42735476D01*
X169378380Y-42973571D01*
X169378380Y-43783095D02*
X169378380Y-43592619D01*
X169426000Y-43497380D01*
X169473619Y-43449761D01*
X169616476Y-43354523D01*
X169806952Y-43306904D01*
X170187904Y-43306904D01*
X170283142Y-43354523D01*
X170330761Y-43402142D01*
X170378380Y-43497380D01*
X170378380Y-43687857D01*
X170330761Y-43783095D01*
X170283142Y-43830714D01*
X170187904Y-43878333D01*
X169949809Y-43878333D01*
X169854571Y-43830714D01*
X169806952Y-43783095D01*
X169759333Y-43687857D01*
X169759333Y-43497380D01*
X169806952Y-43402142D01*
X169854571Y-43354523D01*
X169949809Y-43306904D01*
G04 #@! TO.C,SW7*
X177652761Y-42230666D02*
X177700380Y-42373523D01*
X177700380Y-42611619D01*
X177652761Y-42706857D01*
X177605142Y-42754476D01*
X177509904Y-42802095D01*
X177414666Y-42802095D01*
X177319428Y-42754476D01*
X177271809Y-42706857D01*
X177224190Y-42611619D01*
X177176571Y-42421142D01*
X177128952Y-42325904D01*
X177081333Y-42278285D01*
X176986095Y-42230666D01*
X176890857Y-42230666D01*
X176795619Y-42278285D01*
X176748000Y-42325904D01*
X176700380Y-42421142D01*
X176700380Y-42659238D01*
X176748000Y-42802095D01*
X176700380Y-43135428D02*
X177700380Y-43373523D01*
X176986095Y-43564000D01*
X177700380Y-43754476D01*
X176700380Y-43992571D01*
X176700380Y-44278285D02*
X176700380Y-44944952D01*
X177700380Y-44516380D01*
G04 #@! TO.C,R8*
X130754380Y-45158333D02*
X130278190Y-44825000D01*
X130754380Y-44586904D02*
X129754380Y-44586904D01*
X129754380Y-44967857D01*
X129802000Y-45063095D01*
X129849619Y-45110714D01*
X129944857Y-45158333D01*
X130087714Y-45158333D01*
X130182952Y-45110714D01*
X130230571Y-45063095D01*
X130278190Y-44967857D01*
X130278190Y-44586904D01*
X130182952Y-45729761D02*
X130135333Y-45634523D01*
X130087714Y-45586904D01*
X129992476Y-45539285D01*
X129944857Y-45539285D01*
X129849619Y-45586904D01*
X129802000Y-45634523D01*
X129754380Y-45729761D01*
X129754380Y-45920238D01*
X129802000Y-46015476D01*
X129849619Y-46063095D01*
X129944857Y-46110714D01*
X129992476Y-46110714D01*
X130087714Y-46063095D01*
X130135333Y-46015476D01*
X130182952Y-45920238D01*
X130182952Y-45729761D01*
X130230571Y-45634523D01*
X130278190Y-45586904D01*
X130373428Y-45539285D01*
X130563904Y-45539285D01*
X130659142Y-45586904D01*
X130706761Y-45634523D01*
X130754380Y-45729761D01*
X130754380Y-45920238D01*
X130706761Y-46015476D01*
X130659142Y-46063095D01*
X130563904Y-46110714D01*
X130373428Y-46110714D01*
X130278190Y-46063095D01*
X130230571Y-46015476D01*
X130182952Y-45920238D01*
G04 #@! TO.C,R9*
X132024380Y-38695333D02*
X131548190Y-38362000D01*
X132024380Y-38123904D02*
X131024380Y-38123904D01*
X131024380Y-38504857D01*
X131072000Y-38600095D01*
X131119619Y-38647714D01*
X131214857Y-38695333D01*
X131357714Y-38695333D01*
X131452952Y-38647714D01*
X131500571Y-38600095D01*
X131548190Y-38504857D01*
X131548190Y-38123904D01*
X132024380Y-39171523D02*
X132024380Y-39362000D01*
X131976761Y-39457238D01*
X131929142Y-39504857D01*
X131786285Y-39600095D01*
X131595809Y-39647714D01*
X131214857Y-39647714D01*
X131119619Y-39600095D01*
X131072000Y-39552476D01*
X131024380Y-39457238D01*
X131024380Y-39266761D01*
X131072000Y-39171523D01*
X131119619Y-39123904D01*
X131214857Y-39076285D01*
X131452952Y-39076285D01*
X131548190Y-39123904D01*
X131595809Y-39171523D01*
X131643428Y-39266761D01*
X131643428Y-39457238D01*
X131595809Y-39552476D01*
X131548190Y-39600095D01*
X131452952Y-39647714D01*
G04 #@! TO.C,R10*
X140406380Y-44315142D02*
X139930190Y-43981809D01*
X140406380Y-43743714D02*
X139406380Y-43743714D01*
X139406380Y-44124666D01*
X139454000Y-44219904D01*
X139501619Y-44267523D01*
X139596857Y-44315142D01*
X139739714Y-44315142D01*
X139834952Y-44267523D01*
X139882571Y-44219904D01*
X139930190Y-44124666D01*
X139930190Y-43743714D01*
X140406380Y-45267523D02*
X140406380Y-44696095D01*
X140406380Y-44981809D02*
X139406380Y-44981809D01*
X139549238Y-44886571D01*
X139644476Y-44791333D01*
X139692095Y-44696095D01*
X139406380Y-45886571D02*
X139406380Y-45981809D01*
X139454000Y-46077047D01*
X139501619Y-46124666D01*
X139596857Y-46172285D01*
X139787333Y-46219904D01*
X140025428Y-46219904D01*
X140215904Y-46172285D01*
X140311142Y-46124666D01*
X140358761Y-46077047D01*
X140406380Y-45981809D01*
X140406380Y-45886571D01*
X140358761Y-45791333D01*
X140311142Y-45743714D01*
X140215904Y-45696095D01*
X140025428Y-45648476D01*
X139787333Y-45648476D01*
X139596857Y-45696095D01*
X139501619Y-45743714D01*
X139454000Y-45791333D01*
X139406380Y-45886571D01*
G04 #@! TO.C,R11*
X149042380Y-44569142D02*
X148566190Y-44235809D01*
X149042380Y-43997714D02*
X148042380Y-43997714D01*
X148042380Y-44378666D01*
X148090000Y-44473904D01*
X148137619Y-44521523D01*
X148232857Y-44569142D01*
X148375714Y-44569142D01*
X148470952Y-44521523D01*
X148518571Y-44473904D01*
X148566190Y-44378666D01*
X148566190Y-43997714D01*
X149042380Y-45521523D02*
X149042380Y-44950095D01*
X149042380Y-45235809D02*
X148042380Y-45235809D01*
X148185238Y-45140571D01*
X148280476Y-45045333D01*
X148328095Y-44950095D01*
X149042380Y-46473904D02*
X149042380Y-45902476D01*
X149042380Y-46188190D02*
X148042380Y-46188190D01*
X148185238Y-46092952D01*
X148280476Y-45997714D01*
X148328095Y-45902476D01*
G04 #@! TO.C,R12*
X158186380Y-44823142D02*
X157710190Y-44489809D01*
X158186380Y-44251714D02*
X157186380Y-44251714D01*
X157186380Y-44632666D01*
X157234000Y-44727904D01*
X157281619Y-44775523D01*
X157376857Y-44823142D01*
X157519714Y-44823142D01*
X157614952Y-44775523D01*
X157662571Y-44727904D01*
X157710190Y-44632666D01*
X157710190Y-44251714D01*
X158186380Y-45775523D02*
X158186380Y-45204095D01*
X158186380Y-45489809D02*
X157186380Y-45489809D01*
X157329238Y-45394571D01*
X157424476Y-45299333D01*
X157472095Y-45204095D01*
X157281619Y-46156476D02*
X157234000Y-46204095D01*
X157186380Y-46299333D01*
X157186380Y-46537428D01*
X157234000Y-46632666D01*
X157281619Y-46680285D01*
X157376857Y-46727904D01*
X157472095Y-46727904D01*
X157614952Y-46680285D01*
X158186380Y-46108857D01*
X158186380Y-46727904D01*
G04 #@! TO.C,R13*
X166314380Y-44823142D02*
X165838190Y-44489809D01*
X166314380Y-44251714D02*
X165314380Y-44251714D01*
X165314380Y-44632666D01*
X165362000Y-44727904D01*
X165409619Y-44775523D01*
X165504857Y-44823142D01*
X165647714Y-44823142D01*
X165742952Y-44775523D01*
X165790571Y-44727904D01*
X165838190Y-44632666D01*
X165838190Y-44251714D01*
X166314380Y-45775523D02*
X166314380Y-45204095D01*
X166314380Y-45489809D02*
X165314380Y-45489809D01*
X165457238Y-45394571D01*
X165552476Y-45299333D01*
X165600095Y-45204095D01*
X165314380Y-46108857D02*
X165314380Y-46727904D01*
X165695333Y-46394571D01*
X165695333Y-46537428D01*
X165742952Y-46632666D01*
X165790571Y-46680285D01*
X165885809Y-46727904D01*
X166123904Y-46727904D01*
X166219142Y-46680285D01*
X166266761Y-46632666D01*
X166314380Y-46537428D01*
X166314380Y-46251714D01*
X166266761Y-46156476D01*
X166219142Y-46108857D01*
G04 #@! TO.C,R14*
X175298380Y-39348142D02*
X174822190Y-39014809D01*
X175298380Y-38776714D02*
X174298380Y-38776714D01*
X174298380Y-39157666D01*
X174346000Y-39252904D01*
X174393619Y-39300523D01*
X174488857Y-39348142D01*
X174631714Y-39348142D01*
X174726952Y-39300523D01*
X174774571Y-39252904D01*
X174822190Y-39157666D01*
X174822190Y-38776714D01*
X175298380Y-40300523D02*
X175298380Y-39729095D01*
X175298380Y-40014809D02*
X174298380Y-40014809D01*
X174441238Y-39919571D01*
X174536476Y-39824333D01*
X174584095Y-39729095D01*
X174631714Y-41157666D02*
X175298380Y-41157666D01*
X174250761Y-40919571D02*
X174965047Y-40681476D01*
X174965047Y-41300523D01*
G04 #@! TD*
M02*
