G04 #@! TF.GenerationSoftware,KiCad,Pcbnew,(5.0.2)-1*
G04 #@! TF.CreationDate,2019-03-03T15:18:12-06:00*
G04 #@! TF.ProjectId,DriveBoard_Hardware,44726976-6542-46f6-9172-645f48617264,rev?*
G04 #@! TF.SameCoordinates,Original*
G04 #@! TF.FileFunction,Paste,Bot*
G04 #@! TF.FilePolarity,Positive*
%FSLAX46Y46*%
G04 Gerber Fmt 4.6, Leading zero omitted, Abs format (unit mm)*
G04 Created by KiCad (PCBNEW (5.0.2)-1) date 3/3/2019 3:18:12 PM*
%MOMM*%
%LPD*%
G01*
G04 APERTURE LIST*
%ADD10R,0.990600X1.778000*%
G04 APERTURE END LIST*
D10*
G04 #@! TO.C,U4*
X71120000Y-137464800D03*
X93980000Y-88392000D03*
X91440000Y-88392000D03*
X83820000Y-88392000D03*
X81280000Y-131572000D03*
X86360000Y-88392000D03*
X88900000Y-88392000D03*
X86360000Y-137464800D03*
X91440000Y-131572000D03*
X81280000Y-88392000D03*
X78740000Y-88392000D03*
X91440000Y-137464800D03*
X86360000Y-131572000D03*
X83820000Y-131572000D03*
X71120000Y-131572000D03*
X73660000Y-131572000D03*
X76200000Y-131572000D03*
X78740000Y-131572000D03*
X88900000Y-131572000D03*
X93980000Y-131572000D03*
X73660000Y-137464800D03*
X76200000Y-137464800D03*
X78740000Y-137464800D03*
X81280000Y-137464800D03*
X83820000Y-137464800D03*
X88900000Y-137464800D03*
X93980000Y-137464800D03*
X71120000Y-94284800D03*
X73660000Y-94284800D03*
X76200000Y-94284800D03*
X78740000Y-94284800D03*
X81280000Y-94284800D03*
X83820000Y-94284800D03*
X86360000Y-94284800D03*
X88900000Y-94284800D03*
X91440000Y-94284800D03*
X93980000Y-94284800D03*
X71120000Y-88392000D03*
X73660000Y-88392000D03*
X76200000Y-88392000D03*
G04 #@! TD*
M02*
