M48
;DRILL file {KiCad (5.0.0)} date 12/16/18 15:07:26
;FORMAT={-:-/ absolute / inch / decimal}
FMAT,2
INCH,TZ
T1C0.0157
T2C0.0300
T3C0.0350
T4C0.0354
T5C0.0591
T6C0.1598
%
G90
G05
M72
T1
X4.87Y-2.18
X4.87Y-2.25
X4.87Y-2.32
X4.87Y-4.17
X4.9539Y-3.17
X4.97Y-3.25
X4.97Y-3.37
X4.97Y-3.48
X4.97Y-3.6
X4.99Y-4.26
X5.0161Y-3.1689
X5.03Y-3.11
X5.06Y-3.06
X5.13Y-1.67
X5.13Y-1.72
X5.17Y-4.17
X5.27Y-4.04
X5.37Y-4.04
X5.46Y-1.74
X5.71Y-4.04
X5.85Y-1.85
X5.88Y-4.16
X6.16Y-1.76
X6.57Y-1.75
X6.76Y-2.79
X6.7911Y-2.83
X6.8Y-2.16
X6.94Y-1.48
X7.Y-3.18
T2
X4.97Y-1.93
X5.07Y-1.93
X5.17Y-1.93
X5.27Y-1.93
X5.37Y-1.93
X5.65Y-1.93
X5.75Y-1.93
X5.85Y-1.93
X5.95Y-1.93
X6.05Y-1.93
X6.33Y-1.93
X6.43Y-1.93
X6.53Y-1.93
X6.63Y-1.93
X6.73Y-1.93
T3
X6.58Y-3.18
X6.58Y-3.28
X6.58Y-3.38
T4
X7.12Y-1.66
X7.12Y-1.7387
X7.12Y-1.8175
T5
X7.12Y-1.5773
X7.12Y-1.9002
T6
X6.109Y-3.77
X6.109Y-4.085
T0
M30
