G04 #@! TF.GenerationSoftware,KiCad,Pcbnew,(5.0.0)*
G04 #@! TF.CreationDate,2018-12-16T15:07:15-06:00*
G04 #@! TF.ProjectId,DriveBoard_Hardware,4472697665426F6172645F4861726477,rev?*
G04 #@! TF.SameCoordinates,Original*
G04 #@! TF.FileFunction,Profile,NP*
%FSLAX46Y46*%
G04 Gerber Fmt 4.6, Leading zero omitted, Abs format (unit mm)*
G04 Created by KiCad (PCBNEW (5.0.0)) date 12/16/18 15:07:15*
%MOMM*%
%LPD*%
G01*
G04 APERTURE LIST*
%ADD10C,0.150000*%
G04 APERTURE END LIST*
D10*
X122428000Y-37846000D02*
G75*
G02X124460000Y-35814000I2032000J0D01*
G01*
X181356000Y-35814000D02*
G75*
G02X183388000Y-37846000I0J-2032000D01*
G01*
X124460000Y-35814000D02*
X181356000Y-35814000D01*
X122428000Y-132588000D02*
X122428000Y-133096000D01*
X124968000Y-135128000D02*
X124460000Y-135128000D01*
X124460000Y-135128000D02*
G75*
G02X122428000Y-133096000I0J2032000D01*
G01*
X183388000Y-87376000D02*
G75*
G02X181356000Y-89408000I-2032000J0D01*
G01*
X181356000Y-110236000D02*
G75*
G02X183388000Y-112268000I0J-2032000D01*
G01*
X183388000Y-124460000D02*
G75*
G02X183388000Y-120396000I0J2032000D01*
G01*
X183388000Y-124460000D02*
X183388000Y-133096000D01*
X183388000Y-133096000D02*
G75*
G02X181356000Y-135128000I-2032000J0D01*
G01*
X181356000Y-135128000D02*
X130810000Y-135128000D01*
X183388000Y-112268000D02*
X183388000Y-120396000D01*
X165608000Y-110236000D02*
X181356000Y-110236000D01*
X165608000Y-89408000D02*
X165608000Y-110236000D01*
X181356000Y-89408000D02*
X165608000Y-89408000D01*
X183388000Y-37846000D02*
X183388000Y-87376000D01*
X122428000Y-120396000D02*
G75*
G02X122428000Y-124460000I0J-2032000D01*
G01*
X124968000Y-135128000D02*
X130810000Y-135128000D01*
X122428000Y-124460000D02*
X122428000Y-132588000D01*
X122428000Y-37846000D02*
X122428000Y-120396000D01*
M02*
