G04 #@! TF.GenerationSoftware,KiCad,Pcbnew,(5.0.0)*
G04 #@! TF.CreationDate,2018-12-16T15:07:15-06:00*
G04 #@! TF.ProjectId,DriveBoard_Hardware,4472697665426F6172645F4861726477,rev?*
G04 #@! TF.SameCoordinates,Original*
G04 #@! TF.FileFunction,Soldermask,Top*
G04 #@! TF.FilePolarity,Negative*
%FSLAX46Y46*%
G04 Gerber Fmt 4.6, Leading zero omitted, Abs format (unit mm)*
G04 Created by KiCad (PCBNEW (5.0.0)) date 12/16/18 15:07:15*
%MOMM*%
%LPD*%
G01*
G04 APERTURE LIST*
%ADD10C,0.100000*%
%ADD11C,1.350000*%
%ADD12C,1.924000*%
%ADD13C,5.480000*%
%ADD14R,1.900000X1.000000*%
%ADD15R,2.900000X1.900000*%
%ADD16O,2.900000X1.900000*%
%ADD17O,3.900000X2.600000*%
G04 APERTURE END LIST*
D10*
G04 #@! TO.C,R2*
G36*
X131230581Y-54190625D02*
X131263343Y-54195485D01*
X131295471Y-54203533D01*
X131326656Y-54214691D01*
X131356596Y-54228852D01*
X131385005Y-54245879D01*
X131411608Y-54265609D01*
X131436149Y-54287851D01*
X131458391Y-54312392D01*
X131478121Y-54338995D01*
X131495148Y-54367404D01*
X131509309Y-54397344D01*
X131520467Y-54428529D01*
X131528515Y-54460657D01*
X131533375Y-54493419D01*
X131535000Y-54526500D01*
X131535000Y-55201500D01*
X131533375Y-55234581D01*
X131528515Y-55267343D01*
X131520467Y-55299471D01*
X131509309Y-55330656D01*
X131495148Y-55360596D01*
X131478121Y-55389005D01*
X131458391Y-55415608D01*
X131436149Y-55440149D01*
X131411608Y-55462391D01*
X131385005Y-55482121D01*
X131356596Y-55499148D01*
X131326656Y-55513309D01*
X131295471Y-55524467D01*
X131263343Y-55532515D01*
X131230581Y-55537375D01*
X131197500Y-55539000D01*
X130422500Y-55539000D01*
X130389419Y-55537375D01*
X130356657Y-55532515D01*
X130324529Y-55524467D01*
X130293344Y-55513309D01*
X130263404Y-55499148D01*
X130234995Y-55482121D01*
X130208392Y-55462391D01*
X130183851Y-55440149D01*
X130161609Y-55415608D01*
X130141879Y-55389005D01*
X130124852Y-55360596D01*
X130110691Y-55330656D01*
X130099533Y-55299471D01*
X130091485Y-55267343D01*
X130086625Y-55234581D01*
X130085000Y-55201500D01*
X130085000Y-54526500D01*
X130086625Y-54493419D01*
X130091485Y-54460657D01*
X130099533Y-54428529D01*
X130110691Y-54397344D01*
X130124852Y-54367404D01*
X130141879Y-54338995D01*
X130161609Y-54312392D01*
X130183851Y-54287851D01*
X130208392Y-54265609D01*
X130234995Y-54245879D01*
X130263404Y-54228852D01*
X130293344Y-54214691D01*
X130324529Y-54203533D01*
X130356657Y-54195485D01*
X130389419Y-54190625D01*
X130422500Y-54189000D01*
X131197500Y-54189000D01*
X131230581Y-54190625D01*
X131230581Y-54190625D01*
G37*
D11*
X130810000Y-54864000D03*
D10*
G36*
X132980581Y-54190625D02*
X133013343Y-54195485D01*
X133045471Y-54203533D01*
X133076656Y-54214691D01*
X133106596Y-54228852D01*
X133135005Y-54245879D01*
X133161608Y-54265609D01*
X133186149Y-54287851D01*
X133208391Y-54312392D01*
X133228121Y-54338995D01*
X133245148Y-54367404D01*
X133259309Y-54397344D01*
X133270467Y-54428529D01*
X133278515Y-54460657D01*
X133283375Y-54493419D01*
X133285000Y-54526500D01*
X133285000Y-55201500D01*
X133283375Y-55234581D01*
X133278515Y-55267343D01*
X133270467Y-55299471D01*
X133259309Y-55330656D01*
X133245148Y-55360596D01*
X133228121Y-55389005D01*
X133208391Y-55415608D01*
X133186149Y-55440149D01*
X133161608Y-55462391D01*
X133135005Y-55482121D01*
X133106596Y-55499148D01*
X133076656Y-55513309D01*
X133045471Y-55524467D01*
X133013343Y-55532515D01*
X132980581Y-55537375D01*
X132947500Y-55539000D01*
X132172500Y-55539000D01*
X132139419Y-55537375D01*
X132106657Y-55532515D01*
X132074529Y-55524467D01*
X132043344Y-55513309D01*
X132013404Y-55499148D01*
X131984995Y-55482121D01*
X131958392Y-55462391D01*
X131933851Y-55440149D01*
X131911609Y-55415608D01*
X131891879Y-55389005D01*
X131874852Y-55360596D01*
X131860691Y-55330656D01*
X131849533Y-55299471D01*
X131841485Y-55267343D01*
X131836625Y-55234581D01*
X131835000Y-55201500D01*
X131835000Y-54526500D01*
X131836625Y-54493419D01*
X131841485Y-54460657D01*
X131849533Y-54428529D01*
X131860691Y-54397344D01*
X131874852Y-54367404D01*
X131891879Y-54338995D01*
X131911609Y-54312392D01*
X131933851Y-54287851D01*
X131958392Y-54265609D01*
X131984995Y-54245879D01*
X132013404Y-54228852D01*
X132043344Y-54214691D01*
X132074529Y-54203533D01*
X132106657Y-54195485D01*
X132139419Y-54190625D01*
X132172500Y-54189000D01*
X132947500Y-54189000D01*
X132980581Y-54190625D01*
X132980581Y-54190625D01*
G37*
D11*
X132560000Y-54864000D03*
G04 #@! TD*
D10*
G04 #@! TO.C,R3*
G36*
X148530581Y-54190625D02*
X148563343Y-54195485D01*
X148595471Y-54203533D01*
X148626656Y-54214691D01*
X148656596Y-54228852D01*
X148685005Y-54245879D01*
X148711608Y-54265609D01*
X148736149Y-54287851D01*
X148758391Y-54312392D01*
X148778121Y-54338995D01*
X148795148Y-54367404D01*
X148809309Y-54397344D01*
X148820467Y-54428529D01*
X148828515Y-54460657D01*
X148833375Y-54493419D01*
X148835000Y-54526500D01*
X148835000Y-55201500D01*
X148833375Y-55234581D01*
X148828515Y-55267343D01*
X148820467Y-55299471D01*
X148809309Y-55330656D01*
X148795148Y-55360596D01*
X148778121Y-55389005D01*
X148758391Y-55415608D01*
X148736149Y-55440149D01*
X148711608Y-55462391D01*
X148685005Y-55482121D01*
X148656596Y-55499148D01*
X148626656Y-55513309D01*
X148595471Y-55524467D01*
X148563343Y-55532515D01*
X148530581Y-55537375D01*
X148497500Y-55539000D01*
X147722500Y-55539000D01*
X147689419Y-55537375D01*
X147656657Y-55532515D01*
X147624529Y-55524467D01*
X147593344Y-55513309D01*
X147563404Y-55499148D01*
X147534995Y-55482121D01*
X147508392Y-55462391D01*
X147483851Y-55440149D01*
X147461609Y-55415608D01*
X147441879Y-55389005D01*
X147424852Y-55360596D01*
X147410691Y-55330656D01*
X147399533Y-55299471D01*
X147391485Y-55267343D01*
X147386625Y-55234581D01*
X147385000Y-55201500D01*
X147385000Y-54526500D01*
X147386625Y-54493419D01*
X147391485Y-54460657D01*
X147399533Y-54428529D01*
X147410691Y-54397344D01*
X147424852Y-54367404D01*
X147441879Y-54338995D01*
X147461609Y-54312392D01*
X147483851Y-54287851D01*
X147508392Y-54265609D01*
X147534995Y-54245879D01*
X147563404Y-54228852D01*
X147593344Y-54214691D01*
X147624529Y-54203533D01*
X147656657Y-54195485D01*
X147689419Y-54190625D01*
X147722500Y-54189000D01*
X148497500Y-54189000D01*
X148530581Y-54190625D01*
X148530581Y-54190625D01*
G37*
D11*
X148110000Y-54864000D03*
D10*
G36*
X150280581Y-54190625D02*
X150313343Y-54195485D01*
X150345471Y-54203533D01*
X150376656Y-54214691D01*
X150406596Y-54228852D01*
X150435005Y-54245879D01*
X150461608Y-54265609D01*
X150486149Y-54287851D01*
X150508391Y-54312392D01*
X150528121Y-54338995D01*
X150545148Y-54367404D01*
X150559309Y-54397344D01*
X150570467Y-54428529D01*
X150578515Y-54460657D01*
X150583375Y-54493419D01*
X150585000Y-54526500D01*
X150585000Y-55201500D01*
X150583375Y-55234581D01*
X150578515Y-55267343D01*
X150570467Y-55299471D01*
X150559309Y-55330656D01*
X150545148Y-55360596D01*
X150528121Y-55389005D01*
X150508391Y-55415608D01*
X150486149Y-55440149D01*
X150461608Y-55462391D01*
X150435005Y-55482121D01*
X150406596Y-55499148D01*
X150376656Y-55513309D01*
X150345471Y-55524467D01*
X150313343Y-55532515D01*
X150280581Y-55537375D01*
X150247500Y-55539000D01*
X149472500Y-55539000D01*
X149439419Y-55537375D01*
X149406657Y-55532515D01*
X149374529Y-55524467D01*
X149343344Y-55513309D01*
X149313404Y-55499148D01*
X149284995Y-55482121D01*
X149258392Y-55462391D01*
X149233851Y-55440149D01*
X149211609Y-55415608D01*
X149191879Y-55389005D01*
X149174852Y-55360596D01*
X149160691Y-55330656D01*
X149149533Y-55299471D01*
X149141485Y-55267343D01*
X149136625Y-55234581D01*
X149135000Y-55201500D01*
X149135000Y-54526500D01*
X149136625Y-54493419D01*
X149141485Y-54460657D01*
X149149533Y-54428529D01*
X149160691Y-54397344D01*
X149174852Y-54367404D01*
X149191879Y-54338995D01*
X149211609Y-54312392D01*
X149233851Y-54287851D01*
X149258392Y-54265609D01*
X149284995Y-54245879D01*
X149313404Y-54228852D01*
X149343344Y-54214691D01*
X149374529Y-54203533D01*
X149406657Y-54195485D01*
X149439419Y-54190625D01*
X149472500Y-54189000D01*
X150247500Y-54189000D01*
X150280581Y-54190625D01*
X150280581Y-54190625D01*
G37*
D11*
X149860000Y-54864000D03*
G04 #@! TD*
D10*
G04 #@! TO.C,R4*
G36*
X165802581Y-54190625D02*
X165835343Y-54195485D01*
X165867471Y-54203533D01*
X165898656Y-54214691D01*
X165928596Y-54228852D01*
X165957005Y-54245879D01*
X165983608Y-54265609D01*
X166008149Y-54287851D01*
X166030391Y-54312392D01*
X166050121Y-54338995D01*
X166067148Y-54367404D01*
X166081309Y-54397344D01*
X166092467Y-54428529D01*
X166100515Y-54460657D01*
X166105375Y-54493419D01*
X166107000Y-54526500D01*
X166107000Y-55201500D01*
X166105375Y-55234581D01*
X166100515Y-55267343D01*
X166092467Y-55299471D01*
X166081309Y-55330656D01*
X166067148Y-55360596D01*
X166050121Y-55389005D01*
X166030391Y-55415608D01*
X166008149Y-55440149D01*
X165983608Y-55462391D01*
X165957005Y-55482121D01*
X165928596Y-55499148D01*
X165898656Y-55513309D01*
X165867471Y-55524467D01*
X165835343Y-55532515D01*
X165802581Y-55537375D01*
X165769500Y-55539000D01*
X164994500Y-55539000D01*
X164961419Y-55537375D01*
X164928657Y-55532515D01*
X164896529Y-55524467D01*
X164865344Y-55513309D01*
X164835404Y-55499148D01*
X164806995Y-55482121D01*
X164780392Y-55462391D01*
X164755851Y-55440149D01*
X164733609Y-55415608D01*
X164713879Y-55389005D01*
X164696852Y-55360596D01*
X164682691Y-55330656D01*
X164671533Y-55299471D01*
X164663485Y-55267343D01*
X164658625Y-55234581D01*
X164657000Y-55201500D01*
X164657000Y-54526500D01*
X164658625Y-54493419D01*
X164663485Y-54460657D01*
X164671533Y-54428529D01*
X164682691Y-54397344D01*
X164696852Y-54367404D01*
X164713879Y-54338995D01*
X164733609Y-54312392D01*
X164755851Y-54287851D01*
X164780392Y-54265609D01*
X164806995Y-54245879D01*
X164835404Y-54228852D01*
X164865344Y-54214691D01*
X164896529Y-54203533D01*
X164928657Y-54195485D01*
X164961419Y-54190625D01*
X164994500Y-54189000D01*
X165769500Y-54189000D01*
X165802581Y-54190625D01*
X165802581Y-54190625D01*
G37*
D11*
X165382000Y-54864000D03*
D10*
G36*
X167552581Y-54190625D02*
X167585343Y-54195485D01*
X167617471Y-54203533D01*
X167648656Y-54214691D01*
X167678596Y-54228852D01*
X167707005Y-54245879D01*
X167733608Y-54265609D01*
X167758149Y-54287851D01*
X167780391Y-54312392D01*
X167800121Y-54338995D01*
X167817148Y-54367404D01*
X167831309Y-54397344D01*
X167842467Y-54428529D01*
X167850515Y-54460657D01*
X167855375Y-54493419D01*
X167857000Y-54526500D01*
X167857000Y-55201500D01*
X167855375Y-55234581D01*
X167850515Y-55267343D01*
X167842467Y-55299471D01*
X167831309Y-55330656D01*
X167817148Y-55360596D01*
X167800121Y-55389005D01*
X167780391Y-55415608D01*
X167758149Y-55440149D01*
X167733608Y-55462391D01*
X167707005Y-55482121D01*
X167678596Y-55499148D01*
X167648656Y-55513309D01*
X167617471Y-55524467D01*
X167585343Y-55532515D01*
X167552581Y-55537375D01*
X167519500Y-55539000D01*
X166744500Y-55539000D01*
X166711419Y-55537375D01*
X166678657Y-55532515D01*
X166646529Y-55524467D01*
X166615344Y-55513309D01*
X166585404Y-55499148D01*
X166556995Y-55482121D01*
X166530392Y-55462391D01*
X166505851Y-55440149D01*
X166483609Y-55415608D01*
X166463879Y-55389005D01*
X166446852Y-55360596D01*
X166432691Y-55330656D01*
X166421533Y-55299471D01*
X166413485Y-55267343D01*
X166408625Y-55234581D01*
X166407000Y-55201500D01*
X166407000Y-54526500D01*
X166408625Y-54493419D01*
X166413485Y-54460657D01*
X166421533Y-54428529D01*
X166432691Y-54397344D01*
X166446852Y-54367404D01*
X166463879Y-54338995D01*
X166483609Y-54312392D01*
X166505851Y-54287851D01*
X166530392Y-54265609D01*
X166556995Y-54245879D01*
X166585404Y-54228852D01*
X166615344Y-54214691D01*
X166646529Y-54203533D01*
X166678657Y-54195485D01*
X166711419Y-54190625D01*
X166744500Y-54189000D01*
X167519500Y-54189000D01*
X167552581Y-54190625D01*
X167552581Y-54190625D01*
G37*
D11*
X167132000Y-54864000D03*
G04 #@! TD*
D10*
G04 #@! TO.C,R5*
G36*
X149722581Y-98816625D02*
X149755343Y-98821485D01*
X149787471Y-98829533D01*
X149818656Y-98840691D01*
X149848596Y-98854852D01*
X149877005Y-98871879D01*
X149903608Y-98891609D01*
X149928149Y-98913851D01*
X149950391Y-98938392D01*
X149970121Y-98964995D01*
X149987148Y-98993404D01*
X150001309Y-99023344D01*
X150012467Y-99054529D01*
X150020515Y-99086657D01*
X150025375Y-99119419D01*
X150027000Y-99152500D01*
X150027000Y-99927500D01*
X150025375Y-99960581D01*
X150020515Y-99993343D01*
X150012467Y-100025471D01*
X150001309Y-100056656D01*
X149987148Y-100086596D01*
X149970121Y-100115005D01*
X149950391Y-100141608D01*
X149928149Y-100166149D01*
X149903608Y-100188391D01*
X149877005Y-100208121D01*
X149848596Y-100225148D01*
X149818656Y-100239309D01*
X149787471Y-100250467D01*
X149755343Y-100258515D01*
X149722581Y-100263375D01*
X149689500Y-100265000D01*
X149014500Y-100265000D01*
X148981419Y-100263375D01*
X148948657Y-100258515D01*
X148916529Y-100250467D01*
X148885344Y-100239309D01*
X148855404Y-100225148D01*
X148826995Y-100208121D01*
X148800392Y-100188391D01*
X148775851Y-100166149D01*
X148753609Y-100141608D01*
X148733879Y-100115005D01*
X148716852Y-100086596D01*
X148702691Y-100056656D01*
X148691533Y-100025471D01*
X148683485Y-99993343D01*
X148678625Y-99960581D01*
X148677000Y-99927500D01*
X148677000Y-99152500D01*
X148678625Y-99119419D01*
X148683485Y-99086657D01*
X148691533Y-99054529D01*
X148702691Y-99023344D01*
X148716852Y-98993404D01*
X148733879Y-98964995D01*
X148753609Y-98938392D01*
X148775851Y-98913851D01*
X148800392Y-98891609D01*
X148826995Y-98871879D01*
X148855404Y-98854852D01*
X148885344Y-98840691D01*
X148916529Y-98829533D01*
X148948657Y-98821485D01*
X148981419Y-98816625D01*
X149014500Y-98815000D01*
X149689500Y-98815000D01*
X149722581Y-98816625D01*
X149722581Y-98816625D01*
G37*
D11*
X149352000Y-99540000D03*
D10*
G36*
X149722581Y-97066625D02*
X149755343Y-97071485D01*
X149787471Y-97079533D01*
X149818656Y-97090691D01*
X149848596Y-97104852D01*
X149877005Y-97121879D01*
X149903608Y-97141609D01*
X149928149Y-97163851D01*
X149950391Y-97188392D01*
X149970121Y-97214995D01*
X149987148Y-97243404D01*
X150001309Y-97273344D01*
X150012467Y-97304529D01*
X150020515Y-97336657D01*
X150025375Y-97369419D01*
X150027000Y-97402500D01*
X150027000Y-98177500D01*
X150025375Y-98210581D01*
X150020515Y-98243343D01*
X150012467Y-98275471D01*
X150001309Y-98306656D01*
X149987148Y-98336596D01*
X149970121Y-98365005D01*
X149950391Y-98391608D01*
X149928149Y-98416149D01*
X149903608Y-98438391D01*
X149877005Y-98458121D01*
X149848596Y-98475148D01*
X149818656Y-98489309D01*
X149787471Y-98500467D01*
X149755343Y-98508515D01*
X149722581Y-98513375D01*
X149689500Y-98515000D01*
X149014500Y-98515000D01*
X148981419Y-98513375D01*
X148948657Y-98508515D01*
X148916529Y-98500467D01*
X148885344Y-98489309D01*
X148855404Y-98475148D01*
X148826995Y-98458121D01*
X148800392Y-98438391D01*
X148775851Y-98416149D01*
X148753609Y-98391608D01*
X148733879Y-98365005D01*
X148716852Y-98336596D01*
X148702691Y-98306656D01*
X148691533Y-98275471D01*
X148683485Y-98243343D01*
X148678625Y-98210581D01*
X148677000Y-98177500D01*
X148677000Y-97402500D01*
X148678625Y-97369419D01*
X148683485Y-97336657D01*
X148691533Y-97304529D01*
X148702691Y-97273344D01*
X148716852Y-97243404D01*
X148733879Y-97214995D01*
X148753609Y-97188392D01*
X148775851Y-97163851D01*
X148800392Y-97141609D01*
X148826995Y-97121879D01*
X148855404Y-97104852D01*
X148885344Y-97090691D01*
X148916529Y-97079533D01*
X148948657Y-97071485D01*
X148981419Y-97066625D01*
X149014500Y-97065000D01*
X149689500Y-97065000D01*
X149722581Y-97066625D01*
X149722581Y-97066625D01*
G37*
D11*
X149352000Y-97790000D03*
G04 #@! TD*
D10*
G04 #@! TO.C,R6*
G36*
X145404581Y-98816625D02*
X145437343Y-98821485D01*
X145469471Y-98829533D01*
X145500656Y-98840691D01*
X145530596Y-98854852D01*
X145559005Y-98871879D01*
X145585608Y-98891609D01*
X145610149Y-98913851D01*
X145632391Y-98938392D01*
X145652121Y-98964995D01*
X145669148Y-98993404D01*
X145683309Y-99023344D01*
X145694467Y-99054529D01*
X145702515Y-99086657D01*
X145707375Y-99119419D01*
X145709000Y-99152500D01*
X145709000Y-99927500D01*
X145707375Y-99960581D01*
X145702515Y-99993343D01*
X145694467Y-100025471D01*
X145683309Y-100056656D01*
X145669148Y-100086596D01*
X145652121Y-100115005D01*
X145632391Y-100141608D01*
X145610149Y-100166149D01*
X145585608Y-100188391D01*
X145559005Y-100208121D01*
X145530596Y-100225148D01*
X145500656Y-100239309D01*
X145469471Y-100250467D01*
X145437343Y-100258515D01*
X145404581Y-100263375D01*
X145371500Y-100265000D01*
X144696500Y-100265000D01*
X144663419Y-100263375D01*
X144630657Y-100258515D01*
X144598529Y-100250467D01*
X144567344Y-100239309D01*
X144537404Y-100225148D01*
X144508995Y-100208121D01*
X144482392Y-100188391D01*
X144457851Y-100166149D01*
X144435609Y-100141608D01*
X144415879Y-100115005D01*
X144398852Y-100086596D01*
X144384691Y-100056656D01*
X144373533Y-100025471D01*
X144365485Y-99993343D01*
X144360625Y-99960581D01*
X144359000Y-99927500D01*
X144359000Y-99152500D01*
X144360625Y-99119419D01*
X144365485Y-99086657D01*
X144373533Y-99054529D01*
X144384691Y-99023344D01*
X144398852Y-98993404D01*
X144415879Y-98964995D01*
X144435609Y-98938392D01*
X144457851Y-98913851D01*
X144482392Y-98891609D01*
X144508995Y-98871879D01*
X144537404Y-98854852D01*
X144567344Y-98840691D01*
X144598529Y-98829533D01*
X144630657Y-98821485D01*
X144663419Y-98816625D01*
X144696500Y-98815000D01*
X145371500Y-98815000D01*
X145404581Y-98816625D01*
X145404581Y-98816625D01*
G37*
D11*
X145034000Y-99540000D03*
D10*
G36*
X145404581Y-97066625D02*
X145437343Y-97071485D01*
X145469471Y-97079533D01*
X145500656Y-97090691D01*
X145530596Y-97104852D01*
X145559005Y-97121879D01*
X145585608Y-97141609D01*
X145610149Y-97163851D01*
X145632391Y-97188392D01*
X145652121Y-97214995D01*
X145669148Y-97243404D01*
X145683309Y-97273344D01*
X145694467Y-97304529D01*
X145702515Y-97336657D01*
X145707375Y-97369419D01*
X145709000Y-97402500D01*
X145709000Y-98177500D01*
X145707375Y-98210581D01*
X145702515Y-98243343D01*
X145694467Y-98275471D01*
X145683309Y-98306656D01*
X145669148Y-98336596D01*
X145652121Y-98365005D01*
X145632391Y-98391608D01*
X145610149Y-98416149D01*
X145585608Y-98438391D01*
X145559005Y-98458121D01*
X145530596Y-98475148D01*
X145500656Y-98489309D01*
X145469471Y-98500467D01*
X145437343Y-98508515D01*
X145404581Y-98513375D01*
X145371500Y-98515000D01*
X144696500Y-98515000D01*
X144663419Y-98513375D01*
X144630657Y-98508515D01*
X144598529Y-98500467D01*
X144567344Y-98489309D01*
X144537404Y-98475148D01*
X144508995Y-98458121D01*
X144482392Y-98438391D01*
X144457851Y-98416149D01*
X144435609Y-98391608D01*
X144415879Y-98365005D01*
X144398852Y-98336596D01*
X144384691Y-98306656D01*
X144373533Y-98275471D01*
X144365485Y-98243343D01*
X144360625Y-98210581D01*
X144359000Y-98177500D01*
X144359000Y-97402500D01*
X144360625Y-97369419D01*
X144365485Y-97336657D01*
X144373533Y-97304529D01*
X144384691Y-97273344D01*
X144398852Y-97243404D01*
X144415879Y-97214995D01*
X144435609Y-97188392D01*
X144457851Y-97163851D01*
X144482392Y-97141609D01*
X144508995Y-97121879D01*
X144537404Y-97104852D01*
X144567344Y-97090691D01*
X144598529Y-97079533D01*
X144630657Y-97071485D01*
X144663419Y-97066625D01*
X144696500Y-97065000D01*
X145371500Y-97065000D01*
X145404581Y-97066625D01*
X145404581Y-97066625D01*
G37*
D11*
X145034000Y-97790000D03*
G04 #@! TD*
D10*
G04 #@! TO.C,R7*
G36*
X141340581Y-98703625D02*
X141373343Y-98708485D01*
X141405471Y-98716533D01*
X141436656Y-98727691D01*
X141466596Y-98741852D01*
X141495005Y-98758879D01*
X141521608Y-98778609D01*
X141546149Y-98800851D01*
X141568391Y-98825392D01*
X141588121Y-98851995D01*
X141605148Y-98880404D01*
X141619309Y-98910344D01*
X141630467Y-98941529D01*
X141638515Y-98973657D01*
X141643375Y-99006419D01*
X141645000Y-99039500D01*
X141645000Y-99814500D01*
X141643375Y-99847581D01*
X141638515Y-99880343D01*
X141630467Y-99912471D01*
X141619309Y-99943656D01*
X141605148Y-99973596D01*
X141588121Y-100002005D01*
X141568391Y-100028608D01*
X141546149Y-100053149D01*
X141521608Y-100075391D01*
X141495005Y-100095121D01*
X141466596Y-100112148D01*
X141436656Y-100126309D01*
X141405471Y-100137467D01*
X141373343Y-100145515D01*
X141340581Y-100150375D01*
X141307500Y-100152000D01*
X140632500Y-100152000D01*
X140599419Y-100150375D01*
X140566657Y-100145515D01*
X140534529Y-100137467D01*
X140503344Y-100126309D01*
X140473404Y-100112148D01*
X140444995Y-100095121D01*
X140418392Y-100075391D01*
X140393851Y-100053149D01*
X140371609Y-100028608D01*
X140351879Y-100002005D01*
X140334852Y-99973596D01*
X140320691Y-99943656D01*
X140309533Y-99912471D01*
X140301485Y-99880343D01*
X140296625Y-99847581D01*
X140295000Y-99814500D01*
X140295000Y-99039500D01*
X140296625Y-99006419D01*
X140301485Y-98973657D01*
X140309533Y-98941529D01*
X140320691Y-98910344D01*
X140334852Y-98880404D01*
X140351879Y-98851995D01*
X140371609Y-98825392D01*
X140393851Y-98800851D01*
X140418392Y-98778609D01*
X140444995Y-98758879D01*
X140473404Y-98741852D01*
X140503344Y-98727691D01*
X140534529Y-98716533D01*
X140566657Y-98708485D01*
X140599419Y-98703625D01*
X140632500Y-98702000D01*
X141307500Y-98702000D01*
X141340581Y-98703625D01*
X141340581Y-98703625D01*
G37*
D11*
X140970000Y-99427000D03*
D10*
G36*
X141340581Y-96953625D02*
X141373343Y-96958485D01*
X141405471Y-96966533D01*
X141436656Y-96977691D01*
X141466596Y-96991852D01*
X141495005Y-97008879D01*
X141521608Y-97028609D01*
X141546149Y-97050851D01*
X141568391Y-97075392D01*
X141588121Y-97101995D01*
X141605148Y-97130404D01*
X141619309Y-97160344D01*
X141630467Y-97191529D01*
X141638515Y-97223657D01*
X141643375Y-97256419D01*
X141645000Y-97289500D01*
X141645000Y-98064500D01*
X141643375Y-98097581D01*
X141638515Y-98130343D01*
X141630467Y-98162471D01*
X141619309Y-98193656D01*
X141605148Y-98223596D01*
X141588121Y-98252005D01*
X141568391Y-98278608D01*
X141546149Y-98303149D01*
X141521608Y-98325391D01*
X141495005Y-98345121D01*
X141466596Y-98362148D01*
X141436656Y-98376309D01*
X141405471Y-98387467D01*
X141373343Y-98395515D01*
X141340581Y-98400375D01*
X141307500Y-98402000D01*
X140632500Y-98402000D01*
X140599419Y-98400375D01*
X140566657Y-98395515D01*
X140534529Y-98387467D01*
X140503344Y-98376309D01*
X140473404Y-98362148D01*
X140444995Y-98345121D01*
X140418392Y-98325391D01*
X140393851Y-98303149D01*
X140371609Y-98278608D01*
X140351879Y-98252005D01*
X140334852Y-98223596D01*
X140320691Y-98193656D01*
X140309533Y-98162471D01*
X140301485Y-98130343D01*
X140296625Y-98097581D01*
X140295000Y-98064500D01*
X140295000Y-97289500D01*
X140296625Y-97256419D01*
X140301485Y-97223657D01*
X140309533Y-97191529D01*
X140320691Y-97160344D01*
X140334852Y-97130404D01*
X140351879Y-97101995D01*
X140371609Y-97075392D01*
X140393851Y-97050851D01*
X140418392Y-97028609D01*
X140444995Y-97008879D01*
X140473404Y-96991852D01*
X140503344Y-96977691D01*
X140534529Y-96966533D01*
X140566657Y-96958485D01*
X140599419Y-96953625D01*
X140632500Y-96952000D01*
X141307500Y-96952000D01*
X141340581Y-96953625D01*
X141340581Y-96953625D01*
G37*
D11*
X140970000Y-97677000D03*
G04 #@! TD*
D10*
G04 #@! TO.C,R1*
G36*
X137276581Y-98703625D02*
X137309343Y-98708485D01*
X137341471Y-98716533D01*
X137372656Y-98727691D01*
X137402596Y-98741852D01*
X137431005Y-98758879D01*
X137457608Y-98778609D01*
X137482149Y-98800851D01*
X137504391Y-98825392D01*
X137524121Y-98851995D01*
X137541148Y-98880404D01*
X137555309Y-98910344D01*
X137566467Y-98941529D01*
X137574515Y-98973657D01*
X137579375Y-99006419D01*
X137581000Y-99039500D01*
X137581000Y-99814500D01*
X137579375Y-99847581D01*
X137574515Y-99880343D01*
X137566467Y-99912471D01*
X137555309Y-99943656D01*
X137541148Y-99973596D01*
X137524121Y-100002005D01*
X137504391Y-100028608D01*
X137482149Y-100053149D01*
X137457608Y-100075391D01*
X137431005Y-100095121D01*
X137402596Y-100112148D01*
X137372656Y-100126309D01*
X137341471Y-100137467D01*
X137309343Y-100145515D01*
X137276581Y-100150375D01*
X137243500Y-100152000D01*
X136568500Y-100152000D01*
X136535419Y-100150375D01*
X136502657Y-100145515D01*
X136470529Y-100137467D01*
X136439344Y-100126309D01*
X136409404Y-100112148D01*
X136380995Y-100095121D01*
X136354392Y-100075391D01*
X136329851Y-100053149D01*
X136307609Y-100028608D01*
X136287879Y-100002005D01*
X136270852Y-99973596D01*
X136256691Y-99943656D01*
X136245533Y-99912471D01*
X136237485Y-99880343D01*
X136232625Y-99847581D01*
X136231000Y-99814500D01*
X136231000Y-99039500D01*
X136232625Y-99006419D01*
X136237485Y-98973657D01*
X136245533Y-98941529D01*
X136256691Y-98910344D01*
X136270852Y-98880404D01*
X136287879Y-98851995D01*
X136307609Y-98825392D01*
X136329851Y-98800851D01*
X136354392Y-98778609D01*
X136380995Y-98758879D01*
X136409404Y-98741852D01*
X136439344Y-98727691D01*
X136470529Y-98716533D01*
X136502657Y-98708485D01*
X136535419Y-98703625D01*
X136568500Y-98702000D01*
X137243500Y-98702000D01*
X137276581Y-98703625D01*
X137276581Y-98703625D01*
G37*
D11*
X136906000Y-99427000D03*
D10*
G36*
X137276581Y-96953625D02*
X137309343Y-96958485D01*
X137341471Y-96966533D01*
X137372656Y-96977691D01*
X137402596Y-96991852D01*
X137431005Y-97008879D01*
X137457608Y-97028609D01*
X137482149Y-97050851D01*
X137504391Y-97075392D01*
X137524121Y-97101995D01*
X137541148Y-97130404D01*
X137555309Y-97160344D01*
X137566467Y-97191529D01*
X137574515Y-97223657D01*
X137579375Y-97256419D01*
X137581000Y-97289500D01*
X137581000Y-98064500D01*
X137579375Y-98097581D01*
X137574515Y-98130343D01*
X137566467Y-98162471D01*
X137555309Y-98193656D01*
X137541148Y-98223596D01*
X137524121Y-98252005D01*
X137504391Y-98278608D01*
X137482149Y-98303149D01*
X137457608Y-98325391D01*
X137431005Y-98345121D01*
X137402596Y-98362148D01*
X137372656Y-98376309D01*
X137341471Y-98387467D01*
X137309343Y-98395515D01*
X137276581Y-98400375D01*
X137243500Y-98402000D01*
X136568500Y-98402000D01*
X136535419Y-98400375D01*
X136502657Y-98395515D01*
X136470529Y-98387467D01*
X136439344Y-98376309D01*
X136409404Y-98362148D01*
X136380995Y-98345121D01*
X136354392Y-98325391D01*
X136329851Y-98303149D01*
X136307609Y-98278608D01*
X136287879Y-98252005D01*
X136270852Y-98223596D01*
X136256691Y-98193656D01*
X136245533Y-98162471D01*
X136237485Y-98130343D01*
X136232625Y-98097581D01*
X136231000Y-98064500D01*
X136231000Y-97289500D01*
X136232625Y-97256419D01*
X136237485Y-97223657D01*
X136245533Y-97191529D01*
X136256691Y-97160344D01*
X136270852Y-97130404D01*
X136287879Y-97101995D01*
X136307609Y-97075392D01*
X136329851Y-97050851D01*
X136354392Y-97028609D01*
X136380995Y-97008879D01*
X136409404Y-96991852D01*
X136439344Y-96977691D01*
X136470529Y-96966533D01*
X136502657Y-96958485D01*
X136535419Y-96953625D01*
X136568500Y-96952000D01*
X137243500Y-96952000D01*
X137276581Y-96953625D01*
X137276581Y-96953625D01*
G37*
D11*
X136906000Y-97677000D03*
G04 #@! TD*
D12*
G04 #@! TO.C,Conn2*
X126238000Y-49022000D03*
X128778000Y-49022000D03*
X131318000Y-49022000D03*
X133858000Y-49022000D03*
X136398000Y-49022000D03*
G04 #@! TD*
G04 #@! TO.C,U3*
X167132000Y-85852000D03*
X167132000Y-83312000D03*
X167132000Y-80772000D03*
G04 #@! TD*
G04 #@! TO.C,Conn3*
X143510000Y-49022000D03*
X146050000Y-49022000D03*
X148590000Y-49022000D03*
X151130000Y-49022000D03*
X153670000Y-49022000D03*
G04 #@! TD*
G04 #@! TO.C,Conn4*
X160782000Y-49022000D03*
X163322000Y-49022000D03*
X165862000Y-49022000D03*
X168402000Y-49022000D03*
X170942000Y-49022000D03*
G04 #@! TD*
D10*
G04 #@! TO.C,C1*
G36*
X127864852Y-83546788D02*
X127897614Y-83551648D01*
X127929742Y-83559696D01*
X127960927Y-83570854D01*
X127990867Y-83585015D01*
X128019276Y-83602042D01*
X128045879Y-83621772D01*
X128070420Y-83644014D01*
X128092662Y-83668555D01*
X128112392Y-83695158D01*
X128129419Y-83723567D01*
X128143580Y-83753507D01*
X128154738Y-83784692D01*
X128162786Y-83816820D01*
X128167646Y-83849582D01*
X128169271Y-83882663D01*
X128169271Y-84657663D01*
X128167646Y-84690744D01*
X128162786Y-84723506D01*
X128154738Y-84755634D01*
X128143580Y-84786819D01*
X128129419Y-84816759D01*
X128112392Y-84845168D01*
X128092662Y-84871771D01*
X128070420Y-84896312D01*
X128045879Y-84918554D01*
X128019276Y-84938284D01*
X127990867Y-84955311D01*
X127960927Y-84969472D01*
X127929742Y-84980630D01*
X127897614Y-84988678D01*
X127864852Y-84993538D01*
X127831771Y-84995163D01*
X127156771Y-84995163D01*
X127123690Y-84993538D01*
X127090928Y-84988678D01*
X127058800Y-84980630D01*
X127027615Y-84969472D01*
X126997675Y-84955311D01*
X126969266Y-84938284D01*
X126942663Y-84918554D01*
X126918122Y-84896312D01*
X126895880Y-84871771D01*
X126876150Y-84845168D01*
X126859123Y-84816759D01*
X126844962Y-84786819D01*
X126833804Y-84755634D01*
X126825756Y-84723506D01*
X126820896Y-84690744D01*
X126819271Y-84657663D01*
X126819271Y-83882663D01*
X126820896Y-83849582D01*
X126825756Y-83816820D01*
X126833804Y-83784692D01*
X126844962Y-83753507D01*
X126859123Y-83723567D01*
X126876150Y-83695158D01*
X126895880Y-83668555D01*
X126918122Y-83644014D01*
X126942663Y-83621772D01*
X126969266Y-83602042D01*
X126997675Y-83585015D01*
X127027615Y-83570854D01*
X127058800Y-83559696D01*
X127090928Y-83551648D01*
X127123690Y-83546788D01*
X127156771Y-83545163D01*
X127831771Y-83545163D01*
X127864852Y-83546788D01*
X127864852Y-83546788D01*
G37*
D11*
X127494271Y-84270163D03*
D10*
G36*
X127864852Y-81796788D02*
X127897614Y-81801648D01*
X127929742Y-81809696D01*
X127960927Y-81820854D01*
X127990867Y-81835015D01*
X128019276Y-81852042D01*
X128045879Y-81871772D01*
X128070420Y-81894014D01*
X128092662Y-81918555D01*
X128112392Y-81945158D01*
X128129419Y-81973567D01*
X128143580Y-82003507D01*
X128154738Y-82034692D01*
X128162786Y-82066820D01*
X128167646Y-82099582D01*
X128169271Y-82132663D01*
X128169271Y-82907663D01*
X128167646Y-82940744D01*
X128162786Y-82973506D01*
X128154738Y-83005634D01*
X128143580Y-83036819D01*
X128129419Y-83066759D01*
X128112392Y-83095168D01*
X128092662Y-83121771D01*
X128070420Y-83146312D01*
X128045879Y-83168554D01*
X128019276Y-83188284D01*
X127990867Y-83205311D01*
X127960927Y-83219472D01*
X127929742Y-83230630D01*
X127897614Y-83238678D01*
X127864852Y-83243538D01*
X127831771Y-83245163D01*
X127156771Y-83245163D01*
X127123690Y-83243538D01*
X127090928Y-83238678D01*
X127058800Y-83230630D01*
X127027615Y-83219472D01*
X126997675Y-83205311D01*
X126969266Y-83188284D01*
X126942663Y-83168554D01*
X126918122Y-83146312D01*
X126895880Y-83121771D01*
X126876150Y-83095168D01*
X126859123Y-83066759D01*
X126844962Y-83036819D01*
X126833804Y-83005634D01*
X126825756Y-82973506D01*
X126820896Y-82940744D01*
X126819271Y-82907663D01*
X126819271Y-82132663D01*
X126820896Y-82099582D01*
X126825756Y-82066820D01*
X126833804Y-82034692D01*
X126844962Y-82003507D01*
X126859123Y-81973567D01*
X126876150Y-81945158D01*
X126895880Y-81918555D01*
X126918122Y-81894014D01*
X126942663Y-81871772D01*
X126969266Y-81852042D01*
X126997675Y-81835015D01*
X127027615Y-81820854D01*
X127058800Y-81809696D01*
X127090928Y-81801648D01*
X127123690Y-81796788D01*
X127156771Y-81795163D01*
X127831771Y-81795163D01*
X127864852Y-81796788D01*
X127864852Y-81796788D01*
G37*
D11*
X127494271Y-82520163D03*
G04 #@! TD*
D10*
G04 #@! TO.C,C2*
G36*
X177408581Y-59869625D02*
X177441343Y-59874485D01*
X177473471Y-59882533D01*
X177504656Y-59893691D01*
X177534596Y-59907852D01*
X177563005Y-59924879D01*
X177589608Y-59944609D01*
X177614149Y-59966851D01*
X177636391Y-59991392D01*
X177656121Y-60017995D01*
X177673148Y-60046404D01*
X177687309Y-60076344D01*
X177698467Y-60107529D01*
X177706515Y-60139657D01*
X177711375Y-60172419D01*
X177713000Y-60205500D01*
X177713000Y-60980500D01*
X177711375Y-61013581D01*
X177706515Y-61046343D01*
X177698467Y-61078471D01*
X177687309Y-61109656D01*
X177673148Y-61139596D01*
X177656121Y-61168005D01*
X177636391Y-61194608D01*
X177614149Y-61219149D01*
X177589608Y-61241391D01*
X177563005Y-61261121D01*
X177534596Y-61278148D01*
X177504656Y-61292309D01*
X177473471Y-61303467D01*
X177441343Y-61311515D01*
X177408581Y-61316375D01*
X177375500Y-61318000D01*
X176700500Y-61318000D01*
X176667419Y-61316375D01*
X176634657Y-61311515D01*
X176602529Y-61303467D01*
X176571344Y-61292309D01*
X176541404Y-61278148D01*
X176512995Y-61261121D01*
X176486392Y-61241391D01*
X176461851Y-61219149D01*
X176439609Y-61194608D01*
X176419879Y-61168005D01*
X176402852Y-61139596D01*
X176388691Y-61109656D01*
X176377533Y-61078471D01*
X176369485Y-61046343D01*
X176364625Y-61013581D01*
X176363000Y-60980500D01*
X176363000Y-60205500D01*
X176364625Y-60172419D01*
X176369485Y-60139657D01*
X176377533Y-60107529D01*
X176388691Y-60076344D01*
X176402852Y-60046404D01*
X176419879Y-60017995D01*
X176439609Y-59991392D01*
X176461851Y-59966851D01*
X176486392Y-59944609D01*
X176512995Y-59924879D01*
X176541404Y-59907852D01*
X176571344Y-59893691D01*
X176602529Y-59882533D01*
X176634657Y-59874485D01*
X176667419Y-59869625D01*
X176700500Y-59868000D01*
X177375500Y-59868000D01*
X177408581Y-59869625D01*
X177408581Y-59869625D01*
G37*
D11*
X177038000Y-60593000D03*
D10*
G36*
X177408581Y-61619625D02*
X177441343Y-61624485D01*
X177473471Y-61632533D01*
X177504656Y-61643691D01*
X177534596Y-61657852D01*
X177563005Y-61674879D01*
X177589608Y-61694609D01*
X177614149Y-61716851D01*
X177636391Y-61741392D01*
X177656121Y-61767995D01*
X177673148Y-61796404D01*
X177687309Y-61826344D01*
X177698467Y-61857529D01*
X177706515Y-61889657D01*
X177711375Y-61922419D01*
X177713000Y-61955500D01*
X177713000Y-62730500D01*
X177711375Y-62763581D01*
X177706515Y-62796343D01*
X177698467Y-62828471D01*
X177687309Y-62859656D01*
X177673148Y-62889596D01*
X177656121Y-62918005D01*
X177636391Y-62944608D01*
X177614149Y-62969149D01*
X177589608Y-62991391D01*
X177563005Y-63011121D01*
X177534596Y-63028148D01*
X177504656Y-63042309D01*
X177473471Y-63053467D01*
X177441343Y-63061515D01*
X177408581Y-63066375D01*
X177375500Y-63068000D01*
X176700500Y-63068000D01*
X176667419Y-63066375D01*
X176634657Y-63061515D01*
X176602529Y-63053467D01*
X176571344Y-63042309D01*
X176541404Y-63028148D01*
X176512995Y-63011121D01*
X176486392Y-62991391D01*
X176461851Y-62969149D01*
X176439609Y-62944608D01*
X176419879Y-62918005D01*
X176402852Y-62889596D01*
X176388691Y-62859656D01*
X176377533Y-62828471D01*
X176369485Y-62796343D01*
X176364625Y-62763581D01*
X176363000Y-62730500D01*
X176363000Y-61955500D01*
X176364625Y-61922419D01*
X176369485Y-61889657D01*
X176377533Y-61857529D01*
X176388691Y-61826344D01*
X176402852Y-61796404D01*
X176419879Y-61767995D01*
X176439609Y-61741392D01*
X176461851Y-61716851D01*
X176486392Y-61694609D01*
X176512995Y-61674879D01*
X176541404Y-61657852D01*
X176571344Y-61643691D01*
X176602529Y-61632533D01*
X176634657Y-61624485D01*
X176667419Y-61619625D01*
X176700500Y-61618000D01*
X177375500Y-61618000D01*
X177408581Y-61619625D01*
X177408581Y-61619625D01*
G37*
D11*
X177038000Y-62343000D03*
G04 #@! TD*
D10*
G04 #@! TO.C,C3*
G36*
X135167852Y-85515788D02*
X135200614Y-85520648D01*
X135232742Y-85528696D01*
X135263927Y-85539854D01*
X135293867Y-85554015D01*
X135322276Y-85571042D01*
X135348879Y-85590772D01*
X135373420Y-85613014D01*
X135395662Y-85637555D01*
X135415392Y-85664158D01*
X135432419Y-85692567D01*
X135446580Y-85722507D01*
X135457738Y-85753692D01*
X135465786Y-85785820D01*
X135470646Y-85818582D01*
X135472271Y-85851663D01*
X135472271Y-86526663D01*
X135470646Y-86559744D01*
X135465786Y-86592506D01*
X135457738Y-86624634D01*
X135446580Y-86655819D01*
X135432419Y-86685759D01*
X135415392Y-86714168D01*
X135395662Y-86740771D01*
X135373420Y-86765312D01*
X135348879Y-86787554D01*
X135322276Y-86807284D01*
X135293867Y-86824311D01*
X135263927Y-86838472D01*
X135232742Y-86849630D01*
X135200614Y-86857678D01*
X135167852Y-86862538D01*
X135134771Y-86864163D01*
X134359771Y-86864163D01*
X134326690Y-86862538D01*
X134293928Y-86857678D01*
X134261800Y-86849630D01*
X134230615Y-86838472D01*
X134200675Y-86824311D01*
X134172266Y-86807284D01*
X134145663Y-86787554D01*
X134121122Y-86765312D01*
X134098880Y-86740771D01*
X134079150Y-86714168D01*
X134062123Y-86685759D01*
X134047962Y-86655819D01*
X134036804Y-86624634D01*
X134028756Y-86592506D01*
X134023896Y-86559744D01*
X134022271Y-86526663D01*
X134022271Y-85851663D01*
X134023896Y-85818582D01*
X134028756Y-85785820D01*
X134036804Y-85753692D01*
X134047962Y-85722507D01*
X134062123Y-85692567D01*
X134079150Y-85664158D01*
X134098880Y-85637555D01*
X134121122Y-85613014D01*
X134145663Y-85590772D01*
X134172266Y-85571042D01*
X134200675Y-85554015D01*
X134230615Y-85539854D01*
X134261800Y-85528696D01*
X134293928Y-85520648D01*
X134326690Y-85515788D01*
X134359771Y-85514163D01*
X135134771Y-85514163D01*
X135167852Y-85515788D01*
X135167852Y-85515788D01*
G37*
D11*
X134747271Y-86189163D03*
D10*
G36*
X136917852Y-85515788D02*
X136950614Y-85520648D01*
X136982742Y-85528696D01*
X137013927Y-85539854D01*
X137043867Y-85554015D01*
X137072276Y-85571042D01*
X137098879Y-85590772D01*
X137123420Y-85613014D01*
X137145662Y-85637555D01*
X137165392Y-85664158D01*
X137182419Y-85692567D01*
X137196580Y-85722507D01*
X137207738Y-85753692D01*
X137215786Y-85785820D01*
X137220646Y-85818582D01*
X137222271Y-85851663D01*
X137222271Y-86526663D01*
X137220646Y-86559744D01*
X137215786Y-86592506D01*
X137207738Y-86624634D01*
X137196580Y-86655819D01*
X137182419Y-86685759D01*
X137165392Y-86714168D01*
X137145662Y-86740771D01*
X137123420Y-86765312D01*
X137098879Y-86787554D01*
X137072276Y-86807284D01*
X137043867Y-86824311D01*
X137013927Y-86838472D01*
X136982742Y-86849630D01*
X136950614Y-86857678D01*
X136917852Y-86862538D01*
X136884771Y-86864163D01*
X136109771Y-86864163D01*
X136076690Y-86862538D01*
X136043928Y-86857678D01*
X136011800Y-86849630D01*
X135980615Y-86838472D01*
X135950675Y-86824311D01*
X135922266Y-86807284D01*
X135895663Y-86787554D01*
X135871122Y-86765312D01*
X135848880Y-86740771D01*
X135829150Y-86714168D01*
X135812123Y-86685759D01*
X135797962Y-86655819D01*
X135786804Y-86624634D01*
X135778756Y-86592506D01*
X135773896Y-86559744D01*
X135772271Y-86526663D01*
X135772271Y-85851663D01*
X135773896Y-85818582D01*
X135778756Y-85785820D01*
X135786804Y-85753692D01*
X135797962Y-85722507D01*
X135812123Y-85692567D01*
X135829150Y-85664158D01*
X135848880Y-85637555D01*
X135871122Y-85613014D01*
X135895663Y-85590772D01*
X135922266Y-85571042D01*
X135950675Y-85554015D01*
X135980615Y-85539854D01*
X136011800Y-85528696D01*
X136043928Y-85520648D01*
X136076690Y-85515788D01*
X136109771Y-85514163D01*
X136884771Y-85514163D01*
X136917852Y-85515788D01*
X136917852Y-85515788D01*
G37*
D11*
X136497271Y-86189163D03*
G04 #@! TD*
D10*
G04 #@! TO.C,C4*
G36*
X139802852Y-74430788D02*
X139835614Y-74435648D01*
X139867742Y-74443696D01*
X139898927Y-74454854D01*
X139928867Y-74469015D01*
X139957276Y-74486042D01*
X139983879Y-74505772D01*
X140008420Y-74528014D01*
X140030662Y-74552555D01*
X140050392Y-74579158D01*
X140067419Y-74607567D01*
X140081580Y-74637507D01*
X140092738Y-74668692D01*
X140100786Y-74700820D01*
X140105646Y-74733582D01*
X140107271Y-74766663D01*
X140107271Y-75541663D01*
X140105646Y-75574744D01*
X140100786Y-75607506D01*
X140092738Y-75639634D01*
X140081580Y-75670819D01*
X140067419Y-75700759D01*
X140050392Y-75729168D01*
X140030662Y-75755771D01*
X140008420Y-75780312D01*
X139983879Y-75802554D01*
X139957276Y-75822284D01*
X139928867Y-75839311D01*
X139898927Y-75853472D01*
X139867742Y-75864630D01*
X139835614Y-75872678D01*
X139802852Y-75877538D01*
X139769771Y-75879163D01*
X139094771Y-75879163D01*
X139061690Y-75877538D01*
X139028928Y-75872678D01*
X138996800Y-75864630D01*
X138965615Y-75853472D01*
X138935675Y-75839311D01*
X138907266Y-75822284D01*
X138880663Y-75802554D01*
X138856122Y-75780312D01*
X138833880Y-75755771D01*
X138814150Y-75729168D01*
X138797123Y-75700759D01*
X138782962Y-75670819D01*
X138771804Y-75639634D01*
X138763756Y-75607506D01*
X138758896Y-75574744D01*
X138757271Y-75541663D01*
X138757271Y-74766663D01*
X138758896Y-74733582D01*
X138763756Y-74700820D01*
X138771804Y-74668692D01*
X138782962Y-74637507D01*
X138797123Y-74607567D01*
X138814150Y-74579158D01*
X138833880Y-74552555D01*
X138856122Y-74528014D01*
X138880663Y-74505772D01*
X138907266Y-74486042D01*
X138935675Y-74469015D01*
X138965615Y-74454854D01*
X138996800Y-74443696D01*
X139028928Y-74435648D01*
X139061690Y-74430788D01*
X139094771Y-74429163D01*
X139769771Y-74429163D01*
X139802852Y-74430788D01*
X139802852Y-74430788D01*
G37*
D11*
X139432271Y-75154163D03*
D10*
G36*
X139802852Y-76180788D02*
X139835614Y-76185648D01*
X139867742Y-76193696D01*
X139898927Y-76204854D01*
X139928867Y-76219015D01*
X139957276Y-76236042D01*
X139983879Y-76255772D01*
X140008420Y-76278014D01*
X140030662Y-76302555D01*
X140050392Y-76329158D01*
X140067419Y-76357567D01*
X140081580Y-76387507D01*
X140092738Y-76418692D01*
X140100786Y-76450820D01*
X140105646Y-76483582D01*
X140107271Y-76516663D01*
X140107271Y-77291663D01*
X140105646Y-77324744D01*
X140100786Y-77357506D01*
X140092738Y-77389634D01*
X140081580Y-77420819D01*
X140067419Y-77450759D01*
X140050392Y-77479168D01*
X140030662Y-77505771D01*
X140008420Y-77530312D01*
X139983879Y-77552554D01*
X139957276Y-77572284D01*
X139928867Y-77589311D01*
X139898927Y-77603472D01*
X139867742Y-77614630D01*
X139835614Y-77622678D01*
X139802852Y-77627538D01*
X139769771Y-77629163D01*
X139094771Y-77629163D01*
X139061690Y-77627538D01*
X139028928Y-77622678D01*
X138996800Y-77614630D01*
X138965615Y-77603472D01*
X138935675Y-77589311D01*
X138907266Y-77572284D01*
X138880663Y-77552554D01*
X138856122Y-77530312D01*
X138833880Y-77505771D01*
X138814150Y-77479168D01*
X138797123Y-77450759D01*
X138782962Y-77420819D01*
X138771804Y-77389634D01*
X138763756Y-77357506D01*
X138758896Y-77324744D01*
X138757271Y-77291663D01*
X138757271Y-76516663D01*
X138758896Y-76483582D01*
X138763756Y-76450820D01*
X138771804Y-76418692D01*
X138782962Y-76387507D01*
X138797123Y-76357567D01*
X138814150Y-76329158D01*
X138833880Y-76302555D01*
X138856122Y-76278014D01*
X138880663Y-76255772D01*
X138907266Y-76236042D01*
X138935675Y-76219015D01*
X138965615Y-76204854D01*
X138996800Y-76193696D01*
X139028928Y-76185648D01*
X139061690Y-76180788D01*
X139094771Y-76179163D01*
X139769771Y-76179163D01*
X139802852Y-76180788D01*
X139802852Y-76180788D01*
G37*
D11*
X139432271Y-76904163D03*
G04 #@! TD*
D10*
G04 #@! TO.C,C5*
G36*
X169951581Y-58254625D02*
X169984343Y-58259485D01*
X170016471Y-58267533D01*
X170047656Y-58278691D01*
X170077596Y-58292852D01*
X170106005Y-58309879D01*
X170132608Y-58329609D01*
X170157149Y-58351851D01*
X170179391Y-58376392D01*
X170199121Y-58402995D01*
X170216148Y-58431404D01*
X170230309Y-58461344D01*
X170241467Y-58492529D01*
X170249515Y-58524657D01*
X170254375Y-58557419D01*
X170256000Y-58590500D01*
X170256000Y-59265500D01*
X170254375Y-59298581D01*
X170249515Y-59331343D01*
X170241467Y-59363471D01*
X170230309Y-59394656D01*
X170216148Y-59424596D01*
X170199121Y-59453005D01*
X170179391Y-59479608D01*
X170157149Y-59504149D01*
X170132608Y-59526391D01*
X170106005Y-59546121D01*
X170077596Y-59563148D01*
X170047656Y-59577309D01*
X170016471Y-59588467D01*
X169984343Y-59596515D01*
X169951581Y-59601375D01*
X169918500Y-59603000D01*
X169143500Y-59603000D01*
X169110419Y-59601375D01*
X169077657Y-59596515D01*
X169045529Y-59588467D01*
X169014344Y-59577309D01*
X168984404Y-59563148D01*
X168955995Y-59546121D01*
X168929392Y-59526391D01*
X168904851Y-59504149D01*
X168882609Y-59479608D01*
X168862879Y-59453005D01*
X168845852Y-59424596D01*
X168831691Y-59394656D01*
X168820533Y-59363471D01*
X168812485Y-59331343D01*
X168807625Y-59298581D01*
X168806000Y-59265500D01*
X168806000Y-58590500D01*
X168807625Y-58557419D01*
X168812485Y-58524657D01*
X168820533Y-58492529D01*
X168831691Y-58461344D01*
X168845852Y-58431404D01*
X168862879Y-58402995D01*
X168882609Y-58376392D01*
X168904851Y-58351851D01*
X168929392Y-58329609D01*
X168955995Y-58309879D01*
X168984404Y-58292852D01*
X169014344Y-58278691D01*
X169045529Y-58267533D01*
X169077657Y-58259485D01*
X169110419Y-58254625D01*
X169143500Y-58253000D01*
X169918500Y-58253000D01*
X169951581Y-58254625D01*
X169951581Y-58254625D01*
G37*
D11*
X169531000Y-58928000D03*
D10*
G36*
X168201581Y-58254625D02*
X168234343Y-58259485D01*
X168266471Y-58267533D01*
X168297656Y-58278691D01*
X168327596Y-58292852D01*
X168356005Y-58309879D01*
X168382608Y-58329609D01*
X168407149Y-58351851D01*
X168429391Y-58376392D01*
X168449121Y-58402995D01*
X168466148Y-58431404D01*
X168480309Y-58461344D01*
X168491467Y-58492529D01*
X168499515Y-58524657D01*
X168504375Y-58557419D01*
X168506000Y-58590500D01*
X168506000Y-59265500D01*
X168504375Y-59298581D01*
X168499515Y-59331343D01*
X168491467Y-59363471D01*
X168480309Y-59394656D01*
X168466148Y-59424596D01*
X168449121Y-59453005D01*
X168429391Y-59479608D01*
X168407149Y-59504149D01*
X168382608Y-59526391D01*
X168356005Y-59546121D01*
X168327596Y-59563148D01*
X168297656Y-59577309D01*
X168266471Y-59588467D01*
X168234343Y-59596515D01*
X168201581Y-59601375D01*
X168168500Y-59603000D01*
X167393500Y-59603000D01*
X167360419Y-59601375D01*
X167327657Y-59596515D01*
X167295529Y-59588467D01*
X167264344Y-59577309D01*
X167234404Y-59563148D01*
X167205995Y-59546121D01*
X167179392Y-59526391D01*
X167154851Y-59504149D01*
X167132609Y-59479608D01*
X167112879Y-59453005D01*
X167095852Y-59424596D01*
X167081691Y-59394656D01*
X167070533Y-59363471D01*
X167062485Y-59331343D01*
X167057625Y-59298581D01*
X167056000Y-59265500D01*
X167056000Y-58590500D01*
X167057625Y-58557419D01*
X167062485Y-58524657D01*
X167070533Y-58492529D01*
X167081691Y-58461344D01*
X167095852Y-58431404D01*
X167112879Y-58402995D01*
X167132609Y-58376392D01*
X167154851Y-58351851D01*
X167179392Y-58329609D01*
X167205995Y-58309879D01*
X167234404Y-58292852D01*
X167264344Y-58278691D01*
X167295529Y-58267533D01*
X167327657Y-58259485D01*
X167360419Y-58254625D01*
X167393500Y-58253000D01*
X168168500Y-58253000D01*
X168201581Y-58254625D01*
X168201581Y-58254625D01*
G37*
D11*
X167781000Y-58928000D03*
G04 #@! TD*
D10*
G04 #@! TO.C,C6*
G36*
X164708581Y-69239625D02*
X164741343Y-69244485D01*
X164773471Y-69252533D01*
X164804656Y-69263691D01*
X164834596Y-69277852D01*
X164863005Y-69294879D01*
X164889608Y-69314609D01*
X164914149Y-69336851D01*
X164936391Y-69361392D01*
X164956121Y-69387995D01*
X164973148Y-69416404D01*
X164987309Y-69446344D01*
X164998467Y-69477529D01*
X165006515Y-69509657D01*
X165011375Y-69542419D01*
X165013000Y-69575500D01*
X165013000Y-70350500D01*
X165011375Y-70383581D01*
X165006515Y-70416343D01*
X164998467Y-70448471D01*
X164987309Y-70479656D01*
X164973148Y-70509596D01*
X164956121Y-70538005D01*
X164936391Y-70564608D01*
X164914149Y-70589149D01*
X164889608Y-70611391D01*
X164863005Y-70631121D01*
X164834596Y-70648148D01*
X164804656Y-70662309D01*
X164773471Y-70673467D01*
X164741343Y-70681515D01*
X164708581Y-70686375D01*
X164675500Y-70688000D01*
X164000500Y-70688000D01*
X163967419Y-70686375D01*
X163934657Y-70681515D01*
X163902529Y-70673467D01*
X163871344Y-70662309D01*
X163841404Y-70648148D01*
X163812995Y-70631121D01*
X163786392Y-70611391D01*
X163761851Y-70589149D01*
X163739609Y-70564608D01*
X163719879Y-70538005D01*
X163702852Y-70509596D01*
X163688691Y-70479656D01*
X163677533Y-70448471D01*
X163669485Y-70416343D01*
X163664625Y-70383581D01*
X163663000Y-70350500D01*
X163663000Y-69575500D01*
X163664625Y-69542419D01*
X163669485Y-69509657D01*
X163677533Y-69477529D01*
X163688691Y-69446344D01*
X163702852Y-69416404D01*
X163719879Y-69387995D01*
X163739609Y-69361392D01*
X163761851Y-69336851D01*
X163786392Y-69314609D01*
X163812995Y-69294879D01*
X163841404Y-69277852D01*
X163871344Y-69263691D01*
X163902529Y-69252533D01*
X163934657Y-69244485D01*
X163967419Y-69239625D01*
X164000500Y-69238000D01*
X164675500Y-69238000D01*
X164708581Y-69239625D01*
X164708581Y-69239625D01*
G37*
D11*
X164338000Y-69963000D03*
D10*
G36*
X164708581Y-67489625D02*
X164741343Y-67494485D01*
X164773471Y-67502533D01*
X164804656Y-67513691D01*
X164834596Y-67527852D01*
X164863005Y-67544879D01*
X164889608Y-67564609D01*
X164914149Y-67586851D01*
X164936391Y-67611392D01*
X164956121Y-67637995D01*
X164973148Y-67666404D01*
X164987309Y-67696344D01*
X164998467Y-67727529D01*
X165006515Y-67759657D01*
X165011375Y-67792419D01*
X165013000Y-67825500D01*
X165013000Y-68600500D01*
X165011375Y-68633581D01*
X165006515Y-68666343D01*
X164998467Y-68698471D01*
X164987309Y-68729656D01*
X164973148Y-68759596D01*
X164956121Y-68788005D01*
X164936391Y-68814608D01*
X164914149Y-68839149D01*
X164889608Y-68861391D01*
X164863005Y-68881121D01*
X164834596Y-68898148D01*
X164804656Y-68912309D01*
X164773471Y-68923467D01*
X164741343Y-68931515D01*
X164708581Y-68936375D01*
X164675500Y-68938000D01*
X164000500Y-68938000D01*
X163967419Y-68936375D01*
X163934657Y-68931515D01*
X163902529Y-68923467D01*
X163871344Y-68912309D01*
X163841404Y-68898148D01*
X163812995Y-68881121D01*
X163786392Y-68861391D01*
X163761851Y-68839149D01*
X163739609Y-68814608D01*
X163719879Y-68788005D01*
X163702852Y-68759596D01*
X163688691Y-68729656D01*
X163677533Y-68698471D01*
X163669485Y-68666343D01*
X163664625Y-68633581D01*
X163663000Y-68600500D01*
X163663000Y-67825500D01*
X163664625Y-67792419D01*
X163669485Y-67759657D01*
X163677533Y-67727529D01*
X163688691Y-67696344D01*
X163702852Y-67666404D01*
X163719879Y-67637995D01*
X163739609Y-67611392D01*
X163761851Y-67586851D01*
X163786392Y-67564609D01*
X163812995Y-67544879D01*
X163841404Y-67527852D01*
X163871344Y-67513691D01*
X163902529Y-67502533D01*
X163934657Y-67494485D01*
X163967419Y-67489625D01*
X164000500Y-67488000D01*
X164675500Y-67488000D01*
X164708581Y-67489625D01*
X164708581Y-67489625D01*
G37*
D11*
X164338000Y-68213000D03*
G04 #@! TD*
D10*
G04 #@! TO.C,C7*
G36*
X164454581Y-85015625D02*
X164487343Y-85020485D01*
X164519471Y-85028533D01*
X164550656Y-85039691D01*
X164580596Y-85053852D01*
X164609005Y-85070879D01*
X164635608Y-85090609D01*
X164660149Y-85112851D01*
X164682391Y-85137392D01*
X164702121Y-85163995D01*
X164719148Y-85192404D01*
X164733309Y-85222344D01*
X164744467Y-85253529D01*
X164752515Y-85285657D01*
X164757375Y-85318419D01*
X164759000Y-85351500D01*
X164759000Y-86126500D01*
X164757375Y-86159581D01*
X164752515Y-86192343D01*
X164744467Y-86224471D01*
X164733309Y-86255656D01*
X164719148Y-86285596D01*
X164702121Y-86314005D01*
X164682391Y-86340608D01*
X164660149Y-86365149D01*
X164635608Y-86387391D01*
X164609005Y-86407121D01*
X164580596Y-86424148D01*
X164550656Y-86438309D01*
X164519471Y-86449467D01*
X164487343Y-86457515D01*
X164454581Y-86462375D01*
X164421500Y-86464000D01*
X163746500Y-86464000D01*
X163713419Y-86462375D01*
X163680657Y-86457515D01*
X163648529Y-86449467D01*
X163617344Y-86438309D01*
X163587404Y-86424148D01*
X163558995Y-86407121D01*
X163532392Y-86387391D01*
X163507851Y-86365149D01*
X163485609Y-86340608D01*
X163465879Y-86314005D01*
X163448852Y-86285596D01*
X163434691Y-86255656D01*
X163423533Y-86224471D01*
X163415485Y-86192343D01*
X163410625Y-86159581D01*
X163409000Y-86126500D01*
X163409000Y-85351500D01*
X163410625Y-85318419D01*
X163415485Y-85285657D01*
X163423533Y-85253529D01*
X163434691Y-85222344D01*
X163448852Y-85192404D01*
X163465879Y-85163995D01*
X163485609Y-85137392D01*
X163507851Y-85112851D01*
X163532392Y-85090609D01*
X163558995Y-85070879D01*
X163587404Y-85053852D01*
X163617344Y-85039691D01*
X163648529Y-85028533D01*
X163680657Y-85020485D01*
X163713419Y-85015625D01*
X163746500Y-85014000D01*
X164421500Y-85014000D01*
X164454581Y-85015625D01*
X164454581Y-85015625D01*
G37*
D11*
X164084000Y-85739000D03*
D10*
G36*
X164454581Y-86765625D02*
X164487343Y-86770485D01*
X164519471Y-86778533D01*
X164550656Y-86789691D01*
X164580596Y-86803852D01*
X164609005Y-86820879D01*
X164635608Y-86840609D01*
X164660149Y-86862851D01*
X164682391Y-86887392D01*
X164702121Y-86913995D01*
X164719148Y-86942404D01*
X164733309Y-86972344D01*
X164744467Y-87003529D01*
X164752515Y-87035657D01*
X164757375Y-87068419D01*
X164759000Y-87101500D01*
X164759000Y-87876500D01*
X164757375Y-87909581D01*
X164752515Y-87942343D01*
X164744467Y-87974471D01*
X164733309Y-88005656D01*
X164719148Y-88035596D01*
X164702121Y-88064005D01*
X164682391Y-88090608D01*
X164660149Y-88115149D01*
X164635608Y-88137391D01*
X164609005Y-88157121D01*
X164580596Y-88174148D01*
X164550656Y-88188309D01*
X164519471Y-88199467D01*
X164487343Y-88207515D01*
X164454581Y-88212375D01*
X164421500Y-88214000D01*
X163746500Y-88214000D01*
X163713419Y-88212375D01*
X163680657Y-88207515D01*
X163648529Y-88199467D01*
X163617344Y-88188309D01*
X163587404Y-88174148D01*
X163558995Y-88157121D01*
X163532392Y-88137391D01*
X163507851Y-88115149D01*
X163485609Y-88090608D01*
X163465879Y-88064005D01*
X163448852Y-88035596D01*
X163434691Y-88005656D01*
X163423533Y-87974471D01*
X163415485Y-87942343D01*
X163410625Y-87909581D01*
X163409000Y-87876500D01*
X163409000Y-87101500D01*
X163410625Y-87068419D01*
X163415485Y-87035657D01*
X163423533Y-87003529D01*
X163434691Y-86972344D01*
X163448852Y-86942404D01*
X163465879Y-86913995D01*
X163485609Y-86887392D01*
X163507851Y-86862851D01*
X163532392Y-86840609D01*
X163558995Y-86820879D01*
X163587404Y-86803852D01*
X163617344Y-86789691D01*
X163648529Y-86778533D01*
X163680657Y-86770485D01*
X163713419Y-86765625D01*
X163746500Y-86764000D01*
X164421500Y-86764000D01*
X164454581Y-86765625D01*
X164454581Y-86765625D01*
G37*
D11*
X164084000Y-87489000D03*
G04 #@! TD*
D10*
G04 #@! TO.C,C8*
G36*
X164454581Y-79681625D02*
X164487343Y-79686485D01*
X164519471Y-79694533D01*
X164550656Y-79705691D01*
X164580596Y-79719852D01*
X164609005Y-79736879D01*
X164635608Y-79756609D01*
X164660149Y-79778851D01*
X164682391Y-79803392D01*
X164702121Y-79829995D01*
X164719148Y-79858404D01*
X164733309Y-79888344D01*
X164744467Y-79919529D01*
X164752515Y-79951657D01*
X164757375Y-79984419D01*
X164759000Y-80017500D01*
X164759000Y-80792500D01*
X164757375Y-80825581D01*
X164752515Y-80858343D01*
X164744467Y-80890471D01*
X164733309Y-80921656D01*
X164719148Y-80951596D01*
X164702121Y-80980005D01*
X164682391Y-81006608D01*
X164660149Y-81031149D01*
X164635608Y-81053391D01*
X164609005Y-81073121D01*
X164580596Y-81090148D01*
X164550656Y-81104309D01*
X164519471Y-81115467D01*
X164487343Y-81123515D01*
X164454581Y-81128375D01*
X164421500Y-81130000D01*
X163746500Y-81130000D01*
X163713419Y-81128375D01*
X163680657Y-81123515D01*
X163648529Y-81115467D01*
X163617344Y-81104309D01*
X163587404Y-81090148D01*
X163558995Y-81073121D01*
X163532392Y-81053391D01*
X163507851Y-81031149D01*
X163485609Y-81006608D01*
X163465879Y-80980005D01*
X163448852Y-80951596D01*
X163434691Y-80921656D01*
X163423533Y-80890471D01*
X163415485Y-80858343D01*
X163410625Y-80825581D01*
X163409000Y-80792500D01*
X163409000Y-80017500D01*
X163410625Y-79984419D01*
X163415485Y-79951657D01*
X163423533Y-79919529D01*
X163434691Y-79888344D01*
X163448852Y-79858404D01*
X163465879Y-79829995D01*
X163485609Y-79803392D01*
X163507851Y-79778851D01*
X163532392Y-79756609D01*
X163558995Y-79736879D01*
X163587404Y-79719852D01*
X163617344Y-79705691D01*
X163648529Y-79694533D01*
X163680657Y-79686485D01*
X163713419Y-79681625D01*
X163746500Y-79680000D01*
X164421500Y-79680000D01*
X164454581Y-79681625D01*
X164454581Y-79681625D01*
G37*
D11*
X164084000Y-80405000D03*
D10*
G36*
X164454581Y-81431625D02*
X164487343Y-81436485D01*
X164519471Y-81444533D01*
X164550656Y-81455691D01*
X164580596Y-81469852D01*
X164609005Y-81486879D01*
X164635608Y-81506609D01*
X164660149Y-81528851D01*
X164682391Y-81553392D01*
X164702121Y-81579995D01*
X164719148Y-81608404D01*
X164733309Y-81638344D01*
X164744467Y-81669529D01*
X164752515Y-81701657D01*
X164757375Y-81734419D01*
X164759000Y-81767500D01*
X164759000Y-82542500D01*
X164757375Y-82575581D01*
X164752515Y-82608343D01*
X164744467Y-82640471D01*
X164733309Y-82671656D01*
X164719148Y-82701596D01*
X164702121Y-82730005D01*
X164682391Y-82756608D01*
X164660149Y-82781149D01*
X164635608Y-82803391D01*
X164609005Y-82823121D01*
X164580596Y-82840148D01*
X164550656Y-82854309D01*
X164519471Y-82865467D01*
X164487343Y-82873515D01*
X164454581Y-82878375D01*
X164421500Y-82880000D01*
X163746500Y-82880000D01*
X163713419Y-82878375D01*
X163680657Y-82873515D01*
X163648529Y-82865467D01*
X163617344Y-82854309D01*
X163587404Y-82840148D01*
X163558995Y-82823121D01*
X163532392Y-82803391D01*
X163507851Y-82781149D01*
X163485609Y-82756608D01*
X163465879Y-82730005D01*
X163448852Y-82701596D01*
X163434691Y-82671656D01*
X163423533Y-82640471D01*
X163415485Y-82608343D01*
X163410625Y-82575581D01*
X163409000Y-82542500D01*
X163409000Y-81767500D01*
X163410625Y-81734419D01*
X163415485Y-81701657D01*
X163423533Y-81669529D01*
X163434691Y-81638344D01*
X163448852Y-81608404D01*
X163465879Y-81579995D01*
X163485609Y-81553392D01*
X163507851Y-81528851D01*
X163532392Y-81506609D01*
X163558995Y-81486879D01*
X163587404Y-81469852D01*
X163617344Y-81455691D01*
X163648529Y-81444533D01*
X163680657Y-81436485D01*
X163713419Y-81431625D01*
X163746500Y-81430000D01*
X164421500Y-81430000D01*
X164454581Y-81431625D01*
X164454581Y-81431625D01*
G37*
D11*
X164084000Y-82155000D03*
G04 #@! TD*
D10*
G04 #@! TO.C,C9*
G36*
X139802852Y-81796788D02*
X139835614Y-81801648D01*
X139867742Y-81809696D01*
X139898927Y-81820854D01*
X139928867Y-81835015D01*
X139957276Y-81852042D01*
X139983879Y-81871772D01*
X140008420Y-81894014D01*
X140030662Y-81918555D01*
X140050392Y-81945158D01*
X140067419Y-81973567D01*
X140081580Y-82003507D01*
X140092738Y-82034692D01*
X140100786Y-82066820D01*
X140105646Y-82099582D01*
X140107271Y-82132663D01*
X140107271Y-82907663D01*
X140105646Y-82940744D01*
X140100786Y-82973506D01*
X140092738Y-83005634D01*
X140081580Y-83036819D01*
X140067419Y-83066759D01*
X140050392Y-83095168D01*
X140030662Y-83121771D01*
X140008420Y-83146312D01*
X139983879Y-83168554D01*
X139957276Y-83188284D01*
X139928867Y-83205311D01*
X139898927Y-83219472D01*
X139867742Y-83230630D01*
X139835614Y-83238678D01*
X139802852Y-83243538D01*
X139769771Y-83245163D01*
X139094771Y-83245163D01*
X139061690Y-83243538D01*
X139028928Y-83238678D01*
X138996800Y-83230630D01*
X138965615Y-83219472D01*
X138935675Y-83205311D01*
X138907266Y-83188284D01*
X138880663Y-83168554D01*
X138856122Y-83146312D01*
X138833880Y-83121771D01*
X138814150Y-83095168D01*
X138797123Y-83066759D01*
X138782962Y-83036819D01*
X138771804Y-83005634D01*
X138763756Y-82973506D01*
X138758896Y-82940744D01*
X138757271Y-82907663D01*
X138757271Y-82132663D01*
X138758896Y-82099582D01*
X138763756Y-82066820D01*
X138771804Y-82034692D01*
X138782962Y-82003507D01*
X138797123Y-81973567D01*
X138814150Y-81945158D01*
X138833880Y-81918555D01*
X138856122Y-81894014D01*
X138880663Y-81871772D01*
X138907266Y-81852042D01*
X138935675Y-81835015D01*
X138965615Y-81820854D01*
X138996800Y-81809696D01*
X139028928Y-81801648D01*
X139061690Y-81796788D01*
X139094771Y-81795163D01*
X139769771Y-81795163D01*
X139802852Y-81796788D01*
X139802852Y-81796788D01*
G37*
D11*
X139432271Y-82520163D03*
D10*
G36*
X139802852Y-83546788D02*
X139835614Y-83551648D01*
X139867742Y-83559696D01*
X139898927Y-83570854D01*
X139928867Y-83585015D01*
X139957276Y-83602042D01*
X139983879Y-83621772D01*
X140008420Y-83644014D01*
X140030662Y-83668555D01*
X140050392Y-83695158D01*
X140067419Y-83723567D01*
X140081580Y-83753507D01*
X140092738Y-83784692D01*
X140100786Y-83816820D01*
X140105646Y-83849582D01*
X140107271Y-83882663D01*
X140107271Y-84657663D01*
X140105646Y-84690744D01*
X140100786Y-84723506D01*
X140092738Y-84755634D01*
X140081580Y-84786819D01*
X140067419Y-84816759D01*
X140050392Y-84845168D01*
X140030662Y-84871771D01*
X140008420Y-84896312D01*
X139983879Y-84918554D01*
X139957276Y-84938284D01*
X139928867Y-84955311D01*
X139898927Y-84969472D01*
X139867742Y-84980630D01*
X139835614Y-84988678D01*
X139802852Y-84993538D01*
X139769771Y-84995163D01*
X139094771Y-84995163D01*
X139061690Y-84993538D01*
X139028928Y-84988678D01*
X138996800Y-84980630D01*
X138965615Y-84969472D01*
X138935675Y-84955311D01*
X138907266Y-84938284D01*
X138880663Y-84918554D01*
X138856122Y-84896312D01*
X138833880Y-84871771D01*
X138814150Y-84845168D01*
X138797123Y-84816759D01*
X138782962Y-84786819D01*
X138771804Y-84755634D01*
X138763756Y-84723506D01*
X138758896Y-84690744D01*
X138757271Y-84657663D01*
X138757271Y-83882663D01*
X138758896Y-83849582D01*
X138763756Y-83816820D01*
X138771804Y-83784692D01*
X138782962Y-83753507D01*
X138797123Y-83723567D01*
X138814150Y-83695158D01*
X138833880Y-83668555D01*
X138856122Y-83644014D01*
X138880663Y-83621772D01*
X138907266Y-83602042D01*
X138935675Y-83585015D01*
X138965615Y-83570854D01*
X138996800Y-83559696D01*
X139028928Y-83551648D01*
X139061690Y-83546788D01*
X139094771Y-83545163D01*
X139769771Y-83545163D01*
X139802852Y-83546788D01*
X139802852Y-83546788D01*
G37*
D11*
X139432271Y-84270163D03*
G04 #@! TD*
D10*
G04 #@! TO.C,C10*
G36*
X139802852Y-79736788D02*
X139835614Y-79741648D01*
X139867742Y-79749696D01*
X139898927Y-79760854D01*
X139928867Y-79775015D01*
X139957276Y-79792042D01*
X139983879Y-79811772D01*
X140008420Y-79834014D01*
X140030662Y-79858555D01*
X140050392Y-79885158D01*
X140067419Y-79913567D01*
X140081580Y-79943507D01*
X140092738Y-79974692D01*
X140100786Y-80006820D01*
X140105646Y-80039582D01*
X140107271Y-80072663D01*
X140107271Y-80847663D01*
X140105646Y-80880744D01*
X140100786Y-80913506D01*
X140092738Y-80945634D01*
X140081580Y-80976819D01*
X140067419Y-81006759D01*
X140050392Y-81035168D01*
X140030662Y-81061771D01*
X140008420Y-81086312D01*
X139983879Y-81108554D01*
X139957276Y-81128284D01*
X139928867Y-81145311D01*
X139898927Y-81159472D01*
X139867742Y-81170630D01*
X139835614Y-81178678D01*
X139802852Y-81183538D01*
X139769771Y-81185163D01*
X139094771Y-81185163D01*
X139061690Y-81183538D01*
X139028928Y-81178678D01*
X138996800Y-81170630D01*
X138965615Y-81159472D01*
X138935675Y-81145311D01*
X138907266Y-81128284D01*
X138880663Y-81108554D01*
X138856122Y-81086312D01*
X138833880Y-81061771D01*
X138814150Y-81035168D01*
X138797123Y-81006759D01*
X138782962Y-80976819D01*
X138771804Y-80945634D01*
X138763756Y-80913506D01*
X138758896Y-80880744D01*
X138757271Y-80847663D01*
X138757271Y-80072663D01*
X138758896Y-80039582D01*
X138763756Y-80006820D01*
X138771804Y-79974692D01*
X138782962Y-79943507D01*
X138797123Y-79913567D01*
X138814150Y-79885158D01*
X138833880Y-79858555D01*
X138856122Y-79834014D01*
X138880663Y-79811772D01*
X138907266Y-79792042D01*
X138935675Y-79775015D01*
X138965615Y-79760854D01*
X138996800Y-79749696D01*
X139028928Y-79741648D01*
X139061690Y-79736788D01*
X139094771Y-79735163D01*
X139769771Y-79735163D01*
X139802852Y-79736788D01*
X139802852Y-79736788D01*
G37*
D11*
X139432271Y-80460163D03*
D10*
G36*
X139802852Y-77986788D02*
X139835614Y-77991648D01*
X139867742Y-77999696D01*
X139898927Y-78010854D01*
X139928867Y-78025015D01*
X139957276Y-78042042D01*
X139983879Y-78061772D01*
X140008420Y-78084014D01*
X140030662Y-78108555D01*
X140050392Y-78135158D01*
X140067419Y-78163567D01*
X140081580Y-78193507D01*
X140092738Y-78224692D01*
X140100786Y-78256820D01*
X140105646Y-78289582D01*
X140107271Y-78322663D01*
X140107271Y-79097663D01*
X140105646Y-79130744D01*
X140100786Y-79163506D01*
X140092738Y-79195634D01*
X140081580Y-79226819D01*
X140067419Y-79256759D01*
X140050392Y-79285168D01*
X140030662Y-79311771D01*
X140008420Y-79336312D01*
X139983879Y-79358554D01*
X139957276Y-79378284D01*
X139928867Y-79395311D01*
X139898927Y-79409472D01*
X139867742Y-79420630D01*
X139835614Y-79428678D01*
X139802852Y-79433538D01*
X139769771Y-79435163D01*
X139094771Y-79435163D01*
X139061690Y-79433538D01*
X139028928Y-79428678D01*
X138996800Y-79420630D01*
X138965615Y-79409472D01*
X138935675Y-79395311D01*
X138907266Y-79378284D01*
X138880663Y-79358554D01*
X138856122Y-79336312D01*
X138833880Y-79311771D01*
X138814150Y-79285168D01*
X138797123Y-79256759D01*
X138782962Y-79226819D01*
X138771804Y-79195634D01*
X138763756Y-79163506D01*
X138758896Y-79130744D01*
X138757271Y-79097663D01*
X138757271Y-78322663D01*
X138758896Y-78289582D01*
X138763756Y-78256820D01*
X138771804Y-78224692D01*
X138782962Y-78193507D01*
X138797123Y-78163567D01*
X138814150Y-78135158D01*
X138833880Y-78108555D01*
X138856122Y-78084014D01*
X138880663Y-78061772D01*
X138907266Y-78042042D01*
X138935675Y-78025015D01*
X138965615Y-78010854D01*
X138996800Y-77999696D01*
X139028928Y-77991648D01*
X139061690Y-77986788D01*
X139094771Y-77985163D01*
X139769771Y-77985163D01*
X139802852Y-77986788D01*
X139802852Y-77986788D01*
G37*
D11*
X139432271Y-78710163D03*
G04 #@! TD*
D10*
G04 #@! TO.C,C11*
G36*
X164708581Y-62127625D02*
X164741343Y-62132485D01*
X164773471Y-62140533D01*
X164804656Y-62151691D01*
X164834596Y-62165852D01*
X164863005Y-62182879D01*
X164889608Y-62202609D01*
X164914149Y-62224851D01*
X164936391Y-62249392D01*
X164956121Y-62275995D01*
X164973148Y-62304404D01*
X164987309Y-62334344D01*
X164998467Y-62365529D01*
X165006515Y-62397657D01*
X165011375Y-62430419D01*
X165013000Y-62463500D01*
X165013000Y-63238500D01*
X165011375Y-63271581D01*
X165006515Y-63304343D01*
X164998467Y-63336471D01*
X164987309Y-63367656D01*
X164973148Y-63397596D01*
X164956121Y-63426005D01*
X164936391Y-63452608D01*
X164914149Y-63477149D01*
X164889608Y-63499391D01*
X164863005Y-63519121D01*
X164834596Y-63536148D01*
X164804656Y-63550309D01*
X164773471Y-63561467D01*
X164741343Y-63569515D01*
X164708581Y-63574375D01*
X164675500Y-63576000D01*
X164000500Y-63576000D01*
X163967419Y-63574375D01*
X163934657Y-63569515D01*
X163902529Y-63561467D01*
X163871344Y-63550309D01*
X163841404Y-63536148D01*
X163812995Y-63519121D01*
X163786392Y-63499391D01*
X163761851Y-63477149D01*
X163739609Y-63452608D01*
X163719879Y-63426005D01*
X163702852Y-63397596D01*
X163688691Y-63367656D01*
X163677533Y-63336471D01*
X163669485Y-63304343D01*
X163664625Y-63271581D01*
X163663000Y-63238500D01*
X163663000Y-62463500D01*
X163664625Y-62430419D01*
X163669485Y-62397657D01*
X163677533Y-62365529D01*
X163688691Y-62334344D01*
X163702852Y-62304404D01*
X163719879Y-62275995D01*
X163739609Y-62249392D01*
X163761851Y-62224851D01*
X163786392Y-62202609D01*
X163812995Y-62182879D01*
X163841404Y-62165852D01*
X163871344Y-62151691D01*
X163902529Y-62140533D01*
X163934657Y-62132485D01*
X163967419Y-62127625D01*
X164000500Y-62126000D01*
X164675500Y-62126000D01*
X164708581Y-62127625D01*
X164708581Y-62127625D01*
G37*
D11*
X164338000Y-62851000D03*
D10*
G36*
X164708581Y-60377625D02*
X164741343Y-60382485D01*
X164773471Y-60390533D01*
X164804656Y-60401691D01*
X164834596Y-60415852D01*
X164863005Y-60432879D01*
X164889608Y-60452609D01*
X164914149Y-60474851D01*
X164936391Y-60499392D01*
X164956121Y-60525995D01*
X164973148Y-60554404D01*
X164987309Y-60584344D01*
X164998467Y-60615529D01*
X165006515Y-60647657D01*
X165011375Y-60680419D01*
X165013000Y-60713500D01*
X165013000Y-61488500D01*
X165011375Y-61521581D01*
X165006515Y-61554343D01*
X164998467Y-61586471D01*
X164987309Y-61617656D01*
X164973148Y-61647596D01*
X164956121Y-61676005D01*
X164936391Y-61702608D01*
X164914149Y-61727149D01*
X164889608Y-61749391D01*
X164863005Y-61769121D01*
X164834596Y-61786148D01*
X164804656Y-61800309D01*
X164773471Y-61811467D01*
X164741343Y-61819515D01*
X164708581Y-61824375D01*
X164675500Y-61826000D01*
X164000500Y-61826000D01*
X163967419Y-61824375D01*
X163934657Y-61819515D01*
X163902529Y-61811467D01*
X163871344Y-61800309D01*
X163841404Y-61786148D01*
X163812995Y-61769121D01*
X163786392Y-61749391D01*
X163761851Y-61727149D01*
X163739609Y-61702608D01*
X163719879Y-61676005D01*
X163702852Y-61647596D01*
X163688691Y-61617656D01*
X163677533Y-61586471D01*
X163669485Y-61554343D01*
X163664625Y-61521581D01*
X163663000Y-61488500D01*
X163663000Y-60713500D01*
X163664625Y-60680419D01*
X163669485Y-60647657D01*
X163677533Y-60615529D01*
X163688691Y-60584344D01*
X163702852Y-60554404D01*
X163719879Y-60525995D01*
X163739609Y-60499392D01*
X163761851Y-60474851D01*
X163786392Y-60452609D01*
X163812995Y-60432879D01*
X163841404Y-60415852D01*
X163871344Y-60401691D01*
X163902529Y-60390533D01*
X163934657Y-60382485D01*
X163967419Y-60377625D01*
X164000500Y-60376000D01*
X164675500Y-60376000D01*
X164708581Y-60377625D01*
X164708581Y-60377625D01*
G37*
D11*
X164338000Y-61101000D03*
G04 #@! TD*
D10*
G04 #@! TO.C,C12*
G36*
X164708581Y-65683625D02*
X164741343Y-65688485D01*
X164773471Y-65696533D01*
X164804656Y-65707691D01*
X164834596Y-65721852D01*
X164863005Y-65738879D01*
X164889608Y-65758609D01*
X164914149Y-65780851D01*
X164936391Y-65805392D01*
X164956121Y-65831995D01*
X164973148Y-65860404D01*
X164987309Y-65890344D01*
X164998467Y-65921529D01*
X165006515Y-65953657D01*
X165011375Y-65986419D01*
X165013000Y-66019500D01*
X165013000Y-66794500D01*
X165011375Y-66827581D01*
X165006515Y-66860343D01*
X164998467Y-66892471D01*
X164987309Y-66923656D01*
X164973148Y-66953596D01*
X164956121Y-66982005D01*
X164936391Y-67008608D01*
X164914149Y-67033149D01*
X164889608Y-67055391D01*
X164863005Y-67075121D01*
X164834596Y-67092148D01*
X164804656Y-67106309D01*
X164773471Y-67117467D01*
X164741343Y-67125515D01*
X164708581Y-67130375D01*
X164675500Y-67132000D01*
X164000500Y-67132000D01*
X163967419Y-67130375D01*
X163934657Y-67125515D01*
X163902529Y-67117467D01*
X163871344Y-67106309D01*
X163841404Y-67092148D01*
X163812995Y-67075121D01*
X163786392Y-67055391D01*
X163761851Y-67033149D01*
X163739609Y-67008608D01*
X163719879Y-66982005D01*
X163702852Y-66953596D01*
X163688691Y-66923656D01*
X163677533Y-66892471D01*
X163669485Y-66860343D01*
X163664625Y-66827581D01*
X163663000Y-66794500D01*
X163663000Y-66019500D01*
X163664625Y-65986419D01*
X163669485Y-65953657D01*
X163677533Y-65921529D01*
X163688691Y-65890344D01*
X163702852Y-65860404D01*
X163719879Y-65831995D01*
X163739609Y-65805392D01*
X163761851Y-65780851D01*
X163786392Y-65758609D01*
X163812995Y-65738879D01*
X163841404Y-65721852D01*
X163871344Y-65707691D01*
X163902529Y-65696533D01*
X163934657Y-65688485D01*
X163967419Y-65683625D01*
X164000500Y-65682000D01*
X164675500Y-65682000D01*
X164708581Y-65683625D01*
X164708581Y-65683625D01*
G37*
D11*
X164338000Y-66407000D03*
D10*
G36*
X164708581Y-63933625D02*
X164741343Y-63938485D01*
X164773471Y-63946533D01*
X164804656Y-63957691D01*
X164834596Y-63971852D01*
X164863005Y-63988879D01*
X164889608Y-64008609D01*
X164914149Y-64030851D01*
X164936391Y-64055392D01*
X164956121Y-64081995D01*
X164973148Y-64110404D01*
X164987309Y-64140344D01*
X164998467Y-64171529D01*
X165006515Y-64203657D01*
X165011375Y-64236419D01*
X165013000Y-64269500D01*
X165013000Y-65044500D01*
X165011375Y-65077581D01*
X165006515Y-65110343D01*
X164998467Y-65142471D01*
X164987309Y-65173656D01*
X164973148Y-65203596D01*
X164956121Y-65232005D01*
X164936391Y-65258608D01*
X164914149Y-65283149D01*
X164889608Y-65305391D01*
X164863005Y-65325121D01*
X164834596Y-65342148D01*
X164804656Y-65356309D01*
X164773471Y-65367467D01*
X164741343Y-65375515D01*
X164708581Y-65380375D01*
X164675500Y-65382000D01*
X164000500Y-65382000D01*
X163967419Y-65380375D01*
X163934657Y-65375515D01*
X163902529Y-65367467D01*
X163871344Y-65356309D01*
X163841404Y-65342148D01*
X163812995Y-65325121D01*
X163786392Y-65305391D01*
X163761851Y-65283149D01*
X163739609Y-65258608D01*
X163719879Y-65232005D01*
X163702852Y-65203596D01*
X163688691Y-65173656D01*
X163677533Y-65142471D01*
X163669485Y-65110343D01*
X163664625Y-65077581D01*
X163663000Y-65044500D01*
X163663000Y-64269500D01*
X163664625Y-64236419D01*
X163669485Y-64203657D01*
X163677533Y-64171529D01*
X163688691Y-64140344D01*
X163702852Y-64110404D01*
X163719879Y-64081995D01*
X163739609Y-64055392D01*
X163761851Y-64030851D01*
X163786392Y-64008609D01*
X163812995Y-63988879D01*
X163841404Y-63971852D01*
X163871344Y-63957691D01*
X163902529Y-63946533D01*
X163934657Y-63938485D01*
X163967419Y-63933625D01*
X164000500Y-63932000D01*
X164675500Y-63932000D01*
X164708581Y-63933625D01*
X164708581Y-63933625D01*
G37*
D11*
X164338000Y-64657000D03*
G04 #@! TD*
D13*
G04 #@! TO.C,Conn1*
X155168600Y-95757000D03*
X155168600Y-103758000D03*
G04 #@! TD*
D14*
G04 #@! TO.C,U1*
X130382271Y-84284163D03*
X130382271Y-83014163D03*
X130382271Y-81744163D03*
X130382271Y-80474163D03*
X130382271Y-79204163D03*
X130382271Y-77934163D03*
X130382271Y-76664163D03*
X130382271Y-75394163D03*
X135782271Y-75394163D03*
X135782271Y-76664163D03*
X135782271Y-77934163D03*
X135782271Y-79204163D03*
X135782271Y-80474163D03*
X135782271Y-81744163D03*
X135782271Y-83014163D03*
X135782271Y-84284163D03*
G04 #@! TD*
G04 #@! TO.C,U2*
X168496000Y-60579000D03*
X168496000Y-61849000D03*
X168496000Y-63119000D03*
X168496000Y-64389000D03*
X168496000Y-65659000D03*
X168496000Y-66929000D03*
X168496000Y-68199000D03*
X168496000Y-69469000D03*
X173896000Y-69469000D03*
X173896000Y-68199000D03*
X173896000Y-66929000D03*
X173896000Y-65659000D03*
X173896000Y-64389000D03*
X173896000Y-63119000D03*
X173896000Y-61849000D03*
X173896000Y-60579000D03*
G04 #@! TD*
D10*
G04 #@! TO.C,D3*
G36*
X135548581Y-54190625D02*
X135581343Y-54195485D01*
X135613471Y-54203533D01*
X135644656Y-54214691D01*
X135674596Y-54228852D01*
X135703005Y-54245879D01*
X135729608Y-54265609D01*
X135754149Y-54287851D01*
X135776391Y-54312392D01*
X135796121Y-54338995D01*
X135813148Y-54367404D01*
X135827309Y-54397344D01*
X135838467Y-54428529D01*
X135846515Y-54460657D01*
X135851375Y-54493419D01*
X135853000Y-54526500D01*
X135853000Y-55201500D01*
X135851375Y-55234581D01*
X135846515Y-55267343D01*
X135838467Y-55299471D01*
X135827309Y-55330656D01*
X135813148Y-55360596D01*
X135796121Y-55389005D01*
X135776391Y-55415608D01*
X135754149Y-55440149D01*
X135729608Y-55462391D01*
X135703005Y-55482121D01*
X135674596Y-55499148D01*
X135644656Y-55513309D01*
X135613471Y-55524467D01*
X135581343Y-55532515D01*
X135548581Y-55537375D01*
X135515500Y-55539000D01*
X134740500Y-55539000D01*
X134707419Y-55537375D01*
X134674657Y-55532515D01*
X134642529Y-55524467D01*
X134611344Y-55513309D01*
X134581404Y-55499148D01*
X134552995Y-55482121D01*
X134526392Y-55462391D01*
X134501851Y-55440149D01*
X134479609Y-55415608D01*
X134459879Y-55389005D01*
X134442852Y-55360596D01*
X134428691Y-55330656D01*
X134417533Y-55299471D01*
X134409485Y-55267343D01*
X134404625Y-55234581D01*
X134403000Y-55201500D01*
X134403000Y-54526500D01*
X134404625Y-54493419D01*
X134409485Y-54460657D01*
X134417533Y-54428529D01*
X134428691Y-54397344D01*
X134442852Y-54367404D01*
X134459879Y-54338995D01*
X134479609Y-54312392D01*
X134501851Y-54287851D01*
X134526392Y-54265609D01*
X134552995Y-54245879D01*
X134581404Y-54228852D01*
X134611344Y-54214691D01*
X134642529Y-54203533D01*
X134674657Y-54195485D01*
X134707419Y-54190625D01*
X134740500Y-54189000D01*
X135515500Y-54189000D01*
X135548581Y-54190625D01*
X135548581Y-54190625D01*
G37*
D11*
X135128000Y-54864000D03*
D10*
G36*
X137298581Y-54190625D02*
X137331343Y-54195485D01*
X137363471Y-54203533D01*
X137394656Y-54214691D01*
X137424596Y-54228852D01*
X137453005Y-54245879D01*
X137479608Y-54265609D01*
X137504149Y-54287851D01*
X137526391Y-54312392D01*
X137546121Y-54338995D01*
X137563148Y-54367404D01*
X137577309Y-54397344D01*
X137588467Y-54428529D01*
X137596515Y-54460657D01*
X137601375Y-54493419D01*
X137603000Y-54526500D01*
X137603000Y-55201500D01*
X137601375Y-55234581D01*
X137596515Y-55267343D01*
X137588467Y-55299471D01*
X137577309Y-55330656D01*
X137563148Y-55360596D01*
X137546121Y-55389005D01*
X137526391Y-55415608D01*
X137504149Y-55440149D01*
X137479608Y-55462391D01*
X137453005Y-55482121D01*
X137424596Y-55499148D01*
X137394656Y-55513309D01*
X137363471Y-55524467D01*
X137331343Y-55532515D01*
X137298581Y-55537375D01*
X137265500Y-55539000D01*
X136490500Y-55539000D01*
X136457419Y-55537375D01*
X136424657Y-55532515D01*
X136392529Y-55524467D01*
X136361344Y-55513309D01*
X136331404Y-55499148D01*
X136302995Y-55482121D01*
X136276392Y-55462391D01*
X136251851Y-55440149D01*
X136229609Y-55415608D01*
X136209879Y-55389005D01*
X136192852Y-55360596D01*
X136178691Y-55330656D01*
X136167533Y-55299471D01*
X136159485Y-55267343D01*
X136154625Y-55234581D01*
X136153000Y-55201500D01*
X136153000Y-54526500D01*
X136154625Y-54493419D01*
X136159485Y-54460657D01*
X136167533Y-54428529D01*
X136178691Y-54397344D01*
X136192852Y-54367404D01*
X136209879Y-54338995D01*
X136229609Y-54312392D01*
X136251851Y-54287851D01*
X136276392Y-54265609D01*
X136302995Y-54245879D01*
X136331404Y-54228852D01*
X136361344Y-54214691D01*
X136392529Y-54203533D01*
X136424657Y-54195485D01*
X136457419Y-54190625D01*
X136490500Y-54189000D01*
X137265500Y-54189000D01*
X137298581Y-54190625D01*
X137298581Y-54190625D01*
G37*
D11*
X136878000Y-54864000D03*
G04 #@! TD*
D10*
G04 #@! TO.C,D4*
G36*
X154570581Y-54190625D02*
X154603343Y-54195485D01*
X154635471Y-54203533D01*
X154666656Y-54214691D01*
X154696596Y-54228852D01*
X154725005Y-54245879D01*
X154751608Y-54265609D01*
X154776149Y-54287851D01*
X154798391Y-54312392D01*
X154818121Y-54338995D01*
X154835148Y-54367404D01*
X154849309Y-54397344D01*
X154860467Y-54428529D01*
X154868515Y-54460657D01*
X154873375Y-54493419D01*
X154875000Y-54526500D01*
X154875000Y-55201500D01*
X154873375Y-55234581D01*
X154868515Y-55267343D01*
X154860467Y-55299471D01*
X154849309Y-55330656D01*
X154835148Y-55360596D01*
X154818121Y-55389005D01*
X154798391Y-55415608D01*
X154776149Y-55440149D01*
X154751608Y-55462391D01*
X154725005Y-55482121D01*
X154696596Y-55499148D01*
X154666656Y-55513309D01*
X154635471Y-55524467D01*
X154603343Y-55532515D01*
X154570581Y-55537375D01*
X154537500Y-55539000D01*
X153762500Y-55539000D01*
X153729419Y-55537375D01*
X153696657Y-55532515D01*
X153664529Y-55524467D01*
X153633344Y-55513309D01*
X153603404Y-55499148D01*
X153574995Y-55482121D01*
X153548392Y-55462391D01*
X153523851Y-55440149D01*
X153501609Y-55415608D01*
X153481879Y-55389005D01*
X153464852Y-55360596D01*
X153450691Y-55330656D01*
X153439533Y-55299471D01*
X153431485Y-55267343D01*
X153426625Y-55234581D01*
X153425000Y-55201500D01*
X153425000Y-54526500D01*
X153426625Y-54493419D01*
X153431485Y-54460657D01*
X153439533Y-54428529D01*
X153450691Y-54397344D01*
X153464852Y-54367404D01*
X153481879Y-54338995D01*
X153501609Y-54312392D01*
X153523851Y-54287851D01*
X153548392Y-54265609D01*
X153574995Y-54245879D01*
X153603404Y-54228852D01*
X153633344Y-54214691D01*
X153664529Y-54203533D01*
X153696657Y-54195485D01*
X153729419Y-54190625D01*
X153762500Y-54189000D01*
X154537500Y-54189000D01*
X154570581Y-54190625D01*
X154570581Y-54190625D01*
G37*
D11*
X154150000Y-54864000D03*
D10*
G36*
X152820581Y-54190625D02*
X152853343Y-54195485D01*
X152885471Y-54203533D01*
X152916656Y-54214691D01*
X152946596Y-54228852D01*
X152975005Y-54245879D01*
X153001608Y-54265609D01*
X153026149Y-54287851D01*
X153048391Y-54312392D01*
X153068121Y-54338995D01*
X153085148Y-54367404D01*
X153099309Y-54397344D01*
X153110467Y-54428529D01*
X153118515Y-54460657D01*
X153123375Y-54493419D01*
X153125000Y-54526500D01*
X153125000Y-55201500D01*
X153123375Y-55234581D01*
X153118515Y-55267343D01*
X153110467Y-55299471D01*
X153099309Y-55330656D01*
X153085148Y-55360596D01*
X153068121Y-55389005D01*
X153048391Y-55415608D01*
X153026149Y-55440149D01*
X153001608Y-55462391D01*
X152975005Y-55482121D01*
X152946596Y-55499148D01*
X152916656Y-55513309D01*
X152885471Y-55524467D01*
X152853343Y-55532515D01*
X152820581Y-55537375D01*
X152787500Y-55539000D01*
X152012500Y-55539000D01*
X151979419Y-55537375D01*
X151946657Y-55532515D01*
X151914529Y-55524467D01*
X151883344Y-55513309D01*
X151853404Y-55499148D01*
X151824995Y-55482121D01*
X151798392Y-55462391D01*
X151773851Y-55440149D01*
X151751609Y-55415608D01*
X151731879Y-55389005D01*
X151714852Y-55360596D01*
X151700691Y-55330656D01*
X151689533Y-55299471D01*
X151681485Y-55267343D01*
X151676625Y-55234581D01*
X151675000Y-55201500D01*
X151675000Y-54526500D01*
X151676625Y-54493419D01*
X151681485Y-54460657D01*
X151689533Y-54428529D01*
X151700691Y-54397344D01*
X151714852Y-54367404D01*
X151731879Y-54338995D01*
X151751609Y-54312392D01*
X151773851Y-54287851D01*
X151798392Y-54265609D01*
X151824995Y-54245879D01*
X151853404Y-54228852D01*
X151883344Y-54214691D01*
X151914529Y-54203533D01*
X151946657Y-54195485D01*
X151979419Y-54190625D01*
X152012500Y-54189000D01*
X152787500Y-54189000D01*
X152820581Y-54190625D01*
X152820581Y-54190625D01*
G37*
D11*
X152400000Y-54864000D03*
G04 #@! TD*
D10*
G04 #@! TO.C,D5*
G36*
X170120581Y-54190625D02*
X170153343Y-54195485D01*
X170185471Y-54203533D01*
X170216656Y-54214691D01*
X170246596Y-54228852D01*
X170275005Y-54245879D01*
X170301608Y-54265609D01*
X170326149Y-54287851D01*
X170348391Y-54312392D01*
X170368121Y-54338995D01*
X170385148Y-54367404D01*
X170399309Y-54397344D01*
X170410467Y-54428529D01*
X170418515Y-54460657D01*
X170423375Y-54493419D01*
X170425000Y-54526500D01*
X170425000Y-55201500D01*
X170423375Y-55234581D01*
X170418515Y-55267343D01*
X170410467Y-55299471D01*
X170399309Y-55330656D01*
X170385148Y-55360596D01*
X170368121Y-55389005D01*
X170348391Y-55415608D01*
X170326149Y-55440149D01*
X170301608Y-55462391D01*
X170275005Y-55482121D01*
X170246596Y-55499148D01*
X170216656Y-55513309D01*
X170185471Y-55524467D01*
X170153343Y-55532515D01*
X170120581Y-55537375D01*
X170087500Y-55539000D01*
X169312500Y-55539000D01*
X169279419Y-55537375D01*
X169246657Y-55532515D01*
X169214529Y-55524467D01*
X169183344Y-55513309D01*
X169153404Y-55499148D01*
X169124995Y-55482121D01*
X169098392Y-55462391D01*
X169073851Y-55440149D01*
X169051609Y-55415608D01*
X169031879Y-55389005D01*
X169014852Y-55360596D01*
X169000691Y-55330656D01*
X168989533Y-55299471D01*
X168981485Y-55267343D01*
X168976625Y-55234581D01*
X168975000Y-55201500D01*
X168975000Y-54526500D01*
X168976625Y-54493419D01*
X168981485Y-54460657D01*
X168989533Y-54428529D01*
X169000691Y-54397344D01*
X169014852Y-54367404D01*
X169031879Y-54338995D01*
X169051609Y-54312392D01*
X169073851Y-54287851D01*
X169098392Y-54265609D01*
X169124995Y-54245879D01*
X169153404Y-54228852D01*
X169183344Y-54214691D01*
X169214529Y-54203533D01*
X169246657Y-54195485D01*
X169279419Y-54190625D01*
X169312500Y-54189000D01*
X170087500Y-54189000D01*
X170120581Y-54190625D01*
X170120581Y-54190625D01*
G37*
D11*
X169700000Y-54864000D03*
D10*
G36*
X171870581Y-54190625D02*
X171903343Y-54195485D01*
X171935471Y-54203533D01*
X171966656Y-54214691D01*
X171996596Y-54228852D01*
X172025005Y-54245879D01*
X172051608Y-54265609D01*
X172076149Y-54287851D01*
X172098391Y-54312392D01*
X172118121Y-54338995D01*
X172135148Y-54367404D01*
X172149309Y-54397344D01*
X172160467Y-54428529D01*
X172168515Y-54460657D01*
X172173375Y-54493419D01*
X172175000Y-54526500D01*
X172175000Y-55201500D01*
X172173375Y-55234581D01*
X172168515Y-55267343D01*
X172160467Y-55299471D01*
X172149309Y-55330656D01*
X172135148Y-55360596D01*
X172118121Y-55389005D01*
X172098391Y-55415608D01*
X172076149Y-55440149D01*
X172051608Y-55462391D01*
X172025005Y-55482121D01*
X171996596Y-55499148D01*
X171966656Y-55513309D01*
X171935471Y-55524467D01*
X171903343Y-55532515D01*
X171870581Y-55537375D01*
X171837500Y-55539000D01*
X171062500Y-55539000D01*
X171029419Y-55537375D01*
X170996657Y-55532515D01*
X170964529Y-55524467D01*
X170933344Y-55513309D01*
X170903404Y-55499148D01*
X170874995Y-55482121D01*
X170848392Y-55462391D01*
X170823851Y-55440149D01*
X170801609Y-55415608D01*
X170781879Y-55389005D01*
X170764852Y-55360596D01*
X170750691Y-55330656D01*
X170739533Y-55299471D01*
X170731485Y-55267343D01*
X170726625Y-55234581D01*
X170725000Y-55201500D01*
X170725000Y-54526500D01*
X170726625Y-54493419D01*
X170731485Y-54460657D01*
X170739533Y-54428529D01*
X170750691Y-54397344D01*
X170764852Y-54367404D01*
X170781879Y-54338995D01*
X170801609Y-54312392D01*
X170823851Y-54287851D01*
X170848392Y-54265609D01*
X170874995Y-54245879D01*
X170903404Y-54228852D01*
X170933344Y-54214691D01*
X170964529Y-54203533D01*
X170996657Y-54195485D01*
X171029419Y-54190625D01*
X171062500Y-54189000D01*
X171837500Y-54189000D01*
X171870581Y-54190625D01*
X171870581Y-54190625D01*
G37*
D11*
X171450000Y-54864000D03*
G04 #@! TD*
D15*
G04 #@! TO.C,SW7*
X180848000Y-42164000D03*
D16*
X180848000Y-44164000D03*
X180848000Y-46164000D03*
D17*
X180848000Y-40064000D03*
X180848000Y-48264000D03*
G04 #@! TD*
D10*
G04 #@! TO.C,D6*
G36*
X149722581Y-95034625D02*
X149755343Y-95039485D01*
X149787471Y-95047533D01*
X149818656Y-95058691D01*
X149848596Y-95072852D01*
X149877005Y-95089879D01*
X149903608Y-95109609D01*
X149928149Y-95131851D01*
X149950391Y-95156392D01*
X149970121Y-95182995D01*
X149987148Y-95211404D01*
X150001309Y-95241344D01*
X150012467Y-95272529D01*
X150020515Y-95304657D01*
X150025375Y-95337419D01*
X150027000Y-95370500D01*
X150027000Y-96145500D01*
X150025375Y-96178581D01*
X150020515Y-96211343D01*
X150012467Y-96243471D01*
X150001309Y-96274656D01*
X149987148Y-96304596D01*
X149970121Y-96333005D01*
X149950391Y-96359608D01*
X149928149Y-96384149D01*
X149903608Y-96406391D01*
X149877005Y-96426121D01*
X149848596Y-96443148D01*
X149818656Y-96457309D01*
X149787471Y-96468467D01*
X149755343Y-96476515D01*
X149722581Y-96481375D01*
X149689500Y-96483000D01*
X149014500Y-96483000D01*
X148981419Y-96481375D01*
X148948657Y-96476515D01*
X148916529Y-96468467D01*
X148885344Y-96457309D01*
X148855404Y-96443148D01*
X148826995Y-96426121D01*
X148800392Y-96406391D01*
X148775851Y-96384149D01*
X148753609Y-96359608D01*
X148733879Y-96333005D01*
X148716852Y-96304596D01*
X148702691Y-96274656D01*
X148691533Y-96243471D01*
X148683485Y-96211343D01*
X148678625Y-96178581D01*
X148677000Y-96145500D01*
X148677000Y-95370500D01*
X148678625Y-95337419D01*
X148683485Y-95304657D01*
X148691533Y-95272529D01*
X148702691Y-95241344D01*
X148716852Y-95211404D01*
X148733879Y-95182995D01*
X148753609Y-95156392D01*
X148775851Y-95131851D01*
X148800392Y-95109609D01*
X148826995Y-95089879D01*
X148855404Y-95072852D01*
X148885344Y-95058691D01*
X148916529Y-95047533D01*
X148948657Y-95039485D01*
X148981419Y-95034625D01*
X149014500Y-95033000D01*
X149689500Y-95033000D01*
X149722581Y-95034625D01*
X149722581Y-95034625D01*
G37*
D11*
X149352000Y-95758000D03*
D10*
G36*
X149722581Y-93284625D02*
X149755343Y-93289485D01*
X149787471Y-93297533D01*
X149818656Y-93308691D01*
X149848596Y-93322852D01*
X149877005Y-93339879D01*
X149903608Y-93359609D01*
X149928149Y-93381851D01*
X149950391Y-93406392D01*
X149970121Y-93432995D01*
X149987148Y-93461404D01*
X150001309Y-93491344D01*
X150012467Y-93522529D01*
X150020515Y-93554657D01*
X150025375Y-93587419D01*
X150027000Y-93620500D01*
X150027000Y-94395500D01*
X150025375Y-94428581D01*
X150020515Y-94461343D01*
X150012467Y-94493471D01*
X150001309Y-94524656D01*
X149987148Y-94554596D01*
X149970121Y-94583005D01*
X149950391Y-94609608D01*
X149928149Y-94634149D01*
X149903608Y-94656391D01*
X149877005Y-94676121D01*
X149848596Y-94693148D01*
X149818656Y-94707309D01*
X149787471Y-94718467D01*
X149755343Y-94726515D01*
X149722581Y-94731375D01*
X149689500Y-94733000D01*
X149014500Y-94733000D01*
X148981419Y-94731375D01*
X148948657Y-94726515D01*
X148916529Y-94718467D01*
X148885344Y-94707309D01*
X148855404Y-94693148D01*
X148826995Y-94676121D01*
X148800392Y-94656391D01*
X148775851Y-94634149D01*
X148753609Y-94609608D01*
X148733879Y-94583005D01*
X148716852Y-94554596D01*
X148702691Y-94524656D01*
X148691533Y-94493471D01*
X148683485Y-94461343D01*
X148678625Y-94428581D01*
X148677000Y-94395500D01*
X148677000Y-93620500D01*
X148678625Y-93587419D01*
X148683485Y-93554657D01*
X148691533Y-93522529D01*
X148702691Y-93491344D01*
X148716852Y-93461404D01*
X148733879Y-93432995D01*
X148753609Y-93406392D01*
X148775851Y-93381851D01*
X148800392Y-93359609D01*
X148826995Y-93339879D01*
X148855404Y-93322852D01*
X148885344Y-93308691D01*
X148916529Y-93297533D01*
X148948657Y-93289485D01*
X148981419Y-93284625D01*
X149014500Y-93283000D01*
X149689500Y-93283000D01*
X149722581Y-93284625D01*
X149722581Y-93284625D01*
G37*
D11*
X149352000Y-94008000D03*
G04 #@! TD*
D10*
G04 #@! TO.C,D7*
G36*
X145404581Y-95034625D02*
X145437343Y-95039485D01*
X145469471Y-95047533D01*
X145500656Y-95058691D01*
X145530596Y-95072852D01*
X145559005Y-95089879D01*
X145585608Y-95109609D01*
X145610149Y-95131851D01*
X145632391Y-95156392D01*
X145652121Y-95182995D01*
X145669148Y-95211404D01*
X145683309Y-95241344D01*
X145694467Y-95272529D01*
X145702515Y-95304657D01*
X145707375Y-95337419D01*
X145709000Y-95370500D01*
X145709000Y-96145500D01*
X145707375Y-96178581D01*
X145702515Y-96211343D01*
X145694467Y-96243471D01*
X145683309Y-96274656D01*
X145669148Y-96304596D01*
X145652121Y-96333005D01*
X145632391Y-96359608D01*
X145610149Y-96384149D01*
X145585608Y-96406391D01*
X145559005Y-96426121D01*
X145530596Y-96443148D01*
X145500656Y-96457309D01*
X145469471Y-96468467D01*
X145437343Y-96476515D01*
X145404581Y-96481375D01*
X145371500Y-96483000D01*
X144696500Y-96483000D01*
X144663419Y-96481375D01*
X144630657Y-96476515D01*
X144598529Y-96468467D01*
X144567344Y-96457309D01*
X144537404Y-96443148D01*
X144508995Y-96426121D01*
X144482392Y-96406391D01*
X144457851Y-96384149D01*
X144435609Y-96359608D01*
X144415879Y-96333005D01*
X144398852Y-96304596D01*
X144384691Y-96274656D01*
X144373533Y-96243471D01*
X144365485Y-96211343D01*
X144360625Y-96178581D01*
X144359000Y-96145500D01*
X144359000Y-95370500D01*
X144360625Y-95337419D01*
X144365485Y-95304657D01*
X144373533Y-95272529D01*
X144384691Y-95241344D01*
X144398852Y-95211404D01*
X144415879Y-95182995D01*
X144435609Y-95156392D01*
X144457851Y-95131851D01*
X144482392Y-95109609D01*
X144508995Y-95089879D01*
X144537404Y-95072852D01*
X144567344Y-95058691D01*
X144598529Y-95047533D01*
X144630657Y-95039485D01*
X144663419Y-95034625D01*
X144696500Y-95033000D01*
X145371500Y-95033000D01*
X145404581Y-95034625D01*
X145404581Y-95034625D01*
G37*
D11*
X145034000Y-95758000D03*
D10*
G36*
X145404581Y-93284625D02*
X145437343Y-93289485D01*
X145469471Y-93297533D01*
X145500656Y-93308691D01*
X145530596Y-93322852D01*
X145559005Y-93339879D01*
X145585608Y-93359609D01*
X145610149Y-93381851D01*
X145632391Y-93406392D01*
X145652121Y-93432995D01*
X145669148Y-93461404D01*
X145683309Y-93491344D01*
X145694467Y-93522529D01*
X145702515Y-93554657D01*
X145707375Y-93587419D01*
X145709000Y-93620500D01*
X145709000Y-94395500D01*
X145707375Y-94428581D01*
X145702515Y-94461343D01*
X145694467Y-94493471D01*
X145683309Y-94524656D01*
X145669148Y-94554596D01*
X145652121Y-94583005D01*
X145632391Y-94609608D01*
X145610149Y-94634149D01*
X145585608Y-94656391D01*
X145559005Y-94676121D01*
X145530596Y-94693148D01*
X145500656Y-94707309D01*
X145469471Y-94718467D01*
X145437343Y-94726515D01*
X145404581Y-94731375D01*
X145371500Y-94733000D01*
X144696500Y-94733000D01*
X144663419Y-94731375D01*
X144630657Y-94726515D01*
X144598529Y-94718467D01*
X144567344Y-94707309D01*
X144537404Y-94693148D01*
X144508995Y-94676121D01*
X144482392Y-94656391D01*
X144457851Y-94634149D01*
X144435609Y-94609608D01*
X144415879Y-94583005D01*
X144398852Y-94554596D01*
X144384691Y-94524656D01*
X144373533Y-94493471D01*
X144365485Y-94461343D01*
X144360625Y-94428581D01*
X144359000Y-94395500D01*
X144359000Y-93620500D01*
X144360625Y-93587419D01*
X144365485Y-93554657D01*
X144373533Y-93522529D01*
X144384691Y-93491344D01*
X144398852Y-93461404D01*
X144415879Y-93432995D01*
X144435609Y-93406392D01*
X144457851Y-93381851D01*
X144482392Y-93359609D01*
X144508995Y-93339879D01*
X144537404Y-93322852D01*
X144567344Y-93308691D01*
X144598529Y-93297533D01*
X144630657Y-93289485D01*
X144663419Y-93284625D01*
X144696500Y-93283000D01*
X145371500Y-93283000D01*
X145404581Y-93284625D01*
X145404581Y-93284625D01*
G37*
D11*
X145034000Y-94008000D03*
G04 #@! TD*
D10*
G04 #@! TO.C,D8*
G36*
X141340581Y-94893625D02*
X141373343Y-94898485D01*
X141405471Y-94906533D01*
X141436656Y-94917691D01*
X141466596Y-94931852D01*
X141495005Y-94948879D01*
X141521608Y-94968609D01*
X141546149Y-94990851D01*
X141568391Y-95015392D01*
X141588121Y-95041995D01*
X141605148Y-95070404D01*
X141619309Y-95100344D01*
X141630467Y-95131529D01*
X141638515Y-95163657D01*
X141643375Y-95196419D01*
X141645000Y-95229500D01*
X141645000Y-96004500D01*
X141643375Y-96037581D01*
X141638515Y-96070343D01*
X141630467Y-96102471D01*
X141619309Y-96133656D01*
X141605148Y-96163596D01*
X141588121Y-96192005D01*
X141568391Y-96218608D01*
X141546149Y-96243149D01*
X141521608Y-96265391D01*
X141495005Y-96285121D01*
X141466596Y-96302148D01*
X141436656Y-96316309D01*
X141405471Y-96327467D01*
X141373343Y-96335515D01*
X141340581Y-96340375D01*
X141307500Y-96342000D01*
X140632500Y-96342000D01*
X140599419Y-96340375D01*
X140566657Y-96335515D01*
X140534529Y-96327467D01*
X140503344Y-96316309D01*
X140473404Y-96302148D01*
X140444995Y-96285121D01*
X140418392Y-96265391D01*
X140393851Y-96243149D01*
X140371609Y-96218608D01*
X140351879Y-96192005D01*
X140334852Y-96163596D01*
X140320691Y-96133656D01*
X140309533Y-96102471D01*
X140301485Y-96070343D01*
X140296625Y-96037581D01*
X140295000Y-96004500D01*
X140295000Y-95229500D01*
X140296625Y-95196419D01*
X140301485Y-95163657D01*
X140309533Y-95131529D01*
X140320691Y-95100344D01*
X140334852Y-95070404D01*
X140351879Y-95041995D01*
X140371609Y-95015392D01*
X140393851Y-94990851D01*
X140418392Y-94968609D01*
X140444995Y-94948879D01*
X140473404Y-94931852D01*
X140503344Y-94917691D01*
X140534529Y-94906533D01*
X140566657Y-94898485D01*
X140599419Y-94893625D01*
X140632500Y-94892000D01*
X141307500Y-94892000D01*
X141340581Y-94893625D01*
X141340581Y-94893625D01*
G37*
D11*
X140970000Y-95617000D03*
D10*
G36*
X141340581Y-93143625D02*
X141373343Y-93148485D01*
X141405471Y-93156533D01*
X141436656Y-93167691D01*
X141466596Y-93181852D01*
X141495005Y-93198879D01*
X141521608Y-93218609D01*
X141546149Y-93240851D01*
X141568391Y-93265392D01*
X141588121Y-93291995D01*
X141605148Y-93320404D01*
X141619309Y-93350344D01*
X141630467Y-93381529D01*
X141638515Y-93413657D01*
X141643375Y-93446419D01*
X141645000Y-93479500D01*
X141645000Y-94254500D01*
X141643375Y-94287581D01*
X141638515Y-94320343D01*
X141630467Y-94352471D01*
X141619309Y-94383656D01*
X141605148Y-94413596D01*
X141588121Y-94442005D01*
X141568391Y-94468608D01*
X141546149Y-94493149D01*
X141521608Y-94515391D01*
X141495005Y-94535121D01*
X141466596Y-94552148D01*
X141436656Y-94566309D01*
X141405471Y-94577467D01*
X141373343Y-94585515D01*
X141340581Y-94590375D01*
X141307500Y-94592000D01*
X140632500Y-94592000D01*
X140599419Y-94590375D01*
X140566657Y-94585515D01*
X140534529Y-94577467D01*
X140503344Y-94566309D01*
X140473404Y-94552148D01*
X140444995Y-94535121D01*
X140418392Y-94515391D01*
X140393851Y-94493149D01*
X140371609Y-94468608D01*
X140351879Y-94442005D01*
X140334852Y-94413596D01*
X140320691Y-94383656D01*
X140309533Y-94352471D01*
X140301485Y-94320343D01*
X140296625Y-94287581D01*
X140295000Y-94254500D01*
X140295000Y-93479500D01*
X140296625Y-93446419D01*
X140301485Y-93413657D01*
X140309533Y-93381529D01*
X140320691Y-93350344D01*
X140334852Y-93320404D01*
X140351879Y-93291995D01*
X140371609Y-93265392D01*
X140393851Y-93240851D01*
X140418392Y-93218609D01*
X140444995Y-93198879D01*
X140473404Y-93181852D01*
X140503344Y-93167691D01*
X140534529Y-93156533D01*
X140566657Y-93148485D01*
X140599419Y-93143625D01*
X140632500Y-93142000D01*
X141307500Y-93142000D01*
X141340581Y-93143625D01*
X141340581Y-93143625D01*
G37*
D11*
X140970000Y-93867000D03*
G04 #@! TD*
D10*
G04 #@! TO.C,D2*
G36*
X137276581Y-94893625D02*
X137309343Y-94898485D01*
X137341471Y-94906533D01*
X137372656Y-94917691D01*
X137402596Y-94931852D01*
X137431005Y-94948879D01*
X137457608Y-94968609D01*
X137482149Y-94990851D01*
X137504391Y-95015392D01*
X137524121Y-95041995D01*
X137541148Y-95070404D01*
X137555309Y-95100344D01*
X137566467Y-95131529D01*
X137574515Y-95163657D01*
X137579375Y-95196419D01*
X137581000Y-95229500D01*
X137581000Y-96004500D01*
X137579375Y-96037581D01*
X137574515Y-96070343D01*
X137566467Y-96102471D01*
X137555309Y-96133656D01*
X137541148Y-96163596D01*
X137524121Y-96192005D01*
X137504391Y-96218608D01*
X137482149Y-96243149D01*
X137457608Y-96265391D01*
X137431005Y-96285121D01*
X137402596Y-96302148D01*
X137372656Y-96316309D01*
X137341471Y-96327467D01*
X137309343Y-96335515D01*
X137276581Y-96340375D01*
X137243500Y-96342000D01*
X136568500Y-96342000D01*
X136535419Y-96340375D01*
X136502657Y-96335515D01*
X136470529Y-96327467D01*
X136439344Y-96316309D01*
X136409404Y-96302148D01*
X136380995Y-96285121D01*
X136354392Y-96265391D01*
X136329851Y-96243149D01*
X136307609Y-96218608D01*
X136287879Y-96192005D01*
X136270852Y-96163596D01*
X136256691Y-96133656D01*
X136245533Y-96102471D01*
X136237485Y-96070343D01*
X136232625Y-96037581D01*
X136231000Y-96004500D01*
X136231000Y-95229500D01*
X136232625Y-95196419D01*
X136237485Y-95163657D01*
X136245533Y-95131529D01*
X136256691Y-95100344D01*
X136270852Y-95070404D01*
X136287879Y-95041995D01*
X136307609Y-95015392D01*
X136329851Y-94990851D01*
X136354392Y-94968609D01*
X136380995Y-94948879D01*
X136409404Y-94931852D01*
X136439344Y-94917691D01*
X136470529Y-94906533D01*
X136502657Y-94898485D01*
X136535419Y-94893625D01*
X136568500Y-94892000D01*
X137243500Y-94892000D01*
X137276581Y-94893625D01*
X137276581Y-94893625D01*
G37*
D11*
X136906000Y-95617000D03*
D10*
G36*
X137276581Y-93143625D02*
X137309343Y-93148485D01*
X137341471Y-93156533D01*
X137372656Y-93167691D01*
X137402596Y-93181852D01*
X137431005Y-93198879D01*
X137457608Y-93218609D01*
X137482149Y-93240851D01*
X137504391Y-93265392D01*
X137524121Y-93291995D01*
X137541148Y-93320404D01*
X137555309Y-93350344D01*
X137566467Y-93381529D01*
X137574515Y-93413657D01*
X137579375Y-93446419D01*
X137581000Y-93479500D01*
X137581000Y-94254500D01*
X137579375Y-94287581D01*
X137574515Y-94320343D01*
X137566467Y-94352471D01*
X137555309Y-94383656D01*
X137541148Y-94413596D01*
X137524121Y-94442005D01*
X137504391Y-94468608D01*
X137482149Y-94493149D01*
X137457608Y-94515391D01*
X137431005Y-94535121D01*
X137402596Y-94552148D01*
X137372656Y-94566309D01*
X137341471Y-94577467D01*
X137309343Y-94585515D01*
X137276581Y-94590375D01*
X137243500Y-94592000D01*
X136568500Y-94592000D01*
X136535419Y-94590375D01*
X136502657Y-94585515D01*
X136470529Y-94577467D01*
X136439344Y-94566309D01*
X136409404Y-94552148D01*
X136380995Y-94535121D01*
X136354392Y-94515391D01*
X136329851Y-94493149D01*
X136307609Y-94468608D01*
X136287879Y-94442005D01*
X136270852Y-94413596D01*
X136256691Y-94383656D01*
X136245533Y-94352471D01*
X136237485Y-94320343D01*
X136232625Y-94287581D01*
X136231000Y-94254500D01*
X136231000Y-93479500D01*
X136232625Y-93446419D01*
X136237485Y-93413657D01*
X136245533Y-93381529D01*
X136256691Y-93350344D01*
X136270852Y-93320404D01*
X136287879Y-93291995D01*
X136307609Y-93265392D01*
X136329851Y-93240851D01*
X136354392Y-93218609D01*
X136380995Y-93198879D01*
X136409404Y-93181852D01*
X136439344Y-93167691D01*
X136470529Y-93156533D01*
X136502657Y-93148485D01*
X136535419Y-93143625D01*
X136568500Y-93142000D01*
X137243500Y-93142000D01*
X137276581Y-93143625D01*
X137276581Y-93143625D01*
G37*
D11*
X136906000Y-93867000D03*
G04 #@! TD*
M02*
