G04 #@! TF.GenerationSoftware,KiCad,Pcbnew,(5.0.0)*
G04 #@! TF.CreationDate,2018-12-16T15:07:14-06:00*
G04 #@! TF.ProjectId,DriveBoard_Hardware,4472697665426F6172645F4861726477,rev?*
G04 #@! TF.SameCoordinates,Original*
G04 #@! TF.FileFunction,Copper,L2,Bot,Signal*
G04 #@! TF.FilePolarity,Positive*
%FSLAX46Y46*%
G04 Gerber Fmt 4.6, Leading zero omitted, Abs format (unit mm)*
G04 Created by KiCad (PCBNEW (5.0.0)) date 12/16/18 15:07:14*
%MOMM*%
%LPD*%
G01*
G04 APERTURE LIST*
G04 #@! TA.AperFunction,ComponentPad*
%ADD10C,1.524000*%
G04 #@! TD*
G04 #@! TA.AperFunction,ComponentPad*
%ADD11C,5.080000*%
G04 #@! TD*
G04 #@! TA.AperFunction,SMDPad,CuDef*
%ADD12R,0.990600X1.778000*%
G04 #@! TD*
G04 #@! TA.AperFunction,SMDPad,CuDef*
%ADD13R,1.400000X1.600000*%
G04 #@! TD*
G04 #@! TA.AperFunction,ComponentPad*
%ADD14R,2.500000X1.500000*%
G04 #@! TD*
G04 #@! TA.AperFunction,ComponentPad*
%ADD15O,2.500000X1.500000*%
G04 #@! TD*
G04 #@! TA.AperFunction,ComponentPad*
%ADD16O,3.500000X2.200000*%
G04 #@! TD*
G04 #@! TA.AperFunction,Conductor*
%ADD17C,0.100000*%
G04 #@! TD*
G04 #@! TA.AperFunction,SMDPad,CuDef*
%ADD18C,0.950000*%
G04 #@! TD*
G04 #@! TA.AperFunction,ViaPad*
%ADD19C,0.800000*%
G04 #@! TD*
G04 #@! TA.AperFunction,Conductor*
%ADD20C,0.381000*%
G04 #@! TD*
G04 #@! TA.AperFunction,Conductor*
%ADD21C,0.254000*%
G04 #@! TD*
G04 APERTURE END LIST*
D10*
G04 #@! TO.P,Conn2,1*
G04 #@! TO.N,RX_1_SL*
X126238000Y-49022000D03*
G04 #@! TO.P,Conn2,2*
G04 #@! TO.N,TX_1_SL*
X128778000Y-49022000D03*
G04 #@! TO.P,Conn2,3*
G04 #@! TO.N,Net-(Conn2-Pad3)*
X131318000Y-49022000D03*
G04 #@! TO.P,Conn2,4*
G04 #@! TO.N,Net-(Conn2-Pad4)*
X133858000Y-49022000D03*
G04 #@! TO.P,Conn2,5*
G04 #@! TO.N,GND*
X136398000Y-49022000D03*
G04 #@! TD*
G04 #@! TO.P,U3,1*
G04 #@! TO.N,/+12V*
X167132000Y-85852000D03*
G04 #@! TO.P,U3,2*
G04 #@! TO.N,GND*
X167132000Y-83312000D03*
G04 #@! TO.P,U3,3*
G04 #@! TO.N,+5V*
X167132000Y-80772000D03*
G04 #@! TD*
G04 #@! TO.P,Conn3,1*
G04 #@! TO.N,RX_2_SL*
X143510000Y-49022000D03*
G04 #@! TO.P,Conn3,2*
G04 #@! TO.N,TX_2_SL*
X146050000Y-49022000D03*
G04 #@! TO.P,Conn3,3*
G04 #@! TO.N,Net-(Conn3-Pad3)*
X148590000Y-49022000D03*
G04 #@! TO.P,Conn3,4*
G04 #@! TO.N,Net-(Conn3-Pad4)*
X151130000Y-49022000D03*
G04 #@! TO.P,Conn3,5*
G04 #@! TO.N,GND*
X153670000Y-49022000D03*
G04 #@! TD*
G04 #@! TO.P,Conn4,1*
G04 #@! TO.N,RX_3_SL*
X160782000Y-49022000D03*
G04 #@! TO.P,Conn4,2*
G04 #@! TO.N,TX_3_SL*
X163322000Y-49022000D03*
G04 #@! TO.P,Conn4,3*
G04 #@! TO.N,Net-(Conn4-Pad3)*
X165862000Y-49022000D03*
G04 #@! TO.P,Conn4,4*
G04 #@! TO.N,Net-(Conn4-Pad4)*
X168402000Y-49022000D03*
G04 #@! TO.P,Conn4,5*
G04 #@! TO.N,GND*
X170942000Y-49022000D03*
G04 #@! TD*
D11*
G04 #@! TO.P,Conn1,1*
G04 #@! TO.N,GND*
X155168600Y-95757000D03*
G04 #@! TO.P,Conn1,2*
G04 #@! TO.N,/+12V*
X155168600Y-103758000D03*
G04 #@! TD*
D12*
G04 #@! TO.P,U4,+3V3*
G04 #@! TO.N,Net-(U4-Pad+3V3)*
X123698000Y-110134400D03*
G04 #@! TO.P,U4,PM6*
G04 #@! TO.N,Net-(U4-PadPM6)*
X146558000Y-61061600D03*
G04 #@! TO.P,U4,PQ1*
G04 #@! TO.N,Net-(U4-PadPQ1)*
X144018000Y-61061600D03*
G04 #@! TO.P,U4,PQ2*
G04 #@! TO.N,Net-(U4-PadPQ2)*
X136398000Y-61061600D03*
G04 #@! TO.P,U4,PK0*
G04 #@! TO.N,RX_1_IC*
X133858000Y-104241600D03*
G04 #@! TO.P,U4,PQ3*
G04 #@! TO.N,Net-(U4-PadPQ3)*
X138938000Y-61061600D03*
G04 #@! TO.P,U4,PP3*
G04 #@! TO.N,Net-(U4-PadPP3)*
X141478000Y-61061600D03*
G04 #@! TO.P,U4,PQ0*
G04 #@! TO.N,M3_SW*
X138938000Y-110134400D03*
G04 #@! TO.P,U4,PA4*
G04 #@! TO.N,RX_3_IC*
X144018000Y-104241600D03*
G04 #@! TO.P,U4,Rese*
G04 #@! TO.N,Net-(U4-PadRese)*
X133858000Y-61061600D03*
G04 #@! TO.P,U4,PA7*
G04 #@! TO.N,Net-(U4-PadPA7)*
X131318000Y-61061600D03*
G04 #@! TO.P,U4,PN5*
G04 #@! TO.N,M5_SW*
X144018000Y-110134400D03*
G04 #@! TO.P,U4,PK2*
G04 #@! TO.N,M1_SW*
X138938000Y-104241600D03*
G04 #@! TO.P,U4,PK1*
G04 #@! TO.N,TX_1_IC*
X136398000Y-104241600D03*
G04 #@! TO.P,U4,+5V*
G04 #@! TO.N,+5V*
X123698000Y-104241600D03*
G04 #@! TO.P,U4,GND*
G04 #@! TO.N,GND*
X126238000Y-104241600D03*
G04 #@! TO.P,U4,PB4*
G04 #@! TO.N,Net-(U4-PadPB4)*
X128778000Y-104241600D03*
G04 #@! TO.P,U4,PB5*
G04 #@! TO.N,Watchdog*
X131318000Y-104241600D03*
G04 #@! TO.P,U4,PK3*
G04 #@! TO.N,M2_SW*
X141478000Y-104241600D03*
G04 #@! TO.P,U4,PA5*
G04 #@! TO.N,TX_3_IC*
X146558000Y-104241600D03*
G04 #@! TO.P,U4,PD2*
G04 #@! TO.N,DIRECTION_SW*
X126238000Y-110134400D03*
G04 #@! TO.P,U4,PP0*
G04 #@! TO.N,RX_2_IC*
X128778000Y-110134400D03*
G04 #@! TO.P,U4,PP1*
G04 #@! TO.N,TX_2_IC*
X131318000Y-110134400D03*
G04 #@! TO.P,U4,PD4*
G04 #@! TO.N,Rspeed*
X133858000Y-110134400D03*
G04 #@! TO.P,U4,PD5*
G04 #@! TO.N,Lspeed*
X136398000Y-110134400D03*
G04 #@! TO.P,U4,PP4*
G04 #@! TO.N,M4_SW*
X141478000Y-110134400D03*
G04 #@! TO.P,U4,PN4*
G04 #@! TO.N,M6_SW*
X146558000Y-110134400D03*
G04 #@! TO.P,U4,PG1*
G04 #@! TO.N,Net-(U4-PadPG1)*
X123698000Y-66954400D03*
G04 #@! TO.P,U4,PK4*
G04 #@! TO.N,Net-(U4-PadPK4)*
X126238000Y-66954400D03*
G04 #@! TO.P,U4,PK5*
G04 #@! TO.N,Net-(U4-PadPK5)*
X128778000Y-66954400D03*
G04 #@! TO.P,U4,PM0*
G04 #@! TO.N,Net-(U4-PadPM0)*
X131318000Y-66954400D03*
G04 #@! TO.P,U4,PM1*
G04 #@! TO.N,Net-(U4-PadPM1)*
X133858000Y-66954400D03*
G04 #@! TO.P,U4,PM2*
G04 #@! TO.N,Net-(U4-PadPM2)*
X136398000Y-66954400D03*
G04 #@! TO.P,U4,PH0*
G04 #@! TO.N,Net-(U4-PadPH0)*
X138938000Y-66954400D03*
G04 #@! TO.P,U4,PH1*
G04 #@! TO.N,Net-(U4-PadPH1)*
X141478000Y-66954400D03*
G04 #@! TO.P,U4,PK6*
G04 #@! TO.N,Net-(U4-PadPK6)*
X144018000Y-66954400D03*
G04 #@! TO.P,U4,PK7*
G04 #@! TO.N,Net-(U4-PadPK7)*
X146558000Y-66954400D03*
G04 #@! TO.P,U4,GND*
G04 #@! TO.N,GND*
X123698000Y-61061600D03*
G04 #@! TO.P,U4,PM7*
G04 #@! TO.N,Net-(U4-PadPM7)*
X126238000Y-61061600D03*
G04 #@! TO.P,U4,PP5*
G04 #@! TO.N,Net-(U4-PadPP5)*
X128778000Y-61061600D03*
G04 #@! TD*
D13*
G04 #@! TO.P,SW1,1*
G04 #@! TO.N,+5V*
X128754000Y-38945000D03*
X128754000Y-46145000D03*
G04 #@! TO.P,SW1,2*
G04 #@! TO.N,M1_SW*
X125754000Y-38945000D03*
X125754000Y-46145000D03*
G04 #@! TD*
G04 #@! TO.P,SW2,2*
G04 #@! TO.N,M2_SW*
X133882000Y-46145000D03*
X133882000Y-38945000D03*
G04 #@! TO.P,SW2,1*
G04 #@! TO.N,+5V*
X136882000Y-46145000D03*
X136882000Y-38945000D03*
G04 #@! TD*
G04 #@! TO.P,SW3,1*
G04 #@! TO.N,+5V*
X146026000Y-38945000D03*
X146026000Y-46145000D03*
G04 #@! TO.P,SW3,2*
G04 #@! TO.N,M3_SW*
X143026000Y-38945000D03*
X143026000Y-46145000D03*
G04 #@! TD*
G04 #@! TO.P,SW4,2*
G04 #@! TO.N,M4_SW*
X151154000Y-46145000D03*
X151154000Y-38945000D03*
G04 #@! TO.P,SW4,1*
G04 #@! TO.N,+5V*
X154154000Y-46145000D03*
X154154000Y-38945000D03*
G04 #@! TD*
G04 #@! TO.P,SW5,1*
G04 #@! TO.N,+5V*
X163298000Y-38945000D03*
X163298000Y-46145000D03*
G04 #@! TO.P,SW5,2*
G04 #@! TO.N,M5_SW*
X160298000Y-38945000D03*
X160298000Y-46145000D03*
G04 #@! TD*
G04 #@! TO.P,SW6,2*
G04 #@! TO.N,M6_SW*
X168426000Y-46145000D03*
X168426000Y-38945000D03*
G04 #@! TO.P,SW6,1*
G04 #@! TO.N,+5V*
X171426000Y-46145000D03*
X171426000Y-38945000D03*
G04 #@! TD*
D14*
G04 #@! TO.P,SW7,1*
G04 #@! TO.N,DIRECTION_SW*
X180848000Y-42164000D03*
D15*
G04 #@! TO.P,SW7,2*
G04 #@! TO.N,+5V*
X180848000Y-44164000D03*
G04 #@! TO.P,SW7,3*
G04 #@! TO.N,Net-(SW7-Pad3)*
X180848000Y-46164000D03*
D16*
G04 #@! TO.P,SW7,*
G04 #@! TO.N,*
X180848000Y-40064000D03*
X180848000Y-48264000D03*
G04 #@! TD*
D17*
G04 #@! TO.N,M1_SW*
G04 #@! TO.C,R8*
G36*
X131832779Y-45676144D02*
X131855834Y-45679563D01*
X131878443Y-45685227D01*
X131900387Y-45693079D01*
X131921457Y-45703044D01*
X131941448Y-45715026D01*
X131960168Y-45728910D01*
X131977438Y-45744562D01*
X131993090Y-45761832D01*
X132006974Y-45780552D01*
X132018956Y-45800543D01*
X132028921Y-45821613D01*
X132036773Y-45843557D01*
X132042437Y-45866166D01*
X132045856Y-45889221D01*
X132047000Y-45912500D01*
X132047000Y-46487500D01*
X132045856Y-46510779D01*
X132042437Y-46533834D01*
X132036773Y-46556443D01*
X132028921Y-46578387D01*
X132018956Y-46599457D01*
X132006974Y-46619448D01*
X131993090Y-46638168D01*
X131977438Y-46655438D01*
X131960168Y-46671090D01*
X131941448Y-46684974D01*
X131921457Y-46696956D01*
X131900387Y-46706921D01*
X131878443Y-46714773D01*
X131855834Y-46720437D01*
X131832779Y-46723856D01*
X131809500Y-46725000D01*
X131334500Y-46725000D01*
X131311221Y-46723856D01*
X131288166Y-46720437D01*
X131265557Y-46714773D01*
X131243613Y-46706921D01*
X131222543Y-46696956D01*
X131202552Y-46684974D01*
X131183832Y-46671090D01*
X131166562Y-46655438D01*
X131150910Y-46638168D01*
X131137026Y-46619448D01*
X131125044Y-46599457D01*
X131115079Y-46578387D01*
X131107227Y-46556443D01*
X131101563Y-46533834D01*
X131098144Y-46510779D01*
X131097000Y-46487500D01*
X131097000Y-45912500D01*
X131098144Y-45889221D01*
X131101563Y-45866166D01*
X131107227Y-45843557D01*
X131115079Y-45821613D01*
X131125044Y-45800543D01*
X131137026Y-45780552D01*
X131150910Y-45761832D01*
X131166562Y-45744562D01*
X131183832Y-45728910D01*
X131202552Y-45715026D01*
X131222543Y-45703044D01*
X131243613Y-45693079D01*
X131265557Y-45685227D01*
X131288166Y-45679563D01*
X131311221Y-45676144D01*
X131334500Y-45675000D01*
X131809500Y-45675000D01*
X131832779Y-45676144D01*
X131832779Y-45676144D01*
G37*
D18*
G04 #@! TD*
G04 #@! TO.P,R8,2*
G04 #@! TO.N,M1_SW*
X131572000Y-46200000D03*
D17*
G04 #@! TO.N,GND*
G04 #@! TO.C,R8*
G36*
X131832779Y-43926144D02*
X131855834Y-43929563D01*
X131878443Y-43935227D01*
X131900387Y-43943079D01*
X131921457Y-43953044D01*
X131941448Y-43965026D01*
X131960168Y-43978910D01*
X131977438Y-43994562D01*
X131993090Y-44011832D01*
X132006974Y-44030552D01*
X132018956Y-44050543D01*
X132028921Y-44071613D01*
X132036773Y-44093557D01*
X132042437Y-44116166D01*
X132045856Y-44139221D01*
X132047000Y-44162500D01*
X132047000Y-44737500D01*
X132045856Y-44760779D01*
X132042437Y-44783834D01*
X132036773Y-44806443D01*
X132028921Y-44828387D01*
X132018956Y-44849457D01*
X132006974Y-44869448D01*
X131993090Y-44888168D01*
X131977438Y-44905438D01*
X131960168Y-44921090D01*
X131941448Y-44934974D01*
X131921457Y-44946956D01*
X131900387Y-44956921D01*
X131878443Y-44964773D01*
X131855834Y-44970437D01*
X131832779Y-44973856D01*
X131809500Y-44975000D01*
X131334500Y-44975000D01*
X131311221Y-44973856D01*
X131288166Y-44970437D01*
X131265557Y-44964773D01*
X131243613Y-44956921D01*
X131222543Y-44946956D01*
X131202552Y-44934974D01*
X131183832Y-44921090D01*
X131166562Y-44905438D01*
X131150910Y-44888168D01*
X131137026Y-44869448D01*
X131125044Y-44849457D01*
X131115079Y-44828387D01*
X131107227Y-44806443D01*
X131101563Y-44783834D01*
X131098144Y-44760779D01*
X131097000Y-44737500D01*
X131097000Y-44162500D01*
X131098144Y-44139221D01*
X131101563Y-44116166D01*
X131107227Y-44093557D01*
X131115079Y-44071613D01*
X131125044Y-44050543D01*
X131137026Y-44030552D01*
X131150910Y-44011832D01*
X131166562Y-43994562D01*
X131183832Y-43978910D01*
X131202552Y-43965026D01*
X131222543Y-43953044D01*
X131243613Y-43943079D01*
X131265557Y-43935227D01*
X131288166Y-43929563D01*
X131311221Y-43926144D01*
X131334500Y-43925000D01*
X131809500Y-43925000D01*
X131832779Y-43926144D01*
X131832779Y-43926144D01*
G37*
D18*
G04 #@! TD*
G04 #@! TO.P,R8,1*
G04 #@! TO.N,GND*
X131572000Y-44450000D03*
D17*
G04 #@! TO.N,GND*
G04 #@! TO.C,R9*
G36*
X131832779Y-41866144D02*
X131855834Y-41869563D01*
X131878443Y-41875227D01*
X131900387Y-41883079D01*
X131921457Y-41893044D01*
X131941448Y-41905026D01*
X131960168Y-41918910D01*
X131977438Y-41934562D01*
X131993090Y-41951832D01*
X132006974Y-41970552D01*
X132018956Y-41990543D01*
X132028921Y-42011613D01*
X132036773Y-42033557D01*
X132042437Y-42056166D01*
X132045856Y-42079221D01*
X132047000Y-42102500D01*
X132047000Y-42677500D01*
X132045856Y-42700779D01*
X132042437Y-42723834D01*
X132036773Y-42746443D01*
X132028921Y-42768387D01*
X132018956Y-42789457D01*
X132006974Y-42809448D01*
X131993090Y-42828168D01*
X131977438Y-42845438D01*
X131960168Y-42861090D01*
X131941448Y-42874974D01*
X131921457Y-42886956D01*
X131900387Y-42896921D01*
X131878443Y-42904773D01*
X131855834Y-42910437D01*
X131832779Y-42913856D01*
X131809500Y-42915000D01*
X131334500Y-42915000D01*
X131311221Y-42913856D01*
X131288166Y-42910437D01*
X131265557Y-42904773D01*
X131243613Y-42896921D01*
X131222543Y-42886956D01*
X131202552Y-42874974D01*
X131183832Y-42861090D01*
X131166562Y-42845438D01*
X131150910Y-42828168D01*
X131137026Y-42809448D01*
X131125044Y-42789457D01*
X131115079Y-42768387D01*
X131107227Y-42746443D01*
X131101563Y-42723834D01*
X131098144Y-42700779D01*
X131097000Y-42677500D01*
X131097000Y-42102500D01*
X131098144Y-42079221D01*
X131101563Y-42056166D01*
X131107227Y-42033557D01*
X131115079Y-42011613D01*
X131125044Y-41990543D01*
X131137026Y-41970552D01*
X131150910Y-41951832D01*
X131166562Y-41934562D01*
X131183832Y-41918910D01*
X131202552Y-41905026D01*
X131222543Y-41893044D01*
X131243613Y-41883079D01*
X131265557Y-41875227D01*
X131288166Y-41869563D01*
X131311221Y-41866144D01*
X131334500Y-41865000D01*
X131809500Y-41865000D01*
X131832779Y-41866144D01*
X131832779Y-41866144D01*
G37*
D18*
G04 #@! TD*
G04 #@! TO.P,R9,1*
G04 #@! TO.N,GND*
X131572000Y-42390000D03*
D17*
G04 #@! TO.N,M2_SW*
G04 #@! TO.C,R9*
G36*
X131832779Y-40116144D02*
X131855834Y-40119563D01*
X131878443Y-40125227D01*
X131900387Y-40133079D01*
X131921457Y-40143044D01*
X131941448Y-40155026D01*
X131960168Y-40168910D01*
X131977438Y-40184562D01*
X131993090Y-40201832D01*
X132006974Y-40220552D01*
X132018956Y-40240543D01*
X132028921Y-40261613D01*
X132036773Y-40283557D01*
X132042437Y-40306166D01*
X132045856Y-40329221D01*
X132047000Y-40352500D01*
X132047000Y-40927500D01*
X132045856Y-40950779D01*
X132042437Y-40973834D01*
X132036773Y-40996443D01*
X132028921Y-41018387D01*
X132018956Y-41039457D01*
X132006974Y-41059448D01*
X131993090Y-41078168D01*
X131977438Y-41095438D01*
X131960168Y-41111090D01*
X131941448Y-41124974D01*
X131921457Y-41136956D01*
X131900387Y-41146921D01*
X131878443Y-41154773D01*
X131855834Y-41160437D01*
X131832779Y-41163856D01*
X131809500Y-41165000D01*
X131334500Y-41165000D01*
X131311221Y-41163856D01*
X131288166Y-41160437D01*
X131265557Y-41154773D01*
X131243613Y-41146921D01*
X131222543Y-41136956D01*
X131202552Y-41124974D01*
X131183832Y-41111090D01*
X131166562Y-41095438D01*
X131150910Y-41078168D01*
X131137026Y-41059448D01*
X131125044Y-41039457D01*
X131115079Y-41018387D01*
X131107227Y-40996443D01*
X131101563Y-40973834D01*
X131098144Y-40950779D01*
X131097000Y-40927500D01*
X131097000Y-40352500D01*
X131098144Y-40329221D01*
X131101563Y-40306166D01*
X131107227Y-40283557D01*
X131115079Y-40261613D01*
X131125044Y-40240543D01*
X131137026Y-40220552D01*
X131150910Y-40201832D01*
X131166562Y-40184562D01*
X131183832Y-40168910D01*
X131202552Y-40155026D01*
X131222543Y-40143044D01*
X131243613Y-40133079D01*
X131265557Y-40125227D01*
X131288166Y-40119563D01*
X131311221Y-40116144D01*
X131334500Y-40115000D01*
X131809500Y-40115000D01*
X131832779Y-40116144D01*
X131832779Y-40116144D01*
G37*
D18*
G04 #@! TD*
G04 #@! TO.P,R9,2*
G04 #@! TO.N,M2_SW*
X131572000Y-40640000D03*
D17*
G04 #@! TO.N,M3_SW*
G04 #@! TO.C,R10*
G36*
X140214779Y-40370144D02*
X140237834Y-40373563D01*
X140260443Y-40379227D01*
X140282387Y-40387079D01*
X140303457Y-40397044D01*
X140323448Y-40409026D01*
X140342168Y-40422910D01*
X140359438Y-40438562D01*
X140375090Y-40455832D01*
X140388974Y-40474552D01*
X140400956Y-40494543D01*
X140410921Y-40515613D01*
X140418773Y-40537557D01*
X140424437Y-40560166D01*
X140427856Y-40583221D01*
X140429000Y-40606500D01*
X140429000Y-41181500D01*
X140427856Y-41204779D01*
X140424437Y-41227834D01*
X140418773Y-41250443D01*
X140410921Y-41272387D01*
X140400956Y-41293457D01*
X140388974Y-41313448D01*
X140375090Y-41332168D01*
X140359438Y-41349438D01*
X140342168Y-41365090D01*
X140323448Y-41378974D01*
X140303457Y-41390956D01*
X140282387Y-41400921D01*
X140260443Y-41408773D01*
X140237834Y-41414437D01*
X140214779Y-41417856D01*
X140191500Y-41419000D01*
X139716500Y-41419000D01*
X139693221Y-41417856D01*
X139670166Y-41414437D01*
X139647557Y-41408773D01*
X139625613Y-41400921D01*
X139604543Y-41390956D01*
X139584552Y-41378974D01*
X139565832Y-41365090D01*
X139548562Y-41349438D01*
X139532910Y-41332168D01*
X139519026Y-41313448D01*
X139507044Y-41293457D01*
X139497079Y-41272387D01*
X139489227Y-41250443D01*
X139483563Y-41227834D01*
X139480144Y-41204779D01*
X139479000Y-41181500D01*
X139479000Y-40606500D01*
X139480144Y-40583221D01*
X139483563Y-40560166D01*
X139489227Y-40537557D01*
X139497079Y-40515613D01*
X139507044Y-40494543D01*
X139519026Y-40474552D01*
X139532910Y-40455832D01*
X139548562Y-40438562D01*
X139565832Y-40422910D01*
X139584552Y-40409026D01*
X139604543Y-40397044D01*
X139625613Y-40387079D01*
X139647557Y-40379227D01*
X139670166Y-40373563D01*
X139693221Y-40370144D01*
X139716500Y-40369000D01*
X140191500Y-40369000D01*
X140214779Y-40370144D01*
X140214779Y-40370144D01*
G37*
D18*
G04 #@! TD*
G04 #@! TO.P,R10,2*
G04 #@! TO.N,M3_SW*
X139954000Y-40894000D03*
D17*
G04 #@! TO.N,GND*
G04 #@! TO.C,R10*
G36*
X140214779Y-42120144D02*
X140237834Y-42123563D01*
X140260443Y-42129227D01*
X140282387Y-42137079D01*
X140303457Y-42147044D01*
X140323448Y-42159026D01*
X140342168Y-42172910D01*
X140359438Y-42188562D01*
X140375090Y-42205832D01*
X140388974Y-42224552D01*
X140400956Y-42244543D01*
X140410921Y-42265613D01*
X140418773Y-42287557D01*
X140424437Y-42310166D01*
X140427856Y-42333221D01*
X140429000Y-42356500D01*
X140429000Y-42931500D01*
X140427856Y-42954779D01*
X140424437Y-42977834D01*
X140418773Y-43000443D01*
X140410921Y-43022387D01*
X140400956Y-43043457D01*
X140388974Y-43063448D01*
X140375090Y-43082168D01*
X140359438Y-43099438D01*
X140342168Y-43115090D01*
X140323448Y-43128974D01*
X140303457Y-43140956D01*
X140282387Y-43150921D01*
X140260443Y-43158773D01*
X140237834Y-43164437D01*
X140214779Y-43167856D01*
X140191500Y-43169000D01*
X139716500Y-43169000D01*
X139693221Y-43167856D01*
X139670166Y-43164437D01*
X139647557Y-43158773D01*
X139625613Y-43150921D01*
X139604543Y-43140956D01*
X139584552Y-43128974D01*
X139565832Y-43115090D01*
X139548562Y-43099438D01*
X139532910Y-43082168D01*
X139519026Y-43063448D01*
X139507044Y-43043457D01*
X139497079Y-43022387D01*
X139489227Y-43000443D01*
X139483563Y-42977834D01*
X139480144Y-42954779D01*
X139479000Y-42931500D01*
X139479000Y-42356500D01*
X139480144Y-42333221D01*
X139483563Y-42310166D01*
X139489227Y-42287557D01*
X139497079Y-42265613D01*
X139507044Y-42244543D01*
X139519026Y-42224552D01*
X139532910Y-42205832D01*
X139548562Y-42188562D01*
X139565832Y-42172910D01*
X139584552Y-42159026D01*
X139604543Y-42147044D01*
X139625613Y-42137079D01*
X139647557Y-42129227D01*
X139670166Y-42123563D01*
X139693221Y-42120144D01*
X139716500Y-42119000D01*
X140191500Y-42119000D01*
X140214779Y-42120144D01*
X140214779Y-42120144D01*
G37*
D18*
G04 #@! TD*
G04 #@! TO.P,R10,1*
G04 #@! TO.N,GND*
X139954000Y-42644000D03*
D17*
G04 #@! TO.N,GND*
G04 #@! TO.C,R11*
G36*
X148850779Y-42374144D02*
X148873834Y-42377563D01*
X148896443Y-42383227D01*
X148918387Y-42391079D01*
X148939457Y-42401044D01*
X148959448Y-42413026D01*
X148978168Y-42426910D01*
X148995438Y-42442562D01*
X149011090Y-42459832D01*
X149024974Y-42478552D01*
X149036956Y-42498543D01*
X149046921Y-42519613D01*
X149054773Y-42541557D01*
X149060437Y-42564166D01*
X149063856Y-42587221D01*
X149065000Y-42610500D01*
X149065000Y-43185500D01*
X149063856Y-43208779D01*
X149060437Y-43231834D01*
X149054773Y-43254443D01*
X149046921Y-43276387D01*
X149036956Y-43297457D01*
X149024974Y-43317448D01*
X149011090Y-43336168D01*
X148995438Y-43353438D01*
X148978168Y-43369090D01*
X148959448Y-43382974D01*
X148939457Y-43394956D01*
X148918387Y-43404921D01*
X148896443Y-43412773D01*
X148873834Y-43418437D01*
X148850779Y-43421856D01*
X148827500Y-43423000D01*
X148352500Y-43423000D01*
X148329221Y-43421856D01*
X148306166Y-43418437D01*
X148283557Y-43412773D01*
X148261613Y-43404921D01*
X148240543Y-43394956D01*
X148220552Y-43382974D01*
X148201832Y-43369090D01*
X148184562Y-43353438D01*
X148168910Y-43336168D01*
X148155026Y-43317448D01*
X148143044Y-43297457D01*
X148133079Y-43276387D01*
X148125227Y-43254443D01*
X148119563Y-43231834D01*
X148116144Y-43208779D01*
X148115000Y-43185500D01*
X148115000Y-42610500D01*
X148116144Y-42587221D01*
X148119563Y-42564166D01*
X148125227Y-42541557D01*
X148133079Y-42519613D01*
X148143044Y-42498543D01*
X148155026Y-42478552D01*
X148168910Y-42459832D01*
X148184562Y-42442562D01*
X148201832Y-42426910D01*
X148220552Y-42413026D01*
X148240543Y-42401044D01*
X148261613Y-42391079D01*
X148283557Y-42383227D01*
X148306166Y-42377563D01*
X148329221Y-42374144D01*
X148352500Y-42373000D01*
X148827500Y-42373000D01*
X148850779Y-42374144D01*
X148850779Y-42374144D01*
G37*
D18*
G04 #@! TD*
G04 #@! TO.P,R11,1*
G04 #@! TO.N,GND*
X148590000Y-42898000D03*
D17*
G04 #@! TO.N,M4_SW*
G04 #@! TO.C,R11*
G36*
X148850779Y-40624144D02*
X148873834Y-40627563D01*
X148896443Y-40633227D01*
X148918387Y-40641079D01*
X148939457Y-40651044D01*
X148959448Y-40663026D01*
X148978168Y-40676910D01*
X148995438Y-40692562D01*
X149011090Y-40709832D01*
X149024974Y-40728552D01*
X149036956Y-40748543D01*
X149046921Y-40769613D01*
X149054773Y-40791557D01*
X149060437Y-40814166D01*
X149063856Y-40837221D01*
X149065000Y-40860500D01*
X149065000Y-41435500D01*
X149063856Y-41458779D01*
X149060437Y-41481834D01*
X149054773Y-41504443D01*
X149046921Y-41526387D01*
X149036956Y-41547457D01*
X149024974Y-41567448D01*
X149011090Y-41586168D01*
X148995438Y-41603438D01*
X148978168Y-41619090D01*
X148959448Y-41632974D01*
X148939457Y-41644956D01*
X148918387Y-41654921D01*
X148896443Y-41662773D01*
X148873834Y-41668437D01*
X148850779Y-41671856D01*
X148827500Y-41673000D01*
X148352500Y-41673000D01*
X148329221Y-41671856D01*
X148306166Y-41668437D01*
X148283557Y-41662773D01*
X148261613Y-41654921D01*
X148240543Y-41644956D01*
X148220552Y-41632974D01*
X148201832Y-41619090D01*
X148184562Y-41603438D01*
X148168910Y-41586168D01*
X148155026Y-41567448D01*
X148143044Y-41547457D01*
X148133079Y-41526387D01*
X148125227Y-41504443D01*
X148119563Y-41481834D01*
X148116144Y-41458779D01*
X148115000Y-41435500D01*
X148115000Y-40860500D01*
X148116144Y-40837221D01*
X148119563Y-40814166D01*
X148125227Y-40791557D01*
X148133079Y-40769613D01*
X148143044Y-40748543D01*
X148155026Y-40728552D01*
X148168910Y-40709832D01*
X148184562Y-40692562D01*
X148201832Y-40676910D01*
X148220552Y-40663026D01*
X148240543Y-40651044D01*
X148261613Y-40641079D01*
X148283557Y-40633227D01*
X148306166Y-40627563D01*
X148329221Y-40624144D01*
X148352500Y-40623000D01*
X148827500Y-40623000D01*
X148850779Y-40624144D01*
X148850779Y-40624144D01*
G37*
D18*
G04 #@! TD*
G04 #@! TO.P,R11,2*
G04 #@! TO.N,M4_SW*
X148590000Y-41148000D03*
D17*
G04 #@! TO.N,M5_SW*
G04 #@! TO.C,R12*
G36*
X157994779Y-40878144D02*
X158017834Y-40881563D01*
X158040443Y-40887227D01*
X158062387Y-40895079D01*
X158083457Y-40905044D01*
X158103448Y-40917026D01*
X158122168Y-40930910D01*
X158139438Y-40946562D01*
X158155090Y-40963832D01*
X158168974Y-40982552D01*
X158180956Y-41002543D01*
X158190921Y-41023613D01*
X158198773Y-41045557D01*
X158204437Y-41068166D01*
X158207856Y-41091221D01*
X158209000Y-41114500D01*
X158209000Y-41689500D01*
X158207856Y-41712779D01*
X158204437Y-41735834D01*
X158198773Y-41758443D01*
X158190921Y-41780387D01*
X158180956Y-41801457D01*
X158168974Y-41821448D01*
X158155090Y-41840168D01*
X158139438Y-41857438D01*
X158122168Y-41873090D01*
X158103448Y-41886974D01*
X158083457Y-41898956D01*
X158062387Y-41908921D01*
X158040443Y-41916773D01*
X158017834Y-41922437D01*
X157994779Y-41925856D01*
X157971500Y-41927000D01*
X157496500Y-41927000D01*
X157473221Y-41925856D01*
X157450166Y-41922437D01*
X157427557Y-41916773D01*
X157405613Y-41908921D01*
X157384543Y-41898956D01*
X157364552Y-41886974D01*
X157345832Y-41873090D01*
X157328562Y-41857438D01*
X157312910Y-41840168D01*
X157299026Y-41821448D01*
X157287044Y-41801457D01*
X157277079Y-41780387D01*
X157269227Y-41758443D01*
X157263563Y-41735834D01*
X157260144Y-41712779D01*
X157259000Y-41689500D01*
X157259000Y-41114500D01*
X157260144Y-41091221D01*
X157263563Y-41068166D01*
X157269227Y-41045557D01*
X157277079Y-41023613D01*
X157287044Y-41002543D01*
X157299026Y-40982552D01*
X157312910Y-40963832D01*
X157328562Y-40946562D01*
X157345832Y-40930910D01*
X157364552Y-40917026D01*
X157384543Y-40905044D01*
X157405613Y-40895079D01*
X157427557Y-40887227D01*
X157450166Y-40881563D01*
X157473221Y-40878144D01*
X157496500Y-40877000D01*
X157971500Y-40877000D01*
X157994779Y-40878144D01*
X157994779Y-40878144D01*
G37*
D18*
G04 #@! TD*
G04 #@! TO.P,R12,2*
G04 #@! TO.N,M5_SW*
X157734000Y-41402000D03*
D17*
G04 #@! TO.N,GND*
G04 #@! TO.C,R12*
G36*
X157994779Y-42628144D02*
X158017834Y-42631563D01*
X158040443Y-42637227D01*
X158062387Y-42645079D01*
X158083457Y-42655044D01*
X158103448Y-42667026D01*
X158122168Y-42680910D01*
X158139438Y-42696562D01*
X158155090Y-42713832D01*
X158168974Y-42732552D01*
X158180956Y-42752543D01*
X158190921Y-42773613D01*
X158198773Y-42795557D01*
X158204437Y-42818166D01*
X158207856Y-42841221D01*
X158209000Y-42864500D01*
X158209000Y-43439500D01*
X158207856Y-43462779D01*
X158204437Y-43485834D01*
X158198773Y-43508443D01*
X158190921Y-43530387D01*
X158180956Y-43551457D01*
X158168974Y-43571448D01*
X158155090Y-43590168D01*
X158139438Y-43607438D01*
X158122168Y-43623090D01*
X158103448Y-43636974D01*
X158083457Y-43648956D01*
X158062387Y-43658921D01*
X158040443Y-43666773D01*
X158017834Y-43672437D01*
X157994779Y-43675856D01*
X157971500Y-43677000D01*
X157496500Y-43677000D01*
X157473221Y-43675856D01*
X157450166Y-43672437D01*
X157427557Y-43666773D01*
X157405613Y-43658921D01*
X157384543Y-43648956D01*
X157364552Y-43636974D01*
X157345832Y-43623090D01*
X157328562Y-43607438D01*
X157312910Y-43590168D01*
X157299026Y-43571448D01*
X157287044Y-43551457D01*
X157277079Y-43530387D01*
X157269227Y-43508443D01*
X157263563Y-43485834D01*
X157260144Y-43462779D01*
X157259000Y-43439500D01*
X157259000Y-42864500D01*
X157260144Y-42841221D01*
X157263563Y-42818166D01*
X157269227Y-42795557D01*
X157277079Y-42773613D01*
X157287044Y-42752543D01*
X157299026Y-42732552D01*
X157312910Y-42713832D01*
X157328562Y-42696562D01*
X157345832Y-42680910D01*
X157364552Y-42667026D01*
X157384543Y-42655044D01*
X157405613Y-42645079D01*
X157427557Y-42637227D01*
X157450166Y-42631563D01*
X157473221Y-42628144D01*
X157496500Y-42627000D01*
X157971500Y-42627000D01*
X157994779Y-42628144D01*
X157994779Y-42628144D01*
G37*
D18*
G04 #@! TD*
G04 #@! TO.P,R12,1*
G04 #@! TO.N,GND*
X157734000Y-43152000D03*
D17*
G04 #@! TO.N,GND*
G04 #@! TO.C,R13*
G36*
X166122779Y-42628144D02*
X166145834Y-42631563D01*
X166168443Y-42637227D01*
X166190387Y-42645079D01*
X166211457Y-42655044D01*
X166231448Y-42667026D01*
X166250168Y-42680910D01*
X166267438Y-42696562D01*
X166283090Y-42713832D01*
X166296974Y-42732552D01*
X166308956Y-42752543D01*
X166318921Y-42773613D01*
X166326773Y-42795557D01*
X166332437Y-42818166D01*
X166335856Y-42841221D01*
X166337000Y-42864500D01*
X166337000Y-43439500D01*
X166335856Y-43462779D01*
X166332437Y-43485834D01*
X166326773Y-43508443D01*
X166318921Y-43530387D01*
X166308956Y-43551457D01*
X166296974Y-43571448D01*
X166283090Y-43590168D01*
X166267438Y-43607438D01*
X166250168Y-43623090D01*
X166231448Y-43636974D01*
X166211457Y-43648956D01*
X166190387Y-43658921D01*
X166168443Y-43666773D01*
X166145834Y-43672437D01*
X166122779Y-43675856D01*
X166099500Y-43677000D01*
X165624500Y-43677000D01*
X165601221Y-43675856D01*
X165578166Y-43672437D01*
X165555557Y-43666773D01*
X165533613Y-43658921D01*
X165512543Y-43648956D01*
X165492552Y-43636974D01*
X165473832Y-43623090D01*
X165456562Y-43607438D01*
X165440910Y-43590168D01*
X165427026Y-43571448D01*
X165415044Y-43551457D01*
X165405079Y-43530387D01*
X165397227Y-43508443D01*
X165391563Y-43485834D01*
X165388144Y-43462779D01*
X165387000Y-43439500D01*
X165387000Y-42864500D01*
X165388144Y-42841221D01*
X165391563Y-42818166D01*
X165397227Y-42795557D01*
X165405079Y-42773613D01*
X165415044Y-42752543D01*
X165427026Y-42732552D01*
X165440910Y-42713832D01*
X165456562Y-42696562D01*
X165473832Y-42680910D01*
X165492552Y-42667026D01*
X165512543Y-42655044D01*
X165533613Y-42645079D01*
X165555557Y-42637227D01*
X165578166Y-42631563D01*
X165601221Y-42628144D01*
X165624500Y-42627000D01*
X166099500Y-42627000D01*
X166122779Y-42628144D01*
X166122779Y-42628144D01*
G37*
D18*
G04 #@! TD*
G04 #@! TO.P,R13,1*
G04 #@! TO.N,GND*
X165862000Y-43152000D03*
D17*
G04 #@! TO.N,M6_SW*
G04 #@! TO.C,R13*
G36*
X166122779Y-40878144D02*
X166145834Y-40881563D01*
X166168443Y-40887227D01*
X166190387Y-40895079D01*
X166211457Y-40905044D01*
X166231448Y-40917026D01*
X166250168Y-40930910D01*
X166267438Y-40946562D01*
X166283090Y-40963832D01*
X166296974Y-40982552D01*
X166308956Y-41002543D01*
X166318921Y-41023613D01*
X166326773Y-41045557D01*
X166332437Y-41068166D01*
X166335856Y-41091221D01*
X166337000Y-41114500D01*
X166337000Y-41689500D01*
X166335856Y-41712779D01*
X166332437Y-41735834D01*
X166326773Y-41758443D01*
X166318921Y-41780387D01*
X166308956Y-41801457D01*
X166296974Y-41821448D01*
X166283090Y-41840168D01*
X166267438Y-41857438D01*
X166250168Y-41873090D01*
X166231448Y-41886974D01*
X166211457Y-41898956D01*
X166190387Y-41908921D01*
X166168443Y-41916773D01*
X166145834Y-41922437D01*
X166122779Y-41925856D01*
X166099500Y-41927000D01*
X165624500Y-41927000D01*
X165601221Y-41925856D01*
X165578166Y-41922437D01*
X165555557Y-41916773D01*
X165533613Y-41908921D01*
X165512543Y-41898956D01*
X165492552Y-41886974D01*
X165473832Y-41873090D01*
X165456562Y-41857438D01*
X165440910Y-41840168D01*
X165427026Y-41821448D01*
X165415044Y-41801457D01*
X165405079Y-41780387D01*
X165397227Y-41758443D01*
X165391563Y-41735834D01*
X165388144Y-41712779D01*
X165387000Y-41689500D01*
X165387000Y-41114500D01*
X165388144Y-41091221D01*
X165391563Y-41068166D01*
X165397227Y-41045557D01*
X165405079Y-41023613D01*
X165415044Y-41002543D01*
X165427026Y-40982552D01*
X165440910Y-40963832D01*
X165456562Y-40946562D01*
X165473832Y-40930910D01*
X165492552Y-40917026D01*
X165512543Y-40905044D01*
X165533613Y-40895079D01*
X165555557Y-40887227D01*
X165578166Y-40881563D01*
X165601221Y-40878144D01*
X165624500Y-40877000D01*
X166099500Y-40877000D01*
X166122779Y-40878144D01*
X166122779Y-40878144D01*
G37*
D18*
G04 #@! TD*
G04 #@! TO.P,R13,2*
G04 #@! TO.N,M6_SW*
X165862000Y-41402000D03*
D17*
G04 #@! TO.N,GND*
G04 #@! TO.C,R14*
G36*
X176536779Y-38592144D02*
X176559834Y-38595563D01*
X176582443Y-38601227D01*
X176604387Y-38609079D01*
X176625457Y-38619044D01*
X176645448Y-38631026D01*
X176664168Y-38644910D01*
X176681438Y-38660562D01*
X176697090Y-38677832D01*
X176710974Y-38696552D01*
X176722956Y-38716543D01*
X176732921Y-38737613D01*
X176740773Y-38759557D01*
X176746437Y-38782166D01*
X176749856Y-38805221D01*
X176751000Y-38828500D01*
X176751000Y-39403500D01*
X176749856Y-39426779D01*
X176746437Y-39449834D01*
X176740773Y-39472443D01*
X176732921Y-39494387D01*
X176722956Y-39515457D01*
X176710974Y-39535448D01*
X176697090Y-39554168D01*
X176681438Y-39571438D01*
X176664168Y-39587090D01*
X176645448Y-39600974D01*
X176625457Y-39612956D01*
X176604387Y-39622921D01*
X176582443Y-39630773D01*
X176559834Y-39636437D01*
X176536779Y-39639856D01*
X176513500Y-39641000D01*
X176038500Y-39641000D01*
X176015221Y-39639856D01*
X175992166Y-39636437D01*
X175969557Y-39630773D01*
X175947613Y-39622921D01*
X175926543Y-39612956D01*
X175906552Y-39600974D01*
X175887832Y-39587090D01*
X175870562Y-39571438D01*
X175854910Y-39554168D01*
X175841026Y-39535448D01*
X175829044Y-39515457D01*
X175819079Y-39494387D01*
X175811227Y-39472443D01*
X175805563Y-39449834D01*
X175802144Y-39426779D01*
X175801000Y-39403500D01*
X175801000Y-38828500D01*
X175802144Y-38805221D01*
X175805563Y-38782166D01*
X175811227Y-38759557D01*
X175819079Y-38737613D01*
X175829044Y-38716543D01*
X175841026Y-38696552D01*
X175854910Y-38677832D01*
X175870562Y-38660562D01*
X175887832Y-38644910D01*
X175906552Y-38631026D01*
X175926543Y-38619044D01*
X175947613Y-38609079D01*
X175969557Y-38601227D01*
X175992166Y-38595563D01*
X176015221Y-38592144D01*
X176038500Y-38591000D01*
X176513500Y-38591000D01*
X176536779Y-38592144D01*
X176536779Y-38592144D01*
G37*
D18*
G04 #@! TD*
G04 #@! TO.P,R14,1*
G04 #@! TO.N,GND*
X176276000Y-39116000D03*
D17*
G04 #@! TO.N,DIRECTION_SW*
G04 #@! TO.C,R14*
G36*
X176536779Y-40342144D02*
X176559834Y-40345563D01*
X176582443Y-40351227D01*
X176604387Y-40359079D01*
X176625457Y-40369044D01*
X176645448Y-40381026D01*
X176664168Y-40394910D01*
X176681438Y-40410562D01*
X176697090Y-40427832D01*
X176710974Y-40446552D01*
X176722956Y-40466543D01*
X176732921Y-40487613D01*
X176740773Y-40509557D01*
X176746437Y-40532166D01*
X176749856Y-40555221D01*
X176751000Y-40578500D01*
X176751000Y-41153500D01*
X176749856Y-41176779D01*
X176746437Y-41199834D01*
X176740773Y-41222443D01*
X176732921Y-41244387D01*
X176722956Y-41265457D01*
X176710974Y-41285448D01*
X176697090Y-41304168D01*
X176681438Y-41321438D01*
X176664168Y-41337090D01*
X176645448Y-41350974D01*
X176625457Y-41362956D01*
X176604387Y-41372921D01*
X176582443Y-41380773D01*
X176559834Y-41386437D01*
X176536779Y-41389856D01*
X176513500Y-41391000D01*
X176038500Y-41391000D01*
X176015221Y-41389856D01*
X175992166Y-41386437D01*
X175969557Y-41380773D01*
X175947613Y-41372921D01*
X175926543Y-41362956D01*
X175906552Y-41350974D01*
X175887832Y-41337090D01*
X175870562Y-41321438D01*
X175854910Y-41304168D01*
X175841026Y-41285448D01*
X175829044Y-41265457D01*
X175819079Y-41244387D01*
X175811227Y-41222443D01*
X175805563Y-41199834D01*
X175802144Y-41176779D01*
X175801000Y-41153500D01*
X175801000Y-40578500D01*
X175802144Y-40555221D01*
X175805563Y-40532166D01*
X175811227Y-40509557D01*
X175819079Y-40487613D01*
X175829044Y-40466543D01*
X175841026Y-40446552D01*
X175854910Y-40427832D01*
X175870562Y-40410562D01*
X175887832Y-40394910D01*
X175906552Y-40381026D01*
X175926543Y-40369044D01*
X175947613Y-40359079D01*
X175969557Y-40351227D01*
X175992166Y-40345563D01*
X176015221Y-40342144D01*
X176038500Y-40341000D01*
X176513500Y-40341000D01*
X176536779Y-40342144D01*
X176536779Y-40342144D01*
G37*
D18*
G04 #@! TD*
G04 #@! TO.P,R14,2*
G04 #@! TO.N,DIRECTION_SW*
X176276000Y-40866000D03*
D19*
G04 #@! TO.N,GND*
X126238000Y-82550000D03*
X172720000Y-54864000D03*
X126238000Y-85598000D03*
X126238000Y-88392000D03*
X126238000Y-91440000D03*
X123698000Y-58928000D03*
X123698000Y-57150000D03*
X123698000Y-55372000D03*
X156464000Y-44704000D03*
X166878000Y-44450000D03*
X176276000Y-37592000D03*
X148590000Y-46990000D03*
X138684000Y-44196000D03*
X130302000Y-42418000D03*
X130302000Y-43688000D03*
G04 #@! TO.N,RX_1_SL*
X127409449Y-80489500D03*
X125828448Y-80518000D03*
G04 #@! TO.N,RX_1_IC*
X133858000Y-102616000D03*
G04 #@! TO.N,TX_1_IC*
X136398000Y-102616000D03*
G04 #@! TO.N,TX_2_IC*
X128524000Y-77724000D03*
G04 #@! TO.N,RX_2_IC*
X127762000Y-78994000D03*
G04 #@! TO.N,TX_3_IC*
X172494500Y-71882000D03*
G04 #@! TO.N,RX_3_IC*
X171704000Y-70866000D03*
G04 #@! TO.N,DIRECTION_SW*
X126746000Y-108204000D03*
G04 #@! TO.N,+5V*
X123698000Y-105918000D03*
X177800000Y-80772000D03*
G04 #@! TO.N,Lspeed*
X149352000Y-105664000D03*
G04 #@! TO.N,Rspeed*
X145034000Y-102616000D03*
G04 #@! TO.N,Watchdog*
X131318000Y-105918000D03*
G04 #@! TD*
D20*
G04 #@! TO.N,RX_1_SL*
X127409449Y-80489500D02*
X125856948Y-80489500D01*
X125856948Y-80489500D02*
X125828448Y-80518000D01*
G04 #@! TO.N,RX_1_IC*
X133858000Y-104241600D02*
X133858000Y-102616000D01*
G04 #@! TO.N,TX_1_IC*
X136398000Y-104241600D02*
X136398000Y-102616000D01*
G04 #@! TO.N,TX_2_IC*
X131318000Y-108864400D02*
X131318000Y-110134400D01*
X130048000Y-107594400D02*
X131318000Y-108864400D01*
X130048000Y-81026000D02*
X130048000Y-107594400D01*
X130556000Y-80518000D02*
X130048000Y-81026000D01*
X128524000Y-78486000D02*
X130556000Y-80518000D01*
X128524000Y-77724000D02*
X128524000Y-78486000D01*
G04 #@! TO.N,RX_2_IC*
X128778000Y-108864400D02*
X127508000Y-107594400D01*
X128778000Y-110134400D02*
X128778000Y-108864400D01*
X127508000Y-107594400D02*
X127508000Y-86868000D01*
X127508000Y-86868000D02*
X127508000Y-82296000D01*
X127508000Y-82296000D02*
X127508000Y-81788000D01*
X127508000Y-81788000D02*
X128524000Y-80772000D01*
X128524000Y-80772000D02*
X128524000Y-79756000D01*
X128524000Y-79756000D02*
X127762000Y-78994000D01*
G04 #@! TO.N,TX_3_IC*
X146558000Y-104241600D02*
X146558000Y-92710000D01*
X146558000Y-92710000D02*
X147246990Y-92021010D01*
X157720663Y-92021009D02*
X158823010Y-90918662D01*
X147246990Y-92021010D02*
X157720663Y-92021009D01*
X158823010Y-90918662D02*
X158823010Y-87376000D01*
X158823010Y-87376000D02*
X158823010Y-79174990D01*
X158823010Y-79174990D02*
X161544000Y-76454000D01*
X161544000Y-76454000D02*
X170180000Y-76454000D01*
X170180000Y-76454000D02*
X171450000Y-76454000D01*
X171450000Y-76454000D02*
X171958000Y-75946000D01*
X171958000Y-75946000D02*
X172466000Y-75438000D01*
X172466000Y-75438000D02*
X172466000Y-71910500D01*
X172466000Y-71910500D02*
X172494500Y-71882000D01*
G04 #@! TO.N,RX_3_IC*
X144018000Y-104241600D02*
X144018000Y-92710000D01*
X144018000Y-92710000D02*
X145288000Y-91440000D01*
X145288000Y-91440000D02*
X157480000Y-91440000D01*
X157480000Y-91440000D02*
X158242000Y-90678000D01*
X158242000Y-90678000D02*
X158242000Y-85344000D01*
X158242000Y-85344000D02*
X158242000Y-78740000D01*
X158242000Y-78740000D02*
X161290000Y-75692000D01*
X161290000Y-75692000D02*
X170942000Y-75692000D01*
X170942000Y-75692000D02*
X171704000Y-74930000D01*
X171704000Y-74930000D02*
X171675499Y-74901499D01*
X171704000Y-74930000D02*
X171704000Y-70866000D01*
G04 #@! TO.N,M1_SW*
X125754000Y-40126000D02*
X125754000Y-46145000D01*
X125754000Y-38945000D02*
X125754000Y-40126000D01*
X125754000Y-46832298D02*
X125754000Y-46145000D01*
X127762000Y-74168000D02*
X127508000Y-73914000D01*
X131318000Y-74168000D02*
X127762000Y-74168000D01*
X138938000Y-104241600D02*
X138938000Y-103847900D01*
X138938000Y-103847900D02*
X136915599Y-101825499D01*
X136915599Y-101825499D02*
X132559499Y-101825499D01*
X132559499Y-101825499D02*
X131826000Y-101092000D01*
X131826000Y-101092000D02*
X131826000Y-74676000D01*
X127508000Y-73914000D02*
X127508000Y-48586298D01*
X131826000Y-74676000D02*
X131318000Y-74168000D01*
X126564298Y-47498000D02*
X126492000Y-47570298D01*
X130274000Y-47498000D02*
X126564298Y-47498000D01*
X131572000Y-46200000D02*
X130274000Y-47498000D01*
X127508000Y-48586298D02*
X126492000Y-47570298D01*
X126492000Y-47570298D02*
X125754000Y-46832298D01*
G04 #@! TO.N,M2_SW*
X133882000Y-47326000D02*
X133882000Y-46145000D01*
X132588000Y-48620000D02*
X133882000Y-47326000D01*
X132588000Y-74254346D02*
X132588000Y-48620000D01*
X141478000Y-104241600D02*
X141478000Y-103847900D01*
X138722100Y-101092000D02*
X132842000Y-101092000D01*
X141478000Y-103847900D02*
X138722100Y-101092000D01*
X132842000Y-101092000D02*
X132407010Y-100657010D01*
X132407010Y-100657010D02*
X132407009Y-74435337D01*
X132407009Y-74435337D02*
X132588000Y-74254346D01*
X131572000Y-40640000D02*
X133882000Y-40640000D01*
X133882000Y-38945000D02*
X133882000Y-40640000D01*
X133882000Y-40640000D02*
X133882000Y-46145000D01*
G04 #@! TO.N,M3_SW*
X143026000Y-38945000D02*
X143026000Y-40126000D01*
X143026000Y-47326000D02*
X143026000Y-46145000D01*
X142357499Y-47994501D02*
X143026000Y-47326000D01*
X142357499Y-51425499D02*
X142357499Y-47994501D01*
X162560000Y-107696000D02*
X162814000Y-107442000D01*
X148336000Y-107696000D02*
X162560000Y-107696000D01*
X148189981Y-107549981D02*
X148336000Y-107696000D01*
X141128719Y-107549981D02*
X148189981Y-107549981D01*
X162814000Y-88464298D02*
X166813797Y-84464501D01*
X180340000Y-52578000D02*
X180086000Y-52324000D01*
X167522501Y-84464501D02*
X169418000Y-86360000D01*
X166813797Y-84464501D02*
X167522501Y-84464501D01*
X169418000Y-86360000D02*
X180086000Y-86360000D01*
X180086000Y-86360000D02*
X180340000Y-86106000D01*
X138938000Y-109740700D02*
X141128719Y-107549981D01*
X180340000Y-86106000D02*
X180340000Y-52578000D01*
X138938000Y-110134400D02*
X138938000Y-109740700D01*
X180086000Y-52324000D02*
X143256000Y-52324000D01*
X162814000Y-107442000D02*
X162814000Y-88464298D01*
X143256000Y-52324000D02*
X142357499Y-51425499D01*
X139954000Y-40894000D02*
X143026000Y-40894000D01*
X143026000Y-40126000D02*
X143026000Y-40894000D01*
X143026000Y-40894000D02*
X143026000Y-46145000D01*
G04 #@! TO.N,M4_SW*
X151154000Y-38945000D02*
X151154000Y-40126000D01*
X151154000Y-47326000D02*
X151154000Y-46145000D01*
X147887672Y-108458000D02*
X162960020Y-108458000D01*
X163576000Y-88900000D02*
X165354000Y-87122000D01*
X147560663Y-108130991D02*
X147887672Y-108458000D01*
X142211410Y-108130990D02*
X147560663Y-108130991D01*
X152981010Y-51635010D02*
X152282501Y-50936501D01*
X162960020Y-108458000D02*
X163576000Y-107842020D01*
X141478000Y-108864400D02*
X142211410Y-108130990D01*
X141478000Y-110134400D02*
X141478000Y-108864400D01*
X165354000Y-87122000D02*
X180848000Y-87122000D01*
X181102000Y-52070000D02*
X180667010Y-51635010D01*
X163576000Y-107842020D02*
X163576000Y-88900000D01*
X152282501Y-48454501D02*
X151154000Y-47326000D01*
X180848000Y-87122000D02*
X181102000Y-86868000D01*
X181102000Y-86868000D02*
X181102000Y-52070000D01*
X180667010Y-51635010D02*
X152981010Y-51635010D01*
X152282501Y-50936501D02*
X152282501Y-48454501D01*
X148590000Y-41148000D02*
X151154000Y-41148000D01*
X151154000Y-40126000D02*
X151154000Y-41148000D01*
X151154000Y-41148000D02*
X151154000Y-46145000D01*
G04 #@! TO.N,M5_SW*
X160298000Y-47326000D02*
X160298000Y-46145000D01*
X163830000Y-109220000D02*
X164338000Y-108712000D01*
X181864000Y-87630000D02*
X181864000Y-51308000D01*
X147828000Y-109220000D02*
X163830000Y-109220000D01*
X164338000Y-89094328D02*
X165548328Y-87884000D01*
X161108298Y-51054000D02*
X159629499Y-49575201D01*
X147320000Y-108712000D02*
X147828000Y-109220000D01*
X145046700Y-108712000D02*
X147320000Y-108712000D01*
X144018000Y-109740700D02*
X145046700Y-108712000D01*
X144018000Y-110134400D02*
X144018000Y-109740700D01*
X164338000Y-108712000D02*
X164338000Y-89094328D01*
X165548328Y-87884000D02*
X181610000Y-87884000D01*
X181610000Y-87884000D02*
X181864000Y-87630000D01*
X159629499Y-47994501D02*
X160298000Y-47326000D01*
X181864000Y-51308000D02*
X181610000Y-51054000D01*
X181610000Y-51054000D02*
X161108298Y-51054000D01*
X159629499Y-49575201D02*
X159629499Y-47994501D01*
X157734000Y-41402000D02*
X160298000Y-41402000D01*
X160298000Y-38945000D02*
X160298000Y-41402000D01*
X160298000Y-41402000D02*
X160298000Y-46145000D01*
G04 #@! TO.N,M6_SW*
X165100000Y-89154000D02*
X165608000Y-88646000D01*
X146558000Y-110134400D02*
X147434300Y-110134400D01*
X147586700Y-109982000D02*
X164338000Y-109982000D01*
X147434300Y-110134400D02*
X147586700Y-109982000D01*
X165100000Y-109220000D02*
X165100000Y-89154000D01*
X165608000Y-88646000D02*
X181864000Y-88646000D01*
X164338000Y-109982000D02*
X165100000Y-109220000D01*
X181864000Y-88646000D02*
X182626000Y-87884000D01*
X182626000Y-87884000D02*
X182626000Y-50546000D01*
X182626000Y-50546000D02*
X182372000Y-50292000D01*
X182372000Y-50292000D02*
X173228000Y-50292000D01*
X173228000Y-50292000D02*
X172974000Y-50038000D01*
X168426000Y-38945000D02*
X168426000Y-40126000D01*
X168426000Y-47326000D02*
X168598000Y-47498000D01*
X168426000Y-46145000D02*
X168426000Y-47326000D01*
X172720000Y-47498000D02*
X172974000Y-47752000D01*
X168598000Y-47498000D02*
X172720000Y-47498000D01*
X172974000Y-50038000D02*
X172974000Y-47752000D01*
X165862000Y-41402000D02*
X168426000Y-41402000D01*
X168426000Y-40126000D02*
X168426000Y-41402000D01*
X168426000Y-41402000D02*
X168426000Y-46145000D01*
G04 #@! TO.N,DIRECTION_SW*
X126238000Y-110134400D02*
X126238000Y-108712000D01*
X126238000Y-108712000D02*
X126746000Y-108204000D01*
X177574000Y-42164000D02*
X180848000Y-42164000D01*
X176276000Y-40866000D02*
X177574000Y-42164000D01*
G04 #@! TO.N,+5V*
X171426000Y-37764000D02*
X171000000Y-37338000D01*
X171426000Y-38945000D02*
X171426000Y-37764000D01*
X128524000Y-37534000D02*
X128524000Y-37338000D01*
X128754000Y-37764000D02*
X128524000Y-37534000D01*
X128754000Y-38945000D02*
X128754000Y-37764000D01*
X136652000Y-37534000D02*
X136652000Y-37338000D01*
X136882000Y-37764000D02*
X136652000Y-37534000D01*
X136882000Y-38945000D02*
X136882000Y-37764000D01*
X136652000Y-37338000D02*
X128524000Y-37338000D01*
X145796000Y-37534000D02*
X145796000Y-37338000D01*
X146026000Y-37764000D02*
X145796000Y-37534000D01*
X146026000Y-38945000D02*
X146026000Y-37764000D01*
X145796000Y-37338000D02*
X136652000Y-37338000D01*
X153728000Y-37338000D02*
X153670000Y-37338000D01*
X154154000Y-37764000D02*
X153728000Y-37338000D01*
X154154000Y-38945000D02*
X154154000Y-37764000D01*
X153670000Y-37338000D02*
X145796000Y-37338000D01*
X124714000Y-48260000D02*
X124714000Y-51816000D01*
X128524000Y-37338000D02*
X127508000Y-37338000D01*
X123698000Y-102971600D02*
X123698000Y-104241600D01*
X124968000Y-101701600D02*
X123698000Y-102971600D01*
X124968000Y-52070000D02*
X124968000Y-101701600D01*
X124714000Y-51816000D02*
X124968000Y-52070000D01*
X123698000Y-105918000D02*
X123698000Y-104241600D01*
X125158098Y-37338000D02*
X127508000Y-37338000D01*
X124206000Y-38290098D02*
X125158098Y-37338000D01*
X124206000Y-47752000D02*
X124206000Y-38290098D01*
X124714000Y-48260000D02*
X124206000Y-47752000D01*
X128754000Y-40126000D02*
X128754000Y-46145000D01*
X128754000Y-38945000D02*
X128754000Y-40126000D01*
X136882000Y-40126000D02*
X136882000Y-46145000D01*
X136882000Y-38945000D02*
X136882000Y-40126000D01*
X146026000Y-40126000D02*
X146026000Y-46145000D01*
X146026000Y-38945000D02*
X146026000Y-40126000D01*
X154154000Y-40126000D02*
X154154000Y-46145000D01*
X154154000Y-38945000D02*
X154154000Y-40126000D01*
X163298000Y-40126000D02*
X163298000Y-46145000D01*
X163298000Y-38945000D02*
X163298000Y-40126000D01*
X171426000Y-40126000D02*
X171426000Y-46145000D01*
X171426000Y-38945000D02*
X171426000Y-40126000D01*
X162872000Y-37338000D02*
X162814000Y-37338000D01*
X163298000Y-37764000D02*
X162872000Y-37338000D01*
X163298000Y-38945000D02*
X163298000Y-37764000D01*
X171000000Y-37338000D02*
X162814000Y-37338000D01*
X162814000Y-37338000D02*
X153670000Y-37338000D01*
X173307000Y-44164000D02*
X180848000Y-44164000D01*
X171426000Y-46145000D02*
X171426000Y-46045000D01*
X171426000Y-46045000D02*
X173307000Y-44164000D01*
X177800000Y-80772000D02*
X167132000Y-80772000D01*
G04 #@! TO.N,Lspeed*
X136398000Y-109740700D02*
X139458700Y-106680000D01*
X136398000Y-110134400D02*
X136398000Y-109740700D01*
X139458700Y-106680000D02*
X148844000Y-106680000D01*
X148844000Y-106680000D02*
X149352000Y-106172000D01*
X149352000Y-106172000D02*
X149352000Y-105664000D01*
G04 #@! TO.N,Rspeed*
X133858000Y-109740700D02*
X137680700Y-105918000D01*
X133858000Y-110134400D02*
X133858000Y-109740700D01*
X144428802Y-105918000D02*
X144936802Y-105410000D01*
X137680700Y-105918000D02*
X144428802Y-105918000D01*
X144936802Y-105410000D02*
X144936802Y-102713198D01*
X144936802Y-102713198D02*
X145034000Y-102616000D01*
G04 #@! TO.N,Watchdog*
X131318000Y-104241600D02*
X131318000Y-105918000D01*
G04 #@! TD*
D21*
G04 #@! TO.N,GND*
G36*
X131000500Y-101010698D02*
X130984328Y-101092000D01*
X131000500Y-101173301D01*
X131000500Y-101173302D01*
X131048396Y-101414093D01*
X131230848Y-101687152D01*
X131299777Y-101733209D01*
X131918292Y-102351725D01*
X131964347Y-102420651D01*
X132237405Y-102603103D01*
X132478196Y-102650999D01*
X132478200Y-102650999D01*
X132559498Y-102667170D01*
X132640796Y-102650999D01*
X132823000Y-102650999D01*
X132823000Y-102821874D01*
X132872983Y-102942544D01*
X132764543Y-103104835D01*
X132715260Y-103352600D01*
X132715260Y-105130600D01*
X132764543Y-105378365D01*
X132904891Y-105588409D01*
X133114935Y-105728757D01*
X133362700Y-105778040D01*
X134353300Y-105778040D01*
X134601065Y-105728757D01*
X134811109Y-105588409D01*
X134951457Y-105378365D01*
X135000740Y-105130600D01*
X135000740Y-103352600D01*
X134951457Y-103104835D01*
X134843017Y-102942544D01*
X134893000Y-102821874D01*
X134893000Y-102650999D01*
X135363000Y-102650999D01*
X135363000Y-102821874D01*
X135412983Y-102942544D01*
X135304543Y-103104835D01*
X135255260Y-103352600D01*
X135255260Y-105130600D01*
X135304543Y-105378365D01*
X135444891Y-105588409D01*
X135654935Y-105728757D01*
X135902700Y-105778040D01*
X136653227Y-105778040D01*
X133833308Y-108597960D01*
X133362700Y-108597960D01*
X133114935Y-108647243D01*
X132904891Y-108787591D01*
X132764543Y-108997635D01*
X132715260Y-109245400D01*
X132715260Y-111023400D01*
X132764543Y-111271165D01*
X132904891Y-111481209D01*
X133114935Y-111621557D01*
X133362700Y-111670840D01*
X134353300Y-111670840D01*
X134601065Y-111621557D01*
X134811109Y-111481209D01*
X134951457Y-111271165D01*
X135000740Y-111023400D01*
X135000740Y-109765392D01*
X135255260Y-109510872D01*
X135255260Y-111023400D01*
X135304543Y-111271165D01*
X135444891Y-111481209D01*
X135654935Y-111621557D01*
X135902700Y-111670840D01*
X136893300Y-111670840D01*
X137141065Y-111621557D01*
X137351109Y-111481209D01*
X137491457Y-111271165D01*
X137540740Y-111023400D01*
X137540740Y-109765392D01*
X137795260Y-109510873D01*
X137795260Y-111023400D01*
X137844543Y-111271165D01*
X137984891Y-111481209D01*
X138194935Y-111621557D01*
X138442700Y-111670840D01*
X139433300Y-111670840D01*
X139681065Y-111621557D01*
X139891109Y-111481209D01*
X140031457Y-111271165D01*
X140080740Y-111023400D01*
X140080740Y-109765392D01*
X140335260Y-109510872D01*
X140335260Y-111023400D01*
X140384543Y-111271165D01*
X140524891Y-111481209D01*
X140734935Y-111621557D01*
X140982700Y-111670840D01*
X141973300Y-111670840D01*
X142221065Y-111621557D01*
X142431109Y-111481209D01*
X142571457Y-111271165D01*
X142620740Y-111023400D01*
X142620740Y-109245400D01*
X142571457Y-108997635D01*
X142547721Y-108962112D01*
X142553344Y-108956489D01*
X142952036Y-108956489D01*
X142924543Y-108997635D01*
X142875260Y-109245400D01*
X142875260Y-111023400D01*
X142924543Y-111271165D01*
X143064891Y-111481209D01*
X143274935Y-111621557D01*
X143522700Y-111670840D01*
X144513300Y-111670840D01*
X144761065Y-111621557D01*
X144971109Y-111481209D01*
X145111457Y-111271165D01*
X145160740Y-111023400D01*
X145160740Y-109765393D01*
X145388633Y-109537500D01*
X145415260Y-109537500D01*
X145415260Y-111023400D01*
X145464543Y-111271165D01*
X145604891Y-111481209D01*
X145814935Y-111621557D01*
X146062700Y-111670840D01*
X147053300Y-111670840D01*
X147301065Y-111621557D01*
X147511109Y-111481209D01*
X147651457Y-111271165D01*
X147700740Y-111023400D01*
X147700740Y-110923074D01*
X147756394Y-110912004D01*
X147912795Y-110807500D01*
X164256699Y-110807500D01*
X164338000Y-110823672D01*
X164419301Y-110807500D01*
X164419303Y-110807500D01*
X164660094Y-110759604D01*
X164933152Y-110577152D01*
X164957597Y-110540568D01*
X165096119Y-110747881D01*
X165330972Y-110904805D01*
X165538074Y-110946000D01*
X165538075Y-110946000D01*
X165608000Y-110959909D01*
X165677926Y-110946000D01*
X181305419Y-110946000D01*
X181725009Y-111006090D01*
X182064352Y-111160381D01*
X182346752Y-111403712D01*
X182549506Y-111716523D01*
X182663348Y-112097184D01*
X182678000Y-112294350D01*
X182678001Y-119785281D01*
X182592491Y-119811423D01*
X182500033Y-119838460D01*
X182492159Y-119842098D01*
X181970644Y-120086948D01*
X181890075Y-120139872D01*
X181808927Y-120191768D01*
X181802390Y-120197470D01*
X181370558Y-120578851D01*
X181308096Y-120652244D01*
X181244760Y-120724847D01*
X181240087Y-120732154D01*
X180932654Y-121219407D01*
X180893298Y-121307387D01*
X180852889Y-121394840D01*
X180850457Y-121403160D01*
X180850454Y-121403166D01*
X180850453Y-121403173D01*
X180692134Y-121957118D01*
X180679056Y-122052586D01*
X180664813Y-122147890D01*
X180664813Y-122156564D01*
X180668333Y-122732687D01*
X180682588Y-122828068D01*
X180695654Y-122923455D01*
X180698088Y-122931781D01*
X180863164Y-123483758D01*
X180903591Y-123571250D01*
X180942930Y-123659194D01*
X180947603Y-123666501D01*
X181260966Y-124149961D01*
X181324328Y-124222594D01*
X181386763Y-124295955D01*
X181393296Y-124301654D01*
X181393300Y-124301658D01*
X181393305Y-124301661D01*
X181829759Y-124677734D01*
X181910942Y-124729653D01*
X181991475Y-124782554D01*
X181999346Y-124786190D01*
X181999349Y-124786192D01*
X181999352Y-124786193D01*
X182523817Y-125024653D01*
X182616309Y-125051700D01*
X182678000Y-125070561D01*
X182678001Y-133045412D01*
X182617910Y-133465009D01*
X182463619Y-133804352D01*
X182220288Y-134086752D01*
X181907479Y-134289506D01*
X181526815Y-134403348D01*
X181329649Y-134418000D01*
X124510581Y-134418000D01*
X124090991Y-134357910D01*
X123751648Y-134203619D01*
X123469248Y-133960288D01*
X123266494Y-133647479D01*
X123152652Y-133266815D01*
X123138000Y-133069649D01*
X123138000Y-125070719D01*
X123223509Y-125044577D01*
X123315967Y-125017540D01*
X123323841Y-125013902D01*
X123845356Y-124769052D01*
X123925925Y-124716128D01*
X124007073Y-124664232D01*
X124013610Y-124658530D01*
X124445442Y-124277149D01*
X124507887Y-124203776D01*
X124571240Y-124131153D01*
X124575913Y-124123846D01*
X124883346Y-123636593D01*
X124922687Y-123548645D01*
X124963111Y-123461160D01*
X124965545Y-123452835D01*
X125123866Y-122898882D01*
X125136943Y-122803421D01*
X125151187Y-122708111D01*
X125151187Y-122699436D01*
X125147667Y-122123313D01*
X125133414Y-122027943D01*
X125120346Y-121932544D01*
X125117912Y-121924219D01*
X124952836Y-121372241D01*
X124912418Y-121284769D01*
X124873071Y-121196806D01*
X124868397Y-121189499D01*
X124555034Y-120706040D01*
X124491707Y-120633447D01*
X124429237Y-120560045D01*
X124422700Y-120554343D01*
X123986241Y-120178266D01*
X123905058Y-120126347D01*
X123824525Y-120073446D01*
X123816654Y-120069810D01*
X123816651Y-120069808D01*
X123816648Y-120069807D01*
X123292183Y-119831347D01*
X123199691Y-119804300D01*
X123138000Y-119785439D01*
X123138000Y-111657971D01*
X123202700Y-111670840D01*
X124193300Y-111670840D01*
X124441065Y-111621557D01*
X124651109Y-111481209D01*
X124791457Y-111271165D01*
X124840740Y-111023400D01*
X124840740Y-109245400D01*
X124791457Y-108997635D01*
X124651109Y-108787591D01*
X124441065Y-108647243D01*
X124193300Y-108597960D01*
X123202700Y-108597960D01*
X123138000Y-108610829D01*
X123138000Y-106806317D01*
X123492126Y-106953000D01*
X123903874Y-106953000D01*
X124284280Y-106795431D01*
X124575431Y-106504280D01*
X124733000Y-106123874D01*
X124733000Y-105712126D01*
X124670027Y-105560096D01*
X124791457Y-105378365D01*
X124840740Y-105130600D01*
X124840740Y-103352600D01*
X124791457Y-103104835D01*
X124767721Y-103069312D01*
X125494226Y-102342807D01*
X125563152Y-102296752D01*
X125745604Y-102023694D01*
X125793500Y-101782903D01*
X125793500Y-101782899D01*
X125809671Y-101701601D01*
X125793500Y-101620303D01*
X125793500Y-81553000D01*
X126034322Y-81553000D01*
X126414728Y-81395431D01*
X126495159Y-81315000D01*
X126771238Y-81315000D01*
X126807200Y-81350962D01*
X126730396Y-81465906D01*
X126682500Y-81706697D01*
X126666328Y-81788000D01*
X126682500Y-81869301D01*
X126682500Y-82377302D01*
X126682501Y-82377307D01*
X126682500Y-86949302D01*
X126682501Y-86949307D01*
X126682500Y-107169000D01*
X126540126Y-107169000D01*
X126159720Y-107326569D01*
X125868569Y-107617720D01*
X125711000Y-107998126D01*
X125711000Y-108071311D01*
X125642849Y-108116848D01*
X125596794Y-108185774D01*
X125460397Y-108389906D01*
X125396328Y-108712000D01*
X125396527Y-108712998D01*
X125284891Y-108787591D01*
X125144543Y-108997635D01*
X125095260Y-109245400D01*
X125095260Y-111023400D01*
X125144543Y-111271165D01*
X125284891Y-111481209D01*
X125494935Y-111621557D01*
X125742700Y-111670840D01*
X126733300Y-111670840D01*
X126981065Y-111621557D01*
X127191109Y-111481209D01*
X127331457Y-111271165D01*
X127380740Y-111023400D01*
X127380740Y-109245400D01*
X127345496Y-109068215D01*
X127579939Y-108833772D01*
X127708279Y-108962112D01*
X127684543Y-108997635D01*
X127635260Y-109245400D01*
X127635260Y-111023400D01*
X127684543Y-111271165D01*
X127824891Y-111481209D01*
X128034935Y-111621557D01*
X128282700Y-111670840D01*
X129273300Y-111670840D01*
X129521065Y-111621557D01*
X129731109Y-111481209D01*
X129871457Y-111271165D01*
X129920740Y-111023400D01*
X129920740Y-109245400D01*
X129871457Y-108997635D01*
X129731109Y-108787591D01*
X129584971Y-108689944D01*
X129555604Y-108542306D01*
X129373152Y-108269248D01*
X129304226Y-108223193D01*
X128333500Y-107252468D01*
X128333500Y-105778040D01*
X129222501Y-105778040D01*
X129222501Y-107513094D01*
X129206328Y-107594400D01*
X129263517Y-107881907D01*
X129270397Y-107916494D01*
X129452849Y-108189552D01*
X129521775Y-108235607D01*
X130248279Y-108962112D01*
X130224543Y-108997635D01*
X130175260Y-109245400D01*
X130175260Y-111023400D01*
X130224543Y-111271165D01*
X130364891Y-111481209D01*
X130574935Y-111621557D01*
X130822700Y-111670840D01*
X131813300Y-111670840D01*
X132061065Y-111621557D01*
X132271109Y-111481209D01*
X132411457Y-111271165D01*
X132460740Y-111023400D01*
X132460740Y-109245400D01*
X132411457Y-108997635D01*
X132271109Y-108787591D01*
X132124971Y-108689944D01*
X132095604Y-108542306D01*
X131913152Y-108269248D01*
X131844226Y-108223193D01*
X130873500Y-107252468D01*
X130873500Y-106854158D01*
X131112126Y-106953000D01*
X131523874Y-106953000D01*
X131904280Y-106795431D01*
X132195431Y-106504280D01*
X132353000Y-106123874D01*
X132353000Y-105712126D01*
X132290027Y-105560096D01*
X132411457Y-105378365D01*
X132460740Y-105130600D01*
X132460740Y-103352600D01*
X132411457Y-103104835D01*
X132271109Y-102894791D01*
X132061065Y-102754443D01*
X131813300Y-102705160D01*
X130873500Y-102705160D01*
X130873500Y-81367932D01*
X131000501Y-81240932D01*
X131000500Y-101010698D01*
X131000500Y-101010698D01*
G37*
X131000500Y-101010698D02*
X130984328Y-101092000D01*
X131000500Y-101173301D01*
X131000500Y-101173302D01*
X131048396Y-101414093D01*
X131230848Y-101687152D01*
X131299777Y-101733209D01*
X131918292Y-102351725D01*
X131964347Y-102420651D01*
X132237405Y-102603103D01*
X132478196Y-102650999D01*
X132478200Y-102650999D01*
X132559498Y-102667170D01*
X132640796Y-102650999D01*
X132823000Y-102650999D01*
X132823000Y-102821874D01*
X132872983Y-102942544D01*
X132764543Y-103104835D01*
X132715260Y-103352600D01*
X132715260Y-105130600D01*
X132764543Y-105378365D01*
X132904891Y-105588409D01*
X133114935Y-105728757D01*
X133362700Y-105778040D01*
X134353300Y-105778040D01*
X134601065Y-105728757D01*
X134811109Y-105588409D01*
X134951457Y-105378365D01*
X135000740Y-105130600D01*
X135000740Y-103352600D01*
X134951457Y-103104835D01*
X134843017Y-102942544D01*
X134893000Y-102821874D01*
X134893000Y-102650999D01*
X135363000Y-102650999D01*
X135363000Y-102821874D01*
X135412983Y-102942544D01*
X135304543Y-103104835D01*
X135255260Y-103352600D01*
X135255260Y-105130600D01*
X135304543Y-105378365D01*
X135444891Y-105588409D01*
X135654935Y-105728757D01*
X135902700Y-105778040D01*
X136653227Y-105778040D01*
X133833308Y-108597960D01*
X133362700Y-108597960D01*
X133114935Y-108647243D01*
X132904891Y-108787591D01*
X132764543Y-108997635D01*
X132715260Y-109245400D01*
X132715260Y-111023400D01*
X132764543Y-111271165D01*
X132904891Y-111481209D01*
X133114935Y-111621557D01*
X133362700Y-111670840D01*
X134353300Y-111670840D01*
X134601065Y-111621557D01*
X134811109Y-111481209D01*
X134951457Y-111271165D01*
X135000740Y-111023400D01*
X135000740Y-109765392D01*
X135255260Y-109510872D01*
X135255260Y-111023400D01*
X135304543Y-111271165D01*
X135444891Y-111481209D01*
X135654935Y-111621557D01*
X135902700Y-111670840D01*
X136893300Y-111670840D01*
X137141065Y-111621557D01*
X137351109Y-111481209D01*
X137491457Y-111271165D01*
X137540740Y-111023400D01*
X137540740Y-109765392D01*
X137795260Y-109510873D01*
X137795260Y-111023400D01*
X137844543Y-111271165D01*
X137984891Y-111481209D01*
X138194935Y-111621557D01*
X138442700Y-111670840D01*
X139433300Y-111670840D01*
X139681065Y-111621557D01*
X139891109Y-111481209D01*
X140031457Y-111271165D01*
X140080740Y-111023400D01*
X140080740Y-109765392D01*
X140335260Y-109510872D01*
X140335260Y-111023400D01*
X140384543Y-111271165D01*
X140524891Y-111481209D01*
X140734935Y-111621557D01*
X140982700Y-111670840D01*
X141973300Y-111670840D01*
X142221065Y-111621557D01*
X142431109Y-111481209D01*
X142571457Y-111271165D01*
X142620740Y-111023400D01*
X142620740Y-109245400D01*
X142571457Y-108997635D01*
X142547721Y-108962112D01*
X142553344Y-108956489D01*
X142952036Y-108956489D01*
X142924543Y-108997635D01*
X142875260Y-109245400D01*
X142875260Y-111023400D01*
X142924543Y-111271165D01*
X143064891Y-111481209D01*
X143274935Y-111621557D01*
X143522700Y-111670840D01*
X144513300Y-111670840D01*
X144761065Y-111621557D01*
X144971109Y-111481209D01*
X145111457Y-111271165D01*
X145160740Y-111023400D01*
X145160740Y-109765393D01*
X145388633Y-109537500D01*
X145415260Y-109537500D01*
X145415260Y-111023400D01*
X145464543Y-111271165D01*
X145604891Y-111481209D01*
X145814935Y-111621557D01*
X146062700Y-111670840D01*
X147053300Y-111670840D01*
X147301065Y-111621557D01*
X147511109Y-111481209D01*
X147651457Y-111271165D01*
X147700740Y-111023400D01*
X147700740Y-110923074D01*
X147756394Y-110912004D01*
X147912795Y-110807500D01*
X164256699Y-110807500D01*
X164338000Y-110823672D01*
X164419301Y-110807500D01*
X164419303Y-110807500D01*
X164660094Y-110759604D01*
X164933152Y-110577152D01*
X164957597Y-110540568D01*
X165096119Y-110747881D01*
X165330972Y-110904805D01*
X165538074Y-110946000D01*
X165538075Y-110946000D01*
X165608000Y-110959909D01*
X165677926Y-110946000D01*
X181305419Y-110946000D01*
X181725009Y-111006090D01*
X182064352Y-111160381D01*
X182346752Y-111403712D01*
X182549506Y-111716523D01*
X182663348Y-112097184D01*
X182678000Y-112294350D01*
X182678001Y-119785281D01*
X182592491Y-119811423D01*
X182500033Y-119838460D01*
X182492159Y-119842098D01*
X181970644Y-120086948D01*
X181890075Y-120139872D01*
X181808927Y-120191768D01*
X181802390Y-120197470D01*
X181370558Y-120578851D01*
X181308096Y-120652244D01*
X181244760Y-120724847D01*
X181240087Y-120732154D01*
X180932654Y-121219407D01*
X180893298Y-121307387D01*
X180852889Y-121394840D01*
X180850457Y-121403160D01*
X180850454Y-121403166D01*
X180850453Y-121403173D01*
X180692134Y-121957118D01*
X180679056Y-122052586D01*
X180664813Y-122147890D01*
X180664813Y-122156564D01*
X180668333Y-122732687D01*
X180682588Y-122828068D01*
X180695654Y-122923455D01*
X180698088Y-122931781D01*
X180863164Y-123483758D01*
X180903591Y-123571250D01*
X180942930Y-123659194D01*
X180947603Y-123666501D01*
X181260966Y-124149961D01*
X181324328Y-124222594D01*
X181386763Y-124295955D01*
X181393296Y-124301654D01*
X181393300Y-124301658D01*
X181393305Y-124301661D01*
X181829759Y-124677734D01*
X181910942Y-124729653D01*
X181991475Y-124782554D01*
X181999346Y-124786190D01*
X181999349Y-124786192D01*
X181999352Y-124786193D01*
X182523817Y-125024653D01*
X182616309Y-125051700D01*
X182678000Y-125070561D01*
X182678001Y-133045412D01*
X182617910Y-133465009D01*
X182463619Y-133804352D01*
X182220288Y-134086752D01*
X181907479Y-134289506D01*
X181526815Y-134403348D01*
X181329649Y-134418000D01*
X124510581Y-134418000D01*
X124090991Y-134357910D01*
X123751648Y-134203619D01*
X123469248Y-133960288D01*
X123266494Y-133647479D01*
X123152652Y-133266815D01*
X123138000Y-133069649D01*
X123138000Y-125070719D01*
X123223509Y-125044577D01*
X123315967Y-125017540D01*
X123323841Y-125013902D01*
X123845356Y-124769052D01*
X123925925Y-124716128D01*
X124007073Y-124664232D01*
X124013610Y-124658530D01*
X124445442Y-124277149D01*
X124507887Y-124203776D01*
X124571240Y-124131153D01*
X124575913Y-124123846D01*
X124883346Y-123636593D01*
X124922687Y-123548645D01*
X124963111Y-123461160D01*
X124965545Y-123452835D01*
X125123866Y-122898882D01*
X125136943Y-122803421D01*
X125151187Y-122708111D01*
X125151187Y-122699436D01*
X125147667Y-122123313D01*
X125133414Y-122027943D01*
X125120346Y-121932544D01*
X125117912Y-121924219D01*
X124952836Y-121372241D01*
X124912418Y-121284769D01*
X124873071Y-121196806D01*
X124868397Y-121189499D01*
X124555034Y-120706040D01*
X124491707Y-120633447D01*
X124429237Y-120560045D01*
X124422700Y-120554343D01*
X123986241Y-120178266D01*
X123905058Y-120126347D01*
X123824525Y-120073446D01*
X123816654Y-120069810D01*
X123816651Y-120069808D01*
X123816648Y-120069807D01*
X123292183Y-119831347D01*
X123199691Y-119804300D01*
X123138000Y-119785439D01*
X123138000Y-111657971D01*
X123202700Y-111670840D01*
X124193300Y-111670840D01*
X124441065Y-111621557D01*
X124651109Y-111481209D01*
X124791457Y-111271165D01*
X124840740Y-111023400D01*
X124840740Y-109245400D01*
X124791457Y-108997635D01*
X124651109Y-108787591D01*
X124441065Y-108647243D01*
X124193300Y-108597960D01*
X123202700Y-108597960D01*
X123138000Y-108610829D01*
X123138000Y-106806317D01*
X123492126Y-106953000D01*
X123903874Y-106953000D01*
X124284280Y-106795431D01*
X124575431Y-106504280D01*
X124733000Y-106123874D01*
X124733000Y-105712126D01*
X124670027Y-105560096D01*
X124791457Y-105378365D01*
X124840740Y-105130600D01*
X124840740Y-103352600D01*
X124791457Y-103104835D01*
X124767721Y-103069312D01*
X125494226Y-102342807D01*
X125563152Y-102296752D01*
X125745604Y-102023694D01*
X125793500Y-101782903D01*
X125793500Y-101782899D01*
X125809671Y-101701601D01*
X125793500Y-101620303D01*
X125793500Y-81553000D01*
X126034322Y-81553000D01*
X126414728Y-81395431D01*
X126495159Y-81315000D01*
X126771238Y-81315000D01*
X126807200Y-81350962D01*
X126730396Y-81465906D01*
X126682500Y-81706697D01*
X126666328Y-81788000D01*
X126682500Y-81869301D01*
X126682500Y-82377302D01*
X126682501Y-82377307D01*
X126682500Y-86949302D01*
X126682501Y-86949307D01*
X126682500Y-107169000D01*
X126540126Y-107169000D01*
X126159720Y-107326569D01*
X125868569Y-107617720D01*
X125711000Y-107998126D01*
X125711000Y-108071311D01*
X125642849Y-108116848D01*
X125596794Y-108185774D01*
X125460397Y-108389906D01*
X125396328Y-108712000D01*
X125396527Y-108712998D01*
X125284891Y-108787591D01*
X125144543Y-108997635D01*
X125095260Y-109245400D01*
X125095260Y-111023400D01*
X125144543Y-111271165D01*
X125284891Y-111481209D01*
X125494935Y-111621557D01*
X125742700Y-111670840D01*
X126733300Y-111670840D01*
X126981065Y-111621557D01*
X127191109Y-111481209D01*
X127331457Y-111271165D01*
X127380740Y-111023400D01*
X127380740Y-109245400D01*
X127345496Y-109068215D01*
X127579939Y-108833772D01*
X127708279Y-108962112D01*
X127684543Y-108997635D01*
X127635260Y-109245400D01*
X127635260Y-111023400D01*
X127684543Y-111271165D01*
X127824891Y-111481209D01*
X128034935Y-111621557D01*
X128282700Y-111670840D01*
X129273300Y-111670840D01*
X129521065Y-111621557D01*
X129731109Y-111481209D01*
X129871457Y-111271165D01*
X129920740Y-111023400D01*
X129920740Y-109245400D01*
X129871457Y-108997635D01*
X129731109Y-108787591D01*
X129584971Y-108689944D01*
X129555604Y-108542306D01*
X129373152Y-108269248D01*
X129304226Y-108223193D01*
X128333500Y-107252468D01*
X128333500Y-105778040D01*
X129222501Y-105778040D01*
X129222501Y-107513094D01*
X129206328Y-107594400D01*
X129263517Y-107881907D01*
X129270397Y-107916494D01*
X129452849Y-108189552D01*
X129521775Y-108235607D01*
X130248279Y-108962112D01*
X130224543Y-108997635D01*
X130175260Y-109245400D01*
X130175260Y-111023400D01*
X130224543Y-111271165D01*
X130364891Y-111481209D01*
X130574935Y-111621557D01*
X130822700Y-111670840D01*
X131813300Y-111670840D01*
X132061065Y-111621557D01*
X132271109Y-111481209D01*
X132411457Y-111271165D01*
X132460740Y-111023400D01*
X132460740Y-109245400D01*
X132411457Y-108997635D01*
X132271109Y-108787591D01*
X132124971Y-108689944D01*
X132095604Y-108542306D01*
X131913152Y-108269248D01*
X131844226Y-108223193D01*
X130873500Y-107252468D01*
X130873500Y-106854158D01*
X131112126Y-106953000D01*
X131523874Y-106953000D01*
X131904280Y-106795431D01*
X132195431Y-106504280D01*
X132353000Y-106123874D01*
X132353000Y-105712126D01*
X132290027Y-105560096D01*
X132411457Y-105378365D01*
X132460740Y-105130600D01*
X132460740Y-103352600D01*
X132411457Y-103104835D01*
X132271109Y-102894791D01*
X132061065Y-102754443D01*
X131813300Y-102705160D01*
X130873500Y-102705160D01*
X130873500Y-81367932D01*
X131000501Y-81240932D01*
X131000500Y-101010698D01*
G36*
X135534560Y-39745000D02*
X135583843Y-39992765D01*
X135724191Y-40202809D01*
X135934235Y-40343157D01*
X136056500Y-40367477D01*
X136056501Y-44722523D01*
X135934235Y-44746843D01*
X135724191Y-44887191D01*
X135583843Y-45097235D01*
X135534560Y-45345000D01*
X135534560Y-46945000D01*
X135583843Y-47192765D01*
X135724191Y-47402809D01*
X135934235Y-47543157D01*
X136182000Y-47592440D01*
X137582000Y-47592440D01*
X137829765Y-47543157D01*
X138039809Y-47402809D01*
X138180157Y-47192765D01*
X138229440Y-46945000D01*
X138229440Y-45345000D01*
X138180157Y-45097235D01*
X138039809Y-44887191D01*
X137829765Y-44746843D01*
X137707500Y-44722523D01*
X137707500Y-40367477D01*
X137829765Y-40343157D01*
X138039809Y-40202809D01*
X138180157Y-39992765D01*
X138229440Y-39745000D01*
X138229440Y-38163500D01*
X141678560Y-38163500D01*
X141678560Y-39745000D01*
X141727843Y-39992765D01*
X141778448Y-40068500D01*
X140875878Y-40068500D01*
X140817247Y-39980753D01*
X140530152Y-39788922D01*
X140191500Y-39721560D01*
X139716500Y-39721560D01*
X139377848Y-39788922D01*
X139090753Y-39980753D01*
X138898922Y-40267848D01*
X138831560Y-40606500D01*
X138831560Y-41181500D01*
X138898922Y-41520152D01*
X139090753Y-41807247D01*
X139377848Y-41999078D01*
X139716500Y-42066440D01*
X140191500Y-42066440D01*
X140530152Y-41999078D01*
X140817247Y-41807247D01*
X140875878Y-41719500D01*
X142200500Y-41719500D01*
X142200501Y-44722523D01*
X142078235Y-44746843D01*
X141868191Y-44887191D01*
X141727843Y-45097235D01*
X141678560Y-45345000D01*
X141678560Y-46945000D01*
X141727843Y-47192765D01*
X141833571Y-47350997D01*
X141831274Y-47353294D01*
X141762348Y-47399349D01*
X141716293Y-47468275D01*
X141579896Y-47672407D01*
X141515827Y-47994501D01*
X141532000Y-48075807D01*
X141531999Y-51344197D01*
X141515827Y-51425499D01*
X141531999Y-51506800D01*
X141531999Y-51506801D01*
X141579895Y-51747592D01*
X141762347Y-52020651D01*
X141831276Y-52066708D01*
X142614793Y-52850226D01*
X142660848Y-52919152D01*
X142933906Y-53101604D01*
X143174697Y-53149500D01*
X143174701Y-53149500D01*
X143255999Y-53165671D01*
X143337297Y-53149500D01*
X179514501Y-53149500D01*
X179514500Y-85534500D01*
X169759934Y-85534500D01*
X168163710Y-83938278D01*
X168117653Y-83869349D01*
X167844595Y-83686897D01*
X167603804Y-83639001D01*
X167603802Y-83639001D01*
X167522501Y-83622829D01*
X167441200Y-83639001D01*
X166895094Y-83639001D01*
X166813796Y-83622830D01*
X166732498Y-83639001D01*
X166732494Y-83639001D01*
X166491703Y-83686897D01*
X166218645Y-83869349D01*
X166172590Y-83938275D01*
X162287775Y-87823091D01*
X162218849Y-87869146D01*
X162172794Y-87938072D01*
X162036397Y-88142204D01*
X161972328Y-88464298D01*
X161988501Y-88545604D01*
X161988500Y-106870500D01*
X155951035Y-106870500D01*
X156967093Y-106449635D01*
X157860235Y-105556493D01*
X158343600Y-104389547D01*
X158343600Y-103126453D01*
X157860235Y-101959507D01*
X156967093Y-101066365D01*
X155800147Y-100583000D01*
X154537053Y-100583000D01*
X153370107Y-101066365D01*
X152476965Y-101959507D01*
X151993600Y-103126453D01*
X151993600Y-104389547D01*
X152476965Y-105556493D01*
X153370107Y-106449635D01*
X154386165Y-106870500D01*
X149820933Y-106870500D01*
X149878226Y-106813207D01*
X149947152Y-106767152D01*
X150129604Y-106494094D01*
X150165356Y-106314355D01*
X150229431Y-106250280D01*
X150387000Y-105869874D01*
X150387000Y-105458126D01*
X150229431Y-105077720D01*
X149938280Y-104786569D01*
X149557874Y-104629000D01*
X149146126Y-104629000D01*
X148765720Y-104786569D01*
X148474569Y-105077720D01*
X148317000Y-105458126D01*
X148317000Y-105854500D01*
X145632617Y-105854500D01*
X145714406Y-105732094D01*
X145726786Y-105669857D01*
X145814935Y-105728757D01*
X146062700Y-105778040D01*
X147053300Y-105778040D01*
X147301065Y-105728757D01*
X147511109Y-105588409D01*
X147651457Y-105378365D01*
X147700740Y-105130600D01*
X147700740Y-103352600D01*
X147651457Y-103104835D01*
X147511109Y-102894791D01*
X147383500Y-102809525D01*
X147383500Y-93051932D01*
X147588923Y-92846510D01*
X157639357Y-92846508D01*
X157720663Y-92862681D01*
X158042757Y-92798612D01*
X158246889Y-92662215D01*
X158315815Y-92616160D01*
X158361870Y-92547234D01*
X159349236Y-91559869D01*
X159418162Y-91513814D01*
X159600614Y-91240756D01*
X159648510Y-90999965D01*
X159648510Y-90999961D01*
X159664681Y-90918663D01*
X159648510Y-90837365D01*
X159648510Y-80494119D01*
X165735000Y-80494119D01*
X165735000Y-81049881D01*
X165947680Y-81563337D01*
X166340663Y-81956320D01*
X166854119Y-82169000D01*
X167409881Y-82169000D01*
X167923337Y-81956320D01*
X168282157Y-81597500D01*
X177161789Y-81597500D01*
X177213720Y-81649431D01*
X177594126Y-81807000D01*
X178005874Y-81807000D01*
X178386280Y-81649431D01*
X178677431Y-81358280D01*
X178835000Y-80977874D01*
X178835000Y-80566126D01*
X178677431Y-80185720D01*
X178386280Y-79894569D01*
X178005874Y-79737000D01*
X177594126Y-79737000D01*
X177213720Y-79894569D01*
X177161789Y-79946500D01*
X168282157Y-79946500D01*
X167923337Y-79587680D01*
X167409881Y-79375000D01*
X166854119Y-79375000D01*
X166340663Y-79587680D01*
X165947680Y-79980663D01*
X165735000Y-80494119D01*
X159648510Y-80494119D01*
X159648510Y-79516922D01*
X161885933Y-77279500D01*
X171368699Y-77279500D01*
X171450000Y-77295672D01*
X171531301Y-77279500D01*
X171531303Y-77279500D01*
X171772094Y-77231604D01*
X172045152Y-77049152D01*
X172091209Y-76980224D01*
X172992226Y-76079207D01*
X173061152Y-76033152D01*
X173243604Y-75760094D01*
X173291500Y-75519303D01*
X173291500Y-75519299D01*
X173307671Y-75438001D01*
X173291500Y-75356703D01*
X173291500Y-72548711D01*
X173371931Y-72468280D01*
X173529500Y-72087874D01*
X173529500Y-71676126D01*
X173371931Y-71295720D01*
X173080780Y-71004569D01*
X172739000Y-70862999D01*
X172739000Y-70660126D01*
X172581431Y-70279720D01*
X172290280Y-69988569D01*
X171909874Y-69831000D01*
X171498126Y-69831000D01*
X171117720Y-69988569D01*
X170826569Y-70279720D01*
X170669000Y-70660126D01*
X170669000Y-71071874D01*
X170826569Y-71452280D01*
X170878501Y-71504212D01*
X170878500Y-74588067D01*
X170600068Y-74866500D01*
X161371301Y-74866500D01*
X161290000Y-74850328D01*
X161208698Y-74866500D01*
X161208697Y-74866500D01*
X160967906Y-74914396D01*
X160694848Y-75096848D01*
X160648793Y-75165774D01*
X157715775Y-78098793D01*
X157646849Y-78144848D01*
X157600794Y-78213774D01*
X157464397Y-78417906D01*
X157400328Y-78740000D01*
X157416501Y-78821306D01*
X157416500Y-85425302D01*
X157416501Y-85425307D01*
X157416500Y-90336067D01*
X157138068Y-90614500D01*
X145369297Y-90614500D01*
X145287999Y-90598329D01*
X145206701Y-90614500D01*
X145206697Y-90614500D01*
X144965906Y-90662396D01*
X144692848Y-90844848D01*
X144646793Y-90913774D01*
X143491775Y-92068793D01*
X143422849Y-92114848D01*
X143376794Y-92183774D01*
X143240397Y-92387906D01*
X143176328Y-92710000D01*
X143192501Y-92791306D01*
X143192500Y-102809525D01*
X143064891Y-102894791D01*
X142924543Y-103104835D01*
X142875260Y-103352600D01*
X142875260Y-105092500D01*
X142620740Y-105092500D01*
X142620740Y-103352600D01*
X142571457Y-103104835D01*
X142431109Y-102894791D01*
X142221065Y-102754443D01*
X141973300Y-102705160D01*
X141502693Y-102705160D01*
X139363309Y-100565777D01*
X139317252Y-100496848D01*
X139044194Y-100314396D01*
X138803403Y-100266500D01*
X138803401Y-100266500D01*
X138722100Y-100250328D01*
X138640799Y-100266500D01*
X133232510Y-100266500D01*
X133232508Y-74775632D01*
X133365604Y-74576440D01*
X133413500Y-74335649D01*
X133413500Y-74335647D01*
X133429672Y-74254346D01*
X133413500Y-74173045D01*
X133413500Y-68490840D01*
X134353300Y-68490840D01*
X134601065Y-68441557D01*
X134811109Y-68301209D01*
X134951457Y-68091165D01*
X135000740Y-67843400D01*
X135000740Y-66065400D01*
X135255260Y-66065400D01*
X135255260Y-67843400D01*
X135304543Y-68091165D01*
X135444891Y-68301209D01*
X135654935Y-68441557D01*
X135902700Y-68490840D01*
X136893300Y-68490840D01*
X137141065Y-68441557D01*
X137351109Y-68301209D01*
X137491457Y-68091165D01*
X137540740Y-67843400D01*
X137540740Y-66065400D01*
X137795260Y-66065400D01*
X137795260Y-67843400D01*
X137844543Y-68091165D01*
X137984891Y-68301209D01*
X138194935Y-68441557D01*
X138442700Y-68490840D01*
X139433300Y-68490840D01*
X139681065Y-68441557D01*
X139891109Y-68301209D01*
X140031457Y-68091165D01*
X140080740Y-67843400D01*
X140080740Y-66065400D01*
X140335260Y-66065400D01*
X140335260Y-67843400D01*
X140384543Y-68091165D01*
X140524891Y-68301209D01*
X140734935Y-68441557D01*
X140982700Y-68490840D01*
X141973300Y-68490840D01*
X142221065Y-68441557D01*
X142431109Y-68301209D01*
X142571457Y-68091165D01*
X142620740Y-67843400D01*
X142620740Y-66065400D01*
X142875260Y-66065400D01*
X142875260Y-67843400D01*
X142924543Y-68091165D01*
X143064891Y-68301209D01*
X143274935Y-68441557D01*
X143522700Y-68490840D01*
X144513300Y-68490840D01*
X144761065Y-68441557D01*
X144971109Y-68301209D01*
X145111457Y-68091165D01*
X145160740Y-67843400D01*
X145160740Y-66065400D01*
X145415260Y-66065400D01*
X145415260Y-67843400D01*
X145464543Y-68091165D01*
X145604891Y-68301209D01*
X145814935Y-68441557D01*
X146062700Y-68490840D01*
X147053300Y-68490840D01*
X147301065Y-68441557D01*
X147511109Y-68301209D01*
X147651457Y-68091165D01*
X147700740Y-67843400D01*
X147700740Y-66065400D01*
X147651457Y-65817635D01*
X147511109Y-65607591D01*
X147301065Y-65467243D01*
X147053300Y-65417960D01*
X146062700Y-65417960D01*
X145814935Y-65467243D01*
X145604891Y-65607591D01*
X145464543Y-65817635D01*
X145415260Y-66065400D01*
X145160740Y-66065400D01*
X145111457Y-65817635D01*
X144971109Y-65607591D01*
X144761065Y-65467243D01*
X144513300Y-65417960D01*
X143522700Y-65417960D01*
X143274935Y-65467243D01*
X143064891Y-65607591D01*
X142924543Y-65817635D01*
X142875260Y-66065400D01*
X142620740Y-66065400D01*
X142571457Y-65817635D01*
X142431109Y-65607591D01*
X142221065Y-65467243D01*
X141973300Y-65417960D01*
X140982700Y-65417960D01*
X140734935Y-65467243D01*
X140524891Y-65607591D01*
X140384543Y-65817635D01*
X140335260Y-66065400D01*
X140080740Y-66065400D01*
X140031457Y-65817635D01*
X139891109Y-65607591D01*
X139681065Y-65467243D01*
X139433300Y-65417960D01*
X138442700Y-65417960D01*
X138194935Y-65467243D01*
X137984891Y-65607591D01*
X137844543Y-65817635D01*
X137795260Y-66065400D01*
X137540740Y-66065400D01*
X137491457Y-65817635D01*
X137351109Y-65607591D01*
X137141065Y-65467243D01*
X136893300Y-65417960D01*
X135902700Y-65417960D01*
X135654935Y-65467243D01*
X135444891Y-65607591D01*
X135304543Y-65817635D01*
X135255260Y-66065400D01*
X135000740Y-66065400D01*
X134951457Y-65817635D01*
X134811109Y-65607591D01*
X134601065Y-65467243D01*
X134353300Y-65417960D01*
X133413500Y-65417960D01*
X133413500Y-62598040D01*
X134353300Y-62598040D01*
X134601065Y-62548757D01*
X134811109Y-62408409D01*
X134951457Y-62198365D01*
X135000740Y-61950600D01*
X135000740Y-60172600D01*
X135255260Y-60172600D01*
X135255260Y-61950600D01*
X135304543Y-62198365D01*
X135444891Y-62408409D01*
X135654935Y-62548757D01*
X135902700Y-62598040D01*
X136893300Y-62598040D01*
X137141065Y-62548757D01*
X137351109Y-62408409D01*
X137491457Y-62198365D01*
X137540740Y-61950600D01*
X137540740Y-60172600D01*
X137795260Y-60172600D01*
X137795260Y-61950600D01*
X137844543Y-62198365D01*
X137984891Y-62408409D01*
X138194935Y-62548757D01*
X138442700Y-62598040D01*
X139433300Y-62598040D01*
X139681065Y-62548757D01*
X139891109Y-62408409D01*
X140031457Y-62198365D01*
X140080740Y-61950600D01*
X140080740Y-60172600D01*
X140335260Y-60172600D01*
X140335260Y-61950600D01*
X140384543Y-62198365D01*
X140524891Y-62408409D01*
X140734935Y-62548757D01*
X140982700Y-62598040D01*
X141973300Y-62598040D01*
X142221065Y-62548757D01*
X142431109Y-62408409D01*
X142571457Y-62198365D01*
X142620740Y-61950600D01*
X142620740Y-60172600D01*
X142875260Y-60172600D01*
X142875260Y-61950600D01*
X142924543Y-62198365D01*
X143064891Y-62408409D01*
X143274935Y-62548757D01*
X143522700Y-62598040D01*
X144513300Y-62598040D01*
X144761065Y-62548757D01*
X144971109Y-62408409D01*
X145111457Y-62198365D01*
X145160740Y-61950600D01*
X145160740Y-60172600D01*
X145415260Y-60172600D01*
X145415260Y-61950600D01*
X145464543Y-62198365D01*
X145604891Y-62408409D01*
X145814935Y-62548757D01*
X146062700Y-62598040D01*
X147053300Y-62598040D01*
X147301065Y-62548757D01*
X147511109Y-62408409D01*
X147651457Y-62198365D01*
X147700740Y-61950600D01*
X147700740Y-60172600D01*
X147651457Y-59924835D01*
X147511109Y-59714791D01*
X147301065Y-59574443D01*
X147053300Y-59525160D01*
X146062700Y-59525160D01*
X145814935Y-59574443D01*
X145604891Y-59714791D01*
X145464543Y-59924835D01*
X145415260Y-60172600D01*
X145160740Y-60172600D01*
X145111457Y-59924835D01*
X144971109Y-59714791D01*
X144761065Y-59574443D01*
X144513300Y-59525160D01*
X143522700Y-59525160D01*
X143274935Y-59574443D01*
X143064891Y-59714791D01*
X142924543Y-59924835D01*
X142875260Y-60172600D01*
X142620740Y-60172600D01*
X142571457Y-59924835D01*
X142431109Y-59714791D01*
X142221065Y-59574443D01*
X141973300Y-59525160D01*
X140982700Y-59525160D01*
X140734935Y-59574443D01*
X140524891Y-59714791D01*
X140384543Y-59924835D01*
X140335260Y-60172600D01*
X140080740Y-60172600D01*
X140031457Y-59924835D01*
X139891109Y-59714791D01*
X139681065Y-59574443D01*
X139433300Y-59525160D01*
X138442700Y-59525160D01*
X138194935Y-59574443D01*
X137984891Y-59714791D01*
X137844543Y-59924835D01*
X137795260Y-60172600D01*
X137540740Y-60172600D01*
X137491457Y-59924835D01*
X137351109Y-59714791D01*
X137141065Y-59574443D01*
X136893300Y-59525160D01*
X135902700Y-59525160D01*
X135654935Y-59574443D01*
X135444891Y-59714791D01*
X135304543Y-59924835D01*
X135255260Y-60172600D01*
X135000740Y-60172600D01*
X134951457Y-59924835D01*
X134811109Y-59714791D01*
X134601065Y-59574443D01*
X134353300Y-59525160D01*
X133413500Y-59525160D01*
X133413500Y-50349984D01*
X133580119Y-50419000D01*
X134135881Y-50419000D01*
X134649337Y-50206320D01*
X135042320Y-49813337D01*
X135255000Y-49299881D01*
X135255000Y-48744119D01*
X135042320Y-48230663D01*
X134649337Y-47837680D01*
X134558161Y-47799914D01*
X134659604Y-47648094D01*
X134674327Y-47574075D01*
X134829765Y-47543157D01*
X135039809Y-47402809D01*
X135180157Y-47192765D01*
X135229440Y-46945000D01*
X135229440Y-45345000D01*
X135180157Y-45097235D01*
X135039809Y-44887191D01*
X134829765Y-44746843D01*
X134707500Y-44722523D01*
X134707500Y-40721303D01*
X134723672Y-40640000D01*
X134707500Y-40558697D01*
X134707500Y-40367477D01*
X134829765Y-40343157D01*
X135039809Y-40202809D01*
X135180157Y-39992765D01*
X135229440Y-39745000D01*
X135229440Y-38163500D01*
X135534560Y-38163500D01*
X135534560Y-39745000D01*
X135534560Y-39745000D01*
G37*
X135534560Y-39745000D02*
X135583843Y-39992765D01*
X135724191Y-40202809D01*
X135934235Y-40343157D01*
X136056500Y-40367477D01*
X136056501Y-44722523D01*
X135934235Y-44746843D01*
X135724191Y-44887191D01*
X135583843Y-45097235D01*
X135534560Y-45345000D01*
X135534560Y-46945000D01*
X135583843Y-47192765D01*
X135724191Y-47402809D01*
X135934235Y-47543157D01*
X136182000Y-47592440D01*
X137582000Y-47592440D01*
X137829765Y-47543157D01*
X138039809Y-47402809D01*
X138180157Y-47192765D01*
X138229440Y-46945000D01*
X138229440Y-45345000D01*
X138180157Y-45097235D01*
X138039809Y-44887191D01*
X137829765Y-44746843D01*
X137707500Y-44722523D01*
X137707500Y-40367477D01*
X137829765Y-40343157D01*
X138039809Y-40202809D01*
X138180157Y-39992765D01*
X138229440Y-39745000D01*
X138229440Y-38163500D01*
X141678560Y-38163500D01*
X141678560Y-39745000D01*
X141727843Y-39992765D01*
X141778448Y-40068500D01*
X140875878Y-40068500D01*
X140817247Y-39980753D01*
X140530152Y-39788922D01*
X140191500Y-39721560D01*
X139716500Y-39721560D01*
X139377848Y-39788922D01*
X139090753Y-39980753D01*
X138898922Y-40267848D01*
X138831560Y-40606500D01*
X138831560Y-41181500D01*
X138898922Y-41520152D01*
X139090753Y-41807247D01*
X139377848Y-41999078D01*
X139716500Y-42066440D01*
X140191500Y-42066440D01*
X140530152Y-41999078D01*
X140817247Y-41807247D01*
X140875878Y-41719500D01*
X142200500Y-41719500D01*
X142200501Y-44722523D01*
X142078235Y-44746843D01*
X141868191Y-44887191D01*
X141727843Y-45097235D01*
X141678560Y-45345000D01*
X141678560Y-46945000D01*
X141727843Y-47192765D01*
X141833571Y-47350997D01*
X141831274Y-47353294D01*
X141762348Y-47399349D01*
X141716293Y-47468275D01*
X141579896Y-47672407D01*
X141515827Y-47994501D01*
X141532000Y-48075807D01*
X141531999Y-51344197D01*
X141515827Y-51425499D01*
X141531999Y-51506800D01*
X141531999Y-51506801D01*
X141579895Y-51747592D01*
X141762347Y-52020651D01*
X141831276Y-52066708D01*
X142614793Y-52850226D01*
X142660848Y-52919152D01*
X142933906Y-53101604D01*
X143174697Y-53149500D01*
X143174701Y-53149500D01*
X143255999Y-53165671D01*
X143337297Y-53149500D01*
X179514501Y-53149500D01*
X179514500Y-85534500D01*
X169759934Y-85534500D01*
X168163710Y-83938278D01*
X168117653Y-83869349D01*
X167844595Y-83686897D01*
X167603804Y-83639001D01*
X167603802Y-83639001D01*
X167522501Y-83622829D01*
X167441200Y-83639001D01*
X166895094Y-83639001D01*
X166813796Y-83622830D01*
X166732498Y-83639001D01*
X166732494Y-83639001D01*
X166491703Y-83686897D01*
X166218645Y-83869349D01*
X166172590Y-83938275D01*
X162287775Y-87823091D01*
X162218849Y-87869146D01*
X162172794Y-87938072D01*
X162036397Y-88142204D01*
X161972328Y-88464298D01*
X161988501Y-88545604D01*
X161988500Y-106870500D01*
X155951035Y-106870500D01*
X156967093Y-106449635D01*
X157860235Y-105556493D01*
X158343600Y-104389547D01*
X158343600Y-103126453D01*
X157860235Y-101959507D01*
X156967093Y-101066365D01*
X155800147Y-100583000D01*
X154537053Y-100583000D01*
X153370107Y-101066365D01*
X152476965Y-101959507D01*
X151993600Y-103126453D01*
X151993600Y-104389547D01*
X152476965Y-105556493D01*
X153370107Y-106449635D01*
X154386165Y-106870500D01*
X149820933Y-106870500D01*
X149878226Y-106813207D01*
X149947152Y-106767152D01*
X150129604Y-106494094D01*
X150165356Y-106314355D01*
X150229431Y-106250280D01*
X150387000Y-105869874D01*
X150387000Y-105458126D01*
X150229431Y-105077720D01*
X149938280Y-104786569D01*
X149557874Y-104629000D01*
X149146126Y-104629000D01*
X148765720Y-104786569D01*
X148474569Y-105077720D01*
X148317000Y-105458126D01*
X148317000Y-105854500D01*
X145632617Y-105854500D01*
X145714406Y-105732094D01*
X145726786Y-105669857D01*
X145814935Y-105728757D01*
X146062700Y-105778040D01*
X147053300Y-105778040D01*
X147301065Y-105728757D01*
X147511109Y-105588409D01*
X147651457Y-105378365D01*
X147700740Y-105130600D01*
X147700740Y-103352600D01*
X147651457Y-103104835D01*
X147511109Y-102894791D01*
X147383500Y-102809525D01*
X147383500Y-93051932D01*
X147588923Y-92846510D01*
X157639357Y-92846508D01*
X157720663Y-92862681D01*
X158042757Y-92798612D01*
X158246889Y-92662215D01*
X158315815Y-92616160D01*
X158361870Y-92547234D01*
X159349236Y-91559869D01*
X159418162Y-91513814D01*
X159600614Y-91240756D01*
X159648510Y-90999965D01*
X159648510Y-90999961D01*
X159664681Y-90918663D01*
X159648510Y-90837365D01*
X159648510Y-80494119D01*
X165735000Y-80494119D01*
X165735000Y-81049881D01*
X165947680Y-81563337D01*
X166340663Y-81956320D01*
X166854119Y-82169000D01*
X167409881Y-82169000D01*
X167923337Y-81956320D01*
X168282157Y-81597500D01*
X177161789Y-81597500D01*
X177213720Y-81649431D01*
X177594126Y-81807000D01*
X178005874Y-81807000D01*
X178386280Y-81649431D01*
X178677431Y-81358280D01*
X178835000Y-80977874D01*
X178835000Y-80566126D01*
X178677431Y-80185720D01*
X178386280Y-79894569D01*
X178005874Y-79737000D01*
X177594126Y-79737000D01*
X177213720Y-79894569D01*
X177161789Y-79946500D01*
X168282157Y-79946500D01*
X167923337Y-79587680D01*
X167409881Y-79375000D01*
X166854119Y-79375000D01*
X166340663Y-79587680D01*
X165947680Y-79980663D01*
X165735000Y-80494119D01*
X159648510Y-80494119D01*
X159648510Y-79516922D01*
X161885933Y-77279500D01*
X171368699Y-77279500D01*
X171450000Y-77295672D01*
X171531301Y-77279500D01*
X171531303Y-77279500D01*
X171772094Y-77231604D01*
X172045152Y-77049152D01*
X172091209Y-76980224D01*
X172992226Y-76079207D01*
X173061152Y-76033152D01*
X173243604Y-75760094D01*
X173291500Y-75519303D01*
X173291500Y-75519299D01*
X173307671Y-75438001D01*
X173291500Y-75356703D01*
X173291500Y-72548711D01*
X173371931Y-72468280D01*
X173529500Y-72087874D01*
X173529500Y-71676126D01*
X173371931Y-71295720D01*
X173080780Y-71004569D01*
X172739000Y-70862999D01*
X172739000Y-70660126D01*
X172581431Y-70279720D01*
X172290280Y-69988569D01*
X171909874Y-69831000D01*
X171498126Y-69831000D01*
X171117720Y-69988569D01*
X170826569Y-70279720D01*
X170669000Y-70660126D01*
X170669000Y-71071874D01*
X170826569Y-71452280D01*
X170878501Y-71504212D01*
X170878500Y-74588067D01*
X170600068Y-74866500D01*
X161371301Y-74866500D01*
X161290000Y-74850328D01*
X161208698Y-74866500D01*
X161208697Y-74866500D01*
X160967906Y-74914396D01*
X160694848Y-75096848D01*
X160648793Y-75165774D01*
X157715775Y-78098793D01*
X157646849Y-78144848D01*
X157600794Y-78213774D01*
X157464397Y-78417906D01*
X157400328Y-78740000D01*
X157416501Y-78821306D01*
X157416500Y-85425302D01*
X157416501Y-85425307D01*
X157416500Y-90336067D01*
X157138068Y-90614500D01*
X145369297Y-90614500D01*
X145287999Y-90598329D01*
X145206701Y-90614500D01*
X145206697Y-90614500D01*
X144965906Y-90662396D01*
X144692848Y-90844848D01*
X144646793Y-90913774D01*
X143491775Y-92068793D01*
X143422849Y-92114848D01*
X143376794Y-92183774D01*
X143240397Y-92387906D01*
X143176328Y-92710000D01*
X143192501Y-92791306D01*
X143192500Y-102809525D01*
X143064891Y-102894791D01*
X142924543Y-103104835D01*
X142875260Y-103352600D01*
X142875260Y-105092500D01*
X142620740Y-105092500D01*
X142620740Y-103352600D01*
X142571457Y-103104835D01*
X142431109Y-102894791D01*
X142221065Y-102754443D01*
X141973300Y-102705160D01*
X141502693Y-102705160D01*
X139363309Y-100565777D01*
X139317252Y-100496848D01*
X139044194Y-100314396D01*
X138803403Y-100266500D01*
X138803401Y-100266500D01*
X138722100Y-100250328D01*
X138640799Y-100266500D01*
X133232510Y-100266500D01*
X133232508Y-74775632D01*
X133365604Y-74576440D01*
X133413500Y-74335649D01*
X133413500Y-74335647D01*
X133429672Y-74254346D01*
X133413500Y-74173045D01*
X133413500Y-68490840D01*
X134353300Y-68490840D01*
X134601065Y-68441557D01*
X134811109Y-68301209D01*
X134951457Y-68091165D01*
X135000740Y-67843400D01*
X135000740Y-66065400D01*
X135255260Y-66065400D01*
X135255260Y-67843400D01*
X135304543Y-68091165D01*
X135444891Y-68301209D01*
X135654935Y-68441557D01*
X135902700Y-68490840D01*
X136893300Y-68490840D01*
X137141065Y-68441557D01*
X137351109Y-68301209D01*
X137491457Y-68091165D01*
X137540740Y-67843400D01*
X137540740Y-66065400D01*
X137795260Y-66065400D01*
X137795260Y-67843400D01*
X137844543Y-68091165D01*
X137984891Y-68301209D01*
X138194935Y-68441557D01*
X138442700Y-68490840D01*
X139433300Y-68490840D01*
X139681065Y-68441557D01*
X139891109Y-68301209D01*
X140031457Y-68091165D01*
X140080740Y-67843400D01*
X140080740Y-66065400D01*
X140335260Y-66065400D01*
X140335260Y-67843400D01*
X140384543Y-68091165D01*
X140524891Y-68301209D01*
X140734935Y-68441557D01*
X140982700Y-68490840D01*
X141973300Y-68490840D01*
X142221065Y-68441557D01*
X142431109Y-68301209D01*
X142571457Y-68091165D01*
X142620740Y-67843400D01*
X142620740Y-66065400D01*
X142875260Y-66065400D01*
X142875260Y-67843400D01*
X142924543Y-68091165D01*
X143064891Y-68301209D01*
X143274935Y-68441557D01*
X143522700Y-68490840D01*
X144513300Y-68490840D01*
X144761065Y-68441557D01*
X144971109Y-68301209D01*
X145111457Y-68091165D01*
X145160740Y-67843400D01*
X145160740Y-66065400D01*
X145415260Y-66065400D01*
X145415260Y-67843400D01*
X145464543Y-68091165D01*
X145604891Y-68301209D01*
X145814935Y-68441557D01*
X146062700Y-68490840D01*
X147053300Y-68490840D01*
X147301065Y-68441557D01*
X147511109Y-68301209D01*
X147651457Y-68091165D01*
X147700740Y-67843400D01*
X147700740Y-66065400D01*
X147651457Y-65817635D01*
X147511109Y-65607591D01*
X147301065Y-65467243D01*
X147053300Y-65417960D01*
X146062700Y-65417960D01*
X145814935Y-65467243D01*
X145604891Y-65607591D01*
X145464543Y-65817635D01*
X145415260Y-66065400D01*
X145160740Y-66065400D01*
X145111457Y-65817635D01*
X144971109Y-65607591D01*
X144761065Y-65467243D01*
X144513300Y-65417960D01*
X143522700Y-65417960D01*
X143274935Y-65467243D01*
X143064891Y-65607591D01*
X142924543Y-65817635D01*
X142875260Y-66065400D01*
X142620740Y-66065400D01*
X142571457Y-65817635D01*
X142431109Y-65607591D01*
X142221065Y-65467243D01*
X141973300Y-65417960D01*
X140982700Y-65417960D01*
X140734935Y-65467243D01*
X140524891Y-65607591D01*
X140384543Y-65817635D01*
X140335260Y-66065400D01*
X140080740Y-66065400D01*
X140031457Y-65817635D01*
X139891109Y-65607591D01*
X139681065Y-65467243D01*
X139433300Y-65417960D01*
X138442700Y-65417960D01*
X138194935Y-65467243D01*
X137984891Y-65607591D01*
X137844543Y-65817635D01*
X137795260Y-66065400D01*
X137540740Y-66065400D01*
X137491457Y-65817635D01*
X137351109Y-65607591D01*
X137141065Y-65467243D01*
X136893300Y-65417960D01*
X135902700Y-65417960D01*
X135654935Y-65467243D01*
X135444891Y-65607591D01*
X135304543Y-65817635D01*
X135255260Y-66065400D01*
X135000740Y-66065400D01*
X134951457Y-65817635D01*
X134811109Y-65607591D01*
X134601065Y-65467243D01*
X134353300Y-65417960D01*
X133413500Y-65417960D01*
X133413500Y-62598040D01*
X134353300Y-62598040D01*
X134601065Y-62548757D01*
X134811109Y-62408409D01*
X134951457Y-62198365D01*
X135000740Y-61950600D01*
X135000740Y-60172600D01*
X135255260Y-60172600D01*
X135255260Y-61950600D01*
X135304543Y-62198365D01*
X135444891Y-62408409D01*
X135654935Y-62548757D01*
X135902700Y-62598040D01*
X136893300Y-62598040D01*
X137141065Y-62548757D01*
X137351109Y-62408409D01*
X137491457Y-62198365D01*
X137540740Y-61950600D01*
X137540740Y-60172600D01*
X137795260Y-60172600D01*
X137795260Y-61950600D01*
X137844543Y-62198365D01*
X137984891Y-62408409D01*
X138194935Y-62548757D01*
X138442700Y-62598040D01*
X139433300Y-62598040D01*
X139681065Y-62548757D01*
X139891109Y-62408409D01*
X140031457Y-62198365D01*
X140080740Y-61950600D01*
X140080740Y-60172600D01*
X140335260Y-60172600D01*
X140335260Y-61950600D01*
X140384543Y-62198365D01*
X140524891Y-62408409D01*
X140734935Y-62548757D01*
X140982700Y-62598040D01*
X141973300Y-62598040D01*
X142221065Y-62548757D01*
X142431109Y-62408409D01*
X142571457Y-62198365D01*
X142620740Y-61950600D01*
X142620740Y-60172600D01*
X142875260Y-60172600D01*
X142875260Y-61950600D01*
X142924543Y-62198365D01*
X143064891Y-62408409D01*
X143274935Y-62548757D01*
X143522700Y-62598040D01*
X144513300Y-62598040D01*
X144761065Y-62548757D01*
X144971109Y-62408409D01*
X145111457Y-62198365D01*
X145160740Y-61950600D01*
X145160740Y-60172600D01*
X145415260Y-60172600D01*
X145415260Y-61950600D01*
X145464543Y-62198365D01*
X145604891Y-62408409D01*
X145814935Y-62548757D01*
X146062700Y-62598040D01*
X147053300Y-62598040D01*
X147301065Y-62548757D01*
X147511109Y-62408409D01*
X147651457Y-62198365D01*
X147700740Y-61950600D01*
X147700740Y-60172600D01*
X147651457Y-59924835D01*
X147511109Y-59714791D01*
X147301065Y-59574443D01*
X147053300Y-59525160D01*
X146062700Y-59525160D01*
X145814935Y-59574443D01*
X145604891Y-59714791D01*
X145464543Y-59924835D01*
X145415260Y-60172600D01*
X145160740Y-60172600D01*
X145111457Y-59924835D01*
X144971109Y-59714791D01*
X144761065Y-59574443D01*
X144513300Y-59525160D01*
X143522700Y-59525160D01*
X143274935Y-59574443D01*
X143064891Y-59714791D01*
X142924543Y-59924835D01*
X142875260Y-60172600D01*
X142620740Y-60172600D01*
X142571457Y-59924835D01*
X142431109Y-59714791D01*
X142221065Y-59574443D01*
X141973300Y-59525160D01*
X140982700Y-59525160D01*
X140734935Y-59574443D01*
X140524891Y-59714791D01*
X140384543Y-59924835D01*
X140335260Y-60172600D01*
X140080740Y-60172600D01*
X140031457Y-59924835D01*
X139891109Y-59714791D01*
X139681065Y-59574443D01*
X139433300Y-59525160D01*
X138442700Y-59525160D01*
X138194935Y-59574443D01*
X137984891Y-59714791D01*
X137844543Y-59924835D01*
X137795260Y-60172600D01*
X137540740Y-60172600D01*
X137491457Y-59924835D01*
X137351109Y-59714791D01*
X137141065Y-59574443D01*
X136893300Y-59525160D01*
X135902700Y-59525160D01*
X135654935Y-59574443D01*
X135444891Y-59714791D01*
X135304543Y-59924835D01*
X135255260Y-60172600D01*
X135000740Y-60172600D01*
X134951457Y-59924835D01*
X134811109Y-59714791D01*
X134601065Y-59574443D01*
X134353300Y-59525160D01*
X133413500Y-59525160D01*
X133413500Y-50349984D01*
X133580119Y-50419000D01*
X134135881Y-50419000D01*
X134649337Y-50206320D01*
X135042320Y-49813337D01*
X135255000Y-49299881D01*
X135255000Y-48744119D01*
X135042320Y-48230663D01*
X134649337Y-47837680D01*
X134558161Y-47799914D01*
X134659604Y-47648094D01*
X134674327Y-47574075D01*
X134829765Y-47543157D01*
X135039809Y-47402809D01*
X135180157Y-47192765D01*
X135229440Y-46945000D01*
X135229440Y-45345000D01*
X135180157Y-45097235D01*
X135039809Y-44887191D01*
X134829765Y-44746843D01*
X134707500Y-44722523D01*
X134707500Y-40721303D01*
X134723672Y-40640000D01*
X134707500Y-40558697D01*
X134707500Y-40367477D01*
X134829765Y-40343157D01*
X135039809Y-40202809D01*
X135180157Y-39992765D01*
X135229440Y-39745000D01*
X135229440Y-38163500D01*
X135534560Y-38163500D01*
X135534560Y-39745000D01*
G36*
X124836004Y-36560396D02*
X124562946Y-36742848D01*
X124516891Y-36811774D01*
X123679775Y-37648891D01*
X123610849Y-37694946D01*
X123564794Y-37763872D01*
X123428397Y-37968004D01*
X123364328Y-38290098D01*
X123380501Y-38371404D01*
X123380500Y-47670697D01*
X123364328Y-47752000D01*
X123380500Y-47833301D01*
X123380500Y-47833302D01*
X123428396Y-48074093D01*
X123610848Y-48347152D01*
X123679776Y-48393209D01*
X123888500Y-48601933D01*
X123888501Y-51734694D01*
X123872328Y-51816000D01*
X123913036Y-52020651D01*
X123936397Y-52138094D01*
X124118849Y-52411152D01*
X124142500Y-52426955D01*
X124142500Y-65417960D01*
X123202700Y-65417960D01*
X123138000Y-65430829D01*
X123138000Y-37896581D01*
X123198090Y-37476991D01*
X123352381Y-37137648D01*
X123595712Y-36855248D01*
X123908523Y-36652494D01*
X124289184Y-36538652D01*
X124486350Y-36524000D01*
X125018980Y-36524000D01*
X124836004Y-36560396D01*
X124836004Y-36560396D01*
G37*
X124836004Y-36560396D02*
X124562946Y-36742848D01*
X124516891Y-36811774D01*
X123679775Y-37648891D01*
X123610849Y-37694946D01*
X123564794Y-37763872D01*
X123428397Y-37968004D01*
X123364328Y-38290098D01*
X123380501Y-38371404D01*
X123380500Y-47670697D01*
X123364328Y-47752000D01*
X123380500Y-47833301D01*
X123380500Y-47833302D01*
X123428396Y-48074093D01*
X123610848Y-48347152D01*
X123679776Y-48393209D01*
X123888500Y-48601933D01*
X123888501Y-51734694D01*
X123872328Y-51816000D01*
X123913036Y-52020651D01*
X123936397Y-52138094D01*
X124118849Y-52411152D01*
X124142500Y-52426955D01*
X124142500Y-65417960D01*
X123202700Y-65417960D01*
X123138000Y-65430829D01*
X123138000Y-37896581D01*
X123198090Y-37476991D01*
X123352381Y-37137648D01*
X123595712Y-36855248D01*
X123908523Y-36652494D01*
X124289184Y-36538652D01*
X124486350Y-36524000D01*
X125018980Y-36524000D01*
X124836004Y-36560396D01*
G36*
X152806560Y-39745000D02*
X152855843Y-39992765D01*
X152996191Y-40202809D01*
X153206235Y-40343157D01*
X153328500Y-40367477D01*
X153328501Y-44722523D01*
X153206235Y-44746843D01*
X152996191Y-44887191D01*
X152855843Y-45097235D01*
X152806560Y-45345000D01*
X152806560Y-46945000D01*
X152855843Y-47192765D01*
X152996191Y-47402809D01*
X153206235Y-47543157D01*
X153454000Y-47592440D01*
X154854000Y-47592440D01*
X155101765Y-47543157D01*
X155311809Y-47402809D01*
X155452157Y-47192765D01*
X155501440Y-46945000D01*
X155501440Y-45345000D01*
X155452157Y-45097235D01*
X155311809Y-44887191D01*
X155101765Y-44746843D01*
X154979500Y-44722523D01*
X154979500Y-40367477D01*
X155101765Y-40343157D01*
X155311809Y-40202809D01*
X155452157Y-39992765D01*
X155501440Y-39745000D01*
X155501440Y-38163500D01*
X158950560Y-38163500D01*
X158950560Y-39745000D01*
X158999843Y-39992765D01*
X159140191Y-40202809D01*
X159350235Y-40343157D01*
X159472501Y-40367477D01*
X159472501Y-40576500D01*
X158655878Y-40576500D01*
X158597247Y-40488753D01*
X158310152Y-40296922D01*
X157971500Y-40229560D01*
X157496500Y-40229560D01*
X157157848Y-40296922D01*
X156870753Y-40488753D01*
X156678922Y-40775848D01*
X156611560Y-41114500D01*
X156611560Y-41689500D01*
X156678922Y-42028152D01*
X156870753Y-42315247D01*
X157157848Y-42507078D01*
X157496500Y-42574440D01*
X157971500Y-42574440D01*
X158310152Y-42507078D01*
X158597247Y-42315247D01*
X158655878Y-42227500D01*
X159472500Y-42227500D01*
X159472501Y-44722523D01*
X159350235Y-44746843D01*
X159140191Y-44887191D01*
X158999843Y-45097235D01*
X158950560Y-45345000D01*
X158950560Y-46945000D01*
X158999843Y-47192765D01*
X159105571Y-47350997D01*
X159103274Y-47353294D01*
X159034348Y-47399349D01*
X158988293Y-47468275D01*
X158851896Y-47672407D01*
X158787827Y-47994501D01*
X158804000Y-48075807D01*
X158803999Y-49493899D01*
X158787827Y-49575201D01*
X158803999Y-49656502D01*
X158803999Y-49656503D01*
X158851895Y-49897294D01*
X159034347Y-50170353D01*
X159103276Y-50216410D01*
X159696376Y-50809510D01*
X153322943Y-50809510D01*
X153108001Y-50594569D01*
X153108001Y-48535798D01*
X153124172Y-48454500D01*
X153108001Y-48373202D01*
X153108001Y-48373198D01*
X153060105Y-48132407D01*
X152930144Y-47937907D01*
X152923707Y-47928273D01*
X152923706Y-47928272D01*
X152877653Y-47859349D01*
X152808729Y-47813296D01*
X152346429Y-47350996D01*
X152452157Y-47192765D01*
X152501440Y-46945000D01*
X152501440Y-45345000D01*
X152452157Y-45097235D01*
X152311809Y-44887191D01*
X152101765Y-44746843D01*
X151979500Y-44722523D01*
X151979500Y-41229303D01*
X151995672Y-41148000D01*
X151979500Y-41066697D01*
X151979500Y-40367477D01*
X152101765Y-40343157D01*
X152311809Y-40202809D01*
X152452157Y-39992765D01*
X152501440Y-39745000D01*
X152501440Y-38163500D01*
X152806560Y-38163500D01*
X152806560Y-39745000D01*
X152806560Y-39745000D01*
G37*
X152806560Y-39745000D02*
X152855843Y-39992765D01*
X152996191Y-40202809D01*
X153206235Y-40343157D01*
X153328500Y-40367477D01*
X153328501Y-44722523D01*
X153206235Y-44746843D01*
X152996191Y-44887191D01*
X152855843Y-45097235D01*
X152806560Y-45345000D01*
X152806560Y-46945000D01*
X152855843Y-47192765D01*
X152996191Y-47402809D01*
X153206235Y-47543157D01*
X153454000Y-47592440D01*
X154854000Y-47592440D01*
X155101765Y-47543157D01*
X155311809Y-47402809D01*
X155452157Y-47192765D01*
X155501440Y-46945000D01*
X155501440Y-45345000D01*
X155452157Y-45097235D01*
X155311809Y-44887191D01*
X155101765Y-44746843D01*
X154979500Y-44722523D01*
X154979500Y-40367477D01*
X155101765Y-40343157D01*
X155311809Y-40202809D01*
X155452157Y-39992765D01*
X155501440Y-39745000D01*
X155501440Y-38163500D01*
X158950560Y-38163500D01*
X158950560Y-39745000D01*
X158999843Y-39992765D01*
X159140191Y-40202809D01*
X159350235Y-40343157D01*
X159472501Y-40367477D01*
X159472501Y-40576500D01*
X158655878Y-40576500D01*
X158597247Y-40488753D01*
X158310152Y-40296922D01*
X157971500Y-40229560D01*
X157496500Y-40229560D01*
X157157848Y-40296922D01*
X156870753Y-40488753D01*
X156678922Y-40775848D01*
X156611560Y-41114500D01*
X156611560Y-41689500D01*
X156678922Y-42028152D01*
X156870753Y-42315247D01*
X157157848Y-42507078D01*
X157496500Y-42574440D01*
X157971500Y-42574440D01*
X158310152Y-42507078D01*
X158597247Y-42315247D01*
X158655878Y-42227500D01*
X159472500Y-42227500D01*
X159472501Y-44722523D01*
X159350235Y-44746843D01*
X159140191Y-44887191D01*
X158999843Y-45097235D01*
X158950560Y-45345000D01*
X158950560Y-46945000D01*
X158999843Y-47192765D01*
X159105571Y-47350997D01*
X159103274Y-47353294D01*
X159034348Y-47399349D01*
X158988293Y-47468275D01*
X158851896Y-47672407D01*
X158787827Y-47994501D01*
X158804000Y-48075807D01*
X158803999Y-49493899D01*
X158787827Y-49575201D01*
X158803999Y-49656502D01*
X158803999Y-49656503D01*
X158851895Y-49897294D01*
X159034347Y-50170353D01*
X159103276Y-50216410D01*
X159696376Y-50809510D01*
X153322943Y-50809510D01*
X153108001Y-50594569D01*
X153108001Y-48535798D01*
X153124172Y-48454500D01*
X153108001Y-48373202D01*
X153108001Y-48373198D01*
X153060105Y-48132407D01*
X152930144Y-47937907D01*
X152923707Y-47928273D01*
X152923706Y-47928272D01*
X152877653Y-47859349D01*
X152808729Y-47813296D01*
X152346429Y-47350996D01*
X152452157Y-47192765D01*
X152501440Y-46945000D01*
X152501440Y-45345000D01*
X152452157Y-45097235D01*
X152311809Y-44887191D01*
X152101765Y-44746843D01*
X151979500Y-44722523D01*
X151979500Y-41229303D01*
X151995672Y-41148000D01*
X151979500Y-41066697D01*
X151979500Y-40367477D01*
X152101765Y-40343157D01*
X152311809Y-40202809D01*
X152452157Y-39992765D01*
X152501440Y-39745000D01*
X152501440Y-38163500D01*
X152806560Y-38163500D01*
X152806560Y-39745000D01*
G36*
X172148500Y-49956698D02*
X172132328Y-50038000D01*
X172148500Y-50119301D01*
X172148500Y-50119302D01*
X172170221Y-50228500D01*
X169139790Y-50228500D01*
X169193337Y-50206320D01*
X169586320Y-49813337D01*
X169799000Y-49299881D01*
X169799000Y-48744119D01*
X169624774Y-48323500D01*
X172148501Y-48323500D01*
X172148500Y-49956698D01*
X172148500Y-49956698D01*
G37*
X172148500Y-49956698D02*
X172132328Y-50038000D01*
X172148500Y-50119301D01*
X172148500Y-50119302D01*
X172170221Y-50228500D01*
X169139790Y-50228500D01*
X169193337Y-50206320D01*
X169586320Y-49813337D01*
X169799000Y-49299881D01*
X169799000Y-48744119D01*
X169624774Y-48323500D01*
X172148501Y-48323500D01*
X172148500Y-49956698D01*
G36*
X144678560Y-39745000D02*
X144727843Y-39992765D01*
X144868191Y-40202809D01*
X145078235Y-40343157D01*
X145200500Y-40367477D01*
X145200501Y-44722523D01*
X145078235Y-44746843D01*
X144868191Y-44887191D01*
X144727843Y-45097235D01*
X144678560Y-45345000D01*
X144678560Y-46945000D01*
X144727843Y-47192765D01*
X144868191Y-47402809D01*
X145078235Y-47543157D01*
X145326000Y-47592440D01*
X146726000Y-47592440D01*
X146973765Y-47543157D01*
X147183809Y-47402809D01*
X147324157Y-47192765D01*
X147373440Y-46945000D01*
X147373440Y-45345000D01*
X147324157Y-45097235D01*
X147183809Y-44887191D01*
X146973765Y-44746843D01*
X146851500Y-44722523D01*
X146851500Y-40367477D01*
X146973765Y-40343157D01*
X147183809Y-40202809D01*
X147324157Y-39992765D01*
X147373440Y-39745000D01*
X147373440Y-38163500D01*
X149806560Y-38163500D01*
X149806560Y-39745000D01*
X149855843Y-39992765D01*
X149996191Y-40202809D01*
X150175320Y-40322500D01*
X149511878Y-40322500D01*
X149453247Y-40234753D01*
X149166152Y-40042922D01*
X148827500Y-39975560D01*
X148352500Y-39975560D01*
X148013848Y-40042922D01*
X147726753Y-40234753D01*
X147534922Y-40521848D01*
X147467560Y-40860500D01*
X147467560Y-41435500D01*
X147534922Y-41774152D01*
X147726753Y-42061247D01*
X148013848Y-42253078D01*
X148352500Y-42320440D01*
X148827500Y-42320440D01*
X149166152Y-42253078D01*
X149453247Y-42061247D01*
X149511878Y-41973500D01*
X150328500Y-41973500D01*
X150328501Y-44722523D01*
X150206235Y-44746843D01*
X149996191Y-44887191D01*
X149855843Y-45097235D01*
X149806560Y-45345000D01*
X149806560Y-46945000D01*
X149855843Y-47192765D01*
X149996191Y-47402809D01*
X150206235Y-47543157D01*
X150361673Y-47574075D01*
X150376396Y-47648093D01*
X150467434Y-47784341D01*
X150338663Y-47837680D01*
X149945680Y-48230663D01*
X149860000Y-48437513D01*
X149774320Y-48230663D01*
X149381337Y-47837680D01*
X148867881Y-47625000D01*
X148312119Y-47625000D01*
X147798663Y-47837680D01*
X147405680Y-48230663D01*
X147320000Y-48437513D01*
X147234320Y-48230663D01*
X146841337Y-47837680D01*
X146327881Y-47625000D01*
X145772119Y-47625000D01*
X145258663Y-47837680D01*
X144865680Y-48230663D01*
X144780000Y-48437513D01*
X144694320Y-48230663D01*
X144301337Y-47837680D01*
X143806651Y-47632775D01*
X143818327Y-47574075D01*
X143973765Y-47543157D01*
X144183809Y-47402809D01*
X144324157Y-47192765D01*
X144373440Y-46945000D01*
X144373440Y-45345000D01*
X144324157Y-45097235D01*
X144183809Y-44887191D01*
X143973765Y-44746843D01*
X143851500Y-44722523D01*
X143851500Y-40975303D01*
X143867672Y-40894000D01*
X143851500Y-40812697D01*
X143851500Y-40367477D01*
X143973765Y-40343157D01*
X144183809Y-40202809D01*
X144324157Y-39992765D01*
X144373440Y-39745000D01*
X144373440Y-38163500D01*
X144678560Y-38163500D01*
X144678560Y-39745000D01*
X144678560Y-39745000D01*
G37*
X144678560Y-39745000D02*
X144727843Y-39992765D01*
X144868191Y-40202809D01*
X145078235Y-40343157D01*
X145200500Y-40367477D01*
X145200501Y-44722523D01*
X145078235Y-44746843D01*
X144868191Y-44887191D01*
X144727843Y-45097235D01*
X144678560Y-45345000D01*
X144678560Y-46945000D01*
X144727843Y-47192765D01*
X144868191Y-47402809D01*
X145078235Y-47543157D01*
X145326000Y-47592440D01*
X146726000Y-47592440D01*
X146973765Y-47543157D01*
X147183809Y-47402809D01*
X147324157Y-47192765D01*
X147373440Y-46945000D01*
X147373440Y-45345000D01*
X147324157Y-45097235D01*
X147183809Y-44887191D01*
X146973765Y-44746843D01*
X146851500Y-44722523D01*
X146851500Y-40367477D01*
X146973765Y-40343157D01*
X147183809Y-40202809D01*
X147324157Y-39992765D01*
X147373440Y-39745000D01*
X147373440Y-38163500D01*
X149806560Y-38163500D01*
X149806560Y-39745000D01*
X149855843Y-39992765D01*
X149996191Y-40202809D01*
X150175320Y-40322500D01*
X149511878Y-40322500D01*
X149453247Y-40234753D01*
X149166152Y-40042922D01*
X148827500Y-39975560D01*
X148352500Y-39975560D01*
X148013848Y-40042922D01*
X147726753Y-40234753D01*
X147534922Y-40521848D01*
X147467560Y-40860500D01*
X147467560Y-41435500D01*
X147534922Y-41774152D01*
X147726753Y-42061247D01*
X148013848Y-42253078D01*
X148352500Y-42320440D01*
X148827500Y-42320440D01*
X149166152Y-42253078D01*
X149453247Y-42061247D01*
X149511878Y-41973500D01*
X150328500Y-41973500D01*
X150328501Y-44722523D01*
X150206235Y-44746843D01*
X149996191Y-44887191D01*
X149855843Y-45097235D01*
X149806560Y-45345000D01*
X149806560Y-46945000D01*
X149855843Y-47192765D01*
X149996191Y-47402809D01*
X150206235Y-47543157D01*
X150361673Y-47574075D01*
X150376396Y-47648093D01*
X150467434Y-47784341D01*
X150338663Y-47837680D01*
X149945680Y-48230663D01*
X149860000Y-48437513D01*
X149774320Y-48230663D01*
X149381337Y-47837680D01*
X148867881Y-47625000D01*
X148312119Y-47625000D01*
X147798663Y-47837680D01*
X147405680Y-48230663D01*
X147320000Y-48437513D01*
X147234320Y-48230663D01*
X146841337Y-47837680D01*
X146327881Y-47625000D01*
X145772119Y-47625000D01*
X145258663Y-47837680D01*
X144865680Y-48230663D01*
X144780000Y-48437513D01*
X144694320Y-48230663D01*
X144301337Y-47837680D01*
X143806651Y-47632775D01*
X143818327Y-47574075D01*
X143973765Y-47543157D01*
X144183809Y-47402809D01*
X144324157Y-47192765D01*
X144373440Y-46945000D01*
X144373440Y-45345000D01*
X144324157Y-45097235D01*
X144183809Y-44887191D01*
X143973765Y-44746843D01*
X143851500Y-44722523D01*
X143851500Y-40975303D01*
X143867672Y-40894000D01*
X143851500Y-40812697D01*
X143851500Y-40367477D01*
X143973765Y-40343157D01*
X144183809Y-40202809D01*
X144324157Y-39992765D01*
X144373440Y-39745000D01*
X144373440Y-38163500D01*
X144678560Y-38163500D01*
X144678560Y-39745000D01*
G36*
X161950560Y-39745000D02*
X161999843Y-39992765D01*
X162140191Y-40202809D01*
X162350235Y-40343157D01*
X162472500Y-40367477D01*
X162472501Y-44722523D01*
X162350235Y-44746843D01*
X162140191Y-44887191D01*
X161999843Y-45097235D01*
X161950560Y-45345000D01*
X161950560Y-46945000D01*
X161999843Y-47192765D01*
X162140191Y-47402809D01*
X162350235Y-47543157D01*
X162598000Y-47592440D01*
X163998000Y-47592440D01*
X164245765Y-47543157D01*
X164455809Y-47402809D01*
X164596157Y-47192765D01*
X164645440Y-46945000D01*
X164645440Y-45345000D01*
X164596157Y-45097235D01*
X164455809Y-44887191D01*
X164245765Y-44746843D01*
X164123500Y-44722523D01*
X164123500Y-40367477D01*
X164245765Y-40343157D01*
X164455809Y-40202809D01*
X164596157Y-39992765D01*
X164645440Y-39745000D01*
X164645440Y-38163500D01*
X167078560Y-38163500D01*
X167078560Y-39745000D01*
X167127843Y-39992765D01*
X167268191Y-40202809D01*
X167478235Y-40343157D01*
X167600500Y-40367477D01*
X167600500Y-40576500D01*
X166783878Y-40576500D01*
X166725247Y-40488753D01*
X166438152Y-40296922D01*
X166099500Y-40229560D01*
X165624500Y-40229560D01*
X165285848Y-40296922D01*
X164998753Y-40488753D01*
X164806922Y-40775848D01*
X164739560Y-41114500D01*
X164739560Y-41689500D01*
X164806922Y-42028152D01*
X164998753Y-42315247D01*
X165285848Y-42507078D01*
X165624500Y-42574440D01*
X166099500Y-42574440D01*
X166438152Y-42507078D01*
X166725247Y-42315247D01*
X166783878Y-42227500D01*
X167600500Y-42227500D01*
X167600501Y-44722523D01*
X167478235Y-44746843D01*
X167268191Y-44887191D01*
X167127843Y-45097235D01*
X167078560Y-45345000D01*
X167078560Y-46945000D01*
X167127843Y-47192765D01*
X167268191Y-47402809D01*
X167478235Y-47543157D01*
X167633674Y-47574075D01*
X167636252Y-47587037D01*
X167648397Y-47648094D01*
X167739435Y-47784341D01*
X167610663Y-47837680D01*
X167217680Y-48230663D01*
X167132000Y-48437513D01*
X167046320Y-48230663D01*
X166653337Y-47837680D01*
X166139881Y-47625000D01*
X165584119Y-47625000D01*
X165070663Y-47837680D01*
X164677680Y-48230663D01*
X164592000Y-48437513D01*
X164506320Y-48230663D01*
X164113337Y-47837680D01*
X163599881Y-47625000D01*
X163044119Y-47625000D01*
X162530663Y-47837680D01*
X162137680Y-48230663D01*
X162052000Y-48437513D01*
X161966320Y-48230663D01*
X161573337Y-47837680D01*
X161078651Y-47632775D01*
X161090327Y-47574075D01*
X161245765Y-47543157D01*
X161455809Y-47402809D01*
X161596157Y-47192765D01*
X161645440Y-46945000D01*
X161645440Y-45345000D01*
X161596157Y-45097235D01*
X161455809Y-44887191D01*
X161245765Y-44746843D01*
X161123500Y-44722523D01*
X161123500Y-41483303D01*
X161139672Y-41402000D01*
X161123500Y-41320697D01*
X161123500Y-40367477D01*
X161245765Y-40343157D01*
X161455809Y-40202809D01*
X161596157Y-39992765D01*
X161645440Y-39745000D01*
X161645440Y-38163500D01*
X161950560Y-38163500D01*
X161950560Y-39745000D01*
X161950560Y-39745000D01*
G37*
X161950560Y-39745000D02*
X161999843Y-39992765D01*
X162140191Y-40202809D01*
X162350235Y-40343157D01*
X162472500Y-40367477D01*
X162472501Y-44722523D01*
X162350235Y-44746843D01*
X162140191Y-44887191D01*
X161999843Y-45097235D01*
X161950560Y-45345000D01*
X161950560Y-46945000D01*
X161999843Y-47192765D01*
X162140191Y-47402809D01*
X162350235Y-47543157D01*
X162598000Y-47592440D01*
X163998000Y-47592440D01*
X164245765Y-47543157D01*
X164455809Y-47402809D01*
X164596157Y-47192765D01*
X164645440Y-46945000D01*
X164645440Y-45345000D01*
X164596157Y-45097235D01*
X164455809Y-44887191D01*
X164245765Y-44746843D01*
X164123500Y-44722523D01*
X164123500Y-40367477D01*
X164245765Y-40343157D01*
X164455809Y-40202809D01*
X164596157Y-39992765D01*
X164645440Y-39745000D01*
X164645440Y-38163500D01*
X167078560Y-38163500D01*
X167078560Y-39745000D01*
X167127843Y-39992765D01*
X167268191Y-40202809D01*
X167478235Y-40343157D01*
X167600500Y-40367477D01*
X167600500Y-40576500D01*
X166783878Y-40576500D01*
X166725247Y-40488753D01*
X166438152Y-40296922D01*
X166099500Y-40229560D01*
X165624500Y-40229560D01*
X165285848Y-40296922D01*
X164998753Y-40488753D01*
X164806922Y-40775848D01*
X164739560Y-41114500D01*
X164739560Y-41689500D01*
X164806922Y-42028152D01*
X164998753Y-42315247D01*
X165285848Y-42507078D01*
X165624500Y-42574440D01*
X166099500Y-42574440D01*
X166438152Y-42507078D01*
X166725247Y-42315247D01*
X166783878Y-42227500D01*
X167600500Y-42227500D01*
X167600501Y-44722523D01*
X167478235Y-44746843D01*
X167268191Y-44887191D01*
X167127843Y-45097235D01*
X167078560Y-45345000D01*
X167078560Y-46945000D01*
X167127843Y-47192765D01*
X167268191Y-47402809D01*
X167478235Y-47543157D01*
X167633674Y-47574075D01*
X167636252Y-47587037D01*
X167648397Y-47648094D01*
X167739435Y-47784341D01*
X167610663Y-47837680D01*
X167217680Y-48230663D01*
X167132000Y-48437513D01*
X167046320Y-48230663D01*
X166653337Y-47837680D01*
X166139881Y-47625000D01*
X165584119Y-47625000D01*
X165070663Y-47837680D01*
X164677680Y-48230663D01*
X164592000Y-48437513D01*
X164506320Y-48230663D01*
X164113337Y-47837680D01*
X163599881Y-47625000D01*
X163044119Y-47625000D01*
X162530663Y-47837680D01*
X162137680Y-48230663D01*
X162052000Y-48437513D01*
X161966320Y-48230663D01*
X161573337Y-47837680D01*
X161078651Y-47632775D01*
X161090327Y-47574075D01*
X161245765Y-47543157D01*
X161455809Y-47402809D01*
X161596157Y-47192765D01*
X161645440Y-46945000D01*
X161645440Y-45345000D01*
X161596157Y-45097235D01*
X161455809Y-44887191D01*
X161245765Y-44746843D01*
X161123500Y-44722523D01*
X161123500Y-41483303D01*
X161139672Y-41402000D01*
X161123500Y-41320697D01*
X161123500Y-40367477D01*
X161245765Y-40343157D01*
X161455809Y-40202809D01*
X161596157Y-39992765D01*
X161645440Y-39745000D01*
X161645440Y-38163500D01*
X161950560Y-38163500D01*
X161950560Y-39745000D01*
G36*
X132534560Y-39745000D02*
X132548384Y-39814500D01*
X132493878Y-39814500D01*
X132435247Y-39726753D01*
X132148152Y-39534922D01*
X131809500Y-39467560D01*
X131334500Y-39467560D01*
X130995848Y-39534922D01*
X130708753Y-39726753D01*
X130516922Y-40013848D01*
X130449560Y-40352500D01*
X130449560Y-40927500D01*
X130516922Y-41266152D01*
X130708753Y-41553247D01*
X130995848Y-41745078D01*
X131334500Y-41812440D01*
X131809500Y-41812440D01*
X132148152Y-41745078D01*
X132435247Y-41553247D01*
X132493878Y-41465500D01*
X133056500Y-41465500D01*
X133056501Y-44722523D01*
X132934235Y-44746843D01*
X132724191Y-44887191D01*
X132583843Y-45097235D01*
X132534560Y-45345000D01*
X132534560Y-45435385D01*
X132435247Y-45286753D01*
X132148152Y-45094922D01*
X131809500Y-45027560D01*
X131334500Y-45027560D01*
X130995848Y-45094922D01*
X130708753Y-45286753D01*
X130516922Y-45573848D01*
X130449560Y-45912500D01*
X130449560Y-46155007D01*
X130101440Y-46503128D01*
X130101440Y-45345000D01*
X130052157Y-45097235D01*
X129911809Y-44887191D01*
X129701765Y-44746843D01*
X129579500Y-44722523D01*
X129579500Y-40367477D01*
X129701765Y-40343157D01*
X129911809Y-40202809D01*
X130052157Y-39992765D01*
X130101440Y-39745000D01*
X130101440Y-38163500D01*
X132534560Y-38163500D01*
X132534560Y-39745000D01*
X132534560Y-39745000D01*
G37*
X132534560Y-39745000D02*
X132548384Y-39814500D01*
X132493878Y-39814500D01*
X132435247Y-39726753D01*
X132148152Y-39534922D01*
X131809500Y-39467560D01*
X131334500Y-39467560D01*
X130995848Y-39534922D01*
X130708753Y-39726753D01*
X130516922Y-40013848D01*
X130449560Y-40352500D01*
X130449560Y-40927500D01*
X130516922Y-41266152D01*
X130708753Y-41553247D01*
X130995848Y-41745078D01*
X131334500Y-41812440D01*
X131809500Y-41812440D01*
X132148152Y-41745078D01*
X132435247Y-41553247D01*
X132493878Y-41465500D01*
X133056500Y-41465500D01*
X133056501Y-44722523D01*
X132934235Y-44746843D01*
X132724191Y-44887191D01*
X132583843Y-45097235D01*
X132534560Y-45345000D01*
X132534560Y-45435385D01*
X132435247Y-45286753D01*
X132148152Y-45094922D01*
X131809500Y-45027560D01*
X131334500Y-45027560D01*
X130995848Y-45094922D01*
X130708753Y-45286753D01*
X130516922Y-45573848D01*
X130449560Y-45912500D01*
X130449560Y-46155007D01*
X130101440Y-46503128D01*
X130101440Y-45345000D01*
X130052157Y-45097235D01*
X129911809Y-44887191D01*
X129701765Y-44746843D01*
X129579500Y-44722523D01*
X129579500Y-40367477D01*
X129701765Y-40343157D01*
X129911809Y-40202809D01*
X130052157Y-39992765D01*
X130101440Y-39745000D01*
X130101440Y-38163500D01*
X132534560Y-38163500D01*
X132534560Y-39745000D01*
G36*
X181725009Y-36584090D02*
X182064352Y-36738381D01*
X182346752Y-36981712D01*
X182549506Y-37294523D01*
X182663348Y-37675184D01*
X182678000Y-37872350D01*
X182678000Y-38765785D01*
X182174963Y-38429666D01*
X181668880Y-38329000D01*
X180027120Y-38329000D01*
X179521037Y-38429666D01*
X178947135Y-38813135D01*
X178563666Y-39387037D01*
X178429010Y-40064000D01*
X178563666Y-40740963D01*
X178947135Y-41314865D01*
X178967564Y-41328515D01*
X178965578Y-41338500D01*
X177915933Y-41338500D01*
X177398440Y-40821008D01*
X177398440Y-40578500D01*
X177331078Y-40239848D01*
X177139247Y-39952753D01*
X176852152Y-39760922D01*
X176513500Y-39693560D01*
X176038500Y-39693560D01*
X175699848Y-39760922D01*
X175412753Y-39952753D01*
X175220922Y-40239848D01*
X175153560Y-40578500D01*
X175153560Y-41153500D01*
X175220922Y-41492152D01*
X175412753Y-41779247D01*
X175699848Y-41971078D01*
X176038500Y-42038440D01*
X176281008Y-42038440D01*
X176932793Y-42690226D01*
X176978848Y-42759152D01*
X177251906Y-42941604D01*
X177492697Y-42989500D01*
X177492701Y-42989500D01*
X177573999Y-43005671D01*
X177655297Y-42989500D01*
X178965578Y-42989500D01*
X178999843Y-43161765D01*
X179117934Y-43338500D01*
X173388303Y-43338500D01*
X173307000Y-43322328D01*
X172984905Y-43386396D01*
X172848689Y-43477414D01*
X172711848Y-43568848D01*
X172665793Y-43637774D01*
X172251500Y-44052067D01*
X172251500Y-40367477D01*
X172373765Y-40343157D01*
X172583809Y-40202809D01*
X172724157Y-39992765D01*
X172773440Y-39745000D01*
X172773440Y-38145000D01*
X172724157Y-37897235D01*
X172583809Y-37687191D01*
X172373765Y-37546843D01*
X172218327Y-37515925D01*
X172203604Y-37441906D01*
X172021152Y-37168848D01*
X171952223Y-37122791D01*
X171641209Y-36811777D01*
X171595152Y-36742848D01*
X171322094Y-36560396D01*
X171139118Y-36524000D01*
X181305419Y-36524000D01*
X181725009Y-36584090D01*
X181725009Y-36584090D01*
G37*
X181725009Y-36584090D02*
X182064352Y-36738381D01*
X182346752Y-36981712D01*
X182549506Y-37294523D01*
X182663348Y-37675184D01*
X182678000Y-37872350D01*
X182678000Y-38765785D01*
X182174963Y-38429666D01*
X181668880Y-38329000D01*
X180027120Y-38329000D01*
X179521037Y-38429666D01*
X178947135Y-38813135D01*
X178563666Y-39387037D01*
X178429010Y-40064000D01*
X178563666Y-40740963D01*
X178947135Y-41314865D01*
X178967564Y-41328515D01*
X178965578Y-41338500D01*
X177915933Y-41338500D01*
X177398440Y-40821008D01*
X177398440Y-40578500D01*
X177331078Y-40239848D01*
X177139247Y-39952753D01*
X176852152Y-39760922D01*
X176513500Y-39693560D01*
X176038500Y-39693560D01*
X175699848Y-39760922D01*
X175412753Y-39952753D01*
X175220922Y-40239848D01*
X175153560Y-40578500D01*
X175153560Y-41153500D01*
X175220922Y-41492152D01*
X175412753Y-41779247D01*
X175699848Y-41971078D01*
X176038500Y-42038440D01*
X176281008Y-42038440D01*
X176932793Y-42690226D01*
X176978848Y-42759152D01*
X177251906Y-42941604D01*
X177492697Y-42989500D01*
X177492701Y-42989500D01*
X177573999Y-43005671D01*
X177655297Y-42989500D01*
X178965578Y-42989500D01*
X178999843Y-43161765D01*
X179117934Y-43338500D01*
X173388303Y-43338500D01*
X173307000Y-43322328D01*
X172984905Y-43386396D01*
X172848689Y-43477414D01*
X172711848Y-43568848D01*
X172665793Y-43637774D01*
X172251500Y-44052067D01*
X172251500Y-40367477D01*
X172373765Y-40343157D01*
X172583809Y-40202809D01*
X172724157Y-39992765D01*
X172773440Y-39745000D01*
X172773440Y-38145000D01*
X172724157Y-37897235D01*
X172583809Y-37687191D01*
X172373765Y-37546843D01*
X172218327Y-37515925D01*
X172203604Y-37441906D01*
X172021152Y-37168848D01*
X171952223Y-37122791D01*
X171641209Y-36811777D01*
X171595152Y-36742848D01*
X171322094Y-36560396D01*
X171139118Y-36524000D01*
X181305419Y-36524000D01*
X181725009Y-36584090D01*
G04 #@! TD*
M02*
