G04 #@! TF.GenerationSoftware,KiCad,Pcbnew,(5.1.4)-1*
G04 #@! TF.CreationDate,2020-01-03T19:37:45-06:00*
G04 #@! TF.ProjectId,DriveBoard2020,44726976-6542-46f6-9172-64323032302e,rev?*
G04 #@! TF.SameCoordinates,Original*
G04 #@! TF.FileFunction,Soldermask,Bot*
G04 #@! TF.FilePolarity,Negative*
%FSLAX46Y46*%
G04 Gerber Fmt 4.6, Leading zero omitted, Abs format (unit mm)*
G04 Created by KiCad (PCBNEW (5.1.4)-1) date 2020-01-03 19:37:45*
%MOMM*%
%LPD*%
G04 APERTURE LIST*
%ADD10C,0.100000*%
G04 APERTURE END LIST*
D10*
G36*
X133197800Y-218516400D02*
G01*
X132105200Y-218516400D01*
X132105200Y-216636400D01*
X133197800Y-216636400D01*
X133197800Y-218516400D01*
X133197800Y-218516400D01*
G37*
G36*
X199237800Y-218516400D02*
G01*
X198145200Y-218516400D01*
X198145200Y-216636400D01*
X199237800Y-216636400D01*
X199237800Y-218516400D01*
X199237800Y-218516400D01*
G37*
G36*
X176377800Y-218516400D02*
G01*
X175285200Y-218516400D01*
X175285200Y-216636400D01*
X176377800Y-216636400D01*
X176377800Y-218516400D01*
X176377800Y-218516400D01*
G37*
G36*
X191617800Y-218516400D02*
G01*
X190525200Y-218516400D01*
X190525200Y-216636400D01*
X191617800Y-216636400D01*
X191617800Y-218516400D01*
X191617800Y-218516400D01*
G37*
G36*
X196697800Y-218516400D02*
G01*
X195605200Y-218516400D01*
X195605200Y-216636400D01*
X196697800Y-216636400D01*
X196697800Y-218516400D01*
X196697800Y-218516400D01*
G37*
G36*
X178917800Y-218516400D02*
G01*
X177825200Y-218516400D01*
X177825200Y-216636400D01*
X178917800Y-216636400D01*
X178917800Y-218516400D01*
X178917800Y-218516400D01*
G37*
G36*
X181457800Y-218516400D02*
G01*
X180365200Y-218516400D01*
X180365200Y-216636400D01*
X181457800Y-216636400D01*
X181457800Y-218516400D01*
X181457800Y-218516400D01*
G37*
G36*
X183997800Y-218516400D02*
G01*
X182905200Y-218516400D01*
X182905200Y-216636400D01*
X183997800Y-216636400D01*
X183997800Y-218516400D01*
X183997800Y-218516400D01*
G37*
G36*
X186537800Y-218516400D02*
G01*
X185445200Y-218516400D01*
X185445200Y-216636400D01*
X186537800Y-216636400D01*
X186537800Y-218516400D01*
X186537800Y-218516400D01*
G37*
G36*
X189077800Y-218516400D02*
G01*
X187985200Y-218516400D01*
X187985200Y-216636400D01*
X189077800Y-216636400D01*
X189077800Y-218516400D01*
X189077800Y-218516400D01*
G37*
G36*
X194157800Y-218516400D02*
G01*
X193065200Y-218516400D01*
X193065200Y-216636400D01*
X194157800Y-216636400D01*
X194157800Y-218516400D01*
X194157800Y-218516400D01*
G37*
G36*
X112877800Y-218516400D02*
G01*
X111785200Y-218516400D01*
X111785200Y-216636400D01*
X112877800Y-216636400D01*
X112877800Y-218516400D01*
X112877800Y-218516400D01*
G37*
G36*
X115417800Y-218516400D02*
G01*
X114325200Y-218516400D01*
X114325200Y-216636400D01*
X115417800Y-216636400D01*
X115417800Y-218516400D01*
X115417800Y-218516400D01*
G37*
G36*
X117957800Y-218516400D02*
G01*
X116865200Y-218516400D01*
X116865200Y-216636400D01*
X117957800Y-216636400D01*
X117957800Y-218516400D01*
X117957800Y-218516400D01*
G37*
G36*
X120497800Y-218516400D02*
G01*
X119405200Y-218516400D01*
X119405200Y-216636400D01*
X120497800Y-216636400D01*
X120497800Y-218516400D01*
X120497800Y-218516400D01*
G37*
G36*
X123037800Y-218516400D02*
G01*
X121945200Y-218516400D01*
X121945200Y-216636400D01*
X123037800Y-216636400D01*
X123037800Y-218516400D01*
X123037800Y-218516400D01*
G37*
G36*
X125577800Y-218516400D02*
G01*
X124485200Y-218516400D01*
X124485200Y-216636400D01*
X125577800Y-216636400D01*
X125577800Y-218516400D01*
X125577800Y-218516400D01*
G37*
G36*
X128117800Y-218516400D02*
G01*
X127025200Y-218516400D01*
X127025200Y-216636400D01*
X128117800Y-216636400D01*
X128117800Y-218516400D01*
X128117800Y-218516400D01*
G37*
G36*
X130657800Y-218516400D02*
G01*
X129565200Y-218516400D01*
X129565200Y-216636400D01*
X130657800Y-216636400D01*
X130657800Y-218516400D01*
X130657800Y-218516400D01*
G37*
G36*
X135737800Y-218516400D02*
G01*
X134645200Y-218516400D01*
X134645200Y-216636400D01*
X135737800Y-216636400D01*
X135737800Y-218516400D01*
X135737800Y-218516400D01*
G37*
G36*
X207852908Y-210200380D02*
G01*
X208019767Y-210233570D01*
X208491299Y-210428885D01*
X208734029Y-210591073D01*
X208915666Y-210712438D01*
X209276562Y-211073334D01*
X209397927Y-211254971D01*
X209560115Y-211497701D01*
X209755430Y-211969233D01*
X209855000Y-212469809D01*
X209855000Y-212980191D01*
X209755430Y-213480767D01*
X209560115Y-213952299D01*
X209397927Y-214195029D01*
X209276562Y-214376666D01*
X208915666Y-214737562D01*
X208734029Y-214858927D01*
X208491299Y-215021115D01*
X208019767Y-215216430D01*
X207852908Y-215249620D01*
X207519193Y-215316000D01*
X207008807Y-215316000D01*
X206675092Y-215249620D01*
X206508233Y-215216430D01*
X206036701Y-215021115D01*
X205793971Y-214858927D01*
X205612334Y-214737562D01*
X205251438Y-214376666D01*
X205130073Y-214195029D01*
X204967885Y-213952299D01*
X204772570Y-213480767D01*
X204673000Y-212980191D01*
X204673000Y-212469809D01*
X204772570Y-211969233D01*
X204967885Y-211497701D01*
X205130073Y-211254971D01*
X205251438Y-211073334D01*
X205612334Y-210712438D01*
X205793971Y-210591073D01*
X206036701Y-210428885D01*
X206508233Y-210233570D01*
X206675092Y-210200380D01*
X207008807Y-210134000D01*
X207519193Y-210134000D01*
X207852908Y-210200380D01*
X207852908Y-210200380D01*
G37*
G36*
X120497800Y-212623600D02*
G01*
X119405200Y-212623600D01*
X119405200Y-210743600D01*
X120497800Y-210743600D01*
X120497800Y-212623600D01*
X120497800Y-212623600D01*
G37*
G36*
X117957800Y-212623600D02*
G01*
X116865200Y-212623600D01*
X116865200Y-210743600D01*
X117957800Y-210743600D01*
X117957800Y-212623600D01*
X117957800Y-212623600D01*
G37*
G36*
X115417800Y-212623600D02*
G01*
X114325200Y-212623600D01*
X114325200Y-210743600D01*
X115417800Y-210743600D01*
X115417800Y-212623600D01*
X115417800Y-212623600D01*
G37*
G36*
X112877800Y-212623600D02*
G01*
X111785200Y-212623600D01*
X111785200Y-210743600D01*
X112877800Y-210743600D01*
X112877800Y-212623600D01*
X112877800Y-212623600D01*
G37*
G36*
X178917800Y-212623600D02*
G01*
X177825200Y-212623600D01*
X177825200Y-210743600D01*
X178917800Y-210743600D01*
X178917800Y-212623600D01*
X178917800Y-212623600D01*
G37*
G36*
X135737800Y-212623600D02*
G01*
X134645200Y-212623600D01*
X134645200Y-210743600D01*
X135737800Y-210743600D01*
X135737800Y-212623600D01*
X135737800Y-212623600D01*
G37*
G36*
X183997800Y-212623600D02*
G01*
X182905200Y-212623600D01*
X182905200Y-210743600D01*
X183997800Y-210743600D01*
X183997800Y-212623600D01*
X183997800Y-212623600D01*
G37*
G36*
X194157800Y-212623600D02*
G01*
X193065200Y-212623600D01*
X193065200Y-210743600D01*
X194157800Y-210743600D01*
X194157800Y-212623600D01*
X194157800Y-212623600D01*
G37*
G36*
X199237800Y-212623600D02*
G01*
X198145200Y-212623600D01*
X198145200Y-210743600D01*
X199237800Y-210743600D01*
X199237800Y-212623600D01*
X199237800Y-212623600D01*
G37*
G36*
X181457800Y-212623600D02*
G01*
X180365200Y-212623600D01*
X180365200Y-210743600D01*
X181457800Y-210743600D01*
X181457800Y-212623600D01*
X181457800Y-212623600D01*
G37*
G36*
X125577800Y-212623600D02*
G01*
X124485200Y-212623600D01*
X124485200Y-210743600D01*
X125577800Y-210743600D01*
X125577800Y-212623600D01*
X125577800Y-212623600D01*
G37*
G36*
X123037800Y-212623600D02*
G01*
X121945200Y-212623600D01*
X121945200Y-210743600D01*
X123037800Y-210743600D01*
X123037800Y-212623600D01*
X123037800Y-212623600D01*
G37*
G36*
X186537800Y-212623600D02*
G01*
X185445200Y-212623600D01*
X185445200Y-210743600D01*
X186537800Y-210743600D01*
X186537800Y-212623600D01*
X186537800Y-212623600D01*
G37*
G36*
X196697800Y-212623600D02*
G01*
X195605200Y-212623600D01*
X195605200Y-210743600D01*
X196697800Y-210743600D01*
X196697800Y-212623600D01*
X196697800Y-212623600D01*
G37*
G36*
X191617800Y-212623600D02*
G01*
X190525200Y-212623600D01*
X190525200Y-210743600D01*
X191617800Y-210743600D01*
X191617800Y-212623600D01*
X191617800Y-212623600D01*
G37*
G36*
X128117800Y-212623600D02*
G01*
X127025200Y-212623600D01*
X127025200Y-210743600D01*
X128117800Y-210743600D01*
X128117800Y-212623600D01*
X128117800Y-212623600D01*
G37*
G36*
X189077800Y-212623600D02*
G01*
X187985200Y-212623600D01*
X187985200Y-210743600D01*
X189077800Y-210743600D01*
X189077800Y-212623600D01*
X189077800Y-212623600D01*
G37*
G36*
X176377800Y-212623600D02*
G01*
X175285200Y-212623600D01*
X175285200Y-210743600D01*
X176377800Y-210743600D01*
X176377800Y-212623600D01*
X176377800Y-212623600D01*
G37*
G36*
X133197800Y-212623600D02*
G01*
X132105200Y-212623600D01*
X132105200Y-210743600D01*
X133197800Y-210743600D01*
X133197800Y-212623600D01*
X133197800Y-212623600D01*
G37*
G36*
X130657800Y-212623600D02*
G01*
X129565200Y-212623600D01*
X129565200Y-210743600D01*
X130657800Y-210743600D01*
X130657800Y-212623600D01*
X130657800Y-212623600D01*
G37*
G36*
X195886564Y-206514273D02*
G01*
X196077833Y-206593499D01*
X196077835Y-206593500D01*
X196249973Y-206708519D01*
X196396365Y-206854911D01*
X196511385Y-207027051D01*
X196590611Y-207218320D01*
X196631000Y-207421368D01*
X196631000Y-207628400D01*
X196590611Y-207831448D01*
X196511385Y-208022717D01*
X196511384Y-208022719D01*
X196396365Y-208194857D01*
X196249973Y-208341249D01*
X196077835Y-208456268D01*
X196077834Y-208456269D01*
X196077833Y-208456269D01*
X195886564Y-208535495D01*
X195683516Y-208575884D01*
X195476484Y-208575884D01*
X195273436Y-208535495D01*
X195082167Y-208456269D01*
X195082166Y-208456269D01*
X195082165Y-208456268D01*
X194910027Y-208341249D01*
X194763635Y-208194857D01*
X194648616Y-208022719D01*
X194648615Y-208022717D01*
X194569389Y-207831448D01*
X194529000Y-207628400D01*
X194529000Y-207421368D01*
X194569389Y-207218320D01*
X194648615Y-207027051D01*
X194763635Y-206854911D01*
X194910027Y-206708519D01*
X195082165Y-206593500D01*
X195082167Y-206593499D01*
X195273436Y-206514273D01*
X195476484Y-206473884D01*
X195683516Y-206473884D01*
X195886564Y-206514273D01*
X195886564Y-206514273D01*
G37*
G36*
X180646564Y-206514273D02*
G01*
X180837833Y-206593499D01*
X180837835Y-206593500D01*
X181009973Y-206708519D01*
X181156365Y-206854911D01*
X181271385Y-207027051D01*
X181350611Y-207218320D01*
X181391000Y-207421368D01*
X181391000Y-207628400D01*
X181350611Y-207831448D01*
X181271385Y-208022717D01*
X181271384Y-208022719D01*
X181156365Y-208194857D01*
X181009973Y-208341249D01*
X180837835Y-208456268D01*
X180837834Y-208456269D01*
X180837833Y-208456269D01*
X180646564Y-208535495D01*
X180443516Y-208575884D01*
X180236484Y-208575884D01*
X180033436Y-208535495D01*
X179842167Y-208456269D01*
X179842166Y-208456269D01*
X179842165Y-208456268D01*
X179670027Y-208341249D01*
X179523635Y-208194857D01*
X179408616Y-208022719D01*
X179408615Y-208022717D01*
X179329389Y-207831448D01*
X179289000Y-207628400D01*
X179289000Y-207421368D01*
X179329389Y-207218320D01*
X179408615Y-207027051D01*
X179523635Y-206854911D01*
X179670027Y-206708519D01*
X179842165Y-206593500D01*
X179842167Y-206593499D01*
X180033436Y-206514273D01*
X180236484Y-206473884D01*
X180443516Y-206473884D01*
X180646564Y-206514273D01*
X180646564Y-206514273D01*
G37*
G36*
X207852908Y-202326380D02*
G01*
X208019767Y-202359570D01*
X208491299Y-202554885D01*
X208734029Y-202717073D01*
X208915666Y-202838438D01*
X209276562Y-203199334D01*
X209397927Y-203380971D01*
X209560115Y-203623701D01*
X209755430Y-204095233D01*
X209755430Y-204095234D01*
X209855000Y-204595807D01*
X209855000Y-205106193D01*
X209818150Y-205291449D01*
X209755430Y-205606767D01*
X209560115Y-206078299D01*
X209397927Y-206321029D01*
X209276562Y-206502666D01*
X208915666Y-206863562D01*
X208734029Y-206984927D01*
X208491299Y-207147115D01*
X208019767Y-207342430D01*
X207852908Y-207375620D01*
X207519193Y-207442000D01*
X207008807Y-207442000D01*
X206675092Y-207375620D01*
X206508233Y-207342430D01*
X206036701Y-207147115D01*
X205793971Y-206984927D01*
X205612334Y-206863562D01*
X205251438Y-206502666D01*
X205130073Y-206321029D01*
X204967885Y-206078299D01*
X204772570Y-205606767D01*
X204709850Y-205291449D01*
X204673000Y-205106193D01*
X204673000Y-204595807D01*
X204772570Y-204095234D01*
X204772570Y-204095233D01*
X204967885Y-203623701D01*
X205130073Y-203380971D01*
X205251438Y-203199334D01*
X205612334Y-202838438D01*
X205793971Y-202717073D01*
X206036701Y-202554885D01*
X206508233Y-202359570D01*
X206675092Y-202326380D01*
X207008807Y-202260000D01*
X207519193Y-202260000D01*
X207852908Y-202326380D01*
X207852908Y-202326380D01*
G37*
G36*
X180646564Y-203974273D02*
G01*
X180837833Y-204053499D01*
X180837835Y-204053500D01*
X180900294Y-204095234D01*
X181009973Y-204168519D01*
X181156365Y-204314911D01*
X181271385Y-204487051D01*
X181350611Y-204678320D01*
X181391000Y-204881368D01*
X181391000Y-205088400D01*
X181350611Y-205291448D01*
X181271385Y-205482717D01*
X181271384Y-205482719D01*
X181156365Y-205654857D01*
X181009973Y-205801249D01*
X180837835Y-205916268D01*
X180837834Y-205916269D01*
X180837833Y-205916269D01*
X180646564Y-205995495D01*
X180443516Y-206035884D01*
X180236484Y-206035884D01*
X180033436Y-205995495D01*
X179842167Y-205916269D01*
X179842166Y-205916269D01*
X179842165Y-205916268D01*
X179670027Y-205801249D01*
X179523635Y-205654857D01*
X179408616Y-205482719D01*
X179408615Y-205482717D01*
X179329389Y-205291448D01*
X179289000Y-205088400D01*
X179289000Y-204881368D01*
X179329389Y-204678320D01*
X179408615Y-204487051D01*
X179523635Y-204314911D01*
X179670027Y-204168519D01*
X179779706Y-204095234D01*
X179842165Y-204053500D01*
X179842167Y-204053499D01*
X180033436Y-203974273D01*
X180236484Y-203933884D01*
X180443516Y-203933884D01*
X180646564Y-203974273D01*
X180646564Y-203974273D01*
G37*
G36*
X195886564Y-203974273D02*
G01*
X196077833Y-204053499D01*
X196077835Y-204053500D01*
X196140294Y-204095234D01*
X196249973Y-204168519D01*
X196396365Y-204314911D01*
X196511385Y-204487051D01*
X196590611Y-204678320D01*
X196631000Y-204881368D01*
X196631000Y-205088400D01*
X196590611Y-205291448D01*
X196511385Y-205482717D01*
X196511384Y-205482719D01*
X196396365Y-205654857D01*
X196249973Y-205801249D01*
X196077835Y-205916268D01*
X196077834Y-205916269D01*
X196077833Y-205916269D01*
X195886564Y-205995495D01*
X195683516Y-206035884D01*
X195476484Y-206035884D01*
X195273436Y-205995495D01*
X195082167Y-205916269D01*
X195082166Y-205916269D01*
X195082165Y-205916268D01*
X194910027Y-205801249D01*
X194763635Y-205654857D01*
X194648616Y-205482719D01*
X194648615Y-205482717D01*
X194569389Y-205291448D01*
X194529000Y-205088400D01*
X194529000Y-204881368D01*
X194569389Y-204678320D01*
X194648615Y-204487051D01*
X194763635Y-204314911D01*
X194910027Y-204168519D01*
X195019706Y-204095234D01*
X195082165Y-204053500D01*
X195082167Y-204053499D01*
X195273436Y-203974273D01*
X195476484Y-203933884D01*
X195683516Y-203933884D01*
X195886564Y-203974273D01*
X195886564Y-203974273D01*
G37*
G36*
X207852908Y-194452380D02*
G01*
X208019767Y-194485570D01*
X208491299Y-194680885D01*
X208734029Y-194843073D01*
X208915666Y-194964438D01*
X209276562Y-195325334D01*
X209397927Y-195506971D01*
X209560115Y-195749701D01*
X209755430Y-196221233D01*
X209855000Y-196721809D01*
X209855000Y-197232191D01*
X209755430Y-197732767D01*
X209560115Y-198204299D01*
X209397927Y-198447029D01*
X209276562Y-198628666D01*
X208915666Y-198989562D01*
X208734029Y-199110927D01*
X208491299Y-199273115D01*
X208019767Y-199468430D01*
X207852908Y-199501620D01*
X207519193Y-199568000D01*
X207008807Y-199568000D01*
X206675092Y-199501620D01*
X206508233Y-199468430D01*
X206036701Y-199273115D01*
X205793971Y-199110927D01*
X205612334Y-198989562D01*
X205251438Y-198628666D01*
X205130073Y-198447029D01*
X204967885Y-198204299D01*
X204772570Y-197732767D01*
X204673000Y-197232191D01*
X204673000Y-196721809D01*
X204772570Y-196221233D01*
X204967885Y-195749701D01*
X205130073Y-195506971D01*
X205251438Y-195325334D01*
X205612334Y-194964438D01*
X205793971Y-194843073D01*
X206036701Y-194680885D01*
X206508233Y-194485570D01*
X206675092Y-194452380D01*
X207008807Y-194386000D01*
X207519193Y-194386000D01*
X207852908Y-194452380D01*
X207852908Y-194452380D01*
G37*
G36*
X118329059Y-193507860D02*
G01*
X118465732Y-193564472D01*
X118588735Y-193646660D01*
X118693340Y-193751265D01*
X118775528Y-193874268D01*
X118832140Y-194010941D01*
X118861000Y-194156033D01*
X118861000Y-194303967D01*
X118832140Y-194449059D01*
X118775528Y-194585732D01*
X118693340Y-194708735D01*
X118588735Y-194813340D01*
X118465732Y-194895528D01*
X118465731Y-194895529D01*
X118465730Y-194895529D01*
X118329059Y-194952140D01*
X118183968Y-194981000D01*
X118036032Y-194981000D01*
X117890941Y-194952140D01*
X117754270Y-194895529D01*
X117754269Y-194895529D01*
X117754268Y-194895528D01*
X117631265Y-194813340D01*
X117526660Y-194708735D01*
X117444472Y-194585732D01*
X117387860Y-194449059D01*
X117359000Y-194303967D01*
X117359000Y-194156033D01*
X117387860Y-194010941D01*
X117444472Y-193874268D01*
X117526660Y-193751265D01*
X117631265Y-193646660D01*
X117754268Y-193564472D01*
X117890941Y-193507860D01*
X118036032Y-193479000D01*
X118183968Y-193479000D01*
X118329059Y-193507860D01*
X118329059Y-193507860D01*
G37*
G36*
X115029059Y-193507860D02*
G01*
X115165732Y-193564472D01*
X115288735Y-193646660D01*
X115393340Y-193751265D01*
X115475528Y-193874268D01*
X115532140Y-194010941D01*
X115561000Y-194156033D01*
X115561000Y-194303967D01*
X115532140Y-194449059D01*
X115475528Y-194585732D01*
X115393340Y-194708735D01*
X115288735Y-194813340D01*
X115165732Y-194895528D01*
X115165731Y-194895529D01*
X115165730Y-194895529D01*
X115029059Y-194952140D01*
X114883968Y-194981000D01*
X114736032Y-194981000D01*
X114590941Y-194952140D01*
X114454270Y-194895529D01*
X114454269Y-194895529D01*
X114454268Y-194895528D01*
X114331265Y-194813340D01*
X114226660Y-194708735D01*
X114144472Y-194585732D01*
X114087860Y-194449059D01*
X114059000Y-194303967D01*
X114059000Y-194156033D01*
X114087860Y-194010941D01*
X114144472Y-193874268D01*
X114226660Y-193751265D01*
X114331265Y-193646660D01*
X114454268Y-193564472D01*
X114590941Y-193507860D01*
X114736032Y-193479000D01*
X114883968Y-193479000D01*
X115029059Y-193507860D01*
X115029059Y-193507860D01*
G37*
G36*
X118329059Y-191007860D02*
G01*
X118465732Y-191064472D01*
X118588735Y-191146660D01*
X118693340Y-191251265D01*
X118775528Y-191374268D01*
X118832140Y-191510941D01*
X118861000Y-191656033D01*
X118861000Y-191803967D01*
X118832140Y-191949059D01*
X118775528Y-192085732D01*
X118693340Y-192208735D01*
X118588735Y-192313340D01*
X118465732Y-192395528D01*
X118465731Y-192395529D01*
X118465730Y-192395529D01*
X118329059Y-192452140D01*
X118183968Y-192481000D01*
X118036032Y-192481000D01*
X117890941Y-192452140D01*
X117754270Y-192395529D01*
X117754269Y-192395529D01*
X117754268Y-192395528D01*
X117631265Y-192313340D01*
X117526660Y-192208735D01*
X117444472Y-192085732D01*
X117387860Y-191949059D01*
X117359000Y-191803967D01*
X117359000Y-191656033D01*
X117387860Y-191510941D01*
X117444472Y-191374268D01*
X117526660Y-191251265D01*
X117631265Y-191146660D01*
X117754268Y-191064472D01*
X117890941Y-191007860D01*
X118036032Y-190979000D01*
X118183968Y-190979000D01*
X118329059Y-191007860D01*
X118329059Y-191007860D01*
G37*
G36*
X115029059Y-191007860D02*
G01*
X115165732Y-191064472D01*
X115288735Y-191146660D01*
X115393340Y-191251265D01*
X115475528Y-191374268D01*
X115532140Y-191510941D01*
X115561000Y-191656033D01*
X115561000Y-191803967D01*
X115532140Y-191949059D01*
X115475528Y-192085732D01*
X115393340Y-192208735D01*
X115288735Y-192313340D01*
X115165732Y-192395528D01*
X115165731Y-192395529D01*
X115165730Y-192395529D01*
X115029059Y-192452140D01*
X114883968Y-192481000D01*
X114736032Y-192481000D01*
X114590941Y-192452140D01*
X114454270Y-192395529D01*
X114454269Y-192395529D01*
X114454268Y-192395528D01*
X114331265Y-192313340D01*
X114226660Y-192208735D01*
X114144472Y-192085732D01*
X114087860Y-191949059D01*
X114059000Y-191803967D01*
X114059000Y-191656033D01*
X114087860Y-191510941D01*
X114144472Y-191374268D01*
X114226660Y-191251265D01*
X114331265Y-191146660D01*
X114454268Y-191064472D01*
X114590941Y-191007860D01*
X114736032Y-190979000D01*
X114883968Y-190979000D01*
X115029059Y-191007860D01*
X115029059Y-191007860D01*
G37*
G36*
X118861000Y-189981000D02*
G01*
X117359000Y-189981000D01*
X117359000Y-188479000D01*
X118861000Y-188479000D01*
X118861000Y-189981000D01*
X118861000Y-189981000D01*
G37*
G36*
X115029059Y-188507860D02*
G01*
X115165732Y-188564472D01*
X115288735Y-188646660D01*
X115393340Y-188751265D01*
X115475528Y-188874268D01*
X115532140Y-189010941D01*
X115561000Y-189156033D01*
X115561000Y-189303967D01*
X115532140Y-189449059D01*
X115475528Y-189585732D01*
X115393340Y-189708735D01*
X115288735Y-189813340D01*
X115165732Y-189895528D01*
X115165731Y-189895529D01*
X115165730Y-189895529D01*
X115029059Y-189952140D01*
X114883968Y-189981000D01*
X114736032Y-189981000D01*
X114590941Y-189952140D01*
X114454270Y-189895529D01*
X114454269Y-189895529D01*
X114454268Y-189895528D01*
X114331265Y-189813340D01*
X114226660Y-189708735D01*
X114144472Y-189585732D01*
X114087860Y-189449059D01*
X114059000Y-189303967D01*
X114059000Y-189156033D01*
X114087860Y-189010941D01*
X114144472Y-188874268D01*
X114226660Y-188751265D01*
X114331265Y-188646660D01*
X114454268Y-188564472D01*
X114590941Y-188507860D01*
X114736032Y-188479000D01*
X114883968Y-188479000D01*
X115029059Y-188507860D01*
X115029059Y-188507860D01*
G37*
G36*
X195886564Y-186448273D02*
G01*
X196077833Y-186527499D01*
X196077835Y-186527500D01*
X196249973Y-186642519D01*
X196396365Y-186788911D01*
X196511385Y-186961051D01*
X196590611Y-187152320D01*
X196631000Y-187355368D01*
X196631000Y-187562400D01*
X196590611Y-187765448D01*
X196511385Y-187956717D01*
X196511384Y-187956719D01*
X196396365Y-188128857D01*
X196249973Y-188275249D01*
X196077835Y-188390268D01*
X196077834Y-188390269D01*
X196077833Y-188390269D01*
X195886564Y-188469495D01*
X195683516Y-188509884D01*
X195476484Y-188509884D01*
X195273436Y-188469495D01*
X195082167Y-188390269D01*
X195082166Y-188390269D01*
X195082165Y-188390268D01*
X194910027Y-188275249D01*
X194763635Y-188128857D01*
X194648616Y-187956719D01*
X194648615Y-187956717D01*
X194569389Y-187765448D01*
X194529000Y-187562400D01*
X194529000Y-187355368D01*
X194569389Y-187152320D01*
X194648615Y-186961051D01*
X194763635Y-186788911D01*
X194910027Y-186642519D01*
X195082165Y-186527500D01*
X195082167Y-186527499D01*
X195273436Y-186448273D01*
X195476484Y-186407884D01*
X195683516Y-186407884D01*
X195886564Y-186448273D01*
X195886564Y-186448273D01*
G37*
G36*
X217788142Y-183368242D02*
G01*
X217936101Y-183429529D01*
X218069255Y-183518499D01*
X218182501Y-183631745D01*
X218271471Y-183764899D01*
X218332758Y-183912858D01*
X218364000Y-184069925D01*
X218364000Y-184230075D01*
X218332758Y-184387142D01*
X218271471Y-184535101D01*
X218182501Y-184668255D01*
X218069255Y-184781501D01*
X217936101Y-184870471D01*
X217788142Y-184931758D01*
X217631075Y-184963000D01*
X217470925Y-184963000D01*
X217313858Y-184931758D01*
X217165899Y-184870471D01*
X217032745Y-184781501D01*
X216919499Y-184668255D01*
X216830529Y-184535101D01*
X216769242Y-184387142D01*
X216738000Y-184230075D01*
X216738000Y-184069925D01*
X216769242Y-183912858D01*
X216830529Y-183764899D01*
X216919499Y-183631745D01*
X217032745Y-183518499D01*
X217165899Y-183429529D01*
X217313858Y-183368242D01*
X217470925Y-183337000D01*
X217631075Y-183337000D01*
X217788142Y-183368242D01*
X217788142Y-183368242D01*
G37*
G36*
X212708142Y-183368242D02*
G01*
X212856101Y-183429529D01*
X212989255Y-183518499D01*
X213102501Y-183631745D01*
X213191471Y-183764899D01*
X213252758Y-183912858D01*
X213284000Y-184069925D01*
X213284000Y-184230075D01*
X213252758Y-184387142D01*
X213191471Y-184535101D01*
X213102501Y-184668255D01*
X212989255Y-184781501D01*
X212856101Y-184870471D01*
X212708142Y-184931758D01*
X212551075Y-184963000D01*
X212390925Y-184963000D01*
X212233858Y-184931758D01*
X212085899Y-184870471D01*
X211952745Y-184781501D01*
X211839499Y-184668255D01*
X211750529Y-184535101D01*
X211689242Y-184387142D01*
X211658000Y-184230075D01*
X211658000Y-184069925D01*
X211689242Y-183912858D01*
X211750529Y-183764899D01*
X211839499Y-183631745D01*
X211952745Y-183518499D01*
X212085899Y-183429529D01*
X212233858Y-183368242D01*
X212390925Y-183337000D01*
X212551075Y-183337000D01*
X212708142Y-183368242D01*
X212708142Y-183368242D01*
G37*
G36*
X215248142Y-183368242D02*
G01*
X215396101Y-183429529D01*
X215529255Y-183518499D01*
X215642501Y-183631745D01*
X215731471Y-183764899D01*
X215792758Y-183912858D01*
X215824000Y-184069925D01*
X215824000Y-184230075D01*
X215792758Y-184387142D01*
X215731471Y-184535101D01*
X215642501Y-184668255D01*
X215529255Y-184781501D01*
X215396101Y-184870471D01*
X215248142Y-184931758D01*
X215091075Y-184963000D01*
X214930925Y-184963000D01*
X214773858Y-184931758D01*
X214625899Y-184870471D01*
X214492745Y-184781501D01*
X214379499Y-184668255D01*
X214290529Y-184535101D01*
X214229242Y-184387142D01*
X214198000Y-184230075D01*
X214198000Y-184069925D01*
X214229242Y-183912858D01*
X214290529Y-183764899D01*
X214379499Y-183631745D01*
X214492745Y-183518499D01*
X214625899Y-183429529D01*
X214773858Y-183368242D01*
X214930925Y-183337000D01*
X215091075Y-183337000D01*
X215248142Y-183368242D01*
X215248142Y-183368242D01*
G37*
G36*
X226932142Y-183368242D02*
G01*
X227080101Y-183429529D01*
X227213255Y-183518499D01*
X227326501Y-183631745D01*
X227415471Y-183764899D01*
X227476758Y-183912858D01*
X227508000Y-184069925D01*
X227508000Y-184230075D01*
X227476758Y-184387142D01*
X227415471Y-184535101D01*
X227326501Y-184668255D01*
X227213255Y-184781501D01*
X227080101Y-184870471D01*
X226932142Y-184931758D01*
X226775075Y-184963000D01*
X226614925Y-184963000D01*
X226457858Y-184931758D01*
X226309899Y-184870471D01*
X226176745Y-184781501D01*
X226063499Y-184668255D01*
X225974529Y-184535101D01*
X225913242Y-184387142D01*
X225882000Y-184230075D01*
X225882000Y-184069925D01*
X225913242Y-183912858D01*
X225974529Y-183764899D01*
X226063499Y-183631745D01*
X226176745Y-183518499D01*
X226309899Y-183429529D01*
X226457858Y-183368242D01*
X226614925Y-183337000D01*
X226775075Y-183337000D01*
X226932142Y-183368242D01*
X226932142Y-183368242D01*
G37*
G36*
X229472142Y-183368242D02*
G01*
X229620101Y-183429529D01*
X229753255Y-183518499D01*
X229866501Y-183631745D01*
X229955471Y-183764899D01*
X230016758Y-183912858D01*
X230048000Y-184069925D01*
X230048000Y-184230075D01*
X230016758Y-184387142D01*
X229955471Y-184535101D01*
X229866501Y-184668255D01*
X229753255Y-184781501D01*
X229620101Y-184870471D01*
X229472142Y-184931758D01*
X229315075Y-184963000D01*
X229154925Y-184963000D01*
X228997858Y-184931758D01*
X228849899Y-184870471D01*
X228716745Y-184781501D01*
X228603499Y-184668255D01*
X228514529Y-184535101D01*
X228453242Y-184387142D01*
X228422000Y-184230075D01*
X228422000Y-184069925D01*
X228453242Y-183912858D01*
X228514529Y-183764899D01*
X228603499Y-183631745D01*
X228716745Y-183518499D01*
X228849899Y-183429529D01*
X228997858Y-183368242D01*
X229154925Y-183337000D01*
X229315075Y-183337000D01*
X229472142Y-183368242D01*
X229472142Y-183368242D01*
G37*
G36*
X232012142Y-183368242D02*
G01*
X232160101Y-183429529D01*
X232293255Y-183518499D01*
X232406501Y-183631745D01*
X232495471Y-183764899D01*
X232556758Y-183912858D01*
X232588000Y-184069925D01*
X232588000Y-184230075D01*
X232556758Y-184387142D01*
X232495471Y-184535101D01*
X232406501Y-184668255D01*
X232293255Y-184781501D01*
X232160101Y-184870471D01*
X232012142Y-184931758D01*
X231855075Y-184963000D01*
X231694925Y-184963000D01*
X231537858Y-184931758D01*
X231389899Y-184870471D01*
X231256745Y-184781501D01*
X231143499Y-184668255D01*
X231054529Y-184535101D01*
X230993242Y-184387142D01*
X230962000Y-184230075D01*
X230962000Y-184069925D01*
X230993242Y-183912858D01*
X231054529Y-183764899D01*
X231143499Y-183631745D01*
X231256745Y-183518499D01*
X231389899Y-183429529D01*
X231537858Y-183368242D01*
X231694925Y-183337000D01*
X231855075Y-183337000D01*
X232012142Y-183368242D01*
X232012142Y-183368242D01*
G37*
G36*
X180646564Y-181368273D02*
G01*
X180837833Y-181447499D01*
X180837835Y-181447500D01*
X181009973Y-181562519D01*
X181156365Y-181708911D01*
X181271385Y-181881051D01*
X181350611Y-182072320D01*
X181391000Y-182275368D01*
X181391000Y-182482400D01*
X181350611Y-182685448D01*
X181271385Y-182876717D01*
X181271384Y-182876719D01*
X181156365Y-183048857D01*
X181009973Y-183195249D01*
X180837835Y-183310268D01*
X180837834Y-183310269D01*
X180837833Y-183310269D01*
X180646564Y-183389495D01*
X180443516Y-183429884D01*
X180236484Y-183429884D01*
X180033436Y-183389495D01*
X179842167Y-183310269D01*
X179842166Y-183310269D01*
X179842165Y-183310268D01*
X179670027Y-183195249D01*
X179523635Y-183048857D01*
X179408616Y-182876719D01*
X179408615Y-182876717D01*
X179329389Y-182685448D01*
X179289000Y-182482400D01*
X179289000Y-182275368D01*
X179329389Y-182072320D01*
X179408615Y-181881051D01*
X179523635Y-181708911D01*
X179670027Y-181562519D01*
X179842165Y-181447500D01*
X179842167Y-181447499D01*
X180033436Y-181368273D01*
X180236484Y-181327884D01*
X180443516Y-181327884D01*
X180646564Y-181368273D01*
X180646564Y-181368273D01*
G37*
G36*
X195886564Y-181368273D02*
G01*
X196077833Y-181447499D01*
X196077835Y-181447500D01*
X196249973Y-181562519D01*
X196396365Y-181708911D01*
X196511385Y-181881051D01*
X196590611Y-182072320D01*
X196631000Y-182275368D01*
X196631000Y-182482400D01*
X196590611Y-182685448D01*
X196511385Y-182876717D01*
X196511384Y-182876719D01*
X196396365Y-183048857D01*
X196249973Y-183195249D01*
X196077835Y-183310268D01*
X196077834Y-183310269D01*
X196077833Y-183310269D01*
X195886564Y-183389495D01*
X195683516Y-183429884D01*
X195476484Y-183429884D01*
X195273436Y-183389495D01*
X195082167Y-183310269D01*
X195082166Y-183310269D01*
X195082165Y-183310268D01*
X194910027Y-183195249D01*
X194763635Y-183048857D01*
X194648616Y-182876719D01*
X194648615Y-182876717D01*
X194569389Y-182685448D01*
X194529000Y-182482400D01*
X194529000Y-182275368D01*
X194569389Y-182072320D01*
X194648615Y-181881051D01*
X194763635Y-181708911D01*
X194910027Y-181562519D01*
X195082165Y-181447500D01*
X195082167Y-181447499D01*
X195273436Y-181368273D01*
X195476484Y-181327884D01*
X195683516Y-181327884D01*
X195886564Y-181368273D01*
X195886564Y-181368273D01*
G37*
G36*
X180646564Y-178828273D02*
G01*
X180837833Y-178907499D01*
X180837835Y-178907500D01*
X181009973Y-179022519D01*
X181156365Y-179168911D01*
X181271385Y-179341051D01*
X181350611Y-179532320D01*
X181391000Y-179735368D01*
X181391000Y-179942400D01*
X181350611Y-180145448D01*
X181271385Y-180336717D01*
X181271384Y-180336719D01*
X181156365Y-180508857D01*
X181009973Y-180655249D01*
X180837835Y-180770268D01*
X180837834Y-180770269D01*
X180837833Y-180770269D01*
X180646564Y-180849495D01*
X180443516Y-180889884D01*
X180236484Y-180889884D01*
X180033436Y-180849495D01*
X179842167Y-180770269D01*
X179842166Y-180770269D01*
X179842165Y-180770268D01*
X179670027Y-180655249D01*
X179523635Y-180508857D01*
X179408616Y-180336719D01*
X179408615Y-180336717D01*
X179329389Y-180145448D01*
X179289000Y-179942400D01*
X179289000Y-179735368D01*
X179329389Y-179532320D01*
X179408615Y-179341051D01*
X179523635Y-179168911D01*
X179670027Y-179022519D01*
X179842165Y-178907500D01*
X179842167Y-178907499D01*
X180033436Y-178828273D01*
X180236484Y-178787884D01*
X180443516Y-178787884D01*
X180646564Y-178828273D01*
X180646564Y-178828273D01*
G37*
G36*
X195886564Y-178828273D02*
G01*
X196077833Y-178907499D01*
X196077835Y-178907500D01*
X196249973Y-179022519D01*
X196396365Y-179168911D01*
X196511385Y-179341051D01*
X196590611Y-179532320D01*
X196631000Y-179735368D01*
X196631000Y-179942400D01*
X196590611Y-180145448D01*
X196511385Y-180336717D01*
X196511384Y-180336719D01*
X196396365Y-180508857D01*
X196249973Y-180655249D01*
X196077835Y-180770268D01*
X196077834Y-180770269D01*
X196077833Y-180770269D01*
X195886564Y-180849495D01*
X195683516Y-180889884D01*
X195476484Y-180889884D01*
X195273436Y-180849495D01*
X195082167Y-180770269D01*
X195082166Y-180770269D01*
X195082165Y-180770268D01*
X194910027Y-180655249D01*
X194763635Y-180508857D01*
X194648616Y-180336719D01*
X194648615Y-180336717D01*
X194569389Y-180145448D01*
X194529000Y-179942400D01*
X194529000Y-179735368D01*
X194569389Y-179532320D01*
X194648615Y-179341051D01*
X194763635Y-179168911D01*
X194910027Y-179022519D01*
X195082165Y-178907500D01*
X195082167Y-178907499D01*
X195273436Y-178828273D01*
X195476484Y-178787884D01*
X195683516Y-178787884D01*
X195886564Y-178828273D01*
X195886564Y-178828273D01*
G37*
G36*
X178917800Y-175336400D02*
G01*
X177825200Y-175336400D01*
X177825200Y-173456400D01*
X178917800Y-173456400D01*
X178917800Y-175336400D01*
X178917800Y-175336400D01*
G37*
G36*
X176377800Y-175336400D02*
G01*
X175285200Y-175336400D01*
X175285200Y-173456400D01*
X176377800Y-173456400D01*
X176377800Y-175336400D01*
X176377800Y-175336400D01*
G37*
G36*
X128117800Y-175336400D02*
G01*
X127025200Y-175336400D01*
X127025200Y-173456400D01*
X128117800Y-173456400D01*
X128117800Y-175336400D01*
X128117800Y-175336400D01*
G37*
G36*
X130657800Y-175336400D02*
G01*
X129565200Y-175336400D01*
X129565200Y-173456400D01*
X130657800Y-173456400D01*
X130657800Y-175336400D01*
X130657800Y-175336400D01*
G37*
G36*
X133197800Y-175336400D02*
G01*
X132105200Y-175336400D01*
X132105200Y-173456400D01*
X133197800Y-173456400D01*
X133197800Y-175336400D01*
X133197800Y-175336400D01*
G37*
G36*
X135737800Y-175336400D02*
G01*
X134645200Y-175336400D01*
X134645200Y-173456400D01*
X135737800Y-173456400D01*
X135737800Y-175336400D01*
X135737800Y-175336400D01*
G37*
G36*
X123037800Y-175336400D02*
G01*
X121945200Y-175336400D01*
X121945200Y-173456400D01*
X123037800Y-173456400D01*
X123037800Y-175336400D01*
X123037800Y-175336400D01*
G37*
G36*
X120497800Y-175336400D02*
G01*
X119405200Y-175336400D01*
X119405200Y-173456400D01*
X120497800Y-173456400D01*
X120497800Y-175336400D01*
X120497800Y-175336400D01*
G37*
G36*
X117957800Y-175336400D02*
G01*
X116865200Y-175336400D01*
X116865200Y-173456400D01*
X117957800Y-173456400D01*
X117957800Y-175336400D01*
X117957800Y-175336400D01*
G37*
G36*
X115417800Y-175336400D02*
G01*
X114325200Y-175336400D01*
X114325200Y-173456400D01*
X115417800Y-173456400D01*
X115417800Y-175336400D01*
X115417800Y-175336400D01*
G37*
G36*
X191617800Y-175336400D02*
G01*
X190525200Y-175336400D01*
X190525200Y-173456400D01*
X191617800Y-173456400D01*
X191617800Y-175336400D01*
X191617800Y-175336400D01*
G37*
G36*
X112877800Y-175336400D02*
G01*
X111785200Y-175336400D01*
X111785200Y-173456400D01*
X112877800Y-173456400D01*
X112877800Y-175336400D01*
X112877800Y-175336400D01*
G37*
G36*
X183997800Y-175336400D02*
G01*
X182905200Y-175336400D01*
X182905200Y-173456400D01*
X183997800Y-173456400D01*
X183997800Y-175336400D01*
X183997800Y-175336400D01*
G37*
G36*
X125577800Y-175336400D02*
G01*
X124485200Y-175336400D01*
X124485200Y-173456400D01*
X125577800Y-173456400D01*
X125577800Y-175336400D01*
X125577800Y-175336400D01*
G37*
G36*
X199237800Y-175336400D02*
G01*
X198145200Y-175336400D01*
X198145200Y-173456400D01*
X199237800Y-173456400D01*
X199237800Y-175336400D01*
X199237800Y-175336400D01*
G37*
G36*
X196697800Y-175336400D02*
G01*
X195605200Y-175336400D01*
X195605200Y-173456400D01*
X196697800Y-173456400D01*
X196697800Y-175336400D01*
X196697800Y-175336400D01*
G37*
G36*
X189077800Y-175336400D02*
G01*
X187985200Y-175336400D01*
X187985200Y-173456400D01*
X189077800Y-173456400D01*
X189077800Y-175336400D01*
X189077800Y-175336400D01*
G37*
G36*
X181457800Y-175336400D02*
G01*
X180365200Y-175336400D01*
X180365200Y-173456400D01*
X181457800Y-173456400D01*
X181457800Y-175336400D01*
X181457800Y-175336400D01*
G37*
G36*
X194157800Y-175336400D02*
G01*
X193065200Y-175336400D01*
X193065200Y-173456400D01*
X194157800Y-173456400D01*
X194157800Y-175336400D01*
X194157800Y-175336400D01*
G37*
G36*
X186537800Y-175336400D02*
G01*
X185445200Y-175336400D01*
X185445200Y-173456400D01*
X186537800Y-173456400D01*
X186537800Y-175336400D01*
X186537800Y-175336400D01*
G37*
G36*
X135737800Y-169443600D02*
G01*
X134645200Y-169443600D01*
X134645200Y-167563600D01*
X135737800Y-167563600D01*
X135737800Y-169443600D01*
X135737800Y-169443600D01*
G37*
G36*
X133197800Y-169443600D02*
G01*
X132105200Y-169443600D01*
X132105200Y-167563600D01*
X133197800Y-167563600D01*
X133197800Y-169443600D01*
X133197800Y-169443600D01*
G37*
G36*
X130657800Y-169443600D02*
G01*
X129565200Y-169443600D01*
X129565200Y-167563600D01*
X130657800Y-167563600D01*
X130657800Y-169443600D01*
X130657800Y-169443600D01*
G37*
G36*
X128117800Y-169443600D02*
G01*
X127025200Y-169443600D01*
X127025200Y-167563600D01*
X128117800Y-167563600D01*
X128117800Y-169443600D01*
X128117800Y-169443600D01*
G37*
G36*
X125577800Y-169443600D02*
G01*
X124485200Y-169443600D01*
X124485200Y-167563600D01*
X125577800Y-167563600D01*
X125577800Y-169443600D01*
X125577800Y-169443600D01*
G37*
G36*
X123037800Y-169443600D02*
G01*
X121945200Y-169443600D01*
X121945200Y-167563600D01*
X123037800Y-167563600D01*
X123037800Y-169443600D01*
X123037800Y-169443600D01*
G37*
G36*
X120497800Y-169443600D02*
G01*
X119405200Y-169443600D01*
X119405200Y-167563600D01*
X120497800Y-167563600D01*
X120497800Y-169443600D01*
X120497800Y-169443600D01*
G37*
G36*
X117957800Y-169443600D02*
G01*
X116865200Y-169443600D01*
X116865200Y-167563600D01*
X117957800Y-167563600D01*
X117957800Y-169443600D01*
X117957800Y-169443600D01*
G37*
G36*
X115417800Y-169443600D02*
G01*
X114325200Y-169443600D01*
X114325200Y-167563600D01*
X115417800Y-167563600D01*
X115417800Y-169443600D01*
X115417800Y-169443600D01*
G37*
G36*
X112877800Y-169443600D02*
G01*
X111785200Y-169443600D01*
X111785200Y-167563600D01*
X112877800Y-167563600D01*
X112877800Y-169443600D01*
X112877800Y-169443600D01*
G37*
G36*
X181457800Y-169443600D02*
G01*
X180365200Y-169443600D01*
X180365200Y-167563600D01*
X181457800Y-167563600D01*
X181457800Y-169443600D01*
X181457800Y-169443600D01*
G37*
G36*
X176377800Y-169443600D02*
G01*
X175285200Y-169443600D01*
X175285200Y-167563600D01*
X176377800Y-167563600D01*
X176377800Y-169443600D01*
X176377800Y-169443600D01*
G37*
G36*
X183997800Y-169443600D02*
G01*
X182905200Y-169443600D01*
X182905200Y-167563600D01*
X183997800Y-167563600D01*
X183997800Y-169443600D01*
X183997800Y-169443600D01*
G37*
G36*
X186537800Y-169443600D02*
G01*
X185445200Y-169443600D01*
X185445200Y-167563600D01*
X186537800Y-167563600D01*
X186537800Y-169443600D01*
X186537800Y-169443600D01*
G37*
G36*
X178917800Y-169443600D02*
G01*
X177825200Y-169443600D01*
X177825200Y-167563600D01*
X178917800Y-167563600D01*
X178917800Y-169443600D01*
X178917800Y-169443600D01*
G37*
G36*
X196697800Y-169443600D02*
G01*
X195605200Y-169443600D01*
X195605200Y-167563600D01*
X196697800Y-167563600D01*
X196697800Y-169443600D01*
X196697800Y-169443600D01*
G37*
G36*
X189077800Y-169443600D02*
G01*
X187985200Y-169443600D01*
X187985200Y-167563600D01*
X189077800Y-167563600D01*
X189077800Y-169443600D01*
X189077800Y-169443600D01*
G37*
G36*
X199237800Y-169443600D02*
G01*
X198145200Y-169443600D01*
X198145200Y-167563600D01*
X199237800Y-167563600D01*
X199237800Y-169443600D01*
X199237800Y-169443600D01*
G37*
G36*
X191617800Y-169443600D02*
G01*
X190525200Y-169443600D01*
X190525200Y-167563600D01*
X191617800Y-167563600D01*
X191617800Y-169443600D01*
X191617800Y-169443600D01*
G37*
G36*
X194157800Y-169443600D02*
G01*
X193065200Y-169443600D01*
X193065200Y-167563600D01*
X194157800Y-167563600D01*
X194157800Y-169443600D01*
X194157800Y-169443600D01*
G37*
G36*
X231150039Y-163392250D02*
G01*
X231339372Y-163470675D01*
X231473251Y-163526129D01*
X231764134Y-163720491D01*
X232011509Y-163967866D01*
X232205871Y-164258749D01*
X232205871Y-164258750D01*
X232339750Y-164581961D01*
X232408000Y-164925078D01*
X232408000Y-165274922D01*
X232339750Y-165618039D01*
X232261325Y-165807372D01*
X232205871Y-165941251D01*
X232011509Y-166232134D01*
X231764134Y-166479509D01*
X231473251Y-166673871D01*
X231339372Y-166729325D01*
X231150039Y-166807750D01*
X230806922Y-166876000D01*
X230457078Y-166876000D01*
X230113961Y-166807750D01*
X229924628Y-166729325D01*
X229790749Y-166673871D01*
X229499866Y-166479509D01*
X229252491Y-166232134D01*
X229058129Y-165941251D01*
X229002675Y-165807372D01*
X228924250Y-165618039D01*
X228856000Y-165274922D01*
X228856000Y-164925078D01*
X228924250Y-164581961D01*
X229058129Y-164258750D01*
X229058129Y-164258749D01*
X229252491Y-163967866D01*
X229499866Y-163720491D01*
X229790749Y-163526129D01*
X229924628Y-163470675D01*
X230113961Y-163392250D01*
X230457078Y-163324000D01*
X230806922Y-163324000D01*
X231150039Y-163392250D01*
X231150039Y-163392250D01*
G37*
G36*
X116342039Y-162122250D02*
G01*
X116531372Y-162200675D01*
X116665251Y-162256129D01*
X116956134Y-162450491D01*
X117203509Y-162697866D01*
X117397871Y-162988749D01*
X117397871Y-162988750D01*
X117531750Y-163311961D01*
X117600000Y-163655078D01*
X117600000Y-164004922D01*
X117531750Y-164348039D01*
X117484753Y-164461499D01*
X117397871Y-164671251D01*
X117203509Y-164962134D01*
X116956134Y-165209509D01*
X116665251Y-165403871D01*
X116531372Y-165459325D01*
X116342039Y-165537750D01*
X115998922Y-165606000D01*
X115649078Y-165606000D01*
X115305961Y-165537750D01*
X115116628Y-165459325D01*
X114982749Y-165403871D01*
X114691866Y-165209509D01*
X114444491Y-164962134D01*
X114250129Y-164671251D01*
X114163247Y-164461499D01*
X114116250Y-164348039D01*
X114048000Y-164004922D01*
X114048000Y-163655078D01*
X114116250Y-163311961D01*
X114250129Y-162988750D01*
X114250129Y-162988749D01*
X114444491Y-162697866D01*
X114691866Y-162450491D01*
X114982749Y-162256129D01*
X115116628Y-162200675D01*
X115305961Y-162122250D01*
X115649078Y-162054000D01*
X115998922Y-162054000D01*
X116342039Y-162122250D01*
X116342039Y-162122250D01*
G37*
G36*
X222233142Y-163048242D02*
G01*
X222381101Y-163109529D01*
X222514255Y-163198499D01*
X222627501Y-163311745D01*
X222716471Y-163444899D01*
X222777758Y-163592858D01*
X222809000Y-163749925D01*
X222809000Y-163910075D01*
X222777758Y-164067142D01*
X222716471Y-164215101D01*
X222627501Y-164348255D01*
X222514255Y-164461501D01*
X222381101Y-164550471D01*
X222233142Y-164611758D01*
X222076075Y-164643000D01*
X221915925Y-164643000D01*
X221758858Y-164611758D01*
X221610899Y-164550471D01*
X221477745Y-164461501D01*
X221364499Y-164348255D01*
X221275529Y-164215101D01*
X221214242Y-164067142D01*
X221183000Y-163910075D01*
X221183000Y-163749925D01*
X221214242Y-163592858D01*
X221275529Y-163444899D01*
X221364499Y-163311745D01*
X221477745Y-163198499D01*
X221610899Y-163109529D01*
X221758858Y-163048242D01*
X221915925Y-163017000D01*
X222076075Y-163017000D01*
X222233142Y-163048242D01*
X222233142Y-163048242D01*
G37*
G36*
X124697142Y-161778242D02*
G01*
X124845101Y-161839529D01*
X124978255Y-161928499D01*
X125091501Y-162041745D01*
X125180471Y-162174899D01*
X125241758Y-162322858D01*
X125273000Y-162479925D01*
X125273000Y-162640075D01*
X125241758Y-162797142D01*
X125180471Y-162945101D01*
X125091501Y-163078255D01*
X124978255Y-163191501D01*
X124845101Y-163280471D01*
X124697142Y-163341758D01*
X124540075Y-163373000D01*
X124379925Y-163373000D01*
X124222858Y-163341758D01*
X124074899Y-163280471D01*
X123941745Y-163191501D01*
X123828499Y-163078255D01*
X123739529Y-162945101D01*
X123678242Y-162797142D01*
X123647000Y-162640075D01*
X123647000Y-162479925D01*
X123678242Y-162322858D01*
X123739529Y-162174899D01*
X123828499Y-162041745D01*
X123941745Y-161928499D01*
X124074899Y-161839529D01*
X124222858Y-161778242D01*
X124379925Y-161747000D01*
X124540075Y-161747000D01*
X124697142Y-161778242D01*
X124697142Y-161778242D01*
G37*
G36*
X222233142Y-160508242D02*
G01*
X222381101Y-160569529D01*
X222514255Y-160658499D01*
X222627501Y-160771745D01*
X222716471Y-160904899D01*
X222777758Y-161052858D01*
X222809000Y-161209925D01*
X222809000Y-161370075D01*
X222777758Y-161527142D01*
X222716471Y-161675101D01*
X222627501Y-161808255D01*
X222514255Y-161921501D01*
X222381101Y-162010471D01*
X222233142Y-162071758D01*
X222076075Y-162103000D01*
X221915925Y-162103000D01*
X221758858Y-162071758D01*
X221610899Y-162010471D01*
X221477745Y-161921501D01*
X221364499Y-161808255D01*
X221275529Y-161675101D01*
X221214242Y-161527142D01*
X221183000Y-161370075D01*
X221183000Y-161209925D01*
X221214242Y-161052858D01*
X221275529Y-160904899D01*
X221364499Y-160771745D01*
X221477745Y-160658499D01*
X221610899Y-160569529D01*
X221758858Y-160508242D01*
X221915925Y-160477000D01*
X222076075Y-160477000D01*
X222233142Y-160508242D01*
X222233142Y-160508242D01*
G37*
G36*
X124697142Y-159238242D02*
G01*
X124845101Y-159299529D01*
X124978255Y-159388499D01*
X125091501Y-159501745D01*
X125180471Y-159634899D01*
X125241758Y-159782858D01*
X125273000Y-159939925D01*
X125273000Y-160100075D01*
X125241758Y-160257142D01*
X125180471Y-160405101D01*
X125091501Y-160538255D01*
X124978255Y-160651501D01*
X124845101Y-160740471D01*
X124697142Y-160801758D01*
X124540075Y-160833000D01*
X124379925Y-160833000D01*
X124222858Y-160801758D01*
X124074899Y-160740471D01*
X123941745Y-160651501D01*
X123828499Y-160538255D01*
X123739529Y-160405101D01*
X123678242Y-160257142D01*
X123647000Y-160100075D01*
X123647000Y-159939925D01*
X123678242Y-159782858D01*
X123739529Y-159634899D01*
X123828499Y-159501745D01*
X123941745Y-159388499D01*
X124074899Y-159299529D01*
X124222858Y-159238242D01*
X124379925Y-159207000D01*
X124540075Y-159207000D01*
X124697142Y-159238242D01*
X124697142Y-159238242D01*
G37*
G36*
X222233142Y-157968242D02*
G01*
X222381101Y-158029529D01*
X222514255Y-158118499D01*
X222627501Y-158231745D01*
X222716471Y-158364899D01*
X222777758Y-158512858D01*
X222809000Y-158669925D01*
X222809000Y-158830075D01*
X222777758Y-158987142D01*
X222716471Y-159135101D01*
X222627501Y-159268255D01*
X222514255Y-159381501D01*
X222381101Y-159470471D01*
X222233142Y-159531758D01*
X222076075Y-159563000D01*
X221915925Y-159563000D01*
X221758858Y-159531758D01*
X221610899Y-159470471D01*
X221477745Y-159381501D01*
X221364499Y-159268255D01*
X221275529Y-159135101D01*
X221214242Y-158987142D01*
X221183000Y-158830075D01*
X221183000Y-158669925D01*
X221214242Y-158512858D01*
X221275529Y-158364899D01*
X221364499Y-158231745D01*
X221477745Y-158118499D01*
X221610899Y-158029529D01*
X221758858Y-157968242D01*
X221915925Y-157937000D01*
X222076075Y-157937000D01*
X222233142Y-157968242D01*
X222233142Y-157968242D01*
G37*
G36*
X124697142Y-156698242D02*
G01*
X124845101Y-156759529D01*
X124978255Y-156848499D01*
X125091501Y-156961745D01*
X125180471Y-157094899D01*
X125241758Y-157242858D01*
X125273000Y-157399925D01*
X125273000Y-157560075D01*
X125241758Y-157717142D01*
X125180471Y-157865101D01*
X125091501Y-157998255D01*
X124978255Y-158111501D01*
X124845101Y-158200471D01*
X124697142Y-158261758D01*
X124540075Y-158293000D01*
X124379925Y-158293000D01*
X124222858Y-158261758D01*
X124074899Y-158200471D01*
X123941745Y-158111501D01*
X123828499Y-157998255D01*
X123739529Y-157865101D01*
X123678242Y-157717142D01*
X123647000Y-157560075D01*
X123647000Y-157399925D01*
X123678242Y-157242858D01*
X123739529Y-157094899D01*
X123828499Y-156961745D01*
X123941745Y-156848499D01*
X124074899Y-156759529D01*
X124222858Y-156698242D01*
X124379925Y-156667000D01*
X124540075Y-156667000D01*
X124697142Y-156698242D01*
X124697142Y-156698242D01*
G37*
G36*
X116342039Y-154502250D02*
G01*
X116531372Y-154580675D01*
X116665251Y-154636129D01*
X116956134Y-154830491D01*
X117203509Y-155077866D01*
X117397871Y-155368749D01*
X117397871Y-155368750D01*
X117531750Y-155691961D01*
X117600000Y-156035078D01*
X117600000Y-156384922D01*
X117531750Y-156728039D01*
X117481853Y-156848501D01*
X117397871Y-157051251D01*
X117203509Y-157342134D01*
X116956134Y-157589509D01*
X116665251Y-157783871D01*
X116531372Y-157839325D01*
X116342039Y-157917750D01*
X115998922Y-157986000D01*
X115649078Y-157986000D01*
X115305961Y-157917750D01*
X115116628Y-157839325D01*
X114982749Y-157783871D01*
X114691866Y-157589509D01*
X114444491Y-157342134D01*
X114250129Y-157051251D01*
X114166147Y-156848501D01*
X114116250Y-156728039D01*
X114048000Y-156384922D01*
X114048000Y-156035078D01*
X114116250Y-155691961D01*
X114250129Y-155368750D01*
X114250129Y-155368749D01*
X114444491Y-155077866D01*
X114691866Y-154830491D01*
X114982749Y-154636129D01*
X115116628Y-154580675D01*
X115305961Y-154502250D01*
X115649078Y-154434000D01*
X115998922Y-154434000D01*
X116342039Y-154502250D01*
X116342039Y-154502250D01*
G37*
G36*
X222233142Y-155428242D02*
G01*
X222381101Y-155489529D01*
X222514255Y-155578499D01*
X222627501Y-155691745D01*
X222716471Y-155824899D01*
X222777758Y-155972858D01*
X222809000Y-156129925D01*
X222809000Y-156290075D01*
X222777758Y-156447142D01*
X222716471Y-156595101D01*
X222627501Y-156728255D01*
X222514255Y-156841501D01*
X222381101Y-156930471D01*
X222233142Y-156991758D01*
X222076075Y-157023000D01*
X221915925Y-157023000D01*
X221758858Y-156991758D01*
X221610899Y-156930471D01*
X221477745Y-156841501D01*
X221364499Y-156728255D01*
X221275529Y-156595101D01*
X221214242Y-156447142D01*
X221183000Y-156290075D01*
X221183000Y-156129925D01*
X221214242Y-155972858D01*
X221275529Y-155824899D01*
X221364499Y-155691745D01*
X221477745Y-155578499D01*
X221610899Y-155489529D01*
X221758858Y-155428242D01*
X221915925Y-155397000D01*
X222076075Y-155397000D01*
X222233142Y-155428242D01*
X222233142Y-155428242D01*
G37*
G36*
X231150039Y-153232250D02*
G01*
X231339372Y-153310675D01*
X231473251Y-153366129D01*
X231764134Y-153560491D01*
X232011509Y-153807866D01*
X232205871Y-154098749D01*
X232205871Y-154098750D01*
X232339750Y-154421961D01*
X232408000Y-154765078D01*
X232408000Y-155114922D01*
X232339750Y-155458039D01*
X232289853Y-155578501D01*
X232205871Y-155781251D01*
X232011509Y-156072134D01*
X231764134Y-156319509D01*
X231473251Y-156513871D01*
X231339372Y-156569325D01*
X231150039Y-156647750D01*
X230806922Y-156716000D01*
X230457078Y-156716000D01*
X230113961Y-156647750D01*
X229924628Y-156569325D01*
X229790749Y-156513871D01*
X229499866Y-156319509D01*
X229252491Y-156072134D01*
X229058129Y-155781251D01*
X228974147Y-155578501D01*
X228924250Y-155458039D01*
X228856000Y-155114922D01*
X228856000Y-154765078D01*
X228924250Y-154421961D01*
X229058129Y-154098750D01*
X229058129Y-154098749D01*
X229252491Y-153807866D01*
X229499866Y-153560491D01*
X229790749Y-153366129D01*
X229924628Y-153310675D01*
X230113961Y-153232250D01*
X230457078Y-153164000D01*
X230806922Y-153164000D01*
X231150039Y-153232250D01*
X231150039Y-153232250D01*
G37*
G36*
X116342039Y-149422250D02*
G01*
X116531372Y-149500675D01*
X116665251Y-149556129D01*
X116956134Y-149750491D01*
X117203509Y-149997866D01*
X117397871Y-150288749D01*
X117397871Y-150288750D01*
X117531750Y-150611961D01*
X117600000Y-150955078D01*
X117600000Y-151304922D01*
X117531750Y-151648039D01*
X117453325Y-151837372D01*
X117397871Y-151971251D01*
X117203509Y-152262134D01*
X116956134Y-152509509D01*
X116665251Y-152703871D01*
X116531372Y-152759325D01*
X116342039Y-152837750D01*
X115998922Y-152906000D01*
X115649078Y-152906000D01*
X115305961Y-152837750D01*
X115116628Y-152759325D01*
X114982749Y-152703871D01*
X114691866Y-152509509D01*
X114444491Y-152262134D01*
X114250129Y-151971251D01*
X114194675Y-151837372D01*
X114116250Y-151648039D01*
X114048000Y-151304922D01*
X114048000Y-150955078D01*
X114116250Y-150611961D01*
X114250129Y-150288750D01*
X114250129Y-150288749D01*
X114444491Y-149997866D01*
X114691866Y-149750491D01*
X114982749Y-149556129D01*
X115116628Y-149500675D01*
X115305961Y-149422250D01*
X115649078Y-149354000D01*
X115998922Y-149354000D01*
X116342039Y-149422250D01*
X116342039Y-149422250D01*
G37*
G36*
X124697142Y-149078242D02*
G01*
X124845101Y-149139529D01*
X124978255Y-149228499D01*
X125091501Y-149341745D01*
X125180471Y-149474899D01*
X125241758Y-149622858D01*
X125273000Y-149779925D01*
X125273000Y-149940075D01*
X125241758Y-150097142D01*
X125180471Y-150245101D01*
X125091501Y-150378255D01*
X124978255Y-150491501D01*
X124845101Y-150580471D01*
X124697142Y-150641758D01*
X124540075Y-150673000D01*
X124379925Y-150673000D01*
X124222858Y-150641758D01*
X124074899Y-150580471D01*
X123941745Y-150491501D01*
X123828499Y-150378255D01*
X123739529Y-150245101D01*
X123678242Y-150097142D01*
X123647000Y-149940075D01*
X123647000Y-149779925D01*
X123678242Y-149622858D01*
X123739529Y-149474899D01*
X123828499Y-149341745D01*
X123941745Y-149228499D01*
X124074899Y-149139529D01*
X124222858Y-149078242D01*
X124379925Y-149047000D01*
X124540075Y-149047000D01*
X124697142Y-149078242D01*
X124697142Y-149078242D01*
G37*
G36*
X124697142Y-146538242D02*
G01*
X124845101Y-146599529D01*
X124978255Y-146688499D01*
X125091501Y-146801745D01*
X125180471Y-146934899D01*
X125241758Y-147082858D01*
X125273000Y-147239925D01*
X125273000Y-147400075D01*
X125241758Y-147557142D01*
X125180471Y-147705101D01*
X125091501Y-147838255D01*
X124978255Y-147951501D01*
X124845101Y-148040471D01*
X124697142Y-148101758D01*
X124540075Y-148133000D01*
X124379925Y-148133000D01*
X124222858Y-148101758D01*
X124074899Y-148040471D01*
X123941745Y-147951501D01*
X123828499Y-147838255D01*
X123739529Y-147705101D01*
X123678242Y-147557142D01*
X123647000Y-147400075D01*
X123647000Y-147239925D01*
X123678242Y-147082858D01*
X123739529Y-146934899D01*
X123828499Y-146801745D01*
X123941745Y-146688499D01*
X124074899Y-146599529D01*
X124222858Y-146538242D01*
X124379925Y-146507000D01*
X124540075Y-146507000D01*
X124697142Y-146538242D01*
X124697142Y-146538242D01*
G37*
G36*
X124697142Y-143998242D02*
G01*
X124845101Y-144059529D01*
X124978255Y-144148499D01*
X125091501Y-144261745D01*
X125180471Y-144394899D01*
X125241758Y-144542858D01*
X125273000Y-144699925D01*
X125273000Y-144860075D01*
X125241758Y-145017142D01*
X125180471Y-145165101D01*
X125091501Y-145298255D01*
X124978255Y-145411501D01*
X124845101Y-145500471D01*
X124697142Y-145561758D01*
X124540075Y-145593000D01*
X124379925Y-145593000D01*
X124222858Y-145561758D01*
X124074899Y-145500471D01*
X123941745Y-145411501D01*
X123828499Y-145298255D01*
X123739529Y-145165101D01*
X123678242Y-145017142D01*
X123647000Y-144860075D01*
X123647000Y-144699925D01*
X123678242Y-144542858D01*
X123739529Y-144394899D01*
X123828499Y-144261745D01*
X123941745Y-144148499D01*
X124074899Y-144059529D01*
X124222858Y-143998242D01*
X124379925Y-143967000D01*
X124540075Y-143967000D01*
X124697142Y-143998242D01*
X124697142Y-143998242D01*
G37*
G36*
X152129142Y-142474242D02*
G01*
X152277101Y-142535529D01*
X152410255Y-142624499D01*
X152523501Y-142737745D01*
X152612471Y-142870899D01*
X152673758Y-143018858D01*
X152705000Y-143175925D01*
X152705000Y-143336075D01*
X152673758Y-143493142D01*
X152612471Y-143641101D01*
X152523501Y-143774255D01*
X152410255Y-143887501D01*
X152277101Y-143976471D01*
X152129142Y-144037758D01*
X151972075Y-144069000D01*
X151811925Y-144069000D01*
X151654858Y-144037758D01*
X151506899Y-143976471D01*
X151373745Y-143887501D01*
X151260499Y-143774255D01*
X151171529Y-143641101D01*
X151110242Y-143493142D01*
X151079000Y-143336075D01*
X151079000Y-143175925D01*
X151110242Y-143018858D01*
X151171529Y-142870899D01*
X151260499Y-142737745D01*
X151373745Y-142624499D01*
X151506899Y-142535529D01*
X151654858Y-142474242D01*
X151811925Y-142443000D01*
X151972075Y-142443000D01*
X152129142Y-142474242D01*
X152129142Y-142474242D01*
G37*
G36*
X149589142Y-142474242D02*
G01*
X149737101Y-142535529D01*
X149870255Y-142624499D01*
X149983501Y-142737745D01*
X150072471Y-142870899D01*
X150133758Y-143018858D01*
X150165000Y-143175925D01*
X150165000Y-143336075D01*
X150133758Y-143493142D01*
X150072471Y-143641101D01*
X149983501Y-143774255D01*
X149870255Y-143887501D01*
X149737101Y-143976471D01*
X149589142Y-144037758D01*
X149432075Y-144069000D01*
X149271925Y-144069000D01*
X149114858Y-144037758D01*
X148966899Y-143976471D01*
X148833745Y-143887501D01*
X148720499Y-143774255D01*
X148631529Y-143641101D01*
X148570242Y-143493142D01*
X148539000Y-143336075D01*
X148539000Y-143175925D01*
X148570242Y-143018858D01*
X148631529Y-142870899D01*
X148720499Y-142737745D01*
X148833745Y-142624499D01*
X148966899Y-142535529D01*
X149114858Y-142474242D01*
X149271925Y-142443000D01*
X149432075Y-142443000D01*
X149589142Y-142474242D01*
X149589142Y-142474242D01*
G37*
G36*
X185149142Y-142474242D02*
G01*
X185297101Y-142535529D01*
X185430255Y-142624499D01*
X185543501Y-142737745D01*
X185632471Y-142870899D01*
X185693758Y-143018858D01*
X185725000Y-143175925D01*
X185725000Y-143336075D01*
X185693758Y-143493142D01*
X185632471Y-143641101D01*
X185543501Y-143774255D01*
X185430255Y-143887501D01*
X185297101Y-143976471D01*
X185149142Y-144037758D01*
X184992075Y-144069000D01*
X184831925Y-144069000D01*
X184674858Y-144037758D01*
X184526899Y-143976471D01*
X184393745Y-143887501D01*
X184280499Y-143774255D01*
X184191529Y-143641101D01*
X184130242Y-143493142D01*
X184099000Y-143336075D01*
X184099000Y-143175925D01*
X184130242Y-143018858D01*
X184191529Y-142870899D01*
X184280499Y-142737745D01*
X184393745Y-142624499D01*
X184526899Y-142535529D01*
X184674858Y-142474242D01*
X184831925Y-142443000D01*
X184992075Y-142443000D01*
X185149142Y-142474242D01*
X185149142Y-142474242D01*
G37*
G36*
X187689142Y-142474242D02*
G01*
X187837101Y-142535529D01*
X187970255Y-142624499D01*
X188083501Y-142737745D01*
X188172471Y-142870899D01*
X188233758Y-143018858D01*
X188265000Y-143175925D01*
X188265000Y-143336075D01*
X188233758Y-143493142D01*
X188172471Y-143641101D01*
X188083501Y-143774255D01*
X187970255Y-143887501D01*
X187837101Y-143976471D01*
X187689142Y-144037758D01*
X187532075Y-144069000D01*
X187371925Y-144069000D01*
X187214858Y-144037758D01*
X187066899Y-143976471D01*
X186933745Y-143887501D01*
X186820499Y-143774255D01*
X186731529Y-143641101D01*
X186670242Y-143493142D01*
X186639000Y-143336075D01*
X186639000Y-143175925D01*
X186670242Y-143018858D01*
X186731529Y-142870899D01*
X186820499Y-142737745D01*
X186933745Y-142624499D01*
X187066899Y-142535529D01*
X187214858Y-142474242D01*
X187371925Y-142443000D01*
X187532075Y-142443000D01*
X187689142Y-142474242D01*
X187689142Y-142474242D01*
G37*
G36*
X190229142Y-142474242D02*
G01*
X190377101Y-142535529D01*
X190510255Y-142624499D01*
X190623501Y-142737745D01*
X190712471Y-142870899D01*
X190773758Y-143018858D01*
X190805000Y-143175925D01*
X190805000Y-143336075D01*
X190773758Y-143493142D01*
X190712471Y-143641101D01*
X190623501Y-143774255D01*
X190510255Y-143887501D01*
X190377101Y-143976471D01*
X190229142Y-144037758D01*
X190072075Y-144069000D01*
X189911925Y-144069000D01*
X189754858Y-144037758D01*
X189606899Y-143976471D01*
X189473745Y-143887501D01*
X189360499Y-143774255D01*
X189271529Y-143641101D01*
X189210242Y-143493142D01*
X189179000Y-143336075D01*
X189179000Y-143175925D01*
X189210242Y-143018858D01*
X189271529Y-142870899D01*
X189360499Y-142737745D01*
X189473745Y-142624499D01*
X189606899Y-142535529D01*
X189754858Y-142474242D01*
X189911925Y-142443000D01*
X190072075Y-142443000D01*
X190229142Y-142474242D01*
X190229142Y-142474242D01*
G37*
G36*
X192769142Y-142474242D02*
G01*
X192917101Y-142535529D01*
X193050255Y-142624499D01*
X193163501Y-142737745D01*
X193252471Y-142870899D01*
X193313758Y-143018858D01*
X193345000Y-143175925D01*
X193345000Y-143336075D01*
X193313758Y-143493142D01*
X193252471Y-143641101D01*
X193163501Y-143774255D01*
X193050255Y-143887501D01*
X192917101Y-143976471D01*
X192769142Y-144037758D01*
X192612075Y-144069000D01*
X192451925Y-144069000D01*
X192294858Y-144037758D01*
X192146899Y-143976471D01*
X192013745Y-143887501D01*
X191900499Y-143774255D01*
X191811529Y-143641101D01*
X191750242Y-143493142D01*
X191719000Y-143336075D01*
X191719000Y-143175925D01*
X191750242Y-143018858D01*
X191811529Y-142870899D01*
X191900499Y-142737745D01*
X192013745Y-142624499D01*
X192146899Y-142535529D01*
X192294858Y-142474242D01*
X192451925Y-142443000D01*
X192612075Y-142443000D01*
X192769142Y-142474242D01*
X192769142Y-142474242D01*
G37*
G36*
X195309142Y-142474242D02*
G01*
X195457101Y-142535529D01*
X195590255Y-142624499D01*
X195703501Y-142737745D01*
X195792471Y-142870899D01*
X195853758Y-143018858D01*
X195885000Y-143175925D01*
X195885000Y-143336075D01*
X195853758Y-143493142D01*
X195792471Y-143641101D01*
X195703501Y-143774255D01*
X195590255Y-143887501D01*
X195457101Y-143976471D01*
X195309142Y-144037758D01*
X195152075Y-144069000D01*
X194991925Y-144069000D01*
X194834858Y-144037758D01*
X194686899Y-143976471D01*
X194553745Y-143887501D01*
X194440499Y-143774255D01*
X194351529Y-143641101D01*
X194290242Y-143493142D01*
X194259000Y-143336075D01*
X194259000Y-143175925D01*
X194290242Y-143018858D01*
X194351529Y-142870899D01*
X194440499Y-142737745D01*
X194553745Y-142624499D01*
X194686899Y-142535529D01*
X194834858Y-142474242D01*
X194991925Y-142443000D01*
X195152075Y-142443000D01*
X195309142Y-142474242D01*
X195309142Y-142474242D01*
G37*
G36*
X220709142Y-142474242D02*
G01*
X220857101Y-142535529D01*
X220990255Y-142624499D01*
X221103501Y-142737745D01*
X221192471Y-142870899D01*
X221253758Y-143018858D01*
X221285000Y-143175925D01*
X221285000Y-143336075D01*
X221253758Y-143493142D01*
X221192471Y-143641101D01*
X221103501Y-143774255D01*
X220990255Y-143887501D01*
X220857101Y-143976471D01*
X220709142Y-144037758D01*
X220552075Y-144069000D01*
X220391925Y-144069000D01*
X220234858Y-144037758D01*
X220086899Y-143976471D01*
X219953745Y-143887501D01*
X219840499Y-143774255D01*
X219751529Y-143641101D01*
X219690242Y-143493142D01*
X219659000Y-143336075D01*
X219659000Y-143175925D01*
X219690242Y-143018858D01*
X219751529Y-142870899D01*
X219840499Y-142737745D01*
X219953745Y-142624499D01*
X220086899Y-142535529D01*
X220234858Y-142474242D01*
X220391925Y-142443000D01*
X220552075Y-142443000D01*
X220709142Y-142474242D01*
X220709142Y-142474242D01*
G37*
G36*
X131809142Y-142474242D02*
G01*
X131957101Y-142535529D01*
X132090255Y-142624499D01*
X132203501Y-142737745D01*
X132292471Y-142870899D01*
X132353758Y-143018858D01*
X132385000Y-143175925D01*
X132385000Y-143336075D01*
X132353758Y-143493142D01*
X132292471Y-143641101D01*
X132203501Y-143774255D01*
X132090255Y-143887501D01*
X131957101Y-143976471D01*
X131809142Y-144037758D01*
X131652075Y-144069000D01*
X131491925Y-144069000D01*
X131334858Y-144037758D01*
X131186899Y-143976471D01*
X131053745Y-143887501D01*
X130940499Y-143774255D01*
X130851529Y-143641101D01*
X130790242Y-143493142D01*
X130759000Y-143336075D01*
X130759000Y-143175925D01*
X130790242Y-143018858D01*
X130851529Y-142870899D01*
X130940499Y-142737745D01*
X131053745Y-142624499D01*
X131186899Y-142535529D01*
X131334858Y-142474242D01*
X131491925Y-142443000D01*
X131652075Y-142443000D01*
X131809142Y-142474242D01*
X131809142Y-142474242D01*
G37*
G36*
X223249142Y-142474242D02*
G01*
X223397101Y-142535529D01*
X223530255Y-142624499D01*
X223643501Y-142737745D01*
X223732471Y-142870899D01*
X223793758Y-143018858D01*
X223825000Y-143175925D01*
X223825000Y-143336075D01*
X223793758Y-143493142D01*
X223732471Y-143641101D01*
X223643501Y-143774255D01*
X223530255Y-143887501D01*
X223397101Y-143976471D01*
X223249142Y-144037758D01*
X223092075Y-144069000D01*
X222931925Y-144069000D01*
X222774858Y-144037758D01*
X222626899Y-143976471D01*
X222493745Y-143887501D01*
X222380499Y-143774255D01*
X222291529Y-143641101D01*
X222230242Y-143493142D01*
X222199000Y-143336075D01*
X222199000Y-143175925D01*
X222230242Y-143018858D01*
X222291529Y-142870899D01*
X222380499Y-142737745D01*
X222493745Y-142624499D01*
X222626899Y-142535529D01*
X222774858Y-142474242D01*
X222931925Y-142443000D01*
X223092075Y-142443000D01*
X223249142Y-142474242D01*
X223249142Y-142474242D01*
G37*
G36*
X225789142Y-142474242D02*
G01*
X225937101Y-142535529D01*
X226070255Y-142624499D01*
X226183501Y-142737745D01*
X226272471Y-142870899D01*
X226333758Y-143018858D01*
X226365000Y-143175925D01*
X226365000Y-143336075D01*
X226333758Y-143493142D01*
X226272471Y-143641101D01*
X226183501Y-143774255D01*
X226070255Y-143887501D01*
X225937101Y-143976471D01*
X225789142Y-144037758D01*
X225632075Y-144069000D01*
X225471925Y-144069000D01*
X225314858Y-144037758D01*
X225166899Y-143976471D01*
X225033745Y-143887501D01*
X224920499Y-143774255D01*
X224831529Y-143641101D01*
X224770242Y-143493142D01*
X224739000Y-143336075D01*
X224739000Y-143175925D01*
X224770242Y-143018858D01*
X224831529Y-142870899D01*
X224920499Y-142737745D01*
X225033745Y-142624499D01*
X225166899Y-142535529D01*
X225314858Y-142474242D01*
X225471925Y-142443000D01*
X225632075Y-142443000D01*
X225789142Y-142474242D01*
X225789142Y-142474242D01*
G37*
G36*
X228329142Y-142474242D02*
G01*
X228477101Y-142535529D01*
X228610255Y-142624499D01*
X228723501Y-142737745D01*
X228812471Y-142870899D01*
X228873758Y-143018858D01*
X228905000Y-143175925D01*
X228905000Y-143336075D01*
X228873758Y-143493142D01*
X228812471Y-143641101D01*
X228723501Y-143774255D01*
X228610255Y-143887501D01*
X228477101Y-143976471D01*
X228329142Y-144037758D01*
X228172075Y-144069000D01*
X228011925Y-144069000D01*
X227854858Y-144037758D01*
X227706899Y-143976471D01*
X227573745Y-143887501D01*
X227460499Y-143774255D01*
X227371529Y-143641101D01*
X227310242Y-143493142D01*
X227279000Y-143336075D01*
X227279000Y-143175925D01*
X227310242Y-143018858D01*
X227371529Y-142870899D01*
X227460499Y-142737745D01*
X227573745Y-142624499D01*
X227706899Y-142535529D01*
X227854858Y-142474242D01*
X228011925Y-142443000D01*
X228172075Y-142443000D01*
X228329142Y-142474242D01*
X228329142Y-142474242D01*
G37*
G36*
X139429142Y-142474242D02*
G01*
X139577101Y-142535529D01*
X139710255Y-142624499D01*
X139823501Y-142737745D01*
X139912471Y-142870899D01*
X139973758Y-143018858D01*
X140005000Y-143175925D01*
X140005000Y-143336075D01*
X139973758Y-143493142D01*
X139912471Y-143641101D01*
X139823501Y-143774255D01*
X139710255Y-143887501D01*
X139577101Y-143976471D01*
X139429142Y-144037758D01*
X139272075Y-144069000D01*
X139111925Y-144069000D01*
X138954858Y-144037758D01*
X138806899Y-143976471D01*
X138673745Y-143887501D01*
X138560499Y-143774255D01*
X138471529Y-143641101D01*
X138410242Y-143493142D01*
X138379000Y-143336075D01*
X138379000Y-143175925D01*
X138410242Y-143018858D01*
X138471529Y-142870899D01*
X138560499Y-142737745D01*
X138673745Y-142624499D01*
X138806899Y-142535529D01*
X138954858Y-142474242D01*
X139111925Y-142443000D01*
X139272075Y-142443000D01*
X139429142Y-142474242D01*
X139429142Y-142474242D01*
G37*
G36*
X141969142Y-142474242D02*
G01*
X142117101Y-142535529D01*
X142250255Y-142624499D01*
X142363501Y-142737745D01*
X142452471Y-142870899D01*
X142513758Y-143018858D01*
X142545000Y-143175925D01*
X142545000Y-143336075D01*
X142513758Y-143493142D01*
X142452471Y-143641101D01*
X142363501Y-143774255D01*
X142250255Y-143887501D01*
X142117101Y-143976471D01*
X141969142Y-144037758D01*
X141812075Y-144069000D01*
X141651925Y-144069000D01*
X141494858Y-144037758D01*
X141346899Y-143976471D01*
X141213745Y-143887501D01*
X141100499Y-143774255D01*
X141011529Y-143641101D01*
X140950242Y-143493142D01*
X140919000Y-143336075D01*
X140919000Y-143175925D01*
X140950242Y-143018858D01*
X141011529Y-142870899D01*
X141100499Y-142737745D01*
X141213745Y-142624499D01*
X141346899Y-142535529D01*
X141494858Y-142474242D01*
X141651925Y-142443000D01*
X141812075Y-142443000D01*
X141969142Y-142474242D01*
X141969142Y-142474242D01*
G37*
G36*
X134349142Y-142474242D02*
G01*
X134497101Y-142535529D01*
X134630255Y-142624499D01*
X134743501Y-142737745D01*
X134832471Y-142870899D01*
X134893758Y-143018858D01*
X134925000Y-143175925D01*
X134925000Y-143336075D01*
X134893758Y-143493142D01*
X134832471Y-143641101D01*
X134743501Y-143774255D01*
X134630255Y-143887501D01*
X134497101Y-143976471D01*
X134349142Y-144037758D01*
X134192075Y-144069000D01*
X134031925Y-144069000D01*
X133874858Y-144037758D01*
X133726899Y-143976471D01*
X133593745Y-143887501D01*
X133480499Y-143774255D01*
X133391529Y-143641101D01*
X133330242Y-143493142D01*
X133299000Y-143336075D01*
X133299000Y-143175925D01*
X133330242Y-143018858D01*
X133391529Y-142870899D01*
X133480499Y-142737745D01*
X133593745Y-142624499D01*
X133726899Y-142535529D01*
X133874858Y-142474242D01*
X134031925Y-142443000D01*
X134192075Y-142443000D01*
X134349142Y-142474242D01*
X134349142Y-142474242D01*
G37*
G36*
X157209142Y-142474242D02*
G01*
X157357101Y-142535529D01*
X157490255Y-142624499D01*
X157603501Y-142737745D01*
X157692471Y-142870899D01*
X157753758Y-143018858D01*
X157785000Y-143175925D01*
X157785000Y-143336075D01*
X157753758Y-143493142D01*
X157692471Y-143641101D01*
X157603501Y-143774255D01*
X157490255Y-143887501D01*
X157357101Y-143976471D01*
X157209142Y-144037758D01*
X157052075Y-144069000D01*
X156891925Y-144069000D01*
X156734858Y-144037758D01*
X156586899Y-143976471D01*
X156453745Y-143887501D01*
X156340499Y-143774255D01*
X156251529Y-143641101D01*
X156190242Y-143493142D01*
X156159000Y-143336075D01*
X156159000Y-143175925D01*
X156190242Y-143018858D01*
X156251529Y-142870899D01*
X156340499Y-142737745D01*
X156453745Y-142624499D01*
X156586899Y-142535529D01*
X156734858Y-142474242D01*
X156891925Y-142443000D01*
X157052075Y-142443000D01*
X157209142Y-142474242D01*
X157209142Y-142474242D01*
G37*
G36*
X159749142Y-142474242D02*
G01*
X159897101Y-142535529D01*
X160030255Y-142624499D01*
X160143501Y-142737745D01*
X160232471Y-142870899D01*
X160293758Y-143018858D01*
X160325000Y-143175925D01*
X160325000Y-143336075D01*
X160293758Y-143493142D01*
X160232471Y-143641101D01*
X160143501Y-143774255D01*
X160030255Y-143887501D01*
X159897101Y-143976471D01*
X159749142Y-144037758D01*
X159592075Y-144069000D01*
X159431925Y-144069000D01*
X159274858Y-144037758D01*
X159126899Y-143976471D01*
X158993745Y-143887501D01*
X158880499Y-143774255D01*
X158791529Y-143641101D01*
X158730242Y-143493142D01*
X158699000Y-143336075D01*
X158699000Y-143175925D01*
X158730242Y-143018858D01*
X158791529Y-142870899D01*
X158880499Y-142737745D01*
X158993745Y-142624499D01*
X159126899Y-142535529D01*
X159274858Y-142474242D01*
X159431925Y-142443000D01*
X159592075Y-142443000D01*
X159749142Y-142474242D01*
X159749142Y-142474242D01*
G37*
G36*
X230869142Y-142474242D02*
G01*
X231017101Y-142535529D01*
X231150255Y-142624499D01*
X231263501Y-142737745D01*
X231352471Y-142870899D01*
X231413758Y-143018858D01*
X231445000Y-143175925D01*
X231445000Y-143336075D01*
X231413758Y-143493142D01*
X231352471Y-143641101D01*
X231263501Y-143774255D01*
X231150255Y-143887501D01*
X231017101Y-143976471D01*
X230869142Y-144037758D01*
X230712075Y-144069000D01*
X230551925Y-144069000D01*
X230394858Y-144037758D01*
X230246899Y-143976471D01*
X230113745Y-143887501D01*
X230000499Y-143774255D01*
X229911529Y-143641101D01*
X229850242Y-143493142D01*
X229819000Y-143336075D01*
X229819000Y-143175925D01*
X229850242Y-143018858D01*
X229911529Y-142870899D01*
X230000499Y-142737745D01*
X230113745Y-142624499D01*
X230246899Y-142535529D01*
X230394858Y-142474242D01*
X230551925Y-142443000D01*
X230712075Y-142443000D01*
X230869142Y-142474242D01*
X230869142Y-142474242D01*
G37*
G36*
X167369142Y-142474242D02*
G01*
X167517101Y-142535529D01*
X167650255Y-142624499D01*
X167763501Y-142737745D01*
X167852471Y-142870899D01*
X167913758Y-143018858D01*
X167945000Y-143175925D01*
X167945000Y-143336075D01*
X167913758Y-143493142D01*
X167852471Y-143641101D01*
X167763501Y-143774255D01*
X167650255Y-143887501D01*
X167517101Y-143976471D01*
X167369142Y-144037758D01*
X167212075Y-144069000D01*
X167051925Y-144069000D01*
X166894858Y-144037758D01*
X166746899Y-143976471D01*
X166613745Y-143887501D01*
X166500499Y-143774255D01*
X166411529Y-143641101D01*
X166350242Y-143493142D01*
X166319000Y-143336075D01*
X166319000Y-143175925D01*
X166350242Y-143018858D01*
X166411529Y-142870899D01*
X166500499Y-142737745D01*
X166613745Y-142624499D01*
X166746899Y-142535529D01*
X166894858Y-142474242D01*
X167051925Y-142443000D01*
X167212075Y-142443000D01*
X167369142Y-142474242D01*
X167369142Y-142474242D01*
G37*
G36*
X169909142Y-142474242D02*
G01*
X170057101Y-142535529D01*
X170190255Y-142624499D01*
X170303501Y-142737745D01*
X170392471Y-142870899D01*
X170453758Y-143018858D01*
X170485000Y-143175925D01*
X170485000Y-143336075D01*
X170453758Y-143493142D01*
X170392471Y-143641101D01*
X170303501Y-143774255D01*
X170190255Y-143887501D01*
X170057101Y-143976471D01*
X169909142Y-144037758D01*
X169752075Y-144069000D01*
X169591925Y-144069000D01*
X169434858Y-144037758D01*
X169286899Y-143976471D01*
X169153745Y-143887501D01*
X169040499Y-143774255D01*
X168951529Y-143641101D01*
X168890242Y-143493142D01*
X168859000Y-143336075D01*
X168859000Y-143175925D01*
X168890242Y-143018858D01*
X168951529Y-142870899D01*
X169040499Y-142737745D01*
X169153745Y-142624499D01*
X169286899Y-142535529D01*
X169434858Y-142474242D01*
X169591925Y-142443000D01*
X169752075Y-142443000D01*
X169909142Y-142474242D01*
X169909142Y-142474242D01*
G37*
G36*
X172449142Y-142474242D02*
G01*
X172597101Y-142535529D01*
X172730255Y-142624499D01*
X172843501Y-142737745D01*
X172932471Y-142870899D01*
X172993758Y-143018858D01*
X173025000Y-143175925D01*
X173025000Y-143336075D01*
X172993758Y-143493142D01*
X172932471Y-143641101D01*
X172843501Y-143774255D01*
X172730255Y-143887501D01*
X172597101Y-143976471D01*
X172449142Y-144037758D01*
X172292075Y-144069000D01*
X172131925Y-144069000D01*
X171974858Y-144037758D01*
X171826899Y-143976471D01*
X171693745Y-143887501D01*
X171580499Y-143774255D01*
X171491529Y-143641101D01*
X171430242Y-143493142D01*
X171399000Y-143336075D01*
X171399000Y-143175925D01*
X171430242Y-143018858D01*
X171491529Y-142870899D01*
X171580499Y-142737745D01*
X171693745Y-142624499D01*
X171826899Y-142535529D01*
X171974858Y-142474242D01*
X172131925Y-142443000D01*
X172292075Y-142443000D01*
X172449142Y-142474242D01*
X172449142Y-142474242D01*
G37*
G36*
X174989142Y-142474242D02*
G01*
X175137101Y-142535529D01*
X175270255Y-142624499D01*
X175383501Y-142737745D01*
X175472471Y-142870899D01*
X175533758Y-143018858D01*
X175565000Y-143175925D01*
X175565000Y-143336075D01*
X175533758Y-143493142D01*
X175472471Y-143641101D01*
X175383501Y-143774255D01*
X175270255Y-143887501D01*
X175137101Y-143976471D01*
X174989142Y-144037758D01*
X174832075Y-144069000D01*
X174671925Y-144069000D01*
X174514858Y-144037758D01*
X174366899Y-143976471D01*
X174233745Y-143887501D01*
X174120499Y-143774255D01*
X174031529Y-143641101D01*
X173970242Y-143493142D01*
X173939000Y-143336075D01*
X173939000Y-143175925D01*
X173970242Y-143018858D01*
X174031529Y-142870899D01*
X174120499Y-142737745D01*
X174233745Y-142624499D01*
X174366899Y-142535529D01*
X174514858Y-142474242D01*
X174671925Y-142443000D01*
X174832075Y-142443000D01*
X174989142Y-142474242D01*
X174989142Y-142474242D01*
G37*
G36*
X177529142Y-142474242D02*
G01*
X177677101Y-142535529D01*
X177810255Y-142624499D01*
X177923501Y-142737745D01*
X178012471Y-142870899D01*
X178073758Y-143018858D01*
X178105000Y-143175925D01*
X178105000Y-143336075D01*
X178073758Y-143493142D01*
X178012471Y-143641101D01*
X177923501Y-143774255D01*
X177810255Y-143887501D01*
X177677101Y-143976471D01*
X177529142Y-144037758D01*
X177372075Y-144069000D01*
X177211925Y-144069000D01*
X177054858Y-144037758D01*
X176906899Y-143976471D01*
X176773745Y-143887501D01*
X176660499Y-143774255D01*
X176571529Y-143641101D01*
X176510242Y-143493142D01*
X176479000Y-143336075D01*
X176479000Y-143175925D01*
X176510242Y-143018858D01*
X176571529Y-142870899D01*
X176660499Y-142737745D01*
X176773745Y-142624499D01*
X176906899Y-142535529D01*
X177054858Y-142474242D01*
X177211925Y-142443000D01*
X177372075Y-142443000D01*
X177529142Y-142474242D01*
X177529142Y-142474242D01*
G37*
G36*
X213089142Y-142474242D02*
G01*
X213237101Y-142535529D01*
X213370255Y-142624499D01*
X213483501Y-142737745D01*
X213572471Y-142870899D01*
X213633758Y-143018858D01*
X213665000Y-143175925D01*
X213665000Y-143336075D01*
X213633758Y-143493142D01*
X213572471Y-143641101D01*
X213483501Y-143774255D01*
X213370255Y-143887501D01*
X213237101Y-143976471D01*
X213089142Y-144037758D01*
X212932075Y-144069000D01*
X212771925Y-144069000D01*
X212614858Y-144037758D01*
X212466899Y-143976471D01*
X212333745Y-143887501D01*
X212220499Y-143774255D01*
X212131529Y-143641101D01*
X212070242Y-143493142D01*
X212039000Y-143336075D01*
X212039000Y-143175925D01*
X212070242Y-143018858D01*
X212131529Y-142870899D01*
X212220499Y-142737745D01*
X212333745Y-142624499D01*
X212466899Y-142535529D01*
X212614858Y-142474242D01*
X212771925Y-142443000D01*
X212932075Y-142443000D01*
X213089142Y-142474242D01*
X213089142Y-142474242D01*
G37*
G36*
X210549142Y-142474242D02*
G01*
X210697101Y-142535529D01*
X210830255Y-142624499D01*
X210943501Y-142737745D01*
X211032471Y-142870899D01*
X211093758Y-143018858D01*
X211125000Y-143175925D01*
X211125000Y-143336075D01*
X211093758Y-143493142D01*
X211032471Y-143641101D01*
X210943501Y-143774255D01*
X210830255Y-143887501D01*
X210697101Y-143976471D01*
X210549142Y-144037758D01*
X210392075Y-144069000D01*
X210231925Y-144069000D01*
X210074858Y-144037758D01*
X209926899Y-143976471D01*
X209793745Y-143887501D01*
X209680499Y-143774255D01*
X209591529Y-143641101D01*
X209530242Y-143493142D01*
X209499000Y-143336075D01*
X209499000Y-143175925D01*
X209530242Y-143018858D01*
X209591529Y-142870899D01*
X209680499Y-142737745D01*
X209793745Y-142624499D01*
X209926899Y-142535529D01*
X210074858Y-142474242D01*
X210231925Y-142443000D01*
X210392075Y-142443000D01*
X210549142Y-142474242D01*
X210549142Y-142474242D01*
G37*
G36*
X208009142Y-142474242D02*
G01*
X208157101Y-142535529D01*
X208290255Y-142624499D01*
X208403501Y-142737745D01*
X208492471Y-142870899D01*
X208553758Y-143018858D01*
X208585000Y-143175925D01*
X208585000Y-143336075D01*
X208553758Y-143493142D01*
X208492471Y-143641101D01*
X208403501Y-143774255D01*
X208290255Y-143887501D01*
X208157101Y-143976471D01*
X208009142Y-144037758D01*
X207852075Y-144069000D01*
X207691925Y-144069000D01*
X207534858Y-144037758D01*
X207386899Y-143976471D01*
X207253745Y-143887501D01*
X207140499Y-143774255D01*
X207051529Y-143641101D01*
X206990242Y-143493142D01*
X206959000Y-143336075D01*
X206959000Y-143175925D01*
X206990242Y-143018858D01*
X207051529Y-142870899D01*
X207140499Y-142737745D01*
X207253745Y-142624499D01*
X207386899Y-142535529D01*
X207534858Y-142474242D01*
X207691925Y-142443000D01*
X207852075Y-142443000D01*
X208009142Y-142474242D01*
X208009142Y-142474242D01*
G37*
G36*
X205469142Y-142474242D02*
G01*
X205617101Y-142535529D01*
X205750255Y-142624499D01*
X205863501Y-142737745D01*
X205952471Y-142870899D01*
X206013758Y-143018858D01*
X206045000Y-143175925D01*
X206045000Y-143336075D01*
X206013758Y-143493142D01*
X205952471Y-143641101D01*
X205863501Y-143774255D01*
X205750255Y-143887501D01*
X205617101Y-143976471D01*
X205469142Y-144037758D01*
X205312075Y-144069000D01*
X205151925Y-144069000D01*
X204994858Y-144037758D01*
X204846899Y-143976471D01*
X204713745Y-143887501D01*
X204600499Y-143774255D01*
X204511529Y-143641101D01*
X204450242Y-143493142D01*
X204419000Y-143336075D01*
X204419000Y-143175925D01*
X204450242Y-143018858D01*
X204511529Y-142870899D01*
X204600499Y-142737745D01*
X204713745Y-142624499D01*
X204846899Y-142535529D01*
X204994858Y-142474242D01*
X205151925Y-142443000D01*
X205312075Y-142443000D01*
X205469142Y-142474242D01*
X205469142Y-142474242D01*
G37*
G36*
X202929142Y-142474242D02*
G01*
X203077101Y-142535529D01*
X203210255Y-142624499D01*
X203323501Y-142737745D01*
X203412471Y-142870899D01*
X203473758Y-143018858D01*
X203505000Y-143175925D01*
X203505000Y-143336075D01*
X203473758Y-143493142D01*
X203412471Y-143641101D01*
X203323501Y-143774255D01*
X203210255Y-143887501D01*
X203077101Y-143976471D01*
X202929142Y-144037758D01*
X202772075Y-144069000D01*
X202611925Y-144069000D01*
X202454858Y-144037758D01*
X202306899Y-143976471D01*
X202173745Y-143887501D01*
X202060499Y-143774255D01*
X201971529Y-143641101D01*
X201910242Y-143493142D01*
X201879000Y-143336075D01*
X201879000Y-143175925D01*
X201910242Y-143018858D01*
X201971529Y-142870899D01*
X202060499Y-142737745D01*
X202173745Y-142624499D01*
X202306899Y-142535529D01*
X202454858Y-142474242D01*
X202611925Y-142443000D01*
X202772075Y-142443000D01*
X202929142Y-142474242D01*
X202929142Y-142474242D01*
G37*
G36*
X136889142Y-142474242D02*
G01*
X137037101Y-142535529D01*
X137170255Y-142624499D01*
X137283501Y-142737745D01*
X137372471Y-142870899D01*
X137433758Y-143018858D01*
X137465000Y-143175925D01*
X137465000Y-143336075D01*
X137433758Y-143493142D01*
X137372471Y-143641101D01*
X137283501Y-143774255D01*
X137170255Y-143887501D01*
X137037101Y-143976471D01*
X136889142Y-144037758D01*
X136732075Y-144069000D01*
X136571925Y-144069000D01*
X136414858Y-144037758D01*
X136266899Y-143976471D01*
X136133745Y-143887501D01*
X136020499Y-143774255D01*
X135931529Y-143641101D01*
X135870242Y-143493142D01*
X135839000Y-143336075D01*
X135839000Y-143175925D01*
X135870242Y-143018858D01*
X135931529Y-142870899D01*
X136020499Y-142737745D01*
X136133745Y-142624499D01*
X136266899Y-142535529D01*
X136414858Y-142474242D01*
X136571925Y-142443000D01*
X136732075Y-142443000D01*
X136889142Y-142474242D01*
X136889142Y-142474242D01*
G37*
G36*
X154669142Y-142474242D02*
G01*
X154817101Y-142535529D01*
X154950255Y-142624499D01*
X155063501Y-142737745D01*
X155152471Y-142870899D01*
X155213758Y-143018858D01*
X155245000Y-143175925D01*
X155245000Y-143336075D01*
X155213758Y-143493142D01*
X155152471Y-143641101D01*
X155063501Y-143774255D01*
X154950255Y-143887501D01*
X154817101Y-143976471D01*
X154669142Y-144037758D01*
X154512075Y-144069000D01*
X154351925Y-144069000D01*
X154194858Y-144037758D01*
X154046899Y-143976471D01*
X153913745Y-143887501D01*
X153800499Y-143774255D01*
X153711529Y-143641101D01*
X153650242Y-143493142D01*
X153619000Y-143336075D01*
X153619000Y-143175925D01*
X153650242Y-143018858D01*
X153711529Y-142870899D01*
X153800499Y-142737745D01*
X153913745Y-142624499D01*
X154046899Y-142535529D01*
X154194858Y-142474242D01*
X154351925Y-142443000D01*
X154512075Y-142443000D01*
X154669142Y-142474242D01*
X154669142Y-142474242D01*
G37*
G36*
X124697142Y-141458242D02*
G01*
X124845101Y-141519529D01*
X124978255Y-141608499D01*
X125091501Y-141721745D01*
X125180471Y-141854899D01*
X125241758Y-142002858D01*
X125273000Y-142159925D01*
X125273000Y-142320075D01*
X125241758Y-142477142D01*
X125180471Y-142625101D01*
X125091501Y-142758255D01*
X124978255Y-142871501D01*
X124845101Y-142960471D01*
X124697142Y-143021758D01*
X124540075Y-143053000D01*
X124379925Y-143053000D01*
X124222858Y-143021758D01*
X124074899Y-142960471D01*
X123941745Y-142871501D01*
X123828499Y-142758255D01*
X123739529Y-142625101D01*
X123678242Y-142477142D01*
X123647000Y-142320075D01*
X123647000Y-142159925D01*
X123678242Y-142002858D01*
X123739529Y-141854899D01*
X123828499Y-141721745D01*
X123941745Y-141608499D01*
X124074899Y-141519529D01*
X124222858Y-141458242D01*
X124379925Y-141427000D01*
X124540075Y-141427000D01*
X124697142Y-141458242D01*
X124697142Y-141458242D01*
G37*
G36*
X124697142Y-138918242D02*
G01*
X124845101Y-138979529D01*
X124978255Y-139068499D01*
X125091501Y-139181745D01*
X125180471Y-139314899D01*
X125241758Y-139462858D01*
X125273000Y-139619925D01*
X125273000Y-139780075D01*
X125241758Y-139937142D01*
X125180471Y-140085101D01*
X125091501Y-140218255D01*
X124978255Y-140331501D01*
X124845101Y-140420471D01*
X124697142Y-140481758D01*
X124540075Y-140513000D01*
X124379925Y-140513000D01*
X124222858Y-140481758D01*
X124074899Y-140420471D01*
X123941745Y-140331501D01*
X123828499Y-140218255D01*
X123739529Y-140085101D01*
X123678242Y-139937142D01*
X123647000Y-139780075D01*
X123647000Y-139619925D01*
X123678242Y-139462858D01*
X123739529Y-139314899D01*
X123828499Y-139181745D01*
X123941745Y-139068499D01*
X124074899Y-138979529D01*
X124222858Y-138918242D01*
X124379925Y-138887000D01*
X124540075Y-138887000D01*
X124697142Y-138918242D01*
X124697142Y-138918242D01*
G37*
G36*
X116342039Y-136722250D02*
G01*
X116531372Y-136800675D01*
X116665251Y-136856129D01*
X116956134Y-137050491D01*
X117203509Y-137297866D01*
X117397871Y-137588749D01*
X117397871Y-137588750D01*
X117531750Y-137911961D01*
X117600000Y-138255078D01*
X117600000Y-138604922D01*
X117531750Y-138948039D01*
X117481853Y-139068501D01*
X117397871Y-139271251D01*
X117203509Y-139562134D01*
X116956134Y-139809509D01*
X116665251Y-140003871D01*
X116531372Y-140059325D01*
X116342039Y-140137750D01*
X115998922Y-140206000D01*
X115649078Y-140206000D01*
X115305961Y-140137750D01*
X115116628Y-140059325D01*
X114982749Y-140003871D01*
X114691866Y-139809509D01*
X114444491Y-139562134D01*
X114250129Y-139271251D01*
X114166147Y-139068501D01*
X114116250Y-138948039D01*
X114048000Y-138604922D01*
X114048000Y-138255078D01*
X114116250Y-137911961D01*
X114250129Y-137588750D01*
X114250129Y-137588749D01*
X114444491Y-137297866D01*
X114691866Y-137050491D01*
X114982749Y-136856129D01*
X115116628Y-136800675D01*
X115305961Y-136722250D01*
X115649078Y-136654000D01*
X115998922Y-136654000D01*
X116342039Y-136722250D01*
X116342039Y-136722250D01*
G37*
G36*
X130820039Y-132912250D02*
G01*
X131009372Y-132990675D01*
X131143251Y-133046129D01*
X131434134Y-133240491D01*
X131681509Y-133487866D01*
X131875871Y-133778749D01*
X131875871Y-133778750D01*
X132009750Y-134101961D01*
X132078000Y-134445078D01*
X132078000Y-134794922D01*
X132009750Y-135138039D01*
X131931325Y-135327372D01*
X131875871Y-135461251D01*
X131681509Y-135752134D01*
X131434134Y-135999509D01*
X131143251Y-136193871D01*
X131009372Y-136249325D01*
X130820039Y-136327750D01*
X130476922Y-136396000D01*
X130127078Y-136396000D01*
X129783961Y-136327750D01*
X129594628Y-136249325D01*
X129460749Y-136193871D01*
X129169866Y-135999509D01*
X128922491Y-135752134D01*
X128728129Y-135461251D01*
X128672675Y-135327372D01*
X128594250Y-135138039D01*
X128526000Y-134794922D01*
X128526000Y-134445078D01*
X128594250Y-134101961D01*
X128728129Y-133778750D01*
X128728129Y-133778749D01*
X128922491Y-133487866D01*
X129169866Y-133240491D01*
X129460749Y-133046129D01*
X129594628Y-132990675D01*
X129783961Y-132912250D01*
X130127078Y-132844000D01*
X130476922Y-132844000D01*
X130820039Y-132912250D01*
X130820039Y-132912250D01*
G37*
G36*
X232420039Y-132912250D02*
G01*
X232609372Y-132990675D01*
X232743251Y-133046129D01*
X233034134Y-133240491D01*
X233281509Y-133487866D01*
X233475871Y-133778749D01*
X233475871Y-133778750D01*
X233609750Y-134101961D01*
X233678000Y-134445078D01*
X233678000Y-134794922D01*
X233609750Y-135138039D01*
X233531325Y-135327372D01*
X233475871Y-135461251D01*
X233281509Y-135752134D01*
X233034134Y-135999509D01*
X232743251Y-136193871D01*
X232609372Y-136249325D01*
X232420039Y-136327750D01*
X232076922Y-136396000D01*
X231727078Y-136396000D01*
X231383961Y-136327750D01*
X231194628Y-136249325D01*
X231060749Y-136193871D01*
X230769866Y-135999509D01*
X230522491Y-135752134D01*
X230328129Y-135461251D01*
X230272675Y-135327372D01*
X230194250Y-135138039D01*
X230126000Y-134794922D01*
X230126000Y-134445078D01*
X230194250Y-134101961D01*
X230328129Y-133778750D01*
X230328129Y-133778749D01*
X230522491Y-133487866D01*
X230769866Y-133240491D01*
X231060749Y-133046129D01*
X231194628Y-132990675D01*
X231383961Y-132912250D01*
X231727078Y-132844000D01*
X232076922Y-132844000D01*
X232420039Y-132912250D01*
X232420039Y-132912250D01*
G37*
G36*
X219720039Y-132912250D02*
G01*
X219909372Y-132990675D01*
X220043251Y-133046129D01*
X220334134Y-133240491D01*
X220581509Y-133487866D01*
X220775871Y-133778749D01*
X220775871Y-133778750D01*
X220909750Y-134101961D01*
X220978000Y-134445078D01*
X220978000Y-134794922D01*
X220909750Y-135138039D01*
X220831325Y-135327372D01*
X220775871Y-135461251D01*
X220581509Y-135752134D01*
X220334134Y-135999509D01*
X220043251Y-136193871D01*
X219909372Y-136249325D01*
X219720039Y-136327750D01*
X219376922Y-136396000D01*
X219027078Y-136396000D01*
X218683961Y-136327750D01*
X218494628Y-136249325D01*
X218360749Y-136193871D01*
X218069866Y-135999509D01*
X217822491Y-135752134D01*
X217628129Y-135461251D01*
X217572675Y-135327372D01*
X217494250Y-135138039D01*
X217426000Y-134794922D01*
X217426000Y-134445078D01*
X217494250Y-134101961D01*
X217628129Y-133778750D01*
X217628129Y-133778749D01*
X217822491Y-133487866D01*
X218069866Y-133240491D01*
X218360749Y-133046129D01*
X218494628Y-132990675D01*
X218683961Y-132912250D01*
X219027078Y-132844000D01*
X219376922Y-132844000D01*
X219720039Y-132912250D01*
X219720039Y-132912250D01*
G37*
G36*
X214640039Y-132912250D02*
G01*
X214829372Y-132990675D01*
X214963251Y-133046129D01*
X215254134Y-133240491D01*
X215501509Y-133487866D01*
X215695871Y-133778749D01*
X215695871Y-133778750D01*
X215829750Y-134101961D01*
X215898000Y-134445078D01*
X215898000Y-134794922D01*
X215829750Y-135138039D01*
X215751325Y-135327372D01*
X215695871Y-135461251D01*
X215501509Y-135752134D01*
X215254134Y-135999509D01*
X214963251Y-136193871D01*
X214829372Y-136249325D01*
X214640039Y-136327750D01*
X214296922Y-136396000D01*
X213947078Y-136396000D01*
X213603961Y-136327750D01*
X213414628Y-136249325D01*
X213280749Y-136193871D01*
X212989866Y-135999509D01*
X212742491Y-135752134D01*
X212548129Y-135461251D01*
X212492675Y-135327372D01*
X212414250Y-135138039D01*
X212346000Y-134794922D01*
X212346000Y-134445078D01*
X212414250Y-134101961D01*
X212548129Y-133778750D01*
X212548129Y-133778749D01*
X212742491Y-133487866D01*
X212989866Y-133240491D01*
X213280749Y-133046129D01*
X213414628Y-132990675D01*
X213603961Y-132912250D01*
X213947078Y-132844000D01*
X214296922Y-132844000D01*
X214640039Y-132912250D01*
X214640039Y-132912250D01*
G37*
G36*
X201940039Y-132912250D02*
G01*
X202129372Y-132990675D01*
X202263251Y-133046129D01*
X202554134Y-133240491D01*
X202801509Y-133487866D01*
X202995871Y-133778749D01*
X202995871Y-133778750D01*
X203129750Y-134101961D01*
X203198000Y-134445078D01*
X203198000Y-134794922D01*
X203129750Y-135138039D01*
X203051325Y-135327372D01*
X202995871Y-135461251D01*
X202801509Y-135752134D01*
X202554134Y-135999509D01*
X202263251Y-136193871D01*
X202129372Y-136249325D01*
X201940039Y-136327750D01*
X201596922Y-136396000D01*
X201247078Y-136396000D01*
X200903961Y-136327750D01*
X200714628Y-136249325D01*
X200580749Y-136193871D01*
X200289866Y-135999509D01*
X200042491Y-135752134D01*
X199848129Y-135461251D01*
X199792675Y-135327372D01*
X199714250Y-135138039D01*
X199646000Y-134794922D01*
X199646000Y-134445078D01*
X199714250Y-134101961D01*
X199848129Y-133778750D01*
X199848129Y-133778749D01*
X200042491Y-133487866D01*
X200289866Y-133240491D01*
X200580749Y-133046129D01*
X200714628Y-132990675D01*
X200903961Y-132912250D01*
X201247078Y-132844000D01*
X201596922Y-132844000D01*
X201940039Y-132912250D01*
X201940039Y-132912250D01*
G37*
G36*
X196860039Y-132912250D02*
G01*
X197049372Y-132990675D01*
X197183251Y-133046129D01*
X197474134Y-133240491D01*
X197721509Y-133487866D01*
X197915871Y-133778749D01*
X197915871Y-133778750D01*
X198049750Y-134101961D01*
X198118000Y-134445078D01*
X198118000Y-134794922D01*
X198049750Y-135138039D01*
X197971325Y-135327372D01*
X197915871Y-135461251D01*
X197721509Y-135752134D01*
X197474134Y-135999509D01*
X197183251Y-136193871D01*
X197049372Y-136249325D01*
X196860039Y-136327750D01*
X196516922Y-136396000D01*
X196167078Y-136396000D01*
X195823961Y-136327750D01*
X195634628Y-136249325D01*
X195500749Y-136193871D01*
X195209866Y-135999509D01*
X194962491Y-135752134D01*
X194768129Y-135461251D01*
X194712675Y-135327372D01*
X194634250Y-135138039D01*
X194566000Y-134794922D01*
X194566000Y-134445078D01*
X194634250Y-134101961D01*
X194768129Y-133778750D01*
X194768129Y-133778749D01*
X194962491Y-133487866D01*
X195209866Y-133240491D01*
X195500749Y-133046129D01*
X195634628Y-132990675D01*
X195823961Y-132912250D01*
X196167078Y-132844000D01*
X196516922Y-132844000D01*
X196860039Y-132912250D01*
X196860039Y-132912250D01*
G37*
G36*
X184160039Y-132912250D02*
G01*
X184349372Y-132990675D01*
X184483251Y-133046129D01*
X184774134Y-133240491D01*
X185021509Y-133487866D01*
X185215871Y-133778749D01*
X185215871Y-133778750D01*
X185349750Y-134101961D01*
X185418000Y-134445078D01*
X185418000Y-134794922D01*
X185349750Y-135138039D01*
X185271325Y-135327372D01*
X185215871Y-135461251D01*
X185021509Y-135752134D01*
X184774134Y-135999509D01*
X184483251Y-136193871D01*
X184349372Y-136249325D01*
X184160039Y-136327750D01*
X183816922Y-136396000D01*
X183467078Y-136396000D01*
X183123961Y-136327750D01*
X182934628Y-136249325D01*
X182800749Y-136193871D01*
X182509866Y-135999509D01*
X182262491Y-135752134D01*
X182068129Y-135461251D01*
X182012675Y-135327372D01*
X181934250Y-135138039D01*
X181866000Y-134794922D01*
X181866000Y-134445078D01*
X181934250Y-134101961D01*
X182068129Y-133778750D01*
X182068129Y-133778749D01*
X182262491Y-133487866D01*
X182509866Y-133240491D01*
X182800749Y-133046129D01*
X182934628Y-132990675D01*
X183123961Y-132912250D01*
X183467078Y-132844000D01*
X183816922Y-132844000D01*
X184160039Y-132912250D01*
X184160039Y-132912250D01*
G37*
G36*
X179080039Y-132912250D02*
G01*
X179269372Y-132990675D01*
X179403251Y-133046129D01*
X179694134Y-133240491D01*
X179941509Y-133487866D01*
X180135871Y-133778749D01*
X180135871Y-133778750D01*
X180269750Y-134101961D01*
X180338000Y-134445078D01*
X180338000Y-134794922D01*
X180269750Y-135138039D01*
X180191325Y-135327372D01*
X180135871Y-135461251D01*
X179941509Y-135752134D01*
X179694134Y-135999509D01*
X179403251Y-136193871D01*
X179269372Y-136249325D01*
X179080039Y-136327750D01*
X178736922Y-136396000D01*
X178387078Y-136396000D01*
X178043961Y-136327750D01*
X177854628Y-136249325D01*
X177720749Y-136193871D01*
X177429866Y-135999509D01*
X177182491Y-135752134D01*
X176988129Y-135461251D01*
X176932675Y-135327372D01*
X176854250Y-135138039D01*
X176786000Y-134794922D01*
X176786000Y-134445078D01*
X176854250Y-134101961D01*
X176988129Y-133778750D01*
X176988129Y-133778749D01*
X177182491Y-133487866D01*
X177429866Y-133240491D01*
X177720749Y-133046129D01*
X177854628Y-132990675D01*
X178043961Y-132912250D01*
X178387078Y-132844000D01*
X178736922Y-132844000D01*
X179080039Y-132912250D01*
X179080039Y-132912250D01*
G37*
G36*
X166380039Y-132912250D02*
G01*
X166569372Y-132990675D01*
X166703251Y-133046129D01*
X166994134Y-133240491D01*
X167241509Y-133487866D01*
X167435871Y-133778749D01*
X167435871Y-133778750D01*
X167569750Y-134101961D01*
X167638000Y-134445078D01*
X167638000Y-134794922D01*
X167569750Y-135138039D01*
X167491325Y-135327372D01*
X167435871Y-135461251D01*
X167241509Y-135752134D01*
X166994134Y-135999509D01*
X166703251Y-136193871D01*
X166569372Y-136249325D01*
X166380039Y-136327750D01*
X166036922Y-136396000D01*
X165687078Y-136396000D01*
X165343961Y-136327750D01*
X165154628Y-136249325D01*
X165020749Y-136193871D01*
X164729866Y-135999509D01*
X164482491Y-135752134D01*
X164288129Y-135461251D01*
X164232675Y-135327372D01*
X164154250Y-135138039D01*
X164086000Y-134794922D01*
X164086000Y-134445078D01*
X164154250Y-134101961D01*
X164288129Y-133778750D01*
X164288129Y-133778749D01*
X164482491Y-133487866D01*
X164729866Y-133240491D01*
X165020749Y-133046129D01*
X165154628Y-132990675D01*
X165343961Y-132912250D01*
X165687078Y-132844000D01*
X166036922Y-132844000D01*
X166380039Y-132912250D01*
X166380039Y-132912250D01*
G37*
G36*
X161300039Y-132912250D02*
G01*
X161489372Y-132990675D01*
X161623251Y-133046129D01*
X161914134Y-133240491D01*
X162161509Y-133487866D01*
X162355871Y-133778749D01*
X162355871Y-133778750D01*
X162489750Y-134101961D01*
X162558000Y-134445078D01*
X162558000Y-134794922D01*
X162489750Y-135138039D01*
X162411325Y-135327372D01*
X162355871Y-135461251D01*
X162161509Y-135752134D01*
X161914134Y-135999509D01*
X161623251Y-136193871D01*
X161489372Y-136249325D01*
X161300039Y-136327750D01*
X160956922Y-136396000D01*
X160607078Y-136396000D01*
X160263961Y-136327750D01*
X160074628Y-136249325D01*
X159940749Y-136193871D01*
X159649866Y-135999509D01*
X159402491Y-135752134D01*
X159208129Y-135461251D01*
X159152675Y-135327372D01*
X159074250Y-135138039D01*
X159006000Y-134794922D01*
X159006000Y-134445078D01*
X159074250Y-134101961D01*
X159208129Y-133778750D01*
X159208129Y-133778749D01*
X159402491Y-133487866D01*
X159649866Y-133240491D01*
X159940749Y-133046129D01*
X160074628Y-132990675D01*
X160263961Y-132912250D01*
X160607078Y-132844000D01*
X160956922Y-132844000D01*
X161300039Y-132912250D01*
X161300039Y-132912250D01*
G37*
G36*
X148600039Y-132912250D02*
G01*
X148789372Y-132990675D01*
X148923251Y-133046129D01*
X149214134Y-133240491D01*
X149461509Y-133487866D01*
X149655871Y-133778749D01*
X149655871Y-133778750D01*
X149789750Y-134101961D01*
X149858000Y-134445078D01*
X149858000Y-134794922D01*
X149789750Y-135138039D01*
X149711325Y-135327372D01*
X149655871Y-135461251D01*
X149461509Y-135752134D01*
X149214134Y-135999509D01*
X148923251Y-136193871D01*
X148789372Y-136249325D01*
X148600039Y-136327750D01*
X148256922Y-136396000D01*
X147907078Y-136396000D01*
X147563961Y-136327750D01*
X147374628Y-136249325D01*
X147240749Y-136193871D01*
X146949866Y-135999509D01*
X146702491Y-135752134D01*
X146508129Y-135461251D01*
X146452675Y-135327372D01*
X146374250Y-135138039D01*
X146306000Y-134794922D01*
X146306000Y-134445078D01*
X146374250Y-134101961D01*
X146508129Y-133778750D01*
X146508129Y-133778749D01*
X146702491Y-133487866D01*
X146949866Y-133240491D01*
X147240749Y-133046129D01*
X147374628Y-132990675D01*
X147563961Y-132912250D01*
X147907078Y-132844000D01*
X148256922Y-132844000D01*
X148600039Y-132912250D01*
X148600039Y-132912250D01*
G37*
G36*
X143520039Y-132912250D02*
G01*
X143709372Y-132990675D01*
X143843251Y-133046129D01*
X144134134Y-133240491D01*
X144381509Y-133487866D01*
X144575871Y-133778749D01*
X144575871Y-133778750D01*
X144709750Y-134101961D01*
X144778000Y-134445078D01*
X144778000Y-134794922D01*
X144709750Y-135138039D01*
X144631325Y-135327372D01*
X144575871Y-135461251D01*
X144381509Y-135752134D01*
X144134134Y-135999509D01*
X143843251Y-136193871D01*
X143709372Y-136249325D01*
X143520039Y-136327750D01*
X143176922Y-136396000D01*
X142827078Y-136396000D01*
X142483961Y-136327750D01*
X142294628Y-136249325D01*
X142160749Y-136193871D01*
X141869866Y-135999509D01*
X141622491Y-135752134D01*
X141428129Y-135461251D01*
X141372675Y-135327372D01*
X141294250Y-135138039D01*
X141226000Y-134794922D01*
X141226000Y-134445078D01*
X141294250Y-134101961D01*
X141428129Y-133778750D01*
X141428129Y-133778749D01*
X141622491Y-133487866D01*
X141869866Y-133240491D01*
X142160749Y-133046129D01*
X142294628Y-132990675D01*
X142483961Y-132912250D01*
X142827078Y-132844000D01*
X143176922Y-132844000D01*
X143520039Y-132912250D01*
X143520039Y-132912250D01*
G37*
M02*
