G04 #@! TF.GenerationSoftware,KiCad,Pcbnew,(5.1.4)-1*
G04 #@! TF.CreationDate,2019-11-22T15:53:41-06:00*
G04 #@! TF.ProjectId,DriveBoard2020,44726976-6542-46f6-9172-64323032302e,rev?*
G04 #@! TF.SameCoordinates,Original*
G04 #@! TF.FileFunction,Copper,L2,Bot*
G04 #@! TF.FilePolarity,Positive*
%FSLAX46Y46*%
G04 Gerber Fmt 4.6, Leading zero omitted, Abs format (unit mm)*
G04 Created by KiCad (PCBNEW (5.1.4)-1) date 2019-11-22 15:53:41*
%MOMM*%
%LPD*%
G04 APERTURE LIST*
%ADD10C,1.520000*%
%ADD11C,1.524000*%
%ADD12R,1.500000X2.500000*%
%ADD13O,1.500000X2.500000*%
%ADD14O,2.200000X3.500000*%
%ADD15C,5.080000*%
%ADD16C,2.000000*%
%ADD17C,0.800000*%
%ADD18C,0.250000*%
G04 APERTURE END LIST*
D10*
X137858500Y-109093000D03*
X160718500Y-63373000D03*
X158178500Y-63373000D03*
X150558500Y-63373000D03*
X148018500Y-106553000D03*
X153098500Y-63373000D03*
X155638500Y-63373000D03*
X153098500Y-109093000D03*
X158178500Y-106553000D03*
X148018500Y-63373000D03*
X145478500Y-63373000D03*
X158178500Y-109093000D03*
X153098500Y-106553000D03*
X150558500Y-106553000D03*
X137858500Y-106553000D03*
X140398500Y-106553000D03*
X142938500Y-106553000D03*
X145478500Y-106553000D03*
X155638500Y-106553000D03*
X160718500Y-106553000D03*
X140398500Y-109093000D03*
X142938500Y-109093000D03*
X145478500Y-109093000D03*
X148018500Y-109093000D03*
X150558500Y-109093000D03*
X155638500Y-109093000D03*
X160718500Y-109093000D03*
X137858500Y-65913000D03*
X140398500Y-65913000D03*
X142938500Y-65913000D03*
X145478500Y-65913000D03*
X148018500Y-65913000D03*
X150558500Y-65913000D03*
X153098500Y-65913000D03*
X155638500Y-65913000D03*
X158178500Y-65913000D03*
X160718500Y-65913000D03*
X137858500Y-63373000D03*
X140398500Y-63373000D03*
X142938500Y-63373000D03*
X74358500Y-106553000D03*
X76898500Y-106553000D03*
X79438500Y-106553000D03*
X81978500Y-106553000D03*
X84518500Y-106553000D03*
X87058500Y-106553000D03*
X89598500Y-106553000D03*
X92138500Y-106553000D03*
X94678500Y-106553000D03*
X97218500Y-106553000D03*
X74358500Y-109093000D03*
X76898500Y-109093000D03*
X79438500Y-109093000D03*
X81978500Y-109093000D03*
X84518500Y-109093000D03*
X87058500Y-109093000D03*
X89598500Y-109093000D03*
X92138500Y-109093000D03*
X94678500Y-109093000D03*
X97218500Y-109093000D03*
X74358500Y-65913000D03*
X76898500Y-65913000D03*
X79438500Y-65913000D03*
X81978500Y-65913000D03*
X84518500Y-65913000D03*
X87058500Y-65913000D03*
X89598500Y-65913000D03*
X92138500Y-65913000D03*
X94678500Y-65913000D03*
X97218500Y-65913000D03*
X74358500Y-63373000D03*
X76898500Y-63373000D03*
X79438500Y-63373000D03*
X81978500Y-63373000D03*
X84518500Y-63373000D03*
X87058500Y-63373000D03*
X89598500Y-63373000D03*
X92138500Y-63373000D03*
X94678500Y-63373000D03*
X97218500Y-63373000D03*
D11*
X89027000Y-54610000D03*
X89027000Y-52070000D03*
X89027000Y-49530000D03*
X89027000Y-31750000D03*
X89027000Y-34290000D03*
X89027000Y-36830000D03*
D12*
X160020000Y-58420000D03*
D13*
X158020000Y-58420000D03*
X156020000Y-58420000D03*
D14*
X162120000Y-58420000D03*
X153920000Y-58420000D03*
D11*
X193484500Y-67691000D03*
X193484500Y-65151000D03*
X193484500Y-62611000D03*
X193484500Y-60071000D03*
X193484500Y-57531000D03*
X184721500Y-58039000D03*
X184721500Y-60579000D03*
X184721500Y-63119000D03*
X184721500Y-65659000D03*
X184721500Y-68199000D03*
X175323500Y-68199000D03*
X175323500Y-65659000D03*
X175323500Y-63119000D03*
X175323500Y-60579000D03*
X175323500Y-58039000D03*
X193357500Y-73406000D03*
X193357500Y-75946000D03*
X193357500Y-78486000D03*
X193357500Y-81026000D03*
X193357500Y-83566000D03*
X184721500Y-73533000D03*
X184721500Y-76073000D03*
X184721500Y-78613000D03*
X184721500Y-81153000D03*
X184721500Y-83693000D03*
X175323500Y-83693000D03*
X175323500Y-81153000D03*
X175323500Y-78613000D03*
X175323500Y-76073000D03*
X175323500Y-73533000D03*
D15*
X91211400Y-82931000D03*
X91211400Y-75057000D03*
D11*
X99314000Y-46482000D03*
X96774000Y-46482000D03*
X117348000Y-46482000D03*
X119888000Y-46482000D03*
X106934000Y-46482000D03*
X109474000Y-46482000D03*
D16*
X107442000Y-83559116D03*
X122682000Y-83559116D03*
X107442000Y-86099116D03*
X122682000Y-86099116D03*
X107442000Y-78479116D03*
X122682000Y-60953116D03*
X122682000Y-58413116D03*
X107442000Y-60953116D03*
X107442000Y-58413116D03*
D15*
X91211400Y-99695000D03*
X91211400Y-91821000D03*
D17*
X146050000Y-104140000D03*
X195580000Y-88900000D03*
X138430000Y-95250000D03*
X139739269Y-93940731D03*
X152170990Y-95903990D03*
X186690000Y-87630000D03*
X149860000Y-95250000D03*
X151201153Y-93908847D03*
X163332510Y-95178990D03*
X177800000Y-87630000D03*
X161196943Y-94079248D03*
X162854153Y-93685847D03*
X92710000Y-55880000D03*
X127000000Y-71120000D03*
X161290000Y-68580000D03*
X139700000Y-69850000D03*
X152400000Y-69850000D03*
X140589000Y-80772000D03*
X157351970Y-80773030D03*
X168185000Y-80845490D03*
X128524000Y-80772000D03*
X168910000Y-78740000D03*
X168910000Y-62230000D03*
X170180000Y-74930000D03*
X175323500Y-73533000D03*
X170180000Y-58420000D03*
X162560000Y-80010000D03*
X161290000Y-82550000D03*
X179070000Y-82550000D03*
X151855001Y-79284999D03*
X144780000Y-85090000D03*
X187960000Y-85090000D03*
X97790000Y-97790000D03*
X100330000Y-95250000D03*
X109220000Y-58420000D03*
X115570000Y-58420000D03*
X99060000Y-106680000D03*
X113030000Y-106680000D03*
X99060000Y-109220000D03*
X121983500Y-109220000D03*
X99060000Y-104140000D03*
X104076500Y-104140000D03*
X93408500Y-53911500D03*
X126301500Y-55245000D03*
D18*
X146050000Y-104140000D02*
X163830000Y-104140000D01*
X163830000Y-104140000D02*
X179070000Y-88900000D01*
X179070000Y-88900000D02*
X190500000Y-88900000D01*
X190500000Y-88900000D02*
X195580000Y-88900000D01*
X138430000Y-95250000D02*
X139739269Y-93940731D01*
X152170990Y-95903990D02*
X170796010Y-95903990D01*
X170796010Y-95903990D02*
X179070000Y-87630000D01*
X179070000Y-87630000D02*
X182880000Y-87630000D01*
X182880000Y-87630000D02*
X186690000Y-87630000D01*
X149860000Y-95250000D02*
X151201153Y-93908847D01*
X163332510Y-95178990D02*
X168981010Y-95178990D01*
X168981010Y-95178990D02*
X170251010Y-95178990D01*
X170251010Y-95178990D02*
X177800000Y-87630000D01*
X161196943Y-94079248D02*
X162460752Y-94079248D01*
X162460752Y-94079248D02*
X162854153Y-93685847D01*
X92710000Y-55880000D02*
X107950000Y-71120000D01*
X125730000Y-71120000D02*
X128270000Y-68580000D01*
X125730000Y-71120000D02*
X127000000Y-71120000D01*
X107950000Y-71120000D02*
X125730000Y-71120000D01*
X128270000Y-68580000D02*
X137160000Y-68580000D01*
X149860000Y-68580000D02*
X161290000Y-68580000D01*
X137160000Y-68580000D02*
X149860000Y-68580000D01*
X137160000Y-68580000D02*
X138430000Y-68580000D01*
X138430000Y-68580000D02*
X139700000Y-69850000D01*
X149860000Y-68580000D02*
X151130000Y-68580000D01*
X151130000Y-68580000D02*
X152400000Y-69850000D01*
X157424430Y-80845490D02*
X157351970Y-80773030D01*
X168185000Y-80845490D02*
X157424430Y-80845490D01*
X140590030Y-80773030D02*
X140589000Y-80772000D01*
X157351970Y-80773030D02*
X140590030Y-80773030D01*
X140589000Y-80772000D02*
X140023315Y-80772000D01*
X140023315Y-80772000D02*
X128524000Y-80772000D01*
X172656500Y-78740000D02*
X175323500Y-76073000D01*
X168910000Y-78740000D02*
X172656500Y-78740000D01*
X173672500Y-62230000D02*
X175323500Y-60579000D01*
X168910000Y-62230000D02*
X173672500Y-62230000D01*
X170180000Y-74930000D02*
X173926500Y-74930000D01*
X173926500Y-74930000D02*
X175323500Y-73533000D01*
X174942500Y-58420000D02*
X175323500Y-58039000D01*
X170180000Y-58420000D02*
X174942500Y-58420000D01*
X180784500Y-80010000D02*
X184721500Y-76073000D01*
X162560000Y-80010000D02*
X180784500Y-80010000D01*
X161290000Y-82550000D02*
X179070000Y-82550000D01*
X192595501Y-74167999D02*
X193357500Y-73406000D01*
X192143499Y-74620001D02*
X192595501Y-74167999D01*
X179485737Y-77160001D02*
X182025737Y-74620001D01*
X175167737Y-77160001D02*
X179485737Y-77160001D01*
X172767748Y-79559990D02*
X175167737Y-77160001D01*
X164649990Y-79559990D02*
X172767748Y-79559990D01*
X164374999Y-79284999D02*
X164649990Y-79559990D01*
X151855001Y-79284999D02*
X164374999Y-79284999D01*
X190190001Y-60825499D02*
X193484500Y-57531000D01*
X190190001Y-74620001D02*
X190190001Y-60825499D01*
X190190001Y-74620001D02*
X192143499Y-74620001D01*
X182025737Y-74620001D02*
X190190001Y-74620001D01*
X144780000Y-85090000D02*
X187960000Y-85090000D01*
X97790000Y-97790000D02*
X100330000Y-95250000D01*
X109220000Y-58420000D02*
X115570000Y-58420000D01*
X113030000Y-106680000D02*
X99060000Y-106680000D01*
X115570000Y-109220000D02*
X99060000Y-109220000D01*
X115570000Y-109220000D02*
X121983500Y-109220000D01*
X99060000Y-104140000D02*
X104076500Y-104140000D01*
X93408500Y-54477185D02*
X94176315Y-55245000D01*
X93408500Y-53911500D02*
X93408500Y-54477185D01*
X94176315Y-55245000D02*
X126301500Y-55245000D01*
M02*
