G04 #@! TF.GenerationSoftware,KiCad,Pcbnew,(5.1.4)-1*
G04 #@! TF.CreationDate,2019-11-22T15:53:41-06:00*
G04 #@! TF.ProjectId,DriveBoard2020,44726976-6542-46f6-9172-64323032302e,rev?*
G04 #@! TF.SameCoordinates,Original*
G04 #@! TF.FileFunction,Soldermask,Bot*
G04 #@! TF.FilePolarity,Negative*
%FSLAX46Y46*%
G04 Gerber Fmt 4.6, Leading zero omitted, Abs format (unit mm)*
G04 Created by KiCad (PCBNEW (5.1.4)-1) date 2019-11-22 15:53:41*
%MOMM*%
%LPD*%
G04 APERTURE LIST*
%ADD10C,0.100000*%
G04 APERTURE END LIST*
D10*
G36*
X97455060Y-108313166D02*
G01*
X97602653Y-108374301D01*
X97735482Y-108463055D01*
X97848445Y-108576018D01*
X97937199Y-108708847D01*
X97998334Y-108856440D01*
X98029500Y-109013123D01*
X98029500Y-109172877D01*
X97998334Y-109329560D01*
X97937199Y-109477153D01*
X97848445Y-109609982D01*
X97735482Y-109722945D01*
X97602653Y-109811699D01*
X97602652Y-109811700D01*
X97602651Y-109811700D01*
X97455060Y-109872834D01*
X97298378Y-109904000D01*
X97138622Y-109904000D01*
X96981940Y-109872834D01*
X96834349Y-109811700D01*
X96834348Y-109811700D01*
X96834347Y-109811699D01*
X96701518Y-109722945D01*
X96588555Y-109609982D01*
X96499801Y-109477153D01*
X96438666Y-109329560D01*
X96407500Y-109172877D01*
X96407500Y-109013123D01*
X96438666Y-108856440D01*
X96499801Y-108708847D01*
X96588555Y-108576018D01*
X96701518Y-108463055D01*
X96834347Y-108374301D01*
X96981940Y-108313166D01*
X97138622Y-108282000D01*
X97298378Y-108282000D01*
X97455060Y-108313166D01*
X97455060Y-108313166D01*
G37*
G36*
X160955060Y-108313166D02*
G01*
X161102653Y-108374301D01*
X161235482Y-108463055D01*
X161348445Y-108576018D01*
X161437199Y-108708847D01*
X161498334Y-108856440D01*
X161529500Y-109013123D01*
X161529500Y-109172877D01*
X161498334Y-109329560D01*
X161437199Y-109477153D01*
X161348445Y-109609982D01*
X161235482Y-109722945D01*
X161102653Y-109811699D01*
X161102652Y-109811700D01*
X161102651Y-109811700D01*
X160955060Y-109872834D01*
X160798378Y-109904000D01*
X160638622Y-109904000D01*
X160481940Y-109872834D01*
X160334349Y-109811700D01*
X160334348Y-109811700D01*
X160334347Y-109811699D01*
X160201518Y-109722945D01*
X160088555Y-109609982D01*
X159999801Y-109477153D01*
X159938666Y-109329560D01*
X159907500Y-109172877D01*
X159907500Y-109013123D01*
X159938666Y-108856440D01*
X159999801Y-108708847D01*
X160088555Y-108576018D01*
X160201518Y-108463055D01*
X160334347Y-108374301D01*
X160481940Y-108313166D01*
X160638622Y-108282000D01*
X160798378Y-108282000D01*
X160955060Y-108313166D01*
X160955060Y-108313166D01*
G37*
G36*
X138095060Y-108313166D02*
G01*
X138242653Y-108374301D01*
X138375482Y-108463055D01*
X138488445Y-108576018D01*
X138577199Y-108708847D01*
X138638334Y-108856440D01*
X138669500Y-109013123D01*
X138669500Y-109172877D01*
X138638334Y-109329560D01*
X138577199Y-109477153D01*
X138488445Y-109609982D01*
X138375482Y-109722945D01*
X138242653Y-109811699D01*
X138242652Y-109811700D01*
X138242651Y-109811700D01*
X138095060Y-109872834D01*
X137938378Y-109904000D01*
X137778622Y-109904000D01*
X137621940Y-109872834D01*
X137474349Y-109811700D01*
X137474348Y-109811700D01*
X137474347Y-109811699D01*
X137341518Y-109722945D01*
X137228555Y-109609982D01*
X137139801Y-109477153D01*
X137078666Y-109329560D01*
X137047500Y-109172877D01*
X137047500Y-109013123D01*
X137078666Y-108856440D01*
X137139801Y-108708847D01*
X137228555Y-108576018D01*
X137341518Y-108463055D01*
X137474347Y-108374301D01*
X137621940Y-108313166D01*
X137778622Y-108282000D01*
X137938378Y-108282000D01*
X138095060Y-108313166D01*
X138095060Y-108313166D01*
G37*
G36*
X153335060Y-108313166D02*
G01*
X153482653Y-108374301D01*
X153615482Y-108463055D01*
X153728445Y-108576018D01*
X153817199Y-108708847D01*
X153878334Y-108856440D01*
X153909500Y-109013123D01*
X153909500Y-109172877D01*
X153878334Y-109329560D01*
X153817199Y-109477153D01*
X153728445Y-109609982D01*
X153615482Y-109722945D01*
X153482653Y-109811699D01*
X153482652Y-109811700D01*
X153482651Y-109811700D01*
X153335060Y-109872834D01*
X153178378Y-109904000D01*
X153018622Y-109904000D01*
X152861940Y-109872834D01*
X152714349Y-109811700D01*
X152714348Y-109811700D01*
X152714347Y-109811699D01*
X152581518Y-109722945D01*
X152468555Y-109609982D01*
X152379801Y-109477153D01*
X152318666Y-109329560D01*
X152287500Y-109172877D01*
X152287500Y-109013123D01*
X152318666Y-108856440D01*
X152379801Y-108708847D01*
X152468555Y-108576018D01*
X152581518Y-108463055D01*
X152714347Y-108374301D01*
X152861940Y-108313166D01*
X153018622Y-108282000D01*
X153178378Y-108282000D01*
X153335060Y-108313166D01*
X153335060Y-108313166D01*
G37*
G36*
X158415060Y-108313166D02*
G01*
X158562653Y-108374301D01*
X158695482Y-108463055D01*
X158808445Y-108576018D01*
X158897199Y-108708847D01*
X158958334Y-108856440D01*
X158989500Y-109013123D01*
X158989500Y-109172877D01*
X158958334Y-109329560D01*
X158897199Y-109477153D01*
X158808445Y-109609982D01*
X158695482Y-109722945D01*
X158562653Y-109811699D01*
X158562652Y-109811700D01*
X158562651Y-109811700D01*
X158415060Y-109872834D01*
X158258378Y-109904000D01*
X158098622Y-109904000D01*
X157941940Y-109872834D01*
X157794349Y-109811700D01*
X157794348Y-109811700D01*
X157794347Y-109811699D01*
X157661518Y-109722945D01*
X157548555Y-109609982D01*
X157459801Y-109477153D01*
X157398666Y-109329560D01*
X157367500Y-109172877D01*
X157367500Y-109013123D01*
X157398666Y-108856440D01*
X157459801Y-108708847D01*
X157548555Y-108576018D01*
X157661518Y-108463055D01*
X157794347Y-108374301D01*
X157941940Y-108313166D01*
X158098622Y-108282000D01*
X158258378Y-108282000D01*
X158415060Y-108313166D01*
X158415060Y-108313166D01*
G37*
G36*
X140635060Y-108313166D02*
G01*
X140782653Y-108374301D01*
X140915482Y-108463055D01*
X141028445Y-108576018D01*
X141117199Y-108708847D01*
X141178334Y-108856440D01*
X141209500Y-109013123D01*
X141209500Y-109172877D01*
X141178334Y-109329560D01*
X141117199Y-109477153D01*
X141028445Y-109609982D01*
X140915482Y-109722945D01*
X140782653Y-109811699D01*
X140782652Y-109811700D01*
X140782651Y-109811700D01*
X140635060Y-109872834D01*
X140478378Y-109904000D01*
X140318622Y-109904000D01*
X140161940Y-109872834D01*
X140014349Y-109811700D01*
X140014348Y-109811700D01*
X140014347Y-109811699D01*
X139881518Y-109722945D01*
X139768555Y-109609982D01*
X139679801Y-109477153D01*
X139618666Y-109329560D01*
X139587500Y-109172877D01*
X139587500Y-109013123D01*
X139618666Y-108856440D01*
X139679801Y-108708847D01*
X139768555Y-108576018D01*
X139881518Y-108463055D01*
X140014347Y-108374301D01*
X140161940Y-108313166D01*
X140318622Y-108282000D01*
X140478378Y-108282000D01*
X140635060Y-108313166D01*
X140635060Y-108313166D01*
G37*
G36*
X143175060Y-108313166D02*
G01*
X143322653Y-108374301D01*
X143455482Y-108463055D01*
X143568445Y-108576018D01*
X143657199Y-108708847D01*
X143718334Y-108856440D01*
X143749500Y-109013123D01*
X143749500Y-109172877D01*
X143718334Y-109329560D01*
X143657199Y-109477153D01*
X143568445Y-109609982D01*
X143455482Y-109722945D01*
X143322653Y-109811699D01*
X143322652Y-109811700D01*
X143322651Y-109811700D01*
X143175060Y-109872834D01*
X143018378Y-109904000D01*
X142858622Y-109904000D01*
X142701940Y-109872834D01*
X142554349Y-109811700D01*
X142554348Y-109811700D01*
X142554347Y-109811699D01*
X142421518Y-109722945D01*
X142308555Y-109609982D01*
X142219801Y-109477153D01*
X142158666Y-109329560D01*
X142127500Y-109172877D01*
X142127500Y-109013123D01*
X142158666Y-108856440D01*
X142219801Y-108708847D01*
X142308555Y-108576018D01*
X142421518Y-108463055D01*
X142554347Y-108374301D01*
X142701940Y-108313166D01*
X142858622Y-108282000D01*
X143018378Y-108282000D01*
X143175060Y-108313166D01*
X143175060Y-108313166D01*
G37*
G36*
X145715060Y-108313166D02*
G01*
X145862653Y-108374301D01*
X145995482Y-108463055D01*
X146108445Y-108576018D01*
X146197199Y-108708847D01*
X146258334Y-108856440D01*
X146289500Y-109013123D01*
X146289500Y-109172877D01*
X146258334Y-109329560D01*
X146197199Y-109477153D01*
X146108445Y-109609982D01*
X145995482Y-109722945D01*
X145862653Y-109811699D01*
X145862652Y-109811700D01*
X145862651Y-109811700D01*
X145715060Y-109872834D01*
X145558378Y-109904000D01*
X145398622Y-109904000D01*
X145241940Y-109872834D01*
X145094349Y-109811700D01*
X145094348Y-109811700D01*
X145094347Y-109811699D01*
X144961518Y-109722945D01*
X144848555Y-109609982D01*
X144759801Y-109477153D01*
X144698666Y-109329560D01*
X144667500Y-109172877D01*
X144667500Y-109013123D01*
X144698666Y-108856440D01*
X144759801Y-108708847D01*
X144848555Y-108576018D01*
X144961518Y-108463055D01*
X145094347Y-108374301D01*
X145241940Y-108313166D01*
X145398622Y-108282000D01*
X145558378Y-108282000D01*
X145715060Y-108313166D01*
X145715060Y-108313166D01*
G37*
G36*
X148255060Y-108313166D02*
G01*
X148402653Y-108374301D01*
X148535482Y-108463055D01*
X148648445Y-108576018D01*
X148737199Y-108708847D01*
X148798334Y-108856440D01*
X148829500Y-109013123D01*
X148829500Y-109172877D01*
X148798334Y-109329560D01*
X148737199Y-109477153D01*
X148648445Y-109609982D01*
X148535482Y-109722945D01*
X148402653Y-109811699D01*
X148402652Y-109811700D01*
X148402651Y-109811700D01*
X148255060Y-109872834D01*
X148098378Y-109904000D01*
X147938622Y-109904000D01*
X147781940Y-109872834D01*
X147634349Y-109811700D01*
X147634348Y-109811700D01*
X147634347Y-109811699D01*
X147501518Y-109722945D01*
X147388555Y-109609982D01*
X147299801Y-109477153D01*
X147238666Y-109329560D01*
X147207500Y-109172877D01*
X147207500Y-109013123D01*
X147238666Y-108856440D01*
X147299801Y-108708847D01*
X147388555Y-108576018D01*
X147501518Y-108463055D01*
X147634347Y-108374301D01*
X147781940Y-108313166D01*
X147938622Y-108282000D01*
X148098378Y-108282000D01*
X148255060Y-108313166D01*
X148255060Y-108313166D01*
G37*
G36*
X150795060Y-108313166D02*
G01*
X150942653Y-108374301D01*
X151075482Y-108463055D01*
X151188445Y-108576018D01*
X151277199Y-108708847D01*
X151338334Y-108856440D01*
X151369500Y-109013123D01*
X151369500Y-109172877D01*
X151338334Y-109329560D01*
X151277199Y-109477153D01*
X151188445Y-109609982D01*
X151075482Y-109722945D01*
X150942653Y-109811699D01*
X150942652Y-109811700D01*
X150942651Y-109811700D01*
X150795060Y-109872834D01*
X150638378Y-109904000D01*
X150478622Y-109904000D01*
X150321940Y-109872834D01*
X150174349Y-109811700D01*
X150174348Y-109811700D01*
X150174347Y-109811699D01*
X150041518Y-109722945D01*
X149928555Y-109609982D01*
X149839801Y-109477153D01*
X149778666Y-109329560D01*
X149747500Y-109172877D01*
X149747500Y-109013123D01*
X149778666Y-108856440D01*
X149839801Y-108708847D01*
X149928555Y-108576018D01*
X150041518Y-108463055D01*
X150174347Y-108374301D01*
X150321940Y-108313166D01*
X150478622Y-108282000D01*
X150638378Y-108282000D01*
X150795060Y-108313166D01*
X150795060Y-108313166D01*
G37*
G36*
X155875060Y-108313166D02*
G01*
X156022653Y-108374301D01*
X156155482Y-108463055D01*
X156268445Y-108576018D01*
X156357199Y-108708847D01*
X156418334Y-108856440D01*
X156449500Y-109013123D01*
X156449500Y-109172877D01*
X156418334Y-109329560D01*
X156357199Y-109477153D01*
X156268445Y-109609982D01*
X156155482Y-109722945D01*
X156022653Y-109811699D01*
X156022652Y-109811700D01*
X156022651Y-109811700D01*
X155875060Y-109872834D01*
X155718378Y-109904000D01*
X155558622Y-109904000D01*
X155401940Y-109872834D01*
X155254349Y-109811700D01*
X155254348Y-109811700D01*
X155254347Y-109811699D01*
X155121518Y-109722945D01*
X155008555Y-109609982D01*
X154919801Y-109477153D01*
X154858666Y-109329560D01*
X154827500Y-109172877D01*
X154827500Y-109013123D01*
X154858666Y-108856440D01*
X154919801Y-108708847D01*
X155008555Y-108576018D01*
X155121518Y-108463055D01*
X155254347Y-108374301D01*
X155401940Y-108313166D01*
X155558622Y-108282000D01*
X155718378Y-108282000D01*
X155875060Y-108313166D01*
X155875060Y-108313166D01*
G37*
G36*
X77135060Y-108313166D02*
G01*
X77282653Y-108374301D01*
X77415482Y-108463055D01*
X77528445Y-108576018D01*
X77617199Y-108708847D01*
X77678334Y-108856440D01*
X77709500Y-109013123D01*
X77709500Y-109172877D01*
X77678334Y-109329560D01*
X77617199Y-109477153D01*
X77528445Y-109609982D01*
X77415482Y-109722945D01*
X77282653Y-109811699D01*
X77282652Y-109811700D01*
X77282651Y-109811700D01*
X77135060Y-109872834D01*
X76978378Y-109904000D01*
X76818622Y-109904000D01*
X76661940Y-109872834D01*
X76514349Y-109811700D01*
X76514348Y-109811700D01*
X76514347Y-109811699D01*
X76381518Y-109722945D01*
X76268555Y-109609982D01*
X76179801Y-109477153D01*
X76118666Y-109329560D01*
X76087500Y-109172877D01*
X76087500Y-109013123D01*
X76118666Y-108856440D01*
X76179801Y-108708847D01*
X76268555Y-108576018D01*
X76381518Y-108463055D01*
X76514347Y-108374301D01*
X76661940Y-108313166D01*
X76818622Y-108282000D01*
X76978378Y-108282000D01*
X77135060Y-108313166D01*
X77135060Y-108313166D01*
G37*
G36*
X79675060Y-108313166D02*
G01*
X79822653Y-108374301D01*
X79955482Y-108463055D01*
X80068445Y-108576018D01*
X80157199Y-108708847D01*
X80218334Y-108856440D01*
X80249500Y-109013123D01*
X80249500Y-109172877D01*
X80218334Y-109329560D01*
X80157199Y-109477153D01*
X80068445Y-109609982D01*
X79955482Y-109722945D01*
X79822653Y-109811699D01*
X79822652Y-109811700D01*
X79822651Y-109811700D01*
X79675060Y-109872834D01*
X79518378Y-109904000D01*
X79358622Y-109904000D01*
X79201940Y-109872834D01*
X79054349Y-109811700D01*
X79054348Y-109811700D01*
X79054347Y-109811699D01*
X78921518Y-109722945D01*
X78808555Y-109609982D01*
X78719801Y-109477153D01*
X78658666Y-109329560D01*
X78627500Y-109172877D01*
X78627500Y-109013123D01*
X78658666Y-108856440D01*
X78719801Y-108708847D01*
X78808555Y-108576018D01*
X78921518Y-108463055D01*
X79054347Y-108374301D01*
X79201940Y-108313166D01*
X79358622Y-108282000D01*
X79518378Y-108282000D01*
X79675060Y-108313166D01*
X79675060Y-108313166D01*
G37*
G36*
X82215060Y-108313166D02*
G01*
X82362653Y-108374301D01*
X82495482Y-108463055D01*
X82608445Y-108576018D01*
X82697199Y-108708847D01*
X82758334Y-108856440D01*
X82789500Y-109013123D01*
X82789500Y-109172877D01*
X82758334Y-109329560D01*
X82697199Y-109477153D01*
X82608445Y-109609982D01*
X82495482Y-109722945D01*
X82362653Y-109811699D01*
X82362652Y-109811700D01*
X82362651Y-109811700D01*
X82215060Y-109872834D01*
X82058378Y-109904000D01*
X81898622Y-109904000D01*
X81741940Y-109872834D01*
X81594349Y-109811700D01*
X81594348Y-109811700D01*
X81594347Y-109811699D01*
X81461518Y-109722945D01*
X81348555Y-109609982D01*
X81259801Y-109477153D01*
X81198666Y-109329560D01*
X81167500Y-109172877D01*
X81167500Y-109013123D01*
X81198666Y-108856440D01*
X81259801Y-108708847D01*
X81348555Y-108576018D01*
X81461518Y-108463055D01*
X81594347Y-108374301D01*
X81741940Y-108313166D01*
X81898622Y-108282000D01*
X82058378Y-108282000D01*
X82215060Y-108313166D01*
X82215060Y-108313166D01*
G37*
G36*
X84755060Y-108313166D02*
G01*
X84902653Y-108374301D01*
X85035482Y-108463055D01*
X85148445Y-108576018D01*
X85237199Y-108708847D01*
X85298334Y-108856440D01*
X85329500Y-109013123D01*
X85329500Y-109172877D01*
X85298334Y-109329560D01*
X85237199Y-109477153D01*
X85148445Y-109609982D01*
X85035482Y-109722945D01*
X84902653Y-109811699D01*
X84902652Y-109811700D01*
X84902651Y-109811700D01*
X84755060Y-109872834D01*
X84598378Y-109904000D01*
X84438622Y-109904000D01*
X84281940Y-109872834D01*
X84134349Y-109811700D01*
X84134348Y-109811700D01*
X84134347Y-109811699D01*
X84001518Y-109722945D01*
X83888555Y-109609982D01*
X83799801Y-109477153D01*
X83738666Y-109329560D01*
X83707500Y-109172877D01*
X83707500Y-109013123D01*
X83738666Y-108856440D01*
X83799801Y-108708847D01*
X83888555Y-108576018D01*
X84001518Y-108463055D01*
X84134347Y-108374301D01*
X84281940Y-108313166D01*
X84438622Y-108282000D01*
X84598378Y-108282000D01*
X84755060Y-108313166D01*
X84755060Y-108313166D01*
G37*
G36*
X87295060Y-108313166D02*
G01*
X87442653Y-108374301D01*
X87575482Y-108463055D01*
X87688445Y-108576018D01*
X87777199Y-108708847D01*
X87838334Y-108856440D01*
X87869500Y-109013123D01*
X87869500Y-109172877D01*
X87838334Y-109329560D01*
X87777199Y-109477153D01*
X87688445Y-109609982D01*
X87575482Y-109722945D01*
X87442653Y-109811699D01*
X87442652Y-109811700D01*
X87442651Y-109811700D01*
X87295060Y-109872834D01*
X87138378Y-109904000D01*
X86978622Y-109904000D01*
X86821940Y-109872834D01*
X86674349Y-109811700D01*
X86674348Y-109811700D01*
X86674347Y-109811699D01*
X86541518Y-109722945D01*
X86428555Y-109609982D01*
X86339801Y-109477153D01*
X86278666Y-109329560D01*
X86247500Y-109172877D01*
X86247500Y-109013123D01*
X86278666Y-108856440D01*
X86339801Y-108708847D01*
X86428555Y-108576018D01*
X86541518Y-108463055D01*
X86674347Y-108374301D01*
X86821940Y-108313166D01*
X86978622Y-108282000D01*
X87138378Y-108282000D01*
X87295060Y-108313166D01*
X87295060Y-108313166D01*
G37*
G36*
X89835060Y-108313166D02*
G01*
X89982653Y-108374301D01*
X90115482Y-108463055D01*
X90228445Y-108576018D01*
X90317199Y-108708847D01*
X90378334Y-108856440D01*
X90409500Y-109013123D01*
X90409500Y-109172877D01*
X90378334Y-109329560D01*
X90317199Y-109477153D01*
X90228445Y-109609982D01*
X90115482Y-109722945D01*
X89982653Y-109811699D01*
X89982652Y-109811700D01*
X89982651Y-109811700D01*
X89835060Y-109872834D01*
X89678378Y-109904000D01*
X89518622Y-109904000D01*
X89361940Y-109872834D01*
X89214349Y-109811700D01*
X89214348Y-109811700D01*
X89214347Y-109811699D01*
X89081518Y-109722945D01*
X88968555Y-109609982D01*
X88879801Y-109477153D01*
X88818666Y-109329560D01*
X88787500Y-109172877D01*
X88787500Y-109013123D01*
X88818666Y-108856440D01*
X88879801Y-108708847D01*
X88968555Y-108576018D01*
X89081518Y-108463055D01*
X89214347Y-108374301D01*
X89361940Y-108313166D01*
X89518622Y-108282000D01*
X89678378Y-108282000D01*
X89835060Y-108313166D01*
X89835060Y-108313166D01*
G37*
G36*
X92375060Y-108313166D02*
G01*
X92522653Y-108374301D01*
X92655482Y-108463055D01*
X92768445Y-108576018D01*
X92857199Y-108708847D01*
X92918334Y-108856440D01*
X92949500Y-109013123D01*
X92949500Y-109172877D01*
X92918334Y-109329560D01*
X92857199Y-109477153D01*
X92768445Y-109609982D01*
X92655482Y-109722945D01*
X92522653Y-109811699D01*
X92522652Y-109811700D01*
X92522651Y-109811700D01*
X92375060Y-109872834D01*
X92218378Y-109904000D01*
X92058622Y-109904000D01*
X91901940Y-109872834D01*
X91754349Y-109811700D01*
X91754348Y-109811700D01*
X91754347Y-109811699D01*
X91621518Y-109722945D01*
X91508555Y-109609982D01*
X91419801Y-109477153D01*
X91358666Y-109329560D01*
X91327500Y-109172877D01*
X91327500Y-109013123D01*
X91358666Y-108856440D01*
X91419801Y-108708847D01*
X91508555Y-108576018D01*
X91621518Y-108463055D01*
X91754347Y-108374301D01*
X91901940Y-108313166D01*
X92058622Y-108282000D01*
X92218378Y-108282000D01*
X92375060Y-108313166D01*
X92375060Y-108313166D01*
G37*
G36*
X94915060Y-108313166D02*
G01*
X95062653Y-108374301D01*
X95195482Y-108463055D01*
X95308445Y-108576018D01*
X95397199Y-108708847D01*
X95458334Y-108856440D01*
X95489500Y-109013123D01*
X95489500Y-109172877D01*
X95458334Y-109329560D01*
X95397199Y-109477153D01*
X95308445Y-109609982D01*
X95195482Y-109722945D01*
X95062653Y-109811699D01*
X95062652Y-109811700D01*
X95062651Y-109811700D01*
X94915060Y-109872834D01*
X94758378Y-109904000D01*
X94598622Y-109904000D01*
X94441940Y-109872834D01*
X94294349Y-109811700D01*
X94294348Y-109811700D01*
X94294347Y-109811699D01*
X94161518Y-109722945D01*
X94048555Y-109609982D01*
X93959801Y-109477153D01*
X93898666Y-109329560D01*
X93867500Y-109172877D01*
X93867500Y-109013123D01*
X93898666Y-108856440D01*
X93959801Y-108708847D01*
X94048555Y-108576018D01*
X94161518Y-108463055D01*
X94294347Y-108374301D01*
X94441940Y-108313166D01*
X94598622Y-108282000D01*
X94758378Y-108282000D01*
X94915060Y-108313166D01*
X94915060Y-108313166D01*
G37*
G36*
X74595060Y-108313166D02*
G01*
X74742653Y-108374301D01*
X74875482Y-108463055D01*
X74988445Y-108576018D01*
X75077199Y-108708847D01*
X75138334Y-108856440D01*
X75169500Y-109013123D01*
X75169500Y-109172877D01*
X75138334Y-109329560D01*
X75077199Y-109477153D01*
X74988445Y-109609982D01*
X74875482Y-109722945D01*
X74742653Y-109811699D01*
X74742652Y-109811700D01*
X74742651Y-109811700D01*
X74595060Y-109872834D01*
X74438378Y-109904000D01*
X74278622Y-109904000D01*
X74121940Y-109872834D01*
X73974349Y-109811700D01*
X73974348Y-109811700D01*
X73974347Y-109811699D01*
X73841518Y-109722945D01*
X73728555Y-109609982D01*
X73639801Y-109477153D01*
X73578666Y-109329560D01*
X73547500Y-109172877D01*
X73547500Y-109013123D01*
X73578666Y-108856440D01*
X73639801Y-108708847D01*
X73728555Y-108576018D01*
X73841518Y-108463055D01*
X73974347Y-108374301D01*
X74121940Y-108313166D01*
X74278622Y-108282000D01*
X74438378Y-108282000D01*
X74595060Y-108313166D01*
X74595060Y-108313166D01*
G37*
G36*
X77135060Y-105773166D02*
G01*
X77282653Y-105834301D01*
X77415482Y-105923055D01*
X77528445Y-106036018D01*
X77617199Y-106168847D01*
X77678334Y-106316440D01*
X77709500Y-106473123D01*
X77709500Y-106632877D01*
X77678334Y-106789560D01*
X77617199Y-106937153D01*
X77528445Y-107069982D01*
X77415482Y-107182945D01*
X77282653Y-107271699D01*
X77282652Y-107271700D01*
X77282651Y-107271700D01*
X77135060Y-107332834D01*
X76978378Y-107364000D01*
X76818622Y-107364000D01*
X76661940Y-107332834D01*
X76514349Y-107271700D01*
X76514348Y-107271700D01*
X76514347Y-107271699D01*
X76381518Y-107182945D01*
X76268555Y-107069982D01*
X76179801Y-106937153D01*
X76118666Y-106789560D01*
X76087500Y-106632877D01*
X76087500Y-106473123D01*
X76118666Y-106316440D01*
X76179801Y-106168847D01*
X76268555Y-106036018D01*
X76381518Y-105923055D01*
X76514347Y-105834301D01*
X76661940Y-105773166D01*
X76818622Y-105742000D01*
X76978378Y-105742000D01*
X77135060Y-105773166D01*
X77135060Y-105773166D01*
G37*
G36*
X150795060Y-105773166D02*
G01*
X150942653Y-105834301D01*
X151075482Y-105923055D01*
X151188445Y-106036018D01*
X151277199Y-106168847D01*
X151338334Y-106316440D01*
X151369500Y-106473123D01*
X151369500Y-106632877D01*
X151338334Y-106789560D01*
X151277199Y-106937153D01*
X151188445Y-107069982D01*
X151075482Y-107182945D01*
X150942653Y-107271699D01*
X150942652Y-107271700D01*
X150942651Y-107271700D01*
X150795060Y-107332834D01*
X150638378Y-107364000D01*
X150478622Y-107364000D01*
X150321940Y-107332834D01*
X150174349Y-107271700D01*
X150174348Y-107271700D01*
X150174347Y-107271699D01*
X150041518Y-107182945D01*
X149928555Y-107069982D01*
X149839801Y-106937153D01*
X149778666Y-106789560D01*
X149747500Y-106632877D01*
X149747500Y-106473123D01*
X149778666Y-106316440D01*
X149839801Y-106168847D01*
X149928555Y-106036018D01*
X150041518Y-105923055D01*
X150174347Y-105834301D01*
X150321940Y-105773166D01*
X150478622Y-105742000D01*
X150638378Y-105742000D01*
X150795060Y-105773166D01*
X150795060Y-105773166D01*
G37*
G36*
X153335060Y-105773166D02*
G01*
X153482653Y-105834301D01*
X153615482Y-105923055D01*
X153728445Y-106036018D01*
X153817199Y-106168847D01*
X153878334Y-106316440D01*
X153909500Y-106473123D01*
X153909500Y-106632877D01*
X153878334Y-106789560D01*
X153817199Y-106937153D01*
X153728445Y-107069982D01*
X153615482Y-107182945D01*
X153482653Y-107271699D01*
X153482652Y-107271700D01*
X153482651Y-107271700D01*
X153335060Y-107332834D01*
X153178378Y-107364000D01*
X153018622Y-107364000D01*
X152861940Y-107332834D01*
X152714349Y-107271700D01*
X152714348Y-107271700D01*
X152714347Y-107271699D01*
X152581518Y-107182945D01*
X152468555Y-107069982D01*
X152379801Y-106937153D01*
X152318666Y-106789560D01*
X152287500Y-106632877D01*
X152287500Y-106473123D01*
X152318666Y-106316440D01*
X152379801Y-106168847D01*
X152468555Y-106036018D01*
X152581518Y-105923055D01*
X152714347Y-105834301D01*
X152861940Y-105773166D01*
X153018622Y-105742000D01*
X153178378Y-105742000D01*
X153335060Y-105773166D01*
X153335060Y-105773166D01*
G37*
G36*
X158415060Y-105773166D02*
G01*
X158562653Y-105834301D01*
X158695482Y-105923055D01*
X158808445Y-106036018D01*
X158897199Y-106168847D01*
X158958334Y-106316440D01*
X158989500Y-106473123D01*
X158989500Y-106632877D01*
X158958334Y-106789560D01*
X158897199Y-106937153D01*
X158808445Y-107069982D01*
X158695482Y-107182945D01*
X158562653Y-107271699D01*
X158562652Y-107271700D01*
X158562651Y-107271700D01*
X158415060Y-107332834D01*
X158258378Y-107364000D01*
X158098622Y-107364000D01*
X157941940Y-107332834D01*
X157794349Y-107271700D01*
X157794348Y-107271700D01*
X157794347Y-107271699D01*
X157661518Y-107182945D01*
X157548555Y-107069982D01*
X157459801Y-106937153D01*
X157398666Y-106789560D01*
X157367500Y-106632877D01*
X157367500Y-106473123D01*
X157398666Y-106316440D01*
X157459801Y-106168847D01*
X157548555Y-106036018D01*
X157661518Y-105923055D01*
X157794347Y-105834301D01*
X157941940Y-105773166D01*
X158098622Y-105742000D01*
X158258378Y-105742000D01*
X158415060Y-105773166D01*
X158415060Y-105773166D01*
G37*
G36*
X79675060Y-105773166D02*
G01*
X79822653Y-105834301D01*
X79955482Y-105923055D01*
X80068445Y-106036018D01*
X80157199Y-106168847D01*
X80218334Y-106316440D01*
X80249500Y-106473123D01*
X80249500Y-106632877D01*
X80218334Y-106789560D01*
X80157199Y-106937153D01*
X80068445Y-107069982D01*
X79955482Y-107182945D01*
X79822653Y-107271699D01*
X79822652Y-107271700D01*
X79822651Y-107271700D01*
X79675060Y-107332834D01*
X79518378Y-107364000D01*
X79358622Y-107364000D01*
X79201940Y-107332834D01*
X79054349Y-107271700D01*
X79054348Y-107271700D01*
X79054347Y-107271699D01*
X78921518Y-107182945D01*
X78808555Y-107069982D01*
X78719801Y-106937153D01*
X78658666Y-106789560D01*
X78627500Y-106632877D01*
X78627500Y-106473123D01*
X78658666Y-106316440D01*
X78719801Y-106168847D01*
X78808555Y-106036018D01*
X78921518Y-105923055D01*
X79054347Y-105834301D01*
X79201940Y-105773166D01*
X79358622Y-105742000D01*
X79518378Y-105742000D01*
X79675060Y-105773166D01*
X79675060Y-105773166D01*
G37*
G36*
X82215060Y-105773166D02*
G01*
X82362653Y-105834301D01*
X82495482Y-105923055D01*
X82608445Y-106036018D01*
X82697199Y-106168847D01*
X82758334Y-106316440D01*
X82789500Y-106473123D01*
X82789500Y-106632877D01*
X82758334Y-106789560D01*
X82697199Y-106937153D01*
X82608445Y-107069982D01*
X82495482Y-107182945D01*
X82362653Y-107271699D01*
X82362652Y-107271700D01*
X82362651Y-107271700D01*
X82215060Y-107332834D01*
X82058378Y-107364000D01*
X81898622Y-107364000D01*
X81741940Y-107332834D01*
X81594349Y-107271700D01*
X81594348Y-107271700D01*
X81594347Y-107271699D01*
X81461518Y-107182945D01*
X81348555Y-107069982D01*
X81259801Y-106937153D01*
X81198666Y-106789560D01*
X81167500Y-106632877D01*
X81167500Y-106473123D01*
X81198666Y-106316440D01*
X81259801Y-106168847D01*
X81348555Y-106036018D01*
X81461518Y-105923055D01*
X81594347Y-105834301D01*
X81741940Y-105773166D01*
X81898622Y-105742000D01*
X82058378Y-105742000D01*
X82215060Y-105773166D01*
X82215060Y-105773166D01*
G37*
G36*
X84755060Y-105773166D02*
G01*
X84902653Y-105834301D01*
X85035482Y-105923055D01*
X85148445Y-106036018D01*
X85237199Y-106168847D01*
X85298334Y-106316440D01*
X85329500Y-106473123D01*
X85329500Y-106632877D01*
X85298334Y-106789560D01*
X85237199Y-106937153D01*
X85148445Y-107069982D01*
X85035482Y-107182945D01*
X84902653Y-107271699D01*
X84902652Y-107271700D01*
X84902651Y-107271700D01*
X84755060Y-107332834D01*
X84598378Y-107364000D01*
X84438622Y-107364000D01*
X84281940Y-107332834D01*
X84134349Y-107271700D01*
X84134348Y-107271700D01*
X84134347Y-107271699D01*
X84001518Y-107182945D01*
X83888555Y-107069982D01*
X83799801Y-106937153D01*
X83738666Y-106789560D01*
X83707500Y-106632877D01*
X83707500Y-106473123D01*
X83738666Y-106316440D01*
X83799801Y-106168847D01*
X83888555Y-106036018D01*
X84001518Y-105923055D01*
X84134347Y-105834301D01*
X84281940Y-105773166D01*
X84438622Y-105742000D01*
X84598378Y-105742000D01*
X84755060Y-105773166D01*
X84755060Y-105773166D01*
G37*
G36*
X87295060Y-105773166D02*
G01*
X87442653Y-105834301D01*
X87575482Y-105923055D01*
X87688445Y-106036018D01*
X87777199Y-106168847D01*
X87838334Y-106316440D01*
X87869500Y-106473123D01*
X87869500Y-106632877D01*
X87838334Y-106789560D01*
X87777199Y-106937153D01*
X87688445Y-107069982D01*
X87575482Y-107182945D01*
X87442653Y-107271699D01*
X87442652Y-107271700D01*
X87442651Y-107271700D01*
X87295060Y-107332834D01*
X87138378Y-107364000D01*
X86978622Y-107364000D01*
X86821940Y-107332834D01*
X86674349Y-107271700D01*
X86674348Y-107271700D01*
X86674347Y-107271699D01*
X86541518Y-107182945D01*
X86428555Y-107069982D01*
X86339801Y-106937153D01*
X86278666Y-106789560D01*
X86247500Y-106632877D01*
X86247500Y-106473123D01*
X86278666Y-106316440D01*
X86339801Y-106168847D01*
X86428555Y-106036018D01*
X86541518Y-105923055D01*
X86674347Y-105834301D01*
X86821940Y-105773166D01*
X86978622Y-105742000D01*
X87138378Y-105742000D01*
X87295060Y-105773166D01*
X87295060Y-105773166D01*
G37*
G36*
X92375060Y-105773166D02*
G01*
X92522653Y-105834301D01*
X92655482Y-105923055D01*
X92768445Y-106036018D01*
X92857199Y-106168847D01*
X92918334Y-106316440D01*
X92949500Y-106473123D01*
X92949500Y-106632877D01*
X92918334Y-106789560D01*
X92857199Y-106937153D01*
X92768445Y-107069982D01*
X92655482Y-107182945D01*
X92522653Y-107271699D01*
X92522652Y-107271700D01*
X92522651Y-107271700D01*
X92375060Y-107332834D01*
X92218378Y-107364000D01*
X92058622Y-107364000D01*
X91901940Y-107332834D01*
X91754349Y-107271700D01*
X91754348Y-107271700D01*
X91754347Y-107271699D01*
X91621518Y-107182945D01*
X91508555Y-107069982D01*
X91419801Y-106937153D01*
X91358666Y-106789560D01*
X91327500Y-106632877D01*
X91327500Y-106473123D01*
X91358666Y-106316440D01*
X91419801Y-106168847D01*
X91508555Y-106036018D01*
X91621518Y-105923055D01*
X91754347Y-105834301D01*
X91901940Y-105773166D01*
X92058622Y-105742000D01*
X92218378Y-105742000D01*
X92375060Y-105773166D01*
X92375060Y-105773166D01*
G37*
G36*
X89835060Y-105773166D02*
G01*
X89982653Y-105834301D01*
X90115482Y-105923055D01*
X90228445Y-106036018D01*
X90317199Y-106168847D01*
X90378334Y-106316440D01*
X90409500Y-106473123D01*
X90409500Y-106632877D01*
X90378334Y-106789560D01*
X90317199Y-106937153D01*
X90228445Y-107069982D01*
X90115482Y-107182945D01*
X89982653Y-107271699D01*
X89982652Y-107271700D01*
X89982651Y-107271700D01*
X89835060Y-107332834D01*
X89678378Y-107364000D01*
X89518622Y-107364000D01*
X89361940Y-107332834D01*
X89214349Y-107271700D01*
X89214348Y-107271700D01*
X89214347Y-107271699D01*
X89081518Y-107182945D01*
X88968555Y-107069982D01*
X88879801Y-106937153D01*
X88818666Y-106789560D01*
X88787500Y-106632877D01*
X88787500Y-106473123D01*
X88818666Y-106316440D01*
X88879801Y-106168847D01*
X88968555Y-106036018D01*
X89081518Y-105923055D01*
X89214347Y-105834301D01*
X89361940Y-105773166D01*
X89518622Y-105742000D01*
X89678378Y-105742000D01*
X89835060Y-105773166D01*
X89835060Y-105773166D01*
G37*
G36*
X160955060Y-105773166D02*
G01*
X161102653Y-105834301D01*
X161235482Y-105923055D01*
X161348445Y-106036018D01*
X161437199Y-106168847D01*
X161498334Y-106316440D01*
X161529500Y-106473123D01*
X161529500Y-106632877D01*
X161498334Y-106789560D01*
X161437199Y-106937153D01*
X161348445Y-107069982D01*
X161235482Y-107182945D01*
X161102653Y-107271699D01*
X161102652Y-107271700D01*
X161102651Y-107271700D01*
X160955060Y-107332834D01*
X160798378Y-107364000D01*
X160638622Y-107364000D01*
X160481940Y-107332834D01*
X160334349Y-107271700D01*
X160334348Y-107271700D01*
X160334347Y-107271699D01*
X160201518Y-107182945D01*
X160088555Y-107069982D01*
X159999801Y-106937153D01*
X159938666Y-106789560D01*
X159907500Y-106632877D01*
X159907500Y-106473123D01*
X159938666Y-106316440D01*
X159999801Y-106168847D01*
X160088555Y-106036018D01*
X160201518Y-105923055D01*
X160334347Y-105834301D01*
X160481940Y-105773166D01*
X160638622Y-105742000D01*
X160798378Y-105742000D01*
X160955060Y-105773166D01*
X160955060Y-105773166D01*
G37*
G36*
X155875060Y-105773166D02*
G01*
X156022653Y-105834301D01*
X156155482Y-105923055D01*
X156268445Y-106036018D01*
X156357199Y-106168847D01*
X156418334Y-106316440D01*
X156449500Y-106473123D01*
X156449500Y-106632877D01*
X156418334Y-106789560D01*
X156357199Y-106937153D01*
X156268445Y-107069982D01*
X156155482Y-107182945D01*
X156022653Y-107271699D01*
X156022652Y-107271700D01*
X156022651Y-107271700D01*
X155875060Y-107332834D01*
X155718378Y-107364000D01*
X155558622Y-107364000D01*
X155401940Y-107332834D01*
X155254349Y-107271700D01*
X155254348Y-107271700D01*
X155254347Y-107271699D01*
X155121518Y-107182945D01*
X155008555Y-107069982D01*
X154919801Y-106937153D01*
X154858666Y-106789560D01*
X154827500Y-106632877D01*
X154827500Y-106473123D01*
X154858666Y-106316440D01*
X154919801Y-106168847D01*
X155008555Y-106036018D01*
X155121518Y-105923055D01*
X155254347Y-105834301D01*
X155401940Y-105773166D01*
X155558622Y-105742000D01*
X155718378Y-105742000D01*
X155875060Y-105773166D01*
X155875060Y-105773166D01*
G37*
G36*
X74595060Y-105773166D02*
G01*
X74742653Y-105834301D01*
X74875482Y-105923055D01*
X74988445Y-106036018D01*
X75077199Y-106168847D01*
X75138334Y-106316440D01*
X75169500Y-106473123D01*
X75169500Y-106632877D01*
X75138334Y-106789560D01*
X75077199Y-106937153D01*
X74988445Y-107069982D01*
X74875482Y-107182945D01*
X74742653Y-107271699D01*
X74742652Y-107271700D01*
X74742651Y-107271700D01*
X74595060Y-107332834D01*
X74438378Y-107364000D01*
X74278622Y-107364000D01*
X74121940Y-107332834D01*
X73974349Y-107271700D01*
X73974348Y-107271700D01*
X73974347Y-107271699D01*
X73841518Y-107182945D01*
X73728555Y-107069982D01*
X73639801Y-106937153D01*
X73578666Y-106789560D01*
X73547500Y-106632877D01*
X73547500Y-106473123D01*
X73578666Y-106316440D01*
X73639801Y-106168847D01*
X73728555Y-106036018D01*
X73841518Y-105923055D01*
X73974347Y-105834301D01*
X74121940Y-105773166D01*
X74278622Y-105742000D01*
X74438378Y-105742000D01*
X74595060Y-105773166D01*
X74595060Y-105773166D01*
G37*
G36*
X145715060Y-105773166D02*
G01*
X145862653Y-105834301D01*
X145995482Y-105923055D01*
X146108445Y-106036018D01*
X146197199Y-106168847D01*
X146258334Y-106316440D01*
X146289500Y-106473123D01*
X146289500Y-106632877D01*
X146258334Y-106789560D01*
X146197199Y-106937153D01*
X146108445Y-107069982D01*
X145995482Y-107182945D01*
X145862653Y-107271699D01*
X145862652Y-107271700D01*
X145862651Y-107271700D01*
X145715060Y-107332834D01*
X145558378Y-107364000D01*
X145398622Y-107364000D01*
X145241940Y-107332834D01*
X145094349Y-107271700D01*
X145094348Y-107271700D01*
X145094347Y-107271699D01*
X144961518Y-107182945D01*
X144848555Y-107069982D01*
X144759801Y-106937153D01*
X144698666Y-106789560D01*
X144667500Y-106632877D01*
X144667500Y-106473123D01*
X144698666Y-106316440D01*
X144759801Y-106168847D01*
X144848555Y-106036018D01*
X144961518Y-105923055D01*
X145094347Y-105834301D01*
X145241940Y-105773166D01*
X145398622Y-105742000D01*
X145558378Y-105742000D01*
X145715060Y-105773166D01*
X145715060Y-105773166D01*
G37*
G36*
X94915060Y-105773166D02*
G01*
X95062653Y-105834301D01*
X95195482Y-105923055D01*
X95308445Y-106036018D01*
X95397199Y-106168847D01*
X95458334Y-106316440D01*
X95489500Y-106473123D01*
X95489500Y-106632877D01*
X95458334Y-106789560D01*
X95397199Y-106937153D01*
X95308445Y-107069982D01*
X95195482Y-107182945D01*
X95062653Y-107271699D01*
X95062652Y-107271700D01*
X95062651Y-107271700D01*
X94915060Y-107332834D01*
X94758378Y-107364000D01*
X94598622Y-107364000D01*
X94441940Y-107332834D01*
X94294349Y-107271700D01*
X94294348Y-107271700D01*
X94294347Y-107271699D01*
X94161518Y-107182945D01*
X94048555Y-107069982D01*
X93959801Y-106937153D01*
X93898666Y-106789560D01*
X93867500Y-106632877D01*
X93867500Y-106473123D01*
X93898666Y-106316440D01*
X93959801Y-106168847D01*
X94048555Y-106036018D01*
X94161518Y-105923055D01*
X94294347Y-105834301D01*
X94441940Y-105773166D01*
X94598622Y-105742000D01*
X94758378Y-105742000D01*
X94915060Y-105773166D01*
X94915060Y-105773166D01*
G37*
G36*
X97455060Y-105773166D02*
G01*
X97602653Y-105834301D01*
X97735482Y-105923055D01*
X97848445Y-106036018D01*
X97937199Y-106168847D01*
X97998334Y-106316440D01*
X98029500Y-106473123D01*
X98029500Y-106632877D01*
X97998334Y-106789560D01*
X97937199Y-106937153D01*
X97848445Y-107069982D01*
X97735482Y-107182945D01*
X97602653Y-107271699D01*
X97602652Y-107271700D01*
X97602651Y-107271700D01*
X97455060Y-107332834D01*
X97298378Y-107364000D01*
X97138622Y-107364000D01*
X96981940Y-107332834D01*
X96834349Y-107271700D01*
X96834348Y-107271700D01*
X96834347Y-107271699D01*
X96701518Y-107182945D01*
X96588555Y-107069982D01*
X96499801Y-106937153D01*
X96438666Y-106789560D01*
X96407500Y-106632877D01*
X96407500Y-106473123D01*
X96438666Y-106316440D01*
X96499801Y-106168847D01*
X96588555Y-106036018D01*
X96701518Y-105923055D01*
X96834347Y-105834301D01*
X96981940Y-105773166D01*
X97138622Y-105742000D01*
X97298378Y-105742000D01*
X97455060Y-105773166D01*
X97455060Y-105773166D01*
G37*
G36*
X140635060Y-105773166D02*
G01*
X140782653Y-105834301D01*
X140915482Y-105923055D01*
X141028445Y-106036018D01*
X141117199Y-106168847D01*
X141178334Y-106316440D01*
X141209500Y-106473123D01*
X141209500Y-106632877D01*
X141178334Y-106789560D01*
X141117199Y-106937153D01*
X141028445Y-107069982D01*
X140915482Y-107182945D01*
X140782653Y-107271699D01*
X140782652Y-107271700D01*
X140782651Y-107271700D01*
X140635060Y-107332834D01*
X140478378Y-107364000D01*
X140318622Y-107364000D01*
X140161940Y-107332834D01*
X140014349Y-107271700D01*
X140014348Y-107271700D01*
X140014347Y-107271699D01*
X139881518Y-107182945D01*
X139768555Y-107069982D01*
X139679801Y-106937153D01*
X139618666Y-106789560D01*
X139587500Y-106632877D01*
X139587500Y-106473123D01*
X139618666Y-106316440D01*
X139679801Y-106168847D01*
X139768555Y-106036018D01*
X139881518Y-105923055D01*
X140014347Y-105834301D01*
X140161940Y-105773166D01*
X140318622Y-105742000D01*
X140478378Y-105742000D01*
X140635060Y-105773166D01*
X140635060Y-105773166D01*
G37*
G36*
X143175060Y-105773166D02*
G01*
X143322653Y-105834301D01*
X143455482Y-105923055D01*
X143568445Y-106036018D01*
X143657199Y-106168847D01*
X143718334Y-106316440D01*
X143749500Y-106473123D01*
X143749500Y-106632877D01*
X143718334Y-106789560D01*
X143657199Y-106937153D01*
X143568445Y-107069982D01*
X143455482Y-107182945D01*
X143322653Y-107271699D01*
X143322652Y-107271700D01*
X143322651Y-107271700D01*
X143175060Y-107332834D01*
X143018378Y-107364000D01*
X142858622Y-107364000D01*
X142701940Y-107332834D01*
X142554349Y-107271700D01*
X142554348Y-107271700D01*
X142554347Y-107271699D01*
X142421518Y-107182945D01*
X142308555Y-107069982D01*
X142219801Y-106937153D01*
X142158666Y-106789560D01*
X142127500Y-106632877D01*
X142127500Y-106473123D01*
X142158666Y-106316440D01*
X142219801Y-106168847D01*
X142308555Y-106036018D01*
X142421518Y-105923055D01*
X142554347Y-105834301D01*
X142701940Y-105773166D01*
X142858622Y-105742000D01*
X143018378Y-105742000D01*
X143175060Y-105773166D01*
X143175060Y-105773166D01*
G37*
G36*
X148255060Y-105773166D02*
G01*
X148402653Y-105834301D01*
X148535482Y-105923055D01*
X148648445Y-106036018D01*
X148737199Y-106168847D01*
X148798334Y-106316440D01*
X148829500Y-106473123D01*
X148829500Y-106632877D01*
X148798334Y-106789560D01*
X148737199Y-106937153D01*
X148648445Y-107069982D01*
X148535482Y-107182945D01*
X148402653Y-107271699D01*
X148402652Y-107271700D01*
X148402651Y-107271700D01*
X148255060Y-107332834D01*
X148098378Y-107364000D01*
X147938622Y-107364000D01*
X147781940Y-107332834D01*
X147634349Y-107271700D01*
X147634348Y-107271700D01*
X147634347Y-107271699D01*
X147501518Y-107182945D01*
X147388555Y-107069982D01*
X147299801Y-106937153D01*
X147238666Y-106789560D01*
X147207500Y-106632877D01*
X147207500Y-106473123D01*
X147238666Y-106316440D01*
X147299801Y-106168847D01*
X147388555Y-106036018D01*
X147501518Y-105923055D01*
X147634347Y-105834301D01*
X147781940Y-105773166D01*
X147938622Y-105742000D01*
X148098378Y-105742000D01*
X148255060Y-105773166D01*
X148255060Y-105773166D01*
G37*
G36*
X138095060Y-105773166D02*
G01*
X138242653Y-105834301D01*
X138375482Y-105923055D01*
X138488445Y-106036018D01*
X138577199Y-106168847D01*
X138638334Y-106316440D01*
X138669500Y-106473123D01*
X138669500Y-106632877D01*
X138638334Y-106789560D01*
X138577199Y-106937153D01*
X138488445Y-107069982D01*
X138375482Y-107182945D01*
X138242653Y-107271699D01*
X138242652Y-107271700D01*
X138242651Y-107271700D01*
X138095060Y-107332834D01*
X137938378Y-107364000D01*
X137778622Y-107364000D01*
X137621940Y-107332834D01*
X137474349Y-107271700D01*
X137474348Y-107271700D01*
X137474347Y-107271699D01*
X137341518Y-107182945D01*
X137228555Y-107069982D01*
X137139801Y-106937153D01*
X137078666Y-106789560D01*
X137047500Y-106632877D01*
X137047500Y-106473123D01*
X137078666Y-106316440D01*
X137139801Y-106168847D01*
X137228555Y-106036018D01*
X137341518Y-105923055D01*
X137474347Y-105834301D01*
X137621940Y-105773166D01*
X137778622Y-105742000D01*
X137938378Y-105742000D01*
X138095060Y-105773166D01*
X138095060Y-105773166D01*
G37*
G36*
X91800308Y-97170380D02*
G01*
X91967167Y-97203570D01*
X92438699Y-97398885D01*
X92681429Y-97561073D01*
X92863066Y-97682438D01*
X93223962Y-98043334D01*
X93345327Y-98224971D01*
X93507515Y-98467701D01*
X93702830Y-98939233D01*
X93802400Y-99439809D01*
X93802400Y-99950191D01*
X93702830Y-100450767D01*
X93507515Y-100922299D01*
X93345327Y-101165029D01*
X93223962Y-101346666D01*
X92863066Y-101707562D01*
X92681429Y-101828927D01*
X92438699Y-101991115D01*
X91967167Y-102186430D01*
X91800308Y-102219620D01*
X91466593Y-102286000D01*
X90956207Y-102286000D01*
X90622492Y-102219620D01*
X90455633Y-102186430D01*
X89984101Y-101991115D01*
X89741371Y-101828927D01*
X89559734Y-101707562D01*
X89198838Y-101346666D01*
X89077473Y-101165029D01*
X88915285Y-100922299D01*
X88719970Y-100450767D01*
X88620400Y-99950191D01*
X88620400Y-99439809D01*
X88719970Y-98939233D01*
X88915285Y-98467701D01*
X89077473Y-98224971D01*
X89198838Y-98043334D01*
X89559734Y-97682438D01*
X89741371Y-97561073D01*
X89984101Y-97398885D01*
X90455633Y-97203570D01*
X90622492Y-97170380D01*
X90956207Y-97104000D01*
X91466593Y-97104000D01*
X91800308Y-97170380D01*
X91800308Y-97170380D01*
G37*
G36*
X91800308Y-89296380D02*
G01*
X91967167Y-89329570D01*
X92438699Y-89524885D01*
X92681429Y-89687073D01*
X92863066Y-89808438D01*
X93223962Y-90169334D01*
X93345327Y-90350971D01*
X93507515Y-90593701D01*
X93702830Y-91065233D01*
X93802400Y-91565809D01*
X93802400Y-92076191D01*
X93702830Y-92576767D01*
X93507515Y-93048299D01*
X93345327Y-93291029D01*
X93223962Y-93472666D01*
X92863066Y-93833562D01*
X92681429Y-93954927D01*
X92438699Y-94117115D01*
X91967167Y-94312430D01*
X91800308Y-94345620D01*
X91466593Y-94412000D01*
X90956207Y-94412000D01*
X90622492Y-94345620D01*
X90455633Y-94312430D01*
X89984101Y-94117115D01*
X89741371Y-93954927D01*
X89559734Y-93833562D01*
X89198838Y-93472666D01*
X89077473Y-93291029D01*
X88915285Y-93048299D01*
X88719970Y-92576767D01*
X88620400Y-92076191D01*
X88620400Y-91565809D01*
X88719970Y-91065233D01*
X88915285Y-90593701D01*
X89077473Y-90350971D01*
X89198838Y-90169334D01*
X89559734Y-89808438D01*
X89741371Y-89687073D01*
X89984101Y-89524885D01*
X90455633Y-89329570D01*
X90622492Y-89296380D01*
X90956207Y-89230000D01*
X91466593Y-89230000D01*
X91800308Y-89296380D01*
X91800308Y-89296380D01*
G37*
G36*
X107748564Y-85088505D02*
G01*
X107939833Y-85167731D01*
X107939835Y-85167732D01*
X108028708Y-85227115D01*
X108111973Y-85282751D01*
X108258365Y-85429143D01*
X108373385Y-85601283D01*
X108452611Y-85792552D01*
X108493000Y-85995600D01*
X108493000Y-86202632D01*
X108452611Y-86405680D01*
X108373385Y-86596949D01*
X108373384Y-86596951D01*
X108258365Y-86769089D01*
X108111973Y-86915481D01*
X107939835Y-87030500D01*
X107939834Y-87030501D01*
X107939833Y-87030501D01*
X107748564Y-87109727D01*
X107545516Y-87150116D01*
X107338484Y-87150116D01*
X107135436Y-87109727D01*
X106944167Y-87030501D01*
X106944166Y-87030501D01*
X106944165Y-87030500D01*
X106772027Y-86915481D01*
X106625635Y-86769089D01*
X106510616Y-86596951D01*
X106510615Y-86596949D01*
X106431389Y-86405680D01*
X106391000Y-86202632D01*
X106391000Y-85995600D01*
X106431389Y-85792552D01*
X106510615Y-85601283D01*
X106625635Y-85429143D01*
X106772027Y-85282751D01*
X106855292Y-85227115D01*
X106944165Y-85167732D01*
X106944167Y-85167731D01*
X107135436Y-85088505D01*
X107338484Y-85048116D01*
X107545516Y-85048116D01*
X107748564Y-85088505D01*
X107748564Y-85088505D01*
G37*
G36*
X122988564Y-85088505D02*
G01*
X123179833Y-85167731D01*
X123179835Y-85167732D01*
X123268708Y-85227115D01*
X123351973Y-85282751D01*
X123498365Y-85429143D01*
X123613385Y-85601283D01*
X123692611Y-85792552D01*
X123733000Y-85995600D01*
X123733000Y-86202632D01*
X123692611Y-86405680D01*
X123613385Y-86596949D01*
X123613384Y-86596951D01*
X123498365Y-86769089D01*
X123351973Y-86915481D01*
X123179835Y-87030500D01*
X123179834Y-87030501D01*
X123179833Y-87030501D01*
X122988564Y-87109727D01*
X122785516Y-87150116D01*
X122578484Y-87150116D01*
X122375436Y-87109727D01*
X122184167Y-87030501D01*
X122184166Y-87030501D01*
X122184165Y-87030500D01*
X122012027Y-86915481D01*
X121865635Y-86769089D01*
X121750616Y-86596951D01*
X121750615Y-86596949D01*
X121671389Y-86405680D01*
X121631000Y-86202632D01*
X121631000Y-85995600D01*
X121671389Y-85792552D01*
X121750615Y-85601283D01*
X121865635Y-85429143D01*
X122012027Y-85282751D01*
X122095292Y-85227115D01*
X122184165Y-85167732D01*
X122184167Y-85167731D01*
X122375436Y-85088505D01*
X122578484Y-85048116D01*
X122785516Y-85048116D01*
X122988564Y-85088505D01*
X122988564Y-85088505D01*
G37*
G36*
X91740578Y-80394499D02*
G01*
X91967167Y-80439570D01*
X92438699Y-80634885D01*
X92669135Y-80788858D01*
X92863066Y-80918438D01*
X93223962Y-81279334D01*
X93312005Y-81411100D01*
X93507515Y-81703701D01*
X93702830Y-82175233D01*
X93702830Y-82175234D01*
X93802400Y-82675807D01*
X93802400Y-83186193D01*
X93789200Y-83252552D01*
X93702830Y-83686767D01*
X93507515Y-84158299D01*
X93380922Y-84347758D01*
X93223962Y-84582666D01*
X92863066Y-84943562D01*
X92706589Y-85048116D01*
X92438699Y-85227115D01*
X91967167Y-85422430D01*
X91800308Y-85455620D01*
X91466593Y-85522000D01*
X90956207Y-85522000D01*
X90622492Y-85455620D01*
X90455633Y-85422430D01*
X89984101Y-85227115D01*
X89716211Y-85048116D01*
X89559734Y-84943562D01*
X89198838Y-84582666D01*
X89041878Y-84347758D01*
X88915285Y-84158299D01*
X88719970Y-83686767D01*
X88633600Y-83252552D01*
X88620400Y-83186193D01*
X88620400Y-82675807D01*
X88719970Y-82175234D01*
X88719970Y-82175233D01*
X88915285Y-81703701D01*
X89110795Y-81411100D01*
X89198838Y-81279334D01*
X89559734Y-80918438D01*
X89753665Y-80788858D01*
X89984101Y-80634885D01*
X90455633Y-80439570D01*
X90682222Y-80394499D01*
X90956207Y-80340000D01*
X91466593Y-80340000D01*
X91740578Y-80394499D01*
X91740578Y-80394499D01*
G37*
G36*
X122988564Y-82548505D02*
G01*
X123179833Y-82627731D01*
X123179835Y-82627732D01*
X123351973Y-82742751D01*
X123498365Y-82889143D01*
X123604340Y-83047745D01*
X123613385Y-83061283D01*
X123692611Y-83252552D01*
X123733000Y-83455600D01*
X123733000Y-83662632D01*
X123692611Y-83865680D01*
X123613385Y-84056949D01*
X123613384Y-84056951D01*
X123498365Y-84229089D01*
X123351973Y-84375481D01*
X123179835Y-84490500D01*
X123179834Y-84490501D01*
X123179833Y-84490501D01*
X122988564Y-84569727D01*
X122785516Y-84610116D01*
X122578484Y-84610116D01*
X122375436Y-84569727D01*
X122184167Y-84490501D01*
X122184166Y-84490501D01*
X122184165Y-84490500D01*
X122012027Y-84375481D01*
X121865635Y-84229089D01*
X121750616Y-84056951D01*
X121750615Y-84056949D01*
X121671389Y-83865680D01*
X121631000Y-83662632D01*
X121631000Y-83455600D01*
X121671389Y-83252552D01*
X121750615Y-83061283D01*
X121759661Y-83047745D01*
X121865635Y-82889143D01*
X122012027Y-82742751D01*
X122184165Y-82627732D01*
X122184167Y-82627731D01*
X122375436Y-82548505D01*
X122578484Y-82508116D01*
X122785516Y-82508116D01*
X122988564Y-82548505D01*
X122988564Y-82548505D01*
G37*
G36*
X107748564Y-82548505D02*
G01*
X107939833Y-82627731D01*
X107939835Y-82627732D01*
X108111973Y-82742751D01*
X108258365Y-82889143D01*
X108364340Y-83047745D01*
X108373385Y-83061283D01*
X108452611Y-83252552D01*
X108493000Y-83455600D01*
X108493000Y-83662632D01*
X108452611Y-83865680D01*
X108373385Y-84056949D01*
X108373384Y-84056951D01*
X108258365Y-84229089D01*
X108111973Y-84375481D01*
X107939835Y-84490500D01*
X107939834Y-84490501D01*
X107939833Y-84490501D01*
X107748564Y-84569727D01*
X107545516Y-84610116D01*
X107338484Y-84610116D01*
X107135436Y-84569727D01*
X106944167Y-84490501D01*
X106944166Y-84490501D01*
X106944165Y-84490500D01*
X106772027Y-84375481D01*
X106625635Y-84229089D01*
X106510616Y-84056951D01*
X106510615Y-84056949D01*
X106431389Y-83865680D01*
X106391000Y-83662632D01*
X106391000Y-83455600D01*
X106431389Y-83252552D01*
X106510615Y-83061283D01*
X106519661Y-83047745D01*
X106625635Y-82889143D01*
X106772027Y-82742751D01*
X106944165Y-82627732D01*
X106944167Y-82627731D01*
X107135436Y-82548505D01*
X107338484Y-82508116D01*
X107545516Y-82508116D01*
X107748564Y-82548505D01*
X107748564Y-82548505D01*
G37*
G36*
X175560642Y-82911242D02*
G01*
X175708601Y-82972529D01*
X175841755Y-83061499D01*
X175955001Y-83174745D01*
X176043971Y-83307899D01*
X176105258Y-83455858D01*
X176136500Y-83612925D01*
X176136500Y-83773075D01*
X176105258Y-83930142D01*
X176043971Y-84078101D01*
X175955001Y-84211255D01*
X175841755Y-84324501D01*
X175708601Y-84413471D01*
X175560642Y-84474758D01*
X175403575Y-84506000D01*
X175243425Y-84506000D01*
X175086358Y-84474758D01*
X174938399Y-84413471D01*
X174805245Y-84324501D01*
X174691999Y-84211255D01*
X174603029Y-84078101D01*
X174541742Y-83930142D01*
X174510500Y-83773075D01*
X174510500Y-83612925D01*
X174541742Y-83455858D01*
X174603029Y-83307899D01*
X174691999Y-83174745D01*
X174805245Y-83061499D01*
X174938399Y-82972529D01*
X175086358Y-82911242D01*
X175243425Y-82880000D01*
X175403575Y-82880000D01*
X175560642Y-82911242D01*
X175560642Y-82911242D01*
G37*
G36*
X184958642Y-82911242D02*
G01*
X185106601Y-82972529D01*
X185239755Y-83061499D01*
X185353001Y-83174745D01*
X185441971Y-83307899D01*
X185503258Y-83455858D01*
X185534500Y-83612925D01*
X185534500Y-83773075D01*
X185503258Y-83930142D01*
X185441971Y-84078101D01*
X185353001Y-84211255D01*
X185239755Y-84324501D01*
X185106601Y-84413471D01*
X184958642Y-84474758D01*
X184801575Y-84506000D01*
X184641425Y-84506000D01*
X184484358Y-84474758D01*
X184336399Y-84413471D01*
X184203245Y-84324501D01*
X184089999Y-84211255D01*
X184001029Y-84078101D01*
X183939742Y-83930142D01*
X183908500Y-83773075D01*
X183908500Y-83612925D01*
X183939742Y-83455858D01*
X184001029Y-83307899D01*
X184089999Y-83174745D01*
X184203245Y-83061499D01*
X184336399Y-82972529D01*
X184484358Y-82911242D01*
X184641425Y-82880000D01*
X184801575Y-82880000D01*
X184958642Y-82911242D01*
X184958642Y-82911242D01*
G37*
G36*
X193594642Y-82784242D02*
G01*
X193742601Y-82845529D01*
X193875755Y-82934499D01*
X193989001Y-83047745D01*
X194077971Y-83180899D01*
X194139258Y-83328858D01*
X194170500Y-83485925D01*
X194170500Y-83646075D01*
X194139258Y-83803142D01*
X194077971Y-83951101D01*
X193989001Y-84084255D01*
X193875755Y-84197501D01*
X193742601Y-84286471D01*
X193594642Y-84347758D01*
X193437575Y-84379000D01*
X193277425Y-84379000D01*
X193120358Y-84347758D01*
X192972399Y-84286471D01*
X192839245Y-84197501D01*
X192725999Y-84084255D01*
X192637029Y-83951101D01*
X192575742Y-83803142D01*
X192544500Y-83646075D01*
X192544500Y-83485925D01*
X192575742Y-83328858D01*
X192637029Y-83180899D01*
X192725999Y-83047745D01*
X192839245Y-82934499D01*
X192972399Y-82845529D01*
X193120358Y-82784242D01*
X193277425Y-82753000D01*
X193437575Y-82753000D01*
X193594642Y-82784242D01*
X193594642Y-82784242D01*
G37*
G36*
X175560642Y-80371242D02*
G01*
X175708601Y-80432529D01*
X175841755Y-80521499D01*
X175955001Y-80634745D01*
X176043971Y-80767899D01*
X176105258Y-80915858D01*
X176136500Y-81072925D01*
X176136500Y-81233075D01*
X176105258Y-81390142D01*
X176043971Y-81538101D01*
X175955001Y-81671255D01*
X175841755Y-81784501D01*
X175708601Y-81873471D01*
X175560642Y-81934758D01*
X175403575Y-81966000D01*
X175243425Y-81966000D01*
X175086358Y-81934758D01*
X174938399Y-81873471D01*
X174805245Y-81784501D01*
X174691999Y-81671255D01*
X174603029Y-81538101D01*
X174541742Y-81390142D01*
X174510500Y-81233075D01*
X174510500Y-81072925D01*
X174541742Y-80915858D01*
X174603029Y-80767899D01*
X174691999Y-80634745D01*
X174805245Y-80521499D01*
X174938399Y-80432529D01*
X175086358Y-80371242D01*
X175243425Y-80340000D01*
X175403575Y-80340000D01*
X175560642Y-80371242D01*
X175560642Y-80371242D01*
G37*
G36*
X184958642Y-80371242D02*
G01*
X185106601Y-80432529D01*
X185239755Y-80521499D01*
X185353001Y-80634745D01*
X185441971Y-80767899D01*
X185503258Y-80915858D01*
X185534500Y-81072925D01*
X185534500Y-81233075D01*
X185503258Y-81390142D01*
X185441971Y-81538101D01*
X185353001Y-81671255D01*
X185239755Y-81784501D01*
X185106601Y-81873471D01*
X184958642Y-81934758D01*
X184801575Y-81966000D01*
X184641425Y-81966000D01*
X184484358Y-81934758D01*
X184336399Y-81873471D01*
X184203245Y-81784501D01*
X184089999Y-81671255D01*
X184001029Y-81538101D01*
X183939742Y-81390142D01*
X183908500Y-81233075D01*
X183908500Y-81072925D01*
X183939742Y-80915858D01*
X184001029Y-80767899D01*
X184089999Y-80634745D01*
X184203245Y-80521499D01*
X184336399Y-80432529D01*
X184484358Y-80371242D01*
X184641425Y-80340000D01*
X184801575Y-80340000D01*
X184958642Y-80371242D01*
X184958642Y-80371242D01*
G37*
G36*
X193594642Y-80244242D02*
G01*
X193742601Y-80305529D01*
X193875755Y-80394499D01*
X193989001Y-80507745D01*
X194077971Y-80640899D01*
X194139258Y-80788858D01*
X194170500Y-80945925D01*
X194170500Y-81106075D01*
X194139258Y-81263142D01*
X194077971Y-81411101D01*
X193989001Y-81544255D01*
X193875755Y-81657501D01*
X193742601Y-81746471D01*
X193594642Y-81807758D01*
X193437575Y-81839000D01*
X193277425Y-81839000D01*
X193120358Y-81807758D01*
X192972399Y-81746471D01*
X192839245Y-81657501D01*
X192725999Y-81544255D01*
X192637029Y-81411101D01*
X192575742Y-81263142D01*
X192544500Y-81106075D01*
X192544500Y-80945925D01*
X192575742Y-80788858D01*
X192637029Y-80640899D01*
X192725999Y-80507745D01*
X192839245Y-80394499D01*
X192972399Y-80305529D01*
X193120358Y-80244242D01*
X193277425Y-80213000D01*
X193437575Y-80213000D01*
X193594642Y-80244242D01*
X193594642Y-80244242D01*
G37*
G36*
X107748564Y-77468505D02*
G01*
X107939833Y-77547731D01*
X107939835Y-77547732D01*
X108111973Y-77662751D01*
X108258365Y-77809143D01*
X108364340Y-77967745D01*
X108373385Y-77981283D01*
X108452611Y-78172552D01*
X108493000Y-78375600D01*
X108493000Y-78582632D01*
X108452611Y-78785680D01*
X108373385Y-78976949D01*
X108373384Y-78976951D01*
X108258365Y-79149089D01*
X108111973Y-79295481D01*
X107939835Y-79410500D01*
X107939834Y-79410501D01*
X107939833Y-79410501D01*
X107748564Y-79489727D01*
X107545516Y-79530116D01*
X107338484Y-79530116D01*
X107135436Y-79489727D01*
X106944167Y-79410501D01*
X106944166Y-79410501D01*
X106944165Y-79410500D01*
X106772027Y-79295481D01*
X106625635Y-79149089D01*
X106510616Y-78976951D01*
X106510615Y-78976949D01*
X106431389Y-78785680D01*
X106391000Y-78582632D01*
X106391000Y-78375600D01*
X106431389Y-78172552D01*
X106510615Y-77981283D01*
X106519661Y-77967745D01*
X106625635Y-77809143D01*
X106772027Y-77662751D01*
X106944165Y-77547732D01*
X106944167Y-77547731D01*
X107135436Y-77468505D01*
X107338484Y-77428116D01*
X107545516Y-77428116D01*
X107748564Y-77468505D01*
X107748564Y-77468505D01*
G37*
G36*
X184958642Y-77831242D02*
G01*
X185106601Y-77892529D01*
X185239755Y-77981499D01*
X185353001Y-78094745D01*
X185441971Y-78227899D01*
X185503258Y-78375858D01*
X185534500Y-78532925D01*
X185534500Y-78693075D01*
X185503258Y-78850142D01*
X185441971Y-78998101D01*
X185353001Y-79131255D01*
X185239755Y-79244501D01*
X185106601Y-79333471D01*
X184958642Y-79394758D01*
X184801575Y-79426000D01*
X184641425Y-79426000D01*
X184484358Y-79394758D01*
X184336399Y-79333471D01*
X184203245Y-79244501D01*
X184089999Y-79131255D01*
X184001029Y-78998101D01*
X183939742Y-78850142D01*
X183908500Y-78693075D01*
X183908500Y-78532925D01*
X183939742Y-78375858D01*
X184001029Y-78227899D01*
X184089999Y-78094745D01*
X184203245Y-77981499D01*
X184336399Y-77892529D01*
X184484358Y-77831242D01*
X184641425Y-77800000D01*
X184801575Y-77800000D01*
X184958642Y-77831242D01*
X184958642Y-77831242D01*
G37*
G36*
X175560642Y-77831242D02*
G01*
X175708601Y-77892529D01*
X175841755Y-77981499D01*
X175955001Y-78094745D01*
X176043971Y-78227899D01*
X176105258Y-78375858D01*
X176136500Y-78532925D01*
X176136500Y-78693075D01*
X176105258Y-78850142D01*
X176043971Y-78998101D01*
X175955001Y-79131255D01*
X175841755Y-79244501D01*
X175708601Y-79333471D01*
X175560642Y-79394758D01*
X175403575Y-79426000D01*
X175243425Y-79426000D01*
X175086358Y-79394758D01*
X174938399Y-79333471D01*
X174805245Y-79244501D01*
X174691999Y-79131255D01*
X174603029Y-78998101D01*
X174541742Y-78850142D01*
X174510500Y-78693075D01*
X174510500Y-78532925D01*
X174541742Y-78375858D01*
X174603029Y-78227899D01*
X174691999Y-78094745D01*
X174805245Y-77981499D01*
X174938399Y-77892529D01*
X175086358Y-77831242D01*
X175243425Y-77800000D01*
X175403575Y-77800000D01*
X175560642Y-77831242D01*
X175560642Y-77831242D01*
G37*
G36*
X193594642Y-77704242D02*
G01*
X193742601Y-77765529D01*
X193875755Y-77854499D01*
X193989001Y-77967745D01*
X194077971Y-78100899D01*
X194139258Y-78248858D01*
X194170500Y-78405925D01*
X194170500Y-78566075D01*
X194139258Y-78723142D01*
X194077971Y-78871101D01*
X193989001Y-79004255D01*
X193875755Y-79117501D01*
X193742601Y-79206471D01*
X193594642Y-79267758D01*
X193437575Y-79299000D01*
X193277425Y-79299000D01*
X193120358Y-79267758D01*
X192972399Y-79206471D01*
X192839245Y-79117501D01*
X192725999Y-79004255D01*
X192637029Y-78871101D01*
X192575742Y-78723142D01*
X192544500Y-78566075D01*
X192544500Y-78405925D01*
X192575742Y-78248858D01*
X192637029Y-78100899D01*
X192725999Y-77967745D01*
X192839245Y-77854499D01*
X192972399Y-77765529D01*
X193120358Y-77704242D01*
X193277425Y-77673000D01*
X193437575Y-77673000D01*
X193594642Y-77704242D01*
X193594642Y-77704242D01*
G37*
G36*
X91800308Y-72532380D02*
G01*
X91967167Y-72565570D01*
X92438699Y-72760885D01*
X92649142Y-72901499D01*
X92863066Y-73044438D01*
X93223962Y-73405334D01*
X93277910Y-73486074D01*
X93507515Y-73829701D01*
X93702830Y-74301233D01*
X93736020Y-74468092D01*
X93802400Y-74801807D01*
X93802400Y-75312193D01*
X93779415Y-75427745D01*
X93702830Y-75812767D01*
X93507515Y-76284299D01*
X93387270Y-76464257D01*
X93223962Y-76708666D01*
X92863066Y-77069562D01*
X92681429Y-77190927D01*
X92438699Y-77353115D01*
X91967167Y-77548430D01*
X91800308Y-77581620D01*
X91466593Y-77648000D01*
X90956207Y-77648000D01*
X90622492Y-77581620D01*
X90455633Y-77548430D01*
X89984101Y-77353115D01*
X89741371Y-77190927D01*
X89559734Y-77069562D01*
X89198838Y-76708666D01*
X89035530Y-76464257D01*
X88915285Y-76284299D01*
X88719970Y-75812767D01*
X88643385Y-75427745D01*
X88620400Y-75312193D01*
X88620400Y-74801807D01*
X88686780Y-74468092D01*
X88719970Y-74301233D01*
X88915285Y-73829701D01*
X89144890Y-73486074D01*
X89198838Y-73405334D01*
X89559734Y-73044438D01*
X89773658Y-72901499D01*
X89984101Y-72760885D01*
X90455633Y-72565570D01*
X90622492Y-72532380D01*
X90956207Y-72466000D01*
X91466593Y-72466000D01*
X91800308Y-72532380D01*
X91800308Y-72532380D01*
G37*
G36*
X175560642Y-75291242D02*
G01*
X175708601Y-75352529D01*
X175841755Y-75441499D01*
X175955001Y-75554745D01*
X176043971Y-75687899D01*
X176105258Y-75835858D01*
X176136500Y-75992925D01*
X176136500Y-76153075D01*
X176105258Y-76310142D01*
X176043971Y-76458101D01*
X175955001Y-76591255D01*
X175841755Y-76704501D01*
X175708601Y-76793471D01*
X175560642Y-76854758D01*
X175403575Y-76886000D01*
X175243425Y-76886000D01*
X175086358Y-76854758D01*
X174938399Y-76793471D01*
X174805245Y-76704501D01*
X174691999Y-76591255D01*
X174603029Y-76458101D01*
X174541742Y-76310142D01*
X174510500Y-76153075D01*
X174510500Y-75992925D01*
X174541742Y-75835858D01*
X174603029Y-75687899D01*
X174691999Y-75554745D01*
X174805245Y-75441499D01*
X174938399Y-75352529D01*
X175086358Y-75291242D01*
X175243425Y-75260000D01*
X175403575Y-75260000D01*
X175560642Y-75291242D01*
X175560642Y-75291242D01*
G37*
G36*
X184958642Y-75291242D02*
G01*
X185106601Y-75352529D01*
X185239755Y-75441499D01*
X185353001Y-75554745D01*
X185441971Y-75687899D01*
X185503258Y-75835858D01*
X185534500Y-75992925D01*
X185534500Y-76153075D01*
X185503258Y-76310142D01*
X185441971Y-76458101D01*
X185353001Y-76591255D01*
X185239755Y-76704501D01*
X185106601Y-76793471D01*
X184958642Y-76854758D01*
X184801575Y-76886000D01*
X184641425Y-76886000D01*
X184484358Y-76854758D01*
X184336399Y-76793471D01*
X184203245Y-76704501D01*
X184089999Y-76591255D01*
X184001029Y-76458101D01*
X183939742Y-76310142D01*
X183908500Y-76153075D01*
X183908500Y-75992925D01*
X183939742Y-75835858D01*
X184001029Y-75687899D01*
X184089999Y-75554745D01*
X184203245Y-75441499D01*
X184336399Y-75352529D01*
X184484358Y-75291242D01*
X184641425Y-75260000D01*
X184801575Y-75260000D01*
X184958642Y-75291242D01*
X184958642Y-75291242D01*
G37*
G36*
X193594642Y-75164242D02*
G01*
X193742601Y-75225529D01*
X193875755Y-75314499D01*
X193989001Y-75427745D01*
X194077971Y-75560899D01*
X194139258Y-75708858D01*
X194170500Y-75865925D01*
X194170500Y-76026075D01*
X194139258Y-76183142D01*
X194077971Y-76331101D01*
X193989001Y-76464255D01*
X193875755Y-76577501D01*
X193742601Y-76666471D01*
X193594642Y-76727758D01*
X193437575Y-76759000D01*
X193277425Y-76759000D01*
X193120358Y-76727758D01*
X192972399Y-76666471D01*
X192839245Y-76577501D01*
X192725999Y-76464255D01*
X192637029Y-76331101D01*
X192575742Y-76183142D01*
X192544500Y-76026075D01*
X192544500Y-75865925D01*
X192575742Y-75708858D01*
X192637029Y-75560899D01*
X192725999Y-75427745D01*
X192839245Y-75314499D01*
X192972399Y-75225529D01*
X193120358Y-75164242D01*
X193277425Y-75133000D01*
X193437575Y-75133000D01*
X193594642Y-75164242D01*
X193594642Y-75164242D01*
G37*
G36*
X175560642Y-72751242D02*
G01*
X175708601Y-72812529D01*
X175841755Y-72901499D01*
X175955001Y-73014745D01*
X176043971Y-73147899D01*
X176105258Y-73295858D01*
X176136500Y-73452925D01*
X176136500Y-73613075D01*
X176105258Y-73770142D01*
X176043971Y-73918101D01*
X175955001Y-74051255D01*
X175841755Y-74164501D01*
X175708601Y-74253471D01*
X175560642Y-74314758D01*
X175403575Y-74346000D01*
X175243425Y-74346000D01*
X175086358Y-74314758D01*
X174938399Y-74253471D01*
X174805245Y-74164501D01*
X174691999Y-74051255D01*
X174603029Y-73918101D01*
X174541742Y-73770142D01*
X174510500Y-73613075D01*
X174510500Y-73452925D01*
X174541742Y-73295858D01*
X174603029Y-73147899D01*
X174691999Y-73014745D01*
X174805245Y-72901499D01*
X174938399Y-72812529D01*
X175086358Y-72751242D01*
X175243425Y-72720000D01*
X175403575Y-72720000D01*
X175560642Y-72751242D01*
X175560642Y-72751242D01*
G37*
G36*
X184958642Y-72751242D02*
G01*
X185106601Y-72812529D01*
X185239755Y-72901499D01*
X185353001Y-73014745D01*
X185441971Y-73147899D01*
X185503258Y-73295858D01*
X185534500Y-73452925D01*
X185534500Y-73613075D01*
X185503258Y-73770142D01*
X185441971Y-73918101D01*
X185353001Y-74051255D01*
X185239755Y-74164501D01*
X185106601Y-74253471D01*
X184958642Y-74314758D01*
X184801575Y-74346000D01*
X184641425Y-74346000D01*
X184484358Y-74314758D01*
X184336399Y-74253471D01*
X184203245Y-74164501D01*
X184089999Y-74051255D01*
X184001029Y-73918101D01*
X183939742Y-73770142D01*
X183908500Y-73613075D01*
X183908500Y-73452925D01*
X183939742Y-73295858D01*
X184001029Y-73147899D01*
X184089999Y-73014745D01*
X184203245Y-72901499D01*
X184336399Y-72812529D01*
X184484358Y-72751242D01*
X184641425Y-72720000D01*
X184801575Y-72720000D01*
X184958642Y-72751242D01*
X184958642Y-72751242D01*
G37*
G36*
X193594642Y-72624242D02*
G01*
X193742601Y-72685529D01*
X193875755Y-72774499D01*
X193989001Y-72887745D01*
X194077971Y-73020899D01*
X194139258Y-73168858D01*
X194170500Y-73325925D01*
X194170500Y-73486075D01*
X194139258Y-73643142D01*
X194077971Y-73791101D01*
X193989001Y-73924255D01*
X193875755Y-74037501D01*
X193742601Y-74126471D01*
X193594642Y-74187758D01*
X193437575Y-74219000D01*
X193277425Y-74219000D01*
X193120358Y-74187758D01*
X192972399Y-74126471D01*
X192839245Y-74037501D01*
X192725999Y-73924255D01*
X192637029Y-73791101D01*
X192575742Y-73643142D01*
X192544500Y-73486075D01*
X192544500Y-73325925D01*
X192575742Y-73168858D01*
X192637029Y-73020899D01*
X192725999Y-72887745D01*
X192839245Y-72774499D01*
X192972399Y-72685529D01*
X193120358Y-72624242D01*
X193277425Y-72593000D01*
X193437575Y-72593000D01*
X193594642Y-72624242D01*
X193594642Y-72624242D01*
G37*
G36*
X184958642Y-67417242D02*
G01*
X185106601Y-67478529D01*
X185239755Y-67567499D01*
X185353001Y-67680745D01*
X185441971Y-67813899D01*
X185503258Y-67961858D01*
X185534500Y-68118925D01*
X185534500Y-68279075D01*
X185503258Y-68436142D01*
X185441971Y-68584101D01*
X185353001Y-68717255D01*
X185239755Y-68830501D01*
X185106601Y-68919471D01*
X184958642Y-68980758D01*
X184801575Y-69012000D01*
X184641425Y-69012000D01*
X184484358Y-68980758D01*
X184336399Y-68919471D01*
X184203245Y-68830501D01*
X184089999Y-68717255D01*
X184001029Y-68584101D01*
X183939742Y-68436142D01*
X183908500Y-68279075D01*
X183908500Y-68118925D01*
X183939742Y-67961858D01*
X184001029Y-67813899D01*
X184089999Y-67680745D01*
X184203245Y-67567499D01*
X184336399Y-67478529D01*
X184484358Y-67417242D01*
X184641425Y-67386000D01*
X184801575Y-67386000D01*
X184958642Y-67417242D01*
X184958642Y-67417242D01*
G37*
G36*
X175560642Y-67417242D02*
G01*
X175708601Y-67478529D01*
X175841755Y-67567499D01*
X175955001Y-67680745D01*
X176043971Y-67813899D01*
X176105258Y-67961858D01*
X176136500Y-68118925D01*
X176136500Y-68279075D01*
X176105258Y-68436142D01*
X176043971Y-68584101D01*
X175955001Y-68717255D01*
X175841755Y-68830501D01*
X175708601Y-68919471D01*
X175560642Y-68980758D01*
X175403575Y-69012000D01*
X175243425Y-69012000D01*
X175086358Y-68980758D01*
X174938399Y-68919471D01*
X174805245Y-68830501D01*
X174691999Y-68717255D01*
X174603029Y-68584101D01*
X174541742Y-68436142D01*
X174510500Y-68279075D01*
X174510500Y-68118925D01*
X174541742Y-67961858D01*
X174603029Y-67813899D01*
X174691999Y-67680745D01*
X174805245Y-67567499D01*
X174938399Y-67478529D01*
X175086358Y-67417242D01*
X175243425Y-67386000D01*
X175403575Y-67386000D01*
X175560642Y-67417242D01*
X175560642Y-67417242D01*
G37*
G36*
X193721642Y-66909242D02*
G01*
X193869601Y-66970529D01*
X194002755Y-67059499D01*
X194116001Y-67172745D01*
X194204971Y-67305899D01*
X194266258Y-67453858D01*
X194297500Y-67610925D01*
X194297500Y-67771075D01*
X194266258Y-67928142D01*
X194204971Y-68076101D01*
X194116001Y-68209255D01*
X194002755Y-68322501D01*
X193869601Y-68411471D01*
X193721642Y-68472758D01*
X193564575Y-68504000D01*
X193404425Y-68504000D01*
X193247358Y-68472758D01*
X193099399Y-68411471D01*
X192966245Y-68322501D01*
X192852999Y-68209255D01*
X192764029Y-68076101D01*
X192702742Y-67928142D01*
X192671500Y-67771075D01*
X192671500Y-67610925D01*
X192702742Y-67453858D01*
X192764029Y-67305899D01*
X192852999Y-67172745D01*
X192966245Y-67059499D01*
X193099399Y-66970529D01*
X193247358Y-66909242D01*
X193404425Y-66878000D01*
X193564575Y-66878000D01*
X193721642Y-66909242D01*
X193721642Y-66909242D01*
G37*
G36*
X82215060Y-65133166D02*
G01*
X82362653Y-65194301D01*
X82417687Y-65231074D01*
X82495482Y-65283055D01*
X82608445Y-65396018D01*
X82697200Y-65528849D01*
X82758334Y-65676440D01*
X82789500Y-65833122D01*
X82789500Y-65992878D01*
X82758334Y-66149560D01*
X82699955Y-66290501D01*
X82697199Y-66297153D01*
X82608445Y-66429982D01*
X82495482Y-66542945D01*
X82362653Y-66631699D01*
X82362652Y-66631700D01*
X82362651Y-66631700D01*
X82215060Y-66692834D01*
X82058378Y-66724000D01*
X81898622Y-66724000D01*
X81741940Y-66692834D01*
X81594349Y-66631700D01*
X81594348Y-66631700D01*
X81594347Y-66631699D01*
X81461518Y-66542945D01*
X81348555Y-66429982D01*
X81259801Y-66297153D01*
X81257046Y-66290501D01*
X81198666Y-66149560D01*
X81167500Y-65992878D01*
X81167500Y-65833122D01*
X81198666Y-65676440D01*
X81259800Y-65528849D01*
X81348555Y-65396018D01*
X81461518Y-65283055D01*
X81539313Y-65231074D01*
X81594347Y-65194301D01*
X81741940Y-65133166D01*
X81898622Y-65102000D01*
X82058378Y-65102000D01*
X82215060Y-65133166D01*
X82215060Y-65133166D01*
G37*
G36*
X87295060Y-65133166D02*
G01*
X87442653Y-65194301D01*
X87497687Y-65231074D01*
X87575482Y-65283055D01*
X87688445Y-65396018D01*
X87777200Y-65528849D01*
X87838334Y-65676440D01*
X87869500Y-65833122D01*
X87869500Y-65992878D01*
X87838334Y-66149560D01*
X87779955Y-66290501D01*
X87777199Y-66297153D01*
X87688445Y-66429982D01*
X87575482Y-66542945D01*
X87442653Y-66631699D01*
X87442652Y-66631700D01*
X87442651Y-66631700D01*
X87295060Y-66692834D01*
X87138378Y-66724000D01*
X86978622Y-66724000D01*
X86821940Y-66692834D01*
X86674349Y-66631700D01*
X86674348Y-66631700D01*
X86674347Y-66631699D01*
X86541518Y-66542945D01*
X86428555Y-66429982D01*
X86339801Y-66297153D01*
X86337046Y-66290501D01*
X86278666Y-66149560D01*
X86247500Y-65992878D01*
X86247500Y-65833122D01*
X86278666Y-65676440D01*
X86339800Y-65528849D01*
X86428555Y-65396018D01*
X86541518Y-65283055D01*
X86619313Y-65231074D01*
X86674347Y-65194301D01*
X86821940Y-65133166D01*
X86978622Y-65102000D01*
X87138378Y-65102000D01*
X87295060Y-65133166D01*
X87295060Y-65133166D01*
G37*
G36*
X89835060Y-65133166D02*
G01*
X89982653Y-65194301D01*
X90037687Y-65231074D01*
X90115482Y-65283055D01*
X90228445Y-65396018D01*
X90317200Y-65528849D01*
X90378334Y-65676440D01*
X90409500Y-65833122D01*
X90409500Y-65992878D01*
X90378334Y-66149560D01*
X90319955Y-66290501D01*
X90317199Y-66297153D01*
X90228445Y-66429982D01*
X90115482Y-66542945D01*
X89982653Y-66631699D01*
X89982652Y-66631700D01*
X89982651Y-66631700D01*
X89835060Y-66692834D01*
X89678378Y-66724000D01*
X89518622Y-66724000D01*
X89361940Y-66692834D01*
X89214349Y-66631700D01*
X89214348Y-66631700D01*
X89214347Y-66631699D01*
X89081518Y-66542945D01*
X88968555Y-66429982D01*
X88879801Y-66297153D01*
X88877046Y-66290501D01*
X88818666Y-66149560D01*
X88787500Y-65992878D01*
X88787500Y-65833122D01*
X88818666Y-65676440D01*
X88879800Y-65528849D01*
X88968555Y-65396018D01*
X89081518Y-65283055D01*
X89159313Y-65231074D01*
X89214347Y-65194301D01*
X89361940Y-65133166D01*
X89518622Y-65102000D01*
X89678378Y-65102000D01*
X89835060Y-65133166D01*
X89835060Y-65133166D01*
G37*
G36*
X92375060Y-65133166D02*
G01*
X92522653Y-65194301D01*
X92577687Y-65231074D01*
X92655482Y-65283055D01*
X92768445Y-65396018D01*
X92857200Y-65528849D01*
X92918334Y-65676440D01*
X92949500Y-65833122D01*
X92949500Y-65992878D01*
X92918334Y-66149560D01*
X92859955Y-66290501D01*
X92857199Y-66297153D01*
X92768445Y-66429982D01*
X92655482Y-66542945D01*
X92522653Y-66631699D01*
X92522652Y-66631700D01*
X92522651Y-66631700D01*
X92375060Y-66692834D01*
X92218378Y-66724000D01*
X92058622Y-66724000D01*
X91901940Y-66692834D01*
X91754349Y-66631700D01*
X91754348Y-66631700D01*
X91754347Y-66631699D01*
X91621518Y-66542945D01*
X91508555Y-66429982D01*
X91419801Y-66297153D01*
X91417046Y-66290501D01*
X91358666Y-66149560D01*
X91327500Y-65992878D01*
X91327500Y-65833122D01*
X91358666Y-65676440D01*
X91419800Y-65528849D01*
X91508555Y-65396018D01*
X91621518Y-65283055D01*
X91699313Y-65231074D01*
X91754347Y-65194301D01*
X91901940Y-65133166D01*
X92058622Y-65102000D01*
X92218378Y-65102000D01*
X92375060Y-65133166D01*
X92375060Y-65133166D01*
G37*
G36*
X94915060Y-65133166D02*
G01*
X95062653Y-65194301D01*
X95117687Y-65231074D01*
X95195482Y-65283055D01*
X95308445Y-65396018D01*
X95397200Y-65528849D01*
X95458334Y-65676440D01*
X95489500Y-65833122D01*
X95489500Y-65992878D01*
X95458334Y-66149560D01*
X95399955Y-66290501D01*
X95397199Y-66297153D01*
X95308445Y-66429982D01*
X95195482Y-66542945D01*
X95062653Y-66631699D01*
X95062652Y-66631700D01*
X95062651Y-66631700D01*
X94915060Y-66692834D01*
X94758378Y-66724000D01*
X94598622Y-66724000D01*
X94441940Y-66692834D01*
X94294349Y-66631700D01*
X94294348Y-66631700D01*
X94294347Y-66631699D01*
X94161518Y-66542945D01*
X94048555Y-66429982D01*
X93959801Y-66297153D01*
X93957046Y-66290501D01*
X93898666Y-66149560D01*
X93867500Y-65992878D01*
X93867500Y-65833122D01*
X93898666Y-65676440D01*
X93959800Y-65528849D01*
X94048555Y-65396018D01*
X94161518Y-65283055D01*
X94239313Y-65231074D01*
X94294347Y-65194301D01*
X94441940Y-65133166D01*
X94598622Y-65102000D01*
X94758378Y-65102000D01*
X94915060Y-65133166D01*
X94915060Y-65133166D01*
G37*
G36*
X97455060Y-65133166D02*
G01*
X97602653Y-65194301D01*
X97657687Y-65231074D01*
X97735482Y-65283055D01*
X97848445Y-65396018D01*
X97937200Y-65528849D01*
X97998334Y-65676440D01*
X98029500Y-65833122D01*
X98029500Y-65992878D01*
X97998334Y-66149560D01*
X97939955Y-66290501D01*
X97937199Y-66297153D01*
X97848445Y-66429982D01*
X97735482Y-66542945D01*
X97602653Y-66631699D01*
X97602652Y-66631700D01*
X97602651Y-66631700D01*
X97455060Y-66692834D01*
X97298378Y-66724000D01*
X97138622Y-66724000D01*
X96981940Y-66692834D01*
X96834349Y-66631700D01*
X96834348Y-66631700D01*
X96834347Y-66631699D01*
X96701518Y-66542945D01*
X96588555Y-66429982D01*
X96499801Y-66297153D01*
X96497046Y-66290501D01*
X96438666Y-66149560D01*
X96407500Y-65992878D01*
X96407500Y-65833122D01*
X96438666Y-65676440D01*
X96499800Y-65528849D01*
X96588555Y-65396018D01*
X96701518Y-65283055D01*
X96779313Y-65231074D01*
X96834347Y-65194301D01*
X96981940Y-65133166D01*
X97138622Y-65102000D01*
X97298378Y-65102000D01*
X97455060Y-65133166D01*
X97455060Y-65133166D01*
G37*
G36*
X74595060Y-65133166D02*
G01*
X74742653Y-65194301D01*
X74797687Y-65231074D01*
X74875482Y-65283055D01*
X74988445Y-65396018D01*
X75077200Y-65528849D01*
X75138334Y-65676440D01*
X75169500Y-65833122D01*
X75169500Y-65992878D01*
X75138334Y-66149560D01*
X75079955Y-66290501D01*
X75077199Y-66297153D01*
X74988445Y-66429982D01*
X74875482Y-66542945D01*
X74742653Y-66631699D01*
X74742652Y-66631700D01*
X74742651Y-66631700D01*
X74595060Y-66692834D01*
X74438378Y-66724000D01*
X74278622Y-66724000D01*
X74121940Y-66692834D01*
X73974349Y-66631700D01*
X73974348Y-66631700D01*
X73974347Y-66631699D01*
X73841518Y-66542945D01*
X73728555Y-66429982D01*
X73639801Y-66297153D01*
X73637046Y-66290501D01*
X73578666Y-66149560D01*
X73547500Y-65992878D01*
X73547500Y-65833122D01*
X73578666Y-65676440D01*
X73639800Y-65528849D01*
X73728555Y-65396018D01*
X73841518Y-65283055D01*
X73919313Y-65231074D01*
X73974347Y-65194301D01*
X74121940Y-65133166D01*
X74278622Y-65102000D01*
X74438378Y-65102000D01*
X74595060Y-65133166D01*
X74595060Y-65133166D01*
G37*
G36*
X158415060Y-65133166D02*
G01*
X158562653Y-65194301D01*
X158617687Y-65231074D01*
X158695482Y-65283055D01*
X158808445Y-65396018D01*
X158897200Y-65528849D01*
X158958334Y-65676440D01*
X158989500Y-65833122D01*
X158989500Y-65992878D01*
X158958334Y-66149560D01*
X158899955Y-66290501D01*
X158897199Y-66297153D01*
X158808445Y-66429982D01*
X158695482Y-66542945D01*
X158562653Y-66631699D01*
X158562652Y-66631700D01*
X158562651Y-66631700D01*
X158415060Y-66692834D01*
X158258378Y-66724000D01*
X158098622Y-66724000D01*
X157941940Y-66692834D01*
X157794349Y-66631700D01*
X157794348Y-66631700D01*
X157794347Y-66631699D01*
X157661518Y-66542945D01*
X157548555Y-66429982D01*
X157459801Y-66297153D01*
X157457046Y-66290501D01*
X157398666Y-66149560D01*
X157367500Y-65992878D01*
X157367500Y-65833122D01*
X157398666Y-65676440D01*
X157459800Y-65528849D01*
X157548555Y-65396018D01*
X157661518Y-65283055D01*
X157739313Y-65231074D01*
X157794347Y-65194301D01*
X157941940Y-65133166D01*
X158098622Y-65102000D01*
X158258378Y-65102000D01*
X158415060Y-65133166D01*
X158415060Y-65133166D01*
G37*
G36*
X77135060Y-65133166D02*
G01*
X77282653Y-65194301D01*
X77337687Y-65231074D01*
X77415482Y-65283055D01*
X77528445Y-65396018D01*
X77617200Y-65528849D01*
X77678334Y-65676440D01*
X77709500Y-65833122D01*
X77709500Y-65992878D01*
X77678334Y-66149560D01*
X77619955Y-66290501D01*
X77617199Y-66297153D01*
X77528445Y-66429982D01*
X77415482Y-66542945D01*
X77282653Y-66631699D01*
X77282652Y-66631700D01*
X77282651Y-66631700D01*
X77135060Y-66692834D01*
X76978378Y-66724000D01*
X76818622Y-66724000D01*
X76661940Y-66692834D01*
X76514349Y-66631700D01*
X76514348Y-66631700D01*
X76514347Y-66631699D01*
X76381518Y-66542945D01*
X76268555Y-66429982D01*
X76179801Y-66297153D01*
X76177046Y-66290501D01*
X76118666Y-66149560D01*
X76087500Y-65992878D01*
X76087500Y-65833122D01*
X76118666Y-65676440D01*
X76179800Y-65528849D01*
X76268555Y-65396018D01*
X76381518Y-65283055D01*
X76459313Y-65231074D01*
X76514347Y-65194301D01*
X76661940Y-65133166D01*
X76818622Y-65102000D01*
X76978378Y-65102000D01*
X77135060Y-65133166D01*
X77135060Y-65133166D01*
G37*
G36*
X79675060Y-65133166D02*
G01*
X79822653Y-65194301D01*
X79877687Y-65231074D01*
X79955482Y-65283055D01*
X80068445Y-65396018D01*
X80157200Y-65528849D01*
X80218334Y-65676440D01*
X80249500Y-65833122D01*
X80249500Y-65992878D01*
X80218334Y-66149560D01*
X80159955Y-66290501D01*
X80157199Y-66297153D01*
X80068445Y-66429982D01*
X79955482Y-66542945D01*
X79822653Y-66631699D01*
X79822652Y-66631700D01*
X79822651Y-66631700D01*
X79675060Y-66692834D01*
X79518378Y-66724000D01*
X79358622Y-66724000D01*
X79201940Y-66692834D01*
X79054349Y-66631700D01*
X79054348Y-66631700D01*
X79054347Y-66631699D01*
X78921518Y-66542945D01*
X78808555Y-66429982D01*
X78719801Y-66297153D01*
X78717046Y-66290501D01*
X78658666Y-66149560D01*
X78627500Y-65992878D01*
X78627500Y-65833122D01*
X78658666Y-65676440D01*
X78719800Y-65528849D01*
X78808555Y-65396018D01*
X78921518Y-65283055D01*
X78999313Y-65231074D01*
X79054347Y-65194301D01*
X79201940Y-65133166D01*
X79358622Y-65102000D01*
X79518378Y-65102000D01*
X79675060Y-65133166D01*
X79675060Y-65133166D01*
G37*
G36*
X153335060Y-65133166D02*
G01*
X153482653Y-65194301D01*
X153537687Y-65231074D01*
X153615482Y-65283055D01*
X153728445Y-65396018D01*
X153817200Y-65528849D01*
X153878334Y-65676440D01*
X153909500Y-65833122D01*
X153909500Y-65992878D01*
X153878334Y-66149560D01*
X153819955Y-66290501D01*
X153817199Y-66297153D01*
X153728445Y-66429982D01*
X153615482Y-66542945D01*
X153482653Y-66631699D01*
X153482652Y-66631700D01*
X153482651Y-66631700D01*
X153335060Y-66692834D01*
X153178378Y-66724000D01*
X153018622Y-66724000D01*
X152861940Y-66692834D01*
X152714349Y-66631700D01*
X152714348Y-66631700D01*
X152714347Y-66631699D01*
X152581518Y-66542945D01*
X152468555Y-66429982D01*
X152379801Y-66297153D01*
X152377046Y-66290501D01*
X152318666Y-66149560D01*
X152287500Y-65992878D01*
X152287500Y-65833122D01*
X152318666Y-65676440D01*
X152379800Y-65528849D01*
X152468555Y-65396018D01*
X152581518Y-65283055D01*
X152659313Y-65231074D01*
X152714347Y-65194301D01*
X152861940Y-65133166D01*
X153018622Y-65102000D01*
X153178378Y-65102000D01*
X153335060Y-65133166D01*
X153335060Y-65133166D01*
G37*
G36*
X84755060Y-65133166D02*
G01*
X84902653Y-65194301D01*
X84957687Y-65231074D01*
X85035482Y-65283055D01*
X85148445Y-65396018D01*
X85237200Y-65528849D01*
X85298334Y-65676440D01*
X85329500Y-65833122D01*
X85329500Y-65992878D01*
X85298334Y-66149560D01*
X85239955Y-66290501D01*
X85237199Y-66297153D01*
X85148445Y-66429982D01*
X85035482Y-66542945D01*
X84902653Y-66631699D01*
X84902652Y-66631700D01*
X84902651Y-66631700D01*
X84755060Y-66692834D01*
X84598378Y-66724000D01*
X84438622Y-66724000D01*
X84281940Y-66692834D01*
X84134349Y-66631700D01*
X84134348Y-66631700D01*
X84134347Y-66631699D01*
X84001518Y-66542945D01*
X83888555Y-66429982D01*
X83799801Y-66297153D01*
X83797046Y-66290501D01*
X83738666Y-66149560D01*
X83707500Y-65992878D01*
X83707500Y-65833122D01*
X83738666Y-65676440D01*
X83799800Y-65528849D01*
X83888555Y-65396018D01*
X84001518Y-65283055D01*
X84079313Y-65231074D01*
X84134347Y-65194301D01*
X84281940Y-65133166D01*
X84438622Y-65102000D01*
X84598378Y-65102000D01*
X84755060Y-65133166D01*
X84755060Y-65133166D01*
G37*
G36*
X160955060Y-65133166D02*
G01*
X161102653Y-65194301D01*
X161157687Y-65231074D01*
X161235482Y-65283055D01*
X161348445Y-65396018D01*
X161437200Y-65528849D01*
X161498334Y-65676440D01*
X161529500Y-65833122D01*
X161529500Y-65992878D01*
X161498334Y-66149560D01*
X161439955Y-66290501D01*
X161437199Y-66297153D01*
X161348445Y-66429982D01*
X161235482Y-66542945D01*
X161102653Y-66631699D01*
X161102652Y-66631700D01*
X161102651Y-66631700D01*
X160955060Y-66692834D01*
X160798378Y-66724000D01*
X160638622Y-66724000D01*
X160481940Y-66692834D01*
X160334349Y-66631700D01*
X160334348Y-66631700D01*
X160334347Y-66631699D01*
X160201518Y-66542945D01*
X160088555Y-66429982D01*
X159999801Y-66297153D01*
X159997046Y-66290501D01*
X159938666Y-66149560D01*
X159907500Y-65992878D01*
X159907500Y-65833122D01*
X159938666Y-65676440D01*
X159999800Y-65528849D01*
X160088555Y-65396018D01*
X160201518Y-65283055D01*
X160279313Y-65231074D01*
X160334347Y-65194301D01*
X160481940Y-65133166D01*
X160638622Y-65102000D01*
X160798378Y-65102000D01*
X160955060Y-65133166D01*
X160955060Y-65133166D01*
G37*
G36*
X150795060Y-65133166D02*
G01*
X150942653Y-65194301D01*
X150997687Y-65231074D01*
X151075482Y-65283055D01*
X151188445Y-65396018D01*
X151277200Y-65528849D01*
X151338334Y-65676440D01*
X151369500Y-65833122D01*
X151369500Y-65992878D01*
X151338334Y-66149560D01*
X151279955Y-66290501D01*
X151277199Y-66297153D01*
X151188445Y-66429982D01*
X151075482Y-66542945D01*
X150942653Y-66631699D01*
X150942652Y-66631700D01*
X150942651Y-66631700D01*
X150795060Y-66692834D01*
X150638378Y-66724000D01*
X150478622Y-66724000D01*
X150321940Y-66692834D01*
X150174349Y-66631700D01*
X150174348Y-66631700D01*
X150174347Y-66631699D01*
X150041518Y-66542945D01*
X149928555Y-66429982D01*
X149839801Y-66297153D01*
X149837046Y-66290501D01*
X149778666Y-66149560D01*
X149747500Y-65992878D01*
X149747500Y-65833122D01*
X149778666Y-65676440D01*
X149839800Y-65528849D01*
X149928555Y-65396018D01*
X150041518Y-65283055D01*
X150119313Y-65231074D01*
X150174347Y-65194301D01*
X150321940Y-65133166D01*
X150478622Y-65102000D01*
X150638378Y-65102000D01*
X150795060Y-65133166D01*
X150795060Y-65133166D01*
G37*
G36*
X148255060Y-65133166D02*
G01*
X148402653Y-65194301D01*
X148457687Y-65231074D01*
X148535482Y-65283055D01*
X148648445Y-65396018D01*
X148737200Y-65528849D01*
X148798334Y-65676440D01*
X148829500Y-65833122D01*
X148829500Y-65992878D01*
X148798334Y-66149560D01*
X148739955Y-66290501D01*
X148737199Y-66297153D01*
X148648445Y-66429982D01*
X148535482Y-66542945D01*
X148402653Y-66631699D01*
X148402652Y-66631700D01*
X148402651Y-66631700D01*
X148255060Y-66692834D01*
X148098378Y-66724000D01*
X147938622Y-66724000D01*
X147781940Y-66692834D01*
X147634349Y-66631700D01*
X147634348Y-66631700D01*
X147634347Y-66631699D01*
X147501518Y-66542945D01*
X147388555Y-66429982D01*
X147299801Y-66297153D01*
X147297046Y-66290501D01*
X147238666Y-66149560D01*
X147207500Y-65992878D01*
X147207500Y-65833122D01*
X147238666Y-65676440D01*
X147299800Y-65528849D01*
X147388555Y-65396018D01*
X147501518Y-65283055D01*
X147579313Y-65231074D01*
X147634347Y-65194301D01*
X147781940Y-65133166D01*
X147938622Y-65102000D01*
X148098378Y-65102000D01*
X148255060Y-65133166D01*
X148255060Y-65133166D01*
G37*
G36*
X145715060Y-65133166D02*
G01*
X145862653Y-65194301D01*
X145917687Y-65231074D01*
X145995482Y-65283055D01*
X146108445Y-65396018D01*
X146197200Y-65528849D01*
X146258334Y-65676440D01*
X146289500Y-65833122D01*
X146289500Y-65992878D01*
X146258334Y-66149560D01*
X146199955Y-66290501D01*
X146197199Y-66297153D01*
X146108445Y-66429982D01*
X145995482Y-66542945D01*
X145862653Y-66631699D01*
X145862652Y-66631700D01*
X145862651Y-66631700D01*
X145715060Y-66692834D01*
X145558378Y-66724000D01*
X145398622Y-66724000D01*
X145241940Y-66692834D01*
X145094349Y-66631700D01*
X145094348Y-66631700D01*
X145094347Y-66631699D01*
X144961518Y-66542945D01*
X144848555Y-66429982D01*
X144759801Y-66297153D01*
X144757046Y-66290501D01*
X144698666Y-66149560D01*
X144667500Y-65992878D01*
X144667500Y-65833122D01*
X144698666Y-65676440D01*
X144759800Y-65528849D01*
X144848555Y-65396018D01*
X144961518Y-65283055D01*
X145039313Y-65231074D01*
X145094347Y-65194301D01*
X145241940Y-65133166D01*
X145398622Y-65102000D01*
X145558378Y-65102000D01*
X145715060Y-65133166D01*
X145715060Y-65133166D01*
G37*
G36*
X140635060Y-65133166D02*
G01*
X140782653Y-65194301D01*
X140837687Y-65231074D01*
X140915482Y-65283055D01*
X141028445Y-65396018D01*
X141117200Y-65528849D01*
X141178334Y-65676440D01*
X141209500Y-65833122D01*
X141209500Y-65992878D01*
X141178334Y-66149560D01*
X141119955Y-66290501D01*
X141117199Y-66297153D01*
X141028445Y-66429982D01*
X140915482Y-66542945D01*
X140782653Y-66631699D01*
X140782652Y-66631700D01*
X140782651Y-66631700D01*
X140635060Y-66692834D01*
X140478378Y-66724000D01*
X140318622Y-66724000D01*
X140161940Y-66692834D01*
X140014349Y-66631700D01*
X140014348Y-66631700D01*
X140014347Y-66631699D01*
X139881518Y-66542945D01*
X139768555Y-66429982D01*
X139679801Y-66297153D01*
X139677046Y-66290501D01*
X139618666Y-66149560D01*
X139587500Y-65992878D01*
X139587500Y-65833122D01*
X139618666Y-65676440D01*
X139679800Y-65528849D01*
X139768555Y-65396018D01*
X139881518Y-65283055D01*
X139959313Y-65231074D01*
X140014347Y-65194301D01*
X140161940Y-65133166D01*
X140318622Y-65102000D01*
X140478378Y-65102000D01*
X140635060Y-65133166D01*
X140635060Y-65133166D01*
G37*
G36*
X138095060Y-65133166D02*
G01*
X138242653Y-65194301D01*
X138297687Y-65231074D01*
X138375482Y-65283055D01*
X138488445Y-65396018D01*
X138577200Y-65528849D01*
X138638334Y-65676440D01*
X138669500Y-65833122D01*
X138669500Y-65992878D01*
X138638334Y-66149560D01*
X138579955Y-66290501D01*
X138577199Y-66297153D01*
X138488445Y-66429982D01*
X138375482Y-66542945D01*
X138242653Y-66631699D01*
X138242652Y-66631700D01*
X138242651Y-66631700D01*
X138095060Y-66692834D01*
X137938378Y-66724000D01*
X137778622Y-66724000D01*
X137621940Y-66692834D01*
X137474349Y-66631700D01*
X137474348Y-66631700D01*
X137474347Y-66631699D01*
X137341518Y-66542945D01*
X137228555Y-66429982D01*
X137139801Y-66297153D01*
X137137046Y-66290501D01*
X137078666Y-66149560D01*
X137047500Y-65992878D01*
X137047500Y-65833122D01*
X137078666Y-65676440D01*
X137139800Y-65528849D01*
X137228555Y-65396018D01*
X137341518Y-65283055D01*
X137419313Y-65231074D01*
X137474347Y-65194301D01*
X137621940Y-65133166D01*
X137778622Y-65102000D01*
X137938378Y-65102000D01*
X138095060Y-65133166D01*
X138095060Y-65133166D01*
G37*
G36*
X155875060Y-65133166D02*
G01*
X156022653Y-65194301D01*
X156077687Y-65231074D01*
X156155482Y-65283055D01*
X156268445Y-65396018D01*
X156357200Y-65528849D01*
X156418334Y-65676440D01*
X156449500Y-65833122D01*
X156449500Y-65992878D01*
X156418334Y-66149560D01*
X156359955Y-66290501D01*
X156357199Y-66297153D01*
X156268445Y-66429982D01*
X156155482Y-66542945D01*
X156022653Y-66631699D01*
X156022652Y-66631700D01*
X156022651Y-66631700D01*
X155875060Y-66692834D01*
X155718378Y-66724000D01*
X155558622Y-66724000D01*
X155401940Y-66692834D01*
X155254349Y-66631700D01*
X155254348Y-66631700D01*
X155254347Y-66631699D01*
X155121518Y-66542945D01*
X155008555Y-66429982D01*
X154919801Y-66297153D01*
X154917046Y-66290501D01*
X154858666Y-66149560D01*
X154827500Y-65992878D01*
X154827500Y-65833122D01*
X154858666Y-65676440D01*
X154919800Y-65528849D01*
X155008555Y-65396018D01*
X155121518Y-65283055D01*
X155199313Y-65231074D01*
X155254347Y-65194301D01*
X155401940Y-65133166D01*
X155558622Y-65102000D01*
X155718378Y-65102000D01*
X155875060Y-65133166D01*
X155875060Y-65133166D01*
G37*
G36*
X143175060Y-65133166D02*
G01*
X143322653Y-65194301D01*
X143377687Y-65231074D01*
X143455482Y-65283055D01*
X143568445Y-65396018D01*
X143657200Y-65528849D01*
X143718334Y-65676440D01*
X143749500Y-65833122D01*
X143749500Y-65992878D01*
X143718334Y-66149560D01*
X143659955Y-66290501D01*
X143657199Y-66297153D01*
X143568445Y-66429982D01*
X143455482Y-66542945D01*
X143322653Y-66631699D01*
X143322652Y-66631700D01*
X143322651Y-66631700D01*
X143175060Y-66692834D01*
X143018378Y-66724000D01*
X142858622Y-66724000D01*
X142701940Y-66692834D01*
X142554349Y-66631700D01*
X142554348Y-66631700D01*
X142554347Y-66631699D01*
X142421518Y-66542945D01*
X142308555Y-66429982D01*
X142219801Y-66297153D01*
X142217046Y-66290501D01*
X142158666Y-66149560D01*
X142127500Y-65992878D01*
X142127500Y-65833122D01*
X142158666Y-65676440D01*
X142219800Y-65528849D01*
X142308555Y-65396018D01*
X142421518Y-65283055D01*
X142499313Y-65231074D01*
X142554347Y-65194301D01*
X142701940Y-65133166D01*
X142858622Y-65102000D01*
X143018378Y-65102000D01*
X143175060Y-65133166D01*
X143175060Y-65133166D01*
G37*
G36*
X175560642Y-64877242D02*
G01*
X175708601Y-64938529D01*
X175841755Y-65027499D01*
X175955001Y-65140745D01*
X176043971Y-65273899D01*
X176105258Y-65421858D01*
X176136500Y-65578925D01*
X176136500Y-65739075D01*
X176105258Y-65896142D01*
X176043971Y-66044101D01*
X175955001Y-66177255D01*
X175841755Y-66290501D01*
X175708601Y-66379471D01*
X175560642Y-66440758D01*
X175403575Y-66472000D01*
X175243425Y-66472000D01*
X175086358Y-66440758D01*
X174938399Y-66379471D01*
X174805245Y-66290501D01*
X174691999Y-66177255D01*
X174603029Y-66044101D01*
X174541742Y-65896142D01*
X174510500Y-65739075D01*
X174510500Y-65578925D01*
X174541742Y-65421858D01*
X174603029Y-65273899D01*
X174691999Y-65140745D01*
X174805245Y-65027499D01*
X174938399Y-64938529D01*
X175086358Y-64877242D01*
X175243425Y-64846000D01*
X175403575Y-64846000D01*
X175560642Y-64877242D01*
X175560642Y-64877242D01*
G37*
G36*
X184958642Y-64877242D02*
G01*
X185106601Y-64938529D01*
X185239755Y-65027499D01*
X185353001Y-65140745D01*
X185441971Y-65273899D01*
X185503258Y-65421858D01*
X185534500Y-65578925D01*
X185534500Y-65739075D01*
X185503258Y-65896142D01*
X185441971Y-66044101D01*
X185353001Y-66177255D01*
X185239755Y-66290501D01*
X185106601Y-66379471D01*
X184958642Y-66440758D01*
X184801575Y-66472000D01*
X184641425Y-66472000D01*
X184484358Y-66440758D01*
X184336399Y-66379471D01*
X184203245Y-66290501D01*
X184089999Y-66177255D01*
X184001029Y-66044101D01*
X183939742Y-65896142D01*
X183908500Y-65739075D01*
X183908500Y-65578925D01*
X183939742Y-65421858D01*
X184001029Y-65273899D01*
X184089999Y-65140745D01*
X184203245Y-65027499D01*
X184336399Y-64938529D01*
X184484358Y-64877242D01*
X184641425Y-64846000D01*
X184801575Y-64846000D01*
X184958642Y-64877242D01*
X184958642Y-64877242D01*
G37*
G36*
X193721642Y-64369242D02*
G01*
X193869601Y-64430529D01*
X194002755Y-64519499D01*
X194116001Y-64632745D01*
X194204971Y-64765899D01*
X194266258Y-64913858D01*
X194297500Y-65070925D01*
X194297500Y-65231075D01*
X194266258Y-65388142D01*
X194204971Y-65536101D01*
X194116001Y-65669255D01*
X194002755Y-65782501D01*
X193869601Y-65871471D01*
X193721642Y-65932758D01*
X193564575Y-65964000D01*
X193404425Y-65964000D01*
X193247358Y-65932758D01*
X193099399Y-65871471D01*
X192966245Y-65782501D01*
X192852999Y-65669255D01*
X192764029Y-65536101D01*
X192702742Y-65388142D01*
X192671500Y-65231075D01*
X192671500Y-65070925D01*
X192702742Y-64913858D01*
X192764029Y-64765899D01*
X192852999Y-64632745D01*
X192966245Y-64519499D01*
X193099399Y-64430529D01*
X193247358Y-64369242D01*
X193404425Y-64338000D01*
X193564575Y-64338000D01*
X193721642Y-64369242D01*
X193721642Y-64369242D01*
G37*
G36*
X153335060Y-62593166D02*
G01*
X153482653Y-62654301D01*
X153537687Y-62691074D01*
X153615482Y-62743055D01*
X153728445Y-62856018D01*
X153817200Y-62988849D01*
X153878334Y-63136440D01*
X153909500Y-63293122D01*
X153909500Y-63452878D01*
X153878334Y-63609560D01*
X153819955Y-63750501D01*
X153817199Y-63757153D01*
X153728445Y-63889982D01*
X153615482Y-64002945D01*
X153482653Y-64091699D01*
X153482652Y-64091700D01*
X153482651Y-64091700D01*
X153335060Y-64152834D01*
X153178378Y-64184000D01*
X153018622Y-64184000D01*
X152861940Y-64152834D01*
X152714349Y-64091700D01*
X152714348Y-64091700D01*
X152714347Y-64091699D01*
X152581518Y-64002945D01*
X152468555Y-63889982D01*
X152379801Y-63757153D01*
X152377046Y-63750501D01*
X152318666Y-63609560D01*
X152287500Y-63452878D01*
X152287500Y-63293122D01*
X152318666Y-63136440D01*
X152379800Y-62988849D01*
X152468555Y-62856018D01*
X152581518Y-62743055D01*
X152659313Y-62691074D01*
X152714347Y-62654301D01*
X152861940Y-62593166D01*
X153018622Y-62562000D01*
X153178378Y-62562000D01*
X153335060Y-62593166D01*
X153335060Y-62593166D01*
G37*
G36*
X145715060Y-62593166D02*
G01*
X145862653Y-62654301D01*
X145917687Y-62691074D01*
X145995482Y-62743055D01*
X146108445Y-62856018D01*
X146197200Y-62988849D01*
X146258334Y-63136440D01*
X146289500Y-63293122D01*
X146289500Y-63452878D01*
X146258334Y-63609560D01*
X146199955Y-63750501D01*
X146197199Y-63757153D01*
X146108445Y-63889982D01*
X145995482Y-64002945D01*
X145862653Y-64091699D01*
X145862652Y-64091700D01*
X145862651Y-64091700D01*
X145715060Y-64152834D01*
X145558378Y-64184000D01*
X145398622Y-64184000D01*
X145241940Y-64152834D01*
X145094349Y-64091700D01*
X145094348Y-64091700D01*
X145094347Y-64091699D01*
X144961518Y-64002945D01*
X144848555Y-63889982D01*
X144759801Y-63757153D01*
X144757046Y-63750501D01*
X144698666Y-63609560D01*
X144667500Y-63452878D01*
X144667500Y-63293122D01*
X144698666Y-63136440D01*
X144759800Y-62988849D01*
X144848555Y-62856018D01*
X144961518Y-62743055D01*
X145039313Y-62691074D01*
X145094347Y-62654301D01*
X145241940Y-62593166D01*
X145398622Y-62562000D01*
X145558378Y-62562000D01*
X145715060Y-62593166D01*
X145715060Y-62593166D01*
G37*
G36*
X155875060Y-62593166D02*
G01*
X156022653Y-62654301D01*
X156077687Y-62691074D01*
X156155482Y-62743055D01*
X156268445Y-62856018D01*
X156357200Y-62988849D01*
X156418334Y-63136440D01*
X156449500Y-63293122D01*
X156449500Y-63452878D01*
X156418334Y-63609560D01*
X156359955Y-63750501D01*
X156357199Y-63757153D01*
X156268445Y-63889982D01*
X156155482Y-64002945D01*
X156022653Y-64091699D01*
X156022652Y-64091700D01*
X156022651Y-64091700D01*
X155875060Y-64152834D01*
X155718378Y-64184000D01*
X155558622Y-64184000D01*
X155401940Y-64152834D01*
X155254349Y-64091700D01*
X155254348Y-64091700D01*
X155254347Y-64091699D01*
X155121518Y-64002945D01*
X155008555Y-63889982D01*
X154919801Y-63757153D01*
X154917046Y-63750501D01*
X154858666Y-63609560D01*
X154827500Y-63452878D01*
X154827500Y-63293122D01*
X154858666Y-63136440D01*
X154919800Y-62988849D01*
X155008555Y-62856018D01*
X155121518Y-62743055D01*
X155199313Y-62691074D01*
X155254347Y-62654301D01*
X155401940Y-62593166D01*
X155558622Y-62562000D01*
X155718378Y-62562000D01*
X155875060Y-62593166D01*
X155875060Y-62593166D01*
G37*
G36*
X158415060Y-62593166D02*
G01*
X158562653Y-62654301D01*
X158617687Y-62691074D01*
X158695482Y-62743055D01*
X158808445Y-62856018D01*
X158897200Y-62988849D01*
X158958334Y-63136440D01*
X158989500Y-63293122D01*
X158989500Y-63452878D01*
X158958334Y-63609560D01*
X158899955Y-63750501D01*
X158897199Y-63757153D01*
X158808445Y-63889982D01*
X158695482Y-64002945D01*
X158562653Y-64091699D01*
X158562652Y-64091700D01*
X158562651Y-64091700D01*
X158415060Y-64152834D01*
X158258378Y-64184000D01*
X158098622Y-64184000D01*
X157941940Y-64152834D01*
X157794349Y-64091700D01*
X157794348Y-64091700D01*
X157794347Y-64091699D01*
X157661518Y-64002945D01*
X157548555Y-63889982D01*
X157459801Y-63757153D01*
X157457046Y-63750501D01*
X157398666Y-63609560D01*
X157367500Y-63452878D01*
X157367500Y-63293122D01*
X157398666Y-63136440D01*
X157459800Y-62988849D01*
X157548555Y-62856018D01*
X157661518Y-62743055D01*
X157739313Y-62691074D01*
X157794347Y-62654301D01*
X157941940Y-62593166D01*
X158098622Y-62562000D01*
X158258378Y-62562000D01*
X158415060Y-62593166D01*
X158415060Y-62593166D01*
G37*
G36*
X160955060Y-62593166D02*
G01*
X161102653Y-62654301D01*
X161157687Y-62691074D01*
X161235482Y-62743055D01*
X161348445Y-62856018D01*
X161437200Y-62988849D01*
X161498334Y-63136440D01*
X161529500Y-63293122D01*
X161529500Y-63452878D01*
X161498334Y-63609560D01*
X161439955Y-63750501D01*
X161437199Y-63757153D01*
X161348445Y-63889982D01*
X161235482Y-64002945D01*
X161102653Y-64091699D01*
X161102652Y-64091700D01*
X161102651Y-64091700D01*
X160955060Y-64152834D01*
X160798378Y-64184000D01*
X160638622Y-64184000D01*
X160481940Y-64152834D01*
X160334349Y-64091700D01*
X160334348Y-64091700D01*
X160334347Y-64091699D01*
X160201518Y-64002945D01*
X160088555Y-63889982D01*
X159999801Y-63757153D01*
X159997046Y-63750501D01*
X159938666Y-63609560D01*
X159907500Y-63452878D01*
X159907500Y-63293122D01*
X159938666Y-63136440D01*
X159999800Y-62988849D01*
X160088555Y-62856018D01*
X160201518Y-62743055D01*
X160279313Y-62691074D01*
X160334347Y-62654301D01*
X160481940Y-62593166D01*
X160638622Y-62562000D01*
X160798378Y-62562000D01*
X160955060Y-62593166D01*
X160955060Y-62593166D01*
G37*
G36*
X94915060Y-62593166D02*
G01*
X95062653Y-62654301D01*
X95117687Y-62691074D01*
X95195482Y-62743055D01*
X95308445Y-62856018D01*
X95397200Y-62988849D01*
X95458334Y-63136440D01*
X95489500Y-63293122D01*
X95489500Y-63452878D01*
X95458334Y-63609560D01*
X95399955Y-63750501D01*
X95397199Y-63757153D01*
X95308445Y-63889982D01*
X95195482Y-64002945D01*
X95062653Y-64091699D01*
X95062652Y-64091700D01*
X95062651Y-64091700D01*
X94915060Y-64152834D01*
X94758378Y-64184000D01*
X94598622Y-64184000D01*
X94441940Y-64152834D01*
X94294349Y-64091700D01*
X94294348Y-64091700D01*
X94294347Y-64091699D01*
X94161518Y-64002945D01*
X94048555Y-63889982D01*
X93959801Y-63757153D01*
X93957046Y-63750501D01*
X93898666Y-63609560D01*
X93867500Y-63452878D01*
X93867500Y-63293122D01*
X93898666Y-63136440D01*
X93959800Y-62988849D01*
X94048555Y-62856018D01*
X94161518Y-62743055D01*
X94239313Y-62691074D01*
X94294347Y-62654301D01*
X94441940Y-62593166D01*
X94598622Y-62562000D01*
X94758378Y-62562000D01*
X94915060Y-62593166D01*
X94915060Y-62593166D01*
G37*
G36*
X97455060Y-62593166D02*
G01*
X97602653Y-62654301D01*
X97657687Y-62691074D01*
X97735482Y-62743055D01*
X97848445Y-62856018D01*
X97937200Y-62988849D01*
X97998334Y-63136440D01*
X98029500Y-63293122D01*
X98029500Y-63452878D01*
X97998334Y-63609560D01*
X97939955Y-63750501D01*
X97937199Y-63757153D01*
X97848445Y-63889982D01*
X97735482Y-64002945D01*
X97602653Y-64091699D01*
X97602652Y-64091700D01*
X97602651Y-64091700D01*
X97455060Y-64152834D01*
X97298378Y-64184000D01*
X97138622Y-64184000D01*
X96981940Y-64152834D01*
X96834349Y-64091700D01*
X96834348Y-64091700D01*
X96834347Y-64091699D01*
X96701518Y-64002945D01*
X96588555Y-63889982D01*
X96499801Y-63757153D01*
X96497046Y-63750501D01*
X96438666Y-63609560D01*
X96407500Y-63452878D01*
X96407500Y-63293122D01*
X96438666Y-63136440D01*
X96499800Y-62988849D01*
X96588555Y-62856018D01*
X96701518Y-62743055D01*
X96779313Y-62691074D01*
X96834347Y-62654301D01*
X96981940Y-62593166D01*
X97138622Y-62562000D01*
X97298378Y-62562000D01*
X97455060Y-62593166D01*
X97455060Y-62593166D01*
G37*
G36*
X143175060Y-62593166D02*
G01*
X143322653Y-62654301D01*
X143377687Y-62691074D01*
X143455482Y-62743055D01*
X143568445Y-62856018D01*
X143657200Y-62988849D01*
X143718334Y-63136440D01*
X143749500Y-63293122D01*
X143749500Y-63452878D01*
X143718334Y-63609560D01*
X143659955Y-63750501D01*
X143657199Y-63757153D01*
X143568445Y-63889982D01*
X143455482Y-64002945D01*
X143322653Y-64091699D01*
X143322652Y-64091700D01*
X143322651Y-64091700D01*
X143175060Y-64152834D01*
X143018378Y-64184000D01*
X142858622Y-64184000D01*
X142701940Y-64152834D01*
X142554349Y-64091700D01*
X142554348Y-64091700D01*
X142554347Y-64091699D01*
X142421518Y-64002945D01*
X142308555Y-63889982D01*
X142219801Y-63757153D01*
X142217046Y-63750501D01*
X142158666Y-63609560D01*
X142127500Y-63452878D01*
X142127500Y-63293122D01*
X142158666Y-63136440D01*
X142219800Y-62988849D01*
X142308555Y-62856018D01*
X142421518Y-62743055D01*
X142499313Y-62691074D01*
X142554347Y-62654301D01*
X142701940Y-62593166D01*
X142858622Y-62562000D01*
X143018378Y-62562000D01*
X143175060Y-62593166D01*
X143175060Y-62593166D01*
G37*
G36*
X140635060Y-62593166D02*
G01*
X140782653Y-62654301D01*
X140837687Y-62691074D01*
X140915482Y-62743055D01*
X141028445Y-62856018D01*
X141117200Y-62988849D01*
X141178334Y-63136440D01*
X141209500Y-63293122D01*
X141209500Y-63452878D01*
X141178334Y-63609560D01*
X141119955Y-63750501D01*
X141117199Y-63757153D01*
X141028445Y-63889982D01*
X140915482Y-64002945D01*
X140782653Y-64091699D01*
X140782652Y-64091700D01*
X140782651Y-64091700D01*
X140635060Y-64152834D01*
X140478378Y-64184000D01*
X140318622Y-64184000D01*
X140161940Y-64152834D01*
X140014349Y-64091700D01*
X140014348Y-64091700D01*
X140014347Y-64091699D01*
X139881518Y-64002945D01*
X139768555Y-63889982D01*
X139679801Y-63757153D01*
X139677046Y-63750501D01*
X139618666Y-63609560D01*
X139587500Y-63452878D01*
X139587500Y-63293122D01*
X139618666Y-63136440D01*
X139679800Y-62988849D01*
X139768555Y-62856018D01*
X139881518Y-62743055D01*
X139959313Y-62691074D01*
X140014347Y-62654301D01*
X140161940Y-62593166D01*
X140318622Y-62562000D01*
X140478378Y-62562000D01*
X140635060Y-62593166D01*
X140635060Y-62593166D01*
G37*
G36*
X138095060Y-62593166D02*
G01*
X138242653Y-62654301D01*
X138297687Y-62691074D01*
X138375482Y-62743055D01*
X138488445Y-62856018D01*
X138577200Y-62988849D01*
X138638334Y-63136440D01*
X138669500Y-63293122D01*
X138669500Y-63452878D01*
X138638334Y-63609560D01*
X138579955Y-63750501D01*
X138577199Y-63757153D01*
X138488445Y-63889982D01*
X138375482Y-64002945D01*
X138242653Y-64091699D01*
X138242652Y-64091700D01*
X138242651Y-64091700D01*
X138095060Y-64152834D01*
X137938378Y-64184000D01*
X137778622Y-64184000D01*
X137621940Y-64152834D01*
X137474349Y-64091700D01*
X137474348Y-64091700D01*
X137474347Y-64091699D01*
X137341518Y-64002945D01*
X137228555Y-63889982D01*
X137139801Y-63757153D01*
X137137046Y-63750501D01*
X137078666Y-63609560D01*
X137047500Y-63452878D01*
X137047500Y-63293122D01*
X137078666Y-63136440D01*
X137139800Y-62988849D01*
X137228555Y-62856018D01*
X137341518Y-62743055D01*
X137419313Y-62691074D01*
X137474347Y-62654301D01*
X137621940Y-62593166D01*
X137778622Y-62562000D01*
X137938378Y-62562000D01*
X138095060Y-62593166D01*
X138095060Y-62593166D01*
G37*
G36*
X150795060Y-62593166D02*
G01*
X150942653Y-62654301D01*
X150997687Y-62691074D01*
X151075482Y-62743055D01*
X151188445Y-62856018D01*
X151277200Y-62988849D01*
X151338334Y-63136440D01*
X151369500Y-63293122D01*
X151369500Y-63452878D01*
X151338334Y-63609560D01*
X151279955Y-63750501D01*
X151277199Y-63757153D01*
X151188445Y-63889982D01*
X151075482Y-64002945D01*
X150942653Y-64091699D01*
X150942652Y-64091700D01*
X150942651Y-64091700D01*
X150795060Y-64152834D01*
X150638378Y-64184000D01*
X150478622Y-64184000D01*
X150321940Y-64152834D01*
X150174349Y-64091700D01*
X150174348Y-64091700D01*
X150174347Y-64091699D01*
X150041518Y-64002945D01*
X149928555Y-63889982D01*
X149839801Y-63757153D01*
X149837046Y-63750501D01*
X149778666Y-63609560D01*
X149747500Y-63452878D01*
X149747500Y-63293122D01*
X149778666Y-63136440D01*
X149839800Y-62988849D01*
X149928555Y-62856018D01*
X150041518Y-62743055D01*
X150119313Y-62691074D01*
X150174347Y-62654301D01*
X150321940Y-62593166D01*
X150478622Y-62562000D01*
X150638378Y-62562000D01*
X150795060Y-62593166D01*
X150795060Y-62593166D01*
G37*
G36*
X148255060Y-62593166D02*
G01*
X148402653Y-62654301D01*
X148457687Y-62691074D01*
X148535482Y-62743055D01*
X148648445Y-62856018D01*
X148737200Y-62988849D01*
X148798334Y-63136440D01*
X148829500Y-63293122D01*
X148829500Y-63452878D01*
X148798334Y-63609560D01*
X148739955Y-63750501D01*
X148737199Y-63757153D01*
X148648445Y-63889982D01*
X148535482Y-64002945D01*
X148402653Y-64091699D01*
X148402652Y-64091700D01*
X148402651Y-64091700D01*
X148255060Y-64152834D01*
X148098378Y-64184000D01*
X147938622Y-64184000D01*
X147781940Y-64152834D01*
X147634349Y-64091700D01*
X147634348Y-64091700D01*
X147634347Y-64091699D01*
X147501518Y-64002945D01*
X147388555Y-63889982D01*
X147299801Y-63757153D01*
X147297046Y-63750501D01*
X147238666Y-63609560D01*
X147207500Y-63452878D01*
X147207500Y-63293122D01*
X147238666Y-63136440D01*
X147299800Y-62988849D01*
X147388555Y-62856018D01*
X147501518Y-62743055D01*
X147579313Y-62691074D01*
X147634347Y-62654301D01*
X147781940Y-62593166D01*
X147938622Y-62562000D01*
X148098378Y-62562000D01*
X148255060Y-62593166D01*
X148255060Y-62593166D01*
G37*
G36*
X74595060Y-62593166D02*
G01*
X74742653Y-62654301D01*
X74797687Y-62691074D01*
X74875482Y-62743055D01*
X74988445Y-62856018D01*
X75077200Y-62988849D01*
X75138334Y-63136440D01*
X75169500Y-63293122D01*
X75169500Y-63452878D01*
X75138334Y-63609560D01*
X75079955Y-63750501D01*
X75077199Y-63757153D01*
X74988445Y-63889982D01*
X74875482Y-64002945D01*
X74742653Y-64091699D01*
X74742652Y-64091700D01*
X74742651Y-64091700D01*
X74595060Y-64152834D01*
X74438378Y-64184000D01*
X74278622Y-64184000D01*
X74121940Y-64152834D01*
X73974349Y-64091700D01*
X73974348Y-64091700D01*
X73974347Y-64091699D01*
X73841518Y-64002945D01*
X73728555Y-63889982D01*
X73639801Y-63757153D01*
X73637046Y-63750501D01*
X73578666Y-63609560D01*
X73547500Y-63452878D01*
X73547500Y-63293122D01*
X73578666Y-63136440D01*
X73639800Y-62988849D01*
X73728555Y-62856018D01*
X73841518Y-62743055D01*
X73919313Y-62691074D01*
X73974347Y-62654301D01*
X74121940Y-62593166D01*
X74278622Y-62562000D01*
X74438378Y-62562000D01*
X74595060Y-62593166D01*
X74595060Y-62593166D01*
G37*
G36*
X77135060Y-62593166D02*
G01*
X77282653Y-62654301D01*
X77337687Y-62691074D01*
X77415482Y-62743055D01*
X77528445Y-62856018D01*
X77617200Y-62988849D01*
X77678334Y-63136440D01*
X77709500Y-63293122D01*
X77709500Y-63452878D01*
X77678334Y-63609560D01*
X77619955Y-63750501D01*
X77617199Y-63757153D01*
X77528445Y-63889982D01*
X77415482Y-64002945D01*
X77282653Y-64091699D01*
X77282652Y-64091700D01*
X77282651Y-64091700D01*
X77135060Y-64152834D01*
X76978378Y-64184000D01*
X76818622Y-64184000D01*
X76661940Y-64152834D01*
X76514349Y-64091700D01*
X76514348Y-64091700D01*
X76514347Y-64091699D01*
X76381518Y-64002945D01*
X76268555Y-63889982D01*
X76179801Y-63757153D01*
X76177046Y-63750501D01*
X76118666Y-63609560D01*
X76087500Y-63452878D01*
X76087500Y-63293122D01*
X76118666Y-63136440D01*
X76179800Y-62988849D01*
X76268555Y-62856018D01*
X76381518Y-62743055D01*
X76459313Y-62691074D01*
X76514347Y-62654301D01*
X76661940Y-62593166D01*
X76818622Y-62562000D01*
X76978378Y-62562000D01*
X77135060Y-62593166D01*
X77135060Y-62593166D01*
G37*
G36*
X79675060Y-62593166D02*
G01*
X79822653Y-62654301D01*
X79877687Y-62691074D01*
X79955482Y-62743055D01*
X80068445Y-62856018D01*
X80157200Y-62988849D01*
X80218334Y-63136440D01*
X80249500Y-63293122D01*
X80249500Y-63452878D01*
X80218334Y-63609560D01*
X80159955Y-63750501D01*
X80157199Y-63757153D01*
X80068445Y-63889982D01*
X79955482Y-64002945D01*
X79822653Y-64091699D01*
X79822652Y-64091700D01*
X79822651Y-64091700D01*
X79675060Y-64152834D01*
X79518378Y-64184000D01*
X79358622Y-64184000D01*
X79201940Y-64152834D01*
X79054349Y-64091700D01*
X79054348Y-64091700D01*
X79054347Y-64091699D01*
X78921518Y-64002945D01*
X78808555Y-63889982D01*
X78719801Y-63757153D01*
X78717046Y-63750501D01*
X78658666Y-63609560D01*
X78627500Y-63452878D01*
X78627500Y-63293122D01*
X78658666Y-63136440D01*
X78719800Y-62988849D01*
X78808555Y-62856018D01*
X78921518Y-62743055D01*
X78999313Y-62691074D01*
X79054347Y-62654301D01*
X79201940Y-62593166D01*
X79358622Y-62562000D01*
X79518378Y-62562000D01*
X79675060Y-62593166D01*
X79675060Y-62593166D01*
G37*
G36*
X82215060Y-62593166D02*
G01*
X82362653Y-62654301D01*
X82417687Y-62691074D01*
X82495482Y-62743055D01*
X82608445Y-62856018D01*
X82697200Y-62988849D01*
X82758334Y-63136440D01*
X82789500Y-63293122D01*
X82789500Y-63452878D01*
X82758334Y-63609560D01*
X82699955Y-63750501D01*
X82697199Y-63757153D01*
X82608445Y-63889982D01*
X82495482Y-64002945D01*
X82362653Y-64091699D01*
X82362652Y-64091700D01*
X82362651Y-64091700D01*
X82215060Y-64152834D01*
X82058378Y-64184000D01*
X81898622Y-64184000D01*
X81741940Y-64152834D01*
X81594349Y-64091700D01*
X81594348Y-64091700D01*
X81594347Y-64091699D01*
X81461518Y-64002945D01*
X81348555Y-63889982D01*
X81259801Y-63757153D01*
X81257046Y-63750501D01*
X81198666Y-63609560D01*
X81167500Y-63452878D01*
X81167500Y-63293122D01*
X81198666Y-63136440D01*
X81259800Y-62988849D01*
X81348555Y-62856018D01*
X81461518Y-62743055D01*
X81539313Y-62691074D01*
X81594347Y-62654301D01*
X81741940Y-62593166D01*
X81898622Y-62562000D01*
X82058378Y-62562000D01*
X82215060Y-62593166D01*
X82215060Y-62593166D01*
G37*
G36*
X84755060Y-62593166D02*
G01*
X84902653Y-62654301D01*
X84957687Y-62691074D01*
X85035482Y-62743055D01*
X85148445Y-62856018D01*
X85237200Y-62988849D01*
X85298334Y-63136440D01*
X85329500Y-63293122D01*
X85329500Y-63452878D01*
X85298334Y-63609560D01*
X85239955Y-63750501D01*
X85237199Y-63757153D01*
X85148445Y-63889982D01*
X85035482Y-64002945D01*
X84902653Y-64091699D01*
X84902652Y-64091700D01*
X84902651Y-64091700D01*
X84755060Y-64152834D01*
X84598378Y-64184000D01*
X84438622Y-64184000D01*
X84281940Y-64152834D01*
X84134349Y-64091700D01*
X84134348Y-64091700D01*
X84134347Y-64091699D01*
X84001518Y-64002945D01*
X83888555Y-63889982D01*
X83799801Y-63757153D01*
X83797046Y-63750501D01*
X83738666Y-63609560D01*
X83707500Y-63452878D01*
X83707500Y-63293122D01*
X83738666Y-63136440D01*
X83799800Y-62988849D01*
X83888555Y-62856018D01*
X84001518Y-62743055D01*
X84079313Y-62691074D01*
X84134347Y-62654301D01*
X84281940Y-62593166D01*
X84438622Y-62562000D01*
X84598378Y-62562000D01*
X84755060Y-62593166D01*
X84755060Y-62593166D01*
G37*
G36*
X87295060Y-62593166D02*
G01*
X87442653Y-62654301D01*
X87497687Y-62691074D01*
X87575482Y-62743055D01*
X87688445Y-62856018D01*
X87777200Y-62988849D01*
X87838334Y-63136440D01*
X87869500Y-63293122D01*
X87869500Y-63452878D01*
X87838334Y-63609560D01*
X87779955Y-63750501D01*
X87777199Y-63757153D01*
X87688445Y-63889982D01*
X87575482Y-64002945D01*
X87442653Y-64091699D01*
X87442652Y-64091700D01*
X87442651Y-64091700D01*
X87295060Y-64152834D01*
X87138378Y-64184000D01*
X86978622Y-64184000D01*
X86821940Y-64152834D01*
X86674349Y-64091700D01*
X86674348Y-64091700D01*
X86674347Y-64091699D01*
X86541518Y-64002945D01*
X86428555Y-63889982D01*
X86339801Y-63757153D01*
X86337046Y-63750501D01*
X86278666Y-63609560D01*
X86247500Y-63452878D01*
X86247500Y-63293122D01*
X86278666Y-63136440D01*
X86339800Y-62988849D01*
X86428555Y-62856018D01*
X86541518Y-62743055D01*
X86619313Y-62691074D01*
X86674347Y-62654301D01*
X86821940Y-62593166D01*
X86978622Y-62562000D01*
X87138378Y-62562000D01*
X87295060Y-62593166D01*
X87295060Y-62593166D01*
G37*
G36*
X92375060Y-62593166D02*
G01*
X92522653Y-62654301D01*
X92577687Y-62691074D01*
X92655482Y-62743055D01*
X92768445Y-62856018D01*
X92857200Y-62988849D01*
X92918334Y-63136440D01*
X92949500Y-63293122D01*
X92949500Y-63452878D01*
X92918334Y-63609560D01*
X92859955Y-63750501D01*
X92857199Y-63757153D01*
X92768445Y-63889982D01*
X92655482Y-64002945D01*
X92522653Y-64091699D01*
X92522652Y-64091700D01*
X92522651Y-64091700D01*
X92375060Y-64152834D01*
X92218378Y-64184000D01*
X92058622Y-64184000D01*
X91901940Y-64152834D01*
X91754349Y-64091700D01*
X91754348Y-64091700D01*
X91754347Y-64091699D01*
X91621518Y-64002945D01*
X91508555Y-63889982D01*
X91419801Y-63757153D01*
X91417046Y-63750501D01*
X91358666Y-63609560D01*
X91327500Y-63452878D01*
X91327500Y-63293122D01*
X91358666Y-63136440D01*
X91419800Y-62988849D01*
X91508555Y-62856018D01*
X91621518Y-62743055D01*
X91699313Y-62691074D01*
X91754347Y-62654301D01*
X91901940Y-62593166D01*
X92058622Y-62562000D01*
X92218378Y-62562000D01*
X92375060Y-62593166D01*
X92375060Y-62593166D01*
G37*
G36*
X89835060Y-62593166D02*
G01*
X89982653Y-62654301D01*
X90037687Y-62691074D01*
X90115482Y-62743055D01*
X90228445Y-62856018D01*
X90317200Y-62988849D01*
X90378334Y-63136440D01*
X90409500Y-63293122D01*
X90409500Y-63452878D01*
X90378334Y-63609560D01*
X90319955Y-63750501D01*
X90317199Y-63757153D01*
X90228445Y-63889982D01*
X90115482Y-64002945D01*
X89982653Y-64091699D01*
X89982652Y-64091700D01*
X89982651Y-64091700D01*
X89835060Y-64152834D01*
X89678378Y-64184000D01*
X89518622Y-64184000D01*
X89361940Y-64152834D01*
X89214349Y-64091700D01*
X89214348Y-64091700D01*
X89214347Y-64091699D01*
X89081518Y-64002945D01*
X88968555Y-63889982D01*
X88879801Y-63757153D01*
X88877046Y-63750501D01*
X88818666Y-63609560D01*
X88787500Y-63452878D01*
X88787500Y-63293122D01*
X88818666Y-63136440D01*
X88879800Y-62988849D01*
X88968555Y-62856018D01*
X89081518Y-62743055D01*
X89159313Y-62691074D01*
X89214347Y-62654301D01*
X89361940Y-62593166D01*
X89518622Y-62562000D01*
X89678378Y-62562000D01*
X89835060Y-62593166D01*
X89835060Y-62593166D01*
G37*
G36*
X175560642Y-62337242D02*
G01*
X175708601Y-62398529D01*
X175841755Y-62487499D01*
X175955001Y-62600745D01*
X176043971Y-62733899D01*
X176105258Y-62881858D01*
X176136500Y-63038925D01*
X176136500Y-63199075D01*
X176105258Y-63356142D01*
X176043971Y-63504101D01*
X175955001Y-63637255D01*
X175841755Y-63750501D01*
X175708601Y-63839471D01*
X175560642Y-63900758D01*
X175403575Y-63932000D01*
X175243425Y-63932000D01*
X175086358Y-63900758D01*
X174938399Y-63839471D01*
X174805245Y-63750501D01*
X174691999Y-63637255D01*
X174603029Y-63504101D01*
X174541742Y-63356142D01*
X174510500Y-63199075D01*
X174510500Y-63038925D01*
X174541742Y-62881858D01*
X174603029Y-62733899D01*
X174691999Y-62600745D01*
X174805245Y-62487499D01*
X174938399Y-62398529D01*
X175086358Y-62337242D01*
X175243425Y-62306000D01*
X175403575Y-62306000D01*
X175560642Y-62337242D01*
X175560642Y-62337242D01*
G37*
G36*
X184958642Y-62337242D02*
G01*
X185106601Y-62398529D01*
X185239755Y-62487499D01*
X185353001Y-62600745D01*
X185441971Y-62733899D01*
X185503258Y-62881858D01*
X185534500Y-63038925D01*
X185534500Y-63199075D01*
X185503258Y-63356142D01*
X185441971Y-63504101D01*
X185353001Y-63637255D01*
X185239755Y-63750501D01*
X185106601Y-63839471D01*
X184958642Y-63900758D01*
X184801575Y-63932000D01*
X184641425Y-63932000D01*
X184484358Y-63900758D01*
X184336399Y-63839471D01*
X184203245Y-63750501D01*
X184089999Y-63637255D01*
X184001029Y-63504101D01*
X183939742Y-63356142D01*
X183908500Y-63199075D01*
X183908500Y-63038925D01*
X183939742Y-62881858D01*
X184001029Y-62733899D01*
X184089999Y-62600745D01*
X184203245Y-62487499D01*
X184336399Y-62398529D01*
X184484358Y-62337242D01*
X184641425Y-62306000D01*
X184801575Y-62306000D01*
X184958642Y-62337242D01*
X184958642Y-62337242D01*
G37*
G36*
X193721642Y-61829242D02*
G01*
X193869601Y-61890529D01*
X194002755Y-61979499D01*
X194116001Y-62092745D01*
X194204971Y-62225899D01*
X194266258Y-62373858D01*
X194297500Y-62530925D01*
X194297500Y-62691075D01*
X194266258Y-62848142D01*
X194204971Y-62996101D01*
X194116001Y-63129255D01*
X194002755Y-63242501D01*
X193869601Y-63331471D01*
X193721642Y-63392758D01*
X193564575Y-63424000D01*
X193404425Y-63424000D01*
X193247358Y-63392758D01*
X193099399Y-63331471D01*
X192966245Y-63242501D01*
X192852999Y-63129255D01*
X192764029Y-62996101D01*
X192702742Y-62848142D01*
X192671500Y-62691075D01*
X192671500Y-62530925D01*
X192702742Y-62373858D01*
X192764029Y-62225899D01*
X192852999Y-62092745D01*
X192966245Y-61979499D01*
X193099399Y-61890529D01*
X193247358Y-61829242D01*
X193404425Y-61798000D01*
X193564575Y-61798000D01*
X193721642Y-61829242D01*
X193721642Y-61829242D01*
G37*
G36*
X122988564Y-59942505D02*
G01*
X123179833Y-60021731D01*
X123179835Y-60021732D01*
X123238219Y-60060743D01*
X123351973Y-60136751D01*
X123498365Y-60283143D01*
X123613385Y-60455283D01*
X123692611Y-60646552D01*
X123733000Y-60849600D01*
X123733000Y-61056632D01*
X123692611Y-61259680D01*
X123650743Y-61360758D01*
X123613384Y-61450951D01*
X123498365Y-61623089D01*
X123351973Y-61769481D01*
X123179835Y-61884500D01*
X123179834Y-61884501D01*
X123179833Y-61884501D01*
X122988564Y-61963727D01*
X122785516Y-62004116D01*
X122578484Y-62004116D01*
X122375436Y-61963727D01*
X122184167Y-61884501D01*
X122184166Y-61884501D01*
X122184165Y-61884500D01*
X122012027Y-61769481D01*
X121865635Y-61623089D01*
X121750616Y-61450951D01*
X121713257Y-61360758D01*
X121671389Y-61259680D01*
X121631000Y-61056632D01*
X121631000Y-60849600D01*
X121671389Y-60646552D01*
X121750615Y-60455283D01*
X121865635Y-60283143D01*
X122012027Y-60136751D01*
X122125781Y-60060743D01*
X122184165Y-60021732D01*
X122184167Y-60021731D01*
X122375436Y-59942505D01*
X122578484Y-59902116D01*
X122785516Y-59902116D01*
X122988564Y-59942505D01*
X122988564Y-59942505D01*
G37*
G36*
X107748564Y-59942505D02*
G01*
X107939833Y-60021731D01*
X107939835Y-60021732D01*
X107998219Y-60060743D01*
X108111973Y-60136751D01*
X108258365Y-60283143D01*
X108373385Y-60455283D01*
X108452611Y-60646552D01*
X108493000Y-60849600D01*
X108493000Y-61056632D01*
X108452611Y-61259680D01*
X108410743Y-61360758D01*
X108373384Y-61450951D01*
X108258365Y-61623089D01*
X108111973Y-61769481D01*
X107939835Y-61884500D01*
X107939834Y-61884501D01*
X107939833Y-61884501D01*
X107748564Y-61963727D01*
X107545516Y-62004116D01*
X107338484Y-62004116D01*
X107135436Y-61963727D01*
X106944167Y-61884501D01*
X106944166Y-61884501D01*
X106944165Y-61884500D01*
X106772027Y-61769481D01*
X106625635Y-61623089D01*
X106510616Y-61450951D01*
X106473257Y-61360758D01*
X106431389Y-61259680D01*
X106391000Y-61056632D01*
X106391000Y-60849600D01*
X106431389Y-60646552D01*
X106510615Y-60455283D01*
X106625635Y-60283143D01*
X106772027Y-60136751D01*
X106885781Y-60060743D01*
X106944165Y-60021732D01*
X106944167Y-60021731D01*
X107135436Y-59942505D01*
X107338484Y-59902116D01*
X107545516Y-59902116D01*
X107748564Y-59942505D01*
X107748564Y-59942505D01*
G37*
G36*
X175560642Y-59797242D02*
G01*
X175708601Y-59858529D01*
X175841755Y-59947499D01*
X175955001Y-60060745D01*
X176043971Y-60193899D01*
X176105258Y-60341858D01*
X176136500Y-60498925D01*
X176136500Y-60659075D01*
X176105258Y-60816142D01*
X176043971Y-60964101D01*
X175955001Y-61097255D01*
X175841755Y-61210501D01*
X175708601Y-61299471D01*
X175560642Y-61360758D01*
X175403575Y-61392000D01*
X175243425Y-61392000D01*
X175086358Y-61360758D01*
X174938399Y-61299471D01*
X174805245Y-61210501D01*
X174691999Y-61097255D01*
X174603029Y-60964101D01*
X174541742Y-60816142D01*
X174510500Y-60659075D01*
X174510500Y-60498925D01*
X174541742Y-60341858D01*
X174603029Y-60193899D01*
X174691999Y-60060745D01*
X174805245Y-59947499D01*
X174938399Y-59858529D01*
X175086358Y-59797242D01*
X175243425Y-59766000D01*
X175403575Y-59766000D01*
X175560642Y-59797242D01*
X175560642Y-59797242D01*
G37*
G36*
X184958642Y-59797242D02*
G01*
X185106601Y-59858529D01*
X185239755Y-59947499D01*
X185353001Y-60060745D01*
X185441971Y-60193899D01*
X185503258Y-60341858D01*
X185534500Y-60498925D01*
X185534500Y-60659075D01*
X185503258Y-60816142D01*
X185441971Y-60964101D01*
X185353001Y-61097255D01*
X185239755Y-61210501D01*
X185106601Y-61299471D01*
X184958642Y-61360758D01*
X184801575Y-61392000D01*
X184641425Y-61392000D01*
X184484358Y-61360758D01*
X184336399Y-61299471D01*
X184203245Y-61210501D01*
X184089999Y-61097255D01*
X184001029Y-60964101D01*
X183939742Y-60816142D01*
X183908500Y-60659075D01*
X183908500Y-60498925D01*
X183939742Y-60341858D01*
X184001029Y-60193899D01*
X184089999Y-60060745D01*
X184203245Y-59947499D01*
X184336399Y-59858529D01*
X184484358Y-59797242D01*
X184641425Y-59766000D01*
X184801575Y-59766000D01*
X184958642Y-59797242D01*
X184958642Y-59797242D01*
G37*
G36*
X193721642Y-59289242D02*
G01*
X193869601Y-59350529D01*
X194002755Y-59439499D01*
X194116001Y-59552745D01*
X194204971Y-59685899D01*
X194266258Y-59833858D01*
X194297500Y-59990925D01*
X194297500Y-60151075D01*
X194266258Y-60308142D01*
X194204971Y-60456101D01*
X194116001Y-60589255D01*
X194002755Y-60702501D01*
X193869601Y-60791471D01*
X193721642Y-60852758D01*
X193564575Y-60884000D01*
X193404425Y-60884000D01*
X193247358Y-60852758D01*
X193099399Y-60791471D01*
X192966245Y-60702501D01*
X192852999Y-60589255D01*
X192764029Y-60456101D01*
X192702742Y-60308142D01*
X192671500Y-60151075D01*
X192671500Y-59990925D01*
X192702742Y-59833858D01*
X192764029Y-59685899D01*
X192852999Y-59552745D01*
X192966245Y-59439499D01*
X193099399Y-59350529D01*
X193247358Y-59289242D01*
X193404425Y-59258000D01*
X193564575Y-59258000D01*
X193721642Y-59289242D01*
X193721642Y-59289242D01*
G37*
G36*
X162345635Y-56635654D02*
G01*
X162562600Y-56701470D01*
X162562602Y-56701471D01*
X162762555Y-56808347D01*
X162937818Y-56952182D01*
X163081653Y-57127445D01*
X163183762Y-57318479D01*
X163188530Y-57327400D01*
X163226001Y-57450925D01*
X163254346Y-57544366D01*
X163271000Y-57713455D01*
X163271000Y-59126545D01*
X163261006Y-59228011D01*
X163254346Y-59295635D01*
X163192005Y-59501146D01*
X163188529Y-59512602D01*
X163081653Y-59712555D01*
X163012151Y-59797243D01*
X162937818Y-59887818D01*
X162865093Y-59947501D01*
X162762553Y-60031653D01*
X162708125Y-60060745D01*
X162562599Y-60138530D01*
X162345634Y-60204346D01*
X162120000Y-60226569D01*
X161894365Y-60204346D01*
X161677400Y-60138530D01*
X161674072Y-60136751D01*
X161477445Y-60031653D01*
X161368819Y-59942505D01*
X161302182Y-59887818D01*
X161158348Y-59712554D01*
X161144101Y-59685899D01*
X161056238Y-59521520D01*
X161042625Y-59501146D01*
X161025298Y-59483819D01*
X161004923Y-59470205D01*
X160982285Y-59460827D01*
X160958251Y-59456047D01*
X160933747Y-59456047D01*
X160909714Y-59460827D01*
X160887075Y-59470205D01*
X160866701Y-59483818D01*
X160849374Y-59501145D01*
X160835760Y-59521520D01*
X160826382Y-59544158D01*
X160821602Y-59568192D01*
X160821000Y-59580444D01*
X160821000Y-59721000D01*
X159219000Y-59721000D01*
X159219000Y-57119000D01*
X160821000Y-57119000D01*
X160821000Y-57259555D01*
X160823402Y-57283941D01*
X160830515Y-57307390D01*
X160842066Y-57329001D01*
X160857611Y-57347943D01*
X160876553Y-57363488D01*
X160898164Y-57375039D01*
X160921613Y-57382152D01*
X160945999Y-57384554D01*
X160970385Y-57382152D01*
X160993834Y-57375039D01*
X161015445Y-57363488D01*
X161034387Y-57347943D01*
X161056238Y-57318479D01*
X161158348Y-57127446D01*
X161302183Y-56952182D01*
X161477446Y-56808347D01*
X161677399Y-56701471D01*
X161677401Y-56701470D01*
X161894366Y-56635654D01*
X162120000Y-56613431D01*
X162345635Y-56635654D01*
X162345635Y-56635654D01*
G37*
G36*
X154145635Y-56635654D02*
G01*
X154362600Y-56701470D01*
X154362602Y-56701471D01*
X154562555Y-56808347D01*
X154737818Y-56952182D01*
X154881653Y-57127445D01*
X154983762Y-57318479D01*
X154988530Y-57327400D01*
X155026001Y-57450925D01*
X155054986Y-57546475D01*
X155058908Y-57566196D01*
X155068284Y-57588835D01*
X155081897Y-57609210D01*
X155099223Y-57626538D01*
X155119597Y-57640153D01*
X155142236Y-57649531D01*
X155166269Y-57654313D01*
X155190773Y-57654314D01*
X155214806Y-57649534D01*
X155237445Y-57640158D01*
X155257820Y-57626545D01*
X155275148Y-57609219D01*
X155288765Y-57588841D01*
X155350772Y-57472835D01*
X155450868Y-57350867D01*
X155572836Y-57250771D01*
X155711988Y-57176392D01*
X155762319Y-57161125D01*
X155862978Y-57130590D01*
X156020000Y-57115125D01*
X156177023Y-57130590D01*
X156277682Y-57161125D01*
X156328013Y-57176392D01*
X156467165Y-57250771D01*
X156589133Y-57350867D01*
X156689229Y-57472835D01*
X156763608Y-57611987D01*
X156776322Y-57653899D01*
X156809410Y-57762977D01*
X156821000Y-57880655D01*
X156821000Y-58959345D01*
X156809410Y-59077023D01*
X156778875Y-59177682D01*
X156763608Y-59228013D01*
X156728595Y-59293517D01*
X156689229Y-59367165D01*
X156589133Y-59489133D01*
X156511620Y-59552745D01*
X156467164Y-59589229D01*
X156328012Y-59663608D01*
X156277681Y-59678875D01*
X156177022Y-59709410D01*
X156020000Y-59724875D01*
X155862977Y-59709410D01*
X155762318Y-59678875D01*
X155711987Y-59663608D01*
X155572835Y-59589229D01*
X155528379Y-59552745D01*
X155450867Y-59489133D01*
X155350771Y-59367164D01*
X155312537Y-59295633D01*
X155288765Y-59251160D01*
X155275151Y-59230786D01*
X155257824Y-59213459D01*
X155237450Y-59199845D01*
X155214811Y-59190468D01*
X155190777Y-59185688D01*
X155166273Y-59185688D01*
X155142240Y-59190469D01*
X155119601Y-59199846D01*
X155099227Y-59213460D01*
X155081900Y-59230787D01*
X155068286Y-59251161D01*
X155058909Y-59273800D01*
X155054988Y-59293517D01*
X155054346Y-59295633D01*
X155054346Y-59295635D01*
X154988530Y-59512599D01*
X154988529Y-59512602D01*
X154881653Y-59712555D01*
X154812151Y-59797243D01*
X154737818Y-59887818D01*
X154665093Y-59947501D01*
X154562553Y-60031653D01*
X154508125Y-60060745D01*
X154362599Y-60138530D01*
X154145634Y-60204346D01*
X153920000Y-60226569D01*
X153694365Y-60204346D01*
X153477400Y-60138530D01*
X153474072Y-60136751D01*
X153277445Y-60031653D01*
X153168819Y-59942505D01*
X153102182Y-59887818D01*
X152958348Y-59712554D01*
X152944101Y-59685899D01*
X152851471Y-59512601D01*
X152847996Y-59501145D01*
X152785654Y-59295634D01*
X152777561Y-59213460D01*
X152769000Y-59126544D01*
X152769000Y-57713455D01*
X152785654Y-57544366D01*
X152813999Y-57450925D01*
X152851470Y-57327400D01*
X152888970Y-57257243D01*
X152958348Y-57127446D01*
X153102183Y-56952182D01*
X153277446Y-56808347D01*
X153477399Y-56701471D01*
X153477401Y-56701470D01*
X153694366Y-56635654D01*
X153920000Y-56613431D01*
X154145635Y-56635654D01*
X154145635Y-56635654D01*
G37*
G36*
X158177023Y-57130590D02*
G01*
X158277682Y-57161125D01*
X158328013Y-57176392D01*
X158467165Y-57250771D01*
X158589133Y-57350867D01*
X158689229Y-57472835D01*
X158763608Y-57611987D01*
X158776322Y-57653899D01*
X158809410Y-57762977D01*
X158821000Y-57880655D01*
X158821000Y-58959345D01*
X158809410Y-59077023D01*
X158778875Y-59177682D01*
X158763608Y-59228013D01*
X158728595Y-59293517D01*
X158689229Y-59367165D01*
X158589133Y-59489133D01*
X158511620Y-59552745D01*
X158467164Y-59589229D01*
X158328012Y-59663608D01*
X158277681Y-59678875D01*
X158177022Y-59709410D01*
X158020000Y-59724875D01*
X157862977Y-59709410D01*
X157762318Y-59678875D01*
X157711987Y-59663608D01*
X157572835Y-59589229D01*
X157528379Y-59552745D01*
X157450867Y-59489133D01*
X157350771Y-59367164D01*
X157312537Y-59295633D01*
X157276392Y-59228012D01*
X157245613Y-59126545D01*
X157230590Y-59077022D01*
X157219000Y-58959344D01*
X157219001Y-57880655D01*
X157230591Y-57762977D01*
X157263679Y-57653899D01*
X157276393Y-57611987D01*
X157350772Y-57472835D01*
X157450868Y-57350867D01*
X157572836Y-57250771D01*
X157711988Y-57176392D01*
X157762319Y-57161125D01*
X157862978Y-57130590D01*
X158020000Y-57115125D01*
X158177023Y-57130590D01*
X158177023Y-57130590D01*
G37*
G36*
X122988564Y-57402505D02*
G01*
X123158356Y-57472835D01*
X123179835Y-57481732D01*
X123351973Y-57596751D01*
X123498365Y-57743143D01*
X123590248Y-57880655D01*
X123613385Y-57915283D01*
X123692611Y-58106552D01*
X123733000Y-58309600D01*
X123733000Y-58516632D01*
X123692611Y-58719680D01*
X123650743Y-58820758D01*
X123613384Y-58910951D01*
X123498365Y-59083089D01*
X123351973Y-59229481D01*
X123179835Y-59344500D01*
X123179834Y-59344501D01*
X123179833Y-59344501D01*
X122988564Y-59423727D01*
X122785516Y-59464116D01*
X122578484Y-59464116D01*
X122375436Y-59423727D01*
X122184167Y-59344501D01*
X122184166Y-59344501D01*
X122184165Y-59344500D01*
X122012027Y-59229481D01*
X121865635Y-59083089D01*
X121750616Y-58910951D01*
X121713257Y-58820758D01*
X121671389Y-58719680D01*
X121631000Y-58516632D01*
X121631000Y-58309600D01*
X121671389Y-58106552D01*
X121750615Y-57915283D01*
X121773753Y-57880655D01*
X121865635Y-57743143D01*
X122012027Y-57596751D01*
X122184165Y-57481732D01*
X122205644Y-57472835D01*
X122375436Y-57402505D01*
X122578484Y-57362116D01*
X122785516Y-57362116D01*
X122988564Y-57402505D01*
X122988564Y-57402505D01*
G37*
G36*
X107748564Y-57402505D02*
G01*
X107918356Y-57472835D01*
X107939835Y-57481732D01*
X108111973Y-57596751D01*
X108258365Y-57743143D01*
X108350248Y-57880655D01*
X108373385Y-57915283D01*
X108452611Y-58106552D01*
X108493000Y-58309600D01*
X108493000Y-58516632D01*
X108452611Y-58719680D01*
X108410743Y-58820758D01*
X108373384Y-58910951D01*
X108258365Y-59083089D01*
X108111973Y-59229481D01*
X107939835Y-59344500D01*
X107939834Y-59344501D01*
X107939833Y-59344501D01*
X107748564Y-59423727D01*
X107545516Y-59464116D01*
X107338484Y-59464116D01*
X107135436Y-59423727D01*
X106944167Y-59344501D01*
X106944166Y-59344501D01*
X106944165Y-59344500D01*
X106772027Y-59229481D01*
X106625635Y-59083089D01*
X106510616Y-58910951D01*
X106473257Y-58820758D01*
X106431389Y-58719680D01*
X106391000Y-58516632D01*
X106391000Y-58309600D01*
X106431389Y-58106552D01*
X106510615Y-57915283D01*
X106533753Y-57880655D01*
X106625635Y-57743143D01*
X106772027Y-57596751D01*
X106944165Y-57481732D01*
X106965644Y-57472835D01*
X107135436Y-57402505D01*
X107338484Y-57362116D01*
X107545516Y-57362116D01*
X107748564Y-57402505D01*
X107748564Y-57402505D01*
G37*
G36*
X175560642Y-57257242D02*
G01*
X175708601Y-57318529D01*
X175841755Y-57407499D01*
X175955001Y-57520745D01*
X176043971Y-57653899D01*
X176105258Y-57801858D01*
X176136500Y-57958925D01*
X176136500Y-58119075D01*
X176105258Y-58276142D01*
X176043971Y-58424101D01*
X175955001Y-58557255D01*
X175841755Y-58670501D01*
X175708601Y-58759471D01*
X175560642Y-58820758D01*
X175403575Y-58852000D01*
X175243425Y-58852000D01*
X175086358Y-58820758D01*
X174938399Y-58759471D01*
X174805245Y-58670501D01*
X174691999Y-58557255D01*
X174603029Y-58424101D01*
X174541742Y-58276142D01*
X174510500Y-58119075D01*
X174510500Y-57958925D01*
X174541742Y-57801858D01*
X174603029Y-57653899D01*
X174691999Y-57520745D01*
X174805245Y-57407499D01*
X174938399Y-57318529D01*
X175086358Y-57257242D01*
X175243425Y-57226000D01*
X175403575Y-57226000D01*
X175560642Y-57257242D01*
X175560642Y-57257242D01*
G37*
G36*
X184958642Y-57257242D02*
G01*
X185106601Y-57318529D01*
X185239755Y-57407499D01*
X185353001Y-57520745D01*
X185441971Y-57653899D01*
X185503258Y-57801858D01*
X185534500Y-57958925D01*
X185534500Y-58119075D01*
X185503258Y-58276142D01*
X185441971Y-58424101D01*
X185353001Y-58557255D01*
X185239755Y-58670501D01*
X185106601Y-58759471D01*
X184958642Y-58820758D01*
X184801575Y-58852000D01*
X184641425Y-58852000D01*
X184484358Y-58820758D01*
X184336399Y-58759471D01*
X184203245Y-58670501D01*
X184089999Y-58557255D01*
X184001029Y-58424101D01*
X183939742Y-58276142D01*
X183908500Y-58119075D01*
X183908500Y-57958925D01*
X183939742Y-57801858D01*
X184001029Y-57653899D01*
X184089999Y-57520745D01*
X184203245Y-57407499D01*
X184336399Y-57318529D01*
X184484358Y-57257242D01*
X184641425Y-57226000D01*
X184801575Y-57226000D01*
X184958642Y-57257242D01*
X184958642Y-57257242D01*
G37*
G36*
X193721642Y-56749242D02*
G01*
X193869601Y-56810529D01*
X194002755Y-56899499D01*
X194116001Y-57012745D01*
X194204971Y-57145899D01*
X194266258Y-57293858D01*
X194297500Y-57450925D01*
X194297500Y-57611075D01*
X194266258Y-57768142D01*
X194204971Y-57916101D01*
X194116001Y-58049255D01*
X194002755Y-58162501D01*
X193869601Y-58251471D01*
X193721642Y-58312758D01*
X193564575Y-58344000D01*
X193404425Y-58344000D01*
X193247358Y-58312758D01*
X193099399Y-58251471D01*
X192966245Y-58162501D01*
X192852999Y-58049255D01*
X192764029Y-57916101D01*
X192702742Y-57768142D01*
X192671500Y-57611075D01*
X192671500Y-57450925D01*
X192702742Y-57293858D01*
X192764029Y-57145899D01*
X192852999Y-57012745D01*
X192966245Y-56899499D01*
X193099399Y-56810529D01*
X193247358Y-56749242D01*
X193404425Y-56718000D01*
X193564575Y-56718000D01*
X193721642Y-56749242D01*
X193721642Y-56749242D01*
G37*
G36*
X89264142Y-53828242D02*
G01*
X89412101Y-53889529D01*
X89545255Y-53978499D01*
X89658501Y-54091745D01*
X89747471Y-54224899D01*
X89808758Y-54372858D01*
X89840000Y-54529925D01*
X89840000Y-54690075D01*
X89808758Y-54847142D01*
X89747471Y-54995101D01*
X89658501Y-55128255D01*
X89545255Y-55241501D01*
X89412101Y-55330471D01*
X89264142Y-55391758D01*
X89107075Y-55423000D01*
X88946925Y-55423000D01*
X88789858Y-55391758D01*
X88641899Y-55330471D01*
X88508745Y-55241501D01*
X88395499Y-55128255D01*
X88306529Y-54995101D01*
X88245242Y-54847142D01*
X88214000Y-54690075D01*
X88214000Y-54529925D01*
X88245242Y-54372858D01*
X88306529Y-54224899D01*
X88395499Y-54091745D01*
X88508745Y-53978499D01*
X88641899Y-53889529D01*
X88789858Y-53828242D01*
X88946925Y-53797000D01*
X89107075Y-53797000D01*
X89264142Y-53828242D01*
X89264142Y-53828242D01*
G37*
G36*
X89264142Y-51288242D02*
G01*
X89412101Y-51349529D01*
X89545255Y-51438499D01*
X89658501Y-51551745D01*
X89747471Y-51684899D01*
X89808758Y-51832858D01*
X89840000Y-51989925D01*
X89840000Y-52150075D01*
X89808758Y-52307142D01*
X89747471Y-52455101D01*
X89658501Y-52588255D01*
X89545255Y-52701501D01*
X89412101Y-52790471D01*
X89264142Y-52851758D01*
X89107075Y-52883000D01*
X88946925Y-52883000D01*
X88789858Y-52851758D01*
X88641899Y-52790471D01*
X88508745Y-52701501D01*
X88395499Y-52588255D01*
X88306529Y-52455101D01*
X88245242Y-52307142D01*
X88214000Y-52150075D01*
X88214000Y-51989925D01*
X88245242Y-51832858D01*
X88306529Y-51684899D01*
X88395499Y-51551745D01*
X88508745Y-51438499D01*
X88641899Y-51349529D01*
X88789858Y-51288242D01*
X88946925Y-51257000D01*
X89107075Y-51257000D01*
X89264142Y-51288242D01*
X89264142Y-51288242D01*
G37*
G36*
X89264142Y-48748242D02*
G01*
X89412101Y-48809529D01*
X89545255Y-48898499D01*
X89658501Y-49011745D01*
X89747471Y-49144899D01*
X89808758Y-49292858D01*
X89840000Y-49449925D01*
X89840000Y-49610075D01*
X89808758Y-49767142D01*
X89747471Y-49915101D01*
X89658501Y-50048255D01*
X89545255Y-50161501D01*
X89412101Y-50250471D01*
X89264142Y-50311758D01*
X89107075Y-50343000D01*
X88946925Y-50343000D01*
X88789858Y-50311758D01*
X88641899Y-50250471D01*
X88508745Y-50161501D01*
X88395499Y-50048255D01*
X88306529Y-49915101D01*
X88245242Y-49767142D01*
X88214000Y-49610075D01*
X88214000Y-49449925D01*
X88245242Y-49292858D01*
X88306529Y-49144899D01*
X88395499Y-49011745D01*
X88508745Y-48898499D01*
X88641899Y-48809529D01*
X88789858Y-48748242D01*
X88946925Y-48717000D01*
X89107075Y-48717000D01*
X89264142Y-48748242D01*
X89264142Y-48748242D01*
G37*
G36*
X99551142Y-45700242D02*
G01*
X99699101Y-45761529D01*
X99832255Y-45850499D01*
X99945501Y-45963745D01*
X100034471Y-46096899D01*
X100095758Y-46244858D01*
X100127000Y-46401925D01*
X100127000Y-46562075D01*
X100095758Y-46719142D01*
X100034471Y-46867101D01*
X99945501Y-47000255D01*
X99832255Y-47113501D01*
X99699101Y-47202471D01*
X99551142Y-47263758D01*
X99394075Y-47295000D01*
X99233925Y-47295000D01*
X99076858Y-47263758D01*
X98928899Y-47202471D01*
X98795745Y-47113501D01*
X98682499Y-47000255D01*
X98593529Y-46867101D01*
X98532242Y-46719142D01*
X98501000Y-46562075D01*
X98501000Y-46401925D01*
X98532242Y-46244858D01*
X98593529Y-46096899D01*
X98682499Y-45963745D01*
X98795745Y-45850499D01*
X98928899Y-45761529D01*
X99076858Y-45700242D01*
X99233925Y-45669000D01*
X99394075Y-45669000D01*
X99551142Y-45700242D01*
X99551142Y-45700242D01*
G37*
G36*
X97011142Y-45700242D02*
G01*
X97159101Y-45761529D01*
X97292255Y-45850499D01*
X97405501Y-45963745D01*
X97494471Y-46096899D01*
X97555758Y-46244858D01*
X97587000Y-46401925D01*
X97587000Y-46562075D01*
X97555758Y-46719142D01*
X97494471Y-46867101D01*
X97405501Y-47000255D01*
X97292255Y-47113501D01*
X97159101Y-47202471D01*
X97011142Y-47263758D01*
X96854075Y-47295000D01*
X96693925Y-47295000D01*
X96536858Y-47263758D01*
X96388899Y-47202471D01*
X96255745Y-47113501D01*
X96142499Y-47000255D01*
X96053529Y-46867101D01*
X95992242Y-46719142D01*
X95961000Y-46562075D01*
X95961000Y-46401925D01*
X95992242Y-46244858D01*
X96053529Y-46096899D01*
X96142499Y-45963745D01*
X96255745Y-45850499D01*
X96388899Y-45761529D01*
X96536858Y-45700242D01*
X96693925Y-45669000D01*
X96854075Y-45669000D01*
X97011142Y-45700242D01*
X97011142Y-45700242D01*
G37*
G36*
X117585142Y-45700242D02*
G01*
X117733101Y-45761529D01*
X117866255Y-45850499D01*
X117979501Y-45963745D01*
X118068471Y-46096899D01*
X118129758Y-46244858D01*
X118161000Y-46401925D01*
X118161000Y-46562075D01*
X118129758Y-46719142D01*
X118068471Y-46867101D01*
X117979501Y-47000255D01*
X117866255Y-47113501D01*
X117733101Y-47202471D01*
X117585142Y-47263758D01*
X117428075Y-47295000D01*
X117267925Y-47295000D01*
X117110858Y-47263758D01*
X116962899Y-47202471D01*
X116829745Y-47113501D01*
X116716499Y-47000255D01*
X116627529Y-46867101D01*
X116566242Y-46719142D01*
X116535000Y-46562075D01*
X116535000Y-46401925D01*
X116566242Y-46244858D01*
X116627529Y-46096899D01*
X116716499Y-45963745D01*
X116829745Y-45850499D01*
X116962899Y-45761529D01*
X117110858Y-45700242D01*
X117267925Y-45669000D01*
X117428075Y-45669000D01*
X117585142Y-45700242D01*
X117585142Y-45700242D01*
G37*
G36*
X120125142Y-45700242D02*
G01*
X120273101Y-45761529D01*
X120406255Y-45850499D01*
X120519501Y-45963745D01*
X120608471Y-46096899D01*
X120669758Y-46244858D01*
X120701000Y-46401925D01*
X120701000Y-46562075D01*
X120669758Y-46719142D01*
X120608471Y-46867101D01*
X120519501Y-47000255D01*
X120406255Y-47113501D01*
X120273101Y-47202471D01*
X120125142Y-47263758D01*
X119968075Y-47295000D01*
X119807925Y-47295000D01*
X119650858Y-47263758D01*
X119502899Y-47202471D01*
X119369745Y-47113501D01*
X119256499Y-47000255D01*
X119167529Y-46867101D01*
X119106242Y-46719142D01*
X119075000Y-46562075D01*
X119075000Y-46401925D01*
X119106242Y-46244858D01*
X119167529Y-46096899D01*
X119256499Y-45963745D01*
X119369745Y-45850499D01*
X119502899Y-45761529D01*
X119650858Y-45700242D01*
X119807925Y-45669000D01*
X119968075Y-45669000D01*
X120125142Y-45700242D01*
X120125142Y-45700242D01*
G37*
G36*
X107171142Y-45700242D02*
G01*
X107319101Y-45761529D01*
X107452255Y-45850499D01*
X107565501Y-45963745D01*
X107654471Y-46096899D01*
X107715758Y-46244858D01*
X107747000Y-46401925D01*
X107747000Y-46562075D01*
X107715758Y-46719142D01*
X107654471Y-46867101D01*
X107565501Y-47000255D01*
X107452255Y-47113501D01*
X107319101Y-47202471D01*
X107171142Y-47263758D01*
X107014075Y-47295000D01*
X106853925Y-47295000D01*
X106696858Y-47263758D01*
X106548899Y-47202471D01*
X106415745Y-47113501D01*
X106302499Y-47000255D01*
X106213529Y-46867101D01*
X106152242Y-46719142D01*
X106121000Y-46562075D01*
X106121000Y-46401925D01*
X106152242Y-46244858D01*
X106213529Y-46096899D01*
X106302499Y-45963745D01*
X106415745Y-45850499D01*
X106548899Y-45761529D01*
X106696858Y-45700242D01*
X106853925Y-45669000D01*
X107014075Y-45669000D01*
X107171142Y-45700242D01*
X107171142Y-45700242D01*
G37*
G36*
X109711142Y-45700242D02*
G01*
X109859101Y-45761529D01*
X109992255Y-45850499D01*
X110105501Y-45963745D01*
X110194471Y-46096899D01*
X110255758Y-46244858D01*
X110287000Y-46401925D01*
X110287000Y-46562075D01*
X110255758Y-46719142D01*
X110194471Y-46867101D01*
X110105501Y-47000255D01*
X109992255Y-47113501D01*
X109859101Y-47202471D01*
X109711142Y-47263758D01*
X109554075Y-47295000D01*
X109393925Y-47295000D01*
X109236858Y-47263758D01*
X109088899Y-47202471D01*
X108955745Y-47113501D01*
X108842499Y-47000255D01*
X108753529Y-46867101D01*
X108692242Y-46719142D01*
X108661000Y-46562075D01*
X108661000Y-46401925D01*
X108692242Y-46244858D01*
X108753529Y-46096899D01*
X108842499Y-45963745D01*
X108955745Y-45850499D01*
X109088899Y-45761529D01*
X109236858Y-45700242D01*
X109393925Y-45669000D01*
X109554075Y-45669000D01*
X109711142Y-45700242D01*
X109711142Y-45700242D01*
G37*
G36*
X100975039Y-36138250D02*
G01*
X101120492Y-36198499D01*
X101298251Y-36272129D01*
X101589134Y-36466491D01*
X101836509Y-36713866D01*
X102030871Y-37004749D01*
X102030871Y-37004750D01*
X102164750Y-37327961D01*
X102233000Y-37671078D01*
X102233000Y-38020922D01*
X102164750Y-38364039D01*
X102086325Y-38553372D01*
X102030871Y-38687251D01*
X101836509Y-38978134D01*
X101589134Y-39225509D01*
X101298251Y-39419871D01*
X101164372Y-39475325D01*
X100975039Y-39553750D01*
X100631922Y-39622000D01*
X100282078Y-39622000D01*
X99938961Y-39553750D01*
X99749628Y-39475325D01*
X99615749Y-39419871D01*
X99324866Y-39225509D01*
X99077491Y-38978134D01*
X98883129Y-38687251D01*
X98827675Y-38553372D01*
X98749250Y-38364039D01*
X98681000Y-38020922D01*
X98681000Y-37671078D01*
X98749250Y-37327961D01*
X98883129Y-37004750D01*
X98883129Y-37004749D01*
X99077491Y-36713866D01*
X99324866Y-36466491D01*
X99615749Y-36272129D01*
X99793508Y-36198499D01*
X99938961Y-36138250D01*
X100282078Y-36070000D01*
X100631922Y-36070000D01*
X100975039Y-36138250D01*
X100975039Y-36138250D01*
G37*
G36*
X121549039Y-36138250D02*
G01*
X121694492Y-36198499D01*
X121872251Y-36272129D01*
X122163134Y-36466491D01*
X122410509Y-36713866D01*
X122604871Y-37004749D01*
X122604871Y-37004750D01*
X122738750Y-37327961D01*
X122807000Y-37671078D01*
X122807000Y-38020922D01*
X122738750Y-38364039D01*
X122660325Y-38553372D01*
X122604871Y-38687251D01*
X122410509Y-38978134D01*
X122163134Y-39225509D01*
X121872251Y-39419871D01*
X121738372Y-39475325D01*
X121549039Y-39553750D01*
X121205922Y-39622000D01*
X120856078Y-39622000D01*
X120512961Y-39553750D01*
X120323628Y-39475325D01*
X120189749Y-39419871D01*
X119898866Y-39225509D01*
X119651491Y-38978134D01*
X119457129Y-38687251D01*
X119401675Y-38553372D01*
X119323250Y-38364039D01*
X119255000Y-38020922D01*
X119255000Y-37671078D01*
X119323250Y-37327961D01*
X119457129Y-37004750D01*
X119457129Y-37004749D01*
X119651491Y-36713866D01*
X119898866Y-36466491D01*
X120189749Y-36272129D01*
X120367508Y-36198499D01*
X120512961Y-36138250D01*
X120856078Y-36070000D01*
X121205922Y-36070000D01*
X121549039Y-36138250D01*
X121549039Y-36138250D01*
G37*
G36*
X111135039Y-36138250D02*
G01*
X111280492Y-36198499D01*
X111458251Y-36272129D01*
X111749134Y-36466491D01*
X111996509Y-36713866D01*
X112190871Y-37004749D01*
X112190871Y-37004750D01*
X112324750Y-37327961D01*
X112393000Y-37671078D01*
X112393000Y-38020922D01*
X112324750Y-38364039D01*
X112246325Y-38553372D01*
X112190871Y-38687251D01*
X111996509Y-38978134D01*
X111749134Y-39225509D01*
X111458251Y-39419871D01*
X111324372Y-39475325D01*
X111135039Y-39553750D01*
X110791922Y-39622000D01*
X110442078Y-39622000D01*
X110098961Y-39553750D01*
X109909628Y-39475325D01*
X109775749Y-39419871D01*
X109484866Y-39225509D01*
X109237491Y-38978134D01*
X109043129Y-38687251D01*
X108987675Y-38553372D01*
X108909250Y-38364039D01*
X108841000Y-38020922D01*
X108841000Y-37671078D01*
X108909250Y-37327961D01*
X109043129Y-37004750D01*
X109043129Y-37004749D01*
X109237491Y-36713866D01*
X109484866Y-36466491D01*
X109775749Y-36272129D01*
X109953508Y-36198499D01*
X110098961Y-36138250D01*
X110442078Y-36070000D01*
X110791922Y-36070000D01*
X111135039Y-36138250D01*
X111135039Y-36138250D01*
G37*
G36*
X106307039Y-36134250D02*
G01*
X106462149Y-36198499D01*
X106630251Y-36268129D01*
X106921134Y-36462491D01*
X107168509Y-36709866D01*
X107362871Y-37000749D01*
X107364528Y-37004750D01*
X107496750Y-37323961D01*
X107565000Y-37667078D01*
X107565000Y-38016922D01*
X107496750Y-38360039D01*
X107418325Y-38549372D01*
X107362871Y-38683251D01*
X107168509Y-38974134D01*
X106921134Y-39221509D01*
X106630251Y-39415871D01*
X106496372Y-39471325D01*
X106307039Y-39549750D01*
X105963922Y-39618000D01*
X105614078Y-39618000D01*
X105270961Y-39549750D01*
X105081628Y-39471325D01*
X104947749Y-39415871D01*
X104656866Y-39221509D01*
X104409491Y-38974134D01*
X104215129Y-38683251D01*
X104159675Y-38549372D01*
X104081250Y-38360039D01*
X104013000Y-38016922D01*
X104013000Y-37667078D01*
X104081250Y-37323961D01*
X104213472Y-37004750D01*
X104215129Y-37000749D01*
X104409491Y-36709866D01*
X104656866Y-36462491D01*
X104947749Y-36268129D01*
X105115851Y-36198499D01*
X105270961Y-36134250D01*
X105614078Y-36066000D01*
X105963922Y-36066000D01*
X106307039Y-36134250D01*
X106307039Y-36134250D01*
G37*
G36*
X116721039Y-36134250D02*
G01*
X116876149Y-36198499D01*
X117044251Y-36268129D01*
X117335134Y-36462491D01*
X117582509Y-36709866D01*
X117776871Y-37000749D01*
X117778528Y-37004750D01*
X117910750Y-37323961D01*
X117979000Y-37667078D01*
X117979000Y-38016922D01*
X117910750Y-38360039D01*
X117832325Y-38549372D01*
X117776871Y-38683251D01*
X117582509Y-38974134D01*
X117335134Y-39221509D01*
X117044251Y-39415871D01*
X116910372Y-39471325D01*
X116721039Y-39549750D01*
X116377922Y-39618000D01*
X116028078Y-39618000D01*
X115684961Y-39549750D01*
X115495628Y-39471325D01*
X115361749Y-39415871D01*
X115070866Y-39221509D01*
X114823491Y-38974134D01*
X114629129Y-38683251D01*
X114573675Y-38549372D01*
X114495250Y-38360039D01*
X114427000Y-38016922D01*
X114427000Y-37667078D01*
X114495250Y-37323961D01*
X114627472Y-37004750D01*
X114629129Y-37000749D01*
X114823491Y-36709866D01*
X115070866Y-36462491D01*
X115361749Y-36268129D01*
X115529851Y-36198499D01*
X115684961Y-36134250D01*
X116028078Y-36066000D01*
X116377922Y-36066000D01*
X116721039Y-36134250D01*
X116721039Y-36134250D01*
G37*
G36*
X96147039Y-36134250D02*
G01*
X96302149Y-36198499D01*
X96470251Y-36268129D01*
X96761134Y-36462491D01*
X97008509Y-36709866D01*
X97202871Y-37000749D01*
X97204528Y-37004750D01*
X97336750Y-37323961D01*
X97405000Y-37667078D01*
X97405000Y-38016922D01*
X97336750Y-38360039D01*
X97258325Y-38549372D01*
X97202871Y-38683251D01*
X97008509Y-38974134D01*
X96761134Y-39221509D01*
X96470251Y-39415871D01*
X96336372Y-39471325D01*
X96147039Y-39549750D01*
X95803922Y-39618000D01*
X95454078Y-39618000D01*
X95110961Y-39549750D01*
X94921628Y-39471325D01*
X94787749Y-39415871D01*
X94496866Y-39221509D01*
X94249491Y-38974134D01*
X94055129Y-38683251D01*
X93999675Y-38549372D01*
X93921250Y-38360039D01*
X93853000Y-38016922D01*
X93853000Y-37667078D01*
X93921250Y-37323961D01*
X94053472Y-37004750D01*
X94055129Y-37000749D01*
X94249491Y-36709866D01*
X94496866Y-36462491D01*
X94787749Y-36268129D01*
X94955851Y-36198499D01*
X95110961Y-36134250D01*
X95454078Y-36066000D01*
X95803922Y-36066000D01*
X96147039Y-36134250D01*
X96147039Y-36134250D01*
G37*
G36*
X89264142Y-36048242D02*
G01*
X89412101Y-36109529D01*
X89545255Y-36198499D01*
X89658501Y-36311745D01*
X89747471Y-36444899D01*
X89808758Y-36592858D01*
X89840000Y-36749925D01*
X89840000Y-36910075D01*
X89808758Y-37067142D01*
X89747471Y-37215101D01*
X89658501Y-37348255D01*
X89545255Y-37461501D01*
X89412101Y-37550471D01*
X89264142Y-37611758D01*
X89107075Y-37643000D01*
X88946925Y-37643000D01*
X88789858Y-37611758D01*
X88641899Y-37550471D01*
X88508745Y-37461501D01*
X88395499Y-37348255D01*
X88306529Y-37215101D01*
X88245242Y-37067142D01*
X88214000Y-36910075D01*
X88214000Y-36749925D01*
X88245242Y-36592858D01*
X88306529Y-36444899D01*
X88395499Y-36311745D01*
X88508745Y-36198499D01*
X88641899Y-36109529D01*
X88789858Y-36048242D01*
X88946925Y-36017000D01*
X89107075Y-36017000D01*
X89264142Y-36048242D01*
X89264142Y-36048242D01*
G37*
G36*
X89264142Y-33508242D02*
G01*
X89412101Y-33569529D01*
X89545255Y-33658499D01*
X89658501Y-33771745D01*
X89747471Y-33904899D01*
X89808758Y-34052858D01*
X89840000Y-34209925D01*
X89840000Y-34370075D01*
X89808758Y-34527142D01*
X89747471Y-34675101D01*
X89658501Y-34808255D01*
X89545255Y-34921501D01*
X89412101Y-35010471D01*
X89264142Y-35071758D01*
X89107075Y-35103000D01*
X88946925Y-35103000D01*
X88789858Y-35071758D01*
X88641899Y-35010471D01*
X88508745Y-34921501D01*
X88395499Y-34808255D01*
X88306529Y-34675101D01*
X88245242Y-34527142D01*
X88214000Y-34370075D01*
X88214000Y-34209925D01*
X88245242Y-34052858D01*
X88306529Y-33904899D01*
X88395499Y-33771745D01*
X88508745Y-33658499D01*
X88641899Y-33569529D01*
X88789858Y-33508242D01*
X88946925Y-33477000D01*
X89107075Y-33477000D01*
X89264142Y-33508242D01*
X89264142Y-33508242D01*
G37*
G36*
X89264142Y-30968242D02*
G01*
X89412101Y-31029529D01*
X89545255Y-31118499D01*
X89658501Y-31231745D01*
X89747471Y-31364899D01*
X89808758Y-31512858D01*
X89840000Y-31669925D01*
X89840000Y-31830075D01*
X89808758Y-31987142D01*
X89747471Y-32135101D01*
X89658501Y-32268255D01*
X89545255Y-32381501D01*
X89412101Y-32470471D01*
X89264142Y-32531758D01*
X89107075Y-32563000D01*
X88946925Y-32563000D01*
X88789858Y-32531758D01*
X88641899Y-32470471D01*
X88508745Y-32381501D01*
X88395499Y-32268255D01*
X88306529Y-32135101D01*
X88245242Y-31987142D01*
X88214000Y-31830075D01*
X88214000Y-31669925D01*
X88245242Y-31512858D01*
X88306529Y-31364899D01*
X88395499Y-31231745D01*
X88508745Y-31118499D01*
X88641899Y-31029529D01*
X88789858Y-30968242D01*
X88946925Y-30937000D01*
X89107075Y-30937000D01*
X89264142Y-30968242D01*
X89264142Y-30968242D01*
G37*
M02*
