M48
; DRILL file {KiCad (5.1.4)-1} date 12/12/2019 11:37:41 AM
; FORMAT={-:-/ absolute / inch / decimal}
; #@! TF.CreationDate,2019-12-12T11:37:41-06:00
; #@! TF.GenerationSoftware,Kicad,Pcbnew,(5.1.4)-1
; #@! TF.FileFunction,NonPlated,1,2,NPTH
FMAT,2
INCH
T1C0.1358
%
G90
G05
T1
X4.5748Y-6.5251
X4.575Y-6.335
X8.96Y-4.79
X8.96Y-5.29
X8.96Y-6.23
X8.96Y-6.73
X8.96Y-5.51
X8.96Y-6.01
X8.96Y-4.07
X8.96Y-4.57
X4.5748Y-6.0801
X4.575Y-5.89
X8.96Y-3.35
X8.96Y-3.85
X8.96Y-6.93
X8.96Y-7.43
X8.38Y-7.94
X8.38Y-8.34
X4.575Y-5.135
X4.575Y-5.635
T0
M30
