G04 #@! TF.GenerationSoftware,KiCad,Pcbnew,(5.1.4)-1*
G04 #@! TF.CreationDate,2019-12-12T11:37:26-06:00*
G04 #@! TF.ProjectId,DriveBoard2020,44726976-6542-46f6-9172-64323032302e,rev?*
G04 #@! TF.SameCoordinates,Original*
G04 #@! TF.FileFunction,Legend,Top*
G04 #@! TF.FilePolarity,Positive*
%FSLAX46Y46*%
G04 Gerber Fmt 4.6, Leading zero omitted, Abs format (unit mm)*
G04 Created by KiCad (PCBNEW (5.1.4)-1) date 2019-12-12 11:37:26*
%MOMM*%
%LPD*%
G04 APERTURE LIST*
%ADD10C,0.127000*%
%ADD11C,0.120000*%
%ADD12C,0.304800*%
%ADD13C,0.381000*%
%ADD14C,0.300000*%
%ADD15C,0.150000*%
G04 APERTURE END LIST*
D10*
X146565257Y-84095771D02*
X146362057Y-83805485D01*
X146216914Y-84095771D02*
X146216914Y-83486171D01*
X146449142Y-83486171D01*
X146507200Y-83515200D01*
X146536228Y-83544228D01*
X146565257Y-83602285D01*
X146565257Y-83689371D01*
X146536228Y-83747428D01*
X146507200Y-83776457D01*
X146449142Y-83805485D01*
X146216914Y-83805485D01*
X147058742Y-84066742D02*
X147000685Y-84095771D01*
X146884571Y-84095771D01*
X146826514Y-84066742D01*
X146797485Y-84008685D01*
X146797485Y-83776457D01*
X146826514Y-83718400D01*
X146884571Y-83689371D01*
X147000685Y-83689371D01*
X147058742Y-83718400D01*
X147087771Y-83776457D01*
X147087771Y-83834514D01*
X146797485Y-83892571D01*
X147290971Y-83689371D02*
X147436114Y-84095771D01*
X147581257Y-83689371D01*
X148045714Y-84066742D02*
X147987657Y-84095771D01*
X147871542Y-84095771D01*
X147813485Y-84066742D01*
X147784457Y-84008685D01*
X147784457Y-83776457D01*
X147813485Y-83718400D01*
X147871542Y-83689371D01*
X147987657Y-83689371D01*
X148045714Y-83718400D01*
X148074742Y-83776457D01*
X148074742Y-83834514D01*
X147784457Y-83892571D01*
X148336000Y-84095771D02*
X148336000Y-83689371D01*
X148336000Y-83805485D02*
X148365028Y-83747428D01*
X148394057Y-83718400D01*
X148452114Y-83689371D01*
X148510171Y-83689371D01*
X148684342Y-84066742D02*
X148742400Y-84095771D01*
X148858514Y-84095771D01*
X148916571Y-84066742D01*
X148945600Y-84008685D01*
X148945600Y-83979657D01*
X148916571Y-83921600D01*
X148858514Y-83892571D01*
X148771428Y-83892571D01*
X148713371Y-83863542D01*
X148684342Y-83805485D01*
X148684342Y-83776457D01*
X148713371Y-83718400D01*
X148771428Y-83689371D01*
X148858514Y-83689371D01*
X148916571Y-83718400D01*
X149439085Y-84066742D02*
X149381028Y-84095771D01*
X149264914Y-84095771D01*
X149206857Y-84066742D01*
X149177828Y-84008685D01*
X149177828Y-83776457D01*
X149206857Y-83718400D01*
X149264914Y-83689371D01*
X149381028Y-83689371D01*
X149439085Y-83718400D01*
X149468114Y-83776457D01*
X149468114Y-83834514D01*
X149177828Y-83892571D01*
X158075085Y-83776457D02*
X157871885Y-83776457D01*
X157871885Y-84095771D02*
X157871885Y-83486171D01*
X158162171Y-83486171D01*
X158481485Y-84095771D02*
X158423428Y-84066742D01*
X158394400Y-84037714D01*
X158365371Y-83979657D01*
X158365371Y-83805485D01*
X158394400Y-83747428D01*
X158423428Y-83718400D01*
X158481485Y-83689371D01*
X158568571Y-83689371D01*
X158626628Y-83718400D01*
X158655657Y-83747428D01*
X158684685Y-83805485D01*
X158684685Y-83979657D01*
X158655657Y-84037714D01*
X158626628Y-84066742D01*
X158568571Y-84095771D01*
X158481485Y-84095771D01*
X158945942Y-84095771D02*
X158945942Y-83689371D01*
X158945942Y-83805485D02*
X158974971Y-83747428D01*
X159004000Y-83718400D01*
X159062057Y-83689371D01*
X159120114Y-83689371D01*
X159265257Y-83689371D02*
X159381371Y-84095771D01*
X159497485Y-83805485D01*
X159613600Y-84095771D01*
X159729714Y-83689371D01*
X160223200Y-84095771D02*
X160223200Y-83776457D01*
X160194171Y-83718400D01*
X160136114Y-83689371D01*
X160020000Y-83689371D01*
X159961942Y-83718400D01*
X160223200Y-84066742D02*
X160165142Y-84095771D01*
X160020000Y-84095771D01*
X159961942Y-84066742D01*
X159932914Y-84008685D01*
X159932914Y-83950628D01*
X159961942Y-83892571D01*
X160020000Y-83863542D01*
X160165142Y-83863542D01*
X160223200Y-83834514D01*
X160513485Y-84095771D02*
X160513485Y-83689371D01*
X160513485Y-83805485D02*
X160542514Y-83747428D01*
X160571542Y-83718400D01*
X160629600Y-83689371D01*
X160687657Y-83689371D01*
X161152114Y-84095771D02*
X161152114Y-83486171D01*
X161152114Y-84066742D02*
X161094057Y-84095771D01*
X160977942Y-84095771D01*
X160919885Y-84066742D01*
X160890857Y-84037714D01*
X160861828Y-83979657D01*
X160861828Y-83805485D01*
X160890857Y-83747428D01*
X160919885Y-83718400D01*
X160977942Y-83689371D01*
X161094057Y-83689371D01*
X161152114Y-83718400D01*
D11*
X208661000Y-70612000D02*
X208661000Y-118872000D01*
X113411000Y-118872000D02*
X208661000Y-118872000D01*
X113411000Y-70612000D02*
X208661000Y-70612000D01*
X113411000Y-118872000D02*
X113411000Y-70612000D01*
D12*
X114681000Y-88561333D02*
X114681000Y-86783333D01*
X115358333Y-86783333D01*
X115527666Y-86868000D01*
X115612333Y-86952666D01*
X115697000Y-87122000D01*
X115697000Y-87376000D01*
X115612333Y-87545333D01*
X115527666Y-87630000D01*
X115358333Y-87714666D01*
X114681000Y-87714666D01*
X116713000Y-88561333D02*
X116543666Y-88476666D01*
X116459000Y-88392000D01*
X116374333Y-88222666D01*
X116374333Y-87714666D01*
X116459000Y-87545333D01*
X116543666Y-87460666D01*
X116713000Y-87376000D01*
X116967000Y-87376000D01*
X117136333Y-87460666D01*
X117221000Y-87545333D01*
X117305666Y-87714666D01*
X117305666Y-88222666D01*
X117221000Y-88392000D01*
X117136333Y-88476666D01*
X116967000Y-88561333D01*
X116713000Y-88561333D01*
X117898333Y-87376000D02*
X118237000Y-88561333D01*
X118575666Y-87714666D01*
X118914333Y-88561333D01*
X119253000Y-87376000D01*
X120607666Y-88476666D02*
X120438333Y-88561333D01*
X120099666Y-88561333D01*
X119930333Y-88476666D01*
X119845666Y-88307333D01*
X119845666Y-87630000D01*
X119930333Y-87460666D01*
X120099666Y-87376000D01*
X120438333Y-87376000D01*
X120607666Y-87460666D01*
X120692333Y-87630000D01*
X120692333Y-87799333D01*
X119845666Y-87968666D01*
X121454333Y-88561333D02*
X121454333Y-87376000D01*
X121454333Y-87714666D02*
X121539000Y-87545333D01*
X121623666Y-87460666D01*
X121793000Y-87376000D01*
X121962333Y-87376000D01*
X123909666Y-88561333D02*
X123909666Y-86783333D01*
X124756333Y-87376000D02*
X124756333Y-88561333D01*
X124756333Y-87545333D02*
X124841000Y-87460666D01*
X125010333Y-87376000D01*
X125264333Y-87376000D01*
X125433666Y-87460666D01*
X125518333Y-87630000D01*
X125518333Y-88561333D01*
X127127000Y-88561333D02*
X127127000Y-86783333D01*
X127127000Y-88476666D02*
X126957666Y-88561333D01*
X126619000Y-88561333D01*
X126449666Y-88476666D01*
X126365000Y-88392000D01*
X126280333Y-88222666D01*
X126280333Y-87714666D01*
X126365000Y-87545333D01*
X126449666Y-87460666D01*
X126619000Y-87376000D01*
X126957666Y-87376000D01*
X127127000Y-87460666D01*
X127973666Y-88561333D02*
X127973666Y-87376000D01*
X127973666Y-86783333D02*
X127889000Y-86868000D01*
X127973666Y-86952666D01*
X128058333Y-86868000D01*
X127973666Y-86783333D01*
X127973666Y-86952666D01*
X129582333Y-88476666D02*
X129413000Y-88561333D01*
X129074333Y-88561333D01*
X128905000Y-88476666D01*
X128820333Y-88392000D01*
X128735666Y-88222666D01*
X128735666Y-87714666D01*
X128820333Y-87545333D01*
X128905000Y-87460666D01*
X129074333Y-87376000D01*
X129413000Y-87376000D01*
X129582333Y-87460666D01*
X131106333Y-88561333D02*
X131106333Y-87630000D01*
X131021666Y-87460666D01*
X130852333Y-87376000D01*
X130513666Y-87376000D01*
X130344333Y-87460666D01*
X131106333Y-88476666D02*
X130937000Y-88561333D01*
X130513666Y-88561333D01*
X130344333Y-88476666D01*
X130259666Y-88307333D01*
X130259666Y-88138000D01*
X130344333Y-87968666D01*
X130513666Y-87884000D01*
X130937000Y-87884000D01*
X131106333Y-87799333D01*
X131699000Y-87376000D02*
X132376333Y-87376000D01*
X131953000Y-86783333D02*
X131953000Y-88307333D01*
X132037666Y-88476666D01*
X132207000Y-88561333D01*
X132376333Y-88561333D01*
X133223000Y-88561333D02*
X133053666Y-88476666D01*
X132969000Y-88392000D01*
X132884333Y-88222666D01*
X132884333Y-87714666D01*
X132969000Y-87545333D01*
X133053666Y-87460666D01*
X133223000Y-87376000D01*
X133477000Y-87376000D01*
X133646333Y-87460666D01*
X133731000Y-87545333D01*
X133815666Y-87714666D01*
X133815666Y-88222666D01*
X133731000Y-88392000D01*
X133646333Y-88476666D01*
X133477000Y-88561333D01*
X133223000Y-88561333D01*
X134577666Y-88561333D02*
X134577666Y-87376000D01*
X134577666Y-87714666D02*
X134662333Y-87545333D01*
X134747000Y-87460666D01*
X134916333Y-87376000D01*
X135085666Y-87376000D01*
X135593666Y-88476666D02*
X135763000Y-88561333D01*
X136101666Y-88561333D01*
X136271000Y-88476666D01*
X136355666Y-88307333D01*
X136355666Y-88222666D01*
X136271000Y-88053333D01*
X136101666Y-87968666D01*
X135847666Y-87968666D01*
X135678333Y-87884000D01*
X135593666Y-87714666D01*
X135593666Y-87630000D01*
X135678333Y-87460666D01*
X135847666Y-87376000D01*
X136101666Y-87376000D01*
X136271000Y-87460666D01*
X124333000Y-103843666D02*
X124587000Y-103928333D01*
X125010333Y-103928333D01*
X125179666Y-103843666D01*
X125264333Y-103759000D01*
X125349000Y-103589666D01*
X125349000Y-103420333D01*
X125264333Y-103251000D01*
X125179666Y-103166333D01*
X125010333Y-103081666D01*
X124671666Y-102997000D01*
X124502333Y-102912333D01*
X124417666Y-102827666D01*
X124333000Y-102658333D01*
X124333000Y-102489000D01*
X124417666Y-102319666D01*
X124502333Y-102235000D01*
X124671666Y-102150333D01*
X125095000Y-102150333D01*
X125349000Y-102235000D01*
X126788333Y-103843666D02*
X126619000Y-103928333D01*
X126280333Y-103928333D01*
X126111000Y-103843666D01*
X126026333Y-103674333D01*
X126026333Y-102997000D01*
X126111000Y-102827666D01*
X126280333Y-102743000D01*
X126619000Y-102743000D01*
X126788333Y-102827666D01*
X126873000Y-102997000D01*
X126873000Y-103166333D01*
X126026333Y-103335666D01*
X127635000Y-103928333D02*
X127635000Y-102743000D01*
X127635000Y-103081666D02*
X127719666Y-102912333D01*
X127804333Y-102827666D01*
X127973666Y-102743000D01*
X128143000Y-102743000D01*
X128735666Y-103928333D02*
X128735666Y-102743000D01*
X128735666Y-102150333D02*
X128651000Y-102235000D01*
X128735666Y-102319666D01*
X128820333Y-102235000D01*
X128735666Y-102150333D01*
X128735666Y-102319666D01*
X130344333Y-103928333D02*
X130344333Y-102997000D01*
X130259666Y-102827666D01*
X130090333Y-102743000D01*
X129751666Y-102743000D01*
X129582333Y-102827666D01*
X130344333Y-103843666D02*
X130175000Y-103928333D01*
X129751666Y-103928333D01*
X129582333Y-103843666D01*
X129497666Y-103674333D01*
X129497666Y-103505000D01*
X129582333Y-103335666D01*
X129751666Y-103251000D01*
X130175000Y-103251000D01*
X130344333Y-103166333D01*
X131445000Y-103928333D02*
X131275666Y-103843666D01*
X131191000Y-103674333D01*
X131191000Y-102150333D01*
X133477000Y-103928333D02*
X133477000Y-102150333D01*
X134323666Y-102743000D02*
X134323666Y-103928333D01*
X134323666Y-102912333D02*
X134408333Y-102827666D01*
X134577666Y-102743000D01*
X134831666Y-102743000D01*
X135001000Y-102827666D01*
X135085666Y-102997000D01*
X135085666Y-103928333D01*
X136694333Y-103928333D02*
X136694333Y-102150333D01*
X136694333Y-103843666D02*
X136525000Y-103928333D01*
X136186333Y-103928333D01*
X136017000Y-103843666D01*
X135932333Y-103759000D01*
X135847666Y-103589666D01*
X135847666Y-103081666D01*
X135932333Y-102912333D01*
X136017000Y-102827666D01*
X136186333Y-102743000D01*
X136525000Y-102743000D01*
X136694333Y-102827666D01*
X137541000Y-103928333D02*
X137541000Y-102743000D01*
X137541000Y-102150333D02*
X137456333Y-102235000D01*
X137541000Y-102319666D01*
X137625666Y-102235000D01*
X137541000Y-102150333D01*
X137541000Y-102319666D01*
X139149666Y-103843666D02*
X138980333Y-103928333D01*
X138641666Y-103928333D01*
X138472333Y-103843666D01*
X138387666Y-103759000D01*
X138303000Y-103589666D01*
X138303000Y-103081666D01*
X138387666Y-102912333D01*
X138472333Y-102827666D01*
X138641666Y-102743000D01*
X138980333Y-102743000D01*
X139149666Y-102827666D01*
X140673666Y-103928333D02*
X140673666Y-102997000D01*
X140589000Y-102827666D01*
X140419666Y-102743000D01*
X140081000Y-102743000D01*
X139911666Y-102827666D01*
X140673666Y-103843666D02*
X140504333Y-103928333D01*
X140081000Y-103928333D01*
X139911666Y-103843666D01*
X139827000Y-103674333D01*
X139827000Y-103505000D01*
X139911666Y-103335666D01*
X140081000Y-103251000D01*
X140504333Y-103251000D01*
X140673666Y-103166333D01*
X141266333Y-102743000D02*
X141943666Y-102743000D01*
X141520333Y-102150333D02*
X141520333Y-103674333D01*
X141605000Y-103843666D01*
X141774333Y-103928333D01*
X141943666Y-103928333D01*
X142790333Y-103928333D02*
X142621000Y-103843666D01*
X142536333Y-103759000D01*
X142451666Y-103589666D01*
X142451666Y-103081666D01*
X142536333Y-102912333D01*
X142621000Y-102827666D01*
X142790333Y-102743000D01*
X143044333Y-102743000D01*
X143213666Y-102827666D01*
X143298333Y-102912333D01*
X143383000Y-103081666D01*
X143383000Y-103589666D01*
X143298333Y-103759000D01*
X143213666Y-103843666D01*
X143044333Y-103928333D01*
X142790333Y-103928333D01*
X144145000Y-103928333D02*
X144145000Y-102743000D01*
X144145000Y-103081666D02*
X144229666Y-102912333D01*
X144314333Y-102827666D01*
X144483666Y-102743000D01*
X144653000Y-102743000D01*
X145161000Y-103843666D02*
X145330333Y-103928333D01*
X145669000Y-103928333D01*
X145838333Y-103843666D01*
X145923000Y-103674333D01*
X145923000Y-103589666D01*
X145838333Y-103420333D01*
X145669000Y-103335666D01*
X145415000Y-103335666D01*
X145245666Y-103251000D01*
X145161000Y-103081666D01*
X145161000Y-102997000D01*
X145245666Y-102827666D01*
X145415000Y-102743000D01*
X145669000Y-102743000D01*
X145838333Y-102827666D01*
D13*
X191727666Y-77131333D02*
X191727666Y-75353333D01*
X192320333Y-76623333D01*
X192913000Y-75353333D01*
X192913000Y-77131333D01*
X194098333Y-75353333D02*
X194437000Y-75353333D01*
X194606333Y-75438000D01*
X194775666Y-75607333D01*
X194860333Y-75946000D01*
X194860333Y-76538666D01*
X194775666Y-76877333D01*
X194606333Y-77046666D01*
X194437000Y-77131333D01*
X194098333Y-77131333D01*
X193929000Y-77046666D01*
X193759666Y-76877333D01*
X193675000Y-76538666D01*
X193675000Y-75946000D01*
X193759666Y-75607333D01*
X193929000Y-75438000D01*
X194098333Y-75353333D01*
X195368333Y-75353333D02*
X196384333Y-75353333D01*
X195876333Y-77131333D02*
X195876333Y-75353333D01*
X197315666Y-75353333D02*
X197654333Y-75353333D01*
X197823666Y-75438000D01*
X197993000Y-75607333D01*
X198077666Y-75946000D01*
X198077666Y-76538666D01*
X197993000Y-76877333D01*
X197823666Y-77046666D01*
X197654333Y-77131333D01*
X197315666Y-77131333D01*
X197146333Y-77046666D01*
X196977000Y-76877333D01*
X196892333Y-76538666D01*
X196892333Y-75946000D01*
X196977000Y-75607333D01*
X197146333Y-75438000D01*
X197315666Y-75353333D01*
X199855666Y-77131333D02*
X199263000Y-76284666D01*
X198839666Y-77131333D02*
X198839666Y-75353333D01*
X199517000Y-75353333D01*
X199686333Y-75438000D01*
X199771000Y-75522666D01*
X199855666Y-75692000D01*
X199855666Y-75946000D01*
X199771000Y-76115333D01*
X199686333Y-76200000D01*
X199517000Y-76284666D01*
X198839666Y-76284666D01*
X200533000Y-77046666D02*
X200787000Y-77131333D01*
X201210333Y-77131333D01*
X201379666Y-77046666D01*
X201464333Y-76962000D01*
X201549000Y-76792666D01*
X201549000Y-76623333D01*
X201464333Y-76454000D01*
X201379666Y-76369333D01*
X201210333Y-76284666D01*
X200871666Y-76200000D01*
X200702333Y-76115333D01*
X200617666Y-76030666D01*
X200533000Y-75861333D01*
X200533000Y-75692000D01*
X200617666Y-75522666D01*
X200702333Y-75438000D01*
X200871666Y-75353333D01*
X201295000Y-75353333D01*
X201549000Y-75438000D01*
D14*
X116652428Y-230699571D02*
X116652428Y-231771000D01*
X116581000Y-231985285D01*
X116438142Y-232128142D01*
X116223857Y-232199571D01*
X116081000Y-232199571D01*
X118009571Y-232199571D02*
X118009571Y-231413857D01*
X117938142Y-231271000D01*
X117795285Y-231199571D01*
X117509571Y-231199571D01*
X117366714Y-231271000D01*
X118009571Y-232128142D02*
X117866714Y-232199571D01*
X117509571Y-232199571D01*
X117366714Y-232128142D01*
X117295285Y-231985285D01*
X117295285Y-231842428D01*
X117366714Y-231699571D01*
X117509571Y-231628142D01*
X117866714Y-231628142D01*
X118009571Y-231556714D01*
X119366714Y-232128142D02*
X119223857Y-232199571D01*
X118938142Y-232199571D01*
X118795285Y-232128142D01*
X118723857Y-232056714D01*
X118652428Y-231913857D01*
X118652428Y-231485285D01*
X118723857Y-231342428D01*
X118795285Y-231271000D01*
X118938142Y-231199571D01*
X119223857Y-231199571D01*
X119366714Y-231271000D01*
X120009571Y-232199571D02*
X120009571Y-230699571D01*
X120152428Y-231628142D02*
X120581000Y-232199571D01*
X120581000Y-231199571D02*
X120009571Y-231771000D01*
X122295285Y-232128142D02*
X122509571Y-232199571D01*
X122866714Y-232199571D01*
X123009571Y-232128142D01*
X123081000Y-232056714D01*
X123152428Y-231913857D01*
X123152428Y-231771000D01*
X123081000Y-231628142D01*
X123009571Y-231556714D01*
X122866714Y-231485285D01*
X122581000Y-231413857D01*
X122438142Y-231342428D01*
X122366714Y-231271000D01*
X122295285Y-231128142D01*
X122295285Y-230985285D01*
X122366714Y-230842428D01*
X122438142Y-230771000D01*
X122581000Y-230699571D01*
X122938142Y-230699571D01*
X123152428Y-230771000D01*
X124438142Y-232128142D02*
X124295285Y-232199571D01*
X124009571Y-232199571D01*
X123866714Y-232128142D01*
X123795285Y-232056714D01*
X123723857Y-231913857D01*
X123723857Y-231485285D01*
X123795285Y-231342428D01*
X123866714Y-231271000D01*
X124009571Y-231199571D01*
X124295285Y-231199571D01*
X124438142Y-231271000D01*
X125081000Y-232199571D02*
X125081000Y-230699571D01*
X125723857Y-232199571D02*
X125723857Y-231413857D01*
X125652428Y-231271000D01*
X125509571Y-231199571D01*
X125295285Y-231199571D01*
X125152428Y-231271000D01*
X125081000Y-231342428D01*
X126652428Y-232199571D02*
X126509571Y-232128142D01*
X126438142Y-232056714D01*
X126366714Y-231913857D01*
X126366714Y-231485285D01*
X126438142Y-231342428D01*
X126509571Y-231271000D01*
X126652428Y-231199571D01*
X126866714Y-231199571D01*
X127009571Y-231271000D01*
X127081000Y-231342428D01*
X127152428Y-231485285D01*
X127152428Y-231913857D01*
X127081000Y-232056714D01*
X127009571Y-232128142D01*
X126866714Y-232199571D01*
X126652428Y-232199571D01*
X127581000Y-231199571D02*
X128152428Y-231199571D01*
X127795285Y-230699571D02*
X127795285Y-231985285D01*
X127866714Y-232128142D01*
X128009571Y-232199571D01*
X128152428Y-232199571D01*
X128438142Y-231199571D02*
X129009571Y-231199571D01*
X128652428Y-230699571D02*
X128652428Y-231985285D01*
X128723857Y-232128142D01*
X128866714Y-232199571D01*
X129009571Y-232199571D01*
X129581000Y-232128142D02*
X129581000Y-232199571D01*
X129509571Y-232342428D01*
X129438142Y-232413857D01*
X131795285Y-230699571D02*
X131795285Y-231771000D01*
X131723857Y-231985285D01*
X131581000Y-232128142D01*
X131366714Y-232199571D01*
X131223857Y-232199571D01*
X133152428Y-232199571D02*
X133152428Y-231413857D01*
X133081000Y-231271000D01*
X132938142Y-231199571D01*
X132652428Y-231199571D01*
X132509571Y-231271000D01*
X133152428Y-232128142D02*
X133009571Y-232199571D01*
X132652428Y-232199571D01*
X132509571Y-232128142D01*
X132438142Y-231985285D01*
X132438142Y-231842428D01*
X132509571Y-231699571D01*
X132652428Y-231628142D01*
X133009571Y-231628142D01*
X133152428Y-231556714D01*
X133866714Y-232199571D02*
X133866714Y-231199571D01*
X133866714Y-231485285D02*
X133938142Y-231342428D01*
X134009571Y-231271000D01*
X134152428Y-231199571D01*
X134295285Y-231199571D01*
X135366714Y-232128142D02*
X135223857Y-232199571D01*
X134938142Y-232199571D01*
X134795285Y-232128142D01*
X134723857Y-231985285D01*
X134723857Y-231413857D01*
X134795285Y-231271000D01*
X134938142Y-231199571D01*
X135223857Y-231199571D01*
X135366714Y-231271000D01*
X135438142Y-231413857D01*
X135438142Y-231556714D01*
X134723857Y-231699571D01*
X136723857Y-232199571D02*
X136723857Y-230699571D01*
X136723857Y-232128142D02*
X136581000Y-232199571D01*
X136295285Y-232199571D01*
X136152428Y-232128142D01*
X136081000Y-232056714D01*
X136009571Y-231913857D01*
X136009571Y-231485285D01*
X136081000Y-231342428D01*
X136152428Y-231271000D01*
X136295285Y-231199571D01*
X136581000Y-231199571D01*
X136723857Y-231271000D01*
X138509571Y-232128142D02*
X138723857Y-232199571D01*
X139081000Y-232199571D01*
X139223857Y-232128142D01*
X139295285Y-232056714D01*
X139366714Y-231913857D01*
X139366714Y-231771000D01*
X139295285Y-231628142D01*
X139223857Y-231556714D01*
X139081000Y-231485285D01*
X138795285Y-231413857D01*
X138652428Y-231342428D01*
X138581000Y-231271000D01*
X138509571Y-231128142D01*
X138509571Y-230985285D01*
X138581000Y-230842428D01*
X138652428Y-230771000D01*
X138795285Y-230699571D01*
X139152428Y-230699571D01*
X139366714Y-230771000D01*
X140009571Y-232199571D02*
X140009571Y-231199571D01*
X140009571Y-230699571D02*
X139938142Y-230771000D01*
X140009571Y-230842428D01*
X140081000Y-230771000D01*
X140009571Y-230699571D01*
X140009571Y-230842428D01*
X140723857Y-231199571D02*
X140723857Y-232199571D01*
X140723857Y-231342428D02*
X140795285Y-231271000D01*
X140938142Y-231199571D01*
X141152428Y-231199571D01*
X141295285Y-231271000D01*
X141366714Y-231413857D01*
X141366714Y-232199571D01*
X142081000Y-232199571D02*
X142081000Y-230699571D01*
X142223857Y-231628142D02*
X142652428Y-232199571D01*
X142652428Y-231199571D02*
X142081000Y-231771000D01*
X143866714Y-232128142D02*
X143723857Y-232199571D01*
X143438142Y-232199571D01*
X143295285Y-232128142D01*
X143223857Y-231985285D01*
X143223857Y-231413857D01*
X143295285Y-231271000D01*
X143438142Y-231199571D01*
X143723857Y-231199571D01*
X143866714Y-231271000D01*
X143938142Y-231413857D01*
X143938142Y-231556714D01*
X143223857Y-231699571D01*
X144438142Y-231199571D02*
X144795285Y-232199571D01*
X145152428Y-231199571D02*
X144795285Y-232199571D01*
X144652428Y-232556714D01*
X144581000Y-232628142D01*
X144438142Y-232699571D01*
X145795285Y-232128142D02*
X145795285Y-232199571D01*
X145723857Y-232342428D01*
X145652428Y-232413857D01*
X147509571Y-232128142D02*
X147723857Y-232199571D01*
X148081000Y-232199571D01*
X148223857Y-232128142D01*
X148295285Y-232056714D01*
X148366714Y-231913857D01*
X148366714Y-231771000D01*
X148295285Y-231628142D01*
X148223857Y-231556714D01*
X148081000Y-231485285D01*
X147795285Y-231413857D01*
X147652428Y-231342428D01*
X147581000Y-231271000D01*
X147509571Y-231128142D01*
X147509571Y-230985285D01*
X147581000Y-230842428D01*
X147652428Y-230771000D01*
X147795285Y-230699571D01*
X148152428Y-230699571D01*
X148366714Y-230771000D01*
X149652428Y-232199571D02*
X149652428Y-231413857D01*
X149581000Y-231271000D01*
X149438142Y-231199571D01*
X149152428Y-231199571D01*
X149009571Y-231271000D01*
X149652428Y-232128142D02*
X149509571Y-232199571D01*
X149152428Y-232199571D01*
X149009571Y-232128142D01*
X148938142Y-231985285D01*
X148938142Y-231842428D01*
X149009571Y-231699571D01*
X149152428Y-231628142D01*
X149509571Y-231628142D01*
X149652428Y-231556714D01*
X150366714Y-232199571D02*
X150366714Y-231199571D01*
X150366714Y-231342428D02*
X150438142Y-231271000D01*
X150581000Y-231199571D01*
X150795285Y-231199571D01*
X150938142Y-231271000D01*
X151009571Y-231413857D01*
X151009571Y-232199571D01*
X151009571Y-231413857D02*
X151081000Y-231271000D01*
X151223857Y-231199571D01*
X151438142Y-231199571D01*
X151581000Y-231271000D01*
X151652428Y-231413857D01*
X151652428Y-232199571D01*
X153295285Y-230699571D02*
X154152428Y-230699571D01*
X153723857Y-232199571D02*
X153723857Y-230699571D01*
X154652428Y-232199571D02*
X154652428Y-230699571D01*
X155295285Y-232199571D02*
X155295285Y-231413857D01*
X155223857Y-231271000D01*
X155081000Y-231199571D01*
X154866714Y-231199571D01*
X154723857Y-231271000D01*
X154652428Y-231342428D01*
X156223857Y-232199571D02*
X156081000Y-232128142D01*
X156009571Y-232056714D01*
X155938142Y-231913857D01*
X155938142Y-231485285D01*
X156009571Y-231342428D01*
X156081000Y-231271000D01*
X156223857Y-231199571D01*
X156438142Y-231199571D01*
X156581000Y-231271000D01*
X156652428Y-231342428D01*
X156723857Y-231485285D01*
X156723857Y-231913857D01*
X156652428Y-232056714D01*
X156581000Y-232128142D01*
X156438142Y-232199571D01*
X156223857Y-232199571D01*
X157366714Y-232199571D02*
X157366714Y-231199571D01*
X157366714Y-231342428D02*
X157438142Y-231271000D01*
X157581000Y-231199571D01*
X157795285Y-231199571D01*
X157938142Y-231271000D01*
X158009571Y-231413857D01*
X158009571Y-232199571D01*
X158009571Y-231413857D02*
X158081000Y-231271000D01*
X158223857Y-231199571D01*
X158438142Y-231199571D01*
X158581000Y-231271000D01*
X158652428Y-231413857D01*
X158652428Y-232199571D01*
X159366714Y-231199571D02*
X159366714Y-232699571D01*
X159366714Y-231271000D02*
X159509571Y-231199571D01*
X159795285Y-231199571D01*
X159938142Y-231271000D01*
X160009571Y-231342428D01*
X160081000Y-231485285D01*
X160081000Y-231913857D01*
X160009571Y-232056714D01*
X159938142Y-232128142D01*
X159795285Y-232199571D01*
X159509571Y-232199571D01*
X159366714Y-232128142D01*
X160652428Y-232128142D02*
X160795285Y-232199571D01*
X161081000Y-232199571D01*
X161223857Y-232128142D01*
X161295285Y-231985285D01*
X161295285Y-231913857D01*
X161223857Y-231771000D01*
X161081000Y-231699571D01*
X160866714Y-231699571D01*
X160723857Y-231628142D01*
X160652428Y-231485285D01*
X160652428Y-231413857D01*
X160723857Y-231271000D01*
X160866714Y-231199571D01*
X161081000Y-231199571D01*
X161223857Y-231271000D01*
X162152428Y-232199571D02*
X162009571Y-232128142D01*
X161938142Y-232056714D01*
X161866714Y-231913857D01*
X161866714Y-231485285D01*
X161938142Y-231342428D01*
X162009571Y-231271000D01*
X162152428Y-231199571D01*
X162366714Y-231199571D01*
X162509571Y-231271000D01*
X162581000Y-231342428D01*
X162652428Y-231485285D01*
X162652428Y-231913857D01*
X162581000Y-232056714D01*
X162509571Y-232128142D01*
X162366714Y-232199571D01*
X162152428Y-232199571D01*
X163295285Y-231199571D02*
X163295285Y-232199571D01*
X163295285Y-231342428D02*
X163366714Y-231271000D01*
X163509571Y-231199571D01*
X163723857Y-231199571D01*
X163866714Y-231271000D01*
X163938142Y-231413857D01*
X163938142Y-232199571D01*
X116154285Y-229405571D02*
X116154285Y-227905571D01*
X116654285Y-228977000D01*
X117154285Y-227905571D01*
X117154285Y-229405571D01*
X117868571Y-229405571D02*
X117868571Y-228405571D01*
X117868571Y-227905571D02*
X117797142Y-227977000D01*
X117868571Y-228048428D01*
X117940000Y-227977000D01*
X117868571Y-227905571D01*
X117868571Y-228048428D01*
X118511428Y-229334142D02*
X118654285Y-229405571D01*
X118940000Y-229405571D01*
X119082857Y-229334142D01*
X119154285Y-229191285D01*
X119154285Y-229119857D01*
X119082857Y-228977000D01*
X118940000Y-228905571D01*
X118725714Y-228905571D01*
X118582857Y-228834142D01*
X118511428Y-228691285D01*
X118511428Y-228619857D01*
X118582857Y-228477000D01*
X118725714Y-228405571D01*
X118940000Y-228405571D01*
X119082857Y-228477000D01*
X119725714Y-229334142D02*
X119868571Y-229405571D01*
X120154285Y-229405571D01*
X120297142Y-229334142D01*
X120368571Y-229191285D01*
X120368571Y-229119857D01*
X120297142Y-228977000D01*
X120154285Y-228905571D01*
X119940000Y-228905571D01*
X119797142Y-228834142D01*
X119725714Y-228691285D01*
X119725714Y-228619857D01*
X119797142Y-228477000D01*
X119940000Y-228405571D01*
X120154285Y-228405571D01*
X120297142Y-228477000D01*
X121225714Y-229405571D02*
X121082857Y-229334142D01*
X121011428Y-229262714D01*
X120940000Y-229119857D01*
X120940000Y-228691285D01*
X121011428Y-228548428D01*
X121082857Y-228477000D01*
X121225714Y-228405571D01*
X121440000Y-228405571D01*
X121582857Y-228477000D01*
X121654285Y-228548428D01*
X121725714Y-228691285D01*
X121725714Y-229119857D01*
X121654285Y-229262714D01*
X121582857Y-229334142D01*
X121440000Y-229405571D01*
X121225714Y-229405571D01*
X123011428Y-228405571D02*
X123011428Y-229405571D01*
X122368571Y-228405571D02*
X122368571Y-229191285D01*
X122440000Y-229334142D01*
X122582857Y-229405571D01*
X122797142Y-229405571D01*
X122940000Y-229334142D01*
X123011428Y-229262714D01*
X123725714Y-229405571D02*
X123725714Y-228405571D01*
X123725714Y-228691285D02*
X123797142Y-228548428D01*
X123868571Y-228477000D01*
X124011428Y-228405571D01*
X124154285Y-228405571D01*
X124654285Y-229405571D02*
X124654285Y-228405571D01*
X124654285Y-227905571D02*
X124582857Y-227977000D01*
X124654285Y-228048428D01*
X124725714Y-227977000D01*
X124654285Y-227905571D01*
X124654285Y-228048428D01*
X126440000Y-229334142D02*
X126654285Y-229405571D01*
X127011428Y-229405571D01*
X127154285Y-229334142D01*
X127225714Y-229262714D01*
X127297142Y-229119857D01*
X127297142Y-228977000D01*
X127225714Y-228834142D01*
X127154285Y-228762714D01*
X127011428Y-228691285D01*
X126725714Y-228619857D01*
X126582857Y-228548428D01*
X126511428Y-228477000D01*
X126440000Y-228334142D01*
X126440000Y-228191285D01*
X126511428Y-228048428D01*
X126582857Y-227977000D01*
X126725714Y-227905571D01*
X127082857Y-227905571D01*
X127297142Y-227977000D01*
X129154285Y-229405571D02*
X129082857Y-229405571D01*
X128940000Y-229334142D01*
X128725714Y-229119857D01*
X128368571Y-228691285D01*
X128225714Y-228477000D01*
X128154285Y-228262714D01*
X128154285Y-228119857D01*
X128225714Y-227977000D01*
X128368571Y-227905571D01*
X128440000Y-227905571D01*
X128582857Y-227977000D01*
X128654285Y-228119857D01*
X128654285Y-228191285D01*
X128582857Y-228334142D01*
X128511428Y-228405571D01*
X128082857Y-228691285D01*
X128011428Y-228762714D01*
X127940000Y-228905571D01*
X127940000Y-229119857D01*
X128011428Y-229262714D01*
X128082857Y-229334142D01*
X128225714Y-229405571D01*
X128440000Y-229405571D01*
X128582857Y-229334142D01*
X128654285Y-229262714D01*
X128868571Y-228977000D01*
X128940000Y-228762714D01*
X128940000Y-228619857D01*
X129582857Y-227905571D02*
X130440000Y-227905571D01*
X130011428Y-229405571D02*
X130011428Y-227905571D01*
X116118857Y-226738571D02*
X116118857Y-225238571D01*
X116618857Y-226310000D01*
X117118857Y-225238571D01*
X117118857Y-226738571D01*
X118476000Y-226738571D02*
X118476000Y-225952857D01*
X118404571Y-225810000D01*
X118261714Y-225738571D01*
X117976000Y-225738571D01*
X117833142Y-225810000D01*
X118476000Y-226667142D02*
X118333142Y-226738571D01*
X117976000Y-226738571D01*
X117833142Y-226667142D01*
X117761714Y-226524285D01*
X117761714Y-226381428D01*
X117833142Y-226238571D01*
X117976000Y-226167142D01*
X118333142Y-226167142D01*
X118476000Y-226095714D01*
X119190285Y-226738571D02*
X119190285Y-225738571D01*
X119190285Y-226024285D02*
X119261714Y-225881428D01*
X119333142Y-225810000D01*
X119476000Y-225738571D01*
X119618857Y-225738571D01*
X120047428Y-226667142D02*
X120190285Y-226738571D01*
X120476000Y-226738571D01*
X120618857Y-226667142D01*
X120690285Y-226524285D01*
X120690285Y-226452857D01*
X120618857Y-226310000D01*
X120476000Y-226238571D01*
X120261714Y-226238571D01*
X120118857Y-226167142D01*
X120047428Y-226024285D01*
X120047428Y-225952857D01*
X120118857Y-225810000D01*
X120261714Y-225738571D01*
X120476000Y-225738571D01*
X120618857Y-225810000D01*
X123333142Y-226738571D02*
X122833142Y-226024285D01*
X122476000Y-226738571D02*
X122476000Y-225238571D01*
X123047428Y-225238571D01*
X123190285Y-225310000D01*
X123261714Y-225381428D01*
X123333142Y-225524285D01*
X123333142Y-225738571D01*
X123261714Y-225881428D01*
X123190285Y-225952857D01*
X123047428Y-226024285D01*
X122476000Y-226024285D01*
X124190285Y-226738571D02*
X124047428Y-226667142D01*
X123976000Y-226595714D01*
X123904571Y-226452857D01*
X123904571Y-226024285D01*
X123976000Y-225881428D01*
X124047428Y-225810000D01*
X124190285Y-225738571D01*
X124404571Y-225738571D01*
X124547428Y-225810000D01*
X124618857Y-225881428D01*
X124690285Y-226024285D01*
X124690285Y-226452857D01*
X124618857Y-226595714D01*
X124547428Y-226667142D01*
X124404571Y-226738571D01*
X124190285Y-226738571D01*
X125190285Y-225738571D02*
X125547428Y-226738571D01*
X125904571Y-225738571D01*
X127047428Y-226667142D02*
X126904571Y-226738571D01*
X126618857Y-226738571D01*
X126476000Y-226667142D01*
X126404571Y-226524285D01*
X126404571Y-225952857D01*
X126476000Y-225810000D01*
X126618857Y-225738571D01*
X126904571Y-225738571D01*
X127047428Y-225810000D01*
X127118857Y-225952857D01*
X127118857Y-226095714D01*
X126404571Y-226238571D01*
X127761714Y-226738571D02*
X127761714Y-225738571D01*
X127761714Y-226024285D02*
X127833142Y-225881428D01*
X127904571Y-225810000D01*
X128047428Y-225738571D01*
X128190285Y-225738571D01*
X129761714Y-225381428D02*
X129833142Y-225310000D01*
X129976000Y-225238571D01*
X130333142Y-225238571D01*
X130476000Y-225310000D01*
X130547428Y-225381428D01*
X130618857Y-225524285D01*
X130618857Y-225667142D01*
X130547428Y-225881428D01*
X129690285Y-226738571D01*
X130618857Y-226738571D01*
X131547428Y-225238571D02*
X131690285Y-225238571D01*
X131833142Y-225310000D01*
X131904571Y-225381428D01*
X131976000Y-225524285D01*
X132047428Y-225810000D01*
X132047428Y-226167142D01*
X131976000Y-226452857D01*
X131904571Y-226595714D01*
X131833142Y-226667142D01*
X131690285Y-226738571D01*
X131547428Y-226738571D01*
X131404571Y-226667142D01*
X131333142Y-226595714D01*
X131261714Y-226452857D01*
X131190285Y-226167142D01*
X131190285Y-225810000D01*
X131261714Y-225524285D01*
X131333142Y-225381428D01*
X131404571Y-225310000D01*
X131547428Y-225238571D01*
X132618857Y-225381428D02*
X132690285Y-225310000D01*
X132833142Y-225238571D01*
X133190285Y-225238571D01*
X133333142Y-225310000D01*
X133404571Y-225381428D01*
X133476000Y-225524285D01*
X133476000Y-225667142D01*
X133404571Y-225881428D01*
X132547428Y-226738571D01*
X133476000Y-226738571D01*
X134404571Y-225238571D02*
X134547428Y-225238571D01*
X134690285Y-225310000D01*
X134761714Y-225381428D01*
X134833142Y-225524285D01*
X134904571Y-225810000D01*
X134904571Y-226167142D01*
X134833142Y-226452857D01*
X134761714Y-226595714D01*
X134690285Y-226667142D01*
X134547428Y-226738571D01*
X134404571Y-226738571D01*
X134261714Y-226667142D01*
X134190285Y-226595714D01*
X134118857Y-226452857D01*
X134047428Y-226167142D01*
X134047428Y-225810000D01*
X134118857Y-225524285D01*
X134190285Y-225381428D01*
X134261714Y-225310000D01*
X134404571Y-225238571D01*
X116083857Y-223182571D02*
X116083857Y-221682571D01*
X116441000Y-221682571D01*
X116655285Y-221754000D01*
X116798142Y-221896857D01*
X116869571Y-222039714D01*
X116941000Y-222325428D01*
X116941000Y-222539714D01*
X116869571Y-222825428D01*
X116798142Y-222968285D01*
X116655285Y-223111142D01*
X116441000Y-223182571D01*
X116083857Y-223182571D01*
X117583857Y-223182571D02*
X117583857Y-222182571D01*
X117583857Y-222468285D02*
X117655285Y-222325428D01*
X117726714Y-222254000D01*
X117869571Y-222182571D01*
X118012428Y-222182571D01*
X118512428Y-223182571D02*
X118512428Y-222182571D01*
X118512428Y-221682571D02*
X118441000Y-221754000D01*
X118512428Y-221825428D01*
X118583857Y-221754000D01*
X118512428Y-221682571D01*
X118512428Y-221825428D01*
X119083857Y-222182571D02*
X119441000Y-223182571D01*
X119798142Y-222182571D01*
X120941000Y-223111142D02*
X120798142Y-223182571D01*
X120512428Y-223182571D01*
X120369571Y-223111142D01*
X120298142Y-222968285D01*
X120298142Y-222396857D01*
X120369571Y-222254000D01*
X120512428Y-222182571D01*
X120798142Y-222182571D01*
X120941000Y-222254000D01*
X121012428Y-222396857D01*
X121012428Y-222539714D01*
X120298142Y-222682571D01*
X122726714Y-221611142D02*
X121441000Y-223539714D01*
X123941000Y-223182571D02*
X123226714Y-223182571D01*
X123226714Y-221682571D01*
X124441000Y-223182571D02*
X124441000Y-222182571D01*
X124441000Y-221682571D02*
X124369571Y-221754000D01*
X124441000Y-221825428D01*
X124512428Y-221754000D01*
X124441000Y-221682571D01*
X124441000Y-221825428D01*
X125798142Y-222182571D02*
X125798142Y-223396857D01*
X125726714Y-223539714D01*
X125655285Y-223611142D01*
X125512428Y-223682571D01*
X125298142Y-223682571D01*
X125155285Y-223611142D01*
X125798142Y-223111142D02*
X125655285Y-223182571D01*
X125369571Y-223182571D01*
X125226714Y-223111142D01*
X125155285Y-223039714D01*
X125083857Y-222896857D01*
X125083857Y-222468285D01*
X125155285Y-222325428D01*
X125226714Y-222254000D01*
X125369571Y-222182571D01*
X125655285Y-222182571D01*
X125798142Y-222254000D01*
X126512428Y-223182571D02*
X126512428Y-221682571D01*
X127155285Y-223182571D02*
X127155285Y-222396857D01*
X127083857Y-222254000D01*
X126941000Y-222182571D01*
X126726714Y-222182571D01*
X126583857Y-222254000D01*
X126512428Y-222325428D01*
X127655285Y-222182571D02*
X128226714Y-222182571D01*
X127869571Y-221682571D02*
X127869571Y-222968285D01*
X127941000Y-223111142D01*
X128083857Y-223182571D01*
X128226714Y-223182571D01*
X128726714Y-223182571D02*
X128726714Y-222182571D01*
X128726714Y-221682571D02*
X128655285Y-221754000D01*
X128726714Y-221825428D01*
X128798142Y-221754000D01*
X128726714Y-221682571D01*
X128726714Y-221825428D01*
X129441000Y-222182571D02*
X129441000Y-223182571D01*
X129441000Y-222325428D02*
X129512428Y-222254000D01*
X129655285Y-222182571D01*
X129869571Y-222182571D01*
X130012428Y-222254000D01*
X130083857Y-222396857D01*
X130083857Y-223182571D01*
X131441000Y-222182571D02*
X131441000Y-223396857D01*
X131369571Y-223539714D01*
X131298142Y-223611142D01*
X131155285Y-223682571D01*
X130941000Y-223682571D01*
X130798142Y-223611142D01*
X131441000Y-223111142D02*
X131298142Y-223182571D01*
X131012428Y-223182571D01*
X130869571Y-223111142D01*
X130798142Y-223039714D01*
X130726714Y-222896857D01*
X130726714Y-222468285D01*
X130798142Y-222325428D01*
X130869571Y-222254000D01*
X131012428Y-222182571D01*
X131298142Y-222182571D01*
X131441000Y-222254000D01*
X133798142Y-222396857D02*
X134012428Y-222468285D01*
X134083857Y-222539714D01*
X134155285Y-222682571D01*
X134155285Y-222896857D01*
X134083857Y-223039714D01*
X134012428Y-223111142D01*
X133869571Y-223182571D01*
X133298142Y-223182571D01*
X133298142Y-221682571D01*
X133798142Y-221682571D01*
X133941000Y-221754000D01*
X134012428Y-221825428D01*
X134083857Y-221968285D01*
X134083857Y-222111142D01*
X134012428Y-222254000D01*
X133941000Y-222325428D01*
X133798142Y-222396857D01*
X133298142Y-222396857D01*
X135012428Y-223182571D02*
X134869571Y-223111142D01*
X134798142Y-223039714D01*
X134726714Y-222896857D01*
X134726714Y-222468285D01*
X134798142Y-222325428D01*
X134869571Y-222254000D01*
X135012428Y-222182571D01*
X135226714Y-222182571D01*
X135369571Y-222254000D01*
X135441000Y-222325428D01*
X135512428Y-222468285D01*
X135512428Y-222896857D01*
X135441000Y-223039714D01*
X135369571Y-223111142D01*
X135226714Y-223182571D01*
X135012428Y-223182571D01*
X136798142Y-223182571D02*
X136798142Y-222396857D01*
X136726714Y-222254000D01*
X136583857Y-222182571D01*
X136298142Y-222182571D01*
X136155285Y-222254000D01*
X136798142Y-223111142D02*
X136655285Y-223182571D01*
X136298142Y-223182571D01*
X136155285Y-223111142D01*
X136083857Y-222968285D01*
X136083857Y-222825428D01*
X136155285Y-222682571D01*
X136298142Y-222611142D01*
X136655285Y-222611142D01*
X136798142Y-222539714D01*
X137512428Y-223182571D02*
X137512428Y-222182571D01*
X137512428Y-222468285D02*
X137583857Y-222325428D01*
X137655285Y-222254000D01*
X137798142Y-222182571D01*
X137941000Y-222182571D01*
X139083857Y-223182571D02*
X139083857Y-221682571D01*
X139083857Y-223111142D02*
X138941000Y-223182571D01*
X138655285Y-223182571D01*
X138512428Y-223111142D01*
X138441000Y-223039714D01*
X138369571Y-222896857D01*
X138369571Y-222468285D01*
X138441000Y-222325428D01*
X138512428Y-222254000D01*
X138655285Y-222182571D01*
X138941000Y-222182571D01*
X139083857Y-222254000D01*
X139869571Y-223111142D02*
X139869571Y-223182571D01*
X139798142Y-223325428D01*
X139726714Y-223396857D01*
X142512428Y-223182571D02*
X142012428Y-222468285D01*
X141655285Y-223182571D02*
X141655285Y-221682571D01*
X142226714Y-221682571D01*
X142369571Y-221754000D01*
X142441000Y-221825428D01*
X142512428Y-221968285D01*
X142512428Y-222182571D01*
X142441000Y-222325428D01*
X142369571Y-222396857D01*
X142226714Y-222468285D01*
X141655285Y-222468285D01*
X143726714Y-223111142D02*
X143583857Y-223182571D01*
X143298142Y-223182571D01*
X143155285Y-223111142D01*
X143083857Y-222968285D01*
X143083857Y-222396857D01*
X143155285Y-222254000D01*
X143298142Y-222182571D01*
X143583857Y-222182571D01*
X143726714Y-222254000D01*
X143798142Y-222396857D01*
X143798142Y-222539714D01*
X143083857Y-222682571D01*
X144298142Y-222182571D02*
X144655285Y-223182571D01*
X145012428Y-222182571D01*
X146369571Y-223182571D02*
X145512428Y-223182571D01*
X145941000Y-223182571D02*
X145941000Y-221682571D01*
X145798142Y-221896857D01*
X145655285Y-222039714D01*
X145512428Y-222111142D01*
D11*
X133856000Y-190342733D02*
X133856000Y-190685267D01*
X134876000Y-190342733D02*
X134876000Y-190685267D01*
X162181000Y-192247733D02*
X162181000Y-192590267D01*
X161161000Y-192247733D02*
X161161000Y-192590267D01*
X126991000Y-109447000D02*
X129451000Y-109447000D01*
X126991000Y-107977000D02*
X126991000Y-109447000D01*
X129451000Y-107977000D02*
X126991000Y-107977000D01*
X123181000Y-109447000D02*
X125641000Y-109447000D01*
X123181000Y-107977000D02*
X123181000Y-109447000D01*
X125641000Y-107977000D02*
X123181000Y-107977000D01*
X144531000Y-109447000D02*
X146991000Y-109447000D01*
X144531000Y-107977000D02*
X144531000Y-109447000D01*
X146991000Y-107977000D02*
X144531000Y-107977000D01*
X140721000Y-109447000D02*
X143181000Y-109447000D01*
X140721000Y-107977000D02*
X140721000Y-109447000D01*
X143181000Y-107977000D02*
X140721000Y-107977000D01*
X153343500Y-109447000D02*
X155803500Y-109447000D01*
X153343500Y-107977000D02*
X153343500Y-109447000D01*
X155803500Y-107977000D02*
X153343500Y-107977000D01*
X152071000Y-107977000D02*
X149611000Y-107977000D01*
X149611000Y-107977000D02*
X149611000Y-109447000D01*
X149611000Y-109447000D02*
X152071000Y-109447000D01*
X124451000Y-93572000D02*
X126911000Y-93572000D01*
X124451000Y-92102000D02*
X124451000Y-93572000D01*
X126911000Y-92102000D02*
X124451000Y-92102000D01*
X155856000Y-92447000D02*
X155856000Y-94907000D01*
X157326000Y-92447000D02*
X155856000Y-92447000D01*
X157326000Y-94907000D02*
X157326000Y-92447000D01*
X206906000Y-88927000D02*
X204446000Y-88927000D01*
X206906000Y-90397000D02*
X206906000Y-88927000D01*
X204446000Y-90397000D02*
X206906000Y-90397000D01*
X206906000Y-101627000D02*
X204446000Y-101627000D01*
X206906000Y-103097000D02*
X206906000Y-101627000D01*
X204446000Y-103097000D02*
X206906000Y-103097000D01*
X206906000Y-114327000D02*
X204446000Y-114327000D01*
X206906000Y-115797000D02*
X206906000Y-114327000D01*
X204446000Y-115797000D02*
X206906000Y-115797000D01*
X128479733Y-111127000D02*
X128822267Y-111127000D01*
X128479733Y-110107000D02*
X128822267Y-110107000D01*
X124669733Y-111127000D02*
X125012267Y-111127000D01*
X124669733Y-110107000D02*
X125012267Y-110107000D01*
X146019733Y-111127000D02*
X146362267Y-111127000D01*
X146019733Y-110107000D02*
X146362267Y-110107000D01*
X142209733Y-111127000D02*
X142552267Y-111127000D01*
X142209733Y-110107000D02*
X142552267Y-110107000D01*
X154909733Y-111127000D02*
X155252267Y-111127000D01*
X154909733Y-110107000D02*
X155252267Y-110107000D01*
X151099733Y-110107000D02*
X151442267Y-110107000D01*
X151099733Y-111127000D02*
X151442267Y-111127000D01*
X125939733Y-94232000D02*
X126282267Y-94232000D01*
X125939733Y-95252000D02*
X126282267Y-95252000D01*
X151636000Y-94278267D02*
X151636000Y-93935733D01*
X152656000Y-94278267D02*
X152656000Y-93935733D01*
X199067267Y-89152000D02*
X198724733Y-89152000D01*
X199067267Y-90172000D02*
X198724733Y-90172000D01*
X199067267Y-101852000D02*
X198724733Y-101852000D01*
X199067267Y-102872000D02*
X198724733Y-102872000D01*
X199067267Y-114552000D02*
X198724733Y-114552000D01*
X199067267Y-115572000D02*
X198724733Y-115572000D01*
D15*
X159766000Y-200914000D02*
X143256000Y-200914000D01*
X143256000Y-190754000D02*
X159766000Y-190754000D01*
X143256000Y-200914000D02*
X143256000Y-190754000D01*
X159766000Y-200914000D02*
X159766000Y-190754000D01*
X147066000Y-198374000D02*
X147066000Y-193294000D01*
X149606000Y-200914000D02*
X147066000Y-198374000D01*
X154686000Y-200914000D02*
X149606000Y-200914000D01*
X157226000Y-198374000D02*
X154686000Y-200914000D01*
X157226000Y-193294000D02*
X157226000Y-198374000D01*
X154686000Y-190754000D02*
X157226000Y-193294000D01*
X149606000Y-190754000D02*
X154686000Y-190754000D01*
X147066000Y-193294000D02*
X149606000Y-190754000D01*
X147066000Y-180594000D02*
X149606000Y-178054000D01*
X149606000Y-178054000D02*
X154686000Y-178054000D01*
X154686000Y-178054000D02*
X157226000Y-180594000D01*
X157226000Y-180594000D02*
X157226000Y-185674000D01*
X157226000Y-185674000D02*
X154686000Y-188214000D01*
X154686000Y-188214000D02*
X149606000Y-188214000D01*
X149606000Y-188214000D02*
X147066000Y-185674000D01*
X147066000Y-185674000D02*
X147066000Y-180594000D01*
X159766000Y-188214000D02*
X159766000Y-178054000D01*
X143256000Y-188214000D02*
X143256000Y-178054000D01*
X143256000Y-178054000D02*
X159766000Y-178054000D01*
X159766000Y-188214000D02*
X143256000Y-188214000D01*
D11*
X199941000Y-98312000D02*
X199941000Y-96252000D01*
X204681000Y-98312000D02*
X204681000Y-96252000D01*
X204681000Y-99652000D02*
X204681000Y-99252000D01*
X199941000Y-99652000D02*
X204681000Y-99652000D01*
X199941000Y-99652000D02*
X199941000Y-99252000D01*
X204681000Y-94912000D02*
X204681000Y-95312000D01*
X199941000Y-94912000D02*
X199941000Y-95312000D01*
X199941000Y-94912000D02*
X204681000Y-94912000D01*
X199306000Y-109742000D02*
X199306000Y-107682000D01*
X204046000Y-109742000D02*
X204046000Y-107682000D01*
X204046000Y-111082000D02*
X204046000Y-110682000D01*
X199306000Y-111082000D02*
X204046000Y-111082000D01*
X199306000Y-111082000D02*
X199306000Y-110682000D01*
X204046000Y-106342000D02*
X204046000Y-106742000D01*
X199306000Y-106342000D02*
X199306000Y-106742000D01*
X199306000Y-106342000D02*
X204046000Y-106342000D01*
X180066000Y-145034000D02*
X180066000Y-143084000D01*
X180066000Y-145034000D02*
X180066000Y-146984000D01*
X169946000Y-145034000D02*
X169946000Y-143084000D01*
X169946000Y-145034000D02*
X169946000Y-148484000D01*
X166096000Y-145034000D02*
X166096000Y-143084000D01*
X166096000Y-145034000D02*
X166096000Y-146984000D01*
X155976000Y-145034000D02*
X155976000Y-143084000D01*
X155976000Y-145034000D02*
X155976000Y-148484000D01*
X183916000Y-145034000D02*
X183916000Y-148484000D01*
X183916000Y-145034000D02*
X183916000Y-143084000D01*
X194036000Y-145034000D02*
X194036000Y-146984000D01*
X194036000Y-145034000D02*
X194036000Y-143084000D01*
X134194733Y-195324000D02*
X134537267Y-195324000D01*
X134194733Y-196344000D02*
X134537267Y-196344000D01*
X134018233Y-200471500D02*
X134360767Y-200471500D01*
X134018233Y-199451500D02*
X134360767Y-199451500D01*
D15*
X126111000Y-154559000D02*
X123571000Y-154559000D01*
X123571000Y-149479000D02*
X126111000Y-149479000D01*
X123571000Y-156464000D02*
X111633000Y-156464000D01*
X111633000Y-156464000D02*
X111633000Y-147574000D01*
X126111000Y-149479000D02*
X126111000Y-154559000D01*
X123571000Y-147574000D02*
X111633000Y-147574000D01*
X123571000Y-156464000D02*
X123571000Y-147574000D01*
X123571000Y-167767000D02*
X123571000Y-158877000D01*
X123571000Y-158877000D02*
X111633000Y-158877000D01*
X126111000Y-160782000D02*
X126111000Y-165862000D01*
X111633000Y-167767000D02*
X111633000Y-158877000D01*
X123571000Y-167767000D02*
X111633000Y-167767000D01*
X123571000Y-160782000D02*
X126111000Y-160782000D01*
X126111000Y-165862000D02*
X123571000Y-165862000D01*
D11*
X171419733Y-114552000D02*
X171762267Y-114552000D01*
X171419733Y-115572000D02*
X171762267Y-115572000D01*
X171899733Y-90172000D02*
X172242267Y-90172000D01*
X171899733Y-89152000D02*
X172242267Y-89152000D01*
X167609733Y-99570000D02*
X167952267Y-99570000D01*
X167609733Y-98550000D02*
X167952267Y-98550000D01*
X120224733Y-95252000D02*
X120567267Y-95252000D01*
X120224733Y-94232000D02*
X120567267Y-94232000D01*
X172636000Y-109742000D02*
X172636000Y-107682000D01*
X177376000Y-109742000D02*
X177376000Y-107682000D01*
X177376000Y-111082000D02*
X177376000Y-110682000D01*
X172636000Y-111082000D02*
X177376000Y-111082000D01*
X172636000Y-111082000D02*
X172636000Y-110682000D01*
X177376000Y-106342000D02*
X177376000Y-106742000D01*
X172636000Y-106342000D02*
X172636000Y-106742000D01*
X172636000Y-106342000D02*
X177376000Y-106342000D01*
X172636000Y-82212000D02*
X177376000Y-82212000D01*
X172636000Y-82212000D02*
X172636000Y-82612000D01*
X177376000Y-82212000D02*
X177376000Y-82612000D01*
X172636000Y-86952000D02*
X172636000Y-86552000D01*
X172636000Y-86952000D02*
X177376000Y-86952000D01*
X177376000Y-86952000D02*
X177376000Y-86552000D01*
X177376000Y-85612000D02*
X177376000Y-83552000D01*
X172636000Y-85612000D02*
X172636000Y-83552000D01*
X172636000Y-94912000D02*
X177376000Y-94912000D01*
X172636000Y-94912000D02*
X172636000Y-95312000D01*
X177376000Y-94912000D02*
X177376000Y-95312000D01*
X172636000Y-99652000D02*
X172636000Y-99252000D01*
X172636000Y-99652000D02*
X177376000Y-99652000D01*
X177376000Y-99652000D02*
X177376000Y-99252000D01*
X177376000Y-98312000D02*
X177376000Y-96252000D01*
X172636000Y-98312000D02*
X172636000Y-96252000D01*
D15*
X165481000Y-178047116D02*
X185801000Y-178047116D01*
X165481000Y-178047116D02*
X165481000Y-209797116D01*
X185801000Y-178047116D02*
X185801000Y-209797116D01*
X165481000Y-209797116D02*
X185801000Y-209797116D01*
D11*
X164382267Y-150874000D02*
X164039733Y-150874000D01*
X164382267Y-151894000D02*
X164039733Y-151894000D01*
X179622267Y-150874000D02*
X179279733Y-150874000D01*
X179622267Y-151894000D02*
X179279733Y-151894000D01*
X194519733Y-150874000D02*
X194862267Y-150874000D01*
X194519733Y-151894000D02*
X194862267Y-151894000D01*
X154909733Y-151894000D02*
X155252267Y-151894000D01*
X154909733Y-150874000D02*
X155252267Y-150874000D01*
X159594733Y-150874000D02*
X159937267Y-150874000D01*
X159594733Y-151894000D02*
X159937267Y-151894000D01*
X170389733Y-150874000D02*
X170732267Y-150874000D01*
X170389733Y-151894000D02*
X170732267Y-151894000D01*
X174834733Y-151894000D02*
X175177267Y-151894000D01*
X174834733Y-150874000D02*
X175177267Y-150874000D01*
X185389733Y-150874000D02*
X185732267Y-150874000D01*
X185389733Y-151894000D02*
X185732267Y-151894000D01*
X189834733Y-150874000D02*
X190177267Y-150874000D01*
X189834733Y-151894000D02*
X190177267Y-151894000D01*
X137031000Y-190342733D02*
X137031000Y-190685267D01*
X138051000Y-190342733D02*
X138051000Y-190685267D01*
X145229733Y-176274000D02*
X145572267Y-176274000D01*
X145229733Y-177294000D02*
X145572267Y-177294000D01*
D15*
X110871000Y-194208400D02*
X110871000Y-199771000D01*
X111937800Y-200914000D02*
G75*
G03X110871000Y-199847200I-1066800J0D01*
G01*
X110845600Y-199847200D02*
G75*
G03X109778800Y-200914000I0J-1066800D01*
G01*
X111988600Y-193040000D02*
G75*
G03X111988600Y-193040000I-1117600J0D01*
G01*
X109728000Y-200914000D02*
X100838000Y-200914000D01*
X111988600Y-200914000D02*
X125472000Y-200914000D01*
X109728000Y-177292000D02*
X108508800Y-177292000D01*
X110871000Y-178435000D02*
G75*
G03X112014000Y-177292000I0J1143000D01*
G01*
X109728000Y-177292000D02*
G75*
G03X110871000Y-178435000I1143000J0D01*
G01*
X113182400Y-193040000D02*
X111988600Y-193040000D01*
X110871000Y-190728600D02*
X110871000Y-191897000D01*
X108559600Y-193040000D02*
X109728000Y-193040000D01*
X113131600Y-177292000D02*
X112039400Y-177292000D01*
X110871000Y-178435000D02*
X110871000Y-179603400D01*
X110871000Y-187452000D02*
X110871000Y-186309000D01*
X100838000Y-185140600D02*
X109728000Y-185140600D01*
X110871000Y-182880000D02*
X110871000Y-184023000D01*
X113157000Y-185166000D02*
X112014000Y-185166000D01*
X110871000Y-187452000D02*
X110871000Y-190754000D01*
X113157000Y-185166000D02*
X125476000Y-185166000D01*
X110871000Y-182880000D02*
X110871000Y-179603400D01*
X112014000Y-185166000D02*
G75*
G03X112014000Y-185166000I-1143000J0D01*
G01*
X113157000Y-193040000D02*
X125476000Y-193040000D01*
X108585000Y-193040000D02*
X100838000Y-193040000D01*
X100838000Y-177292000D02*
X108585000Y-177292000D01*
X113157000Y-177292000D02*
X125476000Y-177292000D01*
X100834000Y-200662000D02*
X100834000Y-177290000D01*
X125472000Y-200914000D02*
X125472000Y-177290000D01*
X232156000Y-87630000D02*
X231648000Y-87630000D01*
X231648000Y-95250000D02*
X232156000Y-95250000D01*
X232156000Y-83185000D02*
X232156000Y-99695000D01*
X220218000Y-83185000D02*
X232156000Y-83185000D01*
X220218000Y-99695000D02*
X232156000Y-99695000D01*
X220218000Y-97790000D02*
X220218000Y-99695000D01*
X220218000Y-85090000D02*
X220218000Y-83185000D01*
X227838000Y-87630000D02*
X226568000Y-87630000D01*
X226568000Y-87630000D02*
X226568000Y-95250000D01*
X226568000Y-95250000D02*
X227838000Y-95250000D01*
X227838000Y-95250000D02*
X231648000Y-95250000D01*
X227838000Y-87630000D02*
X231648000Y-87630000D01*
X226568000Y-90170000D02*
X224028000Y-90170000D01*
X224028000Y-90170000D02*
X224028000Y-92710000D01*
X224028000Y-92710000D02*
X226568000Y-92710000D01*
X220218000Y-85090000D02*
X220218000Y-97790000D01*
X220218000Y-97790000D02*
X217678000Y-97790000D01*
X217678000Y-97790000D02*
X217678000Y-85090000D01*
X217678000Y-85090000D02*
X220218000Y-85090000D01*
X232156000Y-105918000D02*
X231648000Y-105918000D01*
X231648000Y-113538000D02*
X232156000Y-113538000D01*
X232156000Y-101473000D02*
X232156000Y-117983000D01*
X220218000Y-101473000D02*
X232156000Y-101473000D01*
X220218000Y-117983000D02*
X232156000Y-117983000D01*
X220218000Y-116078000D02*
X220218000Y-117983000D01*
X220218000Y-103378000D02*
X220218000Y-101473000D01*
X227838000Y-105918000D02*
X226568000Y-105918000D01*
X226568000Y-105918000D02*
X226568000Y-113538000D01*
X226568000Y-113538000D02*
X227838000Y-113538000D01*
X227838000Y-113538000D02*
X231648000Y-113538000D01*
X227838000Y-105918000D02*
X231648000Y-105918000D01*
X226568000Y-108458000D02*
X224028000Y-108458000D01*
X224028000Y-108458000D02*
X224028000Y-110998000D01*
X224028000Y-110998000D02*
X226568000Y-110998000D01*
X220218000Y-103378000D02*
X220218000Y-116078000D01*
X220218000Y-116078000D02*
X217678000Y-116078000D01*
X217678000Y-116078000D02*
X217678000Y-103378000D01*
X217678000Y-103378000D02*
X220218000Y-103378000D01*
X217678000Y-121666000D02*
X220218000Y-121666000D01*
X217678000Y-134366000D02*
X217678000Y-121666000D01*
X220218000Y-134366000D02*
X217678000Y-134366000D01*
X220218000Y-121666000D02*
X220218000Y-134366000D01*
X224028000Y-129286000D02*
X226568000Y-129286000D01*
X224028000Y-126746000D02*
X224028000Y-129286000D01*
X226568000Y-126746000D02*
X224028000Y-126746000D01*
X227838000Y-124206000D02*
X231648000Y-124206000D01*
X227838000Y-131826000D02*
X231648000Y-131826000D01*
X226568000Y-131826000D02*
X227838000Y-131826000D01*
X226568000Y-124206000D02*
X226568000Y-131826000D01*
X227838000Y-124206000D02*
X226568000Y-124206000D01*
X220218000Y-121666000D02*
X220218000Y-119761000D01*
X220218000Y-134366000D02*
X220218000Y-136271000D01*
X220218000Y-136271000D02*
X232156000Y-136271000D01*
X220218000Y-119761000D02*
X232156000Y-119761000D01*
X232156000Y-119761000D02*
X232156000Y-136271000D01*
X231648000Y-131826000D02*
X232156000Y-131826000D01*
X232156000Y-124206000D02*
X231648000Y-124206000D01*
X217678000Y-176022000D02*
X220218000Y-176022000D01*
X217678000Y-188722000D02*
X217678000Y-176022000D01*
X220218000Y-188722000D02*
X217678000Y-188722000D01*
X220218000Y-176022000D02*
X220218000Y-188722000D01*
X224028000Y-183642000D02*
X226568000Y-183642000D01*
X224028000Y-181102000D02*
X224028000Y-183642000D01*
X226568000Y-181102000D02*
X224028000Y-181102000D01*
X227838000Y-178562000D02*
X231648000Y-178562000D01*
X227838000Y-186182000D02*
X231648000Y-186182000D01*
X226568000Y-186182000D02*
X227838000Y-186182000D01*
X226568000Y-178562000D02*
X226568000Y-186182000D01*
X227838000Y-178562000D02*
X226568000Y-178562000D01*
X220218000Y-176022000D02*
X220218000Y-174117000D01*
X220218000Y-188722000D02*
X220218000Y-190627000D01*
X220218000Y-190627000D02*
X232156000Y-190627000D01*
X220218000Y-174117000D02*
X232156000Y-174117000D01*
X232156000Y-174117000D02*
X232156000Y-190627000D01*
X231648000Y-186182000D02*
X232156000Y-186182000D01*
X232156000Y-178562000D02*
X231648000Y-178562000D01*
X232156000Y-160782000D02*
X231648000Y-160782000D01*
X231648000Y-168402000D02*
X232156000Y-168402000D01*
X232156000Y-156337000D02*
X232156000Y-172847000D01*
X220218000Y-156337000D02*
X232156000Y-156337000D01*
X220218000Y-172847000D02*
X232156000Y-172847000D01*
X220218000Y-170942000D02*
X220218000Y-172847000D01*
X220218000Y-158242000D02*
X220218000Y-156337000D01*
X227838000Y-160782000D02*
X226568000Y-160782000D01*
X226568000Y-160782000D02*
X226568000Y-168402000D01*
X226568000Y-168402000D02*
X227838000Y-168402000D01*
X227838000Y-168402000D02*
X231648000Y-168402000D01*
X227838000Y-160782000D02*
X231648000Y-160782000D01*
X226568000Y-163322000D02*
X224028000Y-163322000D01*
X224028000Y-163322000D02*
X224028000Y-165862000D01*
X224028000Y-165862000D02*
X226568000Y-165862000D01*
X220218000Y-158242000D02*
X220218000Y-170942000D01*
X220218000Y-170942000D02*
X217678000Y-170942000D01*
X217678000Y-170942000D02*
X217678000Y-158242000D01*
X217678000Y-158242000D02*
X220218000Y-158242000D01*
X217678000Y-139954000D02*
X220218000Y-139954000D01*
X217678000Y-152654000D02*
X217678000Y-139954000D01*
X220218000Y-152654000D02*
X217678000Y-152654000D01*
X220218000Y-139954000D02*
X220218000Y-152654000D01*
X224028000Y-147574000D02*
X226568000Y-147574000D01*
X224028000Y-145034000D02*
X224028000Y-147574000D01*
X226568000Y-145034000D02*
X224028000Y-145034000D01*
X227838000Y-142494000D02*
X231648000Y-142494000D01*
X227838000Y-150114000D02*
X231648000Y-150114000D01*
X226568000Y-150114000D02*
X227838000Y-150114000D01*
X226568000Y-142494000D02*
X226568000Y-150114000D01*
X227838000Y-142494000D02*
X226568000Y-142494000D01*
X220218000Y-139954000D02*
X220218000Y-138049000D01*
X220218000Y-152654000D02*
X220218000Y-154559000D01*
X220218000Y-154559000D02*
X232156000Y-154559000D01*
X220218000Y-138049000D02*
X232156000Y-138049000D01*
X232156000Y-138049000D02*
X232156000Y-154559000D01*
X231648000Y-150114000D02*
X232156000Y-150114000D01*
X232156000Y-142494000D02*
X231648000Y-142494000D01*
D11*
X191746000Y-90397000D02*
X194206000Y-90397000D01*
X194206000Y-90397000D02*
X194206000Y-88927000D01*
X194206000Y-88927000D02*
X191746000Y-88927000D01*
X194206000Y-101627000D02*
X191746000Y-101627000D01*
X194206000Y-103097000D02*
X194206000Y-101627000D01*
X191746000Y-103097000D02*
X194206000Y-103097000D01*
X191746000Y-115797000D02*
X194206000Y-115797000D01*
X194206000Y-115797000D02*
X194206000Y-114327000D01*
X194206000Y-114327000D02*
X191746000Y-114327000D01*
X118101000Y-109447000D02*
X120561000Y-109447000D01*
X118101000Y-107977000D02*
X118101000Y-109447000D01*
X120561000Y-107977000D02*
X118101000Y-107977000D01*
X116751000Y-107977000D02*
X114291000Y-107977000D01*
X114291000Y-107977000D02*
X114291000Y-109447000D01*
X114291000Y-109447000D02*
X116751000Y-109447000D01*
X135881000Y-109447000D02*
X138341000Y-109447000D01*
X135881000Y-107977000D02*
X135881000Y-109447000D01*
X138341000Y-107977000D02*
X135881000Y-107977000D01*
X134531000Y-107977000D02*
X132071000Y-107977000D01*
X132071000Y-107977000D02*
X132071000Y-109447000D01*
X132071000Y-109447000D02*
X134531000Y-109447000D01*
X162311000Y-109447000D02*
X164771000Y-109447000D01*
X162311000Y-107977000D02*
X162311000Y-109447000D01*
X164771000Y-107977000D02*
X162311000Y-107977000D01*
X160961000Y-107977000D02*
X158501000Y-107977000D01*
X158501000Y-107977000D02*
X158501000Y-109447000D01*
X158501000Y-109447000D02*
X160961000Y-109447000D01*
X187637267Y-90172000D02*
X187294733Y-90172000D01*
X187637267Y-89152000D02*
X187294733Y-89152000D01*
X187637267Y-101852000D02*
X187294733Y-101852000D01*
X187637267Y-102872000D02*
X187294733Y-102872000D01*
X187637267Y-115572000D02*
X187294733Y-115572000D01*
X187637267Y-114552000D02*
X187294733Y-114552000D01*
X119589733Y-110107000D02*
X119932267Y-110107000D01*
X119589733Y-111127000D02*
X119932267Y-111127000D01*
X115779733Y-110107000D02*
X116122267Y-110107000D01*
X115779733Y-111127000D02*
X116122267Y-111127000D01*
X137369733Y-111127000D02*
X137712267Y-111127000D01*
X137369733Y-110107000D02*
X137712267Y-110107000D01*
X133559733Y-111127000D02*
X133902267Y-111127000D01*
X133559733Y-110107000D02*
X133902267Y-110107000D01*
X163799733Y-110107000D02*
X164142267Y-110107000D01*
X163799733Y-111127000D02*
X164142267Y-111127000D01*
X159989733Y-111127000D02*
X160332267Y-111127000D01*
X159989733Y-110107000D02*
X160332267Y-110107000D01*
X188511000Y-82212000D02*
X193251000Y-82212000D01*
X188511000Y-82212000D02*
X188511000Y-82612000D01*
X193251000Y-82212000D02*
X193251000Y-82612000D01*
X188511000Y-86952000D02*
X188511000Y-86552000D01*
X188511000Y-86952000D02*
X193251000Y-86952000D01*
X193251000Y-86952000D02*
X193251000Y-86552000D01*
X193251000Y-85612000D02*
X193251000Y-83552000D01*
X188511000Y-85612000D02*
X188511000Y-83552000D01*
X188511000Y-98312000D02*
X188511000Y-96252000D01*
X193251000Y-98312000D02*
X193251000Y-96252000D01*
X193251000Y-99652000D02*
X193251000Y-99252000D01*
X188511000Y-99652000D02*
X193251000Y-99652000D01*
X188511000Y-99652000D02*
X188511000Y-99252000D01*
X193251000Y-94912000D02*
X193251000Y-95312000D01*
X188511000Y-94912000D02*
X188511000Y-95312000D01*
X188511000Y-94912000D02*
X193251000Y-94912000D01*
X188511000Y-106342000D02*
X193251000Y-106342000D01*
X188511000Y-106342000D02*
X188511000Y-106742000D01*
X193251000Y-106342000D02*
X193251000Y-106742000D01*
X188511000Y-111082000D02*
X188511000Y-110682000D01*
X188511000Y-111082000D02*
X193251000Y-111082000D01*
X193251000Y-111082000D02*
X193251000Y-110682000D01*
X193251000Y-109742000D02*
X193251000Y-107682000D01*
X188511000Y-109742000D02*
X188511000Y-107682000D01*
D15*
X217424000Y-199771000D02*
X217424000Y-213741000D01*
X211836000Y-204216000D02*
X211836000Y-209296000D01*
X211836000Y-208026000D02*
X209296000Y-208026000D01*
X209296000Y-208026000D02*
X209296000Y-205486000D01*
X217424000Y-209296000D02*
X211836000Y-209296000D01*
X205486000Y-213741000D02*
X217424000Y-213741000D01*
X202946000Y-211836000D02*
X202946000Y-201676000D01*
X217424000Y-204216000D02*
X216916000Y-204216000D01*
X205486000Y-199771000D02*
X217424000Y-199771000D01*
X205486000Y-201676000D02*
X205486000Y-199771000D01*
X213106000Y-204216000D02*
X211836000Y-204216000D01*
X213106000Y-204216000D02*
X216916000Y-204216000D01*
X211836000Y-205486000D02*
X209296000Y-205486000D01*
X205486000Y-201676000D02*
X205486000Y-213741000D01*
X205486000Y-211836000D02*
X202946000Y-211836000D01*
X202946000Y-201676000D02*
X205486000Y-201676000D01*
D11*
X199941000Y-82212000D02*
X204681000Y-82212000D01*
X199941000Y-82212000D02*
X199941000Y-82612000D01*
X204681000Y-82212000D02*
X204681000Y-82612000D01*
X199941000Y-86952000D02*
X199941000Y-86552000D01*
X199941000Y-86952000D02*
X204681000Y-86952000D01*
X204681000Y-86952000D02*
X204681000Y-86552000D01*
X204681000Y-85612000D02*
X204681000Y-83552000D01*
X199941000Y-85612000D02*
X199941000Y-83552000D01*
D15*
X111633000Y-140589000D02*
X112141000Y-140589000D01*
X112141000Y-132969000D02*
X111633000Y-132969000D01*
X111633000Y-145034000D02*
X111633000Y-128524000D01*
X123571000Y-145034000D02*
X111633000Y-145034000D01*
X123571000Y-128524000D02*
X111633000Y-128524000D01*
X123571000Y-130429000D02*
X123571000Y-128524000D01*
X123571000Y-143129000D02*
X123571000Y-145034000D01*
X115951000Y-140589000D02*
X117221000Y-140589000D01*
X117221000Y-140589000D02*
X117221000Y-132969000D01*
X117221000Y-132969000D02*
X115951000Y-132969000D01*
X115951000Y-132969000D02*
X112141000Y-132969000D01*
X115951000Y-140589000D02*
X112141000Y-140589000D01*
X117221000Y-138049000D02*
X119761000Y-138049000D01*
X119761000Y-138049000D02*
X119761000Y-135509000D01*
X119761000Y-135509000D02*
X117221000Y-135509000D01*
X123571000Y-143129000D02*
X123571000Y-130429000D01*
X123571000Y-130429000D02*
X126111000Y-130429000D01*
X126111000Y-130429000D02*
X126111000Y-143129000D01*
X126111000Y-143129000D02*
X123571000Y-143129000D01*
D11*
X158991000Y-89777000D02*
X158991000Y-88577000D01*
X157791000Y-89777000D02*
X158991000Y-89777000D01*
X149491000Y-85277000D02*
X150691000Y-85277000D01*
X149491000Y-89477000D02*
X149491000Y-85277000D01*
X150691000Y-89477000D02*
X149491000Y-89477000D01*
X158691000Y-85277000D02*
X157491000Y-85277000D01*
X158691000Y-89477000D02*
X158691000Y-85277000D01*
X157491000Y-89477000D02*
X158691000Y-89477000D01*
X121196000Y-92229000D02*
X118736000Y-92229000D01*
X118736000Y-92229000D02*
X118736000Y-93699000D01*
X118736000Y-93699000D02*
X121196000Y-93699000D01*
D15*
X136153142Y-190680666D02*
X136200761Y-190728285D01*
X136248380Y-190871142D01*
X136248380Y-190966380D01*
X136200761Y-191109238D01*
X136105523Y-191204476D01*
X136010285Y-191252095D01*
X135819809Y-191299714D01*
X135676952Y-191299714D01*
X135486476Y-191252095D01*
X135391238Y-191204476D01*
X135296000Y-191109238D01*
X135248380Y-190966380D01*
X135248380Y-190871142D01*
X135296000Y-190728285D01*
X135343619Y-190680666D01*
X136248380Y-189728285D02*
X136248380Y-190299714D01*
X136248380Y-190014000D02*
X135248380Y-190014000D01*
X135391238Y-190109238D01*
X135486476Y-190204476D01*
X135534095Y-190299714D01*
X163458142Y-192585666D02*
X163505761Y-192633285D01*
X163553380Y-192776142D01*
X163553380Y-192871380D01*
X163505761Y-193014238D01*
X163410523Y-193109476D01*
X163315285Y-193157095D01*
X163124809Y-193204714D01*
X162981952Y-193204714D01*
X162791476Y-193157095D01*
X162696238Y-193109476D01*
X162601000Y-193014238D01*
X162553380Y-192871380D01*
X162553380Y-192776142D01*
X162601000Y-192633285D01*
X162648619Y-192585666D01*
X162648619Y-192204714D02*
X162601000Y-192157095D01*
X162553380Y-192061857D01*
X162553380Y-191823761D01*
X162601000Y-191728523D01*
X162648619Y-191680904D01*
X162743857Y-191633285D01*
X162839095Y-191633285D01*
X162981952Y-191680904D01*
X163553380Y-192252333D01*
X163553380Y-191633285D01*
X127484333Y-106259380D02*
X128055761Y-106259380D01*
X127770047Y-107259380D02*
X127770047Y-106259380D01*
X128293857Y-107259380D02*
X128817666Y-106592714D01*
X128293857Y-106592714D02*
X128817666Y-107259380D01*
X129627190Y-106259380D02*
X129436714Y-106259380D01*
X129341476Y-106307000D01*
X129293857Y-106354619D01*
X129198619Y-106497476D01*
X129151000Y-106687952D01*
X129151000Y-107068904D01*
X129198619Y-107164142D01*
X129246238Y-107211761D01*
X129341476Y-107259380D01*
X129531952Y-107259380D01*
X129627190Y-107211761D01*
X129674809Y-107164142D01*
X129722428Y-107068904D01*
X129722428Y-106830809D01*
X129674809Y-106735571D01*
X129627190Y-106687952D01*
X129531952Y-106640333D01*
X129341476Y-106640333D01*
X129246238Y-106687952D01*
X129198619Y-106735571D01*
X129151000Y-106830809D01*
X124269571Y-107259380D02*
X123936238Y-106783190D01*
X123698142Y-107259380D02*
X123698142Y-106259380D01*
X124079095Y-106259380D01*
X124174333Y-106307000D01*
X124221952Y-106354619D01*
X124269571Y-106449857D01*
X124269571Y-106592714D01*
X124221952Y-106687952D01*
X124174333Y-106735571D01*
X124079095Y-106783190D01*
X123698142Y-106783190D01*
X124602904Y-107259380D02*
X125126714Y-106592714D01*
X124602904Y-106592714D02*
X125126714Y-107259380D01*
X125936238Y-106259380D02*
X125745761Y-106259380D01*
X125650523Y-106307000D01*
X125602904Y-106354619D01*
X125507666Y-106497476D01*
X125460047Y-106687952D01*
X125460047Y-107068904D01*
X125507666Y-107164142D01*
X125555285Y-107211761D01*
X125650523Y-107259380D01*
X125841000Y-107259380D01*
X125936238Y-107211761D01*
X125983857Y-107164142D01*
X126031476Y-107068904D01*
X126031476Y-106830809D01*
X125983857Y-106735571D01*
X125936238Y-106687952D01*
X125841000Y-106640333D01*
X125650523Y-106640333D01*
X125555285Y-106687952D01*
X125507666Y-106735571D01*
X125460047Y-106830809D01*
X144629333Y-106259380D02*
X145200761Y-106259380D01*
X144915047Y-107259380D02*
X144915047Y-106259380D01*
X145438857Y-107259380D02*
X145962666Y-106592714D01*
X145438857Y-106592714D02*
X145962666Y-107259380D01*
X146772190Y-106592714D02*
X146772190Y-107259380D01*
X146534095Y-106211761D02*
X146296000Y-106926047D01*
X146915047Y-106926047D01*
X141414571Y-107259380D02*
X141081238Y-106783190D01*
X140843142Y-107259380D02*
X140843142Y-106259380D01*
X141224095Y-106259380D01*
X141319333Y-106307000D01*
X141366952Y-106354619D01*
X141414571Y-106449857D01*
X141414571Y-106592714D01*
X141366952Y-106687952D01*
X141319333Y-106735571D01*
X141224095Y-106783190D01*
X140843142Y-106783190D01*
X141747904Y-107259380D02*
X142271714Y-106592714D01*
X141747904Y-106592714D02*
X142271714Y-107259380D01*
X143081238Y-106592714D02*
X143081238Y-107259380D01*
X142843142Y-106211761D02*
X142605047Y-106926047D01*
X143224095Y-106926047D01*
X153519333Y-106259380D02*
X154090761Y-106259380D01*
X153805047Y-107259380D02*
X153805047Y-106259380D01*
X154328857Y-107259380D02*
X154852666Y-106592714D01*
X154328857Y-106592714D02*
X154852666Y-107259380D01*
X155138380Y-106259380D02*
X155757428Y-106259380D01*
X155424095Y-106640333D01*
X155566952Y-106640333D01*
X155662190Y-106687952D01*
X155709809Y-106735571D01*
X155757428Y-106830809D01*
X155757428Y-107068904D01*
X155709809Y-107164142D01*
X155662190Y-107211761D01*
X155566952Y-107259380D01*
X155281238Y-107259380D01*
X155186000Y-107211761D01*
X155138380Y-107164142D01*
X150699571Y-107259380D02*
X150366238Y-106783190D01*
X150128142Y-107259380D02*
X150128142Y-106259380D01*
X150509095Y-106259380D01*
X150604333Y-106307000D01*
X150651952Y-106354619D01*
X150699571Y-106449857D01*
X150699571Y-106592714D01*
X150651952Y-106687952D01*
X150604333Y-106735571D01*
X150509095Y-106783190D01*
X150128142Y-106783190D01*
X151032904Y-107259380D02*
X151556714Y-106592714D01*
X151032904Y-106592714D02*
X151556714Y-107259380D01*
X151842428Y-106259380D02*
X152461476Y-106259380D01*
X152128142Y-106640333D01*
X152271000Y-106640333D01*
X152366238Y-106687952D01*
X152413857Y-106735571D01*
X152461476Y-106830809D01*
X152461476Y-107068904D01*
X152413857Y-107164142D01*
X152366238Y-107211761D01*
X152271000Y-107259380D01*
X151985285Y-107259380D01*
X151890047Y-107211761D01*
X151842428Y-107164142D01*
X124634809Y-90859380D02*
X125253857Y-90859380D01*
X124920523Y-91240333D01*
X125063380Y-91240333D01*
X125158619Y-91287952D01*
X125206238Y-91335571D01*
X125253857Y-91430809D01*
X125253857Y-91668904D01*
X125206238Y-91764142D01*
X125158619Y-91811761D01*
X125063380Y-91859380D01*
X124777666Y-91859380D01*
X124682428Y-91811761D01*
X124634809Y-91764142D01*
X125682428Y-91764142D02*
X125730047Y-91811761D01*
X125682428Y-91859380D01*
X125634809Y-91811761D01*
X125682428Y-91764142D01*
X125682428Y-91859380D01*
X126063380Y-90859380D02*
X126682428Y-90859380D01*
X126349095Y-91240333D01*
X126491952Y-91240333D01*
X126587190Y-91287952D01*
X126634809Y-91335571D01*
X126682428Y-91430809D01*
X126682428Y-91668904D01*
X126634809Y-91764142D01*
X126587190Y-91811761D01*
X126491952Y-91859380D01*
X126206238Y-91859380D01*
X126111000Y-91811761D01*
X126063380Y-91764142D01*
X126968142Y-90859380D02*
X127301476Y-91859380D01*
X127634809Y-90859380D01*
X158473380Y-94845095D02*
X157473380Y-94845095D01*
X157473380Y-94607000D01*
X157521000Y-94464142D01*
X157616238Y-94368904D01*
X157711476Y-94321285D01*
X157901952Y-94273666D01*
X158044809Y-94273666D01*
X158235285Y-94321285D01*
X158330523Y-94368904D01*
X158425761Y-94464142D01*
X158473380Y-94607000D01*
X158473380Y-94845095D01*
X157901952Y-93702238D02*
X157854333Y-93797476D01*
X157806714Y-93845095D01*
X157711476Y-93892714D01*
X157663857Y-93892714D01*
X157568619Y-93845095D01*
X157521000Y-93797476D01*
X157473380Y-93702238D01*
X157473380Y-93511761D01*
X157521000Y-93416523D01*
X157568619Y-93368904D01*
X157663857Y-93321285D01*
X157711476Y-93321285D01*
X157806714Y-93368904D01*
X157854333Y-93416523D01*
X157901952Y-93511761D01*
X157901952Y-93702238D01*
X157949571Y-93797476D01*
X157997190Y-93845095D01*
X158092428Y-93892714D01*
X158282904Y-93892714D01*
X158378142Y-93845095D01*
X158425761Y-93797476D01*
X158473380Y-93702238D01*
X158473380Y-93511761D01*
X158425761Y-93416523D01*
X158378142Y-93368904D01*
X158282904Y-93321285D01*
X158092428Y-93321285D01*
X157997190Y-93368904D01*
X157949571Y-93416523D01*
X157901952Y-93511761D01*
X204507904Y-91544380D02*
X204507904Y-90544380D01*
X204746000Y-90544380D01*
X204888857Y-90592000D01*
X204984095Y-90687238D01*
X205031714Y-90782476D01*
X205079333Y-90972952D01*
X205079333Y-91115809D01*
X205031714Y-91306285D01*
X204984095Y-91401523D01*
X204888857Y-91496761D01*
X204746000Y-91544380D01*
X204507904Y-91544380D01*
X205555523Y-91544380D02*
X205746000Y-91544380D01*
X205841238Y-91496761D01*
X205888857Y-91449142D01*
X205984095Y-91306285D01*
X206031714Y-91115809D01*
X206031714Y-90734857D01*
X205984095Y-90639619D01*
X205936476Y-90592000D01*
X205841238Y-90544380D01*
X205650761Y-90544380D01*
X205555523Y-90592000D01*
X205507904Y-90639619D01*
X205460285Y-90734857D01*
X205460285Y-90972952D01*
X205507904Y-91068190D01*
X205555523Y-91115809D01*
X205650761Y-91163428D01*
X205841238Y-91163428D01*
X205936476Y-91115809D01*
X205984095Y-91068190D01*
X206031714Y-90972952D01*
X204031714Y-101544380D02*
X204031714Y-100544380D01*
X204269809Y-100544380D01*
X204412666Y-100592000D01*
X204507904Y-100687238D01*
X204555523Y-100782476D01*
X204603142Y-100972952D01*
X204603142Y-101115809D01*
X204555523Y-101306285D01*
X204507904Y-101401523D01*
X204412666Y-101496761D01*
X204269809Y-101544380D01*
X204031714Y-101544380D01*
X205555523Y-101544380D02*
X204984095Y-101544380D01*
X205269809Y-101544380D02*
X205269809Y-100544380D01*
X205174571Y-100687238D01*
X205079333Y-100782476D01*
X204984095Y-100830095D01*
X206507904Y-101544380D02*
X205936476Y-101544380D01*
X206222190Y-101544380D02*
X206222190Y-100544380D01*
X206126952Y-100687238D01*
X206031714Y-100782476D01*
X205936476Y-100830095D01*
X204031714Y-116944380D02*
X204031714Y-115944380D01*
X204269809Y-115944380D01*
X204412666Y-115992000D01*
X204507904Y-116087238D01*
X204555523Y-116182476D01*
X204603142Y-116372952D01*
X204603142Y-116515809D01*
X204555523Y-116706285D01*
X204507904Y-116801523D01*
X204412666Y-116896761D01*
X204269809Y-116944380D01*
X204031714Y-116944380D01*
X205555523Y-116944380D02*
X204984095Y-116944380D01*
X205269809Y-116944380D02*
X205269809Y-115944380D01*
X205174571Y-116087238D01*
X205079333Y-116182476D01*
X204984095Y-116230095D01*
X205888857Y-115944380D02*
X206507904Y-115944380D01*
X206174571Y-116325333D01*
X206317428Y-116325333D01*
X206412666Y-116372952D01*
X206460285Y-116420571D01*
X206507904Y-116515809D01*
X206507904Y-116753904D01*
X206460285Y-116849142D01*
X206412666Y-116896761D01*
X206317428Y-116944380D01*
X206031714Y-116944380D01*
X205936476Y-116896761D01*
X205888857Y-116849142D01*
X128089333Y-112974380D02*
X127756000Y-112498190D01*
X127517904Y-112974380D02*
X127517904Y-111974380D01*
X127898857Y-111974380D01*
X127994095Y-112022000D01*
X128041714Y-112069619D01*
X128089333Y-112164857D01*
X128089333Y-112307714D01*
X128041714Y-112402952D01*
X127994095Y-112450571D01*
X127898857Y-112498190D01*
X127517904Y-112498190D01*
X129041714Y-112974380D02*
X128470285Y-112974380D01*
X128756000Y-112974380D02*
X128756000Y-111974380D01*
X128660761Y-112117238D01*
X128565523Y-112212476D01*
X128470285Y-112260095D01*
X125069333Y-112974380D02*
X124736000Y-112498190D01*
X124497904Y-112974380D02*
X124497904Y-111974380D01*
X124878857Y-111974380D01*
X124974095Y-112022000D01*
X125021714Y-112069619D01*
X125069333Y-112164857D01*
X125069333Y-112307714D01*
X125021714Y-112402952D01*
X124974095Y-112450571D01*
X124878857Y-112498190D01*
X124497904Y-112498190D01*
X125450285Y-112069619D02*
X125497904Y-112022000D01*
X125593142Y-111974380D01*
X125831238Y-111974380D01*
X125926476Y-112022000D01*
X125974095Y-112069619D01*
X126021714Y-112164857D01*
X126021714Y-112260095D01*
X125974095Y-112402952D01*
X125402666Y-112974380D01*
X126021714Y-112974380D01*
X145629333Y-112974380D02*
X145296000Y-112498190D01*
X145057904Y-112974380D02*
X145057904Y-111974380D01*
X145438857Y-111974380D01*
X145534095Y-112022000D01*
X145581714Y-112069619D01*
X145629333Y-112164857D01*
X145629333Y-112307714D01*
X145581714Y-112402952D01*
X145534095Y-112450571D01*
X145438857Y-112498190D01*
X145057904Y-112498190D01*
X145962666Y-111974380D02*
X146581714Y-111974380D01*
X146248380Y-112355333D01*
X146391238Y-112355333D01*
X146486476Y-112402952D01*
X146534095Y-112450571D01*
X146581714Y-112545809D01*
X146581714Y-112783904D01*
X146534095Y-112879142D01*
X146486476Y-112926761D01*
X146391238Y-112974380D01*
X146105523Y-112974380D01*
X146010285Y-112926761D01*
X145962666Y-112879142D01*
X141819333Y-112974380D02*
X141486000Y-112498190D01*
X141247904Y-112974380D02*
X141247904Y-111974380D01*
X141628857Y-111974380D01*
X141724095Y-112022000D01*
X141771714Y-112069619D01*
X141819333Y-112164857D01*
X141819333Y-112307714D01*
X141771714Y-112402952D01*
X141724095Y-112450571D01*
X141628857Y-112498190D01*
X141247904Y-112498190D01*
X142676476Y-112307714D02*
X142676476Y-112974380D01*
X142438380Y-111926761D02*
X142200285Y-112641047D01*
X142819333Y-112641047D01*
X154914333Y-112974380D02*
X154581000Y-112498190D01*
X154342904Y-112974380D02*
X154342904Y-111974380D01*
X154723857Y-111974380D01*
X154819095Y-112022000D01*
X154866714Y-112069619D01*
X154914333Y-112164857D01*
X154914333Y-112307714D01*
X154866714Y-112402952D01*
X154819095Y-112450571D01*
X154723857Y-112498190D01*
X154342904Y-112498190D01*
X155819095Y-111974380D02*
X155342904Y-111974380D01*
X155295285Y-112450571D01*
X155342904Y-112402952D01*
X155438142Y-112355333D01*
X155676238Y-112355333D01*
X155771476Y-112402952D01*
X155819095Y-112450571D01*
X155866714Y-112545809D01*
X155866714Y-112783904D01*
X155819095Y-112879142D01*
X155771476Y-112926761D01*
X155676238Y-112974380D01*
X155438142Y-112974380D01*
X155342904Y-112926761D01*
X155295285Y-112879142D01*
X151104333Y-112974380D02*
X150771000Y-112498190D01*
X150532904Y-112974380D02*
X150532904Y-111974380D01*
X150913857Y-111974380D01*
X151009095Y-112022000D01*
X151056714Y-112069619D01*
X151104333Y-112164857D01*
X151104333Y-112307714D01*
X151056714Y-112402952D01*
X151009095Y-112450571D01*
X150913857Y-112498190D01*
X150532904Y-112498190D01*
X151961476Y-111974380D02*
X151771000Y-111974380D01*
X151675761Y-112022000D01*
X151628142Y-112069619D01*
X151532904Y-112212476D01*
X151485285Y-112402952D01*
X151485285Y-112783904D01*
X151532904Y-112879142D01*
X151580523Y-112926761D01*
X151675761Y-112974380D01*
X151866238Y-112974380D01*
X151961476Y-112926761D01*
X152009095Y-112879142D01*
X152056714Y-112783904D01*
X152056714Y-112545809D01*
X152009095Y-112450571D01*
X151961476Y-112402952D01*
X151866238Y-112355333D01*
X151675761Y-112355333D01*
X151580523Y-112402952D01*
X151532904Y-112450571D01*
X151485285Y-112545809D01*
X125549333Y-97099380D02*
X125216000Y-96623190D01*
X124977904Y-97099380D02*
X124977904Y-96099380D01*
X125358857Y-96099380D01*
X125454095Y-96147000D01*
X125501714Y-96194619D01*
X125549333Y-96289857D01*
X125549333Y-96432714D01*
X125501714Y-96527952D01*
X125454095Y-96575571D01*
X125358857Y-96623190D01*
X124977904Y-96623190D01*
X125882666Y-96099380D02*
X126549333Y-96099380D01*
X126120761Y-97099380D01*
X151168380Y-94273666D02*
X150692190Y-94607000D01*
X151168380Y-94845095D02*
X150168380Y-94845095D01*
X150168380Y-94464142D01*
X150216000Y-94368904D01*
X150263619Y-94321285D01*
X150358857Y-94273666D01*
X150501714Y-94273666D01*
X150596952Y-94321285D01*
X150644571Y-94368904D01*
X150692190Y-94464142D01*
X150692190Y-94845095D01*
X150596952Y-93702238D02*
X150549333Y-93797476D01*
X150501714Y-93845095D01*
X150406476Y-93892714D01*
X150358857Y-93892714D01*
X150263619Y-93845095D01*
X150216000Y-93797476D01*
X150168380Y-93702238D01*
X150168380Y-93511761D01*
X150216000Y-93416523D01*
X150263619Y-93368904D01*
X150358857Y-93321285D01*
X150406476Y-93321285D01*
X150501714Y-93368904D01*
X150549333Y-93416523D01*
X150596952Y-93511761D01*
X150596952Y-93702238D01*
X150644571Y-93797476D01*
X150692190Y-93845095D01*
X150787428Y-93892714D01*
X150977904Y-93892714D01*
X151073142Y-93845095D01*
X151120761Y-93797476D01*
X151168380Y-93702238D01*
X151168380Y-93511761D01*
X151120761Y-93416523D01*
X151073142Y-93368904D01*
X150977904Y-93321285D01*
X150787428Y-93321285D01*
X150692190Y-93368904D01*
X150644571Y-93416523D01*
X150596952Y-93511761D01*
X198729333Y-91544380D02*
X198396000Y-91068190D01*
X198157904Y-91544380D02*
X198157904Y-90544380D01*
X198538857Y-90544380D01*
X198634095Y-90592000D01*
X198681714Y-90639619D01*
X198729333Y-90734857D01*
X198729333Y-90877714D01*
X198681714Y-90972952D01*
X198634095Y-91020571D01*
X198538857Y-91068190D01*
X198157904Y-91068190D01*
X199205523Y-91544380D02*
X199396000Y-91544380D01*
X199491238Y-91496761D01*
X199538857Y-91449142D01*
X199634095Y-91306285D01*
X199681714Y-91115809D01*
X199681714Y-90734857D01*
X199634095Y-90639619D01*
X199586476Y-90592000D01*
X199491238Y-90544380D01*
X199300761Y-90544380D01*
X199205523Y-90592000D01*
X199157904Y-90639619D01*
X199110285Y-90734857D01*
X199110285Y-90972952D01*
X199157904Y-91068190D01*
X199205523Y-91115809D01*
X199300761Y-91163428D01*
X199491238Y-91163428D01*
X199586476Y-91115809D01*
X199634095Y-91068190D01*
X199681714Y-90972952D01*
X198253142Y-104244380D02*
X197919809Y-103768190D01*
X197681714Y-104244380D02*
X197681714Y-103244380D01*
X198062666Y-103244380D01*
X198157904Y-103292000D01*
X198205523Y-103339619D01*
X198253142Y-103434857D01*
X198253142Y-103577714D01*
X198205523Y-103672952D01*
X198157904Y-103720571D01*
X198062666Y-103768190D01*
X197681714Y-103768190D01*
X199205523Y-104244380D02*
X198634095Y-104244380D01*
X198919809Y-104244380D02*
X198919809Y-103244380D01*
X198824571Y-103387238D01*
X198729333Y-103482476D01*
X198634095Y-103530095D01*
X200157904Y-104244380D02*
X199586476Y-104244380D01*
X199872190Y-104244380D02*
X199872190Y-103244380D01*
X199776952Y-103387238D01*
X199681714Y-103482476D01*
X199586476Y-103530095D01*
X198253142Y-116944380D02*
X197919809Y-116468190D01*
X197681714Y-116944380D02*
X197681714Y-115944380D01*
X198062666Y-115944380D01*
X198157904Y-115992000D01*
X198205523Y-116039619D01*
X198253142Y-116134857D01*
X198253142Y-116277714D01*
X198205523Y-116372952D01*
X198157904Y-116420571D01*
X198062666Y-116468190D01*
X197681714Y-116468190D01*
X199205523Y-116944380D02*
X198634095Y-116944380D01*
X198919809Y-116944380D02*
X198919809Y-115944380D01*
X198824571Y-116087238D01*
X198729333Y-116182476D01*
X198634095Y-116230095D01*
X199538857Y-115944380D02*
X200157904Y-115944380D01*
X199824571Y-116325333D01*
X199967428Y-116325333D01*
X200062666Y-116372952D01*
X200110285Y-116420571D01*
X200157904Y-116515809D01*
X200157904Y-116753904D01*
X200110285Y-116849142D01*
X200062666Y-116896761D01*
X199967428Y-116944380D01*
X199681714Y-116944380D01*
X199586476Y-116896761D01*
X199538857Y-116849142D01*
X141438380Y-195397333D02*
X141438380Y-195206857D01*
X141486000Y-195111619D01*
X141581238Y-195016380D01*
X141771714Y-194968761D01*
X142105047Y-194968761D01*
X142295523Y-195016380D01*
X142390761Y-195111619D01*
X142438380Y-195206857D01*
X142438380Y-195397333D01*
X142390761Y-195492571D01*
X142295523Y-195587809D01*
X142105047Y-195635428D01*
X141771714Y-195635428D01*
X141581238Y-195587809D01*
X141486000Y-195492571D01*
X141438380Y-195397333D01*
X142438380Y-194540190D02*
X141438380Y-194540190D01*
X142438380Y-193968761D02*
X141866952Y-194397333D01*
X141438380Y-193968761D02*
X142009809Y-194540190D01*
X142438380Y-193540190D02*
X141438380Y-193540190D01*
X141438380Y-182697333D02*
X141438380Y-182506857D01*
X141486000Y-182411619D01*
X141581238Y-182316380D01*
X141771714Y-182268761D01*
X142105047Y-182268761D01*
X142295523Y-182316380D01*
X142390761Y-182411619D01*
X142438380Y-182506857D01*
X142438380Y-182697333D01*
X142390761Y-182792571D01*
X142295523Y-182887809D01*
X142105047Y-182935428D01*
X141771714Y-182935428D01*
X141581238Y-182887809D01*
X141486000Y-182792571D01*
X141438380Y-182697333D01*
X142438380Y-181840190D02*
X141438380Y-181840190D01*
X142438380Y-181268761D02*
X141866952Y-181697333D01*
X141438380Y-181268761D02*
X142009809Y-181840190D01*
X142438380Y-180840190D02*
X141438380Y-180840190D01*
X197707809Y-93924380D02*
X197707809Y-92924380D01*
X198041142Y-93638666D01*
X198374476Y-92924380D01*
X198374476Y-93924380D01*
X198850666Y-93924380D02*
X198850666Y-93257714D01*
X198850666Y-92924380D02*
X198803047Y-92972000D01*
X198850666Y-93019619D01*
X198898285Y-92972000D01*
X198850666Y-92924380D01*
X198850666Y-93019619D01*
X199755428Y-93924380D02*
X199755428Y-92924380D01*
X199755428Y-93876761D02*
X199660190Y-93924380D01*
X199469714Y-93924380D01*
X199374476Y-93876761D01*
X199326857Y-93829142D01*
X199279238Y-93733904D01*
X199279238Y-93448190D01*
X199326857Y-93352952D01*
X199374476Y-93305333D01*
X199469714Y-93257714D01*
X199660190Y-93257714D01*
X199755428Y-93305333D01*
X200660190Y-93924380D02*
X200660190Y-92924380D01*
X200660190Y-93876761D02*
X200564952Y-93924380D01*
X200374476Y-93924380D01*
X200279238Y-93876761D01*
X200231619Y-93829142D01*
X200184000Y-93733904D01*
X200184000Y-93448190D01*
X200231619Y-93352952D01*
X200279238Y-93305333D01*
X200374476Y-93257714D01*
X200564952Y-93257714D01*
X200660190Y-93305333D01*
X201279238Y-93924380D02*
X201184000Y-93876761D01*
X201136380Y-93781523D01*
X201136380Y-92924380D01*
X202041142Y-93876761D02*
X201945904Y-93924380D01*
X201755428Y-93924380D01*
X201660190Y-93876761D01*
X201612571Y-93781523D01*
X201612571Y-93400571D01*
X201660190Y-93305333D01*
X201755428Y-93257714D01*
X201945904Y-93257714D01*
X202041142Y-93305333D01*
X202088761Y-93400571D01*
X202088761Y-93495809D01*
X201612571Y-93591047D01*
X203850666Y-93924380D02*
X203517333Y-93448190D01*
X203279238Y-93924380D02*
X203279238Y-92924380D01*
X203660190Y-92924380D01*
X203755428Y-92972000D01*
X203803047Y-93019619D01*
X203850666Y-93114857D01*
X203850666Y-93257714D01*
X203803047Y-93352952D01*
X203755428Y-93400571D01*
X203660190Y-93448190D01*
X203279238Y-93448190D01*
X204279238Y-93924380D02*
X204279238Y-93257714D01*
X204279238Y-92924380D02*
X204231619Y-92972000D01*
X204279238Y-93019619D01*
X204326857Y-92972000D01*
X204279238Y-92924380D01*
X204279238Y-93019619D01*
X205184000Y-93257714D02*
X205184000Y-94067238D01*
X205136380Y-94162476D01*
X205088761Y-94210095D01*
X204993523Y-94257714D01*
X204850666Y-94257714D01*
X204755428Y-94210095D01*
X205184000Y-93876761D02*
X205088761Y-93924380D01*
X204898285Y-93924380D01*
X204803047Y-93876761D01*
X204755428Y-93829142D01*
X204707809Y-93733904D01*
X204707809Y-93448190D01*
X204755428Y-93352952D01*
X204803047Y-93305333D01*
X204898285Y-93257714D01*
X205088761Y-93257714D01*
X205184000Y-93305333D01*
X205660190Y-93924380D02*
X205660190Y-92924380D01*
X206088761Y-93924380D02*
X206088761Y-93400571D01*
X206041142Y-93305333D01*
X205945904Y-93257714D01*
X205803047Y-93257714D01*
X205707809Y-93305333D01*
X205660190Y-93352952D01*
X206422095Y-93257714D02*
X206803047Y-93257714D01*
X206564952Y-92924380D02*
X206564952Y-93781523D01*
X206612571Y-93876761D01*
X206707809Y-93924380D01*
X206803047Y-93924380D01*
X197469523Y-105608380D02*
X197136190Y-105132190D01*
X196898095Y-105608380D02*
X196898095Y-104608380D01*
X197279047Y-104608380D01*
X197374285Y-104656000D01*
X197421904Y-104703619D01*
X197469523Y-104798857D01*
X197469523Y-104941714D01*
X197421904Y-105036952D01*
X197374285Y-105084571D01*
X197279047Y-105132190D01*
X196898095Y-105132190D01*
X198279047Y-105560761D02*
X198183809Y-105608380D01*
X197993333Y-105608380D01*
X197898095Y-105560761D01*
X197850476Y-105465523D01*
X197850476Y-105084571D01*
X197898095Y-104989333D01*
X197993333Y-104941714D01*
X198183809Y-104941714D01*
X198279047Y-104989333D01*
X198326666Y-105084571D01*
X198326666Y-105179809D01*
X197850476Y-105275047D01*
X199183809Y-105608380D02*
X199183809Y-105084571D01*
X199136190Y-104989333D01*
X199040952Y-104941714D01*
X198850476Y-104941714D01*
X198755238Y-104989333D01*
X199183809Y-105560761D02*
X199088571Y-105608380D01*
X198850476Y-105608380D01*
X198755238Y-105560761D01*
X198707619Y-105465523D01*
X198707619Y-105370285D01*
X198755238Y-105275047D01*
X198850476Y-105227428D01*
X199088571Y-105227428D01*
X199183809Y-105179809D01*
X199660000Y-105608380D02*
X199660000Y-104941714D01*
X199660000Y-105132190D02*
X199707619Y-105036952D01*
X199755238Y-104989333D01*
X199850476Y-104941714D01*
X199945714Y-104941714D01*
X201612380Y-105608380D02*
X201279047Y-105132190D01*
X201040952Y-105608380D02*
X201040952Y-104608380D01*
X201421904Y-104608380D01*
X201517142Y-104656000D01*
X201564761Y-104703619D01*
X201612380Y-104798857D01*
X201612380Y-104941714D01*
X201564761Y-105036952D01*
X201517142Y-105084571D01*
X201421904Y-105132190D01*
X201040952Y-105132190D01*
X202040952Y-105608380D02*
X202040952Y-104941714D01*
X202040952Y-104608380D02*
X201993333Y-104656000D01*
X202040952Y-104703619D01*
X202088571Y-104656000D01*
X202040952Y-104608380D01*
X202040952Y-104703619D01*
X202945714Y-104941714D02*
X202945714Y-105751238D01*
X202898095Y-105846476D01*
X202850476Y-105894095D01*
X202755238Y-105941714D01*
X202612380Y-105941714D01*
X202517142Y-105894095D01*
X202945714Y-105560761D02*
X202850476Y-105608380D01*
X202660000Y-105608380D01*
X202564761Y-105560761D01*
X202517142Y-105513142D01*
X202469523Y-105417904D01*
X202469523Y-105132190D01*
X202517142Y-105036952D01*
X202564761Y-104989333D01*
X202660000Y-104941714D01*
X202850476Y-104941714D01*
X202945714Y-104989333D01*
X203421904Y-105608380D02*
X203421904Y-104608380D01*
X203850476Y-105608380D02*
X203850476Y-105084571D01*
X203802857Y-104989333D01*
X203707619Y-104941714D01*
X203564761Y-104941714D01*
X203469523Y-104989333D01*
X203421904Y-105036952D01*
X204183809Y-104941714D02*
X204564761Y-104941714D01*
X204326666Y-104608380D02*
X204326666Y-105465523D01*
X204374285Y-105560761D01*
X204469523Y-105608380D01*
X204564761Y-105608380D01*
X168558380Y-145795904D02*
X169367904Y-145795904D01*
X169463142Y-145748285D01*
X169510761Y-145700666D01*
X169558380Y-145605428D01*
X169558380Y-145414952D01*
X169510761Y-145319714D01*
X169463142Y-145272095D01*
X169367904Y-145224476D01*
X168558380Y-145224476D01*
X169558380Y-144224476D02*
X169558380Y-144795904D01*
X169558380Y-144510190D02*
X168558380Y-144510190D01*
X168701238Y-144605428D01*
X168796476Y-144700666D01*
X168844095Y-144795904D01*
X154588380Y-145795904D02*
X155397904Y-145795904D01*
X155493142Y-145748285D01*
X155540761Y-145700666D01*
X155588380Y-145605428D01*
X155588380Y-145414952D01*
X155540761Y-145319714D01*
X155493142Y-145272095D01*
X155397904Y-145224476D01*
X154588380Y-145224476D01*
X154683619Y-144795904D02*
X154636000Y-144748285D01*
X154588380Y-144653047D01*
X154588380Y-144414952D01*
X154636000Y-144319714D01*
X154683619Y-144272095D01*
X154778857Y-144224476D01*
X154874095Y-144224476D01*
X155016952Y-144272095D01*
X155588380Y-144843523D01*
X155588380Y-144224476D01*
X182528380Y-145795904D02*
X183337904Y-145795904D01*
X183433142Y-145748285D01*
X183480761Y-145700666D01*
X183528380Y-145605428D01*
X183528380Y-145414952D01*
X183480761Y-145319714D01*
X183433142Y-145272095D01*
X183337904Y-145224476D01*
X182528380Y-145224476D01*
X182528380Y-144272095D02*
X182528380Y-144748285D01*
X183004571Y-144795904D01*
X182956952Y-144748285D01*
X182909333Y-144653047D01*
X182909333Y-144414952D01*
X182956952Y-144319714D01*
X183004571Y-144272095D01*
X183099809Y-144224476D01*
X183337904Y-144224476D01*
X183433142Y-144272095D01*
X183480761Y-144319714D01*
X183528380Y-144414952D01*
X183528380Y-144653047D01*
X183480761Y-144748285D01*
X183433142Y-144795904D01*
X134199333Y-194761142D02*
X134151714Y-194808761D01*
X134008857Y-194856380D01*
X133913619Y-194856380D01*
X133770761Y-194808761D01*
X133675523Y-194713523D01*
X133627904Y-194618285D01*
X133580285Y-194427809D01*
X133580285Y-194284952D01*
X133627904Y-194094476D01*
X133675523Y-193999238D01*
X133770761Y-193904000D01*
X133913619Y-193856380D01*
X134008857Y-193856380D01*
X134151714Y-193904000D01*
X134199333Y-193951619D01*
X134675523Y-194856380D02*
X134866000Y-194856380D01*
X134961238Y-194808761D01*
X135008857Y-194761142D01*
X135104095Y-194618285D01*
X135151714Y-194427809D01*
X135151714Y-194046857D01*
X135104095Y-193951619D01*
X135056476Y-193904000D01*
X134961238Y-193856380D01*
X134770761Y-193856380D01*
X134675523Y-193904000D01*
X134627904Y-193951619D01*
X134580285Y-194046857D01*
X134580285Y-194284952D01*
X134627904Y-194380190D01*
X134675523Y-194427809D01*
X134770761Y-194475428D01*
X134961238Y-194475428D01*
X135056476Y-194427809D01*
X135104095Y-194380190D01*
X135151714Y-194284952D01*
X133546642Y-198888642D02*
X133499023Y-198936261D01*
X133356166Y-198983880D01*
X133260928Y-198983880D01*
X133118071Y-198936261D01*
X133022833Y-198841023D01*
X132975214Y-198745785D01*
X132927595Y-198555309D01*
X132927595Y-198412452D01*
X132975214Y-198221976D01*
X133022833Y-198126738D01*
X133118071Y-198031500D01*
X133260928Y-197983880D01*
X133356166Y-197983880D01*
X133499023Y-198031500D01*
X133546642Y-198079119D01*
X134499023Y-198983880D02*
X133927595Y-198983880D01*
X134213309Y-198983880D02*
X134213309Y-197983880D01*
X134118071Y-198126738D01*
X134022833Y-198221976D01*
X133927595Y-198269595D01*
X135118071Y-197983880D02*
X135213309Y-197983880D01*
X135308547Y-198031500D01*
X135356166Y-198079119D01*
X135403785Y-198174357D01*
X135451404Y-198364833D01*
X135451404Y-198602928D01*
X135403785Y-198793404D01*
X135356166Y-198888642D01*
X135308547Y-198936261D01*
X135213309Y-198983880D01*
X135118071Y-198983880D01*
X135022833Y-198936261D01*
X134975214Y-198888642D01*
X134927595Y-198793404D01*
X134879976Y-198602928D01*
X134879976Y-198364833D01*
X134927595Y-198174357D01*
X134975214Y-198079119D01*
X135022833Y-198031500D01*
X135118071Y-197983880D01*
X170553142Y-114244380D02*
X170219809Y-113768190D01*
X169981714Y-114244380D02*
X169981714Y-113244380D01*
X170362666Y-113244380D01*
X170457904Y-113292000D01*
X170505523Y-113339619D01*
X170553142Y-113434857D01*
X170553142Y-113577714D01*
X170505523Y-113672952D01*
X170457904Y-113720571D01*
X170362666Y-113768190D01*
X169981714Y-113768190D01*
X171505523Y-114244380D02*
X170934095Y-114244380D01*
X171219809Y-114244380D02*
X171219809Y-113244380D01*
X171124571Y-113387238D01*
X171029333Y-113482476D01*
X170934095Y-113530095D01*
X172410285Y-113244380D02*
X171934095Y-113244380D01*
X171886476Y-113720571D01*
X171934095Y-113672952D01*
X172029333Y-113625333D01*
X172267428Y-113625333D01*
X172362666Y-113672952D01*
X172410285Y-113720571D01*
X172457904Y-113815809D01*
X172457904Y-114053904D01*
X172410285Y-114149142D01*
X172362666Y-114196761D01*
X172267428Y-114244380D01*
X172029333Y-114244380D01*
X171934095Y-114196761D01*
X171886476Y-114149142D01*
X171188142Y-88844380D02*
X170854809Y-88368190D01*
X170616714Y-88844380D02*
X170616714Y-87844380D01*
X170997666Y-87844380D01*
X171092904Y-87892000D01*
X171140523Y-87939619D01*
X171188142Y-88034857D01*
X171188142Y-88177714D01*
X171140523Y-88272952D01*
X171092904Y-88320571D01*
X170997666Y-88368190D01*
X170616714Y-88368190D01*
X172140523Y-88844380D02*
X171569095Y-88844380D01*
X171854809Y-88844380D02*
X171854809Y-87844380D01*
X171759571Y-87987238D01*
X171664333Y-88082476D01*
X171569095Y-88130095D01*
X172997666Y-87844380D02*
X172807190Y-87844380D01*
X172711952Y-87892000D01*
X172664333Y-87939619D01*
X172569095Y-88082476D01*
X172521476Y-88272952D01*
X172521476Y-88653904D01*
X172569095Y-88749142D01*
X172616714Y-88796761D01*
X172711952Y-88844380D01*
X172902428Y-88844380D01*
X172997666Y-88796761D01*
X173045285Y-88749142D01*
X173092904Y-88653904D01*
X173092904Y-88415809D01*
X173045285Y-88320571D01*
X172997666Y-88272952D01*
X172902428Y-88225333D01*
X172711952Y-88225333D01*
X172616714Y-88272952D01*
X172569095Y-88320571D01*
X172521476Y-88415809D01*
X166898142Y-98242380D02*
X166564809Y-97766190D01*
X166326714Y-98242380D02*
X166326714Y-97242380D01*
X166707666Y-97242380D01*
X166802904Y-97290000D01*
X166850523Y-97337619D01*
X166898142Y-97432857D01*
X166898142Y-97575714D01*
X166850523Y-97670952D01*
X166802904Y-97718571D01*
X166707666Y-97766190D01*
X166326714Y-97766190D01*
X167850523Y-98242380D02*
X167279095Y-98242380D01*
X167564809Y-98242380D02*
X167564809Y-97242380D01*
X167469571Y-97385238D01*
X167374333Y-97480476D01*
X167279095Y-97528095D01*
X168183857Y-97242380D02*
X168850523Y-97242380D01*
X168421952Y-98242380D01*
X119753142Y-97099380D02*
X119419809Y-96623190D01*
X119181714Y-97099380D02*
X119181714Y-96099380D01*
X119562666Y-96099380D01*
X119657904Y-96147000D01*
X119705523Y-96194619D01*
X119753142Y-96289857D01*
X119753142Y-96432714D01*
X119705523Y-96527952D01*
X119657904Y-96575571D01*
X119562666Y-96623190D01*
X119181714Y-96623190D01*
X120705523Y-97099380D02*
X120134095Y-97099380D01*
X120419809Y-97099380D02*
X120419809Y-96099380D01*
X120324571Y-96242238D01*
X120229333Y-96337476D01*
X120134095Y-96385095D01*
X121181714Y-97099380D02*
X121372190Y-97099380D01*
X121467428Y-97051761D01*
X121515047Y-97004142D01*
X121610285Y-96861285D01*
X121657904Y-96670809D01*
X121657904Y-96289857D01*
X121610285Y-96194619D01*
X121562666Y-96147000D01*
X121467428Y-96099380D01*
X121276952Y-96099380D01*
X121181714Y-96147000D01*
X121134095Y-96194619D01*
X121086476Y-96289857D01*
X121086476Y-96527952D01*
X121134095Y-96623190D01*
X121181714Y-96670809D01*
X121276952Y-96718428D01*
X121467428Y-96718428D01*
X121562666Y-96670809D01*
X121610285Y-96623190D01*
X121657904Y-96527952D01*
X172053714Y-112720380D02*
X172053714Y-111720380D01*
X172053714Y-112196571D02*
X172625142Y-112196571D01*
X172625142Y-112720380D02*
X172625142Y-111720380D01*
X173482285Y-112672761D02*
X173387047Y-112720380D01*
X173196571Y-112720380D01*
X173101333Y-112672761D01*
X173053714Y-112577523D01*
X173053714Y-112196571D01*
X173101333Y-112101333D01*
X173196571Y-112053714D01*
X173387047Y-112053714D01*
X173482285Y-112101333D01*
X173529904Y-112196571D01*
X173529904Y-112291809D01*
X173053714Y-112387047D01*
X174387047Y-112720380D02*
X174387047Y-112196571D01*
X174339428Y-112101333D01*
X174244190Y-112053714D01*
X174053714Y-112053714D01*
X173958476Y-112101333D01*
X174387047Y-112672761D02*
X174291809Y-112720380D01*
X174053714Y-112720380D01*
X173958476Y-112672761D01*
X173910857Y-112577523D01*
X173910857Y-112482285D01*
X173958476Y-112387047D01*
X174053714Y-112339428D01*
X174291809Y-112339428D01*
X174387047Y-112291809D01*
X175291809Y-112720380D02*
X175291809Y-111720380D01*
X175291809Y-112672761D02*
X175196571Y-112720380D01*
X175006095Y-112720380D01*
X174910857Y-112672761D01*
X174863238Y-112625142D01*
X174815619Y-112529904D01*
X174815619Y-112244190D01*
X174863238Y-112148952D01*
X174910857Y-112101333D01*
X175006095Y-112053714D01*
X175196571Y-112053714D01*
X175291809Y-112101333D01*
X175910857Y-112720380D02*
X175815619Y-112672761D01*
X175768000Y-112577523D01*
X175768000Y-111720380D01*
X176291809Y-112720380D02*
X176291809Y-112053714D01*
X176291809Y-111720380D02*
X176244190Y-111768000D01*
X176291809Y-111815619D01*
X176339428Y-111768000D01*
X176291809Y-111720380D01*
X176291809Y-111815619D01*
X177196571Y-112053714D02*
X177196571Y-112863238D01*
X177148952Y-112958476D01*
X177101333Y-113006095D01*
X177006095Y-113053714D01*
X176863238Y-113053714D01*
X176768000Y-113006095D01*
X177196571Y-112672761D02*
X177101333Y-112720380D01*
X176910857Y-112720380D01*
X176815619Y-112672761D01*
X176768000Y-112625142D01*
X176720380Y-112529904D01*
X176720380Y-112244190D01*
X176768000Y-112148952D01*
X176815619Y-112101333D01*
X176910857Y-112053714D01*
X177101333Y-112053714D01*
X177196571Y-112101333D01*
X177672761Y-112720380D02*
X177672761Y-111720380D01*
X178101333Y-112720380D02*
X178101333Y-112196571D01*
X178053714Y-112101333D01*
X177958476Y-112053714D01*
X177815619Y-112053714D01*
X177720380Y-112101333D01*
X177672761Y-112148952D01*
X178434666Y-112053714D02*
X178815619Y-112053714D01*
X178577523Y-111720380D02*
X178577523Y-112577523D01*
X178625142Y-112672761D01*
X178720380Y-112720380D01*
X178815619Y-112720380D01*
X179101333Y-112672761D02*
X179196571Y-112720380D01*
X179387047Y-112720380D01*
X179482285Y-112672761D01*
X179529904Y-112577523D01*
X179529904Y-112529904D01*
X179482285Y-112434666D01*
X179387047Y-112387047D01*
X179244190Y-112387047D01*
X179148952Y-112339428D01*
X179101333Y-112244190D01*
X179101333Y-112196571D01*
X179148952Y-112101333D01*
X179244190Y-112053714D01*
X179387047Y-112053714D01*
X179482285Y-112101333D01*
X169696476Y-81644880D02*
X169696476Y-80644880D01*
X170267904Y-81644880D01*
X170267904Y-80644880D01*
X171125047Y-81597261D02*
X171029809Y-81644880D01*
X170839333Y-81644880D01*
X170744095Y-81597261D01*
X170696476Y-81502023D01*
X170696476Y-81121071D01*
X170744095Y-81025833D01*
X170839333Y-80978214D01*
X171029809Y-80978214D01*
X171125047Y-81025833D01*
X171172666Y-81121071D01*
X171172666Y-81216309D01*
X170696476Y-81311547D01*
X171744095Y-81644880D02*
X171648857Y-81597261D01*
X171601238Y-81549642D01*
X171553619Y-81454404D01*
X171553619Y-81168690D01*
X171601238Y-81073452D01*
X171648857Y-81025833D01*
X171744095Y-80978214D01*
X171886952Y-80978214D01*
X171982190Y-81025833D01*
X172029809Y-81073452D01*
X172077428Y-81168690D01*
X172077428Y-81454404D01*
X172029809Y-81549642D01*
X171982190Y-81597261D01*
X171886952Y-81644880D01*
X171744095Y-81644880D01*
X172506000Y-80978214D02*
X172506000Y-81978214D01*
X172506000Y-81025833D02*
X172601238Y-80978214D01*
X172791714Y-80978214D01*
X172886952Y-81025833D01*
X172934571Y-81073452D01*
X172982190Y-81168690D01*
X172982190Y-81454404D01*
X172934571Y-81549642D01*
X172886952Y-81597261D01*
X172791714Y-81644880D01*
X172601238Y-81644880D01*
X172506000Y-81597261D01*
X173410761Y-81644880D02*
X173410761Y-80978214D01*
X173410761Y-80644880D02*
X173363142Y-80692500D01*
X173410761Y-80740119D01*
X173458380Y-80692500D01*
X173410761Y-80644880D01*
X173410761Y-80740119D01*
X173791714Y-81644880D02*
X174315523Y-80978214D01*
X173791714Y-80978214D02*
X174315523Y-81644880D01*
X175077428Y-81597261D02*
X174982190Y-81644880D01*
X174791714Y-81644880D01*
X174696476Y-81597261D01*
X174648857Y-81502023D01*
X174648857Y-81121071D01*
X174696476Y-81025833D01*
X174791714Y-80978214D01*
X174982190Y-80978214D01*
X175077428Y-81025833D01*
X175125047Y-81121071D01*
X175125047Y-81216309D01*
X174648857Y-81311547D01*
X175696476Y-81644880D02*
X175601238Y-81597261D01*
X175553619Y-81502023D01*
X175553619Y-80644880D01*
X176744095Y-80644880D02*
X176982190Y-81644880D01*
X177172666Y-80930595D01*
X177363142Y-81644880D01*
X177601238Y-80644880D01*
X177982190Y-81644880D02*
X177982190Y-80644880D01*
X178410761Y-81644880D02*
X178410761Y-81121071D01*
X178363142Y-81025833D01*
X178267904Y-80978214D01*
X178125047Y-80978214D01*
X178029809Y-81025833D01*
X177982190Y-81073452D01*
X178886952Y-81644880D02*
X178886952Y-80978214D01*
X178886952Y-80644880D02*
X178839333Y-80692500D01*
X178886952Y-80740119D01*
X178934571Y-80692500D01*
X178886952Y-80644880D01*
X178886952Y-80740119D01*
X179220285Y-80978214D02*
X179601238Y-80978214D01*
X179363142Y-80644880D02*
X179363142Y-81502023D01*
X179410761Y-81597261D01*
X179506000Y-81644880D01*
X179601238Y-81644880D01*
X180315523Y-81597261D02*
X180220285Y-81644880D01*
X180029809Y-81644880D01*
X179934571Y-81597261D01*
X179886952Y-81502023D01*
X179886952Y-81121071D01*
X179934571Y-81025833D01*
X180029809Y-80978214D01*
X180220285Y-80978214D01*
X180315523Y-81025833D01*
X180363142Y-81121071D01*
X180363142Y-81216309D01*
X179886952Y-81311547D01*
X172053619Y-93924380D02*
X172053619Y-92924380D01*
X172625047Y-93924380D01*
X172625047Y-92924380D01*
X173482190Y-93876761D02*
X173386952Y-93924380D01*
X173196476Y-93924380D01*
X173101238Y-93876761D01*
X173053619Y-93781523D01*
X173053619Y-93400571D01*
X173101238Y-93305333D01*
X173196476Y-93257714D01*
X173386952Y-93257714D01*
X173482190Y-93305333D01*
X173529809Y-93400571D01*
X173529809Y-93495809D01*
X173053619Y-93591047D01*
X174101238Y-93924380D02*
X174006000Y-93876761D01*
X173958380Y-93829142D01*
X173910761Y-93733904D01*
X173910761Y-93448190D01*
X173958380Y-93352952D01*
X174006000Y-93305333D01*
X174101238Y-93257714D01*
X174244095Y-93257714D01*
X174339333Y-93305333D01*
X174386952Y-93352952D01*
X174434571Y-93448190D01*
X174434571Y-93733904D01*
X174386952Y-93829142D01*
X174339333Y-93876761D01*
X174244095Y-93924380D01*
X174101238Y-93924380D01*
X174863142Y-93257714D02*
X174863142Y-94257714D01*
X174863142Y-93305333D02*
X174958380Y-93257714D01*
X175148857Y-93257714D01*
X175244095Y-93305333D01*
X175291714Y-93352952D01*
X175339333Y-93448190D01*
X175339333Y-93733904D01*
X175291714Y-93829142D01*
X175244095Y-93876761D01*
X175148857Y-93924380D01*
X174958380Y-93924380D01*
X174863142Y-93876761D01*
X175767904Y-93924380D02*
X175767904Y-93257714D01*
X175767904Y-92924380D02*
X175720285Y-92972000D01*
X175767904Y-93019619D01*
X175815523Y-92972000D01*
X175767904Y-92924380D01*
X175767904Y-93019619D01*
X176148857Y-93924380D02*
X176672666Y-93257714D01*
X176148857Y-93257714D02*
X176672666Y-93924380D01*
X177434571Y-93876761D02*
X177339333Y-93924380D01*
X177148857Y-93924380D01*
X177053619Y-93876761D01*
X177006000Y-93781523D01*
X177006000Y-93400571D01*
X177053619Y-93305333D01*
X177148857Y-93257714D01*
X177339333Y-93257714D01*
X177434571Y-93305333D01*
X177482190Y-93400571D01*
X177482190Y-93495809D01*
X177006000Y-93591047D01*
X178053619Y-93924380D02*
X177958380Y-93876761D01*
X177910761Y-93781523D01*
X177910761Y-92924380D01*
X175839380Y-197795163D02*
X175839380Y-198271354D01*
X174839380Y-198271354D01*
X175839380Y-197461830D02*
X174839380Y-197461830D01*
X174839380Y-197223735D01*
X174887000Y-197080877D01*
X174982238Y-196985639D01*
X175077476Y-196938020D01*
X175267952Y-196890401D01*
X175410809Y-196890401D01*
X175601285Y-196938020D01*
X175696523Y-196985639D01*
X175791761Y-197080877D01*
X175839380Y-197223735D01*
X175839380Y-197461830D01*
X175839380Y-196461830D02*
X174839380Y-196461830D01*
X174839380Y-196223735D01*
X174887000Y-196080877D01*
X174982238Y-195985639D01*
X175077476Y-195938020D01*
X175267952Y-195890401D01*
X175410809Y-195890401D01*
X175601285Y-195938020D01*
X175696523Y-195985639D01*
X175791761Y-196080877D01*
X175839380Y-196223735D01*
X175839380Y-196461830D01*
X175458428Y-195461830D02*
X175458428Y-194699925D01*
X175839380Y-193699925D02*
X175839380Y-194271354D01*
X175839380Y-193985639D02*
X174839380Y-193985639D01*
X174982238Y-194080877D01*
X175077476Y-194176116D01*
X175125095Y-194271354D01*
X174839380Y-192795163D02*
X174839380Y-193271354D01*
X175315571Y-193318973D01*
X175267952Y-193271354D01*
X175220333Y-193176116D01*
X175220333Y-192938020D01*
X175267952Y-192842782D01*
X175315571Y-192795163D01*
X175410809Y-192747544D01*
X175648904Y-192747544D01*
X175744142Y-192795163D01*
X175791761Y-192842782D01*
X175839380Y-192938020D01*
X175839380Y-193176116D01*
X175791761Y-193271354D01*
X175744142Y-193318973D01*
X174839380Y-192128496D02*
X174839380Y-192033258D01*
X174887000Y-191938020D01*
X174934619Y-191890401D01*
X175029857Y-191842782D01*
X175220333Y-191795163D01*
X175458428Y-191795163D01*
X175648904Y-191842782D01*
X175744142Y-191890401D01*
X175791761Y-191938020D01*
X175839380Y-192033258D01*
X175839380Y-192128496D01*
X175791761Y-192223735D01*
X175744142Y-192271354D01*
X175648904Y-192318973D01*
X175458428Y-192366592D01*
X175220333Y-192366592D01*
X175029857Y-192318973D01*
X174934619Y-192271354D01*
X174887000Y-192223735D01*
X174839380Y-192128496D01*
X174839380Y-191176116D02*
X174839380Y-191080877D01*
X174887000Y-190985639D01*
X174934619Y-190938020D01*
X175029857Y-190890401D01*
X175220333Y-190842782D01*
X175458428Y-190842782D01*
X175648904Y-190890401D01*
X175744142Y-190938020D01*
X175791761Y-190985639D01*
X175839380Y-191080877D01*
X175839380Y-191176116D01*
X175791761Y-191271354D01*
X175744142Y-191318973D01*
X175648904Y-191366592D01*
X175458428Y-191414211D01*
X175220333Y-191414211D01*
X175029857Y-191366592D01*
X174934619Y-191318973D01*
X174887000Y-191271354D01*
X174839380Y-191176116D01*
X175839380Y-189938020D02*
X175839380Y-190414211D01*
X174839380Y-190414211D01*
X164044333Y-153646142D02*
X163996714Y-153693761D01*
X163853857Y-153741380D01*
X163758619Y-153741380D01*
X163615761Y-153693761D01*
X163520523Y-153598523D01*
X163472904Y-153503285D01*
X163425285Y-153312809D01*
X163425285Y-153169952D01*
X163472904Y-152979476D01*
X163520523Y-152884238D01*
X163615761Y-152789000D01*
X163758619Y-152741380D01*
X163853857Y-152741380D01*
X163996714Y-152789000D01*
X164044333Y-152836619D01*
X164377666Y-152741380D02*
X164996714Y-152741380D01*
X164663380Y-153122333D01*
X164806238Y-153122333D01*
X164901476Y-153169952D01*
X164949095Y-153217571D01*
X164996714Y-153312809D01*
X164996714Y-153550904D01*
X164949095Y-153646142D01*
X164901476Y-153693761D01*
X164806238Y-153741380D01*
X164520523Y-153741380D01*
X164425285Y-153693761D01*
X164377666Y-153646142D01*
X179284333Y-150471142D02*
X179236714Y-150518761D01*
X179093857Y-150566380D01*
X178998619Y-150566380D01*
X178855761Y-150518761D01*
X178760523Y-150423523D01*
X178712904Y-150328285D01*
X178665285Y-150137809D01*
X178665285Y-149994952D01*
X178712904Y-149804476D01*
X178760523Y-149709238D01*
X178855761Y-149614000D01*
X178998619Y-149566380D01*
X179093857Y-149566380D01*
X179236714Y-149614000D01*
X179284333Y-149661619D01*
X180141476Y-149899714D02*
X180141476Y-150566380D01*
X179903380Y-149518761D02*
X179665285Y-150233047D01*
X180284333Y-150233047D01*
X194524333Y-153011142D02*
X194476714Y-153058761D01*
X194333857Y-153106380D01*
X194238619Y-153106380D01*
X194095761Y-153058761D01*
X194000523Y-152963523D01*
X193952904Y-152868285D01*
X193905285Y-152677809D01*
X193905285Y-152534952D01*
X193952904Y-152344476D01*
X194000523Y-152249238D01*
X194095761Y-152154000D01*
X194238619Y-152106380D01*
X194333857Y-152106380D01*
X194476714Y-152154000D01*
X194524333Y-152201619D01*
X195429095Y-152106380D02*
X194952904Y-152106380D01*
X194905285Y-152582571D01*
X194952904Y-152534952D01*
X195048142Y-152487333D01*
X195286238Y-152487333D01*
X195381476Y-152534952D01*
X195429095Y-152582571D01*
X195476714Y-152677809D01*
X195476714Y-152915904D01*
X195429095Y-153011142D01*
X195381476Y-153058761D01*
X195286238Y-153106380D01*
X195048142Y-153106380D01*
X194952904Y-153058761D01*
X194905285Y-153011142D01*
X154914333Y-153646142D02*
X154866714Y-153693761D01*
X154723857Y-153741380D01*
X154628619Y-153741380D01*
X154485761Y-153693761D01*
X154390523Y-153598523D01*
X154342904Y-153503285D01*
X154295285Y-153312809D01*
X154295285Y-153169952D01*
X154342904Y-152979476D01*
X154390523Y-152884238D01*
X154485761Y-152789000D01*
X154628619Y-152741380D01*
X154723857Y-152741380D01*
X154866714Y-152789000D01*
X154914333Y-152836619D01*
X155771476Y-152741380D02*
X155581000Y-152741380D01*
X155485761Y-152789000D01*
X155438142Y-152836619D01*
X155342904Y-152979476D01*
X155295285Y-153169952D01*
X155295285Y-153550904D01*
X155342904Y-153646142D01*
X155390523Y-153693761D01*
X155485761Y-153741380D01*
X155676238Y-153741380D01*
X155771476Y-153693761D01*
X155819095Y-153646142D01*
X155866714Y-153550904D01*
X155866714Y-153312809D01*
X155819095Y-153217571D01*
X155771476Y-153169952D01*
X155676238Y-153122333D01*
X155485761Y-153122333D01*
X155390523Y-153169952D01*
X155342904Y-153217571D01*
X155295285Y-153312809D01*
X159599333Y-153646142D02*
X159551714Y-153693761D01*
X159408857Y-153741380D01*
X159313619Y-153741380D01*
X159170761Y-153693761D01*
X159075523Y-153598523D01*
X159027904Y-153503285D01*
X158980285Y-153312809D01*
X158980285Y-153169952D01*
X159027904Y-152979476D01*
X159075523Y-152884238D01*
X159170761Y-152789000D01*
X159313619Y-152741380D01*
X159408857Y-152741380D01*
X159551714Y-152789000D01*
X159599333Y-152836619D01*
X159932666Y-152741380D02*
X160599333Y-152741380D01*
X160170761Y-153741380D01*
X170394333Y-153465143D02*
X170346714Y-153512762D01*
X170203857Y-153560381D01*
X170108619Y-153560381D01*
X169965761Y-153512762D01*
X169870523Y-153417524D01*
X169822904Y-153322286D01*
X169775285Y-153131810D01*
X169775285Y-152988953D01*
X169822904Y-152798477D01*
X169870523Y-152703239D01*
X169965761Y-152608001D01*
X170108619Y-152560381D01*
X170203857Y-152560381D01*
X170346714Y-152608001D01*
X170394333Y-152655620D01*
X170965761Y-152988953D02*
X170870523Y-152941334D01*
X170822904Y-152893715D01*
X170775285Y-152798477D01*
X170775285Y-152750858D01*
X170822904Y-152655620D01*
X170870523Y-152608001D01*
X170965761Y-152560381D01*
X171156238Y-152560381D01*
X171251476Y-152608001D01*
X171299095Y-152655620D01*
X171346714Y-152750858D01*
X171346714Y-152798477D01*
X171299095Y-152893715D01*
X171251476Y-152941334D01*
X171156238Y-152988953D01*
X170965761Y-152988953D01*
X170870523Y-153036572D01*
X170822904Y-153084191D01*
X170775285Y-153179429D01*
X170775285Y-153369905D01*
X170822904Y-153465143D01*
X170870523Y-153512762D01*
X170965761Y-153560381D01*
X171156238Y-153560381D01*
X171251476Y-153512762D01*
X171299095Y-153465143D01*
X171346714Y-153369905D01*
X171346714Y-153179429D01*
X171299095Y-153084191D01*
X171251476Y-153036572D01*
X171156238Y-152988953D01*
X174363142Y-153646142D02*
X174315523Y-153693761D01*
X174172666Y-153741380D01*
X174077428Y-153741380D01*
X173934571Y-153693761D01*
X173839333Y-153598523D01*
X173791714Y-153503285D01*
X173744095Y-153312809D01*
X173744095Y-153169952D01*
X173791714Y-152979476D01*
X173839333Y-152884238D01*
X173934571Y-152789000D01*
X174077428Y-152741380D01*
X174172666Y-152741380D01*
X174315523Y-152789000D01*
X174363142Y-152836619D01*
X175315523Y-153741380D02*
X174744095Y-153741380D01*
X175029809Y-153741380D02*
X175029809Y-152741380D01*
X174934571Y-152884238D01*
X174839333Y-152979476D01*
X174744095Y-153027095D01*
X176267904Y-153741380D02*
X175696476Y-153741380D01*
X175982190Y-153741380D02*
X175982190Y-152741380D01*
X175886952Y-152884238D01*
X175791714Y-152979476D01*
X175696476Y-153027095D01*
X184918142Y-153646142D02*
X184870523Y-153693761D01*
X184727666Y-153741380D01*
X184632428Y-153741380D01*
X184489571Y-153693761D01*
X184394333Y-153598523D01*
X184346714Y-153503285D01*
X184299095Y-153312809D01*
X184299095Y-153169952D01*
X184346714Y-152979476D01*
X184394333Y-152884238D01*
X184489571Y-152789000D01*
X184632428Y-152741380D01*
X184727666Y-152741380D01*
X184870523Y-152789000D01*
X184918142Y-152836619D01*
X185870523Y-153741380D02*
X185299095Y-153741380D01*
X185584809Y-153741380D02*
X185584809Y-152741380D01*
X185489571Y-152884238D01*
X185394333Y-152979476D01*
X185299095Y-153027095D01*
X186251476Y-152836619D02*
X186299095Y-152789000D01*
X186394333Y-152741380D01*
X186632428Y-152741380D01*
X186727666Y-152789000D01*
X186775285Y-152836619D01*
X186822904Y-152931857D01*
X186822904Y-153027095D01*
X186775285Y-153169952D01*
X186203857Y-153741380D01*
X186822904Y-153741380D01*
X189363142Y-153646142D02*
X189315523Y-153693761D01*
X189172666Y-153741380D01*
X189077428Y-153741380D01*
X188934571Y-153693761D01*
X188839333Y-153598523D01*
X188791714Y-153503285D01*
X188744095Y-153312809D01*
X188744095Y-153169952D01*
X188791714Y-152979476D01*
X188839333Y-152884238D01*
X188934571Y-152789000D01*
X189077428Y-152741380D01*
X189172666Y-152741380D01*
X189315523Y-152789000D01*
X189363142Y-152836619D01*
X190315523Y-153741380D02*
X189744095Y-153741380D01*
X190029809Y-153741380D02*
X190029809Y-152741380D01*
X189934571Y-152884238D01*
X189839333Y-152979476D01*
X189744095Y-153027095D01*
X190648857Y-152741380D02*
X191267904Y-152741380D01*
X190934571Y-153122333D01*
X191077428Y-153122333D01*
X191172666Y-153169952D01*
X191220285Y-153217571D01*
X191267904Y-153312809D01*
X191267904Y-153550904D01*
X191220285Y-153646142D01*
X191172666Y-153693761D01*
X191077428Y-153741380D01*
X190791714Y-153741380D01*
X190696476Y-153693761D01*
X190648857Y-153646142D01*
X139328142Y-191156857D02*
X139375761Y-191204476D01*
X139423380Y-191347333D01*
X139423380Y-191442571D01*
X139375761Y-191585428D01*
X139280523Y-191680666D01*
X139185285Y-191728285D01*
X138994809Y-191775904D01*
X138851952Y-191775904D01*
X138661476Y-191728285D01*
X138566238Y-191680666D01*
X138471000Y-191585428D01*
X138423380Y-191442571D01*
X138423380Y-191347333D01*
X138471000Y-191204476D01*
X138518619Y-191156857D01*
X139423380Y-190204476D02*
X139423380Y-190775904D01*
X139423380Y-190490190D02*
X138423380Y-190490190D01*
X138566238Y-190585428D01*
X138661476Y-190680666D01*
X138709095Y-190775904D01*
X138756714Y-189347333D02*
X139423380Y-189347333D01*
X138375761Y-189585428D02*
X139090047Y-189823523D01*
X139090047Y-189204476D01*
X144758142Y-175711142D02*
X144710523Y-175758761D01*
X144567666Y-175806380D01*
X144472428Y-175806380D01*
X144329571Y-175758761D01*
X144234333Y-175663523D01*
X144186714Y-175568285D01*
X144139095Y-175377809D01*
X144139095Y-175234952D01*
X144186714Y-175044476D01*
X144234333Y-174949238D01*
X144329571Y-174854000D01*
X144472428Y-174806380D01*
X144567666Y-174806380D01*
X144710523Y-174854000D01*
X144758142Y-174901619D01*
X145710523Y-175806380D02*
X145139095Y-175806380D01*
X145424809Y-175806380D02*
X145424809Y-174806380D01*
X145329571Y-174949238D01*
X145234333Y-175044476D01*
X145139095Y-175092095D01*
X146615285Y-174806380D02*
X146139095Y-174806380D01*
X146091476Y-175282571D01*
X146139095Y-175234952D01*
X146234333Y-175187333D01*
X146472428Y-175187333D01*
X146567666Y-175234952D01*
X146615285Y-175282571D01*
X146662904Y-175377809D01*
X146662904Y-175615904D01*
X146615285Y-175711142D01*
X146567666Y-175758761D01*
X146472428Y-175806380D01*
X146234333Y-175806380D01*
X146139095Y-175758761D01*
X146091476Y-175711142D01*
X191331714Y-91544380D02*
X191331714Y-90544380D01*
X191569809Y-90544380D01*
X191712666Y-90592000D01*
X191807904Y-90687238D01*
X191855523Y-90782476D01*
X191903142Y-90972952D01*
X191903142Y-91115809D01*
X191855523Y-91306285D01*
X191807904Y-91401523D01*
X191712666Y-91496761D01*
X191569809Y-91544380D01*
X191331714Y-91544380D01*
X192855523Y-91544380D02*
X192284095Y-91544380D01*
X192569809Y-91544380D02*
X192569809Y-90544380D01*
X192474571Y-90687238D01*
X192379333Y-90782476D01*
X192284095Y-90830095D01*
X193474571Y-90544380D02*
X193569809Y-90544380D01*
X193665047Y-90592000D01*
X193712666Y-90639619D01*
X193760285Y-90734857D01*
X193807904Y-90925333D01*
X193807904Y-91163428D01*
X193760285Y-91353904D01*
X193712666Y-91449142D01*
X193665047Y-91496761D01*
X193569809Y-91544380D01*
X193474571Y-91544380D01*
X193379333Y-91496761D01*
X193331714Y-91449142D01*
X193284095Y-91353904D01*
X193236476Y-91163428D01*
X193236476Y-90925333D01*
X193284095Y-90734857D01*
X193331714Y-90639619D01*
X193379333Y-90592000D01*
X193474571Y-90544380D01*
X191331714Y-104244380D02*
X191331714Y-103244380D01*
X191569809Y-103244380D01*
X191712666Y-103292000D01*
X191807904Y-103387238D01*
X191855523Y-103482476D01*
X191903142Y-103672952D01*
X191903142Y-103815809D01*
X191855523Y-104006285D01*
X191807904Y-104101523D01*
X191712666Y-104196761D01*
X191569809Y-104244380D01*
X191331714Y-104244380D01*
X192855523Y-104244380D02*
X192284095Y-104244380D01*
X192569809Y-104244380D02*
X192569809Y-103244380D01*
X192474571Y-103387238D01*
X192379333Y-103482476D01*
X192284095Y-103530095D01*
X193236476Y-103339619D02*
X193284095Y-103292000D01*
X193379333Y-103244380D01*
X193617428Y-103244380D01*
X193712666Y-103292000D01*
X193760285Y-103339619D01*
X193807904Y-103434857D01*
X193807904Y-103530095D01*
X193760285Y-103672952D01*
X193188857Y-104244380D01*
X193807904Y-104244380D01*
X191331714Y-116944380D02*
X191331714Y-115944380D01*
X191569809Y-115944380D01*
X191712666Y-115992000D01*
X191807904Y-116087238D01*
X191855523Y-116182476D01*
X191903142Y-116372952D01*
X191903142Y-116515809D01*
X191855523Y-116706285D01*
X191807904Y-116801523D01*
X191712666Y-116896761D01*
X191569809Y-116944380D01*
X191331714Y-116944380D01*
X192855523Y-116944380D02*
X192284095Y-116944380D01*
X192569809Y-116944380D02*
X192569809Y-115944380D01*
X192474571Y-116087238D01*
X192379333Y-116182476D01*
X192284095Y-116230095D01*
X193712666Y-116277714D02*
X193712666Y-116944380D01*
X193474571Y-115896761D02*
X193236476Y-116611047D01*
X193855523Y-116611047D01*
X118594333Y-106259380D02*
X119165761Y-106259380D01*
X118880047Y-107259380D02*
X118880047Y-106259380D01*
X119403857Y-107259380D02*
X119927666Y-106592714D01*
X119403857Y-106592714D02*
X119927666Y-107259380D01*
X120213380Y-106259380D02*
X120880047Y-106259380D01*
X120451476Y-107259380D01*
X115379571Y-107259380D02*
X115046238Y-106783190D01*
X114808142Y-107259380D02*
X114808142Y-106259380D01*
X115189095Y-106259380D01*
X115284333Y-106307000D01*
X115331952Y-106354619D01*
X115379571Y-106449857D01*
X115379571Y-106592714D01*
X115331952Y-106687952D01*
X115284333Y-106735571D01*
X115189095Y-106783190D01*
X114808142Y-106783190D01*
X115712904Y-107259380D02*
X116236714Y-106592714D01*
X115712904Y-106592714D02*
X116236714Y-107259380D01*
X116522428Y-106259380D02*
X117189095Y-106259380D01*
X116760523Y-107259380D01*
X136134333Y-106259380D02*
X136705761Y-106259380D01*
X136420047Y-107259380D02*
X136420047Y-106259380D01*
X136943857Y-107259380D02*
X137467666Y-106592714D01*
X136943857Y-106592714D02*
X137467666Y-107259380D01*
X138324809Y-106259380D02*
X137848619Y-106259380D01*
X137801000Y-106735571D01*
X137848619Y-106687952D01*
X137943857Y-106640333D01*
X138181952Y-106640333D01*
X138277190Y-106687952D01*
X138324809Y-106735571D01*
X138372428Y-106830809D01*
X138372428Y-107068904D01*
X138324809Y-107164142D01*
X138277190Y-107211761D01*
X138181952Y-107259380D01*
X137943857Y-107259380D01*
X137848619Y-107211761D01*
X137801000Y-107164142D01*
X133159571Y-107259380D02*
X132826238Y-106783190D01*
X132588142Y-107259380D02*
X132588142Y-106259380D01*
X132969095Y-106259380D01*
X133064333Y-106307000D01*
X133111952Y-106354619D01*
X133159571Y-106449857D01*
X133159571Y-106592714D01*
X133111952Y-106687952D01*
X133064333Y-106735571D01*
X132969095Y-106783190D01*
X132588142Y-106783190D01*
X133492904Y-107259380D02*
X134016714Y-106592714D01*
X133492904Y-106592714D02*
X134016714Y-107259380D01*
X134873857Y-106259380D02*
X134397666Y-106259380D01*
X134350047Y-106735571D01*
X134397666Y-106687952D01*
X134492904Y-106640333D01*
X134731000Y-106640333D01*
X134826238Y-106687952D01*
X134873857Y-106735571D01*
X134921476Y-106830809D01*
X134921476Y-107068904D01*
X134873857Y-107164142D01*
X134826238Y-107211761D01*
X134731000Y-107259380D01*
X134492904Y-107259380D01*
X134397666Y-107211761D01*
X134350047Y-107164142D01*
X162409333Y-106259380D02*
X162980761Y-106259380D01*
X162695047Y-107259380D02*
X162695047Y-106259380D01*
X163218857Y-107259380D02*
X163742666Y-106592714D01*
X163218857Y-106592714D02*
X163742666Y-107259380D01*
X164076000Y-106354619D02*
X164123619Y-106307000D01*
X164218857Y-106259380D01*
X164456952Y-106259380D01*
X164552190Y-106307000D01*
X164599809Y-106354619D01*
X164647428Y-106449857D01*
X164647428Y-106545095D01*
X164599809Y-106687952D01*
X164028380Y-107259380D01*
X164647428Y-107259380D01*
X159589571Y-107259380D02*
X159256238Y-106783190D01*
X159018142Y-107259380D02*
X159018142Y-106259380D01*
X159399095Y-106259380D01*
X159494333Y-106307000D01*
X159541952Y-106354619D01*
X159589571Y-106449857D01*
X159589571Y-106592714D01*
X159541952Y-106687952D01*
X159494333Y-106735571D01*
X159399095Y-106783190D01*
X159018142Y-106783190D01*
X159922904Y-107259380D02*
X160446714Y-106592714D01*
X159922904Y-106592714D02*
X160446714Y-107259380D01*
X160780047Y-106354619D02*
X160827666Y-106307000D01*
X160922904Y-106259380D01*
X161161000Y-106259380D01*
X161256238Y-106307000D01*
X161303857Y-106354619D01*
X161351476Y-106449857D01*
X161351476Y-106545095D01*
X161303857Y-106687952D01*
X160732428Y-107259380D01*
X161351476Y-107259380D01*
X186823142Y-91544380D02*
X186489809Y-91068190D01*
X186251714Y-91544380D02*
X186251714Y-90544380D01*
X186632666Y-90544380D01*
X186727904Y-90592000D01*
X186775523Y-90639619D01*
X186823142Y-90734857D01*
X186823142Y-90877714D01*
X186775523Y-90972952D01*
X186727904Y-91020571D01*
X186632666Y-91068190D01*
X186251714Y-91068190D01*
X187775523Y-91544380D02*
X187204095Y-91544380D01*
X187489809Y-91544380D02*
X187489809Y-90544380D01*
X187394571Y-90687238D01*
X187299333Y-90782476D01*
X187204095Y-90830095D01*
X188394571Y-90544380D02*
X188489809Y-90544380D01*
X188585047Y-90592000D01*
X188632666Y-90639619D01*
X188680285Y-90734857D01*
X188727904Y-90925333D01*
X188727904Y-91163428D01*
X188680285Y-91353904D01*
X188632666Y-91449142D01*
X188585047Y-91496761D01*
X188489809Y-91544380D01*
X188394571Y-91544380D01*
X188299333Y-91496761D01*
X188251714Y-91449142D01*
X188204095Y-91353904D01*
X188156476Y-91163428D01*
X188156476Y-90925333D01*
X188204095Y-90734857D01*
X188251714Y-90639619D01*
X188299333Y-90592000D01*
X188394571Y-90544380D01*
X186823142Y-104244380D02*
X186489809Y-103768190D01*
X186251714Y-104244380D02*
X186251714Y-103244380D01*
X186632666Y-103244380D01*
X186727904Y-103292000D01*
X186775523Y-103339619D01*
X186823142Y-103434857D01*
X186823142Y-103577714D01*
X186775523Y-103672952D01*
X186727904Y-103720571D01*
X186632666Y-103768190D01*
X186251714Y-103768190D01*
X187775523Y-104244380D02*
X187204095Y-104244380D01*
X187489809Y-104244380D02*
X187489809Y-103244380D01*
X187394571Y-103387238D01*
X187299333Y-103482476D01*
X187204095Y-103530095D01*
X188156476Y-103339619D02*
X188204095Y-103292000D01*
X188299333Y-103244380D01*
X188537428Y-103244380D01*
X188632666Y-103292000D01*
X188680285Y-103339619D01*
X188727904Y-103434857D01*
X188727904Y-103530095D01*
X188680285Y-103672952D01*
X188108857Y-104244380D01*
X188727904Y-104244380D01*
X186823142Y-116944380D02*
X186489809Y-116468190D01*
X186251714Y-116944380D02*
X186251714Y-115944380D01*
X186632666Y-115944380D01*
X186727904Y-115992000D01*
X186775523Y-116039619D01*
X186823142Y-116134857D01*
X186823142Y-116277714D01*
X186775523Y-116372952D01*
X186727904Y-116420571D01*
X186632666Y-116468190D01*
X186251714Y-116468190D01*
X187775523Y-116944380D02*
X187204095Y-116944380D01*
X187489809Y-116944380D02*
X187489809Y-115944380D01*
X187394571Y-116087238D01*
X187299333Y-116182476D01*
X187204095Y-116230095D01*
X188632666Y-116277714D02*
X188632666Y-116944380D01*
X188394571Y-115896761D02*
X188156476Y-116611047D01*
X188775523Y-116611047D01*
X119118142Y-112974380D02*
X118784809Y-112498190D01*
X118546714Y-112974380D02*
X118546714Y-111974380D01*
X118927666Y-111974380D01*
X119022904Y-112022000D01*
X119070523Y-112069619D01*
X119118142Y-112164857D01*
X119118142Y-112307714D01*
X119070523Y-112402952D01*
X119022904Y-112450571D01*
X118927666Y-112498190D01*
X118546714Y-112498190D01*
X120070523Y-112974380D02*
X119499095Y-112974380D01*
X119784809Y-112974380D02*
X119784809Y-111974380D01*
X119689571Y-112117238D01*
X119594333Y-112212476D01*
X119499095Y-112260095D01*
X120641952Y-112402952D02*
X120546714Y-112355333D01*
X120499095Y-112307714D01*
X120451476Y-112212476D01*
X120451476Y-112164857D01*
X120499095Y-112069619D01*
X120546714Y-112022000D01*
X120641952Y-111974380D01*
X120832428Y-111974380D01*
X120927666Y-112022000D01*
X120975285Y-112069619D01*
X121022904Y-112164857D01*
X121022904Y-112212476D01*
X120975285Y-112307714D01*
X120927666Y-112355333D01*
X120832428Y-112402952D01*
X120641952Y-112402952D01*
X120546714Y-112450571D01*
X120499095Y-112498190D01*
X120451476Y-112593428D01*
X120451476Y-112783904D01*
X120499095Y-112879142D01*
X120546714Y-112926761D01*
X120641952Y-112974380D01*
X120832428Y-112974380D01*
X120927666Y-112926761D01*
X120975285Y-112879142D01*
X121022904Y-112783904D01*
X121022904Y-112593428D01*
X120975285Y-112498190D01*
X120927666Y-112450571D01*
X120832428Y-112402952D01*
X115308142Y-112974380D02*
X114974809Y-112498190D01*
X114736714Y-112974380D02*
X114736714Y-111974380D01*
X115117666Y-111974380D01*
X115212904Y-112022000D01*
X115260523Y-112069619D01*
X115308142Y-112164857D01*
X115308142Y-112307714D01*
X115260523Y-112402952D01*
X115212904Y-112450571D01*
X115117666Y-112498190D01*
X114736714Y-112498190D01*
X115689095Y-112069619D02*
X115736714Y-112022000D01*
X115831952Y-111974380D01*
X116070047Y-111974380D01*
X116165285Y-112022000D01*
X116212904Y-112069619D01*
X116260523Y-112164857D01*
X116260523Y-112260095D01*
X116212904Y-112402952D01*
X115641476Y-112974380D01*
X116260523Y-112974380D01*
X116641476Y-112069619D02*
X116689095Y-112022000D01*
X116784333Y-111974380D01*
X117022428Y-111974380D01*
X117117666Y-112022000D01*
X117165285Y-112069619D01*
X117212904Y-112164857D01*
X117212904Y-112260095D01*
X117165285Y-112402952D01*
X116593857Y-112974380D01*
X117212904Y-112974380D01*
X136898142Y-112974380D02*
X136564809Y-112498190D01*
X136326714Y-112974380D02*
X136326714Y-111974380D01*
X136707666Y-111974380D01*
X136802904Y-112022000D01*
X136850523Y-112069619D01*
X136898142Y-112164857D01*
X136898142Y-112307714D01*
X136850523Y-112402952D01*
X136802904Y-112450571D01*
X136707666Y-112498190D01*
X136326714Y-112498190D01*
X137279095Y-112069619D02*
X137326714Y-112022000D01*
X137421952Y-111974380D01*
X137660047Y-111974380D01*
X137755285Y-112022000D01*
X137802904Y-112069619D01*
X137850523Y-112164857D01*
X137850523Y-112260095D01*
X137802904Y-112402952D01*
X137231476Y-112974380D01*
X137850523Y-112974380D01*
X138183857Y-111974380D02*
X138802904Y-111974380D01*
X138469571Y-112355333D01*
X138612428Y-112355333D01*
X138707666Y-112402952D01*
X138755285Y-112450571D01*
X138802904Y-112545809D01*
X138802904Y-112783904D01*
X138755285Y-112879142D01*
X138707666Y-112926761D01*
X138612428Y-112974380D01*
X138326714Y-112974380D01*
X138231476Y-112926761D01*
X138183857Y-112879142D01*
X133088142Y-112974380D02*
X132754809Y-112498190D01*
X132516714Y-112974380D02*
X132516714Y-111974380D01*
X132897666Y-111974380D01*
X132992904Y-112022000D01*
X133040523Y-112069619D01*
X133088142Y-112164857D01*
X133088142Y-112307714D01*
X133040523Y-112402952D01*
X132992904Y-112450571D01*
X132897666Y-112498190D01*
X132516714Y-112498190D01*
X133469095Y-112069619D02*
X133516714Y-112022000D01*
X133611952Y-111974380D01*
X133850047Y-111974380D01*
X133945285Y-112022000D01*
X133992904Y-112069619D01*
X134040523Y-112164857D01*
X134040523Y-112260095D01*
X133992904Y-112402952D01*
X133421476Y-112974380D01*
X134040523Y-112974380D01*
X134897666Y-112307714D02*
X134897666Y-112974380D01*
X134659571Y-111926761D02*
X134421476Y-112641047D01*
X135040523Y-112641047D01*
X163328142Y-112974380D02*
X162994809Y-112498190D01*
X162756714Y-112974380D02*
X162756714Y-111974380D01*
X163137666Y-111974380D01*
X163232904Y-112022000D01*
X163280523Y-112069619D01*
X163328142Y-112164857D01*
X163328142Y-112307714D01*
X163280523Y-112402952D01*
X163232904Y-112450571D01*
X163137666Y-112498190D01*
X162756714Y-112498190D01*
X163709095Y-112069619D02*
X163756714Y-112022000D01*
X163851952Y-111974380D01*
X164090047Y-111974380D01*
X164185285Y-112022000D01*
X164232904Y-112069619D01*
X164280523Y-112164857D01*
X164280523Y-112260095D01*
X164232904Y-112402952D01*
X163661476Y-112974380D01*
X164280523Y-112974380D01*
X165185285Y-111974380D02*
X164709095Y-111974380D01*
X164661476Y-112450571D01*
X164709095Y-112402952D01*
X164804333Y-112355333D01*
X165042428Y-112355333D01*
X165137666Y-112402952D01*
X165185285Y-112450571D01*
X165232904Y-112545809D01*
X165232904Y-112783904D01*
X165185285Y-112879142D01*
X165137666Y-112926761D01*
X165042428Y-112974380D01*
X164804333Y-112974380D01*
X164709095Y-112926761D01*
X164661476Y-112879142D01*
X159518142Y-112974380D02*
X159184809Y-112498190D01*
X158946714Y-112974380D02*
X158946714Y-111974380D01*
X159327666Y-111974380D01*
X159422904Y-112022000D01*
X159470523Y-112069619D01*
X159518142Y-112164857D01*
X159518142Y-112307714D01*
X159470523Y-112402952D01*
X159422904Y-112450571D01*
X159327666Y-112498190D01*
X158946714Y-112498190D01*
X159899095Y-112069619D02*
X159946714Y-112022000D01*
X160041952Y-111974380D01*
X160280047Y-111974380D01*
X160375285Y-112022000D01*
X160422904Y-112069619D01*
X160470523Y-112164857D01*
X160470523Y-112260095D01*
X160422904Y-112402952D01*
X159851476Y-112974380D01*
X160470523Y-112974380D01*
X161327666Y-111974380D02*
X161137190Y-111974380D01*
X161041952Y-112022000D01*
X160994333Y-112069619D01*
X160899095Y-112212476D01*
X160851476Y-112402952D01*
X160851476Y-112783904D01*
X160899095Y-112879142D01*
X160946714Y-112926761D01*
X161041952Y-112974380D01*
X161232428Y-112974380D01*
X161327666Y-112926761D01*
X161375285Y-112879142D01*
X161422904Y-112783904D01*
X161422904Y-112545809D01*
X161375285Y-112450571D01*
X161327666Y-112402952D01*
X161232428Y-112355333D01*
X161041952Y-112355333D01*
X160946714Y-112402952D01*
X160899095Y-112450571D01*
X160851476Y-112545809D01*
X187357142Y-80700571D02*
X187023809Y-80700571D01*
X187023809Y-81224380D02*
X187023809Y-80224380D01*
X187500000Y-80224380D01*
X187880952Y-81224380D02*
X187880952Y-80557714D01*
X187880952Y-80748190D02*
X187928571Y-80652952D01*
X187976190Y-80605333D01*
X188071428Y-80557714D01*
X188166666Y-80557714D01*
X188642857Y-81224380D02*
X188547619Y-81176761D01*
X188500000Y-81129142D01*
X188452380Y-81033904D01*
X188452380Y-80748190D01*
X188500000Y-80652952D01*
X188547619Y-80605333D01*
X188642857Y-80557714D01*
X188785714Y-80557714D01*
X188880952Y-80605333D01*
X188928571Y-80652952D01*
X188976190Y-80748190D01*
X188976190Y-81033904D01*
X188928571Y-81129142D01*
X188880952Y-81176761D01*
X188785714Y-81224380D01*
X188642857Y-81224380D01*
X189404761Y-80557714D02*
X189404761Y-81224380D01*
X189404761Y-80652952D02*
X189452380Y-80605333D01*
X189547619Y-80557714D01*
X189690476Y-80557714D01*
X189785714Y-80605333D01*
X189833333Y-80700571D01*
X189833333Y-81224380D01*
X190166666Y-80557714D02*
X190547619Y-80557714D01*
X190309523Y-80224380D02*
X190309523Y-81081523D01*
X190357142Y-81176761D01*
X190452380Y-81224380D01*
X190547619Y-81224380D01*
X192119047Y-81224380D02*
X191642857Y-81224380D01*
X191642857Y-80224380D01*
X192833333Y-81176761D02*
X192738095Y-81224380D01*
X192547619Y-81224380D01*
X192452380Y-81176761D01*
X192404761Y-81081523D01*
X192404761Y-80700571D01*
X192452380Y-80605333D01*
X192547619Y-80557714D01*
X192738095Y-80557714D01*
X192833333Y-80605333D01*
X192880952Y-80700571D01*
X192880952Y-80795809D01*
X192404761Y-80891047D01*
X193166666Y-80557714D02*
X193547619Y-80557714D01*
X193309523Y-81224380D02*
X193309523Y-80367238D01*
X193357142Y-80272000D01*
X193452380Y-80224380D01*
X193547619Y-80224380D01*
X193738095Y-80557714D02*
X194119047Y-80557714D01*
X193880952Y-80224380D02*
X193880952Y-81081523D01*
X193928571Y-81176761D01*
X194023809Y-81224380D01*
X194119047Y-81224380D01*
X187055619Y-93924380D02*
X187055619Y-92924380D01*
X187388952Y-93638666D01*
X187722285Y-92924380D01*
X187722285Y-93924380D01*
X188198476Y-93924380D02*
X188198476Y-93257714D01*
X188198476Y-92924380D02*
X188150857Y-92972000D01*
X188198476Y-93019619D01*
X188246095Y-92972000D01*
X188198476Y-92924380D01*
X188198476Y-93019619D01*
X189103238Y-93924380D02*
X189103238Y-92924380D01*
X189103238Y-93876761D02*
X189008000Y-93924380D01*
X188817523Y-93924380D01*
X188722285Y-93876761D01*
X188674666Y-93829142D01*
X188627047Y-93733904D01*
X188627047Y-93448190D01*
X188674666Y-93352952D01*
X188722285Y-93305333D01*
X188817523Y-93257714D01*
X189008000Y-93257714D01*
X189103238Y-93305333D01*
X190008000Y-93924380D02*
X190008000Y-92924380D01*
X190008000Y-93876761D02*
X189912761Y-93924380D01*
X189722285Y-93924380D01*
X189627047Y-93876761D01*
X189579428Y-93829142D01*
X189531809Y-93733904D01*
X189531809Y-93448190D01*
X189579428Y-93352952D01*
X189627047Y-93305333D01*
X189722285Y-93257714D01*
X189912761Y-93257714D01*
X190008000Y-93305333D01*
X190627047Y-93924380D02*
X190531809Y-93876761D01*
X190484190Y-93781523D01*
X190484190Y-92924380D01*
X191388952Y-93876761D02*
X191293714Y-93924380D01*
X191103238Y-93924380D01*
X191008000Y-93876761D01*
X190960380Y-93781523D01*
X190960380Y-93400571D01*
X191008000Y-93305333D01*
X191103238Y-93257714D01*
X191293714Y-93257714D01*
X191388952Y-93305333D01*
X191436571Y-93400571D01*
X191436571Y-93495809D01*
X190960380Y-93591047D01*
X193103238Y-93924380D02*
X192627047Y-93924380D01*
X192627047Y-92924380D01*
X193817523Y-93876761D02*
X193722285Y-93924380D01*
X193531809Y-93924380D01*
X193436571Y-93876761D01*
X193388952Y-93781523D01*
X193388952Y-93400571D01*
X193436571Y-93305333D01*
X193531809Y-93257714D01*
X193722285Y-93257714D01*
X193817523Y-93305333D01*
X193865142Y-93400571D01*
X193865142Y-93495809D01*
X193388952Y-93591047D01*
X194150857Y-93257714D02*
X194531809Y-93257714D01*
X194293714Y-93924380D02*
X194293714Y-93067238D01*
X194341333Y-92972000D01*
X194436571Y-92924380D01*
X194531809Y-92924380D01*
X194722285Y-93257714D02*
X195103238Y-93257714D01*
X194865142Y-92924380D02*
X194865142Y-93781523D01*
X194912761Y-93876761D01*
X195008000Y-93924380D01*
X195103238Y-93924380D01*
X187833333Y-105608380D02*
X187500000Y-105132190D01*
X187261904Y-105608380D02*
X187261904Y-104608380D01*
X187642857Y-104608380D01*
X187738095Y-104656000D01*
X187785714Y-104703619D01*
X187833333Y-104798857D01*
X187833333Y-104941714D01*
X187785714Y-105036952D01*
X187738095Y-105084571D01*
X187642857Y-105132190D01*
X187261904Y-105132190D01*
X188642857Y-105560761D02*
X188547619Y-105608380D01*
X188357142Y-105608380D01*
X188261904Y-105560761D01*
X188214285Y-105465523D01*
X188214285Y-105084571D01*
X188261904Y-104989333D01*
X188357142Y-104941714D01*
X188547619Y-104941714D01*
X188642857Y-104989333D01*
X188690476Y-105084571D01*
X188690476Y-105179809D01*
X188214285Y-105275047D01*
X189547619Y-105608380D02*
X189547619Y-105084571D01*
X189500000Y-104989333D01*
X189404761Y-104941714D01*
X189214285Y-104941714D01*
X189119047Y-104989333D01*
X189547619Y-105560761D02*
X189452380Y-105608380D01*
X189214285Y-105608380D01*
X189119047Y-105560761D01*
X189071428Y-105465523D01*
X189071428Y-105370285D01*
X189119047Y-105275047D01*
X189214285Y-105227428D01*
X189452380Y-105227428D01*
X189547619Y-105179809D01*
X190023809Y-105608380D02*
X190023809Y-104941714D01*
X190023809Y-105132190D02*
X190071428Y-105036952D01*
X190119047Y-104989333D01*
X190214285Y-104941714D01*
X190309523Y-104941714D01*
X191880952Y-105608380D02*
X191404761Y-105608380D01*
X191404761Y-104608380D01*
X192595238Y-105560761D02*
X192500000Y-105608380D01*
X192309523Y-105608380D01*
X192214285Y-105560761D01*
X192166666Y-105465523D01*
X192166666Y-105084571D01*
X192214285Y-104989333D01*
X192309523Y-104941714D01*
X192500000Y-104941714D01*
X192595238Y-104989333D01*
X192642857Y-105084571D01*
X192642857Y-105179809D01*
X192166666Y-105275047D01*
X192928571Y-104941714D02*
X193309523Y-104941714D01*
X193071428Y-105608380D02*
X193071428Y-104751238D01*
X193119047Y-104656000D01*
X193214285Y-104608380D01*
X193309523Y-104608380D01*
X193500000Y-104941714D02*
X193880952Y-104941714D01*
X193642857Y-104608380D02*
X193642857Y-105465523D01*
X193690476Y-105560761D01*
X193785714Y-105608380D01*
X193880952Y-105608380D01*
X112617214Y-175458380D02*
X112045785Y-175458380D01*
X112331500Y-175458380D02*
X112331500Y-174458380D01*
X112236261Y-174601238D01*
X112141023Y-174696476D01*
X112045785Y-174744095D01*
X199914333Y-80700571D02*
X199581000Y-80700571D01*
X199581000Y-81224380D02*
X199581000Y-80224380D01*
X200057190Y-80224380D01*
X200438142Y-81224380D02*
X200438142Y-80557714D01*
X200438142Y-80748190D02*
X200485761Y-80652952D01*
X200533380Y-80605333D01*
X200628619Y-80557714D01*
X200723857Y-80557714D01*
X201200047Y-81224380D02*
X201104809Y-81176761D01*
X201057190Y-81129142D01*
X201009571Y-81033904D01*
X201009571Y-80748190D01*
X201057190Y-80652952D01*
X201104809Y-80605333D01*
X201200047Y-80557714D01*
X201342904Y-80557714D01*
X201438142Y-80605333D01*
X201485761Y-80652952D01*
X201533380Y-80748190D01*
X201533380Y-81033904D01*
X201485761Y-81129142D01*
X201438142Y-81176761D01*
X201342904Y-81224380D01*
X201200047Y-81224380D01*
X201961952Y-80557714D02*
X201961952Y-81224380D01*
X201961952Y-80652952D02*
X202009571Y-80605333D01*
X202104809Y-80557714D01*
X202247666Y-80557714D01*
X202342904Y-80605333D01*
X202390523Y-80700571D01*
X202390523Y-81224380D01*
X202723857Y-80557714D02*
X203104809Y-80557714D01*
X202866714Y-80224380D02*
X202866714Y-81081523D01*
X202914333Y-81176761D01*
X203009571Y-81224380D01*
X203104809Y-81224380D01*
X204771476Y-81224380D02*
X204438142Y-80748190D01*
X204200047Y-81224380D02*
X204200047Y-80224380D01*
X204581000Y-80224380D01*
X204676238Y-80272000D01*
X204723857Y-80319619D01*
X204771476Y-80414857D01*
X204771476Y-80557714D01*
X204723857Y-80652952D01*
X204676238Y-80700571D01*
X204581000Y-80748190D01*
X204200047Y-80748190D01*
X205200047Y-81224380D02*
X205200047Y-80557714D01*
X205200047Y-80224380D02*
X205152428Y-80272000D01*
X205200047Y-80319619D01*
X205247666Y-80272000D01*
X205200047Y-80224380D01*
X205200047Y-80319619D01*
X206104809Y-80557714D02*
X206104809Y-81367238D01*
X206057190Y-81462476D01*
X206009571Y-81510095D01*
X205914333Y-81557714D01*
X205771476Y-81557714D01*
X205676238Y-81510095D01*
X206104809Y-81176761D02*
X206009571Y-81224380D01*
X205819095Y-81224380D01*
X205723857Y-81176761D01*
X205676238Y-81129142D01*
X205628619Y-81033904D01*
X205628619Y-80748190D01*
X205676238Y-80652952D01*
X205723857Y-80605333D01*
X205819095Y-80557714D01*
X206009571Y-80557714D01*
X206104809Y-80605333D01*
X206581000Y-81224380D02*
X206581000Y-80224380D01*
X207009571Y-81224380D02*
X207009571Y-80700571D01*
X206961952Y-80605333D01*
X206866714Y-80557714D01*
X206723857Y-80557714D01*
X206628619Y-80605333D01*
X206581000Y-80652952D01*
X207342904Y-80557714D02*
X207723857Y-80557714D01*
X207485761Y-80224380D02*
X207485761Y-81081523D01*
X207533380Y-81176761D01*
X207628619Y-81224380D01*
X207723857Y-81224380D01*
X147995428Y-81684761D02*
X148138285Y-81732380D01*
X148376380Y-81732380D01*
X148471619Y-81684761D01*
X148519238Y-81637142D01*
X148566857Y-81541904D01*
X148566857Y-81446666D01*
X148519238Y-81351428D01*
X148471619Y-81303809D01*
X148376380Y-81256190D01*
X148185904Y-81208571D01*
X148090666Y-81160952D01*
X148043047Y-81113333D01*
X147995428Y-81018095D01*
X147995428Y-80922857D01*
X148043047Y-80827619D01*
X148090666Y-80780000D01*
X148185904Y-80732380D01*
X148424000Y-80732380D01*
X148566857Y-80780000D01*
X148900190Y-81065714D02*
X149090666Y-81732380D01*
X149281142Y-81256190D01*
X149471619Y-81732380D01*
X149662095Y-81065714D01*
X150043047Y-81732380D02*
X150043047Y-81065714D01*
X150043047Y-80732380D02*
X149995428Y-80780000D01*
X150043047Y-80827619D01*
X150090666Y-80780000D01*
X150043047Y-80732380D01*
X150043047Y-80827619D01*
X150376380Y-81065714D02*
X150757333Y-81065714D01*
X150519238Y-80732380D02*
X150519238Y-81589523D01*
X150566857Y-81684761D01*
X150662095Y-81732380D01*
X150757333Y-81732380D01*
X151519238Y-81684761D02*
X151424000Y-81732380D01*
X151233523Y-81732380D01*
X151138285Y-81684761D01*
X151090666Y-81637142D01*
X151043047Y-81541904D01*
X151043047Y-81256190D01*
X151090666Y-81160952D01*
X151138285Y-81113333D01*
X151233523Y-81065714D01*
X151424000Y-81065714D01*
X151519238Y-81113333D01*
X151947809Y-81732380D02*
X151947809Y-80732380D01*
X152376380Y-81732380D02*
X152376380Y-81208571D01*
X152328761Y-81113333D01*
X152233523Y-81065714D01*
X152090666Y-81065714D01*
X151995428Y-81113333D01*
X151947809Y-81160952D01*
X153614476Y-81732380D02*
X153614476Y-80732380D01*
X153852571Y-80732380D01*
X153995428Y-80780000D01*
X154090666Y-80875238D01*
X154138285Y-80970476D01*
X154185904Y-81160952D01*
X154185904Y-81303809D01*
X154138285Y-81494285D01*
X154090666Y-81589523D01*
X153995428Y-81684761D01*
X153852571Y-81732380D01*
X153614476Y-81732380D01*
X154614476Y-81732380D02*
X154614476Y-81065714D01*
X154614476Y-80732380D02*
X154566857Y-80780000D01*
X154614476Y-80827619D01*
X154662095Y-80780000D01*
X154614476Y-80732380D01*
X154614476Y-80827619D01*
X155090666Y-81732380D02*
X155090666Y-81065714D01*
X155090666Y-81256190D02*
X155138285Y-81160952D01*
X155185904Y-81113333D01*
X155281142Y-81065714D01*
X155376380Y-81065714D01*
X156090666Y-81684761D02*
X155995428Y-81732380D01*
X155804952Y-81732380D01*
X155709714Y-81684761D01*
X155662095Y-81589523D01*
X155662095Y-81208571D01*
X155709714Y-81113333D01*
X155804952Y-81065714D01*
X155995428Y-81065714D01*
X156090666Y-81113333D01*
X156138285Y-81208571D01*
X156138285Y-81303809D01*
X155662095Y-81399047D01*
X156995428Y-81684761D02*
X156900190Y-81732380D01*
X156709714Y-81732380D01*
X156614476Y-81684761D01*
X156566857Y-81637142D01*
X156519238Y-81541904D01*
X156519238Y-81256190D01*
X156566857Y-81160952D01*
X156614476Y-81113333D01*
X156709714Y-81065714D01*
X156900190Y-81065714D01*
X156995428Y-81113333D01*
X157281142Y-81065714D02*
X157662095Y-81065714D01*
X157424000Y-80732380D02*
X157424000Y-81589523D01*
X157471619Y-81684761D01*
X157566857Y-81732380D01*
X157662095Y-81732380D01*
X157995428Y-81732380D02*
X157995428Y-81065714D01*
X157995428Y-80732380D02*
X157947809Y-80780000D01*
X157995428Y-80827619D01*
X158043047Y-80780000D01*
X157995428Y-80732380D01*
X157995428Y-80827619D01*
X158614476Y-81732380D02*
X158519238Y-81684761D01*
X158471619Y-81637142D01*
X158424000Y-81541904D01*
X158424000Y-81256190D01*
X158471619Y-81160952D01*
X158519238Y-81113333D01*
X158614476Y-81065714D01*
X158757333Y-81065714D01*
X158852571Y-81113333D01*
X158900190Y-81160952D01*
X158947809Y-81256190D01*
X158947809Y-81541904D01*
X158900190Y-81637142D01*
X158852571Y-81684761D01*
X158757333Y-81732380D01*
X158614476Y-81732380D01*
X159376380Y-81065714D02*
X159376380Y-81732380D01*
X159376380Y-81160952D02*
X159424000Y-81113333D01*
X159519238Y-81065714D01*
X159662095Y-81065714D01*
X159757333Y-81113333D01*
X159804952Y-81208571D01*
X159804952Y-81732380D01*
X119838523Y-90892380D02*
X119362333Y-90892380D01*
X119314714Y-91368571D01*
X119362333Y-91320952D01*
X119457571Y-91273333D01*
X119695666Y-91273333D01*
X119790904Y-91320952D01*
X119838523Y-91368571D01*
X119886142Y-91463809D01*
X119886142Y-91701904D01*
X119838523Y-91797142D01*
X119790904Y-91844761D01*
X119695666Y-91892380D01*
X119457571Y-91892380D01*
X119362333Y-91844761D01*
X119314714Y-91797142D01*
X120171857Y-90892380D02*
X120505190Y-91892380D01*
X120838523Y-90892380D01*
M02*
