G04 #@! TF.GenerationSoftware,KiCad,Pcbnew,(5.1.4)-1*
G04 #@! TF.CreationDate,2019-12-12T11:37:27-06:00*
G04 #@! TF.ProjectId,DriveBoard2020,44726976-6542-46f6-9172-64323032302e,rev?*
G04 #@! TF.SameCoordinates,Original*
G04 #@! TF.FileFunction,Profile,NP*
%FSLAX46Y46*%
G04 Gerber Fmt 4.6, Leading zero omitted, Abs format (unit mm)*
G04 Created by KiCad (PCBNEW (5.1.4)-1) date 2019-12-12 11:37:27*
%MOMM*%
%LPD*%
G04 APERTURE LIST*
%ADD10C,0.050000*%
G04 APERTURE END LIST*
D10*
X111760000Y-67564000D02*
X110744000Y-67564000D01*
X110744000Y-128524000D02*
X110744000Y-67564000D01*
X110744000Y-159512000D02*
X110744000Y-128524000D01*
X110744000Y-228092000D02*
X110744000Y-159512000D01*
X111252000Y-228092000D02*
X110744000Y-228092000D01*
X111252000Y-228092000D02*
G75*
G02X111252000Y-232156000I0J-2032000D01*
G01*
X111252000Y-240792000D02*
X111252000Y-232156000D01*
X113284000Y-242824000D02*
G75*
G02X111252000Y-240792000I0J2032000D01*
G01*
X204724000Y-242824000D02*
X113284000Y-242824000D01*
X117348000Y-67564000D02*
X111760000Y-67564000D01*
X129032000Y-67564000D02*
X117348000Y-67564000D01*
X155448000Y-67564000D02*
X129032000Y-67564000D01*
X178308000Y-67564000D02*
X155448000Y-67564000D01*
X205232000Y-67564000D02*
X178308000Y-67564000D01*
X235712000Y-67564000D02*
X205232000Y-67564000D01*
X235712000Y-81788000D02*
X235712000Y-67564000D01*
X235712000Y-95504000D02*
X235712000Y-81788000D01*
X235712000Y-112776000D02*
X235712000Y-95504000D01*
X235712000Y-127508000D02*
X235712000Y-112776000D01*
X235712000Y-140716000D02*
X235712000Y-127508000D01*
X235712000Y-147828000D02*
X235712000Y-140716000D01*
X235712000Y-161544000D02*
X235712000Y-147828000D01*
X235712000Y-195072000D02*
X235712000Y-161544000D01*
X235712000Y-195072000D02*
G75*
G02X233680000Y-197104000I-2032000J0D01*
G01*
X217932000Y-197104000D02*
X233680000Y-197104000D01*
X217932000Y-217932000D02*
X217932000Y-197104000D01*
X233680000Y-217932000D02*
X217932000Y-217932000D01*
X233680000Y-217932000D02*
G75*
G02X235712000Y-219964000I0J-2032000D01*
G01*
X235712000Y-228092000D02*
X235712000Y-219964000D01*
X235712000Y-232156000D02*
G75*
G02X235712000Y-228092000I0J2032000D01*
G01*
X235712000Y-240792000D02*
X235712000Y-232156000D01*
X235712000Y-240792000D02*
G75*
G02X233680000Y-242824000I-2032000J0D01*
G01*
X204724000Y-242824000D02*
X233680000Y-242824000D01*
M02*
