M48
; DRILL file {KiCad (5.1.4)-1} date 12/12/2019 11:37:41 AM
; FORMAT={-:-/ absolute / inch / decimal}
; #@! TF.CreationDate,2019-12-12T11:37:41-06:00
; #@! TF.GenerationSoftware,Kicad,Pcbnew,(5.1.4)-1
; #@! TF.FileFunction,Plated,1,2,PTH
FMAT,2
INCH
T1C0.0157
T2C0.0350
T3C0.0354
T4C0.0394
T5C0.1598
%
G90
G05
T1
X5.015Y-3.855
X5.12Y-4.64
X5.12Y-6.38
X5.14Y-4.6
X5.16Y-8.24
X5.18Y-6.32
X5.22Y-7.0
X5.42Y-4.92
X5.42Y-6.96
X5.4272Y-8.14
X5.46Y-4.86
X5.46Y-6.92
X5.48Y-8.32
X5.5Y-8.16
X5.52Y-4.8
X5.52Y-6.88
X5.56Y-4.76
X5.56Y-6.8
X5.64Y-4.7
X5.69Y-5.76
X5.69Y-6.86
X5.715Y-3.13
X5.72Y-4.0
X5.8Y-3.96
X5.8Y-6.38
X5.86Y-6.32
X5.9Y-3.86
X5.94Y-5.5
X5.94Y-5.82
X5.98Y-6.86
X6.0Y-4.14
X6.08Y-4.7
X6.1Y-3.9
X6.2Y-3.86
X6.2Y-3.86
X6.32Y-3.6
X6.36Y-4.64
X6.36Y-5.5
X6.42Y-3.86
X6.42Y-4.6
X6.42Y-5.5
X6.42Y-8.52
X6.44Y-3.4
X6.44Y-7.51
X6.48Y-4.52
X6.48Y-5.5
X6.5Y-3.9
X6.52Y-4.56
X6.52Y-5.5
X6.52Y-6.92
X6.54Y-4.22
X6.615Y-4.355
X6.66Y-4.48
X6.68Y-4.44
X6.7Y-5.5
X6.74Y-6.06
X6.74Y-8.46
X6.8Y-8.42
X6.84Y-8.32
X6.86Y-4.54
X6.9Y-4.64
X6.92Y-5.5
X6.94Y-6.92
X6.96Y-4.6
X6.96Y-6.06
X6.98Y-5.5
X7.0Y-6.98
X7.04Y-4.7
X7.04Y-5.5
X7.08Y-4.04
X7.08Y-6.96
X7.1Y-4.56
X7.1Y-5.5
X7.14Y-4.06
X7.2Y-4.0946
X7.26Y-4.16
X7.26Y-6.1
X7.3Y-4.14
X7.32Y-6.08
X7.36Y-4.62
X7.36Y-4.76
X7.36Y-6.32
X7.38Y-6.96
X7.46Y-5.44
X7.46Y-5.44
X7.46Y-5.5
X7.54Y-6.32
X7.56Y-5.48
X7.56Y-8.26
X7.62Y-5.48
X7.66Y-6.38
X7.74Y-5.82
X7.78Y-5.92
X7.8Y-4.62
X7.8Y-4.8
X7.82Y-6.44
X7.86Y-7.08
X7.9Y-7.04
X7.94Y-3.96
X7.96Y-6.56
X7.96Y-6.72
X8.04Y-6.48
X8.04Y-6.6
X8.14Y-3.46
X8.14Y-3.64
X8.2Y-4.86
X8.22Y-4.9
X8.26Y-4.94
X8.3Y-5.0
X8.38Y-5.04
X8.44Y-5.08
T2
X5.69Y-7.61
X5.69Y-7.71
X5.69Y-7.81
X5.69Y-7.11
X5.69Y-7.21
X5.69Y-7.31
T3
X4.915Y-5.185
X4.915Y-5.285
X4.915Y-5.385
X4.915Y-5.485
X4.915Y-5.585
X4.915Y-6.38
X4.915Y-6.48
X8.62Y-4.84
X8.62Y-4.94
X8.62Y-5.04
X8.62Y-5.14
X8.62Y-5.24
X8.62Y-6.28
X8.62Y-6.38
X8.62Y-6.48
X8.62Y-6.58
X8.62Y-6.68
X5.9681Y-3.3751
X5.9681Y-3.505
X6.0666Y-3.3751
X6.0666Y-3.505
X6.165Y-3.3751
X6.165Y-3.505
X8.62Y-5.56
X8.62Y-5.66
X8.62Y-5.76
X8.62Y-5.86
X8.62Y-5.96
X8.62Y-4.12
X8.62Y-4.22
X8.62Y-4.32
X8.62Y-4.42
X8.62Y-4.52
X4.915Y-5.935
X4.915Y-6.035
X8.62Y-3.4
X8.62Y-3.5
X8.62Y-3.6
X8.62Y-3.7
X8.62Y-3.8
X8.62Y-6.98
X8.62Y-7.08
X8.62Y-7.18
X8.62Y-7.28
X8.62Y-7.38
X8.04Y-7.99
X8.04Y-8.09
X8.04Y-8.19
X8.04Y-8.29
T4
X6.615Y-7.0897
X6.615Y-7.1897
X6.615Y-7.8797
X6.615Y-8.0797
X6.615Y-8.1797
X7.215Y-7.0897
X7.215Y-7.1897
X7.215Y-8.0797
X7.215Y-8.1797
X4.4225Y-6.71
X4.4225Y-6.81
X4.4225Y-8.41
X4.4225Y-8.51
X4.5225Y-6.71
X4.5225Y-6.81
X4.5225Y-8.41
X4.5225Y-8.51
X4.6225Y-6.71
X4.6225Y-6.81
X4.6225Y-8.41
X4.6225Y-8.51
X4.7225Y-6.71
X4.7225Y-6.81
X4.7225Y-8.41
X4.7225Y-8.51
X4.8225Y-6.71
X4.8225Y-6.81
X4.8225Y-8.41
X4.8225Y-8.51
X4.9225Y-6.71
X4.9225Y-6.81
X4.9225Y-8.41
X4.9225Y-8.51
X5.0225Y-6.71
X5.0225Y-6.81
X5.0225Y-8.41
X5.0225Y-8.51
X5.1225Y-6.71
X5.1225Y-6.81
X5.1225Y-8.41
X5.1225Y-8.51
X5.2225Y-6.71
X5.2225Y-6.81
X5.2225Y-8.41
X5.2225Y-8.51
X5.3225Y-6.71
X5.3225Y-6.81
X5.3225Y-8.41
X5.3225Y-8.51
X6.9225Y-6.71
X6.9225Y-6.81
X6.9225Y-8.41
X6.9225Y-8.51
X7.0225Y-6.71
X7.0225Y-6.81
X7.0225Y-8.41
X7.0225Y-8.51
X7.1225Y-6.71
X7.1225Y-6.81
X7.1225Y-8.41
X7.1225Y-8.51
X7.2225Y-6.71
X7.2225Y-6.81
X7.2225Y-8.41
X7.2225Y-8.51
X7.3225Y-6.71
X7.3225Y-6.81
X7.3225Y-8.41
X7.3225Y-8.51
X7.4225Y-6.71
X7.4225Y-6.81
X7.4225Y-8.41
X7.4225Y-8.51
X7.5225Y-6.71
X7.5225Y-6.81
X7.5225Y-8.41
X7.5225Y-8.51
X7.6225Y-6.71
X7.6225Y-6.81
X7.6225Y-8.41
X7.6225Y-8.51
X7.7225Y-6.71
X7.7225Y-6.81
X7.7225Y-8.41
X7.7225Y-8.51
X7.8225Y-6.71
X7.8225Y-6.81
X7.8225Y-8.41
X7.8225Y-8.51
T5
X5.08Y-7.135
X5.08Y-7.445
X5.08Y-7.755
T0
M30
