G04 #@! TF.GenerationSoftware,KiCad,Pcbnew,(5.1.4)-1*
G04 #@! TF.CreationDate,2020-01-03T19:37:45-06:00*
G04 #@! TF.ProjectId,DriveBoard2020,44726976-6542-46f6-9172-64323032302e,rev?*
G04 #@! TF.SameCoordinates,Original*
G04 #@! TF.FileFunction,Profile,NP*
%FSLAX46Y46*%
G04 Gerber Fmt 4.6, Leading zero omitted, Abs format (unit mm)*
G04 Created by KiCad (PCBNEW (5.1.4)-1) date 2020-01-03 19:37:45*
%MOMM*%
%LPD*%
G04 APERTURE LIST*
%ADD10C,0.050000*%
G04 APERTURE END LIST*
D10*
X111125000Y-130810000D02*
X111125000Y-132715000D01*
X111125000Y-130810000D02*
G75*
G02X113030000Y-128905000I1905000J0D01*
G01*
X116840000Y-128905000D02*
X113030000Y-128905000D01*
X140970000Y-128905000D02*
X116840000Y-128905000D01*
X156210000Y-128905000D02*
X140970000Y-128905000D01*
X111125000Y-153670000D02*
X111125000Y-132715000D01*
X111125000Y-154940000D02*
X111125000Y-153670000D01*
X111125000Y-227965000D02*
X111125000Y-154940000D01*
X111125000Y-227965000D02*
G75*
G02X111125000Y-231775000I0J-1905000D01*
G01*
X111125000Y-240665000D02*
X111125000Y-231775000D01*
X113030000Y-242570000D02*
G75*
G02X111125000Y-240665000I0J1905000D01*
G01*
X233045000Y-242570000D02*
X113030000Y-242570000D01*
X233045000Y-128905000D02*
X156210000Y-128905000D01*
X234950000Y-145415000D02*
X235585000Y-194945000D01*
X234950000Y-130810000D02*
X234950000Y-145415000D01*
X233045000Y-128905000D02*
G75*
G02X234950000Y-130810000I0J-1905000D01*
G01*
X235585000Y-194945000D02*
G75*
G02X233680000Y-196850000I-1905000J0D01*
G01*
X217805000Y-196850000D02*
X233680000Y-196850000D01*
X217805000Y-217805000D02*
X217805000Y-196850000D01*
X233680000Y-217805000D02*
X217805000Y-217805000D01*
X233680000Y-217805000D02*
G75*
G02X235585000Y-219710000I0J-1905000D01*
G01*
X235585000Y-227965000D02*
X235585000Y-219710000D01*
X235585000Y-231775000D02*
G75*
G02X235585000Y-227965000I0J1905000D01*
G01*
X235585000Y-240030000D02*
X235585000Y-231775000D01*
X235585000Y-240030000D02*
G75*
G02X233045000Y-242570000I-2540000J0D01*
G01*
M02*
