G04 #@! TF.GenerationSoftware,KiCad,Pcbnew,(5.1.4)-1*
G04 #@! TF.CreationDate,2019-12-12T11:37:26-06:00*
G04 #@! TF.ProjectId,DriveBoard2020,44726976-6542-46f6-9172-64323032302e,rev?*
G04 #@! TF.SameCoordinates,Original*
G04 #@! TF.FileFunction,Soldermask,Bot*
G04 #@! TF.FilePolarity,Negative*
%FSLAX46Y46*%
G04 Gerber Fmt 4.6, Leading zero omitted, Abs format (unit mm)*
G04 Created by KiCad (PCBNEW (5.1.4)-1) date 2019-12-12 11:37:26*
%MOMM*%
%LPD*%
G04 APERTURE LIST*
%ADD10C,0.100000*%
G04 APERTURE END LIST*
D10*
G36*
X135428060Y-215374166D02*
G01*
X135575653Y-215435301D01*
X135708482Y-215524055D01*
X135821445Y-215637018D01*
X135910199Y-215769847D01*
X135971334Y-215917440D01*
X136002500Y-216074123D01*
X136002500Y-216233877D01*
X135971334Y-216390560D01*
X135910199Y-216538153D01*
X135821445Y-216670982D01*
X135708482Y-216783945D01*
X135575653Y-216872699D01*
X135575652Y-216872700D01*
X135575651Y-216872700D01*
X135428060Y-216933834D01*
X135271378Y-216965000D01*
X135111622Y-216965000D01*
X134954940Y-216933834D01*
X134807349Y-216872700D01*
X134807348Y-216872700D01*
X134807347Y-216872699D01*
X134674518Y-216783945D01*
X134561555Y-216670982D01*
X134472801Y-216538153D01*
X134411666Y-216390560D01*
X134380500Y-216233877D01*
X134380500Y-216074123D01*
X134411666Y-215917440D01*
X134472801Y-215769847D01*
X134561555Y-215637018D01*
X134674518Y-215524055D01*
X134807347Y-215435301D01*
X134954940Y-215374166D01*
X135111622Y-215343000D01*
X135271378Y-215343000D01*
X135428060Y-215374166D01*
X135428060Y-215374166D01*
G37*
G36*
X198928060Y-215374166D02*
G01*
X199075653Y-215435301D01*
X199208482Y-215524055D01*
X199321445Y-215637018D01*
X199410199Y-215769847D01*
X199471334Y-215917440D01*
X199502500Y-216074123D01*
X199502500Y-216233877D01*
X199471334Y-216390560D01*
X199410199Y-216538153D01*
X199321445Y-216670982D01*
X199208482Y-216783945D01*
X199075653Y-216872699D01*
X199075652Y-216872700D01*
X199075651Y-216872700D01*
X198928060Y-216933834D01*
X198771378Y-216965000D01*
X198611622Y-216965000D01*
X198454940Y-216933834D01*
X198307349Y-216872700D01*
X198307348Y-216872700D01*
X198307347Y-216872699D01*
X198174518Y-216783945D01*
X198061555Y-216670982D01*
X197972801Y-216538153D01*
X197911666Y-216390560D01*
X197880500Y-216233877D01*
X197880500Y-216074123D01*
X197911666Y-215917440D01*
X197972801Y-215769847D01*
X198061555Y-215637018D01*
X198174518Y-215524055D01*
X198307347Y-215435301D01*
X198454940Y-215374166D01*
X198611622Y-215343000D01*
X198771378Y-215343000D01*
X198928060Y-215374166D01*
X198928060Y-215374166D01*
G37*
G36*
X176068060Y-215374166D02*
G01*
X176215653Y-215435301D01*
X176348482Y-215524055D01*
X176461445Y-215637018D01*
X176550199Y-215769847D01*
X176611334Y-215917440D01*
X176642500Y-216074123D01*
X176642500Y-216233877D01*
X176611334Y-216390560D01*
X176550199Y-216538153D01*
X176461445Y-216670982D01*
X176348482Y-216783945D01*
X176215653Y-216872699D01*
X176215652Y-216872700D01*
X176215651Y-216872700D01*
X176068060Y-216933834D01*
X175911378Y-216965000D01*
X175751622Y-216965000D01*
X175594940Y-216933834D01*
X175447349Y-216872700D01*
X175447348Y-216872700D01*
X175447347Y-216872699D01*
X175314518Y-216783945D01*
X175201555Y-216670982D01*
X175112801Y-216538153D01*
X175051666Y-216390560D01*
X175020500Y-216233877D01*
X175020500Y-216074123D01*
X175051666Y-215917440D01*
X175112801Y-215769847D01*
X175201555Y-215637018D01*
X175314518Y-215524055D01*
X175447347Y-215435301D01*
X175594940Y-215374166D01*
X175751622Y-215343000D01*
X175911378Y-215343000D01*
X176068060Y-215374166D01*
X176068060Y-215374166D01*
G37*
G36*
X191308060Y-215374166D02*
G01*
X191455653Y-215435301D01*
X191588482Y-215524055D01*
X191701445Y-215637018D01*
X191790199Y-215769847D01*
X191851334Y-215917440D01*
X191882500Y-216074123D01*
X191882500Y-216233877D01*
X191851334Y-216390560D01*
X191790199Y-216538153D01*
X191701445Y-216670982D01*
X191588482Y-216783945D01*
X191455653Y-216872699D01*
X191455652Y-216872700D01*
X191455651Y-216872700D01*
X191308060Y-216933834D01*
X191151378Y-216965000D01*
X190991622Y-216965000D01*
X190834940Y-216933834D01*
X190687349Y-216872700D01*
X190687348Y-216872700D01*
X190687347Y-216872699D01*
X190554518Y-216783945D01*
X190441555Y-216670982D01*
X190352801Y-216538153D01*
X190291666Y-216390560D01*
X190260500Y-216233877D01*
X190260500Y-216074123D01*
X190291666Y-215917440D01*
X190352801Y-215769847D01*
X190441555Y-215637018D01*
X190554518Y-215524055D01*
X190687347Y-215435301D01*
X190834940Y-215374166D01*
X190991622Y-215343000D01*
X191151378Y-215343000D01*
X191308060Y-215374166D01*
X191308060Y-215374166D01*
G37*
G36*
X178608060Y-215374166D02*
G01*
X178755653Y-215435301D01*
X178888482Y-215524055D01*
X179001445Y-215637018D01*
X179090199Y-215769847D01*
X179151334Y-215917440D01*
X179182500Y-216074123D01*
X179182500Y-216233877D01*
X179151334Y-216390560D01*
X179090199Y-216538153D01*
X179001445Y-216670982D01*
X178888482Y-216783945D01*
X178755653Y-216872699D01*
X178755652Y-216872700D01*
X178755651Y-216872700D01*
X178608060Y-216933834D01*
X178451378Y-216965000D01*
X178291622Y-216965000D01*
X178134940Y-216933834D01*
X177987349Y-216872700D01*
X177987348Y-216872700D01*
X177987347Y-216872699D01*
X177854518Y-216783945D01*
X177741555Y-216670982D01*
X177652801Y-216538153D01*
X177591666Y-216390560D01*
X177560500Y-216233877D01*
X177560500Y-216074123D01*
X177591666Y-215917440D01*
X177652801Y-215769847D01*
X177741555Y-215637018D01*
X177854518Y-215524055D01*
X177987347Y-215435301D01*
X178134940Y-215374166D01*
X178291622Y-215343000D01*
X178451378Y-215343000D01*
X178608060Y-215374166D01*
X178608060Y-215374166D01*
G37*
G36*
X181148060Y-215374166D02*
G01*
X181295653Y-215435301D01*
X181428482Y-215524055D01*
X181541445Y-215637018D01*
X181630199Y-215769847D01*
X181691334Y-215917440D01*
X181722500Y-216074123D01*
X181722500Y-216233877D01*
X181691334Y-216390560D01*
X181630199Y-216538153D01*
X181541445Y-216670982D01*
X181428482Y-216783945D01*
X181295653Y-216872699D01*
X181295652Y-216872700D01*
X181295651Y-216872700D01*
X181148060Y-216933834D01*
X180991378Y-216965000D01*
X180831622Y-216965000D01*
X180674940Y-216933834D01*
X180527349Y-216872700D01*
X180527348Y-216872700D01*
X180527347Y-216872699D01*
X180394518Y-216783945D01*
X180281555Y-216670982D01*
X180192801Y-216538153D01*
X180131666Y-216390560D01*
X180100500Y-216233877D01*
X180100500Y-216074123D01*
X180131666Y-215917440D01*
X180192801Y-215769847D01*
X180281555Y-215637018D01*
X180394518Y-215524055D01*
X180527347Y-215435301D01*
X180674940Y-215374166D01*
X180831622Y-215343000D01*
X180991378Y-215343000D01*
X181148060Y-215374166D01*
X181148060Y-215374166D01*
G37*
G36*
X183688060Y-215374166D02*
G01*
X183835653Y-215435301D01*
X183968482Y-215524055D01*
X184081445Y-215637018D01*
X184170199Y-215769847D01*
X184231334Y-215917440D01*
X184262500Y-216074123D01*
X184262500Y-216233877D01*
X184231334Y-216390560D01*
X184170199Y-216538153D01*
X184081445Y-216670982D01*
X183968482Y-216783945D01*
X183835653Y-216872699D01*
X183835652Y-216872700D01*
X183835651Y-216872700D01*
X183688060Y-216933834D01*
X183531378Y-216965000D01*
X183371622Y-216965000D01*
X183214940Y-216933834D01*
X183067349Y-216872700D01*
X183067348Y-216872700D01*
X183067347Y-216872699D01*
X182934518Y-216783945D01*
X182821555Y-216670982D01*
X182732801Y-216538153D01*
X182671666Y-216390560D01*
X182640500Y-216233877D01*
X182640500Y-216074123D01*
X182671666Y-215917440D01*
X182732801Y-215769847D01*
X182821555Y-215637018D01*
X182934518Y-215524055D01*
X183067347Y-215435301D01*
X183214940Y-215374166D01*
X183371622Y-215343000D01*
X183531378Y-215343000D01*
X183688060Y-215374166D01*
X183688060Y-215374166D01*
G37*
G36*
X186228060Y-215374166D02*
G01*
X186375653Y-215435301D01*
X186508482Y-215524055D01*
X186621445Y-215637018D01*
X186710199Y-215769847D01*
X186771334Y-215917440D01*
X186802500Y-216074123D01*
X186802500Y-216233877D01*
X186771334Y-216390560D01*
X186710199Y-216538153D01*
X186621445Y-216670982D01*
X186508482Y-216783945D01*
X186375653Y-216872699D01*
X186375652Y-216872700D01*
X186375651Y-216872700D01*
X186228060Y-216933834D01*
X186071378Y-216965000D01*
X185911622Y-216965000D01*
X185754940Y-216933834D01*
X185607349Y-216872700D01*
X185607348Y-216872700D01*
X185607347Y-216872699D01*
X185474518Y-216783945D01*
X185361555Y-216670982D01*
X185272801Y-216538153D01*
X185211666Y-216390560D01*
X185180500Y-216233877D01*
X185180500Y-216074123D01*
X185211666Y-215917440D01*
X185272801Y-215769847D01*
X185361555Y-215637018D01*
X185474518Y-215524055D01*
X185607347Y-215435301D01*
X185754940Y-215374166D01*
X185911622Y-215343000D01*
X186071378Y-215343000D01*
X186228060Y-215374166D01*
X186228060Y-215374166D01*
G37*
G36*
X188768060Y-215374166D02*
G01*
X188915653Y-215435301D01*
X189048482Y-215524055D01*
X189161445Y-215637018D01*
X189250199Y-215769847D01*
X189311334Y-215917440D01*
X189342500Y-216074123D01*
X189342500Y-216233877D01*
X189311334Y-216390560D01*
X189250199Y-216538153D01*
X189161445Y-216670982D01*
X189048482Y-216783945D01*
X188915653Y-216872699D01*
X188915652Y-216872700D01*
X188915651Y-216872700D01*
X188768060Y-216933834D01*
X188611378Y-216965000D01*
X188451622Y-216965000D01*
X188294940Y-216933834D01*
X188147349Y-216872700D01*
X188147348Y-216872700D01*
X188147347Y-216872699D01*
X188014518Y-216783945D01*
X187901555Y-216670982D01*
X187812801Y-216538153D01*
X187751666Y-216390560D01*
X187720500Y-216233877D01*
X187720500Y-216074123D01*
X187751666Y-215917440D01*
X187812801Y-215769847D01*
X187901555Y-215637018D01*
X188014518Y-215524055D01*
X188147347Y-215435301D01*
X188294940Y-215374166D01*
X188451622Y-215343000D01*
X188611378Y-215343000D01*
X188768060Y-215374166D01*
X188768060Y-215374166D01*
G37*
G36*
X193848060Y-215374166D02*
G01*
X193995653Y-215435301D01*
X194128482Y-215524055D01*
X194241445Y-215637018D01*
X194330199Y-215769847D01*
X194391334Y-215917440D01*
X194422500Y-216074123D01*
X194422500Y-216233877D01*
X194391334Y-216390560D01*
X194330199Y-216538153D01*
X194241445Y-216670982D01*
X194128482Y-216783945D01*
X193995653Y-216872699D01*
X193995652Y-216872700D01*
X193995651Y-216872700D01*
X193848060Y-216933834D01*
X193691378Y-216965000D01*
X193531622Y-216965000D01*
X193374940Y-216933834D01*
X193227349Y-216872700D01*
X193227348Y-216872700D01*
X193227347Y-216872699D01*
X193094518Y-216783945D01*
X192981555Y-216670982D01*
X192892801Y-216538153D01*
X192831666Y-216390560D01*
X192800500Y-216233877D01*
X192800500Y-216074123D01*
X192831666Y-215917440D01*
X192892801Y-215769847D01*
X192981555Y-215637018D01*
X193094518Y-215524055D01*
X193227347Y-215435301D01*
X193374940Y-215374166D01*
X193531622Y-215343000D01*
X193691378Y-215343000D01*
X193848060Y-215374166D01*
X193848060Y-215374166D01*
G37*
G36*
X196388060Y-215374166D02*
G01*
X196535653Y-215435301D01*
X196668482Y-215524055D01*
X196781445Y-215637018D01*
X196870199Y-215769847D01*
X196931334Y-215917440D01*
X196962500Y-216074123D01*
X196962500Y-216233877D01*
X196931334Y-216390560D01*
X196870199Y-216538153D01*
X196781445Y-216670982D01*
X196668482Y-216783945D01*
X196535653Y-216872699D01*
X196535652Y-216872700D01*
X196535651Y-216872700D01*
X196388060Y-216933834D01*
X196231378Y-216965000D01*
X196071622Y-216965000D01*
X195914940Y-216933834D01*
X195767349Y-216872700D01*
X195767348Y-216872700D01*
X195767347Y-216872699D01*
X195634518Y-216783945D01*
X195521555Y-216670982D01*
X195432801Y-216538153D01*
X195371666Y-216390560D01*
X195340500Y-216233877D01*
X195340500Y-216074123D01*
X195371666Y-215917440D01*
X195432801Y-215769847D01*
X195521555Y-215637018D01*
X195634518Y-215524055D01*
X195767347Y-215435301D01*
X195914940Y-215374166D01*
X196071622Y-215343000D01*
X196231378Y-215343000D01*
X196388060Y-215374166D01*
X196388060Y-215374166D01*
G37*
G36*
X115108060Y-215374166D02*
G01*
X115255653Y-215435301D01*
X115388482Y-215524055D01*
X115501445Y-215637018D01*
X115590199Y-215769847D01*
X115651334Y-215917440D01*
X115682500Y-216074123D01*
X115682500Y-216233877D01*
X115651334Y-216390560D01*
X115590199Y-216538153D01*
X115501445Y-216670982D01*
X115388482Y-216783945D01*
X115255653Y-216872699D01*
X115255652Y-216872700D01*
X115255651Y-216872700D01*
X115108060Y-216933834D01*
X114951378Y-216965000D01*
X114791622Y-216965000D01*
X114634940Y-216933834D01*
X114487349Y-216872700D01*
X114487348Y-216872700D01*
X114487347Y-216872699D01*
X114354518Y-216783945D01*
X114241555Y-216670982D01*
X114152801Y-216538153D01*
X114091666Y-216390560D01*
X114060500Y-216233877D01*
X114060500Y-216074123D01*
X114091666Y-215917440D01*
X114152801Y-215769847D01*
X114241555Y-215637018D01*
X114354518Y-215524055D01*
X114487347Y-215435301D01*
X114634940Y-215374166D01*
X114791622Y-215343000D01*
X114951378Y-215343000D01*
X115108060Y-215374166D01*
X115108060Y-215374166D01*
G37*
G36*
X117648060Y-215374166D02*
G01*
X117795653Y-215435301D01*
X117928482Y-215524055D01*
X118041445Y-215637018D01*
X118130199Y-215769847D01*
X118191334Y-215917440D01*
X118222500Y-216074123D01*
X118222500Y-216233877D01*
X118191334Y-216390560D01*
X118130199Y-216538153D01*
X118041445Y-216670982D01*
X117928482Y-216783945D01*
X117795653Y-216872699D01*
X117795652Y-216872700D01*
X117795651Y-216872700D01*
X117648060Y-216933834D01*
X117491378Y-216965000D01*
X117331622Y-216965000D01*
X117174940Y-216933834D01*
X117027349Y-216872700D01*
X117027348Y-216872700D01*
X117027347Y-216872699D01*
X116894518Y-216783945D01*
X116781555Y-216670982D01*
X116692801Y-216538153D01*
X116631666Y-216390560D01*
X116600500Y-216233877D01*
X116600500Y-216074123D01*
X116631666Y-215917440D01*
X116692801Y-215769847D01*
X116781555Y-215637018D01*
X116894518Y-215524055D01*
X117027347Y-215435301D01*
X117174940Y-215374166D01*
X117331622Y-215343000D01*
X117491378Y-215343000D01*
X117648060Y-215374166D01*
X117648060Y-215374166D01*
G37*
G36*
X120188060Y-215374166D02*
G01*
X120335653Y-215435301D01*
X120468482Y-215524055D01*
X120581445Y-215637018D01*
X120670199Y-215769847D01*
X120731334Y-215917440D01*
X120762500Y-216074123D01*
X120762500Y-216233877D01*
X120731334Y-216390560D01*
X120670199Y-216538153D01*
X120581445Y-216670982D01*
X120468482Y-216783945D01*
X120335653Y-216872699D01*
X120335652Y-216872700D01*
X120335651Y-216872700D01*
X120188060Y-216933834D01*
X120031378Y-216965000D01*
X119871622Y-216965000D01*
X119714940Y-216933834D01*
X119567349Y-216872700D01*
X119567348Y-216872700D01*
X119567347Y-216872699D01*
X119434518Y-216783945D01*
X119321555Y-216670982D01*
X119232801Y-216538153D01*
X119171666Y-216390560D01*
X119140500Y-216233877D01*
X119140500Y-216074123D01*
X119171666Y-215917440D01*
X119232801Y-215769847D01*
X119321555Y-215637018D01*
X119434518Y-215524055D01*
X119567347Y-215435301D01*
X119714940Y-215374166D01*
X119871622Y-215343000D01*
X120031378Y-215343000D01*
X120188060Y-215374166D01*
X120188060Y-215374166D01*
G37*
G36*
X122728060Y-215374166D02*
G01*
X122875653Y-215435301D01*
X123008482Y-215524055D01*
X123121445Y-215637018D01*
X123210199Y-215769847D01*
X123271334Y-215917440D01*
X123302500Y-216074123D01*
X123302500Y-216233877D01*
X123271334Y-216390560D01*
X123210199Y-216538153D01*
X123121445Y-216670982D01*
X123008482Y-216783945D01*
X122875653Y-216872699D01*
X122875652Y-216872700D01*
X122875651Y-216872700D01*
X122728060Y-216933834D01*
X122571378Y-216965000D01*
X122411622Y-216965000D01*
X122254940Y-216933834D01*
X122107349Y-216872700D01*
X122107348Y-216872700D01*
X122107347Y-216872699D01*
X121974518Y-216783945D01*
X121861555Y-216670982D01*
X121772801Y-216538153D01*
X121711666Y-216390560D01*
X121680500Y-216233877D01*
X121680500Y-216074123D01*
X121711666Y-215917440D01*
X121772801Y-215769847D01*
X121861555Y-215637018D01*
X121974518Y-215524055D01*
X122107347Y-215435301D01*
X122254940Y-215374166D01*
X122411622Y-215343000D01*
X122571378Y-215343000D01*
X122728060Y-215374166D01*
X122728060Y-215374166D01*
G37*
G36*
X125268060Y-215374166D02*
G01*
X125415653Y-215435301D01*
X125548482Y-215524055D01*
X125661445Y-215637018D01*
X125750199Y-215769847D01*
X125811334Y-215917440D01*
X125842500Y-216074123D01*
X125842500Y-216233877D01*
X125811334Y-216390560D01*
X125750199Y-216538153D01*
X125661445Y-216670982D01*
X125548482Y-216783945D01*
X125415653Y-216872699D01*
X125415652Y-216872700D01*
X125415651Y-216872700D01*
X125268060Y-216933834D01*
X125111378Y-216965000D01*
X124951622Y-216965000D01*
X124794940Y-216933834D01*
X124647349Y-216872700D01*
X124647348Y-216872700D01*
X124647347Y-216872699D01*
X124514518Y-216783945D01*
X124401555Y-216670982D01*
X124312801Y-216538153D01*
X124251666Y-216390560D01*
X124220500Y-216233877D01*
X124220500Y-216074123D01*
X124251666Y-215917440D01*
X124312801Y-215769847D01*
X124401555Y-215637018D01*
X124514518Y-215524055D01*
X124647347Y-215435301D01*
X124794940Y-215374166D01*
X124951622Y-215343000D01*
X125111378Y-215343000D01*
X125268060Y-215374166D01*
X125268060Y-215374166D01*
G37*
G36*
X127808060Y-215374166D02*
G01*
X127955653Y-215435301D01*
X128088482Y-215524055D01*
X128201445Y-215637018D01*
X128290199Y-215769847D01*
X128351334Y-215917440D01*
X128382500Y-216074123D01*
X128382500Y-216233877D01*
X128351334Y-216390560D01*
X128290199Y-216538153D01*
X128201445Y-216670982D01*
X128088482Y-216783945D01*
X127955653Y-216872699D01*
X127955652Y-216872700D01*
X127955651Y-216872700D01*
X127808060Y-216933834D01*
X127651378Y-216965000D01*
X127491622Y-216965000D01*
X127334940Y-216933834D01*
X127187349Y-216872700D01*
X127187348Y-216872700D01*
X127187347Y-216872699D01*
X127054518Y-216783945D01*
X126941555Y-216670982D01*
X126852801Y-216538153D01*
X126791666Y-216390560D01*
X126760500Y-216233877D01*
X126760500Y-216074123D01*
X126791666Y-215917440D01*
X126852801Y-215769847D01*
X126941555Y-215637018D01*
X127054518Y-215524055D01*
X127187347Y-215435301D01*
X127334940Y-215374166D01*
X127491622Y-215343000D01*
X127651378Y-215343000D01*
X127808060Y-215374166D01*
X127808060Y-215374166D01*
G37*
G36*
X130348060Y-215374166D02*
G01*
X130495653Y-215435301D01*
X130628482Y-215524055D01*
X130741445Y-215637018D01*
X130830199Y-215769847D01*
X130891334Y-215917440D01*
X130922500Y-216074123D01*
X130922500Y-216233877D01*
X130891334Y-216390560D01*
X130830199Y-216538153D01*
X130741445Y-216670982D01*
X130628482Y-216783945D01*
X130495653Y-216872699D01*
X130495652Y-216872700D01*
X130495651Y-216872700D01*
X130348060Y-216933834D01*
X130191378Y-216965000D01*
X130031622Y-216965000D01*
X129874940Y-216933834D01*
X129727349Y-216872700D01*
X129727348Y-216872700D01*
X129727347Y-216872699D01*
X129594518Y-216783945D01*
X129481555Y-216670982D01*
X129392801Y-216538153D01*
X129331666Y-216390560D01*
X129300500Y-216233877D01*
X129300500Y-216074123D01*
X129331666Y-215917440D01*
X129392801Y-215769847D01*
X129481555Y-215637018D01*
X129594518Y-215524055D01*
X129727347Y-215435301D01*
X129874940Y-215374166D01*
X130031622Y-215343000D01*
X130191378Y-215343000D01*
X130348060Y-215374166D01*
X130348060Y-215374166D01*
G37*
G36*
X132888060Y-215374166D02*
G01*
X133035653Y-215435301D01*
X133168482Y-215524055D01*
X133281445Y-215637018D01*
X133370199Y-215769847D01*
X133431334Y-215917440D01*
X133462500Y-216074123D01*
X133462500Y-216233877D01*
X133431334Y-216390560D01*
X133370199Y-216538153D01*
X133281445Y-216670982D01*
X133168482Y-216783945D01*
X133035653Y-216872699D01*
X133035652Y-216872700D01*
X133035651Y-216872700D01*
X132888060Y-216933834D01*
X132731378Y-216965000D01*
X132571622Y-216965000D01*
X132414940Y-216933834D01*
X132267349Y-216872700D01*
X132267348Y-216872700D01*
X132267347Y-216872699D01*
X132134518Y-216783945D01*
X132021555Y-216670982D01*
X131932801Y-216538153D01*
X131871666Y-216390560D01*
X131840500Y-216233877D01*
X131840500Y-216074123D01*
X131871666Y-215917440D01*
X131932801Y-215769847D01*
X132021555Y-215637018D01*
X132134518Y-215524055D01*
X132267347Y-215435301D01*
X132414940Y-215374166D01*
X132571622Y-215343000D01*
X132731378Y-215343000D01*
X132888060Y-215374166D01*
X132888060Y-215374166D01*
G37*
G36*
X112568060Y-215374166D02*
G01*
X112715653Y-215435301D01*
X112848482Y-215524055D01*
X112961445Y-215637018D01*
X113050199Y-215769847D01*
X113111334Y-215917440D01*
X113142500Y-216074123D01*
X113142500Y-216233877D01*
X113111334Y-216390560D01*
X113050199Y-216538153D01*
X112961445Y-216670982D01*
X112848482Y-216783945D01*
X112715653Y-216872699D01*
X112715652Y-216872700D01*
X112715651Y-216872700D01*
X112568060Y-216933834D01*
X112411378Y-216965000D01*
X112251622Y-216965000D01*
X112094940Y-216933834D01*
X111947349Y-216872700D01*
X111947348Y-216872700D01*
X111947347Y-216872699D01*
X111814518Y-216783945D01*
X111701555Y-216670982D01*
X111612801Y-216538153D01*
X111551666Y-216390560D01*
X111520500Y-216233877D01*
X111520500Y-216074123D01*
X111551666Y-215917440D01*
X111612801Y-215769847D01*
X111701555Y-215637018D01*
X111814518Y-215524055D01*
X111947347Y-215435301D01*
X112094940Y-215374166D01*
X112251622Y-215343000D01*
X112411378Y-215343000D01*
X112568060Y-215374166D01*
X112568060Y-215374166D01*
G37*
G36*
X120188060Y-212834166D02*
G01*
X120335653Y-212895301D01*
X120468482Y-212984055D01*
X120581445Y-213097018D01*
X120670199Y-213229847D01*
X120731334Y-213377440D01*
X120762500Y-213534123D01*
X120762500Y-213693877D01*
X120731334Y-213850560D01*
X120670199Y-213998153D01*
X120581445Y-214130982D01*
X120468482Y-214243945D01*
X120335653Y-214332699D01*
X120335652Y-214332700D01*
X120335651Y-214332700D01*
X120188060Y-214393834D01*
X120031378Y-214425000D01*
X119871622Y-214425000D01*
X119714940Y-214393834D01*
X119567349Y-214332700D01*
X119567348Y-214332700D01*
X119567347Y-214332699D01*
X119434518Y-214243945D01*
X119321555Y-214130982D01*
X119232801Y-213998153D01*
X119171666Y-213850560D01*
X119140500Y-213693877D01*
X119140500Y-213534123D01*
X119171666Y-213377440D01*
X119232801Y-213229847D01*
X119321555Y-213097018D01*
X119434518Y-212984055D01*
X119567347Y-212895301D01*
X119714940Y-212834166D01*
X119871622Y-212803000D01*
X120031378Y-212803000D01*
X120188060Y-212834166D01*
X120188060Y-212834166D01*
G37*
G36*
X135428060Y-212834166D02*
G01*
X135575653Y-212895301D01*
X135708482Y-212984055D01*
X135821445Y-213097018D01*
X135910199Y-213229847D01*
X135971334Y-213377440D01*
X136002500Y-213534123D01*
X136002500Y-213693877D01*
X135971334Y-213850560D01*
X135910199Y-213998153D01*
X135821445Y-214130982D01*
X135708482Y-214243945D01*
X135575653Y-214332699D01*
X135575652Y-214332700D01*
X135575651Y-214332700D01*
X135428060Y-214393834D01*
X135271378Y-214425000D01*
X135111622Y-214425000D01*
X134954940Y-214393834D01*
X134807349Y-214332700D01*
X134807348Y-214332700D01*
X134807347Y-214332699D01*
X134674518Y-214243945D01*
X134561555Y-214130982D01*
X134472801Y-213998153D01*
X134411666Y-213850560D01*
X134380500Y-213693877D01*
X134380500Y-213534123D01*
X134411666Y-213377440D01*
X134472801Y-213229847D01*
X134561555Y-213097018D01*
X134674518Y-212984055D01*
X134807347Y-212895301D01*
X134954940Y-212834166D01*
X135111622Y-212803000D01*
X135271378Y-212803000D01*
X135428060Y-212834166D01*
X135428060Y-212834166D01*
G37*
G36*
X117648060Y-212834166D02*
G01*
X117795653Y-212895301D01*
X117928482Y-212984055D01*
X118041445Y-213097018D01*
X118130199Y-213229847D01*
X118191334Y-213377440D01*
X118222500Y-213534123D01*
X118222500Y-213693877D01*
X118191334Y-213850560D01*
X118130199Y-213998153D01*
X118041445Y-214130982D01*
X117928482Y-214243945D01*
X117795653Y-214332699D01*
X117795652Y-214332700D01*
X117795651Y-214332700D01*
X117648060Y-214393834D01*
X117491378Y-214425000D01*
X117331622Y-214425000D01*
X117174940Y-214393834D01*
X117027349Y-214332700D01*
X117027348Y-214332700D01*
X117027347Y-214332699D01*
X116894518Y-214243945D01*
X116781555Y-214130982D01*
X116692801Y-213998153D01*
X116631666Y-213850560D01*
X116600500Y-213693877D01*
X116600500Y-213534123D01*
X116631666Y-213377440D01*
X116692801Y-213229847D01*
X116781555Y-213097018D01*
X116894518Y-212984055D01*
X117027347Y-212895301D01*
X117174940Y-212834166D01*
X117331622Y-212803000D01*
X117491378Y-212803000D01*
X117648060Y-212834166D01*
X117648060Y-212834166D01*
G37*
G36*
X115108060Y-212834166D02*
G01*
X115255653Y-212895301D01*
X115388482Y-212984055D01*
X115501445Y-213097018D01*
X115590199Y-213229847D01*
X115651334Y-213377440D01*
X115682500Y-213534123D01*
X115682500Y-213693877D01*
X115651334Y-213850560D01*
X115590199Y-213998153D01*
X115501445Y-214130982D01*
X115388482Y-214243945D01*
X115255653Y-214332699D01*
X115255652Y-214332700D01*
X115255651Y-214332700D01*
X115108060Y-214393834D01*
X114951378Y-214425000D01*
X114791622Y-214425000D01*
X114634940Y-214393834D01*
X114487349Y-214332700D01*
X114487348Y-214332700D01*
X114487347Y-214332699D01*
X114354518Y-214243945D01*
X114241555Y-214130982D01*
X114152801Y-213998153D01*
X114091666Y-213850560D01*
X114060500Y-213693877D01*
X114060500Y-213534123D01*
X114091666Y-213377440D01*
X114152801Y-213229847D01*
X114241555Y-213097018D01*
X114354518Y-212984055D01*
X114487347Y-212895301D01*
X114634940Y-212834166D01*
X114791622Y-212803000D01*
X114951378Y-212803000D01*
X115108060Y-212834166D01*
X115108060Y-212834166D01*
G37*
G36*
X112568060Y-212834166D02*
G01*
X112715653Y-212895301D01*
X112848482Y-212984055D01*
X112961445Y-213097018D01*
X113050199Y-213229847D01*
X113111334Y-213377440D01*
X113142500Y-213534123D01*
X113142500Y-213693877D01*
X113111334Y-213850560D01*
X113050199Y-213998153D01*
X112961445Y-214130982D01*
X112848482Y-214243945D01*
X112715653Y-214332699D01*
X112715652Y-214332700D01*
X112715651Y-214332700D01*
X112568060Y-214393834D01*
X112411378Y-214425000D01*
X112251622Y-214425000D01*
X112094940Y-214393834D01*
X111947349Y-214332700D01*
X111947348Y-214332700D01*
X111947347Y-214332699D01*
X111814518Y-214243945D01*
X111701555Y-214130982D01*
X111612801Y-213998153D01*
X111551666Y-213850560D01*
X111520500Y-213693877D01*
X111520500Y-213534123D01*
X111551666Y-213377440D01*
X111612801Y-213229847D01*
X111701555Y-213097018D01*
X111814518Y-212984055D01*
X111947347Y-212895301D01*
X112094940Y-212834166D01*
X112251622Y-212803000D01*
X112411378Y-212803000D01*
X112568060Y-212834166D01*
X112568060Y-212834166D01*
G37*
G36*
X178608060Y-212834166D02*
G01*
X178755653Y-212895301D01*
X178888482Y-212984055D01*
X179001445Y-213097018D01*
X179090199Y-213229847D01*
X179151334Y-213377440D01*
X179182500Y-213534123D01*
X179182500Y-213693877D01*
X179151334Y-213850560D01*
X179090199Y-213998153D01*
X179001445Y-214130982D01*
X178888482Y-214243945D01*
X178755653Y-214332699D01*
X178755652Y-214332700D01*
X178755651Y-214332700D01*
X178608060Y-214393834D01*
X178451378Y-214425000D01*
X178291622Y-214425000D01*
X178134940Y-214393834D01*
X177987349Y-214332700D01*
X177987348Y-214332700D01*
X177987347Y-214332699D01*
X177854518Y-214243945D01*
X177741555Y-214130982D01*
X177652801Y-213998153D01*
X177591666Y-213850560D01*
X177560500Y-213693877D01*
X177560500Y-213534123D01*
X177591666Y-213377440D01*
X177652801Y-213229847D01*
X177741555Y-213097018D01*
X177854518Y-212984055D01*
X177987347Y-212895301D01*
X178134940Y-212834166D01*
X178291622Y-212803000D01*
X178451378Y-212803000D01*
X178608060Y-212834166D01*
X178608060Y-212834166D01*
G37*
G36*
X181148060Y-212834166D02*
G01*
X181295653Y-212895301D01*
X181428482Y-212984055D01*
X181541445Y-213097018D01*
X181630199Y-213229847D01*
X181691334Y-213377440D01*
X181722500Y-213534123D01*
X181722500Y-213693877D01*
X181691334Y-213850560D01*
X181630199Y-213998153D01*
X181541445Y-214130982D01*
X181428482Y-214243945D01*
X181295653Y-214332699D01*
X181295652Y-214332700D01*
X181295651Y-214332700D01*
X181148060Y-214393834D01*
X180991378Y-214425000D01*
X180831622Y-214425000D01*
X180674940Y-214393834D01*
X180527349Y-214332700D01*
X180527348Y-214332700D01*
X180527347Y-214332699D01*
X180394518Y-214243945D01*
X180281555Y-214130982D01*
X180192801Y-213998153D01*
X180131666Y-213850560D01*
X180100500Y-213693877D01*
X180100500Y-213534123D01*
X180131666Y-213377440D01*
X180192801Y-213229847D01*
X180281555Y-213097018D01*
X180394518Y-212984055D01*
X180527347Y-212895301D01*
X180674940Y-212834166D01*
X180831622Y-212803000D01*
X180991378Y-212803000D01*
X181148060Y-212834166D01*
X181148060Y-212834166D01*
G37*
G36*
X183688060Y-212834166D02*
G01*
X183835653Y-212895301D01*
X183968482Y-212984055D01*
X184081445Y-213097018D01*
X184170199Y-213229847D01*
X184231334Y-213377440D01*
X184262500Y-213534123D01*
X184262500Y-213693877D01*
X184231334Y-213850560D01*
X184170199Y-213998153D01*
X184081445Y-214130982D01*
X183968482Y-214243945D01*
X183835653Y-214332699D01*
X183835652Y-214332700D01*
X183835651Y-214332700D01*
X183688060Y-214393834D01*
X183531378Y-214425000D01*
X183371622Y-214425000D01*
X183214940Y-214393834D01*
X183067349Y-214332700D01*
X183067348Y-214332700D01*
X183067347Y-214332699D01*
X182934518Y-214243945D01*
X182821555Y-214130982D01*
X182732801Y-213998153D01*
X182671666Y-213850560D01*
X182640500Y-213693877D01*
X182640500Y-213534123D01*
X182671666Y-213377440D01*
X182732801Y-213229847D01*
X182821555Y-213097018D01*
X182934518Y-212984055D01*
X183067347Y-212895301D01*
X183214940Y-212834166D01*
X183371622Y-212803000D01*
X183531378Y-212803000D01*
X183688060Y-212834166D01*
X183688060Y-212834166D01*
G37*
G36*
X193848060Y-212834166D02*
G01*
X193995653Y-212895301D01*
X194128482Y-212984055D01*
X194241445Y-213097018D01*
X194330199Y-213229847D01*
X194391334Y-213377440D01*
X194422500Y-213534123D01*
X194422500Y-213693877D01*
X194391334Y-213850560D01*
X194330199Y-213998153D01*
X194241445Y-214130982D01*
X194128482Y-214243945D01*
X193995653Y-214332699D01*
X193995652Y-214332700D01*
X193995651Y-214332700D01*
X193848060Y-214393834D01*
X193691378Y-214425000D01*
X193531622Y-214425000D01*
X193374940Y-214393834D01*
X193227349Y-214332700D01*
X193227348Y-214332700D01*
X193227347Y-214332699D01*
X193094518Y-214243945D01*
X192981555Y-214130982D01*
X192892801Y-213998153D01*
X192831666Y-213850560D01*
X192800500Y-213693877D01*
X192800500Y-213534123D01*
X192831666Y-213377440D01*
X192892801Y-213229847D01*
X192981555Y-213097018D01*
X193094518Y-212984055D01*
X193227347Y-212895301D01*
X193374940Y-212834166D01*
X193531622Y-212803000D01*
X193691378Y-212803000D01*
X193848060Y-212834166D01*
X193848060Y-212834166D01*
G37*
G36*
X198928060Y-212834166D02*
G01*
X199075653Y-212895301D01*
X199208482Y-212984055D01*
X199321445Y-213097018D01*
X199410199Y-213229847D01*
X199471334Y-213377440D01*
X199502500Y-213534123D01*
X199502500Y-213693877D01*
X199471334Y-213850560D01*
X199410199Y-213998153D01*
X199321445Y-214130982D01*
X199208482Y-214243945D01*
X199075653Y-214332699D01*
X199075652Y-214332700D01*
X199075651Y-214332700D01*
X198928060Y-214393834D01*
X198771378Y-214425000D01*
X198611622Y-214425000D01*
X198454940Y-214393834D01*
X198307349Y-214332700D01*
X198307348Y-214332700D01*
X198307347Y-214332699D01*
X198174518Y-214243945D01*
X198061555Y-214130982D01*
X197972801Y-213998153D01*
X197911666Y-213850560D01*
X197880500Y-213693877D01*
X197880500Y-213534123D01*
X197911666Y-213377440D01*
X197972801Y-213229847D01*
X198061555Y-213097018D01*
X198174518Y-212984055D01*
X198307347Y-212895301D01*
X198454940Y-212834166D01*
X198611622Y-212803000D01*
X198771378Y-212803000D01*
X198928060Y-212834166D01*
X198928060Y-212834166D01*
G37*
G36*
X122728060Y-212834166D02*
G01*
X122875653Y-212895301D01*
X123008482Y-212984055D01*
X123121445Y-213097018D01*
X123210199Y-213229847D01*
X123271334Y-213377440D01*
X123302500Y-213534123D01*
X123302500Y-213693877D01*
X123271334Y-213850560D01*
X123210199Y-213998153D01*
X123121445Y-214130982D01*
X123008482Y-214243945D01*
X122875653Y-214332699D01*
X122875652Y-214332700D01*
X122875651Y-214332700D01*
X122728060Y-214393834D01*
X122571378Y-214425000D01*
X122411622Y-214425000D01*
X122254940Y-214393834D01*
X122107349Y-214332700D01*
X122107348Y-214332700D01*
X122107347Y-214332699D01*
X121974518Y-214243945D01*
X121861555Y-214130982D01*
X121772801Y-213998153D01*
X121711666Y-213850560D01*
X121680500Y-213693877D01*
X121680500Y-213534123D01*
X121711666Y-213377440D01*
X121772801Y-213229847D01*
X121861555Y-213097018D01*
X121974518Y-212984055D01*
X122107347Y-212895301D01*
X122254940Y-212834166D01*
X122411622Y-212803000D01*
X122571378Y-212803000D01*
X122728060Y-212834166D01*
X122728060Y-212834166D01*
G37*
G36*
X127808060Y-212834166D02*
G01*
X127955653Y-212895301D01*
X128088482Y-212984055D01*
X128201445Y-213097018D01*
X128290199Y-213229847D01*
X128351334Y-213377440D01*
X128382500Y-213534123D01*
X128382500Y-213693877D01*
X128351334Y-213850560D01*
X128290199Y-213998153D01*
X128201445Y-214130982D01*
X128088482Y-214243945D01*
X127955653Y-214332699D01*
X127955652Y-214332700D01*
X127955651Y-214332700D01*
X127808060Y-214393834D01*
X127651378Y-214425000D01*
X127491622Y-214425000D01*
X127334940Y-214393834D01*
X127187349Y-214332700D01*
X127187348Y-214332700D01*
X127187347Y-214332699D01*
X127054518Y-214243945D01*
X126941555Y-214130982D01*
X126852801Y-213998153D01*
X126791666Y-213850560D01*
X126760500Y-213693877D01*
X126760500Y-213534123D01*
X126791666Y-213377440D01*
X126852801Y-213229847D01*
X126941555Y-213097018D01*
X127054518Y-212984055D01*
X127187347Y-212895301D01*
X127334940Y-212834166D01*
X127491622Y-212803000D01*
X127651378Y-212803000D01*
X127808060Y-212834166D01*
X127808060Y-212834166D01*
G37*
G36*
X130348060Y-212834166D02*
G01*
X130495653Y-212895301D01*
X130628482Y-212984055D01*
X130741445Y-213097018D01*
X130830199Y-213229847D01*
X130891334Y-213377440D01*
X130922500Y-213534123D01*
X130922500Y-213693877D01*
X130891334Y-213850560D01*
X130830199Y-213998153D01*
X130741445Y-214130982D01*
X130628482Y-214243945D01*
X130495653Y-214332699D01*
X130495652Y-214332700D01*
X130495651Y-214332700D01*
X130348060Y-214393834D01*
X130191378Y-214425000D01*
X130031622Y-214425000D01*
X129874940Y-214393834D01*
X129727349Y-214332700D01*
X129727348Y-214332700D01*
X129727347Y-214332699D01*
X129594518Y-214243945D01*
X129481555Y-214130982D01*
X129392801Y-213998153D01*
X129331666Y-213850560D01*
X129300500Y-213693877D01*
X129300500Y-213534123D01*
X129331666Y-213377440D01*
X129392801Y-213229847D01*
X129481555Y-213097018D01*
X129594518Y-212984055D01*
X129727347Y-212895301D01*
X129874940Y-212834166D01*
X130031622Y-212803000D01*
X130191378Y-212803000D01*
X130348060Y-212834166D01*
X130348060Y-212834166D01*
G37*
G36*
X132888060Y-212834166D02*
G01*
X133035653Y-212895301D01*
X133168482Y-212984055D01*
X133281445Y-213097018D01*
X133370199Y-213229847D01*
X133431334Y-213377440D01*
X133462500Y-213534123D01*
X133462500Y-213693877D01*
X133431334Y-213850560D01*
X133370199Y-213998153D01*
X133281445Y-214130982D01*
X133168482Y-214243945D01*
X133035653Y-214332699D01*
X133035652Y-214332700D01*
X133035651Y-214332700D01*
X132888060Y-214393834D01*
X132731378Y-214425000D01*
X132571622Y-214425000D01*
X132414940Y-214393834D01*
X132267349Y-214332700D01*
X132267348Y-214332700D01*
X132267347Y-214332699D01*
X132134518Y-214243945D01*
X132021555Y-214130982D01*
X131932801Y-213998153D01*
X131871666Y-213850560D01*
X131840500Y-213693877D01*
X131840500Y-213534123D01*
X131871666Y-213377440D01*
X131932801Y-213229847D01*
X132021555Y-213097018D01*
X132134518Y-212984055D01*
X132267347Y-212895301D01*
X132414940Y-212834166D01*
X132571622Y-212803000D01*
X132731378Y-212803000D01*
X132888060Y-212834166D01*
X132888060Y-212834166D01*
G37*
G36*
X176068060Y-212834166D02*
G01*
X176215653Y-212895301D01*
X176348482Y-212984055D01*
X176461445Y-213097018D01*
X176550199Y-213229847D01*
X176611334Y-213377440D01*
X176642500Y-213534123D01*
X176642500Y-213693877D01*
X176611334Y-213850560D01*
X176550199Y-213998153D01*
X176461445Y-214130982D01*
X176348482Y-214243945D01*
X176215653Y-214332699D01*
X176215652Y-214332700D01*
X176215651Y-214332700D01*
X176068060Y-214393834D01*
X175911378Y-214425000D01*
X175751622Y-214425000D01*
X175594940Y-214393834D01*
X175447349Y-214332700D01*
X175447348Y-214332700D01*
X175447347Y-214332699D01*
X175314518Y-214243945D01*
X175201555Y-214130982D01*
X175112801Y-213998153D01*
X175051666Y-213850560D01*
X175020500Y-213693877D01*
X175020500Y-213534123D01*
X175051666Y-213377440D01*
X175112801Y-213229847D01*
X175201555Y-213097018D01*
X175314518Y-212984055D01*
X175447347Y-212895301D01*
X175594940Y-212834166D01*
X175751622Y-212803000D01*
X175911378Y-212803000D01*
X176068060Y-212834166D01*
X176068060Y-212834166D01*
G37*
G36*
X188768060Y-212834166D02*
G01*
X188915653Y-212895301D01*
X189048482Y-212984055D01*
X189161445Y-213097018D01*
X189250199Y-213229847D01*
X189311334Y-213377440D01*
X189342500Y-213534123D01*
X189342500Y-213693877D01*
X189311334Y-213850560D01*
X189250199Y-213998153D01*
X189161445Y-214130982D01*
X189048482Y-214243945D01*
X188915653Y-214332699D01*
X188915652Y-214332700D01*
X188915651Y-214332700D01*
X188768060Y-214393834D01*
X188611378Y-214425000D01*
X188451622Y-214425000D01*
X188294940Y-214393834D01*
X188147349Y-214332700D01*
X188147348Y-214332700D01*
X188147347Y-214332699D01*
X188014518Y-214243945D01*
X187901555Y-214130982D01*
X187812801Y-213998153D01*
X187751666Y-213850560D01*
X187720500Y-213693877D01*
X187720500Y-213534123D01*
X187751666Y-213377440D01*
X187812801Y-213229847D01*
X187901555Y-213097018D01*
X188014518Y-212984055D01*
X188147347Y-212895301D01*
X188294940Y-212834166D01*
X188451622Y-212803000D01*
X188611378Y-212803000D01*
X188768060Y-212834166D01*
X188768060Y-212834166D01*
G37*
G36*
X191308060Y-212834166D02*
G01*
X191455653Y-212895301D01*
X191588482Y-212984055D01*
X191701445Y-213097018D01*
X191790199Y-213229847D01*
X191851334Y-213377440D01*
X191882500Y-213534123D01*
X191882500Y-213693877D01*
X191851334Y-213850560D01*
X191790199Y-213998153D01*
X191701445Y-214130982D01*
X191588482Y-214243945D01*
X191455653Y-214332699D01*
X191455652Y-214332700D01*
X191455651Y-214332700D01*
X191308060Y-214393834D01*
X191151378Y-214425000D01*
X190991622Y-214425000D01*
X190834940Y-214393834D01*
X190687349Y-214332700D01*
X190687348Y-214332700D01*
X190687347Y-214332699D01*
X190554518Y-214243945D01*
X190441555Y-214130982D01*
X190352801Y-213998153D01*
X190291666Y-213850560D01*
X190260500Y-213693877D01*
X190260500Y-213534123D01*
X190291666Y-213377440D01*
X190352801Y-213229847D01*
X190441555Y-213097018D01*
X190554518Y-212984055D01*
X190687347Y-212895301D01*
X190834940Y-212834166D01*
X190991622Y-212803000D01*
X191151378Y-212803000D01*
X191308060Y-212834166D01*
X191308060Y-212834166D01*
G37*
G36*
X196388060Y-212834166D02*
G01*
X196535653Y-212895301D01*
X196668482Y-212984055D01*
X196781445Y-213097018D01*
X196870199Y-213229847D01*
X196931334Y-213377440D01*
X196962500Y-213534123D01*
X196962500Y-213693877D01*
X196931334Y-213850560D01*
X196870199Y-213998153D01*
X196781445Y-214130982D01*
X196668482Y-214243945D01*
X196535653Y-214332699D01*
X196535652Y-214332700D01*
X196535651Y-214332700D01*
X196388060Y-214393834D01*
X196231378Y-214425000D01*
X196071622Y-214425000D01*
X195914940Y-214393834D01*
X195767349Y-214332700D01*
X195767348Y-214332700D01*
X195767347Y-214332699D01*
X195634518Y-214243945D01*
X195521555Y-214130982D01*
X195432801Y-213998153D01*
X195371666Y-213850560D01*
X195340500Y-213693877D01*
X195340500Y-213534123D01*
X195371666Y-213377440D01*
X195432801Y-213229847D01*
X195521555Y-213097018D01*
X195634518Y-212984055D01*
X195767347Y-212895301D01*
X195914940Y-212834166D01*
X196071622Y-212803000D01*
X196231378Y-212803000D01*
X196388060Y-212834166D01*
X196388060Y-212834166D01*
G37*
G36*
X186228060Y-212834166D02*
G01*
X186375653Y-212895301D01*
X186508482Y-212984055D01*
X186621445Y-213097018D01*
X186710199Y-213229847D01*
X186771334Y-213377440D01*
X186802500Y-213534123D01*
X186802500Y-213693877D01*
X186771334Y-213850560D01*
X186710199Y-213998153D01*
X186621445Y-214130982D01*
X186508482Y-214243945D01*
X186375653Y-214332699D01*
X186375652Y-214332700D01*
X186375651Y-214332700D01*
X186228060Y-214393834D01*
X186071378Y-214425000D01*
X185911622Y-214425000D01*
X185754940Y-214393834D01*
X185607349Y-214332700D01*
X185607348Y-214332700D01*
X185607347Y-214332699D01*
X185474518Y-214243945D01*
X185361555Y-214130982D01*
X185272801Y-213998153D01*
X185211666Y-213850560D01*
X185180500Y-213693877D01*
X185180500Y-213534123D01*
X185211666Y-213377440D01*
X185272801Y-213229847D01*
X185361555Y-213097018D01*
X185474518Y-212984055D01*
X185607347Y-212895301D01*
X185754940Y-212834166D01*
X185911622Y-212803000D01*
X186071378Y-212803000D01*
X186228060Y-212834166D01*
X186228060Y-212834166D01*
G37*
G36*
X125268060Y-212834166D02*
G01*
X125415653Y-212895301D01*
X125548482Y-212984055D01*
X125661445Y-213097018D01*
X125750199Y-213229847D01*
X125811334Y-213377440D01*
X125842500Y-213534123D01*
X125842500Y-213693877D01*
X125811334Y-213850560D01*
X125750199Y-213998153D01*
X125661445Y-214130982D01*
X125548482Y-214243945D01*
X125415653Y-214332699D01*
X125415652Y-214332700D01*
X125415651Y-214332700D01*
X125268060Y-214393834D01*
X125111378Y-214425000D01*
X124951622Y-214425000D01*
X124794940Y-214393834D01*
X124647349Y-214332700D01*
X124647348Y-214332700D01*
X124647347Y-214332699D01*
X124514518Y-214243945D01*
X124401555Y-214130982D01*
X124312801Y-213998153D01*
X124251666Y-213850560D01*
X124220500Y-213693877D01*
X124220500Y-213534123D01*
X124251666Y-213377440D01*
X124312801Y-213229847D01*
X124401555Y-213097018D01*
X124514518Y-212984055D01*
X124647347Y-212895301D01*
X124794940Y-212834166D01*
X124951622Y-212803000D01*
X125111378Y-212803000D01*
X125268060Y-212834166D01*
X125268060Y-212834166D01*
G37*
G36*
X213370039Y-210128250D02*
G01*
X213559372Y-210206675D01*
X213693251Y-210262129D01*
X213984134Y-210456491D01*
X214231509Y-210703866D01*
X214425871Y-210994749D01*
X214425871Y-210994750D01*
X214559750Y-211317961D01*
X214628000Y-211661078D01*
X214628000Y-212010922D01*
X214559750Y-212354039D01*
X214481325Y-212543372D01*
X214425871Y-212677251D01*
X214231509Y-212968134D01*
X213984134Y-213215509D01*
X213693251Y-213409871D01*
X213559372Y-213465325D01*
X213370039Y-213543750D01*
X213026922Y-213612000D01*
X212677078Y-213612000D01*
X212333961Y-213543750D01*
X212144628Y-213465325D01*
X212010749Y-213409871D01*
X211719866Y-213215509D01*
X211472491Y-212968134D01*
X211278129Y-212677251D01*
X211222675Y-212543372D01*
X211144250Y-212354039D01*
X211076000Y-212010922D01*
X211076000Y-211661078D01*
X211144250Y-211317961D01*
X211278129Y-210994750D01*
X211278129Y-210994749D01*
X211472491Y-210703866D01*
X211719866Y-210456491D01*
X212010749Y-210262129D01*
X212144628Y-210206675D01*
X212333961Y-210128250D01*
X212677078Y-210060000D01*
X213026922Y-210060000D01*
X213370039Y-210128250D01*
X213370039Y-210128250D01*
G37*
G36*
X204453142Y-209784242D02*
G01*
X204601101Y-209845529D01*
X204734255Y-209934499D01*
X204847501Y-210047745D01*
X204936471Y-210180899D01*
X204997758Y-210328858D01*
X205029000Y-210485925D01*
X205029000Y-210646075D01*
X204997758Y-210803142D01*
X204936471Y-210951101D01*
X204847501Y-211084255D01*
X204734255Y-211197501D01*
X204601101Y-211286471D01*
X204453142Y-211347758D01*
X204296075Y-211379000D01*
X204135925Y-211379000D01*
X203978858Y-211347758D01*
X203830899Y-211286471D01*
X203697745Y-211197501D01*
X203584499Y-211084255D01*
X203495529Y-210951101D01*
X203434242Y-210803142D01*
X203403000Y-210646075D01*
X203403000Y-210485925D01*
X203434242Y-210328858D01*
X203495529Y-210180899D01*
X203584499Y-210047745D01*
X203697745Y-209934499D01*
X203830899Y-209845529D01*
X203978858Y-209784242D01*
X204135925Y-209753000D01*
X204296075Y-209753000D01*
X204453142Y-209784242D01*
X204453142Y-209784242D01*
G37*
G36*
X204453142Y-207244242D02*
G01*
X204601101Y-207305529D01*
X204734255Y-207394499D01*
X204847501Y-207507745D01*
X204936471Y-207640899D01*
X204997758Y-207788858D01*
X205029000Y-207945925D01*
X205029000Y-208106075D01*
X204997758Y-208263142D01*
X204936471Y-208411101D01*
X204847501Y-208544255D01*
X204734255Y-208657501D01*
X204601101Y-208746471D01*
X204453142Y-208807758D01*
X204296075Y-208839000D01*
X204135925Y-208839000D01*
X203978858Y-208807758D01*
X203830899Y-208746471D01*
X203697745Y-208657501D01*
X203584499Y-208544255D01*
X203495529Y-208411101D01*
X203434242Y-208263142D01*
X203403000Y-208106075D01*
X203403000Y-207945925D01*
X203434242Y-207788858D01*
X203495529Y-207640899D01*
X203584499Y-207507745D01*
X203697745Y-207394499D01*
X203830899Y-207305529D01*
X203978858Y-207244242D01*
X204135925Y-207213000D01*
X204296075Y-207213000D01*
X204453142Y-207244242D01*
X204453142Y-207244242D01*
G37*
G36*
X183567564Y-206754505D02*
G01*
X183758833Y-206833731D01*
X183758835Y-206833732D01*
X183930973Y-206948751D01*
X184077365Y-207095143D01*
X184156115Y-207213000D01*
X184192385Y-207267283D01*
X184271611Y-207458552D01*
X184312000Y-207661600D01*
X184312000Y-207868632D01*
X184271611Y-208071680D01*
X184257364Y-208106075D01*
X184192384Y-208262951D01*
X184077365Y-208435089D01*
X183930973Y-208581481D01*
X183758835Y-208696500D01*
X183758834Y-208696501D01*
X183758833Y-208696501D01*
X183567564Y-208775727D01*
X183364516Y-208816116D01*
X183157484Y-208816116D01*
X182954436Y-208775727D01*
X182763167Y-208696501D01*
X182763166Y-208696501D01*
X182763165Y-208696500D01*
X182591027Y-208581481D01*
X182444635Y-208435089D01*
X182329616Y-208262951D01*
X182264636Y-208106075D01*
X182250389Y-208071680D01*
X182210000Y-207868632D01*
X182210000Y-207661600D01*
X182250389Y-207458552D01*
X182329615Y-207267283D01*
X182365886Y-207213000D01*
X182444635Y-207095143D01*
X182591027Y-206948751D01*
X182763165Y-206833732D01*
X182763167Y-206833731D01*
X182954436Y-206754505D01*
X183157484Y-206714116D01*
X183364516Y-206714116D01*
X183567564Y-206754505D01*
X183567564Y-206754505D01*
G37*
G36*
X168327564Y-206754505D02*
G01*
X168518833Y-206833731D01*
X168518835Y-206833732D01*
X168690973Y-206948751D01*
X168837365Y-207095143D01*
X168916115Y-207213000D01*
X168952385Y-207267283D01*
X169031611Y-207458552D01*
X169072000Y-207661600D01*
X169072000Y-207868632D01*
X169031611Y-208071680D01*
X169017364Y-208106075D01*
X168952384Y-208262951D01*
X168837365Y-208435089D01*
X168690973Y-208581481D01*
X168518835Y-208696500D01*
X168518834Y-208696501D01*
X168518833Y-208696501D01*
X168327564Y-208775727D01*
X168124516Y-208816116D01*
X167917484Y-208816116D01*
X167714436Y-208775727D01*
X167523167Y-208696501D01*
X167523166Y-208696501D01*
X167523165Y-208696500D01*
X167351027Y-208581481D01*
X167204635Y-208435089D01*
X167089616Y-208262951D01*
X167024636Y-208106075D01*
X167010389Y-208071680D01*
X166970000Y-207868632D01*
X166970000Y-207661600D01*
X167010389Y-207458552D01*
X167089615Y-207267283D01*
X167125886Y-207213000D01*
X167204635Y-207095143D01*
X167351027Y-206948751D01*
X167523165Y-206833732D01*
X167523167Y-206833731D01*
X167714436Y-206754505D01*
X167917484Y-206714116D01*
X168124516Y-206714116D01*
X168327564Y-206754505D01*
X168327564Y-206754505D01*
G37*
G36*
X204453142Y-204704242D02*
G01*
X204601101Y-204765529D01*
X204734255Y-204854499D01*
X204847501Y-204967745D01*
X204936471Y-205100899D01*
X204997758Y-205248858D01*
X205029000Y-205405925D01*
X205029000Y-205566075D01*
X204997758Y-205723142D01*
X204936471Y-205871101D01*
X204847501Y-206004255D01*
X204734255Y-206117501D01*
X204601101Y-206206471D01*
X204453142Y-206267758D01*
X204296075Y-206299000D01*
X204135925Y-206299000D01*
X203978858Y-206267758D01*
X203830899Y-206206471D01*
X203697745Y-206117501D01*
X203584499Y-206004255D01*
X203495529Y-205871101D01*
X203434242Y-205723142D01*
X203403000Y-205566075D01*
X203403000Y-205405925D01*
X203434242Y-205248858D01*
X203495529Y-205100899D01*
X203584499Y-204967745D01*
X203697745Y-204854499D01*
X203830899Y-204765529D01*
X203978858Y-204704242D01*
X204135925Y-204673000D01*
X204296075Y-204673000D01*
X204453142Y-204704242D01*
X204453142Y-204704242D01*
G37*
G36*
X183567564Y-204214505D02*
G01*
X183758833Y-204293731D01*
X183758835Y-204293732D01*
X183930973Y-204408751D01*
X184077365Y-204555143D01*
X184156115Y-204673000D01*
X184192385Y-204727283D01*
X184271611Y-204918552D01*
X184312000Y-205121600D01*
X184312000Y-205328632D01*
X184271611Y-205531680D01*
X184257364Y-205566075D01*
X184192384Y-205722951D01*
X184077365Y-205895089D01*
X183930973Y-206041481D01*
X183758835Y-206156500D01*
X183758834Y-206156501D01*
X183758833Y-206156501D01*
X183567564Y-206235727D01*
X183364516Y-206276116D01*
X183157484Y-206276116D01*
X182954436Y-206235727D01*
X182763167Y-206156501D01*
X182763166Y-206156501D01*
X182763165Y-206156500D01*
X182591027Y-206041481D01*
X182444635Y-205895089D01*
X182329616Y-205722951D01*
X182264636Y-205566075D01*
X182250389Y-205531680D01*
X182210000Y-205328632D01*
X182210000Y-205121600D01*
X182250389Y-204918552D01*
X182329615Y-204727283D01*
X182365886Y-204673000D01*
X182444635Y-204555143D01*
X182591027Y-204408751D01*
X182763165Y-204293732D01*
X182763167Y-204293731D01*
X182954436Y-204214505D01*
X183157484Y-204174116D01*
X183364516Y-204174116D01*
X183567564Y-204214505D01*
X183567564Y-204214505D01*
G37*
G36*
X168327564Y-204214505D02*
G01*
X168518833Y-204293731D01*
X168518835Y-204293732D01*
X168690973Y-204408751D01*
X168837365Y-204555143D01*
X168916115Y-204673000D01*
X168952385Y-204727283D01*
X169031611Y-204918552D01*
X169072000Y-205121600D01*
X169072000Y-205328632D01*
X169031611Y-205531680D01*
X169017364Y-205566075D01*
X168952384Y-205722951D01*
X168837365Y-205895089D01*
X168690973Y-206041481D01*
X168518835Y-206156500D01*
X168518834Y-206156501D01*
X168518833Y-206156501D01*
X168327564Y-206235727D01*
X168124516Y-206276116D01*
X167917484Y-206276116D01*
X167714436Y-206235727D01*
X167523167Y-206156501D01*
X167523166Y-206156501D01*
X167523165Y-206156500D01*
X167351027Y-206041481D01*
X167204635Y-205895089D01*
X167089616Y-205722951D01*
X167024636Y-205566075D01*
X167010389Y-205531680D01*
X166970000Y-205328632D01*
X166970000Y-205121600D01*
X167010389Y-204918552D01*
X167089615Y-204727283D01*
X167125886Y-204673000D01*
X167204635Y-204555143D01*
X167351027Y-204408751D01*
X167523165Y-204293732D01*
X167523167Y-204293731D01*
X167714436Y-204214505D01*
X167917484Y-204174116D01*
X168124516Y-204174116D01*
X168327564Y-204214505D01*
X168327564Y-204214505D01*
G37*
G36*
X204453142Y-202164242D02*
G01*
X204601101Y-202225529D01*
X204734255Y-202314499D01*
X204847501Y-202427745D01*
X204936471Y-202560899D01*
X204997758Y-202708858D01*
X205029000Y-202865925D01*
X205029000Y-203026075D01*
X204997758Y-203183142D01*
X204936471Y-203331101D01*
X204847501Y-203464255D01*
X204734255Y-203577501D01*
X204601101Y-203666471D01*
X204453142Y-203727758D01*
X204296075Y-203759000D01*
X204135925Y-203759000D01*
X203978858Y-203727758D01*
X203830899Y-203666471D01*
X203697745Y-203577501D01*
X203584499Y-203464255D01*
X203495529Y-203331101D01*
X203434242Y-203183142D01*
X203403000Y-203026075D01*
X203403000Y-202865925D01*
X203434242Y-202708858D01*
X203495529Y-202560899D01*
X203584499Y-202427745D01*
X203697745Y-202314499D01*
X203830899Y-202225529D01*
X203978858Y-202164242D01*
X204135925Y-202133000D01*
X204296075Y-202133000D01*
X204453142Y-202164242D01*
X204453142Y-202164242D01*
G37*
G36*
X213370039Y-199968250D02*
G01*
X213559372Y-200046675D01*
X213693251Y-200102129D01*
X213984134Y-200296491D01*
X214231509Y-200543866D01*
X214425871Y-200834749D01*
X214425871Y-200834750D01*
X214559750Y-201157961D01*
X214628000Y-201501078D01*
X214628000Y-201850922D01*
X214559750Y-202194039D01*
X214509853Y-202314501D01*
X214425871Y-202517251D01*
X214231509Y-202808134D01*
X213984134Y-203055509D01*
X213693251Y-203249871D01*
X213559372Y-203305325D01*
X213370039Y-203383750D01*
X213026922Y-203452000D01*
X212677078Y-203452000D01*
X212333961Y-203383750D01*
X212144628Y-203305325D01*
X212010749Y-203249871D01*
X211719866Y-203055509D01*
X211472491Y-202808134D01*
X211278129Y-202517251D01*
X211194147Y-202314501D01*
X211144250Y-202194039D01*
X211076000Y-201850922D01*
X211076000Y-201501078D01*
X211144250Y-201157961D01*
X211278129Y-200834750D01*
X211278129Y-200834749D01*
X211472491Y-200543866D01*
X211719866Y-200296491D01*
X212010749Y-200102129D01*
X212144628Y-200046675D01*
X212333961Y-199968250D01*
X212677078Y-199900000D01*
X213026922Y-199900000D01*
X213370039Y-199968250D01*
X213370039Y-199968250D01*
G37*
G36*
X168327564Y-199134505D02*
G01*
X168454298Y-199187000D01*
X168518835Y-199213732D01*
X168607708Y-199273115D01*
X168690973Y-199328751D01*
X168837365Y-199475143D01*
X168952385Y-199647283D01*
X169031611Y-199838552D01*
X169072000Y-200041600D01*
X169072000Y-200248632D01*
X169031611Y-200451680D01*
X168993426Y-200543866D01*
X168952384Y-200642951D01*
X168837365Y-200815089D01*
X168690973Y-200961481D01*
X168518835Y-201076500D01*
X168518834Y-201076501D01*
X168518833Y-201076501D01*
X168327564Y-201155727D01*
X168124516Y-201196116D01*
X167917484Y-201196116D01*
X167714436Y-201155727D01*
X167523167Y-201076501D01*
X167523166Y-201076501D01*
X167523165Y-201076500D01*
X167351027Y-200961481D01*
X167204635Y-200815089D01*
X167089616Y-200642951D01*
X167048574Y-200543866D01*
X167010389Y-200451680D01*
X166970000Y-200248632D01*
X166970000Y-200041600D01*
X167010389Y-199838552D01*
X167089615Y-199647283D01*
X167204635Y-199475143D01*
X167351027Y-199328751D01*
X167434292Y-199273115D01*
X167523165Y-199213732D01*
X167587702Y-199187000D01*
X167714436Y-199134505D01*
X167917484Y-199094116D01*
X168124516Y-199094116D01*
X168327564Y-199134505D01*
X168327564Y-199134505D01*
G37*
G36*
X129620908Y-194452380D02*
G01*
X129787767Y-194485570D01*
X130259299Y-194680885D01*
X130502029Y-194843073D01*
X130683666Y-194964438D01*
X131044562Y-195325334D01*
X131165927Y-195506971D01*
X131328115Y-195749701D01*
X131523430Y-196221233D01*
X131523430Y-196221234D01*
X131601906Y-196615758D01*
X131623000Y-196721809D01*
X131623000Y-197232191D01*
X131523430Y-197732767D01*
X131328115Y-198204299D01*
X131165927Y-198447029D01*
X131044562Y-198628666D01*
X130683666Y-198989562D01*
X130527189Y-199094116D01*
X130259299Y-199273115D01*
X129787767Y-199468430D01*
X129620908Y-199501620D01*
X129287193Y-199568000D01*
X128776807Y-199568000D01*
X128443092Y-199501620D01*
X128276233Y-199468430D01*
X127804701Y-199273115D01*
X127536811Y-199094116D01*
X127380334Y-198989562D01*
X127019438Y-198628666D01*
X126898073Y-198447029D01*
X126735885Y-198204299D01*
X126540570Y-197732767D01*
X126441000Y-197232191D01*
X126441000Y-196721809D01*
X126462095Y-196615758D01*
X126540570Y-196221234D01*
X126540570Y-196221233D01*
X126735885Y-195749701D01*
X126898073Y-195506971D01*
X127019438Y-195325334D01*
X127380334Y-194964438D01*
X127561971Y-194843073D01*
X127804701Y-194680885D01*
X128276233Y-194485570D01*
X128443092Y-194452380D01*
X128776807Y-194386000D01*
X129287193Y-194386000D01*
X129620908Y-194452380D01*
X129620908Y-194452380D01*
G37*
G36*
X144763142Y-197592242D02*
G01*
X144911101Y-197653529D01*
X145044255Y-197742499D01*
X145157501Y-197855745D01*
X145246471Y-197988899D01*
X145307758Y-198136858D01*
X145339000Y-198293925D01*
X145339000Y-198454075D01*
X145307758Y-198611142D01*
X145246471Y-198759101D01*
X145157501Y-198892255D01*
X145044255Y-199005501D01*
X144911101Y-199094471D01*
X144763142Y-199155758D01*
X144606075Y-199187000D01*
X144445925Y-199187000D01*
X144288858Y-199155758D01*
X144140899Y-199094471D01*
X144007745Y-199005501D01*
X143894499Y-198892255D01*
X143805529Y-198759101D01*
X143744242Y-198611142D01*
X143713000Y-198454075D01*
X143713000Y-198293925D01*
X143744242Y-198136858D01*
X143805529Y-197988899D01*
X143894499Y-197855745D01*
X144007745Y-197742499D01*
X144140899Y-197653529D01*
X144288858Y-197592242D01*
X144445925Y-197561000D01*
X144606075Y-197561000D01*
X144763142Y-197592242D01*
X144763142Y-197592242D01*
G37*
G36*
X144763142Y-195052242D02*
G01*
X144911101Y-195113529D01*
X145044255Y-195202499D01*
X145157501Y-195315745D01*
X145246471Y-195448899D01*
X145307758Y-195596858D01*
X145339000Y-195753925D01*
X145339000Y-195914075D01*
X145307758Y-196071142D01*
X145246471Y-196219101D01*
X145157501Y-196352255D01*
X145044255Y-196465501D01*
X144911101Y-196554471D01*
X144763142Y-196615758D01*
X144606075Y-196647000D01*
X144445925Y-196647000D01*
X144288858Y-196615758D01*
X144140899Y-196554471D01*
X144007745Y-196465501D01*
X143894499Y-196352255D01*
X143805529Y-196219101D01*
X143744242Y-196071142D01*
X143713000Y-195914075D01*
X143713000Y-195753925D01*
X143744242Y-195596858D01*
X143805529Y-195448899D01*
X143894499Y-195315745D01*
X144007745Y-195202499D01*
X144140899Y-195113529D01*
X144288858Y-195052242D01*
X144445925Y-195021000D01*
X144606075Y-195021000D01*
X144763142Y-195052242D01*
X144763142Y-195052242D01*
G37*
G36*
X144763142Y-192512242D02*
G01*
X144911101Y-192573529D01*
X145044255Y-192662499D01*
X145157501Y-192775745D01*
X145246471Y-192908899D01*
X145307758Y-193056858D01*
X145339000Y-193213925D01*
X145339000Y-193374075D01*
X145307758Y-193531142D01*
X145246471Y-193679101D01*
X145157501Y-193812255D01*
X145044255Y-193925501D01*
X144911101Y-194014471D01*
X144763142Y-194075758D01*
X144606075Y-194107000D01*
X144445925Y-194107000D01*
X144288858Y-194075758D01*
X144140899Y-194014471D01*
X144007745Y-193925501D01*
X143894499Y-193812255D01*
X143805529Y-193679101D01*
X143744242Y-193531142D01*
X143713000Y-193374075D01*
X143713000Y-193213925D01*
X143744242Y-193056858D01*
X143805529Y-192908899D01*
X143894499Y-192775745D01*
X144007745Y-192662499D01*
X144140899Y-192573529D01*
X144288858Y-192512242D01*
X144445925Y-192481000D01*
X144606075Y-192481000D01*
X144763142Y-192512242D01*
X144763142Y-192512242D01*
G37*
G36*
X129620908Y-186578380D02*
G01*
X129787767Y-186611570D01*
X130259299Y-186806885D01*
X130502029Y-186969073D01*
X130683666Y-187090438D01*
X131044562Y-187451334D01*
X131137126Y-187589867D01*
X131328115Y-187875701D01*
X131523430Y-188347233D01*
X131623000Y-188847809D01*
X131623000Y-189358191D01*
X131523430Y-189858767D01*
X131328115Y-190330299D01*
X131216060Y-190498000D01*
X131044562Y-190754666D01*
X130683666Y-191115562D01*
X130502029Y-191236927D01*
X130259299Y-191399115D01*
X129787767Y-191594430D01*
X129620908Y-191627620D01*
X129287193Y-191694000D01*
X128776807Y-191694000D01*
X128443092Y-191627620D01*
X128276233Y-191594430D01*
X127804701Y-191399115D01*
X127561971Y-191236927D01*
X127380334Y-191115562D01*
X127019438Y-190754666D01*
X126847940Y-190498000D01*
X126735885Y-190330299D01*
X126540570Y-189858767D01*
X126441000Y-189358191D01*
X126441000Y-188847809D01*
X126540570Y-188347233D01*
X126735885Y-187875701D01*
X126926874Y-187589867D01*
X127019438Y-187451334D01*
X127380334Y-187090438D01*
X127561971Y-186969073D01*
X127804701Y-186806885D01*
X128276233Y-186611570D01*
X128443092Y-186578380D01*
X128776807Y-186512000D01*
X129287193Y-186512000D01*
X129620908Y-186578380D01*
X129620908Y-186578380D01*
G37*
G36*
X228102039Y-187014250D02*
G01*
X228285972Y-187090438D01*
X228425251Y-187148129D01*
X228716134Y-187342491D01*
X228963509Y-187589866D01*
X229157871Y-187880749D01*
X229157871Y-187880750D01*
X229291750Y-188203961D01*
X229360000Y-188547078D01*
X229360000Y-188896922D01*
X229291750Y-189240039D01*
X229242809Y-189358193D01*
X229157871Y-189563251D01*
X228963509Y-189854134D01*
X228716134Y-190101509D01*
X228425251Y-190295871D01*
X228342139Y-190330297D01*
X228102039Y-190429750D01*
X227758922Y-190498000D01*
X227409078Y-190498000D01*
X227065961Y-190429750D01*
X226825861Y-190330297D01*
X226742749Y-190295871D01*
X226451866Y-190101509D01*
X226204491Y-189854134D01*
X226010129Y-189563251D01*
X225925191Y-189358193D01*
X225876250Y-189240039D01*
X225808000Y-188896922D01*
X225808000Y-188547078D01*
X225876250Y-188203961D01*
X226010129Y-187880750D01*
X226010129Y-187880749D01*
X226204491Y-187589866D01*
X226451866Y-187342491D01*
X226742749Y-187148129D01*
X226882028Y-187090438D01*
X227065961Y-187014250D01*
X227409078Y-186946000D01*
X227758922Y-186946000D01*
X228102039Y-187014250D01*
X228102039Y-187014250D01*
G37*
G36*
X219185142Y-186670242D02*
G01*
X219333101Y-186731529D01*
X219466255Y-186820499D01*
X219579501Y-186933745D01*
X219668471Y-187066899D01*
X219729758Y-187214858D01*
X219761000Y-187371925D01*
X219761000Y-187532075D01*
X219729758Y-187689142D01*
X219668471Y-187837101D01*
X219579501Y-187970255D01*
X219466255Y-188083501D01*
X219333101Y-188172471D01*
X219185142Y-188233758D01*
X219028075Y-188265000D01*
X218867925Y-188265000D01*
X218710858Y-188233758D01*
X218562899Y-188172471D01*
X218429745Y-188083501D01*
X218316499Y-187970255D01*
X218227529Y-187837101D01*
X218166242Y-187689142D01*
X218135000Y-187532075D01*
X218135000Y-187371925D01*
X218166242Y-187214858D01*
X218227529Y-187066899D01*
X218316499Y-186933745D01*
X218429745Y-186820499D01*
X218562899Y-186731529D01*
X218710858Y-186670242D01*
X218867925Y-186639000D01*
X219028075Y-186639000D01*
X219185142Y-186670242D01*
X219185142Y-186670242D01*
G37*
G36*
X144763142Y-184892242D02*
G01*
X144911101Y-184953529D01*
X145044255Y-185042499D01*
X145157501Y-185155745D01*
X145246471Y-185288899D01*
X145307758Y-185436858D01*
X145339000Y-185593925D01*
X145339000Y-185754075D01*
X145307758Y-185911142D01*
X145246471Y-186059101D01*
X145157501Y-186192255D01*
X145044255Y-186305501D01*
X144911101Y-186394471D01*
X144763142Y-186455758D01*
X144606075Y-186487000D01*
X144445925Y-186487000D01*
X144288858Y-186455758D01*
X144140899Y-186394471D01*
X144007745Y-186305501D01*
X143894499Y-186192255D01*
X143805529Y-186059101D01*
X143744242Y-185911142D01*
X143713000Y-185754075D01*
X143713000Y-185593925D01*
X143744242Y-185436858D01*
X143805529Y-185288899D01*
X143894499Y-185155745D01*
X144007745Y-185042499D01*
X144140899Y-184953529D01*
X144288858Y-184892242D01*
X144445925Y-184861000D01*
X144606075Y-184861000D01*
X144763142Y-184892242D01*
X144763142Y-184892242D01*
G37*
G36*
X219185142Y-184130242D02*
G01*
X219333101Y-184191529D01*
X219466255Y-184280499D01*
X219579501Y-184393745D01*
X219668471Y-184526899D01*
X219729758Y-184674858D01*
X219761000Y-184831925D01*
X219761000Y-184992075D01*
X219729758Y-185149142D01*
X219668471Y-185297101D01*
X219579501Y-185430255D01*
X219466255Y-185543501D01*
X219333101Y-185632471D01*
X219185142Y-185693758D01*
X219028075Y-185725000D01*
X218867925Y-185725000D01*
X218710858Y-185693758D01*
X218562899Y-185632471D01*
X218429745Y-185543501D01*
X218316499Y-185430255D01*
X218227529Y-185297101D01*
X218166242Y-185149142D01*
X218135000Y-184992075D01*
X218135000Y-184831925D01*
X218166242Y-184674858D01*
X218227529Y-184526899D01*
X218316499Y-184393745D01*
X218429745Y-184280499D01*
X218562899Y-184191529D01*
X218710858Y-184130242D01*
X218867925Y-184099000D01*
X219028075Y-184099000D01*
X219185142Y-184130242D01*
X219185142Y-184130242D01*
G37*
G36*
X144763142Y-182352242D02*
G01*
X144911101Y-182413529D01*
X145044255Y-182502499D01*
X145157501Y-182615745D01*
X145246471Y-182748899D01*
X145307758Y-182896858D01*
X145339000Y-183053925D01*
X145339000Y-183214075D01*
X145307758Y-183371142D01*
X145246471Y-183519101D01*
X145157501Y-183652255D01*
X145044255Y-183765501D01*
X144911101Y-183854471D01*
X144763142Y-183915758D01*
X144606075Y-183947000D01*
X144445925Y-183947000D01*
X144288858Y-183915758D01*
X144140899Y-183854471D01*
X144007745Y-183765501D01*
X143894499Y-183652255D01*
X143805529Y-183519101D01*
X143744242Y-183371142D01*
X143713000Y-183214075D01*
X143713000Y-183053925D01*
X143744242Y-182896858D01*
X143805529Y-182748899D01*
X143894499Y-182615745D01*
X144007745Y-182502499D01*
X144140899Y-182413529D01*
X144288858Y-182352242D01*
X144445925Y-182321000D01*
X144606075Y-182321000D01*
X144763142Y-182352242D01*
X144763142Y-182352242D01*
G37*
G36*
X129620908Y-178704380D02*
G01*
X129787767Y-178737570D01*
X130259299Y-178932885D01*
X130462268Y-179068505D01*
X130683666Y-179216438D01*
X131044562Y-179577334D01*
X131161219Y-179751925D01*
X131328115Y-180001701D01*
X131523430Y-180473233D01*
X131523430Y-180473234D01*
X131623000Y-180973807D01*
X131623000Y-181484193D01*
X131572018Y-181740499D01*
X131523430Y-181984767D01*
X131328115Y-182456299D01*
X131221576Y-182615745D01*
X131044562Y-182880666D01*
X130683666Y-183241562D01*
X130612536Y-183289089D01*
X130259299Y-183525115D01*
X129787767Y-183720430D01*
X129620908Y-183753620D01*
X129287193Y-183820000D01*
X128776807Y-183820000D01*
X128443092Y-183753620D01*
X128276233Y-183720430D01*
X127804701Y-183525115D01*
X127451464Y-183289089D01*
X127380334Y-183241562D01*
X127019438Y-182880666D01*
X126842424Y-182615745D01*
X126735885Y-182456299D01*
X126540570Y-181984767D01*
X126491982Y-181740499D01*
X126441000Y-181484193D01*
X126441000Y-180973807D01*
X126540570Y-180473234D01*
X126540570Y-180473233D01*
X126735885Y-180001701D01*
X126902781Y-179751925D01*
X127019438Y-179577334D01*
X127380334Y-179216438D01*
X127601732Y-179068505D01*
X127804701Y-178932885D01*
X128276233Y-178737570D01*
X128443092Y-178704380D01*
X128776807Y-178638000D01*
X129287193Y-178638000D01*
X129620908Y-178704380D01*
X129620908Y-178704380D01*
G37*
G36*
X183567564Y-181608505D02*
G01*
X183671433Y-181651529D01*
X183758835Y-181687732D01*
X183930973Y-181802751D01*
X184077365Y-181949143D01*
X184101168Y-181984766D01*
X184192385Y-182121283D01*
X184271611Y-182312552D01*
X184312000Y-182515600D01*
X184312000Y-182722632D01*
X184271611Y-182925680D01*
X184218490Y-183053925D01*
X184192384Y-183116951D01*
X184077365Y-183289089D01*
X183930973Y-183435481D01*
X183758835Y-183550500D01*
X183758834Y-183550501D01*
X183758833Y-183550501D01*
X183567564Y-183629727D01*
X183364516Y-183670116D01*
X183157484Y-183670116D01*
X182954436Y-183629727D01*
X182763167Y-183550501D01*
X182763166Y-183550501D01*
X182763165Y-183550500D01*
X182591027Y-183435481D01*
X182444635Y-183289089D01*
X182329616Y-183116951D01*
X182303510Y-183053925D01*
X182250389Y-182925680D01*
X182210000Y-182722632D01*
X182210000Y-182515600D01*
X182250389Y-182312552D01*
X182329615Y-182121283D01*
X182420833Y-181984766D01*
X182444635Y-181949143D01*
X182591027Y-181802751D01*
X182763165Y-181687732D01*
X182850567Y-181651529D01*
X182954436Y-181608505D01*
X183157484Y-181568116D01*
X183364516Y-181568116D01*
X183567564Y-181608505D01*
X183567564Y-181608505D01*
G37*
G36*
X168327564Y-181608505D02*
G01*
X168431433Y-181651529D01*
X168518835Y-181687732D01*
X168690973Y-181802751D01*
X168837365Y-181949143D01*
X168861168Y-181984766D01*
X168952385Y-182121283D01*
X169031611Y-182312552D01*
X169072000Y-182515600D01*
X169072000Y-182722632D01*
X169031611Y-182925680D01*
X168978490Y-183053925D01*
X168952384Y-183116951D01*
X168837365Y-183289089D01*
X168690973Y-183435481D01*
X168518835Y-183550500D01*
X168518834Y-183550501D01*
X168518833Y-183550501D01*
X168327564Y-183629727D01*
X168124516Y-183670116D01*
X167917484Y-183670116D01*
X167714436Y-183629727D01*
X167523167Y-183550501D01*
X167523166Y-183550501D01*
X167523165Y-183550500D01*
X167351027Y-183435481D01*
X167204635Y-183289089D01*
X167089616Y-183116951D01*
X167063510Y-183053925D01*
X167010389Y-182925680D01*
X166970000Y-182722632D01*
X166970000Y-182515600D01*
X167010389Y-182312552D01*
X167089615Y-182121283D01*
X167180833Y-181984766D01*
X167204635Y-181949143D01*
X167351027Y-181802751D01*
X167523165Y-181687732D01*
X167610567Y-181651529D01*
X167714436Y-181608505D01*
X167917484Y-181568116D01*
X168124516Y-181568116D01*
X168327564Y-181608505D01*
X168327564Y-181608505D01*
G37*
G36*
X219185142Y-181590242D02*
G01*
X219333101Y-181651529D01*
X219466255Y-181740499D01*
X219579501Y-181853745D01*
X219668471Y-181986899D01*
X219729758Y-182134858D01*
X219761000Y-182291925D01*
X219761000Y-182452075D01*
X219729758Y-182609142D01*
X219668471Y-182757101D01*
X219579501Y-182890255D01*
X219466255Y-183003501D01*
X219333101Y-183092471D01*
X219185142Y-183153758D01*
X219028075Y-183185000D01*
X218867925Y-183185000D01*
X218710858Y-183153758D01*
X218562899Y-183092471D01*
X218429745Y-183003501D01*
X218316499Y-182890255D01*
X218227529Y-182757101D01*
X218166242Y-182609142D01*
X218135000Y-182452075D01*
X218135000Y-182291925D01*
X218166242Y-182134858D01*
X218227529Y-181986899D01*
X218316499Y-181853745D01*
X218429745Y-181740499D01*
X218562899Y-181651529D01*
X218710858Y-181590242D01*
X218867925Y-181559000D01*
X219028075Y-181559000D01*
X219185142Y-181590242D01*
X219185142Y-181590242D01*
G37*
G36*
X144763142Y-179812242D02*
G01*
X144911101Y-179873529D01*
X145044255Y-179962499D01*
X145157501Y-180075745D01*
X145246471Y-180208899D01*
X145307758Y-180356858D01*
X145339000Y-180513925D01*
X145339000Y-180674075D01*
X145307758Y-180831142D01*
X145246471Y-180979101D01*
X145157501Y-181112255D01*
X145044255Y-181225501D01*
X144911101Y-181314471D01*
X144763142Y-181375758D01*
X144606075Y-181407000D01*
X144445925Y-181407000D01*
X144288858Y-181375758D01*
X144140899Y-181314471D01*
X144007745Y-181225501D01*
X143894499Y-181112255D01*
X143805529Y-180979101D01*
X143744242Y-180831142D01*
X143713000Y-180674075D01*
X143713000Y-180513925D01*
X143744242Y-180356858D01*
X143805529Y-180208899D01*
X143894499Y-180075745D01*
X144007745Y-179962499D01*
X144140899Y-179873529D01*
X144288858Y-179812242D01*
X144445925Y-179781000D01*
X144606075Y-179781000D01*
X144763142Y-179812242D01*
X144763142Y-179812242D01*
G37*
G36*
X183567564Y-179068505D02*
G01*
X183671433Y-179111529D01*
X183758835Y-179147732D01*
X183930973Y-179262751D01*
X184077365Y-179409143D01*
X184189747Y-179577334D01*
X184192385Y-179581283D01*
X184271611Y-179772552D01*
X184312000Y-179975600D01*
X184312000Y-180182632D01*
X184271611Y-180385680D01*
X184235345Y-180473233D01*
X184192384Y-180576951D01*
X184077365Y-180749089D01*
X183930973Y-180895481D01*
X183758835Y-181010500D01*
X183758834Y-181010501D01*
X183758833Y-181010501D01*
X183567564Y-181089727D01*
X183364516Y-181130116D01*
X183157484Y-181130116D01*
X182954436Y-181089727D01*
X182763167Y-181010501D01*
X182763166Y-181010501D01*
X182763165Y-181010500D01*
X182591027Y-180895481D01*
X182444635Y-180749089D01*
X182329616Y-180576951D01*
X182286655Y-180473233D01*
X182250389Y-180385680D01*
X182210000Y-180182632D01*
X182210000Y-179975600D01*
X182250389Y-179772552D01*
X182329615Y-179581283D01*
X182332254Y-179577334D01*
X182444635Y-179409143D01*
X182591027Y-179262751D01*
X182763165Y-179147732D01*
X182850567Y-179111529D01*
X182954436Y-179068505D01*
X183157484Y-179028116D01*
X183364516Y-179028116D01*
X183567564Y-179068505D01*
X183567564Y-179068505D01*
G37*
G36*
X168327564Y-179068505D02*
G01*
X168431433Y-179111529D01*
X168518835Y-179147732D01*
X168690973Y-179262751D01*
X168837365Y-179409143D01*
X168949747Y-179577334D01*
X168952385Y-179581283D01*
X169031611Y-179772552D01*
X169072000Y-179975600D01*
X169072000Y-180182632D01*
X169031611Y-180385680D01*
X168995345Y-180473233D01*
X168952384Y-180576951D01*
X168837365Y-180749089D01*
X168690973Y-180895481D01*
X168518835Y-181010500D01*
X168518834Y-181010501D01*
X168518833Y-181010501D01*
X168327564Y-181089727D01*
X168124516Y-181130116D01*
X167917484Y-181130116D01*
X167714436Y-181089727D01*
X167523167Y-181010501D01*
X167523166Y-181010501D01*
X167523165Y-181010500D01*
X167351027Y-180895481D01*
X167204635Y-180749089D01*
X167089616Y-180576951D01*
X167046655Y-180473233D01*
X167010389Y-180385680D01*
X166970000Y-180182632D01*
X166970000Y-179975600D01*
X167010389Y-179772552D01*
X167089615Y-179581283D01*
X167092254Y-179577334D01*
X167204635Y-179409143D01*
X167351027Y-179262751D01*
X167523165Y-179147732D01*
X167610567Y-179111529D01*
X167714436Y-179068505D01*
X167917484Y-179028116D01*
X168124516Y-179028116D01*
X168327564Y-179068505D01*
X168327564Y-179068505D01*
G37*
G36*
X219185142Y-179050242D02*
G01*
X219333101Y-179111529D01*
X219466255Y-179200499D01*
X219579501Y-179313745D01*
X219668471Y-179446899D01*
X219729758Y-179594858D01*
X219761000Y-179751925D01*
X219761000Y-179912075D01*
X219729758Y-180069142D01*
X219668471Y-180217101D01*
X219579501Y-180350255D01*
X219466255Y-180463501D01*
X219333101Y-180552471D01*
X219185142Y-180613758D01*
X219028075Y-180645000D01*
X218867925Y-180645000D01*
X218710858Y-180613758D01*
X218562899Y-180552471D01*
X218429745Y-180463501D01*
X218316499Y-180350255D01*
X218227529Y-180217101D01*
X218166242Y-180069142D01*
X218135000Y-179912075D01*
X218135000Y-179751925D01*
X218166242Y-179594858D01*
X218227529Y-179446899D01*
X218316499Y-179313745D01*
X218429745Y-179200499D01*
X218562899Y-179111529D01*
X218710858Y-179050242D01*
X218867925Y-179019000D01*
X219028075Y-179019000D01*
X219185142Y-179050242D01*
X219185142Y-179050242D01*
G37*
G36*
X219185142Y-176510242D02*
G01*
X219333101Y-176571529D01*
X219466255Y-176660499D01*
X219579501Y-176773745D01*
X219668471Y-176906899D01*
X219729758Y-177054858D01*
X219761000Y-177211925D01*
X219761000Y-177372075D01*
X219729758Y-177529142D01*
X219668471Y-177677101D01*
X219579501Y-177810255D01*
X219466255Y-177923501D01*
X219333101Y-178012471D01*
X219185142Y-178073758D01*
X219028075Y-178105000D01*
X218867925Y-178105000D01*
X218710858Y-178073758D01*
X218562899Y-178012471D01*
X218429745Y-177923501D01*
X218316499Y-177810255D01*
X218227529Y-177677101D01*
X218166242Y-177529142D01*
X218135000Y-177372075D01*
X218135000Y-177211925D01*
X218166242Y-177054858D01*
X218227529Y-176906899D01*
X218316499Y-176773745D01*
X218429745Y-176660499D01*
X218562899Y-176571529D01*
X218710858Y-176510242D01*
X218867925Y-176479000D01*
X219028075Y-176479000D01*
X219185142Y-176510242D01*
X219185142Y-176510242D01*
G37*
G36*
X228102039Y-174314250D02*
G01*
X228291372Y-174392675D01*
X228425251Y-174448129D01*
X228716134Y-174642491D01*
X228963509Y-174889866D01*
X229157871Y-175180749D01*
X229157871Y-175180750D01*
X229291750Y-175503961D01*
X229360000Y-175847078D01*
X229360000Y-176196922D01*
X229291750Y-176540039D01*
X229241853Y-176660501D01*
X229157871Y-176863251D01*
X228963509Y-177154134D01*
X228716134Y-177401509D01*
X228425251Y-177595871D01*
X228291372Y-177651325D01*
X228102039Y-177729750D01*
X227758922Y-177798000D01*
X227409078Y-177798000D01*
X227065961Y-177729750D01*
X226876628Y-177651325D01*
X226742749Y-177595871D01*
X226451866Y-177401509D01*
X226204491Y-177154134D01*
X226010129Y-176863251D01*
X225926147Y-176660501D01*
X225876250Y-176540039D01*
X225808000Y-176196922D01*
X225808000Y-175847078D01*
X225876250Y-175503961D01*
X226010129Y-175180750D01*
X226010129Y-175180749D01*
X226204491Y-174889866D01*
X226451866Y-174642491D01*
X226742749Y-174448129D01*
X226876628Y-174392675D01*
X227065961Y-174314250D01*
X227409078Y-174246000D01*
X227758922Y-174246000D01*
X228102039Y-174314250D01*
X228102039Y-174314250D01*
G37*
G36*
X135428060Y-172194166D02*
G01*
X135575653Y-172255301D01*
X135708482Y-172344055D01*
X135821445Y-172457018D01*
X135910199Y-172589847D01*
X135971334Y-172737440D01*
X136002500Y-172894123D01*
X136002500Y-173053877D01*
X135971334Y-173210560D01*
X135910199Y-173358153D01*
X135821445Y-173490982D01*
X135708482Y-173603945D01*
X135575653Y-173692699D01*
X135575652Y-173692700D01*
X135575651Y-173692700D01*
X135428060Y-173753834D01*
X135271378Y-173785000D01*
X135111622Y-173785000D01*
X134954940Y-173753834D01*
X134807349Y-173692700D01*
X134807348Y-173692700D01*
X134807347Y-173692699D01*
X134674518Y-173603945D01*
X134561555Y-173490982D01*
X134472801Y-173358153D01*
X134411666Y-173210560D01*
X134380500Y-173053877D01*
X134380500Y-172894123D01*
X134411666Y-172737440D01*
X134472801Y-172589847D01*
X134561555Y-172457018D01*
X134674518Y-172344055D01*
X134807347Y-172255301D01*
X134954940Y-172194166D01*
X135111622Y-172163000D01*
X135271378Y-172163000D01*
X135428060Y-172194166D01*
X135428060Y-172194166D01*
G37*
G36*
X115108060Y-172194166D02*
G01*
X115255653Y-172255301D01*
X115388482Y-172344055D01*
X115501445Y-172457018D01*
X115590199Y-172589847D01*
X115651334Y-172737440D01*
X115682500Y-172894123D01*
X115682500Y-173053877D01*
X115651334Y-173210560D01*
X115590199Y-173358153D01*
X115501445Y-173490982D01*
X115388482Y-173603945D01*
X115255653Y-173692699D01*
X115255652Y-173692700D01*
X115255651Y-173692700D01*
X115108060Y-173753834D01*
X114951378Y-173785000D01*
X114791622Y-173785000D01*
X114634940Y-173753834D01*
X114487349Y-173692700D01*
X114487348Y-173692700D01*
X114487347Y-173692699D01*
X114354518Y-173603945D01*
X114241555Y-173490982D01*
X114152801Y-173358153D01*
X114091666Y-173210560D01*
X114060500Y-173053877D01*
X114060500Y-172894123D01*
X114091666Y-172737440D01*
X114152801Y-172589847D01*
X114241555Y-172457018D01*
X114354518Y-172344055D01*
X114487347Y-172255301D01*
X114634940Y-172194166D01*
X114791622Y-172163000D01*
X114951378Y-172163000D01*
X115108060Y-172194166D01*
X115108060Y-172194166D01*
G37*
G36*
X130348060Y-172194166D02*
G01*
X130495653Y-172255301D01*
X130628482Y-172344055D01*
X130741445Y-172457018D01*
X130830199Y-172589847D01*
X130891334Y-172737440D01*
X130922500Y-172894123D01*
X130922500Y-173053877D01*
X130891334Y-173210560D01*
X130830199Y-173358153D01*
X130741445Y-173490982D01*
X130628482Y-173603945D01*
X130495653Y-173692699D01*
X130495652Y-173692700D01*
X130495651Y-173692700D01*
X130348060Y-173753834D01*
X130191378Y-173785000D01*
X130031622Y-173785000D01*
X129874940Y-173753834D01*
X129727349Y-173692700D01*
X129727348Y-173692700D01*
X129727347Y-173692699D01*
X129594518Y-173603945D01*
X129481555Y-173490982D01*
X129392801Y-173358153D01*
X129331666Y-173210560D01*
X129300500Y-173053877D01*
X129300500Y-172894123D01*
X129331666Y-172737440D01*
X129392801Y-172589847D01*
X129481555Y-172457018D01*
X129594518Y-172344055D01*
X129727347Y-172255301D01*
X129874940Y-172194166D01*
X130031622Y-172163000D01*
X130191378Y-172163000D01*
X130348060Y-172194166D01*
X130348060Y-172194166D01*
G37*
G36*
X127808060Y-172194166D02*
G01*
X127955653Y-172255301D01*
X128088482Y-172344055D01*
X128201445Y-172457018D01*
X128290199Y-172589847D01*
X128351334Y-172737440D01*
X128382500Y-172894123D01*
X128382500Y-173053877D01*
X128351334Y-173210560D01*
X128290199Y-173358153D01*
X128201445Y-173490982D01*
X128088482Y-173603945D01*
X127955653Y-173692699D01*
X127955652Y-173692700D01*
X127955651Y-173692700D01*
X127808060Y-173753834D01*
X127651378Y-173785000D01*
X127491622Y-173785000D01*
X127334940Y-173753834D01*
X127187349Y-173692700D01*
X127187348Y-173692700D01*
X127187347Y-173692699D01*
X127054518Y-173603945D01*
X126941555Y-173490982D01*
X126852801Y-173358153D01*
X126791666Y-173210560D01*
X126760500Y-173053877D01*
X126760500Y-172894123D01*
X126791666Y-172737440D01*
X126852801Y-172589847D01*
X126941555Y-172457018D01*
X127054518Y-172344055D01*
X127187347Y-172255301D01*
X127334940Y-172194166D01*
X127491622Y-172163000D01*
X127651378Y-172163000D01*
X127808060Y-172194166D01*
X127808060Y-172194166D01*
G37*
G36*
X125268060Y-172194166D02*
G01*
X125415653Y-172255301D01*
X125548482Y-172344055D01*
X125661445Y-172457018D01*
X125750199Y-172589847D01*
X125811334Y-172737440D01*
X125842500Y-172894123D01*
X125842500Y-173053877D01*
X125811334Y-173210560D01*
X125750199Y-173358153D01*
X125661445Y-173490982D01*
X125548482Y-173603945D01*
X125415653Y-173692699D01*
X125415652Y-173692700D01*
X125415651Y-173692700D01*
X125268060Y-173753834D01*
X125111378Y-173785000D01*
X124951622Y-173785000D01*
X124794940Y-173753834D01*
X124647349Y-173692700D01*
X124647348Y-173692700D01*
X124647347Y-173692699D01*
X124514518Y-173603945D01*
X124401555Y-173490982D01*
X124312801Y-173358153D01*
X124251666Y-173210560D01*
X124220500Y-173053877D01*
X124220500Y-172894123D01*
X124251666Y-172737440D01*
X124312801Y-172589847D01*
X124401555Y-172457018D01*
X124514518Y-172344055D01*
X124647347Y-172255301D01*
X124794940Y-172194166D01*
X124951622Y-172163000D01*
X125111378Y-172163000D01*
X125268060Y-172194166D01*
X125268060Y-172194166D01*
G37*
G36*
X122728060Y-172194166D02*
G01*
X122875653Y-172255301D01*
X123008482Y-172344055D01*
X123121445Y-172457018D01*
X123210199Y-172589847D01*
X123271334Y-172737440D01*
X123302500Y-172894123D01*
X123302500Y-173053877D01*
X123271334Y-173210560D01*
X123210199Y-173358153D01*
X123121445Y-173490982D01*
X123008482Y-173603945D01*
X122875653Y-173692699D01*
X122875652Y-173692700D01*
X122875651Y-173692700D01*
X122728060Y-173753834D01*
X122571378Y-173785000D01*
X122411622Y-173785000D01*
X122254940Y-173753834D01*
X122107349Y-173692700D01*
X122107348Y-173692700D01*
X122107347Y-173692699D01*
X121974518Y-173603945D01*
X121861555Y-173490982D01*
X121772801Y-173358153D01*
X121711666Y-173210560D01*
X121680500Y-173053877D01*
X121680500Y-172894123D01*
X121711666Y-172737440D01*
X121772801Y-172589847D01*
X121861555Y-172457018D01*
X121974518Y-172344055D01*
X122107347Y-172255301D01*
X122254940Y-172194166D01*
X122411622Y-172163000D01*
X122571378Y-172163000D01*
X122728060Y-172194166D01*
X122728060Y-172194166D01*
G37*
G36*
X120188060Y-172194166D02*
G01*
X120335653Y-172255301D01*
X120468482Y-172344055D01*
X120581445Y-172457018D01*
X120670199Y-172589847D01*
X120731334Y-172737440D01*
X120762500Y-172894123D01*
X120762500Y-173053877D01*
X120731334Y-173210560D01*
X120670199Y-173358153D01*
X120581445Y-173490982D01*
X120468482Y-173603945D01*
X120335653Y-173692699D01*
X120335652Y-173692700D01*
X120335651Y-173692700D01*
X120188060Y-173753834D01*
X120031378Y-173785000D01*
X119871622Y-173785000D01*
X119714940Y-173753834D01*
X119567349Y-173692700D01*
X119567348Y-173692700D01*
X119567347Y-173692699D01*
X119434518Y-173603945D01*
X119321555Y-173490982D01*
X119232801Y-173358153D01*
X119171666Y-173210560D01*
X119140500Y-173053877D01*
X119140500Y-172894123D01*
X119171666Y-172737440D01*
X119232801Y-172589847D01*
X119321555Y-172457018D01*
X119434518Y-172344055D01*
X119567347Y-172255301D01*
X119714940Y-172194166D01*
X119871622Y-172163000D01*
X120031378Y-172163000D01*
X120188060Y-172194166D01*
X120188060Y-172194166D01*
G37*
G36*
X117648060Y-172194166D02*
G01*
X117795653Y-172255301D01*
X117928482Y-172344055D01*
X118041445Y-172457018D01*
X118130199Y-172589847D01*
X118191334Y-172737440D01*
X118222500Y-172894123D01*
X118222500Y-173053877D01*
X118191334Y-173210560D01*
X118130199Y-173358153D01*
X118041445Y-173490982D01*
X117928482Y-173603945D01*
X117795653Y-173692699D01*
X117795652Y-173692700D01*
X117795651Y-173692700D01*
X117648060Y-173753834D01*
X117491378Y-173785000D01*
X117331622Y-173785000D01*
X117174940Y-173753834D01*
X117027349Y-173692700D01*
X117027348Y-173692700D01*
X117027347Y-173692699D01*
X116894518Y-173603945D01*
X116781555Y-173490982D01*
X116692801Y-173358153D01*
X116631666Y-173210560D01*
X116600500Y-173053877D01*
X116600500Y-172894123D01*
X116631666Y-172737440D01*
X116692801Y-172589847D01*
X116781555Y-172457018D01*
X116894518Y-172344055D01*
X117027347Y-172255301D01*
X117174940Y-172194166D01*
X117331622Y-172163000D01*
X117491378Y-172163000D01*
X117648060Y-172194166D01*
X117648060Y-172194166D01*
G37*
G36*
X196388060Y-172194166D02*
G01*
X196535653Y-172255301D01*
X196668482Y-172344055D01*
X196781445Y-172457018D01*
X196870199Y-172589847D01*
X196931334Y-172737440D01*
X196962500Y-172894123D01*
X196962500Y-173053877D01*
X196931334Y-173210560D01*
X196870199Y-173358153D01*
X196781445Y-173490982D01*
X196668482Y-173603945D01*
X196535653Y-173692699D01*
X196535652Y-173692700D01*
X196535651Y-173692700D01*
X196388060Y-173753834D01*
X196231378Y-173785000D01*
X196071622Y-173785000D01*
X195914940Y-173753834D01*
X195767349Y-173692700D01*
X195767348Y-173692700D01*
X195767347Y-173692699D01*
X195634518Y-173603945D01*
X195521555Y-173490982D01*
X195432801Y-173358153D01*
X195371666Y-173210560D01*
X195340500Y-173053877D01*
X195340500Y-172894123D01*
X195371666Y-172737440D01*
X195432801Y-172589847D01*
X195521555Y-172457018D01*
X195634518Y-172344055D01*
X195767347Y-172255301D01*
X195914940Y-172194166D01*
X196071622Y-172163000D01*
X196231378Y-172163000D01*
X196388060Y-172194166D01*
X196388060Y-172194166D01*
G37*
G36*
X198928060Y-172194166D02*
G01*
X199075653Y-172255301D01*
X199208482Y-172344055D01*
X199321445Y-172457018D01*
X199410199Y-172589847D01*
X199471334Y-172737440D01*
X199502500Y-172894123D01*
X199502500Y-173053877D01*
X199471334Y-173210560D01*
X199410199Y-173358153D01*
X199321445Y-173490982D01*
X199208482Y-173603945D01*
X199075653Y-173692699D01*
X199075652Y-173692700D01*
X199075651Y-173692700D01*
X198928060Y-173753834D01*
X198771378Y-173785000D01*
X198611622Y-173785000D01*
X198454940Y-173753834D01*
X198307349Y-173692700D01*
X198307348Y-173692700D01*
X198307347Y-173692699D01*
X198174518Y-173603945D01*
X198061555Y-173490982D01*
X197972801Y-173358153D01*
X197911666Y-173210560D01*
X197880500Y-173053877D01*
X197880500Y-172894123D01*
X197911666Y-172737440D01*
X197972801Y-172589847D01*
X198061555Y-172457018D01*
X198174518Y-172344055D01*
X198307347Y-172255301D01*
X198454940Y-172194166D01*
X198611622Y-172163000D01*
X198771378Y-172163000D01*
X198928060Y-172194166D01*
X198928060Y-172194166D01*
G37*
G36*
X193848060Y-172194166D02*
G01*
X193995653Y-172255301D01*
X194128482Y-172344055D01*
X194241445Y-172457018D01*
X194330199Y-172589847D01*
X194391334Y-172737440D01*
X194422500Y-172894123D01*
X194422500Y-173053877D01*
X194391334Y-173210560D01*
X194330199Y-173358153D01*
X194241445Y-173490982D01*
X194128482Y-173603945D01*
X193995653Y-173692699D01*
X193995652Y-173692700D01*
X193995651Y-173692700D01*
X193848060Y-173753834D01*
X193691378Y-173785000D01*
X193531622Y-173785000D01*
X193374940Y-173753834D01*
X193227349Y-173692700D01*
X193227348Y-173692700D01*
X193227347Y-173692699D01*
X193094518Y-173603945D01*
X192981555Y-173490982D01*
X192892801Y-173358153D01*
X192831666Y-173210560D01*
X192800500Y-173053877D01*
X192800500Y-172894123D01*
X192831666Y-172737440D01*
X192892801Y-172589847D01*
X192981555Y-172457018D01*
X193094518Y-172344055D01*
X193227347Y-172255301D01*
X193374940Y-172194166D01*
X193531622Y-172163000D01*
X193691378Y-172163000D01*
X193848060Y-172194166D01*
X193848060Y-172194166D01*
G37*
G36*
X176068060Y-172194166D02*
G01*
X176215653Y-172255301D01*
X176348482Y-172344055D01*
X176461445Y-172457018D01*
X176550199Y-172589847D01*
X176611334Y-172737440D01*
X176642500Y-172894123D01*
X176642500Y-173053877D01*
X176611334Y-173210560D01*
X176550199Y-173358153D01*
X176461445Y-173490982D01*
X176348482Y-173603945D01*
X176215653Y-173692699D01*
X176215652Y-173692700D01*
X176215651Y-173692700D01*
X176068060Y-173753834D01*
X175911378Y-173785000D01*
X175751622Y-173785000D01*
X175594940Y-173753834D01*
X175447349Y-173692700D01*
X175447348Y-173692700D01*
X175447347Y-173692699D01*
X175314518Y-173603945D01*
X175201555Y-173490982D01*
X175112801Y-173358153D01*
X175051666Y-173210560D01*
X175020500Y-173053877D01*
X175020500Y-172894123D01*
X175051666Y-172737440D01*
X175112801Y-172589847D01*
X175201555Y-172457018D01*
X175314518Y-172344055D01*
X175447347Y-172255301D01*
X175594940Y-172194166D01*
X175751622Y-172163000D01*
X175911378Y-172163000D01*
X176068060Y-172194166D01*
X176068060Y-172194166D01*
G37*
G36*
X132888060Y-172194166D02*
G01*
X133035653Y-172255301D01*
X133168482Y-172344055D01*
X133281445Y-172457018D01*
X133370199Y-172589847D01*
X133431334Y-172737440D01*
X133462500Y-172894123D01*
X133462500Y-173053877D01*
X133431334Y-173210560D01*
X133370199Y-173358153D01*
X133281445Y-173490982D01*
X133168482Y-173603945D01*
X133035653Y-173692699D01*
X133035652Y-173692700D01*
X133035651Y-173692700D01*
X132888060Y-173753834D01*
X132731378Y-173785000D01*
X132571622Y-173785000D01*
X132414940Y-173753834D01*
X132267349Y-173692700D01*
X132267348Y-173692700D01*
X132267347Y-173692699D01*
X132134518Y-173603945D01*
X132021555Y-173490982D01*
X131932801Y-173358153D01*
X131871666Y-173210560D01*
X131840500Y-173053877D01*
X131840500Y-172894123D01*
X131871666Y-172737440D01*
X131932801Y-172589847D01*
X132021555Y-172457018D01*
X132134518Y-172344055D01*
X132267347Y-172255301D01*
X132414940Y-172194166D01*
X132571622Y-172163000D01*
X132731378Y-172163000D01*
X132888060Y-172194166D01*
X132888060Y-172194166D01*
G37*
G36*
X112568060Y-172194166D02*
G01*
X112715653Y-172255301D01*
X112848482Y-172344055D01*
X112961445Y-172457018D01*
X113050199Y-172589847D01*
X113111334Y-172737440D01*
X113142500Y-172894123D01*
X113142500Y-173053877D01*
X113111334Y-173210560D01*
X113050199Y-173358153D01*
X112961445Y-173490982D01*
X112848482Y-173603945D01*
X112715653Y-173692699D01*
X112715652Y-173692700D01*
X112715651Y-173692700D01*
X112568060Y-173753834D01*
X112411378Y-173785000D01*
X112251622Y-173785000D01*
X112094940Y-173753834D01*
X111947349Y-173692700D01*
X111947348Y-173692700D01*
X111947347Y-173692699D01*
X111814518Y-173603945D01*
X111701555Y-173490982D01*
X111612801Y-173358153D01*
X111551666Y-173210560D01*
X111520500Y-173053877D01*
X111520500Y-172894123D01*
X111551666Y-172737440D01*
X111612801Y-172589847D01*
X111701555Y-172457018D01*
X111814518Y-172344055D01*
X111947347Y-172255301D01*
X112094940Y-172194166D01*
X112251622Y-172163000D01*
X112411378Y-172163000D01*
X112568060Y-172194166D01*
X112568060Y-172194166D01*
G37*
G36*
X178608060Y-172194166D02*
G01*
X178755653Y-172255301D01*
X178888482Y-172344055D01*
X179001445Y-172457018D01*
X179090199Y-172589847D01*
X179151334Y-172737440D01*
X179182500Y-172894123D01*
X179182500Y-173053877D01*
X179151334Y-173210560D01*
X179090199Y-173358153D01*
X179001445Y-173490982D01*
X178888482Y-173603945D01*
X178755653Y-173692699D01*
X178755652Y-173692700D01*
X178755651Y-173692700D01*
X178608060Y-173753834D01*
X178451378Y-173785000D01*
X178291622Y-173785000D01*
X178134940Y-173753834D01*
X177987349Y-173692700D01*
X177987348Y-173692700D01*
X177987347Y-173692699D01*
X177854518Y-173603945D01*
X177741555Y-173490982D01*
X177652801Y-173358153D01*
X177591666Y-173210560D01*
X177560500Y-173053877D01*
X177560500Y-172894123D01*
X177591666Y-172737440D01*
X177652801Y-172589847D01*
X177741555Y-172457018D01*
X177854518Y-172344055D01*
X177987347Y-172255301D01*
X178134940Y-172194166D01*
X178291622Y-172163000D01*
X178451378Y-172163000D01*
X178608060Y-172194166D01*
X178608060Y-172194166D01*
G37*
G36*
X181148060Y-172194166D02*
G01*
X181295653Y-172255301D01*
X181428482Y-172344055D01*
X181541445Y-172457018D01*
X181630199Y-172589847D01*
X181691334Y-172737440D01*
X181722500Y-172894123D01*
X181722500Y-173053877D01*
X181691334Y-173210560D01*
X181630199Y-173358153D01*
X181541445Y-173490982D01*
X181428482Y-173603945D01*
X181295653Y-173692699D01*
X181295652Y-173692700D01*
X181295651Y-173692700D01*
X181148060Y-173753834D01*
X180991378Y-173785000D01*
X180831622Y-173785000D01*
X180674940Y-173753834D01*
X180527349Y-173692700D01*
X180527348Y-173692700D01*
X180527347Y-173692699D01*
X180394518Y-173603945D01*
X180281555Y-173490982D01*
X180192801Y-173358153D01*
X180131666Y-173210560D01*
X180100500Y-173053877D01*
X180100500Y-172894123D01*
X180131666Y-172737440D01*
X180192801Y-172589847D01*
X180281555Y-172457018D01*
X180394518Y-172344055D01*
X180527347Y-172255301D01*
X180674940Y-172194166D01*
X180831622Y-172163000D01*
X180991378Y-172163000D01*
X181148060Y-172194166D01*
X181148060Y-172194166D01*
G37*
G36*
X186228060Y-172194166D02*
G01*
X186375653Y-172255301D01*
X186508482Y-172344055D01*
X186621445Y-172457018D01*
X186710199Y-172589847D01*
X186771334Y-172737440D01*
X186802500Y-172894123D01*
X186802500Y-173053877D01*
X186771334Y-173210560D01*
X186710199Y-173358153D01*
X186621445Y-173490982D01*
X186508482Y-173603945D01*
X186375653Y-173692699D01*
X186375652Y-173692700D01*
X186375651Y-173692700D01*
X186228060Y-173753834D01*
X186071378Y-173785000D01*
X185911622Y-173785000D01*
X185754940Y-173753834D01*
X185607349Y-173692700D01*
X185607348Y-173692700D01*
X185607347Y-173692699D01*
X185474518Y-173603945D01*
X185361555Y-173490982D01*
X185272801Y-173358153D01*
X185211666Y-173210560D01*
X185180500Y-173053877D01*
X185180500Y-172894123D01*
X185211666Y-172737440D01*
X185272801Y-172589847D01*
X185361555Y-172457018D01*
X185474518Y-172344055D01*
X185607347Y-172255301D01*
X185754940Y-172194166D01*
X185911622Y-172163000D01*
X186071378Y-172163000D01*
X186228060Y-172194166D01*
X186228060Y-172194166D01*
G37*
G36*
X188768060Y-172194166D02*
G01*
X188915653Y-172255301D01*
X189048482Y-172344055D01*
X189161445Y-172457018D01*
X189250199Y-172589847D01*
X189311334Y-172737440D01*
X189342500Y-172894123D01*
X189342500Y-173053877D01*
X189311334Y-173210560D01*
X189250199Y-173358153D01*
X189161445Y-173490982D01*
X189048482Y-173603945D01*
X188915653Y-173692699D01*
X188915652Y-173692700D01*
X188915651Y-173692700D01*
X188768060Y-173753834D01*
X188611378Y-173785000D01*
X188451622Y-173785000D01*
X188294940Y-173753834D01*
X188147349Y-173692700D01*
X188147348Y-173692700D01*
X188147347Y-173692699D01*
X188014518Y-173603945D01*
X187901555Y-173490982D01*
X187812801Y-173358153D01*
X187751666Y-173210560D01*
X187720500Y-173053877D01*
X187720500Y-172894123D01*
X187751666Y-172737440D01*
X187812801Y-172589847D01*
X187901555Y-172457018D01*
X188014518Y-172344055D01*
X188147347Y-172255301D01*
X188294940Y-172194166D01*
X188451622Y-172163000D01*
X188611378Y-172163000D01*
X188768060Y-172194166D01*
X188768060Y-172194166D01*
G37*
G36*
X191308060Y-172194166D02*
G01*
X191455653Y-172255301D01*
X191588482Y-172344055D01*
X191701445Y-172457018D01*
X191790199Y-172589847D01*
X191851334Y-172737440D01*
X191882500Y-172894123D01*
X191882500Y-173053877D01*
X191851334Y-173210560D01*
X191790199Y-173358153D01*
X191701445Y-173490982D01*
X191588482Y-173603945D01*
X191455653Y-173692699D01*
X191455652Y-173692700D01*
X191455651Y-173692700D01*
X191308060Y-173753834D01*
X191151378Y-173785000D01*
X190991622Y-173785000D01*
X190834940Y-173753834D01*
X190687349Y-173692700D01*
X190687348Y-173692700D01*
X190687347Y-173692699D01*
X190554518Y-173603945D01*
X190441555Y-173490982D01*
X190352801Y-173358153D01*
X190291666Y-173210560D01*
X190260500Y-173053877D01*
X190260500Y-172894123D01*
X190291666Y-172737440D01*
X190352801Y-172589847D01*
X190441555Y-172457018D01*
X190554518Y-172344055D01*
X190687347Y-172255301D01*
X190834940Y-172194166D01*
X190991622Y-172163000D01*
X191151378Y-172163000D01*
X191308060Y-172194166D01*
X191308060Y-172194166D01*
G37*
G36*
X183688060Y-172194166D02*
G01*
X183835653Y-172255301D01*
X183968482Y-172344055D01*
X184081445Y-172457018D01*
X184170199Y-172589847D01*
X184231334Y-172737440D01*
X184262500Y-172894123D01*
X184262500Y-173053877D01*
X184231334Y-173210560D01*
X184170199Y-173358153D01*
X184081445Y-173490982D01*
X183968482Y-173603945D01*
X183835653Y-173692699D01*
X183835652Y-173692700D01*
X183835651Y-173692700D01*
X183688060Y-173753834D01*
X183531378Y-173785000D01*
X183371622Y-173785000D01*
X183214940Y-173753834D01*
X183067349Y-173692700D01*
X183067348Y-173692700D01*
X183067347Y-173692699D01*
X182934518Y-173603945D01*
X182821555Y-173490982D01*
X182732801Y-173358153D01*
X182671666Y-173210560D01*
X182640500Y-173053877D01*
X182640500Y-172894123D01*
X182671666Y-172737440D01*
X182732801Y-172589847D01*
X182821555Y-172457018D01*
X182934518Y-172344055D01*
X183067347Y-172255301D01*
X183214940Y-172194166D01*
X183371622Y-172163000D01*
X183531378Y-172163000D01*
X183688060Y-172194166D01*
X183688060Y-172194166D01*
G37*
G36*
X228102039Y-169234250D02*
G01*
X228291372Y-169312675D01*
X228425251Y-169368129D01*
X228716134Y-169562491D01*
X228963509Y-169809866D01*
X229157871Y-170100749D01*
X229213325Y-170234628D01*
X229291750Y-170423961D01*
X229360000Y-170767078D01*
X229360000Y-171116922D01*
X229291750Y-171460039D01*
X229213325Y-171649372D01*
X229157871Y-171783251D01*
X228963509Y-172074134D01*
X228716134Y-172321509D01*
X228425251Y-172515871D01*
X228291372Y-172571325D01*
X228102039Y-172649750D01*
X227758922Y-172718000D01*
X227409078Y-172718000D01*
X227065961Y-172649750D01*
X226876628Y-172571325D01*
X226742749Y-172515871D01*
X226451866Y-172321509D01*
X226204491Y-172074134D01*
X226010129Y-171783251D01*
X225954675Y-171649372D01*
X225876250Y-171460039D01*
X225808000Y-171116922D01*
X225808000Y-170767078D01*
X225876250Y-170423961D01*
X225954675Y-170234628D01*
X226010129Y-170100749D01*
X226204491Y-169809866D01*
X226451866Y-169562491D01*
X226742749Y-169368129D01*
X226876628Y-169312675D01*
X227065961Y-169234250D01*
X227409078Y-169166000D01*
X227758922Y-169166000D01*
X228102039Y-169234250D01*
X228102039Y-169234250D01*
G37*
G36*
X130348060Y-169654166D02*
G01*
X130495653Y-169715301D01*
X130628482Y-169804055D01*
X130741445Y-169917018D01*
X130830199Y-170049847D01*
X130891334Y-170197440D01*
X130922500Y-170354123D01*
X130922500Y-170513877D01*
X130891334Y-170670560D01*
X130830199Y-170818153D01*
X130741445Y-170950982D01*
X130628482Y-171063945D01*
X130495653Y-171152699D01*
X130495652Y-171152700D01*
X130495651Y-171152700D01*
X130348060Y-171213834D01*
X130191378Y-171245000D01*
X130031622Y-171245000D01*
X129874940Y-171213834D01*
X129727349Y-171152700D01*
X129727348Y-171152700D01*
X129727347Y-171152699D01*
X129594518Y-171063945D01*
X129481555Y-170950982D01*
X129392801Y-170818153D01*
X129331666Y-170670560D01*
X129300500Y-170513877D01*
X129300500Y-170354123D01*
X129331666Y-170197440D01*
X129392801Y-170049847D01*
X129481555Y-169917018D01*
X129594518Y-169804055D01*
X129727347Y-169715301D01*
X129874940Y-169654166D01*
X130031622Y-169623000D01*
X130191378Y-169623000D01*
X130348060Y-169654166D01*
X130348060Y-169654166D01*
G37*
G36*
X178608060Y-169654166D02*
G01*
X178755653Y-169715301D01*
X178888482Y-169804055D01*
X179001445Y-169917018D01*
X179090199Y-170049847D01*
X179151334Y-170197440D01*
X179182500Y-170354123D01*
X179182500Y-170513877D01*
X179151334Y-170670560D01*
X179090199Y-170818153D01*
X179001445Y-170950982D01*
X178888482Y-171063945D01*
X178755653Y-171152699D01*
X178755652Y-171152700D01*
X178755651Y-171152700D01*
X178608060Y-171213834D01*
X178451378Y-171245000D01*
X178291622Y-171245000D01*
X178134940Y-171213834D01*
X177987349Y-171152700D01*
X177987348Y-171152700D01*
X177987347Y-171152699D01*
X177854518Y-171063945D01*
X177741555Y-170950982D01*
X177652801Y-170818153D01*
X177591666Y-170670560D01*
X177560500Y-170513877D01*
X177560500Y-170354123D01*
X177591666Y-170197440D01*
X177652801Y-170049847D01*
X177741555Y-169917018D01*
X177854518Y-169804055D01*
X177987347Y-169715301D01*
X178134940Y-169654166D01*
X178291622Y-169623000D01*
X178451378Y-169623000D01*
X178608060Y-169654166D01*
X178608060Y-169654166D01*
G37*
G36*
X120188060Y-169654166D02*
G01*
X120335653Y-169715301D01*
X120468482Y-169804055D01*
X120581445Y-169917018D01*
X120670199Y-170049847D01*
X120731334Y-170197440D01*
X120762500Y-170354123D01*
X120762500Y-170513877D01*
X120731334Y-170670560D01*
X120670199Y-170818153D01*
X120581445Y-170950982D01*
X120468482Y-171063945D01*
X120335653Y-171152699D01*
X120335652Y-171152700D01*
X120335651Y-171152700D01*
X120188060Y-171213834D01*
X120031378Y-171245000D01*
X119871622Y-171245000D01*
X119714940Y-171213834D01*
X119567349Y-171152700D01*
X119567348Y-171152700D01*
X119567347Y-171152699D01*
X119434518Y-171063945D01*
X119321555Y-170950982D01*
X119232801Y-170818153D01*
X119171666Y-170670560D01*
X119140500Y-170513877D01*
X119140500Y-170354123D01*
X119171666Y-170197440D01*
X119232801Y-170049847D01*
X119321555Y-169917018D01*
X119434518Y-169804055D01*
X119567347Y-169715301D01*
X119714940Y-169654166D01*
X119871622Y-169623000D01*
X120031378Y-169623000D01*
X120188060Y-169654166D01*
X120188060Y-169654166D01*
G37*
G36*
X122728060Y-169654166D02*
G01*
X122875653Y-169715301D01*
X123008482Y-169804055D01*
X123121445Y-169917018D01*
X123210199Y-170049847D01*
X123271334Y-170197440D01*
X123302500Y-170354123D01*
X123302500Y-170513877D01*
X123271334Y-170670560D01*
X123210199Y-170818153D01*
X123121445Y-170950982D01*
X123008482Y-171063945D01*
X122875653Y-171152699D01*
X122875652Y-171152700D01*
X122875651Y-171152700D01*
X122728060Y-171213834D01*
X122571378Y-171245000D01*
X122411622Y-171245000D01*
X122254940Y-171213834D01*
X122107349Y-171152700D01*
X122107348Y-171152700D01*
X122107347Y-171152699D01*
X121974518Y-171063945D01*
X121861555Y-170950982D01*
X121772801Y-170818153D01*
X121711666Y-170670560D01*
X121680500Y-170513877D01*
X121680500Y-170354123D01*
X121711666Y-170197440D01*
X121772801Y-170049847D01*
X121861555Y-169917018D01*
X121974518Y-169804055D01*
X122107347Y-169715301D01*
X122254940Y-169654166D01*
X122411622Y-169623000D01*
X122571378Y-169623000D01*
X122728060Y-169654166D01*
X122728060Y-169654166D01*
G37*
G36*
X125268060Y-169654166D02*
G01*
X125415653Y-169715301D01*
X125548482Y-169804055D01*
X125661445Y-169917018D01*
X125750199Y-170049847D01*
X125811334Y-170197440D01*
X125842500Y-170354123D01*
X125842500Y-170513877D01*
X125811334Y-170670560D01*
X125750199Y-170818153D01*
X125661445Y-170950982D01*
X125548482Y-171063945D01*
X125415653Y-171152699D01*
X125415652Y-171152700D01*
X125415651Y-171152700D01*
X125268060Y-171213834D01*
X125111378Y-171245000D01*
X124951622Y-171245000D01*
X124794940Y-171213834D01*
X124647349Y-171152700D01*
X124647348Y-171152700D01*
X124647347Y-171152699D01*
X124514518Y-171063945D01*
X124401555Y-170950982D01*
X124312801Y-170818153D01*
X124251666Y-170670560D01*
X124220500Y-170513877D01*
X124220500Y-170354123D01*
X124251666Y-170197440D01*
X124312801Y-170049847D01*
X124401555Y-169917018D01*
X124514518Y-169804055D01*
X124647347Y-169715301D01*
X124794940Y-169654166D01*
X124951622Y-169623000D01*
X125111378Y-169623000D01*
X125268060Y-169654166D01*
X125268060Y-169654166D01*
G37*
G36*
X127808060Y-169654166D02*
G01*
X127955653Y-169715301D01*
X128088482Y-169804055D01*
X128201445Y-169917018D01*
X128290199Y-170049847D01*
X128351334Y-170197440D01*
X128382500Y-170354123D01*
X128382500Y-170513877D01*
X128351334Y-170670560D01*
X128290199Y-170818153D01*
X128201445Y-170950982D01*
X128088482Y-171063945D01*
X127955653Y-171152699D01*
X127955652Y-171152700D01*
X127955651Y-171152700D01*
X127808060Y-171213834D01*
X127651378Y-171245000D01*
X127491622Y-171245000D01*
X127334940Y-171213834D01*
X127187349Y-171152700D01*
X127187348Y-171152700D01*
X127187347Y-171152699D01*
X127054518Y-171063945D01*
X126941555Y-170950982D01*
X126852801Y-170818153D01*
X126791666Y-170670560D01*
X126760500Y-170513877D01*
X126760500Y-170354123D01*
X126791666Y-170197440D01*
X126852801Y-170049847D01*
X126941555Y-169917018D01*
X127054518Y-169804055D01*
X127187347Y-169715301D01*
X127334940Y-169654166D01*
X127491622Y-169623000D01*
X127651378Y-169623000D01*
X127808060Y-169654166D01*
X127808060Y-169654166D01*
G37*
G36*
X132888060Y-169654166D02*
G01*
X133035653Y-169715301D01*
X133168482Y-169804055D01*
X133281445Y-169917018D01*
X133370199Y-170049847D01*
X133431334Y-170197440D01*
X133462500Y-170354123D01*
X133462500Y-170513877D01*
X133431334Y-170670560D01*
X133370199Y-170818153D01*
X133281445Y-170950982D01*
X133168482Y-171063945D01*
X133035653Y-171152699D01*
X133035652Y-171152700D01*
X133035651Y-171152700D01*
X132888060Y-171213834D01*
X132731378Y-171245000D01*
X132571622Y-171245000D01*
X132414940Y-171213834D01*
X132267349Y-171152700D01*
X132267348Y-171152700D01*
X132267347Y-171152699D01*
X132134518Y-171063945D01*
X132021555Y-170950982D01*
X131932801Y-170818153D01*
X131871666Y-170670560D01*
X131840500Y-170513877D01*
X131840500Y-170354123D01*
X131871666Y-170197440D01*
X131932801Y-170049847D01*
X132021555Y-169917018D01*
X132134518Y-169804055D01*
X132267347Y-169715301D01*
X132414940Y-169654166D01*
X132571622Y-169623000D01*
X132731378Y-169623000D01*
X132888060Y-169654166D01*
X132888060Y-169654166D01*
G37*
G36*
X135428060Y-169654166D02*
G01*
X135575653Y-169715301D01*
X135708482Y-169804055D01*
X135821445Y-169917018D01*
X135910199Y-170049847D01*
X135971334Y-170197440D01*
X136002500Y-170354123D01*
X136002500Y-170513877D01*
X135971334Y-170670560D01*
X135910199Y-170818153D01*
X135821445Y-170950982D01*
X135708482Y-171063945D01*
X135575653Y-171152699D01*
X135575652Y-171152700D01*
X135575651Y-171152700D01*
X135428060Y-171213834D01*
X135271378Y-171245000D01*
X135111622Y-171245000D01*
X134954940Y-171213834D01*
X134807349Y-171152700D01*
X134807348Y-171152700D01*
X134807347Y-171152699D01*
X134674518Y-171063945D01*
X134561555Y-170950982D01*
X134472801Y-170818153D01*
X134411666Y-170670560D01*
X134380500Y-170513877D01*
X134380500Y-170354123D01*
X134411666Y-170197440D01*
X134472801Y-170049847D01*
X134561555Y-169917018D01*
X134674518Y-169804055D01*
X134807347Y-169715301D01*
X134954940Y-169654166D01*
X135111622Y-169623000D01*
X135271378Y-169623000D01*
X135428060Y-169654166D01*
X135428060Y-169654166D01*
G37*
G36*
X112568060Y-169654166D02*
G01*
X112715653Y-169715301D01*
X112848482Y-169804055D01*
X112961445Y-169917018D01*
X113050199Y-170049847D01*
X113111334Y-170197440D01*
X113142500Y-170354123D01*
X113142500Y-170513877D01*
X113111334Y-170670560D01*
X113050199Y-170818153D01*
X112961445Y-170950982D01*
X112848482Y-171063945D01*
X112715653Y-171152699D01*
X112715652Y-171152700D01*
X112715651Y-171152700D01*
X112568060Y-171213834D01*
X112411378Y-171245000D01*
X112251622Y-171245000D01*
X112094940Y-171213834D01*
X111947349Y-171152700D01*
X111947348Y-171152700D01*
X111947347Y-171152699D01*
X111814518Y-171063945D01*
X111701555Y-170950982D01*
X111612801Y-170818153D01*
X111551666Y-170670560D01*
X111520500Y-170513877D01*
X111520500Y-170354123D01*
X111551666Y-170197440D01*
X111612801Y-170049847D01*
X111701555Y-169917018D01*
X111814518Y-169804055D01*
X111947347Y-169715301D01*
X112094940Y-169654166D01*
X112251622Y-169623000D01*
X112411378Y-169623000D01*
X112568060Y-169654166D01*
X112568060Y-169654166D01*
G37*
G36*
X115108060Y-169654166D02*
G01*
X115255653Y-169715301D01*
X115388482Y-169804055D01*
X115501445Y-169917018D01*
X115590199Y-170049847D01*
X115651334Y-170197440D01*
X115682500Y-170354123D01*
X115682500Y-170513877D01*
X115651334Y-170670560D01*
X115590199Y-170818153D01*
X115501445Y-170950982D01*
X115388482Y-171063945D01*
X115255653Y-171152699D01*
X115255652Y-171152700D01*
X115255651Y-171152700D01*
X115108060Y-171213834D01*
X114951378Y-171245000D01*
X114791622Y-171245000D01*
X114634940Y-171213834D01*
X114487349Y-171152700D01*
X114487348Y-171152700D01*
X114487347Y-171152699D01*
X114354518Y-171063945D01*
X114241555Y-170950982D01*
X114152801Y-170818153D01*
X114091666Y-170670560D01*
X114060500Y-170513877D01*
X114060500Y-170354123D01*
X114091666Y-170197440D01*
X114152801Y-170049847D01*
X114241555Y-169917018D01*
X114354518Y-169804055D01*
X114487347Y-169715301D01*
X114634940Y-169654166D01*
X114791622Y-169623000D01*
X114951378Y-169623000D01*
X115108060Y-169654166D01*
X115108060Y-169654166D01*
G37*
G36*
X117648060Y-169654166D02*
G01*
X117795653Y-169715301D01*
X117928482Y-169804055D01*
X118041445Y-169917018D01*
X118130199Y-170049847D01*
X118191334Y-170197440D01*
X118222500Y-170354123D01*
X118222500Y-170513877D01*
X118191334Y-170670560D01*
X118130199Y-170818153D01*
X118041445Y-170950982D01*
X117928482Y-171063945D01*
X117795653Y-171152699D01*
X117795652Y-171152700D01*
X117795651Y-171152700D01*
X117648060Y-171213834D01*
X117491378Y-171245000D01*
X117331622Y-171245000D01*
X117174940Y-171213834D01*
X117027349Y-171152700D01*
X117027348Y-171152700D01*
X117027347Y-171152699D01*
X116894518Y-171063945D01*
X116781555Y-170950982D01*
X116692801Y-170818153D01*
X116631666Y-170670560D01*
X116600500Y-170513877D01*
X116600500Y-170354123D01*
X116631666Y-170197440D01*
X116692801Y-170049847D01*
X116781555Y-169917018D01*
X116894518Y-169804055D01*
X117027347Y-169715301D01*
X117174940Y-169654166D01*
X117331622Y-169623000D01*
X117491378Y-169623000D01*
X117648060Y-169654166D01*
X117648060Y-169654166D01*
G37*
G36*
X186228060Y-169654166D02*
G01*
X186375653Y-169715301D01*
X186508482Y-169804055D01*
X186621445Y-169917018D01*
X186710199Y-170049847D01*
X186771334Y-170197440D01*
X186802500Y-170354123D01*
X186802500Y-170513877D01*
X186771334Y-170670560D01*
X186710199Y-170818153D01*
X186621445Y-170950982D01*
X186508482Y-171063945D01*
X186375653Y-171152699D01*
X186375652Y-171152700D01*
X186375651Y-171152700D01*
X186228060Y-171213834D01*
X186071378Y-171245000D01*
X185911622Y-171245000D01*
X185754940Y-171213834D01*
X185607349Y-171152700D01*
X185607348Y-171152700D01*
X185607347Y-171152699D01*
X185474518Y-171063945D01*
X185361555Y-170950982D01*
X185272801Y-170818153D01*
X185211666Y-170670560D01*
X185180500Y-170513877D01*
X185180500Y-170354123D01*
X185211666Y-170197440D01*
X185272801Y-170049847D01*
X185361555Y-169917018D01*
X185474518Y-169804055D01*
X185607347Y-169715301D01*
X185754940Y-169654166D01*
X185911622Y-169623000D01*
X186071378Y-169623000D01*
X186228060Y-169654166D01*
X186228060Y-169654166D01*
G37*
G36*
X193848060Y-169654166D02*
G01*
X193995653Y-169715301D01*
X194128482Y-169804055D01*
X194241445Y-169917018D01*
X194330199Y-170049847D01*
X194391334Y-170197440D01*
X194422500Y-170354123D01*
X194422500Y-170513877D01*
X194391334Y-170670560D01*
X194330199Y-170818153D01*
X194241445Y-170950982D01*
X194128482Y-171063945D01*
X193995653Y-171152699D01*
X193995652Y-171152700D01*
X193995651Y-171152700D01*
X193848060Y-171213834D01*
X193691378Y-171245000D01*
X193531622Y-171245000D01*
X193374940Y-171213834D01*
X193227349Y-171152700D01*
X193227348Y-171152700D01*
X193227347Y-171152699D01*
X193094518Y-171063945D01*
X192981555Y-170950982D01*
X192892801Y-170818153D01*
X192831666Y-170670560D01*
X192800500Y-170513877D01*
X192800500Y-170354123D01*
X192831666Y-170197440D01*
X192892801Y-170049847D01*
X192981555Y-169917018D01*
X193094518Y-169804055D01*
X193227347Y-169715301D01*
X193374940Y-169654166D01*
X193531622Y-169623000D01*
X193691378Y-169623000D01*
X193848060Y-169654166D01*
X193848060Y-169654166D01*
G37*
G36*
X181148060Y-169654166D02*
G01*
X181295653Y-169715301D01*
X181428482Y-169804055D01*
X181541445Y-169917018D01*
X181630199Y-170049847D01*
X181691334Y-170197440D01*
X181722500Y-170354123D01*
X181722500Y-170513877D01*
X181691334Y-170670560D01*
X181630199Y-170818153D01*
X181541445Y-170950982D01*
X181428482Y-171063945D01*
X181295653Y-171152699D01*
X181295652Y-171152700D01*
X181295651Y-171152700D01*
X181148060Y-171213834D01*
X180991378Y-171245000D01*
X180831622Y-171245000D01*
X180674940Y-171213834D01*
X180527349Y-171152700D01*
X180527348Y-171152700D01*
X180527347Y-171152699D01*
X180394518Y-171063945D01*
X180281555Y-170950982D01*
X180192801Y-170818153D01*
X180131666Y-170670560D01*
X180100500Y-170513877D01*
X180100500Y-170354123D01*
X180131666Y-170197440D01*
X180192801Y-170049847D01*
X180281555Y-169917018D01*
X180394518Y-169804055D01*
X180527347Y-169715301D01*
X180674940Y-169654166D01*
X180831622Y-169623000D01*
X180991378Y-169623000D01*
X181148060Y-169654166D01*
X181148060Y-169654166D01*
G37*
G36*
X198928060Y-169654166D02*
G01*
X199075653Y-169715301D01*
X199208482Y-169804055D01*
X199321445Y-169917018D01*
X199410199Y-170049847D01*
X199471334Y-170197440D01*
X199502500Y-170354123D01*
X199502500Y-170513877D01*
X199471334Y-170670560D01*
X199410199Y-170818153D01*
X199321445Y-170950982D01*
X199208482Y-171063945D01*
X199075653Y-171152699D01*
X199075652Y-171152700D01*
X199075651Y-171152700D01*
X198928060Y-171213834D01*
X198771378Y-171245000D01*
X198611622Y-171245000D01*
X198454940Y-171213834D01*
X198307349Y-171152700D01*
X198307348Y-171152700D01*
X198307347Y-171152699D01*
X198174518Y-171063945D01*
X198061555Y-170950982D01*
X197972801Y-170818153D01*
X197911666Y-170670560D01*
X197880500Y-170513877D01*
X197880500Y-170354123D01*
X197911666Y-170197440D01*
X197972801Y-170049847D01*
X198061555Y-169917018D01*
X198174518Y-169804055D01*
X198307347Y-169715301D01*
X198454940Y-169654166D01*
X198611622Y-169623000D01*
X198771378Y-169623000D01*
X198928060Y-169654166D01*
X198928060Y-169654166D01*
G37*
G36*
X196388060Y-169654166D02*
G01*
X196535653Y-169715301D01*
X196668482Y-169804055D01*
X196781445Y-169917018D01*
X196870199Y-170049847D01*
X196931334Y-170197440D01*
X196962500Y-170354123D01*
X196962500Y-170513877D01*
X196931334Y-170670560D01*
X196870199Y-170818153D01*
X196781445Y-170950982D01*
X196668482Y-171063945D01*
X196535653Y-171152699D01*
X196535652Y-171152700D01*
X196535651Y-171152700D01*
X196388060Y-171213834D01*
X196231378Y-171245000D01*
X196071622Y-171245000D01*
X195914940Y-171213834D01*
X195767349Y-171152700D01*
X195767348Y-171152700D01*
X195767347Y-171152699D01*
X195634518Y-171063945D01*
X195521555Y-170950982D01*
X195432801Y-170818153D01*
X195371666Y-170670560D01*
X195340500Y-170513877D01*
X195340500Y-170354123D01*
X195371666Y-170197440D01*
X195432801Y-170049847D01*
X195521555Y-169917018D01*
X195634518Y-169804055D01*
X195767347Y-169715301D01*
X195914940Y-169654166D01*
X196071622Y-169623000D01*
X196231378Y-169623000D01*
X196388060Y-169654166D01*
X196388060Y-169654166D01*
G37*
G36*
X188768060Y-169654166D02*
G01*
X188915653Y-169715301D01*
X189048482Y-169804055D01*
X189161445Y-169917018D01*
X189250199Y-170049847D01*
X189311334Y-170197440D01*
X189342500Y-170354123D01*
X189342500Y-170513877D01*
X189311334Y-170670560D01*
X189250199Y-170818153D01*
X189161445Y-170950982D01*
X189048482Y-171063945D01*
X188915653Y-171152699D01*
X188915652Y-171152700D01*
X188915651Y-171152700D01*
X188768060Y-171213834D01*
X188611378Y-171245000D01*
X188451622Y-171245000D01*
X188294940Y-171213834D01*
X188147349Y-171152700D01*
X188147348Y-171152700D01*
X188147347Y-171152699D01*
X188014518Y-171063945D01*
X187901555Y-170950982D01*
X187812801Y-170818153D01*
X187751666Y-170670560D01*
X187720500Y-170513877D01*
X187720500Y-170354123D01*
X187751666Y-170197440D01*
X187812801Y-170049847D01*
X187901555Y-169917018D01*
X188014518Y-169804055D01*
X188147347Y-169715301D01*
X188294940Y-169654166D01*
X188451622Y-169623000D01*
X188611378Y-169623000D01*
X188768060Y-169654166D01*
X188768060Y-169654166D01*
G37*
G36*
X183688060Y-169654166D02*
G01*
X183835653Y-169715301D01*
X183968482Y-169804055D01*
X184081445Y-169917018D01*
X184170199Y-170049847D01*
X184231334Y-170197440D01*
X184262500Y-170354123D01*
X184262500Y-170513877D01*
X184231334Y-170670560D01*
X184170199Y-170818153D01*
X184081445Y-170950982D01*
X183968482Y-171063945D01*
X183835653Y-171152699D01*
X183835652Y-171152700D01*
X183835651Y-171152700D01*
X183688060Y-171213834D01*
X183531378Y-171245000D01*
X183371622Y-171245000D01*
X183214940Y-171213834D01*
X183067349Y-171152700D01*
X183067348Y-171152700D01*
X183067347Y-171152699D01*
X182934518Y-171063945D01*
X182821555Y-170950982D01*
X182732801Y-170818153D01*
X182671666Y-170670560D01*
X182640500Y-170513877D01*
X182640500Y-170354123D01*
X182671666Y-170197440D01*
X182732801Y-170049847D01*
X182821555Y-169917018D01*
X182934518Y-169804055D01*
X183067347Y-169715301D01*
X183214940Y-169654166D01*
X183371622Y-169623000D01*
X183531378Y-169623000D01*
X183688060Y-169654166D01*
X183688060Y-169654166D01*
G37*
G36*
X191308060Y-169654166D02*
G01*
X191455653Y-169715301D01*
X191588482Y-169804055D01*
X191701445Y-169917018D01*
X191790199Y-170049847D01*
X191851334Y-170197440D01*
X191882500Y-170354123D01*
X191882500Y-170513877D01*
X191851334Y-170670560D01*
X191790199Y-170818153D01*
X191701445Y-170950982D01*
X191588482Y-171063945D01*
X191455653Y-171152699D01*
X191455652Y-171152700D01*
X191455651Y-171152700D01*
X191308060Y-171213834D01*
X191151378Y-171245000D01*
X190991622Y-171245000D01*
X190834940Y-171213834D01*
X190687349Y-171152700D01*
X190687348Y-171152700D01*
X190687347Y-171152699D01*
X190554518Y-171063945D01*
X190441555Y-170950982D01*
X190352801Y-170818153D01*
X190291666Y-170670560D01*
X190260500Y-170513877D01*
X190260500Y-170354123D01*
X190291666Y-170197440D01*
X190352801Y-170049847D01*
X190441555Y-169917018D01*
X190554518Y-169804055D01*
X190687347Y-169715301D01*
X190834940Y-169654166D01*
X190991622Y-169623000D01*
X191151378Y-169623000D01*
X191308060Y-169654166D01*
X191308060Y-169654166D01*
G37*
G36*
X176068060Y-169654166D02*
G01*
X176215653Y-169715301D01*
X176348482Y-169804055D01*
X176461445Y-169917018D01*
X176550199Y-170049847D01*
X176611334Y-170197440D01*
X176642500Y-170354123D01*
X176642500Y-170513877D01*
X176611334Y-170670560D01*
X176550199Y-170818153D01*
X176461445Y-170950982D01*
X176348482Y-171063945D01*
X176215653Y-171152699D01*
X176215652Y-171152700D01*
X176215651Y-171152700D01*
X176068060Y-171213834D01*
X175911378Y-171245000D01*
X175751622Y-171245000D01*
X175594940Y-171213834D01*
X175447349Y-171152700D01*
X175447348Y-171152700D01*
X175447347Y-171152699D01*
X175314518Y-171063945D01*
X175201555Y-170950982D01*
X175112801Y-170818153D01*
X175051666Y-170670560D01*
X175020500Y-170513877D01*
X175020500Y-170354123D01*
X175051666Y-170197440D01*
X175112801Y-170049847D01*
X175201555Y-169917018D01*
X175314518Y-169804055D01*
X175447347Y-169715301D01*
X175594940Y-169654166D01*
X175751622Y-169623000D01*
X175911378Y-169623000D01*
X176068060Y-169654166D01*
X176068060Y-169654166D01*
G37*
G36*
X219185142Y-168890242D02*
G01*
X219333101Y-168951529D01*
X219466255Y-169040499D01*
X219579501Y-169153745D01*
X219668471Y-169286899D01*
X219729758Y-169434858D01*
X219761000Y-169591925D01*
X219761000Y-169752075D01*
X219729758Y-169909142D01*
X219668471Y-170057101D01*
X219579501Y-170190255D01*
X219466255Y-170303501D01*
X219333101Y-170392471D01*
X219185142Y-170453758D01*
X219028075Y-170485000D01*
X218867925Y-170485000D01*
X218710858Y-170453758D01*
X218562899Y-170392471D01*
X218429745Y-170303501D01*
X218316499Y-170190255D01*
X218227529Y-170057101D01*
X218166242Y-169909142D01*
X218135000Y-169752075D01*
X218135000Y-169591925D01*
X218166242Y-169434858D01*
X218227529Y-169286899D01*
X218316499Y-169153745D01*
X218429745Y-169040499D01*
X218562899Y-168951529D01*
X218710858Y-168890242D01*
X218867925Y-168859000D01*
X219028075Y-168859000D01*
X219185142Y-168890242D01*
X219185142Y-168890242D01*
G37*
G36*
X219185142Y-166350242D02*
G01*
X219333101Y-166411529D01*
X219466255Y-166500499D01*
X219579501Y-166613745D01*
X219668471Y-166746899D01*
X219729758Y-166894858D01*
X219761000Y-167051925D01*
X219761000Y-167212075D01*
X219729758Y-167369142D01*
X219668471Y-167517101D01*
X219579501Y-167650255D01*
X219466255Y-167763501D01*
X219333101Y-167852471D01*
X219185142Y-167913758D01*
X219028075Y-167945000D01*
X218867925Y-167945000D01*
X218710858Y-167913758D01*
X218562899Y-167852471D01*
X218429745Y-167763501D01*
X218316499Y-167650255D01*
X218227529Y-167517101D01*
X218166242Y-167369142D01*
X218135000Y-167212075D01*
X218135000Y-167051925D01*
X218166242Y-166894858D01*
X218227529Y-166746899D01*
X218316499Y-166613745D01*
X218429745Y-166500499D01*
X218562899Y-166411529D01*
X218710858Y-166350242D01*
X218867925Y-166319000D01*
X219028075Y-166319000D01*
X219185142Y-166350242D01*
X219185142Y-166350242D01*
G37*
G36*
X116719039Y-164029250D02*
G01*
X116908372Y-164107675D01*
X117042251Y-164163129D01*
X117333134Y-164357491D01*
X117580509Y-164604866D01*
X117774871Y-164895749D01*
X117808568Y-164977101D01*
X117908750Y-165218961D01*
X117977000Y-165562078D01*
X117977000Y-165911922D01*
X117908750Y-166255039D01*
X117882256Y-166319000D01*
X117774871Y-166578251D01*
X117580509Y-166869134D01*
X117333134Y-167116509D01*
X117042251Y-167310871D01*
X116908372Y-167366325D01*
X116719039Y-167444750D01*
X116375922Y-167513000D01*
X116026078Y-167513000D01*
X115682961Y-167444750D01*
X115493628Y-167366325D01*
X115359749Y-167310871D01*
X115068866Y-167116509D01*
X114821491Y-166869134D01*
X114627129Y-166578251D01*
X114519744Y-166319000D01*
X114493250Y-166255039D01*
X114425000Y-165911922D01*
X114425000Y-165562078D01*
X114493250Y-165218961D01*
X114593432Y-164977101D01*
X114627129Y-164895749D01*
X114821491Y-164604866D01*
X115068866Y-164357491D01*
X115359749Y-164163129D01*
X115493628Y-164107675D01*
X115682961Y-164029250D01*
X116026078Y-163961000D01*
X116375922Y-163961000D01*
X116719039Y-164029250D01*
X116719039Y-164029250D01*
G37*
G36*
X219185142Y-163810242D02*
G01*
X219333101Y-163871529D01*
X219466255Y-163960499D01*
X219579501Y-164073745D01*
X219668471Y-164206899D01*
X219729758Y-164354858D01*
X219761000Y-164511925D01*
X219761000Y-164672075D01*
X219729758Y-164829142D01*
X219668471Y-164977101D01*
X219579501Y-165110255D01*
X219466255Y-165223501D01*
X219333101Y-165312471D01*
X219185142Y-165373758D01*
X219028075Y-165405000D01*
X218867925Y-165405000D01*
X218710858Y-165373758D01*
X218562899Y-165312471D01*
X218429745Y-165223501D01*
X218316499Y-165110255D01*
X218227529Y-164977101D01*
X218166242Y-164829142D01*
X218135000Y-164672075D01*
X218135000Y-164511925D01*
X218166242Y-164354858D01*
X218227529Y-164206899D01*
X218316499Y-164073745D01*
X218429745Y-163960499D01*
X218562899Y-163871529D01*
X218710858Y-163810242D01*
X218867925Y-163779000D01*
X219028075Y-163779000D01*
X219185142Y-163810242D01*
X219185142Y-163810242D01*
G37*
G36*
X125078142Y-163810242D02*
G01*
X125226101Y-163871529D01*
X125359255Y-163960499D01*
X125472501Y-164073745D01*
X125561471Y-164206899D01*
X125622758Y-164354858D01*
X125654000Y-164511925D01*
X125654000Y-164672075D01*
X125622758Y-164829142D01*
X125561471Y-164977101D01*
X125472501Y-165110255D01*
X125359255Y-165223501D01*
X125226101Y-165312471D01*
X125078142Y-165373758D01*
X124921075Y-165405000D01*
X124760925Y-165405000D01*
X124603858Y-165373758D01*
X124455899Y-165312471D01*
X124322745Y-165223501D01*
X124209499Y-165110255D01*
X124120529Y-164977101D01*
X124059242Y-164829142D01*
X124028000Y-164672075D01*
X124028000Y-164511925D01*
X124059242Y-164354858D01*
X124120529Y-164206899D01*
X124209499Y-164073745D01*
X124322745Y-163960499D01*
X124455899Y-163871529D01*
X124603858Y-163810242D01*
X124760925Y-163779000D01*
X124921075Y-163779000D01*
X125078142Y-163810242D01*
X125078142Y-163810242D01*
G37*
G36*
X219185142Y-161270242D02*
G01*
X219333101Y-161331529D01*
X219466255Y-161420499D01*
X219579501Y-161533745D01*
X219668471Y-161666899D01*
X219729758Y-161814858D01*
X219761000Y-161971925D01*
X219761000Y-162132075D01*
X219729758Y-162289142D01*
X219668471Y-162437101D01*
X219579501Y-162570255D01*
X219466255Y-162683501D01*
X219333101Y-162772471D01*
X219185142Y-162833758D01*
X219028075Y-162865000D01*
X218867925Y-162865000D01*
X218710858Y-162833758D01*
X218562899Y-162772471D01*
X218429745Y-162683501D01*
X218316499Y-162570255D01*
X218227529Y-162437101D01*
X218166242Y-162289142D01*
X218135000Y-162132075D01*
X218135000Y-161971925D01*
X218166242Y-161814858D01*
X218227529Y-161666899D01*
X218316499Y-161533745D01*
X218429745Y-161420499D01*
X218562899Y-161331529D01*
X218710858Y-161270242D01*
X218867925Y-161239000D01*
X219028075Y-161239000D01*
X219185142Y-161270242D01*
X219185142Y-161270242D01*
G37*
G36*
X125078142Y-161270242D02*
G01*
X125226101Y-161331529D01*
X125359255Y-161420499D01*
X125472501Y-161533745D01*
X125561471Y-161666899D01*
X125622758Y-161814858D01*
X125654000Y-161971925D01*
X125654000Y-162132075D01*
X125622758Y-162289142D01*
X125561471Y-162437101D01*
X125472501Y-162570255D01*
X125359255Y-162683501D01*
X125226101Y-162772471D01*
X125078142Y-162833758D01*
X124921075Y-162865000D01*
X124760925Y-162865000D01*
X124603858Y-162833758D01*
X124455899Y-162772471D01*
X124322745Y-162683501D01*
X124209499Y-162570255D01*
X124120529Y-162437101D01*
X124059242Y-162289142D01*
X124028000Y-162132075D01*
X124028000Y-161971925D01*
X124059242Y-161814858D01*
X124120529Y-161666899D01*
X124209499Y-161533745D01*
X124322745Y-161420499D01*
X124455899Y-161331529D01*
X124603858Y-161270242D01*
X124760925Y-161239000D01*
X124921075Y-161239000D01*
X125078142Y-161270242D01*
X125078142Y-161270242D01*
G37*
G36*
X116723039Y-159201250D02*
G01*
X116900741Y-159274857D01*
X117046251Y-159335129D01*
X117337134Y-159529491D01*
X117584509Y-159776866D01*
X117778871Y-160067749D01*
X117810248Y-160143501D01*
X117912750Y-160390961D01*
X117981000Y-160734078D01*
X117981000Y-161083922D01*
X117912750Y-161427039D01*
X117834325Y-161616372D01*
X117778871Y-161750251D01*
X117584509Y-162041134D01*
X117337134Y-162288509D01*
X117046251Y-162482871D01*
X116912372Y-162538325D01*
X116723039Y-162616750D01*
X116379922Y-162685000D01*
X116030078Y-162685000D01*
X115686961Y-162616750D01*
X115497628Y-162538325D01*
X115363749Y-162482871D01*
X115072866Y-162288509D01*
X114825491Y-162041134D01*
X114631129Y-161750251D01*
X114575675Y-161616372D01*
X114497250Y-161427039D01*
X114429000Y-161083922D01*
X114429000Y-160734078D01*
X114497250Y-160390961D01*
X114599752Y-160143501D01*
X114631129Y-160067749D01*
X114825491Y-159776866D01*
X115072866Y-159529491D01*
X115363749Y-159335129D01*
X115509259Y-159274857D01*
X115686961Y-159201250D01*
X116030078Y-159133000D01*
X116379922Y-159133000D01*
X116723039Y-159201250D01*
X116723039Y-159201250D01*
G37*
G36*
X219185142Y-158730242D02*
G01*
X219333101Y-158791529D01*
X219466255Y-158880499D01*
X219579501Y-158993745D01*
X219668471Y-159126899D01*
X219729758Y-159274858D01*
X219761000Y-159431925D01*
X219761000Y-159592075D01*
X219729758Y-159749142D01*
X219668471Y-159897101D01*
X219579501Y-160030255D01*
X219466255Y-160143501D01*
X219333101Y-160232471D01*
X219185142Y-160293758D01*
X219028075Y-160325000D01*
X218867925Y-160325000D01*
X218710858Y-160293758D01*
X218562899Y-160232471D01*
X218429745Y-160143501D01*
X218316499Y-160030255D01*
X218227529Y-159897101D01*
X218166242Y-159749142D01*
X218135000Y-159592075D01*
X218135000Y-159431925D01*
X218166242Y-159274858D01*
X218227529Y-159126899D01*
X218316499Y-158993745D01*
X218429745Y-158880499D01*
X218562899Y-158791529D01*
X218710858Y-158730242D01*
X218867925Y-158699000D01*
X219028075Y-158699000D01*
X219185142Y-158730242D01*
X219185142Y-158730242D01*
G37*
G36*
X228102039Y-156534250D02*
G01*
X228291372Y-156612675D01*
X228425251Y-156668129D01*
X228716134Y-156862491D01*
X228963509Y-157109866D01*
X229157871Y-157400749D01*
X229157871Y-157400750D01*
X229291750Y-157723961D01*
X229360000Y-158067078D01*
X229360000Y-158416922D01*
X229291750Y-158760039D01*
X229241853Y-158880501D01*
X229157871Y-159083251D01*
X228963509Y-159374134D01*
X228716134Y-159621509D01*
X228425251Y-159815871D01*
X228291372Y-159871325D01*
X228102039Y-159949750D01*
X227758922Y-160018000D01*
X227409078Y-160018000D01*
X227065961Y-159949750D01*
X226876628Y-159871325D01*
X226742749Y-159815871D01*
X226451866Y-159621509D01*
X226204491Y-159374134D01*
X226010129Y-159083251D01*
X225926147Y-158880501D01*
X225876250Y-158760039D01*
X225808000Y-158416922D01*
X225808000Y-158067078D01*
X225876250Y-157723961D01*
X226010129Y-157400750D01*
X226010129Y-157400749D01*
X226204491Y-157109866D01*
X226451866Y-156862491D01*
X226742749Y-156668129D01*
X226876628Y-156612675D01*
X227065961Y-156534250D01*
X227409078Y-156466000D01*
X227758922Y-156466000D01*
X228102039Y-156534250D01*
X228102039Y-156534250D01*
G37*
G36*
X116719039Y-152726250D02*
G01*
X116908372Y-152804675D01*
X117042251Y-152860129D01*
X117333134Y-153054491D01*
X117580509Y-153301866D01*
X117774871Y-153592749D01*
X117808568Y-153674101D01*
X117908750Y-153915961D01*
X117977000Y-154259078D01*
X117977000Y-154608922D01*
X117908750Y-154952039D01*
X117830325Y-155141372D01*
X117774871Y-155275251D01*
X117580509Y-155566134D01*
X117333134Y-155813509D01*
X117042251Y-156007871D01*
X116908372Y-156063325D01*
X116719039Y-156141750D01*
X116375922Y-156210000D01*
X116026078Y-156210000D01*
X115682961Y-156141750D01*
X115493628Y-156063325D01*
X115359749Y-156007871D01*
X115068866Y-155813509D01*
X114821491Y-155566134D01*
X114627129Y-155275251D01*
X114571675Y-155141372D01*
X114493250Y-154952039D01*
X114425000Y-154608922D01*
X114425000Y-154259078D01*
X114493250Y-153915961D01*
X114593432Y-153674101D01*
X114627129Y-153592749D01*
X114821491Y-153301866D01*
X115068866Y-153054491D01*
X115359749Y-152860129D01*
X115493628Y-152804675D01*
X115682961Y-152726250D01*
X116026078Y-152658000D01*
X116375922Y-152658000D01*
X116719039Y-152726250D01*
X116719039Y-152726250D01*
G37*
G36*
X228102039Y-150946250D02*
G01*
X228291372Y-151024675D01*
X228425251Y-151080129D01*
X228716134Y-151274491D01*
X228963509Y-151521866D01*
X229157871Y-151812749D01*
X229157871Y-151812750D01*
X229291750Y-152135961D01*
X229360000Y-152479078D01*
X229360000Y-152828922D01*
X229291750Y-153172039D01*
X229237973Y-153301867D01*
X229157871Y-153495251D01*
X228963509Y-153786134D01*
X228716134Y-154033509D01*
X228425251Y-154227871D01*
X228349910Y-154259078D01*
X228102039Y-154361750D01*
X227758922Y-154430000D01*
X227409078Y-154430000D01*
X227065961Y-154361750D01*
X226818090Y-154259078D01*
X226742749Y-154227871D01*
X226451866Y-154033509D01*
X226204491Y-153786134D01*
X226010129Y-153495251D01*
X225930027Y-153301867D01*
X225876250Y-153172039D01*
X225808000Y-152828922D01*
X225808000Y-152479078D01*
X225876250Y-152135961D01*
X226010129Y-151812750D01*
X226010129Y-151812749D01*
X226204491Y-151521866D01*
X226451866Y-151274491D01*
X226742749Y-151080129D01*
X226876628Y-151024675D01*
X227065961Y-150946250D01*
X227409078Y-150878000D01*
X227758922Y-150878000D01*
X228102039Y-150946250D01*
X228102039Y-150946250D01*
G37*
G36*
X125078142Y-152507242D02*
G01*
X125226101Y-152568529D01*
X125359255Y-152657499D01*
X125472501Y-152770745D01*
X125561471Y-152903899D01*
X125622758Y-153051858D01*
X125654000Y-153208925D01*
X125654000Y-153369075D01*
X125622758Y-153526142D01*
X125561471Y-153674101D01*
X125472501Y-153807255D01*
X125359255Y-153920501D01*
X125226101Y-154009471D01*
X125078142Y-154070758D01*
X124921075Y-154102000D01*
X124760925Y-154102000D01*
X124603858Y-154070758D01*
X124455899Y-154009471D01*
X124322745Y-153920501D01*
X124209499Y-153807255D01*
X124120529Y-153674101D01*
X124059242Y-153526142D01*
X124028000Y-153369075D01*
X124028000Y-153208925D01*
X124059242Y-153051858D01*
X124120529Y-152903899D01*
X124209499Y-152770745D01*
X124322745Y-152657499D01*
X124455899Y-152568529D01*
X124603858Y-152507242D01*
X124760925Y-152476000D01*
X124921075Y-152476000D01*
X125078142Y-152507242D01*
X125078142Y-152507242D01*
G37*
G36*
X219185142Y-150602242D02*
G01*
X219333101Y-150663529D01*
X219466255Y-150752499D01*
X219579501Y-150865745D01*
X219668471Y-150998899D01*
X219729758Y-151146858D01*
X219761000Y-151303925D01*
X219761000Y-151464075D01*
X219729758Y-151621142D01*
X219668471Y-151769101D01*
X219579501Y-151902255D01*
X219466255Y-152015501D01*
X219333101Y-152104471D01*
X219185142Y-152165758D01*
X219028075Y-152197000D01*
X218867925Y-152197000D01*
X218710858Y-152165758D01*
X218562899Y-152104471D01*
X218429745Y-152015501D01*
X218316499Y-151902255D01*
X218227529Y-151769101D01*
X218166242Y-151621142D01*
X218135000Y-151464075D01*
X218135000Y-151303925D01*
X218166242Y-151146858D01*
X218227529Y-150998899D01*
X218316499Y-150865745D01*
X218429745Y-150752499D01*
X218562899Y-150663529D01*
X218710858Y-150602242D01*
X218867925Y-150571000D01*
X219028075Y-150571000D01*
X219185142Y-150602242D01*
X219185142Y-150602242D01*
G37*
G36*
X125078142Y-149967242D02*
G01*
X125226101Y-150028529D01*
X125359255Y-150117499D01*
X125472501Y-150230745D01*
X125561471Y-150363899D01*
X125622758Y-150511858D01*
X125654000Y-150668925D01*
X125654000Y-150829075D01*
X125622758Y-150986142D01*
X125561471Y-151134101D01*
X125472501Y-151267255D01*
X125359255Y-151380501D01*
X125226101Y-151469471D01*
X125078142Y-151530758D01*
X124921075Y-151562000D01*
X124760925Y-151562000D01*
X124603858Y-151530758D01*
X124455899Y-151469471D01*
X124322745Y-151380501D01*
X124209499Y-151267255D01*
X124120529Y-151134101D01*
X124059242Y-150986142D01*
X124028000Y-150829075D01*
X124028000Y-150668925D01*
X124059242Y-150511858D01*
X124120529Y-150363899D01*
X124209499Y-150230745D01*
X124322745Y-150117499D01*
X124455899Y-150028529D01*
X124603858Y-149967242D01*
X124760925Y-149936000D01*
X124921075Y-149936000D01*
X125078142Y-149967242D01*
X125078142Y-149967242D01*
G37*
G36*
X116723039Y-147898250D02*
G01*
X116912372Y-147976675D01*
X117046251Y-148032129D01*
X117337134Y-148226491D01*
X117584509Y-148473866D01*
X117778871Y-148764749D01*
X117778871Y-148764750D01*
X117912750Y-149087961D01*
X117981000Y-149431078D01*
X117981000Y-149780922D01*
X117912750Y-150124039D01*
X117834325Y-150313372D01*
X117778871Y-150447251D01*
X117584509Y-150738134D01*
X117337134Y-150985509D01*
X117046251Y-151179871D01*
X116912372Y-151235325D01*
X116723039Y-151313750D01*
X116379922Y-151382000D01*
X116030078Y-151382000D01*
X115686961Y-151313750D01*
X115497628Y-151235325D01*
X115363749Y-151179871D01*
X115072866Y-150985509D01*
X114825491Y-150738134D01*
X114631129Y-150447251D01*
X114575675Y-150313372D01*
X114497250Y-150124039D01*
X114429000Y-149780922D01*
X114429000Y-149431078D01*
X114497250Y-149087961D01*
X114631129Y-148764750D01*
X114631129Y-148764749D01*
X114825491Y-148473866D01*
X115072866Y-148226491D01*
X115363749Y-148032129D01*
X115497628Y-147976675D01*
X115686961Y-147898250D01*
X116030078Y-147830000D01*
X116379922Y-147830000D01*
X116723039Y-147898250D01*
X116723039Y-147898250D01*
G37*
G36*
X219185142Y-148062242D02*
G01*
X219333101Y-148123529D01*
X219466255Y-148212499D01*
X219579501Y-148325745D01*
X219668471Y-148458899D01*
X219729758Y-148606858D01*
X219761000Y-148763925D01*
X219761000Y-148924075D01*
X219729758Y-149081142D01*
X219668471Y-149229101D01*
X219579501Y-149362255D01*
X219466255Y-149475501D01*
X219333101Y-149564471D01*
X219185142Y-149625758D01*
X219028075Y-149657000D01*
X218867925Y-149657000D01*
X218710858Y-149625758D01*
X218562899Y-149564471D01*
X218429745Y-149475501D01*
X218316499Y-149362255D01*
X218227529Y-149229101D01*
X218166242Y-149081142D01*
X218135000Y-148924075D01*
X218135000Y-148763925D01*
X218166242Y-148606858D01*
X218227529Y-148458899D01*
X218316499Y-148325745D01*
X218429745Y-148212499D01*
X218562899Y-148123529D01*
X218710858Y-148062242D01*
X218867925Y-148031000D01*
X219028075Y-148031000D01*
X219185142Y-148062242D01*
X219185142Y-148062242D01*
G37*
G36*
X219185142Y-145522242D02*
G01*
X219333101Y-145583529D01*
X219466255Y-145672499D01*
X219579501Y-145785745D01*
X219668471Y-145918899D01*
X219729758Y-146066858D01*
X219761000Y-146223925D01*
X219761000Y-146384075D01*
X219729758Y-146541142D01*
X219668471Y-146689101D01*
X219579501Y-146822255D01*
X219466255Y-146935501D01*
X219333101Y-147024471D01*
X219185142Y-147085758D01*
X219028075Y-147117000D01*
X218867925Y-147117000D01*
X218710858Y-147085758D01*
X218562899Y-147024471D01*
X218429745Y-146935501D01*
X218316499Y-146822255D01*
X218227529Y-146689101D01*
X218166242Y-146541142D01*
X218135000Y-146384075D01*
X218135000Y-146223925D01*
X218166242Y-146066858D01*
X218227529Y-145918899D01*
X218316499Y-145785745D01*
X218429745Y-145672499D01*
X218562899Y-145583529D01*
X218710858Y-145522242D01*
X218867925Y-145491000D01*
X219028075Y-145491000D01*
X219185142Y-145522242D01*
X219185142Y-145522242D01*
G37*
G36*
X116723039Y-141421250D02*
G01*
X116912372Y-141499675D01*
X117046251Y-141555129D01*
X117337134Y-141749491D01*
X117584509Y-141996866D01*
X117778871Y-142287749D01*
X117778871Y-142287750D01*
X117912750Y-142610961D01*
X117981000Y-142954078D01*
X117981000Y-143303922D01*
X117912750Y-143647039D01*
X117834325Y-143836372D01*
X117778871Y-143970251D01*
X117584509Y-144261134D01*
X117337134Y-144508509D01*
X117046251Y-144702871D01*
X116912372Y-144758325D01*
X116723039Y-144836750D01*
X116379922Y-144905000D01*
X116030078Y-144905000D01*
X115686961Y-144836750D01*
X115497628Y-144758325D01*
X115363749Y-144702871D01*
X115072866Y-144508509D01*
X114825491Y-144261134D01*
X114631129Y-143970251D01*
X114575675Y-143836372D01*
X114497250Y-143647039D01*
X114429000Y-143303922D01*
X114429000Y-142954078D01*
X114497250Y-142610961D01*
X114631129Y-142287750D01*
X114631129Y-142287749D01*
X114825491Y-141996866D01*
X115072866Y-141749491D01*
X115363749Y-141555129D01*
X115497628Y-141499675D01*
X115686961Y-141421250D01*
X116030078Y-141353000D01*
X116379922Y-141353000D01*
X116723039Y-141421250D01*
X116723039Y-141421250D01*
G37*
G36*
X219185142Y-142982242D02*
G01*
X219333101Y-143043529D01*
X219466255Y-143132499D01*
X219579501Y-143245745D01*
X219668471Y-143378899D01*
X219729758Y-143526858D01*
X219761000Y-143683925D01*
X219761000Y-143844075D01*
X219729758Y-144001142D01*
X219668471Y-144149101D01*
X219579501Y-144282255D01*
X219466255Y-144395501D01*
X219333101Y-144484471D01*
X219185142Y-144545758D01*
X219028075Y-144577000D01*
X218867925Y-144577000D01*
X218710858Y-144545758D01*
X218562899Y-144484471D01*
X218429745Y-144395501D01*
X218316499Y-144282255D01*
X218227529Y-144149101D01*
X218166242Y-144001142D01*
X218135000Y-143844075D01*
X218135000Y-143683925D01*
X218166242Y-143526858D01*
X218227529Y-143378899D01*
X218316499Y-143245745D01*
X218429745Y-143132499D01*
X218562899Y-143043529D01*
X218710858Y-142982242D01*
X218867925Y-142951000D01*
X219028075Y-142951000D01*
X219185142Y-142982242D01*
X219185142Y-142982242D01*
G37*
G36*
X125078142Y-141077242D02*
G01*
X125226101Y-141138529D01*
X125359255Y-141227499D01*
X125472501Y-141340745D01*
X125561471Y-141473899D01*
X125622758Y-141621858D01*
X125654000Y-141778925D01*
X125654000Y-141939075D01*
X125622758Y-142096142D01*
X125561471Y-142244101D01*
X125472501Y-142377255D01*
X125359255Y-142490501D01*
X125226101Y-142579471D01*
X125078142Y-142640758D01*
X124921075Y-142672000D01*
X124760925Y-142672000D01*
X124603858Y-142640758D01*
X124455899Y-142579471D01*
X124322745Y-142490501D01*
X124209499Y-142377255D01*
X124120529Y-142244101D01*
X124059242Y-142096142D01*
X124028000Y-141939075D01*
X124028000Y-141778925D01*
X124059242Y-141621858D01*
X124120529Y-141473899D01*
X124209499Y-141340745D01*
X124322745Y-141227499D01*
X124455899Y-141138529D01*
X124603858Y-141077242D01*
X124760925Y-141046000D01*
X124921075Y-141046000D01*
X125078142Y-141077242D01*
X125078142Y-141077242D01*
G37*
G36*
X219185142Y-140442242D02*
G01*
X219333101Y-140503529D01*
X219466255Y-140592499D01*
X219579501Y-140705745D01*
X219668471Y-140838899D01*
X219729758Y-140986858D01*
X219761000Y-141143925D01*
X219761000Y-141304075D01*
X219729758Y-141461142D01*
X219668471Y-141609101D01*
X219579501Y-141742255D01*
X219466255Y-141855501D01*
X219333101Y-141944471D01*
X219185142Y-142005758D01*
X219028075Y-142037000D01*
X218867925Y-142037000D01*
X218710858Y-142005758D01*
X218562899Y-141944471D01*
X218429745Y-141855501D01*
X218316499Y-141742255D01*
X218227529Y-141609101D01*
X218166242Y-141461142D01*
X218135000Y-141304075D01*
X218135000Y-141143925D01*
X218166242Y-140986858D01*
X218227529Y-140838899D01*
X218316499Y-140705745D01*
X218429745Y-140592499D01*
X218562899Y-140503529D01*
X218710858Y-140442242D01*
X218867925Y-140411000D01*
X219028075Y-140411000D01*
X219185142Y-140442242D01*
X219185142Y-140442242D01*
G37*
G36*
X228102039Y-138246250D02*
G01*
X228291372Y-138324675D01*
X228425251Y-138380129D01*
X228716134Y-138574491D01*
X228963509Y-138821866D01*
X229157871Y-139112749D01*
X229157871Y-139112750D01*
X229291750Y-139435961D01*
X229360000Y-139779078D01*
X229360000Y-140128922D01*
X229291750Y-140472039D01*
X229241853Y-140592501D01*
X229157871Y-140795251D01*
X228963509Y-141086134D01*
X228716134Y-141333509D01*
X228425251Y-141527871D01*
X228359444Y-141555129D01*
X228102039Y-141661750D01*
X227758922Y-141730000D01*
X227409078Y-141730000D01*
X227065961Y-141661750D01*
X226808556Y-141555129D01*
X226742749Y-141527871D01*
X226451866Y-141333509D01*
X226204491Y-141086134D01*
X226010129Y-140795251D01*
X225926147Y-140592501D01*
X225876250Y-140472039D01*
X225808000Y-140128922D01*
X225808000Y-139779078D01*
X225876250Y-139435961D01*
X226010129Y-139112750D01*
X226010129Y-139112749D01*
X226204491Y-138821866D01*
X226451866Y-138574491D01*
X226742749Y-138380129D01*
X226876628Y-138324675D01*
X227065961Y-138246250D01*
X227409078Y-138178000D01*
X227758922Y-138178000D01*
X228102039Y-138246250D01*
X228102039Y-138246250D01*
G37*
G36*
X125078142Y-138537242D02*
G01*
X125226101Y-138598529D01*
X125359255Y-138687499D01*
X125472501Y-138800745D01*
X125561471Y-138933899D01*
X125622758Y-139081858D01*
X125654000Y-139238925D01*
X125654000Y-139399075D01*
X125622758Y-139556142D01*
X125561471Y-139704101D01*
X125472501Y-139837255D01*
X125359255Y-139950501D01*
X125226101Y-140039471D01*
X125078142Y-140100758D01*
X124921075Y-140132000D01*
X124760925Y-140132000D01*
X124603858Y-140100758D01*
X124455899Y-140039471D01*
X124322745Y-139950501D01*
X124209499Y-139837255D01*
X124120529Y-139704101D01*
X124059242Y-139556142D01*
X124028000Y-139399075D01*
X124028000Y-139238925D01*
X124059242Y-139081858D01*
X124120529Y-138933899D01*
X124209499Y-138800745D01*
X124322745Y-138687499D01*
X124455899Y-138598529D01*
X124603858Y-138537242D01*
X124760925Y-138506000D01*
X124921075Y-138506000D01*
X125078142Y-138537242D01*
X125078142Y-138537242D01*
G37*
G36*
X125078142Y-135997242D02*
G01*
X125226101Y-136058529D01*
X125359255Y-136147499D01*
X125472501Y-136260745D01*
X125561471Y-136393899D01*
X125622758Y-136541858D01*
X125654000Y-136698925D01*
X125654000Y-136859075D01*
X125622758Y-137016142D01*
X125561471Y-137164101D01*
X125472501Y-137297255D01*
X125359255Y-137410501D01*
X125226101Y-137499471D01*
X125078142Y-137560758D01*
X124921075Y-137592000D01*
X124760925Y-137592000D01*
X124603858Y-137560758D01*
X124455899Y-137499471D01*
X124322745Y-137410501D01*
X124209499Y-137297255D01*
X124120529Y-137164101D01*
X124059242Y-137016142D01*
X124028000Y-136859075D01*
X124028000Y-136698925D01*
X124059242Y-136541858D01*
X124120529Y-136393899D01*
X124209499Y-136260745D01*
X124322745Y-136147499D01*
X124455899Y-136058529D01*
X124603858Y-135997242D01*
X124760925Y-135966000D01*
X124921075Y-135966000D01*
X125078142Y-135997242D01*
X125078142Y-135997242D01*
G37*
G36*
X228102039Y-132658250D02*
G01*
X228291372Y-132736675D01*
X228425251Y-132792129D01*
X228716134Y-132986491D01*
X228963509Y-133233866D01*
X229157871Y-133524749D01*
X229157871Y-133524750D01*
X229291750Y-133847961D01*
X229360000Y-134191078D01*
X229360000Y-134540922D01*
X229291750Y-134884039D01*
X229260505Y-134959471D01*
X229157871Y-135207251D01*
X228963509Y-135498134D01*
X228716134Y-135745509D01*
X228425251Y-135939871D01*
X228291372Y-135995325D01*
X228102039Y-136073750D01*
X227758922Y-136142000D01*
X227409078Y-136142000D01*
X227065961Y-136073750D01*
X226876628Y-135995325D01*
X226742749Y-135939871D01*
X226451866Y-135745509D01*
X226204491Y-135498134D01*
X226010129Y-135207251D01*
X225907495Y-134959471D01*
X225876250Y-134884039D01*
X225808000Y-134540922D01*
X225808000Y-134191078D01*
X225876250Y-133847961D01*
X226010129Y-133524750D01*
X226010129Y-133524749D01*
X226204491Y-133233866D01*
X226451866Y-132986491D01*
X226742749Y-132792129D01*
X226876628Y-132736675D01*
X227065961Y-132658250D01*
X227409078Y-132590000D01*
X227758922Y-132590000D01*
X228102039Y-132658250D01*
X228102039Y-132658250D01*
G37*
G36*
X125078142Y-133457242D02*
G01*
X125226101Y-133518529D01*
X125359255Y-133607499D01*
X125472501Y-133720745D01*
X125561471Y-133853899D01*
X125622758Y-134001858D01*
X125654000Y-134158925D01*
X125654000Y-134319075D01*
X125622758Y-134476142D01*
X125561471Y-134624101D01*
X125472501Y-134757255D01*
X125359255Y-134870501D01*
X125226101Y-134959471D01*
X125078142Y-135020758D01*
X124921075Y-135052000D01*
X124760925Y-135052000D01*
X124603858Y-135020758D01*
X124455899Y-134959471D01*
X124322745Y-134870501D01*
X124209499Y-134757255D01*
X124120529Y-134624101D01*
X124059242Y-134476142D01*
X124028000Y-134319075D01*
X124028000Y-134158925D01*
X124059242Y-134001858D01*
X124120529Y-133853899D01*
X124209499Y-133720745D01*
X124322745Y-133607499D01*
X124455899Y-133518529D01*
X124603858Y-133457242D01*
X124760925Y-133426000D01*
X124921075Y-133426000D01*
X125078142Y-133457242D01*
X125078142Y-133457242D01*
G37*
G36*
X219185142Y-132314242D02*
G01*
X219333101Y-132375529D01*
X219466255Y-132464499D01*
X219579501Y-132577745D01*
X219668471Y-132710899D01*
X219729758Y-132858858D01*
X219761000Y-133015925D01*
X219761000Y-133176075D01*
X219729758Y-133333142D01*
X219668471Y-133481101D01*
X219579501Y-133614255D01*
X219466255Y-133727501D01*
X219333101Y-133816471D01*
X219185142Y-133877758D01*
X219028075Y-133909000D01*
X218867925Y-133909000D01*
X218710858Y-133877758D01*
X218562899Y-133816471D01*
X218429745Y-133727501D01*
X218316499Y-133614255D01*
X218227529Y-133481101D01*
X218166242Y-133333142D01*
X218135000Y-133176075D01*
X218135000Y-133015925D01*
X218166242Y-132858858D01*
X218227529Y-132710899D01*
X218316499Y-132577745D01*
X218429745Y-132464499D01*
X218562899Y-132375529D01*
X218710858Y-132314242D01*
X218867925Y-132283000D01*
X219028075Y-132283000D01*
X219185142Y-132314242D01*
X219185142Y-132314242D01*
G37*
G36*
X125078142Y-130917242D02*
G01*
X125226101Y-130978529D01*
X125359255Y-131067499D01*
X125472501Y-131180745D01*
X125561471Y-131313899D01*
X125622758Y-131461858D01*
X125654000Y-131618925D01*
X125654000Y-131779075D01*
X125622758Y-131936142D01*
X125561471Y-132084101D01*
X125472501Y-132217255D01*
X125359255Y-132330501D01*
X125226101Y-132419471D01*
X125078142Y-132480758D01*
X124921075Y-132512000D01*
X124760925Y-132512000D01*
X124603858Y-132480758D01*
X124455899Y-132419471D01*
X124322745Y-132330501D01*
X124209499Y-132217255D01*
X124120529Y-132084101D01*
X124059242Y-131936142D01*
X124028000Y-131779075D01*
X124028000Y-131618925D01*
X124059242Y-131461858D01*
X124120529Y-131313899D01*
X124209499Y-131180745D01*
X124322745Y-131067499D01*
X124455899Y-130978529D01*
X124603858Y-130917242D01*
X124760925Y-130886000D01*
X124921075Y-130886000D01*
X125078142Y-130917242D01*
X125078142Y-130917242D01*
G37*
G36*
X116723039Y-128721250D02*
G01*
X116907742Y-128797757D01*
X117046251Y-128855129D01*
X117337134Y-129049491D01*
X117584509Y-129296866D01*
X117778871Y-129587749D01*
X117778871Y-129587750D01*
X117912750Y-129910961D01*
X117981000Y-130254078D01*
X117981000Y-130603922D01*
X117912750Y-130947039D01*
X117862853Y-131067501D01*
X117778871Y-131270251D01*
X117584509Y-131561134D01*
X117337134Y-131808509D01*
X117046251Y-132002871D01*
X116912372Y-132058325D01*
X116723039Y-132136750D01*
X116379922Y-132205000D01*
X116030078Y-132205000D01*
X115686961Y-132136750D01*
X115497628Y-132058325D01*
X115363749Y-132002871D01*
X115072866Y-131808509D01*
X114825491Y-131561134D01*
X114631129Y-131270251D01*
X114547147Y-131067501D01*
X114497250Y-130947039D01*
X114429000Y-130603922D01*
X114429000Y-130254078D01*
X114497250Y-129910961D01*
X114631129Y-129587750D01*
X114631129Y-129587749D01*
X114825491Y-129296866D01*
X115072866Y-129049491D01*
X115363749Y-128855129D01*
X115502258Y-128797757D01*
X115686961Y-128721250D01*
X116030078Y-128653000D01*
X116379922Y-128653000D01*
X116723039Y-128721250D01*
X116723039Y-128721250D01*
G37*
G36*
X219185142Y-129774242D02*
G01*
X219333101Y-129835529D01*
X219466255Y-129924499D01*
X219579501Y-130037745D01*
X219668471Y-130170899D01*
X219729758Y-130318858D01*
X219761000Y-130475925D01*
X219761000Y-130636075D01*
X219729758Y-130793142D01*
X219668471Y-130941101D01*
X219579501Y-131074255D01*
X219466255Y-131187501D01*
X219333101Y-131276471D01*
X219185142Y-131337758D01*
X219028075Y-131369000D01*
X218867925Y-131369000D01*
X218710858Y-131337758D01*
X218562899Y-131276471D01*
X218429745Y-131187501D01*
X218316499Y-131074255D01*
X218227529Y-130941101D01*
X218166242Y-130793142D01*
X218135000Y-130636075D01*
X218135000Y-130475925D01*
X218166242Y-130318858D01*
X218227529Y-130170899D01*
X218316499Y-130037745D01*
X218429745Y-129924499D01*
X218562899Y-129835529D01*
X218710858Y-129774242D01*
X218867925Y-129743000D01*
X219028075Y-129743000D01*
X219185142Y-129774242D01*
X219185142Y-129774242D01*
G37*
G36*
X219185142Y-127234242D02*
G01*
X219333101Y-127295529D01*
X219466255Y-127384499D01*
X219579501Y-127497745D01*
X219668471Y-127630899D01*
X219729758Y-127778858D01*
X219761000Y-127935925D01*
X219761000Y-128096075D01*
X219729758Y-128253142D01*
X219668471Y-128401101D01*
X219579501Y-128534255D01*
X219466255Y-128647501D01*
X219333101Y-128736471D01*
X219185142Y-128797758D01*
X219028075Y-128829000D01*
X218867925Y-128829000D01*
X218710858Y-128797758D01*
X218562899Y-128736471D01*
X218429745Y-128647501D01*
X218316499Y-128534255D01*
X218227529Y-128401101D01*
X218166242Y-128253142D01*
X218135000Y-128096075D01*
X218135000Y-127935925D01*
X218166242Y-127778858D01*
X218227529Y-127630899D01*
X218316499Y-127497745D01*
X218429745Y-127384499D01*
X218562899Y-127295529D01*
X218710858Y-127234242D01*
X218867925Y-127203000D01*
X219028075Y-127203000D01*
X219185142Y-127234242D01*
X219185142Y-127234242D01*
G37*
G36*
X219185142Y-124694242D02*
G01*
X219333101Y-124755529D01*
X219466255Y-124844499D01*
X219579501Y-124957745D01*
X219668471Y-125090899D01*
X219729758Y-125238858D01*
X219761000Y-125395925D01*
X219761000Y-125556075D01*
X219729758Y-125713142D01*
X219668471Y-125861101D01*
X219579501Y-125994255D01*
X219466255Y-126107501D01*
X219333101Y-126196471D01*
X219185142Y-126257758D01*
X219028075Y-126289000D01*
X218867925Y-126289000D01*
X218710858Y-126257758D01*
X218562899Y-126196471D01*
X218429745Y-126107501D01*
X218316499Y-125994255D01*
X218227529Y-125861101D01*
X218166242Y-125713142D01*
X218135000Y-125556075D01*
X218135000Y-125395925D01*
X218166242Y-125238858D01*
X218227529Y-125090899D01*
X218316499Y-124957745D01*
X218429745Y-124844499D01*
X218562899Y-124755529D01*
X218710858Y-124694242D01*
X218867925Y-124663000D01*
X219028075Y-124663000D01*
X219185142Y-124694242D01*
X219185142Y-124694242D01*
G37*
G36*
X219185142Y-122154242D02*
G01*
X219333101Y-122215529D01*
X219466255Y-122304499D01*
X219579501Y-122417745D01*
X219668471Y-122550899D01*
X219729758Y-122698858D01*
X219761000Y-122855925D01*
X219761000Y-123016075D01*
X219729758Y-123173142D01*
X219668471Y-123321101D01*
X219579501Y-123454255D01*
X219466255Y-123567501D01*
X219333101Y-123656471D01*
X219185142Y-123717758D01*
X219028075Y-123749000D01*
X218867925Y-123749000D01*
X218710858Y-123717758D01*
X218562899Y-123656471D01*
X218429745Y-123567501D01*
X218316499Y-123454255D01*
X218227529Y-123321101D01*
X218166242Y-123173142D01*
X218135000Y-123016075D01*
X218135000Y-122855925D01*
X218166242Y-122698858D01*
X218227529Y-122550899D01*
X218316499Y-122417745D01*
X218429745Y-122304499D01*
X218562899Y-122215529D01*
X218710858Y-122154242D01*
X218867925Y-122123000D01*
X219028075Y-122123000D01*
X219185142Y-122154242D01*
X219185142Y-122154242D01*
G37*
G36*
X228102039Y-119958250D02*
G01*
X228291372Y-120036675D01*
X228425251Y-120092129D01*
X228716134Y-120286491D01*
X228963509Y-120533866D01*
X229157871Y-120824749D01*
X229157871Y-120824750D01*
X229291750Y-121147961D01*
X229360000Y-121491078D01*
X229360000Y-121840922D01*
X229291750Y-122184039D01*
X229241853Y-122304501D01*
X229157871Y-122507251D01*
X228963509Y-122798134D01*
X228716134Y-123045509D01*
X228425251Y-123239871D01*
X228291372Y-123295325D01*
X228102039Y-123373750D01*
X227758922Y-123442000D01*
X227409078Y-123442000D01*
X227065961Y-123373750D01*
X226876628Y-123295325D01*
X226742749Y-123239871D01*
X226451866Y-123045509D01*
X226204491Y-122798134D01*
X226010129Y-122507251D01*
X225926147Y-122304501D01*
X225876250Y-122184039D01*
X225808000Y-121840922D01*
X225808000Y-121491078D01*
X225876250Y-121147961D01*
X226010129Y-120824750D01*
X226010129Y-120824749D01*
X226204491Y-120533866D01*
X226451866Y-120286491D01*
X226742749Y-120092129D01*
X226876628Y-120036675D01*
X227065961Y-119958250D01*
X227409078Y-119890000D01*
X227758922Y-119890000D01*
X228102039Y-119958250D01*
X228102039Y-119958250D01*
G37*
G36*
X228102039Y-114370250D02*
G01*
X228291372Y-114448675D01*
X228425251Y-114504129D01*
X228716134Y-114698491D01*
X228963509Y-114945866D01*
X229157871Y-115236749D01*
X229157871Y-115236750D01*
X229291750Y-115559961D01*
X229360000Y-115903078D01*
X229360000Y-116252922D01*
X229291750Y-116596039D01*
X229213325Y-116785372D01*
X229157871Y-116919251D01*
X228963509Y-117210134D01*
X228716134Y-117457509D01*
X228425251Y-117651871D01*
X228291372Y-117707325D01*
X228102039Y-117785750D01*
X227758922Y-117854000D01*
X227409078Y-117854000D01*
X227065961Y-117785750D01*
X226876628Y-117707325D01*
X226742749Y-117651871D01*
X226451866Y-117457509D01*
X226204491Y-117210134D01*
X226010129Y-116919251D01*
X225954675Y-116785372D01*
X225876250Y-116596039D01*
X225808000Y-116252922D01*
X225808000Y-115903078D01*
X225876250Y-115559961D01*
X226010129Y-115236750D01*
X226010129Y-115236749D01*
X226204491Y-114945866D01*
X226451866Y-114698491D01*
X226742749Y-114504129D01*
X226876628Y-114448675D01*
X227065961Y-114370250D01*
X227409078Y-114302000D01*
X227758922Y-114302000D01*
X228102039Y-114370250D01*
X228102039Y-114370250D01*
G37*
G36*
X219185142Y-114026242D02*
G01*
X219333101Y-114087529D01*
X219466255Y-114176499D01*
X219579501Y-114289745D01*
X219668471Y-114422899D01*
X219729758Y-114570858D01*
X219761000Y-114727925D01*
X219761000Y-114888075D01*
X219729758Y-115045142D01*
X219668471Y-115193101D01*
X219579501Y-115326255D01*
X219466255Y-115439501D01*
X219333101Y-115528471D01*
X219185142Y-115589758D01*
X219028075Y-115621000D01*
X218867925Y-115621000D01*
X218710858Y-115589758D01*
X218562899Y-115528471D01*
X218429745Y-115439501D01*
X218316499Y-115326255D01*
X218227529Y-115193101D01*
X218166242Y-115045142D01*
X218135000Y-114888075D01*
X218135000Y-114727925D01*
X218166242Y-114570858D01*
X218227529Y-114422899D01*
X218316499Y-114289745D01*
X218429745Y-114176499D01*
X218562899Y-114087529D01*
X218710858Y-114026242D01*
X218867925Y-113995000D01*
X219028075Y-113995000D01*
X219185142Y-114026242D01*
X219185142Y-114026242D01*
G37*
G36*
X219185142Y-111486242D02*
G01*
X219333101Y-111547529D01*
X219466255Y-111636499D01*
X219579501Y-111749745D01*
X219668471Y-111882899D01*
X219729758Y-112030858D01*
X219761000Y-112187925D01*
X219761000Y-112348075D01*
X219729758Y-112505142D01*
X219668471Y-112653101D01*
X219579501Y-112786255D01*
X219466255Y-112899501D01*
X219333101Y-112988471D01*
X219185142Y-113049758D01*
X219028075Y-113081000D01*
X218867925Y-113081000D01*
X218710858Y-113049758D01*
X218562899Y-112988471D01*
X218429745Y-112899501D01*
X218316499Y-112786255D01*
X218227529Y-112653101D01*
X218166242Y-112505142D01*
X218135000Y-112348075D01*
X218135000Y-112187925D01*
X218166242Y-112030858D01*
X218227529Y-111882899D01*
X218316499Y-111749745D01*
X218429745Y-111636499D01*
X218562899Y-111547529D01*
X218710858Y-111486242D01*
X218867925Y-111455000D01*
X219028075Y-111455000D01*
X219185142Y-111486242D01*
X219185142Y-111486242D01*
G37*
G36*
X219185142Y-108946242D02*
G01*
X219333101Y-109007529D01*
X219466255Y-109096499D01*
X219579501Y-109209745D01*
X219668471Y-109342899D01*
X219729758Y-109490858D01*
X219761000Y-109647925D01*
X219761000Y-109808075D01*
X219729758Y-109965142D01*
X219668471Y-110113101D01*
X219579501Y-110246255D01*
X219466255Y-110359501D01*
X219333101Y-110448471D01*
X219185142Y-110509758D01*
X219028075Y-110541000D01*
X218867925Y-110541000D01*
X218710858Y-110509758D01*
X218562899Y-110448471D01*
X218429745Y-110359501D01*
X218316499Y-110246255D01*
X218227529Y-110113101D01*
X218166242Y-109965142D01*
X218135000Y-109808075D01*
X218135000Y-109647925D01*
X218166242Y-109490858D01*
X218227529Y-109342899D01*
X218316499Y-109209745D01*
X218429745Y-109096499D01*
X218562899Y-109007529D01*
X218710858Y-108946242D01*
X218867925Y-108915000D01*
X219028075Y-108915000D01*
X219185142Y-108946242D01*
X219185142Y-108946242D01*
G37*
G36*
X219185142Y-106406242D02*
G01*
X219333101Y-106467529D01*
X219466255Y-106556499D01*
X219579501Y-106669745D01*
X219668471Y-106802899D01*
X219729758Y-106950858D01*
X219761000Y-107107925D01*
X219761000Y-107268075D01*
X219729758Y-107425142D01*
X219668471Y-107573101D01*
X219579501Y-107706255D01*
X219466255Y-107819501D01*
X219333101Y-107908471D01*
X219185142Y-107969758D01*
X219028075Y-108001000D01*
X218867925Y-108001000D01*
X218710858Y-107969758D01*
X218562899Y-107908471D01*
X218429745Y-107819501D01*
X218316499Y-107706255D01*
X218227529Y-107573101D01*
X218166242Y-107425142D01*
X218135000Y-107268075D01*
X218135000Y-107107925D01*
X218166242Y-106950858D01*
X218227529Y-106802899D01*
X218316499Y-106669745D01*
X218429745Y-106556499D01*
X218562899Y-106467529D01*
X218710858Y-106406242D01*
X218867925Y-106375000D01*
X219028075Y-106375000D01*
X219185142Y-106406242D01*
X219185142Y-106406242D01*
G37*
G36*
X219185142Y-103866242D02*
G01*
X219333101Y-103927529D01*
X219466255Y-104016499D01*
X219579501Y-104129745D01*
X219668471Y-104262899D01*
X219729758Y-104410858D01*
X219761000Y-104567925D01*
X219761000Y-104728075D01*
X219729758Y-104885142D01*
X219668471Y-105033101D01*
X219579501Y-105166255D01*
X219466255Y-105279501D01*
X219333101Y-105368471D01*
X219185142Y-105429758D01*
X219028075Y-105461000D01*
X218867925Y-105461000D01*
X218710858Y-105429758D01*
X218562899Y-105368471D01*
X218429745Y-105279501D01*
X218316499Y-105166255D01*
X218227529Y-105033101D01*
X218166242Y-104885142D01*
X218135000Y-104728075D01*
X218135000Y-104567925D01*
X218166242Y-104410858D01*
X218227529Y-104262899D01*
X218316499Y-104129745D01*
X218429745Y-104016499D01*
X218562899Y-103927529D01*
X218710858Y-103866242D01*
X218867925Y-103835000D01*
X219028075Y-103835000D01*
X219185142Y-103866242D01*
X219185142Y-103866242D01*
G37*
G36*
X228102039Y-101670250D02*
G01*
X228291372Y-101748675D01*
X228425251Y-101804129D01*
X228716134Y-101998491D01*
X228963509Y-102245866D01*
X229157871Y-102536749D01*
X229157871Y-102536750D01*
X229291750Y-102859961D01*
X229360000Y-103203078D01*
X229360000Y-103552922D01*
X229291750Y-103896039D01*
X229241853Y-104016501D01*
X229157871Y-104219251D01*
X228963509Y-104510134D01*
X228716134Y-104757509D01*
X228425251Y-104951871D01*
X228291372Y-105007325D01*
X228102039Y-105085750D01*
X227758922Y-105154000D01*
X227409078Y-105154000D01*
X227065961Y-105085750D01*
X226876628Y-105007325D01*
X226742749Y-104951871D01*
X226451866Y-104757509D01*
X226204491Y-104510134D01*
X226010129Y-104219251D01*
X225926147Y-104016501D01*
X225876250Y-103896039D01*
X225808000Y-103552922D01*
X225808000Y-103203078D01*
X225876250Y-102859961D01*
X226010129Y-102536750D01*
X226010129Y-102536749D01*
X226204491Y-102245866D01*
X226451866Y-101998491D01*
X226742749Y-101804129D01*
X226876628Y-101748675D01*
X227065961Y-101670250D01*
X227409078Y-101602000D01*
X227758922Y-101602000D01*
X228102039Y-101670250D01*
X228102039Y-101670250D01*
G37*
G36*
X228102039Y-96082250D02*
G01*
X228291372Y-96160675D01*
X228425251Y-96216129D01*
X228716134Y-96410491D01*
X228963509Y-96657866D01*
X229157871Y-96948749D01*
X229157871Y-96948750D01*
X229291750Y-97271961D01*
X229360000Y-97615078D01*
X229360000Y-97964922D01*
X229291750Y-98308039D01*
X229213325Y-98497372D01*
X229157871Y-98631251D01*
X228963509Y-98922134D01*
X228716134Y-99169509D01*
X228425251Y-99363871D01*
X228291372Y-99419325D01*
X228102039Y-99497750D01*
X227758922Y-99566000D01*
X227409078Y-99566000D01*
X227065961Y-99497750D01*
X226876628Y-99419325D01*
X226742749Y-99363871D01*
X226451866Y-99169509D01*
X226204491Y-98922134D01*
X226010129Y-98631251D01*
X225954675Y-98497372D01*
X225876250Y-98308039D01*
X225808000Y-97964922D01*
X225808000Y-97615078D01*
X225876250Y-97271961D01*
X226010129Y-96948750D01*
X226010129Y-96948749D01*
X226204491Y-96657866D01*
X226451866Y-96410491D01*
X226742749Y-96216129D01*
X226876628Y-96160675D01*
X227065961Y-96082250D01*
X227409078Y-96014000D01*
X227758922Y-96014000D01*
X228102039Y-96082250D01*
X228102039Y-96082250D01*
G37*
G36*
X219185142Y-95738242D02*
G01*
X219333101Y-95799529D01*
X219466255Y-95888499D01*
X219579501Y-96001745D01*
X219668471Y-96134899D01*
X219729758Y-96282858D01*
X219761000Y-96439925D01*
X219761000Y-96600075D01*
X219729758Y-96757142D01*
X219668471Y-96905101D01*
X219579501Y-97038255D01*
X219466255Y-97151501D01*
X219333101Y-97240471D01*
X219185142Y-97301758D01*
X219028075Y-97333000D01*
X218867925Y-97333000D01*
X218710858Y-97301758D01*
X218562899Y-97240471D01*
X218429745Y-97151501D01*
X218316499Y-97038255D01*
X218227529Y-96905101D01*
X218166242Y-96757142D01*
X218135000Y-96600075D01*
X218135000Y-96439925D01*
X218166242Y-96282858D01*
X218227529Y-96134899D01*
X218316499Y-96001745D01*
X218429745Y-95888499D01*
X218562899Y-95799529D01*
X218710858Y-95738242D01*
X218867925Y-95707000D01*
X219028075Y-95707000D01*
X219185142Y-95738242D01*
X219185142Y-95738242D01*
G37*
G36*
X219185142Y-93198242D02*
G01*
X219333101Y-93259529D01*
X219466255Y-93348499D01*
X219579501Y-93461745D01*
X219668471Y-93594899D01*
X219729758Y-93742858D01*
X219761000Y-93899925D01*
X219761000Y-94060075D01*
X219729758Y-94217142D01*
X219668471Y-94365101D01*
X219579501Y-94498255D01*
X219466255Y-94611501D01*
X219333101Y-94700471D01*
X219185142Y-94761758D01*
X219028075Y-94793000D01*
X218867925Y-94793000D01*
X218710858Y-94761758D01*
X218562899Y-94700471D01*
X218429745Y-94611501D01*
X218316499Y-94498255D01*
X218227529Y-94365101D01*
X218166242Y-94217142D01*
X218135000Y-94060075D01*
X218135000Y-93899925D01*
X218166242Y-93742858D01*
X218227529Y-93594899D01*
X218316499Y-93461745D01*
X218429745Y-93348499D01*
X218562899Y-93259529D01*
X218710858Y-93198242D01*
X218867925Y-93167000D01*
X219028075Y-93167000D01*
X219185142Y-93198242D01*
X219185142Y-93198242D01*
G37*
G36*
X219185142Y-90658242D02*
G01*
X219333101Y-90719529D01*
X219466255Y-90808499D01*
X219579501Y-90921745D01*
X219668471Y-91054899D01*
X219729758Y-91202858D01*
X219761000Y-91359925D01*
X219761000Y-91520075D01*
X219729758Y-91677142D01*
X219668471Y-91825101D01*
X219579501Y-91958255D01*
X219466255Y-92071501D01*
X219333101Y-92160471D01*
X219185142Y-92221758D01*
X219028075Y-92253000D01*
X218867925Y-92253000D01*
X218710858Y-92221758D01*
X218562899Y-92160471D01*
X218429745Y-92071501D01*
X218316499Y-91958255D01*
X218227529Y-91825101D01*
X218166242Y-91677142D01*
X218135000Y-91520075D01*
X218135000Y-91359925D01*
X218166242Y-91202858D01*
X218227529Y-91054899D01*
X218316499Y-90921745D01*
X218429745Y-90808499D01*
X218562899Y-90719529D01*
X218710858Y-90658242D01*
X218867925Y-90627000D01*
X219028075Y-90627000D01*
X219185142Y-90658242D01*
X219185142Y-90658242D01*
G37*
G36*
X154310059Y-88304860D02*
G01*
X154446732Y-88361472D01*
X154569735Y-88443660D01*
X154674340Y-88548265D01*
X154756528Y-88671268D01*
X154756529Y-88671270D01*
X154813140Y-88807941D01*
X154842000Y-88953032D01*
X154842000Y-89100968D01*
X154834804Y-89137143D01*
X154813140Y-89246059D01*
X154756528Y-89382732D01*
X154674340Y-89505735D01*
X154569735Y-89610340D01*
X154446732Y-89692528D01*
X154446731Y-89692529D01*
X154446730Y-89692529D01*
X154310059Y-89749140D01*
X154164968Y-89778000D01*
X154017032Y-89778000D01*
X153871941Y-89749140D01*
X153735270Y-89692529D01*
X153735269Y-89692529D01*
X153735268Y-89692528D01*
X153612265Y-89610340D01*
X153507660Y-89505735D01*
X153425472Y-89382732D01*
X153368860Y-89246059D01*
X153347196Y-89137143D01*
X153340000Y-89100968D01*
X153340000Y-88953032D01*
X153368860Y-88807941D01*
X153425471Y-88671270D01*
X153425472Y-88671268D01*
X153507660Y-88548265D01*
X153612265Y-88443660D01*
X153735268Y-88361472D01*
X153871941Y-88304860D01*
X154017032Y-88276000D01*
X154164968Y-88276000D01*
X154310059Y-88304860D01*
X154310059Y-88304860D01*
G37*
G36*
X151810059Y-88304860D02*
G01*
X151946732Y-88361472D01*
X152069735Y-88443660D01*
X152174340Y-88548265D01*
X152256528Y-88671268D01*
X152256529Y-88671270D01*
X152313140Y-88807941D01*
X152342000Y-88953032D01*
X152342000Y-89100968D01*
X152334804Y-89137143D01*
X152313140Y-89246059D01*
X152256528Y-89382732D01*
X152174340Y-89505735D01*
X152069735Y-89610340D01*
X151946732Y-89692528D01*
X151946731Y-89692529D01*
X151946730Y-89692529D01*
X151810059Y-89749140D01*
X151664968Y-89778000D01*
X151517032Y-89778000D01*
X151371941Y-89749140D01*
X151235270Y-89692529D01*
X151235269Y-89692529D01*
X151235268Y-89692528D01*
X151112265Y-89610340D01*
X151007660Y-89505735D01*
X150925472Y-89382732D01*
X150868860Y-89246059D01*
X150847196Y-89137143D01*
X150840000Y-89100968D01*
X150840000Y-88953032D01*
X150868860Y-88807941D01*
X150925471Y-88671270D01*
X150925472Y-88671268D01*
X151007660Y-88548265D01*
X151112265Y-88443660D01*
X151235268Y-88361472D01*
X151371941Y-88304860D01*
X151517032Y-88276000D01*
X151664968Y-88276000D01*
X151810059Y-88304860D01*
X151810059Y-88304860D01*
G37*
G36*
X157342000Y-89778000D02*
G01*
X155840000Y-89778000D01*
X155840000Y-88276000D01*
X157342000Y-88276000D01*
X157342000Y-89778000D01*
X157342000Y-89778000D01*
G37*
G36*
X219185142Y-88118242D02*
G01*
X219333101Y-88179529D01*
X219466255Y-88268499D01*
X219579501Y-88381745D01*
X219668471Y-88514899D01*
X219729758Y-88662858D01*
X219761000Y-88819925D01*
X219761000Y-88980075D01*
X219729758Y-89137142D01*
X219668471Y-89285101D01*
X219579501Y-89418255D01*
X219466255Y-89531501D01*
X219333101Y-89620471D01*
X219185142Y-89681758D01*
X219028075Y-89713000D01*
X218867925Y-89713000D01*
X218710858Y-89681758D01*
X218562899Y-89620471D01*
X218429745Y-89531501D01*
X218316499Y-89418255D01*
X218227529Y-89285101D01*
X218166242Y-89137142D01*
X218135000Y-88980075D01*
X218135000Y-88819925D01*
X218166242Y-88662858D01*
X218227529Y-88514899D01*
X218316499Y-88381745D01*
X218429745Y-88268499D01*
X218562899Y-88179529D01*
X218710858Y-88118242D01*
X218867925Y-88087000D01*
X219028075Y-88087000D01*
X219185142Y-88118242D01*
X219185142Y-88118242D01*
G37*
G36*
X219185142Y-85578242D02*
G01*
X219333101Y-85639529D01*
X219466255Y-85728499D01*
X219579501Y-85841745D01*
X219668471Y-85974899D01*
X219729758Y-86122858D01*
X219761000Y-86279925D01*
X219761000Y-86440075D01*
X219729758Y-86597142D01*
X219668471Y-86745101D01*
X219579501Y-86878255D01*
X219466255Y-86991501D01*
X219333101Y-87080471D01*
X219185142Y-87141758D01*
X219028075Y-87173000D01*
X218867925Y-87173000D01*
X218710858Y-87141758D01*
X218562899Y-87080471D01*
X218429745Y-86991501D01*
X218316499Y-86878255D01*
X218227529Y-86745101D01*
X218166242Y-86597142D01*
X218135000Y-86440075D01*
X218135000Y-86279925D01*
X218166242Y-86122858D01*
X218227529Y-85974899D01*
X218316499Y-85841745D01*
X218429745Y-85728499D01*
X218562899Y-85639529D01*
X218710858Y-85578242D01*
X218867925Y-85547000D01*
X219028075Y-85547000D01*
X219185142Y-85578242D01*
X219185142Y-85578242D01*
G37*
G36*
X228102039Y-83382250D02*
G01*
X228291372Y-83460675D01*
X228425251Y-83516129D01*
X228716134Y-83710491D01*
X228963509Y-83957866D01*
X229157871Y-84248749D01*
X229157871Y-84248750D01*
X229291750Y-84571961D01*
X229360000Y-84915078D01*
X229360000Y-85264922D01*
X229291750Y-85608039D01*
X229241853Y-85728501D01*
X229157871Y-85931251D01*
X228963509Y-86222134D01*
X228716134Y-86469509D01*
X228425251Y-86663871D01*
X228291372Y-86719325D01*
X228102039Y-86797750D01*
X227758922Y-86866000D01*
X227409078Y-86866000D01*
X227065961Y-86797750D01*
X226876628Y-86719325D01*
X226742749Y-86663871D01*
X226451866Y-86469509D01*
X226204491Y-86222134D01*
X226010129Y-85931251D01*
X225926147Y-85728501D01*
X225876250Y-85608039D01*
X225808000Y-85264922D01*
X225808000Y-84915078D01*
X225876250Y-84571961D01*
X226010129Y-84248750D01*
X226010129Y-84248749D01*
X226204491Y-83957866D01*
X226451866Y-83710491D01*
X226742749Y-83516129D01*
X226876628Y-83460675D01*
X227065961Y-83382250D01*
X227409078Y-83314000D01*
X227758922Y-83314000D01*
X228102039Y-83382250D01*
X228102039Y-83382250D01*
G37*
G36*
X151810059Y-85004860D02*
G01*
X151946732Y-85061472D01*
X152069735Y-85143660D01*
X152174340Y-85248265D01*
X152174341Y-85248267D01*
X152256529Y-85371270D01*
X152313140Y-85507941D01*
X152327124Y-85578242D01*
X152342000Y-85653033D01*
X152342000Y-85800967D01*
X152313140Y-85946059D01*
X152256528Y-86082732D01*
X152174340Y-86205735D01*
X152069735Y-86310340D01*
X151946732Y-86392528D01*
X151946731Y-86392529D01*
X151946730Y-86392529D01*
X151810059Y-86449140D01*
X151664968Y-86478000D01*
X151517032Y-86478000D01*
X151371941Y-86449140D01*
X151235270Y-86392529D01*
X151235269Y-86392529D01*
X151235268Y-86392528D01*
X151112265Y-86310340D01*
X151007660Y-86205735D01*
X150925472Y-86082732D01*
X150868860Y-85946059D01*
X150840000Y-85800967D01*
X150840000Y-85653033D01*
X150854877Y-85578242D01*
X150868860Y-85507941D01*
X150925471Y-85371270D01*
X151007659Y-85248267D01*
X151007660Y-85248265D01*
X151112265Y-85143660D01*
X151235268Y-85061472D01*
X151371941Y-85004860D01*
X151517032Y-84976000D01*
X151664968Y-84976000D01*
X151810059Y-85004860D01*
X151810059Y-85004860D01*
G37*
G36*
X154310059Y-85004860D02*
G01*
X154446732Y-85061472D01*
X154569735Y-85143660D01*
X154674340Y-85248265D01*
X154674341Y-85248267D01*
X154756529Y-85371270D01*
X154813140Y-85507941D01*
X154827124Y-85578242D01*
X154842000Y-85653033D01*
X154842000Y-85800967D01*
X154813140Y-85946059D01*
X154756528Y-86082732D01*
X154674340Y-86205735D01*
X154569735Y-86310340D01*
X154446732Y-86392528D01*
X154446731Y-86392529D01*
X154446730Y-86392529D01*
X154310059Y-86449140D01*
X154164968Y-86478000D01*
X154017032Y-86478000D01*
X153871941Y-86449140D01*
X153735270Y-86392529D01*
X153735269Y-86392529D01*
X153735268Y-86392528D01*
X153612265Y-86310340D01*
X153507660Y-86205735D01*
X153425472Y-86082732D01*
X153368860Y-85946059D01*
X153340000Y-85800967D01*
X153340000Y-85653033D01*
X153354877Y-85578242D01*
X153368860Y-85507941D01*
X153425471Y-85371270D01*
X153507659Y-85248267D01*
X153507660Y-85248265D01*
X153612265Y-85143660D01*
X153735268Y-85061472D01*
X153871941Y-85004860D01*
X154017032Y-84976000D01*
X154164968Y-84976000D01*
X154310059Y-85004860D01*
X154310059Y-85004860D01*
G37*
G36*
X156810059Y-85004860D02*
G01*
X156946732Y-85061472D01*
X157069735Y-85143660D01*
X157174340Y-85248265D01*
X157174341Y-85248267D01*
X157256529Y-85371270D01*
X157313140Y-85507941D01*
X157327124Y-85578242D01*
X157342000Y-85653033D01*
X157342000Y-85800967D01*
X157313140Y-85946059D01*
X157256528Y-86082732D01*
X157174340Y-86205735D01*
X157069735Y-86310340D01*
X156946732Y-86392528D01*
X156946731Y-86392529D01*
X156946730Y-86392529D01*
X156810059Y-86449140D01*
X156664968Y-86478000D01*
X156517032Y-86478000D01*
X156371941Y-86449140D01*
X156235270Y-86392529D01*
X156235269Y-86392529D01*
X156235268Y-86392528D01*
X156112265Y-86310340D01*
X156007660Y-86205735D01*
X155925472Y-86082732D01*
X155868860Y-85946059D01*
X155840000Y-85800967D01*
X155840000Y-85653033D01*
X155854877Y-85578242D01*
X155868860Y-85507941D01*
X155925471Y-85371270D01*
X156007659Y-85248267D01*
X156007660Y-85248265D01*
X156112265Y-85143660D01*
X156235268Y-85061472D01*
X156371941Y-85004860D01*
X156517032Y-84976000D01*
X156664968Y-84976000D01*
X156810059Y-85004860D01*
X156810059Y-85004860D01*
G37*
M02*
