M48
; DRILL file {KiCad (5.1.4)-1} date 11/22/2019 3:53:53 PM
; FORMAT={-:-/ absolute / inch / decimal}
; #@! TF.CreationDate,2019-11-22T15:53:53-06:00
; #@! TF.GenerationSoftware,Kicad,Pcbnew,(5.1.4)-1
; #@! TF.FileFunction,Plated,1,2,PTH
FMAT,2
INCH
T1C0.0157
T2C0.0350
T3C0.0354
T4C0.0394
T5C0.0591
T6C0.1598
%
G90
G05
T1
X3.65Y-2.2
X3.6775Y-2.1225
X3.85Y-3.85
X3.9Y-4.1
X3.9Y-4.2
X3.9Y-4.3
X3.95Y-3.75
X4.0975Y-4.1
X4.3Y-2.3
X4.45Y-4.2
X4.55Y-2.3
X4.8025Y-4.3
X4.9725Y-2.175
X5.0Y-2.8
X5.06Y-3.18
X5.45Y-3.75
X5.5Y-2.75
X5.5015Y-3.6985
X5.535Y-3.18
X5.7Y-3.35
X5.75Y-4.1
X5.9Y-3.75
X5.9528Y-3.6972
X5.9785Y-3.1215
X5.991Y-3.7757
X6.0Y-2.75
X6.195Y-3.18
X6.3463Y-3.7039
X6.35Y-2.7
X6.35Y-3.25
X6.4Y-3.15
X6.4116Y-3.6884
X6.4304Y-3.7472
X6.6215Y-3.1829
X6.65Y-2.45
X6.65Y-3.1
X6.7Y-2.3
X6.7Y-2.95
X6.9025Y-2.895
X7.0Y-3.45
X7.05Y-3.25
X7.35Y-3.45
X7.4Y-3.35
X7.7Y-3.5
T2
X3.505Y-1.25
X3.505Y-1.35
X3.505Y-1.45
X3.505Y-1.95
X3.505Y-2.05
X3.505Y-2.15
T3
X6.9025Y-2.285
X6.9025Y-2.385
X6.9025Y-2.485
X6.9025Y-2.585
X6.9025Y-2.685
X7.2725Y-2.285
X7.2725Y-2.385
X7.2725Y-2.485
X7.2725Y-2.585
X7.2725Y-2.685
X7.6125Y-2.89
X7.6125Y-2.99
X7.6125Y-3.09
X7.6125Y-3.19
X7.6125Y-3.29
X7.6175Y-2.265
X7.6175Y-2.365
X7.6175Y-2.465
X7.6175Y-2.565
X7.6175Y-2.665
X7.2725Y-2.895
X7.2725Y-2.995
X7.2725Y-3.095
X7.2725Y-3.195
X7.2725Y-3.295
X4.62Y-1.83
X4.72Y-1.83
X4.21Y-1.83
X4.31Y-1.83
X3.81Y-1.83
X3.91Y-1.83
X6.1425Y-2.3
X6.2213Y-2.3
X6.3Y-2.3
X6.9025Y-2.895
X6.9025Y-2.995
X6.9025Y-3.095
X6.9025Y-3.195
X6.9025Y-3.295
T4
X4.23Y-2.2997
X4.23Y-2.3997
X4.23Y-3.0897
X4.23Y-3.2897
X4.23Y-3.3897
X4.83Y-2.2997
X4.83Y-2.3997
X4.83Y-3.2897
X4.83Y-3.3897
X2.9275Y-2.495
X2.9275Y-2.595
X2.9275Y-4.195
X2.9275Y-4.295
X3.0275Y-2.495
X3.0275Y-2.595
X3.0275Y-4.195
X3.0275Y-4.295
X3.1275Y-2.495
X3.1275Y-2.595
X3.1275Y-4.195
X3.1275Y-4.295
X3.2275Y-2.495
X3.2275Y-2.595
X3.2275Y-4.195
X3.2275Y-4.295
X3.3275Y-2.495
X3.3275Y-2.595
X3.3275Y-4.195
X3.3275Y-4.295
X3.4275Y-2.495
X3.4275Y-2.595
X3.4275Y-4.195
X3.4275Y-4.295
X3.5275Y-2.495
X3.5275Y-2.595
X3.5275Y-4.195
X3.5275Y-4.295
X3.6275Y-2.495
X3.6275Y-2.595
X3.6275Y-4.195
X3.6275Y-4.295
X3.7275Y-2.495
X3.7275Y-2.595
X3.7275Y-4.195
X3.7275Y-4.295
X3.8275Y-2.495
X3.8275Y-2.595
X3.8275Y-4.195
X3.8275Y-4.295
X5.4275Y-2.495
X5.4275Y-2.595
X5.4275Y-4.195
X5.4275Y-4.295
X5.5275Y-2.495
X5.5275Y-2.595
X5.5275Y-4.195
X5.5275Y-4.295
X5.6275Y-2.495
X5.6275Y-2.595
X5.6275Y-4.195
X5.6275Y-4.295
X5.7275Y-2.495
X5.7275Y-2.595
X5.7275Y-4.195
X5.7275Y-4.295
X5.8275Y-2.495
X5.8275Y-2.595
X5.8275Y-4.195
X5.8275Y-4.295
X5.9275Y-2.495
X5.9275Y-2.595
X5.9275Y-4.195
X5.9275Y-4.295
X6.0275Y-2.495
X6.0275Y-2.595
X6.0275Y-4.195
X6.0275Y-4.295
X6.1275Y-2.495
X6.1275Y-2.595
X6.1275Y-4.195
X6.1275Y-4.295
X6.2275Y-2.495
X6.2275Y-2.595
X6.2275Y-4.195
X6.2275Y-4.295
X6.3275Y-2.495
X6.3275Y-2.595
X6.3275Y-4.195
X6.3275Y-4.295
T5
X6.0598Y-2.3
X6.3827Y-2.3
T6
X3.591Y-2.955
X3.591Y-3.265
X3.591Y-3.615
X3.591Y-3.925
T0
M30
