G04 #@! TF.GenerationSoftware,KiCad,Pcbnew,(5.1.4)-1*
G04 #@! TF.CreationDate,2019-12-12T11:37:26-06:00*
G04 #@! TF.ProjectId,DriveBoard2020,44726976-6542-46f6-9172-64323032302e,rev?*
G04 #@! TF.SameCoordinates,Original*
G04 #@! TF.FileFunction,Legend,Bot*
G04 #@! TF.FilePolarity,Positive*
%FSLAX46Y46*%
G04 Gerber Fmt 4.6, Leading zero omitted, Abs format (unit mm)*
G04 Created by KiCad (PCBNEW (5.1.4)-1) date 2019-12-12 11:37:26*
%MOMM*%
%LPD*%
G04 APERTURE LIST*
%ADD10C,0.150000*%
G04 APERTURE END LIST*
D10*
X136461500Y-217424000D02*
X136461500Y-212344000D01*
X136461500Y-212344000D02*
X111061500Y-212344000D01*
X111061500Y-212344000D02*
X111061500Y-217424000D01*
X111061500Y-217424000D02*
X136461500Y-217424000D01*
X136461500Y-174244000D02*
X136461500Y-169164000D01*
X136461500Y-169164000D02*
X111061500Y-169164000D01*
X111061500Y-169164000D02*
X111061500Y-174244000D01*
X111061500Y-174244000D02*
X136461500Y-174244000D01*
X199961500Y-212344000D02*
X174561500Y-212344000D01*
X174561500Y-174244000D02*
X199961500Y-174244000D01*
X199961500Y-217424000D02*
X199961500Y-212344000D01*
X174561500Y-212344000D02*
X174561500Y-217424000D01*
X174561500Y-217424000D02*
X199961500Y-217424000D01*
X199961500Y-174244000D02*
X199961500Y-169164000D01*
X199961500Y-169164000D02*
X174561500Y-169164000D01*
X174561500Y-169164000D02*
X174561500Y-174244000D01*
X135635976Y-175458380D02*
X136207404Y-175458380D01*
X135921690Y-175458380D02*
X135921690Y-174458380D01*
X136016928Y-174601238D01*
X136112166Y-174696476D01*
X136207404Y-174744095D01*
X135016928Y-174458380D02*
X134921690Y-174458380D01*
X134826452Y-174506000D01*
X134778833Y-174553619D01*
X134731214Y-174648857D01*
X134683595Y-174839333D01*
X134683595Y-175077428D01*
X134731214Y-175267904D01*
X134778833Y-175363142D01*
X134826452Y-175410761D01*
X134921690Y-175458380D01*
X135016928Y-175458380D01*
X135112166Y-175410761D01*
X135159785Y-175363142D01*
X135207404Y-175267904D01*
X135255023Y-175077428D01*
X135255023Y-174839333D01*
X135207404Y-174648857D01*
X135159785Y-174553619D01*
X135112166Y-174506000D01*
X135016928Y-174458380D01*
X112045785Y-212034380D02*
X112617214Y-212034380D01*
X112331500Y-212034380D02*
X112331500Y-211034380D01*
X112426738Y-211177238D01*
X112521976Y-211272476D01*
X112617214Y-211320095D01*
X135635976Y-212034380D02*
X136207404Y-212034380D01*
X135921690Y-212034380D02*
X135921690Y-211034380D01*
X136016928Y-211177238D01*
X136112166Y-211272476D01*
X136207404Y-211320095D01*
X135016928Y-211034380D02*
X134921690Y-211034380D01*
X134826452Y-211082000D01*
X134778833Y-211129619D01*
X134731214Y-211224857D01*
X134683595Y-211415333D01*
X134683595Y-211653428D01*
X134731214Y-211843904D01*
X134778833Y-211939142D01*
X134826452Y-211986761D01*
X134921690Y-212034380D01*
X135016928Y-212034380D01*
X135112166Y-211986761D01*
X135159785Y-211939142D01*
X135207404Y-211843904D01*
X135255023Y-211653428D01*
X135255023Y-211415333D01*
X135207404Y-211224857D01*
X135159785Y-211129619D01*
X135112166Y-211082000D01*
X135016928Y-211034380D01*
X175545785Y-175458380D02*
X176117214Y-175458380D01*
X175831500Y-175458380D02*
X175831500Y-174458380D01*
X175926738Y-174601238D01*
X176021976Y-174696476D01*
X176117214Y-174744095D01*
X198881976Y-175458380D02*
X199453404Y-175458380D01*
X199167690Y-175458380D02*
X199167690Y-174458380D01*
X199262928Y-174601238D01*
X199358166Y-174696476D01*
X199453404Y-174744095D01*
X198262928Y-174458380D02*
X198167690Y-174458380D01*
X198072452Y-174506000D01*
X198024833Y-174553619D01*
X197977214Y-174648857D01*
X197929595Y-174839333D01*
X197929595Y-175077428D01*
X197977214Y-175267904D01*
X198024833Y-175363142D01*
X198072452Y-175410761D01*
X198167690Y-175458380D01*
X198262928Y-175458380D01*
X198358166Y-175410761D01*
X198405785Y-175363142D01*
X198453404Y-175267904D01*
X198501023Y-175077428D01*
X198501023Y-174839333D01*
X198453404Y-174648857D01*
X198405785Y-174553619D01*
X198358166Y-174506000D01*
X198262928Y-174458380D01*
X198881976Y-212034380D02*
X199453404Y-212034380D01*
X199167690Y-212034380D02*
X199167690Y-211034380D01*
X199262928Y-211177238D01*
X199358166Y-211272476D01*
X199453404Y-211320095D01*
X198262928Y-211034380D02*
X198167690Y-211034380D01*
X198072452Y-211082000D01*
X198024833Y-211129619D01*
X197977214Y-211224857D01*
X197929595Y-211415333D01*
X197929595Y-211653428D01*
X197977214Y-211843904D01*
X198024833Y-211939142D01*
X198072452Y-211986761D01*
X198167690Y-212034380D01*
X198262928Y-212034380D01*
X198358166Y-211986761D01*
X198405785Y-211939142D01*
X198453404Y-211843904D01*
X198501023Y-211653428D01*
X198501023Y-211415333D01*
X198453404Y-211224857D01*
X198405785Y-211129619D01*
X198358166Y-211082000D01*
X198262928Y-211034380D01*
X175545785Y-212034380D02*
X176117214Y-212034380D01*
X175831500Y-212034380D02*
X175831500Y-211034380D01*
X175926738Y-211177238D01*
X176021976Y-211272476D01*
X176117214Y-211320095D01*
X136255023Y-175728380D02*
X135588357Y-176728380D01*
X135588357Y-175728380D02*
X136255023Y-176728380D01*
X135159785Y-176728380D02*
X134969309Y-176728380D01*
X134874071Y-176680761D01*
X134826452Y-176633142D01*
X134731214Y-176490285D01*
X134683595Y-176299809D01*
X134683595Y-175918857D01*
X134731214Y-175823619D01*
X134778833Y-175776000D01*
X134874071Y-175728380D01*
X135064547Y-175728380D01*
X135159785Y-175776000D01*
X135207404Y-175823619D01*
X135255023Y-175918857D01*
X135255023Y-176156952D01*
X135207404Y-176252190D01*
X135159785Y-176299809D01*
X135064547Y-176347428D01*
X134874071Y-176347428D01*
X134778833Y-176299809D01*
X134731214Y-176252190D01*
X134683595Y-176156952D01*
X136255023Y-209764380D02*
X135588357Y-210764380D01*
X135588357Y-209764380D02*
X136255023Y-210764380D01*
X135064547Y-210192952D02*
X135159785Y-210145333D01*
X135207404Y-210097714D01*
X135255023Y-210002476D01*
X135255023Y-209954857D01*
X135207404Y-209859619D01*
X135159785Y-209812000D01*
X135064547Y-209764380D01*
X134874071Y-209764380D01*
X134778833Y-209812000D01*
X134731214Y-209859619D01*
X134683595Y-209954857D01*
X134683595Y-210002476D01*
X134731214Y-210097714D01*
X134778833Y-210145333D01*
X134874071Y-210192952D01*
X135064547Y-210192952D01*
X135159785Y-210240571D01*
X135207404Y-210288190D01*
X135255023Y-210383428D01*
X135255023Y-210573904D01*
X135207404Y-210669142D01*
X135159785Y-210716761D01*
X135064547Y-210764380D01*
X134874071Y-210764380D01*
X134778833Y-210716761D01*
X134731214Y-210669142D01*
X134683595Y-210573904D01*
X134683595Y-210383428D01*
X134731214Y-210288190D01*
X134778833Y-210240571D01*
X134874071Y-210192952D01*
X199501023Y-175728380D02*
X198834357Y-176728380D01*
X198834357Y-175728380D02*
X199501023Y-176728380D01*
X198548642Y-175728380D02*
X197881976Y-175728380D01*
X198310547Y-176728380D01*
X137644166Y-173331142D02*
X137691785Y-173378761D01*
X137834642Y-173426380D01*
X137929880Y-173426380D01*
X138072738Y-173378761D01*
X138167976Y-173283523D01*
X138215595Y-173188285D01*
X138263214Y-172997809D01*
X138263214Y-172854952D01*
X138215595Y-172664476D01*
X138167976Y-172569238D01*
X138072738Y-172474000D01*
X137929880Y-172426380D01*
X137834642Y-172426380D01*
X137691785Y-172474000D01*
X137644166Y-172521619D01*
X136691785Y-173426380D02*
X137263214Y-173426380D01*
X136977500Y-173426380D02*
X136977500Y-172426380D01*
X137072738Y-172569238D01*
X137167976Y-172664476D01*
X137263214Y-172712095D01*
X138215595Y-171140380D02*
X138215595Y-170140380D01*
X137977500Y-170140380D01*
X137834642Y-170188000D01*
X137739404Y-170283238D01*
X137691785Y-170378476D01*
X137644166Y-170568952D01*
X137644166Y-170711809D01*
X137691785Y-170902285D01*
X137739404Y-170997523D01*
X137834642Y-171092761D01*
X137977500Y-171140380D01*
X138215595Y-171140380D01*
X136691785Y-171140380D02*
X137263214Y-171140380D01*
X136977500Y-171140380D02*
X136977500Y-170140380D01*
X137072738Y-170283238D01*
X137167976Y-170378476D01*
X137263214Y-170426095D01*
X201144166Y-173331142D02*
X201191785Y-173378761D01*
X201334642Y-173426380D01*
X201429880Y-173426380D01*
X201572738Y-173378761D01*
X201667976Y-173283523D01*
X201715595Y-173188285D01*
X201763214Y-172997809D01*
X201763214Y-172854952D01*
X201715595Y-172664476D01*
X201667976Y-172569238D01*
X201572738Y-172474000D01*
X201429880Y-172426380D01*
X201334642Y-172426380D01*
X201191785Y-172474000D01*
X201144166Y-172521619D01*
X200763214Y-172521619D02*
X200715595Y-172474000D01*
X200620357Y-172426380D01*
X200382261Y-172426380D01*
X200287023Y-172474000D01*
X200239404Y-172521619D01*
X200191785Y-172616857D01*
X200191785Y-172712095D01*
X200239404Y-172854952D01*
X200810833Y-173426380D01*
X200191785Y-173426380D01*
X201715595Y-170632380D02*
X201715595Y-169632380D01*
X201477500Y-169632380D01*
X201334642Y-169680000D01*
X201239404Y-169775238D01*
X201191785Y-169870476D01*
X201144166Y-170060952D01*
X201144166Y-170203809D01*
X201191785Y-170394285D01*
X201239404Y-170489523D01*
X201334642Y-170584761D01*
X201477500Y-170632380D01*
X201715595Y-170632380D01*
X200763214Y-169727619D02*
X200715595Y-169680000D01*
X200620357Y-169632380D01*
X200382261Y-169632380D01*
X200287023Y-169680000D01*
X200239404Y-169727619D01*
X200191785Y-169822857D01*
X200191785Y-169918095D01*
X200239404Y-170060952D01*
X200810833Y-170632380D01*
X200191785Y-170632380D01*
X137882261Y-213542571D02*
X137739404Y-213590190D01*
X137691785Y-213637809D01*
X137644166Y-213733047D01*
X137644166Y-213875904D01*
X137691785Y-213971142D01*
X137739404Y-214018761D01*
X137834642Y-214066380D01*
X138215595Y-214066380D01*
X138215595Y-213066380D01*
X137882261Y-213066380D01*
X137787023Y-213114000D01*
X137739404Y-213161619D01*
X137691785Y-213256857D01*
X137691785Y-213352095D01*
X137739404Y-213447333D01*
X137787023Y-213494952D01*
X137882261Y-213542571D01*
X138215595Y-213542571D01*
X136691785Y-214066380D02*
X137263214Y-214066380D01*
X136977500Y-214066380D02*
X136977500Y-213066380D01*
X137072738Y-213209238D01*
X137167976Y-213304476D01*
X137263214Y-213352095D01*
X138191785Y-216320666D02*
X137715595Y-216320666D01*
X138287023Y-216606380D02*
X137953690Y-215606380D01*
X137620357Y-216606380D01*
X136763214Y-216606380D02*
X137334642Y-216606380D01*
X137048928Y-216606380D02*
X137048928Y-215606380D01*
X137144166Y-215749238D01*
X137239404Y-215844476D01*
X137334642Y-215892095D01*
X201382261Y-213542571D02*
X201239404Y-213590190D01*
X201191785Y-213637809D01*
X201144166Y-213733047D01*
X201144166Y-213875904D01*
X201191785Y-213971142D01*
X201239404Y-214018761D01*
X201334642Y-214066380D01*
X201715595Y-214066380D01*
X201715595Y-213066380D01*
X201382261Y-213066380D01*
X201287023Y-213114000D01*
X201239404Y-213161619D01*
X201191785Y-213256857D01*
X201191785Y-213352095D01*
X201239404Y-213447333D01*
X201287023Y-213494952D01*
X201382261Y-213542571D01*
X201715595Y-213542571D01*
X200763214Y-213161619D02*
X200715595Y-213114000D01*
X200620357Y-213066380D01*
X200382261Y-213066380D01*
X200287023Y-213114000D01*
X200239404Y-213161619D01*
X200191785Y-213256857D01*
X200191785Y-213352095D01*
X200239404Y-213494952D01*
X200810833Y-214066380D01*
X200191785Y-214066380D01*
X201691785Y-216320666D02*
X201215595Y-216320666D01*
X201787023Y-216606380D02*
X201453690Y-215606380D01*
X201120357Y-216606380D01*
X200834642Y-215701619D02*
X200787023Y-215654000D01*
X200691785Y-215606380D01*
X200453690Y-215606380D01*
X200358452Y-215654000D01*
X200310833Y-215701619D01*
X200263214Y-215796857D01*
X200263214Y-215892095D01*
X200310833Y-216034952D01*
X200882261Y-216606380D01*
X200263214Y-216606380D01*
M02*
