G04 #@! TF.GenerationSoftware,KiCad,Pcbnew,(5.1.4)-1*
G04 #@! TF.CreationDate,2019-12-20T22:19:26-06:00*
G04 #@! TF.ProjectId,DriveBoard2020,44726976-6542-46f6-9172-64323032302e,rev?*
G04 #@! TF.SameCoordinates,Original*
G04 #@! TF.FileFunction,Legend,Bot*
G04 #@! TF.FilePolarity,Positive*
%FSLAX46Y46*%
G04 Gerber Fmt 4.6, Leading zero omitted, Abs format (unit mm)*
G04 Created by KiCad (PCBNEW (5.1.4)-1) date 2019-12-20 22:19:26*
%MOMM*%
%LPD*%
G04 APERTURE LIST*
%ADD10C,0.150000*%
G04 APERTURE END LIST*
D10*
X174561500Y-168910000D02*
X174561500Y-173990000D01*
X199961500Y-168910000D02*
X174561500Y-168910000D01*
X199961500Y-173990000D02*
X199961500Y-168910000D01*
X174561500Y-217170000D02*
X199961500Y-217170000D01*
X174561500Y-212090000D02*
X174561500Y-217170000D01*
X199961500Y-217170000D02*
X199961500Y-212090000D01*
X174561500Y-173990000D02*
X199961500Y-173990000D01*
X199961500Y-212090000D02*
X174561500Y-212090000D01*
X111061500Y-173990000D02*
X136461500Y-173990000D01*
X111061500Y-168910000D02*
X111061500Y-173990000D01*
X136461500Y-168910000D02*
X111061500Y-168910000D01*
X136461500Y-173990000D02*
X136461500Y-168910000D01*
X111061500Y-217170000D02*
X136461500Y-217170000D01*
X111061500Y-212090000D02*
X111061500Y-217170000D01*
X136461500Y-212090000D02*
X111061500Y-212090000D01*
X136461500Y-217170000D02*
X136461500Y-212090000D01*
X175545785Y-211780380D02*
X176117214Y-211780380D01*
X175831500Y-211780380D02*
X175831500Y-210780380D01*
X175926738Y-210923238D01*
X176021976Y-211018476D01*
X176117214Y-211066095D01*
X112045785Y-176474380D02*
X112617214Y-176474380D01*
X112331500Y-176474380D02*
X112331500Y-175474380D01*
X112426738Y-175617238D01*
X112521976Y-175712476D01*
X112617214Y-175760095D01*
X175545785Y-176474380D02*
X176117214Y-176474380D01*
X175831500Y-176474380D02*
X175831500Y-175474380D01*
X175926738Y-175617238D01*
X176021976Y-175712476D01*
X176117214Y-175760095D01*
X201691785Y-216066666D02*
X201215595Y-216066666D01*
X201787023Y-216352380D02*
X201453690Y-215352380D01*
X201120357Y-216352380D01*
X200834642Y-215447619D02*
X200787023Y-215400000D01*
X200691785Y-215352380D01*
X200453690Y-215352380D01*
X200358452Y-215400000D01*
X200310833Y-215447619D01*
X200263214Y-215542857D01*
X200263214Y-215638095D01*
X200310833Y-215780952D01*
X200882261Y-216352380D01*
X200263214Y-216352380D01*
X201382261Y-213288571D02*
X201239404Y-213336190D01*
X201191785Y-213383809D01*
X201144166Y-213479047D01*
X201144166Y-213621904D01*
X201191785Y-213717142D01*
X201239404Y-213764761D01*
X201334642Y-213812380D01*
X201715595Y-213812380D01*
X201715595Y-212812380D01*
X201382261Y-212812380D01*
X201287023Y-212860000D01*
X201239404Y-212907619D01*
X201191785Y-213002857D01*
X201191785Y-213098095D01*
X201239404Y-213193333D01*
X201287023Y-213240952D01*
X201382261Y-213288571D01*
X201715595Y-213288571D01*
X200763214Y-212907619D02*
X200715595Y-212860000D01*
X200620357Y-212812380D01*
X200382261Y-212812380D01*
X200287023Y-212860000D01*
X200239404Y-212907619D01*
X200191785Y-213002857D01*
X200191785Y-213098095D01*
X200239404Y-213240952D01*
X200810833Y-213812380D01*
X200191785Y-213812380D01*
X138191785Y-216066666D02*
X137715595Y-216066666D01*
X138287023Y-216352380D02*
X137953690Y-215352380D01*
X137620357Y-216352380D01*
X136763214Y-216352380D02*
X137334642Y-216352380D01*
X137048928Y-216352380D02*
X137048928Y-215352380D01*
X137144166Y-215495238D01*
X137239404Y-215590476D01*
X137334642Y-215638095D01*
X137882261Y-213288571D02*
X137739404Y-213336190D01*
X137691785Y-213383809D01*
X137644166Y-213479047D01*
X137644166Y-213621904D01*
X137691785Y-213717142D01*
X137739404Y-213764761D01*
X137834642Y-213812380D01*
X138215595Y-213812380D01*
X138215595Y-212812380D01*
X137882261Y-212812380D01*
X137787023Y-212860000D01*
X137739404Y-212907619D01*
X137691785Y-213002857D01*
X137691785Y-213098095D01*
X137739404Y-213193333D01*
X137787023Y-213240952D01*
X137882261Y-213288571D01*
X138215595Y-213288571D01*
X136691785Y-213812380D02*
X137263214Y-213812380D01*
X136977500Y-213812380D02*
X136977500Y-212812380D01*
X137072738Y-212955238D01*
X137167976Y-213050476D01*
X137263214Y-213098095D01*
X201715595Y-170378380D02*
X201715595Y-169378380D01*
X201477500Y-169378380D01*
X201334642Y-169426000D01*
X201239404Y-169521238D01*
X201191785Y-169616476D01*
X201144166Y-169806952D01*
X201144166Y-169949809D01*
X201191785Y-170140285D01*
X201239404Y-170235523D01*
X201334642Y-170330761D01*
X201477500Y-170378380D01*
X201715595Y-170378380D01*
X200763214Y-169473619D02*
X200715595Y-169426000D01*
X200620357Y-169378380D01*
X200382261Y-169378380D01*
X200287023Y-169426000D01*
X200239404Y-169473619D01*
X200191785Y-169568857D01*
X200191785Y-169664095D01*
X200239404Y-169806952D01*
X200810833Y-170378380D01*
X200191785Y-170378380D01*
X201144166Y-173077142D02*
X201191785Y-173124761D01*
X201334642Y-173172380D01*
X201429880Y-173172380D01*
X201572738Y-173124761D01*
X201667976Y-173029523D01*
X201715595Y-172934285D01*
X201763214Y-172743809D01*
X201763214Y-172600952D01*
X201715595Y-172410476D01*
X201667976Y-172315238D01*
X201572738Y-172220000D01*
X201429880Y-172172380D01*
X201334642Y-172172380D01*
X201191785Y-172220000D01*
X201144166Y-172267619D01*
X200763214Y-172267619D02*
X200715595Y-172220000D01*
X200620357Y-172172380D01*
X200382261Y-172172380D01*
X200287023Y-172220000D01*
X200239404Y-172267619D01*
X200191785Y-172362857D01*
X200191785Y-172458095D01*
X200239404Y-172600952D01*
X200810833Y-173172380D01*
X200191785Y-173172380D01*
X138215595Y-170886380D02*
X138215595Y-169886380D01*
X137977500Y-169886380D01*
X137834642Y-169934000D01*
X137739404Y-170029238D01*
X137691785Y-170124476D01*
X137644166Y-170314952D01*
X137644166Y-170457809D01*
X137691785Y-170648285D01*
X137739404Y-170743523D01*
X137834642Y-170838761D01*
X137977500Y-170886380D01*
X138215595Y-170886380D01*
X136691785Y-170886380D02*
X137263214Y-170886380D01*
X136977500Y-170886380D02*
X136977500Y-169886380D01*
X137072738Y-170029238D01*
X137167976Y-170124476D01*
X137263214Y-170172095D01*
X137644166Y-173077142D02*
X137691785Y-173124761D01*
X137834642Y-173172380D01*
X137929880Y-173172380D01*
X138072738Y-173124761D01*
X138167976Y-173029523D01*
X138215595Y-172934285D01*
X138263214Y-172743809D01*
X138263214Y-172600952D01*
X138215595Y-172410476D01*
X138167976Y-172315238D01*
X138072738Y-172220000D01*
X137929880Y-172172380D01*
X137834642Y-172172380D01*
X137691785Y-172220000D01*
X137644166Y-172267619D01*
X136691785Y-173172380D02*
X137263214Y-173172380D01*
X136977500Y-173172380D02*
X136977500Y-172172380D01*
X137072738Y-172315238D01*
X137167976Y-172410476D01*
X137263214Y-172458095D01*
X199501023Y-175474380D02*
X198834357Y-176474380D01*
X198834357Y-175474380D02*
X199501023Y-176474380D01*
X198548642Y-175474380D02*
X197881976Y-175474380D01*
X198310547Y-176474380D01*
X136255023Y-209510380D02*
X135588357Y-210510380D01*
X135588357Y-209510380D02*
X136255023Y-210510380D01*
X135064547Y-209938952D02*
X135159785Y-209891333D01*
X135207404Y-209843714D01*
X135255023Y-209748476D01*
X135255023Y-209700857D01*
X135207404Y-209605619D01*
X135159785Y-209558000D01*
X135064547Y-209510380D01*
X134874071Y-209510380D01*
X134778833Y-209558000D01*
X134731214Y-209605619D01*
X134683595Y-209700857D01*
X134683595Y-209748476D01*
X134731214Y-209843714D01*
X134778833Y-209891333D01*
X134874071Y-209938952D01*
X135064547Y-209938952D01*
X135159785Y-209986571D01*
X135207404Y-210034190D01*
X135255023Y-210129428D01*
X135255023Y-210319904D01*
X135207404Y-210415142D01*
X135159785Y-210462761D01*
X135064547Y-210510380D01*
X134874071Y-210510380D01*
X134778833Y-210462761D01*
X134731214Y-210415142D01*
X134683595Y-210319904D01*
X134683595Y-210129428D01*
X134731214Y-210034190D01*
X134778833Y-209986571D01*
X134874071Y-209938952D01*
X136255023Y-175474380D02*
X135588357Y-176474380D01*
X135588357Y-175474380D02*
X136255023Y-176474380D01*
X135159785Y-176474380D02*
X134969309Y-176474380D01*
X134874071Y-176426761D01*
X134826452Y-176379142D01*
X134731214Y-176236285D01*
X134683595Y-176045809D01*
X134683595Y-175664857D01*
X134731214Y-175569619D01*
X134778833Y-175522000D01*
X134874071Y-175474380D01*
X135064547Y-175474380D01*
X135159785Y-175522000D01*
X135207404Y-175569619D01*
X135255023Y-175664857D01*
X135255023Y-175902952D01*
X135207404Y-175998190D01*
X135159785Y-176045809D01*
X135064547Y-176093428D01*
X134874071Y-176093428D01*
X134778833Y-176045809D01*
X134731214Y-175998190D01*
X134683595Y-175902952D01*
X175545785Y-210510380D02*
X176117214Y-210510380D01*
X175831500Y-210510380D02*
X175831500Y-209510380D01*
X175926738Y-209653238D01*
X176021976Y-209748476D01*
X176117214Y-209796095D01*
X198881976Y-211780380D02*
X199453404Y-211780380D01*
X199167690Y-211780380D02*
X199167690Y-210780380D01*
X199262928Y-210923238D01*
X199358166Y-211018476D01*
X199453404Y-211066095D01*
X198262928Y-210780380D02*
X198167690Y-210780380D01*
X198072452Y-210828000D01*
X198024833Y-210875619D01*
X197977214Y-210970857D01*
X197929595Y-211161333D01*
X197929595Y-211399428D01*
X197977214Y-211589904D01*
X198024833Y-211685142D01*
X198072452Y-211732761D01*
X198167690Y-211780380D01*
X198262928Y-211780380D01*
X198358166Y-211732761D01*
X198405785Y-211685142D01*
X198453404Y-211589904D01*
X198501023Y-211399428D01*
X198501023Y-211161333D01*
X198453404Y-210970857D01*
X198405785Y-210875619D01*
X198358166Y-210828000D01*
X198262928Y-210780380D01*
X198881976Y-176474380D02*
X199453404Y-176474380D01*
X199167690Y-176474380D02*
X199167690Y-175474380D01*
X199262928Y-175617238D01*
X199358166Y-175712476D01*
X199453404Y-175760095D01*
X198262928Y-175474380D02*
X198167690Y-175474380D01*
X198072452Y-175522000D01*
X198024833Y-175569619D01*
X197977214Y-175664857D01*
X197929595Y-175855333D01*
X197929595Y-176093428D01*
X197977214Y-176283904D01*
X198024833Y-176379142D01*
X198072452Y-176426761D01*
X198167690Y-176474380D01*
X198262928Y-176474380D01*
X198358166Y-176426761D01*
X198405785Y-176379142D01*
X198453404Y-176283904D01*
X198501023Y-176093428D01*
X198501023Y-175855333D01*
X198453404Y-175664857D01*
X198405785Y-175569619D01*
X198358166Y-175522000D01*
X198262928Y-175474380D01*
X135381976Y-210510380D02*
X135953404Y-210510380D01*
X135667690Y-210510380D02*
X135667690Y-209510380D01*
X135762928Y-209653238D01*
X135858166Y-209748476D01*
X135953404Y-209796095D01*
X134762928Y-209510380D02*
X134667690Y-209510380D01*
X134572452Y-209558000D01*
X134524833Y-209605619D01*
X134477214Y-209700857D01*
X134429595Y-209891333D01*
X134429595Y-210129428D01*
X134477214Y-210319904D01*
X134524833Y-210415142D01*
X134572452Y-210462761D01*
X134667690Y-210510380D01*
X134762928Y-210510380D01*
X134858166Y-210462761D01*
X134905785Y-210415142D01*
X134953404Y-210319904D01*
X135001023Y-210129428D01*
X135001023Y-209891333D01*
X134953404Y-209700857D01*
X134905785Y-209605619D01*
X134858166Y-209558000D01*
X134762928Y-209510380D01*
X135381976Y-176474380D02*
X135953404Y-176474380D01*
X135667690Y-176474380D02*
X135667690Y-175474380D01*
X135762928Y-175617238D01*
X135858166Y-175712476D01*
X135953404Y-175760095D01*
X134762928Y-175474380D02*
X134667690Y-175474380D01*
X134572452Y-175522000D01*
X134524833Y-175569619D01*
X134477214Y-175664857D01*
X134429595Y-175855333D01*
X134429595Y-176093428D01*
X134477214Y-176283904D01*
X134524833Y-176379142D01*
X134572452Y-176426761D01*
X134667690Y-176474380D01*
X134762928Y-176474380D01*
X134858166Y-176426761D01*
X134905785Y-176379142D01*
X134953404Y-176283904D01*
X135001023Y-176093428D01*
X135001023Y-175855333D01*
X134953404Y-175664857D01*
X134905785Y-175569619D01*
X134858166Y-175522000D01*
X134762928Y-175474380D01*
M02*
