G04 #@! TF.GenerationSoftware,KiCad,Pcbnew,(5.1.4)-1*
G04 #@! TF.CreationDate,2020-01-03T19:37:45-06:00*
G04 #@! TF.ProjectId,DriveBoard2020,44726976-6542-46f6-9172-64323032302e,rev?*
G04 #@! TF.SameCoordinates,Original*
G04 #@! TF.FileFunction,Legend,Bot*
G04 #@! TF.FilePolarity,Positive*
%FSLAX46Y46*%
G04 Gerber Fmt 4.6, Leading zero omitted, Abs format (unit mm)*
G04 Created by KiCad (PCBNEW (5.1.4)-1) date 2020-01-03 19:37:45*
%MOMM*%
%LPD*%
G04 APERTURE LIST*
%ADD10C,0.150000*%
G04 APERTURE END LIST*
D10*
X178942952Y-181173428D02*
X178181047Y-181173428D01*
X178847714Y-206652761D02*
X178704857Y-206700380D01*
X178466761Y-206700380D01*
X178371523Y-206652761D01*
X178323904Y-206605142D01*
X178276285Y-206509904D01*
X178276285Y-206414666D01*
X178323904Y-206319428D01*
X178371523Y-206271809D01*
X178466761Y-206224190D01*
X178657238Y-206176571D01*
X178752476Y-206128952D01*
X178800095Y-206081333D01*
X178847714Y-205986095D01*
X178847714Y-205890857D01*
X178800095Y-205795619D01*
X178752476Y-205748000D01*
X178657238Y-205700380D01*
X178419142Y-205700380D01*
X178276285Y-205748000D01*
X194087714Y-206398761D02*
X193944857Y-206446380D01*
X193706761Y-206446380D01*
X193611523Y-206398761D01*
X193563904Y-206351142D01*
X193516285Y-206255904D01*
X193516285Y-206160666D01*
X193563904Y-206065428D01*
X193611523Y-206017809D01*
X193706761Y-205970190D01*
X193897238Y-205922571D01*
X193992476Y-205874952D01*
X194040095Y-205827333D01*
X194087714Y-205732095D01*
X194087714Y-205636857D01*
X194040095Y-205541619D01*
X193992476Y-205494000D01*
X193897238Y-205446380D01*
X193659142Y-205446380D01*
X193516285Y-205494000D01*
X193579619Y-180538380D02*
X194151047Y-180538380D01*
X193865333Y-180538380D02*
X193865333Y-179538380D01*
X193960571Y-179681238D01*
X194055809Y-179776476D01*
X194151047Y-179824095D01*
X193198666Y-179633619D02*
X193151047Y-179586000D01*
X193055809Y-179538380D01*
X192817714Y-179538380D01*
X192722476Y-179586000D01*
X192674857Y-179633619D01*
X192627238Y-179728857D01*
X192627238Y-179824095D01*
X192674857Y-179966952D01*
X193246285Y-180538380D01*
X192627238Y-180538380D01*
X192341523Y-179538380D02*
X192008190Y-180538380D01*
X191674857Y-179538380D01*
X191389142Y-180252666D02*
X190912952Y-180252666D01*
X191484380Y-180538380D02*
X191151047Y-179538380D01*
X190817714Y-180538380D01*
X119919714Y-192174761D02*
X119776857Y-192222380D01*
X119538761Y-192222380D01*
X119443523Y-192174761D01*
X119395904Y-192127142D01*
X119348285Y-192031904D01*
X119348285Y-191936666D01*
X119395904Y-191841428D01*
X119443523Y-191793809D01*
X119538761Y-191746190D01*
X119729238Y-191698571D01*
X119824476Y-191650952D01*
X119872095Y-191603333D01*
X119919714Y-191508095D01*
X119919714Y-191412857D01*
X119872095Y-191317619D01*
X119824476Y-191270000D01*
X119729238Y-191222380D01*
X119491142Y-191222380D01*
X119348285Y-191270000D01*
X120014952Y-189301428D02*
X119253047Y-189301428D01*
X119634000Y-189682380D02*
X119634000Y-188920476D01*
X224662952Y-163647428D02*
X223901047Y-163647428D01*
X224662952Y-161107428D02*
X223901047Y-161107428D01*
X224282000Y-161488380D02*
X224282000Y-160726476D01*
X224662952Y-158821428D02*
X223901047Y-158821428D01*
X224408952Y-156027428D02*
X223647047Y-156027428D01*
X224028000Y-156408380D02*
X224028000Y-155646476D01*
X122261238Y-150217142D02*
X122308857Y-150264761D01*
X122451714Y-150312380D01*
X122546952Y-150312380D01*
X122689809Y-150264761D01*
X122785047Y-150169523D01*
X122832666Y-150074285D01*
X122880285Y-149883809D01*
X122880285Y-149740952D01*
X122832666Y-149550476D01*
X122785047Y-149455238D01*
X122689809Y-149360000D01*
X122546952Y-149312380D01*
X122451714Y-149312380D01*
X122308857Y-149360000D01*
X122261238Y-149407619D01*
X121356476Y-150312380D02*
X121832666Y-150312380D01*
X121832666Y-149312380D01*
X121023142Y-150312380D02*
X121023142Y-149312380D01*
X120451714Y-150312380D02*
X120880285Y-149740952D01*
X120451714Y-149312380D02*
X121023142Y-149883809D01*
X122086666Y-147677142D02*
X122134285Y-147724761D01*
X122277142Y-147772380D01*
X122372380Y-147772380D01*
X122515238Y-147724761D01*
X122610476Y-147629523D01*
X122658095Y-147534285D01*
X122705714Y-147343809D01*
X122705714Y-147200952D01*
X122658095Y-147010476D01*
X122610476Y-146915238D01*
X122515238Y-146820000D01*
X122372380Y-146772380D01*
X122277142Y-146772380D01*
X122134285Y-146820000D01*
X122086666Y-146867619D01*
X121705714Y-147724761D02*
X121562857Y-147772380D01*
X121324761Y-147772380D01*
X121229523Y-147724761D01*
X121181904Y-147677142D01*
X121134285Y-147581904D01*
X121134285Y-147486666D01*
X121181904Y-147391428D01*
X121229523Y-147343809D01*
X121324761Y-147296190D01*
X121515238Y-147248571D01*
X121610476Y-147200952D01*
X121658095Y-147153333D01*
X121705714Y-147058095D01*
X121705714Y-146962857D01*
X121658095Y-146867619D01*
X121610476Y-146820000D01*
X121515238Y-146772380D01*
X121277142Y-146772380D01*
X121134285Y-146820000D01*
X122983428Y-145232380D02*
X122983428Y-144232380D01*
X122650095Y-144946666D01*
X122316761Y-144232380D01*
X122316761Y-145232380D01*
X121650095Y-144232380D02*
X121459619Y-144232380D01*
X121364380Y-144280000D01*
X121269142Y-144375238D01*
X121221523Y-144565714D01*
X121221523Y-144899047D01*
X121269142Y-145089523D01*
X121364380Y-145184761D01*
X121459619Y-145232380D01*
X121650095Y-145232380D01*
X121745333Y-145184761D01*
X121840571Y-145089523D01*
X121888190Y-144899047D01*
X121888190Y-144565714D01*
X121840571Y-144375238D01*
X121745333Y-144280000D01*
X121650095Y-144232380D01*
X120840571Y-145184761D02*
X120697714Y-145232380D01*
X120459619Y-145232380D01*
X120364380Y-145184761D01*
X120316761Y-145137142D01*
X120269142Y-145041904D01*
X120269142Y-144946666D01*
X120316761Y-144851428D01*
X120364380Y-144803809D01*
X120459619Y-144756190D01*
X120650095Y-144708571D01*
X120745333Y-144660952D01*
X120792952Y-144613333D01*
X120840571Y-144518095D01*
X120840571Y-144422857D01*
X120792952Y-144327619D01*
X120745333Y-144280000D01*
X120650095Y-144232380D01*
X120412000Y-144232380D01*
X120269142Y-144280000D01*
X119840571Y-145232380D02*
X119840571Y-144232380D01*
X122729428Y-142692380D02*
X122729428Y-141692380D01*
X122396095Y-142406666D01*
X122062761Y-141692380D01*
X122062761Y-142692380D01*
X121586571Y-142692380D02*
X121586571Y-141692380D01*
X121158000Y-142644761D02*
X121015142Y-142692380D01*
X120777047Y-142692380D01*
X120681809Y-142644761D01*
X120634190Y-142597142D01*
X120586571Y-142501904D01*
X120586571Y-142406666D01*
X120634190Y-142311428D01*
X120681809Y-142263809D01*
X120777047Y-142216190D01*
X120967523Y-142168571D01*
X121062761Y-142120952D01*
X121110380Y-142073333D01*
X121158000Y-141978095D01*
X121158000Y-141882857D01*
X121110380Y-141787619D01*
X121062761Y-141740000D01*
X120967523Y-141692380D01*
X120729428Y-141692380D01*
X120586571Y-141740000D01*
X119967523Y-141692380D02*
X119777047Y-141692380D01*
X119681809Y-141740000D01*
X119586571Y-141835238D01*
X119538952Y-142025714D01*
X119538952Y-142359047D01*
X119586571Y-142549523D01*
X119681809Y-142644761D01*
X119777047Y-142692380D01*
X119967523Y-142692380D01*
X120062761Y-142644761D01*
X120158000Y-142549523D01*
X120205619Y-142359047D01*
X120205619Y-142025714D01*
X120158000Y-141835238D01*
X120062761Y-141740000D01*
X119967523Y-141692380D01*
X123062952Y-139771428D02*
X122301047Y-139771428D01*
X225932952Y-141803428D02*
X225171047Y-141803428D01*
X228853904Y-140930380D02*
X228282476Y-140930380D01*
X228568190Y-141930380D02*
X228568190Y-140930380D01*
X228044380Y-140930380D02*
X227377714Y-141930380D01*
X227377714Y-140930380D02*
X228044380Y-141930380D01*
X230798666Y-141930380D02*
X231132000Y-141454190D01*
X231370095Y-141930380D02*
X231370095Y-140930380D01*
X230989142Y-140930380D01*
X230893904Y-140978000D01*
X230846285Y-141025619D01*
X230798666Y-141120857D01*
X230798666Y-141263714D01*
X230846285Y-141358952D01*
X230893904Y-141406571D01*
X230989142Y-141454190D01*
X231370095Y-141454190D01*
X230465333Y-140930380D02*
X229798666Y-141930380D01*
X229798666Y-140930380D02*
X230465333Y-141930380D01*
X212764666Y-141930380D02*
X213098000Y-141454190D01*
X213336095Y-141930380D02*
X213336095Y-140930380D01*
X212955142Y-140930380D01*
X212859904Y-140978000D01*
X212812285Y-141025619D01*
X212764666Y-141120857D01*
X212764666Y-141263714D01*
X212812285Y-141358952D01*
X212859904Y-141406571D01*
X212955142Y-141454190D01*
X213336095Y-141454190D01*
X212431333Y-140930380D02*
X211764666Y-141930380D01*
X211764666Y-140930380D02*
X212431333Y-141930380D01*
X210819904Y-140930380D02*
X210248476Y-140930380D01*
X210534190Y-141930380D02*
X210534190Y-140930380D01*
X210010380Y-140930380D02*
X209343714Y-141930380D01*
X209343714Y-140930380D02*
X210010380Y-141930380D01*
X207898952Y-141803428D02*
X207137047Y-141803428D01*
X193293904Y-140930380D02*
X192722476Y-140930380D01*
X193008190Y-141930380D02*
X193008190Y-140930380D01*
X192484380Y-140930380D02*
X191817714Y-141930380D01*
X191817714Y-140930380D02*
X192484380Y-141930380D01*
X195238666Y-141930380D02*
X195572000Y-141454190D01*
X195810095Y-141930380D02*
X195810095Y-140930380D01*
X195429142Y-140930380D01*
X195333904Y-140978000D01*
X195286285Y-141025619D01*
X195238666Y-141120857D01*
X195238666Y-141263714D01*
X195286285Y-141358952D01*
X195333904Y-141406571D01*
X195429142Y-141454190D01*
X195810095Y-141454190D01*
X194905333Y-140930380D02*
X194238666Y-141930380D01*
X194238666Y-140930380D02*
X194905333Y-141930380D01*
X190372952Y-141803428D02*
X189611047Y-141803428D01*
X175513904Y-140930380D02*
X174942476Y-140930380D01*
X175228190Y-141930380D02*
X175228190Y-140930380D01*
X174704380Y-140930380D02*
X174037714Y-141930380D01*
X174037714Y-140930380D02*
X174704380Y-141930380D01*
X172592952Y-141803428D02*
X171831047Y-141803428D01*
X177458666Y-141930380D02*
X177792000Y-141454190D01*
X178030095Y-141930380D02*
X178030095Y-140930380D01*
X177649142Y-140930380D01*
X177553904Y-140978000D01*
X177506285Y-141025619D01*
X177458666Y-141120857D01*
X177458666Y-141263714D01*
X177506285Y-141358952D01*
X177553904Y-141406571D01*
X177649142Y-141454190D01*
X178030095Y-141454190D01*
X177125333Y-140930380D02*
X176458666Y-141930380D01*
X176458666Y-140930380D02*
X177125333Y-141930380D01*
X157733904Y-140676380D02*
X157162476Y-140676380D01*
X157448190Y-141676380D02*
X157448190Y-140676380D01*
X156924380Y-140676380D02*
X156257714Y-141676380D01*
X156257714Y-140676380D02*
X156924380Y-141676380D01*
X159678666Y-141676380D02*
X160012000Y-141200190D01*
X160250095Y-141676380D02*
X160250095Y-140676380D01*
X159869142Y-140676380D01*
X159773904Y-140724000D01*
X159726285Y-140771619D01*
X159678666Y-140866857D01*
X159678666Y-141009714D01*
X159726285Y-141104952D01*
X159773904Y-141152571D01*
X159869142Y-141200190D01*
X160250095Y-141200190D01*
X159345333Y-140676380D02*
X158678666Y-141676380D01*
X158678666Y-140676380D02*
X159345333Y-141676380D01*
X154812952Y-141549428D02*
X154051047Y-141549428D01*
X139953904Y-140422380D02*
X139382476Y-140422380D01*
X139668190Y-141422380D02*
X139668190Y-140422380D01*
X139144380Y-140422380D02*
X138477714Y-141422380D01*
X138477714Y-140422380D02*
X139144380Y-141422380D01*
X141898666Y-141422380D02*
X142232000Y-140946190D01*
X142470095Y-141422380D02*
X142470095Y-140422380D01*
X142089142Y-140422380D01*
X141993904Y-140470000D01*
X141946285Y-140517619D01*
X141898666Y-140612857D01*
X141898666Y-140755714D01*
X141946285Y-140850952D01*
X141993904Y-140898571D01*
X142089142Y-140946190D01*
X142470095Y-140946190D01*
X141565333Y-140422380D02*
X140898666Y-141422380D01*
X140898666Y-140422380D02*
X141565333Y-141422380D01*
X137032952Y-141295428D02*
X136271047Y-141295428D01*
X122205714Y-157884761D02*
X122062857Y-157932380D01*
X121824761Y-157932380D01*
X121729523Y-157884761D01*
X121681904Y-157837142D01*
X121634285Y-157741904D01*
X121634285Y-157646666D01*
X121681904Y-157551428D01*
X121729523Y-157503809D01*
X121824761Y-157456190D01*
X122015238Y-157408571D01*
X122110476Y-157360952D01*
X122158095Y-157313333D01*
X122205714Y-157218095D01*
X122205714Y-157122857D01*
X122158095Y-157027619D01*
X122110476Y-156980000D01*
X122015238Y-156932380D01*
X121777142Y-156932380D01*
X121634285Y-156980000D01*
X122300952Y-160091428D02*
X121539047Y-160091428D01*
X122110476Y-162012380D02*
X122586666Y-162012380D01*
X122634285Y-162488571D01*
X122586666Y-162440952D01*
X122491428Y-162393333D01*
X122253333Y-162393333D01*
X122158095Y-162440952D01*
X122110476Y-162488571D01*
X122062857Y-162583809D01*
X122062857Y-162821904D01*
X122110476Y-162917142D01*
X122158095Y-162964761D01*
X122253333Y-163012380D01*
X122491428Y-163012380D01*
X122586666Y-162964761D01*
X122634285Y-162917142D01*
X121777142Y-162012380D02*
X121443809Y-163012380D01*
X121110476Y-162012380D01*
X174561500Y-168910000D02*
X174561500Y-173990000D01*
X199961500Y-168910000D02*
X174561500Y-168910000D01*
X199961500Y-173990000D02*
X199961500Y-168910000D01*
X174561500Y-217170000D02*
X199961500Y-217170000D01*
X174561500Y-212090000D02*
X174561500Y-217170000D01*
X199961500Y-217170000D02*
X199961500Y-212090000D01*
X174561500Y-173990000D02*
X199961500Y-173990000D01*
X199961500Y-212090000D02*
X174561500Y-212090000D01*
X111061500Y-173990000D02*
X136461500Y-173990000D01*
X111061500Y-168910000D02*
X111061500Y-173990000D01*
X136461500Y-168910000D02*
X111061500Y-168910000D01*
X136461500Y-173990000D02*
X136461500Y-168910000D01*
X111061500Y-217170000D02*
X136461500Y-217170000D01*
X111061500Y-212090000D02*
X111061500Y-217170000D01*
X136461500Y-212090000D02*
X111061500Y-212090000D01*
X136461500Y-217170000D02*
X136461500Y-212090000D01*
X175545785Y-211780380D02*
X176117214Y-211780380D01*
X175831500Y-211780380D02*
X175831500Y-210780380D01*
X175926738Y-210923238D01*
X176021976Y-211018476D01*
X176117214Y-211066095D01*
X112045785Y-176474380D02*
X112617214Y-176474380D01*
X112331500Y-176474380D02*
X112331500Y-175474380D01*
X112426738Y-175617238D01*
X112521976Y-175712476D01*
X112617214Y-175760095D01*
X175545785Y-176474380D02*
X176117214Y-176474380D01*
X175831500Y-176474380D02*
X175831500Y-175474380D01*
X175926738Y-175617238D01*
X176021976Y-175712476D01*
X176117214Y-175760095D01*
X201691785Y-216066666D02*
X201215595Y-216066666D01*
X201787023Y-216352380D02*
X201453690Y-215352380D01*
X201120357Y-216352380D01*
X200834642Y-215447619D02*
X200787023Y-215400000D01*
X200691785Y-215352380D01*
X200453690Y-215352380D01*
X200358452Y-215400000D01*
X200310833Y-215447619D01*
X200263214Y-215542857D01*
X200263214Y-215638095D01*
X200310833Y-215780952D01*
X200882261Y-216352380D01*
X200263214Y-216352380D01*
X201382261Y-213288571D02*
X201239404Y-213336190D01*
X201191785Y-213383809D01*
X201144166Y-213479047D01*
X201144166Y-213621904D01*
X201191785Y-213717142D01*
X201239404Y-213764761D01*
X201334642Y-213812380D01*
X201715595Y-213812380D01*
X201715595Y-212812380D01*
X201382261Y-212812380D01*
X201287023Y-212860000D01*
X201239404Y-212907619D01*
X201191785Y-213002857D01*
X201191785Y-213098095D01*
X201239404Y-213193333D01*
X201287023Y-213240952D01*
X201382261Y-213288571D01*
X201715595Y-213288571D01*
X200763214Y-212907619D02*
X200715595Y-212860000D01*
X200620357Y-212812380D01*
X200382261Y-212812380D01*
X200287023Y-212860000D01*
X200239404Y-212907619D01*
X200191785Y-213002857D01*
X200191785Y-213098095D01*
X200239404Y-213240952D01*
X200810833Y-213812380D01*
X200191785Y-213812380D01*
X138191785Y-216066666D02*
X137715595Y-216066666D01*
X138287023Y-216352380D02*
X137953690Y-215352380D01*
X137620357Y-216352380D01*
X136763214Y-216352380D02*
X137334642Y-216352380D01*
X137048928Y-216352380D02*
X137048928Y-215352380D01*
X137144166Y-215495238D01*
X137239404Y-215590476D01*
X137334642Y-215638095D01*
X137882261Y-213288571D02*
X137739404Y-213336190D01*
X137691785Y-213383809D01*
X137644166Y-213479047D01*
X137644166Y-213621904D01*
X137691785Y-213717142D01*
X137739404Y-213764761D01*
X137834642Y-213812380D01*
X138215595Y-213812380D01*
X138215595Y-212812380D01*
X137882261Y-212812380D01*
X137787023Y-212860000D01*
X137739404Y-212907619D01*
X137691785Y-213002857D01*
X137691785Y-213098095D01*
X137739404Y-213193333D01*
X137787023Y-213240952D01*
X137882261Y-213288571D01*
X138215595Y-213288571D01*
X136691785Y-213812380D02*
X137263214Y-213812380D01*
X136977500Y-213812380D02*
X136977500Y-212812380D01*
X137072738Y-212955238D01*
X137167976Y-213050476D01*
X137263214Y-213098095D01*
X201715595Y-170378380D02*
X201715595Y-169378380D01*
X201477500Y-169378380D01*
X201334642Y-169426000D01*
X201239404Y-169521238D01*
X201191785Y-169616476D01*
X201144166Y-169806952D01*
X201144166Y-169949809D01*
X201191785Y-170140285D01*
X201239404Y-170235523D01*
X201334642Y-170330761D01*
X201477500Y-170378380D01*
X201715595Y-170378380D01*
X200763214Y-169473619D02*
X200715595Y-169426000D01*
X200620357Y-169378380D01*
X200382261Y-169378380D01*
X200287023Y-169426000D01*
X200239404Y-169473619D01*
X200191785Y-169568857D01*
X200191785Y-169664095D01*
X200239404Y-169806952D01*
X200810833Y-170378380D01*
X200191785Y-170378380D01*
X201144166Y-173077142D02*
X201191785Y-173124761D01*
X201334642Y-173172380D01*
X201429880Y-173172380D01*
X201572738Y-173124761D01*
X201667976Y-173029523D01*
X201715595Y-172934285D01*
X201763214Y-172743809D01*
X201763214Y-172600952D01*
X201715595Y-172410476D01*
X201667976Y-172315238D01*
X201572738Y-172220000D01*
X201429880Y-172172380D01*
X201334642Y-172172380D01*
X201191785Y-172220000D01*
X201144166Y-172267619D01*
X200763214Y-172267619D02*
X200715595Y-172220000D01*
X200620357Y-172172380D01*
X200382261Y-172172380D01*
X200287023Y-172220000D01*
X200239404Y-172267619D01*
X200191785Y-172362857D01*
X200191785Y-172458095D01*
X200239404Y-172600952D01*
X200810833Y-173172380D01*
X200191785Y-173172380D01*
X138215595Y-170886380D02*
X138215595Y-169886380D01*
X137977500Y-169886380D01*
X137834642Y-169934000D01*
X137739404Y-170029238D01*
X137691785Y-170124476D01*
X137644166Y-170314952D01*
X137644166Y-170457809D01*
X137691785Y-170648285D01*
X137739404Y-170743523D01*
X137834642Y-170838761D01*
X137977500Y-170886380D01*
X138215595Y-170886380D01*
X136691785Y-170886380D02*
X137263214Y-170886380D01*
X136977500Y-170886380D02*
X136977500Y-169886380D01*
X137072738Y-170029238D01*
X137167976Y-170124476D01*
X137263214Y-170172095D01*
X137644166Y-173077142D02*
X137691785Y-173124761D01*
X137834642Y-173172380D01*
X137929880Y-173172380D01*
X138072738Y-173124761D01*
X138167976Y-173029523D01*
X138215595Y-172934285D01*
X138263214Y-172743809D01*
X138263214Y-172600952D01*
X138215595Y-172410476D01*
X138167976Y-172315238D01*
X138072738Y-172220000D01*
X137929880Y-172172380D01*
X137834642Y-172172380D01*
X137691785Y-172220000D01*
X137644166Y-172267619D01*
X136691785Y-173172380D02*
X137263214Y-173172380D01*
X136977500Y-173172380D02*
X136977500Y-172172380D01*
X137072738Y-172315238D01*
X137167976Y-172410476D01*
X137263214Y-172458095D01*
X199501023Y-175474380D02*
X198834357Y-176474380D01*
X198834357Y-175474380D02*
X199501023Y-176474380D01*
X198548642Y-175474380D02*
X197881976Y-175474380D01*
X198310547Y-176474380D01*
X136255023Y-209510380D02*
X135588357Y-210510380D01*
X135588357Y-209510380D02*
X136255023Y-210510380D01*
X135064547Y-209938952D02*
X135159785Y-209891333D01*
X135207404Y-209843714D01*
X135255023Y-209748476D01*
X135255023Y-209700857D01*
X135207404Y-209605619D01*
X135159785Y-209558000D01*
X135064547Y-209510380D01*
X134874071Y-209510380D01*
X134778833Y-209558000D01*
X134731214Y-209605619D01*
X134683595Y-209700857D01*
X134683595Y-209748476D01*
X134731214Y-209843714D01*
X134778833Y-209891333D01*
X134874071Y-209938952D01*
X135064547Y-209938952D01*
X135159785Y-209986571D01*
X135207404Y-210034190D01*
X135255023Y-210129428D01*
X135255023Y-210319904D01*
X135207404Y-210415142D01*
X135159785Y-210462761D01*
X135064547Y-210510380D01*
X134874071Y-210510380D01*
X134778833Y-210462761D01*
X134731214Y-210415142D01*
X134683595Y-210319904D01*
X134683595Y-210129428D01*
X134731214Y-210034190D01*
X134778833Y-209986571D01*
X134874071Y-209938952D01*
X136255023Y-175474380D02*
X135588357Y-176474380D01*
X135588357Y-175474380D02*
X136255023Y-176474380D01*
X135159785Y-176474380D02*
X134969309Y-176474380D01*
X134874071Y-176426761D01*
X134826452Y-176379142D01*
X134731214Y-176236285D01*
X134683595Y-176045809D01*
X134683595Y-175664857D01*
X134731214Y-175569619D01*
X134778833Y-175522000D01*
X134874071Y-175474380D01*
X135064547Y-175474380D01*
X135159785Y-175522000D01*
X135207404Y-175569619D01*
X135255023Y-175664857D01*
X135255023Y-175902952D01*
X135207404Y-175998190D01*
X135159785Y-176045809D01*
X135064547Y-176093428D01*
X134874071Y-176093428D01*
X134778833Y-176045809D01*
X134731214Y-175998190D01*
X134683595Y-175902952D01*
X175545785Y-210510380D02*
X176117214Y-210510380D01*
X175831500Y-210510380D02*
X175831500Y-209510380D01*
X175926738Y-209653238D01*
X176021976Y-209748476D01*
X176117214Y-209796095D01*
X198881976Y-211780380D02*
X199453404Y-211780380D01*
X199167690Y-211780380D02*
X199167690Y-210780380D01*
X199262928Y-210923238D01*
X199358166Y-211018476D01*
X199453404Y-211066095D01*
X198262928Y-210780380D02*
X198167690Y-210780380D01*
X198072452Y-210828000D01*
X198024833Y-210875619D01*
X197977214Y-210970857D01*
X197929595Y-211161333D01*
X197929595Y-211399428D01*
X197977214Y-211589904D01*
X198024833Y-211685142D01*
X198072452Y-211732761D01*
X198167690Y-211780380D01*
X198262928Y-211780380D01*
X198358166Y-211732761D01*
X198405785Y-211685142D01*
X198453404Y-211589904D01*
X198501023Y-211399428D01*
X198501023Y-211161333D01*
X198453404Y-210970857D01*
X198405785Y-210875619D01*
X198358166Y-210828000D01*
X198262928Y-210780380D01*
X198881976Y-176474380D02*
X199453404Y-176474380D01*
X199167690Y-176474380D02*
X199167690Y-175474380D01*
X199262928Y-175617238D01*
X199358166Y-175712476D01*
X199453404Y-175760095D01*
X198262928Y-175474380D02*
X198167690Y-175474380D01*
X198072452Y-175522000D01*
X198024833Y-175569619D01*
X197977214Y-175664857D01*
X197929595Y-175855333D01*
X197929595Y-176093428D01*
X197977214Y-176283904D01*
X198024833Y-176379142D01*
X198072452Y-176426761D01*
X198167690Y-176474380D01*
X198262928Y-176474380D01*
X198358166Y-176426761D01*
X198405785Y-176379142D01*
X198453404Y-176283904D01*
X198501023Y-176093428D01*
X198501023Y-175855333D01*
X198453404Y-175664857D01*
X198405785Y-175569619D01*
X198358166Y-175522000D01*
X198262928Y-175474380D01*
X135381976Y-210510380D02*
X135953404Y-210510380D01*
X135667690Y-210510380D02*
X135667690Y-209510380D01*
X135762928Y-209653238D01*
X135858166Y-209748476D01*
X135953404Y-209796095D01*
X134762928Y-209510380D02*
X134667690Y-209510380D01*
X134572452Y-209558000D01*
X134524833Y-209605619D01*
X134477214Y-209700857D01*
X134429595Y-209891333D01*
X134429595Y-210129428D01*
X134477214Y-210319904D01*
X134524833Y-210415142D01*
X134572452Y-210462761D01*
X134667690Y-210510380D01*
X134762928Y-210510380D01*
X134858166Y-210462761D01*
X134905785Y-210415142D01*
X134953404Y-210319904D01*
X135001023Y-210129428D01*
X135001023Y-209891333D01*
X134953404Y-209700857D01*
X134905785Y-209605619D01*
X134858166Y-209558000D01*
X134762928Y-209510380D01*
X135381976Y-176474380D02*
X135953404Y-176474380D01*
X135667690Y-176474380D02*
X135667690Y-175474380D01*
X135762928Y-175617238D01*
X135858166Y-175712476D01*
X135953404Y-175760095D01*
X134762928Y-175474380D02*
X134667690Y-175474380D01*
X134572452Y-175522000D01*
X134524833Y-175569619D01*
X134477214Y-175664857D01*
X134429595Y-175855333D01*
X134429595Y-176093428D01*
X134477214Y-176283904D01*
X134524833Y-176379142D01*
X134572452Y-176426761D01*
X134667690Y-176474380D01*
X134762928Y-176474380D01*
X134858166Y-176426761D01*
X134905785Y-176379142D01*
X134953404Y-176283904D01*
X135001023Y-176093428D01*
X135001023Y-175855333D01*
X134953404Y-175664857D01*
X134905785Y-175569619D01*
X134858166Y-175522000D01*
X134762928Y-175474380D01*
M02*
