G04 #@! TF.GenerationSoftware,KiCad,Pcbnew,(5.1.4)-1*
G04 #@! TF.CreationDate,2019-11-22T15:53:41-06:00*
G04 #@! TF.ProjectId,DriveBoard2020,44726976-6542-46f6-9172-64323032302e,rev?*
G04 #@! TF.SameCoordinates,Original*
G04 #@! TF.FileFunction,Legend,Bot*
G04 #@! TF.FilePolarity,Positive*
%FSLAX46Y46*%
G04 Gerber Fmt 4.6, Leading zero omitted, Abs format (unit mm)*
G04 Created by KiCad (PCBNEW (5.1.4)-1) date 2019-11-22 15:53:41*
%MOMM*%
%LPD*%
G04 APERTURE LIST*
%ADD10C,0.150000*%
G04 APERTURE END LIST*
D10*
X98488500Y-110363000D02*
X98488500Y-105283000D01*
X98488500Y-105283000D02*
X73088500Y-105283000D01*
X73088500Y-105283000D02*
X73088500Y-110363000D01*
X73088500Y-110363000D02*
X98488500Y-110363000D01*
X98488500Y-67183000D02*
X98488500Y-62103000D01*
X98488500Y-62103000D02*
X73088500Y-62103000D01*
X73088500Y-62103000D02*
X73088500Y-67183000D01*
X73088500Y-67183000D02*
X98488500Y-67183000D01*
X161988500Y-105283000D02*
X136588500Y-105283000D01*
X136588500Y-67183000D02*
X161988500Y-67183000D01*
X161988500Y-110363000D02*
X161988500Y-105283000D01*
X136588500Y-105283000D02*
X136588500Y-110363000D01*
X136588500Y-110363000D02*
X161988500Y-110363000D01*
X161988500Y-67183000D02*
X161988500Y-62103000D01*
X161988500Y-62103000D02*
X136588500Y-62103000D01*
X136588500Y-62103000D02*
X136588500Y-67183000D01*
X97662976Y-68397380D02*
X98234404Y-68397380D01*
X97948690Y-68397380D02*
X97948690Y-67397380D01*
X98043928Y-67540238D01*
X98139166Y-67635476D01*
X98234404Y-67683095D01*
X97043928Y-67397380D02*
X96948690Y-67397380D01*
X96853452Y-67445000D01*
X96805833Y-67492619D01*
X96758214Y-67587857D01*
X96710595Y-67778333D01*
X96710595Y-68016428D01*
X96758214Y-68206904D01*
X96805833Y-68302142D01*
X96853452Y-68349761D01*
X96948690Y-68397380D01*
X97043928Y-68397380D01*
X97139166Y-68349761D01*
X97186785Y-68302142D01*
X97234404Y-68206904D01*
X97282023Y-68016428D01*
X97282023Y-67778333D01*
X97234404Y-67587857D01*
X97186785Y-67492619D01*
X97139166Y-67445000D01*
X97043928Y-67397380D01*
X74072785Y-104973380D02*
X74644214Y-104973380D01*
X74358500Y-104973380D02*
X74358500Y-103973380D01*
X74453738Y-104116238D01*
X74548976Y-104211476D01*
X74644214Y-104259095D01*
X97662976Y-104973380D02*
X98234404Y-104973380D01*
X97948690Y-104973380D02*
X97948690Y-103973380D01*
X98043928Y-104116238D01*
X98139166Y-104211476D01*
X98234404Y-104259095D01*
X97043928Y-103973380D02*
X96948690Y-103973380D01*
X96853452Y-104021000D01*
X96805833Y-104068619D01*
X96758214Y-104163857D01*
X96710595Y-104354333D01*
X96710595Y-104592428D01*
X96758214Y-104782904D01*
X96805833Y-104878142D01*
X96853452Y-104925761D01*
X96948690Y-104973380D01*
X97043928Y-104973380D01*
X97139166Y-104925761D01*
X97186785Y-104878142D01*
X97234404Y-104782904D01*
X97282023Y-104592428D01*
X97282023Y-104354333D01*
X97234404Y-104163857D01*
X97186785Y-104068619D01*
X97139166Y-104021000D01*
X97043928Y-103973380D01*
X137572785Y-68397380D02*
X138144214Y-68397380D01*
X137858500Y-68397380D02*
X137858500Y-67397380D01*
X137953738Y-67540238D01*
X138048976Y-67635476D01*
X138144214Y-67683095D01*
X160908976Y-68397380D02*
X161480404Y-68397380D01*
X161194690Y-68397380D02*
X161194690Y-67397380D01*
X161289928Y-67540238D01*
X161385166Y-67635476D01*
X161480404Y-67683095D01*
X160289928Y-67397380D02*
X160194690Y-67397380D01*
X160099452Y-67445000D01*
X160051833Y-67492619D01*
X160004214Y-67587857D01*
X159956595Y-67778333D01*
X159956595Y-68016428D01*
X160004214Y-68206904D01*
X160051833Y-68302142D01*
X160099452Y-68349761D01*
X160194690Y-68397380D01*
X160289928Y-68397380D01*
X160385166Y-68349761D01*
X160432785Y-68302142D01*
X160480404Y-68206904D01*
X160528023Y-68016428D01*
X160528023Y-67778333D01*
X160480404Y-67587857D01*
X160432785Y-67492619D01*
X160385166Y-67445000D01*
X160289928Y-67397380D01*
X160908976Y-104973380D02*
X161480404Y-104973380D01*
X161194690Y-104973380D02*
X161194690Y-103973380D01*
X161289928Y-104116238D01*
X161385166Y-104211476D01*
X161480404Y-104259095D01*
X160289928Y-103973380D02*
X160194690Y-103973380D01*
X160099452Y-104021000D01*
X160051833Y-104068619D01*
X160004214Y-104163857D01*
X159956595Y-104354333D01*
X159956595Y-104592428D01*
X160004214Y-104782904D01*
X160051833Y-104878142D01*
X160099452Y-104925761D01*
X160194690Y-104973380D01*
X160289928Y-104973380D01*
X160385166Y-104925761D01*
X160432785Y-104878142D01*
X160480404Y-104782904D01*
X160528023Y-104592428D01*
X160528023Y-104354333D01*
X160480404Y-104163857D01*
X160432785Y-104068619D01*
X160385166Y-104021000D01*
X160289928Y-103973380D01*
X137572785Y-104973380D02*
X138144214Y-104973380D01*
X137858500Y-104973380D02*
X137858500Y-103973380D01*
X137953738Y-104116238D01*
X138048976Y-104211476D01*
X138144214Y-104259095D01*
X98282023Y-68667380D02*
X97615357Y-69667380D01*
X97615357Y-68667380D02*
X98282023Y-69667380D01*
X97186785Y-69667380D02*
X96996309Y-69667380D01*
X96901071Y-69619761D01*
X96853452Y-69572142D01*
X96758214Y-69429285D01*
X96710595Y-69238809D01*
X96710595Y-68857857D01*
X96758214Y-68762619D01*
X96805833Y-68715000D01*
X96901071Y-68667380D01*
X97091547Y-68667380D01*
X97186785Y-68715000D01*
X97234404Y-68762619D01*
X97282023Y-68857857D01*
X97282023Y-69095952D01*
X97234404Y-69191190D01*
X97186785Y-69238809D01*
X97091547Y-69286428D01*
X96901071Y-69286428D01*
X96805833Y-69238809D01*
X96758214Y-69191190D01*
X96710595Y-69095952D01*
X98282023Y-102703380D02*
X97615357Y-103703380D01*
X97615357Y-102703380D02*
X98282023Y-103703380D01*
X97091547Y-103131952D02*
X97186785Y-103084333D01*
X97234404Y-103036714D01*
X97282023Y-102941476D01*
X97282023Y-102893857D01*
X97234404Y-102798619D01*
X97186785Y-102751000D01*
X97091547Y-102703380D01*
X96901071Y-102703380D01*
X96805833Y-102751000D01*
X96758214Y-102798619D01*
X96710595Y-102893857D01*
X96710595Y-102941476D01*
X96758214Y-103036714D01*
X96805833Y-103084333D01*
X96901071Y-103131952D01*
X97091547Y-103131952D01*
X97186785Y-103179571D01*
X97234404Y-103227190D01*
X97282023Y-103322428D01*
X97282023Y-103512904D01*
X97234404Y-103608142D01*
X97186785Y-103655761D01*
X97091547Y-103703380D01*
X96901071Y-103703380D01*
X96805833Y-103655761D01*
X96758214Y-103608142D01*
X96710595Y-103512904D01*
X96710595Y-103322428D01*
X96758214Y-103227190D01*
X96805833Y-103179571D01*
X96901071Y-103131952D01*
X161528023Y-68667380D02*
X160861357Y-69667380D01*
X160861357Y-68667380D02*
X161528023Y-69667380D01*
X160575642Y-68667380D02*
X159908976Y-68667380D01*
X160337547Y-69667380D01*
X99671166Y-66270142D02*
X99718785Y-66317761D01*
X99861642Y-66365380D01*
X99956880Y-66365380D01*
X100099738Y-66317761D01*
X100194976Y-66222523D01*
X100242595Y-66127285D01*
X100290214Y-65936809D01*
X100290214Y-65793952D01*
X100242595Y-65603476D01*
X100194976Y-65508238D01*
X100099738Y-65413000D01*
X99956880Y-65365380D01*
X99861642Y-65365380D01*
X99718785Y-65413000D01*
X99671166Y-65460619D01*
X98718785Y-66365380D02*
X99290214Y-66365380D01*
X99004500Y-66365380D02*
X99004500Y-65365380D01*
X99099738Y-65508238D01*
X99194976Y-65603476D01*
X99290214Y-65651095D01*
X100242595Y-64079380D02*
X100242595Y-63079380D01*
X100004500Y-63079380D01*
X99861642Y-63127000D01*
X99766404Y-63222238D01*
X99718785Y-63317476D01*
X99671166Y-63507952D01*
X99671166Y-63650809D01*
X99718785Y-63841285D01*
X99766404Y-63936523D01*
X99861642Y-64031761D01*
X100004500Y-64079380D01*
X100242595Y-64079380D01*
X98718785Y-64079380D02*
X99290214Y-64079380D01*
X99004500Y-64079380D02*
X99004500Y-63079380D01*
X99099738Y-63222238D01*
X99194976Y-63317476D01*
X99290214Y-63365095D01*
X163171166Y-66270142D02*
X163218785Y-66317761D01*
X163361642Y-66365380D01*
X163456880Y-66365380D01*
X163599738Y-66317761D01*
X163694976Y-66222523D01*
X163742595Y-66127285D01*
X163790214Y-65936809D01*
X163790214Y-65793952D01*
X163742595Y-65603476D01*
X163694976Y-65508238D01*
X163599738Y-65413000D01*
X163456880Y-65365380D01*
X163361642Y-65365380D01*
X163218785Y-65413000D01*
X163171166Y-65460619D01*
X162790214Y-65460619D02*
X162742595Y-65413000D01*
X162647357Y-65365380D01*
X162409261Y-65365380D01*
X162314023Y-65413000D01*
X162266404Y-65460619D01*
X162218785Y-65555857D01*
X162218785Y-65651095D01*
X162266404Y-65793952D01*
X162837833Y-66365380D01*
X162218785Y-66365380D01*
X163742595Y-63571380D02*
X163742595Y-62571380D01*
X163504500Y-62571380D01*
X163361642Y-62619000D01*
X163266404Y-62714238D01*
X163218785Y-62809476D01*
X163171166Y-62999952D01*
X163171166Y-63142809D01*
X163218785Y-63333285D01*
X163266404Y-63428523D01*
X163361642Y-63523761D01*
X163504500Y-63571380D01*
X163742595Y-63571380D01*
X162790214Y-62666619D02*
X162742595Y-62619000D01*
X162647357Y-62571380D01*
X162409261Y-62571380D01*
X162314023Y-62619000D01*
X162266404Y-62666619D01*
X162218785Y-62761857D01*
X162218785Y-62857095D01*
X162266404Y-62999952D01*
X162837833Y-63571380D01*
X162218785Y-63571380D01*
X99909261Y-106481571D02*
X99766404Y-106529190D01*
X99718785Y-106576809D01*
X99671166Y-106672047D01*
X99671166Y-106814904D01*
X99718785Y-106910142D01*
X99766404Y-106957761D01*
X99861642Y-107005380D01*
X100242595Y-107005380D01*
X100242595Y-106005380D01*
X99909261Y-106005380D01*
X99814023Y-106053000D01*
X99766404Y-106100619D01*
X99718785Y-106195857D01*
X99718785Y-106291095D01*
X99766404Y-106386333D01*
X99814023Y-106433952D01*
X99909261Y-106481571D01*
X100242595Y-106481571D01*
X98718785Y-107005380D02*
X99290214Y-107005380D01*
X99004500Y-107005380D02*
X99004500Y-106005380D01*
X99099738Y-106148238D01*
X99194976Y-106243476D01*
X99290214Y-106291095D01*
X100218785Y-109259666D02*
X99742595Y-109259666D01*
X100314023Y-109545380D02*
X99980690Y-108545380D01*
X99647357Y-109545380D01*
X98790214Y-109545380D02*
X99361642Y-109545380D01*
X99075928Y-109545380D02*
X99075928Y-108545380D01*
X99171166Y-108688238D01*
X99266404Y-108783476D01*
X99361642Y-108831095D01*
X163409261Y-106481571D02*
X163266404Y-106529190D01*
X163218785Y-106576809D01*
X163171166Y-106672047D01*
X163171166Y-106814904D01*
X163218785Y-106910142D01*
X163266404Y-106957761D01*
X163361642Y-107005380D01*
X163742595Y-107005380D01*
X163742595Y-106005380D01*
X163409261Y-106005380D01*
X163314023Y-106053000D01*
X163266404Y-106100619D01*
X163218785Y-106195857D01*
X163218785Y-106291095D01*
X163266404Y-106386333D01*
X163314023Y-106433952D01*
X163409261Y-106481571D01*
X163742595Y-106481571D01*
X162790214Y-106100619D02*
X162742595Y-106053000D01*
X162647357Y-106005380D01*
X162409261Y-106005380D01*
X162314023Y-106053000D01*
X162266404Y-106100619D01*
X162218785Y-106195857D01*
X162218785Y-106291095D01*
X162266404Y-106433952D01*
X162837833Y-107005380D01*
X162218785Y-107005380D01*
X163718785Y-109259666D02*
X163242595Y-109259666D01*
X163814023Y-109545380D02*
X163480690Y-108545380D01*
X163147357Y-109545380D01*
X162861642Y-108640619D02*
X162814023Y-108593000D01*
X162718785Y-108545380D01*
X162480690Y-108545380D01*
X162385452Y-108593000D01*
X162337833Y-108640619D01*
X162290214Y-108735857D01*
X162290214Y-108831095D01*
X162337833Y-108973952D01*
X162909261Y-109545380D01*
X162290214Y-109545380D01*
M02*
