G04 #@! TF.GenerationSoftware,KiCad,Pcbnew,(5.1.5)-3*
G04 #@! TF.CreationDate,2020-01-06T20:04:16-06:00*
G04 #@! TF.ProjectId,DriveBoard2020,44726976-6542-46f6-9172-64323032302e,rev?*
G04 #@! TF.SameCoordinates,Original*
G04 #@! TF.FileFunction,Paste,Bot*
G04 #@! TF.FilePolarity,Positive*
%FSLAX46Y46*%
G04 Gerber Fmt 4.6, Leading zero omitted, Abs format (unit mm)*
G04 Created by KiCad (PCBNEW (5.1.5)-3) date 2020-01-06 20:04:16*
%MOMM*%
%LPD*%
G04 APERTURE LIST*
%ADD10R,0.990600X1.778000*%
G04 APERTURE END LIST*
D10*
X135191500Y-168503600D03*
X132651500Y-168503600D03*
X130111500Y-168503600D03*
X127571500Y-168503600D03*
X125031500Y-168503600D03*
X122491500Y-168503600D03*
X119951500Y-168503600D03*
X117411500Y-168503600D03*
X114871500Y-168503600D03*
X112331500Y-168503600D03*
X135191500Y-174396400D03*
X132651500Y-174396400D03*
X130111500Y-174396400D03*
X127571500Y-174396400D03*
X125031500Y-174396400D03*
X122491500Y-174396400D03*
X119951500Y-174396400D03*
X117411500Y-174396400D03*
X114871500Y-174396400D03*
X112331500Y-174396400D03*
X135191500Y-217576400D03*
X132651500Y-217576400D03*
X130111500Y-217576400D03*
X127571500Y-217576400D03*
X125031500Y-217576400D03*
X122491500Y-217576400D03*
X119951500Y-217576400D03*
X117411500Y-217576400D03*
X114871500Y-217576400D03*
X112331500Y-217576400D03*
X135191500Y-211683600D03*
X132651500Y-211683600D03*
X130111500Y-211683600D03*
X127571500Y-211683600D03*
X125031500Y-211683600D03*
X122491500Y-211683600D03*
X119951500Y-211683600D03*
X117411500Y-211683600D03*
X114871500Y-211683600D03*
X112331500Y-211683600D03*
X180911500Y-168503600D03*
X178371500Y-168503600D03*
X175831500Y-168503600D03*
X198691500Y-174396400D03*
X196151500Y-174396400D03*
X193611500Y-174396400D03*
X191071500Y-174396400D03*
X188531500Y-174396400D03*
X185991500Y-174396400D03*
X183451500Y-174396400D03*
X180911500Y-174396400D03*
X178371500Y-174396400D03*
X175831500Y-174396400D03*
X198691500Y-217576400D03*
X193611500Y-217576400D03*
X188531500Y-217576400D03*
X185991500Y-217576400D03*
X183451500Y-217576400D03*
X180911500Y-217576400D03*
X178371500Y-217576400D03*
X198691500Y-211683600D03*
X193611500Y-211683600D03*
X183451500Y-211683600D03*
X180911500Y-211683600D03*
X178371500Y-211683600D03*
X175831500Y-211683600D03*
X188531500Y-211683600D03*
X191071500Y-211683600D03*
X196151500Y-217576400D03*
X183451500Y-168503600D03*
X185991500Y-168503600D03*
X196151500Y-211683600D03*
X191071500Y-217576400D03*
X193611500Y-168503600D03*
X191071500Y-168503600D03*
X185991500Y-211683600D03*
X188531500Y-168503600D03*
X196151500Y-168503600D03*
X198691500Y-168503600D03*
X175831500Y-217576400D03*
M02*
